<svg xmlns="http://www.w3.org/2000/svg" width="120" height="120" fill="none" viewBox="0 0 120 120"><path fill="currentColor" d="m95.32 114.25 2.57.36 2.38.1 2.52-.43.12-.01h.12l2.63-.03h.16l.15.03 2.44.48 2.4-.25.08-.01h.08l1.05.01-.02 1.5-.02 1.5-1-.01-2.5.26-.23.02-.22-.04-2.46-.49-2.42.01-2.5.44-.15.02-.17-.01-2.63-.1h-.08l-.07-.02-2.4-.34-2.39.47-.23.05-.24-.03-2.55-.32H87.2l-2.6.08-2.64.06h-2.59v.02l-2.63.18h-.19l-2.62-.48-2.4.28h-.25l-2.55-.13-2.56.16h-.13l-.13-.01-2.5-.28-2.45.27h-.07l-2.64.15-.15.01-.14-.02-2.55-.35-2.5.06h-.06l-2.64-.06v-.01h-2.64l-2.62-.05-2.5.22-.03.01h-.05l-2.64.1h-.11l-2.64-.1v-.02l-2.59-.01h-.05l-.04-.01-2.58-.18-2.53.13h-.08l-2.64-.01v-.01l-2.5.02-2.65.23-.14.02-.15-.02-2.53-.28-2.58.02v-.02l-2.54.18h-.01l-.01.01-2.65.12h-.18L8 117.5l.01-.22v-2.78h.21l2.46.2 2.51-.12v-.01l2.64-.17h.09l2.64-.02h.17l2.51.28 2.48-.2.05-.02h.06l2.65-.02h.02l2.56.01 2.65-.12h.16l2.65.18-.01.01 2.55.01h.05l2.59.1 2.5-.08 2.64-.24h.15l2.64.05h-.01 2.66l2.6.07 2.61-.06h.25l2.48.37 2.5-.16v.01l2.58-.28.15-.01h.17l2.48.3 2.54-.15.08-.01.09.01 2.53.13 2.5-.3.23-.03.22.05 2.45.45 2.45-.15.05-.01h.03l2.63-.01v-.01l2.63-.06 2.64-.07h.04l2.63-.01h.2l2.4.32 2.4-.46.25-.05zM84.3 10.53l2.64.25.11.02 2.6.45.14.02.12.05 2.47.91.03.01.02.02 2.42 1 .17.07.16.12 2.1 1.57.13.1.12.15 1.54 1.9 1.87 1.65.01.01 1.91 1.71 2.07 1.63.07.06.06.06 1.85 1.87.2.21.12.27 1.02 2.49.18.43-.1.47-.58 2.53-1.32-.3-.09.05-1.3.75-.04-.08-.3-.51.13-.58.46-2.06-.73-1.77-1.57-1.6-1.99-1.58-.03-.02-.04-.03-1.98-1.77v-.02l-1.92-1.67-.1-.08-.08-.1-1.55-1.9-1.79-1.34-2.17-.9-2.35-.88-2.45-.41-2.38-.23-2.4.23-2.35.56-2.3.75-2.03 1.18-1.8 1.5-1.54 1.91-.03.04-.02.02-1.65 1.83-1.1 2.19-.95 2.36-.06.14-.1.12-1.45 2.15-1.06 2.25-.06.1-.07.11-1.5 2.17-1.3 2.2-.06.12-.1.12-1.7 1.94-.1.1-1.88 1.76-.15.16-.19.09-2.3 1.16v.01l-2.23 1.26-2 1.43-2.05 1.65-.04.02-.02.03-1.94 1.38-1.26 2.04-.1.16-.15.14-1.9 1.76-1.44 1.8-1 2.27-.04.08-.05.08-1.36 2.26-.08.14-.1.1-1.7 1.82-1.05 2.18-.06.13-.08.12-1.49 2-1.02 2.28-.08.17-.13.17-1.67 2-1.3 2.03-.95 2.33-.05.1-.06.1-1.37 2.26-.06.1-.07.08-1.6 1.9-1.15 2.23-.05.1-.06.08-1.53 2.14-1.25 2.17-.03.05-.02.06-1.46 2.08-1.23 2.29-.06.1-.07.09-1.6 2.1-1.4 2.13-1.29 2.08-1.17 2.38v.01L14 99.28l-.72 1.45-1.39-.84-.17-.1.77-1.27-1.16-.59 1-2 1.18-2.38.03-.07.04-.06 1.38-2.25.01-.01.02-.03 1.45-2.2.03-.05.03-.03 1.54-2.05 1.21-2.2.04-.06.04-.06 1.5-2.18 1.26-2.2.07-.11 1.47-2.09 1.19-2.23.08-.15.1-.11 1.6-1.96 1.31-2.16.95-2.28.05-.13.08-.12 1.42-2.21.06-.08.04-.06 1.57-1.91 1.02-2.24.06-.14.1-.13 1.5-2.03 1.1-2.25.1-.2.14-.16 1.75-1.9 1.22-2.04 1.04-2.33.08-.18.12-.15 1.65-2.07.07-.08.09-.08 1.8-1.7 1.32-2.08.16-.26.23-.16 2.1-1.51 2.05-1.66.03-.03.04-.02 2.16-1.53.05-.05.07-.03 2.3-1.3.04-.01.02-.01 2.13-1.12 1.66-1.56 1.58-1.77 1.29-2.2.03-.05.04-.05 1.44-2.1 1.08-2.24.04-.1.07-.1 1.42-2.1.93-2.28.02-.05.02-.06 1.2-2.37.1-.17.12-.15 1.74-1.93 1.65-2.03.1-.12.1-.1 2.01-1.67.1-.08.11-.06 2.25-1.3.14-.08.16-.05 2.47-.81.05-.01.06-.01 2.55-.62.1-.04.12-.01 2.64-.25h.28"/><path fill="currentColor" d="M66.44 36.08h.08l2.6.25.1.01.13.02 2.56.64.17.03.15.08 2.38 1.19.17.1.16.13 1.96 1.78 1.97 1.67.13.1.1.14 1.6 2.11.08.1.06.11 1.22 2.35.04.07.02.07 1 2.46.08.19.02.2.32 2.63v.14l.07 2.64v.14l-.03.14-.42 2.6-.01.06-.01.05-.62 2.55-.03.1-.78 2.54-.05.13-.06.12-1.24 2.35-.05.1-1.4 2.24-.04.08-.04.05-1.62 2.1-.02.01-.02.03-1.68 2.04-.12.14-.14.1-2.04 1.54-1.82 1.79v.01l-1.93 1.83-.15.15-.19.1-2.27 1.2-2.08 1.47-.1.07-.1.04-2.3 1.12-2.13 1.43-.2.14-.25.06-2.45.6-2.2 1.13-.12.05-2.44 1h-.02l-2.45.98h-.03l-2.47.94h-.02l-.04.02-2.5.83-.11.04h-.1l-2.46.44-2.32 1.07-.28.14h-.31l-2.18.02-1.82 1.03-1.9 1.68-.05.03-.03.04-2.08 1.57-.03.02-.05.04-2.04 1.32-1.4 1.91-.05.1-.07.07-1.72 1.78-1.22 2.14-.08.16-.13.12-1.76 1.87-1.35 1.94-1 2.34-.03.08-.05.08-1.32 2.27-.1.14-1.43 1.95-.37 1.16-.51 1.6-1.54-.69-.12-.06.62-1.36-1.3-.4.45-1.41.07-.24.14-.18 1.55-2.11 1.23-2.11 1-2.37.08-.14.08-.13 1.51-2.17.07-.1.07-.07 1.7-1.8 1.23-2.16.1-.17.13-.14 1.8-1.87 1.47-2.03.17-.22.23-.16 2.25-1.46 1.98-1.5 1.91-1.69.12-.1.14-.07 2.3-1.33.35-.19h.39l2.23-.03 2.22-1 .17-.1.2-.03 2.54-.45 2.36-.79 2.4-.91 2.44-.96 2.45-1 2.24-1.14.15-.08.17-.03 2.34-.6 2.02-1.33.08-.05.08-.04 2.26-1.12 2.08-1.45.08-.05.08-.05 2.16-1.15 1.78-1.69 1.86-1.84.07-.06.08-.05 1.98-1.5 1.59-1.91 1.58-2.07 1.31-2.12 1.11-2.14.75-2.4.6-2.47.38-2.33-.05-2.5h-.01l-.27-2.3-.9-2.22-1.13-2.18-1.4-1.86-1.92-1.6-.02-.03-.02-.01-1.8-1.65-2.1-1.05-2.26-.53-2.4-.24-2.54-.1h-.16l-.17-.05-.1-.04.4-1.44.12-.44.04-1.03z"/><path fill="currentColor" d="m53.06 93.17.13.25.67 1.34-.08.04-.22.12-.25.03-2.33.3-2.11.95-2.13 1.4-.02-.01-2.06 1.5-.01.02-.02.01-2.05 1.37-1.64 1.84-.05.05-1.83 1.89h-.01l-1.8 1.84-1.75 1.98-.07.08-.08.07-2.03 1.71-2 1.71-.13.1-2.17 1.48-.05.03-2.21 1.42-.07.03-.06.04-2.37 1.2-.19.1-.2.03-2.62.52-.13.02-.13.01-2.66.07h-.13l-.13-.02-2.24-.34-1.53-.22.3-1.54v-.1l1.48.28.21-1.38 2.12.31 2.35-.06 2.3-.45 2.2-1.12 2.06-1.31 2.08-1.42 1.98-1.69 1.96-1.66 1.68-1.87.04-.05 1.84-1.89 1.84-1.9 1.73-1.93.13-.14.15-.1 2.2-1.48 2.1-1.5.02-.03.04-.02 2.21-1.44.1-.06.1-.05 2.43-1.09.2-.1.2-.01 2.55-.36zm48.78-65.64 2.66.33.35.03.3.2 2.15 1.43-.74 1.1.01.14.08 1.5h-.1l-.5.04-.42-.28-1.87-1.23-2.03-.26-2.2.44-2.04.95-1.57 1.22-.65 1.9v2.2l.46 2.25.79 2.52.02.07.01.06.54 2.51.7 2.55.01.1.52 2.56.55 2.58v.04l.01.03.44 2.63.03.16-.01.18-.16 2.65v.09l-.03.1-.49 2.62v.05l-.02.04-.66 2.56-.7 2.58-.04.17-.1.18-1.3 2.3-.97 2.28v.02l-.02.01-1.12 2.42-.09.19-.14.16-1.7 1.95-1.41 2.1-.06.1-.08.08-1.7 1.82-1.47 2.15-.14.2-.19.14-1.99 1.5-1.53 1.94-.03.03-.02.03-1.44 1.6-.21 2.14h-.01l-.29 2.64v.08l-.02.07-.56 2.6-.04.18-.08.17-1.14 2.26-.8 2.46-.13.4-.34.29-2.07 1.7-.12.12-.16.07-2.3 1.14-.17.08-2.5.9-.3.1-.3-.02-2.54-.14-1.65-.1.26-1.64.05-.25 1.46.22.06-1.23 2.24.12 2.07-.75 2.12-1.05 1.6-1.3.71-2.15.04-.11.04-.1 1.1-2.18.5-2.37.28-2.52.27-2.6.05-.48.31-.37 1.76-1.98 1.6-2 .12-.15.14-.1 1.96-1.5 1.37-1.98.06-.1.07-.06 1.7-1.86 1.43-2.1.05-.08.07-.08 1.59-1.83 1.04-2.23 1.02-2.38.07-.14 1.22-2.17.63-2.34.67-2.56.45-2.42.14-2.43-.4-2.35-.55-2.58v-.03l-.5-2.48-.68-2.55-.03-.08-.51-2.44-.8-2.52-.02-.09-.02-.07-.52-2.57-.03-.16v-3l.09-.22.85-2.52.15-.42.35-.28 2.1-1.63.13-.1.15-.08 2.36-1.09.16-.07 3-.6zM72.52 55.67l-.02.02-1.28 2.15-1.27 2.3-.02.03-.02.02-1.38 2.25-.07.12-1.57 2.12-.06.07-.06.06-1.7 1.8-1.25 2.16-.03.03v.02l-1.44 2.23-.07.11-.1.1-1.8 1.94-.2.17-2.12 1.61-.2.16-.25.08-2.55.8-.14.04-.15.02-2.61.29-.24.02-.23-.05-2.43-.53-2.14-.08-2.25.73-.28.1-.3-.03-2.6-.22h-.05l-2.59-.33-2.13-.06-2.45.33-.13.01-.13-.01-2.57-.1-2.5.12-.3.01-.29-.1-.93-.34.5-1.4.5-1.43.67.24 2.28-.1h.14l2.5.1 2.45-.32.12-.01h.12l2.32.07h.06l.07.01 2.66.32H42l2.22.19 2.25-.7.25-.09.26.01 2.52.1h.13l.12.03 2.32.48 2.27-.24 2.1-.67 1.83-1.38 1.66-1.77 1.3-2.03 1.33-2.29.08-.14.12-.13 1.76-1.88 1.52-2.04 1.32-2.15 1.25-2.23.01-.03.01-.01 1.3-2.18.02-.03.02-.03.05-.08z"/><path fill="currentColor" d="m35.98 74.96.59.34.75.31-.95 2.34-.02.04-.01.04-1.14 2.37-.04.05-.02.06-1.35 2.28-.1.14-1.58 2.1-.06.09-.06.06-1.75 1.8L29 89.07l-1.28 2.18-.88 2.17-.1 1.1-.18 1.52-1.52-.21-.19-.02.2-1.5-1.3-.13.15-1.33.03-.2.08-.2.98-2.42.1-.19 1.32-2.27.01-.01 1.35-2.28.1-.15.11-.12 1.8-1.87 1.46-1.96 1.31-2.2 1.08-2.25.91-2.25.04-.1.06-.1.04-.08zm15.06-20.29.8.6 1.21.9-.05.07-.05.07-.06.04-1.65 1.8-1.43 2.1h-.01l-1.39 2.2-.02.02-.02.03-1.55 2.15-.05.07-.04.06-1.7 1.87-1.26 2.15-.07.1-1.5 2.16-.03.02-1.56 2.12-.9 1.4-.86 1.37-1.29-.97-.15-.1.9-1.2-1.12-.7.94-1.48.03-.05.02-.04 1.57-2.13 1.43-2.04L42.54 65l.07-.13.1-.1 1.7-1.92 1.52-2.08 1.38-2.17.01-.01.02-.02 1.48-2.18.07-.1.07-.07 1.73-1.88zm10.16-.12 1.16.7.13.06h-.01l.01.01-.04.09-1.1 2.16-1.13 2.35-.01.03-.03.05-1.27 2.3-.05.09-.05.06-1.53 2.15-.06.1-.08.08-1.77 1.85-1.34 2.06-.03.05-.03.04-1.6 2.1-1.51 2.03-1 1.71-.79 1.34-1.3-.83-.17-.1.8-1.27-1.12-.66 1.03-1.76.1-.14 1.57-2.1v-.02l1.59-2.1 1.4-2.14.08-.12.1-.1 1.76-1.87 1.45-2.04 1.2-2.16 1.1-2.3.01-.01v-.01l1.15-2.27.1-.18zM45.41 75.1l.45.27.91.32-.84 2.37-.03.1-.04.08-1.18 2.33-.03.07-.04.06-1.41 2.24-.03.04-.03.05-1.59 2.12-.03.04L40.05 87l-.65 2.29-.05.15-.07.13-.1.19-1.33-.7-.91-.49-.42-.11.03-.1h-.02l.04-.08.68-2.38.09-.28.18-.23 1.63-2.04 1.51-2.02 1.34-2.1 1.13-2.26.82-2.28.04-.13.07-.12.05-.08zm34.22 12.36.14.18.87 1.22-.09.06-.25.18-.32.06-2.24.45-2 1.25-.06.04-.07.03-1.95.95-1.1 1.7-1.03 2.17-.5 2.42-.04.17-.07.14-1.1 2.41-.71 1.83.52 2.05.8 2.4.01.06.02.06.64 2.54.02.12.01.12.03.25-1.5.12-1.5.14-.02-.18-.6-2.38V108l-.79-2.4-.01-.04-.01-.06-.65-2.5-.12-.46.18-.45.91-2.37.03-.04.01-.04 1.02-2.26.53-2.44.04-.16.07-.15 1.13-2.4.05-.11.05-.08 1.41-2.16.22-.34.37-.18 2.27-1.12 2.13-1.33.24-.14.27-.05 2.5-.5z"/><path fill="currentColor" d="m53.46 85.58.04.13.02.13.26 2.42.66 2.33.87 2.46.95 2.45.85 2.2 1.49 1.63 1.82 1.37 1.98.7 2.22-.03 2.46-.3 1.27-.16.36 1.23v.02l-1.44.4.19 1.48-2.54.32-.08.01h-.08l-2.59.05h-.27l-.26-.09-2.45-.87-.22-.07-.18-.14-2.08-1.58-.1-.08-.1-.1-1.8-1.96-.2-.21-.09-.26-.96-2.48-.95-2.46v-.02l-.9-2.5-.02-.05-.01-.05-.72-2.55-.03-.12-.02-.12-.28-2.54.94-.1.53-.16 1.44-.42zm-25.08 6.57 2.56.26-.13 1.23.08.23.45 1.43-.1.02-.29.1-.3-.04-2.26-.22-2.11.7-2.2 1.18h-.03l-.01.02-2.36 1.18-.13.07-.12.04-2.55.74-2.54.72-.3.09-.29-.04-2.63-.33-.34-.05-.3-.18-.3-.2.82-1.26.4-.63.1-.65 2.31.26 2.23-.62 2.42-.71 2.2-1.1 2.33-1.24.12-.06.12-.05 2.54-.82.3-.1zm41.96 17.16 2.39.33 2.48-.27.16-.02.15.02 2.63.24 2.58.16h.1l.1.02 2.6.52.3.06.25.19 2.2 1.53.42.3.15.48.77 2.49-1.3.4-.04.1-.67 1.33-.66-.33-.19-.61-.63-2-1.51-1.07-2.2-.43-2.49-.14-.02-.02h-.03l-2.54-.23-2.44.28-.17.01-.19-.02-2.44-.33-2.38.28-.04.01h-.05l-2.66.13-.12.02-.1-.02-2.53-.25-2.26.17-1.95.74-1.44 1.51-.5 1.05-.72 1.53-1.43-.91-.19-.11.81-1.26-1.17-.55.6-1.26.1-.21.17-.18 1.82-1.92.25-.25.32-.11 2.47-.94.21-.08.21-.01 2.63-.2.13-.02.12.02 2.48.24 2.6-.13v.02l2.48-.3.19-.02zm15.08-90.87 2.61.42.32.06.26.18 1.8 1.17 1.52 1-1.27 1.3-.09.1-1.05-1.04-.75 1.15-1.55-1-2.06-.35-2.43.21-2.37.45-.22.03-.31-.03.16-1.5.04-.32-.2-1.14 2.48-.45.07-.01h.06l2.6-.24.2-.02z"/><path fill="currentColor" d="m98.3 18.81.18.55.47 1.43-.1.02-.12.05-.13.01-2.46.37H96l-2.43.14-1.9.6-1.25 1.61-.44.58h-.72l-2.39.02-.17.08-.04-.08-.06.01-.01-.16-.47-1.15-.57-1.4.47-.18.26-.11h.29l1.93-.03 1.11-1.41.28-.36.45-.14 2.48-.78.18-.06h.19l2.63-.17 2.34-.34z"/></svg>