<svg width="120" height="120" viewBox="0 0 120 120" fill="none" xmlns="http://www.w3.org/2000/svg">
<path d="M62.5664 9.27344L63.1406 10.3281L63.2227 10.4805L63.9961 13.1875L64.0078 13.2578L64.0195 13.3398L64.4414 15.7656L65.3906 18.1094L65.4258 18.2031L65.4492 18.2969L66.082 20.7695L66.8789 23.207L67.8281 25.6797L67.8984 25.9141L68.4023 28.457L69 30.9766L69.8906 33.332L69.9023 33.3555L70.8047 35.8398L70.8281 35.9219L70.8516 36.0156L71.4375 38.6055L71.4961 38.8164L71.4727 39.0273L71.3203 41.5352L71.5664 43.9961L71.9883 46.6094L72 46.7031V46.8086L72.0469 49.2695L72.4922 51.8477L72.9375 54.4609L72.9492 54.5547V54.6484L73.043 57.1914L73.4883 59.6992L73.5117 59.8281V59.957L73.5234 62.6055L73.5586 65.1016L74.0156 67.5859L74.5078 70.1992L74.543 70.3867L74.5312 70.5859L74.3203 73.1172L74.6484 75.5664L74.6602 75.6367V75.707L74.7422 78.2969L75.1523 80.7812L75.1641 80.8633V80.957L75.2695 83.4414L75.832 85.9141L75.8672 86.0898V88.7969L76.1953 91.3281V91.3398L76.5234 93.9648L76.5352 94.0469V94.1289L76.5586 96.6367L77.0156 99.1328L77.0273 99.1445V99.168L77.4375 101.781L77.4609 101.934L77.4492 102.098L77.3086 104.629L77.6367 107.113V107.184L77.6484 107.254L77.7188 109.832L78.1289 112.281L78.5605 114.62L79.1797 114.582L79.2266 114.57H79.2617L81.8867 114.559V114.547L84.5234 114.488L87.1602 114.418H87.1953L89.832 114.406H89.9375L90.0312 114.418L92.4219 114.734L94.8359 114.266L95.082 114.219L95.3164 114.254L97.8945 114.605L100.273 114.711L102.793 114.277L102.91 114.266H103.027L105.664 114.242H105.816L105.969 114.266L108.406 114.746L110.809 114.5L110.891 114.488H110.973L112.016 114.5L112.004 116L111.98 117.5L110.984 117.488L108.477 117.746L108.254 117.77L108.031 117.734L105.57 117.242L103.145 117.254L100.648 117.688L100.496 117.711L100.332 117.699L97.6953 117.594H97.625L97.5547 117.582L95.1523 117.242L92.7617 117.711L92.5273 117.758L92.293 117.734L89.7383 117.406L87.207 117.418L87.1953 117.406L84.6055 117.488H84.5938L81.957 117.547H81.9336L79.3672 117.559L79.3789 117.57L76.7422 117.746L76.5547 117.758L75.7549 117.607L75.5391 117.73L75.1406 117.719L72.5039 117.637H72.3984L71.5225 117.548L71.4102 117.559H71.2812L68.9766 117.432L67.3477 117.531L67.2773 117.543L67.207 117.531L67.0566 117.524L66.1719 117.582H66.043L65.9141 117.57L65.2949 117.5L63.6719 117.523L63.6758 117.464L62.0391 117.531H61.8984L61.4629 117.503L60.957 117.559H60.8867L58.25 117.711L58.0977 117.723L57.957 117.699L56.9844 117.564L56.8242 117.578L56.6602 117.59L56.5078 117.566L54.9043 117.359L52.9062 117.406H52.8477L50.9688 117.364L49.0312 117.707L48.9023 117.73H48.7617L46.125 117.695L45.2227 117.684L45.0195 117.29L44.9492 117.289L42.4531 117.512L42.418 117.523H42.3711L39.7344 117.617H39.6172L36.9805 117.512V117.5L34.3906 117.488H34.3438L34.2969 117.477L31.7188 117.301L29.1875 117.43H29.1055L26.4688 117.418V117.406L23.9609 117.43L21.3242 117.664L21.1836 117.676L21.0312 117.664L18.5 117.383L15.9219 117.395V117.383L13.3789 117.559H13.3672L13.3555 117.57L10.707 117.688L10.6133 117.699L10.5312 117.688L7.98828 117.5L8 117.277V114.5H8.21094L10.6719 114.699L13.1797 114.582V114.57L15.8164 114.395H15.9102L18.5469 114.383L18.6406 114.371L18.7227 114.383L21.2305 114.664L23.7148 114.453L23.7617 114.441H23.8203L26.4688 114.418H26.4922L29.0469 114.43L31.6953 114.312L31.7773 114.301L31.8594 114.312L34.5078 114.488L34.4961 114.5L37.0508 114.512H37.0977L39.6875 114.617L42.1836 114.535L43.7578 114.389L43.6289 111.941L43.6172 111.777L43.6406 111.613L44.0508 109.152L43.9922 106.621V106.398L44.0508 106.188L44.7539 103.715L44.9062 101.359L44.6836 98.8281L44.6719 98.6758L44.6953 98.5234L45.0117 95.8984L45.0352 95.7578L45.5391 93.3789L45.2812 90.9648L45.2578 90.7305L45.3047 90.4961L45.832 87.9531L46.0312 85.457L46.1602 82.8555L46.1719 82.8438L46.3242 80.207V80.1953L46.5 77.5586L46.5352 74.9922V74.8047L46.5938 74.6172L47.2266 72.2617L47.1445 69.8242V69.6953L47.1562 69.5664L47.4961 67.0234L47.543 64.4688V64.3398L47.5664 64.2109L48.0469 61.75L47.9883 59.2773V59.207L48.0469 56.5703V56.418L48.082 56.2656L48.6211 53.7812L48.7734 51.2734L48.7852 51.2383V51.2031L49.0547 48.5781L49.2773 45.9766V45.9531L49.5234 43.4805L49.5 40.832V40.7617L49.6172 38.1133L49.6289 37.9375L49.6758 37.7617L50.4375 35.207L51.1406 32.6875L51.1523 32.6406L51.1641 32.6055L51.9844 30.1797L52.5352 27.6836L52.5469 27.6484L52.5586 27.6016L53.25 25.0586L53.9062 22.5273L54.3398 20.0312L54.3633 19.8789L54.4219 19.75L55.3828 17.2773L55.9805 14.9688L56.4961 12.3789V12.3555L57.0586 9.76562L57.3164 8.58203H58.5234L60.293 8.59375L61.2305 6.87109L62.5664 9.27344ZM58.9219 15.5547L58.8984 15.6484L58.2305 18.2031L58.1836 18.3672L57.2695 20.6875L56.8359 23.1602L56.8125 23.2773L56.1562 25.832L56.1445 25.8438V25.8555L55.4531 28.3984L54.9023 30.9062L54.8555 31.0703L54 33.5781L53.3203 36.0391L53.3086 36.0508V36.0625L52.6055 38.4297L52.5 40.8906L52.5234 43.457V43.6211L52.2656 46.2461L52.043 48.8594V48.8711L52.0312 48.8828L51.7617 51.4375L51.6211 54.0859L51.6094 54.2031L51.5859 54.3203L51.0352 56.7695L50.9883 59.2656L51.0469 61.8555L51.0586 62.0195L51.0234 62.1836L50.5312 64.668L50.4961 67.1758L50.4844 67.2578V67.3398L50.1445 69.8359L50.2383 72.3672L50.25 72.6016L50.1914 72.8125L49.5234 75.25L49.5 77.6758V77.7578L49.3125 80.3945L49.1602 83.0195L49.0195 85.6445V85.6797L48.8203 88.3164V88.4102L48.7969 88.5156L48.293 90.8711L48.5625 93.3086L48.5859 93.5547L48.5391 93.8008L47.9766 96.332L47.6836 98.7461L47.9062 101.242L47.918 101.359L47.9062 101.477L47.7188 104.113L47.707 104.266L47.6602 104.406L46.9922 106.762L47.0508 109.211V109.352L47.0273 109.492L46.6289 111.906L46.7461 114.109L46.8545 114.322L47.6211 114.336L47.6094 114.348H50.2695L50.7939 114.359L51.1758 114.297L51.2812 114.273H51.3984L54.0352 114.238H54.1523L54.2578 114.25L55.1025 114.355L55.4844 114.348H55.6133L55.7305 114.359L57.0186 114.548L59.2266 114.379L59.332 114.367L59.4258 114.379L61.4521 114.489L63.2891 114.289L63.4414 114.277L63.6055 114.289L63.9268 114.326L63.9766 113.727L63.6836 111.219L63.6602 110.996L63.6953 110.773L64.1641 108.266L64.1172 105.91L63.6484 103.391L63.625 103.238V103.074L63.707 100.438V100.367L63.7188 100.297L64.0117 97.8828L63.5195 95.5039L63.4609 95.2695L63.4961 95.0352L63.7891 92.4922L63.7539 89.9727L63.6367 87.3477V87.3359L63.543 84.6992V84.6758L63.4961 82.1094L63.4844 82.1211L63.2734 79.4844L63.2617 79.2969L63.2969 79.1094L63.7188 76.6836L63.4023 74.2812L63.3906 74.1523V74.0234L63.4961 71.4922L63.2969 68.9141L63.2852 68.7852L63.3086 68.6562L63.5547 66.1836L63.2617 63.6992L63.25 63.6641V63.6289L63.0625 60.9922L63.0508 60.8516L63.0742 60.6992L63.3906 58.168L63.2969 55.6484V55.5898L63.3203 52.9531L63.3086 50.3281V47.7148L63.0508 45.1953V45.125L62.9102 42.4883V42.3828L62.957 39.8516L62.6289 37.3438V37.25L62.4531 34.6836L61.9844 32.1875L61.9727 32.1523V32.1055L61.6211 29.4922L61.6328 29.4805L61.2461 26.9375L60.6719 24.4297L60.6367 24.2891V24.1367L60.5781 21.582L60.2031 19.0391L60.2148 19.0273L59.6875 16.543V16.5312L59.6758 16.5195L59.2178 14.04L58.9219 15.5547ZM63.6367 23.9023L64.1875 26.3516L64.1992 26.4102L64.2109 26.457L64.5977 29.0703V29.0938L64.9492 31.7188L65.418 34.2383L65.4297 34.3203V34.4023L65.6172 37.0508L65.9453 39.582L65.957 39.6875V39.793L65.9102 42.3594L66.0273 44.8906L66.3086 47.5273V50.3164L66.3203 52.9531V52.9766L66.2969 55.5664L66.3906 58.1914V58.3086L66.3789 58.4258L66.0625 60.957L66.25 63.418H66.2383L66.5547 65.9844L66.5664 66.1484L66.5547 66.3125L66.2969 68.7734L66.4844 71.3281L66.4961 71.4102L66.4844 71.5039L66.3906 74.0117L66.7188 76.5312L66.7539 76.7539L66.707 76.9766L66.2734 79.4492L66.4727 81.8867V81.9219L66.4844 81.9688L66.5312 84.5938H66.543L66.625 87.2188H66.6367L66.7422 89.8555V89.8906L66.7891 92.5391V92.6328L66.7773 92.7266L66.4961 95.1406L66.9883 97.5312L67.0469 97.7773L67.0117 98.0234L66.6953 100.566L66.625 103.004L67.082 105.488L67.1055 105.605V105.723L67.1641 108.371V108.512L67.1406 108.664L66.6836 111.102L66.9648 113.504L66.9883 113.656L66.9766 113.797L66.918 114.518L67.0566 114.523L68.6328 114.43L68.7148 114.418L68.7969 114.43L68.9531 114.438L69.8203 114.391L69.9258 114.379L70.043 114.391L71.5283 114.534L73.8242 114.266L74.0586 114.23L74.2812 114.277L75.2588 114.459L75.457 114.355L75.1758 112.832V112.797L74.7539 110.184L74.7305 110.09V109.996L74.6484 107.406L74.3203 104.863L74.3086 104.734V104.594L74.4375 102.051L74.0625 99.6719L73.5938 97.0586L73.5703 96.9414V96.8125L73.5352 94.2344L73.2188 91.7148L72.8789 89.1016L72.8672 88.9961V86.418L72.3164 83.9922L72.2812 83.8516V83.7227L72.1875 81.25L71.7656 78.6367L71.7539 78.543V78.4492L71.6602 75.8711L71.332 73.3281L71.3086 73.1758L71.332 73.0234L71.5078 70.5273L71.0742 68.1367L70.5938 65.5234L70.5703 65.4062V65.2773L70.5234 62.6289V62.6172L70.5117 60.0742L70.0781 57.6133L70.0547 57.5078V57.4023L69.9727 54.9531L69.5391 52.3516L69.082 49.7383L69.0703 49.6328V49.5273L69 46.9375L68.6016 44.4648V44.418L68.5898 44.3828L68.332 41.7461L68.3203 41.6289V41.5117L68.4609 39.0625L67.9219 36.6836H67.9102L67.0781 34.3867L66.1523 31.9141L66.1289 31.8203L66.1055 31.7383L65.4844 29.1602L65.4727 29.1367V29.1016L64.9688 26.6289L64.0781 24.2734L64.0547 24.2031L63.6064 22.833L63.6367 23.9023Z" fill="black"/>
</svg>
