<svg width="120" height="120" viewBox="0 0 120 120" fill="none" xmlns="http://www.w3.org/2000/svg">
<path d="M100.027 106.211L103.016 106.75L103.145 106.773L103.262 106.82L106.051 107.828H106.039L108.863 108.66L108.969 108.684L109.062 108.73L111.793 109.973L111.969 110.043L112.121 110.172L112.941 110.828L112.004 112L111.055 113.172L110.387 112.621L107.891 111.484L105.113 110.676L105.02 110.652L102.371 109.68L99.8984 109.234L97.4492 110.16H97.4258L97.4023 110.172L94.7656 111.062L92.5508 112.691L92.4336 112.773L92.3164 112.832L89.6328 114.121L89.4336 114.215L89.2227 114.25L86.2695 114.73L86.0469 114.766L85.8359 114.742L82.8477 114.355L82.6719 114.332L82.5078 114.273L79.6719 113.195L79.4023 113.09L79.1914 112.902L77.2109 111.086L74.6797 110.5L72.125 110.277L69.6992 110.98L67.0859 112.141L64.7773 113.77L64.5664 113.898L64.332 113.969L61.4258 114.824L61.0977 114.918L60.7461 114.859L57.7695 114.355L57.6641 114.332L57.5703 114.297L54.7461 113.395L54.5469 113.336L54.3711 113.207L52.0156 111.602L49.543 110.488L47.0234 110.09L44.5156 110.652L42.043 111.871L39.5469 113.383L39.4062 113.465L39.2422 113.523L36.3945 114.449L36.1602 114.52H35.9023L32.9375 114.461H32.8086L32.668 114.438L29.7734 113.852L29.5273 113.805L29.3164 113.676L26.75 112.188L26.6797 112.141L24.3828 110.617L21.8281 109.879L19.1445 109.328L16.625 109.715L14.1172 110.898L11.4922 112.258L11.4219 112.293L11.3398 112.316L8.63281 113.359L8.62109 113.371H8.60938L8.51562 113.406L7.48438 110.594L7.57812 110.559H7.58984L10.2617 109.516L12.793 108.215L12.8398 108.191L15.5586 106.902L15.7578 106.809L15.9688 106.785L18.957 106.328L19.2266 106.281L19.4844 106.34L22.4258 106.938L22.543 106.961L25.4141 107.793L25.6367 107.852L25.8242 107.98L28.2617 109.598L30.6055 110.957L33.1016 111.461L35.6914 111.508L38.1289 110.711L40.5781 109.27L40.625 109.234L40.6836 109.211L43.3438 107.887L43.5078 107.816L43.6836 107.77L46.6367 107.113L46.918 107.055L47.1875 107.09L50.1992 107.547L50.3984 107.582L50.5859 107.664L53.3633 108.918L53.4805 108.977L53.5859 109.047L55.8828 110.605L58.332 111.391L60.9102 111.836L63.2188 111.168L65.5039 109.598L65.6211 109.516L65.7617 109.457L68.5156 108.238L68.6094 108.191L68.7031 108.168L71.5742 107.324L71.8555 107.242L72.1367 107.266L75.125 107.535L75.2188 107.547L75.3242 107.57L78.2773 108.262L78.6641 108.344L78.9453 108.613L80.9844 110.477L83.375 111.391L86.0117 111.73L88.5195 111.332L90.8867 110.184L93.207 108.496L93.3828 108.367L93.6055 108.297L96.4414 107.324L99.2422 106.281L99.6289 106.141L100.027 106.211ZM27.6953 96.6211L30.4375 97.8281L30.543 97.875L30.6367 97.9336L33.1562 99.5156L33.168 99.5273L35.4297 100.992L37.7383 101.508L40.1289 101.062L42.4961 99.8906L44.9219 98.3086L45.168 98.1445L45.4609 98.0859L48.3672 97.5234L48.5898 97.4883L48.8125 97.5117L51.7539 97.8281L52 97.8516L52.2227 97.957L54.9766 99.2227L55.0938 99.2812L55.2109 99.3516L57.3906 100.875L59.6758 101.438L62.0312 101.168L64.3164 99.8789L64.3516 99.8555L64.375 99.8438L67.0234 98.4727L67.1406 98.4023L67.2812 98.3672L70.082 97.5117L70.3281 97.4414L70.5742 97.4531L73.5977 97.5469L74.0195 97.5703L74.3828 97.8047L76.8906 99.4805H76.8789L79.1992 100.91L81.5078 101.613L83.8633 101.086L86.418 100.242L88.3867 98.4258L88.5742 98.2617L88.7969 98.1562L91.5156 96.9492L91.7266 96.8555L91.9727 96.832L94.9375 96.5273L95.1836 96.5039L95.418 96.5625L98.3477 97.2188L98.5352 97.2656L98.7109 97.3477L101.383 98.7539L101.465 98.7891L101.547 98.8477L103.773 100.406L104.324 100.535L103.996 102L103.68 103.465L102.836 103.277L102.531 103.219L102.285 103.043L99.8594 101.332L97.5039 100.102L95.0078 99.5273L92.4883 99.7969L90.2383 100.793L88.2344 102.668L87.9883 102.891L87.6836 102.996L84.8125 103.945L84.6719 103.992L81.7773 104.625L81.3906 104.719L81.0156 104.602L78.1562 103.734L77.9688 103.676L77.8047 103.582L75.2617 102L75.25 101.988L75.2266 101.977L73.0469 100.523L70.7031 100.453L68.2773 101.191L65.793 102.469L65.8047 102.48L63.25 103.934L62.9922 104.086L62.6758 104.121L59.7578 104.449L59.5 104.484L59.2305 104.426L56.3945 103.723L56.125 103.664L55.8906 103.5L53.5703 101.871L51.1914 100.77L48.7305 100.512L46.3398 100.957L44.0781 102.457L43.9141 102.551L41.2656 103.84L41.0781 103.934L40.8789 103.969L37.9961 104.52L37.6914 104.578L37.3867 104.508L34.5039 103.863L34.2461 103.805L34.0234 103.652L31.5508 102.047L29.1133 100.512L26.7812 99.4922L24.3672 99.5273L22 100.512L19.5039 102.023L19.3633 102.094L16.7266 103.324L16.668 103.359L16.5859 103.383L16.4922 103.418L16 102L15.6836 101.062L15.4609 100.605L18.0273 99.3984L20.5234 97.8984L20.6172 97.8398L20.7227 97.8047L23.4883 96.6445L23.7578 96.5391H24.0508L27.0742 96.4922H27.4023L27.6953 96.6211ZM34.707 21.7832L37.2734 22.4043L37.4844 22.4746L39.793 23.4004L42.3242 24.0332L42.5703 24.0918L42.7812 24.2324L44.9141 25.6152L47.2109 26.4707L47.2695 26.4941L47.3281 26.5293L49.707 27.6543L49.7305 27.666L49.7422 27.6777L52.0977 28.8613L52.1211 28.873L52.1328 28.8848L54.4648 30.1387L54.5 30.1504L54.5352 30.1738L56.7852 31.5684L56.9023 31.627L56.9961 31.709L58.8359 33.3379L61.0742 34.3809L61.3203 34.498L61.5078 34.6973L63.3125 36.5488L65.1523 38.248L67.2969 39.6309L67.4141 39.7129L67.5195 39.8184L69.418 41.6699L69.5586 41.7871L69.6523 41.9512L70.9531 44.0488L72.7578 45.748L72.875 45.8652L72.9688 46.0059L74.375 48.0918L76.1211 49.9199L76.2051 50.0039L77.8438 49.1152L77.8555 49.1035H77.8672L80.2227 47.8848L80.2461 47.873L80.2812 47.8613L82.6836 46.7598L85.0742 45.6465L85.2031 45.5879L85.3438 45.5527L87.7578 44.9434L90.125 43.9355L92.5391 42.8691L92.7148 42.7871L92.9141 42.7637L95.4336 42.3535L97.8711 41.6152L97.9766 41.5918L98.0938 41.5684L100.707 41.1934L103.098 40.5371L103.344 40.4668L103.602 40.4902L106.285 40.6895L108.441 40.8652L107.527 42.8223L106.766 44.4629L105.676 46.7832L105.688 46.7949L104.691 49.2441L103.777 51.6816L102.84 54.1543L102.77 54.3184L101.656 56.416L101.504 57.9746L102.395 59.4629L103.754 61.4199L105.57 63.2246L105.652 63.3066L105.723 63.4004L107.281 65.5332L107.352 65.6152L107.398 65.7207L108.582 67.9238L110.176 69.8457L110.246 69.916L110.293 70.0098L111.664 72.1895L113.223 74.2285L113.281 74.2871L113.328 74.3691L113.484 74.6338L113.703 74.6289L113.709 75.0137L113.785 75.1426L113.711 75.1855L113.727 76.1406L113.762 78.7773V78.8828L113.75 78.9883L113.422 81.5078L113.621 83.9688L113.633 84.0625L113.621 84.168L113.469 86.8047L113.504 87.9648L112.004 88L111.98 89.5L110.984 89.4883L108.477 89.7461L108.254 89.7695L108.031 89.7344L105.57 89.2422L103.145 89.2539L100.648 89.6875L100.496 89.7109L100.332 89.6992L97.6953 89.5938H97.625L97.5547 89.582L95.1523 89.2422L92.7617 89.7109L92.5273 89.7578L92.293 89.7344L89.7383 89.4062L87.207 89.418L87.1953 89.4062L84.6055 89.4883H84.5938L81.957 89.5469H81.9336L79.3672 89.5586L79.3789 89.5703L76.7422 89.7461L76.5547 89.7578L73.9297 89.2656L71.5391 89.5469L71.4102 89.5586H71.2812L68.7266 89.418L66.1719 89.582H66.043L65.9141 89.5703L63.418 89.2891L60.957 89.5586H60.8867L58.25 89.7109L58.0977 89.7227L57.957 89.6992L55.4141 89.3477L52.9062 89.4062H52.8477L50.2109 89.3477V89.3359H47.5742L44.9492 89.2891L42.4531 89.5117L42.418 89.5234H42.3711L39.7344 89.6172H39.6172L36.9805 89.5117V89.5L34.3906 89.4883H34.3438L34.2969 89.4766L31.7188 89.3008L29.1875 89.4297H29.1055L26.4688 89.418V89.4062L23.9609 89.4297L21.3242 89.6641L21.1836 89.6758L21.0312 89.6641L18.5 89.3828L15.9219 89.3945V89.3828L13.3789 89.5586H13.3672L13.3555 89.5703L10.707 89.6875L10.6133 89.6992L10.5312 89.6875L7.98828 89.5L8 89.2773V88H6.5V87.7891L6.69922 85.3164L6.57031 82.8203L6.39453 80.1836V80.0898L6.38281 77.4531L6.37109 76.8086L6.46484 76.7188L6.32812 76.8262L6.28125 76.7676L5.4375 75.666L6.46875 74.7402L6.51562 74.7051L7.85156 73.0176L8.85938 70.873L9.62109 68.4707L10.2891 65.9629V65.9512L10.3008 65.9395L10.957 63.5605L10.9336 61.1816L10.875 58.6387L10.6406 56.1191L10.0664 53.6699L9.65625 51.9355L11.4375 51.8301L13.7578 51.7012L13.9453 51.6895L14.1328 51.7246L16.7227 52.2402L16.793 52.252L16.8633 52.2754L19.3477 53.0137H19.3594L21.9023 53.7168H21.9141L24.4688 54.4551L24.5859 54.4902L24.7031 54.5371L27.0244 55.6523L26.8555 54.2559L26.375 51.666V51.6543L25.8125 49.1465L25.8008 49.0879L25.7891 49.041L25.4258 46.6973L24.2188 44.623L24.125 44.459L24.0664 44.2715L23.4336 41.9746L23.293 41.7988L20.1406 37.5449L25.0625 39.5137L25.1562 39.5488L25.1445 39.5605L27.5117 40.4863L29.9141 41.2246L29.9375 41.2363H29.9492L32.457 42.0801L32.5391 42.1035L32.6094 42.1387L35.0117 43.2402L35.1172 43.2871L35.2227 43.3574L37.2734 44.7285L39.6289 45.8418L39.7109 45.877L39.793 45.9238L42.0312 47.3301L42.0781 47.3535L42.1133 47.377L43.8506 48.6279L43.8125 48.3965L43.3906 45.959L42.6289 43.498L41.6562 41.1191L41.6445 41.084L41.6211 41.0371L40.7656 38.5527V38.541L39.8164 36.2324L38.7734 33.8887L37.5312 31.6504L37.4844 31.5801L37.4492 31.498L36.4883 29.2129L35.0117 27.2441H35L33.3125 25.4043L32.9492 25.0059L32.9141 24.4668L32.8555 23.3184L32.75 21.3018L34.707 21.7832ZM91.1445 77.2539L88.6484 77.6875L88.4961 77.7109L88.332 77.6992L85.6953 77.5938H85.625L85.6143 77.5918L85.7539 78.3848L85.6133 78.4082L83.9375 78.6895L83.8818 77.3447L83.1523 77.2422L80.7617 77.7109L80.5273 77.7578L80.293 77.7344L77.7383 77.4062L75.207 77.418L75.1953 77.4062L72.6055 77.4883H72.5938L69.957 77.5469H69.9336L67.3672 77.5586L67.3789 77.5703L64.7422 77.7461L64.5547 77.7578L61.9297 77.2656L59.5391 77.5469L59.4102 77.5586H59.2812L56.7266 77.418L54.1719 77.582H54.043L53.9141 77.5703L51.418 77.2891L48.957 77.5586H48.8867L46.25 77.7109L46.0977 77.7227L45.957 77.6992L43.4141 77.3477L40.9062 77.4062H40.8477L38.2109 77.3477V77.3359H35.5742L32.9492 77.2891L30.4531 77.5117L30.418 77.5234H30.3711L27.7344 77.6172H27.6172L24.9805 77.5117V77.5L23.9639 77.4951L23.5977 77.6582L23.6611 77.4932L22.3906 77.4883H22.3438L22.2969 77.4766L19.7188 77.3008L17.1875 77.4297H17.1055L14.4688 77.418V77.4062L11.9609 77.4297L9.85156 77.6172L9.38281 78.0625L9.39453 80.0781L9.55859 82.6211V82.6328L9.57031 82.6445L9.6875 85.293L9.69922 85.3867L9.6875 85.4688L9.60254 86.6123L10.6719 86.6992L13.1797 86.582V86.5703L15.8164 86.3945H15.9102L18.5469 86.3828L18.6406 86.3711L18.7227 86.3828L21.2305 86.6641L23.7148 86.4531L23.7617 86.4414H23.8203L26.4688 86.418H26.4922L29.0469 86.4297L31.6953 86.3125L31.7773 86.3008L31.8594 86.3125L34.5078 86.4883L34.4961 86.5L37.0508 86.5117H37.0977L39.6875 86.6172L42.1836 86.5352L44.832 86.2891H44.9844L47.6211 86.3359L47.6094 86.3477H50.2695L52.8711 86.4062L55.4844 86.3477H55.6133L55.7305 86.3594L58.2148 86.7227L60.7109 86.5586V86.5703L63.2891 86.2891L63.4414 86.2773L63.6055 86.2891L66.0898 86.582L68.6328 86.4297L68.7148 86.418L68.7969 86.4297L71.3281 86.5586L73.8242 86.2656L74.0586 86.2305L74.2812 86.2773L76.7305 86.7344L79.1797 86.582L79.2266 86.5703H79.2617L81.8867 86.5586V86.5469L84.5234 86.4883L87.1602 86.418H87.1953L89.832 86.4062H89.9375L90.0312 86.418L92.4219 86.7344L94.8359 86.2656L95.082 86.2188L95.3164 86.2539L97.8945 86.6055L100.273 86.7109L102.793 86.2773L102.91 86.2656H103.027L105.664 86.2422H105.816L105.969 86.2656L108.406 86.7461L110.474 86.5342L110.621 84.0977L110.422 81.5547L110.41 81.4023L110.434 81.25L110.75 78.6953L110.738 77.6875L109.555 77.7227H109.508L106.859 77.6992H106.777L106.684 77.6875L104.234 77.3594L101.797 77.6875L101.645 77.7109L101.48 77.6992L98.9141 77.4883L96.4766 77.7461L96.2539 77.7695L96.0312 77.7344L93.5703 77.2422L91.1445 77.2539ZM74.9727 54.4707L74.9609 54.4824L74.9375 54.4941L72.7812 56.0059L72.7461 56.0176L72.7109 56.041L70.4727 57.4473L70.4609 57.4355L68.3984 58.9238L68.3516 58.9473L66.2188 60.3535L64.332 62.041L64.3203 62.0527L64.2969 62.0645L62.2695 63.7637L60.418 65.4395L58.6953 67.3613L58.6133 67.4551L58.5078 67.5371L56.4805 69.1191L54.7812 70.8887L53.1641 72.9043L53.1523 72.8926L52.0039 74.3359L54.0898 74.582L56.6328 74.4297L56.7148 74.418L56.7969 74.4297L59.3281 74.5586L61.8242 74.2656L62.0586 74.2305L62.2812 74.2773L64.7305 74.7344L67.1797 74.582L67.2266 74.5703H67.2617L69.8867 74.5586V74.5469L72.5234 74.4883L75.1602 74.418H75.1953L77.832 74.4062H77.9375L78.0312 74.418L80.4219 74.7344L82.8359 74.2656L83.082 74.2188L83.3164 74.2539L83.4834 74.2764L83.1289 72.9941L83.1172 72.959V72.9121L82.543 70.334H82.5312L81.7344 68.0137L81.7109 67.9668L81.6992 67.9316L81.0078 65.5176L79.8945 63.2559L79.8359 63.1504L79.8008 63.0332L79.0625 60.6074L77.9727 58.498L76.4023 56.541L76.332 56.459L76.2852 56.377L75.0957 54.3799L74.9727 54.4707ZM99.9102 63.248V63.2832L99.5469 65.8379L99.2773 68.3926L99.125 71.041V71.1348L98.7852 73.7598L98.7002 74.5107L98.8086 74.5L98.9492 74.4883L99.0781 74.5L101.562 74.6992L104.035 74.3594L104.234 74.3359L104.434 74.3594L107 74.7109L109.496 74.7227L109.817 74.7148L109.238 73.959L109.191 73.9004L109.156 73.8418L107.773 71.6387L106.18 69.7285L106.074 69.6113L106.004 69.4707L104.773 67.1855L103.402 65.3105L101.562 63.459L101.457 63.3652L101.387 63.2598L100.109 61.4316L99.9102 63.248ZM101.316 44.1348L101.223 44.1582L101.129 44.1699L98.5625 44.5332L96.207 45.2598L96.1133 45.2832L96.0078 45.3066L93.5469 45.6934L91.3203 46.6895H91.3086L88.8828 47.7324L88.7773 47.7793L88.6602 47.8145L86.2109 48.4121L83.9492 49.4785L83.9375 49.4902L81.5234 50.5918L79.2617 51.7402L79.2734 51.752L77.5693 52.6709L78.8164 54.7598L80.5039 56.8691L80.5742 56.998L81.8047 59.3535L81.8633 59.4824L81.9102 59.6113L82.6133 61.9902L83.7617 64.3105L83.8203 64.4277L83.8555 64.5566L84.5586 67.0176L85.4258 69.5137L85.4609 69.6074L85.4844 69.6895L86.0234 72.1855L86.71 74.6416L88.2734 74.7109L90.793 74.2773L90.9102 74.2656H91.0273L93.6641 74.2422H93.8164L93.9688 74.2656L95.6758 74.6016L95.8086 73.4082V73.3848L96.1484 70.7598L96.2891 68.2285V68.1934L96.3008 68.1582L96.5703 65.5332V65.4863L96.9336 62.873L97.2383 60.2598L97.2617 60.0488L97.3438 59.8496L98.2578 57.6465L98.5742 55.959L98.6797 55.9941L98.7031 55.8301L98.7383 55.5371L98.8672 55.2793L100.074 52.9707L100.977 50.6152L101.891 48.1543L101.902 48.1309L101.914 48.1191L102.898 45.6699L102.91 45.6348L102.934 45.5996L103.883 43.5137L103.625 43.4902L101.316 44.1348ZM38.9961 27.5605L39.1133 27.7012L39.1836 27.877L40.1562 30.1973L41.4336 32.4824L41.4688 32.541L41.4922 32.6113L42.5586 35.0137L42.582 35.0605L43.5781 37.498L43.6016 37.5684L44.4336 39.9824L45.4414 42.4199L45.4883 42.5605L46.2617 45.0801L46.2852 45.1738L46.3086 45.2559L46.7656 47.8691L46.7773 47.8809L47.2109 50.4824L47.2227 50.5645V50.6348L47.248 51.04L47.668 51.3379L47.2998 51.832L47.3867 53.166L47.75 55.7676L47.7617 55.8379V55.9082L47.8789 58.5449V58.5801L47.9375 61.1699L48.0781 63.8184L48.0898 63.9941L48.0547 64.1699L47.5859 66.666L47.3047 69.2559L47.082 71.9043L47.0703 71.9395V71.9863L46.6719 74.6113L46.6641 74.6924L47.6504 74.627L49.2734 72.9629L50.832 71.0176L52.4961 68.9551L52.5898 68.8613L54.418 66.9629L54.4883 66.8809L54.5703 66.8223L56.5508 65.252L58.2383 63.3887L58.3438 63.2832L60.3008 61.502L60.3477 61.4551L62.3398 59.791L64.3203 58.0332L64.4023 57.9629L64.4844 57.9043L66.6992 56.4512L68.8086 54.9512L68.8438 54.916L68.8906 54.8926L71.1289 53.498L73.2031 52.0449L73.6816 51.6963L72.1133 50.0723L72.0312 49.9785L71.9492 49.873L70.5781 47.8223L68.7734 46.1113L68.6328 45.9824L68.5273 45.8184L67.2031 43.6855L65.5391 42.0684L63.418 40.6973L63.3125 40.627L63.2188 40.5449L61.2734 38.752L61.2148 38.6934L59.5391 36.9707L57.3594 35.9512L57.1719 35.8691L57.0078 35.7285L55.1211 34.0645L53.0352 32.7754L50.75 31.5332L48.418 30.3613L46.0391 29.2363V29.2246L43.6836 28.3574L43.5312 28.3105L43.3906 28.2168L41.3516 26.8809L39.0195 26.3066L38.9141 26.2832L38.8203 26.2363L37.6484 25.7676L38.9961 27.5605ZM43.4023 56.8691L43.3789 56.8809L43.3672 56.9043L41.6328 58.8848L40.1562 60.8418L38.6914 63.0566L38.6445 63.1152L38.5977 63.1855L36.9102 65.2129L36.8984 65.2012L35.2461 67.2402L35.2344 67.252V67.2637L33.5352 69.2793L31.9531 71.3184L31.8828 71.4121L31.8008 71.4941L29.9375 73.2285L28.9883 74.5742L30.1836 74.5352L32.832 74.2891H32.9844L35.6211 74.3359L35.6094 74.3477H38.2695L40.8711 74.4062L43.4844 74.3477H43.6172L43.7188 74.0371L44.1055 71.541L44.3281 68.998V68.9746L44.6094 66.3496L44.6211 66.291V66.2441L45.0664 63.7598L44.9375 61.334V61.2871L44.8789 58.6855L44.7734 56.1895L44.6553 55.3438L43.4023 56.8691ZM27.0938 62.8574L27 62.9277L26.8945 62.9863L24.7383 64.2051L22.8281 65.8809L20.9648 67.6738L20.8359 67.7793L20.707 67.8613L18.5508 69.1621L16.6523 70.8379L16.5117 70.9316L14.4492 72.3613L12.6445 74.1426L12.4805 74.3066L12.2695 74.4121L12.2178 74.4375L14.4688 74.418H14.4922L17.0469 74.4297L19.6953 74.3125L19.7773 74.3008L19.8594 74.3125L22.5078 74.4883L22.4961 74.5L24.8232 74.5098L24.9219 74.2598L25.8125 71.9746L26.2109 69.502V69.4551L26.2227 69.4082L26.7617 66.9707V64.2988L26.8086 64.123L27.1426 62.8174L27.0938 62.8574ZM13.3945 54.7129L13.5938 55.5332L13.6172 55.6387L13.6289 55.7441L13.8633 58.3691V58.4277L13.875 58.4746L13.9336 61.1113V61.123L13.9688 63.7832V63.9941L13.9102 64.2051L13.1836 66.7598L13.1719 66.748L12.5039 69.2793V69.3145L12.4922 69.3379L12.1406 70.416L12.4453 70.1348L12.5273 70.0527L12.6328 69.9824L14.7539 68.4941L16.6641 66.8301L16.7578 66.748L16.875 66.6777L19.0078 65.3887L20.8008 63.666L20.8242 63.6426L20.8594 63.6191L22.8516 61.8848L22.957 61.7793L23.0859 61.709L25.3125 60.4316L26.9062 59.1309L26.9531 59.0137L25.8047 58.3926L23.543 57.3027L21.1055 56.5996L18.5625 55.9082H18.5508L18.5391 55.8965L16.0078 55.1582V55.1465L13.7227 54.7012L13.3945 54.7129ZM28.168 45.4199L28.3086 45.666L28.3555 45.959L28.7422 48.4902L29.3164 51.0566V51.0801L29.3281 51.1152L29.8086 53.7051L29.8203 53.752V53.7988L30.1367 56.4238L30.1484 56.4707V56.5176L30.1934 57.3643L30.5977 57.584L30.2588 58.5996L30.4297 61.8145L30.4414 62.0371L30.3828 62.2598L29.7617 64.6738V67.3105L29.7266 67.4629L29.1992 69.8066L29.668 69.373L31.1914 67.3926L31.2383 67.3457L32.9375 65.3301L34.5898 63.3027L34.6016 63.291L36.207 61.3574L37.6719 59.1777L37.6953 59.1543L37.7188 59.1191L39.3008 56.998L39.3359 56.9512L39.3711 56.916L41.1055 54.9238L42.7578 52.9199L43.4258 52.0059L42.5234 51.3613H42.5117L40.4492 49.873L38.2227 48.4902L35.9609 47.4355L35.8555 47.3887L35.7617 47.3301L33.6523 45.9121L31.4141 44.8926L29.0352 44.0957L27.0312 43.4746L28.168 45.4199Z" fill="black"/>
</svg>
