<svg width="120" height="120" viewBox="0 0 120 120" fill="none" xmlns="http://www.w3.org/2000/svg">
<path d="M8.1 116L8.21382 114.504L8.15699 114.5H8.1V116ZM10.64 116.193L10.5262 117.689L10.6189 117.696L10.7118 117.692L10.64 116.193ZM13.28 116.067L13.3518 117.565L13.3658 117.564L13.3798 117.563L13.28 116.067ZM15.92 115.891L15.9124 114.391L15.8662 114.391L15.8202 114.394L15.92 115.891ZM18.56 115.877L18.7245 114.386L18.6387 114.377L18.5524 114.377L18.56 115.877ZM21.2 116.169L21.0355 117.66L21.1817 117.676L21.3282 117.663L21.2 116.169ZM23.84 115.942L23.823 114.442L23.7673 114.443L23.7118 114.448L23.84 115.942ZM26.48 115.912L26.4895 114.412L26.4762 114.412L26.463 114.412L26.48 115.912ZM29.12 115.929L29.1105 117.429L29.1502 117.429L29.1898 117.427L29.12 115.929ZM31.76 115.806L31.862 114.309L31.7761 114.303L31.6902 114.307L31.76 115.806ZM34.4 115.986L34.298 117.482L34.3418 117.485L34.3856 117.486L34.4 115.986ZM37.04 116.011L37.1014 114.512L37.0779 114.511L37.0544 114.511L37.04 116.011ZM39.68 116.119L39.6186 117.618L39.6774 117.62L39.7362 117.618L39.68 116.119ZM42.32 116.02L42.3762 117.519L42.4141 117.518L42.4519 117.514L42.32 116.02ZM44.96 115.787L44.9847 114.287L44.9063 114.286L44.8281 114.293L44.96 115.787ZM47.6 115.831L47.5753 117.33L47.583 117.331L47.5907 117.331L47.6 115.831ZM50.24 115.847L50.273 114.347L50.2611 114.347L50.2493 114.347L50.24 115.847ZM52.88 115.905L52.847 117.405L52.8791 117.405L52.9112 117.405L52.88 115.905ZM55.52 115.85L55.7267 114.364L55.6083 114.348L55.4888 114.35L55.52 115.85ZM58.16 116.217L57.9533 117.703L58.1004 117.724L58.2487 117.715L58.16 116.217ZM60.8 116.061L60.8887 117.558L60.9228 117.556L60.9568 117.553L60.8 116.061ZM63.44 115.784L63.6088 114.293L63.4461 114.275L63.2832 114.292L63.44 115.784ZM66.08 116.083L65.9111 117.573L66.0405 117.588L66.1703 117.58L66.08 116.083ZM68.72 115.923L68.7965 114.425L68.7131 114.421L68.6297 114.426L68.72 115.923ZM71.36 116.058L71.2835 117.556L71.4089 117.563L71.5335 117.548L71.36 116.058ZM74 115.751L74.2776 114.277L74.0532 114.234L73.8265 114.261L74 115.751ZM76.64 116.248L76.3624 117.722L76.5494 117.757L76.7392 117.745L76.64 116.248ZM79.28 116.073L79.2637 114.573L79.2222 114.573L79.1808 114.576L79.28 116.073ZM81.92 116.044L81.9363 117.544L81.9446 117.544L81.9529 117.544L81.92 116.044ZM84.56 115.986L84.5929 117.486L84.6019 117.486L84.56 115.986ZM87.2 115.913L87.1936 114.413L87.1758 114.413L87.1581 114.413L87.2 115.913ZM89.84 115.901L90.0324 114.414L89.9334 114.401L89.8336 114.401L89.84 115.901ZM92.48 116.243L92.2876 117.73L92.526 117.761L92.7621 117.716L92.48 116.243ZM95.12 115.737L95.3207 114.251L95.0782 114.218L94.8379 114.264L95.12 115.737ZM97.76 116.094L97.5593 117.58L97.628 117.59L97.6973 117.592L97.76 116.094ZM100.4 116.204L100.337 117.703L100.494 117.709L100.649 117.683L100.4 116.204ZM103.04 115.76L103.029 114.26L102.909 114.261L102.791 114.281L103.04 115.76ZM105.68 115.741L105.969 114.269L105.82 114.24L105.669 114.241L105.68 115.741ZM108.32 116.259L108.031 117.731L108.25 117.774L108.472 117.751L108.32 116.259ZM110.96 115.99L110.975 114.49L110.891 114.489L110.808 114.497L110.96 115.99ZM8 116V117.5H8.1V116V114.5H8V116ZM8.1 116L7.98618 117.496L10.5262 117.689L10.64 116.193L10.7538 114.698L8.21382 114.504L8.1 116ZM10.64 116.193L10.7118 117.692L13.3518 117.565L13.28 116.067L13.2082 114.568L10.5682 114.695L10.64 116.193ZM13.28 116.067L13.3798 117.563L16.0198 117.387L15.92 115.891L15.8202 114.394L13.1802 114.57L13.28 116.067ZM15.92 115.891L15.9276 117.391L18.5676 117.377L18.56 115.877L18.5524 114.377L15.9124 114.391L15.92 115.891ZM18.56 115.877L18.3955 117.368L21.0355 117.66L21.2 116.169L21.3645 114.678L18.7245 114.386L18.56 115.877ZM21.2 116.169L21.3282 117.663L23.9682 117.437L23.84 115.942L23.7118 114.448L21.0718 114.674L21.2 116.169ZM23.84 115.942L23.857 117.442L26.497 117.412L26.48 115.912L26.463 114.412L23.823 114.442L23.84 115.942ZM26.48 115.912L26.4705 117.412L29.1105 117.429L29.12 115.929L29.1295 114.429L26.4895 114.412L26.48 115.912ZM29.12 115.929L29.1898 117.427L31.8298 117.304L31.76 115.806L31.6902 114.307L29.0502 114.43L29.12 115.929ZM31.76 115.806L31.658 117.302L34.298 117.482L34.4 115.986L34.502 114.489L31.862 114.309L31.76 115.806ZM34.4 115.986L34.3856 117.486L37.0256 117.511L37.04 116.011L37.0544 114.511L34.4144 114.486L34.4 115.986ZM37.04 116.011L36.9786 117.51L39.6186 117.618L39.68 116.119L39.7414 114.62L37.1014 114.512L37.04 116.011ZM39.68 116.119L39.7362 117.618L42.3762 117.519L42.32 116.02L42.2638 114.521L39.6238 114.62L39.68 116.119ZM42.32 116.02L42.4519 117.514L45.0919 117.281L44.96 115.787L44.8281 114.293L42.1881 114.526L42.32 116.02ZM44.96 115.787L44.9353 117.287L47.5753 117.33L47.6 115.831L47.6247 114.331L44.9847 114.287L44.96 115.787ZM47.6 115.831L47.5907 117.331L50.2307 117.347L50.24 115.847L50.2493 114.347L47.6093 114.331L47.6 115.831ZM50.24 115.847L50.207 117.347L52.847 117.405L52.88 115.905L52.913 114.405L50.273 114.347L50.24 115.847ZM52.88 115.905L52.9112 117.405L55.5512 117.35L55.52 115.85L55.4888 114.35L52.8488 114.405L52.88 115.905ZM55.52 115.85L55.3133 117.336L57.9533 117.703L58.16 116.217L58.3667 114.732L55.7267 114.364L55.52 115.85ZM58.16 116.217L58.2487 117.715L60.8887 117.558L60.8 116.061L60.7113 114.564L58.0713 114.72L58.16 116.217ZM60.8 116.061L60.9568 117.553L63.5968 117.275L63.44 115.784L63.2832 114.292L60.6432 114.569L60.8 116.061ZM63.44 115.784L63.2711 117.274L65.9111 117.573L66.08 116.083L66.2489 114.592L63.6088 114.293L63.44 115.784ZM66.08 116.083L66.1703 117.58L68.8103 117.421L68.72 115.923L68.6297 114.426L65.9897 114.585L66.08 116.083ZM68.72 115.923L68.6435 117.421L71.2835 117.556L71.36 116.058L71.4365 114.56L68.7965 114.425L68.72 115.923ZM71.36 116.058L71.5335 117.548L74.1735 117.241L74 115.751L73.8265 114.261L71.1865 114.568L71.36 116.058ZM74 115.751L73.7224 117.225L76.3624 117.722L76.64 116.248L76.9175 114.774L74.2776 114.277L74 115.751ZM76.64 116.248L76.7392 117.745L79.3792 117.57L79.28 116.073L79.1808 114.576L76.5408 114.751L76.64 116.248ZM79.28 116.073L79.2963 117.573L81.9363 117.544L81.92 116.044L81.9037 114.544L79.2637 114.573L79.28 116.073ZM81.92 116.044L81.9529 117.544L84.5929 117.486L84.56 115.986L84.5271 114.487L81.8871 114.545L81.92 116.044ZM84.56 115.986L84.6019 117.486L87.2419 117.412L87.2 115.913L87.1581 114.413L84.5181 114.487L84.56 115.986ZM87.2 115.913L87.2064 117.413L89.8464 117.401L89.84 115.901L89.8336 114.401L87.1936 114.413L87.2 115.913ZM89.84 115.901L89.6476 117.389L92.2876 117.73L92.48 116.243L92.6724 114.755L90.0324 114.414L89.84 115.901ZM92.48 116.243L92.7621 117.716L95.4021 117.211L95.12 115.737L94.8379 114.264L92.1979 114.77L92.48 116.243ZM95.12 115.737L94.9193 117.224L97.5593 117.58L97.76 116.094L97.9607 114.607L95.3207 114.251L95.12 115.737ZM97.76 116.094L97.6973 117.592L100.337 117.703L100.4 116.204L100.463 114.706L97.8227 114.595L97.76 116.094ZM100.4 116.204L100.649 117.683L103.289 117.239L103.04 115.76L102.791 114.281L100.151 114.725L100.4 116.204ZM103.04 115.76L103.051 117.26L105.691 117.241L105.68 115.741L105.669 114.241L103.029 114.26L103.04 115.76ZM105.68 115.741L105.391 117.213L108.031 117.731L108.32 116.259L108.609 114.787L105.969 114.269L105.68 115.741ZM108.32 116.259L108.472 117.751L111.112 117.482L110.96 115.99L110.808 114.497L108.168 114.767L108.32 116.259ZM110.96 115.99L110.945 117.49L111.985 117.5L112 116L112.015 114.5L110.975 114.49L110.96 115.99Z" fill="black"/>
<path d="M40.5586 62.0039L43.1953 62.1914H43.2422L45.8555 62.4609H45.9141L45.9609 62.4727L48.5391 62.918H48.5508L51.1523 63.3984L51.2461 63.4102L51.3281 63.4336L53.8711 64.2305L54.0352 64.2891L54.1875 64.3711L55.793 65.3438L57.0117 66.0703L56.4727 67.0664L56.3086 69.2344L56.4258 71.8477L56.6016 74.4844L56.6133 74.5312V74.5781L56.625 77.2148V77.3086L56.6133 77.3906L56.332 79.8867L56.5547 82.3828V82.4883L56.5898 85.125V85.1602L56.5664 87.7969L56.6953 90.3516V90.5273L56.5078 93.0703L56.4844 95.7188V95.7656L56.3789 98.4023L56.4844 100.934L56.707 103.5L56.7188 103.57L56.707 103.652L56.6719 106.289L56.6484 108.914V108.938L56.5898 111.574L56.6484 114.152L56.6602 114.598L56.4258 114.973L55.4531 116.566L55.043 117.234L54.2578 117.281L51.6797 117.422L49.0547 117.703L48.8906 117.727L48.7266 117.703L46.1719 117.41L43.6992 117.574H43.5352L40.9922 117.445L38.5078 117.738L38.2852 117.762L38.0508 117.727L35.6016 117.258L33.1523 117.422H33.0703L30.4336 117.457L29.1797 117.469L28.9453 116.238L28.5117 114.059L28.4883 113.941V113.812L28.418 111.176V111.141L28.4062 108.504V108.398L28.418 108.305L28.7344 105.902L28.2656 103.5L28.2188 103.254L28.2539 103.008L28.6055 100.371L28.7109 98.0508L28.2773 95.543L28.2656 95.4258V95.3086L28.2422 92.6602V92.5078L28.2656 92.3672L28.7461 89.9062L28.5 87.5273L28.4883 87.3867L28.5 87.2461L28.6992 84.7383L28.3594 82.3008L28.3359 82.0898L28.3594 81.8906L28.7109 79.3242L28.7227 76.9102L28.3008 74.4258L28.2773 74.3086V74.1914L28.2305 71.5547V71.4492L28.2422 71.3438L28.582 68.7539L28.8164 66.2227L28.8984 65.2969L29.7773 64.957L32.25 64.0078L34.7227 63.0703L34.8398 63.0234L34.9805 63L37.5703 62.5195L40.1836 62.0273L40.3594 61.9922L40.5586 62.0039ZM38.1211 65.4609L35.6719 65.918L33.3164 66.8203V66.8086L31.7109 67.418L31.5703 69.0234V69.082L31.2305 71.625L31.2656 74.0391L31.6992 76.5586L31.7227 76.6992V76.8281L31.6992 79.4648V79.5586L31.6875 79.6523L31.3594 82.0898L31.6875 84.5273L31.7109 84.6914L31.6992 84.8555L31.4883 87.3984L31.7461 89.8594L31.7695 90.082L31.7344 90.3047L31.2422 92.7539L31.2539 95.168L31.6875 97.6875L31.7109 97.8398L31.6992 97.9922L31.5938 100.641V100.711L31.582 100.77L31.2422 103.16L31.7109 105.574L31.7578 105.809L31.7344 106.043L31.4062 108.586L31.418 111.129H31.4062L31.4766 113.637L31.6406 114.434L33.0352 114.422L35.5898 114.258L35.7891 114.246L35.9766 114.281L38.3906 114.727L40.8047 114.457L40.9219 114.434L41.0508 114.445L43.5938 114.562L46.1602 114.422L46.2891 114.41L46.418 114.422L48.9023 114.703L51.375 114.445H51.4453L53.2969 114.328L53.6367 113.777L53.5898 111.574V111.516L53.6484 108.902L53.6719 106.254V106.242L53.7188 103.758L53.4844 101.121V101.039L53.3789 98.4023V98.2852L53.4844 95.6484L53.5195 93.0469V92.9648L53.6836 90.3867L53.5781 87.8555L53.5664 87.8203V87.7734L53.5898 85.1602L53.5547 82.5234V82.5117L53.332 79.9922L53.3203 79.8516L53.3438 79.6992L53.6133 77.168V74.6836L53.4375 72.0469V72.0234L53.3086 69.375V69.1875L53.4375 67.418L52.793 67.0312L50.4609 66.3047L48.0117 65.8711V65.8594L45.5508 65.4375L42.9492 65.1797V65.168L40.5234 65.0156L38.1211 65.4609Z" fill="black"/>
<path d="M56.9648 54.8398L59.6133 54.8867L62.25 54.9219H62.3086L62.3789 54.9336L65.0039 55.1914H64.9922L67.5117 55.2266H67.5703L67.6406 55.2383L70.2656 55.4844H70.2773L72.9023 55.7656H72.8906L75.4805 55.918L75.6445 55.9297L75.8086 55.9766L78.2578 56.6914L80.7539 57.1953H80.7656L83.3789 57.6289L83.6602 57.6758L83.9062 57.8281L85.9688 59.082L86.7891 59.5742L86.6836 60.5234L86.4023 63.1133L85.0078 62.9492L84.9961 62.9961L84.2109 64.2734L84.1289 64.2266L83.3203 63.7227L83.4258 62.7852L83.6016 61.1445L82.6055 60.5469L80.2734 60.1602L80.25 60.1484H80.2266L77.6484 59.6328L77.5781 59.6211L77.5195 59.5977L75.1289 58.9062L72.6445 58.7539H72.5859L69.9609 58.4727V58.4609L67.4648 58.2266L64.8281 58.1914H64.7695L64.6992 58.1797L62.1797 57.9102L59.5664 57.8867H59.5547L57.0352 57.8398L54.5391 58.0625L51.9492 58.4961L51.832 58.5195L49.2539 58.7422L49.2656 58.7539L46.6641 59.082L46.6758 59.0938L44.1562 59.4453L44.168 59.457L41.5898 60.0195L41.4023 60.043L38.8828 60.2422L37.6406 60.6523L37.7109 62.1172L37.7227 62.3516L37.6641 62.5859L37.4531 63.3828L34.5469 62.6094L34.7109 62.0117L34.5938 59.6445L34.5469 58.4961L35.6367 58.1445L38.1562 57.3477L38.3203 57.2891L38.4961 57.2773L41.0039 57.0547L43.5352 56.5156H43.582L43.6406 56.5039L46.2422 56.1289H46.2539L46.2656 56.1172L48.8789 55.7773H48.9375L51.4453 55.5312L54.0586 55.0977L54.1172 55.0859H54.1758L56.8008 54.8516L56.8828 54.8398H56.9648Z" fill="black"/>
<path d="M75.5586 62.0039L78.1953 62.1914H78.2422L80.8555 62.4609H80.9141L80.9609 62.4727L83.5391 62.918H83.5508L86.1523 63.3984L86.2461 63.4102L86.3281 63.4336L88.8711 64.2305L89.0352 64.2891L89.1875 64.3711L90.793 65.3438L92.0117 66.0703L91.4727 67.0664L91.3086 69.2344L91.4258 71.8477L91.6016 74.4844L91.6133 74.5312V74.5781L91.625 77.2148V77.3086L91.6133 77.3906L91.332 79.8867L91.5547 82.3828V82.4883L91.5898 85.125V85.1602L91.5664 87.7969L91.6953 90.3516V90.5273L91.5078 93.0703L91.4844 95.7188V95.7656L91.3789 98.4023L91.4844 100.934L91.707 103.5L91.7188 103.57L91.707 103.652L91.6719 106.289L91.6484 108.914V108.938L91.5898 111.574L91.6484 114.152L91.6602 114.598L91.4258 114.973L90.4531 116.566L90.043 117.234L89.2578 117.281L86.6797 117.422L84.0547 117.703L83.8906 117.727L83.7266 117.703L81.1719 117.41L78.6992 117.574H78.5352L75.9922 117.445L73.5078 117.738L73.2852 117.762L73.0508 117.727L70.6016 117.258L68.1523 117.422H68.0703L65.4336 117.457L64.1797 117.469L63.9453 116.238L63.5117 114.059L63.4883 113.941V113.812L63.418 111.176V111.141L63.4062 108.504V108.398L63.418 108.305L63.7344 105.902L63.2656 103.5L63.2188 103.254L63.2539 103.008L63.6055 100.371L63.7109 98.0508L63.2773 95.543L63.2656 95.4258V95.3086L63.2422 92.6602V92.5078L63.2656 92.3672L63.7461 89.9062L63.5 87.5273L63.4883 87.3867L63.5 87.2461L63.6992 84.7383L63.3594 82.3008L63.3359 82.0898L63.3594 81.8906L63.7109 79.3242L63.7227 76.9102L63.3008 74.4258L63.2773 74.3086V74.1914L63.2305 71.5547V71.4492L63.2422 71.3438L63.582 68.7539L63.8164 66.2227L63.8984 65.2969L64.7773 64.957L67.25 64.0078L69.7227 63.0703L69.8398 63.0234L69.9805 63L72.5703 62.5195L75.1836 62.0273L75.3594 61.9922L75.5586 62.0039ZM73.1211 65.4609L70.6719 65.918L68.3164 66.8203V66.8086L66.7109 67.418L66.5703 69.0234V69.082L66.2305 71.625L66.2656 74.0391L66.6992 76.5586L66.7227 76.6992V76.8281L66.6992 79.4648V79.5586L66.6875 79.6523L66.3594 82.0898L66.6875 84.5273L66.7109 84.6914L66.6992 84.8555L66.4883 87.3984L66.7461 89.8594L66.7695 90.082L66.7344 90.3047L66.2422 92.7539L66.2539 95.168L66.6875 97.6875L66.7109 97.8398L66.6992 97.9922L66.5938 100.641V100.711L66.582 100.77L66.2422 103.16L66.7109 105.574L66.7578 105.809L66.7344 106.043L66.4062 108.586L66.418 111.129H66.4062L66.4766 113.637L66.6406 114.434L68.0352 114.422L70.5898 114.258L70.7891 114.246L70.9766 114.281L73.3906 114.727L75.8047 114.457L75.9219 114.434L76.0508 114.445L78.5938 114.562L81.1602 114.422L81.2891 114.41L81.418 114.422L83.9023 114.703L86.375 114.445H86.4453L88.2969 114.328L88.6367 113.777L88.5898 111.574V111.516L88.6484 108.902L88.6719 106.254V106.242L88.7188 103.758L88.4844 101.121V101.039L88.3789 98.4023V98.2852L88.4844 95.6484L88.5195 93.0469V92.9648L88.6836 90.3867L88.5781 87.8555L88.5664 87.8203V87.7734L88.5898 85.1602L88.5547 82.5234V82.5117L88.332 79.9922L88.3203 79.8516L88.3438 79.6992L88.6133 77.168V74.6836L88.4375 72.0469V72.0234L88.3086 69.375V69.1875L88.4375 67.418L87.793 67.0312L85.4609 66.3047L83.0117 65.8711V65.8594L80.5508 65.4375L77.9492 65.1797V65.168L75.5234 65.0156L73.1211 65.4609Z" fill="black"/>
<path d="M93.5039 76.8776L93.6914 79.2331L93.5742 81.8464L93.3984 84.4831L93.3867 84.53V84.5768L93.375 87.2136V87.3073L93.3867 87.3893L93.668 89.8854L93.4453 92.3815V92.487L93.4102 95.1354V95.1589L93.4336 97.7956L93.3047 100.362V100.526L93.4922 103.069L93.4805 103.081L93.5156 105.717V105.764L93.6211 108.413L93.5156 110.932L93.293 113.499L93.2695 113.698L93.3164 113.909L93.7969 116.452L94.0195 117.682L95.2734 117.671L97.9102 117.659L97.9336 117.647H97.9453L100.559 117.6L103.16 117.647H103.277L103.395 117.635L106.031 117.272V117.26L108.117 117.026L109.301 116.885L109.43 115.69L109.711 113.053L109.723 112.889L109.711 112.725L109.418 110.241L109.57 107.698L109.582 107.616L109.57 107.534L109.441 104.991L109.734 102.507L109.77 102.284L109.723 102.061L109.266 99.5886L109.418 97.1511L109.43 97.1159V97.069L109.453 94.444L109.512 91.819L109.582 89.1706L109.594 89.112L109.582 89.0417L109.418 86.3932L109.371 85.5847L108.68 85.1862L106.617 83.9792L104.965 82.1393L104.801 81.9518L104.59 81.8347L102.363 80.5573L100.348 79.1276L98.6484 77.2995L98.5664 77.2175L98.4727 77.1354L96.3867 75.5182L96.0234 75.237L95.5664 75.2018L95.0977 75.1667L93.5039 75.0612V76.8776ZM98.2734 81.3073L98.3789 81.4245L98.5078 81.5065L100.664 83.03L100.723 83.0768L100.781 83.112L102.879 84.3073L104.496 86.1354L104.66 86.3229L104.871 86.4401L106.488 87.3659L106.594 89.2292L106.512 91.737L106.453 94.3854V94.3972L106.43 96.9518L106.254 99.5886L106.242 99.7878L106.277 99.9753L106.734 102.389L106.453 104.803L106.441 104.921V105.049L106.582 107.592L106.418 110.159V110.288L106.43 110.417L106.711 112.901L106.57 114.178L105.656 114.296H105.621L103.09 114.635L100.582 114.6H100.512L97.875 114.659H96.5156L96.3047 113.557L96.5156 111.12V111.038L96.6211 108.401V108.284L96.5156 105.647L96.4805 103.057V102.964L96.3047 100.362L96.4219 97.8542L96.4336 97.819V97.7722L96.4102 95.1589L96.4453 92.5222V92.5104L96.668 89.9909L96.6797 89.8503L96.6562 89.6979L96.3867 87.1667V84.6823L96.5625 82.0456V82.0222L96.6914 79.5847L98.2734 81.3073Z" fill="black"/>
<path d="M94.8984 76.9531L95.0039 77L96.293 77.7617L96.2461 77.8438L95.9414 78.3711L95.3438 78.5352L92.918 79.1914L91.5586 79.7891L91.6055 81.4414V81.4766L91.6172 84.1133L91.6289 84.1953L91.6172 84.2891L91.3359 86.7969L91.5469 89.2695L91.5586 89.3281V89.3867L91.582 92.0234V92.0469L91.5703 94.6953L91.6875 97.25L91.6992 97.332L91.6875 97.4258L91.5117 100.062L91.4883 102.617V102.664L91.3828 105.301L91.4766 107.75L91.7109 110.387V110.551L91.6641 113.188L91.6523 114.359L92.4727 114.395L94.9688 114.348L96.5039 114.312V116H95.0039L95.0273 117.348L92.4727 117.406H92.3672L90.082 117.301L88.6406 117.23L88.6523 115.789L88.6641 113.152V113.141L88.7109 110.492L88.4883 108.008L88.4766 107.973V107.938L88.3828 105.301V105.184L88.4883 102.535L88.5117 99.9453V99.8984L88.5234 99.8633L88.6992 97.2852L88.5703 94.7539V94.6719L88.582 92.0352H88.5938L88.5586 89.5273L88.3359 86.8906L88.3242 86.7383L88.3359 86.5977L88.6172 84.0664L88.6055 81.5117L88.5469 78.8633L88.5234 77.8555L89.4375 77.457L91.8633 76.3906L91.9688 76.3438L92.0742 76.3203L94.5586 75.6406L94.8984 76.9531Z" fill="black"/>
<path d="M26.4961 76.8776L26.3086 79.2331L26.4258 81.8464L26.6016 84.4831L26.6133 84.53V84.5768L26.625 87.2136V87.3073L26.6133 87.3893L26.332 89.8854L26.5547 92.3815V92.487L26.5898 95.1354V95.1589L26.5664 97.7956L26.6953 100.362V100.526L26.5078 103.069L26.5195 103.081L26.4844 105.717V105.764L26.3789 108.413L26.4844 110.932L26.707 113.499L26.7305 113.698L26.6836 113.909L26.2031 116.452L25.9805 117.682L24.7266 117.671L22.0898 117.659L22.0664 117.647H22.0547L19.4414 117.6L16.8398 117.647H16.7227L16.6055 117.635L13.9688 117.272V117.26L11.8828 117.026L10.6992 116.885L10.5703 115.69L10.2891 113.053L10.2773 112.889L10.2891 112.725L10.582 110.241L10.4297 107.698L10.418 107.616L10.4297 107.534L10.5586 104.991L10.2656 102.507L10.2305 102.284L10.2773 102.061L10.7344 99.5886L10.582 97.1511L10.5703 97.1159V97.069L10.5469 94.444L10.4883 91.819L10.418 89.1706L10.4062 89.112L10.418 89.0417L10.582 86.3932L10.6289 85.5847L11.3203 85.1862L13.3828 83.9792L15.0352 82.1393L15.1992 81.9518L15.4102 81.8347L17.6367 80.5573L19.6523 79.1276L21.3516 77.2995L21.4336 77.2175L21.5273 77.1354L23.6133 75.5182L23.9766 75.237L24.4336 75.2018L24.9023 75.1667L26.4961 75.0612V76.8776ZM21.7266 81.3073L21.6211 81.4245L21.4922 81.5065L19.3359 83.03L19.2773 83.0768L19.2188 83.112L17.1211 84.3073L15.5039 86.1354L15.3398 86.3229L15.1289 86.4401L13.5117 87.3659L13.4062 89.2292L13.4883 91.737L13.5469 94.3854V94.3972L13.5703 96.9518L13.7461 99.5886L13.7578 99.7878L13.7227 99.9753L13.2656 102.389L13.5469 104.803L13.5586 104.921V105.049L13.418 107.592L13.582 110.159V110.288L13.5703 110.417L13.2891 112.901L13.4297 114.178L14.3438 114.296H14.3789L16.9102 114.635L19.418 114.6H19.4883L22.125 114.659H23.4844L23.6953 113.557L23.4844 111.12V111.038L23.3789 108.401V108.284L23.4844 105.647L23.5195 103.057V102.964L23.6953 100.362L23.5781 97.8542L23.5664 97.819V97.7722L23.5898 95.1589L23.5547 92.5222V92.5104L23.332 89.9909L23.3203 89.8503L23.3438 89.6979L23.6133 87.1667V84.6823L23.4375 82.0456V82.0222L23.3086 79.5847L21.7266 81.3073Z" fill="black"/>
<path d="M25.1016 76.9531L24.9961 77L23.707 77.7617L23.7539 77.8438L24.0586 78.3711L24.6562 78.5352L27.082 79.1914L28.4414 79.7891L28.3945 81.4414V81.4766L28.3828 84.1133L28.3711 84.1953L28.3828 84.2891L28.6641 86.7969L28.4531 89.2695L28.4414 89.3281V89.3867L28.418 92.0234V92.0469L28.4297 94.6953L28.3125 97.25L28.3008 97.332L28.3125 97.4258L28.4883 100.062L28.5117 102.617V102.664L28.6172 105.301L28.5234 107.75L28.2891 110.387V110.551L28.3359 113.188L28.3477 114.359L27.5273 114.395L25.0312 114.348L23.4961 114.312V116H24.9961L24.9727 117.348L27.5273 117.406H27.6328L29.918 117.301L31.3594 117.23L31.3477 115.789L31.3359 113.152V113.141L31.2891 110.492L31.5117 108.008L31.5234 107.973V107.938L31.6172 105.301V105.184L31.5117 102.535L31.4883 99.9453V99.8984L31.4766 99.8633L31.3008 97.2852L31.4297 94.7539V94.6719L31.418 92.0352H31.4062L31.4414 89.5273L31.6641 86.8906L31.6758 86.7383L31.6641 86.5977L31.3828 84.0664L31.3945 81.5117L31.4531 78.8633L31.4766 77.8555L30.5625 77.457L28.1367 76.3906L28.0312 76.3438L27.9258 76.3203L25.4414 75.6406L25.1016 76.9531Z" fill="black"/>
<path d="M57.3828 64.6992L54.8398 64.9102L53.2695 65.0391L53.4805 66.5977L53.5039 66.7617V66.8789L53.6914 69.2344L53.5742 71.8477L53.3984 74.4844L53.3867 74.5312V74.5781L53.375 77.2148V77.3086L53.3867 77.3906L53.668 79.8867L53.4453 82.3828V82.4883L53.4102 85.125V85.1602L53.4336 87.7969L53.3047 90.3516V90.5273L53.4922 93.0703L53.5156 95.7188V95.7656L53.6211 98.4023L53.5156 100.934L53.293 103.5L53.2812 103.57L53.293 103.652L53.3281 106.289L53.3516 108.914V108.938L53.4102 111.574L53.3516 114.152L53.3398 114.598L53.5742 114.973L54.5469 116.566L54.957 117.234L55.7422 117.281L58.3203 117.422L60.9453 117.703L61.1094 117.727L61.2734 117.703L63.9102 117.41L64.4258 117.352L64.8008 116.988L66.125 115.688L66.6055 115.207L66.5703 114.539L66.4414 111.996L66.7344 109.512L66.7695 109.277L66.7227 109.055L66.2656 106.594L66.418 104.156L66.4297 104.109V104.074L66.4531 101.449L66.5117 98.8125L66.582 96.1758V96.1406L66.5938 93.5039V93.3984L66.582 93.3047L66.2656 90.9023L66.7344 88.5L66.7812 88.2539L66.7461 88.0078L66.3945 85.3711L66.2891 83.0508L66.7227 80.543L66.7344 80.4258V80.3086L66.7578 77.6602V77.5078L66.7344 77.3672L66.2539 74.9062L66.5 72.5273L66.5117 72.3867L66.5 72.2461L66.3008 69.7383L66.6406 67.3008L66.8281 65.8945L65.4336 65.625L63.0664 65.168L62.9492 65.1445L62.832 65.1328L60.3125 65.0742L57.7109 64.7109L57.5469 64.6875L57.3828 64.6992ZM59.9492 68.0508L60.0312 68.0625H60.1133L62.6094 68.1211L63.4766 68.2969L63.3125 69.5273L63.2891 69.6914L63.3008 69.8555L63.5117 72.3984L63.2539 74.8594L63.2305 75.082L63.2656 75.3047L63.7578 77.7539L63.7461 80.168L63.3125 82.6875L63.2891 82.8398L63.3008 82.9922L63.4062 85.6406V85.7109L63.418 85.7695L63.7578 88.1602L63.2891 90.5742L63.2422 90.8086L63.2656 91.043L63.5938 93.5859L63.582 96.1289H63.5938L63.5117 98.7305V98.7422L63.4531 101.379V101.402L63.4297 103.957L63.2539 106.594L63.2422 106.781L63.2773 106.969L63.7344 109.395L63.4531 111.797L63.4414 111.926V112.055L63.5469 114.012L63.0664 114.48L61.0977 114.703L58.625 114.445H58.5547L56.7031 114.328L56.3633 113.777L56.4102 111.574V111.516L56.3516 108.902L56.3281 106.254V106.242L56.2812 103.758L56.5156 101.121V101.039L56.6211 98.4023V98.2852L56.5156 95.6484L56.4805 93.0469V92.9648L56.3164 90.3867L56.4219 87.8555L56.4336 87.8203V87.7734L56.4102 85.1602L56.4453 82.5234V82.5117L56.668 79.9922L56.6797 79.8516L56.6562 79.6992L56.3867 77.168V74.6836L56.5625 72.0469V72.0234L56.6914 69.375V69.1875L56.5859 67.7695L57.4766 67.6992L59.9492 68.0508Z" fill="black"/>
<path d="M57.7109 104.348L55.0625 104.465L54.3711 104.488L53.9375 105.051L53.8086 105.227L53.3867 105.777L53.5391 106.445L53.6914 108.801L53.5742 111.309L53.3984 113.957L53.375 114.285L53.4922 114.602L54.2891 116.664L54.7109 117.742L55.8594 117.613L58.3672 117.332L60.8398 117.555H60.957L63.5938 117.59H64.1914L64.625 117.191L66.0898 115.855L66.5352 115.434L66.5703 114.812L66.6875 112.176L66.6992 112.094L66.6875 112L66.5117 109.363L66.4883 106.809L66.4766 105.73L65.4453 105.402L63.5117 104.77L63.3359 104.711L63.1484 104.699L60.5234 104.547V104.535L57.875 104.348H57.7109ZM60.3125 107.523L62.7734 107.676L63.5 107.91L63.5117 109.48V109.527L63.5234 109.574L63.6992 112.129L63.6055 114.051L63.043 114.578L60.9922 114.555L58.4609 114.332L58.3203 114.32L58.168 114.344L56.6797 114.508L56.4102 113.805L56.5625 111.508V111.484L56.6914 108.848V108.672L56.6094 107.395L57.7344 107.348L60.3125 107.523Z" fill="black"/>
</svg>
