<svg width="120" height="120" viewBox="0 0 120 120" fill="none" xmlns="http://www.w3.org/2000/svg">
<path d="M74.2812 114.277L76.7305 114.734L79.1797 114.582L79.2266 114.57H79.2617L81.8867 114.559V114.547L84.5234 114.488L87.1602 114.418L87.2656 114.406L87.3594 114.418L88.168 114.512L87.8398 117.488L87.0781 117.406L84.6055 117.488H84.5938L81.957 117.547H81.9336L79.3672 117.559L79.3789 117.57L76.7422 117.746L76.5547 117.758L73.9297 117.266L71.5391 117.547L71.4102 117.559H71.2812L68.7266 117.418L66.1719 117.582H66.043L65.9141 117.57L63.418 117.289L60.957 117.559H60.8867L58.25 117.711L58.0977 117.723L57.957 117.699L55.4141 117.348L52.9062 117.406H52.8477L50.2109 117.348V117.336H47.5742L44.9492 117.289L42.4531 117.512L42.418 117.523H42.3711L39.7344 117.617H39.6172L36.9805 117.512V117.5L34.3906 117.488H34.3438L34.2969 117.477L31.7188 117.301L29.1875 117.43H29.1055L26.4688 117.418V117.406L23.9609 117.43L21.3242 117.664L21.1836 117.676L21.0312 117.664L18.5 117.383L15.9219 117.395V117.383L13.3789 117.559H13.3672L13.3555 117.57L10.707 117.688L10.6133 117.699L10.5312 117.688L7.98828 117.5L8 117.277V114.5H8.21094L10.6719 114.699L13.1797 114.582V114.57L15.8164 114.395H15.9102L18.5469 114.383L18.6406 114.371L18.7227 114.383L21.2305 114.664L23.7148 114.453L23.7617 114.441H23.8203L26.4688 114.418H26.4922L29.0469 114.43L31.6953 114.312L31.7773 114.301L31.8594 114.312L34.5078 114.488L34.4961 114.5L37.0508 114.512H37.0977L39.6875 114.617L42.1836 114.535L44.832 114.289H44.9844L47.6211 114.336L47.6094 114.348H50.2695L52.8711 114.406L55.4844 114.348H55.6133L55.7305 114.359L58.2148 114.723L60.7109 114.559V114.57L63.2891 114.289L63.4414 114.277L63.6055 114.289L66.0898 114.582L68.6328 114.43L68.7148 114.418L68.7969 114.43L71.3281 114.559L73.8242 114.266L74.0586 114.23L74.2812 114.277ZM53.9492 12.7295L56.2539 14.0547L56.2607 14.0596L58.3867 15.2969L58.6387 15.2197L59.5352 14.9434L60.1758 15.6279L61.8301 17.3926L62.0127 17.5879L62.1162 17.834L63.1182 20.2031L64.3018 22.5361L64.8633 23.6445L63.8799 24.4023L62.1328 25.749L62.1094 28.1826L62.1074 28.3682L62.0605 28.5479L61.415 31.0127L61.3779 31.1572L61.3125 31.292L60.6631 32.6191L61.418 34.4209L61.7998 35.332L61.1143 36.043L59.3887 37.8291L58.2236 39.9824L58.1641 40.0918L58.0879 40.1904L56.458 42.2812L56.3789 42.3809L56.7998 42.4307L57.1797 42.4756L57.4912 42.6963L59.6318 44.2109L60.0166 44.4834L60.1768 44.9277L61.0781 47.4346L61.1494 47.6328L61.1631 47.8438L61.3252 50.3135L61.9873 52.416L63.3994 54.2285L63.4365 54.2764L63.4697 54.3271L64.9258 56.5439L64.9668 56.6064L65.001 56.6719L66.2285 59.0176L66.2617 59.082L66.2891 59.1494L67.2334 61.4756L68.5547 63.6104L68.874 64.125L68.7461 64.7158L68.2168 67.1699L68.1641 67.4141L68.0342 67.6289L67.1455 69.1006L69.3848 70.1035L69.46 70.1377L69.5322 70.1797L71.8125 71.5195L71.918 71.582L72.0117 71.6602L73.9668 73.2861L76.1348 74.5996L76.2109 74.6455L76.2822 74.7012L78.3633 76.3311L78.3994 76.3594L78.4346 76.3906L80.4111 78.1455H80.4102L82.3965 79.877L82.4854 79.9541L82.5615 80.0449L84.2461 82.0596L85.9727 84.0566L86.0078 84.0977L86.041 84.1416L87.6006 86.2354L89.2305 88.2656L90.9053 90.3252L90.9766 90.4131L91.0332 90.5107L92.3779 92.793L92.4053 92.8418L93.6621 95.1729L93.6855 95.2158L93.7061 95.2598L94.8057 97.6611L95.915 100.062L95.9746 100.189L96.0088 100.327L96.625 102.794L97.6162 105.11L97.6172 105.111L98.6611 107.557L98.7412 107.744L98.7686 107.947L99.1084 110.501L99.7275 112.985L99.75 113.076L99.7617 113.169L100.064 115.691L100.258 116.422L98.8076 116.805L97.3564 117.188L97.1367 116.354L97.1104 116.254L97.0986 116.151L96.7939 113.622L96.1777 111.145L96.1572 111.063L96.1465 110.98L95.8213 108.546L94.8584 106.291L93.8203 103.865L93.7725 103.755L93.7441 103.639L93.1318 101.191L92.082 98.9199L92.0801 98.915L91 96.5576L89.7646 94.2666H89.7637L88.5049 92.1299L86.9033 90.1572L86.8975 90.1504L85.2451 88.0928L85.2285 88.0723L85.2119 88.0508L83.666 85.9756L81.9766 84.0215L81.9688 84.0117L81.9609 84.0029L80.335 82.0586L78.4287 80.3975L78.4189 80.3887L76.4688 78.6572L74.501 77.1172L72.3164 75.7939L72.2197 75.7354L72.1338 75.6641L70.1885 74.0449L68.084 72.8076L66.2715 71.9961L65.1797 72.3525L65.1562 72.3701L64.9355 72.7324L64.6348 72.7793L63.3965 73.751L63.5273 74.083L63.5752 74.2041L63.6016 74.332L64.1328 76.9238L64.167 77.0889L64.1631 77.2578L64.1045 79.9131L64.0996 80.1084L64.0459 80.2949L63.3252 82.7959L62.7783 85.3262L62.748 85.4648L62.6924 85.5967L61.8066 87.6729L62.0215 89.7236L62.0342 89.8457L62.0273 89.9688L61.8691 92.6309L61.8574 92.8164L61.8018 92.9932L61.0039 95.5156L61.0049 95.5166L60.2256 98.041L60.2158 98.0732L60.2041 98.1055L59.332 100.528L58.7227 102.928L58.4473 105.203L58.5322 105.622L59.8623 105.54L59.8975 105.538L62.4922 105.438L65.1279 105.253L65.2598 105.243L65.3916 105.257L67.9209 105.524L70.251 105.394L70.3311 106.83L70.3389 106.831L71.8359 106.916L71.833 106.977L71.7568 108.314L70.4189 108.39L67.9668 108.526L67.8457 108.533L67.7256 108.521L65.209 108.254L62.7031 108.433L62.6543 108.435L60.0244 108.535L57.4141 108.698L56.1094 108.78L56.0732 108.605L53.9209 108.589L51.3594 108.789L51.3379 108.791L48.6973 108.958L48.6299 108.963L48.5635 108.961L45.9219 108.893L45.8203 108.89L45.7197 108.874L43.2393 108.47L40.7275 108.531L40.6738 108.533L40.6211 108.53L37.9902 108.408V108.409L35.4287 108.297L32.8623 108.425L32.792 108.429L32.7217 108.426L30.876 108.345L29.5498 108.286L29.4463 106.964L29.4453 106.949L30.9404 106.831L30.9414 106.83L31.0078 105.348L32.7783 105.426L35.3447 105.298L35.4141 105.294L35.4844 105.297L38.1201 105.412H38.124L40.709 105.531L41.5029 105.512L41.3652 102.874L41.3555 102.686L41.3926 102.5L41.8779 100.081L41.7559 97.9482L40.8301 95.7461L40.8096 95.6963L40.792 95.6445L39.9473 93.1436L39.9395 93.1201L39.9326 93.0977L39.1699 90.5762L39.0869 90.3008L39.1113 90.0156L39.3311 87.4121L39.3428 87.2695L39.3818 87.1318L40.0928 84.5986L40.2002 84.2168L40.4824 83.9385L41.0361 83.3896L40.7344 83.1982L40.5869 83.1055L40.4648 82.9805L38.5967 81.0723L38.4248 80.8965L38.3184 80.6758L37.1582 78.2754L37.0752 78.1055L37.0381 77.9199L36.5234 75.3779L35.7646 72.8994L35.4502 71.8701L36.3242 71.2422L38.3594 69.7783L38.4658 69.6309L37.5586 69.8193L36.2686 70.0859L35.8369 68.8418L35.1377 66.8232L35.1035 66.7256L35.083 66.624L34.6367 64.3779L33.6543 62.8623L31.5889 62.3291L31.3398 62.2656L31.127 62.1221L28.9277 60.6445L26.7324 59.2402L26.6475 59.1855L26.5693 59.1191L24.5664 57.417L24.4727 57.3379L24.3936 57.2441L22.6855 55.2285L22.5107 55.0225L22.4189 54.7686L21.5283 52.2988L21.335 51.7637L21.5449 51.2344L22.5391 48.7383L22.6553 48.4453L22.8789 48.2246L24.7002 46.4287L26.1465 44.4062L26.3086 44.1797L26.541 44.0264L28.7441 42.5723L28.7715 42.5547L31.0088 41.1455L31.1953 41.0283L31.4082 40.9688L33.9062 40.2764L36.3252 39.3926L36.5039 39.3271L36.6924 39.3086L39.3564 39.0449L39.4033 39.041L39.6416 39.0244L39.0605 37.708L37.6416 35.6143L37.5469 35.4746L37.4854 35.3174L36.6143 33.0781L36.4795 32.7324L36.5215 32.3633L36.7822 30.084L36.1279 27.915L36.0986 27.8203L36.083 27.7217L35.6592 25.1045L35.6299 24.9287L35.6436 24.751L35.8438 22.123L35.8525 22.0146L35.876 21.9082L36.457 19.3213L36.6387 18.5107L37.4219 18.2354L39.6641 17.4453L39.8926 17.3643L40.1348 17.3604L41.3359 17.3379L42.2939 15.8408L42.3799 15.707L42.4922 15.5938L44.3154 13.751L44.8252 13.2354L45.5459 13.3154L47.9697 13.583L50.3369 13.0742L50.3467 13.0723L50.3574 13.0693L52.9072 12.5596L53.46 12.4482L53.9492 12.7295ZM54.6016 24.3672L52.209 24.8936L50.7803 25.6035L49.9014 27.4287L49.6172 28.0186L48.9912 28.2109L46.9336 28.8447L45.7217 30.5371L44.417 32.792L44.1982 33.1699L43.8105 33.3711L41.4043 34.6221L40.9443 34.8613L40.7275 34.8203L41.6211 36.1377L41.6963 36.25L41.752 36.374L42.7617 38.6641L43.2529 39.7686L44.125 41.7305L41.9834 41.874L39.627 42.0322L37.1768 42.2744L34.874 43.1172L34.8174 43.1387L34.7598 43.1543L32.4199 43.8008L30.3701 45.0938L28.4238 46.377L27.0645 48.2803L26.9893 48.3857L26.8975 48.4766L25.209 50.1396L24.542 51.8145L25.1484 53.4941L26.6025 55.2109L28.4365 56.7686L30.5605 58.127L30.5742 58.1367L30.5889 58.1455L32.5869 59.4883L34.9707 60.1045L35.5361 60.25L35.8545 60.7402L37.3105 62.9873L37.4668 63.2285L37.5234 63.5107L38.0039 65.9355L38.2402 66.6143L39.4951 66.3555L39.7666 66.2988L40.2031 64.0547L40.2109 64.0176L40.2197 63.9805L40.7266 61.9258L40.2344 60.8789L38.3633 60.5137L37.8828 60.4199L37.5508 60.0605L35.751 58.1182L35.6465 58.0059L35.5674 57.874L34.2412 55.6768L33.4023 54.376L33.2402 54.4512L33.1875 54.0439L32.8271 53.4844L31.3027 51.3857L31.252 51.3164L31.21 51.2412L29.9805 49.0635L29.9512 49.0205L32.4648 47.3818L32.5195 47.4658L32.5449 47.5059L32.5684 47.5469L33.7793 49.6904L34.4346 50.5928L34.7168 50.4629L36.2676 49.0918L37.9102 47.5898L37.958 47.5469L38.0098 47.5068L38.0889 47.4463L39.002 48.6367L39.7051 49.5547L39.9336 49.8047L39.9111 49.8242L39.9141 49.8271L39.8828 49.8506L38.2734 51.3232L38.2637 51.3311L38.2549 51.3389L36.5391 52.8555L36.375 53.001L36.1758 53.0938L36.1514 53.1045L36.7617 54.0498L36.7744 54.0684L36.7861 54.0879L38.0557 56.1904L39.4189 57.6631L41.5566 58.0811L42.3018 58.2275L42.625 58.915L43.668 61.1318L43.8955 61.6133L43.7676 62.1299L43.1416 64.6582L42.6465 67.2148L42.5986 67.458L42.4756 67.6738L42.3467 67.8975L43.0371 68.4297L42.1855 69.6074L40.6504 71.7314L40.5078 71.9287L40.3105 72.0713L38.9482 73.0498L39.415 74.5723L39.4355 74.6426L39.4502 74.7139L39.9404 77.1377L40.9131 79.1504L42.4863 80.7578L44.2334 81.8643L45.8262 82.8721L44.4863 84.1973L42.874 85.792L42.3076 87.8047L42.124 89.9824L42.7988 92.2129L43.6162 94.6328L44.6211 97.0234L44.7207 97.2607L44.7354 97.5186L44.8848 100.1L44.8965 100.292L44.8584 100.481L44.3701 102.902L44.4824 105.045L44.8047 105.617L44.71 105.67L46.1035 105.896L48.5781 105.961L50.0449 105.867L49.9424 105.649V105.648L48.7783 103.314L48.6992 103.155L48.6592 102.981L48.0898 100.507L48.0371 100.277L48.0566 100.042L48.2822 97.416L48.292 97.3105L48.3154 97.208L48.8975 94.6699L49.3447 92.1172L49.3486 92.0996L49.3516 92.082L49.8672 89.4961V89.4941L50.3857 86.9062L50.3887 86.8926L50.9053 84.4248L51.0166 82.0361L50.6836 79.5869L50.2725 77.3916L50.2441 77.3564L49.2588 76.1592L49.4834 75.9854L49.0498 75.3076L47.4707 73.3799L45.8242 71.459L45.792 71.4219L45.7627 71.3828L45.7021 71.3027L48.1025 69.502L48.1367 69.5488L49.748 71.4268L49.7598 71.4395L49.7705 71.4521L51.4316 73.4805L51.4883 73.5498L51.5352 73.624L52.0029 74.3564L52.8604 73.8955L54.668 72.3076L54.71 72.2715L54.7539 72.2373L56.8799 70.6309L57.3467 71.248L57.9023 71.4023L59.2188 71.7666L58.6445 70.7246L58.5342 70.5254L58.4883 70.3027L58.4678 70.2051L59.9375 69.9023L60.251 69.8379L61.2705 69.2754L62.168 70.9014L62.877 70.3467L64.1123 68.3223L65.3359 66.292L65.6855 64.6748L64.6172 62.9482L64.5498 62.8408L64.5029 62.7236L63.5371 60.3447L62.373 58.1211L60.9971 56.0264L59.4541 54.0459L59.2881 53.833L59.207 53.5742L58.4102 51.0449L58.3564 50.873L58.3447 50.6934L58.1836 48.251L57.5127 46.3867L56.0703 45.3652L54.0137 45.124L52.1191 45.1865L51.5986 45.2031L51.1807 44.8945L51.0996 44.835L51.3018 44.5586L50.6211 44.6445L50.3115 44.6836L50.0117 44.5947L47.4678 43.8447L47.2451 43.7793L47.0527 43.6494L46.6035 43.3457L48.2832 40.8594L48.5381 41.0322L50.5596 41.6289L52.5283 41.3828L54.2412 40.2441L55.6455 38.4424L56.8496 36.2207L56.9473 36.04L57.0889 35.8936L58.2695 34.6699L57.6338 33.1523L57.3701 32.5254L57.6689 31.9141L58.5518 30.1055L59.1104 27.9678L59.1299 26.0166L58.2402 25.874L57.7461 25.7949L57.3994 25.4346L56.1172 24.1074L54.6016 24.3672ZM59.2305 72.2275L59.0947 72.7178L58.6895 73.0244L56.6123 74.5928L54.7109 76.2637L54.583 76.377L54.4316 76.458L53.623 76.8916L53.71 77.0273L53.292 77.21L53.6396 79.0674L53.6465 79.1035L53.6514 79.1406L54.0078 81.7656L54.0264 81.9014L54.0205 82.0371L53.8965 84.6855L53.8916 84.8057L53.8662 84.9238L53.3252 87.5078L53.3242 87.5068L52.8086 90.0811L52.8096 90.082L52.2939 92.6689L51.8457 95.2295L51.8389 95.2686L51.8301 95.3076L51.2617 97.7793L51.0654 100.062L51.543 102.138L52.6416 104.341L52.6494 104.355L52.6562 104.37L53.251 105.633L53.7568 105.594L53.8203 105.588L53.8848 105.589L55.4678 105.601L55.46 105.56L55.4121 105.323L55.4404 105.083L55.7568 102.471L55.7686 102.375L55.792 102.281L56.4443 99.7158L56.4619 99.6455L56.4863 99.5771L57.3691 97.1211L58.1387 94.6318L58.1416 94.6221L58.8848 92.2686L59.0244 89.9111L58.7832 87.5986L58.7422 87.2119L58.8945 86.8545L59.877 84.5488L60.4053 82.1104L60.415 82.0605L60.4297 82.0127L61.1094 79.6494L61.1602 77.3604L60.6895 75.0625L59.8145 72.8457L59.3105 71.9336L59.2305 72.2275ZM54.8994 46.9512L55.0605 47.293L55.041 47.6699L54.9209 49.9336L55.6582 51.9023L57.1758 53.7139L58.8984 55.7256L59.0469 55.8994L59.1377 56.1104L60.1777 58.5391L60.1895 58.5664L60.2002 58.5947L61.1396 61.0527L61.2051 61.2246L61.2275 61.4072L61.5469 64.0322L61.5625 64.1562L61.5566 64.2822L61.498 65.5684L58.502 65.4316L58.5537 64.2695L58.2705 61.9521L57.4082 59.6943L56.4707 57.5029L54.8975 55.665L54.8916 55.6592L54.8867 55.6533L53.1934 53.6318L53.0283 53.4346L52.9385 53.1943L52.002 50.6943L51.8916 50.4014L51.9082 50.0889L52.0449 47.5117L53.3311 47.5791L53.5 47.5L54.8574 46.8613L54.8994 46.9512ZM50.9463 16.0117L50.9453 16.0107L48.3623 16.5664L48.124 16.6182L47.8828 16.5918L45.9365 16.376L44.7373 17.5889L43.4316 19.6309L42.999 20.3076L42.1963 20.3223L40.4326 20.3545L39.2021 20.7881L38.8262 22.4648L38.6475 24.7988L39.0273 27.1445L39.7441 29.5117L39.834 29.8086L39.7988 30.1162L39.5439 32.3359L40.0137 33.542L40.083 33.1738L40.2334 32.3701L40.0205 31.9609L40.3408 31.7939L40.3594 31.6992L40.4795 31.7217L42.0381 30.9111L43.1602 28.9736L43.1963 28.9111L43.2393 28.8516L44.79 26.6865L45.084 26.2754L45.5674 26.127L47.4834 25.5361L48.3018 23.8379L48.5254 23.374L48.9863 23.1455L51.041 22.126L51.2051 22.0439L51.3848 22.0039L53.9932 21.4297L54.0273 21.4219L54.0625 21.416L56.3926 21.0166L57.1748 20.8828L57.7256 21.4531L59.2109 22.9912L60.5225 23.2012L61.0635 22.7842L60.4229 21.5205L60.3994 21.4746L60.3789 21.4268L59.4561 19.2471L58.6279 18.3623L57.2549 18.7881L56.2422 19.1006L55.6084 18.25L55.5488 18.1699L56.3428 17.5781L54.7588 16.6553V16.6562L52.9424 15.6113L50.9463 16.0117Z" fill="black"/>
</svg>
