<svg width="120" height="120" viewBox="0 0 120 120" fill="none" xmlns="http://www.w3.org/2000/svg">
<path d="M27.3546 29.9301L28.8043 29.5447L28.7123 29.1988L28.4741 28.9317L27.3546 29.9301ZM28.0163 32.4185L26.5666 32.8039L26.6404 33.0815L26.8116 33.3122L28.0163 32.4185ZM29.6029 34.557L28.3983 35.4508L28.484 35.5663L28.5901 35.6635L29.6029 34.557ZM31.5475 36.337L30.5347 37.4435L30.6227 37.524L30.7223 37.5896L31.5475 36.337ZM33.7267 37.7725L32.9015 39.0251L32.9547 39.0601L33.0106 39.0905L33.7267 37.7725ZM36.0597 39.0401L35.3435 40.3581L35.5726 40.4825L35.8301 40.5224L36.0597 39.0401ZM38.6841 39.4465L38.4546 40.9288L38.4708 40.9313L38.487 40.9335L38.6841 39.4465ZM41.2957 39.7927L41.0986 41.2797L41.1238 41.283L41.1492 41.2855L41.2957 39.7927ZM43.9222 40.0505L44.0856 38.5594L44.0772 38.5585L44.0688 38.5576L43.9222 40.0505ZM46.5667 40.3402L47.943 39.7435L47.5963 38.944L46.7301 38.8491L46.5667 40.3402ZM47.5405 42.5862L49.0404 42.575L49.0381 42.2697L48.9167 41.9895L47.5405 42.5862ZM47.5601 45.2259L49.0589 45.2859L49.0603 45.2503L49.0601 45.2148L47.5601 45.2259ZM47.4545 47.8665L45.9557 47.8066L45.9534 47.8659L45.9557 47.9253L47.4545 47.8665ZM47.5581 50.506L46.0592 50.5648L46.0604 50.5952L46.0629 50.6255L47.5581 50.506ZM47.7692 53.1461L46.274 53.2657L46.2884 53.4464L46.3455 53.6184L47.7692 53.1461ZM48.528 55.4339L47.1043 55.9062L47.1267 55.9736L47.1553 56.0387L48.528 55.4339ZM49.5912 57.8471L51.0732 58.0789L51.1411 57.6446L50.9639 57.2424L49.5912 57.8471ZM49.1822 60.463L47.7002 60.2313L47.6822 60.3463L47.6822 60.4627L49.1822 60.463ZM49.1817 63.0706L47.6817 63.0704L47.6817 63.192L47.7013 63.312L49.1817 63.0706ZM49.6102 65.6987L48.1297 65.9401L48.2069 66.4133L48.5441 66.754L49.6102 65.6987ZM51.499 67.6068L50.4329 68.662L50.6409 68.8721L50.913 68.9876L51.499 67.6068ZM53.9637 68.6527L55.1303 67.7097L54.8947 67.4182L54.5497 67.2718L53.9637 68.6527ZM55.5769 70.6484L54.4104 71.5914L54.7463 72.0069L55.2692 72.1165L55.5769 70.6484ZM58.2084 71.2L58.9899 69.9196L58.7692 69.7849L58.5161 69.7319L58.2084 71.2ZM60.4698 72.5802L59.6883 73.8605L59.8694 73.9711L60.0741 74.027L60.4698 72.5802ZM63.0412 73.2833L63.858 72.0252L63.6621 71.8981L63.4369 71.8365L63.0412 73.2833ZM65.2917 74.7443L64.4749 76.0024L64.6539 76.1186L64.8582 76.1803L65.2917 74.7443ZM67.825 75.509L68.3898 74.1194L68.3252 74.0932L68.2585 74.073L67.825 75.509ZM70.2653 76.5008L71.1373 75.2803L70.9936 75.1777L70.8301 75.1112L70.2653 76.5008ZM71.5193 77.3966L72.497 78.5342L73.9474 77.2877L72.3913 76.1761L71.5193 77.3966ZM27.2881 29.8555L26.1686 30.8539L26.2352 30.9285L27.3546 29.9301L28.4741 28.9317L28.4075 28.8571L27.2881 29.8555ZM27.3546 29.9301L25.905 30.3155L26.5666 32.8039L28.0163 32.4185L29.4659 32.033L28.8043 29.5447L27.3546 29.9301ZM28.0163 32.4185L26.8116 33.3122L28.3983 35.4508L29.6029 34.557L30.8076 33.6633L29.2209 31.5247L28.0163 32.4185ZM29.6029 34.557L28.5901 35.6635L30.5347 37.4435L31.5475 36.337L32.5603 35.2305L30.6157 33.4506L29.6029 34.557ZM31.5475 36.337L30.7223 37.5896L32.9015 39.0251L33.7267 37.7725L34.5518 36.5198L32.3726 35.0843L31.5475 36.337ZM33.7267 37.7725L33.0106 39.0905L35.3435 40.3581L36.0597 39.0401L36.7758 37.7221L34.4428 36.4545L33.7267 37.7725ZM36.0597 39.0401L35.8301 40.5224L38.4546 40.9288L38.6841 39.4465L38.9137 37.9641L36.2892 37.5578L36.0597 39.0401ZM38.6841 39.4465L38.487 40.9335L41.0986 41.2797L41.2957 39.7927L41.4928 38.3057L38.8812 37.9595L38.6841 39.4465ZM41.2957 39.7927L41.1492 41.2855L43.7757 41.5433L43.9222 40.0505L44.0688 38.5576L41.4422 38.2998L41.2957 39.7927ZM43.9222 40.0505L43.7589 41.5415L46.4034 41.8312L46.5667 40.3402L46.7301 38.8491L44.0856 38.5594L43.9222 40.0505ZM46.5667 40.3402L45.1905 40.9368L46.1642 43.1828L47.5405 42.5862L48.9167 41.9895L47.943 39.7435L46.5667 40.3402ZM47.5405 42.5862L46.0405 42.5973L46.0601 45.2371L47.5601 45.2259L49.0601 45.2148L49.0404 42.575L47.5405 42.5862ZM47.5601 45.2259L46.0613 45.166L45.9557 47.8066L47.4545 47.8665L48.9533 47.9264L49.0589 45.2859L47.5601 45.2259ZM47.4545 47.8665L45.9557 47.9253L46.0592 50.5648L47.5581 50.506L49.0569 50.4472L48.9534 47.8077L47.4545 47.8665ZM47.5581 50.506L46.0629 50.6255L46.274 53.2657L47.7692 53.1461L49.2644 53.0266L49.0533 50.3864L47.5581 50.506ZM47.7692 53.1461L46.3455 53.6184L47.1043 55.9062L48.528 55.4339L49.9518 54.9617L49.1929 52.6739L47.7692 53.1461ZM48.528 55.4339L47.1553 56.0387L48.2185 58.4519L49.5912 57.8471L50.9639 57.2424L49.9007 54.8292L48.528 55.4339ZM49.5912 57.8471L48.1092 57.6154L47.7002 60.2313L49.1822 60.463L50.6642 60.6947L51.0732 58.0789L49.5912 57.8471ZM49.1822 60.463L47.6822 60.4627L47.6817 63.0704L49.1817 63.0706L50.6817 63.0709L50.6822 60.4633L49.1822 60.463ZM49.1817 63.0706L47.7013 63.312L48.1297 65.9401L49.6102 65.6987L51.0906 65.4574L50.6622 62.8293L49.1817 63.0706ZM49.6102 65.6987L48.5441 66.754L50.4329 68.662L51.499 67.6068L52.565 66.5515L50.6762 64.6434L49.6102 65.6987ZM51.499 67.6068L50.913 68.9876L53.3778 70.0335L53.9637 68.6527L54.5497 67.2718L52.0849 66.2259L51.499 67.6068ZM53.9637 68.6527L52.7972 69.5956L54.4104 71.5914L55.5769 70.6484L56.7435 69.7055L55.1303 67.7097L53.9637 68.6527ZM55.5769 70.6484L55.2692 72.1165L57.9007 72.6681L58.2084 71.2L58.5161 69.7319L55.8847 69.1803L55.5769 70.6484ZM58.2084 71.2L57.427 72.4803L59.6883 73.8605L60.4698 72.5802L61.2512 71.2998L58.9899 69.9196L58.2084 71.2ZM60.4698 72.5802L60.0741 74.027L62.6455 74.7302L63.0412 73.2833L63.4369 71.8365L60.8654 71.1333L60.4698 72.5802ZM63.0412 73.2833L62.2245 74.5415L64.4749 76.0024L65.2917 74.7443L66.1084 73.4861L63.858 72.0252L63.0412 73.2833ZM65.2917 74.7443L64.8582 76.1803L67.3916 76.945L67.825 75.509L68.2585 74.073L65.7252 73.3083L65.2917 74.7443ZM67.825 75.509L67.2603 76.8986L69.7006 77.8904L70.2653 76.5008L70.8301 75.1112L68.3898 74.1194L67.825 75.509ZM70.2653 76.5008L69.3934 77.7214L70.6474 78.6172L71.5193 77.3966L72.3913 76.1761L71.1373 75.2803L70.2653 76.5008ZM71.5193 77.3966L70.5416 76.259L70.5313 76.2679L71.509 77.4055L72.4866 78.5431L72.497 78.5342L71.5193 77.3966Z" fill="black"/>
<path d="M67.3925 29.0882L68.8762 29.3088L68.8902 29.2143L68.8922 29.1188L67.3925 29.0882ZM67.0166 31.6158L65.5329 31.3952L65.511 31.5426L65.5185 31.6915L67.0166 31.6158ZM67.1504 34.2619L65.6523 34.3377L65.6538 34.3688L65.6567 34.3998L67.1504 34.2619ZM67.3936 36.8974L68.8933 36.8676L68.8922 36.8134L68.8872 36.7595L67.3936 36.8974ZM67.4465 39.5552L68.9422 39.668L68.9476 39.5968L68.9462 39.5253L67.4465 39.5552ZM67.2518 42.136L65.756 42.0232L65.7469 42.1442L65.7574 42.2652L67.2518 42.136ZM67.4781 44.7523L68.9781 44.7437L68.9777 44.6833L68.9725 44.6231L67.4781 44.7523ZM67.4933 47.3923L68.9933 47.4062L68.9934 47.3949L68.9933 47.3836L67.4933 47.3923ZM67.4687 50.032L65.9688 50.018L65.9684 50.059L65.9702 50.1L67.4687 50.032ZM67.5884 52.672L69.0849 52.7745L69.0907 52.6893L69.0869 52.6041L67.5884 52.672ZM67.4076 55.3119L65.9111 55.2094L65.9081 55.2532L65.9077 55.2972L67.4076 55.3119ZM67.3818 57.9519L68.8805 58.0145L68.8815 57.9905L68.8817 57.9665L67.3818 57.9519ZM67.2714 60.5917L65.7727 60.529L65.7703 60.5867L65.7724 60.6444L67.2714 60.5917ZM67.3643 63.2318L65.8652 63.2845L65.8691 63.3966L65.8897 63.5069L67.3643 63.2318ZM67.8257 65.7054L66.3511 65.9804L66.5124 66.8448L67.3454 67.1264L67.8257 65.7054ZM70.1195 66.4807L69.6392 67.9017L69.6465 67.9041L70.1195 66.4807ZM72.645 67.32L73.3698 66.0067L73.249 65.94L73.118 65.8965L72.645 67.32ZM67.3945 28.9882L65.8948 28.9576L65.8928 29.0576L67.3925 29.0882L68.8922 29.1188L68.8942 29.0189L67.3945 28.9882ZM67.3925 29.0882L65.9088 28.8676L65.5329 31.3952L67.0166 31.6158L68.5003 31.8365L68.8762 29.3088L67.3925 29.0882ZM67.0166 31.6158L65.5185 31.6915L65.6523 34.3377L67.1504 34.2619L68.6484 34.1862L68.5147 31.5401L67.0166 31.6158ZM67.1504 34.2619L65.6567 34.3998L65.8999 37.0353L67.3936 36.8974L68.8872 36.7595L68.644 34.1241L67.1504 34.2619ZM67.3936 36.8974L65.8939 36.9272L65.9468 39.585L67.4465 39.5552L68.9462 39.5253L68.8933 36.8676L67.3936 36.8974ZM67.4465 39.5552L65.9507 39.4423L65.756 42.0232L67.2518 42.136L68.7475 42.2488L68.9422 39.668L67.4465 39.5552ZM67.2518 42.136L65.7574 42.2652L65.9837 44.8816L67.4781 44.7523L68.9725 44.6231L68.7462 42.0067L67.2518 42.136ZM67.4781 44.7523L65.9781 44.761L65.9933 47.4009L67.4933 47.3923L68.9933 47.3836L68.9781 44.7437L67.4781 44.7523ZM67.4933 47.3923L65.9934 47.3783L65.9688 50.018L67.4687 50.032L68.9686 50.046L68.9933 47.4062L67.4933 47.3923ZM67.4687 50.032L65.9702 50.1L66.09 52.7399L67.5884 52.672L69.0869 52.6041L68.9672 49.9641L67.4687 50.032ZM67.5884 52.672L66.0919 52.5695L65.9111 55.2094L67.4076 55.3119L68.9041 55.4144L69.0849 52.7745L67.5884 52.672ZM67.4076 55.3119L65.9077 55.2972L65.8818 57.9372L67.3818 57.9519L68.8817 57.9665L68.9075 55.3265L67.4076 55.3119ZM67.3818 57.9519L65.8831 57.8892L65.7727 60.529L67.2714 60.5917L68.7701 60.6543L68.8805 58.0145L67.3818 57.9519ZM67.2714 60.5917L65.7724 60.6444L65.8652 63.2845L67.3643 63.2318L68.8633 63.1791L68.7705 60.539L67.2714 60.5917ZM67.3643 63.2318L65.8897 63.5069L66.3511 65.9804L67.8257 65.7054L69.3003 65.4303L68.8388 62.9567L67.3643 63.2318ZM67.8257 65.7054L67.3454 67.1264L69.6392 67.9017L70.1195 66.4807L70.5998 65.0596L68.306 64.2843L67.8257 65.7054ZM70.1195 66.4807L69.6465 67.9041L72.1719 68.7434L72.645 67.32L73.118 65.8965L70.5926 65.0572L70.1195 66.4807ZM72.645 67.32L71.9201 68.6332L72.9251 69.1879L73.6499 67.8747L74.3748 66.5615L73.3698 66.0067L72.645 67.32Z" fill="black"/>
<path d="M39.7997 115.9L38.3092 115.732L38.3045 115.773L38.3022 115.814L39.7997 115.9ZM40.0851 113.372L41.5756 113.54L41.5841 113.464L41.585 113.388L40.0851 113.372ZM40.1144 110.731L41.6144 110.748L41.6144 110.734L40.1144 110.731ZM40.1199 108.085L38.6227 107.994L38.62 108.038L38.6199 108.082L40.1199 108.085ZM40.2809 105.451L38.8003 105.21L38.7882 105.285L38.7837 105.36L40.2809 105.451ZM40.7073 102.829L39.2689 102.403L39.242 102.494L39.2267 102.588L40.7073 102.829ZM41.4038 100.474L41.3186 98.9765L40.2648 99.0364L39.9654 100.049L41.4038 100.474ZM44.0484 100.324L44.0904 98.8242L44.0268 98.8224L43.9632 98.8261L44.0484 100.324ZM46.6868 100.398L46.6448 101.897L46.6895 101.898L46.7343 101.897L46.6868 100.398ZM49.3275 100.314L49.4435 98.8185L49.3619 98.8122L49.2801 98.8148L49.3275 100.314ZM51.9652 100.519L51.8493 102.014L51.8964 102.018L51.9437 102.018L51.9652 100.519ZM54.605 100.556L54.6683 99.0577L54.6474 99.0568L54.6265 99.0565L54.605 100.556ZM57.2451 100.668L57.1819 102.166L57.2424 102.169L57.303 102.167L57.2451 100.668ZM59.8851 100.566L59.943 102.065L59.9819 102.063L60.0206 102.06L59.8851 100.566ZM62.5245 100.326L62.5452 98.8265L62.4669 98.8254L62.389 98.8325L62.5245 100.326ZM65.1646 100.363L65.1439 101.863L65.158 101.863L65.1646 100.363ZM67.8049 100.375L67.8383 98.8749L67.8249 98.8746L67.8116 98.8746L67.8049 100.375ZM70.4452 100.433L70.4118 101.933L70.4416 101.934L70.4715 101.933L70.4452 100.433ZM73.0858 100.387L73.1969 98.8912L73.1283 98.8861L73.0596 98.8873L73.0858 100.387ZM75.7407 100.584L75.6295 102.08L75.7169 102.087L75.8044 102.083L75.7407 100.584ZM78.3342 100.474L79.3544 99.3743L78.8956 98.9487L78.2705 98.9753L78.3342 100.474ZM80.1143 102.125L81.6124 102.201L81.6476 101.502L81.1344 101.026L80.1143 102.125ZM79.9807 104.779L78.4826 104.703L78.4761 104.832L78.4917 104.96L79.9807 104.779ZM80.3007 107.404L81.8007 107.401L81.8006 107.312L81.7897 107.223L80.3007 107.404ZM80.3056 110.047L78.8056 110.05L78.8058 110.165L78.8233 110.277L80.3056 110.047ZM80.7133 112.676L82.2041 112.842L82.2262 112.643L82.1956 112.446L80.7133 112.676ZM80.4151 115.347L78.9244 115.18L78.8842 115.54L79.0127 115.879L80.4151 115.347ZM39.7939 116L41.2915 116.086L41.2972 115.986L39.7997 115.9L38.3022 115.814L38.2964 115.914L39.7939 116ZM39.7997 115.9L41.2902 116.068L41.5756 113.54L40.0851 113.372L38.5945 113.203L38.3092 115.732L39.7997 115.9ZM40.0851 113.372L41.585 113.388L41.6143 110.748L40.1144 110.731L38.6145 110.714L38.5852 113.355L40.0851 113.372ZM40.1144 110.731L41.6144 110.734L41.6199 108.088L40.1199 108.085L38.6199 108.082L38.6144 110.728L40.1144 110.731ZM40.1199 108.085L41.6171 108.177L41.7781 105.543L40.2809 105.451L38.7837 105.36L38.6227 107.994L40.1199 108.085ZM40.2809 105.451L41.7614 105.692L42.1878 103.07L40.7073 102.829L39.2267 102.588L38.8003 105.21L40.2809 105.451ZM40.7073 102.829L42.1457 103.254L42.8422 100.9L41.4038 100.474L39.9654 100.049L39.2689 102.403L40.7073 102.829ZM41.4038 100.474L41.489 101.972L44.1336 101.821L44.0484 100.324L43.9632 98.8261L41.3186 98.9765L41.4038 100.474ZM44.0484 100.324L44.0064 101.823L46.6448 101.897L46.6868 100.398L46.7288 98.8982L44.0904 98.8242L44.0484 100.324ZM46.6868 100.398L46.7343 101.897L49.375 101.813L49.3275 100.314L49.2801 98.8148L46.6394 98.8984L46.6868 100.398ZM49.3275 100.314L49.2116 101.81L51.8493 102.014L51.9652 100.519L52.0811 99.023L49.4435 98.8185L49.3275 100.314ZM51.9652 100.519L51.9437 102.018L54.5836 102.056L54.605 100.556L54.6265 99.0565L51.9867 99.0187L51.9652 100.519ZM54.605 100.556L54.5418 102.055L57.1819 102.166L57.2451 100.668L57.3083 99.1691L54.6683 99.0577L54.605 100.556ZM57.2451 100.668L57.303 102.167L59.943 102.065L59.8851 100.566L59.8272 99.0669L57.1872 99.1688L57.2451 100.668ZM59.8851 100.566L60.0206 102.06L62.66 101.82L62.5245 100.326L62.389 98.8325L59.7496 99.0719L59.8851 100.566ZM62.5245 100.326L62.5038 101.826L65.1439 101.863L65.1646 100.363L65.1854 98.863L62.5452 98.8265L62.5245 100.326ZM65.1646 100.363L65.158 101.863L67.7982 101.875L67.8049 100.375L67.8116 98.8746L65.1713 98.8629L65.1646 100.363ZM67.8049 100.375L67.7715 101.874L70.4118 101.933L70.4452 100.433L70.4786 98.9337L67.8383 98.8749L67.8049 100.375ZM70.4452 100.433L70.4715 101.933L73.1121 101.887L73.0858 100.387L73.0596 98.8873L70.4189 98.9335L70.4452 100.433ZM73.0858 100.387L72.9747 101.883L75.6295 102.08L75.7407 100.584L75.8518 99.0884L73.1969 98.8912L73.0858 100.387ZM75.7407 100.584L75.8044 102.083L78.3979 101.973L78.3342 100.474L78.2705 98.9753L75.6769 99.0856L75.7407 100.584ZM78.3342 100.474L77.314 101.574L79.0941 103.225L80.1143 102.125L81.1344 101.026L79.3544 99.3743L78.3342 100.474ZM80.1143 102.125L78.6162 102.05L78.4826 104.703L79.9807 104.779L81.4788 104.854L81.6124 102.201L80.1143 102.125ZM79.9807 104.779L78.4917 104.96L78.8118 107.586L80.3007 107.404L81.7897 107.223L81.4697 104.597L79.9807 104.779ZM80.3007 107.404L78.8007 107.407L78.8056 110.05L80.3056 110.047L81.8056 110.045L81.8007 107.401L80.3007 107.404ZM80.3056 110.047L78.8233 110.277L79.231 112.906L80.7133 112.676L82.1956 112.446L81.7879 109.818L80.3056 110.047ZM80.7133 112.676L79.2226 112.509L78.9244 115.18L80.4151 115.347L81.9058 115.513L82.2041 112.842L80.7133 112.676ZM80.4151 115.347L79.0127 115.879L79.2605 116.532L80.663 116L82.0654 115.468L81.8175 114.815L80.4151 115.347Z" fill="black"/>
<path d="M55.5975 27.3748L56.4416 26.1349L55.8919 25.7607L55.2455 25.9167L55.5975 27.3748ZM57.7443 28.8362L56.9002 30.0761L57.1985 30.2792L57.5565 30.3244L57.7443 28.8362ZM60.3943 29.1705L60.2065 30.6587L60.6729 30.7175L61.0894 30.4997L60.3943 29.1705ZM62.6916 27.9691L63.3867 29.2984L63.5124 29.2326L63.6235 29.1445L62.6916 27.9691ZM64.5236 26.5166L65.4555 27.6919L65.8365 27.3898L65.9678 26.9217L64.5236 26.5166ZM65.2416 23.9569L66.6858 24.362L66.7507 24.1306L66.7401 23.8905L65.2416 23.9569ZM65.1241 21.3051L66.6227 21.2387L66.6188 21.1517L66.6049 21.0657L65.1241 21.3051ZM64.7089 18.7365L66.1897 18.4971L66.1184 18.0564L65.8178 17.7263L64.7089 18.7365ZM62.9891 16.8486L64.098 15.8384L63.8017 15.5132L63.3767 15.3995L62.9891 16.8486ZM60.5427 16.1942L60.9303 14.7452L60.6133 14.6604L60.2898 14.7157L60.5427 16.1942ZM58.0284 16.6243L57.7755 15.1457L57.1208 15.2577L56.7637 15.8177L58.0284 16.6243ZM56.6336 18.8111L55.369 18.0045L55.2411 18.205L55.1815 18.4352L56.6336 18.8111ZM55.9695 21.3766L54.5173 21.0006L54.4777 21.1538L54.4709 21.312L55.9695 21.3766ZM55.8555 24.0218L54.3568 23.9572L54.3546 24.0082L54.3559 24.0592L55.8555 24.0218ZM55.9222 26.6971L56.5896 28.0405L57.4456 27.6152L57.4217 26.6597L55.9222 26.6971ZM53.5971 27.8523L53.6053 29.3523L53.9531 29.3504L54.2645 29.1956L53.5971 27.8523ZM50.9645 27.8667L50.9563 26.3667L50.9302 26.3668L50.9042 26.3679L50.9645 27.8667ZM48.3317 27.9726L48.2714 26.4739L48.2114 26.4763L48.1518 26.4835L48.3317 27.9726ZM45.7139 28.2889L45.6701 29.7882L45.7823 29.7915L45.8938 29.778L45.7139 28.2889ZM43.0618 28.2114L43.1056 26.712L43.0259 26.7097L42.9463 26.7158L43.0618 28.2114ZM40.4316 28.4144L40.3161 26.9188L40.2336 26.9252L40.1523 26.9406L40.4316 28.4144ZM37.8103 28.9112L37.7048 30.4075L37.8986 30.4211L38.0896 30.3849L37.8103 28.9112ZM35.1573 28.724L35.2629 27.2277L35.0716 27.2142L34.8832 27.2493L35.1573 28.724ZM32.5557 29.2077L32.4855 30.706L32.659 30.7142L32.8299 30.6824L32.5557 29.2077ZM29.912 29.0837L29.9823 27.5853L29.7186 27.573L29.4666 27.6513L29.912 29.0837ZM27.4078 29.8624L26.9295 31.2841L27.3896 31.4389L27.8533 31.2948L27.4078 29.8624ZM24.8483 29.0011L25.3267 27.5795L25.2637 27.5583L25.199 27.5427L24.8483 29.0011ZM22.2609 28.379L22.6116 26.9205L22.4866 26.8905L22.3583 26.8821L22.2609 28.379ZM19.6187 28.207L19.7161 26.7102L19.522 26.6976L19.3311 26.7349L19.6187 28.207ZM17.0311 28.7126L16.7435 27.2404L15.8494 27.4151L15.5922 28.289L17.0311 28.7126ZM16.4492 30.6897L15.0102 30.2661L14.7309 31.2151L15.4932 31.8456L16.4492 30.6897ZM18.4397 32.3358L17.4837 33.4917L17.629 33.6119L17.7995 33.6924L18.4397 32.3358ZM20.8547 33.4755L20.2146 34.832L20.5788 35.0039L20.9802 34.9702L20.8547 33.4755ZM23.537 33.2504L23.7172 31.7612L23.5646 31.7428L23.4115 31.7556L23.537 33.2504ZM26.1631 33.5682L25.9829 35.0573L26.2582 35.0906L26.5272 35.0233L26.1631 33.5682ZM28.138 33.0741L28.5021 34.5292L30.3027 34.0787L29.4843 32.4127L28.138 33.0741ZM55.5003 27.3983L55.8524 28.8564L55.9496 28.833L55.5975 27.3748L55.2455 25.9167L55.1483 25.9402L55.5003 27.3983ZM55.5975 27.3748L54.7535 28.6148L56.9002 30.0761L57.7443 28.8362L58.5884 27.5962L56.4416 26.1349L55.5975 27.3748ZM57.7443 28.8362L57.5565 30.3244L60.2065 30.6587L60.3943 29.1705L60.5821 27.6823L57.9321 27.3479L57.7443 28.8362ZM60.3943 29.1705L61.0894 30.4997L63.3867 29.2984L62.6916 27.9691L61.9964 26.6399L59.6992 27.8413L60.3943 29.1705ZM62.6916 27.9691L63.6235 29.1445L65.4555 27.6919L64.5236 26.5166L63.5916 25.3412L61.7596 26.7938L62.6916 27.9691ZM64.5236 26.5166L65.9678 26.9217L66.6858 24.362L65.2416 23.9569L63.7973 23.5518L63.0793 26.1114L64.5236 26.5166ZM65.2416 23.9569L66.7401 23.8905L66.6227 21.2387L65.1241 21.3051L63.6256 21.3714L63.743 24.0232L65.2416 23.9569ZM65.1241 21.3051L66.6049 21.0657L66.1897 18.4971L64.7089 18.7365L63.2281 18.9759L63.6433 21.5444L65.1241 21.3051ZM64.7089 18.7365L65.8178 17.7263L64.098 15.8384L62.9891 16.8486L61.8802 17.8587L63.6 19.7466L64.7089 18.7365ZM62.9891 16.8486L63.3767 15.3995L60.9303 14.7452L60.5427 16.1942L60.1551 17.6433L62.6015 18.2976L62.9891 16.8486ZM60.5427 16.1942L60.2898 14.7157L57.7755 15.1457L58.0284 16.6243L58.2813 18.1028L60.7956 17.6727L60.5427 16.1942ZM58.0284 16.6243L56.7637 15.8177L55.369 18.0045L56.6336 18.8111L57.8983 19.6177L59.2931 17.4309L58.0284 16.6243ZM56.6336 18.8111L55.1815 18.4352L54.5173 21.0006L55.9695 21.3766L57.4216 21.7525L58.0858 19.187L56.6336 18.8111ZM55.9695 21.3766L54.4709 21.312L54.3568 23.9572L55.8555 24.0218L57.3541 24.0864L57.4681 21.4411L55.9695 21.3766ZM55.8555 24.0218L54.3559 24.0592L54.4227 26.7345L55.9222 26.6971L57.4217 26.6597L57.355 23.9844L55.8555 24.0218ZM55.9222 26.6971L55.2548 25.3538L52.9297 26.509L53.5971 27.8523L54.2645 29.1956L56.5896 28.0405L55.9222 26.6971ZM53.5971 27.8523L53.5889 26.3523L50.9563 26.3667L50.9645 27.8667L50.9727 29.3666L53.6053 29.3523L53.5971 27.8523ZM50.9645 27.8667L50.9042 26.3679L48.2714 26.4739L48.3317 27.9726L48.392 29.4714L51.0248 29.3654L50.9645 27.8667ZM48.3317 27.9726L48.1518 26.4835L45.534 26.7997L45.7139 28.2889L45.8938 29.778L48.5116 29.4618L48.3317 27.9726ZM45.7139 28.2889L45.7577 26.7895L43.1056 26.712L43.0618 28.2114L43.018 29.7107L45.6701 29.7882L45.7139 28.2889ZM43.0618 28.2114L42.9463 26.7158L40.3161 26.9188L40.4316 28.4144L40.547 29.9099L43.1772 29.7069L43.0618 28.2114ZM40.4316 28.4144L40.1523 26.9406L37.531 27.4374L37.8103 28.9112L38.0896 30.3849L40.7109 29.8882L40.4316 28.4144ZM37.8103 28.9112L37.9159 27.4149L35.2629 27.2277L35.1573 28.724L35.0518 30.2203L37.7048 30.4075L37.8103 28.9112ZM35.1573 28.724L34.8832 27.2493L32.2816 27.7329L32.5557 29.2077L32.8299 30.6824L35.4315 30.1987L35.1573 28.724ZM32.5557 29.2077L32.626 27.7093L29.9823 27.5853L29.912 29.0837L29.8417 30.582L32.4855 30.706L32.5557 29.2077ZM29.912 29.0837L29.4666 27.6513L26.9624 28.4301L27.4078 29.8624L27.8533 31.2948L30.3574 30.516L29.912 29.0837ZM27.4078 29.8624L27.8862 28.4407L25.3267 27.5795L24.8483 29.0011L24.3699 30.4228L26.9295 31.2841L27.4078 29.8624ZM24.8483 29.0011L25.199 27.5427L22.6116 26.9205L22.2609 28.379L21.9102 29.8374L24.4976 30.4596L24.8483 29.0011ZM22.2609 28.379L22.3583 26.8821L19.7161 26.7102L19.6187 28.207L19.5213 29.7039L22.1635 29.8758L22.2609 28.379ZM19.6187 28.207L19.3311 26.7349L16.7435 27.2404L17.0311 28.7126L17.3188 30.1847L19.9063 29.6792L19.6187 28.207ZM17.0311 28.7126L15.5922 28.289L15.0102 30.2661L16.4492 30.6897L17.8881 31.1132L18.4701 29.1361L17.0311 28.7126ZM16.4492 30.6897L15.4932 31.8456L17.4837 33.4917L18.4397 32.3358L19.3956 31.1799L17.4051 29.5337L16.4492 30.6897ZM18.4397 32.3358L17.7995 33.6924L20.2146 34.832L20.8547 33.4755L21.4949 32.1189L19.0798 30.9793L18.4397 32.3358ZM20.8547 33.4755L20.9802 34.9702L23.6624 34.7451L23.537 33.2504L23.4115 31.7556L20.7293 31.9807L20.8547 33.4755ZM23.537 33.2504L23.3568 34.7395L25.9829 35.0573L26.1631 33.5682L26.3433 32.079L23.7172 31.7612L23.537 33.2504ZM26.1631 33.5682L26.5272 35.0233L28.5021 34.5292L28.138 33.0741L27.7739 31.6189L25.799 32.113L26.1631 33.5682ZM28.138 33.0741L29.4843 32.4127L29.3943 32.2294L28.0479 32.8908L26.7016 33.5521L26.7916 33.7354L28.138 33.0741Z" fill="black"/>
<path d="M72.8905 30.2442L74.3881 30.3294L74.3934 30.2365L74.3871 30.1437L72.8905 30.2442ZM72.7455 32.7928L71.248 32.7077L71.2406 32.8371L71.2556 32.9659L72.7455 32.7928ZM73.0511 35.4229L71.5611 35.596L71.5648 35.6279L71.5699 35.6597L73.0511 35.4229ZM73.4688 38.0356L74.9616 37.8885L74.9571 37.8435L74.95 37.7988L73.4688 38.0356ZM73.7279 40.6641L75.2242 40.7691L75.233 40.6429L75.2206 40.517L73.7279 40.6641ZM73.5421 43.3133L72.0457 43.2083L72.0372 43.3302L72.0485 43.4519L73.5421 43.3133ZM73.7869 45.9507L75.2854 45.8834L75.2838 45.8476L75.2805 45.812L73.7869 45.9507ZM73.9053 48.5863L75.4039 48.5212L75.4038 48.519L73.9053 48.5863ZM74.02 51.2233L72.5214 51.2885L72.523 51.3268L72.5267 51.365L74.02 51.2233ZM74.2698 53.8559L75.7687 53.9152L75.7726 53.8145L75.7631 53.7142L74.2698 53.8559ZM74.1651 56.5026L72.6663 56.4433L72.6656 56.4594L72.6654 56.4755L74.1651 56.5026ZM74.1175 59.1422L72.6177 59.1152L72.6175 59.1271L72.6175 59.139L74.1175 59.1422ZM74.1118 61.7904L72.6118 61.7871L72.6115 61.8937L72.6264 61.9993L74.1118 61.7904ZM74.4792 64.4028L75.9777 64.4693L75.9838 64.331L75.9646 64.1939L74.4792 64.4028ZM74.3613 67.0606L75.824 67.3932L75.8539 67.2617L75.8599 67.1271L74.3613 67.0606ZM73.7795 69.6198L72.3169 69.2872L72.2876 69.4157L72.2813 69.5473L73.7795 69.6198ZM73.6532 72.2311L72.1549 72.1586L72.1538 72.1826L72.1534 72.2066L73.6532 72.2311ZM73.61 74.8761L74.9889 75.4666L75.105 75.1955L75.1098 74.9006L73.61 74.8761ZM72.5838 77.2724L73.6287 78.3485L73.8444 78.1391L73.9627 77.8629L72.5838 77.2724ZM70.8366 78.969L69.7916 77.8928L69.2943 78.3758L69.3398 79.0675L70.8366 78.969ZM71.0105 81.6123L69.5138 81.7109L69.5154 81.7363L69.518 81.7616L71.0105 81.6123ZM71.2747 84.254L72.7642 84.4313L72.7836 84.2682L72.7673 84.1047L71.2747 84.254ZM70.9606 86.8921L69.4711 86.7148L69.4546 86.8532L69.4639 86.9923L70.9606 86.8921ZM71.1372 89.5309L72.6369 89.5598L72.6382 89.4952L72.6338 89.4307L71.1372 89.5309ZM71.0863 92.1736L69.5866 92.1447L69.5842 92.2695L69.6024 92.393L71.0863 92.1736ZM71.4764 94.8119L72.8826 95.3342L73.0166 94.9733L72.9603 94.5925L71.4764 94.8119ZM70.9615 96.1983L69.5554 95.676L68.8043 97.6983H70.9615V96.1983ZM72.8838 30.1445L71.3872 30.2451L71.3939 30.3448L72.8905 30.2442L74.3871 30.1437L74.3804 30.0439L72.8838 30.1445ZM72.8905 30.2442L71.3929 30.1591L71.248 32.7077L72.7455 32.7928L74.2431 32.878L74.3881 30.3294L72.8905 30.2442ZM72.7455 32.7928L71.2556 32.9659L71.5611 35.596L73.0511 35.4229L74.541 35.2498L74.2355 32.6197L72.7455 32.7928ZM73.0511 35.4229L71.5699 35.6597L71.9876 38.2725L73.4688 38.0356L74.95 37.7988L74.5323 35.1861L73.0511 35.4229ZM73.4688 38.0356L71.9761 38.1827L72.2351 40.8112L73.7279 40.6641L75.2206 40.517L74.9616 37.8885L73.4688 38.0356ZM73.7279 40.6641L72.2315 40.5592L72.0457 43.2083L73.5421 43.3133L75.0384 43.4182L75.2242 40.7691L73.7279 40.6641ZM73.5421 43.3133L72.0485 43.4519L72.2934 46.0894L73.7869 45.9507L75.2805 45.812L75.0356 43.1746L73.5421 43.3133ZM73.7869 45.9507L72.2884 46.018L72.4068 48.6536L73.9053 48.5863L75.4038 48.519L75.2854 45.8834L73.7869 45.9507ZM73.9053 48.5863L72.4067 48.6515L72.5214 51.2885L74.02 51.2233L75.5185 51.1581L75.4039 48.5212L73.9053 48.5863ZM74.02 51.2233L72.5267 51.365L72.7765 53.9976L74.2698 53.8559L75.7631 53.7142L75.5132 51.0815L74.02 51.2233ZM74.2698 53.8559L72.771 53.7966L72.6663 56.4433L74.1651 56.5026L75.6639 56.5619L75.7687 53.9152L74.2698 53.8559ZM74.1651 56.5026L72.6654 56.4755L72.6177 59.1152L74.1175 59.1422L75.6172 59.1693L75.6649 56.5296L74.1651 56.5026ZM74.1175 59.1422L72.6175 59.139L72.6118 61.7871L74.1118 61.7904L75.6118 61.7936L75.6175 59.1455L74.1175 59.1422ZM74.1118 61.7904L72.6264 61.9993L72.9938 64.6117L74.4792 64.4028L75.9646 64.1939L75.5971 61.5815L74.1118 61.7904ZM74.4792 64.4028L72.9806 64.3364L72.8628 66.9942L74.3613 67.0606L75.8599 67.1271L75.9777 64.4693L74.4792 64.4028ZM74.3613 67.0606L72.8987 66.7281L72.3169 69.2872L73.7795 69.6198L75.2422 69.9523L75.824 67.3932L74.3613 67.0606ZM73.7795 69.6198L72.2813 69.5473L72.1549 72.1586L73.6532 72.2311L75.1514 72.3036L75.2778 69.6923L73.7795 69.6198ZM73.6532 72.2311L72.1534 72.2066L72.1102 74.8516L73.61 74.8761L75.1098 74.9006L75.153 72.2556L73.6532 72.2311ZM73.61 74.8761L72.2311 74.2856L71.2049 76.6819L72.5838 77.2724L73.9627 77.8629L74.9889 75.4666L73.61 74.8761ZM72.5838 77.2724L71.5388 76.1962L69.7916 77.8928L70.8366 78.969L71.8815 80.0451L73.6287 78.3485L72.5838 77.2724ZM70.8366 78.969L69.3398 79.0675L69.5138 81.7109L71.0105 81.6123L72.5073 81.5138L72.3333 78.8704L70.8366 78.969ZM71.0105 81.6123L69.518 81.7616L69.7822 84.4032L71.2747 84.254L72.7673 84.1047L72.5031 81.4631L71.0105 81.6123ZM71.2747 84.254L69.7852 84.0766L69.4711 86.7148L70.9606 86.8921L72.4501 87.0695L72.7642 84.4313L71.2747 84.254ZM70.9606 86.8921L69.4639 86.9923L69.6405 89.6311L71.1372 89.5309L72.6338 89.4307L72.4572 86.792L70.9606 86.8921ZM71.1372 89.5309L69.6375 89.502L69.5866 92.1447L71.0863 92.1736L72.586 92.2024L72.6369 89.5598L71.1372 89.5309ZM71.0863 92.1736L69.6024 92.393L69.9926 95.0314L71.4764 94.8119L72.9603 94.5925L72.5702 91.9542L71.0863 92.1736ZM71.4764 94.8119L70.0703 94.2897L69.5554 95.676L70.9615 96.1983L72.3677 96.7205L72.8826 95.3342L71.4764 94.8119ZM70.9615 96.1983V97.6983H71.2094V96.1983V94.6983H70.9615V96.1983Z" fill="black"/>
<path d="M42.3099 29.0537L43.7308 28.5732L43.6003 28.1873L43.2926 27.9205L42.3099 29.0537ZM43.1147 31.4333L41.6938 31.9138L41.8428 32.3546L42.2151 32.6336L43.1147 31.4333ZM45.2395 33.0257L44.3399 34.226L44.3946 34.267L44.4528 34.3028L45.2395 33.0257ZM47.4904 34.4122L46.7037 35.6894L46.7108 35.6938L46.718 35.6981L47.4904 34.4122ZM49.7457 35.7671L50.5718 34.5151L50.5453 34.4976L50.5182 34.4813L49.7457 35.7671ZM51.9635 37.2304L51.1374 38.4824L51.3055 38.5933L51.4968 38.6559L51.9635 37.2304ZM54.4849 38.0559L54.9579 36.6324L54.9516 36.6304L54.4849 38.0559ZM56.9851 38.8867L56.512 40.3102L56.5471 40.3218L56.5827 40.3317L56.9851 38.8867ZM59.5231 39.5933L59.1208 41.0384L59.208 41.0626L59.2974 41.0763L59.5231 39.5933ZM62.1246 39.9892L62.3775 38.5107L62.3639 38.5084L62.3503 38.5063L62.1246 39.9892ZM64.7203 40.4332L64.4675 41.9117L64.5989 41.9342L64.7323 41.9331L64.7203 40.4332ZM67.019 40.4148L67.0309 41.9148L68.6491 41.9019L68.5137 40.2894L67.019 40.4148ZM42.2344 28.9882L41.2516 30.1215L41.3272 30.187L42.3099 29.0537L43.2926 27.9205L43.2171 27.855L42.2344 28.9882ZM42.3099 29.0537L40.889 29.5343L41.6938 31.9138L43.1147 31.4333L44.5356 30.9527L43.7308 28.5732L42.3099 29.0537ZM43.1147 31.4333L42.2151 32.6336L44.3399 34.226L45.2395 33.0257L46.1391 31.8254L44.0143 30.2329L43.1147 31.4333ZM45.2395 33.0257L44.4528 34.3028L46.7037 35.6894L47.4904 34.4122L48.2771 33.1351L46.0262 31.7486L45.2395 33.0257ZM47.4904 34.4122L46.718 35.6981L48.9733 37.0529L49.7457 35.7671L50.5182 34.4813L48.2629 33.1264L47.4904 34.4122ZM49.7457 35.7671L48.9197 37.0191L51.1374 38.4824L51.9635 37.2304L52.7896 35.9783L50.5718 34.5151L49.7457 35.7671ZM51.9635 37.2304L51.4968 38.6559L54.0182 39.4814L54.4849 38.0559L54.9516 36.6304L52.4303 35.8048L51.9635 37.2304ZM54.4849 38.0559L54.0119 39.4794L56.512 40.3102L56.9851 38.8867L57.4581 37.4632L54.9579 36.6324L54.4849 38.0559ZM56.9851 38.8867L56.5827 40.3317L59.1208 41.0384L59.5231 39.5933L59.9254 38.1483L57.3874 37.4417L56.9851 38.8867ZM59.5231 39.5933L59.2974 41.0763L61.899 41.4721L62.1246 39.9892L62.3503 38.5063L59.7488 38.1104L59.5231 39.5933ZM62.1246 39.9892L61.8718 41.4678L64.4675 41.9117L64.7203 40.4332L64.9732 38.9546L62.3775 38.5107L62.1246 39.9892ZM64.7203 40.4332L64.7323 41.9331L67.0309 41.9148L67.019 40.4148L67.007 38.9149L64.7084 38.9332L64.7203 40.4332ZM67.019 40.4148L68.5137 40.2894L68.5128 40.2783L67.0181 40.4038L65.5233 40.5293L65.5242 40.5403L67.019 40.4148Z" fill="black"/>
<path d="M61.4697 73.0277L62.9186 73.4155L62.9634 73.2482L62.9689 73.0751L61.4697 73.0277ZM60.8102 75.4914L59.3612 75.1035L59.3007 75.3297L59.3119 75.5635L60.8102 75.4914ZM60.9373 78.1328L59.4391 78.2049L59.4401 78.2261L59.4417 78.2472L60.9373 78.1328ZM61.139 80.7709L62.6387 80.74L62.6378 80.6982L62.6346 80.6565L61.139 80.7709ZM61.1933 83.4099L62.6869 83.5483L62.6948 83.4638L62.693 83.379L61.1933 83.4099ZM60.9484 86.0545L59.4548 85.9162L59.4413 86.0614L59.4561 86.2065L60.9484 86.0545ZM61.2168 88.6905L62.7165 88.6577L62.7151 88.598L62.7091 88.5385L61.2168 88.6905ZM61.2745 91.3305L62.7745 91.3378L62.7746 91.3178L62.7742 91.2978L61.2745 91.3305ZM61.2617 93.9714L59.7617 93.9641L59.7615 94.0015L59.7632 94.0388L61.2617 93.9714ZM61.362 96.2015L61.3373 97.7013L62.9322 97.7276L62.8605 96.1341L61.362 96.2015ZM61.4728 72.9277L59.9736 72.8803L59.9704 72.9803L61.4697 73.0277L62.9689 73.0751L62.9721 72.9751L61.4728 72.9277ZM61.4697 73.0277L60.0207 72.6398L59.3612 75.1035L60.8102 75.4914L62.2592 75.8792L62.9186 73.4155L61.4697 73.0277ZM60.8102 75.4914L59.3119 75.5635L59.4391 78.2049L60.9373 78.1328L62.4356 78.0607L62.3085 75.4193L60.8102 75.4914ZM60.9373 78.1328L59.4417 78.2472L59.6434 80.8852L61.139 80.7709L62.6346 80.6565L62.433 78.0185L60.9373 78.1328ZM61.139 80.7709L59.6393 80.8018L59.6936 83.4408L61.1933 83.4099L62.693 83.379L62.6387 80.74L61.139 80.7709ZM61.1933 83.4099L59.6997 83.2716L59.4548 85.9162L60.9484 86.0545L62.442 86.1929L62.6869 83.5483L61.1933 83.4099ZM60.9484 86.0545L59.4561 86.2065L59.7245 88.8424L61.2168 88.6905L62.7091 88.5385L62.4407 85.9026L60.9484 86.0545ZM61.2168 88.6905L59.7172 88.7233L59.7749 91.3633L61.2745 91.3305L62.7742 91.2978L62.7165 88.6577L61.2168 88.6905ZM61.2745 91.3305L59.7745 91.3232L59.7617 93.9641L61.2617 93.9714L62.7616 93.9787L62.7745 91.3378L61.2745 91.3305ZM61.2617 93.9714L59.7632 94.0388L59.8635 96.269L61.362 96.2015L62.8605 96.1341L62.7601 93.904L61.2617 93.9714ZM61.362 96.2015L61.3867 94.7017L61.1925 94.6985L61.1678 96.1983L61.1431 97.6981L61.3373 97.7013L61.362 96.2015Z" fill="black"/>
<path d="M66.4512 75.0512L67.9142 75.3821L67.9468 75.2378L67.9507 75.0899L66.4512 75.0512ZM65.894 77.5148L64.431 77.184L64.3816 77.4021L64.3981 77.6251L65.894 77.5148ZM66.0866 80.1282L67.5835 80.0309L67.5826 80.0179L66.0866 80.1282ZM66.2582 82.7685L67.7582 82.762L67.758 82.7165L67.755 82.6712L66.2582 82.7685ZM66.2696 85.4084L67.7605 85.5731L67.7699 85.4878L67.7696 85.4019L66.2696 85.4084ZM65.9779 88.0483L64.487 87.8836L64.4708 88.0301L64.4835 88.1769L65.9779 88.0483ZM66.2051 90.6883L67.705 90.6708L67.7043 90.6151L67.6996 90.5597L66.2051 90.6883ZM66.236 93.3283L67.736 93.3374L67.736 93.3241L67.7359 93.3107L66.236 93.3283ZM66.2199 95.9683L67.6529 96.4116L67.7185 96.1995L67.7199 95.9775L66.2199 95.9683ZM66.4537 74.9512L64.9542 74.9125L64.9517 75.0125L66.4512 75.0512L67.9507 75.0899L67.9532 74.99L66.4537 74.9512ZM66.4512 75.0512L64.9881 74.7203L64.431 77.184L65.894 77.5148L67.3571 77.8457L67.9142 75.3821L66.4512 75.0512ZM65.894 77.5148L64.3981 77.6251L64.5907 80.2384L66.0866 80.1282L67.5826 80.0179L67.39 77.4046L65.894 77.5148ZM66.0866 80.1282L64.5898 80.2255L64.7613 82.8657L66.2582 82.7685L67.755 82.6712L67.5835 80.0309L66.0866 80.1282ZM66.2582 82.7685L64.7582 82.7749L64.7696 85.4149L66.2696 85.4084L67.7696 85.4019L67.7582 82.762L66.2582 82.7685ZM66.2696 85.4084L64.7787 85.2437L64.487 87.8836L65.9779 88.0483L67.4689 88.2131L67.7605 85.5731L66.2696 85.4084ZM65.9779 88.0483L64.4835 88.1769L64.7106 90.8169L66.2051 90.6883L67.6996 90.5597L67.4724 87.9198L65.9779 88.0483ZM66.2051 90.6883L64.7052 90.7059L64.7361 93.3458L66.236 93.3283L67.7359 93.3107L67.705 90.6708L66.2051 90.6883ZM66.236 93.3283L64.736 93.3191L64.7199 95.9592L66.2199 95.9683L67.7199 95.9775L67.736 93.3374L66.236 93.3283ZM66.2199 95.9683L64.7869 95.525L64.7158 95.755L66.1487 96.1983L67.5817 96.6416L67.6529 96.4116L66.2199 95.9683Z" fill="black"/>
<path d="M93.0673 30.719L92.6956 32.1722L92.8511 32.2119L93.0115 32.2179L93.0673 30.719ZM90.5947 30.0865L90.9664 28.6333L90.7466 28.5771L90.5201 28.5884L90.5947 30.0865ZM87.9541 30.2181L87.8795 28.7199L87.864 28.7207L87.8485 28.7218L87.9541 30.2181ZM85.3147 30.4044L85.3207 31.9044L85.3706 31.9042L85.4203 31.9007L85.3147 30.4044ZM82.6737 30.4149L82.4896 31.9036L82.5843 31.9153L82.6797 31.9149L82.6737 30.4149ZM80.0383 30.089L80.2224 28.6004L80.0906 28.5841L79.9581 28.5912L80.0383 30.089ZM77.3936 30.2307L77.2831 31.7267L77.3784 31.7337L77.4738 31.7286L77.3936 30.2307ZM74.7549 30.0358L74.4922 31.5126L74.5678 31.5261L74.6444 31.5317L74.7549 30.0358ZM72.1513 29.5725L72.4141 28.0957L72.3992 28.093L72.3842 28.0907L72.1513 29.5725ZM69.5404 29.1622L69.1202 30.6021L69.2125 30.6291L69.3076 30.644L69.5404 29.1622ZM66.9972 28.42L66.3255 29.7611L66.4468 29.8219L66.577 29.8599L66.9972 28.42ZM64.6573 27.248L65.329 25.9068L64.2395 25.3611L63.4822 26.3157L64.6573 27.248ZM93.1672 30.7227L93.223 29.2237L93.1231 29.22L93.0673 30.719L93.0115 32.2179L93.1114 32.2216L93.1672 30.7227ZM93.0673 30.719L93.439 29.2657L90.9664 28.6333L90.5947 30.0865L90.223 31.5398L92.6956 32.1722L93.0673 30.719ZM90.5947 30.0865L90.5201 28.5884L87.8795 28.7199L87.9541 30.2181L88.0288 31.7162L90.6693 31.5847L90.5947 30.0865ZM87.9541 30.2181L87.8485 28.7218L85.2091 28.9081L85.3147 30.4044L85.4203 31.9007L88.0598 31.7143L87.9541 30.2181ZM85.3147 30.4044L85.3087 28.9044L82.6677 28.9149L82.6737 30.4149L82.6797 31.9149L85.3207 31.9044L85.3147 30.4044ZM82.6737 30.4149L82.8578 28.9263L80.2224 28.6004L80.0383 30.089L79.8542 31.5777L82.4896 31.9036L82.6737 30.4149ZM80.0383 30.089L79.9581 28.5912L77.3133 28.7329L77.3936 30.2307L77.4738 31.7286L80.1186 31.5869L80.0383 30.089ZM77.3936 30.2307L77.5041 28.7348L74.8655 28.5399L74.7549 30.0358L74.6444 31.5317L77.2831 31.7267L77.3936 30.2307ZM74.7549 30.0358L75.0177 28.559L72.4141 28.0957L72.1513 29.5725L71.8886 31.0493L74.4922 31.5126L74.7549 30.0358ZM72.1513 29.5725L72.3842 28.0907L69.7733 27.6804L69.5404 29.1622L69.3076 30.644L71.9185 31.0543L72.1513 29.5725ZM69.5404 29.1622L69.9607 27.7223L67.4175 26.98L66.9972 28.42L66.577 29.8599L69.1202 30.6021L69.5404 29.1622ZM66.9972 28.42L67.669 27.0788L65.329 25.9068L64.6573 27.248L63.9855 28.5892L66.3255 29.7611L66.9972 28.42ZM64.6573 27.248L63.4822 26.3157L63.4753 26.3244L64.6504 27.2567L65.8255 28.1889L65.8324 28.1803L64.6573 27.248Z" fill="black"/>
<path d="M93.2633 33.1541L93.6597 31.7074L93.269 31.6004L92.8776 31.7045L93.2633 33.1541ZM95.7276 33.8294L95.3312 35.276L95.5905 35.3471L95.8584 35.3236L95.7276 33.8294ZM98.3601 33.5989L98.4909 35.0932L98.6365 35.0804L98.7768 35.0398L98.3601 33.5989ZM100.883 32.8692L101.3 34.3101L101.539 34.2409L101.744 34.0978L100.883 32.8692ZM102.984 31.3976L103.845 32.6262L104.199 32.3781L104.367 31.9795L102.984 31.3976ZM103.958 29.0841L105.34 29.6661L106.011 28.0733L104.34 27.6335L103.958 29.0841ZM101.437 28.4208L101.819 26.9701L101.592 26.9105L101.358 26.9228L101.437 28.4208ZM98.822 28.5581L98.7433 27.0602L98.5937 27.0681L98.4487 27.1053L98.822 28.5581ZM96.2856 29.2099L95.9123 27.7571L95.7363 27.8024L95.5762 27.8883L96.2856 29.2099ZM93.9807 30.4472L93.2713 29.1256L92.7807 29.3889L92.5808 29.9086L93.9807 30.4472ZM93.1389 32.6356L94.418 33.419L94.4896 33.3021L94.5389 33.1742L93.1389 32.6356ZM91.7722 34.867L92.8234 35.937L92.955 35.8078L93.0513 35.6505L91.7722 34.867ZM89.894 36.7121L90.843 37.8738L90.8962 37.8303L90.9452 37.7821L89.894 36.7121ZM87.8622 38.3719L88.6558 39.6448L88.7371 39.5941L88.8112 39.5336L87.8622 38.3719ZM85.6037 39.7801L86.0777 41.2032L86.2464 41.147L86.3973 41.0529L85.6037 39.7801ZM83.08 40.6207L83.4381 42.0773L83.4967 42.0629L83.554 42.0438L83.08 40.6207ZM80.5042 41.2539L80.7347 42.7361L80.7991 42.7261L80.8623 42.7105L80.5042 41.2539ZM77.8886 41.6606L77.6581 40.1785L77.6471 40.1802L77.6361 40.1821L77.8886 41.6606ZM75.2856 42.1052L75.3311 43.6045L75.4353 43.6014L75.5381 43.5838L75.2856 42.1052ZM93.1667 33.1798L93.5524 34.6294L93.649 34.6037L93.2633 33.1541L92.8776 31.7045L92.7809 31.7303L93.1667 33.1798ZM93.2633 33.1541L92.8669 34.6008L95.3312 35.276L95.7276 33.8294L96.124 32.3827L93.6597 31.7074L93.2633 33.1541ZM95.7276 33.8294L95.8584 35.3236L98.4909 35.0932L98.3601 33.5989L98.2292 32.1046L95.5968 32.3351L95.7276 33.8294ZM98.3601 33.5989L98.7768 35.0398L101.3 34.3101L100.883 32.8692L100.466 31.4282L97.9433 32.1579L98.3601 33.5989ZM100.883 32.8692L101.744 34.0978L103.845 32.6262L102.984 31.3976L102.124 30.169L100.023 31.6406L100.883 32.8692ZM102.984 31.3976L104.367 31.9795L105.34 29.6661L103.958 29.0841L102.575 28.5022L101.602 30.8156L102.984 31.3976ZM103.958 29.0841L104.34 27.6335L101.819 26.9701L101.437 28.4208L101.055 29.8714L103.576 30.5347L103.958 29.0841ZM101.437 28.4208L101.358 26.9228L98.7433 27.0602L98.822 28.5581L98.9007 30.0561L101.516 29.9187L101.437 28.4208ZM98.822 28.5581L98.4487 27.1053L95.9123 27.7571L96.2856 29.2099L96.6589 30.6627L99.1953 30.0109L98.822 28.5581ZM96.2856 29.2099L95.5762 27.8883L93.2713 29.1256L93.9807 30.4472L94.6902 31.7688L96.9951 30.5315L96.2856 29.2099ZM93.9807 30.4472L92.5808 29.9086L91.7389 32.097L93.1389 32.6356L94.5389 33.1742L95.3807 30.9858L93.9807 30.4472ZM93.1389 32.6356L91.8597 31.8521L90.493 34.0835L91.7722 34.867L93.0513 35.6505L94.418 33.419L93.1389 32.6356ZM91.7722 34.867L90.721 33.797L88.8428 35.6421L89.894 36.7121L90.9452 37.7821L92.8234 35.937L91.7722 34.867ZM89.894 36.7121L88.945 35.5505L86.9132 37.2103L87.8622 38.3719L88.8112 39.5336L90.843 37.8738L89.894 36.7121ZM87.8622 38.3719L87.0686 37.0991L84.8101 38.5072L85.6037 39.7801L86.3973 41.0529L88.6558 39.6448L87.8622 38.3719ZM85.6037 39.7801L85.1297 38.3569L82.606 39.1976L83.08 40.6207L83.554 42.0438L86.0777 41.2032L85.6037 39.7801ZM83.08 40.6207L82.7219 39.1641L80.1462 39.7973L80.5042 41.2539L80.8623 42.7105L83.4381 42.0773L83.08 40.6207ZM80.5042 41.2539L80.2738 39.7717L77.6581 40.1785L77.8886 41.6606L78.1191 43.1428L80.7347 42.7361L80.5042 41.2539ZM77.8886 41.6606L77.6361 40.1821L75.033 40.6266L75.2856 42.1052L75.5381 43.5838L78.1411 43.1392L77.8886 41.6606ZM75.2856 42.1052L75.24 40.6059L74.056 40.6419L74.1016 42.1412L74.1471 43.6405L75.3311 43.6045L75.2856 42.1052Z" fill="black"/>
<path d="M51.2251 67.8242L52.6473 68.3009L52.7114 68.1098L52.7227 67.9086L51.2251 67.8242ZM50.4103 70.2554L48.988 69.7788L48.8925 70.0639L48.9142 70.3637L50.4103 70.2554ZM50.6013 72.8938L52.0982 72.7964L52.0974 72.7855L50.6013 72.8938ZM50.7732 75.5344L52.273 75.5591L52.274 75.498L52.2701 75.437L50.7732 75.5344ZM50.7297 78.1759L52.2142 78.3913L52.2279 78.2965L52.2295 78.2007L50.7297 78.1759ZM50.3484 80.8044L48.864 80.5891L48.8434 80.7308L48.85 80.8739L50.3484 80.8044ZM50.4711 83.4511L51.9706 83.4895L51.972 83.4356L51.9695 83.3816L50.4711 83.4511ZM50.4034 86.0899L51.9026 86.1375L51.9029 86.1284L50.4034 86.0899ZM50.3198 88.7266L48.8205 88.6791L48.8186 88.741L48.8217 88.8028L50.3198 88.7266ZM50.454 91.3651L51.9484 91.4949L51.9573 91.3921L51.952 91.2889L50.454 91.3651ZM50.2246 94.0059L51.7156 94.17L51.7175 94.1529L51.719 94.1357L50.2246 94.0059ZM49.9998 96.0493L48.5088 95.8852L48.3509 97.3205L49.7791 97.5329L49.9998 96.0493ZM51.2307 67.7244L49.7331 67.64L49.7275 67.7398L51.2251 67.8242L52.7227 67.9086L52.7283 67.8088L51.2307 67.7244ZM51.2251 67.8242L49.8028 67.3476L48.988 69.7788L50.4103 70.2554L51.8325 70.7321L52.6473 68.3009L51.2251 67.8242ZM50.4103 70.2554L48.9142 70.3637L49.1052 73.0021L50.6013 72.8938L52.0974 72.7855L51.9064 70.1471L50.4103 70.2554ZM50.6013 72.8938L49.1045 72.9913L49.2764 75.6319L50.7732 75.5344L52.2701 75.437L52.0981 72.7964L50.6013 72.8938ZM50.7732 75.5344L49.2734 75.5097L49.2299 78.1512L50.7297 78.1759L52.2295 78.2007L52.273 75.5591L50.7732 75.5344ZM50.7297 78.1759L49.2452 77.9606L48.864 80.5891L50.3484 80.8044L51.8329 81.0198L52.2142 78.3913L50.7297 78.1759ZM50.3484 80.8044L48.85 80.8739L48.9727 83.5205L50.4711 83.4511L51.9695 83.3816L51.8468 80.735L50.3484 80.8044ZM50.4711 83.4511L48.9716 83.4126L48.9039 86.0515L50.4034 86.0899L51.9029 86.1284L51.9706 83.4895L50.4711 83.4511ZM50.4034 86.0899L48.9041 86.0424L48.8205 88.6791L50.3198 88.7266L51.819 88.7742L51.9026 86.1375L50.4034 86.0899ZM50.3198 88.7266L48.8217 88.8028L48.9559 91.4413L50.454 91.3651L51.952 91.2889L51.8178 88.6504L50.3198 88.7266ZM50.454 91.3651L48.9596 91.2354L48.7303 93.8762L50.2246 94.0059L51.719 94.1357L51.9484 91.4949L50.454 91.3651ZM50.2246 94.0059L48.7336 93.8419L48.5088 95.8852L49.9998 96.0493L51.4908 96.2133L51.7156 94.17L50.2246 94.0059ZM49.9998 96.0493L49.7791 97.5329L49.79 97.5346L50.0107 96.0509L50.2315 94.5672L50.2205 94.5656L49.9998 96.0493Z" fill="black"/>
<path d="M52.7549 43.1084L54.2505 43.2222L54.2549 43.1654V43.1084H52.7549ZM52.5616 45.6484L51.0659 45.5345L51.0588 45.6273L51.0633 45.7202L52.5616 45.6484ZM52.6881 48.2884L51.1898 48.3602L51.1905 48.3742L51.1915 48.3882L52.6881 48.2884ZM52.8642 50.9284L54.3642 50.9207L54.3639 50.8746L54.3609 50.8286L52.8642 50.9284ZM52.8776 53.5684L54.3678 53.7396L54.3781 53.6504L54.3776 53.5607L52.8776 53.5684ZM52.5756 56.197L53.6959 57.1946L54.0117 56.8399L54.0658 56.3682L52.5756 56.197ZM51.119 57.8327L50.8545 59.3092L51.6809 59.4573L52.2393 58.8303L51.119 57.8327ZM52.7549 43.0084H51.2549V43.1084H52.7549H54.2549V43.0084H52.7549ZM52.7549 43.1084L51.2592 42.9945L51.0659 45.5345L52.5616 45.6484L54.0572 45.7622L54.2505 43.2222L52.7549 43.1084ZM52.5616 45.6484L51.0633 45.7202L51.1898 48.3602L52.6881 48.2884L54.1864 48.2165L54.0598 45.5765L52.5616 45.6484ZM52.6881 48.2884L51.1915 48.3882L51.3675 51.0282L52.8642 50.9284L54.3609 50.8286L54.1848 48.1886L52.6881 48.2884ZM52.8642 50.9284L51.3642 50.936L51.3776 53.576L52.8776 53.5684L54.3776 53.5607L54.3642 50.9207L52.8642 50.9284ZM52.8776 53.5684L51.3874 53.3972L51.0854 56.0258L52.5756 56.197L54.0658 56.3682L54.3678 53.7396L52.8776 53.5684ZM52.5756 56.197L51.4554 55.1995L49.9988 56.8352L51.119 57.8327L52.2393 58.8303L53.6959 57.1946L52.5756 56.197ZM51.119 57.8327L51.3836 56.3563L50.122 56.1302L49.8574 57.6067L49.5929 59.0832L50.8545 59.3092L51.119 57.8327Z" fill="black"/>
<path d="M56.6177 70.8595L58.0394 71.3378L58.1065 71.1385L58.1161 70.9284L56.6177 70.8595ZM55.8117 73.2557L54.39 72.7775L54.3002 73.0444L54.3133 73.3258L55.8117 73.2557ZM55.9351 75.8972L54.4368 75.9672L54.4377 75.9876L54.4392 76.0079L55.9351 75.8972ZM56.1304 78.5357L57.6302 78.5088L57.6294 78.4668L57.6263 78.425L56.1304 78.5357ZM56.1779 81.1749L57.6712 81.316L57.6792 81.2321L57.6776 81.1479L56.1779 81.1749ZM55.9279 83.819L54.4346 83.6779L54.4207 83.8242L54.4356 83.9705L55.9279 83.819ZM56.1954 86.4552L57.6949 86.4193L57.6935 86.3614L57.6877 86.3038L56.1954 86.4552ZM56.2585 89.0949L57.7585 89.0943L57.7585 89.0767L57.758 89.0591L56.2585 89.0949ZM56.2596 91.7355L54.7596 91.7362L54.7597 91.7694L54.7611 91.8025L56.2596 91.7355ZM56.3776 94.3771L57.8672 94.5535L57.8816 94.4322L57.8761 94.3102L56.3776 94.3771ZM56.1791 96.054L56.1564 97.5538L57.5095 97.5743L57.6687 96.2304L56.1791 96.054ZM56.6223 70.7596L55.1239 70.6908L55.1193 70.7907L56.6177 70.8595L58.1161 70.9284L58.1207 70.8285L56.6223 70.7596ZM56.6177 70.8595L55.196 70.3813L54.39 72.7775L55.8117 73.2557L57.2334 73.734L58.0394 71.3378L56.6177 70.8595ZM55.8117 73.2557L54.3133 73.3258L54.4368 75.9672L55.9351 75.8972L57.4335 75.8272L57.3101 73.1857L55.8117 73.2557ZM55.9351 75.8972L54.4392 76.0079L54.6345 78.6464L56.1304 78.5357L57.6263 78.425L57.431 75.7865L55.9351 75.8972ZM56.1304 78.5357L54.6307 78.5627L54.6781 81.2018L56.1779 81.1749L57.6776 81.1479L57.6302 78.5088L56.1304 78.5357ZM56.1779 81.1749L54.6845 81.0337L54.4346 83.6779L55.9279 83.819L57.4212 83.9602L57.6712 81.316L56.1779 81.1749ZM55.9279 83.819L54.4356 83.9705L54.703 86.6066L56.1954 86.4552L57.6877 86.3038L57.4202 83.6676L55.9279 83.819ZM56.1954 86.4552L54.6958 86.491L54.7589 89.1308L56.2585 89.0949L57.758 89.0591L57.6949 86.4193L56.1954 86.4552ZM56.2585 89.0949L54.7585 89.0956L54.7596 91.7362L56.2596 91.7355L57.7596 91.7349L57.7585 89.0943L56.2585 89.0949ZM56.2596 91.7355L54.7611 91.8025L54.8791 94.4441L56.3776 94.3771L57.8761 94.3102L57.7581 91.6686L56.2596 91.7355ZM56.3776 94.3771L54.888 94.2008L54.6895 95.8776L56.1791 96.054L57.6687 96.2304L57.8672 94.5535L56.3776 94.3771ZM56.1791 96.054L56.2018 94.5542L56.1875 94.5539L56.1648 96.0538L56.1421 97.5536L56.1564 97.5538L56.1791 96.054Z" fill="black"/>
<path d="M76.145 99.9243L74.6451 99.9161L74.6391 100.999L75.6651 101.345L76.145 99.9243ZM76.1594 97.2956L77.6594 97.3039L77.666 96.1116L76.5059 95.8362L76.1594 97.2956ZM73.6188 96.6925L73.9653 95.2331L73.7749 95.1879L73.5792 95.193L73.6188 96.6925ZM70.9865 96.7621L70.9469 95.2626L70.924 95.2632L70.9011 95.2645L70.9865 96.7621ZM68.35 96.9125L68.1935 98.4043L68.3142 98.4169L68.4354 98.41L68.35 96.9125ZM65.7098 96.6354L65.8663 95.1436L65.7492 95.1313L65.6315 95.1374L65.7098 96.6354ZM63.0664 96.7735L63.0716 98.2735L63.1082 98.2734L63.1447 98.2715L63.0664 96.7735ZM60.4417 96.7826L60.4366 95.2826L60.4049 95.2827L60.3733 95.2841L60.4417 96.7826ZM57.7972 96.9033L57.5116 98.3759L57.6871 98.4099L57.8656 98.4017L57.7972 96.9033ZM55.2417 96.4078L55.5272 94.9353L55.3206 94.8952L55.111 94.9135L55.2417 96.4078ZM52.6721 96.6326L52.5458 98.1273L52.6743 98.1381L52.8027 98.1269L52.6721 96.6326ZM50.0411 96.4104L50.1674 94.9157L50.1654 94.9155L50.0411 96.4104ZM47.403 96.1911L47.5273 94.6963L47.3034 94.6777L47.0839 94.7255L47.403 96.1911ZM44.8441 96.7483L44.5249 95.2827L43.3998 95.5277L43.3457 96.6779L44.8441 96.7483ZM44.7219 99.3474L46.0826 99.9785L46.2064 99.7117L46.2202 99.4179L44.7219 99.3474ZM76.2398 99.9563L76.7197 98.5352L76.625 98.5032L76.145 99.9243L75.6651 101.345L75.7598 101.377L76.2398 99.9563ZM76.145 99.9243L77.645 99.9325L77.6594 97.3039L76.1594 97.2956L74.6595 97.2874L74.6451 99.9161L76.145 99.9243ZM76.1594 97.2956L76.5059 95.8362L73.9653 95.2331L73.6188 96.6925L73.2724 98.152L75.813 98.7551L76.1594 97.2956ZM73.6188 96.6925L73.5792 95.193L70.9469 95.2626L70.9865 96.7621L71.0261 98.2616L73.6585 98.192L73.6188 96.6925ZM70.9865 96.7621L70.9011 95.2645L68.2646 95.4149L68.35 96.9125L68.4354 98.41L71.0719 98.2597L70.9865 96.7621ZM68.35 96.9125L68.5066 95.4206L65.8663 95.1436L65.7098 96.6354L65.5532 98.1272L68.1935 98.4043L68.35 96.9125ZM65.7098 96.6354L65.6315 95.1374L62.9881 95.2756L63.0664 96.7735L63.1447 98.2715L65.7881 98.1333L65.7098 96.6354ZM63.0664 96.7735L63.0613 95.2735L60.4366 95.2826L60.4417 96.7826L60.4469 98.2825L63.0716 98.2735L63.0664 96.7735ZM60.4417 96.7826L60.3733 95.2841L57.7287 95.4049L57.7972 96.9033L57.8656 98.4017L60.5102 98.281L60.4417 96.7826ZM57.7972 96.9033L58.0827 95.4307L55.5272 94.9353L55.2417 96.4078L54.9562 97.8804L57.5116 98.3759L57.7972 96.9033ZM55.2417 96.4078L55.111 94.9135L52.5414 95.1383L52.6721 96.6326L52.8027 98.1269L55.3724 97.9021L55.2417 96.4078ZM52.6721 96.6326L52.7983 95.1379L50.1674 94.9157L50.0411 96.4104L49.9149 97.905L52.5458 98.1273L52.6721 96.6326ZM50.0411 96.4104L50.1654 94.9155L47.5273 94.6963L47.403 96.1911L47.2788 97.686L49.9169 97.9052L50.0411 96.4104ZM47.403 96.1911L47.0839 94.7255L44.5249 95.2827L44.8441 96.7483L45.1632 98.214L47.7222 97.6568L47.403 96.1911ZM44.8441 96.7483L43.3457 96.6779L43.2235 99.277L44.7219 99.3474L46.2202 99.4179L46.3424 96.8188L44.8441 96.7483ZM44.7219 99.3474L43.3611 98.7163L43.0103 99.4726L44.3711 100.104L45.7319 100.735L46.0826 99.9785L44.7219 99.3474Z" fill="black"/>
<path d="M8.1 116L8.21382 114.504L8.15699 114.5H8.1V116ZM10.64 116.193L10.5262 117.689L10.6189 117.696L10.7118 117.692L10.64 116.193ZM13.28 116.067L13.3518 117.565L13.3658 117.564L13.3798 117.563L13.28 116.067ZM15.92 115.891L15.9124 114.391L15.8662 114.391L15.8202 114.394L15.92 115.891ZM18.56 115.877L18.7245 114.386L18.6387 114.377L18.5524 114.377L18.56 115.877ZM21.2 116.169L21.0355 117.66L21.1817 117.676L21.3282 117.663L21.2 116.169ZM23.84 115.942L23.823 114.442L23.7673 114.443L23.7118 114.448L23.84 115.942ZM26.48 115.912L26.4895 114.412L26.4762 114.412L26.463 114.412L26.48 115.912ZM29.12 115.929L29.1105 117.429L29.1502 117.429L29.1898 117.427L29.12 115.929ZM31.76 115.806L31.862 114.309L31.7761 114.303L31.6902 114.307L31.76 115.806ZM34.4 115.986L34.298 117.482L34.3418 117.485L34.3856 117.486L34.4 115.986ZM37.04 116.011L37.1014 114.512L37.0779 114.511L37.0544 114.511L37.04 116.011ZM39.68 116.119L39.6186 117.618L39.6774 117.62L39.7362 117.618L39.68 116.119ZM42.32 116.02L42.3762 117.519L42.4141 117.518L42.4519 117.514L42.32 116.02ZM44.96 115.787L44.9847 114.287L44.9063 114.286L44.8281 114.293L44.96 115.787ZM47.6 115.831L47.5753 117.33L47.583 117.331L47.5907 117.331L47.6 115.831ZM50.24 115.847L50.273 114.347L50.2611 114.347L50.2493 114.347L50.24 115.847ZM52.88 115.905L52.847 117.405L52.8791 117.405L52.9112 117.405L52.88 115.905ZM55.52 115.85L55.7267 114.364L55.6083 114.348L55.4888 114.35L55.52 115.85ZM58.16 116.217L57.9533 117.703L58.1004 117.724L58.2487 117.715L58.16 116.217ZM60.8 116.061L60.8887 117.558L60.9228 117.556L60.9568 117.553L60.8 116.061ZM63.44 115.784L63.6088 114.293L63.4461 114.275L63.2832 114.292L63.44 115.784ZM66.08 116.083L65.9111 117.573L66.0405 117.588L66.1703 117.58L66.08 116.083ZM68.72 115.923L68.7965 114.425L68.7131 114.421L68.6297 114.426L68.72 115.923ZM71.36 116.058L71.2835 117.556L71.4089 117.563L71.5335 117.548L71.36 116.058ZM74 115.751L74.2776 114.277L74.0532 114.234L73.8265 114.261L74 115.751ZM76.64 116.248L76.3624 117.722L76.5494 117.757L76.7392 117.745L76.64 116.248ZM79.28 116.073L79.2637 114.573L79.2222 114.573L79.1808 114.576L79.28 116.073ZM81.92 116.044L81.9363 117.544L81.9446 117.544L81.9529 117.544L81.92 116.044ZM84.56 115.986L84.5929 117.486L84.6019 117.486L84.56 115.986ZM87.2 115.913L87.1936 114.413L87.1758 114.413L87.1581 114.413L87.2 115.913ZM89.84 115.901L90.0324 114.414L89.9334 114.401L89.8336 114.401L89.84 115.901ZM92.48 116.243L92.2876 117.73L92.526 117.761L92.7621 117.716L92.48 116.243ZM95.12 115.737L95.3207 114.251L95.0782 114.218L94.8379 114.264L95.12 115.737ZM97.76 116.094L97.5593 117.58L97.628 117.59L97.6973 117.592L97.76 116.094ZM100.4 116.204L100.337 117.703L100.494 117.709L100.649 117.683L100.4 116.204ZM103.04 115.76L103.029 114.26L102.909 114.261L102.791 114.281L103.04 115.76ZM105.68 115.741L105.969 114.269L105.82 114.24L105.669 114.241L105.68 115.741ZM108.32 116.259L108.031 117.731L108.25 117.774L108.472 117.751L108.32 116.259ZM110.96 115.99L110.975 114.49L110.891 114.489L110.808 114.497L110.96 115.99ZM8 116V117.5H8.1V116V114.5H8V116ZM8.1 116L7.98618 117.496L10.5262 117.689L10.64 116.193L10.7538 114.698L8.21382 114.504L8.1 116ZM10.64 116.193L10.7118 117.692L13.3518 117.565L13.28 116.067L13.2082 114.568L10.5682 114.695L10.64 116.193ZM13.28 116.067L13.3798 117.563L16.0198 117.387L15.92 115.891L15.8202 114.394L13.1802 114.57L13.28 116.067ZM15.92 115.891L15.9276 117.391L18.5676 117.377L18.56 115.877L18.5524 114.377L15.9124 114.391L15.92 115.891ZM18.56 115.877L18.3955 117.368L21.0355 117.66L21.2 116.169L21.3645 114.678L18.7245 114.386L18.56 115.877ZM21.2 116.169L21.3282 117.663L23.9682 117.437L23.84 115.942L23.7118 114.448L21.0718 114.674L21.2 116.169ZM23.84 115.942L23.857 117.442L26.497 117.412L26.48 115.912L26.463 114.412L23.823 114.442L23.84 115.942ZM26.48 115.912L26.4705 117.412L29.1105 117.429L29.12 115.929L29.1295 114.429L26.4895 114.412L26.48 115.912ZM29.12 115.929L29.1898 117.427L31.8298 117.304L31.76 115.806L31.6902 114.307L29.0502 114.43L29.12 115.929ZM31.76 115.806L31.658 117.302L34.298 117.482L34.4 115.986L34.502 114.489L31.862 114.309L31.76 115.806ZM34.4 115.986L34.3856 117.486L37.0256 117.511L37.04 116.011L37.0544 114.511L34.4144 114.486L34.4 115.986ZM37.04 116.011L36.9786 117.51L39.6186 117.618L39.68 116.119L39.7414 114.62L37.1014 114.512L37.04 116.011ZM39.68 116.119L39.7362 117.618L42.3762 117.519L42.32 116.02L42.2638 114.521L39.6238 114.62L39.68 116.119ZM42.32 116.02L42.4519 117.514L45.0919 117.281L44.96 115.787L44.8281 114.293L42.1881 114.526L42.32 116.02ZM44.96 115.787L44.9353 117.287L47.5753 117.33L47.6 115.831L47.6247 114.331L44.9847 114.287L44.96 115.787ZM47.6 115.831L47.5907 117.331L50.2307 117.347L50.24 115.847L50.2493 114.347L47.6093 114.331L47.6 115.831ZM50.24 115.847L50.207 117.347L52.847 117.405L52.88 115.905L52.913 114.405L50.273 114.347L50.24 115.847ZM52.88 115.905L52.9112 117.405L55.5512 117.35L55.52 115.85L55.4888 114.35L52.8488 114.405L52.88 115.905ZM55.52 115.85L55.3133 117.336L57.9533 117.703L58.16 116.217L58.3667 114.732L55.7267 114.364L55.52 115.85ZM58.16 116.217L58.2487 117.715L60.8887 117.558L60.8 116.061L60.7113 114.564L58.0713 114.72L58.16 116.217ZM60.8 116.061L60.9568 117.553L63.5968 117.275L63.44 115.784L63.2832 114.292L60.6432 114.569L60.8 116.061ZM63.44 115.784L63.2711 117.274L65.9111 117.573L66.08 116.083L66.2489 114.592L63.6088 114.293L63.44 115.784ZM66.08 116.083L66.1703 117.58L68.8103 117.421L68.72 115.923L68.6297 114.426L65.9897 114.585L66.08 116.083ZM68.72 115.923L68.6435 117.421L71.2835 117.556L71.36 116.058L71.4365 114.56L68.7965 114.425L68.72 115.923ZM71.36 116.058L71.5335 117.548L74.1735 117.241L74 115.751L73.8265 114.261L71.1865 114.568L71.36 116.058ZM74 115.751L73.7224 117.225L76.3624 117.722L76.64 116.248L76.9175 114.774L74.2776 114.277L74 115.751ZM76.64 116.248L76.7392 117.745L79.3792 117.57L79.28 116.073L79.1808 114.576L76.5408 114.751L76.64 116.248ZM79.28 116.073L79.2963 117.573L81.9363 117.544L81.92 116.044L81.9037 114.544L79.2637 114.573L79.28 116.073ZM81.92 116.044L81.9529 117.544L84.5929 117.486L84.56 115.986L84.5271 114.487L81.8871 114.545L81.92 116.044ZM84.56 115.986L84.6019 117.486L87.2419 117.412L87.2 115.913L87.1581 114.413L84.5181 114.487L84.56 115.986ZM87.2 115.913L87.2064 117.413L89.8464 117.401L89.84 115.901L89.8336 114.401L87.1936 114.413L87.2 115.913ZM89.84 115.901L89.6476 117.389L92.2876 117.73L92.48 116.243L92.6724 114.755L90.0324 114.414L89.84 115.901ZM92.48 116.243L92.7621 117.716L95.4021 117.211L95.12 115.737L94.8379 114.264L92.1979 114.77L92.48 116.243ZM95.12 115.737L94.9193 117.224L97.5593 117.58L97.76 116.094L97.9607 114.607L95.3207 114.251L95.12 115.737ZM97.76 116.094L97.6973 117.592L100.337 117.703L100.4 116.204L100.463 114.706L97.8227 114.595L97.76 116.094ZM100.4 116.204L100.649 117.683L103.289 117.239L103.04 115.76L102.791 114.281L100.151 114.725L100.4 116.204ZM103.04 115.76L103.051 117.26L105.691 117.241L105.68 115.741L105.669 114.241L103.029 114.26L103.04 115.76ZM105.68 115.741L105.391 117.213L108.031 117.731L108.32 116.259L108.609 114.787L105.969 114.269L105.68 115.741ZM108.32 116.259L108.472 117.751L111.112 117.482L110.96 115.99L110.808 114.497L108.168 114.767L108.32 116.259ZM110.96 115.99L110.945 117.49L111.985 117.5L112 116L112.015 114.5L110.975 114.49L110.96 115.99Z" fill="black"/>
</svg>
