<svg width="120" height="120" viewBox="0 0 120 120" fill="none" xmlns="http://www.w3.org/2000/svg">
<path d="M91.1406 5H94V5.21094L93.8008 7.67188L93.918 10.1797H93.9297L94.1055 12.8164L94.1172 12.9453L94.1055 13.0742L93.9883 14.1523L93.7686 14.1299L93.8086 14.3125L94.4297 16.8906L94.4414 16.9492L94.4531 17.0195L94.8516 19.6328L94.8633 19.668V19.7148L95.1094 22.3047L95.5781 24.8008V24.8242L95.5898 24.8359L96.0234 27.4375L96.4688 30.0391L96.4805 30.0742L96.4922 30.1211L96.7617 32.6289L97.4062 35.125L97.4531 35.2891V35.4648L97.4834 37.2363L97.7617 36.8203L97.8438 36.6914L97.9492 36.5859L98.8633 35.6602L101.688 32.8125L101.418 36.8203L101.266 39.2578L101.723 41.7188L101.77 41.9414L101.734 42.1758L101.441 44.6602L101.57 47.2031L101.582 47.2852L101.57 47.3672L101.418 49.8984L101.711 52.3945L101.723 52.5586L101.711 52.7109L101.43 55.2773L101.441 55.2891L101.277 57.7734L101.641 60.2695L101.652 60.3867V60.5156L101.609 62.4277L102.508 62.4883L102.496 62.5L105.051 62.5117H105.098L107.746 62.6172L109 62.6758L109.164 63.918L109.469 66.1211V66.1914L109.703 68.8281L109.715 68.9102V68.9805L109.668 71.6289L109.656 74.2539V74.2773L109.598 76.9141L109.645 79.4922L109.656 79.6094L109.633 79.7266L109.281 82.2109L109.434 84.6484L109.703 87.2852L109.727 87.4492L109.703 87.6133L109.41 90.1562L109.574 92.6289V92.793L109.445 95.3242L109.738 97.832L109.762 98.0547L109.727 98.2773L109.258 100.715L109.422 103.176V103.258L109.457 105.883L109.516 108.52L109.586 111.156V111.191L109.598 113.828V114.062L109.539 114.273L109.427 114.641L110.809 114.5L110.891 114.488H110.973L112.016 114.5L112.004 116L111.98 117.5L110.984 117.488L108.477 117.746L108.254 117.77L108.031 117.734L106.619 117.451L105.156 117.73L104.922 117.777L104.676 117.754L102.24 117.41L100.648 117.688L100.496 117.711L100.332 117.699L97.8936 117.602L97.2109 117.719L97.0938 117.742H96.9766L94.3281 117.754L94.1758 117.766L94.0352 117.73L93.3516 117.595L92.7617 117.711L92.5273 117.758L92.293 117.734L89.9229 117.43L89.1953 117.508L89.0547 117.52L88.9141 117.508L87.8418 117.414L87.207 117.418L87.1953 117.406L85.1953 117.469L83.957 117.637L83.7578 117.672L83.5586 117.637L82.7725 117.528L81.957 117.547H81.9336L79.3672 117.559L79.3789 117.57L76.7422 117.746L76.5547 117.758L75.708 117.599L75.1562 117.586L72.5195 117.516L72.5312 117.504L72.0039 117.492L71.5391 117.547L71.4102 117.559H71.2812L69.0928 117.438L68.4951 117.433L66.1719 117.582H66.043L65.9141 117.57L65.7471 117.551L64.4023 117.707L64.2383 117.73L64.0742 117.707L62.9971 117.588L62.2773 117.727L62.0547 117.762L61.832 117.738L60.4941 117.581L58.25 117.711L58.0977 117.723L57.957 117.699L57.0068 117.567L56.5156 117.637L56.3984 117.648H56.2812L53.6445 117.59H53.2578L53.1494 117.526L51.6133 117.703L51.4492 117.727L51.2852 117.703L48.6484 117.434L48.6602 117.422L46.834 117.322L44.9492 117.289L42.4531 117.512L42.418 117.523H42.3711L42.2148 117.528L41.1562 117.73L40.9219 117.777L40.6758 117.754L39.7051 117.617H39.6172L36.9805 117.512V117.5L34.5508 117.488L33.2109 117.719L33.0938 117.742H32.9766L30.3281 117.754L30.1758 117.766L30.0352 117.73L28.5029 117.427L26.4688 117.418V117.406L26.1152 117.409L25.1953 117.508L25.0547 117.52L24.9141 117.508L24.0059 117.429L23.9609 117.43L21.3242 117.664L21.1836 117.676L21.0312 117.664L20.3311 117.586L19.957 117.637L19.7578 117.672L19.5586 117.637L17.7363 117.386L15.9219 117.395V117.383L13.3789 117.559H13.3672L13.3555 117.57L10.707 117.688L10.6133 117.699L10.5312 117.688L7.98828 117.5L8 117.277V114.5H8.21094L10.2559 114.665L10.2305 113.219V113.113L10.2422 113.008L10.582 110.535L10.3828 108.039L10.3711 107.934V107.828L10.5352 105.191L10.4297 102.695V102.578L10.5352 100.082L10.3828 97.4453V97.3281L10.3945 97.2227L10.6406 94.5742L10.7109 92.0781V89.4414L10.4766 86.9336V86.8984L10.3008 84.2617L10.2891 84.168L10.3008 84.0742L10.4531 81.4258L10.3711 78.9297L10.3594 78.8008L10.3828 78.6602L10.7578 76.1641L10.5938 73.7266L10.3594 71.0898L10.3477 70.9609L10.3594 70.8438L10.5703 68.207L10.4883 65.7695L10.3828 64.082L10.3008 62.5H12.2109L14.6719 62.6992L17.1797 62.582V62.5703L18.4902 62.4824L18.3047 59.8594V59.6953L18.4336 57.1289L18.4102 54.4922V54.4688L18.4453 51.8203V51.7148L18.668 49.2188L18.3867 46.7227L18.375 46.6406V46.5469L18.3867 43.9102V43.8633L18.3984 43.8164L18.5742 41.1797L18.6914 38.5664L18.5859 37.1133L18.2812 36.8086L18.457 36.0234L18.5391 35.6719L20.4258 35.8828L21.0117 35.3203L22.4648 36.8564L22.7891 34.5273L22.8008 34.4922V34.457L23.293 31.8555L23.6562 29.3008L23.7617 26.793V26.6406L23.8086 26.4883L24.4648 23.9219L24.9336 21.4375H24.9219L25.3906 18.8359L25.4023 18.7891V18.7422L26.0234 16.1758L26.3398 13.7148L26.8438 9.83594L26.9102 9.93359L26.8125 7.70703L26.8008 7.61328L26.8125 7.53125L27 4.98828L27.1406 5H30V5.21094L29.8008 7.67188L29.918 10.1797H29.9297L30.1055 12.8164L30.1172 12.9453L30.1055 13.0742L29.9883 14.1523L29.7686 14.1299L29.8086 14.3125L30.4297 16.8906L30.4414 16.9492L30.4531 17.0195L30.8516 19.6328L30.8633 19.668V19.7148L31.1094 22.3047L31.5781 24.8008V24.8242L31.5898 24.8359L32.0234 27.4375L32.4688 30.0391L32.4805 30.0742L32.4922 30.1211L32.7617 32.6289L33.4062 35.125L33.4531 35.2891V35.4648L33.4834 37.2363L33.7617 36.8203L33.8438 36.6914L33.9492 36.5859L34.8633 35.6602L37.6875 32.8125L37.418 36.8203L37.2656 39.2578L37.7227 41.7188L37.7695 41.9414L37.7344 42.1758L37.4414 44.6602L37.5703 47.2031L37.582 47.2852L37.5703 47.3672L37.418 49.8984L37.7109 52.3945L37.7227 52.5586L37.7109 52.7109L37.4297 55.2773L37.4414 55.2891L37.2773 57.7734L37.6406 60.2695L37.6523 60.3867V60.5156L37.6094 62.4277L38.5078 62.4883L38.4961 62.5L41.0508 62.5117H41.0977L43.7461 62.6172L45 62.6758L45.0918 63.3721L45.0977 63.3633L45.1445 63.2812L45.2031 63.2109L46.8203 61.1836L48.1445 59.0391L48.2148 58.9219L48.3086 58.8281L49.9844 56.9883L51.2031 54.8203L51.3203 54.6562L52.9023 52.5469H52.9141L54.3906 50.5547L55.7148 48.2812L55.7852 48.1758L55.8555 48.082L57.5547 46.043L58.7383 44.4609L59.0508 44.0381L58.9414 42.3789V42.3672L58.9297 42.3555L58.8125 39.707L58.8008 39.6133L58.8125 39.5312L59 36.9883L59.1406 37H62V37.2109L61.8008 39.6719L61.918 42.1797H61.9297L62.1055 44.8164L62.1172 44.9453L62.1055 45.0742L62.0664 45.4297L62.8633 46.2773L62.957 46.3711L63.0273 46.4883L64.4102 48.6211L66.0156 50.6602L66.0742 50.7422L66.1211 50.8242L67.4922 53.0977V53.1094L67.5039 53.1211L68.7461 55.3125L70.2227 57.4453L71.793 59.5547L73.4453 61.5117L73.5859 61.6992L74.3213 62.8955L74.3008 62.5H76.2109L78.6719 62.6992L81.1797 62.582V62.5703L82.4902 62.4824L82.3047 59.8594V59.6953L82.4336 57.1289L82.4102 54.4922V54.4688L82.4453 51.8203V51.7148L82.668 49.2188L82.3867 46.7227L82.375 46.6406V46.5469L82.3867 43.9102V43.8633L82.3984 43.8164L82.5742 41.1797L82.6914 38.5664L82.5859 37.1133L82.2812 36.8086L82.457 36.0234L82.5391 35.6719L84.4258 35.8828L85.0117 35.3203L86.4648 36.8564L86.7891 34.5273L86.8008 34.4922V34.457L87.293 31.8555L87.6562 29.3008L87.7617 26.793V26.6406L87.8086 26.4883L88.4648 23.9219L88.9336 21.4375H88.9219L89.3906 18.8359L89.4023 18.7891V18.7422L90.0234 16.1758L90.3398 13.7148L90.8438 9.83594L90.9102 9.93359L90.8125 7.70703L90.8008 7.61328L90.8125 7.53125L91 4.98828L91.1406 5ZM33.1875 88.9297H33.1055L30.4688 88.918L27.9609 88.9414L25.3242 89.1641L25.1836 89.1758L25.0312 89.1641L22.5 88.8945H19.9219L17.3789 89.0586H17.3672L17.3555 89.0703L14.707 89.1875L14.6133 89.1992L14.5312 89.1875L13.6943 89.125L13.7109 89.3008V92.125L13.6406 94.7617V94.8086L13.6289 94.8672L13.3828 97.4102L13.5352 99.918V100.059L13.4297 102.707L13.5234 105.227L13.5352 105.297L13.5234 105.367L13.3711 107.887L13.5703 110.441L13.582 110.594L13.5703 110.758L13.2305 113.289L13.2422 114.297L14.4492 114.273H14.4961L15.959 114.292L15.8477 113.383L15.8242 113.207L15.8359 113.031L16.1055 110.5V107.922L15.9414 105.379V105.367L15.9297 105.355L15.8125 102.707L15.8008 102.613L15.8125 102.531L16 99.9883L16.1406 100H19V100.211L18.8008 102.672L18.918 105.18H18.9297L19.1055 107.816V107.91L19.1172 110.547L19.1289 110.641L19.1172 110.723L18.8359 113.172L18.9951 114.413L20.3311 114.562L22.1953 114.309L22.3594 114.285L22.5234 114.297L24.2754 114.437L25.7412 114.424L27.5273 114.25L27.75 114.227L27.9727 114.273L28.7822 114.428L29.0469 114.43L31.6953 114.312L31.7773 114.301L31.8594 114.312L34.3955 114.48L35.3555 114.32L35.5078 114.285L35.6602 114.297L38.2969 114.402L38.3672 114.414H38.4375L39.8721 114.61L41.8369 114.546L42.3398 114.449L42.376 114.326L42.4023 112.91L42.3438 110.273V110.25L42.332 107.625L42.2852 104.988V104.906L42.2969 104.824L42.4229 103.377L42.4219 103.293V103.281L42.2578 100.738L42.2461 100.551L42.2812 100.363L42.5801 98.7275L42.5078 97.1016V97.0547L42.4971 95.8906L42.457 95.5352L42.4336 95.4062L42.4453 95.2891L42.4844 94.5L42.3086 91.8633V91.6875L42.4258 89.1328L42.4248 89.0693L40.9805 89.0117V89L40.1113 88.9951L40.0117 90.5078L40 90.4961L39.9883 93.0508V93.0977L39.8828 95.6875L39.9648 98.1836L40.2109 100.832V100.984L40.1641 103.621L40.1523 105.016L40.1406 106.504H38.5V105.004L37.1523 104.98L37.1641 103.586V103.574L37.1992 100.949L36.9883 98.4531L36.9766 98.418V98.3711L36.8828 95.7344V95.6172L36.9883 92.9805H37L37.0117 90.3906V90.3438L37.0234 90.2969L37.1113 88.9004L35.7188 88.8125L33.1875 88.9297ZM97.1875 88.9297H97.1055L94.4688 88.918L91.9609 88.9414L89.3242 89.1641L89.1836 89.1758L89.0312 89.1641L86.5 88.8945H83.9219L83.1152 88.9463L83.0117 90.5078L83 90.4961L82.9883 93.0508V93.0977L82.8828 95.6875L82.9648 98.1836L83.2109 100.832V100.984L83.1641 103.621L83.1523 105.016L83.1406 106.504H81.5V105.004L80.1523 104.98L80.1641 103.586V103.574L80.1992 100.949L79.9883 98.4531L79.9766 98.418V98.3711L79.8828 95.7344V95.6172L79.9883 92.9805H80L80.0117 90.3906V90.3438L80.0234 90.2969L80.0977 89.125L78.707 89.1875L78.6133 89.1992L78.5312 89.1875L77.6943 89.125L77.7109 89.3008V92.125L77.6406 94.7617V94.8086L77.6289 94.8672L77.458 96.623L77.7344 98.0273L77.7578 98.1797V98.332L77.7344 100.969V101.086L77.7227 101.203L77.4355 102.87L77.5234 105.227L77.5352 105.297L77.5234 105.367L77.4521 106.53L77.7461 108.68L77.7812 108.926L77.7344 109.16L77.5449 110.126L77.5703 110.441L77.582 110.594L77.5703 110.758L77.3623 112.302L77.582 113.965L77.625 114.289L78.4492 114.273H78.4961L81.1328 114.309H81.2266L81.3203 114.32L82.9121 114.523L84.5234 114.488L84.9658 114.476L86.1953 114.309L86.3594 114.285L86.5234 114.297L87.9893 114.414L89.832 114.406H89.9277L91.5273 114.25L91.75 114.227L91.9727 114.273L93.3936 114.545L94.8359 114.266L95.082 114.219L95.3164 114.254L97.7607 114.587L99.3555 114.32L99.5078 114.285L99.6602 114.297L100.967 114.349L100.848 113.383L100.824 113.207L100.836 113.031L101.105 110.5V107.922L100.941 105.379V105.367L100.93 105.355L100.812 102.707L100.801 102.613L100.812 102.531L101 99.9883L101.141 100H104V100.211L103.801 102.672L103.918 105.18H103.93L104.105 107.816V107.91L104.117 110.547L104.129 110.641L104.117 110.723L103.836 113.172L103.975 114.257L105.664 114.242H105.816L105.969 114.266L106.371 114.345L106.586 113.629V111.238L106.516 108.602V108.59L106.457 105.953V105.941L106.422 103.293V103.281L106.258 100.738L106.246 100.551L106.281 100.363L106.727 97.9258L106.457 95.5352L106.434 95.4062L106.445 95.2891L106.574 92.7109L106.422 90.168L106.41 90.0391L106.422 89.9102L106.517 89.0723L104.98 89.0117V89L102.391 88.9883H102.344L102.297 88.9766L99.7188 88.8125L97.1875 88.9297ZM59.9102 47.9062L59.8867 47.9297L59.8633 47.9648L58.2227 49.9336L56.9688 52.0781L56.9336 52.1484L56.8867 52.2188L55.3047 54.3398V54.3516L53.7695 56.3906L52.5156 58.6055L52.4336 58.7578L52.3164 58.875L50.6289 60.7266L49.293 62.8711L49.2461 62.9531L49.1992 63.0117L47.6055 65.0156L46.2695 67.1836L46.1758 67.3242L45.6318 68.0322L45.7031 68.8281L45.7148 68.9102V68.9805L45.6865 70.5508L45.6953 70.6172V70.7109L45.6777 71.0664L45.668 71.6289L45.6562 74.2539V74.2773L45.5977 76.9141L45.6445 79.4922L45.6562 79.6094L45.6328 79.7266L45.5684 80.1777L45.6602 81.0352L45.6719 81.1875L45.6602 81.3281L45.4375 83.9648L45.4307 84.6143L45.4336 84.6484L45.7031 87.2852L45.7266 87.4492L45.7031 87.6133L45.4102 90.1562L45.5742 92.6289V92.793L45.4854 94.5303L45.4961 95.7646L45.7383 97.832L45.7617 98.0547L45.7266 98.2773L45.5879 98.9961L45.6133 99.6211L45.625 99.6797L45.6133 99.7383L45.5195 102.375V102.457L45.4248 103.517L45.457 105.883L45.5156 108.52L45.5859 111.156V111.191L45.5977 113.828V114.062L45.5596 114.196L46.2461 114.281L46.9307 114.323L47.6211 114.336L47.6094 114.348H50.2695L50.3447 114.349L50.3281 112.422L50.293 109.773L50.2812 109.703L50.293 109.621L50.5156 107.055L50.6211 104.535L50.5156 101.898V101.852L50.4805 99.2031L50.4922 99.1914L50.3047 96.6602L50.2812 96.2266L50.4805 95.8516L51.7344 93.4727L51.8281 93.3086L51.957 93.168L53.75 91.2109L53.7969 91.1523L53.8555 91.0938L55.8359 89.3477L55.9062 89.2773L55.9883 89.2305L58.168 87.7305L58.4609 87.5312L58.8125 87.4844L60.875 87.1914L61.5312 87.0977L62.0352 87.5195L64.0742 89.207L64.1328 89.2539L64.1914 89.3125L66.043 91.2109L66.0781 91.2461L66.1016 91.293L67.8125 93.2852L67.8828 93.3789L67.9531 93.4844L68.832 94.9492H69.6406L69.582 96.4961L69.5117 98.6992L69.4531 101.324L69.4297 103.938V103.984L69.418 104.031L69.2656 106.469L69.7227 108.93L69.7695 109.152L69.7344 109.375L69.4414 111.871L69.5703 114.414L69.5723 114.451L69.9414 114.457H69.9531L71.8359 114.498L73.8242 114.266L74.0586 114.23L74.249 114.271L74.2305 113.219V113.113L74.2422 113.008L74.3408 112.285L74.2656 111.715L74.2422 111.469L74.2891 111.234L74.5361 109.965L74.3828 108.039L74.3711 107.934V107.828L74.4453 106.634L74.418 106.441L74.4062 106.371V106.301L74.3008 103.664L74.2891 103.512L74.3125 103.348L74.4297 102.669V102.578L74.5352 100.082L74.3828 97.4453V97.3281L74.3945 97.2227L74.4326 96.8037L74.2656 95.9648L74.2305 95.7539L74.2539 95.5312L74.5 93.0586L74.3008 90.5273L74.2891 90.3633L74.3125 90.1992L74.5889 88.1357L74.4766 86.9336V86.8984L74.4277 86.1709L74.3125 85.3125L74.3008 85.2305V85.1367L74.292 84.1943L74.2891 84.168L74.291 84.1445L74.2773 82.5V82.3594L74.3008 82.2305L74.4502 81.3545L74.3711 78.9297L74.3594 78.8008L74.3828 78.6602L74.6836 76.6514L74.4297 74.7539L74.418 74.6016L74.4297 74.4375L74.5352 73.0752L74.3594 71.0898L74.3477 70.9609L74.3594 70.8438L74.4697 69.459L73.9023 67.5L72.4844 65.6484L72.4492 65.5898L72.4023 65.5195L71.0781 63.3398L69.4375 61.4297L69.4141 61.3945L69.3789 61.3477L67.8086 59.2266L67.7969 59.2148L67.7852 59.1914L66.2852 57.0234L66.2383 56.9648L66.2031 56.9062L64.9141 54.6328L63.6133 52.4414L62.0195 50.4492L61.9844 50.3906L61.9375 50.332L60.5898 48.2227L60.0742 47.6836L59.9102 47.9062ZM57.9336 104.022L57.8008 105.672L57.918 108.18H57.9297L58.1055 110.816V110.91L58.1172 113.547L58.1289 113.641L58.1172 113.734L58.0381 114.392L58.7422 114.297L58.8945 114.273L59.0469 114.285L61.6836 114.438L61.7188 114.449H61.7539L61.7891 114.452L62 114.429L62.1055 113.477V110.922L61.9414 108.379V108.367L61.9297 108.355L61.8125 105.707L61.8008 105.613L61.8125 105.531L61.9336 103.895H59.9219L57.9336 104.022ZM53.6211 104.406V104.535L53.5156 107.172V107.242L53.2812 109.891L53.3281 112.363V112.387L53.3516 114.156L53.7432 114.386L55.0078 114.357L55.1055 113.477V110.922L54.9414 108.379V108.367L54.9297 108.355L54.8125 105.707L54.8008 105.613L54.8125 105.531L54.9121 104.178L54.707 104.188L54.6133 104.199L54.5312 104.188L53.6094 104.119L53.6211 104.406ZM65.3828 104.152L65.207 104.176L65.0312 104.164L64.9229 104.152L64.8008 105.672L64.918 108.18H64.9297L65.1055 110.816V110.91L65.1172 113.547L65.1289 113.641L65.1172 113.734L65.0518 114.277L66.2344 114.354L66.5586 113.969L66.4414 111.918V111.801L66.4531 111.672L66.7344 109.27L66.2773 106.844L66.2422 106.656L66.2539 106.469L66.416 104.024L65.3828 104.152ZM29.207 92.1328L30.7773 94.1367L30.8359 94.207L30.8828 94.2891L31.7383 95.7188H32.9219L32.6992 97.418L32.4648 99.0938L32.3828 101.66L32.4883 104.18V104.227L32.5117 106.863L32.5234 108.199L31.1992 108.363L28.668 108.68L28.5391 108.703L28.4102 108.691L25.7734 108.574L24.8828 108.527L24.4961 107.742L23.5703 105.867L23.4062 105.539L23.418 105.188L23.4414 102.539V102.492L23.4531 102.434L23.6641 99.9609L23.3828 97.4414L23.3359 96.9844L23.5469 96.5742L24.8125 94.207L24.918 94.0078L25.082 93.8438L26.9805 91.9922L28.1758 90.8203L29.207 92.1328ZM93.207 92.1328L94.7773 94.1367L94.8359 94.207L94.8828 94.2891L95.7383 95.7188H96.9219L96.6992 97.418L96.4648 99.0938L96.3828 101.66L96.4883 104.18V104.227L96.5117 106.863L96.5234 108.199L95.1992 108.363L92.668 108.68L92.5391 108.703L92.4102 108.691L89.7734 108.574L88.8828 108.527L88.4961 107.742L87.5703 105.867L87.4062 105.539L87.418 105.188L87.4414 102.539V102.492L87.4531 102.434L87.6641 99.9609L87.3828 97.4414L87.3359 96.9844L87.5469 96.5742L88.8125 94.207L88.918 94.0078L89.082 93.8438L90.9805 91.9922L92.1758 90.8203L93.207 92.1328ZM27.3555 95.8125L26.4297 97.5703L26.6641 99.75L26.6758 99.9023L26.6641 100.043L26.4414 102.691L26.418 104.848L26.793 105.609L28.4336 105.68L29.5 105.551L29.4883 104.297L29.3828 101.66V101.543L29.4766 98.9062L29.4883 98.8359V98.7656L29.6055 97.9688L28.3516 95.8828L27.8828 95.2969L27.3555 95.8125ZM91.3555 95.8125L90.4297 97.5703L90.6641 99.75L90.6758 99.9023L90.6641 100.043L90.4414 102.691L90.418 104.848L90.793 105.609L92.4336 105.68L93.5 105.551L93.4883 104.297L93.3828 101.66V101.543L93.4766 98.9062L93.4883 98.8359V98.7656L93.6055 97.9688L92.3516 95.8828L91.8828 95.2969L91.3555 95.8125ZM59.5859 90.3906L57.7344 91.668L55.9766 93.2383H55.9648L54.3242 95.0195L53.3398 96.8711L53.4805 99.0859V99.1797L53.5059 101.104L54.6719 101.199L57.1797 101.082V101.07L59.8164 100.895H59.9102L62.5469 100.883L62.6406 100.871L62.7227 100.883L65.1719 101.164L66.458 100.998L66.5117 98.6172V98.5938L66.5703 97.0234L65.4453 95.1367L63.8867 93.3086L62.1641 91.5156L60.6406 90.25L59.5859 90.3906ZM60 96.9414L61.1836 96.2383L61.3594 96.543L61.4883 96.7539L61.5352 96.9883L61.6641 97.5859L61.7578 98.0312L61.5938 98.4414L61.3945 98.9453L60.2695 98.5H58.5V98.125L58.6055 97.8555L58.6289 97.8086L58.5938 97.7617L57.2695 95.5H60V96.9414ZM13.4883 65.6289L13.5586 68.2773L13.5703 68.3594L13.5586 68.4414L13.3477 70.9375L13.582 73.4688V73.5039L13.7461 76.1406L13.7578 76.3047L13.7344 76.457L13.3594 78.9766L13.4531 81.4727V81.6133L13.2891 84.1445L13.4248 86.0977L14.6719 86.1992L16.1318 86.1309L16.0703 85.2227V85.1055L16.082 82.4688L16.0586 79.9609L15.8359 77.3242L15.8242 77.1836L15.8359 77.0312L16.1055 74.5V71.9219L15.9414 69.3789V69.3672L15.9297 69.3555L15.8125 66.707L15.8008 66.6133L15.8125 66.5312L15.8779 65.6348L14.707 65.6875L14.6133 65.6992L14.5312 65.6875L13.4766 65.6055L13.4883 65.6289ZM77.4883 65.6289L77.5586 68.2773L77.5703 68.3594L77.5586 68.4414L77.4775 69.3965L77.6289 71.8359V71.9297L77.6172 72.0352L77.5391 73.0088L77.582 73.4688V73.5039L77.7461 76.1406L77.7578 76.3047L77.7344 76.457L77.707 76.6377L77.7578 77.0039L77.7695 77.1094V77.2266L77.7227 79.8633V79.9805L77.6992 80.0977L77.4531 81.5469V81.6133L77.2891 84.1445L77.4092 85.8799L77.4385 86.0986L78.6719 86.1992L80.1133 86.1309L80.0703 85.1875V85.1055L80.082 82.4688L80.0586 79.9609L79.8359 77.3242L79.8242 77.1836L79.8359 77.0312L80.1055 74.5V71.9219L79.9414 69.3789V69.3672L79.9297 69.3555L79.8125 66.707L79.8008 66.6133L79.8125 66.5312L79.8779 65.6348L78.707 65.6875L78.6133 65.6992L78.5312 65.6875L77.4766 65.6055L77.4883 65.6289ZM103.801 65.6719L103.918 68.1797H103.93L104.105 70.8164V70.9102L104.117 73.5469L104.129 73.6406L104.117 73.7227L103.836 76.2305L104.047 78.7148L104.059 78.7617V78.8203L104.082 81.4688V81.4922L104.07 84.0469L104.156 86.0068L105.051 86.0117H105.098L106.562 86.0693L106.445 84.9531V84.8945L106.281 82.2461V82.1055L106.293 81.9531L106.633 79.4805L106.598 76.9141V76.8438L106.656 74.207L106.668 71.5938V71.5703L106.715 69.0977L106.48 66.4492V66.4375L106.363 65.5586L104.98 65.5117V65.5L103.814 65.4941L103.801 65.6719ZM39.8008 66.6719L39.918 69.1797H39.9297L40.1055 71.8164V71.9102L40.1172 74.5469L40.1289 74.6406L40.1172 74.7227L39.8359 77.2305L40.0469 79.7148L40.0586 79.7617V79.8203L40.082 82.4688V82.4922L40.0703 85.0469L40.1123 86.0068L41.0508 86.0117H41.0977L42.417 86.0645L42.4297 84.6484L42.2812 82.2461V82.1055L42.293 81.9531L42.543 80.1289L42.3906 78.7266L42.3789 78.6445V78.5508L42.3906 75.9141V75.8203L42.5664 73.1836L42.6787 70.9951L42.6865 70.5654L42.5547 68.8125L41.6875 68.2148L42.54 67.125L42.4805 66.4492V66.4375L42.3633 65.5586L40.9805 65.5117V65.5L39.8955 65.4941L39.8008 66.6719ZM35.209 65.3262L34.9688 65.4609L34.6289 65.6484H34.2539L31.6289 65.6602V65.6719L28.9805 65.707L28.9102 65.7188L28.8281 65.707L26.8652 65.5264L25.3242 65.6641L25.1836 65.6758L25.0312 65.6641L22.792 65.415L21.1055 65.4844L20.2617 65.5195L20.1768 65.3926L19.9219 65.3945V65.3828L18.8984 65.4531L18.8008 66.6719L18.918 69.1797H18.9297L19.1055 71.8164V71.9102L19.1172 74.5469L19.1289 74.6406L19.1172 74.7227L18.8359 77.2305L19.0469 79.7148L19.0586 79.7617V79.8203L19.082 82.4688V82.4922L19.0703 85.0234L19.127 85.9404L19.8164 85.8945H19.9102L22.5469 85.8828L22.6406 85.8711L22.7227 85.8828L23.6279 85.9834L23.5703 85.8672L23.4062 85.5391L23.418 85.1875L23.4414 82.5391V82.4922L23.4531 82.4336L23.6641 79.9609L23.3828 77.4414L23.3359 76.9844L23.5469 76.5742L24.8125 74.207L24.918 74.0078L25.082 73.8438L26.9805 71.9922L28.1758 70.8203L29.207 72.1328L30.7773 74.1367L30.8359 74.207L30.8828 74.2891L31.7383 75.7188H32.9219L32.6992 77.418L32.4648 79.0938L32.3828 81.6602L32.4883 84.1797V84.2266L32.5029 85.9268L33.0469 85.9297L35.6953 85.8125L35.7773 85.8008L35.8594 85.8125L37.1025 85.8945L37.0703 85.1875V85.1055L37.082 82.4688L37.0586 79.9609L36.8359 77.3242L36.8242 77.1836L36.8359 77.0312L37.1055 74.5V71.9219L36.9414 69.3789V69.3672L36.9297 69.3555L36.8125 66.707L36.8008 66.6133L36.8125 66.5312L36.8965 65.3809L35.7188 65.3008L35.209 65.3262ZM99.209 65.3262L98.9688 65.4609L98.6289 65.6484H98.2539L95.6289 65.6602V65.6719L92.9805 65.707L92.9102 65.7188L92.8281 65.707L90.8652 65.5264L89.3242 65.6641L89.1836 65.6758L89.0312 65.6641L86.792 65.415L85.1055 65.4844L84.2617 65.5195L84.1768 65.3926L83.9219 65.3945V65.3828L82.8984 65.4531L82.8008 66.6719L82.918 69.1797H82.9297L83.1055 71.8164V71.9102L83.1172 74.5469L83.1289 74.6406L83.1172 74.7227L82.8359 77.2305L83.0469 79.7148L83.0586 79.7617V79.8203L83.082 82.4688V82.4922L83.0703 85.0469L83.1094 85.9414L83.8164 85.8945H83.9102L86.5469 85.8828L86.6406 85.8711L86.7227 85.8828L87.6279 85.9834L87.5703 85.8672L87.4062 85.5391L87.418 85.1875L87.4414 82.5391V82.4922L87.4531 82.4336L87.6641 79.9609L87.3828 77.4414L87.3359 76.9844L87.5469 76.5742L88.8125 74.207L88.918 74.0078L89.082 73.8438L90.9805 71.9922L92.1758 70.8203L93.207 72.1328L94.7773 74.1367L94.8359 74.207L94.8828 74.2891L95.7383 75.7188H96.9219L96.6992 77.418L96.4648 79.0938L96.3828 81.6602L96.4883 84.1797V84.2266L96.5029 85.9268L97.0469 85.9297L99.6953 85.8125L99.7773 85.8008L99.8594 85.8125L101.153 85.8975L101.07 84.1875V84.1055L101.082 81.4688L101.059 78.9609L100.836 76.3242L100.824 76.1836L100.836 76.0312L101.105 73.5V70.9219L100.941 68.3789V68.3672L100.93 68.3555L100.812 65.707L100.801 65.6133L100.812 65.5312L100.823 65.376L99.7188 65.3008L99.209 65.3262ZM27.3555 75.8125L26.4297 77.5703L26.6641 79.75L26.6758 79.9023L26.6641 80.043L26.4414 82.6914L26.418 84.8477L26.793 85.6094L28.4336 85.6797L29.5 85.5508L29.4883 84.2969L29.3828 81.6602V81.543L29.4766 78.9062L29.4883 78.8359V78.7656L29.6055 77.9688L28.3516 75.8828L27.8828 75.2969L27.3555 75.8125ZM91.3555 75.8125L90.4297 77.5703L90.6641 79.75L90.6758 79.9023L90.6641 80.043L90.4414 82.6914L90.418 84.8477L90.793 85.6094L92.4336 85.6797L93.5 85.5508L93.4883 84.2969L93.3828 81.6602V81.543L93.4766 78.9062L93.4883 78.8359V78.7656L93.6055 77.9688L92.3516 75.8828L91.8828 75.2969L91.3555 75.8125ZM61.7383 61.582L64.2227 62.6602L64.457 62.7539L64.6445 62.9297L66.6133 64.7578L66.8125 64.9453L66.9297 65.2031L68.1016 67.6055L68.1953 67.793L68.2422 68.0039L68.6289 70.2422L68.9336 72H68.1367L67.8203 73.3594L67.7734 73.5469L67.6914 73.7109L66.4961 76.0078L66.3789 76.2305L66.1914 76.4062L64.2812 78.2109L64.0469 78.4336L63.7539 78.5391L61.2461 79.4297L60.9062 79.5586L60.5547 79.5117L57.9414 79.1953L57.707 79.1484L55.1875 78.4219L54.8828 78.3281L54.6367 78.1172L52.6094 76.3945L52.3984 76.2188L52.2695 75.9727L51.0039 73.6406L50.8984 73.4414L50.8516 73.2188L50.3359 70.582L50.2656 70.2422L50.3594 69.9023L51.0742 67.3242L51.1328 67.1133L51.25 66.9258L52.6562 64.6992L52.8086 64.4531L53.043 64.2891L55.1641 62.7656L55.3281 62.6484L55.5156 62.5664L57.9648 61.6758L58.1875 61.6055L58.4102 61.5938L61.082 61.4648L61.4219 61.4531L61.7383 61.582ZM58.7969 64.5703L56.7461 65.3086L55.0117 66.5625L53.8867 68.3438L53.3359 70.3594L53.7461 72.4102L54.7656 74.2969L56.3242 75.6211L58.4219 76.2305L60.543 76.4883L62.4297 75.8203L63.9297 74.4141L64.9375 72.4922L65.4648 70.2305L65.5234 69.9492L65.3125 68.7305L64.3516 66.7617L62.793 65.3086L60.8828 64.4766L58.7969 64.5703ZM60 69.9414L61.1836 69.2383L61.3594 69.543L61.4883 69.7539L61.5352 69.9883L61.6641 70.5859L61.7578 71.0312L61.5938 71.4414L61.3945 71.9453L60.2695 71.5H58.5V71.125L58.6055 70.8555L58.6289 70.8086L58.5938 70.7617L57.2695 68.5H60V69.9414ZM27.3633 40.3594L27.3281 40.4297L27.293 40.4883L25.8281 42.6914L24.8555 44.1562L23.5547 42.9609L22.1484 41.6484L21.9961 41.5078L21.8906 41.3438L21.5977 40.8516L21.5625 41.3555V41.3789L21.3867 44.0156V46.5L21.6562 49.0312L21.6797 49.1836L21.668 49.3242L21.4453 51.8438V51.8555L21.4102 54.4922L21.4336 57.1055V57.1523L21.4219 57.1875L21.3047 59.6953L21.457 61.8984L21.7783 62.3857L22.5469 62.3828L22.6406 62.3711L22.7227 62.3828L22.9268 62.4053L23.6133 62.3789H23.7305L26.3789 62.4844H26.4492L26.8975 62.5215L27.7148 62.4531L27.7617 62.4414H27.8203L30.4688 62.418H30.4922L33.0469 62.4297L34.3584 62.3711L34.6172 62.2266L34.6523 60.5742L34.3008 58.043L34.2773 57.9023L34.2891 57.75L34.4414 55.1133V55.043L34.7109 52.5703L34.4297 50.0859L34.418 49.957V49.8281L34.582 47.2617L34.4414 44.7188V44.5898L34.4531 44.4609L34.7344 42.0586L34.5469 41.0508L33.3164 42.8672L32.1797 44.5547L30.9023 42.9844L29.6016 41.3672L27.9141 39.5508L27.832 39.4922L27.3633 40.3594ZM91.3633 40.3594L91.3281 40.4297L91.293 40.4883L89.8281 42.6914L88.8555 44.1562L87.5547 42.9609L86.1484 41.6484L85.9961 41.5078L85.8906 41.3438L85.5977 40.8516L85.5625 41.3555V41.3789L85.3867 44.0156V46.5L85.6562 49.0312L85.6797 49.1836L85.668 49.3242L85.4453 51.8438V51.8555L85.4102 54.4922L85.4336 57.1055V57.1523L85.4219 57.1875L85.3047 59.6953L85.457 61.8984L85.7783 62.3857L86.5469 62.3828L86.6406 62.3711L86.7227 62.3828L86.9268 62.4053L87.6133 62.3789H87.7305L90.3789 62.4844H90.4492L90.8975 62.5215L91.7148 62.4531L91.7617 62.4414H91.8203L94.4688 62.418H94.4922L97.0469 62.4297L98.3584 62.3711L98.6172 62.2266L98.6523 60.5742L98.3008 58.043L98.2773 57.9023L98.2891 57.75L98.4414 55.1133V55.043L98.7109 52.5703L98.4297 50.0859L98.418 49.957V49.8281L98.582 47.2617L98.4414 44.7188V44.5898L98.4531 44.4609L98.7344 42.0586L98.5469 41.0508L97.3164 42.8672L96.1797 44.5547L94.9023 42.9844L93.6016 41.3672L91.9141 39.5508L91.832 39.4922L91.3633 40.3594ZM27.1406 44H30V44.2109L29.8008 46.6719L29.918 49.1797H29.9297L30.1055 51.8164V51.9102L30.1172 54.5469L30.1289 54.6406L30.1172 54.7227L29.8359 57.1719L30.0469 58.8125L30.2578 60.5H28.5V59.0117L27.0703 59.1875L26.8477 57.3828L26.8242 57.207L26.8359 57.0312L27.1055 54.5V51.9219L26.9414 49.3789V49.3672L26.9297 49.3555L26.8125 46.707L26.8008 46.6133L26.8125 46.5312L27 43.9883L27.1406 44ZM91.1406 44H94V44.2109L93.8008 46.6719L93.918 49.1797H93.9297L94.1055 51.8164V51.9102L94.1172 54.5469L94.1289 54.6406L94.1172 54.7227L93.8359 57.1719L94.0469 58.8125L94.2578 60.5H92.5V59.0117L91.0703 59.1875L90.8477 57.3828L90.8242 57.207L90.8359 57.0312L91.1055 54.5V51.9219L90.9414 49.3789V49.3672L90.9297 49.3555L90.8125 46.707L90.8008 46.6133L90.8125 46.5312L91 43.9883L91.1406 44ZM27.875 21.9648V21.9766L27.3945 24.5664L27.3711 24.6602L26.7617 27.0742L26.6445 29.582V29.6523L26.6328 29.7344L26.2461 32.3477V32.4062L25.7539 35.0078L25.4258 37.4336L25.4316 37.6162L25.9805 36.5977L26.7773 35.1211L28.1602 36.082L29.7188 37.1602L29.8477 37.2539L29.9531 37.3711L30.498 37.9473L30.4648 35.6875L29.8438 33.2852L29.8203 33.1914L29.8086 33.0859L29.5156 30.543L28.625 25.3398L28.6367 25.3281L28.1445 22.7734L28.1211 22.7031V22.6328L28.0039 21.2852L27.875 21.9648ZM91.875 21.9648V21.9766L91.3945 24.5664L91.3711 24.6602L90.7617 27.0742L90.6445 29.582V29.6523L90.6328 29.7344L90.2461 32.3477V32.4062L89.7539 35.0078L89.4258 37.4336L89.4316 37.6162L89.9805 36.5977L90.7773 35.1211L92.1602 36.082L93.7188 37.1602L93.8477 37.2539L93.9531 37.3711L94.498 37.9473L94.4648 35.6875L93.8438 33.2852L93.8203 33.1914L93.8086 33.0859L93.5156 30.543L92.625 25.3398L92.6367 25.3281L92.1445 22.7734L92.1211 22.7031V22.6328L92.0039 21.2852L91.875 21.9648Z" fill="black"/>
</svg>
