<svg width="120" height="120" viewBox="0 0 120 120" fill="none" xmlns="http://www.w3.org/2000/svg">
<path d="M66.9697 69.0175L69.3838 70.1073L69.4658 70.1425L69.5361 70.1776L71.8096 71.5253L71.915 71.5839L72.0088 71.6542L73.9424 73.2714L76.1338 74.5956L76.2158 74.6425L76.2861 74.701L78.3604 76.33L78.3955 76.3651L78.4307 76.3885L80.3994 78.1346L82.3916 79.8807L82.4854 79.951L82.5674 80.0448L84.2666 82.0721H84.2549L85.9775 84.0526L86.0127 84.0995L86.0361 84.1464L87.6182 86.2557H87.6064L89.2236 88.2596L90.8994 90.3221L90.9814 90.4159L91.0283 90.5096L92.376 92.7948L92.3877 92.8182L92.4111 92.8417L93.665 95.1737L93.6885 95.2206L93.7002 95.2557L94.8135 97.6698H94.8018L95.915 100.06L95.9736 100.189L96.6182 102.767L97.6143 105.111L98.6572 107.56L98.7393 107.748L98.7744 107.947L99.1143 110.537L99.7236 112.986L99.7471 113.08L99.7588 113.174L100.052 115.646L100.263 116.42L98.8096 116.807L97.3564 117.182L97.1338 116.349L97.1104 116.256L97.0986 116.15L96.7822 113.607L96.1729 111.146L96.1494 110.982L95.8213 108.545L94.8604 106.295L93.8174 103.869L93.7705 103.752L93.7471 103.635L93.126 101.174L92.083 98.9237V98.912L91.0166 96.5917L89.7627 94.2714V94.2596L88.5088 92.1268L86.9033 90.1581L86.8916 90.1464L85.251 88.0956L85.2275 88.0721L85.2158 88.0487L83.6338 85.9393H83.6221L81.9814 84.0175H81.9697L81.958 84.0057L80.3408 82.0721L78.4307 80.3964L78.4189 80.3846L76.5088 78.6971L74.4814 77.1034L72.3135 75.7909L72.2197 75.7323L72.1377 75.662L70.1924 74.0331L68.0596 72.7909L66.2666 71.994L65.165 72.3573L63.3486 73.787L62.8682 74.162L62.2588 74.0917L62.165 74.08L62.3291 72.5917V72.4862L61.5088 71.4198L63.5361 69.826L63.7471 69.662L63.9932 69.58L65.8916 68.9706L66.4424 68.7831L66.9697 69.0175Z" fill="black"/>
<path d="M49.75 71.4216L49.7617 71.4333L49.7734 71.4568L51.4375 73.4841L51.5312 73.6248L51.9883 74.3513L52.8672 73.8826L54.6719 72.3123L54.707 72.2654L54.7539 72.2419L56.875 70.6248L57.3438 71.2341L57.9062 71.3982L59.3477 71.7966L59.2305 72.2302L59.0898 72.7224L58.6914 73.0271L56.6406 74.5505L54.707 76.2615L54.5781 76.3787L54.4375 76.4607L53.6172 76.8943L53.7109 77.0232L53.2891 77.199L53.6406 79.0623V79.1091L53.6523 79.1443L54.0039 81.7693L54.0273 81.8982L54.0156 82.0388L53.8984 84.6873L53.8867 84.8044L53.8633 84.9216L53.3242 87.5115L52.8086 90.0779L52.293 92.6208L52.3047 92.6326L51.8477 95.2341L51.8359 95.2693V95.3044L51.2617 97.7537L51.0625 100.074L51.5312 102.113L52.6445 104.34V104.351L52.6562 104.375L53.7344 106.66L53.8047 106.812L53.8398 106.988L53.8633 107.082L52.3984 107.398L51.9766 107.48L51.0273 107.949L49.9375 105.652V105.64L48.6953 103.156L48.6602 102.98L48.0859 100.508L48.0391 100.273L48.0625 100.039L48.2852 97.4138L48.2969 97.3083L48.3203 97.2029L48.9062 94.6365L49.3398 92.1169L49.3516 92.1052V92.0818L50.3828 86.9021V86.8904L50.8984 84.4529L51.0156 82.0271L50.6875 79.613L50.2773 77.3865L50.2422 77.3513L49.2578 76.156L49.4805 75.9802L49.1055 75.3826L47.4531 73.3552V73.3435L45.8242 71.4568L45.7891 71.4216L45.7656 71.3865L45.707 71.3044L48.0977 69.4998L49.75 71.4216Z" fill="black"/>
<path d="M53.9492 12.7344L56.2578 14.0586L58.4141 15.3125L57.793 16.3438L57.7578 16.625L57.5234 18.1016L57.4297 18.0898L57.1484 18.043L56.9023 17.9023L54.7578 16.6484L52.9297 15.6055L50.9492 16.0156L50.9375 16.0039L48.3594 16.5664L48.125 16.6133L47.8789 16.5898L45.9336 16.3672L44.7383 17.5742L43.4375 19.625L43.0039 20.3047L42.1953 20.3281L40.4023 20.3516L39.1953 20.7852L38.8086 22.5078L38.6445 24.7812L39.0195 27.1367L39.7461 29.5156L39.8281 29.8086L39.793 30.1133L39.5352 32.3281L40.2266 34.0977L41.6211 36.1367L41.6914 36.2539L41.75 36.3711L42.7695 38.668H42.7578L43.25 39.7695L44.1289 41.7266L41.9844 41.8789L39.6406 42.0195L37.1797 42.2656L34.8711 43.1211L34.8125 43.1328L34.7539 43.1562L32.4219 43.8008L30.3828 45.0664L30.3945 45.0781L28.4258 46.3672L27.0664 48.2773L26.9844 48.3828L26.9023 48.4766L25.2031 50.1406L24.5352 51.8164L25.1445 53.5039L26.5977 55.2031L28.4492 56.7734L30.5586 58.1328H30.5703L30.5938 58.1445L32.5742 59.4805L34.9648 60.1016L35.5391 60.2539L35.8555 60.7461L37.3086 62.9844L37.4727 63.2305L37.5195 63.5117L37.9883 65.8906L38.2344 66.6172L39.5 66.3594L40.168 66.2188L40.7188 66.6406L41.8906 67.543L43.0391 68.4336L42.1836 69.6055L40.6484 71.7266L40.5078 71.9258L40.3086 72.0664L38.9375 73.0391L39.418 74.5742L39.4414 74.6445L39.4531 74.7148L39.9336 77.1172L40.918 79.1445L42.5 80.7617L44.2344 81.8633L45.8281 82.8711L44.4805 84.1953L42.8633 85.7891L42.3125 87.7695L42.125 89.9727L42.793 92.1875L43.6016 94.5781L44.6211 97.0273L44.7266 97.2617L44.7383 97.5195L44.8906 100.098V100.297L44.8555 100.484L44.3633 102.863L44.4805 105.043L44.8086 105.617L43.4961 106.355L42.1953 107.094L41.6914 106.215L41.5273 105.91L41.5039 105.559L41.3633 102.875L41.3516 102.688L41.3867 102.5L41.8672 100.062L41.75 97.9414L40.8359 95.75L40.8125 95.6914L40.7891 95.6445L39.9453 93.1484L39.9336 93.125V93.1016L39.1719 90.5703L39.0898 90.3008L39.1133 90.0195L39.3359 87.4062L39.3477 87.2656L39.3828 87.1367L40.0977 84.5938L40.2031 84.2188L40.4844 83.9375L41.0234 83.3867L40.7305 83.1992L40.5898 83.1055L40.4609 82.9766L38.5977 81.0781L38.4219 80.9023L38.3164 80.6797L37.1562 78.2773L37.0742 78.1016L37.0391 77.9141L36.5234 75.3828L35.7617 72.8984L35.4453 71.8672L36.3242 71.2461L38.3633 69.7812L38.4688 69.6172L37.5547 69.8164L36.2656 70.0859L35.832 68.8438L35.1406 66.8281L35.1055 66.7227L35.082 66.6289L34.625 64.3672L33.6406 62.8555L31.5898 62.3281L31.3438 62.2695L31.1211 62.1172L28.918 60.6406V60.6289L26.7383 59.2344L26.6445 59.1875L26.5742 59.1172L24.5703 57.418L24.4766 57.3359L24.3945 57.2422L22.6836 55.2266L22.5078 55.0273L22.4141 54.7695L21.5234 52.2969L21.3359 51.7578L21.5469 51.2305L22.543 48.7344L22.6602 48.4414L22.8828 48.2305L24.6875 46.4375L26.1523 44.4102L26.3047 44.1758L26.5391 44.0234L28.7422 42.5703L28.7539 42.5586H28.7656L31.0039 41.1406L31.1914 41.0234L31.4023 40.9648L33.8633 40.2734L36.3242 39.3945L36.5 39.3242L36.6875 39.3125L39.3594 39.043H39.4062L39.6406 39.0195L39.0547 37.707L37.6367 35.6094L37.543 35.4688L37.4844 35.3164L36.6172 33.0781L36.4766 32.7383L36.5234 32.3633L36.7812 30.0664L36.125 27.9102L36.0781 27.7227L35.6562 25.1094L35.6328 24.9336L35.6445 24.7461L35.8438 22.1211L35.8555 22.0156L35.8789 21.9102L36.4531 19.3203L36.6406 18.5117L37.4258 18.2305L39.6641 17.4453L39.8984 17.3633H40.1328L41.3281 17.3398L42.2891 15.8398L42.3828 15.7109L42.4883 15.5938L44.3164 13.7539L44.8203 13.2383L45.5469 13.3203L47.9609 13.5898L50.3398 13.0742H50.3516L52.9062 12.5586L53.457 12.4531L53.9492 12.7344Z" fill="black"/>
<path d="M60.1807 15.6296L61.833 17.3875L62.0088 17.5867L62.1143 17.8328L63.1338 20.2468L64.3057 22.532L64.8682 23.6453L63.8838 24.407L61.8447 25.9773L61.3291 26.364L60.6846 26.2703L58.2354 25.8718L57.7432 25.7898L57.4033 25.4382L56.1025 24.1023L54.626 24.3484L54.6377 24.3601L52.2119 24.8875L50.7705 25.6023L49.9033 27.4304L49.6221 28.0164L48.9893 28.2156L46.9385 28.8367L45.7549 30.4773L44.4189 32.7859L44.1963 33.1726L43.8096 33.3718L41.4072 34.6257L40.9502 34.8601L40.4346 34.7664L39.8018 34.6492L40.083 33.1726L40.2354 32.364L40.0244 31.9656L40.3408 31.7898L40.3643 31.696L40.4932 31.7195L42.0283 30.9109L43.165 28.9773L43.2002 28.907L43.2354 28.8484L44.7939 26.6921L45.0869 26.2703L45.5674 26.1296L47.4775 25.532L48.2979 23.8328L48.5205 23.3757L48.9893 23.1414L51.04 22.1218L51.2041 22.0398L51.3799 22.0046L53.9932 21.4304L54.0283 21.4187H54.0635L56.3955 21.0203L57.1689 20.8796L57.7197 21.4539L59.1963 22.9773L60.5205 23.2L61.0596 22.7781L60.4268 21.5242L60.3799 21.4304L59.4424 19.2156L58.6221 18.3601L57.251 18.782L56.2432 19.0984L55.6104 18.2546L55.5518 18.1726L56.7471 17.2703L56.7822 17.2351L56.3721 15.9226L58.6338 15.2195L59.5361 14.9382L60.1807 15.6296Z" fill="black"/>
<path d="M54.1416 42.1219L54.2471 42.1336L56.8018 42.4266L57.1768 42.4734L57.4932 42.6961L59.626 44.2078L60.0127 44.4891L60.1768 44.9227L61.0791 47.4305L61.1494 47.6297L61.1611 47.8406L61.3252 50.3367L61.9814 52.3992L63.3994 54.2274L63.4697 54.3211L64.9229 56.5477L64.9697 56.6063L65.0049 56.6766L66.2236 59.0203L66.2588 59.0789L66.2939 59.1492L67.1963 61.4109L68.5557 63.6141L68.8721 64.1297L68.7432 64.7156L68.2158 67.1649L68.1689 67.4109L68.04 67.6336L66.6807 69.8836H66.6689L65.2979 72.1336L64.9346 72.7313L64.2549 72.8367L63.9619 72.8836L63.7393 71.407L63.6924 71.1609L62.7314 70.575L64.1025 68.325L65.333 66.2625L65.6846 64.6688L64.6182 62.9461L64.5479 62.8406L64.501 62.7234L63.5049 60.2742V60.2625L62.415 58.1883L60.9619 55.9734H60.9502L59.4502 54.0516L59.2861 53.8289L59.2041 53.5711L58.4072 51.0399L58.3604 50.8758L58.3486 50.6883L58.1846 48.2625L57.5049 46.3758L56.0752 45.368L54.0127 45.1219L52.1143 45.1805L51.5986 45.2039L51.1768 44.8992L51.0947 44.8406L51.9854 43.6219L52.0557 43.5164L52.0205 42.1922L54.0244 42.1219H54.1416Z" fill="black"/>
<path d="M62.4912 71.4841L62.5381 71.5662L62.5732 71.6482L63.5225 74.0857L63.5811 74.2029L63.6045 74.3318L64.1318 76.9216L64.167 77.0857V77.2615L64.1084 79.9099L64.0967 80.1091L64.0498 80.2966L63.3115 82.8396L62.7842 85.324L62.749 85.4646L62.6904 85.5935L61.7998 87.6794L62.0225 89.7185L62.0342 89.8474L62.0225 89.9646L61.8701 92.6248L61.8584 92.8123L61.7998 92.988L61.0029 95.531L60.2295 98.0388L60.2061 98.1091L59.3506 100.453L58.7178 102.914L58.4482 105.211L58.5303 105.621L59.8662 105.539H59.9014L62.5381 105.433L65.1279 105.258L65.2568 105.246L65.3857 105.258L67.8818 105.515L70.249 105.398L70.3193 106.816L70.3428 106.828L71.8311 106.922V106.98L71.7607 108.316L70.4248 108.386L67.9639 108.527L67.8467 108.539L67.7295 108.515L65.1865 108.246L62.7021 108.433H62.6553L60.042 108.527L57.417 108.703L56.1045 108.785L55.4131 105.328L55.4365 105.082L55.7529 102.469L55.7646 102.375L55.7881 102.281L56.4443 99.7146L56.4561 99.6443L56.4912 99.574L57.3818 97.0896L58.1436 94.6287V94.6169L58.8701 92.2732L59.0225 89.9412L58.7881 87.5974L58.7412 87.2107L58.8936 86.8591L59.8545 84.5857L60.4053 82.113L60.417 82.0662L60.4287 82.0076L61.1084 79.6404L61.1553 77.3904L60.6865 75.0818L59.8193 72.8318L58.6475 70.7224L58.5303 70.5232L58.4834 70.3005L58.4717 70.2068L59.9365 69.9021L60.2412 69.8435L61.2725 69.281L62.4912 71.4841Z" fill="black"/>
<path d="M35.4873 105.294L38.124 105.411L40.7256 105.528L43.3037 105.47H43.4443L43.585 105.481L46.0576 105.903L48.542 105.962L51.1318 105.809V105.798L53.7568 105.599L53.8154 105.587H53.8857L56.4287 105.61H56.5107L56.5342 108.61H56.4053L53.9678 108.587L51.3545 108.786H51.3428L48.6943 108.962H48.5654L45.917 108.891H45.8232L45.7178 108.868L43.2568 108.47L40.7256 108.528H40.6201L37.9834 108.411V108.399L35.4287 108.294L32.8623 108.423H32.7217L30.8701 108.341L29.5459 108.282L29.4404 106.958V106.946L30.9404 106.829V106.817L31.0107 105.352L32.8506 105.423L32.8389 105.434L35.3467 105.294H35.4873Z" fill="black"/>
<path d="M32.5205 47.4627L32.5439 47.5096L32.5674 47.5447L33.7627 49.6658L35.2744 51.7518L35.3096 51.7869L35.3213 51.8221L36.7627 54.0486L36.7744 54.0721L36.7861 54.0838L38.0518 56.1932L39.4111 57.6463L41.5557 58.0799L42.3057 58.2322L42.6221 58.9119L43.665 61.1268L43.8994 61.619L43.7705 62.1346L43.1377 64.701L42.6455 67.2088L42.5986 67.4549L42.4697 67.6776L42.2002 68.1463L40.8994 67.3963L39.5986 66.658L39.751 66.3651L40.208 64.0565V64.0213L40.2197 63.9744L40.7236 61.9119L40.2314 60.869L38.3682 60.5174L37.8877 60.4236L37.5479 60.0604L35.7549 58.1151L35.6494 58.0096L35.5674 57.869L34.2197 55.6424V55.6307L32.8486 53.5213L31.3018 51.3885L31.2549 51.3182L31.208 51.2361L29.9541 49.0213L32.4619 47.3807L32.5205 47.4627Z" fill="black"/>
<path d="M54.9043 46.9492L55.0566 47.2891L55.0449 47.6641L54.916 49.9375L55.6543 51.9062L57.1777 53.7109L58.9004 55.7266L59.0527 55.9023L59.1348 56.1133L60.1777 58.5391L60.1895 58.5625L60.2012 58.5977L61.1387 61.0586L61.209 61.2227L61.2324 61.4102L61.5488 64.0352L61.5605 64.1523V64.2812L61.502 65.5703L58.502 65.4297L58.5488 64.2578L58.2559 61.9258L57.4238 59.7227L56.4629 57.4961L54.8926 55.668V55.6562H54.8809L53.1934 53.6289L53.0293 53.4297L52.9355 53.1953L51.998 50.6992L51.8926 50.4062L51.9043 50.0898L52.0449 47.5117L53.334 47.5703L53.498 47.5L54.8574 46.8555L54.9043 46.9492Z" fill="black"/>
<path d="M60.6504 25.5501L61.3066 25.6439L62.1387 25.6673L62.1152 28.1868L62.1035 28.3743L62.0566 28.5501L61.4121 31.011L61.377 31.1634L61.3066 31.2923L60.6621 32.6048L61.4238 34.4212L61.7988 35.3353L61.1191 36.0384L59.3965 37.8079L58.2246 39.9876L58.166 40.0931L58.084 40.1868L56.4551 42.2845L56.3027 42.472L56.1035 42.6126L53.9004 44.0775L53.6074 44.2767L53.2559 44.3118L50.6191 44.64L50.3145 44.6868L50.0098 44.5931L47.4668 43.8431L47.2441 43.7845L47.0566 43.6439L46.5996 43.3509L47.4434 42.1087L48.2871 40.8548L48.5566 41.0423L50.5371 41.6165L52.5293 41.3704L54.2285 40.2337L55.6582 38.4056L56.8535 36.2259L56.9473 36.0384L57.0879 35.8978L58.2598 34.6673L57.6387 33.1556L57.3691 32.5228L57.6738 31.9134L58.5527 30.0735L59.1152 27.9525L59.1387 25.6321V25.5267L59.1621 25.3157L60.6504 25.5501Z" fill="black"/>
<path d="M39.002 48.6366L39.6816 49.5272L39.9395 49.8085L38.2754 51.3202L38.252 51.3436L36.541 52.8553L36.377 52.996L36.1777 53.0897L35.0996 53.5936L33.2363 54.4491L32.9785 52.4218L32.9668 52.3163L34.4199 52.1171L33.834 50.8632L34.7012 50.453L36.248 49.1053L37.9121 47.5936L37.959 47.5468L38.0059 47.5116L38.0879 47.4413L39.002 48.6366Z" fill="black"/>
</svg>
