<svg width="120" height="120" viewBox="0 0 120 120" fill="none" xmlns="http://www.w3.org/2000/svg">
<path d="M32.6924 4H35.54V4.21094L35.3408 6.67188L35.4697 9.17969L35.6455 11.8164V11.9102L35.6572 14.5469L35.6689 14.6406L35.6572 14.7227L35.376 17.2305L35.5869 19.7148L35.5986 19.7617V19.8203L35.6123 21.3877L36.251 21.3701L36.708 22.0615L38.0205 24.0537L38.208 24.3584L38.2549 24.71L38.5479 27.2295L39.04 29.8311L39.0752 29.9951L39.0635 30.1709L38.9463 32.6787L39.1807 35.1514L39.6143 37.7646V37.7881L39.626 37.8115L39.9775 40.4248L39.9893 40.542V40.6592L39.957 42.0264L41.9004 42.0615H42.0176L44.6777 42.3076L45.4277 42.3779L45.8145 43.0225L47.1035 45.1436L47.3848 45.6123L47.3027 46.1514L46.9043 48.6826L46.834 49.1045L46.541 49.4326L44.8184 51.3896L44.584 51.6475L44.4785 51.6895L44.5352 53.417V53.5928L44.5 53.7686L43.9961 56.2061L43.8086 57.1084L42.9297 57.3545L40.4805 58.0342L40.3398 58.0811H40.1875L39.3936 58.1406L39.4219 59.5674L39.8086 62.1221H39.7969L40.2422 64.7002L40.2539 64.7471V64.7939L40.5352 67.4189V67.5947L40.5117 70.0908L40.9688 72.5635L40.9805 72.6221V72.6807L41.2617 75.3057V75.3408L41.4844 77.8838L41.8594 80.4971L41.8828 80.6611L41.9648 83.3096L42.1992 85.8408V85.8643L42.2109 85.8994L42.3516 88.4189L42.6914 90.9736L43.1602 93.5869L43.1836 93.751L43.3477 96.3525L43.582 98.9775L43.7812 101.438L43.9492 101.941L45.499 100.217L45.6279 100.076L45.7803 99.9824L47.9717 98.4941L48.1357 98.4004L50.4912 97.2051L50.6201 97.1348L50.749 97.0996L53.3037 96.3496L53.5029 96.291H53.7139L56.3389 96.2676V96.2559L58.9756 96.1621H59.0342L61.6357 96.1855L64.2373 96.1152V96.1035L64.3008 96.1006L64.5117 93.6182L64.4766 90.9697V90.8643L64.6406 88.3564L64.3828 85.8252L64.3594 85.6611L64.3828 85.5088L64.6758 82.9658L64.6641 80.5049L64.2305 77.9971L64.2188 77.8799V77.7627L64.1953 75.126V75.0557L64.207 74.9854L64.4297 72.5244L64.043 70.0752L64.0078 69.8994L64.0195 69.7354L64.2188 67.1689L63.9609 64.708L63.9375 64.4736L63.9844 64.251L64.5 61.7197V59.3643L64.0898 56.8799L63.9258 55.8486L64.8281 55.333L66.9258 54.1377L67.3125 53.915L67.7578 53.9385L70.207 54.0908L72.5977 53.5049L72.8438 53.4463L73.0898 53.4814L75.7148 53.7393L78.1875 53.6924V53.6807L80.8242 53.5869H80.8477L83.4844 53.54H86.0859L88.7344 53.4229L88.9336 53.4111L89.1328 53.4463L91.5703 53.9971L93.9961 53.8447L94.1602 53.833L94.3242 53.8564L96.9258 54.2666L97.7109 54.3955L98.0391 55.1221L98.9648 57.0908L99.1406 57.4775L99.0938 57.8994L98.8125 60.3721L99.0703 62.8447L99.082 62.8799V62.915L99.2344 65.5518L99.2461 65.7041L99.2227 65.8564L98.8711 68.376L98.9297 70.8955V70.9541L98.8711 73.6025L98.8594 76.2158V76.2275L98.8125 78.8643L99.0352 81.3486V81.3955L99.0469 81.4307L99.1406 84.0674V84.1846L99.0352 86.833L99.0117 89.4229V89.4697L99 89.5049L98.8242 92.0713L98.9531 94.6143V94.6963L98.9297 97.333L98.9648 99.8408L99.1875 102.478L99.1992 102.63L99.1875 102.771L98.8945 105.407L98.918 107.88L99.082 110.423V110.446L99.0938 110.458L99.2109 113.095L99.2227 113.188L99.2109 113.282L99.1094 114.659L100.273 114.711L102.793 114.277L102.91 114.266H103.027L105.664 114.242H105.816L105.969 114.266L108.406 114.746L110.809 114.5L110.891 114.488H110.973L112.016 114.5L112.004 116L111.98 117.5L110.984 117.488L108.477 117.746L108.254 117.77L108.031 117.734L105.57 117.242L103.145 117.254L100.648 117.688L100.496 117.711L100.332 117.699L97.6953 117.594H97.625L97.5547 117.582L95.1523 117.242L92.7617 117.711L92.5273 117.758L92.293 117.734L89.7383 117.406L87.207 117.418L87.1953 117.406L84.6055 117.488H84.5938L81.957 117.547H81.9336L79.3672 117.559L79.3789 117.57L76.7422 117.746L76.5547 117.758L73.9297 117.266L71.5391 117.547L71.4102 117.559H71.2812L68.7266 117.418L66.1719 117.582H66.043L65.9141 117.57L63.418 117.289L60.957 117.559H60.8867L58.25 117.711L58.0977 117.723L57.957 117.699L55.4141 117.348L52.9062 117.406H52.8477L50.2109 117.348V117.336H47.5742L44.9492 117.289L42.4531 117.512L42.418 117.523H42.3711L39.7344 117.617H39.6172L36.9805 117.512V117.5L34.3906 117.488H34.3438L34.2969 117.477L31.7188 117.301L29.1875 117.43H29.1055L26.4688 117.418V117.406L23.9609 117.43L21.3242 117.664L21.1836 117.676L21.0312 117.664L18.5 117.383L15.9219 117.395V117.383L13.3789 117.559H13.3672L13.3555 117.57L10.707 117.688L10.6133 117.699L10.5312 117.688L7.98828 117.5L8 117.277V114.5H8.21094L10.6719 114.699L13.1797 114.582V114.57L15.8164 114.395H15.9102L18.5469 114.383L18.6406 114.371L18.7227 114.383L21.2305 114.664L23.1309 114.502L23.5176 112.173L23.4824 109.63V109.536L23.623 106.899L23.6348 106.747L23.6699 106.606L24.291 104.181L24.502 101.638L24.5137 101.603V101.567L24.8418 98.9775L25.1465 96.3525V96.3291L25.4629 93.7979L25.5098 91.2197V91.1494L25.6973 88.5127V88.4541L25.709 88.3955L26.0723 85.8291L26.3652 83.2158V83.1689L26.377 83.1221L26.8105 80.5205L26.916 78.0479L26.9277 78.0127V77.9775L27.1855 75.3525L27.373 72.8564L27.3965 70.208V70.0439L27.4316 69.8916L27.959 67.4541L28.2168 64.9463L28.2988 62.2979L28.3809 59.6611V59.5908L28.3926 59.5088L28.5742 58.1123L26.8047 57.9873L26.3359 57.9521L25.9727 57.6592L23.9219 56.0068L23.3711 55.5615L23.3594 54.8584L23.3125 52.1748V52.0459L23.3359 51.9053L23.4102 51.4541L21.498 49.7139L21.1699 49.4209L21.0527 48.9873L20.373 46.3975L20.1973 45.6826L20.6426 45.0967L22.2363 43.0342L22.6348 42.5303L23.2676 42.46L25.8809 42.1904L25.9863 42.1787H26.0918L28.2832 42.2676L28.4111 40.2021V40.1904L28.4229 40.1787L28.6221 37.5537V37.5186L28.9033 34.999L28.915 32.3857V32.3154L29.0674 29.6787V29.6201L29.0791 29.5732L29.3955 26.96L29.6416 24.3701L29.6885 23.7842L30.1338 23.3857L31.9033 21.8389L32.3135 21.4756L32.6191 21.4688L32.5986 19.9727L32.376 17.3242L32.3643 17.1836L32.376 17.0312L32.6572 14.5L32.6455 11.9219L32.4814 9.37891V9.36719L32.4697 9.35547L32.3525 6.70703L32.3408 6.61328L32.3525 6.53125L32.54 3.98828L32.6924 4ZM78.2441 112.65L78.209 112.662H78.1621L75.5254 112.756H75.4082L72.7715 112.65V112.639L70.1816 112.627H70.1348L70.0879 112.615L67.5098 112.439L64.9785 112.568H64.8965L62.2598 112.557V112.545L59.752 112.568L57.1152 112.803L56.9746 112.814L56.8223 112.803L54.291 112.521L51.7129 112.533V112.521L49.1699 112.697H49.1582L49.1465 112.709L46.498 112.826L46.4043 112.838L46.3223 112.826L44.8799 112.72L44.9131 113.002V113.037L44.9248 113.072L45.0088 114.289L47.6211 114.336L47.6094 114.348H50.2695L52.8711 114.406L55.4844 114.348H55.6133L55.7305 114.359L58.2148 114.723L60.7109 114.559V114.57L63.2891 114.289L63.4414 114.277L63.6055 114.289L66.0898 114.582L68.6328 114.43L68.7148 114.418L68.7969 114.43L71.3281 114.559L73.8242 114.266L74.0586 114.23L74.2812 114.277L76.7305 114.734L79.1797 114.582L79.2266 114.57H79.2617L81.8867 114.559V114.547L84.5234 114.488L87.1602 114.418H87.1953L88.6279 114.411L88.6123 114.139L88.4629 112.541L86.002 112.486V112.475H83.3652L80.7402 112.428L78.2441 112.65ZM86.2266 56.54H83.543L80.918 56.5752L80.9297 56.5869L78.2812 56.6807H78.2695L75.6211 56.7393H75.5391L75.4453 56.7275L73.0664 56.4814L70.6758 57.0557L70.4531 57.1025L70.2422 57.0908L68.0156 56.9619L67.2188 57.4072L67.4883 59.0361L67.5 59.165V62.0713L67.4648 62.2236L66.9609 64.626L67.0049 65.0596L67.1045 65.0977L69.46 64.9922H69.542L72.1553 65.0039L74.792 64.9688V64.9805L77.3232 64.7578L77.4756 64.7461L77.6162 64.7578L80.1357 65.0391H82.6318L85.2803 64.8633L85.3037 64.8516L87.9404 64.7344H90.5186V64.7227H90.6123L90.6592 67.7227H88.0693L88.0811 67.7344L85.4561 67.8398L85.4678 67.8516L82.8311 68.0273H82.7373L80.1006 68.0391H80.0186L79.9248 68.0273L77.4639 67.7461L74.9443 67.9688H74.8271L72.1904 68.0039H72.167L69.5889 67.9922L67.1553 68.1006L67.0195 69.8174L67.418 72.2432L67.4531 72.4189L67.4297 72.6064L67.2158 75.0146L69.4482 74.9033H69.5303L72.167 74.915L72.1553 74.9268L74.6748 74.9033V74.8916L77.3115 74.6689L77.4521 74.6572L77.6045 74.6689L80.124 74.9502L82.7139 74.9385V74.9502L85.2568 74.7744H85.2686L85.292 74.7627L87.9287 74.6455L88.0225 74.6338L88.1162 74.6455L90.6475 74.833L90.6357 74.9268V77.833H90.4248L87.9521 77.6338L85.4443 77.751L85.4561 77.7627L82.8193 77.9385H82.7256L80.0889 77.9502L79.9951 77.9619L79.9131 77.9502L77.3936 77.6689L74.9326 77.8799L74.874 77.8916H74.8154L72.1787 77.915H72.1436L69.5771 77.9033L67.2686 78.0059L67.6289 80.1533L67.6523 80.2705V80.376L67.6758 83.0244V83.1182L67.6641 83.2119L67.5176 84.4463L69.7764 84.2422L69.8467 84.2305H69.917L72.542 84.2539L75.0498 84.2422V84.2305L77.6982 84.0078L77.8389 83.9961L77.9912 84.0078L80.5107 84.2891H83.0068V84.2773L85.6436 84.1016H85.667L88.3037 83.9727H88.4912L91.0342 84.1719L91.0225 84.2539V87.1719H90.8701L90.8115 87.1602L88.3389 86.9727L85.8311 87.0898L83.2061 87.2773H83.1123L80.4639 87.2891H80.3818L80.2998 87.2773L77.8271 86.9961L75.3076 87.2188H75.2021L72.5537 87.2539H72.5303L70.0107 87.2305L67.5547 87.4512L67.6289 88.1572L67.6406 88.2861L67.6289 88.4033L67.4766 91.04L67.5117 93.5713V93.7236L67.3193 95.9902L69.5811 96.0215L72.1943 95.9863H72.2412L74.8896 96.0332H74.9131L77.5615 96.1152L77.749 96.127L77.9248 96.1738L80.4561 96.9121L82.9404 97.4277L83.0342 97.4512L83.1279 97.4863L85.6475 98.3652L85.9639 98.4824L86.21 98.7168L88.0967 100.604L88.1436 100.639L88.1787 100.686L89.8896 102.689L90.0771 102.889L90.1592 103.146L91.0615 105.631L91.085 105.678L91.0967 105.725L91.8467 108.291L91.9521 108.643L91.8818 109.006L91.3662 111.432L91.6006 113.869V113.893L91.6123 113.916L91.6494 114.632L92.4219 114.734L94.8359 114.266L95.082 114.219L95.3164 114.254L96.1162 114.362L96.2109 113.118L96.0938 110.622L95.918 107.985V107.892L95.9062 105.255L95.8945 105.173L95.9062 105.079L96.1758 102.56L95.9766 100.099L95.9648 100.04V99.9814L95.9297 97.3447V97.3213L95.9531 94.7549L95.8359 92.1182L95.8242 92.0244L95.8359 91.9424L96.0117 89.3057L96.0352 86.751V86.7041L96.1406 84.1846L96.0469 81.6182L95.8125 78.9814V78.8174L95.8594 76.1807L95.8711 73.5557V73.5322L95.9297 70.9541L95.8711 68.3174V68.2002L95.8828 68.083L96.2344 65.5752L96.082 63.0908V63.0791L95.8125 60.5244L95.8008 60.3604L95.8125 60.1963L96.0586 57.9697L95.6484 57.1025L93.9961 56.833L91.5117 56.9971L91.3008 57.0088L91.1016 56.9619L88.6758 56.4111L86.2266 56.54ZM32.4414 58.0811L32.3477 58.0928L32.2422 58.1045L31.5967 58.1211L31.3691 59.8135L31.2988 62.3916L31.2168 65.04V65.1338L30.9473 67.7705L30.9238 67.9346L30.3848 70.3721L30.373 72.8799V72.9736L30.1738 75.6104V75.6455L29.916 78.2705L29.7871 80.8369V80.9189L29.7754 81.0127L29.3418 83.626L29.0605 86.1689V86.1924L29.0488 86.2158L28.6738 88.8291L28.5098 91.3486L28.4629 93.9268L28.4512 94.0088V94.0791L28.123 96.7041L27.8301 99.3057V99.3291L27.4902 101.884L27.2676 104.521L27.2559 104.638L27.2324 104.755L26.6113 107.181L26.4824 109.7L26.5176 112.255V112.384L26.4941 112.513L26.1836 114.42L26.4688 114.418H26.4922L29.0469 114.43L31.6953 114.312L31.7773 114.301L31.8594 114.312L32.4941 114.354L32.5459 113.457L32.5811 110.879V110.797L32.7568 108.23L32.6162 105.699V103.004L32.5811 100.473L32.3467 97.8242L32.335 97.6836L32.3467 97.5312L32.6396 94.9883V92.4102H32.6514L32.5107 89.8555V89.8086L32.4404 87.1719V87.0664L32.7334 84.4297L33.2021 84.4883L34.2334 84.5L35.7334 84.5234V84.6289L35.7217 84.6992V84.7695L35.4404 87.3008L35.5107 89.7031L35.6396 92.3398V95.1406L35.6279 95.2227L35.3467 97.7188L35.5693 100.203V100.262L35.5811 100.309L35.6162 102.957V105.535L35.7451 108.184L35.7568 108.266L35.7451 108.359L35.5693 110.902L35.5811 110.914L35.5459 113.551V113.621L35.4951 114.504L37.0508 114.512H37.0977L39.6875 114.617L42.0176 114.54L41.9248 113.283L41.9365 113.271L41.6318 110.729H41.6201V110.717L41.3389 108.08L41.3271 107.869L41.3623 107.67L41.8076 105.033L41.8271 104.913L41.7422 104.802L41.6719 104.567L40.8867 102.212L40.8398 102.048L40.8164 101.872L40.5938 99.2354L40.3594 96.6221V96.5869L40.1836 93.9971L39.7383 91.501V91.4658L39.7266 91.4424L39.375 88.8174V88.7705L39.3633 88.7119L39.2109 86.1221L38.9766 83.4971L38.9648 83.4502V83.4033L38.8828 80.8721L38.5078 78.3057V78.2236L38.2734 75.6221L38.0156 73.1143L37.5352 70.501L37.5117 70.3604V70.2197L37.5352 67.583L37.2656 65.1104L37.2773 65.0986L36.8438 62.5908V62.5674L36.4453 59.9541L36.4336 59.8604V59.7666L36.3945 58.0781L34.7852 57.6943L32.4414 58.0811ZM69.6045 99.0215H69.5576L66.9912 98.9863L64.3662 99.1035H64.3545L61.7178 99.1855H61.6592L59.0576 99.1621L56.4326 99.2559H56.4092L53.9248 99.2793L51.71 99.9355L49.6123 101.002L47.6084 102.361L45.9795 104.178L44.6904 105.889L44.3389 107.963L44.5303 109.681L46.4629 109.838L48.9707 109.721V109.709L51.6074 109.533H51.7012L54.3379 109.521L54.4316 109.51L54.5137 109.521L57.0215 109.803L59.5059 109.592L59.5527 109.58H59.6113L62.2598 109.557H62.2832L64.8379 109.568L67.4863 109.451L67.5684 109.439L67.6504 109.451L70.2988 109.627L70.2871 109.639L72.8418 109.65H72.8887L75.4785 109.756L77.9746 109.674L80.623 109.428H80.7754L83.4121 109.475L83.4004 109.486H86.0605L88.7051 109.544L88.8584 108.783L88.2139 106.568V106.557L87.4287 104.424L85.9756 102.725L84.3232 101.084L82.2607 100.346L79.7529 99.8184L79.6943 99.8066L79.6475 99.7949L77.2686 99.1035L74.8193 99.0332V99.0215L72.2061 98.9863L69.6045 99.0215ZM37.7637 51.7412L35.1152 51.8936L35.0684 51.9053H35.0215L32.3848 51.8818H32.3027L32.2207 51.8701L29.7598 51.6006L27.2871 51.8936L27.1934 51.9053H27.0996L26.373 51.8984L26.3125 52.2451L26.3359 54.0967L27.4844 55.0107L29.6172 55.1631L32.0078 55.1045L34.5859 54.6943L34.8789 54.6475L35.1602 54.7178L37.5391 55.2568L39.8594 55.0928L41.2305 54.7061L41.5234 53.3115L41.4766 51.7764L40.2129 51.5771L37.7637 51.7412ZM42.9316 50.4756L42.9268 50.7402L43.0234 50.8623L43.0586 50.9092L43.126 50.9072L43.0254 50.6631L42.9316 50.4287V50.4756ZM31.4473 45.1787L31.4121 45.1904H31.377L28.7285 45.2842H28.6113L26.1152 45.1787L24.2168 45.3779L23.4668 46.3506L23.8418 47.792L25.0371 48.8818L27.0293 48.8936L29.5723 48.6006L29.7363 48.5889L29.9121 48.6006L32.4434 48.8818L34.9512 48.8936L37.5762 48.7412L40.2012 48.5771L40.377 48.5654L40.541 48.5889L42.9434 48.9639L43.998 47.7686L44.2441 46.2217L43.6348 45.2256L41.8535 45.0498V45.0615L39.2051 45.0146V45.0029H36.5684L34.0488 44.9561L31.4473 45.1787ZM33.4736 24.4404L32.5713 25.2373L32.3838 27.2764L32.3721 27.2998V27.3232L32.0557 29.9482L31.915 32.4795L31.8916 35.0576V35.1279L31.8799 35.1982L31.6104 37.8232L31.4111 40.4131L31.292 42.1816L33.8262 41.9678L33.9082 41.9561H33.9785L36.6152 42.0029L36.6035 42.0146H36.9521L36.9775 40.7061L36.6494 38.2451L36.2158 35.6436V35.585L36.2041 35.5381L35.958 32.9014L35.9463 32.8076V32.7021L36.0518 30.2061L35.6064 27.7803L35.5947 27.7217L35.583 27.6748L35.3135 25.4014L34.6572 24.4053L33.4736 24.4404Z" fill="black"/>
</svg>
