<svg width="120" height="120" viewBox="0 0 120 120" fill="none" xmlns="http://www.w3.org/2000/svg">
<path d="M78.274 62.0156L77.9887 63.4882L77.9945 63.4893L78.274 62.0156ZM80.7727 62.4894L81.2619 61.0715L81.1591 61.036L81.0521 61.0157L80.7727 62.4894ZM83.2842 63.356L82.7949 64.774L82.9828 64.8388L83.1812 64.8525L83.2842 63.356ZM85.9318 63.5382L86.0601 62.0437L86.0475 62.0426L86.0348 62.0418L85.9318 63.5382ZM88.5737 63.7651L89.0267 62.3351L88.8679 62.2848L88.702 62.2706L88.5737 63.7651ZM91.1026 64.5661L90.6497 65.9961L90.6938 66.0101L90.7388 66.0213L91.1026 64.5661ZM93.6627 65.2062L93.2988 66.6614L93.3503 66.6743L93.4025 66.6835L93.6627 65.2062ZM96.2722 65.6658L96.681 64.2226L96.6076 64.2018L96.5324 64.1886L96.2722 65.6658ZM98.8138 66.3857L99.3507 64.9851L99.2876 64.9609L99.2226 64.9425L98.8138 66.3857ZM101.298 67.338L100.761 68.7386L100.959 68.8146L101.171 68.8326L101.298 67.338ZM103.964 67.5648L104.405 66.131L104.251 66.0838L104.091 66.0702L103.964 67.5648ZM106.492 68.3418L106.051 69.7756L106.14 69.8031L106.232 69.8192L106.492 68.3418ZM109.097 68.799L109.663 67.4096L109.514 67.3493L109.357 67.3216L109.097 68.799ZM111.529 69.7878L113.029 69.8087L113.043 68.7843L112.094 68.3984L111.529 69.7878ZM111.496 72.12L112.252 73.4158L112.984 72.9887L112.996 72.1409L111.496 72.12ZM109.22 73.4474L109.605 74.8971L109.801 74.8451L109.976 74.7431L109.22 73.4474ZM106.638 74.1332L106.504 75.6272L106.768 75.6509L107.024 75.5829L106.638 74.1332ZM103.963 73.8927L104.097 72.3987L103.883 72.3795L103.672 72.4212L103.963 73.8927ZM101.332 74.413L101.16 75.9031L101.393 75.9299L101.622 75.8845L101.332 74.413ZM98.6905 74.1092L98.8619 72.619L98.7755 72.6091L98.6886 72.6092L98.6905 74.1092ZM96.0421 74.1126L95.7135 75.5761L95.8768 75.6128L96.0441 75.6126L96.0421 74.1126ZM93.4385 73.528L93.7671 72.0645L93.5449 72.0146L93.3179 72.0329L93.4385 73.528ZM90.7578 73.7444L90.4862 75.2196L90.6811 75.2554L90.8785 75.2395L90.7578 73.7444ZM88.1574 73.2656L88.429 71.7904L88.4244 71.7895L88.1574 73.2656ZM85.5679 72.7972L85.8349 71.3212L85.6966 71.2962L85.5562 71.2972L85.5679 72.7972ZM82.942 72.8177L82.8952 74.317L82.9245 74.3179L82.9537 74.3177L82.942 72.8177ZM80.2797 72.7346L80.3265 71.2353L80.1174 71.2288L79.9144 71.2797L80.2797 72.7346ZM77.7025 73.3816L78.0132 74.849L78.0406 74.8432L78.0677 74.8364L77.7025 73.3816ZM75.1213 73.9281L75.3137 75.4157L75.3733 75.408L75.4321 75.3956L75.1213 73.9281ZM72.4785 74.2699L72.2862 72.7823L72.1346 72.8019L71.9901 72.8517L72.4785 74.2699ZM69.9617 75.1368L69.5605 76.5822L70.0095 76.7068L70.4501 76.555L69.9617 75.1368ZM78.1758 61.9966L77.8905 63.4692L77.9887 63.4882L78.274 62.0156L78.5593 60.543L78.4612 60.524L78.1758 61.9966ZM78.274 62.0156L77.9945 63.4893L80.4932 63.9632L80.7727 62.4894L81.0521 61.0157L78.5535 60.5419L78.274 62.0156ZM80.7727 62.4894L80.2834 63.9074L82.7949 64.774L83.2842 63.356L83.7734 61.9381L81.2619 61.0715L80.7727 62.4894ZM83.2842 63.356L83.1812 64.8525L85.8288 65.0347L85.9318 63.5382L86.0348 62.0418L83.3872 61.8596L83.2842 63.356ZM85.9318 63.5382L85.8035 65.0327L88.4454 65.2596L88.5737 63.7651L88.702 62.2706L86.0601 62.0437L85.9318 63.5382ZM88.5737 63.7651L88.1208 65.195L90.6497 65.9961L91.1026 64.5661L91.5556 63.1361L89.0267 62.3351L88.5737 63.7651ZM91.1026 64.5661L90.7388 66.0213L93.2988 66.6614L93.6627 65.2062L94.0266 63.751L91.4665 63.1109L91.1026 64.5661ZM93.6627 65.2062L93.4025 66.6835L96.012 67.1431L96.2722 65.6658L96.5324 64.1886L93.9229 63.729L93.6627 65.2062ZM96.2722 65.6658L95.8634 67.109L98.405 67.829L98.8138 66.3857L99.2226 64.9425L96.681 64.2226L96.2722 65.6658ZM98.8138 66.3857L98.2769 67.7864L100.761 68.7386L101.298 67.338L101.835 65.9374L99.3507 64.9851L98.8138 66.3857ZM101.298 67.338L101.171 68.8326L103.837 69.0594L103.964 67.5648L104.091 66.0702L101.425 65.8434L101.298 67.338ZM103.964 67.5648L103.523 68.9986L106.051 69.7756L106.492 68.3418L106.932 66.908L104.405 66.131L103.964 67.5648ZM106.492 68.3418L106.232 69.8192L108.838 70.2765L109.097 68.799L109.357 67.3216L106.751 66.8644L106.492 68.3418ZM109.097 68.799L108.532 70.1885L110.964 71.1773L111.529 69.7878L112.094 68.3984L109.663 67.4096L109.097 68.799ZM111.529 69.7878L110.029 69.7669L109.996 72.0991L111.496 72.12L112.996 72.1409L113.029 69.8087L111.529 69.7878ZM111.496 72.12L110.741 70.8242L108.464 72.1516L109.22 73.4474L109.976 74.7431L112.252 73.4158L111.496 72.12ZM109.22 73.4474L108.835 71.9976L106.253 72.6835L106.638 74.1332L107.024 75.5829L109.605 74.8971L109.22 73.4474ZM106.638 74.1332L106.773 72.6392L104.097 72.3987L103.963 73.8927L103.828 75.3867L106.504 75.6272L106.638 74.1332ZM103.963 73.8927L103.672 72.4212L101.041 72.9415L101.332 74.413L101.622 75.8845L104.254 75.3642L103.963 73.8927ZM101.332 74.413L101.503 72.9228L98.8619 72.619L98.6905 74.1092L98.5191 75.5994L101.16 75.9031L101.332 74.413ZM98.6905 74.1092L98.6886 72.6092L96.0402 72.6126L96.0421 74.1126L96.0441 75.6126L98.6924 75.6092L98.6905 74.1092ZM96.0421 74.1126L96.3707 72.649L93.7671 72.0645L93.4385 73.528L93.1099 74.9916L95.7135 75.5761L96.0421 74.1126ZM93.4385 73.528L93.3179 72.0329L90.6372 72.2492L90.7578 73.7444L90.8785 75.2395L93.5592 75.0232L93.4385 73.528ZM90.7578 73.7444L91.0295 72.2692L88.429 71.7904L88.1574 73.2656L87.8858 74.7408L90.4862 75.2196L90.7578 73.7444ZM88.1574 73.2656L88.4244 71.7895L85.8349 71.3212L85.5679 72.7972L85.3009 74.2733L87.8904 74.7416L88.1574 73.2656ZM85.5679 72.7972L85.5562 71.2972L82.9303 71.3178L82.942 72.8177L82.9537 74.3177L85.5796 74.2972L85.5679 72.7972ZM82.942 72.8177L82.9888 71.3185L80.3265 71.2353L80.2797 72.7346L80.2328 74.2338L82.8952 74.317L82.942 72.8177ZM80.2797 72.7346L79.9144 71.2797L77.3372 71.9267L77.7025 73.3816L78.0677 74.8364L80.6449 74.1894L80.2797 72.7346ZM77.7025 73.3816L77.3918 71.9141L74.8106 72.4606L75.1213 73.9281L75.4321 75.3956L78.0132 74.849L77.7025 73.3816ZM75.1213 73.9281L74.9289 72.4405L72.2862 72.7823L72.4785 74.2699L72.6709 75.7575L75.3137 75.4157L75.1213 73.9281ZM72.4785 74.2699L71.9901 72.8517L69.4732 73.7186L69.9617 75.1368L70.4501 76.555L72.967 75.6881L72.4785 74.2699ZM69.9617 75.1368L70.3628 73.6914L69.4011 73.4245L69 74.8699L68.5989 76.3153L69.5605 76.5822L69.9617 75.1368Z" fill="black"/>
<path d="M27.272 71.7011L26.925 73.1604L27.4353 73.2817L27.91 73.0586L27.272 71.7011ZM24.8078 71.1151L25.1548 69.6558L24.9698 69.6118L24.7795 69.6154L24.8078 71.1151ZM22.1591 71.1651L22.1309 69.6653L21.709 69.6733L21.3531 69.9L22.1591 71.1651ZM19.9291 72.586L19.123 71.321L18.8472 71.4967L18.6695 71.7714L19.9291 72.586ZM18.5441 74.7274L17.2845 73.9128L17.1282 74.1545L17.0725 74.4369L18.5441 74.7274ZM18.0468 77.2465L16.5752 76.956L16.4898 77.389L16.6524 77.7993L18.0468 77.2465ZM19.015 79.6883L17.6206 80.2412L17.7357 80.5315L17.9571 80.7517L19.015 79.6883ZM20.8734 81.5372L19.8155 82.6006L19.8833 82.6681L19.9592 82.7264L20.8734 81.5372ZM22.9429 83.1282L22.0287 84.3174L22.0702 84.3493L22.1139 84.3782L22.9429 83.1282ZM25.1614 84.5995L24.3324 85.8496L24.5615 86.0016L24.8297 86.0624L25.1614 84.5995ZM27.7729 85.1917L28.3332 83.8003L28.2218 83.7554L28.1046 83.7289L27.7729 85.1917ZM30.2134 86.1745L29.6531 87.5659L29.7912 87.6215L29.9374 87.6489L30.2134 86.1745ZM32.8037 86.6593L33.2829 85.2379L33.1832 85.2043L33.0797 85.185L32.8037 86.6593ZM35.3205 87.5078L34.8413 88.9292L34.9611 88.9696L35.0859 88.9894L35.3205 87.5078ZM37.9296 87.9209L38.1938 86.4444L38.179 86.4417L38.1642 86.4394L37.9296 87.9209ZM40.5317 88.3866L40.2675 89.8632L40.2719 89.8639L40.5317 88.3866ZM43.1371 88.8448L43.8397 87.5196L43.6303 87.4085L43.3969 87.3675L43.1371 88.8448ZM45.4967 90.0959L44.794 91.4211L44.7942 91.4212L45.4967 90.0959ZM47.8576 91.3472L49.3228 91.026L49.174 90.3472L48.5601 90.0218L47.8576 91.3472ZM27.3625 71.6586L26.7245 70.301L26.634 70.3435L27.272 71.7011L27.91 73.0586L28.0005 73.0161L27.3625 71.6586ZM27.272 71.7011L27.619 70.2418L25.1548 69.6558L24.8078 71.1151L24.4608 72.5744L26.925 73.1604L27.272 71.7011ZM24.8078 71.1151L24.7795 69.6154L22.1309 69.6653L22.1591 71.1651L22.1874 72.6648L24.8361 72.6149L24.8078 71.1151ZM22.1591 71.1651L21.3531 69.9L19.123 71.321L19.9291 72.586L20.7351 73.851L22.9652 72.4301L22.1591 71.1651ZM19.9291 72.586L18.6695 71.7714L17.2845 73.9128L18.5441 74.7274L19.8036 75.542L21.1886 73.4006L19.9291 72.586ZM18.5441 74.7274L17.0725 74.4369L16.5752 76.956L18.0468 77.2465L19.5184 77.537L20.0157 75.0179L18.5441 74.7274ZM18.0468 77.2465L16.6524 77.7993L17.6206 80.2412L19.015 79.6883L20.4094 79.1355L19.4412 76.6936L18.0468 77.2465ZM19.015 79.6883L17.9571 80.7517L19.8155 82.6006L20.8734 81.5372L21.9313 80.4738L20.0729 78.6249L19.015 79.6883ZM20.8734 81.5372L19.9592 82.7264L22.0287 84.3174L22.9429 83.1282L23.8571 81.939L21.7876 80.348L20.8734 81.5372ZM22.9429 83.1282L22.1139 84.3782L24.3324 85.8496L25.1614 84.5995L25.9905 83.3495L23.772 81.8781L22.9429 83.1282ZM25.1614 84.5995L24.8297 86.0624L27.4411 86.6546L27.7729 85.1917L28.1046 83.7289L25.4932 83.1367L25.1614 84.5995ZM27.7729 85.1917L27.2126 86.5832L29.6531 87.5659L30.2134 86.1745L30.7737 84.783L28.3332 83.8003L27.7729 85.1917ZM30.2134 86.1745L29.9374 87.6489L32.5277 88.1337L32.8037 86.6593L33.0797 85.185L30.4894 84.7001L30.2134 86.1745ZM32.8037 86.6593L32.3245 88.0807L34.8413 88.9292L35.3205 87.5078L35.7997 86.0864L33.2829 85.2379L32.8037 86.6593ZM35.3205 87.5078L35.0859 88.9894L37.695 89.4025L37.9296 87.9209L38.1642 86.4394L35.5551 86.0263L35.3205 87.5078ZM37.9296 87.9209L37.6653 89.3975L40.2675 89.8632L40.5317 88.3866L40.796 86.9101L38.1938 86.4444L37.9296 87.9209ZM40.5317 88.3866L40.2719 89.8639L42.8773 90.3221L43.1371 88.8448L43.3969 87.3675L40.7915 86.9093L40.5317 88.3866ZM43.1371 88.8448L42.4344 90.1701L44.794 91.4211L45.4967 90.0959L46.1993 88.7706L43.8397 87.5196L43.1371 88.8448ZM45.4967 90.0959L44.7942 91.4212L47.1552 92.6726L47.8576 91.3472L48.5601 90.0218L46.1991 88.7705L45.4967 90.0959ZM47.8576 91.3472L46.3924 91.6684L46.5348 92.3178L48 91.9966L49.4652 91.6754L49.3228 91.026L47.8576 91.3472Z" fill="black"/>
<path d="M41.0987 75.0128L41.5443 73.5805L41.4449 73.5496L41.3421 73.5327L41.0987 75.0128ZM43.5217 75.7667L44.0363 74.3577L44.0021 74.3452L43.9673 74.3344L43.5217 75.7667ZM46.017 76.6781L45.5024 78.0871L45.7168 78.1654L45.9449 78.1764L46.017 76.6781ZM48.6692 76.8058L48.597 78.3041L48.635 78.3059L48.673 78.3058L48.6692 76.8058ZM51.2946 76.7991L51.3047 75.2991L51.2908 75.2991L51.2946 76.7991ZM53.9313 76.8168L53.9212 78.3168L54.1391 78.3183L54.3485 78.2577L53.9313 76.8168ZM41 74.9966L40.7566 76.4767L40.8553 76.4929L41.0987 75.0128L41.3421 73.5327L41.2434 73.5165L41 74.9966ZM41.0987 75.0128L40.653 76.4451L43.0761 77.199L43.5217 75.7667L43.9673 74.3344L41.5443 73.5805L41.0987 75.0128ZM43.5217 75.7667L43.0071 77.1757L45.5024 78.0871L46.017 76.6781L46.5316 75.2692L44.0363 74.3577L43.5217 75.7667ZM46.017 76.6781L45.9449 78.1764L48.597 78.3041L48.6692 76.8058L48.7413 75.3076L46.0892 75.1799L46.017 76.6781ZM48.6692 76.8058L48.673 78.3058L51.2984 78.2991L51.2946 76.7991L51.2908 75.2991L48.6653 75.3058L48.6692 76.8058ZM51.2946 76.7991L51.2845 78.2991L53.9212 78.3168L53.9313 76.8168L53.9414 75.3169L51.3047 75.2991L51.2946 76.7991ZM53.9313 76.8168L54.3485 78.2577L54.4172 78.2378L54 76.7969L53.5828 75.3561L53.5141 75.376L53.9313 76.8168Z" fill="black"/>
<path d="M39.9943 75.0912L38.6267 74.4752L38.3278 75.1386L38.6639 75.784L39.9943 75.0912ZM41.1807 77.3692L42.5769 76.821L42.5478 76.7469L42.5111 76.6763L41.1807 77.3692ZM42.1517 79.8422L43.5847 80.2854L43.74 79.7833L43.5479 79.294L42.1517 79.8422ZM41.8579 80.7919L41.4705 82.241L42.8645 82.6137L43.2909 81.2351L41.8579 80.7919ZM39.3054 80.1094L39.6929 78.6603L39.268 78.5467L38.849 78.6806L39.3054 80.1094ZM38.9776 80.2142L38.5211 78.7853L35.8963 79.6239L38.0254 81.3731L38.9776 80.2142ZM41.0171 81.8898L42.5133 81.7829L42.4673 81.14L41.9693 80.7308L41.0171 81.8898ZM41.1445 83.673L40.9285 85.1573L42.7736 85.4259L42.6407 83.566L41.1445 83.673ZM38.5112 83.2897L38.0704 84.7235L38.1808 84.7574L38.2951 84.774L38.5112 83.2897ZM35.9708 82.5087L36.4116 81.0749L36.2365 81.0211L36.0537 81.0109L35.9708 82.5087ZM33.2986 82.3606L32.8279 83.7849L33.0169 83.8473L33.2156 83.8583L33.2986 82.3606ZM30.7787 81.5278L30.2073 82.9147L30.257 82.9352L30.3079 82.952L30.7787 81.5278ZM28.2613 80.4908L26.7674 80.3566L26.6685 81.4569L27.69 81.8777L28.2613 80.4908ZM28.4899 77.9455L27.1032 77.3737L27.0163 77.5844L26.9959 77.8113L28.4899 77.9455ZM29.4908 75.518L30.8775 76.0897L31.0799 75.599L30.9285 75.0902L29.4908 75.518ZM28.765 73.0787L30.2027 72.6509L30.1813 72.579L30.1528 72.5096L28.765 73.0787ZM27.8092 70.7482L26.4229 70.1754L26.1871 70.7461L26.4214 71.3174L27.8092 70.7482ZM28.83 68.2778L30.2163 68.8506L30.5494 68.0446L30.0137 67.3565L28.83 68.2778ZM40.0354 75L38.6677 74.384L38.6267 74.4752L39.9943 75.0912L41.362 75.7072L41.4031 75.616L40.0354 75ZM39.9943 75.0912L38.6639 75.784L39.8503 78.062L41.1807 77.3692L42.5111 76.6763L41.3247 74.3983L39.9943 75.0912ZM41.1807 77.3692L39.7844 77.9174L40.7554 80.3904L42.1517 79.8422L43.5479 79.294L42.5769 76.821L41.1807 77.3692ZM42.1517 79.8422L40.7186 79.399L40.4249 80.3487L41.8579 80.7919L43.2909 81.2351L43.5847 80.2854L42.1517 79.8422ZM41.8579 80.7919L42.2454 79.3428L39.6929 78.6603L39.3054 80.1094L38.918 81.5585L41.4705 82.241L41.8579 80.7919ZM39.3054 80.1094L38.849 78.6806L38.5211 78.7853L38.9776 80.2142L39.4341 81.643L39.7619 81.5383L39.3054 80.1094ZM38.9776 80.2142L38.0254 81.3731L40.0649 83.0488L41.0171 81.8898L41.9693 80.7308L39.9299 79.0552L38.9776 80.2142ZM41.0171 81.8898L39.5209 81.9967L39.6483 83.7799L41.1445 83.673L42.6407 83.566L42.5133 81.7829L41.0171 81.8898ZM41.1445 83.673L41.3606 82.1886L38.7272 81.8053L38.5112 83.2897L38.2951 84.774L40.9285 85.1573L41.1445 83.673ZM38.5112 83.2897L38.952 81.8559L36.4116 81.0749L35.9708 82.5087L35.5299 83.9424L38.0704 84.7235L38.5112 83.2897ZM35.9708 82.5087L36.0537 81.0109L33.3815 80.8629L33.2986 82.3606L33.2156 83.8583L35.8878 84.0064L35.9708 82.5087ZM33.2986 82.3606L33.7693 80.9364L31.2494 80.1035L30.7787 81.5278L30.3079 82.952L32.8279 83.7849L33.2986 82.3606ZM30.7787 81.5278L31.35 80.1408L28.8327 79.1038L28.2613 80.4908L27.69 81.8777L30.2073 82.9147L30.7787 81.5278ZM28.2613 80.4908L29.7553 80.6249L29.9839 78.0797L28.4899 77.9455L26.9959 77.8113L26.7674 80.3566L28.2613 80.4908ZM28.4899 77.9455L29.8767 78.5173L30.8775 76.0897L29.4908 75.518L28.104 74.9462L27.1032 77.3737L28.4899 77.9455ZM29.4908 75.518L30.9285 75.0902L30.2027 72.6509L28.765 73.0787L27.3273 73.5065L28.0531 75.9458L29.4908 75.518ZM28.765 73.0787L30.1528 72.5096L29.1971 70.1791L27.8092 70.7482L26.4214 71.3174L27.3771 73.6479L28.765 73.0787ZM27.8092 70.7482L29.1956 71.3211L30.2163 68.8506L28.83 68.2778L27.4437 67.705L26.4229 70.1754L27.8092 70.7482ZM28.83 68.2778L30.0137 67.3565L29.7948 67.0752L28.6111 67.9966L27.4274 68.9179L27.6463 69.1992L28.83 68.2778Z" fill="black"/>
<path d="M87.7312 63.1356L88.2429 64.5456L88.716 64.3739L88.9898 63.9516L87.7312 63.1356ZM89.1287 60.9798L88.5037 59.6162L88.1073 59.7979L87.8701 60.1638L89.1287 60.9798ZM91.5133 59.8866L91.1165 58.44L90.999 58.4723L90.8882 58.523L91.5133 59.8866ZM94.0474 59.1914L94.0334 57.6914L93.8385 57.6933L93.6506 57.7448L94.0474 59.1914ZM96.6891 59.1667L96.7971 57.6706L96.7362 57.6662L96.6751 57.6668L96.6891 59.1667ZM99.3279 59.3572L99.22 60.8533L99.2843 60.8579L99.3489 60.857L99.3279 59.3572ZM101.968 59.3204L101.989 60.8202L102.039 60.8195L102.089 60.8154L101.968 59.3204ZM104.608 59.1058L104.667 57.6069L104.577 57.6034L104.487 57.6107L104.608 59.1058ZM107.251 59.2098L107.513 57.733L107.412 57.715L107.31 57.7109L107.251 59.2098ZM109.864 59.6744L109.601 61.1513L109.853 61.196L110.105 61.155L109.864 59.6744ZM112.392 59.2632L112.633 60.7438L112.91 60.6987L113.152 60.5567L112.392 59.2632ZM114.615 57.9576L115.375 59.2511L115.634 59.0989L115.815 58.8587L114.615 57.9576ZM116.17 55.889L117.369 56.7901L117.498 56.618L117.574 56.4164L116.17 55.889ZM117.07 53.4913L118.475 54.0187L118.662 53.5204L118.493 53.0156L117.07 53.4913ZM116.238 51.0016L117.66 50.5258L117.528 50.1293L117.209 49.8585L116.238 51.0016ZM114.271 49.3305L115.243 48.1875L114.959 47.9468L114.597 47.8662L114.271 49.3305ZM111.777 48.7762L112.102 47.3119L111.936 47.275L111.766 47.2762L111.777 48.7762ZM109.139 48.7957L109.128 47.2957L108.505 47.3004L108.068 47.7459L109.139 48.7957ZM107.234 50.7399L107.625 52.1883L108.02 52.0818L108.306 51.7897L107.234 50.7399ZM104.639 51.4392L104.704 52.9378L104.87 52.9306L105.03 52.8875L104.639 51.4392ZM101.996 51.5534L101.748 53.0326L101.903 53.0588L102.061 53.052L101.996 51.5534ZM99.3654 51.1117L99.6137 49.6324L99.3466 49.5876L99.0807 49.639L99.3654 51.1117ZM96.7282 51.6215L96.6379 53.1188L96.8269 53.1302L97.0129 53.0943L96.7282 51.6215ZM94.0718 51.4613L93.421 52.8128L93.6869 52.9408L93.9815 52.9586L94.0718 51.4613ZM91.6816 50.3103L90.6176 51.3676L90.799 51.5501L91.0308 51.6617L91.6816 50.3103ZM89.8177 48.4345L90.8817 47.3772L90.8796 47.3752L89.8177 48.4345ZM87.9336 46.5459L88.9955 45.4865L88.6698 45.16L88.217 45.0729L87.9336 46.5459ZM85.3123 46.0415L85.5957 44.5685L85.3699 44.525L85.1414 44.5512L85.3123 46.0415ZM82.7142 46.3394L82.5433 44.8492L82.4773 44.8568L82.4122 44.8702L82.7142 46.3394ZM80.1272 46.8712L79.8251 45.402L79.7057 45.4265L79.5918 45.47L80.1272 46.8712ZM77.6422 47.8207L77.9092 49.2967L78.0469 49.2718L78.1776 49.2219L77.6422 47.8207ZM75.0456 48.2904L74.7786 46.8144L74.7085 46.827L74.64 46.8463L75.0456 48.2904ZM72.4989 49.0057L72.0933 47.5615L72.0514 47.5733L72.0103 47.5875L72.4989 49.0057ZM70.009 49.8635L69.9143 51.3605L70.2139 51.3794L70.4976 51.2817L70.009 49.8635ZM67.3615 49.696L66.539 50.9504L66.8708 51.168L67.2668 51.193L67.3615 49.696ZM65.2603 48.3184L64.2834 49.4567L64.3569 49.5198L64.4378 49.5728L65.2603 48.3184ZM63.2314 46.5771L61.8762 47.2202L62.0128 47.508L62.2545 47.7154L63.2314 46.5771ZM62.0831 44.1574L63.4383 43.5143L62.3332 41.1856L60.8545 43.2969L62.0831 44.1574ZM60.8998 45.8469L59.6712 44.9864L59.457 45.2922L59.4112 45.6627L60.8998 45.8469ZM60.5718 48.4972L61.4954 49.6792L61.9842 49.2972L62.0604 48.6815L60.5718 48.4972ZM59.129 49.6247L57.8248 50.3657L58.6832 51.8766L60.0526 50.8066L59.129 49.6247ZM57.811 47.3049L59.1152 46.5639L59.0403 46.4322L58.9406 46.3181L57.811 47.3049ZM56.0714 45.3136L57.201 44.3267L57.0476 44.151L56.848 44.0303L56.0714 45.3136ZM54.5782 44.41L55.3549 43.1267L54.0226 42.3204L53.2668 43.6819L54.5782 44.41ZM53.2964 46.719L51.9849 45.9909L51.9804 45.9992L53.2964 46.719ZM52.0293 49.0357L51.3808 50.3883L52.663 51.003L53.3453 49.7555L52.0293 49.0357ZM51.2946 48.6835L49.9517 49.3518L50.1814 49.8133L50.6461 50.0361L51.2946 48.6835ZM50.1078 46.2991L48.6663 46.714L48.7041 46.8453L48.765 46.9675L50.1078 46.2991ZM49.3767 43.7591L50.8182 43.3442L49.7654 39.6867L48.0397 43.079L49.3767 43.7591ZM48.5988 45.2882L49.894 46.0449L49.916 46.0072L49.9358 45.9683L48.5988 45.2882ZM47.2583 47.5826L45.9631 46.8259L45.9182 46.9028L45.8827 46.9845L47.2583 47.5826ZM46.2364 49.9327L44.9655 50.7294L46.4772 53.1408L47.612 50.5308L46.2364 49.9327ZM44.8342 47.6959L46.1051 46.8992L46.0863 46.8692L46.0661 46.8401L44.8342 47.6959ZM43.3261 45.5252L44.5579 44.6693L44.5268 44.6246L44.4926 44.5822L43.3261 45.5252ZM42.2206 44.1577L43.3871 43.2147L41.8183 41.2741L40.8405 43.5699L42.2206 44.1577ZM41.1859 46.5871L39.8058 45.9993L39.8007 46.0114L41.1859 46.5871ZM40.1727 49.0251L41.5442 49.6324L41.5512 49.6167L41.5578 49.6008L40.1727 49.0251ZM39.0932 51.463L38.1031 52.5897L39.6377 53.9382L40.4648 52.0703L39.0932 51.463ZM37.1091 49.7194L36.0753 50.8063L36.0967 50.8267L36.1189 50.8462L37.1091 49.7194ZM35.1961 47.8999L36.2299 46.813L35.5481 46.1646L34.6676 46.4961L35.1961 47.8999ZM33.9929 48.3528L33.4644 46.949L32.9548 47.1409L32.6869 47.615L33.9929 48.3528ZM32.6857 50.6666L33.9669 51.4467L33.9796 51.4258L33.9916 51.4044L32.6857 50.6666ZM31.6531 52.3624L31.0368 53.73L32.2451 54.2745L32.9343 53.1425L31.6531 52.3624ZM29.2334 51.2721L29.8497 49.9045L29.2184 49.62L28.5924 49.9159L29.2334 51.2721ZM27.5188 52.0825L26.8778 50.7264L26.8378 50.7453L26.799 50.7665L27.5188 52.0825ZM25.1866 53.3581L25.7088 54.7643L25.8109 54.7264L25.9064 54.6741L25.1866 53.3581ZM22.7208 54.2739L23.1479 55.7118L23.196 55.6975L23.243 55.6801L22.7208 54.2739ZM20.1766 55.0297L19.7495 53.5918L19.7023 53.6058L19.6561 53.6229L20.1766 55.0297ZM17.695 55.948L17.1744 54.5412L17.0744 54.5782L16.9807 54.629L17.695 55.948ZM15.3517 57.2169L14.6374 55.8979L14.6032 55.9165L14.5699 55.9368L15.3517 57.2169ZM13.0895 58.5986L12.3076 57.3185L12.2556 57.3503L12.2062 57.3862L13.0895 58.5986ZM10.9358 60.1676L10.0526 58.9552L9.8804 59.0806L9.74996 59.249L10.9358 60.1676ZM9.30169 62.2772L8.11584 61.3586L8.07997 61.4049L8.04782 61.4539L9.30169 62.2772ZM7.86015 64.4726L6.60628 63.6494L6.58973 63.6745L6.57421 63.7004L7.86015 64.4726ZM6.51289 66.7161L5.22696 65.9438L5.15394 66.0654L5.105 66.1985L6.51289 66.7161ZM5.607 69.1804L4.19911 68.6629L4.15066 68.7947L4.12751 68.9332L5.607 69.1804ZM5.17408 71.7712L3.69459 71.524L3.6758 71.6365L3.67422 71.7505L5.17408 71.7712ZM5.13787 74.3918L3.63801 74.3711L3.63744 74.4126L3.63916 74.454L5.13787 74.3918ZM5.24785 77.0454L3.74913 77.1075L3.76009 77.3719L3.86089 77.6167L5.24785 77.0454ZM6.25934 79.5012L4.87238 80.0725L4.88561 80.1046L4.9003 80.136L6.25934 79.5012ZM7.37433 81.8882L6.01529 82.523L6.07052 82.6413L6.14534 82.7482L7.37433 81.8882ZM8.8834 84.0448L7.65441 84.9048L7.70494 84.977L7.76357 85.0428L8.8834 84.0448ZM10.637 86.0124L9.51714 87.0104L9.55431 87.0521L9.59448 87.091L10.637 86.0124ZM12.5502 87.8617L11.5077 88.9403L11.7029 89.1289L11.9518 89.2372L12.5502 87.8617ZM14.9962 88.9257L15.9104 87.7365L15.7639 87.6239L15.5945 87.5502L14.9962 88.9257ZM17.1267 90.5636L16.2125 91.7528L16.3884 91.888L16.5959 91.9665L17.1267 90.5636ZM19.6107 91.5033L19.08 92.9062L19.2015 92.9522L19.329 92.9766L19.6107 91.5033ZM22.2245 92.003L21.9428 93.4764L21.9967 93.4866L22.0511 93.493L22.2245 92.003ZM24.8457 92.3082L25.0689 90.8249L25.0441 90.8212L25.0192 90.8183L24.8457 92.3082ZM27.4533 92.7006L27.2301 94.1839L27.2559 94.1878L27.2818 94.1908L27.4533 92.7006ZM30.0759 93.0026L30.4692 91.555L30.3599 91.5254L30.2475 91.5124L30.0759 93.0026ZM32.6558 93.7035L32.2626 95.151L32.4369 95.1984L32.6175 95.203L32.6558 93.7035ZM35.3038 93.7712L35.456 92.279L35.3992 92.2732L35.3421 92.2717L35.3038 93.7712ZM37.9346 94.0396L37.7824 95.5318L37.8724 95.541L37.963 95.5393L37.9346 94.0396ZM40.5837 93.9894L40.6095 92.4897L40.5824 92.4892L40.5553 92.4897L40.5837 93.9894ZM43.2272 94.035L43.2013 95.5348L43.3589 95.5375L43.5136 95.5074L43.2272 94.035ZM45.824 93.5299L45.5533 92.0546L45.5454 92.056L45.5376 92.0575L45.824 93.5299ZM48.4772 93.0432L48.7478 94.5186L51.0403 94.0981L49.7079 92.1857L48.4772 93.0432ZM87.6372 63.1697L88.1489 64.5798L88.2429 64.5456L87.7312 63.1356L87.2195 61.7256L87.1255 61.7597L87.6372 63.1697ZM87.7312 63.1356L88.9898 63.9516L90.3874 61.7957L89.1287 60.9798L87.8701 60.1638L86.4725 62.3197L87.7312 63.1356ZM89.1287 60.9798L89.7538 62.3433L92.1384 61.2501L91.5133 59.8866L90.8882 58.523L88.5037 59.6162L89.1287 60.9798ZM91.5133 59.8866L91.9102 61.3331L94.4443 60.6379L94.0474 59.1914L93.6506 57.7448L91.1165 58.44L91.5133 59.8866ZM94.0474 59.1914L94.0614 60.6913L96.7031 60.6666L96.6891 59.1667L96.6751 57.6668L94.0334 57.6914L94.0474 59.1914ZM96.6891 59.1667L96.5811 60.6628L99.22 60.8533L99.3279 59.3572L99.4359 57.861L96.7971 57.6706L96.6891 59.1667ZM99.3279 59.3572L99.3489 60.857L101.989 60.8202L101.968 59.3204L101.947 57.8205L99.307 57.8573L99.3279 59.3572ZM101.968 59.3204L102.089 60.8154L104.73 60.6008L104.608 59.1058L104.487 57.6107L101.846 57.8253L101.968 59.3204ZM104.608 59.1058L104.549 60.6046L107.192 60.7086L107.251 59.2098L107.31 57.7109L104.667 57.6069L104.608 59.1058ZM107.251 59.2098L106.988 60.6866L109.601 61.1513L109.864 59.6744L110.126 58.1976L107.513 57.733L107.251 59.2098ZM109.864 59.6744L110.105 61.155L112.633 60.7438L112.392 59.2632L112.151 57.7827L109.623 58.1939L109.864 59.6744ZM112.392 59.2632L113.152 60.5567L115.375 59.2511L114.615 57.9576L113.856 56.6641L111.633 57.9698L112.392 59.2632ZM114.615 57.9576L115.815 58.8587L117.369 56.7901L116.17 55.889L114.971 54.9879L113.416 57.0565L114.615 57.9576ZM116.17 55.889L117.574 56.4164L118.475 54.0187L117.07 53.4913L115.666 52.964L114.766 55.3617L116.17 55.889ZM117.07 53.4913L118.493 53.0156L117.66 50.5258L116.238 51.0016L114.815 51.4773L115.648 53.9671L117.07 53.4913ZM116.238 51.0016L117.209 49.8585L115.243 48.1875L114.271 49.3305L113.3 50.4735L115.266 52.1446L116.238 51.0016ZM114.271 49.3305L114.597 47.8662L112.102 47.3119L111.777 48.7762L111.451 50.2405L113.946 50.7948L114.271 49.3305ZM111.777 48.7762L111.766 47.2762L109.128 47.2957L109.139 48.7957L109.151 50.2957L111.788 50.2761L111.777 48.7762ZM109.139 48.7957L108.068 47.7459L106.163 49.6901L107.234 50.7399L108.306 51.7897L110.211 49.8455L109.139 48.7957ZM107.234 50.7399L106.844 49.2916L104.249 49.9908L104.639 51.4392L105.03 52.8875L107.625 52.1883L107.234 50.7399ZM104.639 51.4392L104.575 49.9406L101.931 50.0547L101.996 51.5534L102.061 53.052L104.704 52.9378L104.639 51.4392ZM101.996 51.5534L102.244 50.0741L99.6137 49.6324L99.3654 51.1117L99.117 52.591L101.748 53.0326L101.996 51.5534ZM99.3654 51.1117L99.0807 49.639L96.4435 50.1488L96.7282 51.6215L97.0129 53.0943L99.6501 52.5845L99.3654 51.1117ZM96.7282 51.6215L96.8185 50.1242L94.1621 49.964L94.0718 51.4613L93.9815 52.9586L96.6379 53.1188L96.7282 51.6215ZM94.0718 51.4613L94.7226 50.1098L92.3324 48.9588L91.6816 50.3103L91.0308 51.6617L93.421 52.8128L94.0718 51.4613ZM91.6816 50.3103L92.7456 49.253L90.8817 47.3772L89.8177 48.4345L88.7537 49.4918L90.6176 51.3676L91.6816 50.3103ZM89.8177 48.4345L90.8796 47.3752L88.9955 45.4865L87.9336 46.5459L86.8716 47.6053L88.7558 49.4939L89.8177 48.4345ZM87.9336 46.5459L88.217 45.0729L85.5957 44.5685L85.3123 46.0415L85.0288 47.5144L87.6501 48.0189L87.9336 46.5459ZM85.3123 46.0415L85.1414 44.5512L82.5433 44.8492L82.7142 46.3394L82.8852 47.8297L85.4832 47.5317L85.3123 46.0415ZM82.7142 46.3394L82.4122 44.8702L79.8251 45.402L80.1272 46.8712L80.4292 48.3405L83.0163 47.8087L82.7142 46.3394ZM80.1272 46.8712L79.5918 45.47L77.1069 46.4194L77.6422 47.8207L78.1776 49.2219L80.6625 48.2725L80.1272 46.8712ZM77.6422 47.8207L77.3752 46.3446L74.7786 46.8144L75.0456 48.2904L75.3126 49.7665L77.9092 49.2967L77.6422 47.8207ZM75.0456 48.2904L74.64 46.8463L72.0933 47.5615L72.4989 49.0057L72.9045 50.4498L75.4512 49.7345L75.0456 48.2904ZM72.4989 49.0057L72.0103 47.5875L69.5204 48.4453L70.009 49.8635L70.4976 51.2817L72.9875 50.4239L72.4989 49.0057ZM70.009 49.8635L70.1037 48.3665L67.4562 48.199L67.3615 49.696L67.2668 51.193L69.9143 51.3605L70.009 49.8635ZM67.3615 49.696L68.1839 48.4416L66.0827 47.064L65.2603 48.3184L64.4378 49.5728L66.539 50.9504L67.3615 49.696ZM65.2603 48.3184L66.2372 47.1802L64.2083 45.4389L63.2314 46.5771L62.2545 47.7154L64.2834 49.4567L65.2603 48.3184ZM63.2314 46.5771L64.5865 45.934L63.4383 43.5143L62.0831 44.1574L60.728 44.8005L61.8762 47.2202L63.2314 46.5771ZM62.0831 44.1574L60.8545 43.2969L59.6712 44.9864L60.8998 45.8469L62.1285 46.7074L63.3117 45.0179L62.0831 44.1574ZM60.8998 45.8469L59.4112 45.6627L59.0831 48.313L60.5718 48.4972L62.0604 48.6815L62.3885 46.0312L60.8998 45.8469ZM60.5718 48.4972L59.6482 47.3153L58.2054 48.4427L59.129 49.6247L60.0526 50.8066L61.4954 49.6792L60.5718 48.4972ZM59.129 49.6247L60.4332 48.8837L59.1152 46.5639L57.811 47.3049L56.5068 48.0459L57.8248 50.3657L59.129 49.6247ZM57.811 47.3049L58.9406 46.3181L57.201 44.3267L56.0714 45.3136L54.9417 46.3004L56.6813 48.2918L57.811 47.3049ZM56.0714 45.3136L56.848 44.0303L55.3549 43.1267L54.5782 44.41L53.8016 45.6933L55.2948 46.5969L56.0714 45.3136ZM54.5782 44.41L53.2668 43.6819L51.9849 45.991L53.2964 46.719L54.6079 47.4471L55.8897 45.138L54.5782 44.41ZM53.2964 46.719L51.9804 45.9992L50.7133 48.3159L52.0293 49.0357L53.3453 49.7555L54.6124 47.4388L53.2964 46.719ZM52.0293 49.0357L52.6777 47.6831L51.943 47.3309L51.2946 48.6835L50.6461 50.0361L51.3808 50.3883L52.0293 49.0357ZM51.2946 48.6835L52.6374 48.0151L51.4507 45.6308L50.1078 46.2991L48.765 46.9675L49.9517 49.3518L51.2946 48.6835ZM50.1078 46.2991L51.5493 45.8842L50.8182 43.3442L49.3767 43.7591L47.9352 44.174L48.6663 46.714L50.1078 46.2991ZM49.3767 43.7591L48.0397 43.079L47.2619 44.6081L48.5988 45.2882L49.9358 45.9683L50.7136 44.4392L49.3767 43.7591ZM48.5988 45.2882L47.3037 44.5315L45.9631 46.8259L47.2583 47.5826L48.5534 48.3393L49.894 46.0449L48.5988 45.2882ZM47.2583 47.5826L45.8827 46.9845L44.8608 49.3346L46.2364 49.9327L47.612 50.5308L48.6339 48.1807L47.2583 47.5826ZM46.2364 49.9327L47.5073 49.136L46.1051 46.8992L44.8342 47.6959L43.5633 48.4926L44.9655 50.7294L46.2364 49.9327ZM44.8342 47.6959L46.0661 46.8401L44.5579 44.6693L43.3261 45.5252L42.0942 46.381L43.6023 48.5518L44.8342 47.6959ZM43.3261 45.5252L44.4926 44.5822L43.3871 43.2147L42.2206 44.1577L41.0541 45.1007L42.1596 46.4682L43.3261 45.5252ZM42.2206 44.1577L40.8405 43.5699L39.8058 45.9993L41.1859 46.5871L42.5659 47.1748L43.6006 44.7454L42.2206 44.1577ZM41.1859 46.5871L39.8007 46.0114L38.7875 48.4495L40.1727 49.0251L41.5578 49.6008L42.571 47.1627L41.1859 46.5871ZM40.1727 49.0251L38.8011 48.4178L37.7217 50.8557L39.0932 51.463L40.4648 52.0703L41.5442 49.6324L40.1727 49.0251ZM39.0932 51.463L40.0834 50.3362L38.0992 48.5926L37.1091 49.7194L36.1189 50.8462L38.1031 52.5897L39.0932 51.463ZM37.1091 49.7194L38.1428 48.6325L36.2299 46.813L35.1961 47.8999L34.1623 48.9868L36.0753 50.8063L37.1091 49.7194ZM35.1961 47.8999L34.6676 46.4961L33.4644 46.949L33.9929 48.3528L34.5213 49.7567L35.7245 49.3037L35.1961 47.8999ZM33.9929 48.3528L32.6869 47.615L31.3797 49.9287L32.6857 50.6666L33.9916 51.4044L35.2989 49.0907L33.9929 48.3528ZM32.6857 50.6666L31.4045 49.8865L30.3719 51.5823L31.6531 52.3624L32.9343 53.1425L33.9669 51.4467L32.6857 50.6666ZM31.6531 52.3624L32.2693 50.9949L29.8497 49.9045L29.2334 51.2721L28.6171 52.6396L31.0368 53.73L31.6531 52.3624ZM29.2334 51.2721L28.5924 49.9159L26.8778 50.7264L27.5188 52.0825L28.1598 53.4387L29.8744 52.6282L29.2334 51.2721ZM27.5188 52.0825L26.799 50.7665L24.4668 52.0421L25.1866 53.3581L25.9064 54.6741L28.2386 53.3985L27.5188 52.0825ZM25.1866 53.3581L24.6643 51.952L22.1985 52.8678L22.7208 54.2739L23.243 55.6801L25.7088 54.7643L25.1866 53.3581ZM22.7208 54.2739L22.2936 52.836L19.7495 53.5918L20.1766 55.0297L20.6038 56.4676L23.1479 55.7118L22.7208 54.2739ZM20.1766 55.0297L19.6561 53.6229L17.1744 54.5412L17.695 55.948L18.2155 57.3547L20.6972 56.4364L20.1766 55.0297ZM17.695 55.948L16.9807 54.629L14.6374 55.8979L15.3517 57.2169L16.0661 58.5359L18.4093 57.267L17.695 55.948ZM15.3517 57.2169L14.5699 55.9368L12.3076 57.3185L13.0895 58.5986L13.8713 59.8788L16.1336 58.4971L15.3517 57.2169ZM13.0895 58.5986L12.2062 57.3862L10.0526 58.9552L10.9358 60.1676L11.819 61.38L13.9727 59.811L13.0895 58.5986ZM10.9358 60.1676L9.74996 59.249L8.11584 61.3586L9.30169 62.2772L10.4875 63.1958L12.1217 61.0861L10.9358 60.1676ZM9.30169 62.2772L8.04782 61.4539L6.60628 63.6494L7.86015 64.4726L9.11402 65.2959L10.5556 63.1005L9.30169 62.2772ZM7.86015 64.4726L6.57421 63.7004L5.22696 65.9438L6.51289 66.7161L7.79882 67.4883L9.14608 65.2449L7.86015 64.4726ZM6.51289 66.7161L5.105 66.1985L4.19911 68.6629L5.607 69.1804L7.01489 69.698L7.92078 67.2336L6.51289 66.7161ZM5.607 69.1804L4.12751 68.9332L3.69459 71.524L5.17408 71.7712L6.65356 72.0184L7.08649 69.4276L5.607 69.1804ZM5.17408 71.7712L3.67422 71.7505L3.63801 74.3711L5.13787 74.3918L6.63773 74.4126L6.67393 71.7919L5.17408 71.7712ZM5.13787 74.3918L3.63916 74.454L3.74913 77.1075L5.24785 77.0454L6.74656 76.9833L6.63658 74.3297L5.13787 74.3918ZM5.24785 77.0454L3.86089 77.6167L4.87238 80.0725L6.25934 79.5012L7.6463 78.9299L6.63481 76.4741L5.24785 77.0454ZM6.25934 79.5012L4.9003 80.136L6.01529 82.523L7.37433 81.8882L8.73338 81.2534L7.61839 78.8664L6.25934 79.5012ZM7.37433 81.8882L6.14534 82.7482L7.65441 84.9048L8.8834 84.0448L10.1124 83.1848L8.60333 81.0282L7.37433 81.8882ZM8.8834 84.0448L7.76357 85.0428L9.51714 87.0104L10.637 86.0124L11.7568 85.0145L10.0032 83.0468L8.8834 84.0448ZM10.637 86.0124L9.59448 87.091L11.5077 88.9403L12.5502 87.8617L13.5927 86.7832L11.6795 84.9339L10.637 86.0124ZM12.5502 87.8617L11.9518 89.2372L14.3978 90.3012L14.9962 88.9257L15.5945 87.5502L13.1485 86.4862L12.5502 87.8617ZM14.9962 88.9257L14.082 90.115L16.2125 91.7528L17.1267 90.5636L18.0409 89.3743L15.9104 87.7365L14.9962 88.9257ZM17.1267 90.5636L16.5959 91.9665L19.08 92.9062L19.6107 91.5033L20.1415 90.1003L17.6574 89.1606L17.1267 90.5636ZM19.6107 91.5033L19.329 92.9766L21.9428 93.4764L22.2245 92.003L22.5062 90.5297L19.8924 90.03L19.6107 91.5033ZM22.2245 92.003L22.0511 93.493L24.6722 93.7982L24.8457 92.3082L25.0192 90.8183L22.398 90.5131L22.2245 92.003ZM24.8457 92.3082L24.6225 93.7915L27.2301 94.1839L27.4533 92.7006L27.6765 91.2173L25.0689 90.8249L24.8457 92.3082ZM27.4533 92.7006L27.2818 94.1908L29.9044 94.4927L30.0759 93.0026L30.2475 91.5124L27.6249 91.2105L27.4533 92.7006ZM30.0759 93.0026L29.6827 94.4501L32.2626 95.151L32.6558 93.7035L33.0491 92.256L30.4692 91.555L30.0759 93.0026ZM32.6558 93.7035L32.6175 95.203L35.2654 95.2707L35.3038 93.7712L35.3421 92.2717L32.6942 92.204L32.6558 93.7035ZM35.3038 93.7712L35.1515 95.2635L37.7824 95.5318L37.9346 94.0396L38.0868 92.5473L35.456 92.279L35.3038 93.7712ZM37.9346 94.0396L37.963 95.5393L40.612 95.4892L40.5837 93.9894L40.5553 92.4897L37.9062 92.5399L37.9346 94.0396ZM40.5837 93.9894L40.5578 95.4892L43.2013 95.5348L43.2272 94.035L43.2531 92.5353L40.6095 92.4897L40.5837 93.9894ZM43.2272 94.035L43.5136 95.5074L46.1103 95.0024L45.824 93.5299L45.5376 92.0575L42.9408 92.5626L43.2272 94.035ZM45.824 93.5299L46.0946 95.0053L48.7478 94.5186L48.4772 93.0432L48.2065 91.5679L45.5533 92.0546L45.824 93.5299ZM48.4772 93.0432L49.7079 92.1857L49.5695 91.9871L48.3387 92.8446L47.108 93.7021L47.2464 93.9008L48.4772 93.0432Z" fill="black"/>
<path d="M57.9834 69.0936L59.068 70.1298L59.3429 69.8421L59.439 69.4559L57.9834 69.0936ZM56.2304 70.9285L55.1458 69.8923L55.0922 69.9484L55.0447 70.0097L56.2304 70.9285ZM54.6041 73.027L53.4185 72.1082L53.2003 72.3896L53.132 72.7391L54.6041 73.027ZM54.0968 75.6208L52.6247 75.3329L52.557 75.6788L52.6505 76.0186L54.0968 75.6208ZM54.7671 78.0576L53.3209 78.4554L53.394 78.7213L53.5569 78.9437L54.7671 78.0576ZM56.3005 80.1517L55.0902 81.0378L55.2513 81.2578L55.4795 81.4071L56.3005 80.1517ZM58.5094 81.5962L57.6884 82.8516L57.8 82.9246L57.9228 82.9767L58.5094 81.5962ZM60.9522 82.6341L61.8137 81.4061L61.6843 81.3153L61.5388 81.2535L60.9522 82.6341ZM63.1247 84.1583L64.1986 83.111L64.1008 83.0107L63.9862 82.9303L63.1247 84.1583ZM64.9773 86.058L63.9034 87.1052L64.0046 87.209L64.1238 87.2914L64.9773 86.058ZM67.1767 87.5799L66.3232 88.8134L67.6568 89.7362L68.4729 88.3347L67.1767 87.5799ZM68.1558 85.8986L68.284 84.4041L67.3376 84.3229L66.8596 85.1438L68.1558 85.8986ZM70.7768 86.1235L71.3537 84.7389L71.1379 84.649L70.905 84.629L70.7768 86.1235ZM72.8828 87.001L72.3059 88.3856L74.938 89.4822L74.3507 86.692L72.8828 87.001ZM72.3388 84.4162L72.0575 82.9428L70.5561 83.2295L70.8709 84.7251L72.3388 84.4162ZM74.249 84.0514L74.5304 85.5248L74.5753 85.5162L74.6197 85.5049L74.249 84.0514ZM75.5987 83.7072L75.9694 85.1607L77.8426 84.683L76.9145 82.9871L75.5987 83.7072ZM74.3553 81.435L75.6711 80.7149L75.4237 80.2628L74.9507 80.0583L74.3553 81.435ZM71.8973 80.372L71.0453 81.6065L71.1666 81.6902L71.3018 81.7487L71.8973 80.372ZM69.719 78.8686L70.571 77.6341L70.451 77.5513L70.3172 77.4931L69.719 78.8686ZM67.2985 77.8159L66.5617 79.1225L66.6292 79.1606L66.7003 79.1915L67.2985 77.8159ZM64.9602 76.4972L65.6971 75.1907L65.2081 74.9149L64.6582 75.0279L64.9602 76.4972ZM58.0076 68.9966L56.552 68.6343L56.5278 68.7313L57.9834 69.0936L59.439 69.4559L59.4632 69.3589L58.0076 68.9966ZM57.9834 69.0936L56.8989 68.0574L55.1458 69.8923L56.2304 70.9285L57.315 71.9647L59.068 70.1298L57.9834 69.0936ZM56.2304 70.9285L55.0447 70.0097L53.4185 72.1082L54.6041 73.027L55.7897 73.9459L57.416 71.8473L56.2304 70.9285ZM54.6041 73.027L53.132 72.7391L52.6247 75.3329L54.0968 75.6208L55.5689 75.9087L56.0762 73.3149L54.6041 73.027ZM54.0968 75.6208L52.6505 76.0186L53.3209 78.4554L54.7671 78.0576L56.2134 77.6597L55.5431 75.2229L54.0968 75.6208ZM54.7671 78.0576L53.5569 78.9437L55.0902 81.0378L56.3005 80.1517L57.5107 79.2655L55.9774 77.1714L54.7671 78.0576ZM56.3005 80.1517L55.4795 81.4071L57.6884 82.8516L58.5094 81.5962L59.3303 80.3407L57.1214 78.8963L56.3005 80.1517ZM58.5094 81.5962L57.9228 82.9767L60.3656 84.0146L60.9522 82.6341L61.5388 81.2535L59.0959 80.2156L58.5094 81.5962ZM60.9522 82.6341L60.0907 83.862L62.2632 85.3862L63.1247 84.1583L63.9862 82.9303L61.8137 81.4061L60.9522 82.6341ZM63.1247 84.1583L62.0508 85.2055L63.9034 87.1052L64.9773 86.058L66.0512 85.0107L64.1986 83.111L63.1247 84.1583ZM64.9773 86.058L64.1238 87.2914L66.3232 88.8134L67.1767 87.5799L68.0303 86.3464L65.8309 84.8245L64.9773 86.058ZM67.1767 87.5799L68.4729 88.3347L69.452 86.6535L68.1558 85.8986L66.8596 85.1438L65.8805 86.8251L67.1767 87.5799ZM68.1558 85.8986L68.0276 87.3931L70.6486 87.618L70.7768 86.1235L70.905 84.629L68.284 84.4041L68.1558 85.8986ZM70.7768 86.1235L70.1999 87.5081L72.3059 88.3856L72.8828 87.001L73.4597 85.6163L71.3537 84.7389L70.7768 86.1235ZM72.8828 87.001L74.3507 86.692L73.8066 84.1072L72.3388 84.4162L70.8709 84.7251L71.415 87.3099L72.8828 87.001ZM72.3388 84.4162L72.6201 85.8896L74.5304 85.5248L74.249 84.0514L73.9677 82.5781L72.0575 82.9428L72.3388 84.4162ZM74.249 84.0514L74.6197 85.5049L75.9694 85.1607L75.5987 83.7072L75.228 82.2538L73.8784 82.598L74.249 84.0514ZM75.5987 83.7072L76.9145 82.9871L75.6711 80.7149L74.3553 81.435L73.0394 82.1551L74.2828 84.4273L75.5987 83.7072ZM74.3553 81.435L74.9507 80.0583L72.4927 78.9952L71.8973 80.372L71.3018 81.7487L73.7598 82.8118L74.3553 81.435ZM71.8973 80.372L72.7493 79.1374L70.571 77.6341L69.719 78.8686L68.867 80.1032L71.0453 81.6065L71.8973 80.372ZM69.719 78.8686L70.3172 77.4931L67.8968 76.4404L67.2985 77.8159L66.7003 79.1915L69.1207 80.2442L69.719 78.8686ZM67.2985 77.8159L68.0354 76.5094L65.6971 75.1907L64.9602 76.4972L64.2234 77.8037L66.5617 79.1225L67.2985 77.8159ZM64.9602 76.4972L64.6582 75.0279L63.9933 75.1646L64.2953 76.6339L64.5973 78.1032L65.2622 77.9665L64.9602 76.4972Z" fill="black"/>
<path d="M36.8143 75.9062L36.726 74.4088L35.8676 74.4594L35.4775 75.2258L36.8143 75.9062ZM39.3703 75.7555L39.4586 77.2529L39.9942 77.2213L40.3882 76.8572L39.3703 75.7555ZM41.2413 74.0269L42.2592 75.1286L42.6082 74.8062L42.7079 74.3417L41.2413 74.0269ZM41.8005 71.4217L43.2671 71.7365L43.3231 71.4758L43.2857 71.2117L41.8005 71.4217ZM41.4453 68.9095L42.9306 68.6995L42.902 68.4977L42.8207 68.3108L41.4453 68.9095ZM40.4102 66.5315L41.7855 65.9328L41.6273 65.5693L41.3101 65.3315L40.4102 66.5315ZM38.3099 64.9565L39.2098 63.7564L38.966 63.5736L38.6702 63.5004L38.3099 64.9565ZM35.7542 64.3241L36.1146 62.868L35.9338 62.8232L35.7476 62.8241L35.7542 64.3241ZM33.233 64.3353L33.2382 65.8353L33.2397 65.8353L33.233 64.3353ZM31.0286 64.3429L31.0234 62.8429L29.7136 62.8474L29.5415 64.1459L31.0286 64.3429ZM36.769 75.9953L38.1057 76.6758L38.1511 76.5867L36.8143 75.9062L35.4775 75.2258L35.4322 75.3149L36.769 75.9953ZM36.8143 75.9062L36.9026 77.4036L39.4586 77.2529L39.3703 75.7555L39.282 74.2581L36.726 74.4088L36.8143 75.9062ZM39.3703 75.7555L40.3882 76.8572L42.2592 75.1286L41.2413 74.0269L40.2234 72.9251L38.3524 74.6537L39.3703 75.7555ZM41.2413 74.0269L42.7079 74.3417L43.2671 71.7365L41.8005 71.4217L40.3339 71.1069L39.7747 73.7121L41.2413 74.0269ZM41.8005 71.4217L43.2857 71.2117L42.9306 68.6995L41.4453 68.9095L39.9601 69.1194L40.3153 71.6316L41.8005 71.4217ZM41.4453 68.9095L42.8207 68.3108L41.7855 65.9328L40.4102 66.5315L39.0349 67.1302L40.07 69.5082L41.4453 68.9095ZM40.4102 66.5315L41.3101 65.3315L39.2098 63.7564L38.3099 64.9565L37.41 66.1566L39.5103 67.7316L40.4102 66.5315ZM38.3099 64.9565L38.6702 63.5004L36.1146 62.868L35.7542 64.3241L35.3939 65.7801L37.9495 66.4126L38.3099 64.9565ZM35.7542 64.3241L35.7476 62.8241L33.2263 62.8353L33.233 64.3353L33.2397 65.8353L35.7609 65.824L35.7542 64.3241ZM33.233 64.3353L33.2279 62.8353L31.0234 62.8429L31.0286 64.3429L31.0337 65.8429L33.2382 65.8353L33.233 64.3353ZM31.0286 64.3429L29.5415 64.1459L29.513 64.3614L31 64.5584L32.487 64.7554L32.5156 64.5399L31.0286 64.3429Z" fill="black"/>
<path d="M84 53.4966V51.9966H83.7377L83.4909 52.0856L84 53.4966ZM83.0071 53.8548L81.8832 52.8613L83.5161 55.2658L83.0071 53.8548ZM83.6025 53.1813L84.4198 51.9234L83.3353 51.2188L82.4787 52.1878L83.6025 53.1813ZM84.0878 53.4966V54.9966H89.1496L84.9051 52.2388L84.0878 53.4966ZM84 53.4966L83.4909 52.0856L82.498 52.4439L83.0071 53.8548L83.5161 55.2658L84.5091 54.9076L84 53.4966ZM83.0071 53.8548L84.1309 54.8483L84.7263 54.1747L83.6025 53.1813L82.4787 52.1878L81.8832 52.8613L83.0071 53.8548ZM83.6025 53.1813L82.7852 54.4391L83.2706 54.7544L84.0878 53.4966L84.9051 52.2388L84.4198 51.9234L83.6025 53.1813ZM84.0878 53.4966V51.9966H84V53.4966V54.9966H84.0878V53.4966Z" fill="black"/>
</svg>
