<svg width="120" height="120" viewBox="0 0 120 120" fill="none" xmlns="http://www.w3.org/2000/svg">
<path d="M69.8555 30.0527L72.4941 30.2637L72.7119 30.2812L72.9141 30.3594L75.3213 31.2861L75.8037 31.4717L76.0693 31.915L77.4336 34.1934L77.4512 34.2227L77.4678 34.2529L78.6709 36.4902L80.1436 38.6133L80.2559 38.7754L80.3232 38.9609L81.125 41.1904L81.7588 41.9023L81.9717 41.8672L84.4385 41.459L86.9297 40.7666L87.1084 40.7158L87.2939 40.7119L89.8643 40.6465L92.4092 40.3193L92.4404 40.3154L92.4717 40.3125L95.1045 40.085L95.2188 40.0762L95.332 40.083L97.8887 40.25L100.438 40.1133L100.508 40.1094L100.577 40.1123L103.237 40.2168L103.492 40.2275L103.729 40.3213L106.214 41.3047L106.236 41.3135L108.653 42.3135L108.94 42.4326L109.157 42.6562L110.93 44.4863L111.169 44.7334L111.276 45.0605L112.075 47.4814L112.177 47.7881L112.142 48.1104L111.857 50.7627L111.824 51.0752L111.668 51.3486L110.334 53.6768L110.266 53.7959L110.176 53.9023L108.456 55.9287L108.376 56.0234L108.282 56.1035L106.303 57.7783L104.456 59.5947L104.372 59.6758L104.277 59.7441L102.149 61.2656L100.1 62.8691L100.028 62.9248L99.9512 62.9717L97.7549 64.2949L95.7148 65.8506L95.5742 65.957L95.4131 66.0283L93.0605 67.0684L90.9619 68.3184L88.9404 69.918L88.8223 70.0107L88.6895 70.0791L86.332 71.2773L86.2402 71.3242L86.1416 71.3574L83.8018 72.165L81.7412 73.5303L81.5967 73.625L81.4346 73.6865L79.0645 74.5654L76.8555 75.8154L76.6465 75.9346L76.4111 75.9814L73.9092 76.4805L71.6914 77.3701L69.4756 78.6631L69.334 78.7451L69.1787 78.7949L66.6631 79.6064L66.5957 79.6279L66.5264 79.6426L64.165 80.1621L62.0723 81.4219L61.8584 81.5498L61.6162 81.6025L59.0869 82.1504L56.667 82.957L56.666 82.9561L54.1621 83.792L54.123 83.8037L51.5957 84.5693L51.5508 84.583L49.0322 85.2598L46.5225 86.0371L46.3291 86.0957L46.126 86.1016L43.6553 86.1777L41.3379 86.9385L41.208 86.9814L41.0723 87L38.5156 87.3457L36.0117 87.9248L35.8682 87.959L35.7207 87.9629L33.2109 88.0391L30.7607 88.5889L30.7051 88.6025L30.6475 88.6113L28.0254 88.9902L27.8525 89.0146L27.6777 88.999L25.1143 88.7695L22.5664 88.8477L22.502 88.8506L22.4385 88.8467L19.8076 88.7012L19.7666 88.6982L19.7266 88.6943L17.1201 88.4062L17.0078 88.3936L16.8984 88.3643L14.3828 87.6973L14.3096 87.6768L14.2373 87.6504L11.7842 86.7227L11.5117 86.6182L11.2979 86.4199L9.35059 84.6201L8.97559 84.2744L8.88965 83.7715L8.44531 81.1631L8.39453 80.8711L8.45996 80.5811L9.04102 78.0176L9.10059 77.7461L9.25488 77.5156L10.707 75.3408L10.7305 75.3057L10.7559 75.2715L12.3359 73.1719L12.3955 73.0928L12.4629 73.0225L14.3076 71.1426L14.3379 71.1123L14.3691 71.083L16.3086 69.3223L18.2549 67.5195L18.3906 67.3936L18.5527 67.3037L20.8242 66.0586L22.9746 64.6543L25.0957 63.1475L27.2568 61.6074L27.4971 61.4355L27.7842 61.3691L29.5459 60.9541L29.376 59.0205L28.4951 56.7334L28.4072 56.5059L28.3965 56.2617L28.2783 53.6396L28.0469 51.1172L27.6221 48.7344L27.5137 48.1279L27.8623 47.6201L29.29 45.542L29.459 45.2969L29.708 45.1348L31.918 43.6924L31.9277 43.6865L34.1484 42.2607L34.2549 42.1934L34.3711 42.1436L36.6729 41.1631L38.7607 39.752L38.9453 39.626L39.1592 39.5615L41.5283 38.832L43.6455 37.5518L43.6895 37.5254L43.7354 37.501L46.0908 36.2891L46.2109 36.2266L46.3389 36.1875L48.876 35.4111L51.3672 34.6494L53.8135 33.7617L53.8174 33.7598L56.3076 32.8682L56.3662 32.8467L56.4258 32.8311L58.9785 32.1475L59.0068 32.1396L59.0371 32.1328L61.5693 31.5625L64.0703 30.835L64.2246 30.79L64.3838 30.7793L66.9277 30.6006L69.4297 30.0791L69.6416 30.0352L69.8555 30.0527ZM92.7715 43.2969L90.1748 43.6318L90.0986 43.6426L90.0205 43.6445L87.5537 43.7061L85.1699 44.3701L85.0918 44.3926L85.0117 44.4053L83.6299 44.6338L83.5762 45.4219L84.3311 47.3594L85.7129 49.4316L85.8701 49.667L85.9307 49.9434L86.502 52.5459L86.5811 52.9053L86.4844 53.2598L85.8779 55.5L85.7812 55.8594L85.5273 56.1318L83.7139 58.0762L83.5879 58.21L83.4336 58.3105L81.2061 59.7568L81.1553 59.79L81.1016 59.8193L78.8506 61.0322L76.7568 62.499L76.6484 62.5742L76.5273 62.6299L74.2021 63.709L71.9971 65.0254L71.9834 65.0332L71.9688 65.042L69.6611 66.3496L69.5479 66.415L69.4248 66.459L67.0039 67.3184L64.6943 68.4395L64.6387 68.4658L64.5811 68.4883L62.1143 69.4434L61.9893 69.4922L61.8555 69.5176L59.3262 70.0039L56.9648 70.7988H56.9668L54.4863 71.709L54.4619 71.7178L51.9609 72.5869L51.8525 72.624L51.7402 72.6445L49.1357 73.124L49.0811 73.1348L49.0244 73.1406L46.4941 73.4111L44.0186 74.0107L43.9492 74.0273L43.8809 74.0381L41.2686 74.417L41.1797 74.4297L41.0908 74.4326L38.457 74.498L38.4551 74.4971L35.8008 74.5605L35.1758 74.5752L34.7246 74.1416L32.9404 72.4229L32.6396 72.1338L32.5322 71.7295L31.873 69.2656L31.0293 66.8037L31.0127 66.7568L31 66.71L30.3184 64.1953L30.2295 63.875L28.7578 64.2207L26.8369 65.5908L26.835 65.5928L24.6787 67.123L24.6553 67.1396L24.6309 67.1562L22.4238 68.5977L22.376 68.6299L22.3252 68.6572L20.1592 69.8438L18.3486 71.5225L18.3428 71.5283L18.3369 71.5332L16.4219 73.2705L14.6748 75.0508L13.1797 77.04L11.9043 78.9502L11.4512 80.9521L11.7607 82.7637L13.1182 84.0195L15.2266 84.8174L17.5566 85.4355L20.0137 85.707L22.5332 85.8467L25.1094 85.7686L25.1992 85.7666L25.2881 85.7744L27.7686 85.9951L30.1553 85.6494L32.6924 85.0811L32.832 85.0488L32.9746 85.0449L35.4834 84.9678L37.9141 84.4072L37.9814 84.3916L38.0498 84.3828L40.5332 84.0449L42.9268 83.2598L43.1328 83.1924L43.3496 83.1855L45.832 83.1094L48.168 82.3887L48.1934 82.3799L48.2197 82.3721L50.7578 81.6885L53.2246 80.9414L55.7178 80.1104H55.7188L58.2207 79.2773L58.2979 79.251L58.3779 79.2344L60.7373 78.7217L62.8271 77.4648L63.0391 77.3379L63.2793 77.2852L65.8135 76.7275L68.1045 75.9883L70.2754 74.7236L70.3701 74.667L70.4736 74.627L72.9199 73.6465L73.0488 73.5947L73.1846 73.5664L75.584 73.0869L77.6895 71.8955L77.7949 71.8369L77.9072 71.7949L80.2266 70.9346L82.3076 69.5576L82.4648 69.4531L82.6455 69.3906L85.0635 68.5557L87.1973 67.4707L89.1797 65.9033L89.2568 65.8418L89.3418 65.791L91.6055 64.4434L91.6836 64.3975L91.7666 64.3604L94.0361 63.3564L96.0039 61.8594L96.0684 61.8096L96.1377 61.7686L98.3174 60.4531L100.333 58.8799L100.358 58.8604L100.384 58.8418L102.437 57.3711L104.237 55.6035L104.277 55.5645L104.319 55.5283L106.246 53.8965L107.8 52.0654L108.907 50.1299L109.124 48.1143L108.535 46.3262L107.217 44.9668L105.11 44.0947L102.862 43.2051L100.528 43.1123L97.9541 43.251L97.8643 43.2568L97.7744 43.251L95.2451 43.083L92.7715 43.2969ZM80.8867 50.2764L79.0459 51.9727L79.0381 51.9814L77.0771 53.7607L76.9941 53.8369L76.9004 53.8994L74.6953 55.3662L74.5947 55.4326L74.4844 55.4834L72.1709 56.5312L70.0576 57.9209L69.9863 57.9678L69.9102 58.0068L67.5498 59.1963L67.5117 59.2158L67.4727 59.2334L65.0674 60.2773L65.0684 60.2783L62.6572 61.3682L62.5615 61.4111L62.4609 61.4404L59.9561 62.1748L57.4707 63.0068L57.4316 63.0205L57.3916 63.0312L54.877 63.7227L52.4463 64.5303L49.9473 65.4219L49.8516 65.4561L49.751 65.4766L47.1602 66.0186L47.1426 66.0234L47.125 66.0264L44.5215 66.5039L44.4785 66.5117L44.4355 66.5176L41.8096 66.8438V66.8428L39.1943 67.1816L39.0537 67.2002L38.9121 67.1914L36.3838 67.0371L34.3604 67.2715L34.7295 68.3506L34.7461 68.3994L34.7607 68.4492L35.3213 70.5508L36.3555 71.5459L38.3818 71.498L40.9238 71.4346L43.374 71.0801L45.8779 70.4736L45.9736 70.4512L46.0713 70.4404L48.6523 70.1631L51.083 69.7148L53.4727 68.8838L55.9336 67.9824L55.9717 67.9688L58.4707 67.127L58.5664 67.0957L58.666 67.0762L61.1562 66.5977L63.4414 65.7119L65.7695 64.583L65.8438 64.5479L65.9209 64.5205L68.293 63.6768L70.4688 62.4424L72.7314 61.0928L72.7988 61.0527L72.8701 61.0195L75.1455 59.9639L77.2021 58.5244L77.2734 58.4746L77.3496 58.4336L79.6211 57.209L81.6445 55.8945L83.0791 54.3574L83.4922 52.8301L83.0605 50.8623L82.1475 49.4922L80.8867 50.2764ZM73.8779 36.7236L71.9102 38.4424L71.877 38.4707L71.8408 38.498L69.749 40.1191L69.6729 40.1777L69.5908 40.2266L67.3086 41.5674L67.2002 41.6309L67.0811 41.6758L64.707 42.5781L62.5088 43.8311L62.4424 43.8682L62.3721 43.9004L59.9551 44.9668L59.9316 44.9775L59.9072 44.9873L57.4688 45.9619L55.0615 47L54.9688 47.041L52.3555 47.7686L49.8779 48.584L49.8467 48.5938L49.8164 48.6025L47.3145 49.3076L44.8545 50.1484L44.8535 50.1475L42.375 51.0352L42.2666 51.0742L42.1533 51.0967L39.5508 51.5977L39.5127 51.6045L39.4756 51.6104L36.8506 51.9775L36.7842 51.9873L36.7178 51.9902L34.0713 52.124L34.041 52.126H34.0117L31.3613 52.1523L31.2432 52.1543L31.1543 52.1406L31.2686 53.3877L31.2715 53.4219L31.2725 53.4561L31.3818 55.8809L32.2529 58.1377L32.3281 58.3359L32.3477 58.5469L32.5645 61.0449L33.2129 63.4062V63.4102L33.4697 64.3555L33.5459 64.3467L36.1709 64.0439L36.3018 64.0283L36.4336 64.0361L38.9541 64.1875L41.4326 63.8672L41.4404 63.8662L44.0293 63.5439L46.5547 63.0801L49.0381 62.5605L51.4395 61.7051L51.4697 61.6943L53.9746 60.8623L54.0117 60.8496L54.0498 60.8389L56.5645 60.1465L59.0205 59.3252L59.0488 59.3145L59.0752 59.3066L61.5137 58.5928L63.833 57.5439L63.8525 57.5352L66.2393 56.4971L68.4766 55.3691L70.624 53.96L70.7207 53.8955L70.8271 53.8477L73.1357 52.7998L75.1484 51.46L77.0215 49.7598L78.959 47.9736L79.0635 47.8779L79.1846 47.8027L80.875 46.751L80.6602 46.1982L80.5391 45.8867L80.5615 45.5518L80.5918 45.1045L80.3291 44.8096L78.6904 42.9658L78.498 42.749L78.4004 42.4775L77.5664 40.1611L76.1602 38.1338L76.1123 38.0654L76.0723 37.9912L74.9277 35.8633L73.8779 36.7236ZM67.4453 33.5586L67.3447 33.5791L67.2432 33.5859L64.7539 33.7607L62.3633 34.4561L62.3184 34.4678L62.2744 34.4785L59.7354 35.0498L57.2627 35.7119L54.8301 36.584V36.583L52.3535 37.4824L52.3174 37.4951L52.2812 37.5059L49.7549 38.2793L47.3457 39.0166L45.1504 40.1455L42.9229 41.4941L42.7656 41.5889L42.5889 41.6436L40.252 42.3633L38.2334 43.7285L38.1143 43.8096L37.9814 43.8652L35.665 44.8516L33.5557 46.2051L33.5566 46.2061L31.5947 47.4834L30.6836 48.8115L30.7246 49.0449L31.4502 49.1523L33.9375 49.126L36.502 48.9971L39.0264 48.6436L41.4727 48.1709L43.8633 47.3164L43.874 47.3135L43.8838 47.3096L46.3818 46.4561L46.4199 46.4424L46.46 46.4307L48.9795 45.7207L51.4473 44.9082L51.4814 44.8984L51.5137 44.8887L53.9717 44.2031L56.3027 43.1973L56.3408 43.1816L58.7754 42.208L61.0928 41.1836L63.3242 39.9141L63.4258 39.8564L63.5342 39.8145L65.8945 38.918L67.9873 37.6875L69.9639 36.1572L71.918 34.4512L71.9355 34.4355L71.9541 34.4209L72.9639 33.5928L72.04 33.2373L69.8301 33.0605L67.4453 33.5586Z" fill="black"/>
</svg>
