<svg width="120" height="120" viewBox="0 0 120 120" fill="none" xmlns="http://www.w3.org/2000/svg">
<path d="M80.9688 24.3047L81.2734 24.668L81.3203 25.1367L81.5781 27.7734L81.6133 28.0547L81.5312 28.3359L81.2012 29.5H81.3359L81.6523 30.5781L81.8984 31.3984L81.9102 31.4336V31.4805L82.4258 33.6836L83.75 35.3477L85.6367 36.7656L87.8516 37.8438L90.2539 38.7344H90.2422L92.6445 39.5312L95.1055 40.2227L97.6953 40.7852L100.766 41.4531L98.3164 43.4219L97.168 44.3477L97.0742 44.4297L96.9688 44.4883L94.6602 45.7891L92.4336 47.125L92.3281 47.1953L92.2109 47.2422L89.8555 48.1562L89.6797 48.2285L89.7656 49.8359L89.7773 50.0234L89.7422 50.1992L89.499 51.5H90.0859L90.4844 52.3906L91.2344 54.0898L92.793 55.3438L94.9258 56.3633L97.293 57.1953L99.7305 57.957L102.25 58.4141L102.332 58.4258L102.402 58.4492L103.844 58.8594L108.555 60.1953L103.891 61.7188L101.383 62.5391L101.289 62.5742L101.184 62.5977L98.6992 63.0195L96.168 63.7344L96.1094 63.7578L96.0625 63.7695L95.3027 63.9248L95.3516 64.0156L95.5625 64.4023L95.5156 64.8594L95.2812 67.4961L95.2344 68L95.2812 68.5039L95.5156 71.1406L95.5273 71.2109V71.2695L95.5508 73.9062V74L95.5391 74.0938L95.249 76.5977L96.5391 76.7461L98.9766 76.3711L99.9609 76.2188L100.477 77.0742L101.672 79.0078L101.836 79.2656L101.883 79.5703L102.234 81.9844L102.984 84.5273L102.996 84.5742L103.008 84.6328L103.57 87.2109L103.594 87.3164L103.605 87.4219L103.77 89.8359L104.695 92.1094L104.801 92.3438L104.812 92.6016L104.918 95.168L105.48 97.4766L106.383 99.8906L106.418 99.9961L106.441 100.113L106.98 102.691L107.004 102.797V102.902L107.168 105.457L107.812 107.824L107.836 107.895L108.387 110.484L108.398 110.508V110.531L108.879 113.121H108.867L109.131 114.511L110.738 114.266L111.031 114.219L111.312 114.289L112.355 114.547L111.652 117.453L110.891 117.266L109.688 117.451L109.723 117.633L108.924 117.57L108.547 117.629L108.453 117.652H108.359L105.723 117.723H105.582L104.135 117.481L102.949 117.645L102.82 117.656H102.68L101.437 117.595L100.672 117.734L100.438 117.781L100.203 117.746L99.1445 117.605L97.5938 117.738L97.4531 117.75L97.3008 117.727L94.835 117.439L92.5977 117.629L92.4922 117.641L92.3984 117.629L90.4287 117.516H89.625L86.9883 117.645H86.8828L85.5176 117.62L84.7812 117.734L84.582 117.77L84.3945 117.746L83.5293 117.646L82.5039 117.688L82.4102 117.699L82.3281 117.688L80.0059 117.513L79.0195 117.504L78.8105 117.511L76.7773 117.711L76.6133 117.723L76.4492 117.699L75.8057 117.618L73.7578 117.691H73.6992L71.0625 117.668H71.0508L68.4023 117.621H68.332L68.2617 117.609L66.4287 117.396L66.0625 117.461L65.9336 117.484H64.8369L63.7109 117.699L63.4766 117.746L63.2305 117.711L62.1201 117.549L60.625 117.66L60.5547 117.672H60.4727L59.9707 117.656H57.7617L55.125 117.469V117.457L54.4756 117.438L53.1406 117.676L52.8828 117.723L52.7822 117.705L51.543 117.906L51.4111 117.467L50.7422 117.351L49.9219 117.34L48.8662 117.32L47.6914 117.395H47.668L47.6445 117.406L44.1143 117.516L44.1016 117.547L43.1406 117.582L40.5039 117.688L40.4102 117.699L40.3281 117.688L37.6797 117.488V117.477H37.4355L36.9258 117.539H36.8906L36.8438 117.551L34.207 117.703H34.043L32.4082 117.63L32 117.699L31.7891 117.734L31.5781 117.711L30.4004 117.564L28.8281 117.551L26.2148 117.598H26.2031L23.5547 117.609H23.4844L23.4023 117.598L22.624 117.518L21.1953 117.512H21.0781L19.9756 117.421L18.4102 117.562H18.2461L15.5977 117.516L14.9121 117.519L13.4258 117.664L13.2734 117.676L13.1211 117.664L10.625 117.395L8.16406 117.5H8V114.5H8.03516L10.5781 114.395L10.6836 114.383L10.7793 114.392L10.8984 113.977L11.5781 111.609L11.6719 109.113L11.6836 108.844L11.7773 108.598L12.75 106.23L13.2422 103.805L13.5586 101.285V101.262L13.9336 98.6367V98.5898L13.9453 98.543L14.4844 95.9766L15 93.3867L15.0234 93.2578L15.0703 93.1406L15.9727 90.7852L16.3359 88.3477L16.3477 88.2656L16.3711 88.1953L17.0039 85.6406L17.3906 83.1562V83.0977L17.4023 83.0391L17.9766 80.5781L18.2461 78.0234L18.3164 77.3203L18.9141 76.9219L19.1719 76.7461L19.5469 76.5H20.0391L22.5703 76.3945L22.6875 76.3828L22.793 76.3945L24.5391 76.583L24.5 76.4961L24.4883 76.2148L24.3945 73.5664L24.3125 70.9297V70.8711L24.3359 68.2344V67.7539L24.4766 67.5566L24.4648 67.2734V67.2266L24.4062 64.5898L24.3965 64.2197L24.3086 64.2148L24.1211 64.1445L21.6367 63.2305L19.3398 62.4102L16.7969 62.0469L14.4766 61.7188L15.7539 59.75L16.2344 59L16.5742 58.4727L17.1953 58.3438L19.6562 57.8398L22.0938 56.9961L22.2109 56.9609L22.3164 56.9375L24.7656 56.4805L26.9336 55.5195L28.7617 54.3594L29.9688 52.332L30.3438 51.6992L31.0586 51.6055L31.6709 51.5205L31.6055 49.8477V49.8359L31.5723 48.3477L31.2148 48.332L30.9336 48.3203L30.6641 48.2031L28.25 47.1133L28.0977 47.0547L27.9688 46.9492L25.9414 45.4375L23.6914 44.2305L23.2227 43.9727L23.0234 43.4922L22.6836 42.6953L21.9688 40.9844L23.7852 40.6328L26.1758 40.1758L28.3789 39.0508L28.5664 38.957L28.7656 38.9219L31.168 38.418L33.3711 37.3164L33.4062 37.293L33.4414 37.2812L35.5742 36.332L37.1914 34.5859L37.2383 34.5273L37.2969 34.4688L38.9375 33.0039L39.418 30.8477L39.6523 29.7578L40.0615 29.7275L39.6406 28.7461L39.5469 28.5234L39.5234 28.2656L39.3359 25.6289L39.3242 25.5352L39.3359 25.4414L39.4062 23.9297L39.4766 22.5H42.0781V22.5117L43.5195 22.3945L44.2812 22.3359L45.9688 24.3047L46.2734 24.668L46.3203 25.1367L46.5781 27.7734L46.6133 28.0547L46.5312 28.3359L46.2129 29.458L48.6172 29.7461L51.0781 29.582L51.1719 29.5703L51.2539 29.582L53.7031 29.7227L56.2109 29.3008L56.4219 29.2656L56.6328 29.2891L59.1758 29.6055L61.6602 29.6758L64.2734 29.4883L64.3203 29.4766H64.3789L67.0156 29.4883H67.1328L69.7109 29.6992L72.1484 29.6055L74.7852 29.3359L74.8896 29.3271L74.6406 28.7461L74.5469 28.5234L74.5234 28.2656L74.3359 25.6289L74.3242 25.5352L74.3359 25.4414L74.4062 23.9297L74.4766 22.5H77.0781V22.5117L78.5195 22.3945L79.2812 22.3359L80.9688 24.3047ZM93.1328 86.918L93.0508 86.9297L92.957 86.918L90.5078 86.7891L88 87.1992L87.7891 87.2344L87.5781 87.2109L85.0234 86.9062L82.5391 86.8359L79.9492 87.0117L79.8906 87.0234H79.832L77.1953 87.0117H77.0781L74.5 86.8125L72.0508 86.9062H72.0625L69.4258 87.1641L69.2734 87.1758L69.1211 87.1641L66.625 86.9062L65.5908 86.9453L65.4922 88.2031L65.4805 90.8398V91.5078L64.9883 91.9531L63.5352 93.2773L63.0781 93.6875L62.4805 93.6641L59.832 93.5938H59.7734L59.7031 93.582L57.0664 93.2773L56.6328 93.2188L56.293 92.9492L54.8398 91.7656L54.2422 91.2852L54.2891 90.5234L54.4297 87.9688L54.3652 87.0391L53.3711 87.0703H53.2539L53.1367 87.0586L50.5938 86.7656L48.1328 86.918L48.0508 86.9297L47.957 86.918L45.5078 86.7891L43 87.1992L42.7891 87.2344L42.5781 87.2109L40.0234 86.9062L37.5391 86.8359L34.9492 87.0117L34.8906 87.0234H34.832L32.1953 87.0117H32.0781L29.5 86.8125L27.0508 86.9062H27.0625L24.4258 87.1641L24.2734 87.1758L24.1211 87.1641L21.625 86.9062L19.7686 86.9766L19.2773 88.9336L18.9141 91.3945L18.8906 91.5586L18.832 91.7227L17.9062 94.1016L17.4258 96.5625V96.5742L16.8867 99.1641L16.5352 101.672L16.207 104.285L16.1953 104.344L16.1836 104.391L15.668 106.98L15.6328 107.121L15.5859 107.262L14.6602 109.488L14.5664 111.902L14.5547 112.078L14.5078 112.254L13.9219 114.316L14.0039 114.516H14.7832L15.7695 114.418H15.8633L18.5 114.312L18.5938 114.301L18.6758 114.312L19.9541 114.408L20.7773 114.34L20.9297 114.328L21.0703 114.34L22.9395 114.523H23.7383L26.375 114.336L26.4453 114.324L26.5273 114.336L29.1641 114.406H29.2344L29.293 114.418L30.6514 114.574L31.4883 114.586H31.5469L32.2432 114.614L32.3311 114.6L32.3359 114.477L32.4062 111.84V111.77L32.418 111.699L32.7227 109.062L32.875 106.508L32.9102 105.922L33.3203 105.523L35.2422 103.637L35.4648 103.414L35.7578 103.297L38.2891 102.348L38.8047 102.16L39.3203 102.348L41.8398 103.25L42.1094 103.344L42.332 103.531L44.2656 105.254L44.5703 105.523L44.6992 105.91L45.5195 108.418L45.7891 109.238L45.4727 109.59L45.6016 111.547L45.6133 111.664L45.6016 111.793L45.3291 114.353L47.2617 114.293H47.3438L48.8887 114.32L50.1523 114.242L50.3281 114.23L50.4492 114.254L50.4414 114.227L50.4297 114.062L50.2539 111.414L50.2422 111.273L50.2656 111.133L50.5703 108.613L50.4883 106.094V106L50.5586 103.352L50.5703 103.141L50.6289 102.941L51.4375 100.375L51.5664 99.9531L51.9062 99.6719L53.9219 97.9609L55.9375 96.2031L56.2891 95.8984L56.7461 95.8398L59.4062 95.5117L59.5469 95.5H59.6875L62.3359 95.6641L62.7461 95.6875L63.0742 95.9102L65.2773 97.375H65.2891L67.5039 98.875L67.8672 99.1211L68.043 99.5078L69.1328 101.98L69.2266 102.18L69.25 102.391L69.5547 104.805L69.7773 106.504H69.5547L69.6133 107.57V107.688L69.6016 107.793L69.332 110.277L69.5781 112.773L69.5898 112.82V112.855L69.6504 114.398L71.3633 114.43L73.9766 114.383H74.082L74.1875 114.395L74.3369 114.413L74.4062 111.84V111.77L74.418 111.699L74.7227 109.062L74.875 106.508L74.9102 105.922L75.3203 105.523L77.2422 103.637L77.4648 103.414L77.7578 103.297L80.2891 102.348L80.8047 102.16L81.3203 102.348L83.8398 103.25L84.1094 103.344L84.332 103.531L86.2656 105.254L86.5703 105.523L86.6992 105.91L87.5195 108.418L87.7891 109.238L87.4727 109.59L87.6016 111.547L87.6133 111.664L87.6016 111.793L87.3281 114.361L89.9141 114.488H89.9258L90.3779 114.516H92.1445L94.793 114.434H94.8984L94.9209 114.436L95 114.43L95.0586 114.418H95.1055L97.7539 114.406H97.8594L97.9648 114.418L99.2207 114.589L99.9961 114.527H100.184L101.291 114.579L102.77 114.312L103.027 114.266L103.285 114.301L104.177 114.449L105.199 114.316L105.352 114.293L105.504 114.305L106.043 114.34L105.926 113.672V113.66L105.445 111.07V111.059L104.918 108.609L104.227 106.055L104.191 105.914L104.18 105.762L104.016 103.219L103.535 100.863L102.633 98.4375L102.598 98.3555L102.574 98.2617L101.965 95.6953L101.941 95.5547L101.93 95.4141L101.812 93L100.91 90.75L100.816 90.5391L100.805 90.293L100.605 87.7148L100.452 87.0049L98.3711 87.0703H98.2539L98.1367 87.0586L95.5938 86.7656L93.1328 86.918ZM79.1055 105.992L77.8398 107.234L77.7109 109.332V109.414L77.4062 111.922L77.3359 113.949L77.8164 114.477L79.0654 114.483L79.1445 114.477H79.2734L81.9102 114.453H82.0039L82.0859 114.465L82.9922 114.568L84.0762 114.592L84.3555 113.891L84.6016 111.547L84.4492 109.18L84.4141 108.641L84.4258 108.617L83.9688 107.223L82.5625 105.98L80.8281 105.348L79.1055 105.992ZM57.5781 98.7578L55.9023 100.223L55.8906 100.234H55.8789L54.1562 101.688L53.5469 103.633L53.4883 106.082L53.5703 108.625V108.742L53.5586 108.859L53.2422 111.391L53.3945 113.676L53.624 114.417L54.1318 114.433L55 114.297L55.2109 114.273H55.2148L55.2617 114.266L55.4609 114.23L55.6602 114.242L58.1328 114.488L60.7227 114.348L60.8633 114.336L61.0156 114.359L61.9414 114.494L63 114.387H63.0586L63.1172 114.375L65.5059 114.321L65.8086 114.266L65.9844 114.23L66.1602 114.242L66.6348 114.265L66.5898 113.066L66.3438 110.43L66.3203 110.277L66.3438 110.125L66.6016 107.547L66.4961 105.168L66.4844 105.062L66.4961 104.969L66.5078 104.863L66.5195 104.723L66.2969 102.977L65.4648 101.113L63.6133 99.8711L61.75 98.6289L59.6172 98.5L57.5781 98.7578ZM37.1055 105.992L35.8398 107.234L35.7109 109.332V109.414L35.4062 111.922L35.3359 113.949L35.707 114.356L37.0156 114.43L38.584 114.322L39.2227 114.246L39.3398 114.234H39.457L39.6914 114.244L39.7227 114.242L39.7549 114.247L42.0938 114.352H42.1719L42.3555 113.891L42.6016 111.547L42.4492 109.18L42.4141 108.641L42.4258 108.617L41.9688 107.223L40.5625 105.98L38.8281 105.348L37.1055 105.992ZM57.3828 84.4648L57.2539 85.4141L57.418 87.8633L57.4297 87.9453L57.418 88.0391L57.3125 89.9141L57.8281 90.3359L59.9609 90.5938L61.9414 90.6523L62.4805 90.1719L62.4922 88.1914V88.0859L62.6914 85.5547L62.5742 84.5469L61.4258 84.6641L61.2734 84.6758L61.1211 84.6641L58.5664 84.3828L57.3828 84.4648ZM21.1055 79.4531L20.9648 80.9648L20.9531 81.0703L20.9297 81.1641L20.332 83.7305L20.2979 83.9473L21.5781 83.8945L21.6836 83.8828L21.8008 83.8945L24.2852 84.1641L26.7695 83.918H26.8633L29.5 83.8125L29.5938 83.8008L29.6758 83.8125L32.3125 84.0117L32.3008 84.0234H34.7383L37.375 83.8359L37.4453 83.8242L37.5273 83.8359L40.1641 83.9062H40.2344L40.293 83.918L42.7305 84.1992L45.1562 83.8008L45.3203 83.7773L45.4844 83.7891L48.0156 83.9297L50.582 83.7539L50.7227 83.7422L50.8633 83.7656L53.3711 84.0703L54.4111 84.0361L54.582 82.7891L55.6719 82.9531L56 81.5H56.7852L58.5547 81.3945L58.6719 81.3828L58.8008 81.3945L61.2852 81.6641L63.7695 81.418L65.2578 81.2773L65.4102 82.7539L65.5352 83.9375L66.5781 83.8945L66.6836 83.8828L66.8008 83.8945L69.2852 84.1641L71.7695 83.918H71.8633L74.5 83.8125L74.5938 83.8008L74.6758 83.8125L77.3125 84.0117L77.3008 84.0234H79.7383L82.375 83.8359L82.4453 83.8242L82.5273 83.8359L85.1641 83.9062H85.2344L85.293 83.918L87.7305 84.1992L90.1562 83.8008L90.3203 83.7773L90.4844 83.7891L93.0156 83.9297L95.582 83.7539L95.7227 83.7422L95.8633 83.7656L98.3711 84.0703L99.7012 84.0273L99.3516 82.8398L99.3281 82.7344L99.3047 82.6406L98.9414 80.2969L98.4375 79.4766L96.7852 79.7344L96.5859 79.7695L96.3867 79.7461L93.8555 79.4531H93.7637L93.6289 79.6836L92.7266 79.6484L90.5752 79.543L88.7812 79.7109L88.6172 79.7227L88.4531 79.6992L86.4746 79.4512L85.0039 79.5781H84.8867L82.25 79.6016H82.1445L82.0391 79.5781L81.7275 79.5352L80.0938 79.543H79.9062L79.707 79.5186L77.5537 79.6328L77.2227 79.6953L76.9766 79.7422L76.7188 79.6953L76.1914 79.6074L75.4688 79.7461L75.2227 79.7109L74.793 79.6484H74.7266L73.0947 79.5684L72.1914 79.7422L72.0156 79.7773L71.8398 79.7656L69.7539 79.6543L69.2656 79.7305L69.1484 79.7539H69.0312L66.3945 79.7422H66.2891L66.1836 79.7305L65.7207 79.6611L64.9521 79.709L64.875 79.7227L64.8389 79.7158L64.4219 79.7422L64.2812 79.7539L64.1406 79.7422L61.9209 79.4629L61.2031 79.5078H61.1328L60.2139 79.5107L59.2227 79.6953L58.9766 79.7422L58.7188 79.6953L57.8203 79.5469L56.4766 79.5898L56.4883 79.6016L53.8516 79.7656L53.3125 79.7891L52.877 79.4795L51.2656 79.7305L51.1484 79.7539H51.0312L48.3945 79.7422H48.2891L48.1836 79.7305L47.5264 79.6318L45.3242 79.5195L44.8232 79.5605L44.0039 79.6992L43.793 79.7344L43.582 79.7109L43.3477 79.6816L42.7578 79.7305L42.6172 79.7422L42.4648 79.7305L41.2773 79.5918L40.2461 79.6016H38.7227V79.4736L38.666 79.4717L37.4023 79.5078H36.0068L35.9531 79.5117L35.8945 79.5234H35.8359L34.7881 79.5186L34.7891 79.5195L32.1523 79.6484H32.0469L29.4102 79.5898L26.7734 79.543L26.6396 79.5391L25.4297 79.6641L25.2773 79.6758L25.125 79.6641L22.6172 79.3945L21.1055 79.4531ZM57.8633 69.7344L57.7227 69.7578L57.582 69.7461L56.2588 69.6553L56 69.6992L55.7891 69.7344L55.5781 69.7109L54.6221 69.5918L53.3711 69.6611L53.4883 71.7617V71.9844L53.2422 74.3984L53.5693 76.2568L53.6055 76.2617L54.3193 76.3369L56.2812 76.2852L56.4219 76.2734L56.5625 76.2969L57.626 76.4678L59.5078 76.418V76.4062L61.0654 76.3086L61.332 76.2617L61.5664 76.2148L61.8008 76.25L61.8691 76.2588L62.1445 76.2422L62.3203 76.2305L62.4961 76.2656L63.168 76.3848L63.6758 76.3555H63.8281L63.9805 76.3672L65.4482 76.582H65.4688L67.4648 76.2305L67.499 76.2324L67.3047 75.0078L67.2695 74.7969L67.293 74.5859L67.5977 72.0312L67.6445 70.0391L67.3496 69.708L65.5039 69.5938V69.582L64.8076 69.5625L64 69.6992L63.7891 69.7344L63.5781 69.7109L62.0244 69.5176L60.3711 69.5703H60.2539L60.1367 69.5586L59.7197 69.5078L57.8633 69.7344ZM89.7852 69.8047L89.7617 70.1562L89.6211 72.793L89.5742 75.3945L89.5889 76.4814L90.2422 76.5195H90.2305L90.542 76.5342L91.1484 76.4766H91.2656L92.043 76.4688L92.293 76.0508L92.5391 73.8594L92.5273 71.293H92.5156L92.375 69.6641L92.2617 69.6172H91.9766L89.6826 69.5752L89.7852 69.8047ZM41.9492 69.5117L41.8906 69.5234H41.832L41.6904 69.5225L41.7227 70.2734V70.4258L41.6992 70.5664L41.3008 72.9336L41.7344 75.3359L41.7578 75.4766V75.6172L41.7471 76.4697L42.0752 76.5078H43.0391L45.2148 76.3818L45.4023 76.3672H45.4727L45.6758 76.3555H45.8213L46.1602 76.3008L46.3125 76.2773L46.4766 76.2891L49.0195 76.4297L50.085 76.3564L50.3633 76.3203L50.4805 76.2969L50.5361 76.3018L50.2656 74.7383L50.2305 74.5391L50.2422 74.3398L50.4883 71.8438L50.3672 69.6367L50 69.6992L49.7891 69.7344L49.5781 69.7109L47.9648 69.5098L47.9492 69.5117L47.8906 69.5234H47.832L47.8018 69.5225L47.293 69.582L47.2344 69.5938H47.1641L45.7578 69.6309L45.4258 69.6641L45.2734 69.6758L45.1211 69.6641L45.0029 69.6504L44.5273 69.6641L44.4453 69.6758L44.375 69.6641L42.0889 69.501L41.9492 69.5117ZM71.1406 69.6758L70.8828 69.7227L70.6631 69.6836L70.5977 72.1602V72.2305L70.5859 72.3008L70.293 74.7266L70.5713 76.4229L70.9307 76.4434L71.457 76.3672L71.5508 76.3555H71.6445L74.2812 76.2852L74.3945 76.2754L74.5234 76.25L74.7695 76.2852L75.9307 76.4531L77.2227 76.2617L77.4102 76.2383L77.6094 76.2617L77.7432 76.2754L77.8008 76.2656L77.9766 76.2305L78.1641 76.2422L78.6045 76.2637L78.7305 75.5117L78.3203 73.1445L78.2734 72.875L78.3203 72.6172L78.7188 70.3086L78.5293 69.6416L77.6123 69.5918L77.1406 69.6758L76.8828 69.7227L76.6133 69.6758L75.8398 69.54L73.6602 69.7578L73.4609 69.7695L73.2617 69.7344L72.0361 69.5166L71.1406 69.6758ZM37.4258 69.6641L37.2734 69.6758L37.1211 69.6641L37.0654 69.6572L36.6758 69.6875L36.5938 69.6992L36.5 69.6875L33.8633 69.582H33.7695L33.3936 69.5439L33.2656 70.6836L33.4648 73.1562L33.4766 73.2617V73.3555L33.3594 75.6875L33.5938 76.332L35.2461 76.3906H35.2344L37.0322 76.4297L38.3672 76.3359L38.4492 76.3242L38.5195 76.3359L38.751 76.3418L38.7578 75.7227L38.3125 73.2266L38.2656 72.9688L38.3008 72.7109L38.7227 70.1797L38.7012 69.5391L37.4258 69.6641ZM81.7109 69.6992L81.6719 69.7061L81.707 69.8281L81.8008 70.168L81.7422 70.4961L81.3086 72.875L81.7422 75.2656L81.7773 75.5117L81.7422 75.7695L81.6348 76.3975L83.3555 76.4297L83.8193 76.4209L85.2266 76.2969L85.3555 76.2852H85.4727L86.5859 76.3672L86.5742 75.3828V75.3242L86.6328 72.6875V72.6406L86.7383 70.3555L86.4219 69.6465L84.1602 69.7578L83.9844 69.7695L83.8086 69.7344L82.6543 69.5186L81.7109 69.6992ZM28.8008 69.6055L28.6836 69.6172L28.5781 69.6055L27.3232 69.5527L27.3125 70.8945L27.3945 73.4727L27.4766 75.8164L27.7354 76.4209L27.7734 76.418H27.8555L30.3936 76.3164L30.3359 76.1562L30.3477 75.8516L30.4766 73.3203L30.2656 70.7656L30.2539 70.6133L30.2656 70.4727L30.3672 69.582L29.6885 69.5088L28.8008 69.6055ZM61.7617 64.6836L61.6445 64.6953H61.5156L59.0859 64.6084L58.9766 64.625L58.8242 64.6484L58.6719 64.6367L57.4287 64.5703L56.2539 64.5547H56.2422L54.0449 64.4961H53.5039L50.8789 64.5547H50.8672L49.4219 64.5801L48.4492 64.6367L48.2969 64.6484L48.1562 64.625L48.0479 64.6084L45.6055 64.6953H45.4883L45.3594 64.6836L42.8516 64.3555L42.3174 64.3799L40.6797 64.6367L40.5859 64.6484H40.4922L37.8438 64.7188H37.7031L37.5625 64.6953L36.1016 64.4502L35.1758 64.5547L35.0703 64.5664H34.9531L33.9102 64.5332L32.793 64.7422L32.5586 64.7773L32.3242 64.7422L30.3955 64.4844H29.6445L28.1611 64.417L27.8154 64.4199L27.4062 65.0117L27.4385 66.4414L28.5781 66.3945L28.6836 66.3828L28.8008 66.3945L29.6875 66.4902L31.1211 66.3359L31.2734 66.3242L31.4258 66.3359L32.7822 66.4678L33.5938 66.4346L33.7695 66.418H33.8633L34.6504 66.3857L34.6836 66.3828L34.7002 66.3838L36.5 66.3125L36.5938 66.3008L36.6758 66.3125L39.0342 66.4902L39.7695 66.418H39.8633L42.5 66.3125L42.5938 66.3008L42.6758 66.3125L43.6592 66.3867L44.375 66.3359L44.4453 66.3242L44.5273 66.3359L47.1641 66.4062H47.2344L47.293 66.418L47.5127 66.4434L47.7695 66.418H47.8633L48.8584 66.3779L49.5781 66.2891L49.7891 66.2656L50 66.3008L50.1514 66.3262L50.5 66.3125L50.5938 66.3008L50.6758 66.3125L51.2432 66.3545L51.7412 66.3682L52.1562 66.3008L52.3203 66.2773L52.4844 66.2891L54.4658 66.3984L54.5781 66.3945L54.6836 66.3828L54.8008 66.3945L55.082 66.4248L57.582 66.2539L57.7227 66.2422L57.8633 66.2656L58.1543 66.3008H58.1562L58.3203 66.2773L58.4844 66.2891L60.0547 66.376L60.5586 66.3896L62.5 66.3125L62.5938 66.3008L62.6758 66.3125L62.6992 66.3135L63.582 66.2539L63.7227 66.2422L63.8633 66.2656L65.1865 66.4258L65.4307 66.4199L65.5039 66.4072V66.4062L65.5195 66.4043L66.1562 66.3008L66.3203 66.2773L66.4844 66.2891L66.9639 66.3154L68.1523 66.2422L68.3281 66.2305L68.5039 66.2656L69.3135 66.4092L70.6504 66.3174L70.8828 66.2773L70.9795 66.2949L71.582 66.2539L71.7227 66.2422L71.8633 66.2656L72.5088 66.3438L72.9844 66.3145L73.2617 66.2656L73.4609 66.2305L73.6602 66.2422L73.8486 66.2607L74.1523 66.2422L74.3281 66.2305L74.5039 66.2656L75.2812 66.4033L76.1328 66.4883L78.7227 66.3477L78.8633 66.3359H78.8643L79.2617 66.2656L79.4609 66.2305L79.6602 66.2422L80.7822 66.3535L81.2305 66.2891L81.4766 66.2539L81.7109 66.3008L82.5693 66.4639L82.8105 66.4512L83.8086 66.2656L83.9844 66.2305L84.1602 66.2422L86.7969 66.3711L86.7852 66.3828L89.3633 66.4297L91.9766 66.3828H92.2617L92.375 66.3359L92.4922 65.0469L92.2227 64.5664L90.6055 64.7422L90.418 64.7656L90.2188 64.7305L88.4658 64.4697L88.0234 64.4844L87.9883 64.4961H87.9531L85.6465 64.4648L85.2383 64.4844H85.25L82.6016 64.6367H82.5078L82.4023 64.625L79.8711 64.4258L78.7676 64.4199L77.4766 64.4844H76.7949L74.7969 64.7422L74.5625 64.7773L74.3281 64.7422L73.1797 64.5342L72.168 64.5664H72.0625L71.957 64.5547L71.0586 64.4502L69.5586 64.6953L69.418 64.7188H69.2773L66.6406 64.6484H66.5469L66.4531 64.6367L64.6367 64.3623L64.2695 64.3438L61.7617 64.6836ZM64.8633 54.7344L64.7227 54.7578L64.582 54.7461L63.1504 54.6475L62.8398 54.6992L62.6875 54.7227L62.5234 54.7109L60.9961 54.626L59.4844 54.7109L59.3203 54.7227L59.1562 54.6992L58.8428 54.6475L57.4141 54.7461L57.2734 54.7578L57.1328 54.7344L55.1006 54.4883L54.293 54.582L54.2344 54.5938H54.1641L51.5273 54.6641L51.4453 54.6758L51.375 54.6641L50.0176 54.5674L49.4805 54.582L49.4922 54.5938L46.8555 54.7578L46.6797 54.7695L46.5039 54.7344L45.4697 54.5518L43.6758 54.6875L43.5938 54.6992L43.5 54.6875L42.2744 54.6377L41.7344 54.7344L41.5352 54.7695L41.3359 54.7578L38.8516 54.5117L36.2852 54.6523L36.1328 54.6641L35.9922 54.6406L35.7686 54.6084L35.6836 54.6172L35.5781 54.6055L33.0352 54.5H32.1631L31.1641 56.1992L30.9883 56.5156L30.6836 56.7031L28.4336 58.1328L28.3398 58.1914L28.2344 58.2383L25.8086 59.3047L25.6445 59.3867L25.4688 59.4102L22.9609 59.8672L22.0352 60.1836L22.6445 60.4062L22.6562 60.418L24.9531 61.25L26.3008 61.3428L26.3164 61.3203L27.1484 61.3555L28.2637 61.4092L29.875 61.4023H29.9805L30.0859 61.4141L30.6035 61.4844H32.3984L33.6963 61.5254L34.9023 61.3086L35.1602 61.2617L35.4062 61.3086L36.1445 61.4268L37.4727 61.2734L37.6133 61.25L37.7656 61.2617L40.2383 61.4727L42.0859 61.3809L42.8594 61.2617L42.9766 61.25H43.0938L45.7305 61.2617H45.8359L45.9414 61.2734L48.2646 61.6113L49.1641 61.5947L50.9219 61.4961H51.0039L53.3916 61.4854L53.4336 61.4844H53.6875L53.7266 61.4854L56.1289 61.4961H56.1992L57.626 61.583L58.9229 61.6123L61.1797 61.2734L61.2852 61.2617H61.3906L64.0391 61.25H64.1562L64.2617 61.2617L64.9697 61.374L66.8828 61.4609L69.3672 61.2617L69.5078 61.25L69.6602 61.2734L71.0098 61.4248L71.7148 61.3086L71.9727 61.2617L72.2305 61.3086L73.373 61.5215L74.7227 61.4844H76.5361L77.0352 61.4141L77.1406 61.4023H77.2461L78.7422 61.415L79.9727 61.3555H80.0781L82.7148 61.4023L85.3633 61.4609H85.3516L85.5312 61.4619L87.7227 61.3555L87.875 61.3438L88.0273 61.3672L88.6484 61.4609L90.5547 61.4023L93.0977 61.3086L95.4062 60.8281L97.2461 60.3125L96.4023 60.0547H96.3789L96.3555 60.043L93.8711 59.1758L93.7891 59.1406L93.7188 59.1055L91.3633 57.9805L91.1992 57.9102L91.0586 57.793L89.0664 56.1758L88.7852 55.9531L88.6445 55.625L88.1523 54.5234L86.4297 54.6055L86.3125 54.6172L86.207 54.6055L86.1914 54.6035L85.9805 54.6641L85.7227 54.6523L83.1328 54.5117L80.6602 54.7578L80.4609 54.7695L80.2617 54.7344L79.7217 54.6387L78.4961 54.6875L78.4141 54.6992L78.3203 54.6875L76.5303 54.5518L75.5039 54.7344L75.3281 54.7695L75.1523 54.7578L72.5039 54.5938V54.582L71.9795 54.5674L70.6328 54.6641L70.5508 54.6758L70.4805 54.6641L67.832 54.5938H67.7734L67.7031 54.582L66.8896 54.4873L64.8633 54.7344ZM81.5938 48.6836L81.4648 48.6953H81.3359L80.748 48.6738L80.543 48.6992L80.3789 48.7227L80.2266 48.7109L79.2676 48.6211L78.6992 48.6016V48.5898L76.0742 48.5547L74.6602 48.5166L72.6094 48.7461L72.4102 48.7695L72.2227 48.7344L70.6445 48.499L68.2812 48.6367L68.1289 48.6484L67.9766 48.625L67.0615 48.4863L64.6055 48.6289L64.5 48.6406L64.3945 48.6289L61.8506 48.4248L60.5 48.6367L60.4062 48.6484H60.3125L57.6641 48.7188H57.5234L57.3828 48.6953L57.3008 48.6807L56.8008 48.7461L56.5664 48.7812L56.332 48.7344L54.4434 48.4023L52.6133 48.7422L52.3789 48.7773L52.1445 48.7422L51.6797 48.6797L51.4219 48.7227H51.2812L48.6445 48.6523H48.5508L48.457 48.6289L47.0166 48.418L44.5508 48.625L44.4453 48.6367H44.3398L41.8906 48.4951L40.9805 48.6289L40.8281 48.6523L40.6758 48.6406L38.1992 48.5049L36.7344 48.7305L36.5352 48.7656L36.3477 48.7422L34.6836 48.5498L34.5703 48.5586L34.6055 49.7539L34.6582 51.417L35.8115 51.585L38.1211 51.3359L38.2734 51.3242L38.4258 51.3359L41.0625 51.5938L41.0508 51.6055L42.043 51.6426L43.8555 51.3242L44.125 51.2773L44.3828 51.3242L45.5635 51.5303L46.0781 51.4883H46.1953L48.832 51.4766H48.8906L48.9492 51.4883L50.0889 51.5703L54.625 51.4297H54.7422L54.8594 51.4414L55.1025 51.4717L56.5781 51.2891L56.7891 51.2656L57 51.3008L59.0254 51.6406L59.8633 51.582L59.9453 51.5703L60.0391 51.582L60.998 51.6367L61.957 51.582L62.0508 51.5703L62.1328 51.582L62.9854 51.6387L64.9961 51.3008L65.207 51.2656L65.418 51.2891L66.8848 51.4707L67.1367 51.4414L67.2539 51.4297H67.3711L71.9033 51.5703L73.0469 51.4883L73.1055 51.4766H73.1641L75.8008 51.4883H75.918L76.4277 51.5293L77.6133 51.3242L77.8828 51.2773L78.1406 51.3242L79.9434 51.6426L80.9336 51.6055L83.5703 51.3359L83.7227 51.3242L83.875 51.3359L85.9023 51.5547L86.4609 51.3945L86.7539 49.8477L86.6836 48.6055L85.4883 48.4297L83.6533 48.4023L81.5938 48.6836ZM54.0547 32.6992L53.9023 32.7227L53.7383 32.7109L51.1953 32.5703L48.6289 32.7461L48.4883 32.7578L48.3594 32.7344L45.8281 32.4297L43.3438 32.5L43.3555 32.5117L42.1016 32.5938L41.7617 34.1289L41.668 34.6094L41.293 34.9375L39.2891 36.7188L37.5898 38.582L37.3789 38.8164L37.0977 38.9453L34.6484 40.0234L32.3633 41.1836L32.1758 41.2773L31.9883 41.3242L29.5742 41.8047L27.5 42.8711L27.5352 42.8945L27.6172 42.9648L29.5977 44.4297L31.625 45.3438L33.9453 45.4492L33.9922 45.4609H34.0391L34.71 45.5352L35.3672 45.4883L35.4258 45.4766H35.4844L38.0273 45.499L38.9258 45.3672L39.0781 45.3438L39.2188 45.3555L41.8066 45.4814L43.1836 45.2773L43.2891 45.2539H43.3945L46.0312 45.2422H46.1484L46.2656 45.2656L47.2881 45.4229L49.6953 45.4023H49.8125L49.918 45.4141L51.6279 45.6475L53.7188 45.3008L53.9766 45.2656L54.2227 45.3125L54.4609 45.3555L54.7227 45.3086L54.9805 45.2617L55.2383 45.3086L57.3447 45.6475L59.0391 45.418L59.1445 45.4062H59.25L61.6768 45.417L62.6797 45.2617L62.7969 45.25H62.9141L65.5508 45.2617H65.668L65.7734 45.2734L67.2041 45.4824L69.7266 45.3594L69.8789 45.3477L70.0195 45.3711L70.8271 45.4951L73.4609 45.4844H73.5078L74.5039 45.5107L74.9062 45.4648L75 45.4531H75.0938L77.7305 45.4766H77.8594L79.4883 45.6318L80.668 45.665L82.8164 45.3945L82.9219 45.3828H83.0273L83.5498 45.3916L83.832 45.3555L83.9727 45.3438H84.1016L86.7031 45.4609L88.9883 45.2734L91.0039 44.4766L93.1602 43.1992L93.1836 43.1758L93.6289 42.918L91.8359 42.4258L91.7656 42.4023L89.2578 41.5586H89.2344L89.2109 41.5469L86.7266 40.6328L86.6562 40.6094L86.5859 40.5742L84.1953 39.4023L84.0781 39.3438L83.9609 39.25L81.8281 37.6445L81.6758 37.5391L81.5586 37.3984L79.8828 35.3125L79.6602 35.043L79.5898 34.7148L79.0742 32.5352L77.6445 32.6055L77.5273 32.6172L77.4219 32.6055L74.9141 32.3359L72.4414 32.582H72.3594L69.7109 32.6875L69.6289 32.6992L69.5352 32.6875L66.8984 32.4883V32.4766H64.4727L61.8477 32.6641L61.7656 32.6758L61.6953 32.6641L59.0586 32.5938H58.9883L58.918 32.582L56.4805 32.3008L54.0547 32.6992ZM42.3242 25.4883L42.4883 27.7969L42.8164 28.5586L43.332 28.5938L43.5664 27.7734L43.3789 25.8984L42.9922 25.4414L42.3242 25.4883ZM77.3242 25.4883L77.4883 27.7969L77.8164 28.5586L78.332 28.5938L78.5664 27.7734L78.3789 25.8984L77.9922 25.4414L77.3242 25.4883Z" fill="black"/>
</svg>
