<svg width="106" height="116" viewBox="0 0 106 116" fill="none" xmlns="http://www.w3.org/2000/svg">
<path d="M52.7686 0.408203H53.6006L55.1006 0.396484V0.583984L55.0889 0.677734L54.8193 3.06836L54.9248 5.57617L55.1123 8.21289L55.124 8.27148V8.33008L55.1123 10.9668V11.0254L55.085 11.6973L55.668 11.6377L56.1602 12.4111L57.543 14.5322L57.8008 14.9189L57.7773 15.3877L57.707 18.0244L57.8359 20.5674L57.8594 20.9424L57.6953 21.2705L57.5039 21.6836L57.6396 21.7383H57.6514L57.6631 21.75L60.0771 22.7461L60.3115 22.8516L60.5107 23.0273L62.4678 24.7969L62.5498 24.8789L64.3545 26.8008L64.5537 27.0117L64.6592 27.293L65.6084 29.7422L65.6318 29.8008L65.6436 29.8594L66.4053 32.3672L66.4639 32.5781V32.8125L66.4287 35.4844L66.417 35.7656L66.3115 36.0234L65.3037 38.4961V38.5195L65.292 38.5312L64.2607 40.9219L64.1787 41.1211L64.0381 41.2852L62.3975 43.2891L62.2686 43.4414L62.1162 43.5469L60.0303 45.082L59.8662 45.1992L59.667 45.2695L59.5098 45.3281L59.5322 47.6455L59.8955 50.2002H59.8838L60.2939 52.7783L60.3057 52.8252V52.8721L60.5635 55.4971L60.5752 55.5908L60.5635 55.6729L60.5166 58.1807L60.9502 60.6416L60.9736 60.7588L61.2314 63.3838L61.2432 63.3955V63.4072L61.4541 65.9619L61.8057 68.5752L61.8174 68.6689L61.8291 68.751L61.8877 71.3994L62.0869 73.9424V73.9658L62.0986 73.9893L62.2158 76.5791L62.5322 79.0518L63.001 81.665L63.0127 81.7119L63.0244 81.7705L63.2705 84.126L64.1963 86.3408L65.333 88.4736L66.6807 90.7354L66.751 90.8408L66.7861 90.9463L67.7354 93.3018L69.0596 95.3174L70.6182 97.4619L70.7119 97.5908L70.7705 97.7432L71.79 100.087L73.2197 102.231L74.3799 104.552L75.9033 106.591L76.0322 106.778L76.1143 107.001L76.9463 109.438L78.0127 111.735L78.0449 111.793L80.3262 111.973L82.8574 111.809H82.9863L85.5293 111.879H85.5762L85.582 112.703L87.8359 112.266L88.082 112.219L88.3164 112.254L90.8945 112.605L93.2734 112.711L95.793 112.277L95.9102 112.266H96.0273L98.6641 112.242H98.8164L98.9688 112.266L101.406 112.746L103.809 112.5L103.891 112.488H103.973L105.016 112.5L105.004 114L104.98 115.5L103.984 115.488L101.477 115.746L101.254 115.77L101.031 115.734L98.5703 115.242L96.1445 115.254L93.6484 115.688L93.4961 115.711L93.332 115.699L90.6953 115.594H90.625L90.5547 115.582L88.1523 115.242L85.7617 115.711L85.5273 115.758L85.293 115.734L82.7383 115.406L80.207 115.418L80.1953 115.406L77.6055 115.488H77.5938L74.957 115.547H74.9336L72.3672 115.559L72.3789 115.57L69.7422 115.746L69.5547 115.758L66.9297 115.266L64.5391 115.547L64.4102 115.559H64.2812L61.7266 115.418L59.1719 115.582H59.043L58.9141 115.57L56.418 115.289L53.957 115.559H53.8867L51.25 115.711L51.0977 115.723L50.957 115.699L48.4141 115.348L45.9062 115.406H45.8477L43.2109 115.348V115.336H40.5742L37.9492 115.289L35.4531 115.512L35.418 115.523H35.3711L32.7344 115.617H32.6172L29.9805 115.512V115.5L27.3906 115.488H27.3438L27.2969 115.477L24.7188 115.301L22.1875 115.43H22.1055L19.4688 115.418V115.406L16.9609 115.43L14.3242 115.664L14.1836 115.676L14.0312 115.664L11.5 115.383L8.92188 115.395V115.383L6.37891 115.559H6.36719L6.35547 115.57L3.70703 115.688L3.61328 115.699L3.53125 115.688L0.988281 115.5L1 115.277V112.5H1.21094L3.67188 112.699L6.17969 112.582V112.57L8.81641 112.395H8.91016L11.5469 112.383L11.6406 112.371L11.7227 112.383L14.2305 112.664L16.7148 112.453L16.7617 112.441H16.8203L19.4688 112.418H19.4922L21.4834 112.427L21.5449 111.785L22.6113 111.879H22.623L25.1074 112.137L27.5918 111.902L27.6973 111.891H27.8145L29.1455 111.979L29.1494 111.935L29.1611 111.771L29.2197 111.606L30.0283 109.052L30.1221 108.759L30.3096 108.524L31.9268 106.614L32.9111 104.411L32.9697 104.294L33.04 104.177L34.5049 102.032L35.7002 99.8057L35.7705 99.6885L35.8408 99.583L37.3877 97.626L38.4541 95.3877L38.4658 95.3525L38.4775 95.3291L39.6963 92.9854L39.7549 92.8682L39.8369 92.7627L41.3838 90.7588L42.5557 88.5439V88.5322L42.5674 88.5205L43.8213 86.1885L44.8408 84.0908L45.1924 81.7471L45.1689 79.2627V79.2158L45.1807 79.1807L45.2861 76.5439V76.4268L45.5908 73.8486L45.8135 71.2236L45.8252 71.1768V71.1299L46.1885 68.5752L46.2471 66.0439V66.0088L46.2588 65.9619L46.458 63.3369L46.5986 60.7236L46.54 58.1924V58.0518L46.5635 57.8994L46.9971 55.4033L47.126 52.9307L47.0791 50.3174L46.9619 47.6807L46.9502 47.3643L47.0674 47.0713L47.7188 45.416L46.0732 44.1562L45.9561 44.0625L45.8623 43.9453L44.1396 41.9766L44.0811 41.918L44.0342 41.8477L42.5459 39.7148L42.4053 39.5156L42.335 39.293L41.585 36.7852L41.5381 36.6328L41.5264 36.4688L41.3271 33.8555L41.3154 33.7734L41.3271 33.6914L41.4092 31.043V30.7266L41.5498 30.4453L42.6865 28.043L42.7217 27.9609L42.7686 27.8906L44.1514 25.6758L44.2217 25.5703L44.3037 25.4766L46.0498 23.5078L46.1787 23.3555L46.3545 23.25L48.5811 21.7969L48.7217 21.7031L48.874 21.6445L50.0146 21.2168L50.0078 21.083L49.832 18.4463V18.3408L49.8438 15.7041V15.3525L49.9961 15.0361L51.1211 12.7979L51.4844 12.0596L52.0684 12.002L52.1123 10.9082L52.124 8.43555L51.9248 5.79883V5.74023L51.8193 3.10352V2.98633L51.8311 2.88086L52.1123 0.337891L52.7686 0.408203ZM41.1377 96.7119L40.0244 99.0674L39.9541 99.2197L39.8486 99.3486L38.29 101.317L37.0947 103.556L37.0596 103.626L37.0127 103.685L35.583 105.771L34.5635 108.067L34.4814 108.255L32.7939 110.224L32.2832 111.825L32.8418 111.762H33.0293L35.6777 111.785H35.7949L35.9121 111.809L38.4316 112.242L40.8809 112.172H40.9277L42.749 112.18L42.9727 110.107V110.061L42.9844 110.025L43.4062 107.4L43.4414 107.225L43.5117 107.061L44.4961 104.693L45.1055 102.268L45.6562 99.7363V99.7246L46.2422 97.1582L46.459 95.9727L44.415 95.8281H44.3447L44.2744 95.8164L41.8066 95.4082L41.1377 96.7119ZM49.9932 95.8633H49.9346L49.8877 95.875L49.5137 95.8945L49.1719 97.7559V97.791L49.1602 97.8145L48.5859 100.381L48.0234 102.947V102.994L47.3789 105.561L47.3555 105.678L47.3086 105.783L46.3359 108.08L45.9375 110.506L45.7686 112.153L46.1895 112.148H46.2246L48.8379 112.184L51.3457 111.949H51.416L54.0645 111.844H54.1934L56.8301 111.961L56.8184 111.973L59.3379 112.02L61.8877 111.87L61.6494 110.635L60.8057 108.244L60.7588 108.115L60.7471 107.998L60.29 105.385V105.373L59.6689 103.088L58.7666 100.604V100.58L58.7549 100.557L57.9346 98.0254L57.876 97.8379L57.8643 97.6387L57.7861 95.9326L57.751 95.9336H57.6455L55.0205 95.8281H54.9619L54.9033 95.8164L52.4541 95.5352L49.9932 95.8633ZM63.1768 95.5469H63.1299L60.7861 95.8203L60.8525 97.2871L61.5908 99.584L62.4932 102.068L62.5166 102.127L62.5283 102.186L63.2197 104.729L63.2432 104.869L63.6768 107.377L64.5205 109.732L64.5557 109.85L64.5791 109.955L64.9365 111.848L67.3535 112.055L69.8848 112.008L72.4043 111.762L72.5566 111.738L72.709 111.762L74.8203 111.998L74.2041 110.657L74.1689 110.587L74.1455 110.505L73.3369 108.173L71.9072 106.228L71.8369 106.134L71.7783 106.028L70.665 103.813L69.2119 101.599L69.1416 101.493L69.083 101.376L68.0986 99.1143L66.6221 97.0752L66.6104 97.0518L66.5869 97.0166L65.4033 95.2129L63.1768 95.5469ZM60.2031 85.874L59.9688 85.9561L59.7227 85.9443L57.1094 85.8857L54.5078 85.9678L54.4961 85.9561L51.8945 86.0967H51.8359L49.1875 86.1201H49.0938L48.9883 86.1084L47.3164 85.8896L46.4932 87.5713L46.4697 87.5947L46.458 87.6182L45.2041 89.9502L43.9854 92.2705L43.9268 92.3877L43.8447 92.4932L43.6992 92.6787L44.7314 92.8516L47.1807 93.0156L49.6885 92.8867L52.2432 92.5469L52.4189 92.5234L52.5947 92.5469L55.1377 92.8281L57.7158 92.9336L60.2588 92.875L62.79 92.5703V92.582L64.1279 92.377L64.0439 92.165L62.7549 90.0088L62.7432 89.9736L62.7197 89.9502L61.4775 87.6182L61.4541 87.5596L61.4189 87.4893L60.6855 85.7217L60.2031 85.874ZM54.5459 46.8867L54.4053 46.9219L54.2529 46.9336L51.6045 47.0742L51.2646 47.0977L50.9482 46.9688L50.4131 46.7441L49.9736 47.8564L50.0791 50.1885V50.2236L50.126 52.8721V52.9775L49.9971 55.6143L49.9736 55.8018L49.54 58.2627L49.5986 60.7822V60.8877L49.4463 63.5244V63.5596L49.2471 66.1963L49.1885 68.7627L49.1768 68.8447L49.165 68.9385L48.8018 71.5518L48.79 71.54L48.5791 74.1064V74.1533L48.2744 76.7783L48.1689 79.3096L48.2041 81.876V81.9932L48.1807 82.1104L48.0557 82.9629L49.2578 83.1201L51.7539 83.1084V83.0967L54.3906 82.9678H54.4141L57.0508 82.8857H57.1328L59.5352 82.9443L60.1094 82.7607L60.0479 82.1924L59.5791 79.5908V79.5439L59.5674 79.5088L59.2393 76.8955L59.2275 76.8369V76.7783L59.0986 74.1768L58.8877 71.5518V71.458L58.8291 68.915L58.4775 66.3721V66.3252L58.4658 66.29L58.2549 63.6885L57.9971 61.1689L57.54 58.5557L57.5166 58.415V58.2744L57.5635 55.6143L57.3408 53.2471L56.9189 50.6338V50.6104L56.5557 47.9854L56.5439 47.9033V47.8096L56.5234 46.3779L54.5459 46.8867ZM58.96 35.7412L58.9717 35.7529L56.3232 35.9287H56.2412L53.5928 35.9404H53.4287L50.9092 35.6592L48.4365 35.8818H48.3311L45.6826 35.917L45.6709 35.9053L44.4863 36.0039L44.4912 36.0586L45.1357 38.1914L46.46 40.0781L48.042 41.8828L49.8232 43.2539L51.7686 44.0508L53.9482 43.9336L56.2568 43.3359L58.4482 42.5156L60.1943 41.2383L61.5889 39.5391L62.5381 37.3359L63.1211 35.8994L61.3975 35.6123L58.96 35.7412ZM53.1484 23.8018L51.7617 23.7637L50.0693 24.3984L48.1709 25.6289L46.6006 27.3984L45.3467 29.4141L44.3857 31.4414L44.335 33.0068L45.5537 32.917H45.6475L48.2959 32.8818V32.8936L50.8154 32.6592L50.9678 32.6475L51.1084 32.6592L53.6396 32.9404L56.2178 32.9287V32.9404L58.7725 32.7646H58.7842L61.4209 32.624L61.585 32.6123L61.7373 32.6357L63.4209 32.9082L62.8076 30.8203L61.9756 28.6523L60.4404 27.0234L58.6943 25.418L56.5381 24.5273L54.2529 23.625L53.1729 23.5635L53.1484 23.8018ZM53.4297 14.8721L52.832 16.0439V18.3525L52.9746 20.5557L54.6689 20.6582L54.8125 20.3447L54.707 18.0596V17.9424L54.7656 15.7744L54.1445 14.8018L53.4297 14.8721Z" fill="black"/>
</svg>
