<svg width="120" height="120" viewBox="0 0 120 120" fill="none" xmlns="http://www.w3.org/2000/svg">
<path d="M66.4971 47.1025L66.5088 47.1611V47.2197L66.5322 49.6455L66.8955 52.2002H66.8838L67.2939 54.7783L67.3057 54.8252V54.8721L67.5635 57.4971L67.5752 57.5908L67.5635 57.6729L67.5166 60.1807L67.9502 62.6416L67.9736 62.7588L68.2314 65.3838L68.2432 65.3955V65.4072L68.4541 67.9619L68.8057 70.5752L68.8174 70.6689L68.8291 70.751L68.8877 73.3994L69.0869 75.9424V75.9658L69.0986 75.9893L69.2158 78.5791L69.5322 81.0518L70.001 83.665L70.0127 83.7119L70.0244 83.7705L70.2705 86.126L71.1963 88.3408L72.333 90.4736L73.6807 92.7354L73.751 92.8408L73.7861 92.9463L74.7354 95.3018L76.0596 97.3174L77.6182 99.4619L77.7119 99.5908L77.7705 99.7432L78.79 102.087L80.2197 104.231L81.3799 106.552L82.9033 108.591L83.0322 108.778L83.1143 109.001L83.9463 111.438L85.0127 113.735L85.1182 113.923L83.8057 114.649L82.4932 115.388L82.3408 115.095L82.3057 115.048L82.2822 115.001L81.2041 112.657L81.1689 112.587L81.1455 112.505L80.3369 110.173L78.9072 108.228L78.8369 108.134L78.7783 108.028L77.665 105.813L76.2119 103.599L76.1416 103.493L76.083 103.376L75.0986 101.114L73.6221 99.0752L73.6104 99.0518L73.5869 99.0166L72.1338 96.8018L72.0518 96.6846L71.9932 96.5439L71.0439 94.165L69.7549 92.0088L69.7432 91.9736L69.7197 91.9502L68.4775 89.6182L68.4541 89.5596L68.4189 89.4893L67.4229 87.0869L67.3408 86.8877L67.3174 86.6768L67.0479 84.1924L66.5791 81.5908V81.5439L66.5674 81.5088L66.2393 78.8955L66.2275 78.8369V78.7783L66.0986 76.1768L65.8877 73.5518V73.458L65.8291 70.915L65.4775 68.3721V68.3252L65.4658 68.29L65.2549 65.6885L64.9971 63.1689L64.54 60.5557L64.5166 60.415V60.2744L64.5635 57.6143L64.3408 55.2471L63.9189 52.6338V52.6104L63.5557 49.9854L63.5439 49.9033V49.8096L63.5088 47.2549L63.8135 47.2432L64.9971 47.1377L66.4854 46.9971L66.4971 47.1025Z" fill="black"/>
<path d="M56.0713 47.1143L56.4111 47.1377L57.8994 47.2783V47.3838L57.876 47.5947L57.7939 47.7822L56.9736 49.8564L57.0791 52.1885V52.2236L57.126 54.8721V54.9775L56.9971 57.6143L56.9736 57.8018L56.54 60.2627L56.5986 62.7822V62.8877L56.4463 65.5244V65.5596L56.2471 68.1963L56.1885 70.7627L56.1768 70.8447L56.165 70.9385L55.8018 73.5518L55.79 73.54L55.5791 76.1064V76.1533L55.2744 78.7783L55.1689 81.3096L55.2041 83.876V83.9932L55.1807 84.1104L54.7939 86.7588L54.7588 86.9932L54.6533 87.2041L53.4932 89.5713L53.4697 89.5947L53.458 89.6182L52.2041 91.9502L50.9854 94.2705L50.9268 94.3877L50.8447 94.4932L49.2627 96.5205L48.1377 98.7119L47.0244 101.067L46.9541 101.22L46.8486 101.349L45.29 103.317L44.0947 105.556L44.0596 105.626L44.0127 105.685L42.583 107.771L41.5635 110.067L41.4814 110.255L39.7939 112.224L39.126 114.321L39.1025 114.778L36.1025 114.544L36.1494 113.935L36.1611 113.771L36.2197 113.606L37.0283 111.052L37.1221 110.759L37.3096 110.524L38.9268 108.614L39.9111 106.411L39.9697 106.294L40.04 106.177L41.5049 104.032L42.7002 101.806L42.7705 101.688L42.8408 101.583L44.3877 99.626L45.4541 97.3877L45.4658 97.3525L45.4775 97.3291L46.6963 94.9854L46.7549 94.8682L46.8369 94.7627L48.3838 92.7588L49.5557 90.5439V90.5322L49.5674 90.5205L50.8213 88.1885L51.8408 86.0908L52.1924 83.7471L52.1689 81.2627V81.2158L52.1807 81.1807L52.2861 78.5439V78.4268L52.5908 75.8486L52.8135 73.2236L52.8252 73.1768V73.1299L53.1885 70.5752L53.2471 68.0439V68.0088L53.2588 67.9619L53.458 65.3369L53.5986 62.7236L53.54 60.1924V60.0518L53.5635 59.8994L53.9971 57.4033L54.126 54.9307L54.0791 52.3174L53.9619 49.6807L53.9502 49.3643L54.0674 49.0713L55.0049 46.6924L56.0713 47.1143Z" fill="black"/>
<path d="M68.7373 34.6353L71.1279 35.022H71.1514L71.1396 35.0338L71.2686 35.0455L71.1279 35.8775V36.522L71.1045 38.022H70.8936L70.7881 38.0103L68.3975 37.6119L65.96 37.7408L65.9717 37.7525L63.3232 37.9283H63.2412L60.5928 37.94H60.4287L57.9092 37.6588L55.4365 37.8814H55.3311L52.6826 37.9166L52.6709 37.9048L50.4209 38.0923L49.2959 38.1744L48.8975 37.1197L48.874 37.0611L50.2803 36.522L50.292 36.5103L50.1865 35.0923L52.5537 34.9166H52.6475L55.2959 34.8814V34.8931L57.8154 34.6588L57.9678 34.647L58.1084 34.6588L60.6396 34.94L63.2178 34.9283V34.94L65.7725 34.7642H65.7842L68.4209 34.6236L68.585 34.6119L68.7373 34.6353Z" fill="black"/>
<path d="M79.709 113.761L82.2168 114.042L84.5137 113.785L84.6543 113.761L84.7949 113.773L87.3262 113.972L89.8574 113.808H89.9863L92.5293 113.878H92.5762L92.5996 116.878H92.4473L89.9863 116.808L87.4082 116.96L87.3027 116.972L87.209 116.96L84.7246 116.773L82.3809 117.031L82.2168 117.054L82.0527 117.031L79.5801 116.75L77.0605 117.007H76.9316L74.2949 117.054H74.2129L74.1426 117.042L71.5176 116.832L69.0566 116.867L69.0449 116.855L66.4902 117.019H66.3613L63.7246 116.96H63.6895L61.1113 116.843L58.5449 116.949L58.5332 116.937L55.9785 117.183H55.8262L53.1895 117.148L50.5762 117.183H50.5645L47.9512 117.171L45.3145 117.242H45.1738L45.0215 117.218L42.5137 116.773L40.0645 116.761L37.5449 117.042L37.416 117.054L37.2871 117.042L34.7793 116.89L32.2363 117.136L32.0957 117.148L31.9434 117.136L29.3184 116.867V116.855L28.2637 116.761L28.5449 113.785L29.6113 113.878H29.623L32.1074 114.136L34.5918 113.902L34.6973 113.89H34.8145L37.2988 114.054L39.8418 113.761H40.0293L42.6777 113.785H42.7949L42.9121 113.808L45.4316 114.242L47.8809 114.171H47.9277L50.5527 114.183L53.1895 114.148H53.2246L55.8379 114.183L58.3457 113.949H58.416L61.0645 113.843H61.1934L63.8301 113.96L63.8184 113.972L66.3379 114.019L68.9512 113.867H69.0215L71.6113 113.832H71.752L74.3535 114.054L76.8848 114.007L79.4043 113.761L79.5566 113.738L79.709 113.761Z" fill="black"/>
<path d="M67.7354 96.7906L67.7471 96.9313L67.8525 99.2867L68.5908 101.584L69.4932 104.068L69.5166 104.127L69.5283 104.185L70.2197 106.728L70.2432 106.869L70.6768 109.377L71.5205 111.732L71.5557 111.849L71.5791 111.955L72.0713 114.556L72.3174 115.834L71.0869 116.255L71.0049 116.279L70.5127 114.861L70.501 114.849L69.1299 115.119L68.6494 112.634L67.8057 110.244L67.7588 110.115L67.7471 109.998L67.29 107.384V107.373L66.6689 105.088L65.7666 102.603V102.58L65.7549 102.556L64.9346 100.025L64.876 99.8375L64.8643 99.6383L64.7471 97.0719L65.7432 97.025L66.2236 96.9078L67.6768 96.5563L67.7354 96.7906Z" fill="black"/>
<path d="M55.1875 96.9078L56.6406 97.2594L56.6289 97.2711L56.1719 99.7555V99.7906L56.1602 99.8141L55.5859 102.38L55.0234 104.947V104.994L54.3789 107.56L54.3555 107.677L54.3086 107.783L53.3359 110.08L52.9375 112.505L52.6797 115.025L52.6211 115.541L52.2695 115.904L52.1875 115.998L51.0977 114.966L50.9805 114.849L49.6914 114.72L49.9727 112.107V112.06L49.9844 112.025L50.4062 109.4L50.4414 109.224L50.5117 109.06L51.4961 106.693L52.1055 104.267L52.6562 101.736V101.724L53.2422 99.1578L53.6875 96.7321L53.6992 96.6969V96.65L53.7227 96.5563L55.1875 96.9078Z" fill="black"/>
<path d="M63.1602 14.4106L64.543 16.5317L64.8008 16.9185L64.7773 17.3872L64.707 20.0239L64.8359 22.5669L64.8594 22.9419L64.6953 23.27L64.1211 24.5122L63.3594 26.1411L61.8945 25.1099L61.8828 25.0981L62.75 23.8794V23.8677L61.4023 23.2466L61.8125 22.3442L61.707 20.0591V19.9419L61.7656 17.7739L61.1445 16.8013L60.4297 16.8716L59.832 18.0435V20.3521L59.9961 22.8833L60.0078 22.895L60.0547 23.7153L60.3594 23.7388V23.8325H60.0547V23.9028L60.3477 23.938L60.1484 25.8013L57.1602 25.7192L57.0078 23.0825L56.832 20.4458V20.3403L56.8438 17.7036V17.3521L56.9961 17.0356L58.1211 14.7974L58.4844 14.0591L59.3164 13.9771L61.7539 13.731L62.668 13.6372L63.1602 14.4106Z" fill="black"/>
<path d="M59.167 22.5082L61.6982 22.6606L61.9326 22.6723L62.1553 22.7543L64.6396 23.7387H64.6514L64.6631 23.7504L67.0771 24.7465L67.3115 24.852L67.5107 25.0278L69.4678 26.7973L69.5498 26.8793L71.3545 28.8012L71.5537 29.0121L71.6592 29.2934L72.6084 31.7426L72.6318 31.8012L72.6436 31.8598L73.4053 34.3676L73.4639 34.5786V34.8129L73.4287 37.4848L73.417 37.7661L73.3115 38.0239L72.3037 40.4965V40.52L72.292 40.5317L71.2607 42.9223L71.1787 43.1215L71.0381 43.2856L69.3975 45.2895L69.2686 45.4418L69.1162 45.5473L67.0303 47.0825L66.8662 47.1996L66.667 47.27L64.2529 48.184L64.1709 48.2075L64.1006 48.2309L61.5459 48.8871L61.4053 48.9223L61.2529 48.934L58.6045 49.0746L58.2646 49.0981L57.9482 48.9692L55.5107 47.9496L55.3232 47.8793L55.1709 47.7621L53.0732 46.1567L52.9561 46.0629L52.8623 45.9457L51.1396 43.977L51.0811 43.9184L51.0342 43.8481L49.5459 41.7153L49.4053 41.5161L49.335 41.2934L48.585 38.7856L48.5381 38.6332L48.5264 38.4692L48.3271 35.8559L48.3154 35.7739L48.3271 35.6918L48.4092 33.0434V32.727L48.5498 32.4457L49.6865 30.0434L49.7217 29.9614L49.7686 29.8911L51.1514 27.6762L51.2217 27.5707L51.3037 27.477L53.0498 25.5082L53.1787 25.3559L53.3545 25.2504L55.5811 23.7973L55.7217 23.7036L55.874 23.645L57.7842 22.9301L57.9014 22.4379L59.167 22.5082ZM59.3193 25.5551L57.0693 26.3989L55.1709 27.6293L53.6006 29.3989L52.3467 31.4145L51.3857 33.4418L51.3154 35.6332L51.4912 38.059L52.1357 40.1918L53.46 42.0786L55.042 43.8832L56.8232 45.2543L58.7686 46.0512L60.9482 45.934L63.2568 45.3364L65.4482 44.5161L67.1943 43.2387L68.5889 41.5395L69.5381 39.3364L70.4287 37.145L70.4521 35.0121L69.8076 32.8207L68.9756 30.6528L67.4404 29.0239L65.6943 27.4184L63.5381 26.5278L61.2529 25.6254L59.3779 25.52L59.3193 25.5551ZM58.8623 24.0786L59.0615 24.3012L59.0732 24.0786L58.8037 24.02L58.8623 24.0786Z" fill="black"/>
<path d="M69.5352 85.7996L69.5469 85.8464L68.0703 86.0925L68.5039 87.4636L67.2031 87.8738L66.9688 87.9558L66.7227 87.9441L64.1094 87.8855L61.5078 87.9675L61.4961 87.9558L58.8945 88.0964H58.8359L56.1875 88.1199H56.0938L55.9883 88.1082L53.5625 87.7917H53.5391L53.5508 87.78H53.4688L53.5508 87.1824V86.2917L53.5625 84.7917H53.668L53.75 84.8035H53.832L56.2578 85.1199L58.7539 85.1082V85.0964L61.3906 84.9675H61.4141L64.0508 84.8855H64.1328L66.5352 84.9441L67.6016 84.6042L69.2539 84.0769L69.5352 85.7996Z" fill="black"/>
<path d="M72.4971 94.1835L72.5557 95.6835L72.5908 96.5155L72.6846 97.1718H72.6143L72.6025 97.1835L70.1768 97.5468H70.1299L67.5283 97.8514H67.458L67.3877 97.8632L64.751 97.9335H64.6455L62.0205 97.828H61.9619L61.9033 97.8163L59.4541 97.535L56.9932 97.8632H56.9346L56.8877 97.8749L54.2393 98.0155H54.0635L51.415 97.828H51.3447L51.2744 97.8163L48.6494 97.3827L47.6416 97.2186L47.4307 96.2108L47.3838 95.9882L48.8486 95.6835L48.9307 95.6718L49.1416 94.4178L51.7314 94.8514L54.1807 95.0155L56.6885 94.8866L59.2432 94.5468L59.4189 94.5233L59.5947 94.5468L62.1377 94.828L64.7158 94.9335L67.2588 94.8749L69.79 94.5702V94.5819L72.2393 94.2069L72.3213 94.1952L72.3916 94.1835H72.4971Z" fill="black"/>
<path d="M59.7686 2.40814H60.6006L62.1006 2.39642V2.58392L62.0889 2.67767L61.8193 5.0683L61.9248 7.57611L62.1123 10.2128L62.124 10.2714V10.33L62.1123 12.9667V13.0253L62.042 14.7831L60.7061 14.7245V14.7714L60.2842 16.2128L60.1201 16.166L58.9951 15.8378L59.1123 12.9081L59.124 10.4355L58.9248 7.79877V7.74017L58.8193 5.10345V4.98627L58.8311 4.8808L59.1123 2.33783L59.7686 2.40814Z" fill="black"/>
<path d="M95.3164 114.254L97.8945 114.605L100.273 114.711L102.793 114.277L102.91 114.266H103.027L105.664 114.242H105.816L105.969 114.266L108.406 114.746L110.809 114.5L110.891 114.488H110.973L112.016 114.5L112.004 116L111.98 117.5L110.984 117.488L108.477 117.746L108.254 117.77L108.031 117.734L105.57 117.242L103.145 117.254L100.648 117.688L100.496 117.711L100.332 117.699L97.6953 117.594H97.625L97.5547 117.582L95.1523 117.242L92.7617 117.711L92.5273 117.758L92.293 117.734L89.7383 117.406L87.207 117.418L87.1953 117.406L84.6055 117.488H84.5938L81.957 117.547H81.9336L79.3672 117.559L79.3789 117.57L76.7422 117.746L76.5547 117.758L73.9297 117.266L71.5391 117.547L71.4102 117.559H71.2812L68.7266 117.418L66.1719 117.582H66.043L65.9141 117.57L63.418 117.289L60.957 117.559H60.8867L58.25 117.711L58.0977 117.723L57.957 117.699L55.4141 117.348L52.9062 117.406H52.8477L50.2109 117.348V117.336H47.5742L44.9492 117.289L42.4531 117.512L42.418 117.523H42.3711L39.7344 117.617H39.6172L36.9805 117.512V117.5L34.3906 117.488H34.3438L34.2969 117.477L31.7188 117.301L29.1875 117.43H29.1055L26.4688 117.418V117.406L23.9609 117.43L21.3242 117.664L21.1836 117.676L21.0312 117.664L18.5 117.383L15.9219 117.395V117.383L13.3789 117.559H13.3672L13.3555 117.57L10.707 117.688L10.6133 117.699L10.5312 117.688L7.98828 117.5L8 117.277V114.5H8.21094L10.6719 114.699L13.1797 114.582V114.57L15.8164 114.395H15.9102L18.5469 114.383L18.6406 114.371L18.7227 114.383L21.2305 114.664L23.7148 114.453L23.7617 114.441H23.8203L26.4688 114.418H26.4922L29.0469 114.43L31.6953 114.312L31.7773 114.301L31.8594 114.312L34.5078 114.488L34.4961 114.5L37.0508 114.512H37.0977L39.6875 114.617L42.1836 114.535L44.832 114.289H44.9844L47.6211 114.336L47.6094 114.348H50.2695L52.8711 114.406L55.4844 114.348H55.6133L55.7305 114.359L58.2148 114.723L60.7109 114.559V114.57L63.2891 114.289L63.4414 114.277L63.6055 114.289L66.0898 114.582L68.6328 114.43L68.7148 114.418L68.7969 114.43L71.3281 114.559L73.8242 114.266L74.0586 114.23L74.2812 114.277L76.7305 114.734L79.1797 114.582L79.2266 114.57H79.2617L81.8867 114.559V114.547L84.5234 114.488L87.1602 114.418H87.1953L89.832 114.406H89.9375L90.0312 114.418L92.4219 114.734L94.8359 114.266L95.082 114.219L95.3164 114.254Z" fill="black"/>
</svg>
