<svg width="120" height="120" viewBox="0 0 120 120" fill="none" xmlns="http://www.w3.org/2000/svg">
<path d="M96.7539 6.74219L98.9102 8.125L99.6133 8.57031V9.40234L99.5898 12.0977V12.1562L99.5781 12.2266L99.3203 14.8633L99.2832 15.2334L100.695 15.7539L100.93 15.8359L101.129 16L103.18 17.6758L103.355 17.8164L103.484 18.0039L104.973 20.2422L105.219 20.6055L105.23 21.0391L105.277 23.6172L105.734 26.125L105.781 26.3711L105.746 26.6172L105.506 28.123L105.523 28.668L105.535 28.7617L105.523 28.8555L105.289 31.3047L105.605 33.8125L105.617 33.918V34.0234L105.57 36.6602L105.629 39.2031L105.758 41.8398L105.77 42.0156L105.734 42.1914L105.301 44.5586L105.561 46.4131L106.023 46.4883L106.234 46.5234L106.105 48.0586L107.23 48.3984L106.469 50.9648L106.328 51.3984L105.977 51.6914L105.786 51.8477L105.805 51.8555L105.641 53.0156L105.301 55.4414L105.734 57.8086L105.77 57.9844L105.758 58.1602L105.629 60.7969L105.57 63.3398L105.617 65.9766V66.082L105.605 66.1875L105.289 68.6953L105.489 70.7949L105.898 70.8281L107.07 70.9219L107.258 72.082L107.691 74.7188L107.738 74.9766L107.691 75.2227L107.378 76.9463L107.953 77.0859L109.289 77.4141L109.066 78.7734L108.645 81.4219L108.609 81.6797L108.48 81.9023L107.627 83.4609L107.598 84.4531L107.549 85.9951L107.691 86.7773L107.738 87.0234L107.691 87.2812L107.454 88.7109L107.422 89.5625L107.738 92.1406L107.75 92.2812V92.4219L107.635 94.0908L107.738 94.7344L107.75 94.8516V94.9688L107.738 97.6055V97.7109L107.727 97.8164L107.352 100.312L107.406 101.218L107.586 102.699L107.598 102.77V102.84L107.668 105.477V105.629L107.48 108.266L107.457 108.523L107.437 108.57L107.387 110.836V110.848L107.349 112.048L107.695 114.16L107.78 114.673L108.137 114.664L110.738 114.266L111.031 114.219L111.312 114.289L112.355 114.547L111.652 117.453L110.891 117.266L108.547 117.629L108.453 117.652H108.359L107.489 117.675L107.492 117.738L106.673 117.697L105.723 117.723H105.582L104.902 117.609L104.655 117.597L102.422 117.746L102.281 117.758L102.141 117.734L101.59 117.667L100.766 117.738L100.613 117.75L100.603 117.748L100.438 117.781L100.203 117.746L98.1719 117.477L97.0898 117.512L94.4766 117.582L94.4883 117.594L91.8516 117.758L91.6758 117.77L91.5 117.734L90.8086 117.611L90.1484 117.645H90.0547L87.5029 117.599L86.7422 117.734L86.4844 117.781L86.2266 117.734L85.5254 117.618L84.7812 117.734L84.582 117.77L84.3945 117.746L83.7559 117.671L83.4727 117.664L80.8359 117.594H80.7656L80.707 117.582L80.5371 117.562L79.5664 117.598L77.5488 117.669L77.5352 117.688L77.4238 117.673L77.002 117.688L76.7773 117.711L76.6133 117.723L76.4492 117.699L76.3496 117.687L74.2344 117.668H74.2109L72.2422 117.633L71.8398 117.699L71.6875 117.723L71.5234 117.711L68.9688 117.57L66.4141 117.746L66.1797 117.758L65.957 117.699L65.168 117.502L64.2012 117.605L63.7109 117.699L63.4766 117.746L63.2305 117.711L62.8525 117.656H61.8242L60.418 117.75H60.2773L60.1367 117.738L58.0537 117.488H58.0156L57.4902 117.435L55.7695 117.388L55.5352 117.688L54.7031 117.582L54.0762 117.509L53.1406 117.676L52.8828 117.723L52.6133 117.676L51.335 117.453L49.8398 117.699L49.6875 117.723L49.5234 117.711L46.9688 117.57L44.4141 117.746L44.1797 117.758L43.957 117.699L43.3223 117.54L42.7773 117.557L42.75 117.699L41.4727 117.664L39.126 117.601L37.3672 117.703H37.2148L34.7207 117.593L32.4219 117.746L32.2812 117.758L32.1406 117.734L31.9365 117.709L31.7891 117.734L31.5781 117.711L30.502 117.577L29.3867 117.598H29.3633L26.7266 117.609H26.6445L26.5625 117.598L26.0107 117.54L24.4766 117.582L24.4883 117.594L21.8516 117.758L21.6758 117.77L21.5 117.734L20.4326 117.545L18.7695 117.516L17.9541 117.519L16.7422 117.734L16.4844 117.781L16.2266 117.734L14.917 117.518L13.4258 117.664L13.2734 117.676L13.1211 117.664L10.625 117.395L8.16406 117.5H8V114.5H8.03516L10.5781 114.395L10.6836 114.383L10.8008 114.395L12.416 114.568L12.3477 113.281L12.3359 113.129L12.3594 112.988L12.5107 111.944L12.2539 110.496L12.207 110.227L12.2656 109.969L12.2979 109.791L11.7852 108.5H12.4453L12.7266 106.68L12.7227 106.357L12.4648 104.094L12.4531 104V103.906L12.4688 102.131L12.3125 99.7852V97.0547L12.2773 94.418V94.2891L12.3008 94.1602L12.4287 93.3799L12.4297 93.3359L12.3711 90.793L12.2422 88.1562L12.2305 87.9805L12.2656 87.8047L12.6094 85.9141L12.5332 84.6387L12.4805 84.4688L11.6953 81.9961L10.8281 79.5L10.5 78.5508L11.25 77.8945L12.3926 76.8691L12.3008 74.7891L12.2891 74.707L12.3008 74.6367L12.4531 71.9883L12.5469 70.4766L14.0586 70.582L14.459 70.6104L14.3398 69.7148L14.3281 69.5977V69.4805L14.4102 66.832V66.7031L14.7031 64.2773L14.3047 61.8398L14.2812 61.6875V61.5234L14.4219 58.9805L14.2578 56.4141L14.2461 56.2734L14.2578 56.1328L14.5859 53.4961L14.6211 53.2266L14.75 52.9805L14.9951 52.5088L14.8516 52.4414L14.6172 52.0898L13.1641 49.8633L12.5195 48.8906L13.3047 48.0352L14.4062 46.8164L14.5986 46.6045L14.5859 46.5039L14.2578 43.8672L14.2461 43.7266L14.2578 43.5859L14.4219 41.0195L14.2812 38.4766V38.3125L14.3047 38.1602L14.7031 35.7227L14.4102 33.2969V33.168L14.3281 30.5195V30.4023L14.3398 30.2852L14.6445 28L14.3398 25.7148L14.3281 25.5742V25.4336L14.4805 22.7852L14.5039 22.5039L14.6094 22.2578L15.6875 19.8555L15.7109 19.8203L15.7227 19.7852L16.9414 17.418L17.1289 17.0547L17.4805 16.832L19.7656 15.4141L19.9062 15.332L20.0586 15.2734L20.4209 15.1455L20.4062 14.957V14.875L20.3359 12.2383L20.3242 12.1445L20.3359 12.0625L20.5703 9.42578L20.6289 8.80469L21.1094 8.40625L22.9844 6.85938L23.8281 6.15625L24.7539 6.74219L26.9102 8.125L27.6133 8.57031V9.40234L27.5898 12.0977V12.1562L27.5781 12.2266L27.3203 14.8633L27.2832 15.2334L28.6953 15.7539L28.9297 15.8359L29.1289 16L31.1797 17.6758L31.3555 17.8164L31.4844 18.0039L32.9727 20.2422L33.2188 20.6055L33.2305 21.0391L33.2773 23.6172L33.7344 26.125L33.7812 26.3711L33.7461 26.6172L33.5059 28.123L33.5234 28.668L33.5352 28.7617L33.5234 28.8555L33.2891 31.3047L33.6055 33.8125L33.6172 33.918V34.0234L33.5703 36.6602L33.6289 39.2031L33.7578 41.8398L33.7695 42.0156L33.7344 42.1914L33.3008 44.5586L33.5605 46.4131L34.0234 46.4883L34.2344 46.5234L34.1055 48.0586L35.2305 48.3984L34.4688 50.9648L34.3281 51.3984L33.9766 51.6914L33.7861 51.8477L33.8047 51.8555L33.6406 53.0156L33.3008 55.4414L33.7344 57.8086L33.7695 57.9844L33.7578 58.1602L33.6289 60.7969L33.5928 62.3613L34.168 63.6523L35.3867 65.0117L36.9453 65.2578L38.5625 64.2852L40.1094 62.4688L40.1328 62.4453L41.7031 60.6641L42.2822 59.1553L42.2656 59.0273L42.3125 58.7695L42.4541 57.9883L42.4883 56.9062L42.5518 54.9502L42.418 53.9648L42.4062 53.8594V53.7539L42.4092 53.0547L42.2656 51.8672L42.2197 51.4961H40.1914L42.9805 48.9062L43.7891 48.1445L43.9648 47.9805L44.1875 47.875L46.4492 46.8203L48.6289 45.4258L48.6523 45.4023L48.6758 45.3906L50.9492 44.043L50.9609 44.0312L50.9844 44.0195L53.1523 42.8008L54.9531 41.1592L54.8047 40.7461L54.7578 40.6172L54.7344 40.4883L54.3008 37.8398L54.2773 37.6523L54.2891 37.4648L54.4297 35.8711L54.5469 34.5H56.3516L56.3867 34.5234L58.5547 34.3945L58.6719 34.3828L58.8008 34.3945L61.2852 34.6641L63.7695 34.418L65.2578 34.2773L65.4102 35.7539L65.6914 38.4023L65.7031 38.543L65.6914 38.6719L65.4805 41.3203L65.4668 41.4912L65.75 41.6055L65.9961 41.7109L66.1953 41.8867L68.0703 43.5742L70.2148 44.7344L70.2617 44.7578L72.5352 46.082L74.8203 47.4062L74.8906 47.4531L76.1201 48.252L76.9922 48.2109L77.0371 48.8467L80.293 50.957L77.6641 51.127L77.6562 51.2812L77.5039 53.7891L77.75 56.3438L77.7734 56.543L77.7383 56.7422L77.6611 57.1602L77.6719 57.4805V57.5508L77.6602 57.6328L77.5771 58.8105L78.2852 60.6875L79.8203 62.5039L79.832 62.5156L79.8438 62.5391L81.3438 64.3672L82.9844 65.4102L84.5312 65.2461L85.75 63.9453L86.4131 62.5029L86.3047 61.8398L86.2812 61.6875V61.5234L86.4219 58.9805L86.2578 56.4141L86.2461 56.2734L86.2578 56.1328L86.5859 53.4961L86.6211 53.2266L86.75 52.9805L86.9951 52.5088L86.8516 52.4414L86.6172 52.0898L85.1641 49.8633L84.5195 48.8906L85.3047 48.0352L86.4062 46.8164L86.5986 46.6045L86.5859 46.5039L86.2578 43.8672L86.2461 43.7266L86.2578 43.5859L86.4219 41.0195L86.2812 38.4766V38.3125L86.3047 38.1602L86.7031 35.7227L86.4102 33.2969V33.168L86.3281 30.5195V30.4023L86.3398 30.2852L86.6445 28L86.3398 25.7148L86.3281 25.5742V25.4336L86.4805 22.7852L86.5039 22.5039L86.6094 22.2578L87.6875 19.8555L87.7109 19.8203L87.7227 19.7852L88.9414 17.418L89.1289 17.0547L89.4805 16.832L91.7656 15.4141L91.9062 15.332L92.0586 15.2734L92.4209 15.1455L92.4062 14.957V14.875L92.3359 12.2383L92.3242 12.1445L92.3359 12.0625L92.5703 9.42578L92.6289 8.80469L93.1094 8.40625L94.9844 6.85938L95.8281 6.15625L96.7539 6.74219ZM85.6055 111.43L85.4834 112.295L85.4766 113.844V113.984L85.4531 114.125L85.4062 114.363L85.417 114.551L85.7529 114.559L86.9727 114.371L87.125 114.348L87.2773 114.359L88.3496 114.411L88.8633 114.324L89.1211 114.277L89.3789 114.324L90.5732 114.526L91.3428 114.573L92.6445 114.516H93.959L95 114.43L95.0586 114.418H95.1055L97.7539 114.406H97.8594L97.9648 114.418L98.1182 114.438L98.1758 114.445L98.3828 114.468L99.6328 114.43H99.75L99.8672 114.441L101.199 114.595L102.77 114.312L103.027 114.266L103.285 114.301L104.28 114.466L104.333 114.396L104.305 113.508V113.391L104.342 112.312L104.309 112.109L104.122 111.577L102.676 111.688L102.594 111.699L102.5 111.688L99.8633 111.582H99.7695L99.1465 111.52L97.1953 111.512H97.0781L96.2725 111.445L94.8008 111.605L94.6836 111.617L94.5781 111.605L92.0352 111.5H91.1035L89.4258 111.664L89.2734 111.676L89.1211 111.664L86.625 111.395L85.6055 111.43ZM29.9492 111.512L29.8906 111.523H29.832L27.1953 111.512H27.0781L27.041 111.508L24.6758 111.688L24.5938 111.699L24.5 111.688L21.8633 111.582H21.7695L21.0215 111.508L19.4258 111.664L19.2734 111.676L19.1211 111.664L17.6875 111.509L16.8008 111.605L16.6836 111.617L16.5781 111.605L15.5859 111.563L15.5391 111.899L15.6641 112.629L15.6992 112.805L15.6875 112.98L15.582 114.352L15.874 114.417L18.5 114.312L18.5938 114.301L18.6758 114.312L18.8525 114.325L18.8633 114.324L19.1211 114.277L19.3789 114.324L19.8174 114.398L21.3125 114.512L21.3008 114.523H21.7666L23.9492 114.34L24.0898 114.328L24.2305 114.34L25.1094 114.426L26.375 114.336L26.4453 114.324L26.5273 114.336L29.1641 114.406H29.2344L29.293 114.418L29.4443 114.435L29.6328 114.43H29.75L29.8672 114.441L30.9658 114.568L31.9766 114.551H32.0117L32.5869 114.558L34.1562 114.301L34.3203 114.277L34.3916 114.282L34.3125 113.902L34.2773 113.715L34.2891 113.516L34.3516 112.371L34.3086 112.109L34.0508 111.371L32.5391 111.324L29.9492 111.512ZM57.6055 97.4531L57.3477 99.2695L57.4883 101.754V101.977L57.2422 104.402L57.6758 106.863L57.7227 107.121L57.6758 107.379L57.2422 109.852L57.3223 111.16L57.3633 111.254L57.457 111.477L57.4805 111.734L57.6562 114.212L58.1211 114.457L58.1348 114.458L58.4492 114.469H58.4922L60.7227 114.348L60.8633 114.336L61.0156 114.359L62.2207 114.535L62.5205 114.146L62.4893 113.129L62.3047 112.008L62.2695 111.797L62.293 111.586L62.4102 110.597L62.4062 110.445L62.3945 110.246L62.4414 110.035L62.5078 109.783L62.5977 109.031L62.668 106.582L62.4805 103.945V103.84L62.4922 101.191V101.086L62.6914 98.5547L62.5742 97.5469L61.4258 97.6641L61.2734 97.6758L61.1211 97.6641L58.5664 97.3828L57.6055 97.4531ZM72.5137 111.376L72.5391 111.504H71.0635L69.4258 111.664L69.2734 111.676L69.1211 111.664L66.625 111.395L65.4297 111.441L65.4844 112.894L65.6914 114.152L65.7129 114.283L65.8086 114.266L65.9844 114.23L66.1602 114.242L68.0674 114.335L68.9258 114.316H69.0312L69.1367 114.328L69.7627 114.4L71.3633 114.43L73.4346 114.392L73.9961 114.301L74.207 114.266L74.418 114.289L76.2227 114.5L76.3916 114.285L76.3125 113.902L76.2773 113.715L76.2891 113.516L76.377 111.908L76.1758 111.43L74.5 111.301L72.5137 111.376ZM79.5586 105.465L79.5703 105.605L79.582 105.734L79.5586 105.863L79.2539 108.395L79.418 110.867L79.4297 110.949L79.418 111.043L79.4004 111.342L79.457 111.477L79.4805 111.734L79.668 114.371L79.6709 114.429L79.9893 114.47L81.9102 114.453H82.0039L82.0859 114.465L82.3174 114.49L82.3916 114.125L82.3477 113.281L82.3359 113.129L82.3594 112.988L82.4834 112.134L82.4883 111.195V111.078L82.54 110.399L81.7852 108.5H82.6875L82.6055 106.285L82.2656 105.57L80.5781 105.383L79.5586 105.465ZM37.5586 105.465L37.5703 105.605L37.582 105.734L37.5586 105.863L37.2539 108.395L37.418 110.867L37.4297 110.949L37.418 111.043L37.3564 112.092L37.6953 114.16L37.7314 114.38L39.582 114.254L39.7227 114.242L39.8633 114.266L40.3506 114.324L40.4766 113.715L40.4805 112.846L40.4062 110.445L40.3945 110.246L40.4414 110.035L40.5469 109.637L40.623 109.326L40.6875 108.5L40.6055 106.285L40.2656 105.57L38.5781 105.383L37.5586 105.465ZM50.5137 111.376L50.5391 111.504H49.0635L47.4258 111.664L47.2734 111.676L47.1211 111.664L44.625 111.395L43.4873 111.438L43.4814 112.805L43.4883 112.988L43.5273 114.273L45.2656 114.352H45.2539L47.7969 114.375L48.2217 114.361L50.1523 114.242L50.3281 114.23L50.5039 114.266L50.6748 114.296L51.8936 114.317L51.9961 114.301L52.207 114.266L52.418 114.289L52.7979 114.333L53.1523 114.34L54.333 114.359L54.46 114.198L54.4062 112.488L54.3682 111.887L54.1758 111.43L52.5 111.301L50.5137 111.376ZM82.7773 85.7109L82.6133 85.7227L82.4492 85.6992L80.9355 85.5098L80.1797 85.6055L80.0859 85.6172H79.9805L77.3555 85.5703L74.7891 85.6172L74.8008 85.6289L72.1641 85.7578L72.0713 85.7627L72.1055 86.5781L72.1172 86.6836L72.1055 86.8008L71.8359 89.2852L72.082 91.7695V91.8633L72.1875 94.5L72.1992 94.5938L72.1875 94.6758L71.9883 97.3125L71.9766 97.3008V99.7383L72.1641 102.375L72.1758 102.445L72.1641 102.527L72.0938 105.164V105.234L72.082 105.293L71.8008 107.719L71.9355 108.415L74.5 108.312L74.5938 108.301L74.6758 108.312L76.2539 108.432V108.418L76.2422 108.277L76.2656 108.137L76.5703 105.641L76.4883 104.082L76.4062 102.5H78.6211L78.6445 102.535L80.5312 102.395L80.6719 102.383L80.8008 102.395L83.4375 102.676L84.2812 102.77L84.6445 103.543L85.4531 105.289L85.5703 105.559L85.582 105.863L85.6846 108.431L86.5781 108.395L86.6836 108.383L86.8008 108.395L89.2852 108.664L90.4375 108.55L90.7461 106.555L90.4648 104.094L90.4531 104V103.906L90.4766 101.27V101.141L90.7109 98.6914L90.3945 96.1836L90.3828 96.0781V95.9727L90.4297 93.3359L90.3711 90.793L90.2422 88.1562L90.2305 87.9805L90.2656 87.8047L90.6377 85.7588L90.582 85.7695L90.3945 85.7461L88.3262 85.5078L88.0898 85.5352L87.9961 85.5469H87.9141L85.2656 85.5234H85.1484L84.9141 85.501L82.7773 85.7109ZM29.9492 85.5117L29.8906 85.5234H29.832L29.5635 85.5215L29.5156 87.0898L29.4219 89.5625L29.7383 92.1406L29.75 92.2812V92.4219L29.5742 94.9883L29.7148 97.5195L29.7266 97.6836L29.6914 97.8477L29.293 100.273L29.5859 102.699L29.5977 102.77V102.84L29.668 105.477V105.629L29.4805 108.266L29.457 108.523H29.7383L32.375 108.336L32.4453 108.324L32.5273 108.336L34.25 108.382L34.2422 108.277L34.2656 108.137L34.5703 105.641L34.4883 104.082L34.4062 102.5H36.6211L36.6445 102.535L38.5312 102.395L38.6719 102.383L38.8008 102.395L41.4375 102.676L42.2812 102.77L42.6445 103.543L43.4531 105.289L43.5703 105.559L43.582 105.863L43.6846 108.431L44.5781 108.395L44.6836 108.383L44.8008 108.395L46.9238 108.624L46.8125 108.047L46.7656 107.812L46.7891 107.578L47.0938 105.023L47.1641 102.539L46.9883 99.9492L46.9766 99.8906V99.832L46.9883 97.1953V97.0781L47.1875 94.5L47.0938 92.0625L46.8359 89.4258L46.8242 89.2734L46.8359 89.1211L47.0938 86.625L47.0537 85.5898L45.8672 85.7344L45.7266 85.7578L45.5859 85.7461L43.0195 85.5703L40.4766 85.7109L40.3125 85.7227L40.1602 85.6992L39.0645 85.5195L38 85.6992L37.7891 85.7344L37.5781 85.7109L35.9375 85.5068L35.2969 85.582L35.2266 85.5938H35.168L32.5195 85.6641L32.4492 85.6758L32.3672 85.6641L30.085 85.501L29.9492 85.5117ZM50.0605 85.5166L50.1055 86.5781L50.1172 86.6836L50.1055 86.8008L49.8359 89.2852L50.082 91.7695V91.8633L50.1875 94.5L50.1992 94.5938L50.1875 94.6758L49.9883 97.3125L49.9766 97.3008V99.7383L50.1641 102.375L50.1758 102.445L50.1641 102.527L50.0938 105.164V105.234L50.082 105.293L49.8008 107.719L49.9355 108.415L52.5 108.312L52.5938 108.301L52.6758 108.312L54.4521 108.446L54.6875 107.121L54.2656 104.742L54.2305 104.543L54.2422 104.344L54.4883 101.836L54.3477 99.2812L54.3359 99.1289L54.3594 98.9883L54.6875 96.7383L54.6055 96.5625L53.1289 92.8945L56.3867 94.5352L58.5547 94.3945L58.6719 94.3828L58.8008 94.3945L61.2852 94.6641L63.7695 94.418L65.2578 94.2773L65.4102 95.7539L65.6914 98.4023L65.7031 98.543L65.6914 98.6719L65.4922 101.203L65.4805 103.734L65.668 106.371V106.523L65.6162 108.434L66.5781 108.395L66.6836 108.383L66.8008 108.395L68.9238 108.624L68.8125 108.047L68.7656 107.812L68.7891 107.578L69.0938 105.023L69.1641 102.539L68.9883 99.9492L68.9766 99.8906V99.832L68.9883 97.1953V97.0781L69.1875 94.5L69.0938 92.0625L68.8359 89.4258L68.8242 89.2734L68.8359 89.1211L69.0938 86.625L69.0576 85.6855L67.8711 85.5137L67.0078 85.6406L66.8672 85.6641L66.7148 85.6523L64.1367 85.5117L61.6641 85.7578L61.4648 85.7695L60.0352 85.5166L59.1406 85.6758L58.8828 85.7227L58.6133 85.6758L57.71 85.5186L56.4961 85.7344L56.3203 85.7695L56.1445 85.7578L53.5078 85.5938V85.582L50.9062 85.5117L50.5869 85.501L50.0605 85.5166ZM95.9297 85.5117H95.918L93.874 85.6104L93.6406 85.9883L93.2305 88.1797L93.3711 90.6406V90.6875L93.4297 93.3242V93.3828L93.3828 95.9375L93.6992 98.457L93.7227 98.6211L93.7109 98.7734L93.4648 101.305L93.4531 103.871L93.7461 106.391L93.7695 106.59L93.7344 106.777L93.4951 108.353L94.5 108.312L94.5938 108.301L94.6758 108.312L96.2412 108.431L97.1211 108.336L97.2734 108.324L97.4258 108.336L99.3438 108.523H99.7383L102.375 108.336L102.445 108.324L102.527 108.336L104.255 108.382L104.45 107.918L104.516 105.527L104.504 102.961L104.429 101.553L104.293 100.414L104.27 100.203L104.305 99.9922L104.703 97.5547L104.574 95.0352V94.8594L104.615 94.2178L104.363 92.543L104.352 92.4492V92.3555L104.281 89.7188V89.5781L104.305 89.4375L104.471 88.4102L104.516 86.9961L104.534 86.2178L104.422 85.6172L104.142 85.5469L103.945 85.5938H103.746L101.95 85.585L101.387 85.6836L101.117 85.7305L100.859 85.6836L99.9111 85.5176L98.5977 85.6289L98.4922 85.6406L98.3984 85.6289L96.1445 85.498L95.9297 85.5117ZM19.4258 85.6641L19.2734 85.6758L19.1211 85.6641L17.6865 85.5088L16.793 85.6055L16.6875 85.6172L16.5703 85.6055L15.8955 85.5752L15.6406 85.9883L15.6221 86.0869L15.6406 86.3906V86.543L15.5469 89.1797L15.6992 91.6641L15.7109 91.8398L15.6875 91.9922L15.4248 93.625L15.3828 95.9375L15.6992 98.457L15.7227 98.6211L15.7109 98.7734L15.4648 101.305L15.4619 101.848L15.4883 102.223H15.4766L15.6992 104.836L15.7109 104.895V104.941L15.7217 106.183L15.7461 106.391L15.7695 106.59L15.7344 106.777L15.7275 106.821L15.7344 107.59V107.73L15.6992 107.871L15.5918 108.435L16.5781 108.395L16.6836 108.383L16.8008 108.395L17.6875 108.49L19.1211 108.336L19.2734 108.324L19.4258 108.336L21.0215 108.491L21.7695 108.418H21.8633L24.5 108.312L24.5938 108.301L24.6758 108.312L26.2344 108.43L26.4922 107.82L26.668 105.418L26.5977 102.969L26.293 100.414L26.2695 100.203L26.3047 99.9922L26.7031 97.5547L26.5742 95.0352V94.8594L26.7383 92.3516L26.4336 89.8672L26.4219 89.75L26.4336 89.6328L26.5156 86.9961L26.5498 85.5459L24.6797 85.6875L24.5859 85.6992L24.5039 85.6875L23.5762 85.6504L23.3867 85.6836L23.1172 85.7305L22.8594 85.6836L22.4043 85.6035L21.8555 85.582H21.7734L21.0205 85.5068L19.4258 85.6641ZM37.2705 79.3535L35.293 79.582L35.2344 79.5938H35.1641L32.5273 79.6641L32.4453 79.6758L32.375 79.6641L31.6621 79.6133L26.8359 79.6992H26.7539L25.1045 79.6543L24.6758 79.6875L24.5938 79.6992L24.5 79.6875L23.2363 79.6367L21.5391 79.6523H21.5273L18.9492 79.7578L18.832 79.7695L18.7148 79.7461L17.1533 79.5664L16.8008 79.6055L16.6836 79.6172L16.5781 79.6055L14.0352 79.5H14.0049L14.5312 81.0117V81.0352L14.543 81.0469L14.9424 82.3252L15.2773 82.3438L16.3018 82.4053L16.5781 82.3945L16.6836 82.3828L16.8008 82.3945L17.6748 82.4893H17.6895L19.125 82.3359L19.2773 82.3242L19.4297 82.3359H19.4375L20.3398 82.25L20.5391 82.2266L20.7383 82.2617L21.6562 82.4287L21.7695 82.418H21.8633L24.5 82.3125L24.5938 82.3008L24.6758 82.3125L25.0586 82.3408L25.4961 82.2617L25.8359 82.2031L26.1641 82.2969L26.79 82.4717L27.0449 82.4912L27.082 82.4883H27.1992L29.8359 82.4766H29.8945L29.9531 82.4883L30.0908 82.498L32.375 82.3359L32.4453 82.3242L32.5273 82.3359L35.1641 82.4062H35.2344L35.293 82.418L35.9385 82.4922L37.582 82.2891L37.793 82.2656L38.0039 82.3008L39.0645 82.4795L40.1562 82.3008L40.3203 82.2773L40.4844 82.2891L43.0156 82.4297L45.582 82.2539L45.7227 82.2422L45.8633 82.2656L47.7295 82.4922L48.1406 82.4414L48.2578 82.4297H48.375L50.5918 82.498L50.9141 82.4883L53.5039 82.418V82.4062L56.1523 82.2422L56.3281 82.2305L56.5039 82.2656L57.7158 82.4805L58.6172 82.3242L58.875 82.2773L59.1445 82.3242L60.0381 82.4824L61.2617 82.2656L61.4609 82.2305L61.6602 82.2422L64.1328 82.4883L66.7227 82.3477L66.8633 82.3359L67.0156 82.3594L67.8711 82.4844L69.2227 82.2891L69.4688 82.2539L70.6562 82.4795L71.8086 82.2656L71.9844 82.2305L72.1602 82.2422L74.7969 82.3711L74.7852 82.3828L77.3633 82.4297L79.9766 82.3828H80.082L80.1875 82.3945L80.9395 82.4893L82.4531 82.3008L82.6172 82.2773L82.7812 82.2891L84.9668 82.4932L85.1445 82.4766H85.2734L87.9102 82.4531H88.0039L88.0859 82.4648L88.3262 82.4922L90.3867 82.2539L90.5859 82.2305L90.7852 82.2656L92.2168 82.4873L92.2744 82.4785L92.3867 82.2969L93.2773 82.3438L94.5947 82.4229L95.8818 82.4863L98.3398 82.25L98.5391 82.2266L98.7383 82.2617L99.9219 82.4766L100.174 82.4961L101 82.4297L101.059 82.418H101.105L102.677 82.4102L103.496 82.2617L103.836 82.2031L104.164 82.2969L104.424 82.3691L104.871 82.2539L105.715 80.7188L105.879 79.6758L105.68 79.6172L104.529 79.4473L104.129 79.5469L103.941 79.5938H103.754L101.105 79.582H101.059L101 79.5703L99.5283 79.4482L98.2969 79.6289L98.1562 79.6523L98.0039 79.6406L95.7744 79.5176L93.2773 79.6406L93.125 79.6523L92.9727 79.6289L92.1602 79.5029L90.2109 79.5469H90.1992L87.5625 79.6055H87.5742L84.9375 79.6992H84.8086L84.6914 79.6875L82.1719 79.3594L82.1035 79.3623L80.1875 79.6055L80.082 79.6172H79.9766L77.3633 79.5703L74.7852 79.6172L74.7969 79.6289L72.1602 79.7578L71.9844 79.7695L71.8086 79.7344L70.4873 79.4883H69.0117L68.9766 79.4766L68.333 79.4473L67.0156 79.6406L66.8633 79.6641L66.7227 79.6523L64.1328 79.5117L61.6602 79.7578L61.4609 79.7695L61.2617 79.7344L59.8076 79.4766L58.5 79.4883H58.4297L57.9814 79.4717L56.5039 79.7344L56.3281 79.7695L56.1523 79.7578L53.5039 79.5938V79.582L50.9141 79.5117L48.3711 79.4297L45.8633 79.7344L45.7227 79.7578L45.582 79.7461L44.3945 79.6641L42.6094 79.6172H42.4922L42.3818 79.6055L40.4844 79.7109L40.3203 79.7227L40.1562 79.6992L38.0156 79.3477H37.3594L37.2705 79.3535ZM96.4199 73.5625L95.9727 73.6289L95.832 73.6523L95.6797 73.6406L95.2539 73.6172L93.5 73.6875L93.4062 73.6992L93.3242 73.6875L90.8428 73.5H89.9863L87.8867 73.5469H87.875L85.2383 73.6055H85.25L82.6133 73.6992H82.4844L82.3672 73.6875L79.8477 73.3594L77.3516 73.4766H77.2578L77.1641 73.4648L77.0723 73.457L77.0352 73.8398L75.582 73.7461L73.0156 73.5703L70.4844 73.7109L70.3203 73.7227L70.1562 73.6992L68.8721 73.4883H66.6875L66.6406 73.4766L66.3281 73.4619L65.293 73.582L65.2344 73.5938H65.1641L62.5273 73.6641L62.4453 73.6758L62.375 73.6641L60.5 73.5303L59.8008 73.6055L59.6719 73.6172L59.5312 73.6055L57.9961 73.5H57.1572L54.6758 73.6875L54.5938 73.6992L54.5 73.6875L51.8633 73.582H51.7695L49.2852 73.3359L47.3857 73.541L47.2812 73.6641L46.5312 73.6055L46.4805 73.6006L44.4883 73.5186L43.1328 73.6758L43.0273 73.6875H42.9219L40.2852 73.6172H40.168L37.6367 73.3477H35.0352L33.4424 73.458L33.4414 73.5H32.8418L32.5039 73.5234H32.4805L32.4453 73.5352L29.8086 73.6055H29.7852L29.3525 73.6123L29.3164 73.6172L29.2871 73.6143L24.5117 73.6992H24.4297L22.499 73.6475L21.5 73.6875L21.4062 73.6992L21.3242 73.6875L20.6826 73.6387L19.2148 73.6523H19.2031L16.625 73.7578L16.543 73.7695L16.4609 73.7578L15.3477 73.6875L15.2891 74.7422L15.3633 76.3965L16.3359 76.4531H16.3711L16.418 76.4648L17.1406 76.5488L19.1211 76.3359L19.2734 76.3242L19.4258 76.3359L22.0625 76.5938L22.0508 76.6055L22.8174 76.6348L24.1406 76.6172H24.2109L25.1035 76.6494L27.0781 76.4883H27.1953L29.832 76.4766H29.8906L29.9492 76.4883L31.7773 76.6201L32.0391 76.6172V76.6055L34.6172 76.5469V76.5352L36.9043 76.3721L37.5781 76.2891L37.7891 76.2656L38 76.3008L38.2783 76.3477H40.0781L40.1602 76.3594L42.5586 76.6045L42.957 76.582L43.0508 76.5703L43.1328 76.582L44.3486 76.6631L45.2344 76.6875L47.7539 76.3945L47.8242 76.3828H47.8945L50.5312 76.3359H50.5547L53.1914 76.3125H53.25L55.8984 76.3945L57.8125 76.4629L58.6133 76.3242L58.8828 76.2773L59.1406 76.3242L60.0283 76.4805L61.0898 76.4766V76.4648L63.7383 76.4062L66.375 76.3594L66.4219 76.3477L66.4805 76.3594L68.1729 76.4414L69.2305 76.2891L69.4766 76.2539L69.7109 76.3008L70.6953 76.4883H71.7305L74.2734 76.5586L76.793 76.2656L76.9336 76.2539L77.0859 76.2656L79.6406 76.4766L82.0068 76.3555L82.4492 76.3008L82.6133 76.2773L82.7773 76.2891L85.2852 76.5352L85.2969 76.5234L87.8516 76.5469L90.3945 76.2539L90.582 76.2305L90.7812 76.2656L92.2461 76.4922L92.7656 76.4766H92.8125L95.4492 76.5H95.5312L95.8486 76.5176L98.3984 76.3711L98.4922 76.3594L98.5977 76.3711L99.4111 76.4395L100.512 76.2773L100.617 76.2539H100.723L103.359 76.2422H103.477L103.594 76.2656L104.401 76.3877L104.422 76.3828L104.691 74.9414L104.492 73.7227L103.555 73.6406H103.508L103.449 73.6289L102.878 73.5449L101.422 73.6055L101.316 73.6172L101.199 73.6055L98.7148 73.3359L96.4199 73.5625ZM77.6953 65.3203V65.4961L77.5898 68.1445V68.1797L77.5781 68.2266L77.4219 69.8203L77.3594 70.4736L79.8477 70.3477L79.9883 70.3359L80.1172 70.3594L82.625 70.6992L85.1445 70.6055H85.168L86.4541 70.5762L86.3398 69.7148L86.3281 69.5977V69.4805L86.3848 67.6416L86.3242 67.707L85.9492 68.1172L85.3984 68.1758L82.7734 68.457L82.2461 68.5156L81.8125 68.2344L79.5391 66.793L79.3398 66.6641L79.1875 66.4766L77.6348 64.5762L77.6953 65.3203ZM42.3945 64.4023L40.6953 66.4297L40.5312 66.6172L40.3203 66.7461L38.0117 68.1172L37.543 68.3867L37.0156 68.3047L34.4023 67.9062L33.875 67.8242L33.5117 67.4258L33.4561 67.3643L33.2891 68.6953L33.457 70.4521L34.9297 70.3477H37.7539L37.8359 70.3594L40.3555 70.6172L42.4111 70.6729L42.2773 69.8438L42.2539 69.7266V69.6094L42.2451 67.6953L42.2422 67.6641L42.2305 67.4648L42.2432 67.3877L42.2422 66.9609V66.8438L42.2656 66.7383L42.6143 64.4717L42.5674 64.208L42.3945 64.4023ZM23.4609 61.6992L22.6992 62.9414L22.2773 65.0977L22.418 67.5352L22.4297 67.6289L22.418 67.7109L22.2539 70.1367L22.3242 70.5234L23.5781 70.6172L25.2656 70.4297L25.6055 69.7148L25.6992 67.5117L25.4883 64.9219V64.875L25.3828 62.7305L24.5508 61.6406L23.4609 61.6992ZM95.4609 61.6992L94.6992 62.9414L94.2773 65.0977L94.418 67.5352L94.4297 67.6289L94.418 67.7109L94.2539 70.1367L94.3242 70.5234L95.5781 70.6172L96.8203 70.4785L97.2734 70.4121L97.6055 69.7148L97.6992 67.5117L97.4883 64.9219V64.875L97.3828 62.7305L96.5508 61.6406L95.4609 61.6992ZM25.1445 53.6836L24.875 53.7305L24.6172 53.6836L24.3037 53.6279L23.3945 53.7422L23.2539 53.7539L23.1133 53.7422L20.5586 53.5781L18.0039 53.7188L17.75 53.7266L17.5391 54.1289L17.2578 56.3438L17.4219 58.8633V59.0391L17.293 61.5234L17.7031 63.9961L17.7266 64.207L17.7031 64.418L17.4102 66.9727L17.3398 69.4453L17.4805 70.4883H18.9219L19.2754 70.5166L19.2422 70.3477L19.2539 70.1602L19.4297 67.6055L19.2891 65.0508L19.2773 64.875L19.3125 64.6875L19.8164 62.0977L19.8633 61.8398L20.0039 61.6055L21.3164 59.4609L21.7266 58.7812L22.5234 58.7461L25.1836 58.5938L25.9688 58.5586L26.4609 59.1797L28.0547 61.2656L28.3359 61.6406L28.4883 64.6875L28.6875 67.3242L28.6992 67.4062L28.6875 67.5L28.582 70.1367L28.5703 70.4414L28.5371 70.5146L29.375 70.6055L30.4648 70.5586L30.2891 68.7773L30.2773 68.6133L30.3008 68.4492L30.6172 65.9297L30.5703 63.3867V63.3281L30.5771 62.9785L30.4648 62.7266L29.7383 61.0977L30.624 60.876L30.6289 60.6914V60.6445L30.7695 58.1836L30.3008 55.7109L30.2539 55.4766L30.5 53.7539L30.042 53.5645L28.4453 53.5078H28.4336L26.5088 53.4443L25.1445 53.6836ZM70.1719 51.3311L68 51.6953L67.7891 51.7305L67.5781 51.707L65.2139 51.4141L64.0625 51.3984L61.543 51.7031L61.3789 51.7266L61.2266 51.7031L59.1152 51.5156L57.1953 51.5078H57.0781L56.5908 51.4688H56.1289L53.6094 51.7383L53.4102 51.7617L53.2227 51.7383L51.3711 51.4619L49.4258 51.6602L49.2734 51.6719L49.2432 51.6689L49.2734 52.0664L49.5898 54.7031V54.832L49.6719 57.4805V57.5508L49.6602 57.6328L49.4844 60.1523V62.6836L49.6953 65.3203V65.4961L49.5898 68.1445V68.1797L49.5781 68.2266L49.3721 70.3252L50.8672 70.3125H50.9258L53.5742 70.3945L55.2637 70.4551L55.2422 70.3477L55.2539 70.1602L55.4297 67.6055L55.2891 65.0508L55.2773 64.875L55.3125 64.6875L55.8164 62.0977L55.8633 61.8398L56.0039 61.6055L56.1904 61.3008H53.9883L51.9609 61.2891L52.5586 59.3555L53.332 56.8594L53.4727 56.4141L53.8359 56.1211L55.8633 54.5273L56.1211 54.3281L56.4375 54.2461L58.9102 53.6367L58.9922 53.6133L59.0859 53.6016L61.7344 53.2969L62.1328 53.25L62.4961 53.4023L64.9219 54.4453L65.1445 54.5391L65.3203 54.6914L67.2305 56.3672L67.6055 56.6953L67.7109 57.1875L68.2148 59.6719L67.0781 59.918L66.9961 61.5H66.832L64.3711 61.3945L64.167 61.416L64.3359 61.6406L64.4883 64.6875L64.6875 67.3242L64.6992 67.4062L64.6875 67.5L64.582 70.1367L64.5723 70.3789L66.2021 70.459L67.5781 70.2891L67.7891 70.2656L68 70.3008L69.1143 70.4883H69.4062L70.4697 70.5176L70.5 70.1836L70.2422 67.6641L70.2305 67.4648L70.2656 67.2656L70.6875 64.8867L70.2656 62.4961L70.2305 62.3203L70.2422 62.1445L70.4062 59.5078L70.4883 56.9062L70.5703 54.3867L70.2656 51.8672L70.1992 51.3301L70.1719 51.3311ZM97.1445 53.6836L96.875 53.7305L96.6172 53.6836L96.3037 53.6279L95.3945 53.7422L95.2539 53.7539L95.1133 53.7422L92.5586 53.5781L90.0039 53.7188L89.75 53.7266L89.5391 54.1289L89.2578 56.3438L89.4219 58.8633V59.0391L89.293 61.5107L89.3477 61.4844L89.4648 61.7188L89.7812 62.3633L89.5225 62.9092L89.7031 63.9961L89.7266 64.207L89.7031 64.418L89.4102 66.9727L89.3398 69.4453L89.4805 70.4883H90.0645L90.4414 70.4766H90.4883L91.2686 70.4834L91.2422 70.3477L91.2539 70.1602L91.4297 67.6055L91.2891 65.0508L91.2773 64.875L91.3125 64.6875L91.8164 62.0977L91.8633 61.8398L92.0039 61.6055L93.3164 59.4609L93.7266 58.7812L94.5234 58.7461L97.1836 58.5938L97.9688 58.5586L98.4609 59.1797L100.055 61.2656L100.336 61.6406L100.488 64.6875L100.688 67.3242L100.699 67.4062L100.688 67.5L100.582 70.1367L100.577 70.2441L101.035 70.2422H101.152L101.27 70.2656L102.453 70.4473L102.289 68.7773L102.277 68.6133L102.301 68.4492L102.617 65.9297L102.57 63.3867V63.3281L102.629 60.6914V60.6445L102.77 58.1836L102.301 55.7109L102.254 55.4766L102.5 53.7539L102.042 53.5645L100.445 53.5078H100.434L98.5088 53.4443L97.1445 53.6836ZM59.4609 61.6992L58.6992 62.9414L58.2773 65.0977L58.418 67.5352L58.4297 67.6289L58.418 67.7109L58.2539 70.1367L58.3154 70.4785L58.7656 70.4766V70.4648L61.2744 70.4092L61.6055 69.7148L61.6992 67.5117L61.4883 64.9219V64.875L61.3828 62.7305L60.5508 61.6406L59.4609 61.6992ZM45.9805 51.6211L45.4062 51.9609V52.9141L45.5586 54.1406L45.5703 54.2578V54.375L45.5566 54.7852L45.7461 56.2031L45.7812 56.4375L45.7344 56.6719L45.4492 58.2393L45.4062 59.6484L45.4004 59.6592L45.6992 61.4414L45.7227 61.582V61.7227L45.6523 64.3594V64.4531L45.6484 64.4648L45.6758 64.6172L45.7227 64.875L45.6758 65.1445L45.2422 67.6055L45.4883 70.0195L45.5 70.1484L45.4883 70.2773L45.4775 70.3857L45.5 70.3828H45.5703L46.1494 70.3721L46.3789 70.1016L46.5898 67.9336L46.6836 65.4961L46.4961 62.918L46.4844 62.8594V60.0469L46.6719 57.4102L46.5898 54.9727L46.2969 52.418L46.2852 52.3828V52.3477L46.2227 51.6055L45.9805 51.6211ZM73.3008 52.0664L73.5586 54.1406L73.5703 54.2578V54.375L73.4062 59.6484L73.3945 59.6719V59.6953L73.2422 62.1445L73.6758 64.6172L73.7227 64.875L73.6758 65.1445L73.2422 67.6055L73.4883 70.0195L73.5 70.1484L73.4883 70.2773L73.4775 70.3799L74.2148 70.2939L74.374 70.1064L74.4336 69.5391L74.5156 66.9961L74.5977 64.3477V64.3125L74.4961 62.918L74.4844 62.8594V60.3271L74.3164 59.3789L74.2695 59.1211L74.3164 58.8633L74.6553 56.9229L74.5898 54.9727L74.2969 52.418L74.2852 52.3828V52.3477L74.2383 51.792L74.0234 51.6562L73.6328 51.583L73.3008 52.0664ZM59.5195 56.5898L57.4453 57.0938L56.0625 58.1953L56.0273 58.3008H56.4727L56.4961 58.3125L59.1445 58.418H59.2266L61.0615 58.6006L61.1836 58.5938L61.9688 58.5586L62.0244 58.6289L64.207 58.3945L64.3125 58.3828L64.4297 58.3945L64.8867 58.418L64.8633 58.2891L63.5039 57.1055L61.6875 56.3203L59.5195 56.5898ZM22.4961 49.7383L22.3203 49.7734L22.1445 49.7617L19.5078 49.5977L19.5195 49.5859L16.9062 49.5156L16.5146 49.499L16.9023 50.0859L17.7129 50.4619L19.5195 50.4141L19.5078 50.4023L22.1445 50.2383L22.3203 50.2266L22.4961 50.2617L24.3555 50.5986L25.668 50.4375L25.7852 50.4258H25.9023L26.2891 50.4395L27.2656 50.2617L27.4648 50.2266L27.6641 50.25L30.3008 50.4961L30.5234 50.5195L30.6299 50.5635L31.7266 49.6641L31.7969 49.4062L31.375 49.3945L28.8789 49.6641L28.7266 49.6758L28.5791 49.6641L27.6641 49.75L27.4648 49.7734L27.2656 49.7383L25.2275 49.3662L24.6621 49.3447L22.4961 49.7383ZM94.4961 49.7383L94.3203 49.7734L94.1445 49.7617L91.5078 49.5977L91.5195 49.5859L88.9062 49.5156L88.5146 49.499L88.9023 50.0859L89.7129 50.4619L91.5195 50.4141L91.5078 50.4023L94.1445 50.2383L94.3203 50.2266L94.4961 50.2617L96.3555 50.5986L97.668 50.4375L97.7852 50.4258H97.9023L98.2891 50.4395L99.2656 50.2617L99.4648 50.2266L99.6641 50.25L102.301 50.4961L102.523 50.5195L102.63 50.5635L103.727 49.6641L103.797 49.4062L103.375 49.3945L100.879 49.6641L100.727 49.6758L100.579 49.6641L99.6641 49.75L99.4648 49.7734L99.2656 49.7383L97.2275 49.3662L96.6621 49.3447L94.4961 49.7383ZM62.2695 43.4766L59.6328 43.6641L59.5508 43.6758L59.4805 43.6641L56.832 43.5938L56.7363 43.5908L55.0391 45.1562L54.9102 45.2734L54.7578 45.3555L52.4727 46.6094L50.2109 47.9688L50.1992 47.957L49.502 48.4111L50.7266 48.3516H50.8789L51.0195 48.375L51.46 48.4424L51.7695 48.4141H51.8633L54.5 48.3086H54.6758L56.5801 48.459L58.7305 48.4688H58.7891L58.8594 48.4805L59.1504 48.5078H59.7383L62.375 48.332H62.5273L65.1641 48.4023H65.2344L65.2676 48.4082L66.6289 48.4336L69.207 48.3867V48.375L70.0068 48.332L70.1562 48.3086L70.3203 48.2734H70.332L68.7852 47.3711L66.4648 46.1172L66.3008 46.0234L66.1719 45.9062L64.3789 44.2891L62.3447 43.4688L62.2695 43.4766ZM24.2305 29.582H24.1367L21.5 29.6875L21.4062 29.6992L21.3242 29.6875L18.958 29.5078L18.9219 29.5117H17.4805L17.3398 30.5547L17.4102 33.0273L17.7031 35.582L17.7266 35.793L17.7031 36.0039L17.293 38.4766L17.4219 40.9609V41.1367L17.2578 43.6562L17.5391 45.8711L17.8672 46.4951L18.2617 46.5234H19.5176L19.0469 45.7344L18.6953 45.1367L18.918 44.4805L19.709 42.127L19.5352 41.3047L19.3125 40.2852L19.2539 40.0039L19.3008 39.7344L19.6992 37.332L19.4297 34.8477L19.3711 34.3672L19.6172 33.9453L20.9297 31.625L21.3281 30.9336L22.1133 30.875L24.7266 30.6523L25.3711 30.5938L25.8516 31.0273L27.75 32.7148L28.1484 33.0664L28.2305 33.582L28.6758 36.1953L28.6992 36.3477L28.6875 36.5L28.582 39.1367L28.5703 39.4414L28.4531 39.7109L27.7197 41.2939L28.7266 42.7695L28.9727 43.1328L28.9844 43.5898L28.9961 44.4688L29.0312 46.2383L28.4453 46.1445L28.2988 46.6221L28.54 46.6465L29.8203 46.5273L30.5 46.2461L30.2539 44.5234L30.3008 44.2891L30.7695 41.8164L30.6289 39.3555V39.3086L30.5703 36.6719V36.6133L30.6172 34.0703L30.3008 31.5508L30.2773 31.3867L30.2891 31.2227L30.4521 29.5625L29.4219 29.6055L29.3164 29.6172L29.1992 29.6055L28.3115 29.5088L26.8789 29.6641L26.7266 29.6758L26.5742 29.6641L24.9775 29.5078L24.2305 29.582ZM96.2305 29.582H96.1367L93.5 29.6875L93.4062 29.6992L93.3242 29.6875L90.958 29.5078L90.9219 29.5117H89.4805L89.3398 30.5547L89.4102 33.0273L89.7031 35.582L89.7266 35.793L89.7031 36.0039L89.293 38.4766L89.4219 40.9609V41.1367L89.2578 43.6562L89.5391 45.8711L89.8672 46.4951L90.2617 46.5234H91.5176L91.0469 45.7344L90.6953 45.1367L90.918 44.4805L91.709 42.127L91.5352 41.3047L91.3125 40.2852L91.2539 40.0039L91.3008 39.7344L91.6992 37.332L91.4297 34.8477L91.3711 34.3672L91.6172 33.9453L92.9297 31.625L93.3281 30.9336L94.1133 30.875L96.7266 30.6523L97.3711 30.5938L97.8516 31.0273L99.75 32.7148L100.148 33.0664L100.23 33.582L100.676 36.1953L100.699 36.3477L100.688 36.5L100.582 39.1367L100.57 39.4414L100.453 39.7109L99.7197 41.2939L100.727 42.7695L100.973 43.1328L100.984 43.5898L100.996 44.4688L101.031 46.2383L100.445 46.1445L100.299 46.6221L100.54 46.6465L101.82 46.5273L102.5 46.2461L102.254 44.5234L102.301 44.2891L102.77 41.8164L102.629 39.3555V39.3086L102.57 36.6719V36.6133L102.617 34.0703L102.301 31.5508L102.277 31.3867L102.289 31.2227L102.452 29.5625L101.422 29.6055L101.316 29.6172L101.199 29.6055L100.312 29.5088L98.8789 29.6641L98.7266 29.6758L98.5742 29.6641L96.9775 29.5078L96.2305 29.582ZM22.4219 43.4258L21.9648 44.7734L22.668 45.9453L24.1094 46.2617L25.4219 45.8047L25.9609 44.0586L25.1055 42.8047L23.6875 42.6289L22.4219 43.4258ZM94.4219 43.4258L93.9648 44.7734L94.668 45.9453L96.1094 46.2617L97.4219 45.8047L97.9609 44.0586L97.1055 42.8047L95.6875 42.6289L94.4219 43.4258ZM57.2891 37.4648V37.5352L57.6709 39.8516L57.8398 39.7773L57.8867 39.7539L57.9336 39.7422L60.0898 38.9688L60.8633 38.6992L61.5078 39.1914L62.5752 40.0049L62.6914 38.5547L62.5742 37.5469L61.4258 37.6641L61.2734 37.6758L61.1211 37.6641L58.5664 37.3828L57.2891 37.4648ZM23.1445 33.8047L22.4531 35.0117L22.7109 37.168L22.7344 37.3789L22.6992 37.5781L22.3711 39.5234L22.9355 39.5664L23.0078 39.5234L23.5352 39.5938L23.6543 39.6084L25.2656 39.4297L25.6055 38.7148L25.6875 36.582L25.3594 34.6133L24.3398 33.6992L23.1445 33.8047ZM95.1445 33.8047L94.4531 35.0117L94.7109 37.168L94.7344 37.3789L94.6992 37.5781L94.3711 39.5234L94.9355 39.5664L95.0078 39.5234L95.5352 39.5938L95.6543 39.6084L97.2656 39.4297L97.6055 38.7148L97.6875 36.582L97.3594 34.6133L96.3398 33.6992L95.1445 33.8047ZM21.2188 18.0625L19.4258 19.1758L18.3945 21.1562L17.4688 23.2422L17.3398 25.4688L17.4805 26.4883H18.9219L18.958 26.4912L21.3242 26.3125L21.4062 26.3008L21.5 26.3125L24.1367 26.418H24.2305L24.9775 26.4912L26.5742 26.3359L26.7266 26.3242L26.8789 26.3359L28.3115 26.4902L29.1992 26.3945L29.3164 26.3828L29.4219 26.3945L30.7412 26.4492L30.7461 26.4297L30.3125 24.0156L30.2891 23.7812L30.2422 21.5547L29.1172 19.8555L27.4297 18.4844L25.3438 17.7227L24.8096 17.627L24.5195 17.6055L22.8643 17.4785L21.2188 18.0625ZM93.2188 18.0625L91.4258 19.1758L90.3945 21.1562L89.4688 23.2422L89.3398 25.4688L89.4805 26.4883H90.9219L90.958 26.4912L93.3242 26.3125L93.4062 26.3008L93.5 26.3125L96.1367 26.418H96.2305L96.9775 26.4912L98.5742 26.3359L98.7266 26.3242L98.8789 26.3359L100.312 26.4902L101.199 26.3945L101.316 26.3828L101.422 26.3945L102.741 26.4492L102.746 26.4297L102.312 24.0156L102.289 23.7812L102.242 21.5547L101.117 19.8555L99.4297 18.4844L97.3438 17.7227L96.8096 17.627L96.5195 17.6055L94.8643 17.4785L93.2188 18.0625ZM23.5 10.3164L23.3242 12.332L23.3887 14.332L24.0811 14.4521L24.3789 14.1016L24.5898 11.9336L24.6016 10.2109L24.0508 9.87109L23.5 10.3164ZM95.5 10.3164L95.3242 12.332L95.3887 14.332L96.0811 14.4521L96.3789 14.1016L96.5898 11.9336L96.6016 10.2109L96.0508 9.87109L95.5 10.3164Z" fill="black"/>
</svg>
