<svg width="120" height="120" viewBox="0 0 120 120" fill="none" xmlns="http://www.w3.org/2000/svg">
<path d="M56.6562 34.0508L59.0234 35.9141L59.082 35.9492L59.1289 35.9961L60.957 37.7305L61.1211 37.7539L62.1172 36.0312L62.293 35.7266L62.5859 35.5273L64.4258 34.2969L65.9961 33.2539L66.6641 35.0117L67.625 37.5547L67.7305 37.8125V38.082L67.7188 41.0938L67.7539 42.0664L69.1953 40.5312L70.8125 38.2109L70.9297 38.0469L71.082 37.918L73.4141 35.9609L73.6836 35.7266L74.0234 35.6445L76.3086 35.0938L77.1523 34.8945L77.75 35.5156L79.1562 36.9922L79.7891 37.6602L79.4844 38.5273L78.4883 41.3516L77.5039 44.1875L77.4922 44.1992V44.2109L76.4492 47.0234L76.4141 47.1172L76.3672 47.1992L76.2793 47.3652L77.0781 47.4062L77.3945 47.418L77.6758 47.5586L79.8672 48.6602L80.8398 49.1406L80.6758 50.2305L80.3125 52.5742L82.0352 52.6797L84.9414 52.5625L87.918 52.3984L87.9531 52.3867H87.9883L90.9883 52.375H91.0703L91.1406 52.3867L93.9531 52.6562L96.8828 52.4453H96.9883L99.9883 52.4102H100.012L102.941 52.4219L105.941 52.3047L106.938 52.2695L107.359 53.1719L108.379 55.375L108.52 55.6797V56.0078L108.484 59.0078V59.0547L108.441 60.2559L109.113 60.2617H109.676L110.098 60.6484L111.457 61.8672L112.16 62.4883L111.902 63.4023L111.059 66.2852L110.473 69.1211L110.309 69.9062L109.559 70.2109L107.227 71.1484L107.039 71.2305L106.84 71.2422L105.426 71.4072L105.594 72.8359V73L105.582 76V76.0352L105.512 79.0352L105.453 82.0234L105.43 85.0117V85.082L105.254 87.9414L105.734 90.7539L105.758 90.9531L105.746 91.1523L105.441 94L105.57 96.9297L105.582 97.0117L105.57 97.082L105.418 100L105.711 102.848L105.723 103L105.711 103.141L105.43 106.07L105.441 106.082L105.312 108.423L108.164 108.758L109.383 108.887L109.488 110.105L109.758 112.859L109.77 113.012L109.758 113.176L109.597 114.501L109.742 114.5V114.488L111.945 114.418L113.504 114.359V116H112.004L112.051 117.406L109.836 117.488H109.812L109.241 117.497L109.23 117.594L108.066 117.517L106.309 117.547H106.297L103.337 117.557L102.223 117.723L102.117 117.734H102.012L99.2139 117.756L99.1953 117.758L99.1865 117.756L99.0117 117.758H98.8711L98.7422 117.734L97.2637 117.477L95.7441 117.258L93.1289 117.5L93.0117 117.512H92.8945L92.8301 117.507L92.375 117.547L92.2812 117.559H92.1875L88.9785 117.428L87.1758 117.641L87 117.664L86.8242 117.641L86.041 117.546L85.2852 117.582H85.0977L81.7295 117.279H81.6689L80.2969 117.394L78.2227 117.711L78.1172 117.723H78.0234L75.0234 117.77H74.9297L74.8242 117.758L73.7354 117.627L71.832 117.429L69.1055 117.629H68.918L65.9648 117.465L63.0469 117.57H62.9414L60.0117 117.465L57.0703 117.617H56.9766L56.8711 117.605L54.8525 117.439L53.7266 117.512L53.7031 117.523H53.668L50.1641 117.617H50.0703L46.5664 117.512V117.5L45.4639 117.496L45.1172 117.523H45.0938L42.0938 117.699L42 117.711H41.918L38.9531 117.547L36.0469 117.629L35.9297 117.641L35.8125 117.617L34.3066 117.423L32.5742 117.418L29.8477 117.427L27.1172 117.641L27 117.652L26.8945 117.641L26.4805 117.61L25.6484 117.664L25.5312 117.676L25.4258 117.664L22.9102 117.454L21.0352 117.5L21.0469 117.512L18.0469 117.617H17.9648L17.8711 117.605L16.5605 117.496L15.0898 117.57H15.0781L12.5723 117.653L12.1758 117.699L10.5352 117.898L10.5293 117.638L8.01172 117.5H8V114.5H8.1875L10.458 114.635L10.418 113.082L10.2539 110.082L10.1602 108.5H12.1992L14.3379 108.649L14.332 107.02L14.2852 104.02V103.949L14.2969 103.879L14.5195 100.879L14.625 98.0547L14.5078 95.0547V95.0078L14.4844 92.0898L14.3086 89.0898V88.9375L14.4258 86.0078L14.4141 83.0078V82.9844L14.4375 79.9844V79.9375L14.4492 79.8906L14.6602 76.9844L14.3789 74.1484V73.9961L14.3887 71.3281L13.6992 71.3008L10.8633 71.5H9.35156L9.17578 70.1992L9.14062 69.9297V69.918L8.78906 67.1172L7.79297 64.4219L7.58203 63.8477L7.82812 63.2852L8.73047 61.2812L9.10547 60.4492L10.0195 60.4023L11.2773 60.3379V60.0156L11.2305 57.0156V56.9219L11.2422 56.8281L11.5938 53.8281L11.7344 52.5625L13.0117 52.5039L15.9297 52.375H16.082L19.0234 52.5156L21.9531 52.4336H22.0586L24.9766 52.5273L27.9297 52.3867H28.1289L31.1289 52.6445H31.1172L34.0352 52.7148H36.5781L37.4219 52.1875L37.293 50.0898L37.2344 49.082L38.1484 48.6484L40.3516 47.5938L40.6445 47.4648L40.9609 47.4531L43.9609 47.3711L44.0781 47.3594L44.1953 47.3828L45.5371 47.5557L45.2422 46.5078H45.2305L44.1875 43.8711V43.8594L43.0391 41.1172L42.8164 40.5898L43.0039 40.0625L43.7773 37.7773L44.0117 37.1094L44.668 36.8633L47.4805 35.7852L48.4531 35.4102L49.1328 36.1836L50.9844 38.2695L51.0078 38.293L51.0312 38.3281L52.918 40.6602L52.9297 40.6836L53.9961 42.043L54.0078 40.6602V40.6133L54.125 37.6133V37.6016L54.2305 35.1641L54.3594 32.2578L56.6562 34.0508ZM86.8164 111.414L86.4297 111.66L85.9727 111.648L82.9727 111.59H82.9492L79.7969 111.496L79.6709 111.492L78.082 111.582H77.9648L77.8477 111.57L74.9883 111.289L72.1406 111.559H72.082L70.459 111.641L70.4297 111.66L70.1982 111.653L69.082 111.711L68.9531 111.723L68.8125 111.711L68.0088 111.609L66.9727 111.59H66.9492L63.7969 111.496L62.3555 111.461L62.3545 111.394L59.9766 111.348V111.336H56.9766L54.9854 111.305L54.8164 111.414L54.4297 111.66L53.9727 111.648L50.9727 111.59H50.9492L49.9102 111.559L48.0469 111.617H47.9414L44.9414 111.512V111.5L41.9883 111.488H41.9062L38.9893 111.302L38.8164 111.414L38.4297 111.66L37.9727 111.648L34.9727 111.59H34.9492L31.7969 111.496L30.3555 111.461L30.3545 111.428L30.1055 111.43L27.1172 111.664L26.9883 111.676L26.8594 111.664L23.9766 111.383L22.8574 111.387L22.8164 111.414L22.4297 111.66L21.9727 111.648L18.9727 111.59H18.9492L18.0762 111.563L18.0703 111.57H18.0586L15.0586 111.688L14.9766 111.699L14.8945 111.688L13.3359 111.582L13.418 112.918V112.965L13.4531 114.523L14.8242 114.371L14.9766 114.359L15.1289 114.371L16.5928 114.487L18.4531 114.395H18.5234L22.0391 114.383H22.168L23.0859 114.462L23.9648 114.441L24.0352 114.43L24.1055 114.441L26.5322 114.608L28.9648 114.441H29.0469L29.6279 114.438L29.8828 114.418H29.918L32.918 114.254L33.0586 114.242L33.1875 114.266L34.4414 114.424L36.0312 114.43L39.5352 114.312L39.6055 114.301L39.6641 114.312L43.1797 114.488L43.168 114.5L45.2256 114.507L47.8828 114.289H51.0352L54.0352 114.359H54.082L54.1289 114.371L54.9395 114.436L57.043 114.289H57.1602L60.6641 114.336L60.6523 114.348H64.1797L67.6602 114.406L71.1523 114.348H71.2461L71.3398 114.359L71.9551 114.424L72.0352 114.418L72.1758 114.43L74.8076 114.721L78.1367 114.559V114.57L79.832 114.432L80.7773 114.289L80.8945 114.277H81.0117L81.6602 114.282L81.7109 114.277L81.7764 114.283L84.0117 114.301H84.0938L84.1758 114.312L86.1318 114.54L88.6602 114.43L88.7305 114.418L88.7734 114.426L89.8242 114.301L89.9648 114.289L90.1055 114.301L92.8828 114.494L95.6211 114.254L95.7852 114.242L95.8193 114.246L95.8711 114.242L96.0586 114.23L96.2578 114.266L97.8965 114.542L99.3174 114.745L99.3428 114.744L102.699 114.57H102.758L103.043 114.569L104.777 114.312L104.941 114.289L105.105 114.301L106.582 114.395L106.746 112.953L106.617 111.594L104.941 111.406L102.814 111.414L102.43 111.66L101.973 111.648L98.9727 111.59H98.9492L96.917 111.529L96.0234 111.547H96.0117L93.0703 111.559L93.082 111.57L90.082 111.746L89.918 111.758L89.7539 111.723L87.0391 111.27L86.8164 111.414ZM89.5938 72.8359V73L89.582 76V76.0352L89.5117 79.0352L89.4531 82.0234L89.4297 85.0117V85.082L89.2539 87.9414L89.7344 90.7539L89.7578 90.9531L89.7461 91.1523L89.4414 94L89.5703 96.9297L89.582 97.0117L89.5703 97.082L89.418 100L89.7109 102.848L89.7227 103L89.7109 103.141L89.4297 106.07L89.4414 106.082L89.3018 108.618L90.0469 108.746L92.918 108.57H92.9883L94.3379 108.564L94.332 107.02L94.2852 104.02V103.949L94.2969 103.879L94.5195 100.879L94.625 98.0547L94.5078 95.0547V95.0078L94.4844 92.0898L94.3086 89.0898V88.9375L94.4258 86.0078L94.4141 83.0078V82.9844L94.4375 79.9844V79.9375L94.4492 79.8906L94.6602 76.9844L94.3789 74.1484V73.9961L94.3887 71.4395L91.6523 71.4297H91.582L89.4131 71.2969L89.5938 72.8359ZM25.4189 71.3525L25.5938 72.8359V73L25.582 76V76.0352L25.5117 79.0352L25.4531 82.0234L25.4297 85.0117V85.082L25.2539 87.9414L25.7344 90.7539L25.7578 90.9531L25.7461 91.1523L25.4414 94L25.5703 96.9297L25.582 97.0117L25.5703 97.082L25.418 100L25.7109 102.848L25.7227 103L25.7109 103.141L25.4297 106.07L25.4414 106.082L25.3086 108.501L27.0234 108.676L29.8828 108.441H29.9883L30.3369 108.438L30.332 107.02L30.2852 104.02V103.949L30.2969 103.879L30.5195 100.879L30.625 98.0547L30.5078 95.0547V95.0078L30.4844 92.0898L30.3086 89.0898V88.9375L30.4258 86.0078L30.4141 83.0078V82.9844L30.4375 79.9844V79.9375L30.4492 79.8906L30.6602 76.9844L30.3789 74.1484V73.9961L30.3877 71.5713L28.6523 71.5586H28.5586L25.6992 71.3242L25.4189 71.3525ZM65.3906 71.9688L65.3789 74.0078L65.6602 76.8555L65.6719 76.9844L65.6602 77.1133L65.4375 80.1133L65.4141 83.0195L65.4258 85.9961V86.0664L65.3086 88.9375L65.4844 91.9141V91.9844L65.5078 94.9492L65.6133 97.9492L65.625 97.9961L65.6133 98.0547L65.5195 101.055V101.113L65.2852 104.113L65.332 106.973V106.996L65.3418 108.359L65.9766 108.348H66.082L66.1875 108.359L68.1543 108.609L69.5859 108.637L70.3359 108.145L70.4414 105.918V105.859L70.7109 103L70.4297 100.152L70.418 100.035V99.918L70.582 96.9883L70.4414 94.0703V93.9531L70.4531 93.8477L70.7461 91.0469L70.2773 88.2461L70.2422 88.082L70.2539 87.918L70.4297 84.918L70.4531 81.9883V81.9766L70.5117 78.9766V78.9648L70.5938 76H70.582L70.5938 73.0586L70.4414 71.6172L69.082 71.6875L69.0117 71.6992L68.9414 71.6875L66.293 71.582L65.3906 71.9688ZM73.8164 71.7109L73.6758 71.7227L73.5234 71.7109L73.4609 71.7041L73.5938 72.8359V73L73.582 76V76.0352L73.5117 79.0352L73.4531 82.0234L73.4297 85.0117V85.082L73.2539 87.9414L73.7344 90.7539L73.7578 90.9531L73.7461 91.1523L73.4414 94L73.5703 96.9297L73.582 97.0117L73.5703 97.082L73.418 100L73.7109 102.848L73.7227 103L73.7109 103.141L73.4297 106.07L73.4414 106.082L73.3125 108.437L74.8594 108.289L75 108.277L75.1523 108.289L77.9883 108.582L78.3379 108.563L78.332 107.02L78.2852 104.02V103.949L78.2969 103.879L78.5195 100.879L78.625 98.0547L78.5078 95.0547V95.0078L78.4844 92.0898L78.3086 89.0898V88.9375L78.4258 86.0078L78.4141 83.0078V82.9844L78.4375 79.9844V79.9375L78.4492 79.8906L78.6602 76.9844L78.3789 74.1484V73.9961L78.3877 71.5078L76.6523 71.418L73.8164 71.7109ZM81.3906 71.9688L81.3789 74.0078L81.6602 76.8555L81.6719 76.9844L81.6602 77.1133L81.4375 80.1133L81.4141 83.0195L81.4258 85.9961V86.0664L81.3086 88.9375L81.4844 91.9141V91.9844L81.5078 94.9492L81.6133 97.9492L81.625 97.9961L81.6133 98.0547L81.5195 101.055V101.113L81.2852 104.113L81.332 106.973V106.996L81.3428 108.441L83.9883 108.559L86.0371 108.34L86.3359 108.145L86.4414 105.918V105.859L86.7109 103L86.4297 100.152L86.418 100.035V99.918L86.582 96.9883L86.4414 94.0703V93.9531L86.4531 93.8477L86.7461 91.0469L86.2773 88.2461L86.2422 88.082L86.2539 87.918L86.4297 84.918L86.4531 81.9883V81.9766L86.5117 78.9766V78.9648L86.5938 76H86.582L86.5938 73.0586L86.4434 71.6426L85.9102 71.7344L85.7109 71.7578L85.5117 71.7461L85.0352 71.6953L85.0117 71.6992L84.9414 71.6875L82.293 71.582L81.3906 71.9688ZM17.3906 71.9688L17.3789 74.0078L17.6602 76.8555L17.6719 76.9844L17.6602 77.1133L17.4375 80.1133L17.4141 83.0195L17.4258 85.9961V86.0664L17.3086 88.9375L17.4844 91.9141V91.9844L17.5078 94.9492L17.6133 97.9492L17.625 97.9961L17.6133 98.0547L17.5195 101.055V101.113L17.2852 104.113L17.332 106.973V106.996L17.3438 108.531L18.124 108.558L20.918 108.395H20.9883L21.96 108.391L22.3359 108.145L22.4414 105.918V105.859L22.7109 103L22.4297 100.152L22.418 100.035V99.918L22.582 96.9883L22.4414 94.0703V93.9531L22.4531 93.8477L22.7461 91.0469L22.2773 88.2461L22.2422 88.082L22.2539 87.918L22.4297 84.918L22.4531 81.9883V81.9766L22.5117 78.9766V78.9648L22.5938 76H22.582L22.5938 73.0586L22.4414 71.6172L21.082 71.6875L21.0117 71.6992L20.9414 71.6875L18.293 71.582L17.3906 71.9688ZM43.7227 71.4883H43.6758L41.4365 71.4971L41.5938 72.8359V73L41.582 76V76.0352L41.5117 79.0352L41.4531 82.0234L41.4297 85.0117V85.082L41.2539 87.9414L41.7344 90.7539L41.7578 90.9531L41.7461 91.1523L41.4414 94L41.5703 96.9297L41.582 97.0117L41.5703 97.082L41.418 100L41.7109 102.848L41.7227 103L41.7109 103.141L41.4297 106.07L41.4414 106.082L41.3115 108.442L42.0938 108.488L42.082 108.5L45.0117 108.512H45.0586L46.3379 108.557L46.332 107.02L46.2852 104.02V103.949L46.2969 103.879L46.5195 100.879L46.625 98.0547L46.5078 95.0547V95.0078L46.4844 92.0898L46.3086 89.0898V88.9375L46.4258 86.0078L46.4141 83.0078V82.9844L46.4375 79.9844V79.9375L46.4492 79.8906L46.6602 76.9844L46.3789 74.1484V73.9961L46.3887 71.3926L43.7227 71.4883ZM49.3906 71.9688L49.3789 74.0078L49.6602 76.8555L49.6719 76.9844L49.6602 77.1133L49.4375 80.1133L49.4141 83.0195L49.4258 85.9961V86.0664L49.3086 88.9375L49.4844 91.9141V91.9844L49.5078 94.9492L49.6133 97.9492L49.625 97.9961L49.6133 98.0547L49.5195 101.055V101.113L49.2852 104.113L49.332 106.973V106.996L49.3438 108.531L50.1016 108.557L50.8828 108.535L53.8828 108.289H54.0234L54.1133 108.29L54.3359 108.145L54.4414 105.918V105.859L54.7109 103L54.4297 100.152L54.418 100.035V99.918L54.582 96.9883L54.4414 94.0703V93.9531L54.4531 93.8477L54.7461 91.0469L54.2773 88.2461L54.2422 88.082L54.2539 87.918L54.4297 84.918L54.4531 81.9883V81.9766L54.5117 78.9766V78.9648L54.5938 76H54.582L54.5938 73.0586L54.4482 71.6826L52.6875 71.7109H52.5469L51.6191 71.6348L50.293 71.582L49.3906 71.9688ZM97.3906 71.9688L97.3789 74.0078L97.6602 76.8555L97.6719 76.9844L97.6602 77.1133L97.4375 80.1133L97.4141 83.0195L97.4258 85.9961V86.0664L97.3086 88.9375L97.4844 91.9141V91.9844L97.5078 94.9492L97.6133 97.9492L97.625 97.9961L97.6133 98.0547L97.5195 101.055V101.113L97.2852 104.113L97.332 106.973V106.996L97.3428 108.525L98.9648 108.5V108.488L101.917 108.419L102.336 108.145L102.441 105.918V105.859L102.711 103L102.43 100.152L102.418 100.035V99.918L102.582 96.9883L102.441 94.0703V93.9531L102.453 93.8477L102.746 91.0469L102.277 88.2461L102.242 88.082L102.254 87.918L102.43 84.918L102.453 81.9883V81.9766L102.512 78.9766V78.9648L102.594 76H102.582L102.594 73.0586L102.441 71.6172L101.082 71.6875L101.012 71.6992L100.941 71.6875L98.293 71.582L97.3906 71.9688ZM33.3906 71.9688L33.3789 74.0078L33.6602 76.8555L33.6719 76.9844L33.6602 77.1133L33.4375 80.1133L33.4141 83.0195L33.4258 85.9961V86.0664L33.3086 88.9375L33.4844 91.9141V91.9844L33.5078 94.9492L33.6133 97.9492L33.625 97.9961L33.6133 98.0547L33.5195 101.055V101.113L33.2852 104.113L33.332 106.973V106.996L33.3428 108.419L35.9414 108.43L38.0254 108.348L38.3359 108.145L38.4414 105.918V105.859L38.7109 103L38.4297 100.152L38.418 100.035V99.918L38.582 96.9883L38.4414 94.0703V93.9531L38.4531 93.8477L38.7461 91.0469L38.2773 88.2461L38.2422 88.082L38.2539 87.918L38.4297 84.918L38.4531 81.9883V81.9766L38.5117 78.9766V78.9648L38.5938 76H38.582L38.5938 73.0586L38.4443 71.6465L37.7578 71.6875L37.6758 71.6992L37.6055 71.6875L37.3066 71.6758L37.082 71.6875L37.0117 71.6992L36.9414 71.6875L34.293 71.582L33.3906 71.9688ZM58.6992 71.6523H57.4551L57.5938 72.8359V73L57.582 76V76.0352L57.5117 79.0352L57.4531 82.0234L57.4297 85.0117V85.082L57.2539 87.9414L57.7344 90.7539L57.7578 90.9531L57.7461 91.1523L57.4414 94L57.5703 96.9297L57.582 97.0117L57.5703 97.082L57.418 100L57.7109 102.848L57.7227 103L57.7109 103.141L57.4297 106.07L57.4414 106.082L57.3174 108.348H60.0234L62.3369 108.393L62.332 107.02L62.2852 104.02V103.949L62.2969 103.879L62.5195 100.879L62.625 98.0547L62.5078 95.0547V95.0078L62.4844 92.0898L62.3086 89.0898V88.9375L62.4258 86.0078L62.4141 83.0078V82.9844L62.4375 79.9844V79.9375L62.4492 79.8906L62.6602 76.9844L62.3789 74.1484V73.9961L62.3877 71.6074L61.6641 71.5938L58.6992 71.6523ZM108.332 63.5078L106.867 63.4961L104.837 63.4873L103.359 63.7422L103.16 63.7656L102.961 63.7539L101.803 63.6504L101.113 63.707L101.043 63.7188L100.973 63.707L97.9727 63.6719V63.6602L97.8486 63.6592L97.207 63.707H97.0664L96.9258 63.6953L96.5859 63.6543L94.9961 63.6484H94.9727L92.0684 63.5908L91.2773 63.6836L91.1953 63.6953H91.1133L88.1133 63.7305H87.9961L87.8789 63.707L85.2539 63.3193L83.125 63.4258L83.1367 63.4375L80.1367 63.707L79.9961 63.7188L79.8555 63.707L77.6533 63.4863L76.7402 63.4238L74.0781 63.5781H73.9375L72.8555 63.5244L70.8496 63.4609L68.1484 63.7422L67.9492 63.7656L67.75 63.7305L66.4082 63.501L64.1484 63.3906L61.2305 63.6367H61.1367L58.1367 63.7188H58.1016L55.1016 63.707H54.9844L53.3662 63.5801L53.0312 63.5898H53.0078L50.0078 63.6016H49.9141L49.832 63.5898L47.8252 63.3623L46.1836 63.4492H46.0547L45.9971 63.4473L44.2539 63.7422L44.0312 63.7773L43.8203 63.7539L41.9971 63.5264L40.2891 63.7422L40.1602 63.7539H40.0195L37.0195 63.5781H36.9844L36.4424 63.5381L35.2188 63.7188L35.1133 63.7422H35.0078L32.0078 63.7539L31.8789 63.7656L31.75 63.7422L30.6982 63.5566L28.0547 63.4844L26.8281 63.4443L26.1367 63.5078L26.0078 63.5195L25.8906 63.5078L24.7539 63.4229L22.2188 63.625L22.0781 63.6367L21.9258 63.625L21.0908 63.5293L20.1836 63.6367L20.0078 63.6602L19.8203 63.6484L17.4453 63.3613L16.1719 63.4141L16.0898 63.4258L16.0078 63.4141L13.3037 63.2734H13.2109L13.207 63.2676L13.0781 63.2617L11.0859 63.3672L10.8164 63.9648L11.6602 66.2266L11.7188 66.3789L11.7422 66.5547L11.9648 68.418L13.5703 68.3125L13.6523 68.3008L13.7344 68.3125L16.7344 68.4297H16.7461L16.7578 68.4414L19.6641 68.6172L19.6758 68.6055L22.0967 68.6143L22.0781 68.5H23.8418L25.5234 68.3359L25.6523 68.3242L25.7812 68.3359L28.7695 68.5703L31.6641 68.582L33.6816 68.5732L33.7188 68.5586L34.0586 68.5703L34.1074 68.5723L34.6641 68.5703H34.7227L37.2812 68.6836L38.1016 68.6406L38.0781 68.5H40L40.0107 68.5479L40.582 68.5117H40.6523L43.6172 68.5V68.4883L46.6172 68.3828H46.7109L49.7109 68.4766H49.7461L49.7812 68.4883L51.6201 68.6387L52.9883 68.6992L54.1016 68.6406L54.0781 68.5H56L56.0371 68.6641H58.6406V68.6523L61.6406 68.5938H61.6992L64.5938 68.6523L67.4883 68.2891L67.6172 68.2773L67.7461 68.2891L70.7461 68.4414H70.8047L71.4238 68.5H72L72.0117 68.5557L73.6523 68.7109L76.5234 68.4297L76.6289 68.418H76.7461L79.6758 68.582L82.5938 68.4414H82.7109L82.8164 68.4531L85.1016 68.6924L86.1016 68.6406L86.0781 68.5H87.082L88.418 68.2773L88.582 68.2422L88.7578 68.2539L91.7578 68.4297L91.7461 68.4414L94.6758 68.4531H94.6992L97.6992 68.5117L100.664 68.5938L100.676 68.582L102.092 68.5869L102.078 68.5H104L104.011 68.5479L106.312 68.2891L107.684 67.7383L108.141 65.5586L108.152 65.5L108.176 65.4414L108.75 63.4727L108.516 63.2617L108.34 63.2607L108.332 63.5078ZM73.5234 50.2705L73.4727 50.4102L73.25 50.3164L73.1836 50.291L71.0898 50.418H70.9375L68.0312 50.2891L65.1719 50.6289L65.0195 50.6406L61.9258 50.3828L59.0547 50.4883H59.043L56.043 50.5586L55.9727 50.5703L55.8906 50.5586L53.0078 50.3477L50.1133 50.582H50.0781L47.0781 50.7461L46.9492 50.7578L46.8086 50.7344L43.9258 50.3594L41.3594 50.4414L40.3516 50.9219L40.4688 52.9141L40.5273 53.8047L39.7539 54.2734L37.7852 55.4922L37.4219 55.7148H33.9648L30.9648 55.6328H30.8711L28.0234 55.3867L25.0703 55.5391H24.9414L21.9883 55.4336L19.0469 55.5273H18.918L15.9883 55.375L14.418 55.4453L14.2305 57.168L14.2656 59.5234L14.793 60.2734L17.0195 60.3086H17.1719L17.5742 60.3545L19.0312 60.2852H19.1484L19.2773 60.2969L21.0635 60.5127L22.8203 60.3086L22.9609 60.2852L23.1133 60.2969L24.6992 60.4131L24.9727 60.3906L25.0664 60.3789L25.1484 60.3906L26.7324 60.4395L28.8672 60.25L29.0664 60.2266L29.2539 60.2617L31.0557 60.5645L33.9961 60.3555H34.2188L36.3066 60.5273L37.7852 60.3086L37.9141 60.2969H38.0547L41.0547 60.4023L41.1133 60.4141H41.1719L41.9424 60.5039L42.9023 60.3789L43.0195 60.3672H43.1484L45.7539 60.4404L46.75 60.2734L46.9609 60.2383L47.1719 60.2617L47.9609 60.3506L49.0195 60.2969L49.1016 60.2852L49.1836 60.2969L52.1836 60.4727H52.2188L53.4551 60.5781L55.9609 60.5195H55.9727L58.9727 60.4609H58.9844L61.9141 60.4258L64.9141 60.25H65.0781L65.2422 60.2734L66.791 60.5254L67.1133 60.543L70.043 60.4258H70.1484L70.8311 60.4502L70.8438 60.4492L70.9609 60.4375H71.0664L73.1221 60.5283L76.0195 60.3789L76.1133 60.3672L76.207 60.3789L76.8057 60.4199L76.9258 60.4141H77.0312L77.1484 60.4258L77.8711 60.4932L79.0898 60.5781L81.9258 60.25L82.0195 60.2383H82.125L85.125 60.2734H85.2188L85.3242 60.2969L85.418 60.3105L85.9258 60.2852L86.0547 60.2734L86.1836 60.2969L89.0664 60.6367L91.9727 60.5898H91.9805L93.9258 60.3555L94.1016 60.332L94.2773 60.3555L96.7383 60.6611L97.625 60.668L99.9961 60.4961L100.113 60.4844L100.23 60.4961L101.792 60.6396L103.879 60.4844H104.566L105.431 60.333L105.484 58.9492L105.508 56.3359L105.051 55.3398L103.059 55.4219L103.023 55.4336H102.988L100 55.4102L97.0117 55.4453L97 55.4336L94.1172 55.668L93.9883 55.6797L93.8594 55.6562L90.8594 55.375H88.0703L88.082 55.3867L85.082 55.5625H85.0586L82.0586 55.6914H81.8945L79.1055 55.4922V55.5039H77.8398L77.5469 54.3789L77.2891 53.3828L77.207 53.0781L77.2539 52.7734L77.5352 50.8516L76.6211 50.3828L74.0078 50.2422L73.5234 50.2705ZM46.3906 39.4062L46.0156 40.4844L46.9648 42.7344V42.7461L46.9766 42.7578L48.0898 45.5469L48.1133 45.6172L48.1367 45.6992L48.6885 47.6699L49.8789 47.6055V47.5938L52.8789 47.3594L52.9961 47.3477L53.1016 47.3594L54.6162 47.4668L54.4062 47.2227L52.4492 44.9492L52.4258 44.9141L52.4141 44.8906L50.5742 42.5352L48.7344 40.25L47.5742 38.9492L46.3906 39.4062ZM63.2422 40.1211L62.7383 41.0117L61.7305 40.8711L60.0781 40.6367L59.5977 40.5664L59.2461 40.2383L57.0898 38.2109L57.0078 40.7305L56.9844 43.6836L57.043 46.2148L57.0762 47.541L58.9492 47.4883L61.9492 47.3828H62.043L62.125 47.3945L64.9492 47.6289L65.0117 47.6211L64.9414 46.1797L64.8477 44.1758V44.1523L64.7305 41.1523L64.7188 41.1172V38.3633L64.5312 37.8477L63.2422 40.1211ZM75.0664 38.4688L73.1914 40.0625L71.5625 42.3945L71.5039 42.4883L71.4219 42.5703L69.4648 44.6445L67.6367 47.0234L67.3828 47.3516L67.832 47.3008L67.9492 47.2773L68.0664 47.2891L70.9727 47.418L72.9209 47.3086L73.6602 45.9102L74.6797 43.168L75.6523 40.3672V40.3555L76.3438 38.3867L76.168 38.2109L75.0664 38.4688Z" fill="black"/>
</svg>
