<svg width="120" height="120" viewBox="0 0 120 120" fill="none" xmlns="http://www.w3.org/2000/svg">
<path d="M58.3574 32.2861H61.2051V32.4971L61.0059 34.958L61.0234 35.3105L61.4863 35.3613L63.9941 35.6426H67.6035L67.9785 36.5918L68.8574 38.8184L68.9629 39.0996V39.4043L68.8926 42.0059L68.8691 42.8965L68.0723 43.3066L66.0449 44.3379L65.6699 44.5254L65.248 44.4902L62.623 44.291L62.5762 44.2793H62.5176L61.2031 44.0664L61.041 45.5166L61.2217 47.6494L61.334 47.6465L61.5566 47.6348L61.7793 47.6934L64.3457 48.4082L64.4395 48.4316L64.5215 48.4785L66.959 49.498L67.0879 49.5449L67.2051 49.627L69.3965 51.0918L69.4434 51.1152L69.4902 51.1504L71.5527 52.7676L71.6348 52.8262L71.6934 52.8965L73.7324 54.9355L73.8379 55.1348L75.0918 57.4902L75.1504 57.6074L75.1973 57.7363L76.0176 60.2793L76.0645 60.4199L76.0762 60.584L76.2363 62.084L77.2939 62.3408L79.6611 62.0713L80.3291 61.9893L80.833 62.458L82.5908 64.0635L83.165 64.6025L83.0596 65.376L82.708 67.9072L82.7666 70.4268V70.4854L82.7139 72.8418L85.1094 72.752H85.168L85.2383 72.7637L87.7695 72.916L90.3008 72.752V72.7402L92.9375 72.5059L93.0078 72.4941H95.75L98.3984 72.5645H98.4922L100.977 72.8105L103.566 72.6934L104.551 72.6465L104.984 73.5371L105.992 75.6113L106.133 75.8926L106.145 76.209L106.238 78.8574L106.25 78.9277L106.238 78.998L106.086 81.6348L106.285 84.0723L106.297 84.2246L106.273 84.377L105.945 86.8262L105.969 89.3457L106.402 91.8535L106.426 91.9941V92.123L106.402 94.7598V94.8535L106.391 94.9473L106.062 97.3848L106.391 99.8223L106.414 99.9863L106.402 100.15L106.203 102.635L106.461 105.154L106.484 105.377L106.438 105.6L105.945 108.107L105.957 110.393L106.402 112.971L106.461 113.357L106.332 113.721L106.13 114.297L108.406 114.746L110.809 114.5L110.891 114.488H110.973L112.016 114.5L112.004 116L111.98 117.5L110.984 117.488L108.477 117.746L108.254 117.77L108.031 117.734L105.57 117.242L105.099 117.244L105.09 117.271L104.808 117.245L103.145 117.254L100.648 117.688L100.496 117.711L100.332 117.699L97.6953 117.594H97.625L97.5547 117.582L95.1523 117.242L92.7617 117.711L92.5273 117.758L92.293 117.734L89.7383 117.406L87.207 117.418L87.1953 117.406L84.6055 117.488H84.5938L81.957 117.547H81.9336L79.3672 117.559L79.3789 117.57L76.7422 117.746L76.5547 117.758L73.9297 117.266L71.5391 117.547L71.4102 117.559H71.2812L68.7266 117.418L66.1719 117.582H66.043L65.9141 117.57L64.5098 117.412H64.3789L64.2266 117.4L63.541 117.303L63.418 117.289L60.957 117.559H60.8867L58.25 117.711L58.0977 117.723L57.957 117.699L55.4141 117.348L52.9062 117.406H52.8477L50.2109 117.348V117.336H47.5742L46.0088 117.308L45.957 117.318L45.8984 117.307L45.8623 117.305L44.9492 117.289L42.4531 117.512L42.418 117.523H42.3711L39.7344 117.617H39.6172L36.9805 117.512V117.5L34.3906 117.488H34.3438L34.2969 117.477L31.7188 117.301L29.1875 117.43H29.1055L26.4688 117.418V117.406L23.9609 117.43L21.3242 117.664L21.1836 117.676L21.0312 117.664L18.5 117.383L15.9219 117.395V117.383L13.3789 117.559H13.3672L13.3555 117.57L10.707 117.688L10.6133 117.699L10.5312 117.688L7.98828 117.5L8 117.277V114.5H8.21094L10.6719 114.699L13.1797 114.582V114.57L13.918 114.521L13.9209 114.243L13.8271 111.7L13.6045 109.063V108.97L13.5459 106.321V106.251L13.6279 103.661L13.6045 101.024V100.966L13.6162 100.919L13.792 98.3174L13.6865 95.7979V95.7275L13.71 93.1143L13.6865 90.583L13.4639 87.9463L13.4521 87.8057L13.4639 87.6533L13.7451 85.1221L13.7334 82.6377L13.5576 80.001V79.9658L13.4521 77.3174L13.4404 77.1533L13.4756 76.9775L13.6367 76.0898L13.168 75.3916L13.0391 75.1807L13.9092 74.5977L13.9326 74.4697L14.0635 74.4932L14.2812 74.3486L14.3867 74.2666L14.2578 73.0713L16.918 72.7783H17.082L19.6953 72.79L22.2266 72.7783V72.7666L24.8633 72.5439L25.0039 72.5322L25.1562 72.5439L27.6758 72.8252L30.2656 72.8135V72.8252L32.8086 72.6377H32.832L35.4805 72.5088H35.5742L35.668 72.5205L36.8379 72.6064L36.8408 72.583L36.5596 69.9111L36.5947 69.6885L37.0869 67.2275V63.958L37.6846 63.5127L39.3955 62.2354L39.8291 61.9189L42.9932 62.0596H43.0752L43.6289 62.1182L44.0254 60.1855L44.0723 60.0215L44.8926 57.5371L44.9277 57.4199L44.998 57.3027L46.2402 54.9707L46.3223 54.8184L46.4277 54.6895L48.1738 52.6855L48.3027 52.5332L48.4785 52.4277L50.623 50.9863L52.7559 49.4277L52.9082 49.3223L53.0723 49.252L55.5332 48.2559L55.6973 48.1855L55.8613 48.1621L58.2227 47.7803L58.041 45.6104L58.0293 45.4697L58.041 45.3174L58.3223 42.7861L58.3105 40.208L58.1465 37.665V37.6533L58.1348 37.6416L58.0176 34.9932L58.0059 34.8994L58.0176 34.8174L58.2051 32.2744L58.3574 32.2861ZM90.5703 75.7285H90.5352L87.8984 75.916H87.6992L85.1094 75.752L82.6943 75.8408L82.6494 78.2432L82.8721 80.8799L82.8838 80.9268V80.9619L82.9775 83.5986V83.7158L82.8721 86.3525L82.8486 88.9541V89.0361L82.6611 91.6025L82.79 94.1455V94.2275L82.7783 96.8643L82.8018 99.3721L83.0244 102.009L83.0361 102.149L83.0244 102.302L82.7432 104.786L82.7549 107.317L82.9307 109.954V109.989L83.0596 112.626V112.72L83.0479 112.813L82.9287 114.41L83 114.424L85.4609 114.271L85.4961 114.26H85.543L88.168 114.236L90.793 114.178L93.4414 114.107H93.4766L96.1133 114.096H96.2188L96.3125 114.107L98.7031 114.412L101.117 113.967L101.328 113.932L101.539 113.943L103.027 114.072L103.367 113.1L102.992 110.838L102.969 110.604L102.945 107.955V107.814L102.98 107.662L103.449 105.248L103.203 102.822L103.191 102.682L103.203 102.541L103.402 100.021L103.062 97.584L103.039 97.3848L103.062 97.1855L103.402 94.6191L103.414 92.2051L103.004 89.7207L102.98 89.6035V89.4863L102.945 86.8496L102.934 86.7441L102.957 86.627L103.273 84.1074L103.086 81.6582L103.074 81.5645L103.086 81.459L103.238 78.9629L103.145 76.6309L102.711 75.7285L101.059 75.8105H100.953L100.848 75.7988L98.3164 75.5527V75.5645L95.668 75.4941H93.0781L90.5703 75.7285ZM58.9902 87.2529L56.916 87.9678L54.8535 89.1748L53.0371 90.6045L51.5137 92.5498L50.2363 94.3545L49.8965 96.4756L50.166 98.9365L50.1777 99.0889L50.166 99.2529L49.873 101.737L50.0254 104.28L50.0371 104.362L50.0254 104.444L49.8965 106.976L50.1895 109.472L50.2246 109.706L50.1777 109.929L49.709 112.366L49.7422 114.108L51.1016 113.99L51.1836 113.979H51.2656L53.9023 114.025H53.8906L56.5273 114.037H56.5508L59.1523 114.084L61.7656 114.049L61.8828 114.037L62 114.061L64.1494 114.353L64.5312 114.397L66.9219 114.26L69.5586 113.99L69.7227 113.967L69.8184 113.98L69.9121 112.671L69.7715 110.14V110.128L69.584 107.526V107.433L69.5605 104.784V104.69L69.5723 104.597L69.8652 102.112L69.7129 99.5928V99.5459L69.6191 97.0615L69.127 94.8584L68.002 92.7959L66.6895 90.8037L65.0137 89.1865L63.0684 87.8857L61.041 87.1006L58.9902 87.2529ZM32.9961 75.626L33.0078 75.6377L30.3711 75.8135H30.2773L27.6406 75.8252H27.4648L24.9453 75.5439L22.4727 75.7549L22.4141 75.7666H22.3672L19.7188 75.79H19.6953L17.1172 75.7783L16.7217 75.8193L16.4404 77.3408L16.5576 79.8018L16.7334 82.4385V82.5322L16.7451 85.1689V85.3447L16.4639 87.8525L16.6748 90.3252L16.6865 90.3838V90.4424L16.71 93.0791V93.1143L16.6865 95.751L16.792 98.3174V98.4814L16.6045 101.118L16.6279 103.649V103.696L16.5459 106.333L16.6045 108.911L16.8154 111.454V111.478L16.8271 111.513L16.9209 114.138V114.208L16.9189 114.314L16.9531 114.318L19.4727 114.26L22.1094 114.107L22.1562 114.096H22.1914L24.8281 114.084H24.9102L24.9922 114.096L27.5 114.354L29.9844 114.131H30.1016L32.7383 114.096H32.7734L35.3516 114.107L36.7764 114.05L36.6182 112.356V109.544L36.6885 106.896V106.849L36.7002 106.802L36.9463 104.235L36.7939 101.751V101.599L36.8994 99.0791L36.8057 96.4424L36.7939 96.3604L36.8057 96.29L36.958 93.7588L36.7588 91.2158L36.7471 91.0635L36.7588 90.9111L37.0986 88.3564L37.0635 85.9424L36.6299 83.4346L36.6064 83.3057V83.165L36.6299 80.5283V80.4346L36.6416 80.3408L36.9697 77.9033L36.6582 75.5957L35.5039 75.5088L32.9961 75.626ZM45.6875 75.6816L43.0508 75.916L42.9219 75.9277L42.8047 75.916L40.1562 75.7168H40.1211L40.0742 75.7051L39.6885 75.6543L39.9697 77.7041L39.9932 77.9033L39.9697 78.1025L39.6182 80.6572L39.6064 83.0713L40.0283 85.5674L40.0518 85.6846V85.8018L40.0986 88.4385V88.5439L40.0869 88.6494L39.7588 91.0986L39.9463 93.6299L39.958 93.7236V93.8291L39.7939 96.4658L39.8994 98.9619V99.0791L39.7939 101.599L39.9463 104.212V104.329L39.9346 104.446L39.6885 107.083L39.6182 109.626V112.216L39.7959 114.124L40.7773 114.189H40.7656L43.332 114.213H43.3789L45.9414 114.306H45.9619L46.752 114.277L46.709 112.319L46.6973 112.167L46.7324 112.003L47.1895 109.612L46.9082 107.187L46.8965 107.058V106.929L47.0371 104.362L46.873 101.819L46.8613 101.69L46.8848 101.562L47.166 99.0654L46.9082 96.6045L46.8848 96.4053L46.9082 96.2178L47.3301 93.5693L47.377 93.2295L47.5762 92.9482L49.0996 90.7568L49.123 90.7217L49.1582 90.6865L50.7754 88.6357L50.8809 88.4951L51.0215 88.3896L53.0723 86.7725L53.1543 86.7021L53.248 86.6553L55.5098 85.3311L55.627 85.2607L55.7676 85.2139L58.2051 84.3584L58.3926 84.2998L58.5918 84.2881L61.1699 84.0889L61.5098 84.0654L61.8262 84.1826L64.2871 85.1436L64.4395 85.2021L64.5801 85.2959L66.7832 86.7607L66.8887 86.8311L66.9941 86.9248L68.8926 88.7529L69.0098 88.8701L69.1035 89.0107L70.5449 91.1904L70.6152 91.3076L71.8574 93.6045L71.9629 93.7803L72.0098 93.9912L72.5723 96.5459L72.6074 96.6748V96.8154L72.7012 99.4053L72.8652 102.042L72.877 102.183L72.8652 102.312L72.5605 104.843L72.584 107.409L72.7715 109.94V109.976L72.9238 112.612V112.706L72.9121 112.8L72.8115 114.247L74.9141 114.119H75.0781L77.5391 114.248L79.9531 113.972L80.0479 112.649L79.9307 110.153L79.7549 107.517V107.423L79.7432 104.786V104.61L80.0127 102.091L79.8135 99.6299L79.8018 99.5713V99.5127L79.7783 96.876V96.8525L79.79 94.2861L79.6729 91.6494L79.6611 91.5557L79.6729 91.4736L79.8486 88.8369L79.8721 86.2822V86.2354L79.9775 83.7158L79.8838 81.1494L79.6611 78.5127L79.6494 78.4307V78.3486L79.6963 75.7119L79.6973 75.4688L77.3281 75.623L77.3164 75.6113L74.7266 75.8457L74.5977 75.8574L74.4688 75.8457L71.9727 75.6465L69.3594 75.7051L69.3711 75.7168L66.7344 75.8223H66.6289L66.5352 75.8105L64.0273 75.5762L61.5898 75.9043L61.4492 75.9277L61.3203 75.916L58.6719 75.7871L56.2109 75.9512L56.1172 75.9629L56.0234 75.9512L53.4336 75.7988L50.8906 75.8926L50.7383 75.9043L50.5742 75.8809L48.1133 75.4473L45.6875 75.6816ZM98.1797 97.7119L98.168 97.7236L97.9922 100.196L98.1211 102.739H98.1094L98.2969 105.341L98.3438 106.091L97.7812 106.571L96.5508 107.649L94.0664 109.817V106.396H95.4609L94.582 105.388L95.25 104.802L95.1211 102.903V102.868L94.9922 100.231V100.149L95.0039 100.056L95.1797 97.5127L95.1914 97.4775V97.4307L95.2031 97.3369L98.1797 97.7119ZM32.165 97.4023L32.0479 99.8633L32.1768 102.441H32.165L32.3291 105.066V105.137L32.3525 106.508L32.3877 108.02L30.876 108.031L30.7588 108.043L30.7354 106.543L30.7236 106.531L29.3525 106.566L29.3408 105.254L29.1768 102.605V102.582L29.0479 99.9453V99.8047L29.165 97.2734V97.25L32.165 97.2266V97.4023ZM88.3125 97.5244H90.5977V97.7236L90.5859 97.8291L90.2578 100.22L90.3633 102.739L90.6328 105.271L90.6445 105.388L90.6328 105.493L90.5977 106.454L89.0977 106.396L87.5977 106.325L87.6328 105.493L87.375 102.962L87.3633 102.903V102.856L87.2578 100.208V100.079L87.2695 99.9502L87.6094 97.4307L88.3125 97.5244ZM24.5703 97.4023L24.4648 99.8164L24.5703 102.453H24.5586L24.7578 105.043V105.207L24.7109 106.449L21.7109 106.332L21.7578 105.195L21.5703 102.629V102.57L21.4648 99.9336V99.8164L21.5703 97.2734V97.2617L24.5703 97.2148V97.4023ZM21.793 82.7891H24.6406V83L24.4414 85.4609L24.5703 87.9336L24.7461 89.9492L24.8867 91.5898H23.1406V90.0898L21.7578 90.2188L21.582 88.2031V88.168L21.5703 88.1445L21.4531 85.4961L21.4414 85.4023L21.4531 85.3203L21.6406 82.7773L21.793 82.7891ZM29.9688 82.9316H32.3008V83.1191L32.2891 83.2129L32.043 85.334L32.1719 87.5488L32.3828 88.6504L32.7109 90.3379L31 90.4316L30.8945 90.4434L30.8008 88.9434L29.4414 89.2246L29.207 88.0293L29.1836 87.8418L29.0312 85.4277L29.0195 85.2871L29.043 85.1582L29.3125 82.8496L29.9688 82.9316ZM90.458 81.998L90.2588 84.459L90.376 86.873L90.6221 88.7363L90.833 90.3184L89.2393 90.4355H89.1338L89.0283 88.9473L87.6455 89.1348L87.3994 87.2715L87.3877 87.2012V87.1426L87.2705 84.4941L87.2588 84.4004L87.2705 84.3066L87.458 81.7754L87.7393 81.7871H88.958L90.458 81.7754V81.998ZM95.8545 81.7871H98.1865V81.9746L98.1748 82.0684L97.8701 84.5293L97.9873 87.002L98.2686 89.5332L98.292 89.7676L98.2451 90.002L98.1631 90.3887L96.6865 90.084L95.5029 89.8262L95.2803 89.8613V89.7793H95.2217L95.2568 89.6152L94.999 87.2246L94.9873 87.1777V87.1309L94.8818 84.4824L94.8701 84.3535L94.8936 84.2363L95.1982 81.7051L95.8545 81.7871ZM72.2432 65.1885L72.0674 65.2236L71.8799 65.2119L69.3486 65.0713L66.8643 65.376L66.6299 65.3994L66.4072 65.3525L63.958 64.8955L61.5088 65.0713H61.4268L58.7783 65.1064L58.7666 65.0947L56.165 65.1533L53.5166 65.2236H53.4814L50.833 65.2119H50.7275L50.6338 65.1885L48.2314 64.8369L45.8408 65.2939L45.6299 65.3291L45.4189 65.3174L42.7705 65.0479V65.0361L40.7549 64.9541L40.0869 65.458V67.4854L40.0635 67.626L39.583 70.0752L39.8291 72.4658L39.8408 72.6064L39.8369 72.6455L40.4727 72.7285L40.4609 72.7402L42.8867 72.9277L45.418 72.6934L48.0547 72.4473L48.2539 72.4355L48.4531 72.4707L50.9727 72.9043L53.4219 72.7988H53.5625L54.3906 72.8516L55.0293 71.3623L55.1465 71.0693L55.3809 70.8584L57.209 69.1357L57.5371 68.8193L57.9941 68.7373L60.5488 68.3271L61.1113 68.2334L61.5918 68.5498L63.8535 69.9795L64.3926 70.3311L64.5215 70.9639L64.8398 72.6387L66.7578 72.8223L69.2539 72.7285L69.2656 72.7168L71.9141 72.6465L71.9961 72.6348L72.0781 72.6465L74.5742 72.8574L77.1055 72.623H77.1406L79.7207 72.4619L79.7666 70.4854L79.708 67.8486V67.7314L79.7314 67.6143L79.9775 65.7393L79.2979 65.1182L77.3408 65.3408L77.083 65.3643L76.8252 65.3057L74.54 64.7432L72.2432 65.1885ZM58.9316 71.6201L57.666 72.8154L57.6484 72.8555L58.6602 72.7871L58.7422 72.7754L58.8359 72.7871L61.332 72.916L61.8223 72.8516L61.6855 72.1592L60.4668 71.374L58.9316 71.6201ZM58.8145 50.7168L56.4824 51.0918L54.3496 51.959L52.3926 53.4121L52.3691 53.4238L52.3457 53.4473L50.2949 54.8184L48.8066 56.5059L47.7051 58.5684L46.9434 60.8535L46.6885 62.0928L47.9385 61.8604L48.1729 61.8135L48.4189 61.8486L50.9736 62.2236H53.4463L56.0947 62.1533L58.7314 62.1064H58.7432L61.2979 62.083L63.9463 61.8955L64.1338 61.8838L64.3213 61.9189L66.7119 62.3643L69.1494 62.083L69.2783 62.0713H69.4072L71.8564 62.2119L73.2041 61.9521L73.1113 61.0645L72.373 58.7793L71.2832 56.7285L69.6543 55.0879L67.7324 53.5879L65.6816 52.2168L63.4199 51.2676L61.1699 50.6348L58.8145 50.7168ZM61.3105 40.1025V40.1963L61.3135 41.042L62.9512 41.3027L65.0605 41.4668L65.916 41.0332L65.9512 39.627L65.5645 38.6426H63.8652L63.7832 38.6309L61.1934 38.3525L61.3105 40.1025Z" fill="black"/>
</svg>
