<svg width="120" height="120" viewBox="0 0 120 120" fill="none" xmlns="http://www.w3.org/2000/svg">
<path d="M57.7598 10.5117L60.3848 10.7109L60.6191 10.7344L60.8418 10.8164L63.2676 11.8242L63.4551 11.918L65.6816 13.2422L65.9863 13.4297L66.1738 13.7227L67.5684 15.8906L67.7324 16.1367L67.7793 16.4297L68.2598 18.9844L68.2715 19.0664L68.2832 19.1367L68.4941 21.7383L68.916 23.6953L70.3457 25.0898L72.502 26.3203L72.8184 26.4961L73.0176 26.8008L74.4707 29.0508L74.752 29.4844L74.7168 29.9883L74.541 32.0156L76.3574 32.8945L76.627 33.0352L76.8262 33.2578L78.5371 35.2148L78.7363 35.4375L78.8301 35.707L79.6973 38.1797L79.7793 38.4141V38.6602L79.791 41.3086V41.4727L79.5215 44.0977L79.5098 44.2266L79.4746 44.3438L78.8301 46.6758L78.9824 49.1133L78.9941 49.3477L78.9355 49.5938L78.2324 52.1602L77.7637 54.4688L77.9395 57L77.9658 57.418L78.957 59.0391L79.0625 59.2148L79.1211 59.4141L79.8125 61.9336L79.8359 62.0039L80.4102 64.582L80.4453 64.7344L80.457 64.875L80.5273 67.5352V67.7812L80.457 68.0156L79.6836 70.5469L79.6719 70.5703L79.6602 70.6055L78.7695 73.0781L78.6875 73.3125L78.5352 73.5L78.4688 73.583L79.8555 74.6533L82.0469 75.6611L84.4844 76.6807L84.5664 76.7158L84.6367 76.751L87.0625 78.0986L87.1562 78.1689L89.1367 79.7275L91.3516 80.9814L91.4336 81.0283L91.5156 81.0869L93.6367 82.6455L93.6836 82.6807L93.7188 82.7158L95.7344 84.4385L95.7461 84.4502L97.7383 86.1963L97.8438 86.29L97.9258 86.3955L99.5664 88.4814L99.5781 88.4932H99.5898L101.184 90.6025L101.254 90.6846L101.301 90.7783L102.59 93.0752L102.613 93.1221L103.82 95.4658L103.832 95.4893L104.992 97.8682L105.039 97.9619L105.074 98.0557L105.906 100.528L106.797 103.001L106.82 103.048L107.641 105.567V105.579L108.438 108.11L108.484 108.263L108.496 108.427L108.695 110.935L109.223 113.372L109.579 114.625L110.809 114.5L110.891 114.488H110.973L112.016 114.5L112.004 116L111.98 117.5L110.984 117.488L108.477 117.746L108.254 117.77L108.031 117.734L105.57 117.242L103.145 117.254L100.648 117.688L100.496 117.711L100.332 117.699L97.6953 117.594H97.625L97.5547 117.582L95.1523 117.242L92.7617 117.711L92.5273 117.758L92.293 117.734L89.7383 117.406L87.207 117.418L87.1953 117.406L84.6055 117.488H84.5938L81.957 117.547H81.9336L79.3672 117.559L79.3789 117.57L76.7422 117.746L76.5547 117.758L73.9297 117.266L71.5391 117.547L71.4102 117.559H71.2812L68.7266 117.418L66.1719 117.582H66.043L65.9141 117.57L63.418 117.289L60.957 117.559H60.8867L58.25 117.711L58.0977 117.723L57.957 117.699L55.4141 117.348L52.9062 117.406H52.8477L50.2109 117.348V117.336H47.5742L44.9492 117.289L42.4531 117.512L42.418 117.523H42.3711L39.7344 117.617H39.6172L36.9805 117.512V117.5L34.3906 117.488H34.3438L34.2969 117.477L31.7188 117.301L29.1875 117.43H29.1055L26.4688 117.418V117.406L23.9609 117.43L21.3242 117.664L21.1836 117.676L21.0312 117.664L18.5 117.383L15.9219 117.395V117.383L14.8574 117.456L14.7539 117.997H13.5V117.55L13.3789 117.559H13.3672L13.3555 117.57L10.707 117.688L10.6133 117.699L10.5312 117.688L7.98828 117.5L8 117.277V114.5H8.21094L10.6719 114.699L12.3516 114.62L12.8203 112.313L12.8789 112.067L13.0078 111.845L14.332 109.606L14.4258 109.454L14.543 109.337L16.3594 107.438L16.4062 107.403L16.4531 107.356L18.4453 105.599L18.5742 105.493L18.7266 105.411L20.7422 104.31L22.0664 102.435L22.125 102.353L22.1953 102.282L23.918 100.407L24.0469 100.278L24.1992 100.173L26.2178 98.8301L24.0156 97.3975L23.9102 97.3271L23.8281 97.2568L21.8477 95.4873L21.8242 95.4639L21.8008 95.4287L19.9258 93.5771L19.7266 93.3896L19.6211 93.1318L18.543 90.7529L18.4961 90.6475L18.4609 90.5303L17.7812 87.999L17.6406 87.5186L17.8281 87.0498L18.6836 84.8936L18.7539 84.7295L18.8477 84.5889L20.125 82.749L20.6406 80.5107L21.0859 77.9795L21.1328 77.7217L21.25 77.499L22.5625 75.167L22.8555 74.6396L23.4414 74.4639L25.9609 73.7139L26.043 73.6904L26.125 73.6787L28.7031 73.1982H28.7383L28.7734 73.1865L31.3984 72.835L31.4639 72.8271L31.5488 72.1748L31.6191 71.6357L32.041 71.2607L34.0098 69.4795L34.1035 69.3975L34.2207 69.3271L36.4355 67.9443L36.5176 67.8975L36.6113 67.8506L39.0137 66.7607L39.1426 66.7139L39.2715 66.6787L39.6328 66.5889L39.6387 66.5322L39.6855 66.1572L39.8848 65.8525L41.2559 63.7783L41.4199 63.5205L41.6777 63.3447L43.8457 61.9033L43.9512 61.833L44.0684 61.7861L44.9678 61.3867L44.9971 61.083L45.2666 58.4346L45.3135 58.0244L45.5596 57.6846L47.0127 55.7158L47.915 53.4189L48.6885 51.0518L49.2979 48.5205L49.8018 46.1064L49.9893 43.5283V43.4932L50.001 43.4697L50.2939 40.833L50.3057 40.7158L50.3291 40.6104L51.0322 38.0557L51.0791 37.9033L51.1494 37.7627L52.3564 35.4424L52.5908 34.9854L53.0361 34.7744L55.333 33.6846L55.3916 33.6494L55.4619 33.626L57.0439 33.04L57.1025 32.2549L56.0596 31.4346L53.8682 31.376L53.2471 31.3525L52.8135 30.8955L51.0205 28.9736L50.7979 28.7393L50.6924 28.4346L49.8838 26.0791L49.8018 25.8564V25.6104L49.7549 22.9736V22.9619L49.7314 20.4072L49.5137 18.7568L48.7012 18.3047L48.877 17.2617L49.2637 15.0586L49.3457 14.5664L49.6973 14.2266L51.584 12.4219L51.7598 12.2578L51.9824 12.1523L54.3848 11.0273L54.584 10.9219L54.8066 10.8984L57.5957 10.5L57.7598 10.5117ZM74.2461 76.9805L74.1406 77.0391L74.0234 77.0742L71.4922 77.9062L71.3516 77.9531L71.1992 77.9648L69.5176 78.167L71.5605 79.2285L73.916 80.1426L73.9746 80.166L74.0332 80.2012L76.4238 81.3613L76.7051 81.502L76.7979 81.6152L77.5264 81.1689L77.8311 80.9814L78.1709 80.9463L80.6787 80.7119L81.2295 80.6533L81.6865 80.9814L83.7959 82.4814L83.9131 82.5635L84.0303 82.6807L85.8232 84.626L85.917 84.7314L85.9873 84.8604L87.3467 87.0635L88.8936 89.1025L90.4873 91.2119L90.5459 91.2939L90.5928 91.376L91.7881 93.4854L93.2529 94.8916L93.3467 94.9736L93.4287 95.0791L93.4873 95.1611L92.2803 96.0518L91.8115 96.3916L91.1904 97.0596L90.7129 96.6094L90.1152 96.75L89.7871 96.8203L89.459 96.75L86.9512 96.2109L86.8574 96.1875L84.3145 95.4727L84.2793 95.4609L84.2324 95.4492L81.7246 94.582L81.502 94.5117L81.3145 94.3711L79.2754 92.8594L77.0254 91.8398L76.9902 91.8281L76.9668 91.8164L74.7051 90.668L72.3027 89.9297L72.2441 89.918L72.1973 89.8945L69.8535 88.9805L67.416 88.6172L67.2754 88.5938L67.1348 88.5469L64.8027 87.7148L62.2715 87.2812V87.2695L59.6934 86.8828L59.5762 86.8594L57.1621 86.2734L54.6309 86.1562H54.6191L51.9707 86.0156L51.8184 86.0039L51.6543 85.957L49.2168 85.2891L46.6855 84.9961L46.5801 84.9727L46.4863 84.9492L43.9316 84.2812L43.9082 84.2695H43.873L41.3887 83.5078L41.0254 83.4023L40.7559 83.1211L39.8037 82.1572L37.2559 81.9482L37.0332 81.9248L36.834 81.8428L34.4316 80.8936L34.0684 80.7529L33.8223 80.4482L32.2051 78.4561L32.0059 78.21L31.9238 77.9053L31.373 75.8633L29.1953 76.1514L26.7812 76.6084L24.8711 77.1709L23.9922 78.7412L23.582 81.1084V81.1436L23.5703 81.1787L22.9961 83.71L22.9258 83.9912L22.7617 84.2373L21.3906 86.1826L20.793 87.6709L21.332 89.6396L22.2344 91.6318L23.8633 93.249L25.75 94.9482L27.8477 96.3076L29.9453 97.4443L32.2305 98.0303L34.7148 98.2412L34.9141 98.2529L35.1016 98.3232L37.5039 99.1904L40.0469 99.9287H40.0352L42.5664 100.62L42.6367 100.644L45.1562 101.476L45.2617 101.511L45.3555 101.558L47.6406 102.706L47.2891 103.386L47.0547 104.077L46.5625 105.495L46.375 105.425L46.293 105.39L44.0781 104.276L41.7695 103.515L39.2266 102.823L39.2148 102.812H39.2031L36.6719 102.073L36.625 102.062L36.5898 102.05L34.2578 101.206L31.8203 101.007L31.6914 100.995L31.5742 100.96L29.6133 100.449L27.9844 101.251L26.0039 102.552L24.4805 104.204L23.0039 106.337L22.8047 106.63L22.4883 106.794L20.3086 107.954L18.5156 109.513L16.8398 111.271L15.7031 113.169L15.4541 114.418L15.8164 114.395H15.9102L18.5469 114.383L18.6406 114.371L18.7227 114.383L21.2305 114.664L23.7148 114.453L23.7617 114.441H23.8203L26.4688 114.418H26.4922L29.0469 114.43L31.6953 114.312L31.7773 114.301L31.8594 114.312L34.5078 114.488L34.4961 114.5L37.0508 114.512H37.0977L39.6875 114.617L42.1836 114.535L44.832 114.289H44.9844L47.6211 114.336L47.6094 114.348H50.2695L52.8711 114.406L55.4844 114.348H55.6133L55.7305 114.359L58.2148 114.723L60.7109 114.559V114.57L63.2891 114.289L63.4414 114.277L63.6055 114.289L66.0898 114.582L68.6328 114.43L68.7148 114.418L68.7969 114.43L71.3281 114.559L73.8242 114.266L74.0586 114.23L74.2812 114.277L76.7305 114.734L79.1797 114.582L79.2266 114.57H79.2617L81.8867 114.559V114.547L84.5234 114.488L87.1602 114.418H87.1953L89.832 114.406H89.9375L90.0312 114.418L92.4219 114.734L94.8359 114.266L95.082 114.219L95.3164 114.254L97.8945 114.605L100.273 114.711L102.793 114.277L102.91 114.266H103.027L105.664 114.242H105.816L105.969 114.266L106.384 114.347L106.34 114.192L106.316 114.099L105.754 111.532L105.742 111.427L105.73 111.333L105.52 108.86L104.781 106.493L103.961 103.974V103.962L103.082 101.548V101.524L103.07 101.513L102.238 99.0635L101.148 96.8369L99.9648 94.54L98.7227 92.3252L97.1992 90.3213V90.3096L95.6523 88.3643L93.7656 86.7119V86.7002L91.7734 85.001V84.9893L89.7695 83.5244L87.5781 82.2939L87.4727 82.2354L87.3906 82.165L85.4336 80.6182L83.2305 79.3994L80.8867 78.4385L80.8398 78.415L78.4258 77.3018L78.2734 77.2314L78.1445 77.126L76.4639 75.832L74.2461 76.9805ZM76.0645 60.1875L75.8535 60.4805L75.5371 60.6445L73.1582 61.8633L73.1465 61.8516L70.9082 63.1172L70.6621 63.2578L70.3809 63.293L67.9082 63.6211L65.3418 64.2422L65.1426 64.2891H64.9434L62.3535 64.207L60.1152 64.5234L57.7598 65.4609L57.7012 65.4844L57.6309 65.5078L55.1113 66.2344L55.0527 66.2578L52.5918 66.75L50.4238 67.875L50.377 67.8984L50.3184 67.9102L48.0566 68.8711L46.0527 70.2773L44.0605 71.8008L42.4902 73.5703L41.3066 75.4102L41.0371 77.5195L41.3535 79.4531L42.6074 80.7422L44.6816 81.375H44.6934L47.0957 82.0078L49.6621 82.3125L49.7676 82.3242L49.8848 82.3594L52.3105 83.0156L54.7598 83.1562L57.4199 83.2852H57.5605L57.6895 83.3203L60.1973 83.918L62.7637 84.3164H62.7871L65.4004 84.7852L65.5176 84.7969L65.6348 84.8438L67.9785 85.6641L70.498 86.0508L70.6621 86.0742L70.8145 86.1328L73.1699 87.0586L75.7129 87.8438L75.8418 87.8789L75.9473 87.9375L78.3145 89.1328H78.3027L80.6699 90.1875L80.8223 90.2578L80.9512 90.3633L82.9199 91.8164L85.1348 92.5781L87.6777 93.293H87.666L88.2969 93.4268L88.0029 92.9111L86.5029 90.9072L84.9092 88.8096L84.8623 88.751L84.8271 88.6924L83.5029 86.5596L81.8975 84.8135L80.3975 83.7471L78.792 83.8994L78.0674 84.3516L77.7246 84.9121L76.9395 86.1895L76.6348 86.002L76.4238 85.873L76.2715 85.6855L74.8066 83.9043L72.8379 82.9434L70.3652 81.9824L70.2949 81.959L70.2129 81.9238L67.8574 80.6934L67.6465 80.5879L67.4824 80.4121L65.6777 78.584L65.877 78.3838L65.8203 78.3867L65.6445 78.3984L65.4688 78.3633L62.8906 77.8359L60.3242 77.3203L57.7578 76.9453L57.7344 76.9336H57.6992L55.1211 76.4414V76.4297L52.6367 76.1953V76.1836L50.1055 76.1016L49.8125 76.0898L49.543 75.9727L49.3438 75.8789L49.9648 74.5195L50.1758 74.0273L50.2227 73.1016L52.8477 73.207H52.9414L55.5547 73.4766H55.625L55.6836 73.4883L58.2031 73.9688L60.8281 74.3672L60.8633 74.3789H60.8984L63.4766 74.8945L65.8555 75.375L68.2227 75.293L70.7188 75L72.9102 74.2734L74.9023 73.2656L76.0273 71.8359L76.8359 69.5977L77.5156 67.3477L77.457 65.1094L76.918 62.7305L76.2734 60.4102L76.1035 60.1318L76.0645 60.1875ZM40.1387 69.5381L37.9238 70.5342L35.8965 71.7998L34.4434 73.1123L34.2207 74.8818L34.7363 76.8037L35.9082 78.2451L37.7129 78.96L38.25 79.0078L38.0488 77.7773L38.0137 77.5664L38.0371 77.3438L38.3887 74.6836L38.4238 74.3438L38.6113 74.0625L40.041 71.8477L40.0996 71.7422L40.1816 71.6602L41.9395 69.6914L42.0332 69.5859L42.1387 69.5039L42.3789 69.3193L41.9902 69.0928L40.1387 69.5381ZM52.7549 22.915L52.79 25.3174L53.4111 27.1455L54.583 28.3877L56.6338 28.458L57.126 28.4814L57.5127 28.7744L59.5869 30.4033L60.2197 30.8955L60.1611 31.6924L59.9619 34.2354L59.8916 35.1963L58.9893 35.5361L56.4932 36.4502L54.7822 37.2588L53.8799 38.9932L53.2588 41.2549L52.9775 43.7275L52.8018 46.3877L52.79 46.4932L52.7666 46.5869L52.2275 49.1768L52.2158 49.2002V49.2119L51.6064 51.79L51.5947 51.8486L51.5713 51.9072L50.7393 54.4268L50.7275 54.4736L50.7158 54.5088L49.7549 56.9814L49.6846 57.1689L49.5557 57.333L48.208 59.1377L48.1289 59.9277L48.7793 59.6182L51.1348 58.4346L51.2051 58.3994L51.2754 58.376L53.1084 57.6807L53.2422 55.8535L53.2539 55.7129L53.2891 55.584L53.957 53.0293L53.9922 52.9004L54.0508 52.7715L55.1992 50.3691L55.2578 50.2402L55.3516 50.1113L56.4775 48.6143L56.3936 48.5273L55.9717 48.0938V47.4961L55.96 44.8828V44.6016L56.0654 44.3438L57.0146 41.8711L57.8584 39.6445L59.0889 40.125V38.6836H61.4443L60.6592 40.7227L59.8154 42.9492L58.96 45.1641V46.875L60.0732 48.0352L62.1357 48.9609L62.7803 49.2422L62.9678 49.9219L62.9912 50.0273L61.5498 50.4258L61.4678 50.4375L61.1514 51.1406L61.3232 53.6631V53.7803L61.2998 55.4678L61.4707 55.4111L61.5293 55.3877L61.5996 55.376L64.0605 54.8018L65.8184 54.2041L66.3926 52.5049L66.9316 50.1729V47.6416L66.9434 47.5244L67.3652 44.9229L67.5996 42.3916L67.6113 42.2627L67.6465 42.1455L68.3027 39.6729L69.0293 39.8721L69.7676 39.9658L71.2559 40.165L71.2441 40.2705L71.2324 40.3643L71.209 40.4463L70.5762 42.7783L70.3418 45.2979L70.3301 45.3564V45.4033L69.9316 47.8525V50.5596L69.8848 50.7236L69.2754 53.3135L69.2637 53.3838L69.2402 53.4424L68.4434 55.8564L68.209 56.5713L67.5059 56.8057L64.998 57.6611L64.9277 57.6846L64.8574 57.6963L62.3848 58.2588L59.9121 59.1025L59.8301 59.126L59.748 59.1377L57.1582 59.7002L57.1465 59.6885L54.709 60.2744L52.4355 61.1299L50.127 62.3018H50.1152L50.1035 62.3135L47.7129 63.4502L47.7012 63.4619L47.6777 63.4736L45.416 64.458L43.5762 65.6885L43.1689 66.3047L44.9873 67.3691L46.4395 66.3516L46.5684 66.2578L46.7207 66.1875L49.1465 65.1562L51.4082 63.9961L51.584 63.9023L51.7949 63.8555L54.3613 63.3281L56.7402 62.6367L59.1426 61.6875L59.3184 61.6172L59.4941 61.5938L62.1074 61.2188L62.2363 61.1953L62.377 61.207L64.8027 61.2773L67.2168 60.7031L67.2988 60.6797L67.3691 60.668L69.7012 60.3633L71.7402 59.2266L71.7637 59.2148L71.7754 59.2031L73.8496 58.125L74.9043 56.6602L74.7637 54.4688L74.752 54.2695L74.7871 54.0703L75.3262 51.4688V51.4219L75.3379 51.375L75.959 49.0664L75.8301 46.6055L75.8184 46.3594L75.877 46.125L76.5332 43.6875L76.791 41.3203L76.7793 38.9062L76.0996 36.9844L74.752 35.4609L72.7949 34.5L70.4863 33.5391L68.0957 33.1641L67.7559 33.1055L67.4863 32.918L65.3066 31.4414L65.1426 31.3359L65.0137 31.1836L63.3027 29.1797L63.2207 29.0742L63.1621 28.9688L62.1309 27.2109L60.1387 26.7656L60.0332 26.7422L59.9395 26.707L57.4434 25.7461L57.0449 25.5938L56.7871 25.2539L55.1699 23.1445L55.1582 23.1328L53.7285 21.2227L52.7344 20.625L52.7549 22.915ZM57.8477 51.7637L56.8164 53.9316L56.2188 56.2051L56.1748 56.8477L56.502 56.7705H56.5137L56.5371 56.7588L58.2471 56.3926L58.2998 56.2061L58.3232 53.8623L58.1826 51.46L58.1514 51.3623L57.8477 51.7637ZM55.4512 13.8281L53.459 14.7656L52.123 16.0547L52.0176 16.7227L53.2246 17.4141L53.2715 17.4375L55.5449 18.832L55.791 18.9844L55.9668 19.207L57.5488 21.3164L58.9082 23.0977L60.8652 23.8477L63.4316 24.4453L64.0645 24.5859L64.3926 25.1484L65.6699 27.3398L67.1699 29.0859L68.8809 30.2461L71.166 30.6094L71.3418 30.6445L71.5059 30.7148L71.6348 30.7617L71.6699 30.2461L70.6855 28.7227L68.7168 27.6094L68.5527 27.5156L68.4238 27.3867L66.502 25.5352L66.1621 25.2188L66.0684 24.7617L65.541 22.1953L65.5176 22.1016V22.0078L65.2949 19.3945H65.2832L64.8848 17.2734L63.8301 15.6328L62.0371 14.5664L59.8926 13.6758L57.6895 13.5117L55.4512 13.8281Z" fill="black"/>
</svg>
