<svg width="120" height="120" viewBox="0 0 120 120" fill="none" xmlns="http://www.w3.org/2000/svg">
<path d="M44.666 30.4053L44.8887 30.6514L44.9824 30.9795L45.5918 33.0186L47.1855 34.3662L49.377 35.5732L49.5996 35.7021L49.7637 35.8779L51.5449 37.835L51.5918 37.8936L51.6504 37.9639L53.1152 39.9795L54.9551 41.6787L55.002 41.7139L55.0371 41.749L56.8535 43.6709L56.8652 43.6943L58.5879 45.5811L60.4863 47.4326L60.5449 47.4912L60.5918 47.5615L62.209 49.5537L63.9785 51.5107L64.002 51.5225L64.0137 51.5459L65.6426 53.4795L67.4473 55.3311L69.085 56.6934L69.8701 55.2061L69.9287 55.0889L70.0107 54.9834L71.6279 52.8975L71.8389 52.6279L72.1436 52.4756L74.5107 51.3037L76.8545 50.1318L77.0068 50.0498L77.1826 50.0029L79.7725 49.3818L80.0303 49.3232L80.2998 49.3584L82.9482 49.6748L82.9365 49.6865L85.5264 49.9209L85.6318 49.9326L85.749 49.9561L88.292 50.5889L88.4561 50.6357L90.9053 51.5615L91.0342 51.6084L91.1514 51.667L93.4365 53.0381L93.4951 53.085L95.6162 54.6318L95.7686 54.749L95.8975 54.8896L97.5732 56.9521L97.6904 57.0928L97.7725 57.2686L98.8857 59.6709V59.6826L98.8975 59.7061L99.9521 62.1201L99.999 62.2373L100.843 64.7217L101.897 67.0068L101.921 67.0537L101.933 67.1006L102.858 69.5615L103.772 71.9287L104.886 74.3428L105.12 74.8701L104.944 75.4209L104.218 77.7061L104.065 78.2217L103.608 78.5029L101.534 79.8389L99.4951 81.5146L99.4834 81.5264L98.4727 82.3564L99.2109 82.8643L101.426 83.8252L101.508 83.8604L101.578 83.8955L103.875 85.2197L103.98 85.2783L104.074 85.3604L106.125 87.0596L106.242 87.1533L106.336 87.2705L107.965 89.2979L109.781 91.0088L109.898 91.126L111.598 93.1416H111.609L111.621 93.1533L113.262 95.1455L115.02 97.1377L115.113 97.2432L115.184 97.3486L116.555 99.6221L116.578 99.6689L116.602 99.7275L116.672 99.8564L115.336 100.536L114 101.204L113.988 101.181L112.652 98.9775L111.023 97.1377L110.988 97.1025L109.301 95.0635V95.0518L107.625 93.0947L105.797 91.3721L105.727 91.3018L105.656 91.2197L104.098 89.2861L102.281 87.7627L100.184 86.5557L97.8281 85.5244L97.6992 85.4658L97.5703 85.3838L95.7607 84.1367L94.96 84.5732L94.5615 83.8584L94.1631 83.3193L93.2607 82.1123L93.4248 81.9951L93.5303 81.9365L95.6396 80.7881L97.585 79.2061L99.624 77.5186L99.6943 77.46L99.7646 77.4131L101.522 76.2646L101.909 75.0576L101.042 73.1826L101.019 73.1475L101.007 73.1006L100.058 70.6396V70.6279L99.1201 68.1553V68.1436L98.0654 65.8467L98.0186 65.7061L97.1982 63.3271L96.1436 60.9014V60.8896L95.124 58.71L93.6826 56.9404L91.8428 55.5811L89.7451 54.3154L87.542 53.4951L85.1045 52.8857L82.6318 52.6631H82.6084L82.585 52.6514L80.1943 52.3584L78.0381 52.874L75.8467 53.9873V53.999L73.7725 55.0186L72.4482 56.7178L71.4287 58.6631L71.3232 60.0928L73.5381 60.1396L76.1396 60.0107H76.1982L78.8467 59.9756L81.4248 59.8467L81.6357 59.835L81.8467 59.8818L84.4131 60.4912L84.5303 60.5264L84.6475 60.5732L87.0732 61.6045L87.3076 61.71L87.5068 61.8975L89.0068 63.292L90.9287 63.3389L91.292 63.3506L91.6201 63.5264L93.8467 64.7686L94.1982 64.9561L94.4092 65.3076L95.6396 67.3467L95.9092 67.8037L95.8389 68.3311L95.4639 70.9209L95.3818 71.4717L94.9717 71.835L92.9092 73.6279L92.5576 73.9326L92.1006 73.9912L90.3545 74.1787L89.8506 75.8076L89.792 75.9951L89.6865 76.1592L88.2568 78.4092L88.2334 78.4561L86.7217 80.6592L86.499 80.9756L83.7568 82.3467L83.6982 82.3818L83.6396 82.4053L81.2607 83.3428L81.167 83.3779L81.0615 83.4014L78.4834 84.0342L78.1318 84.1279L77.7686 84.0342L77.0811 83.8701L76.5498 85.2285L75.9756 87.7129L75.9287 87.8535L75.085 90.3145L74.5107 91.9902L72.9521 91.1465L72.8584 91.0879L73.5732 89.7871L72.249 89.3418L73.0928 86.8809L73.6553 84.4551L73.6787 84.3496L73.7256 84.2559L74.2607 82.8613L72.5654 81.4912L70.4443 79.8506L70.1162 79.5928L69.9756 79.2061L69.0029 76.71L68.9912 76.6748L68.9795 76.6279L68.1709 74.1436L68.1357 74.0264L68.124 73.9092L67.7139 71.3193L67.6904 71.2021V71.0732L67.7021 68.46L67.6826 66.5176L67.5244 66.6309L66.7627 68.7051V68.7285L66.751 68.7402L65.7783 71.1895L65.7549 71.248L65.7314 71.2949L64.5596 73.6855L64.501 73.8027L64.4189 73.9082L63.3057 75.4082L63.6689 76.6387L65.4033 77.7988L65.4502 77.834L65.4854 77.8691L67.583 79.498L68.2041 79.9785L68.1572 80.7754L67.9814 83.377L67.9463 83.9043L67.5947 84.291L65.79 86.2598L65.7666 86.2715L65.7549 86.2832L63.9971 88.0879L62.6025 90.0215L61.6768 92.2363L60.9971 94.6855L60.9854 94.7207L60.9619 94.7559L60.1182 97.1816L60.1299 97.1934L59.3564 99.7246V99.7363L58.5596 102.256L58.501 102.443L58.3838 102.619L56.9424 104.857L56.5322 105.502L55.7588 105.537L53.2275 105.666L50.6494 106.1L50.6377 106.088L48.1299 106.65L47.9893 106.686H47.8369L45.3408 106.721L42.915 107.271L42.8447 107.295L42.7744 107.307L40.2549 107.623L37.9463 108.443L37.8291 108.49L37.7002 108.514L35.4971 108.865L34.126 110.201L33.2471 112.193L33.0244 113.705L33.7979 114.291L34.0234 114.456L34.5078 114.488L34.4961 114.5L37.0508 114.512H37.0977L39.6875 114.617L42.1836 114.535L44.832 114.289H44.9844L47.6211 114.336L47.6094 114.348H50.2695L52.8711 114.406L55.4844 114.348H55.6133L55.7305 114.359L58.2148 114.723L60.0615 114.601L59.9375 114.052L59.8672 113.747L59.9258 113.442L60.418 110.829L60.4414 110.747L60.4648 110.653L61.2734 108.146L61.3672 107.864L61.5664 107.63L63.2539 105.673L63.3945 105.509L63.582 105.392L65.75 103.997L65.9141 103.892L66.1016 103.833L68.5977 103.024L68.6797 102.989L68.7617 102.978L71.3398 102.45L73.9414 101.911L74.0938 101.888H74.2461L76.8594 101.911L79.3672 101.665V101.677L81.9102 101.278H81.957L84.5938 100.974L84.6992 100.95L84.8047 100.962L87.2188 101.032L87.3008 101.021V101.032H87.3477L87.3359 101.524L87.4062 102.521L87.5234 104.021H87.4297L87.3477 104.032H87.2656L84.8047 103.962L82.3086 104.255L82.2969 104.243L79.7422 104.642H79.707L79.6602 104.653L77.0352 104.911H76.8711L74.3516 104.888L71.9375 105.38L69.4062 105.907L67.2148 106.61L65.3867 107.782L64.0391 109.353L63.3477 111.462L62.9375 113.688L63.0713 114.312L63.2891 114.289L63.4414 114.277L63.6055 114.289L66.0898 114.582L68.6328 114.43L68.7148 114.418L68.7969 114.43L71.3281 114.559L73.0332 114.357L73.0254 114.304L73.0137 114.21V114.104L72.9551 111.866V111.69L72.9902 111.526L73.4355 109.429L74.209 109.604L74.9121 109.64L76.4004 109.733V109.827L76.3887 109.944L76.3652 110.05L75.9551 111.96L75.9902 113.882L76.1113 114.618L76.7305 114.734L79.1797 114.582L79.2266 114.57H79.2617L81.8867 114.559V114.547L84.5234 114.488L87.1602 114.418H87.1953L89.832 114.406H89.9375L90.0312 114.418L92.4219 114.734L94.8359 114.266L95.082 114.219L95.3164 114.254L97.8945 114.605L100.273 114.711L102.793 114.277L102.91 114.266H103.027L105.664 114.242H105.816L105.969 114.266L108.406 114.746L110.809 114.5L110.891 114.488H110.973L112.016 114.5L112.004 116L111.98 117.5L110.984 117.488L108.477 117.746L108.254 117.77L108.031 117.734L105.57 117.242L103.145 117.254L100.648 117.688L100.496 117.711L100.332 117.699L97.6953 117.594H97.625L97.5547 117.582L95.1523 117.242L92.7617 117.711L92.5273 117.758L92.293 117.734L89.7383 117.406L87.207 117.418L87.1953 117.406L84.6055 117.488H84.5938L81.957 117.547H81.9336L79.3672 117.559L79.3789 117.57L76.7422 117.746L76.5547 117.758L73.9297 117.266L71.5391 117.547L71.4102 117.559H71.2812L68.7266 117.418L66.1719 117.582H66.043L65.9141 117.57L63.418 117.289L60.957 117.559H60.8867L58.25 117.711L58.0977 117.723L57.957 117.699L55.4141 117.348L52.9062 117.406H52.8477L50.2109 117.348V117.336H47.5742L44.9492 117.289L42.4531 117.512L42.418 117.523H42.3711L39.7344 117.617H39.6172L36.9805 117.512V117.5L34.3906 117.488H34.3438L34.2969 117.477L31.7188 117.301L29.1875 117.43H29.1055L26.4688 117.418V117.406L23.9609 117.43L21.3242 117.664L21.1836 117.676L21.0312 117.664L18.5 117.383L15.9219 117.395V117.383L13.3789 117.559H13.3672L13.3555 117.57L10.707 117.688L10.6133 117.699L10.5312 117.688L7.98828 117.5L8 117.277V114.5H8.21094L10.6719 114.699L13.1797 114.582V114.57L15.8164 114.395H15.9102L18.5469 114.383L18.6406 114.371L18.7227 114.383L21.2305 114.664L23.7148 114.453L23.7617 114.441H23.8203L26.4688 114.418H26.4922L29.0469 114.43L29.8916 114.392L29.9307 114.15L30.3174 111.537L30.3525 111.338L30.4346 111.162L31.501 108.736L31.6182 108.467L31.8174 108.268L33.751 106.393L34.0908 106.053L34.5596 105.982L37.1025 105.561L39.458 104.74L39.6104 104.682L39.7627 104.67L42.2939 104.33L44.8252 103.768L44.9775 103.732H45.1299L47.6377 103.686L50.0869 103.146H50.1221L50.1572 103.135L52.7705 102.701L52.8525 102.689H52.9346L54.833 102.572L55.7588 101.131L56.4854 98.8457L57.2588 96.3262V96.3027L57.2705 96.2676L58.126 93.7832L58.8291 91.3223L58.8525 91.2285L58.8877 91.1465L59.9072 88.709L59.9775 88.5449L60.0713 88.4043L61.6299 86.2598L61.6885 86.166L61.7705 86.0957L63.5986 84.1973L65.0166 82.6387L65.0986 81.373L63.6455 80.2363H63.6338L61.5596 78.8301L61.126 78.5371L60.9619 78.0215L60.2236 75.5605L60.001 74.8457L60.4463 74.2363L60.5381 74.1104L59.876 73.4551L59.6533 73.2559L59.5361 72.9746L58.5752 70.6895L57.3213 68.3457L57.3096 68.3223L57.2861 68.2871L56.1494 65.8965L56.126 65.8496L56.1143 65.791L55.1768 63.3652L54.1572 60.9395L54.1338 60.8926L54.1221 60.8574L53.3018 58.5254L52.1416 56.1465L52.1182 56.1113L52.1064 56.0762L51.0635 53.6504V53.6387L50.0439 51.3652L48.79 49.0332L48.7197 48.9043L48.6729 48.7637L47.8994 46.291L46.8799 43.9707V43.959L45.7197 41.6973L45.708 41.6855L45.6963 41.6621L44.5596 39.2598L44.3838 38.8965L44.4189 38.498L44.5947 36.1113L43.3066 35.0225L43.0508 34.8018L42.1797 35.3174L40.9023 37.2393V37.251L39.4141 39.4424L39.3906 39.4775L39.3555 39.5127L37.75 41.5986L37.6328 41.7393L35.8516 43.5557L34.5156 45.6299L34.4453 45.7236L32.8516 47.8213L32.8398 47.833H32.8281L31.2227 49.8369L31.2344 49.8486L29.7109 52.0049L29.6641 52.0752L29.6055 52.1338L27.8359 54.1025L26.2422 56.0947L26.2305 56.1182L26.207 56.1299L24.4961 58.1455L23.0195 60.1963L21.6133 62.3525L21.5781 62.4229L21.5195 62.4814L19.8555 64.5088L19.8672 64.5205L18.2266 66.583L18.2148 66.5947V66.6064L16.5391 68.6455L14.9219 70.8018L14.8281 70.8838L13.0117 72.6182L11.5938 74.6807L10.2227 76.8721L10.1289 77.0127L10.0117 77.1182L8.23047 78.9229L6.80078 80.9854L6.78906 81.0088L6.76562 81.0322L5.52344 82.6729L5.54688 82.8369L5.39453 82.8486L5.18359 83.1416L4.86719 82.8955L4.05859 82.9893L2.55859 83.1299L2.48828 82.3799L2.42969 81.8057L2.78125 81.3369L4.375 79.2275L5.85156 77.1064L5.92188 77.001L6.01562 76.9072L7.75 75.1377L9.09766 73.0283L9.10938 72.9932L9.13281 72.9697L10.6328 70.79L10.7266 70.6729L10.832 70.5674L12.6602 68.7861L14.1836 66.7939L14.1953 66.7588L14.2188 66.7354L15.8945 64.6963L17.5234 62.6455L17.5352 62.6338L19.1055 60.7002L20.5469 58.4971L20.5938 58.4268L22.1406 56.2939L22.2109 56.2002L23.9219 54.1846L25.5508 52.1689L25.5977 52.0986L27.2969 50.2002L28.7969 48.1025L28.8203 48.0791L28.8438 48.0439L30.4844 45.9697L31.9961 43.9658L33.4492 41.7744L33.5312 41.6455L33.625 41.54L35.3945 39.7236L36.9297 37.7549L38.418 35.5635L39.8828 33.3721L40.0703 33.0908L40.3633 32.915L42.1201 31.8672L42.1113 31.835L42.2441 31.7939L42.5664 31.6025L42.6123 31.6816L43.3418 31.46L43.4824 31.3311L44.5957 30.3232L44.666 30.4053ZM78.9404 62.9756H78.8818L76.292 62.999L73.6787 63.1514H73.5615L70.9834 63.0928L70.1865 63.1162L69.999 63.4209L70.6084 65.3896L70.667 65.5889V65.8115L70.7021 68.4248V68.4482L70.6904 70.9209L71.0537 73.2881L71.8037 75.6318L72.6123 77.7295L74.4053 79.124L74.4287 79.1357L76.1982 80.5654L78.1318 81.0342L80.2178 80.5186L82.4209 79.6514L84.46 78.6318L85.7607 76.7568L87.0498 74.7178L87.7998 72.3506L88.0928 71.4248L89.0654 71.3193L91.2803 71.0615L92.5693 69.9248L92.7803 68.4248L92.042 67.1943L90.4834 66.3271L88.3623 66.292L87.7881 66.2803L87.3662 65.8818L85.6553 64.2646L83.5459 63.3623L81.3896 62.8467L78.9404 62.9756ZM78.1777 67.3203L78.3418 67.7656L78.2246 68.2227L77.6855 70.3086L77.9434 71.3984L78.7988 71.4453L80.0879 71.5039L80.2168 72.7812L80.2285 72.8984L78.7402 73.0508H78.7168L78.6699 74.4453L76.6895 74.3633L75.5645 74.3047L75.2949 73.2148L74.6855 70.6719L74.6035 70.3086L74.6855 69.9453L75.3184 67.4727L76.5957 67.8008L76.7363 67.7539L78.1426 67.2266L78.1777 67.3203ZM47.4307 38.3223L48.3799 40.3262L49.5869 42.6816L49.6104 42.7285L49.6338 42.7637L50.7002 45.1777L50.7236 45.2598L50.7588 45.3418L51.4971 47.7324L52.6807 49.9355L52.7158 49.9941L52.7393 50.041L53.8174 52.4434V52.4551L53.8291 52.4668L54.8252 54.8223H54.8369L55.9971 57.2012L56.0674 57.3652L56.9229 59.7676L57.9424 62.2051L57.9658 62.252L58.8916 64.6777L59.958 66.9277H59.9697L61.2236 69.2715L61.2471 69.3301L61.2822 69.3887L62.1846 71.5215L62.2402 71.5771L63.0361 69.9707L63.9619 67.6387L64.8643 65.1777L65.0283 64.7441L65.4033 64.4746L66.8633 63.418L66.7529 63.0459L67.0811 62.4834L68.3115 60.3975L68.3604 59.7168L67.7754 59.4443L67.5996 59.3623L67.4473 59.2334L65.4551 57.5693L65.3379 57.4756L63.498 55.5771L63.4629 55.542L63.4277 55.4951L61.752 53.5264L59.9824 51.5693L59.959 51.5342L59.9238 51.499L58.3066 49.4951L56.4902 47.7256L56.4668 47.6904L56.4434 47.667L54.6504 45.7217V45.71L52.9277 43.8818L50.9824 42.1006L50.8652 41.9951L50.7832 41.8779L49.248 39.7803L47.7246 38.0928L47.459 37.9453L47.4307 38.3223Z" fill="black"/>
</svg>
