<svg width="120" height="120" viewBox="0 0 120 120" fill="none" xmlns="http://www.w3.org/2000/svg">
<path d="M8.1 116V117.5H8.13227L8.16451 117.499L8.1 116ZM10.64 115.891L10.797 114.399L10.6865 114.387L10.5755 114.392L10.64 115.891ZM13.28 116.169L13.123 117.66L13.2739 117.676L13.425 117.662L13.28 116.169ZM15.92 115.912L15.8596 114.413L15.8172 114.415L15.775 114.419L15.92 115.912ZM18.56 115.806L18.6763 114.31L18.588 114.303L18.4996 114.307L18.56 115.806ZM21.2 116.011L21.0837 117.507L21.1392 117.511L21.1948 117.511L21.2 116.011ZM23.84 116.02L23.8348 117.52L23.8912 117.52L23.9474 117.516L23.84 116.02ZM26.48 115.831L26.5223 114.331L26.4473 114.329L26.3726 114.334L26.48 115.831ZM29.12 115.905L29.2963 114.415L29.2295 114.408L29.1623 114.406L29.12 115.905ZM31.76 116.217L31.5837 117.707L31.7941 117.732L32.0032 117.698L31.76 116.217ZM34.4 115.784L34.4793 114.286L34.3171 114.277L34.1568 114.303L34.4 115.784ZM37.04 115.923L36.9607 117.421L37.0493 117.426L37.1379 117.42L37.04 115.923ZM39.68 115.751L39.8617 114.262L39.7223 114.245L39.5821 114.254L39.68 115.751ZM42.32 116.073L42.1383 117.562L42.2533 117.576L42.3692 117.572L42.32 116.073ZM44.96 115.986L44.9117 114.487L44.9108 114.487L44.96 115.986ZM47.6 115.901L47.6483 117.401L47.6707 117.4L47.693 117.398L47.6 115.901ZM50.24 115.737L50.5012 114.26L50.3253 114.229L50.147 114.24L50.24 115.737ZM52.88 116.204L52.6188 117.681L52.879 117.727L53.1393 117.682L52.88 116.204ZM55.52 115.741L55.6608 114.247L55.4596 114.228L55.2606 114.263L55.52 115.741ZM58.16 115.99L58.0192 117.483L58.1299 117.493L58.2409 117.487L58.16 115.99ZM60.8 115.847L61.0126 114.362L60.8665 114.341L60.7191 114.349L60.8 115.847ZM63.44 116.225L63.2274 117.71L63.4714 117.745L63.7137 117.7L63.44 116.225ZM66.08 115.735L66.1582 114.237L65.9809 114.228L65.8063 114.26L66.08 115.735ZM68.72 115.873L68.6418 117.371L68.6647 117.372L68.6878 117.373L68.72 115.873ZM71.36 115.93L71.3278 117.429L71.3564 117.43L71.3849 117.429L71.36 115.93ZM74 115.886L74.185 114.397L74.0804 114.384L73.975 114.386L74 115.886ZM76.64 116.214L76.455 117.702L76.6155 117.722L76.7765 117.708L76.64 116.214ZM79.28 115.973L79.2685 114.473L79.2059 114.473L79.1435 114.479L79.28 115.973ZM81.92 115.952L82.0888 114.462L81.9989 114.452L81.9085 114.452L81.92 115.952ZM84.56 116.251L84.3912 117.742L84.5876 117.764L84.783 117.735L84.56 116.251ZM87.2 115.854L87.2734 114.356L87.1245 114.349L86.977 114.371L87.2 115.854ZM89.84 115.984L89.9255 114.486L89.9134 114.486L89.84 115.984ZM92.48 116.135L92.3945 117.632L92.4978 117.638L92.6008 117.63L92.48 116.135ZM95.12 115.921L95.1099 114.421L95.0544 114.422L94.9992 114.426L95.12 115.921ZM97.76 115.903L97.9616 114.417L97.8562 114.403L97.7499 114.403L97.76 115.903ZM100.4 116.261L100.198 117.748L100.434 117.78L100.667 117.737L100.4 116.261ZM103.04 115.784L103.284 114.304L103.028 114.262L102.773 114.308L103.04 115.784ZM105.68 116.219L105.436 117.699L105.576 117.722L105.719 117.718L105.68 116.219ZM108.32 116.151L108.359 117.65L108.453 117.648L108.546 117.634L108.32 116.151ZM110.96 115.748L111.313 114.29L111.026 114.221L110.734 114.265L110.96 115.748ZM8 116V117.5H8.1V116V114.5H8V116ZM8.1 116L8.16451 117.499L10.7045 117.389L10.64 115.891L10.5755 114.392L8.03549 114.501L8.1 116ZM10.64 115.891L10.483 117.382L13.123 117.66L13.28 116.169L13.437 114.677L10.797 114.399L10.64 115.891ZM13.28 116.169L13.425 117.662L16.065 117.405L15.92 115.912L15.775 114.419L13.135 114.676L13.28 116.169ZM15.92 115.912L15.9804 117.411L18.6204 117.305L18.56 115.806L18.4996 114.307L15.8596 114.413L15.92 115.912ZM18.56 115.806L18.4437 117.301L21.0837 117.507L21.2 116.011L21.3163 114.516L18.6763 114.31L18.56 115.806ZM21.2 116.011L21.1948 117.511L23.8348 117.52L23.84 116.02L23.8452 114.52L21.2052 114.511L21.2 116.011ZM23.84 116.02L23.9474 117.516L26.5874 117.327L26.48 115.831L26.3726 114.334L23.7326 114.524L23.84 116.02ZM26.48 115.831L26.4377 117.33L29.0777 117.404L29.12 115.905L29.1623 114.406L26.5223 114.331L26.48 115.831ZM29.12 115.905L28.9437 117.395L31.5837 117.707L31.76 116.217L31.9363 114.728L29.2963 114.415L29.12 115.905ZM31.76 116.217L32.0032 117.698L34.6432 117.264L34.4 115.784L34.1568 114.303L31.5168 114.737L31.76 116.217ZM34.4 115.784L34.3207 117.282L36.9607 117.421L37.04 115.923L37.1193 114.426L34.4793 114.286L34.4 115.784ZM37.04 115.923L37.1379 117.42L39.7779 117.248L39.68 115.751L39.5821 114.254L36.9421 114.427L37.04 115.923ZM39.68 115.751L39.4983 117.24L42.1383 117.562L42.32 116.073L42.5017 114.584L39.8617 114.262L39.68 115.751ZM42.32 116.073L42.3692 117.572L45.0092 117.486L44.96 115.986L44.9108 114.487L42.2708 114.574L42.32 116.073ZM44.96 115.986L45.0083 117.486L47.6483 117.401L47.6 115.901L47.5517 114.402L44.9117 114.487L44.96 115.986ZM47.6 115.901L47.693 117.398L50.333 117.234L50.24 115.737L50.147 114.24L47.507 114.404L47.6 115.901ZM50.24 115.737L49.9788 117.214L52.6188 117.681L52.88 116.204L53.1412 114.727L50.5012 114.26L50.24 115.737ZM52.88 116.204L53.1393 117.682L55.7793 117.218L55.52 115.741L55.2606 114.263L52.6207 114.727L52.88 116.204ZM55.52 115.741L55.3792 117.234L58.0192 117.483L58.16 115.99L58.3008 114.496L55.6608 114.247L55.52 115.741ZM58.16 115.99L58.2409 117.487L60.8809 117.345L60.8 115.847L60.7191 114.349L58.0791 114.492L58.16 115.99ZM60.8 115.847L60.5874 117.332L63.2274 117.71L63.44 116.225L63.6526 114.74L61.0126 114.362L60.8 115.847ZM63.44 116.225L63.7137 117.7L66.3537 117.21L66.08 115.735L65.8063 114.26L63.1663 114.75L63.44 116.225ZM66.08 115.735L66.0018 117.233L68.6418 117.371L68.72 115.873L68.7982 114.375L66.1582 114.237L66.08 115.735ZM68.72 115.873L68.6878 117.373L71.3278 117.429L71.36 115.93L71.3922 114.43L68.7522 114.373L68.72 115.873ZM71.36 115.93L71.3849 117.429L74.0249 117.386L74 115.886L73.975 114.386L71.335 114.43L71.36 115.93ZM74 115.886L73.815 117.374L76.455 117.702L76.64 116.214L76.825 114.725L74.185 114.397L74 115.886ZM76.64 116.214L76.7765 117.708L79.4165 117.466L79.28 115.973L79.1435 114.479L76.5035 114.72L76.64 116.214ZM79.28 115.973L79.2915 117.473L81.9315 117.452L81.92 115.952L81.9085 114.452L79.2685 114.473L79.28 115.973ZM81.92 115.952L81.7512 117.443L84.3912 117.742L84.56 116.251L84.7288 114.761L82.0888 114.462L81.92 115.952ZM84.56 116.251L84.783 117.735L87.423 117.338L87.2 115.854L86.977 114.371L84.337 114.768L84.56 116.251ZM87.2 115.854L87.1266 117.353L89.7666 117.482L89.84 115.984L89.9134 114.486L87.2734 114.356L87.2 115.854ZM89.84 115.984L89.7545 117.481L92.3945 117.632L92.48 116.135L92.5655 114.637L89.9255 114.486L89.84 115.984ZM92.48 116.135L92.6008 117.63L95.2408 117.416L95.12 115.921L94.9992 114.426L92.3592 114.639L92.48 116.135ZM95.12 115.921L95.1301 117.421L97.7701 117.403L97.76 115.903L97.7499 114.403L95.1099 114.421L95.12 115.921ZM97.76 115.903L97.5584 117.39L100.198 117.748L100.4 116.261L100.602 114.775L97.9616 114.417L97.76 115.903ZM100.4 116.261L100.667 117.737L103.307 117.26L103.04 115.784L102.773 114.308L100.133 114.785L100.4 116.261ZM103.04 115.784L102.796 117.264L105.436 117.699L105.68 116.219L105.924 114.738L103.284 114.304L103.04 115.784ZM105.68 116.219L105.719 117.718L108.359 117.65L108.32 116.151L108.281 114.651L105.641 114.719L105.68 116.219ZM108.32 116.151L108.546 117.634L111.186 117.231L110.96 115.748L110.734 114.265L108.094 114.668L108.32 116.151ZM110.96 115.748L110.607 117.206L111.647 117.458L112 116L112.353 114.542L111.313 114.29L110.96 115.748Z" fill="black"/>
<path d="M86.3421 83.1193L84.845 83.0259L84.7995 83.7557L85.3463 84.2411L86.3421 83.1193ZM86.5019 80.5566L87.999 80.65L88.025 80.234L87.8326 79.8642L86.5019 80.5566ZM85.3452 78.3335L86.6758 77.6412L86.3912 77.0942L85.8043 76.9055L85.3452 78.3335ZM82.8161 77.5205L83.2752 76.0925L83.2113 76.0719L83.1458 76.0572L82.8161 77.5205ZM80.2605 76.9447L79.903 78.4015L79.9169 78.4049L79.9308 78.4081L80.2605 76.9447ZM77.6955 76.3154L78.0529 74.8586L77.9581 74.8354L77.861 74.8246L77.6955 76.3154ZM75.0709 76.0241L75.2364 74.5333L75.1518 74.5239L75.0666 74.5241L75.0709 76.0241ZM72.4254 76.0316L72.3243 77.5282L72.3769 77.5318L72.4297 77.5316L72.4254 76.0316ZM69.7927 75.8538L69.5959 77.3409L69.6436 77.3472L69.6916 77.3504L69.7927 75.8538ZM67.1545 75.5048L67.3513 74.0178L67.1233 73.9876L66.8968 74.0271L67.1545 75.5048ZM64.5166 75.9648L64.4898 77.4646L64.6331 77.4671L64.7743 77.4425L64.5166 75.9648ZM61.8784 75.9176L61.9053 74.4178L61.7924 74.4158L61.6806 74.4307L61.8784 75.9176ZM59.2634 76.2656L59.2688 77.7656L59.3654 77.7652L59.4612 77.7525L59.2634 76.2656ZM56.6112 76.2753L56.6058 74.7753L56.2119 74.7767L55.8695 74.9715L56.6112 76.2753ZM54.3459 77.5641L54.501 79.0561L54.8141 79.0235L55.0877 78.8679L54.3459 77.5641ZM51.7286 77.8362L51.8276 79.3329L51.8557 79.3311L51.8837 79.3282L51.7286 77.8362ZM49.0972 78.0102L48.7194 79.4619L48.9541 79.523L49.1962 79.507L49.0972 78.0102ZM46.4933 77.3326L46.871 75.8809L46.6382 75.8204L46.3982 75.8356L46.4933 77.3326ZM43.8187 77.5025L43.4944 78.967L43.7018 79.0129L43.9138 78.9995L43.8187 77.5025ZM41.2276 76.9287L41.5519 75.4642L41.4496 75.4415L41.3452 75.4333L41.2276 76.9287ZM38.589 76.7212L38.174 78.1627L38.32 78.2047L38.4714 78.2166L38.589 76.7212ZM36.0239 75.9828L36.4388 74.5414L36.2054 74.4742L35.9627 74.4841L36.0239 75.9828ZM33.3405 76.0925L33.045 77.5631L33.2217 77.5986L33.4017 77.5912L33.3405 76.0925ZM30.7466 75.5711L31.0421 74.1006L31.0218 74.0965L31.0013 74.0929L30.7466 75.5711ZM28.1417 75.1223L28.3964 73.6441L28.3701 73.6396L28.3438 73.636L28.1417 75.1223ZM25.5231 74.7663L25.1121 76.2089L25.215 76.2383L25.3211 76.2527L25.5231 74.7663ZM22.9626 74.0367L23.3736 72.5941L23.2198 72.5503L23.0602 72.5399L22.9626 74.0367ZM20.3176 73.8642L20.0919 75.3471L20.1556 75.3568L20.22 75.361L20.3176 73.8642ZM17.7021 73.4662L17.3036 74.9123L17.389 74.9358L17.4765 74.9491L17.7021 73.4662ZM15.1509 72.7631L15.5494 71.317L15.3303 71.2566L15.1031 71.2638L15.1509 72.7631ZM12.4773 72.8483L12.24 74.3294L12.3817 74.3521L12.5251 74.3475L12.4773 72.8483ZM9.86644 72.43L9.62143 73.9099L9.62916 73.9111L9.86644 72.43ZM7.25512 71.9977L7.50013 70.5178L5.74328 70.2269L5.75515 72.0077L7.25512 71.9977ZM7.25872 72.5382L5.75875 72.5482L5.76538 73.5422L6.68341 73.9234L7.25872 72.5382ZM9.69942 73.5518L10.4459 72.2507L10.363 72.2031L10.2747 72.1665L9.69942 73.5518ZM12.0203 74.8832L11.2738 76.1843L11.4834 76.3045L11.7201 76.3529L12.0203 74.8832ZM14.6469 75.4198L15.4186 74.1335L15.1986 74.0015L14.9472 73.9502L14.6469 75.4198ZM16.938 76.7942L16.1664 78.0805L16.2901 78.1547L16.4258 78.204L16.938 76.7942ZM19.4223 77.6968L18.91 79.1066L19.0002 79.1394L19.0938 79.1604L19.4223 77.6968ZM22.031 78.2824L22.5786 76.8859L22.4717 76.844L22.3595 76.8188L22.031 78.2824ZM24.4879 79.2458L25.2248 77.9393L25.1333 77.8877L25.0355 77.8494L24.4879 79.2458ZM26.8134 80.5573L26.0766 81.8639L26.2095 81.9389L26.3548 81.9855L26.8134 80.5573ZM29.3323 81.3662L29.8609 79.9624L29.8262 79.9494L29.791 79.9381L29.3323 81.3662ZM31.8027 82.2963L32.3744 80.9095L32.3529 80.9007L32.3312 80.8925L31.8027 82.2963ZM34.2478 83.3043L33.6761 84.6911L33.6871 84.6956L34.2478 83.3043ZM36.6941 84.2902L37.2696 82.905L37.2622 82.9019L37.2547 82.8989L36.6941 84.2902ZM39.1385 85.3059L38.5629 86.6911L38.68 86.7397L38.8035 86.768L39.1385 85.3059ZM41.7381 85.9017L42.3267 84.5219L42.2036 84.4694L42.0732 84.4396L41.7381 85.9017ZM44.171 86.9395L43.5824 88.3192L43.6882 88.3643L43.7996 88.3928L44.171 86.9395ZM46.7215 87.5912L47.7643 86.513L47.4783 86.2364L47.0929 86.1379L46.7215 87.5912ZM48.6693 89.4749L47.6265 90.5532L47.9679 90.8833L48.4371 90.9569L48.6693 89.4749ZM51.2564 89.8802L51.0242 91.3621L51.2432 91.3964L51.4627 91.366L51.2564 89.8802ZM53.8698 89.5173L54.0761 91.0031L54.1185 90.9972L54.1605 90.9889L53.8698 89.5173ZM56.4634 89.005L56.2919 87.5148L56.2319 87.5217L56.1727 87.5334L56.4634 89.005ZM59.0888 88.7029L58.9592 87.2085L58.9382 87.2103L58.9173 87.2127L59.0888 88.7029ZM61.7216 88.4745L61.6417 86.9767L61.6168 86.978L61.592 86.9801L61.7216 88.4745ZM64.3584 88.3337L64.4384 89.8316L64.451 89.8309L64.4636 89.83L64.3584 88.3337ZM66.9948 88.1484L66.9186 86.6503L66.904 86.651L66.8895 86.6521L66.9948 88.1484ZM69.6355 88.014L69.6441 86.5141L69.6017 86.5138L69.5593 86.516L69.6355 88.014ZM72.2788 88.0293L72.3317 86.5302L72.3096 86.5294L72.2875 86.5293L72.2788 88.0293ZM74.9204 88.1225L75.1453 86.6394L75.0597 86.6265L74.9732 86.6234L74.9204 88.1225ZM77.5467 88.5209L77.3217 90.0039L77.4091 90.0172L77.4975 90.0201L77.5467 88.5209ZM80.1836 88.6073L80.1345 90.1065L80.1746 90.1078L80.2148 90.107L80.1836 88.6073ZM82.8378 88.5522L83.0054 87.0616L82.9063 87.0504L82.8066 87.0525L82.8378 88.5522ZM85.4676 88.8479L85.8068 87.3868L85.7218 87.367L85.6352 87.3573L85.4676 88.8479ZM88.0484 89.4471L87.7092 90.9083L87.7382 90.915L87.7675 90.9206L88.0484 89.4471ZM90.6426 89.9417L90.3616 91.4151L90.4146 91.4253L90.4682 91.4315L90.6426 89.9417ZM93.2673 90.2488L93.093 91.7386L93.1044 91.74L93.1158 91.7411L93.2673 90.2488ZM95.8976 90.5159L95.7461 92.0082L95.7939 92.013L95.8419 92.0148L95.8976 90.5159ZM98.5408 90.6141L98.6549 89.1185L98.6257 89.1162L98.5965 89.1152L98.5408 90.6141ZM101.175 90.8149L101.32 89.322L101.304 89.3205L101.289 89.3193L101.175 90.8149ZM103.808 91.0705L103.663 92.5635L103.791 92.5759L103.919 92.5664L103.808 91.0705ZM106.461 90.8724L106.412 89.3732L106.381 89.3743L106.35 89.3766L106.461 90.8724ZM109.1 90.7855L109.134 89.2858L109.092 89.2849L109.05 89.2863L109.1 90.7855ZM111.718 90.8443L111.684 92.3439L112.026 92.3516L112.338 92.21L111.718 90.8443ZM113.942 89.8344L114.562 91.2001L115.587 90.7346L115.426 89.6201L113.942 89.8344ZM86.4169 83.1857L87.4127 82.0639L87.3379 81.9975L86.3421 83.1193L85.3463 84.2411L85.4211 84.3075L86.4169 83.1857ZM86.3421 83.1193L87.8392 83.2126L87.999 80.65L86.5019 80.5566L85.0048 80.4633L84.845 83.0259L86.3421 83.1193ZM86.5019 80.5566L87.8326 79.8642L86.6758 77.6412L85.3452 78.3335L84.0145 79.0259L85.1713 81.249L86.5019 80.5566ZM85.3452 78.3335L85.8043 76.9055L83.2752 76.0925L82.8161 77.5205L82.357 78.9485L84.8861 79.7616L85.3452 78.3335ZM82.8161 77.5205L83.1458 76.0572L80.5901 75.4814L80.2605 76.9447L79.9308 78.4081L82.4865 78.9838L82.8161 77.5205ZM80.2605 76.9447L80.6179 75.4879L78.0529 74.8586L77.6955 76.3154L77.3381 77.7722L79.903 78.4015L80.2605 76.9447ZM77.6955 76.3154L77.861 74.8246L75.2364 74.5333L75.0709 76.0241L74.9054 77.515L77.53 77.8063L77.6955 76.3154ZM75.0709 76.0241L75.0666 74.5241L72.4212 74.5316L72.4254 76.0316L72.4297 77.5316L75.0752 77.5241L75.0709 76.0241ZM72.4254 76.0316L72.5265 74.535L69.8937 74.3573L69.7927 75.8538L69.6916 77.3504L72.3243 77.5282L72.4254 76.0316ZM69.7927 75.8538L69.9894 74.3668L67.3513 74.0178L67.1545 75.5048L66.9578 76.9919L69.5959 77.3409L69.7927 75.8538ZM67.1545 75.5048L66.8968 74.0271L64.259 74.4871L64.5166 75.9648L64.7743 77.4425L67.4122 76.9825L67.1545 75.5048ZM64.5166 75.9648L64.5435 74.4651L61.9053 74.4178L61.8784 75.9176L61.8516 77.4174L64.4898 77.4646L64.5166 75.9648ZM61.8784 75.9176L61.6806 74.4307L59.0655 74.7787L59.2634 76.2656L59.4612 77.7525L62.0763 77.4045L61.8784 75.9176ZM59.2634 76.2656L59.2579 74.7656L56.6058 74.7753L56.6112 76.2753L56.6167 77.7752L59.2688 77.7656L59.2634 76.2656ZM56.6112 76.2753L55.8695 74.9715L53.6041 76.2604L54.3459 77.5641L55.0877 78.8679L57.353 77.579L56.6112 76.2753ZM54.3459 77.5641L54.1908 76.0722L51.5735 76.3442L51.7286 77.8362L51.8837 79.3282L54.501 79.0561L54.3459 77.5641ZM51.7286 77.8362L51.6296 76.3395L48.9982 76.5135L49.0972 78.0102L49.1962 79.507L51.8276 79.3329L51.7286 77.8362ZM49.0972 78.0102L49.4749 76.5586L46.871 75.8809L46.4933 77.3326L46.1155 78.7842L48.7194 79.4619L49.0972 78.0102ZM46.4933 77.3326L46.3982 75.8356L43.7236 76.0055L43.8187 77.5025L43.9138 78.9995L46.5884 78.8296L46.4933 77.3326ZM43.8187 77.5025L44.143 76.038L41.5519 75.4642L41.2276 76.9287L40.9033 78.3932L43.4944 78.967L43.8187 77.5025ZM41.2276 76.9287L41.3452 75.4333L38.7065 75.2259L38.589 76.7212L38.4714 78.2166L41.11 78.4241L41.2276 76.9287ZM38.589 76.7212L39.0039 75.2798L36.4388 74.5414L36.0239 75.9828L35.609 77.4243L38.174 78.1627L38.589 76.7212ZM36.0239 75.9828L35.9627 74.4841L33.2793 74.5937L33.3405 76.0925L33.4017 77.5912L36.0851 77.4816L36.0239 75.9828ZM33.3405 76.0925L33.6361 74.6219L31.0421 74.1006L30.7466 75.5711L30.451 77.0417L33.045 77.5631L33.3405 76.0925ZM30.7466 75.5711L31.0013 74.0929L28.3964 73.6441L28.1417 75.1223L27.887 76.6005L30.4919 77.0494L30.7466 75.5711ZM28.1417 75.1223L28.3438 73.636L25.7252 73.28L25.5231 74.7663L25.3211 76.2527L27.9396 76.6087L28.1417 75.1223ZM25.5231 74.7663L25.9342 73.3238L23.3736 72.5941L22.9626 74.0367L22.5515 75.4793L25.1121 76.2089L25.5231 74.7663ZM22.9626 74.0367L23.0602 72.5399L20.4152 72.3673L20.3176 73.8642L20.22 75.361L22.8649 75.5335L22.9626 74.0367ZM20.3176 73.8642L20.5432 72.3812L17.9278 71.9833L17.7021 73.4662L17.4765 74.9491L20.0919 75.3471L20.3176 73.8642ZM17.7021 73.4662L18.1007 72.0201L15.5494 71.317L15.1509 72.7631L14.7524 74.2092L17.3036 74.9123L17.7021 73.4662ZM15.1509 72.7631L15.1031 71.2638L12.4295 71.3491L12.4773 72.8483L12.5251 74.3475L15.1987 74.2623L15.1509 72.7631ZM12.4773 72.8483L12.7146 71.3672L10.1037 70.9489L9.86644 72.43L9.62916 73.9111L12.24 74.3294L12.4773 72.8483ZM9.86644 72.43L10.1115 70.9502L7.50013 70.5178L7.25512 71.9977L7.0101 73.4775L9.62143 73.9099L9.86644 72.43ZM7.25512 71.9977L5.75515 72.0077L5.75875 72.5482L7.25872 72.5382L8.75869 72.5282L8.75508 71.9877L7.25512 71.9977ZM7.25872 72.5382L6.68341 73.9234L9.12412 74.9371L9.69942 73.5518L10.2747 72.1665L7.83402 71.1529L7.25872 72.5382ZM9.69942 73.5518L8.95299 74.8529L11.2738 76.1843L12.0203 74.8832L12.7667 73.5822L10.4459 72.2507L9.69942 73.5518ZM12.0203 74.8832L11.7201 76.3529L14.3467 76.8895L14.6469 75.4198L14.9472 73.9502L12.3205 73.4136L12.0203 74.8832ZM14.6469 75.4198L13.8753 76.7061L16.1664 78.0805L16.938 76.7942L17.7096 75.5079L15.4186 74.1335L14.6469 75.4198ZM16.938 76.7942L16.4258 78.204L18.91 79.1066L19.4223 77.6968L19.9345 76.287L17.4502 75.3844L16.938 76.7942ZM19.4223 77.6968L19.0938 79.1604L21.7025 79.746L22.031 78.2824L22.3595 76.8188L19.7508 76.2332L19.4223 77.6968ZM22.031 78.2824L21.4834 79.6788L23.9403 80.6423L24.4879 79.2458L25.0355 77.8494L22.5786 76.8859L22.031 78.2824ZM24.4879 79.2458L23.7511 80.5524L26.0766 81.8639L26.8134 80.5573L27.5503 79.2508L25.2248 77.9393L24.4879 79.2458ZM26.8134 80.5573L26.3548 81.9855L28.8737 82.7944L29.3323 81.3662L29.791 79.9381L27.272 79.1292L26.8134 80.5573ZM29.3323 81.3662L28.8038 82.77L31.2742 83.7001L31.8027 82.2963L32.3312 80.8925L29.8609 79.9624L29.3323 81.3662ZM31.8027 82.2963L31.231 83.6831L33.6761 84.6911L34.2478 83.3043L34.8195 81.9176L32.3744 80.9095L31.8027 82.2963ZM34.2478 83.3043L33.6871 84.6956L36.1334 85.6814L36.6941 84.2902L37.2547 82.8989L34.8085 81.9131L34.2478 83.3043ZM36.6941 84.2902L36.1185 85.6753L38.5629 86.6911L39.1385 85.3059L39.7141 83.9208L37.2696 82.905L36.6941 84.2902ZM39.1385 85.3059L38.8035 86.768L41.403 87.3638L41.7381 85.9017L42.0732 84.4396L39.4736 83.8438L39.1385 85.3059ZM41.7381 85.9017L41.1495 87.2814L43.5824 88.3192L44.171 86.9395L44.7596 85.5598L42.3267 84.5219L41.7381 85.9017ZM44.171 86.9395L43.7996 88.3928L46.3501 89.0445L46.7215 87.5912L47.0929 86.1379L44.5424 85.4862L44.171 86.9395ZM46.7215 87.5912L45.6787 88.6695L47.6265 90.5532L48.6693 89.4749L49.7121 88.3967L47.7643 86.513L46.7215 87.5912ZM48.6693 89.4749L48.4371 90.9569L51.0242 91.3621L51.2564 89.8802L51.4885 88.3983L48.9014 87.993L48.6693 89.4749ZM51.2564 89.8802L51.4627 91.366L54.0761 91.0031L53.8698 89.5173L53.6635 88.0316L51.0501 88.3945L51.2564 89.8802ZM53.8698 89.5173L54.1605 90.9889L56.7541 90.4766L56.4634 89.005L56.1727 87.5334L53.5791 88.0457L53.8698 89.5173ZM56.4634 89.005L56.6349 90.4952L59.2603 90.193L59.0888 88.7029L58.9173 87.2127L56.2919 87.5148L56.4634 89.005ZM59.0888 88.7029L59.2184 90.1972L61.8512 89.9689L61.7216 88.4745L61.592 86.9801L58.9592 87.2085L59.0888 88.7029ZM61.7216 88.4745L61.8016 89.9724L64.4384 89.8316L64.3584 88.3337L64.2784 86.8359L61.6417 86.9767L61.7216 88.4745ZM64.3584 88.3337L64.4636 89.83L67.1 89.6447L66.9948 88.1484L66.8895 86.6521L64.2532 86.8374L64.3584 88.3337ZM66.9948 88.1484L67.0709 89.6464L69.7117 89.5121L69.6355 88.014L69.5593 86.516L66.9186 86.6503L66.9948 88.1484ZM69.6355 88.014L69.6269 89.514L72.2702 89.5293L72.2788 88.0293L72.2875 86.5293L69.6441 86.5141L69.6355 88.014ZM72.2788 88.0293L72.226 89.5284L74.8675 89.6215L74.9204 88.1225L74.9732 86.6234L72.3317 86.5302L72.2788 88.0293ZM74.9204 88.1225L74.6954 89.6055L77.3217 90.0039L77.5467 88.5209L77.7716 87.0379L75.1453 86.6394L74.9204 88.1225ZM77.5467 88.5209L77.4975 90.0201L80.1345 90.1065L80.1836 88.6073L80.2328 87.1081L77.5958 87.0217L77.5467 88.5209ZM80.1836 88.6073L80.2148 90.107L82.8689 90.0519L82.8378 88.5522L82.8066 87.0525L80.1525 87.1076L80.1836 88.6073ZM82.8378 88.5522L82.6702 90.0428L85.2999 90.3385L85.4676 88.8479L85.6352 87.3573L83.0054 87.0616L82.8378 88.5522ZM85.4676 88.8479L85.1283 90.309L87.7092 90.9083L88.0484 89.4471L88.3877 87.986L85.8068 87.3868L85.4676 88.8479ZM88.0484 89.4471L87.7675 90.9206L90.3616 91.4151L90.6426 89.9417L90.9235 88.4682L88.3294 87.9737L88.0484 89.4471ZM90.6426 89.9417L90.4682 91.4315L93.093 91.7386L93.2673 90.2488L93.4417 88.7589L90.8169 88.4518L90.6426 89.9417ZM93.2673 90.2488L93.1158 91.7411L95.7461 92.0082L95.8976 90.5159L96.0492 89.0235L93.4189 88.7565L93.2673 90.2488ZM95.8976 90.5159L95.8419 92.0148L98.4851 92.1131L98.5408 90.6141L98.5965 89.1152L95.9534 89.0169L95.8976 90.5159ZM98.5408 90.6141L98.4268 92.1098L101.061 92.3106L101.175 90.8149L101.289 89.3193L98.6549 89.1185L98.5408 90.6141ZM101.175 90.8149L101.03 92.3079L103.663 92.5635L103.808 91.0705L103.952 89.5775L101.32 89.322L101.175 90.8149ZM103.808 91.0705L103.919 92.5664L106.573 92.3683L106.461 90.8724L106.35 89.3766L103.696 89.5747L103.808 91.0705ZM106.461 90.8724L106.511 92.3716L109.149 92.2846L109.1 90.7855L109.05 89.2863L106.412 89.3732L106.461 90.8724ZM109.1 90.7855L109.066 92.2851L111.684 92.3439L111.718 90.8443L111.751 89.3446L109.134 89.2858L109.1 90.7855ZM111.718 90.8443L112.338 92.21L114.562 91.2001L113.942 89.8344L113.322 88.4686L111.098 89.4785L111.718 90.8443ZM113.942 89.8344L115.426 89.6201L115.371 89.2337L113.886 89.448L112.401 89.6622L112.457 90.0486L113.942 89.8344Z" fill="black"/>
<path d="M47.7725 89.0211L47.456 87.5549L47.2137 87.6072L47.0011 87.7347L47.7725 89.0211ZM45.6512 90.2932L45.6823 91.7929L46.0808 91.7846L46.4226 91.5797L45.6512 90.2932ZM42.994 90.3485L42.9628 88.8488L42.7996 88.8522L42.6409 88.8907L42.994 90.3485ZM40.4159 90.973L40.694 92.447L40.7317 92.4399L40.769 92.4308L40.4159 90.973ZM37.818 91.4631L37.924 92.9594L38.0107 92.9532L38.0961 92.9371L37.818 91.4631ZM35.1767 91.6502L35.0708 90.1539L35.0151 90.1578L34.9599 90.1659L35.1767 91.6502ZM32.5642 92.0318L32.3474 90.5476L32.2926 90.5556L32.2385 90.5676L32.5642 92.0318ZM29.9804 92.6066L30.1539 94.0965L30.2306 94.0876L30.3061 94.0708L29.9804 92.6066ZM27.3555 92.9122L27.3861 94.4119L27.4578 94.4104L27.529 94.4021L27.3555 92.9122ZM24.6953 92.9665L24.6647 91.4668L24.4617 91.4709L24.2671 91.5289L24.6953 92.9665ZM22.1359 93.7288L21.7077 92.2912L21.5747 92.3308L21.4512 92.3942L22.1359 93.7288ZM20.1094 94.7686L19.4246 93.434L18.5174 93.8995L18.6165 94.9144L20.1094 94.7686ZM20.3653 97.3885L18.8724 97.5343L18.8838 97.6516L18.9135 97.7656L20.3653 97.3885ZM20.9933 99.8064L19.5414 100.183L19.848 101.364L21.0659 101.305L20.9933 99.8064ZM23.5863 99.6806L23.659 101.179L23.7879 101.173L23.9139 101.144L23.5863 99.6806ZM26.1595 99.1047L25.8388 97.6393L25.8319 97.6409L26.1595 99.1047ZM28.7492 98.538L28.8002 97.0388L28.6122 97.0324L28.4286 97.0726L28.7492 98.538ZM31.4322 98.6291L31.3813 100.128L31.639 100.137L31.8848 100.059L31.4322 98.6291ZM33.9895 97.8198L33.9404 96.3206L33.7339 96.3273L33.5369 96.3897L33.9895 97.8198ZM36.641 97.7329L36.6901 99.2321L36.797 99.2286L36.9023 99.21L36.641 97.7329ZM39.2465 97.2719L39.2861 95.7725L39.1345 95.7685L38.9851 95.7949L39.2465 97.2719ZM41.9137 97.3424L41.8741 98.8419L42.1158 98.8482L42.3473 98.7784L41.9137 97.3424ZM44.4825 96.5668L44.4081 95.0687L44.2247 95.0778L44.0489 95.1309L44.4825 96.5668ZM47.1314 96.4354L47.2058 97.9335L47.219 97.9329L47.2323 97.932L47.1314 96.4354ZM49.7703 96.2574L49.8712 97.754L49.8724 97.7539L49.7703 96.2574ZM52.4028 96.0778L52.44 94.5782L52.3703 94.5765L52.3007 94.5812L52.4028 96.0778ZM55.0579 96.1437L55.0206 97.6432L55.1815 97.6472L55.3395 97.617L55.0579 96.1437ZM57.6483 95.6485L57.5732 94.1504L57.4691 94.1556L57.3667 94.1752L57.6483 95.6485ZM60.2853 95.5164L60.3814 94.0195L60.2958 94.014L60.2103 94.0183L60.2853 95.5164ZM62.9362 95.6865L62.8402 97.1834L63.0337 97.1958L63.2241 97.1586L62.9362 95.6865ZM65.5566 95.1739L65.5835 93.6741L65.4246 93.6713L65.2687 93.7018L65.5566 95.1739ZM68.201 95.2212L68.2695 93.7228L68.2487 93.7218L68.2279 93.7215L68.201 95.2212ZM70.8412 95.3418L70.7728 96.8402L70.8569 96.8441L70.9409 96.8385L70.8412 95.3418ZM73.4831 95.1658L73.5407 93.6669L73.462 93.6638L73.3834 93.6691L73.4831 95.1658ZM76.1239 95.2673L76.4462 93.8024L76.3154 93.7736L76.1816 93.7684L76.1239 95.2673ZM78.7225 95.839L78.4002 97.304L78.6008 97.3481L78.8059 97.3367L78.7225 95.839ZM81.4003 95.6897L81.8913 94.2724L81.6119 94.1756L81.3168 94.192L81.4003 95.6897ZM83.9281 96.5654L83.4371 97.9828L83.5348 98.0166L83.6361 98.0367L83.9281 96.5654ZM86.5118 97.0782L86.2198 98.5495L86.3537 98.5761L86.4901 98.5781L86.5118 97.0782ZM89.1639 97.1165L89.1423 98.6164L90.3649 98.634L90.6286 97.4401L89.1639 97.1165ZM89.6032 95.1282L91.0679 95.4518L91.0819 95.3882L91.0904 95.3236L89.6032 95.1282ZM89.9492 92.4947L91.4365 92.6901L91.4475 92.606L91.449 92.5212L89.9492 92.4947ZM89.9945 89.9327L90.31 88.4662L88.5269 88.0826L88.4947 89.9062L89.9945 89.9327ZM47.8703 89L47.5538 87.5338L47.456 87.5549L47.7725 89.0211L48.089 90.4873L48.1868 90.4662L47.8703 89ZM47.7725 89.0211L47.0011 87.7347L44.8797 89.0068L45.6512 90.2932L46.4226 91.5797L48.544 90.3075L47.7725 89.0211ZM45.6512 90.2932L45.62 88.7936L42.9628 88.8488L42.994 90.3485L43.0252 91.8482L45.6823 91.7929L45.6512 90.2932ZM42.994 90.3485L42.6409 88.8907L40.0628 89.5151L40.4159 90.973L40.769 92.4308L43.3471 91.8063L42.994 90.3485ZM40.4159 90.973L40.1378 89.499L37.5399 89.9891L37.818 91.4631L38.0961 92.9371L40.694 92.447L40.4159 90.973ZM37.818 91.4631L37.712 89.9669L35.0708 90.1539L35.1767 91.6502L35.2827 93.1464L37.924 92.9594L37.818 91.4631ZM35.1767 91.6502L34.9599 90.1659L32.3474 90.5476L32.5642 92.0318L32.781 93.5161L35.3936 93.1344L35.1767 91.6502ZM32.5642 92.0318L32.2385 90.5676L29.6547 91.1423L29.9804 92.6066L30.3061 94.0708L32.8899 93.496L32.5642 92.0318ZM29.9804 92.6066L29.8069 91.1166L27.1821 91.4222L27.3555 92.9122L27.529 94.4021L30.1539 94.0965L29.9804 92.6066ZM27.3555 92.9122L27.3249 91.4125L24.6647 91.4668L24.6953 92.9665L24.7259 94.4662L27.3861 94.4119L27.3555 92.9122ZM24.6953 92.9665L24.2671 91.5289L21.7077 92.2912L22.1359 93.7288L22.5641 95.1664L25.1235 94.4041L24.6953 92.9665ZM22.1359 93.7288L21.4512 92.3942L19.4246 93.434L20.1094 94.7686L20.7942 96.1032L22.8207 95.0634L22.1359 93.7288ZM20.1094 94.7686L18.6165 94.9144L18.8724 97.5343L20.3653 97.3885L21.8582 97.2427L21.6023 94.6228L20.1094 94.7686ZM20.3653 97.3885L18.9135 97.7656L19.5414 100.183L20.9933 99.8064L22.4451 99.4293L21.8171 97.0114L20.3653 97.3885ZM20.9933 99.8064L21.0659 101.305L23.659 101.179L23.5863 99.6806L23.5137 98.1824L20.9206 98.3081L20.9933 99.8064ZM23.5863 99.6806L23.9139 101.144L26.4871 100.568L26.1595 99.1047L25.8319 97.6409L23.2587 98.2168L23.5863 99.6806ZM26.1595 99.1047L26.4801 100.57L29.0699 100.003L28.7492 98.538L28.4286 97.0726L25.8388 97.6394L26.1595 99.1047ZM28.7492 98.538L28.6983 100.037L31.3813 100.128L31.4322 98.6291L31.4831 97.13L28.8002 97.0388L28.7492 98.538ZM31.4322 98.6291L31.8848 100.059L34.4421 99.2499L33.9895 97.8198L33.5369 96.3897L30.9796 97.199L31.4322 98.6291ZM33.9895 97.8198L34.0386 99.319L36.6901 99.2321L36.641 97.7329L36.5919 96.2337L33.9404 96.3206L33.9895 97.8198ZM36.641 97.7329L36.9023 99.21L39.5078 98.749L39.2465 97.2719L38.9851 95.7949L36.3796 96.2559L36.641 97.7329ZM39.2465 97.2719L39.2069 98.7714L41.8741 98.8419L41.9137 97.3424L41.9533 95.8429L39.2861 95.7725L39.2465 97.2719ZM41.9137 97.3424L42.3473 98.7784L44.916 98.0028L44.4825 96.5668L44.0489 95.1309L41.4802 95.9064L41.9137 97.3424ZM44.4825 96.5668L44.5568 98.065L47.2058 97.9335L47.1314 96.4354L47.057 94.9372L44.4081 95.0687L44.4825 96.5668ZM47.1314 96.4354L47.2323 97.932L49.8712 97.754L49.7703 96.2574L49.6694 94.7608L47.0305 94.9388L47.1314 96.4354ZM49.7703 96.2574L49.8724 97.7539L52.5049 97.5743L52.4028 96.0778L52.3007 94.5812L49.6682 94.7609L49.7703 96.2574ZM52.4028 96.0778L52.3656 97.5773L55.0206 97.6432L55.0579 96.1437L55.0951 94.6441L52.44 94.5782L52.4028 96.0778ZM55.0579 96.1437L55.3395 97.617L57.9299 97.1219L57.6483 95.6485L57.3667 94.1752L54.7763 94.6703L55.0579 96.1437ZM57.6483 95.6485L57.7233 97.1467L60.3604 97.0145L60.2853 95.5164L60.2103 94.0183L57.5732 94.1504L57.6483 95.6485ZM60.2853 95.5164L60.1893 97.0133L62.8402 97.1834L62.9362 95.6865L63.0322 94.1895L60.3814 94.0195L60.2853 95.5164ZM62.9362 95.6865L63.2241 97.1586L65.8446 96.646L65.5566 95.1739L65.2687 93.7018L62.6483 94.2143L62.9362 95.6865ZM65.5566 95.1739L65.5298 96.6737L68.1742 96.721L68.201 95.2212L68.2279 93.7215L65.5835 93.6741L65.5566 95.1739ZM68.201 95.2212L68.1326 96.7197L70.7728 96.8402L70.8412 95.3418L70.9096 93.8433L68.2695 93.7228L68.201 95.2212ZM70.8412 95.3418L70.9409 96.8385L73.5828 96.6624L73.4831 95.1658L73.3834 93.6691L70.7415 93.8451L70.8412 95.3418ZM73.4831 95.1658L73.4254 96.6646L76.0663 96.7662L76.1239 95.2673L76.1816 93.7684L73.5407 93.6669L73.4831 95.1658ZM76.1239 95.2673L75.8016 96.7323L78.4002 97.304L78.7225 95.839L79.0447 94.374L76.4462 93.8024L76.1239 95.2673ZM78.7225 95.839L78.8059 97.3367L81.4838 97.1874L81.4003 95.6897L81.3168 94.192L78.639 94.3413L78.7225 95.839ZM81.4003 95.6897L80.9093 97.1071L83.4371 97.9828L83.9281 96.5654L84.4192 95.1481L81.8913 94.2724L81.4003 95.6897ZM83.9281 96.5654L83.6361 98.0367L86.2198 98.5495L86.5118 97.0782L86.8038 95.6069L84.2202 95.0941L83.9281 96.5654ZM86.5118 97.0782L86.4901 98.5781L89.1423 98.6164L89.1639 97.1165L89.1856 95.6167L86.5335 95.5784L86.5118 97.0782ZM89.1639 97.1165L90.6286 97.4401L91.0679 95.4518L89.6032 95.1282L88.1385 94.8047L87.6993 96.793L89.1639 97.1165ZM89.6032 95.1282L91.0904 95.3236L91.4365 92.6901L89.9492 92.4947L88.462 92.2992L88.116 94.9328L89.6032 95.1282ZM89.9492 92.4947L91.449 92.5212L91.4942 89.9591L89.9945 89.9327L88.4947 89.9062L88.4495 92.4682L89.9492 92.4947ZM89.9945 89.9327L89.679 91.3991L89.6845 91.4003L90 89.9338L90.3155 88.4674L90.31 88.4662L89.9945 89.9327Z" fill="black"/>
<path d="M54.0971 78.0239L54.865 76.7353L54.6725 76.6206L54.4549 76.5672L54.0971 78.0239ZM56.1892 79.2707L55.4213 80.5592L55.6003 80.6659L55.8015 80.7197L56.1892 79.2707ZM58.7241 79.9489L58.3364 81.398L58.4863 81.4381L58.6413 81.4467L58.7241 79.9489ZM61.3781 80.0958L61.5453 78.6051L61.5032 78.6004L61.461 78.5981L61.3781 80.0958ZM64.0046 80.3903L64.3453 78.9294L64.2594 78.9094L64.1717 78.8996L64.0046 80.3903ZM66.5988 80.9952L66.2582 82.456L66.312 82.4685L66.3666 82.4771L66.5988 80.9952ZM69.1977 81.4025L68.9655 82.8844L69.0211 82.8931L69.0773 82.8977L69.1977 81.4025ZM71.8375 81.6152L72.1063 80.1395L72.0326 80.1261L71.958 80.12L71.8375 81.6152ZM74.4413 82.0896L74.8411 80.6438L74.7763 80.6259L74.7101 80.6139L74.4413 82.0896ZM77.0066 82.7989L76.6068 84.2446L76.811 84.3011L77.0227 84.2988L77.0066 82.7989ZM79.6807 82.7701L79.9862 81.3016L79.8271 81.2685L79.6646 81.2702L79.6807 82.7701ZM82.2699 83.3088L81.9643 84.7774L82.0511 84.7954L82.1395 84.8031L82.2699 83.3088ZM84.9073 83.539L85.3128 82.0948L85.1776 82.0569L85.0377 82.0447L84.9073 83.539ZM87.4696 84.2584L87.0641 85.7026L87.1755 85.7339L87.2905 85.7477L87.4696 84.2584ZM90.093 84.5739L90.2731 83.0848L90.2721 83.0847L90.093 84.5739ZM92.7137 84.8908L92.5336 86.38L92.5557 86.3827L92.5778 86.3847L92.7137 84.8908ZM95.3506 85.1307L95.833 83.7104L95.6641 83.6531L95.4865 83.6369L95.3506 85.1307ZM97.8954 85.9951L97.413 87.4154L97.6628 87.5003L97.9266 87.4948L97.8954 85.9951ZM100.575 85.9395L100.942 84.4851L100.746 84.4356L100.544 84.4398L100.575 85.9395ZM103.145 86.5885L102.778 88.0428L102.886 88.07L102.996 88.081L103.145 86.5885ZM105.777 86.8519L106.215 85.4174L106.074 85.3741L105.926 85.3594L105.777 86.8519ZM108.329 87.6318L107.891 89.0663L108.125 89.1377L108.369 89.1313L108.329 87.6318ZM111.014 87.5608L111.83 86.3024L111.44 86.0491L110.974 86.0614L111.014 87.5608ZM113.077 88.8993L114.267 89.8133L115.257 88.5251L113.894 87.6408L113.077 88.8993ZM54 78L53.6422 79.4567L53.7393 79.4806L54.0971 78.0239L54.4549 76.5672L54.3578 76.5433L54 78ZM54.0971 78.0239L53.3292 79.3124L55.4213 80.5592L56.1892 79.2707L56.9572 77.9822L54.865 76.7353L54.0971 78.0239ZM56.1892 79.2707L55.8015 80.7197L58.3364 81.398L58.7241 79.9489L59.1118 78.4999L56.577 77.8217L56.1892 79.2707ZM58.7241 79.9489L58.6413 81.4467L61.2953 81.5935L61.3781 80.0958L61.461 78.5981L58.807 78.4512L58.7241 79.9489ZM61.3781 80.0958L61.211 81.5865L63.8375 81.8809L64.0046 80.3903L64.1717 78.8996L61.5453 78.6051L61.3781 80.0958ZM64.0046 80.3903L63.664 81.8511L66.2582 82.456L66.5988 80.9952L66.9395 79.5344L64.3453 78.9294L64.0046 80.3903ZM66.5988 80.9952L66.3666 82.4771L68.9655 82.8844L69.1977 81.4025L69.43 79.9206L66.8311 79.5133L66.5988 80.9952ZM69.1977 81.4025L69.0773 82.8977L71.717 83.1104L71.8375 81.6152L71.958 80.12L69.3182 79.9074L69.1977 81.4025ZM71.8375 81.6152L71.5687 83.0909L74.1725 83.5653L74.4413 82.0896L74.7101 80.6139L72.1063 80.1395L71.8375 81.6152ZM74.4413 82.0896L74.0415 83.5353L76.6068 84.2446L77.0066 82.7989L77.4064 81.3531L74.8411 80.6438L74.4413 82.0896ZM77.0066 82.7989L77.0227 84.2988L79.6968 84.2701L79.6807 82.7701L79.6646 81.2702L76.9905 81.299L77.0066 82.7989ZM79.6807 82.7701L79.3751 84.2387L81.9643 84.7774L82.2699 83.3088L82.5754 81.8403L79.9862 81.3016L79.6807 82.7701ZM82.2699 83.3088L82.1395 84.8031L84.7769 85.0333L84.9073 83.539L85.0377 82.0447L82.4003 81.8145L82.2699 83.3088ZM84.9073 83.539L84.5018 84.9831L87.0641 85.7026L87.4696 84.2584L87.8751 82.8143L85.3128 82.0948L84.9073 83.539ZM87.4696 84.2584L87.2905 85.7477L89.9139 86.0632L90.093 84.5739L90.2721 83.0847L87.6487 82.7692L87.4696 84.2584ZM90.093 84.5739L89.9129 86.0631L92.5336 86.38L92.7137 84.8908L92.8938 83.4017L90.2731 83.0848L90.093 84.5739ZM92.7137 84.8908L92.5778 86.3847L95.2147 86.6246L95.3506 85.1307L95.4865 83.6369L92.8496 83.397L92.7137 84.8908ZM95.3506 85.1307L94.8682 86.551L97.413 87.4154L97.8954 85.9951L98.3778 84.5748L95.833 83.7104L95.3506 85.1307ZM97.8954 85.9951L97.9266 87.4948L100.606 87.4391L100.575 85.9395L100.544 84.4398L97.8643 84.4954L97.8954 85.9951ZM100.575 85.9395L100.208 87.3938L102.778 88.0428L103.145 86.5885L103.513 85.1341L100.942 84.4851L100.575 85.9395ZM103.145 86.5885L102.996 88.081L105.628 88.3445L105.777 86.8519L105.926 85.3594L103.295 85.0959L103.145 86.5885ZM105.777 86.8519L105.339 88.2864L107.891 89.0663L108.329 87.6318L108.768 86.1973L106.215 85.4174L105.777 86.8519ZM108.329 87.6318L108.369 89.1313L111.054 89.0603L111.014 87.5608L110.974 86.0614L108.29 86.1323L108.329 87.6318ZM111.014 87.5608L110.198 88.8193L112.261 90.1577L113.077 88.8993L113.894 87.6408L111.83 86.3024L111.014 87.5608ZM113.077 88.8993L111.888 87.9852L111.811 88.0859L113 89L114.189 89.9141L114.267 89.8133L113.077 88.8993Z" fill="black"/>
<path d="M66 57.1H64.5V57.1323L64.5014 57.1645L66 57.1ZM66.1093 59.64L67.6011 59.797L67.6127 59.6865L67.6079 59.5755L66.1093 59.64ZM65.8314 62.28L64.3397 62.123L64.3238 62.2739L64.3385 62.425L65.8314 62.28ZM66.0878 64.92L67.5866 64.8596L67.5849 64.8172L67.5808 64.775L66.0878 64.92ZM66.1942 67.56L67.6897 67.6763L67.6966 67.588L67.693 67.4996L66.1942 67.56ZM65.9889 70.2L64.4935 70.0837L64.4891 70.1392L64.489 70.1948L65.9889 70.2ZM65.9798 72.84L64.4798 72.8348L64.4796 72.8912L64.4837 72.9474L65.9798 72.84ZM66.1694 75.48L67.5956 75.9446L67.6866 75.6654L67.6655 75.3726L66.1694 75.48ZM66 57H64.5V57.1H66H67.5V57H66ZM66 57.1L64.5014 57.1645L64.6107 59.7045L66.1093 59.64L67.6079 59.5755L67.4986 57.0355L66 57.1ZM66.1093 59.64L64.6176 59.483L64.3397 62.123L65.8314 62.28L67.3232 62.437L67.6011 59.797L66.1093 59.64ZM65.8314 62.28L64.3385 62.425L64.5948 65.065L66.0878 64.92L67.5808 64.775L67.3244 62.135L65.8314 62.28ZM66.0878 64.92L64.589 64.9804L64.6954 67.6204L66.1942 67.56L67.693 67.4996L67.5866 64.8596L66.0878 64.92ZM66.1942 67.56L64.6987 67.4437L64.4935 70.0837L65.9889 70.2L67.4844 70.3163L67.6897 67.6763L66.1942 67.56ZM65.9889 70.2L64.489 70.1948L64.4798 72.8348L65.9798 72.84L67.4798 72.8452L67.4889 70.2052L65.9889 70.2ZM65.9798 72.84L64.4837 72.9474L64.6732 75.5874L66.1694 75.48L67.6655 75.3726L67.476 72.7326L65.9798 72.84ZM66.1694 75.48L64.7431 75.0154L64.5738 75.5354L66 76L67.4262 76.4646L67.5956 75.9446L66.1694 75.48Z" fill="black"/>
<path d="M59.2492 75.9L60.7489 75.8687L60.7476 75.8099L60.7418 75.7514L59.2492 75.9ZM58.9979 73.377L57.503 73.2534L57.4918 73.3896L57.5053 73.5256L58.9979 73.377ZM59.2168 70.7288L60.7117 70.8524L60.7236 70.7095L60.7081 70.5669L59.2168 70.7288ZM58.9301 68.0876L57.4317 68.1561L57.4338 68.2029L57.4389 68.2495L58.9301 68.0876ZM58.8094 65.4477L57.3137 65.3335L57.3068 65.4248L57.311 65.5162L58.8094 65.4477ZM59.0111 62.8053L60.5067 62.9194L60.5108 62.8663L60.5111 62.813L59.0111 62.8053ZM59.0247 60.1636L60.5247 60.1713L60.5249 60.1168L60.5213 60.0624L59.0247 60.1636ZM58.846 57.5203L57.3469 57.4688L57.3443 57.5452L57.3494 57.6215L58.846 57.5203ZM58.9368 54.8777L57.4486 54.6895L57.44 54.7576L57.4377 54.8263L58.9368 54.8777ZM59.2705 52.2392L60.7586 52.4275L60.782 52.2424L60.7594 52.0573L59.2705 52.2392ZM58.9435 49.5632L57.6989 48.7259L57.3867 49.1899L57.4546 49.7452L58.9435 49.5632ZM60.4403 47.3385L59.8137 45.9756L59.4309 46.1516L59.1958 46.5012L60.4403 47.3385ZM62.8677 46.2224L62.6107 44.7446L62.4184 44.778L62.2411 44.8595L62.8677 46.2224ZM65.4913 45.7661L65.7483 47.244L65.8365 47.2286L65.9223 47.2029L65.4913 45.7661ZM67.9864 45.0176L68.418 43.5811L67.9867 43.4515L67.5554 43.5809L67.9864 45.0176ZM70.5224 45.7795L71.1086 44.3987L71.0328 44.3666L70.954 44.3429L70.5224 45.7795ZM72.971 46.8189L74.3745 46.2896L74.148 45.689L73.5571 45.4382L72.971 46.8189ZM73.7958 49.006L75.2732 48.7467L75.2489 48.6083L75.1993 48.4767L73.7958 49.006ZM74.2592 51.647L75.7526 51.7876L75.7715 51.5866L75.7366 51.3877L74.2592 51.647ZM74.0103 54.2892L72.5169 54.1485L72.5065 54.2591L72.5125 54.37L74.0103 54.2892ZM74.1529 56.9303L75.6378 57.1427L75.6587 56.9967L75.6507 56.8494L74.1529 56.9303ZM73.775 59.5723L72.2901 59.3599L72.2552 59.6037L72.3001 59.8459L73.775 59.5723ZM74.2649 62.2135L75.7629 62.2918L75.7722 62.1145L75.7398 61.94L74.2649 62.2135ZM74.127 64.8536L72.6291 64.7754L72.6279 64.7984L72.6274 64.8214L74.127 64.8536ZM74.0703 67.4946L72.5706 67.4624L72.57 67.491L72.5705 67.5196L74.0703 67.4946ZM74.1142 70.1352L75.6028 70.3202L75.6158 70.2156L75.614 70.1103L74.1142 70.1352ZM73.7861 72.7752L72.2976 72.5902L72.2777 72.7506L72.2924 72.9115L73.7861 72.7752ZM74.0274 75.4182L75.5258 75.4889L75.5307 75.3852L75.5212 75.2818L74.0274 75.4182ZM59.2513 76L60.7509 75.9686L60.7489 75.8687L59.2492 75.9L57.7495 75.9314L57.7516 76.0313L59.2513 76ZM59.2492 75.9L60.7418 75.7514L60.4906 73.2283L58.9979 73.377L57.5053 73.5256L57.7566 76.0487L59.2492 75.9ZM58.9979 73.377L60.4928 73.5005L60.7117 70.8524L59.2168 70.7288L57.7219 70.6052L57.503 73.2534L58.9979 73.377ZM59.2168 70.7288L60.7081 70.5669L60.4214 67.9257L58.9301 68.0876L57.4389 68.2495L57.7256 70.8907L59.2168 70.7288ZM58.9301 68.0876L60.4285 68.0191L60.3078 65.3792L58.8094 65.4477L57.311 65.5162L57.4317 68.1561L58.9301 68.0876ZM58.8094 65.4477L60.305 65.5619L60.5067 62.9194L59.0111 62.8053L57.5154 62.6911L57.3137 65.3335L58.8094 65.4477ZM59.0111 62.8053L60.5111 62.813L60.5247 60.1713L59.0247 60.1636L57.5247 60.1559L57.5111 62.7975L59.0111 62.8053ZM59.0247 60.1636L60.5213 60.0624L60.3426 57.4191L58.846 57.5203L57.3494 57.6215L57.5281 60.2648L59.0247 60.1636ZM58.846 57.5203L60.3451 57.5718L60.4359 54.9292L58.9368 54.8777L57.4377 54.8263L57.3469 57.4688L58.846 57.5203ZM58.9368 54.8777L60.4249 55.066L60.7586 52.4275L59.2705 52.2392L57.7823 52.051L57.4486 54.6895L58.9368 54.8777ZM59.2705 52.2392L60.7594 52.0573L60.4324 49.3813L58.9435 49.5632L57.4546 49.7452L57.7816 52.4212L59.2705 52.2392ZM58.9435 49.5632L60.188 50.4006L61.6848 48.1758L60.4403 47.3385L59.1958 46.5012L57.6989 48.7259L58.9435 49.5632ZM60.4403 47.3385L61.0669 48.7013L63.4944 47.5852L62.8677 46.2224L62.2411 44.8595L59.8137 45.9756L60.4403 47.3385ZM62.8677 46.2224L63.1247 47.7002L65.7483 47.244L65.4913 45.7661L65.2343 44.2883L62.6107 44.7446L62.8677 46.2224ZM65.4913 45.7661L65.9223 47.2029L68.4174 46.4544L67.9864 45.0176L67.5554 43.5809L65.0603 44.3294L65.4913 45.7661ZM67.9864 45.0176L67.5549 46.4542L70.0909 47.216L70.5224 45.7795L70.954 44.3429L68.418 43.5811L67.9864 45.0176ZM70.5224 45.7795L69.9363 47.1602L72.3849 48.1996L72.971 46.8189L73.5571 45.4382L71.1086 44.3987L70.5224 45.7795ZM72.971 46.8189L71.5675 47.3482L72.3923 49.5353L73.7958 49.006L75.1993 48.4767L74.3745 46.2896L72.971 46.8189ZM73.7958 49.006L72.3183 49.2653L72.7818 51.9062L74.2592 51.647L75.7366 51.3877L75.2732 48.7467L73.7958 49.006ZM74.2592 51.647L72.7658 51.5063L72.5169 54.1485L74.0103 54.2892L75.5037 54.4298L75.7526 51.7876L74.2592 51.647ZM74.0103 54.2892L72.5125 54.37L72.6551 57.0112L74.1529 56.9303L75.6507 56.8494L75.5081 54.2083L74.0103 54.2892ZM74.1529 56.9303L72.668 56.7179L72.2901 59.3599L73.775 59.5723L75.2599 59.7847L75.6378 57.1427L74.1529 56.9303ZM73.775 59.5723L72.3001 59.8459L72.7901 62.4871L74.2649 62.2135L75.7398 61.94L75.2498 59.2987L73.775 59.5723ZM74.2649 62.2135L72.767 62.1353L72.6291 64.7754L74.127 64.8536L75.625 64.9319L75.7629 62.2918L74.2649 62.2135ZM74.127 64.8536L72.6274 64.8214L72.5706 67.4624L74.0703 67.4946L75.57 67.5268L75.6267 64.8858L74.127 64.8536ZM74.0703 67.4946L72.5705 67.5196L72.6144 70.1601L74.1142 70.1352L75.614 70.1103L75.5701 67.4697L74.0703 67.4946ZM74.1142 70.1352L72.6257 69.9502L72.2976 72.5902L73.7861 72.7752L75.2747 72.9601L75.6028 70.3202L74.1142 70.1352ZM73.7861 72.7752L72.2924 72.9115L72.5336 75.5546L74.0274 75.4182L75.5212 75.2818L75.2799 72.6388L73.7861 72.7752ZM74.0274 75.4182L72.5291 75.3476L72.5017 75.9293L74 76L75.4983 76.0706L75.5258 75.4889L74.0274 75.4182Z" fill="black"/>
<path d="M68 30.1H66.5V30.1323L66.5014 30.1645L68 30.1ZM68.1093 32.64L69.6011 32.797L69.6127 32.6865L69.6079 32.5755L68.1093 32.64ZM67.8314 35.28L66.3397 35.123L66.3238 35.2739L66.3385 35.425L67.8314 35.28ZM68.0878 37.92L69.5866 37.8596L69.5849 37.8172L69.5808 37.775L68.0878 37.92ZM68.1942 40.56L69.6897 40.6763L69.6966 40.588L69.693 40.4996L68.1942 40.56ZM67.9889 43.2L66.4935 43.0837L66.4892 43.138L66.489 43.1924L67.9889 43.2ZM67.9798 45L66.4798 44.9924L66.4722 46.5H67.9798V45ZM68 30H66.5V30.1H68H69.5V30H68ZM68 30.1L66.5014 30.1645L66.6107 32.7045L68.1093 32.64L69.6079 32.5755L69.4986 30.0355L68 30.1ZM68.1093 32.64L66.6176 32.483L66.3397 35.123L67.8314 35.28L69.3232 35.437L69.6011 32.797L68.1093 32.64ZM67.8314 35.28L66.3385 35.425L66.5948 38.065L68.0878 37.92L69.5808 37.775L69.3244 35.135L67.8314 35.28ZM68.0878 37.92L66.589 37.9804L66.6954 40.6204L68.1942 40.56L69.693 40.4996L69.5866 37.8596L68.0878 37.92ZM68.1942 40.56L66.6987 40.4437L66.4935 43.0837L67.9889 43.2L69.4844 43.3163L69.6897 40.6763L68.1942 40.56ZM67.9889 43.2L66.489 43.1924L66.4798 44.9924L67.9798 45L69.4798 45.0076L69.4889 43.2076L67.9889 43.2ZM67.9798 45V46.5H68V45V43.5H67.9798V45Z" fill="black"/>
<path d="M52.9003 103.008L52.7793 101.513L52.7455 101.516L52.7118 101.52L52.9003 103.008ZM50.3779 103.328L50.3396 104.827L50.4534 104.83L50.5664 104.816L50.3779 103.328ZM47.7242 103.26L47.7624 101.76L47.6112 101.757L47.4622 101.783L47.7242 103.26ZM45.1125 103.723L45.2939 105.212L45.3343 105.207L45.3744 105.2L45.1125 103.723ZM42.4903 104.042L42.4942 105.542L42.5833 105.542L42.6716 105.531L42.4903 104.042ZM39.8452 104.049L39.8413 102.549L39.7904 102.549L39.7396 102.553L39.8452 104.049ZM37.209 104.235L37.1034 102.739L37.0484 102.743L36.9938 102.751L37.209 104.235ZM34.5892 104.615L34.6547 106.114L34.7299 106.11L34.8044 106.1L34.5892 104.615ZM31.9492 104.731L31.8811 106.229L31.9479 106.232L32.0147 106.229L31.9492 104.731ZM29.2919 104.61L29.3599 103.112L29.1292 103.101L28.9059 103.161L29.2919 104.61ZM27.0171 105.216L25.5218 105.334L25.6638 107.128L27.403 106.665L27.0171 105.216ZM53 103L52.879 101.505L52.7793 101.513L52.9003 103.008L53.0213 104.503L53.121 104.495L53 103ZM52.9003 103.008L52.7118 101.52L50.1894 101.839L50.3779 103.328L50.5664 104.816L53.0888 104.496L52.9003 103.008ZM50.3779 103.328L50.4161 101.828L47.7624 101.76L47.7242 103.26L47.6859 104.759L50.3396 104.827L50.3779 103.328ZM47.7242 103.26L47.4622 101.783L44.8506 102.246L45.1125 103.723L45.3744 105.2L47.9861 104.737L47.7242 103.26ZM45.1125 103.723L44.9312 102.234L42.3089 102.553L42.4903 104.042L42.6716 105.531L45.2939 105.212L45.1125 103.723ZM42.4903 104.042L42.4864 102.542L39.8413 102.549L39.8452 104.049L39.8491 105.549L42.4942 105.542L42.4903 104.042ZM39.8452 104.049L39.7396 102.553L37.1034 102.739L37.209 104.235L37.3146 105.732L39.9508 105.546L39.8452 104.049ZM37.209 104.235L36.9938 102.751L34.3739 103.131L34.5892 104.615L34.8044 106.1L37.4242 105.72L37.209 104.235ZM34.5892 104.615L34.5236 103.117L31.8836 103.232L31.9492 104.731L32.0147 106.229L34.6547 106.114L34.5892 104.615ZM31.9492 104.731L32.0172 103.232L29.3599 103.112L29.2919 104.61L29.2238 106.109L31.8811 106.229L31.9492 104.731ZM29.2919 104.61L28.9059 103.161L26.6311 103.766L27.0171 105.216L27.403 106.665L29.6778 106.06L29.2919 104.61ZM27.0171 105.216L28.5124 105.097L28.4953 104.882L27 105L25.5047 105.118L25.5218 105.334L27.0171 105.216Z" fill="black"/>
<path d="M66 96.1H64.5V96.1323L64.5014 96.1645L66 96.1ZM66.1093 98.64L67.6011 98.797L67.6127 98.6865L67.6079 98.5755L66.1093 98.64ZM65.8314 101.28L64.3397 101.123L64.3238 101.274L64.3385 101.425L65.8314 101.28ZM66.0878 103.92L67.5866 103.86L67.5849 103.817L67.5808 103.775L66.0878 103.92ZM66.1942 106.56L67.6897 106.676L67.6966 106.588L67.693 106.5L66.1942 106.56ZM65.9889 109.2L64.4935 109.084L64.4881 109.152L64.4891 109.221L65.9889 109.2ZM66 96H64.5V96.1H66H67.5V96H66ZM66 96.1L64.5014 96.1645L64.6107 98.7045L66.1093 98.64L67.6079 98.5755L67.4986 96.0355L66 96.1ZM66.1093 98.64L64.6176 98.483L64.3397 101.123L65.8314 101.28L67.3232 101.437L67.6011 98.797L66.1093 98.64ZM65.8314 101.28L64.3385 101.425L64.5948 104.065L66.0878 103.92L67.5808 103.775L67.3244 101.135L65.8314 101.28ZM66.0878 103.92L64.589 103.98L64.6954 106.62L66.1942 106.56L67.693 106.5L67.5866 103.86L66.0878 103.92ZM66.1942 106.56L64.6987 106.444L64.4935 109.084L65.9889 109.2L67.4844 109.316L67.6897 106.676L66.1942 106.56ZM65.9889 109.2L64.4891 109.221L64.5001 110.021L66 110L67.4999 109.979L67.4888 109.179L65.9889 109.2Z" fill="black"/>
<path d="M73 97.1H71.5V97.1323L71.5014 97.1645L73 97.1ZM73.1093 99.64L74.6011 99.797L74.6127 99.6865L74.6079 99.5755L73.1093 99.64ZM72.8314 102.28L71.3397 102.123L71.3238 102.274L71.3385 102.425L72.8314 102.28ZM73.0878 104.92L74.5866 104.86L74.5849 104.817L74.5808 104.775L73.0878 104.92ZM73.1942 107.56L74.6889 107.686L74.6968 107.593L74.693 107.5L73.1942 107.56ZM72.9889 110L71.4942 109.874L71.3575 111.5H72.9889V110ZM73 97H71.5V97.1H73H74.5V97H73ZM73 97.1L71.5014 97.1645L71.6107 99.7045L73.1093 99.64L74.6079 99.5755L74.4986 97.0355L73 97.1ZM73.1093 99.64L71.6176 99.483L71.3397 102.123L72.8314 102.28L74.3232 102.437L74.6011 99.797L73.1093 99.64ZM72.8314 102.28L71.3385 102.425L71.5948 105.065L73.0878 104.92L74.5808 104.775L74.3244 102.135L72.8314 102.28ZM73.0878 104.92L71.589 104.98L71.6954 107.62L73.1942 107.56L74.693 107.5L74.5866 104.86L73.0878 104.92ZM73.1942 107.56L71.6995 107.434L71.4942 109.874L72.9889 110L74.4837 110.126L74.6889 107.686L73.1942 107.56ZM72.9889 110V111.5H73V110V108.5H72.9889V110Z" fill="black"/>
<path d="M59 97.1H57.5V97.1323L57.5014 97.1645L59 97.1ZM59.1093 99.64L60.6011 99.797L60.6127 99.6865L60.6079 99.5755L59.1093 99.64ZM58.8314 102.28L57.3397 102.123L57.3238 102.274L57.3385 102.425L58.8314 102.28ZM59.0878 104.92L60.5866 104.86L60.5849 104.817L60.5808 104.775L59.0878 104.92ZM59.1942 107.56L60.6889 107.686L60.6968 107.593L60.693 107.5L59.1942 107.56ZM58.9889 110L57.4942 109.874L57.3575 111.5H58.9889V110ZM59 97H57.5V97.1H59H60.5V97H59ZM59 97.1L57.5014 97.1645L57.6107 99.7045L59.1093 99.64L60.6079 99.5755L60.4986 97.0355L59 97.1ZM59.1093 99.64L57.6176 99.483L57.3397 102.123L58.8314 102.28L60.3232 102.437L60.6011 99.797L59.1093 99.64ZM58.8314 102.28L57.3385 102.425L57.5948 105.065L59.0878 104.92L60.5808 104.775L60.3244 102.135L58.8314 102.28ZM59.0878 104.92L57.589 104.98L57.6954 107.62L59.1942 107.56L60.693 107.5L60.5866 104.86L59.0878 104.92ZM59.1942 107.56L57.6995 107.434L57.4942 109.874L58.9889 110L60.4837 110.126L60.6889 107.686L59.1942 107.56ZM58.9889 110V111.5H59V110V108.5H58.9889V110Z" fill="black"/>
<path d="M80 97.1H78.5V97.1323L78.5014 97.1645L80 97.1ZM80.1093 99.64L81.6011 99.797L81.6127 99.6865L81.6079 99.5755L80.1093 99.64ZM79.8314 102.28L78.3397 102.123L78.3238 102.274L78.3385 102.425L79.8314 102.28ZM80.0878 104.92L81.5866 104.86L81.5849 104.817L81.5808 104.775L80.0878 104.92ZM80.1942 107.56L81.6889 107.686L81.6968 107.593L81.693 107.5L80.1942 107.56ZM79.9889 110L78.4942 109.874L78.3575 111.5H79.9889V110ZM80 97H78.5V97.1H80H81.5V97H80ZM80 97.1L78.5014 97.1645L78.6107 99.7045L80.1093 99.64L81.6079 99.5755L81.4986 97.0355L80 97.1ZM80.1093 99.64L78.6176 99.483L78.3397 102.123L79.8314 102.28L81.3232 102.437L81.6011 99.797L80.1093 99.64ZM79.8314 102.28L78.3385 102.425L78.5948 105.065L80.0878 104.92L81.5808 104.775L81.3244 102.135L79.8314 102.28ZM80.0878 104.92L78.589 104.98L78.6954 107.62L80.1942 107.56L81.693 107.5L81.5866 104.86L80.0878 104.92ZM80.1942 107.56L78.6995 107.434L78.4942 109.874L79.9889 110L81.4837 110.126L81.6889 107.686L80.1942 107.56ZM79.9889 110V111.5H80V110V108.5H79.9889V110Z" fill="black"/>
<path d="M23 101.1H21.5V101.132L21.5014 101.165L23 101.1ZM23.1093 103.64L24.6011 103.797L24.6127 103.687L24.6079 103.575L23.1093 103.64ZM22.8314 106.28L21.3397 106.123L21.3238 106.274L21.3385 106.425L22.8314 106.28ZM23.0878 108.92L24.5866 108.86L24.5849 108.817L24.5808 108.775L23.0878 108.92ZM23.1942 111.56L24.6897 111.676L24.6966 111.588L24.693 111.5L23.1942 111.56ZM22.9889 114.2L21.4935 114.084L21.4881 114.152L21.4891 114.221L22.9889 114.2ZM23 101H21.5V101.1H23H24.5V101H23ZM23 101.1L21.5014 101.165L21.6107 103.705L23.1093 103.64L24.6079 103.575L24.4986 101.035L23 101.1ZM23.1093 103.64L21.6176 103.483L21.3397 106.123L22.8314 106.28L24.3232 106.437L24.6011 103.797L23.1093 103.64ZM22.8314 106.28L21.3385 106.425L21.5948 109.065L23.0878 108.92L24.5808 108.775L24.3244 106.135L22.8314 106.28ZM23.0878 108.92L21.589 108.98L21.6954 111.62L23.1942 111.56L24.693 111.5L24.5866 108.86L23.0878 108.92ZM23.1942 111.56L21.6987 111.444L21.4935 114.084L22.9889 114.2L24.4844 114.316L24.6897 111.676L23.1942 111.56ZM22.9889 114.2L21.4891 114.221L21.5001 115.021L23 115L24.4999 114.979L24.4888 114.179L22.9889 114.2Z" fill="black"/>
<path d="M86 98.1H84.5V98.1323L84.5014 98.1645L86 98.1ZM86.1093 100.64L87.6011 100.797L87.6127 100.687L87.6079 100.575L86.1093 100.64ZM85.8314 103.28L84.3397 103.123L84.3238 103.274L84.3385 103.425L85.8314 103.28ZM86.0878 105.92L87.5866 105.86L87.5849 105.817L87.5808 105.775L86.0878 105.92ZM86.1942 108.56L87.6897 108.676L87.6966 108.588L87.693 108.5L86.1942 108.56ZM85.9889 111.2L84.4935 111.084L84.4891 111.139L84.489 111.195L85.9889 111.2ZM85.9798 113.84L84.4798 113.835L84.4796 113.903L84.4856 113.971L85.9798 113.84ZM86.1694 116V117.5H87.8068L87.6636 115.869L86.1694 116ZM86 98H84.5V98.1H86H87.5V98H86ZM86 98.1L84.5014 98.1645L84.6107 100.705L86.1093 100.64L87.6079 100.575L87.4986 98.0355L86 98.1ZM86.1093 100.64L84.6176 100.483L84.3397 103.123L85.8314 103.28L87.3232 103.437L87.6011 100.797L86.1093 100.64ZM85.8314 103.28L84.3385 103.425L84.5948 106.065L86.0878 105.92L87.5808 105.775L87.3244 103.135L85.8314 103.28ZM86.0878 105.92L84.589 105.98L84.6954 108.62L86.1942 108.56L87.693 108.5L87.5866 105.86L86.0878 105.92ZM86.1942 108.56L84.6987 108.444L84.4935 111.084L85.9889 111.2L87.4844 111.316L87.6897 108.676L86.1942 108.56ZM85.9889 111.2L84.489 111.195L84.4798 113.835L85.9798 113.84L87.4798 113.845L87.4889 111.205L85.9889 111.2ZM85.9798 113.84L84.4856 113.971L84.6751 116.131L86.1694 116L87.6636 115.869L87.4741 113.709L85.9798 113.84ZM86.1694 116V114.5H86V116V117.5H86.1694V116Z" fill="black"/>
<path d="M47 104.1H45.5V104.132L45.5014 104.165L47 104.1ZM47.1093 106.64L48.6011 106.797L48.6127 106.687L48.6079 106.575L47.1093 106.64ZM46.8314 109.28L45.3397 109.123L45.3238 109.274L45.3385 109.425L46.8314 109.28ZM47.0878 111.92L48.5866 111.86L48.5849 111.817L48.5808 111.775L47.0878 111.92ZM47.1942 114.56L48.6792 114.772L48.6985 114.636L48.693 114.5L47.1942 114.56ZM46.9889 116L45.504 115.788L45.26 117.5H46.9889V116ZM47 104H45.5V104.1H47H48.5V104H47ZM47 104.1L45.5014 104.165L45.6107 106.705L47.1093 106.64L48.6079 106.575L48.4986 104.035L47 104.1ZM47.1093 106.64L45.6176 106.483L45.3397 109.123L46.8314 109.28L48.3232 109.437L48.6011 106.797L47.1093 106.64ZM46.8314 109.28L45.3385 109.425L45.5948 112.065L47.0878 111.92L48.5808 111.775L48.3244 109.135L46.8314 109.28ZM47.0878 111.92L45.589 111.98L45.6954 114.62L47.1942 114.56L48.693 114.5L48.5866 111.86L47.0878 111.92ZM47.1942 114.56L45.7092 114.348L45.504 115.788L46.9889 116L48.4739 116.212L48.6792 114.772L47.1942 114.56ZM46.9889 116V117.5H47V116V114.5H46.9889V116Z" fill="black"/>
<path d="M60.0985 57.9829L60.3556 59.4607L60.5562 59.4258L60.7401 59.3387L60.0985 57.9829ZM62.3593 56.913L63.0009 58.2689L63.0316 58.2544L63.0615 58.2385L62.3593 56.913ZM64.6886 55.6789L64.2544 54.2431L64.115 54.2853L63.9863 54.3535L64.6886 55.6789ZM67.1656 54.9299L67.453 53.4577L67.0877 53.3864L66.7314 53.4941L67.1656 54.9299ZM69.7821 55.4406L70.3091 54.0362L70.1921 53.9923L70.0694 53.9684L69.7821 55.4406ZM72.2532 56.3679L71.7262 57.7723L71.898 57.8367L72.0804 57.8579L72.2532 56.3679ZM73.9983 56.5703L73.8254 58.0603L75.3606 58.2384L75.4928 56.6986L73.9983 56.5703ZM60 58L60.2571 59.4778L60.3556 59.4607L60.0985 57.9829L59.8414 56.5051L59.7429 56.5222L60 58ZM60.0985 57.9829L60.7401 59.3387L63.0009 58.2689L62.3593 56.913L61.7177 55.5572L59.4569 56.627L60.0985 57.9829ZM62.3593 56.913L63.0615 58.2385L65.3908 57.0044L64.6886 55.6789L63.9863 54.3535L61.657 55.5876L62.3593 56.913ZM64.6886 55.6789L65.1228 57.1147L67.5998 56.3657L67.1656 54.9299L66.7314 53.4941L64.2544 54.2431L64.6886 55.6789ZM67.1656 54.9299L66.8783 56.4021L69.4947 56.9128L69.7821 55.4406L70.0694 53.9684L67.453 53.4577L67.1656 54.9299ZM69.7821 55.4406L69.2551 56.8449L71.7262 57.7723L72.2532 56.3679L72.7802 54.9635L70.3091 54.0362L69.7821 55.4406ZM72.2532 56.3679L72.0804 57.8579L73.8254 58.0603L73.9983 56.5703L74.1711 55.0803L72.426 54.8779L72.2532 56.3679ZM73.9983 56.5703L75.4928 56.6986L75.4945 56.6785L74 56.5502L72.5055 56.422L72.5038 56.4421L73.9983 56.5703Z" fill="black"/>
<path d="M60.0994 52.9885L60.259 54.48L60.4113 54.4637L60.5572 54.4169L60.0994 52.9885ZM62.4806 52.2254L62.0298 50.7947L62.0228 50.797L62.4806 52.2254ZM64.9915 51.4342L64.7047 49.9619L64.6216 49.9781L64.5408 50.0036L64.9915 51.4342ZM67.5648 50.933L67.7457 49.4439L67.5105 49.4153L67.278 49.4606L67.5648 50.933ZM70.2047 51.2536L70.6455 49.8198L70.518 49.7806L70.3855 49.7645L70.2047 51.2536ZM72.7361 52.0317L72.2953 53.4655L72.454 53.5143L72.6196 53.5272L72.7361 52.0317ZM60 52.9991L60.1595 54.4906L60.259 54.48L60.0994 52.9885L59.9399 51.497L59.8405 51.5077L60 52.9991ZM60.0994 52.9885L60.5572 54.4169L62.9384 53.6538L62.4806 52.2254L62.0228 50.797L59.6416 51.5601L60.0994 52.9885ZM62.4806 52.2254L62.9314 53.6561L65.4423 52.8649L64.9915 51.4342L64.5408 50.0036L62.0298 50.7947L62.4806 52.2254ZM64.9915 51.4342L65.2783 52.9066L67.8517 52.4053L67.5648 50.933L67.278 49.4606L64.7047 49.9619L64.9915 51.4342ZM67.5648 50.933L67.384 52.422L70.0239 52.7426L70.2047 51.2536L70.3855 49.7645L67.7457 49.4439L67.5648 50.933ZM70.2047 51.2536L69.7639 52.6873L72.2953 53.4655L72.7361 52.0317L73.1768 50.598L70.6455 49.8198L70.2047 51.2536ZM72.7361 52.0317L72.6196 53.5272L73.8836 53.6256L74 52.1302L74.1164 50.6347L72.8525 50.5363L72.7361 52.0317Z" fill="black"/>
<path d="M53.1 111V112.5H53.1323L53.1645 112.499L53.1 111ZM55.64 110.891L55.797 109.399L55.6865 109.387L55.5755 109.392L55.64 110.891ZM58.28 111.169L58.123 112.66L58.2739 112.676L58.425 112.662L58.28 111.169ZM60.92 110.912L60.8596 109.413L60.8172 109.415L60.775 109.419L60.92 110.912ZM63.56 110.806L63.6763 109.31L63.588 109.303L63.4996 109.307L63.56 110.806ZM66.2 111.011L66.0837 112.507L66.1392 112.511L66.1948 112.511L66.2 111.011ZM68.84 111.02L68.8348 112.52L68.8912 112.52L68.9474 112.516L68.84 111.02ZM71.48 110.831L71.5223 109.331L71.4473 109.329L71.3726 109.334L71.48 110.831ZM74.12 110.905L74.2963 109.415L74.2295 109.408L74.1623 109.406L74.12 110.905ZM76.76 111.217L76.5837 112.707L76.7941 112.732L77.0032 112.698L76.76 111.217ZM79.4 110.784L79.4793 109.286L79.3171 109.277L79.1568 109.303L79.4 110.784ZM82.04 110.923L81.9607 112.421L82.0493 112.426L82.1379 112.42L82.04 110.923ZM84.68 110.751L85.0357 109.294L84.8119 109.239L84.5821 109.254L84.68 110.751ZM86 111.073L85.6443 112.53L87.5 112.983V111.073H86ZM53 111V112.5H53.1V111V109.5H53V111ZM53.1 111L53.1645 112.499L55.7045 112.389L55.64 110.891L55.5755 109.392L53.0355 109.501L53.1 111ZM55.64 110.891L55.483 112.382L58.123 112.66L58.28 111.169L58.437 109.677L55.797 109.399L55.64 110.891ZM58.28 111.169L58.425 112.662L61.065 112.405L60.92 110.912L60.775 109.419L58.135 109.676L58.28 111.169ZM60.92 110.912L60.9804 112.411L63.6204 112.305L63.56 110.806L63.4996 109.307L60.8596 109.413L60.92 110.912ZM63.56 110.806L63.4437 112.301L66.0837 112.507L66.2 111.011L66.3163 109.516L63.6763 109.31L63.56 110.806ZM66.2 111.011L66.1948 112.511L68.8348 112.52L68.84 111.02L68.8452 109.52L66.2052 109.511L66.2 111.011ZM68.84 111.02L68.9474 112.516L71.5874 112.327L71.48 110.831L71.3726 109.334L68.7326 109.524L68.84 111.02ZM71.48 110.831L71.4377 112.33L74.0777 112.404L74.12 110.905L74.1623 109.406L71.5223 109.331L71.48 110.831ZM74.12 110.905L73.9437 112.395L76.5837 112.707L76.76 111.217L76.9363 109.728L74.2963 109.415L74.12 110.905ZM76.76 111.217L77.0032 112.698L79.6432 112.264L79.4 110.784L79.1568 109.303L76.5168 109.737L76.76 111.217ZM79.4 110.784L79.3207 112.282L81.9607 112.421L82.04 110.923L82.1193 109.426L79.4793 109.286L79.4 110.784ZM82.04 110.923L82.1379 112.42L84.7779 112.248L84.68 110.751L84.5821 109.254L81.9421 109.427L82.04 110.923ZM84.68 110.751L84.3243 112.208L85.6443 112.53L86 111.073L86.3557 109.616L85.0357 109.294L84.68 110.751ZM86 111.073H87.5V111H86H84.5V111.073H86Z" fill="black"/>
<path d="M53 97.1H51.5V97.1323L51.5014 97.1645L53 97.1ZM53.1093 99.64L54.6011 99.797L54.6127 99.6865L54.6079 99.5755L53.1093 99.64ZM52.8314 102.28L51.3397 102.123L51.3238 102.274L51.3385 102.425L52.8314 102.28ZM53.0878 104.92L54.5866 104.86L54.5849 104.817L54.5808 104.775L53.0878 104.92ZM53.1942 107.56L54.6897 107.676L54.6966 107.588L54.693 107.5L53.1942 107.56ZM52.9889 110.2L51.4935 110.084L51.4891 110.139L51.489 110.195L52.9889 110.2ZM52.9798 112.84L51.4798 112.835L51.4796 112.891L51.4837 112.947L52.9798 112.84ZM53.1694 115.48L54.5956 115.945L54.6866 115.665L54.6655 115.373L53.1694 115.48ZM53 97H51.5V97.1H53H54.5V97H53ZM53 97.1L51.5014 97.1645L51.6107 99.7045L53.1093 99.64L54.6079 99.5755L54.4986 97.0355L53 97.1ZM53.1093 99.64L51.6176 99.483L51.3397 102.123L52.8314 102.28L54.3232 102.437L54.6011 99.797L53.1093 99.64ZM52.8314 102.28L51.3385 102.425L51.5948 105.065L53.0878 104.92L54.5808 104.775L54.3244 102.135L52.8314 102.28ZM53.0878 104.92L51.589 104.98L51.6954 107.62L53.1942 107.56L54.693 107.5L54.5866 104.86L53.0878 104.92ZM53.1942 107.56L51.6987 107.444L51.4935 110.084L52.9889 110.2L54.4844 110.316L54.6897 107.676L53.1942 107.56ZM52.9889 110.2L51.489 110.195L51.4798 112.835L52.9798 112.84L54.4798 112.845L54.4889 110.205L52.9889 110.2ZM52.9798 112.84L51.4837 112.947L51.6732 115.587L53.1694 115.48L54.6655 115.373L54.476 112.733L52.9798 112.84ZM53.1694 115.48L51.7431 115.015L51.5738 115.535L53 116L54.4262 116.465L54.5956 115.945L53.1694 115.48Z" fill="black"/>
<path d="M66 46.1H64.5V46.1431L64.5025 46.1862L66 46.1ZM66.1093 48L67.5951 48.2064L67.6153 48.0607L67.6069 47.9138L66.1093 48ZM65.8314 50.0001L64.3457 49.7936L64.305 50.0863L64.3784 50.3726L65.8314 50.0001ZM66.0878 51V52.5H68.0209L67.5408 50.6275L66.0878 51ZM66 46H64.5V46.1H66H67.5V46H66ZM66 46.1L64.5025 46.1862L64.6118 48.0862L66.1093 48L67.6069 47.9138L67.4975 46.0138L66 46.1ZM66.1093 48L64.6236 47.7936L64.3457 49.7936L65.8314 50.0001L67.3172 50.2065L67.5951 48.2064L66.1093 48ZM65.8314 50.0001L64.3784 50.3726L64.6348 51.3725L66.0878 51L67.5408 50.6275L67.2844 49.6275L65.8314 50.0001ZM66.0878 51V49.5H66V51V52.5H66.0878V51Z" fill="black"/>
<path d="M41 104.1H39.5V104.132L39.5014 104.165L41 104.1ZM41.1093 106.64L42.6011 106.797L42.6127 106.687L42.6079 106.575L41.1093 106.64ZM40.8314 109.28L39.3397 109.123L39.3238 109.274L39.3385 109.425L40.8314 109.28ZM41.0878 111.92L42.5866 111.86L42.5849 111.817L42.5808 111.775L41.0878 111.92ZM41.1942 114.56L42.5665 115.166L42.707 114.847L42.693 114.5L41.1942 114.56ZM41 104H39.5V104.1H41H42.5V104H41ZM41 104.1L39.5014 104.165L39.6107 106.705L41.1093 106.64L42.6079 106.575L42.4986 104.035L41 104.1ZM41.1093 106.64L39.6176 106.483L39.3397 109.123L40.8314 109.28L42.3232 109.437L42.6011 106.797L41.1093 106.64ZM40.8314 109.28L39.3385 109.425L39.5948 112.065L41.0878 111.92L42.5808 111.775L42.3244 109.135L40.8314 109.28ZM41.0878 111.92L39.589 111.98L39.6954 114.62L41.1942 114.56L42.693 114.5L42.5866 111.86L41.0878 111.92ZM41.1942 114.56L39.8219 113.954L39.6277 114.394L41 115L42.3723 115.606L42.5665 115.166L41.1942 114.56Z" fill="black"/>
</svg>
