<svg width="120" height="120" viewBox="0 0 120 120" fill="none" xmlns="http://www.w3.org/2000/svg">
<path d="M106.867 34.3672L107.605 37.0156L107.688 37.3086L107.641 37.6133L107.277 40.4141L107.699 43.2031L107.711 43.332V43.4609L107.617 46.4609V46.4727L107.512 49.4727V49.4844L107.383 52.4844L107.465 55.2852L107.734 58.2852L107.746 58.3789V58.4727L107.641 61.4727L107.629 61.6016L107.605 61.7305L107.479 62.334L109.046 62.3828L109.055 62.3838L112.055 62.4932L113.557 62.5479L113.499 64.0498L113.386 67.0088L113.469 69.917L113.735 72.8652L113.743 72.958L113.74 73.0518L113.638 76.0518L113.621 76.5332L113.326 76.915L111.445 79.3584L111.43 79.3779L111.414 79.3984L109.501 81.7139L107.939 83.7402L107.592 86.085L107.699 88.9443L107.7 88.9639V88.9844L107.731 91.9814L107.769 94.9814V95.0264L107.767 95.0713L107.623 98.0625L107.624 98.0635L107.496 101.063L107.436 103.997L107.5 106.936L107.63 109.936L107.631 109.97V110.004L107.622 113.004V113.067L107.616 113.13L107.494 114.529L109.742 114.5V114.488L111.945 114.418L113.504 114.359V116H112.004L112.051 117.406L109.836 117.488H109.812L107.234 117.531L107.228 117.612L106.383 117.545L106.309 117.547H106.297L102.828 117.559L102.84 117.57L99.3359 117.746L99.1953 117.758L99.0547 117.734L97.4551 117.504L97.126 117.532L97.0576 117.538L96.9893 117.537L94.0449 117.517L91.0967 117.707L90.9414 117.717L90.7881 117.694L88.8955 117.424L88.7305 117.418L85.2852 117.582H85.0977L82.9004 117.385L82.0557 117.417H82.0469L79.0469 117.511L78.792 117.519L78.3125 117.559H78.2656L74.7617 117.711L74.6445 117.723L74.5391 117.711L71.0469 117.348L67.6953 117.406H67.6484L66.4854 117.387L66.3945 117.414L66.2422 117.461L66.0898 117.473L63.4531 117.707L63.3711 117.719L63.3008 117.707L60.6523 117.672V117.66L58.0273 117.648H58.0039L55.3672 117.59H55.2852L55.2031 117.578L54.3701 117.47L53.7266 117.512L53.7031 117.523H53.668L50.1641 117.617H50.0703L46.5664 117.512V117.5L43.0859 117.488H43.0273L42.2412 117.445L42.2275 117.612L40.7432 117.495L38.6934 117.333L36.1367 117.43H36.0781L33.4424 117.42L32.126 117.532L32.0576 117.538L31.9893 117.537L29.0449 117.517L26.0967 117.707L25.9414 117.717L25.7881 117.694L25.6055 117.668L25.5312 117.676L25.4258 117.664L22.0508 117.383H18.5938L18.6055 117.395L15.0898 117.57H15.0781L11.5625 117.688L11.4922 117.699L11.4219 117.688L8.01172 117.5H8V114.5H8.1875L11.5391 114.699L12.5303 114.665L12.5703 112.965V112.954L12.5713 112.943L12.6777 110.08L12.2695 107.212L12.2432 107.026L12.2637 106.84L12.5791 103.897L12.6504 101.023L12.6045 98.0234V97.9883L12.6055 97.9541L12.6924 95.0781L12.2871 92.209L12.2646 92.0449L12.2773 91.8799L12.5127 88.9629L12.418 86.1143L12.1016 83.7061L10.5283 81.7285L8.53613 79.5156L8.48047 79.4541L8.43262 79.3867L6.68262 76.9482L6.4209 76.584L6.40234 76.1348L6.27832 73.0605L6.27734 73.04V73.0186L6.23926 70.0186L6.23828 69.9492L6.24414 69.8799L6.47559 66.9902L6.28711 64.0977L6.17969 62.4512L7.8291 62.501L10.9697 62.5957L12.543 62.4775L12.5 60.6406L12.3711 57.6406V57.582L12.3828 54.582V54.4531L12.6406 51.4531L12.7227 48.582L12.7109 45.582L12.4648 42.7109V42.5703L12.4883 39.6758L12.2891 36.6758L12.2422 35.9141L12.8281 35.4336L14.457 34.0625L14.8672 33.7227H15.4062L18.4062 33.6992L18.8164 33.6875L19.168 33.8984L20.8906 34.8828L21.6172 35.3047L21.6523 36.1367L21.7461 39.1367V39.2422L21.7227 39.6289L22.4258 39.6055L22.918 38.9023L23.0703 36.3359L23.1055 35.7148L23.5742 35.3047L24.9688 34.0742L25.332 33.7461L28.8125 33.4062L29.4336 33.3359L29.9141 33.7344L31.6836 35.1875L32.2461 35.6445L32.2344 36.3711L32.1758 39.0195L32.6094 39.9336L33.2539 39.9102L33.3242 38.375L33.1367 35.457L33.0312 34.0273L34.4492 33.8633L37.2383 33.5234H37.2969L41.5273 33.1602L41.8672 34.3672L42.6055 37.0156L42.6875 37.3086L42.6406 37.6133L42.2773 40.4141L42.6992 43.2031L42.7109 43.332V43.4609L42.6172 46.4609V46.4727L42.5117 49.4727V49.4844L42.3828 52.4844L42.4434 54.5742L44.5391 54.6992L47.9492 54.582V54.5703L51.4531 54.3945H51.5234L55.0391 54.3828H55.168L58.5664 54.6758L61.9648 54.4414H62.0469L65.5625 54.418H65.5742L69.0312 54.4297L72.5352 54.3125L72.6055 54.3008L72.6641 54.3125L76.1797 54.4883L76.168 54.5L77.3828 54.5049V54.4531L77.6406 51.4531L77.7227 48.582L77.7109 45.582L77.4648 42.7109V42.5703L77.4883 39.6758L77.2891 36.6758L77.2422 35.9141L77.8281 35.4336L79.457 34.0625L79.8672 33.7227H80.4062L83.4062 33.6992L83.8164 33.6875L84.168 33.8984L85.8906 34.8828L86.6172 35.3047L86.6523 36.1367L86.7461 39.1367V39.2422L86.7227 39.6289L87.4258 39.6055L87.918 38.9023L88.0703 36.3359L88.1055 35.7148L88.5742 35.3047L89.9688 34.0742L90.332 33.7461L93.8125 33.4062L94.4336 33.3359L94.9141 33.7344L96.6836 35.1875L97.2461 35.6445L97.2344 36.3711L97.1758 39.0195L97.6094 39.9336L98.2539 39.9102L98.3242 38.375L98.1367 35.457L98.0312 34.0273L99.4492 33.8633L102.238 33.5234H102.297L106.527 33.1602L106.867 34.3672ZM69.1367 57.4297H69.0781L65.5742 57.418L62.1406 57.4297L62.1523 57.4414L58.6484 57.6641L58.5312 57.6758L58.4258 57.6641L55.0508 57.3828H51.5938L51.6055 57.3945L48.0898 57.5703H48.0781L44.5625 57.6875L44.4922 57.6992L44.4219 57.6875L42.6719 57.5908L42.7344 58.2852L42.7461 58.3789V58.4727L42.6406 61.4727L42.6289 61.6016L42.6055 61.7305L42.4795 62.334L44.0459 62.3828L44.0547 62.3838L47.0547 62.4932L48.5566 62.5479L48.499 64.0498L48.3857 67.0088L48.4688 69.917L48.7354 72.8652L48.7432 72.958L48.7402 73.0518L48.6377 76.0518L48.6211 76.5332L48.3262 76.915L46.4453 79.3584L46.4297 79.3779L46.4141 79.3984L44.501 81.7139L42.9395 83.7402L42.5918 86.085L42.6992 88.9443L42.7002 88.9639V88.9844L42.7314 91.9814L42.7686 94.9814V95.0264L42.7666 95.0713L42.623 98.0625L42.624 98.0635L42.4961 101.063L42.4355 103.997L42.5 106.936L42.6299 109.936L42.6309 109.97V110.004L42.6221 113.004V113.067L42.6162 113.13L42.501 114.454L43.1797 114.488L43.168 114.5L46.625 114.512H46.6602L50.1172 114.617L51.5 114.583L51.7227 113.055L51.5586 110.57L51.5703 110.559L51.2891 108.004L51.2773 107.84L51.2891 107.676L51.582 105.18L51.4297 102.648L51.418 102.566L51.4297 102.484L51.5586 99.9414L51.2656 97.457L51.2305 97.2109L51.2773 96.9766L51.8281 94.3633V94.3398L52.4023 91.832L52.4727 91.5273L52.6602 91.2695L54.1953 89.1719L54.3477 88.9609L54.5586 88.8203L56.7266 87.3438L56.9375 87.1914L57.1953 87.1211L59.7617 86.4648L60.1016 86.3828L60.4531 86.4531L60.8164 86.5352L61.2617 86.6289L61.332 86.7109L63.3594 87.1797L63.5469 87.2266L63.7109 87.3086L66.0078 88.5039L66.2305 88.6211L66.4062 88.8086L68.2109 90.7188L68.4336 90.9531L68.5391 91.2461L69.4297 93.7539L69.5469 94.0586L69.5234 94.375L69.3242 96.8945L69.5469 99.4258L69.5586 99.4844V99.543L69.582 102.18V102.203L69.5703 104.852L69.6875 107.406L69.6992 107.5L69.6875 107.582L69.5117 110.219L69.4883 112.773V112.82L69.4258 114.376L71.1523 114.348H71.2461L71.3398 114.359L74.7734 114.723L77.5322 114.588L77.5703 112.965V112.954L77.5713 112.943L77.6777 110.08L77.2695 107.212L77.2432 107.026L77.2637 106.84L77.5791 103.897L77.6504 101.023L77.6045 98.0234V97.9883L77.6055 97.9541L77.6924 95.0781L77.2871 92.209L77.2646 92.0449L77.2773 91.8799L77.5127 88.9629L77.418 86.1143L77.1016 83.7061L75.5283 81.7285L73.5361 79.5156L73.4805 79.4541L73.4326 79.3867L71.6826 76.9482L71.4209 76.584L71.4023 76.1348L71.2783 73.0605L71.2773 73.04V73.0186L71.2393 70.0186L71.2383 69.9492L71.2441 69.8799L71.4756 66.9902L71.2871 64.0977L71.1797 62.4512L72.8291 62.501L75.9697 62.5957L77.543 62.4775L77.5 60.6406L77.3711 57.6406V57.498L76.0859 57.4883H76.0273L72.5586 57.3008L69.1367 57.4297ZM41.7852 65.6328L40.5078 65.5742L39.5488 65.5283L39.3428 67.1104L39.2627 70.041L39.2559 70.2939L39.166 70.5303L38.4033 72.5479L38.0156 73.5723L36.9219 73.5156L33.9219 73.3584L33.6631 73.3447L33.4229 73.2451L31.3574 72.3848L30.4424 72.0039L30.4346 71.0117L30.4102 68.0117H30.4092L30.3359 65.877L29.5791 65.4346L26.9756 65.3857L25.0312 65.3906L24.6904 66.2793L24.6855 69.0029V69.0479L24.6826 69.0918L24.4043 73.6064L22.8994 73.5059L19.9873 73.3105L17.7168 73.4033L17.6211 73.5H15.0742L15.2891 71.8115L15.5273 69.9365L15.4062 67.0635L15.4033 67.0088L15.4053 66.9551L15.4531 65.3594L14.0654 65.3711L11.1123 65.5928L11.0332 65.5986L10.9551 65.5967L9.3877 65.5488L9.47656 66.9023L9.4834 67.0107L9.47461 67.1201L9.24023 70.041L9.27637 72.9551L9.38184 75.5645L10.8193 77.5674L12.7812 79.7461L12.8115 79.7803L12.8408 79.8164L14.709 82.165L14.9678 82.4902L15.0225 82.9033L15.4033 85.8047L15.4121 85.8779L15.415 85.9502L15.5137 88.9502L15.5166 89.0361L15.5098 89.1201L15.2803 91.9541L15.6816 94.791L15.6992 94.917L15.6953 95.0459L15.6045 98L15.6504 100.977L15.6514 101.007L15.6504 101.036L15.5771 104.036L15.5762 104.099L15.5693 104.16L15.2656 106.975L15.668 109.788L15.6865 109.922L15.6816 110.057L15.5684 113.034L15.5693 113.035L15.5361 114.462L16.9531 114.418L19.9443 114.307L19.9658 114.306H19.9883L22.9883 114.282L23.1006 114.281L23.2119 114.297L25.7725 114.661L28.9648 114.441H29.0469L32.5625 114.418H32.5742L33.3223 114.42L34.874 114.29L34.9346 114.285L34.9951 114.284L37.9951 114.273H38.0566L38.1182 114.278L38.8447 114.335L39.501 114.313L39.6221 112.935L39.6299 110.038L39.5029 107.064L39.501 107.033L39.4355 104.033V103.969L39.498 100.969V100.952L39.499 100.937L39.626 97.9365L39.627 97.9287L39.7676 94.9629L39.7314 92.0186V92.0156L39.7002 89.0342L39.5889 86.0557L39.584 85.917L39.6045 85.7803L40.0293 82.915L40.0859 82.5283L40.3252 82.2188L42.1562 79.8428L42.1719 79.8223L42.1885 79.8037L44.0791 77.5117L45.6553 75.4658L45.7383 73.043L45.4775 70.1348L45.4727 70.0889L45.4717 70.043L45.3848 67.043L45.3838 66.9932L45.3857 66.9424L45.4434 65.4355L43.9453 65.3818V65.3809L41.8525 65.3154L41.7852 65.6328ZM106.785 65.6328L105.508 65.5742L104.549 65.5283L104.343 67.1104L104.263 70.041L104.256 70.2939L104.166 70.5303L103.403 72.5479L103.016 73.5723L101.922 73.5156L98.9219 73.3584L98.6631 73.3447L98.4229 73.2451L96.3574 72.3848L95.4424 72.0039L95.4346 71.0117L95.4102 68.0117H95.4092L95.3359 65.877L94.5791 65.4346L91.9756 65.3857L90.0312 65.3906L89.6904 66.2793L89.6855 69.0029V69.0479L89.6826 69.0918L89.4043 73.6064L87.8994 73.5059L84.9873 73.3105L82.7168 73.4033L82.6211 73.5H80.0742L80.2891 71.8115L80.5273 69.9365L80.4062 67.0635L80.4033 67.0088L80.4053 66.9551L80.4531 65.3594L79.0654 65.3711L76.1123 65.5928L76.0332 65.5986L75.9551 65.5967L74.3877 65.5488L74.4766 66.9023L74.4834 67.0107L74.4746 67.1201L74.2402 70.041L74.2764 72.9551L74.3818 75.5645L75.8193 77.5674L77.7812 79.7461L77.8115 79.7803L77.8408 79.8164L79.709 82.165L79.9678 82.4902L80.0225 82.9033L80.4033 85.8047L80.4121 85.8779L80.415 85.9502L80.5137 88.9502L80.5166 89.0361L80.5098 89.1201L80.2803 91.9541L80.6816 94.791L80.6992 94.917L80.6953 95.0459L80.6045 98L80.6504 100.977L80.6514 101.007L80.6504 101.036L80.5771 104.036L80.5762 104.099L80.5693 104.16L80.2656 106.975L80.668 109.788L80.6865 109.922L80.6816 110.057L80.5684 113.034L80.5693 113.035L80.5381 114.374L81.5938 114.289L81.7109 114.277L81.8398 114.289L82.9072 114.382L84.9443 114.307L84.9658 114.306H84.9883L87.9883 114.282L88.1006 114.281L88.2119 114.297L89.2754 114.448L92.1523 114.559L95.6211 114.254L95.7852 114.242L95.9609 114.266L97.5186 114.487L99.874 114.29L99.9346 114.285L99.9951 114.284L102.995 114.273H103.057L103.118 114.278L104.495 114.387L104.622 112.935L104.63 110.038L104.503 107.064L104.501 107.033L104.436 104.033V103.969L104.498 100.969V100.952L104.499 100.937L104.626 97.9365L104.627 97.9287L104.768 94.9629L104.731 92.0186V92.0156L104.7 89.0342L104.589 86.0557L104.584 85.917L104.604 85.7803L105.029 82.915L105.086 82.5283L105.325 82.2188L107.156 79.8428L107.172 79.8223L107.188 79.8037L109.079 77.5117L110.655 75.4658L110.738 73.043L110.478 70.1348L110.473 70.0889L110.472 70.043L110.385 67.043L110.384 66.9932L110.386 66.9424L110.443 65.4355L108.945 65.3818V65.3809L106.853 65.3154L106.785 65.6328ZM58.1914 89.957L56.457 91.1406L55.2617 92.7812L54.7578 95.0078L54.7461 94.9961L54.2656 97.3398L54.5469 99.7422L54.5586 99.8711V100L54.418 102.543L54.582 105.109V105.238L54.5703 105.367L54.2891 107.852L54.5586 110.324V110.395L54.7109 113.031L54.7227 113.184L54.6992 113.324L54.5352 114.461L54.5518 114.463L57.043 114.289H57.1602L60.6641 114.336L60.6523 114.348H64.1797L66.0605 114.379L66.418 114.273L66.4883 112.691L66.5117 110.102V110.055L66.5234 110.02L66.6875 107.441L66.5703 104.91V104.828L66.582 102.191L66.5586 99.6836L66.3359 97.0469L66.3242 96.9297L66.3359 96.8125L66.5 94.4688L65.8203 92.5586L64.4141 91.0586L62.4922 90.0508L60.2305 89.5352L60.0312 89.4883L58.1914 89.957ZM37.5898 36.5L36.2188 36.6641L36.3359 38.2461V38.4219L36.1836 41.4336L36.125 42.8164L34.7422 42.8633L31.7422 42.9688L30.7578 42.9922L29.1641 39.6758L29.1758 39.3125L29.2109 37.0508L28.4727 36.4414L26.5859 36.6289L26.0234 37.1211L25.8945 39.5117L25.8711 39.9336L25.625 40.2852L24.4531 41.9375L24.0312 42.5469L23.293 42.582L20.9727 42.6641L20.8906 42.7695H18.6055L18.6641 41.2109L18.7461 39.2305L18.6758 37.0625L18.0195 36.6992L15.957 36.7109L15.3359 37.2383L15.4766 39.4883L15.4883 39.5352V39.5938L15.4648 42.5938L15.7109 45.4531V45.5703L15.7227 48.5703V48.6289L15.6406 51.6289V51.6641L15.6289 51.7109L15.3828 54.582L15.3711 57.582L15.5 60.5117V60.5469L15.5234 62.3047L15.8467 62.3555L16.9863 62.3457L18.5469 62.332L18.499 63.8906L18.4053 66.9951L18.5293 69.9365L18.5352 70.0635L18.5186 70.1885L18.4951 70.3691L19.9385 70.3096L20.0195 70.3066L20.1006 70.3115L21.5957 70.4111L21.6855 68.9541L21.6914 65.9971V65.7207L21.791 65.4619L22.5996 63.3564L22.9688 62.3975L23.9961 62.3945L26.9961 62.3867L27.0117 62.3857L27.0283 62.3867L30.0283 62.4434L30.4199 62.4502L30.7578 62.6484L32.5645 63.7051L33.2764 64.123L33.3057 64.9482L33.4092 67.9482L33.4102 67.9678V67.9883L33.4258 69.9961L34.3369 70.375L35.9844 70.4619L36.2705 69.7061L36.3457 66.959L36.3477 66.8828L36.3574 66.8066L36.748 63.8066L36.9062 62.5967L38 62.5127V62.4473L38.5615 62.4697L39.3916 62.4072L39.6406 61.25L39.7344 58.4961L39.4766 55.5547V55.4609L39.3828 52.4609V52.3555L39.5117 49.3555L39.6172 46.3672L39.6992 43.5195L39.2773 40.6367L39.2539 40.4375L39.2773 40.2266L39.6172 37.5078L39.3008 36.3594L37.5898 36.5ZM102.59 36.5L101.219 36.6641L101.336 38.2461V38.4219L101.184 41.4336L101.125 42.8164L99.7422 42.8633L96.7422 42.9688L95.7578 42.9922L94.1641 39.6758L94.1758 39.3125L94.2109 37.0508L93.4727 36.4414L91.5859 36.6289L91.0234 37.1211L90.8945 39.5117L90.8711 39.9336L90.625 40.2852L89.4531 41.9375L89.0312 42.5469L88.293 42.582L85.9727 42.6641L85.8906 42.7695H83.6055L83.6641 41.2109L83.7461 39.2305L83.6758 37.0625L83.0195 36.6992L80.957 36.7109L80.3359 37.2383L80.4766 39.4883L80.4883 39.5352V39.5938L80.4648 42.5938L80.7109 45.4531V45.5703L80.7227 48.5703V48.6289L80.6406 51.6289V51.6641L80.6289 51.7109L80.3828 54.582L80.377 56H80.5039V57.5234L80.3711 57.5215V57.582L80.5 60.5117V60.5469L80.5234 62.3047L80.8447 62.3555L81.9863 62.3457L83.5469 62.332L83.499 63.8906L83.4053 66.9951L83.5293 69.9365L83.5352 70.0635L83.5186 70.1885L83.4951 70.3691L84.9385 70.3096L85.0195 70.3066L85.1006 70.3115L86.5957 70.4111L86.6855 68.9541L86.6914 65.9971V65.7207L86.791 65.4619L87.5996 63.3564L87.9688 62.3975L88.9961 62.3945L91.9961 62.3867L92.0117 62.3857L92.0283 62.3867L95.0283 62.4434L95.4199 62.4502L95.7578 62.6484L97.5645 63.7051L98.2764 64.123L98.3057 64.9482L98.4092 67.9482L98.4102 67.9678V67.9883L98.4258 69.9961L99.3369 70.375L100.984 70.4619L101.271 69.7061L101.346 66.959L101.348 66.8828L101.357 66.8066L101.748 63.8066L101.906 62.5967L103.122 62.5039L104.392 62.4072L104.641 61.25L104.734 58.4961L104.477 55.5547V55.4609L104.383 52.4609V52.3555L104.512 49.3555L104.617 46.3672L104.699 43.5195L104.277 40.6367L104.254 40.4375L104.277 40.2266L104.617 37.5078L104.301 36.3594L102.59 36.5Z" fill="black"/>
</svg>
