<svg width="120" height="120" viewBox="0 0 120 120" fill="none" xmlns="http://www.w3.org/2000/svg">
<path d="M58.1523 7H61V7.21094L60.8008 9.67188L60.918 12.1797H60.9297L61.1055 14.8164V14.9102L61.1172 17.5469L61.1289 17.7109L61.0938 17.8633L60.9121 18.7451L61.5977 18.7578H61.8086L62.0078 18.8281L64.5156 19.6016L64.6562 19.6484L64.7852 19.7188L67.082 20.9727L67.1641 21.0195L67.2461 21.0781L69.4023 22.6367L69.625 22.8008L69.7773 23.0352L71.2188 25.2734L71.2305 25.3086L71.2539 25.3438L72.5547 27.6172L72.5781 27.6875L72.6133 27.7461L73.7031 30.1484L73.75 30.2656L73.7852 30.3828L74.4648 32.9609L74.5117 33.1602V33.3594L74.4648 35.9258L73.2578 35.9023L73 35.9961L72.9844 36.001L73.2656 36.375L73.6172 36.8438L73.5586 37.4297L73.2891 39.9023L73.5703 42.3867L73.582 42.5156V42.6445L73.418 45.1875L73.5586 47.7539V47.8828L73.5469 48.0117L73.2656 50.4023L73.7578 53.0273L73.7461 53.2148L73.5703 55.8516L73.5469 58.4062V58.4531L73.5146 59.3291L74.9727 59.5586L75.1953 59.5938L77.5566 60.7744L77.5781 60.6094L77.7188 58.2188L77.3672 55.7227L77.3438 55.6055L77.3555 55.4883L77.4023 52.8516L77.4141 52.5586L77.5195 52.3008L78.375 50.2617L78.5107 49.9404L77.6992 49.875L77.9102 47.4492L77.9219 47.1914L78.0391 46.9453L79.1289 44.5898L79.2344 44.3672L79.3984 44.1914L81.1562 42.293L81.3203 42.1172L81.5195 42L83.8281 40.6875L84.0557 40.5566L83.9414 39.4375V39.3906L83.9297 39.3555L83.8125 36.707L83.8008 36.6133L83.8125 36.5312L84 33.9883L84.1523 34H87V34.2109L86.8008 36.6719L86.918 39.1328H86.9297L87.0928 40.7227L87.3438 40.7461L87.5781 40.7695L87.7891 40.8633L90.1562 41.8711L90.3789 41.9648L90.5664 42.1289L92.5352 43.8633L92.7344 44.0391L92.8633 44.2734L94.1289 46.6289L94.293 46.9219L94.3047 47.2617L94.4131 49.4531H94.4297L94.4648 50.9766L94.5117 53.4961L94.6875 56.1328L94.6992 56.2266L94.6875 56.3086L94.5703 58.9453L94.582 61.5117V61.5352L94.5801 61.6611L95.1602 62.0586L94.5693 62.8809L94.5586 64.1719V64.2305L94.5469 64.2891L94.3359 66.75L94.6172 69.2812L94.6289 69.3633L94.6172 69.4453L94.6055 72.082V72.1758L94.4297 74.8242L94.3047 77.2402L96.4648 77.6914L99.1133 77.9258L99.4297 77.9609L99.7227 78.125L101.68 79.2383L102.453 79.6719L102.441 80.5625L102.406 83.1758H102.418L102.424 84.5928L102.496 84.5938L103.691 84.6055L103.949 85.7656L104.395 87.793L104.441 87.9922L104.43 88.1914L104.301 90.7227L104.477 93.3008L104.488 93.3359V93.3828L104.512 95.9844L104.617 98.6211V98.7383L104.523 101.375V101.41L104.512 101.457L104.289 103.93L104.329 105.701L106.793 105.277L107.555 105.148L108.105 105.699L109.84 107.457L110.203 107.82L110.262 108.324L110.578 110.785L111.574 112.988L111.621 113.07L111.645 113.152L112.324 115.355L112.84 117.043L111.985 117.157L111.98 117.5L110.984 117.488L108.477 117.746L108.254 117.77L108.031 117.734L106.509 117.43L105.48 117.289L103.066 117.277L100.582 117.699L100.465 117.723H100.348L97.7109 117.77H97.6055L97.4883 117.758L95.0156 117.418L93.7334 117.52L92.7617 117.711L92.5273 117.758L92.293 117.734L90.6455 117.522L89.7305 117.465L87.1875 117.57H87.0703L84.8701 117.479L84.6055 117.488H84.5938L83.8184 117.505L81.9375 117.617H81.8203L81.7031 117.605L81.1152 117.55L79.3672 117.559L79.3789 117.57L76.7422 117.746L76.5547 117.758L74.0547 117.289H73.9336L72.9453 117.381L71.5391 117.547L71.4102 117.559H71.2812L71.0518 117.546L68.7539 117.699L68.6484 117.711L68.5547 117.699L66.3584 117.569L66.1719 117.582H66.043L65.9141 117.57L65.7627 117.553L63.4219 117.629L63.2812 117.641L63.1523 117.617L61.9971 117.444L60.957 117.559H60.8867L58.25 117.711L58.0977 117.723L57.957 117.699L56.7695 117.534L55.582 117.641L55.4531 117.652L55.3242 117.641L52.7227 117.43L50.2148 117.5L50.2266 117.512L47.5781 117.617H47.4844L47.3906 117.605L44.8828 117.371L42.4453 117.699L42.3047 117.723L42.1641 117.711L40.0303 117.606L39.7344 117.617H39.6172L39.2314 117.602L37.0664 117.746L36.9727 117.758L36.8789 117.746L34.2891 117.594L31.7461 117.688L31.582 117.699L31.4297 117.676L29.8428 117.396L29.1875 117.43H29.1055L27.1191 117.42L26.543 117.477L23.9062 117.711L23.7773 117.723L23.6484 117.711L22.1064 117.594L21.3242 117.664L21.1836 117.676L21.0312 117.664L18.5 117.383L17.1475 117.389L15.9727 117.488L15.8672 117.5L15.7617 117.488L15.0039 117.445L13.3789 117.559H13.3672L13.3555 117.57L10.707 117.688L10.6133 117.699L10.5312 117.688L7.98828 117.5L8 117.277V115.941L7.27734 115.379L7.71094 114.336L8.69531 111.945L9.32812 109.52L9.33984 109.473L9.35156 109.438L10.1719 106.918L10.2891 106.566L10.5586 106.297L10.9688 105.91L11.4023 105.5H12.2109L14.6699 105.698L14.7109 103.93L14.4883 101.457L14.4766 101.41V101.375L14.3828 98.7383V98.6211L14.4883 95.9844L14.5117 93.3828V93.3359L14.5234 93.3008L14.6992 90.7227L14.5703 88.1914L14.5586 87.9922L14.6055 87.793L15.0508 85.7656L15.3086 84.6055L16.5039 84.5938L18.5752 84.5742L18.582 83.1758H18.5938L18.5586 80.5625L18.5469 79.6719L19.3203 79.2383L21.2773 78.125L21.5703 77.9609L21.8867 77.9258L24.5352 77.6914L24.6709 77.6621L24.6992 77.3203L24.5703 74.8242L24.3945 72.1758V72.082L24.3828 69.4453L24.3711 69.3633L24.3828 69.2812L24.6641 66.75L24.4531 64.2891L24.4414 64.2305V64.1719L24.418 61.5352V61.5117L24.4297 58.9453L24.3125 56.3086L24.3008 56.2266L24.3125 56.1328L24.4883 53.4961L24.5352 50.9766L24.5703 49.4531L24.7354 49.459L24.9102 47.4492L24.9219 47.1914L25.0391 46.9453L26.1289 44.5898L26.2344 44.3672L26.3984 44.1914L28.1562 42.293L28.3203 42.1172L28.5195 42L30.8281 40.6875L31.0557 40.5566L30.9414 39.4375V39.3906L30.9297 39.3555L30.8125 36.707L30.8008 36.6133L30.8125 36.5312L31 33.9883L31.1523 34H34V34.2109L33.8008 36.6719L33.918 39.1328H33.9297L34.0928 40.7227L34.3438 40.7461L34.5781 40.7695L34.7891 40.8633L37.1562 41.8711L37.3789 41.9648L37.5664 42.1289L39.5352 43.8633L39.7344 44.0391L39.8633 44.2734L41.1289 46.6289L41.293 46.9219L41.3047 47.2617L41.4336 49.8516L40.4688 49.8936L40.625 50.2617L41.4805 52.3008L41.5859 52.5586L41.5977 52.8516L41.6445 55.4883L41.6562 55.6055L41.6328 55.7227L41.2812 58.2188L41.4219 60.6094L41.5078 61.2852L41.8555 61.1992L43.9883 59.9219L44.1172 59.8516L44.2578 59.793L44.4023 59.7422L44.3086 58.4766V58.2891L44.4375 55.6523V55.6172L44.6133 52.9805L44.625 50.4492L44.3438 47.9648L44.3203 47.8125L44.332 47.6719L44.5547 45.1055L44.5898 42.5273L44.5664 39.8906V39.8555L44.5781 39.8086L44.6953 37.1719L44.7188 36.7031L45 36.3281L45.2539 35.9961H44.6523V34.332L44.6758 34.2031L45.1328 31.625L45.1445 31.5312L45.1797 31.4375L45.9531 28.9414L45.9883 28.8242L46.0469 28.7188L47.207 26.3867L47.2305 26.3516L47.2539 26.3047L48.5547 24.0195L48.6367 23.8789L48.7539 23.75L50.5586 21.8047L50.6875 21.6523L50.8633 21.5469L53.1133 20.1523L53.2305 20.082L53.3594 20.0234L55.8086 19.0508L56.0078 18.9805L56.2188 18.957L57.8389 18.8027L57.8594 18.707L58.1172 17.4297L58.1055 14.9219H58.1172L57.9414 12.3789V12.3672L57.9297 12.3555L57.8125 9.70703L57.8008 9.61328L57.8125 9.53125L58 6.98828L58.1523 7ZM96.7617 108.711L96.5273 108.758L96.293 108.734L93.7383 108.406L91.207 108.418L91.1953 108.406L88.6055 108.488H88.5938L85.957 108.547H85.9336L83.3672 108.559L83.3789 108.57L80.7422 108.746L80.5547 108.758L77.9297 108.266L75.5391 108.547L75.4102 108.559H75.2812L72.7266 108.418L70.1719 108.582H70.043L69.9141 108.57L67.418 108.289L64.957 108.559H64.8867L62.25 108.711L62.0977 108.723L61.957 108.699L59.4141 108.348L56.9062 108.406H56.8477L54.2109 108.348V108.336H51.5742L48.9492 108.289L46.4531 108.512L46.418 108.523H46.3711L43.7344 108.617H43.6172L40.9805 108.512V108.5L38.3906 108.488H38.3438L38.2969 108.477L35.7188 108.301L33.1875 108.43H33.1055L30.4688 108.418V108.406L27.9609 108.43L25.3242 108.664L25.1836 108.676L25.0312 108.664L22.5 108.383L19.9219 108.395V108.383L17.3789 108.559H17.3672L17.3555 108.57L14.707 108.688L14.6133 108.699L14.5312 108.688L12.7852 108.559L12.2109 110.363L11.5547 112.836L11.5312 112.93L11.4961 113.023L10.9219 114.406L11.0273 114.5L13.0898 114.359L13.1953 114.348H13.2891L15.0469 114.445L15.8164 114.395H15.9102L17.0771 114.389L18.3633 114.289L18.4922 114.277L18.6211 114.289L21.2578 114.523H21.2461L22.1162 114.588L23.7148 114.453L23.7617 114.441H23.8203L26.4688 114.418H26.4922L27.001 114.42L28.9102 114.242L29.1094 114.23L29.2969 114.266L30.0215 114.386L31.6953 114.312L31.7773 114.301L31.8594 114.312L34.5078 114.488L34.4961 114.5L37.0508 114.512H37.0977L39.2393 114.599L39.5039 114.582H39.6797L40.124 114.603L42.1836 114.535L44.832 114.289H44.9844L47.6211 114.336L47.6094 114.348H50.2695L52.8711 114.406L55.4844 114.348H55.6133L55.7305 114.359L56.8184 114.518L57.9609 114.418H57.9961L60.6328 114.254L60.7852 114.242L60.9492 114.266L62.0488 114.424L63.2891 114.289L63.4414 114.277L63.6055 114.289L65.8262 114.551L65.9531 114.547H66.0938L66.3848 114.563L68.6328 114.43L68.7148 114.418L68.7969 114.43L71.0293 114.543L71.1562 114.535L72.9697 114.365L73.8242 114.266L74.0586 114.23L74.2812 114.277L74.3438 114.289H76.6055L79.2539 114.359H79.3008L79.3477 114.371L81.4053 114.561L81.8867 114.559V114.547L83.624 114.508L84.3984 114.465H84.5508L84.9102 114.478L87.1602 114.418H87.1953L89.832 114.406H89.9375L90.0312 114.418L90.9248 114.536L92.3672 114.617L93.4219 114.54L94.8359 114.266L95.082 114.219L95.3164 114.254L97.8945 114.605L100.273 114.711L102.793 114.277L102.91 114.266H103.027L105.664 114.242H105.816L105.969 114.266L106.974 114.463L108.246 114.629L108.926 114.535L108.785 114.102L107.754 111.793L107.66 111.594L107.637 111.371L107.344 109.203L106.512 108.371L104.648 108.688L104.496 108.711L104.332 108.699L101.695 108.594H101.625L101.555 108.582L99.1523 108.242L96.7617 108.711ZM80.8916 77.542L80.8008 78.6719L80.918 81.1797H80.9297L81.1055 83.8164V83.9102L81.1172 86.5469L81.1289 86.6406L81.1172 86.7227L80.8359 89.2305L81.0469 91.7148L81.0586 91.7617V91.8203L81.082 94.4688V94.4922L81.0703 97.0469L81.1875 99.6953L81.1992 99.7773L81.1875 99.8594L81.0117 102.508L81 102.496L80.9883 105.027L80.9961 105.718L82.9941 105.593L82.9883 105.062V105.027L83.0117 102.391V102.344L83.0234 102.297L83.1875 99.7188L83.0703 97.1875V97.1055L83.082 94.4688L83.0586 91.9609L82.8359 89.3242L82.8242 89.1836L82.8359 89.0312L83.1055 86.5V83.9219L82.9414 81.3789V81.3672L82.9297 81.3555L82.8125 78.707L82.8008 78.6133L82.8125 78.5312L82.8936 77.4219L80.8916 77.542ZM86.0459 87.3516L85.8359 89.2305L86.0469 91.7148L86.0586 91.7617V91.8203L86.082 94.4688V94.4922L86.0703 97.0469L86.1875 99.6953L86.1992 99.7773L86.1875 99.8594L86.0117 102.508L86 102.496L85.9883 105.027L85.9941 105.544L88.5234 105.488L91.1602 105.418H91.1953L93.832 105.406H93.9375L94.0312 105.418L96.0713 105.688L96.082 103.469L96.0586 100.961L95.8359 98.3242L95.8242 98.1836L95.8359 98.0312L96.1055 95.5V92.9219L95.9414 90.3789V90.3672L95.9297 90.3555L95.8125 87.707L95.8008 87.6133L95.8125 87.5312L95.8145 87.4951L94.7266 87.6172L94.6445 87.6289L94.5508 87.6172L91.9141 87.6055H91.8203L89.1836 87.4297L89.1953 87.418L86.6875 87.3008L86.0459 87.3516ZM29.8047 87.418L29.8164 87.4297L27.1797 87.6055H27.0859L24.4492 87.6172L24.3555 87.6289L24.2734 87.6172L23.8086 87.5645L23.8008 87.6719L23.918 90.1797H23.9297L24.1055 92.8164V92.9102L24.1172 95.5469L24.1289 95.6406L24.1172 95.7227L23.8359 98.2305L24.0469 100.715L24.0586 100.762V100.82L24.082 103.469V103.492L24.0723 105.534L25.2305 105.664L27.7148 105.453L27.7617 105.441H27.8203L30.4688 105.418H30.4922L33.0469 105.43L33.9922 105.388L33.9883 105.062V105.027L34.0117 102.391V102.344L34.0234 102.297L34.1875 99.7188L34.0703 97.1875V97.1055L34.082 94.4688L34.0586 91.9609L33.8359 89.3242L33.8242 89.1836L33.8359 89.0312L34.0049 87.4365L32.3125 87.3008L29.8047 87.418ZM41.8008 78.6719L41.918 81.1797H41.9297L42.1055 83.8164V83.9102L42.1172 86.5469L42.1289 86.6406L42.1172 86.7227L41.8359 89.2305L42.0469 91.7148L42.0586 91.7617V91.8203L42.082 94.4688V94.4922L42.0703 97.0469L42.1875 99.6953L42.1992 99.7773L42.1875 99.8594L42.0117 102.508L42 102.496L41.9883 105.027L41.9941 105.548L43.6875 105.617L44.9941 105.574L44.9883 105.062V105.027L45.0117 102.391V102.344L45.0234 102.297L45.1875 99.7188L45.0703 97.1875V97.1055L45.082 94.4688L45.0586 91.9609L44.8359 89.3242L44.8242 89.1836L44.8359 89.0312L45.1055 86.5V83.9219L44.9414 81.3789V81.3672L44.9297 81.3555L44.8125 78.707L44.8008 78.6133L44.8125 78.5312L44.8701 77.7471L43.3311 77.7588L43.1797 77.7607L43.0312 77.7314L41.8945 77.5078L41.8008 78.6719ZM64.4727 77.5137L64.4717 77.5127L63.8926 77.5283L63.8008 78.6719L63.918 81.1797H63.9297L64.1055 83.8164V83.9102L64.1172 86.5469L64.1289 86.6406L64.1172 86.7227L63.8359 89.2305L64.0469 91.7148L64.0586 91.7617V91.8203L64.082 94.4688V94.4922L64.0703 97.0469L64.1875 99.6953L64.1992 99.7773L64.1875 99.8594L64.0117 102.508L64 102.496L63.9883 105.027L63.9951 105.605L64.7109 105.559V105.57L66.9912 105.321L66.9883 105.062V105.027L67.0117 102.391V102.344L67.0234 102.297L67.1875 99.7188L67.0703 97.1875V97.1055L67.082 94.4688L67.0586 91.9609L66.8359 89.3242L66.8242 89.1836L66.8359 89.0312L67.1055 86.5V83.9219L66.9414 81.3789V81.3672L66.9297 81.3555L66.8125 78.707L66.8008 78.6133L66.8125 78.5312L66.8906 77.459L64.4727 77.5137ZM69.9014 77.418L69.8008 78.6719L69.918 81.1797H69.9297L70.1055 83.8164V83.9102L70.1172 86.5469L70.1289 86.6406L70.1172 86.7227L69.8359 89.2305L70.0469 91.7148L70.0586 91.7617V91.8203L70.082 94.4688V94.4922L70.0703 97.0469L70.1875 99.6953L70.1992 99.7773L70.1875 99.8594L70.0117 102.508L70 102.496L69.9883 105.027L69.9941 105.57L70.0898 105.582L71.9932 105.468L71.9883 105.062V105.027L72.0117 102.391V102.344L72.0234 102.297L72.1875 99.7188L72.0703 97.1875V97.1055L72.082 94.4688L72.0586 91.9609L71.8359 89.3242L71.8242 89.1836L71.8359 89.0312L72.1055 86.5V83.9219L71.9414 81.3789V81.3672L71.9297 81.3555L71.8125 78.707L71.8008 78.6133L71.8125 78.5312L71.9043 77.2842L69.9014 77.418ZM75.1738 77.7393L74.9473 77.7656L74.875 77.752L74.8008 78.6719L74.918 81.1797H74.9297L75.1055 83.8164V83.9102L75.1172 86.5469L75.1289 86.6406L75.1172 86.7227L74.8359 89.2305L75.0469 91.7148L75.0586 91.7617V91.8203L75.082 94.4688V94.4922L75.0703 97.0469L75.1875 99.6953L75.1992 99.7773L75.1875 99.8594L75.0117 102.508L75 102.496L74.9883 105.027L74.9941 105.541L75.3281 105.559L77.8242 105.266L77.9902 105.24L77.9883 105.062V105.027L78.0117 102.391V102.344L78.0234 102.297L78.1875 99.7188L78.0703 97.1875V97.1055L78.082 94.4688L78.0586 91.9609L77.8359 89.3242L77.8242 89.1836L77.8359 89.0312L78.1055 86.5V83.9219L77.9414 81.3789V81.3672L77.9297 81.3555L77.8125 78.707L77.8008 78.6133L77.8125 78.5312L77.8916 77.4551L77.6904 77.4453L75.1738 77.7393ZM58.8008 78.6719L58.918 81.1797H58.9297L59.1055 83.8164V83.9102L59.1172 86.5469L59.1289 86.6406L59.1172 86.7227L58.8359 89.2305L59.0469 91.7148L59.0586 91.7617V91.8203L59.082 94.4688V94.4922L59.0703 97.0469L59.1875 99.6953L59.1992 99.7773L59.1875 99.8594L59.0117 102.508L59 102.496L58.9883 105.027L58.9922 105.358L59.4844 105.348H59.6133L59.7305 105.359L60.9941 105.544L60.9883 105.062V105.027L61.0117 102.391V102.344L61.0234 102.297L61.1875 99.7188L61.0703 97.1875V97.1055L61.082 94.4688L61.0586 91.9609L60.8359 89.3242L60.8242 89.1836L60.8359 89.0312L61.1055 86.5V83.9219L60.9414 81.3789V81.3672L60.9297 81.3555L60.8125 78.707L60.8008 78.6133L60.8125 78.5312L60.8809 77.5908L59.166 77.5986L59.0664 77.5996L58.9678 77.5859L58.8887 77.5752L58.8008 78.6719ZM19.293 87.5469L19.2344 87.5586H19.1758L17.7227 87.5703L17.5703 88.2383L17.6875 90.6875L17.6992 90.7812L17.6875 90.8633L17.5117 93.5L17.4883 96.0547V96.1016L17.3828 98.7383L17.4766 101.188L17.7109 103.824V103.988L17.6748 105.537L19.8164 105.395H19.9102L21.0723 105.389L21.082 103.469L21.0586 100.961L20.8359 98.3242L20.8242 98.1836L20.8359 98.0312L21.1055 95.5V92.9219L20.9414 90.3789V90.3672L20.9297 90.3555L20.8125 87.707L20.8008 87.6133L20.8125 87.5312L20.8203 87.415L19.293 87.5469ZM98.8008 87.6719L98.918 90.1797H98.9297L99.1055 92.8164V92.9102L99.1172 95.5469L99.1289 95.6406L99.1172 95.7227L98.8359 98.2305L99.0469 100.715L99.0586 100.762V100.82L99.082 103.469V103.492L99.0732 105.22L99.082 105.219L99.3164 105.254L101.324 105.527L101.289 103.988V103.824L101.523 101.188L101.617 98.7383L101.512 96.1016V96.0547L101.488 93.5L101.312 90.8633L101.301 90.7812L101.312 90.6875L101.43 88.2383L101.277 87.5703L99.8242 87.5586H99.7656L99.707 87.5469L98.8164 87.4697L98.8008 87.6719ZM36.8008 78.6719L36.918 81.1797H36.9297L37.1055 83.8164V83.9102L37.1172 86.5469L37.1289 86.6406L37.1172 86.7227L36.8359 89.2305L37.0469 91.7148L37.0586 91.7617V91.8203L37.082 94.4688V94.4922L37.0703 97.0469L37.1875 99.6953L37.1992 99.7773L37.1875 99.8594L37.0117 102.508L37 102.496L36.9883 105.027L36.9922 105.388L38.5078 105.488L38.4961 105.5L38.9932 105.502L38.9883 105.062V105.027L39.0117 102.391V102.344L39.0234 102.297L39.1875 99.7188L39.0703 97.1875V97.1055L39.082 94.4688L39.0586 91.9609L38.8359 89.3242L38.8242 89.1836L38.8359 89.0312L39.1055 86.5V83.9219L38.9414 81.3789V81.3672L38.9297 81.3555L38.8125 78.707L38.8008 78.6133L38.8125 78.5312L38.8936 77.4307L38.1924 77.5029L38.0547 77.5166L37.918 77.5049L36.9014 77.4219L36.8008 78.6719ZM54.1621 77.7363L53.9219 77.7822L53.6797 77.749L52.8838 77.6416L52.8008 78.6719L52.918 81.1797H52.9297L53.1055 83.8164V83.9102L53.1172 86.5469L53.1289 86.6406L53.1172 86.7227L52.8359 89.2305L53.0469 91.7148L53.0586 91.7617V91.8203L53.082 94.4688V94.4922L53.0703 97.0469L53.1875 99.6953L53.1992 99.7773L53.1875 99.8594L53.0117 102.508L53 102.496L52.9883 105.027L52.9922 105.348H54.2695L55.9922 105.386L55.9883 105.062V105.027L56.0117 102.391V102.344L56.0234 102.297L56.1875 99.7188L56.0703 97.1875V97.1055L56.082 94.4688L56.0586 91.9609L55.8359 89.3242L55.8242 89.1836L55.8359 89.0312L56.1055 86.5V83.9219L55.9414 81.3789V81.3672L55.9297 81.3555L55.8125 78.707L55.8008 78.6133L55.8125 78.5312L55.8955 77.4033L54.1621 77.7363ZM47.9004 77.4336L47.8008 78.6719L47.918 81.1797H47.9297L48.1055 83.8164V83.9102L48.1172 86.5469L48.1289 86.6406L48.1172 86.7227L47.8359 89.2305L48.0469 91.7148L48.0586 91.7617V91.8203L48.082 94.4688V94.4922L48.0703 97.0469L48.1875 99.6953L48.1992 99.7773L48.1875 99.8594L48.0117 102.508L48 102.496L47.9883 105.027L47.9922 105.366L48.832 105.289H48.9844L49.9912 105.307L49.9883 105.062V105.027L50.0117 102.391V102.344L50.0234 102.297L50.1875 99.7188L50.0703 97.1875V97.1055L50.082 94.4688L50.0586 91.9609L49.8359 89.3242L49.8242 89.1836L49.8359 89.0312L50.1055 86.5V83.9219L49.9414 81.3789V81.3672L49.9297 81.3555L49.8125 78.707L49.8008 78.6133L49.8125 78.5312L49.8994 77.3506L48.6934 77.3008L47.9004 77.4336ZM32.6328 78.8047L30.1719 79.4258L30.1602 79.4141L27.6523 80.1055L27.5586 80.1289L24.9688 80.6562L24.8867 80.6797L24.8047 80.6914L22.4844 80.8789L21.5586 81.4062L21.582 83.1641V83.1875L21.5762 84.3438L21.6719 84.3359L21.8125 84.3242L21.9648 84.3359L24.4844 84.6172L27.0742 84.6055V84.6172L29.6172 84.4414H29.6289L29.6523 84.4297L32.2891 84.3125L32.3828 84.3008L32.4766 84.3125L34.1055 84.4316V83.9219L33.9414 81.3789V81.3672L33.9297 81.3555L33.8125 78.707L33.8066 78.6641L32.6328 78.8047ZM85.8008 78.6719L85.918 81.1797H85.9297L86.1055 83.8164V83.9102L86.1064 84.3428L86.5234 84.3125L86.6172 84.3008L86.7109 84.3125L89.3477 84.4297L89.3711 84.4414H89.3828L91.9258 84.6172V84.6055L94.5156 84.6172L97.0352 84.3359L97.1875 84.3242L97.3281 84.3359L99.4238 84.5127L99.418 83.1875V83.1641L99.4414 81.4062L98.5156 80.8789L96.1953 80.6914L96.1133 80.6797L96.0312 80.6562L93.4414 80.1289L93.3477 80.1055L92.9795 80.0039H91.6523L91.5 80.0156L91.4678 79.5869L90.8398 79.4141L90.8281 79.4258L88.3672 78.8047L85.918 78.5117L85.8145 78.4902L85.8008 78.6719ZM85.9502 76.8184L85.8916 77.543L86 77L86.04 76.7998L85.9502 76.8184ZM31.2852 60.6406L31.2617 60.6641L29.1875 62.3047L29.1289 62.3516L29.0586 62.3984L27.4326 63.4082L27.4414 64.0312L27.6641 66.668L27.6758 66.8203L27.6641 66.9609L27.3828 69.4922L27.3945 72.0703L27.5586 74.625L27.5703 74.6484L27.6738 76.9912L29.4219 76.5195H29.4453L32.0117 75.875L32.0938 75.8516L32.1875 75.8398L33.8066 75.6514L33.3994 74.1533L33.3203 73.8623L33.3604 73.5625L33.6797 71.1514L33.5225 70.2598L33.2129 68.5H33.7148L33.7109 67.8672L33.3594 65.3008L33.1953 64.0234L34.4258 63.6602L36.9102 62.9453L37.6172 62.6191L35.8789 61.6016L35.75 61.5195L35.6445 61.4258L33.8867 59.8555L32.7031 59.4805L31.2852 60.6406ZM84.2852 60.6406L84.2617 60.6641L82.1875 62.3047L82.1289 62.3516L82.0596 62.3965L82.543 62.6055L85.0039 63.1914L86.0352 63.4375L86.1523 64.4805L86.4336 67.0352L86.4453 67.1641L86.4336 67.293L86.2812 69.9297L86.2764 70.0098L86.2803 70.0713L86.4346 72.6836L86.708 75.2832L86.7412 75.5996L88.8125 75.8398L88.9062 75.8516L88.9883 75.875L91.3486 76.4678L91.4297 74.6484L91.4414 74.625L91.6055 72.0703L91.6172 69.4922L91.3359 66.9609L91.3242 66.8203L91.3359 66.668L91.5586 64.0312L91.5693 63.2324L91.082 62.9023V62.8906L88.8789 61.6016L88.75 61.5195L88.6445 61.4258L86.8867 59.8555L85.7031 59.4805L84.2852 60.6406ZM61.4961 71.5L61.5078 71.5117L58.8594 71.6875L58.7773 71.6992L58.6953 71.6875L56.0469 71.5703L53.4922 71.582H53.4688L50.8203 71.5586H50.7617L50.7148 71.5469L50.1934 71.502L48.3281 71.6631L48.1816 71.6758L48.0352 71.6592L46.6807 71.5088L45.7227 71.6172L45.6406 71.6289L45.5469 71.6172L42.9102 71.6055H42.8164L41.2812 71.5029L40.3799 71.5635L40.3662 71.5645L40.3516 71.5654L37.7119 71.6914L37.6191 71.6963L37.5264 71.6895L36.6436 71.6221L36.373 73.6562L36.5713 74.3848L38.0205 74.5039L40.5273 74.249L40.75 74.2266L40.9688 74.2695L43.459 74.7568L45.8271 74.7402L48.3516 74.3164L48.5059 74.29L48.6631 74.2969L51.3027 74.4072L51.3721 74.4102L51.4404 74.4199L53.8359 74.7432L56.2383 74.2842L56.4736 74.2393L56.7129 74.2695L59.251 74.5977L61.7578 74.5879L64.3984 74.5146L64.4072 74.5137L67.0469 74.4561H67.0635L69.6748 74.4268L72.2607 74.2559L72.4502 74.2432L72.6377 74.2783L75.0527 74.7324L77.4668 74.4521L77.5908 74.4375L77.7168 74.4434L80.2744 74.5732L82.7188 74.4258L83.582 74.2471L83.4473 72.957L83.4434 72.9229L83.4414 72.8887L83.3613 71.5498L82.7188 71.6406L82.6016 71.6523H82.4844L79.8711 71.5938L77.2695 71.6523H74.6094L74.6211 71.6641L71.9844 71.7109H71.832L69.5889 71.502L69.4521 71.5146L69.4141 71.5176L69.376 71.5195L66.7363 71.6182L66.6777 71.6201L66.6182 71.6182L63.9951 71.5098L62.4717 71.4951L61.4961 71.5ZM58.0273 58.5508L57.8164 58.6562L57.582 58.6914L55.1562 59.0781L53.0234 60.1914L52.9531 60.2266L52.8945 60.25L50.4453 61.2461L50.3047 61.3047L50.1523 61.3398L47.6211 61.7969L45.3828 62.582L43.2148 63.8828L43.0273 64L42.8047 64.0469L41.8857 64.2783L41.9141 64.5H41.0098L40.3438 64.668L38.082 65.6992L37.9883 65.7461L37.8828 65.7695L36.5 66.1797L36.6875 67.5391L36.6992 67.6328V68.3828L37.5312 68.3125L37.6133 68.3008L37.707 68.3125L40.3555 68.4297L40.3672 68.4414H40.3789L41.2314 68.5L42.8203 68.3936L42.8662 68.3906H42.9121L45.5527 68.377H45.6387L45.7246 68.3867L46.6514 68.4883L48.0312 68.3359L48.1836 68.3242L48.3242 68.3359L50.1348 68.4961L50.7119 68.4473L50.7676 68.4424H50.8232L53.4629 68.4121H53.4893L56.0957 68.4287L58.6904 68.3076L58.7764 68.3037L58.8623 68.3096L61.4492 68.4863L63.2568 68.5029L63.9805 68.5V68.4883L66.6172 68.3828H66.7344L69.3711 68.4766H69.418L69.4531 68.4883L69.5381 68.4951L71.8281 68.293L71.9062 68.2861L71.9844 68.2871L74.625 68.3311L74.624 68.332L77.249 68.3467H77.2607L77.2734 68.3477L79.8809 68.4053L82.4883 68.3506L82.6064 68.3477L82.7236 68.3643L83.3564 68.4502L83.4336 67.293L83.2695 65.8633L81.7227 65.4883L81.6055 65.4648L81.4766 65.418L79.1445 64.4102L78.9961 64.3643V64.5H77.0859L77.1719 63.8086L76.6836 63.6602L76.5547 63.625L76.4492 63.5664L74.2812 62.5L71.8438 62.0898L71.6562 62.0664L71.4805 61.9844L69.1367 60.9648L66.6641 60.0391H66.6523L64.1797 59.0898L64.168 59.0781L61.7656 58.1523L59.8672 57.6016L58.0273 58.5508ZM31.4492 52.5117L31.4141 52.5234H31.3789L28.7305 52.6172H28.6133L27.5 52.5703L27.4883 53.6367V53.6719L27.4766 53.707L27.3008 56.2617L27.4297 58.8047V58.8867L27.4248 59.8682L27.4648 59.8438L29.3867 58.3203L31.4258 56.6445L32.0586 56.1289L32.8438 56.375L35.1172 57.1133L35.4219 57.207L35.668 57.418L37.5781 59.1289L38.3643 59.5918L38.2812 58.2539V58.1016L38.293 57.9492L38.6328 55.4766L38.5977 53.1914L38.2344 52.3359H36.5703L33.957 52.2891L31.4492 52.5117ZM82.4297 52.3359H80.7656L80.4023 53.1914L80.3672 55.4766L80.707 57.9492L80.7188 58.1016V58.2539L80.627 59.7139L82.3867 58.3203L84.4258 56.6445L85.0586 56.1289L85.8438 56.375L88.1172 57.1133L88.4219 57.207L88.668 57.418L90.5781 59.1289L91.5732 59.7148L91.5703 58.8867V58.8047L91.6992 56.2617L91.5234 53.707L91.5117 53.6719V53.6367L91.5 52.5703L90.3867 52.6172H90.2695L87.6211 52.5234H87.5859L87.5508 52.5117L85.043 52.2891L82.4297 52.3359ZM57.7383 35.2734L55.2656 35.3789L52.7578 35.8594V35.8477L50.332 36.5273L50.3086 36.5391H50.2852L48.2461 37.0312L47.6836 37.7695L47.5664 39.9492L47.5898 42.5156V42.5391L47.5547 45.1758V45.293L47.332 47.7539L47.6133 50.2734L47.625 50.3555V50.4492L47.6133 53.0859V53.1328L47.6016 53.1797L47.4258 55.8164L47.3086 58.4297L47.3369 58.791L49.4258 58.4219L51.6758 57.5078L53.9961 56.3008L54.2188 56.1836L54.4531 56.1484L56.8789 55.7734L58.1152 55.1309L57.9531 54.0156L57.9297 53.875L57.8125 51.4844L57.8008 51.3789L57.8125 51.2734L58 48.9766L58.2812 49H61V49.2227L60.8008 51.4492L60.918 53.6172L61.0938 54.7773L61.1016 54.833L62.668 55.2812L62.7383 55.293L62.8086 55.3281L65.2695 56.2891L67.6953 57.2383L67.707 57.2266L70.1797 58.1523L70.2148 58.1641L70.2617 58.1758L70.5469 58.3018L70.5703 55.7344V55.6992L70.582 55.6523L70.7344 53.1797L70.2773 50.7539L70.2305 50.5312L70.2656 50.2969L70.5586 47.8008L70.4297 45.2695L70.418 45.1875L70.4297 45.1055L70.582 42.5625L70.2891 40.0898L70.2773 39.9258L70.2891 39.7617L70.5117 37.6992L69.9258 36.9023L67.9336 36.7383L67.8164 36.7266L67.6992 36.7031L65.2148 36.0586L65.2031 36.0703L62.625 35.543L62.6367 35.5312L60.2578 35.2383L57.7383 35.2734ZM30.1719 44.5078L28.7656 46.0312L27.875 47.9531L27.7344 49.5781L28.6836 49.6172L31.1914 49.5352V49.5234L33.8281 49.2891H33.9805L36.6289 49.3359L36.6172 49.3477H38.3994L38.3164 47.7422L37.332 45.9258L35.75 44.5312L33.8398 43.7109L31.8945 43.5234L30.1719 44.5078ZM83.1719 44.5078L81.7656 46.0312L80.875 47.9531L80.7549 49.3477H82.3828L82.3711 49.3359L85.0195 49.2891H85.1719L87.8086 49.5234V49.5352L90.3164 49.6172L91.4111 49.5723L91.3164 47.7422L90.332 45.9258L88.75 44.5312L86.8398 43.7109L84.8945 43.5234L83.1719 44.5078ZM65.2695 41H68V41.2227L67.8008 43.4492L67.918 45.6172L68.0938 46.7773L68.3398 48.5H66.5V47.0117L65.1289 47.2227L64.9531 46.0156L64.9297 45.875L64.8125 43.4844L64.8008 43.3789L64.8125 43.2734L65 40.9766L65.2695 41ZM50.2695 40H53V40.2227L52.8008 42.4492L52.918 44.6172L53.0938 45.7773L53.3398 47.5H51.5V46.0117L50.1289 46.2227L49.9531 45.0156L49.9297 44.875L49.8125 42.4844L49.8008 42.3789L49.8125 42.2734L50 39.9766L50.2695 40ZM55.2695 39H58V39.2227L57.8008 41.4492L57.918 43.6172L58.0938 44.7773L58.3398 46.5H56.5V45.0117L55.1289 45.2227L54.9531 44.0156L54.9297 43.875L54.8125 41.4844L54.8008 41.3789L54.8125 41.2734L55 38.9766L55.2695 39ZM60.2695 39H63V39.2227L62.8008 41.4492L62.918 43.6172L63.0938 44.7773L63.3398 46.5H61.5V45.0117L60.1289 45.2227L59.9531 44.0156L59.9297 43.875L59.8125 41.4844L59.8008 41.3789L59.8125 41.2734L60 38.9766L60.2695 39ZM56.7227 21.9219L54.5781 22.7539L52.6445 23.9609L51.0742 25.6602L49.8555 27.8047L48.7539 29.9844L48.0625 32.2227L47.7412 34.0664L49.582 33.6211L52.0898 32.9297L52.207 32.9062L54.7969 32.4141L54.9023 32.4023L55.0195 32.3906L57.6445 32.2852H57.6914L60.3047 32.2383H60.4102L60.5156 32.25L63.1055 32.5781L63.2227 32.6016L65.8008 33.1289L65.8359 33.1406H65.8711L68.2969 33.75L70.8516 33.9844L71.4922 34.04L71.5 33.5234L70.9023 31.2734L69.9414 29.1055L68.6406 26.832V26.8203L67.4219 24.8984L65.6055 23.5859L63.4609 22.4141L61.3398 21.7461L58.9609 21.7109L56.7227 21.9219Z" fill="black"/>
</svg>
