<svg width="120" height="120" viewBox="0 0 120 120" fill="none" xmlns="http://www.w3.org/2000/svg">
<path d="M111.312 114.289L112.355 114.547L111.652 117.453L110.891 117.266L108.547 117.629L108.453 117.652H108.359L105.723 117.723H105.582L103.051 117.301L100.672 117.734L100.438 117.781L100.203 117.746L97.6367 117.406H95.2344L92.5977 117.629L92.4922 117.641L92.3984 117.629L89.75 117.477V117.465L87.2773 117.348L84.7812 117.734L84.582 117.77L84.3945 117.746L81.8516 117.453L79.2969 117.477L79.2852 117.465L76.7773 117.711L76.6133 117.723L76.4492 117.699L73.918 117.383L71.3867 117.43H71.3281L68.6914 117.371H68.6445L66.1719 117.23L63.7109 117.699L63.4766 117.746L63.2305 117.711L60.7227 117.348L58.2383 117.488H58.0156L55.5898 117.242L53.1406 117.676L52.8828 117.723L52.6133 117.676L50.1172 117.242L47.6914 117.395H47.668L47.6445 117.406L42.3711 117.57H42.2539L42.1367 117.559L39.5938 117.254L37.1328 117.418L37.0508 117.43L36.957 117.418L34.5078 117.277L32 117.699L31.7891 117.734L31.5781 117.711L29.0234 117.395L26.5391 117.324L23.9492 117.512L23.8906 117.523H23.832L21.1953 117.512H21.0781L18.5 117.301L16.0508 117.395L16.0625 117.406L13.4258 117.664L13.2734 117.676L13.1211 117.664L10.625 117.395L8.16406 117.5H8V114.5H8.03516L10.5781 114.395L10.6836 114.383L10.8008 114.395L13.2852 114.664L15.7695 114.418H15.8633L18.5 114.312L18.5938 114.301L18.6758 114.312L21.3125 114.512L21.3008 114.523H23.7383L26.375 114.336L26.4453 114.324L26.5273 114.336L29.1641 114.406H29.2344L29.293 114.418L31.7305 114.699L34.1562 114.301L34.3203 114.277L34.4844 114.289L37.0156 114.43L39.582 114.254L39.7227 114.242L39.8633 114.266L42.3711 114.57L44.9141 114.488L47.5039 114.418V114.406L50.1523 114.242L50.3281 114.23L50.5039 114.266L52.8828 114.688L55.2617 114.266L55.4609 114.23L55.6602 114.242L58.1328 114.488L60.7227 114.348L60.8633 114.336L61.0156 114.359L63.418 114.711L65.8086 114.266L65.9844 114.23L66.1602 114.242L68.7969 114.371L68.7852 114.383L71.3633 114.43L73.9766 114.383H74.082L74.1875 114.395L76.6836 114.711L79.1445 114.477H79.2734L81.9102 114.453H82.0039L82.0859 114.465L84.5469 114.746L86.9727 114.371L87.125 114.348L87.2773 114.359L89.9141 114.488H89.9258L92.4453 114.641L95 114.43L95.0586 114.418H95.1055L97.7539 114.406H97.8594L97.9648 114.418L100.367 114.746L102.77 114.312L103.027 114.266L103.285 114.301L105.816 114.723L108.137 114.664L110.738 114.266L111.031 114.219L111.312 114.289Z" fill="black"/>
<path d="M111.312 48.2891L112.355 48.5469L111.652 51.4531L110.891 51.2656L108.547 51.6289L108.453 51.6523H108.359L105.723 51.7227H105.582L103.051 51.3008L100.672 51.7344L100.438 51.7812L100.203 51.7461L97.6367 51.4062H95.2344L92.5977 51.6289L92.4922 51.6406L92.3984 51.6289L89.75 51.4766V51.4648L87.2773 51.3477L84.7812 51.7344L84.582 51.7695L84.3945 51.7461L81.8516 51.4531L79.2969 51.4766L79.2852 51.4648L76.7773 51.7109L76.6133 51.7227L76.4492 51.6992L73.918 51.3828L71.3867 51.4297H71.3281L68.6914 51.3711H68.6445L66.1719 51.2305L63.7109 51.6992L63.4766 51.7461L63.2305 51.7109L60.7227 51.3477L58.2383 51.4883H58.0156L55.5898 51.2422L53.1406 51.6758L52.8828 51.7227L52.6133 51.6758L50.1172 51.2422L47.6914 51.3945H47.668L47.6445 51.4062L42.3711 51.5703H42.2539L42.1367 51.5586L39.5938 51.2539L37.1328 51.418L37.0508 51.4297L36.957 51.418L34.5078 51.2773L32 51.6992L31.7891 51.7344L31.5781 51.7109L29.0234 51.3945L26.5391 51.3242L23.9492 51.5117L23.8906 51.5234H23.832L21.1953 51.5117H21.0781L18.5 51.3008L16.0508 51.3945L16.0625 51.4062L13.4258 51.6641L13.2734 51.6758L13.1211 51.6641L10.625 51.3945L8.16406 51.5H8V48.5H8.03516L10.5781 48.3945L10.6836 48.3828L10.8008 48.3945L13.2852 48.6641L15.7695 48.418H15.8633L18.5 48.3125L18.5938 48.3008L18.6758 48.3125L21.3125 48.5117L21.3008 48.5234H23.7383L26.375 48.3359L26.4453 48.3242L26.5273 48.3359L29.1641 48.4062H29.2344L29.293 48.418L31.7305 48.6992L34.1562 48.3008L34.3203 48.2773L34.4844 48.2891L37.0156 48.4297L39.582 48.2539L39.7227 48.2422L39.8633 48.2656L42.3711 48.5703L44.9141 48.4883L47.5039 48.418V48.4062L50.1523 48.2422L50.3281 48.2305L50.5039 48.2656L52.8828 48.6875L55.2617 48.2656L55.4609 48.2305L55.6602 48.2422L58.1328 48.4883L60.7227 48.3477L60.8633 48.3359L61.0156 48.3594L63.418 48.7109L65.8086 48.2656L65.9844 48.2305L66.1602 48.2422L68.7969 48.3711L68.7852 48.3828L71.3633 48.4297L73.9766 48.3828H74.082L74.1875 48.3945L76.6836 48.7109L79.1445 48.4766H79.2734L81.9102 48.4531H82.0039L82.0859 48.4648L84.5469 48.7461L86.9727 48.3711L87.125 48.3477L87.2773 48.3594L89.9141 48.4883H89.9258L92.4453 48.6406L95 48.4297L95.0586 48.418H95.1055L97.7539 48.4062H97.8594L97.9648 48.418L100.367 48.7461L102.77 48.3125L103.027 48.2656L103.285 48.3008L105.816 48.7227L108.137 48.6641L110.738 48.2656L111.031 48.2188L111.312 48.2891Z" fill="black"/>
<path d="M111.312 53.2891L112.355 53.5469L111.652 56.4531L110.891 56.2656L108.547 56.6289L108.453 56.6523H108.359L105.723 56.7227H105.582L103.051 56.3008L100.672 56.7344L100.438 56.7812L100.203 56.7461L97.6367 56.4062H95.2344L92.5977 56.6289L92.4922 56.6406L92.3984 56.6289L89.75 56.4766V56.4648L87.2773 56.3477L84.7812 56.7344L84.582 56.7695L84.3945 56.7461L81.8516 56.4531L79.2969 56.4766L79.2852 56.4648L76.7773 56.7109L76.6133 56.7227L76.4492 56.6992L73.918 56.3828L71.3867 56.4297H71.3281L68.6914 56.3711H68.6445L66.1719 56.2305L63.7109 56.6992L63.4766 56.7461L63.2305 56.7109L60.7227 56.3477L58.2383 56.4883H58.0156L55.5898 56.2422L53.1406 56.6758L52.8828 56.7227L52.6133 56.6758L50.1172 56.2422L47.6914 56.3945H47.668L47.6445 56.4062L42.3711 56.5703H42.2539L42.1367 56.5586L39.5938 56.2539L37.1328 56.418L37.0508 56.4297L36.957 56.418L34.5078 56.2773L32 56.6992L31.7891 56.7344L31.5781 56.7109L29.0234 56.3945L26.5391 56.3242L23.9492 56.5117L23.8906 56.5234H23.832L21.1953 56.5117H21.0781L18.5 56.3008L16.0508 56.3945L16.0625 56.4062L13.4258 56.6641L13.2734 56.6758L13.1211 56.6641L10.625 56.3945L8.16406 56.5H8V53.5H8.03516L10.5781 53.3945L10.6836 53.3828L10.8008 53.3945L13.2852 53.6641L15.7695 53.418H15.8633L18.5 53.3125L18.5938 53.3008L18.6758 53.3125L21.3125 53.5117L21.3008 53.5234H23.7383L26.375 53.3359L26.4453 53.3242L26.5273 53.3359L29.1641 53.4062H29.2344L29.293 53.418L31.7305 53.6992L34.1562 53.3008L34.3203 53.2773L34.4844 53.2891L37.0156 53.4297L39.582 53.2539L39.7227 53.2422L39.8633 53.2656L42.3711 53.5703L44.9141 53.4883L47.5039 53.418V53.4062L50.1523 53.2422L50.3281 53.2305L50.5039 53.2656L52.8828 53.6875L55.2617 53.2656L55.4609 53.2305L55.6602 53.2422L58.1328 53.4883L60.7227 53.3477L60.8633 53.3359L61.0156 53.3594L63.418 53.7109L65.8086 53.2656L65.9844 53.2305L66.1602 53.2422L68.7969 53.3711L68.7852 53.3828L71.3633 53.4297L73.9766 53.3828H74.082L74.1875 53.3945L76.6836 53.7109L79.1445 53.4766H79.2734L81.9102 53.4531H82.0039L82.0859 53.4648L84.5469 53.7461L86.9727 53.3711L87.125 53.3477L87.2773 53.3594L89.9141 53.4883H89.9258L92.4453 53.6406L95 53.4297L95.0586 53.418H95.1055L97.7539 53.4062H97.8594L97.9648 53.418L100.367 53.7461L102.77 53.3125L103.027 53.2656L103.285 53.3008L105.816 53.7227L108.137 53.6641L110.738 53.2656L111.031 53.2188L111.312 53.2891Z" fill="black"/>
<path d="M111.312 18.2891L112.355 18.5469L111.652 21.4531L110.891 21.2656L108.547 21.6289L108.453 21.6523H108.359L105.723 21.7227H105.582L103.051 21.3008L100.672 21.7344L100.438 21.7812L100.203 21.7461L97.6367 21.4062H95.2344L92.5977 21.6289L92.4922 21.6406L92.3984 21.6289L89.75 21.4766V21.4648L87.2773 21.3477L84.7812 21.7344L84.582 21.7695L84.3945 21.7461L81.8516 21.4531L79.2969 21.4766L79.2852 21.4648L76.7773 21.7109L76.6133 21.7227L76.4492 21.6992L73.918 21.3828L71.3867 21.4297H71.3281L68.6914 21.3711H68.6445L66.1719 21.2305L63.7109 21.6992L63.4766 21.7461L63.2305 21.7109L60.7227 21.3477L58.2383 21.4883H58.0156L55.5898 21.2422L53.1406 21.6758L52.8828 21.7227L52.6133 21.6758L50.1172 21.2422L47.6914 21.3945H47.668L47.6445 21.4062L42.3711 21.5703H42.2539L42.1367 21.5586L39.5938 21.2539L37.1328 21.418L37.0508 21.4297L36.957 21.418L34.5078 21.2773L32 21.6992L31.7891 21.7344L31.5781 21.7109L29.0234 21.3945L26.5391 21.3242L23.9492 21.5117L23.8906 21.5234H23.832L21.1953 21.5117H21.0781L18.5 21.3008L16.0508 21.3945L16.0625 21.4062L13.4258 21.6641L13.2734 21.6758L13.1211 21.6641L10.625 21.3945L8.16406 21.5H8V18.5H8.03516L10.5781 18.3945L10.6836 18.3828L10.8008 18.3945L13.2852 18.6641L15.7695 18.418H15.8633L18.5 18.3125L18.5938 18.3008L18.6758 18.3125L21.3125 18.5117L21.3008 18.5234H23.7383L26.375 18.3359L26.4453 18.3242L26.5273 18.3359L29.1641 18.4062H29.2344L29.293 18.418L31.7305 18.6992L34.1562 18.3008L34.3203 18.2773L34.4844 18.2891L37.0156 18.4297L39.582 18.2539L39.7227 18.2422L39.8633 18.2656L42.3711 18.5703L44.9141 18.4883L47.5039 18.418V18.4062L50.1523 18.2422L50.3281 18.2305L50.5039 18.2656L52.8828 18.6875L55.2617 18.2656L55.4609 18.2305L55.6602 18.2422L58.1328 18.4883L60.7227 18.3477L60.8633 18.3359L61.0156 18.3594L63.418 18.7109L65.8086 18.2656L65.9844 18.2305L66.1602 18.2422L68.7969 18.3711L68.7852 18.3828L71.3633 18.4297L73.9766 18.3828H74.082L74.1875 18.3945L76.6836 18.7109L79.1445 18.4766H79.2734L81.9102 18.4531H82.0039L82.0859 18.4648L84.5469 18.7461L86.9727 18.3711L87.125 18.3477L87.2773 18.3594L89.9141 18.4883H89.9258L92.4453 18.6406L95 18.4297L95.0586 18.418H95.1055L97.7539 18.4062H97.8594L97.9648 18.418L100.367 18.7461L102.77 18.3125L103.027 18.2656L103.285 18.3008L105.816 18.7227L108.137 18.6641L110.738 18.2656L111.031 18.2188L111.312 18.2891Z" fill="black"/>
<path d="M111.312 13.2891L112.355 13.5469L111.652 16.4531L110.891 16.2656L108.547 16.6289L108.453 16.6523H108.359L105.723 16.7227H105.582L103.051 16.3008L100.672 16.7344L100.438 16.7812L100.203 16.7461L97.6367 16.4062H95.2344L92.5977 16.6289L92.4922 16.6406L92.3984 16.6289L89.75 16.4766V16.4648L87.2773 16.3477L84.7812 16.7344L84.582 16.7695L84.3945 16.7461L81.8516 16.4531L79.2969 16.4766L79.2852 16.4648L76.7773 16.7109L76.6133 16.7227L76.4492 16.6992L73.918 16.3828L71.3867 16.4297H71.3281L68.6914 16.3711H68.6445L66.1719 16.2305L63.7109 16.6992L63.4766 16.7461L63.2305 16.7109L60.7227 16.3477L58.2383 16.4883H58.0156L55.5898 16.2422L53.1406 16.6758L52.8828 16.7227L52.6133 16.6758L50.1172 16.2422L47.6914 16.3945H47.668L47.6445 16.4062L42.3711 16.5703H42.2539L42.1367 16.5586L39.5938 16.2539L37.1328 16.418L37.0508 16.4297L36.957 16.418L34.5078 16.2773L32 16.6992L31.7891 16.7344L31.5781 16.7109L29.0234 16.3945L26.5391 16.3242L23.9492 16.5117L23.8906 16.5234H23.832L21.1953 16.5117H21.0781L18.5 16.3008L16.0508 16.3945L16.0625 16.4062L13.4258 16.6641L13.2734 16.6758L13.1211 16.6641L10.625 16.3945L8.16406 16.5H8V13.5H8.03516L10.5781 13.3945L10.6836 13.3828L10.8008 13.3945L13.2852 13.6641L15.7695 13.418H15.8633L18.5 13.3125L18.5938 13.3008L18.6758 13.3125L21.3125 13.5117L21.3008 13.5234H23.7383L26.375 13.3359L26.4453 13.3242L26.5273 13.3359L29.1641 13.4062H29.2344L29.293 13.418L31.7305 13.6992L34.1562 13.3008L34.3203 13.2773L34.4844 13.2891L37.0156 13.4297L39.582 13.2539L39.7227 13.2422L39.8633 13.2656L42.3711 13.5703L44.9141 13.4883L47.5039 13.418V13.4062L50.1523 13.2422L50.3281 13.2305L50.5039 13.2656L52.8828 13.6875L55.2617 13.2656L55.4609 13.2305L55.6602 13.2422L58.1328 13.4883L60.7227 13.3477L60.8633 13.3359L61.0156 13.3594L63.418 13.7109L65.8086 13.2656L65.9844 13.2305L66.1602 13.2422L68.7969 13.3711L68.7852 13.3828L71.3633 13.4297L73.9766 13.3828H74.082L74.1875 13.3945L76.6836 13.7109L79.1445 13.4766H79.2734L81.9102 13.4531H82.0039L82.0859 13.4648L84.5469 13.7461L86.9727 13.3711L87.125 13.3477L87.2773 13.3594L89.9141 13.4883H89.9258L92.4453 13.6406L95 13.4297L95.0586 13.418H95.1055L97.7539 13.4062H97.8594L97.9648 13.418L100.367 13.7461L102.77 13.3125L103.027 13.2656L103.285 13.3008L105.816 13.7227L108.137 13.6641L110.738 13.2656L111.031 13.2188L111.312 13.2891Z" fill="black"/>
<path d="M91.1406 58.6523L93.7539 58.6992H93.9531L94.1406 58.7578L96.6602 59.4961L96.8359 59.543L97 59.6367L99.2383 60.9609L101.535 62.2266L101.887 62.4141L102.098 62.7539L103.48 65.0156L104.875 67.2422L105.016 67.4414L105.074 67.6758L105.672 70.1602L106.551 72.5977L106.68 72.9492L106.621 73.3242L106.234 75.832L106.398 78.3047V78.3516L106.48 80.9883L106.574 83.625V83.7422L106.562 83.8594L106.234 86.4961L106.141 87.3516L105.355 87.6914L104.5 88.0547L104.289 89.5547L104.699 91.9922L104.734 92.2031L104.711 92.4141L104.406 94.9219L104.324 97.418L104.512 100.055L104.523 100.113V100.16L104.512 102.809V102.914L104.301 105.492L104.406 107.93L104.664 110.578L104.676 110.73L104.664 110.883L104.395 113.355L104.5 115.84V116.004H101.5V115.969L101.395 113.426L101.383 113.309L101.395 113.203L101.652 110.695L101.418 108.223V108.141L101.312 105.504L101.301 105.41L101.312 105.328L101.512 102.68L101.523 100.266L101.336 97.6289L101.324 97.5469L101.336 97.4766L101.406 94.8398V94.7695L101.418 94.6992L101.699 92.2383L101.301 89.8477L101.266 89.625L101.301 89.3906L101.652 86.8125L101.77 85.9805L102.543 85.6523L103.352 85.2891L103.562 83.6133L103.492 81.0938L103.398 78.4922L103.234 75.8555V75.6914L103.258 75.5391L103.598 73.2539L102.824 71.0977L102.801 71.0156L102.789 70.9453L102.215 68.625L100.938 66.6211V66.5977L99.7422 64.6523L97.75 63.5625L97.7266 63.5508L97.7148 63.5391L95.6172 62.3086L93.4961 61.6875L91.082 61.6523V61.6406L88.8672 61.8047L86.8633 62.9062L84.8711 64.3711L83.1836 65.8125L82.2461 67.9453L82.2344 67.957V67.9805L81.1797 70.1836L80.5234 72.457L80.582 74.8828V74.9062L80.5938 77.543V77.6484L80.582 77.7539L80.2539 80.1562L80.6875 82.5703L80.7344 82.8164L80.6992 83.0742L80.3594 85.1133L81.25 86.3906L82.4102 87.7969L82.75 88.2188V88.7578L82.7383 91.3945V91.5L82.7266 91.6055L82.3516 94.1016L82.5039 96.5859V96.668L82.5156 99.3047V99.3516L82.4453 102L82.3867 104.625V104.648L82.3047 107.156L82.6445 109.676L82.6562 109.816V109.945L82.5273 112.582L82.7383 115.031L82.7617 115.301L82.6797 115.559L82.4453 116.414L79.5625 115.594L79.7266 114.996L79.5273 112.629V112.441L79.6445 109.934L79.3164 107.438L79.3047 107.309V107.18L79.3984 104.543L79.4453 101.918L79.5156 99.3164L79.5039 96.7617L79.3633 94.1133L79.3516 93.9609L79.375 93.8203L79.7383 91.3242V89.2852L78.8594 88.207L78.8125 88.1602L78.7773 88.1016L77.5469 86.332L77.207 85.8281L77.3008 85.2305L77.6992 82.8516L77.2656 80.4609L77.2188 80.2266L77.2539 79.9922L77.5938 77.4375L77.582 74.9414L77.5234 72.293V72.0703L77.582 71.8477L78.3203 69.3047L78.3438 69.1875L78.4023 69.0703L79.5156 66.7031L80.5938 64.2891L80.7227 63.9727L80.9805 63.75L83.0195 62.0156L83.0547 61.9805L83.1133 61.9453L85.2344 60.3984L85.3047 60.3398L85.3984 60.293L87.7305 59.0156L88.0234 58.8516L88.3516 58.8281L91.0117 58.6523H91.1406Z" fill="black"/>
<path d="M59.1406 58.6523L61.7539 58.6992H61.9531L62.1406 58.7578L64.6602 59.4961L64.8359 59.543L65 59.6367L67.2383 60.9609L69.5352 62.2266L69.8867 62.4141L70.0977 62.7539L71.4805 65.0156L72.875 67.2422L73.0156 67.4414L73.0742 67.6758L73.6719 70.1602L74.5508 72.5977L74.6797 72.9492L74.6211 73.3242L74.2344 75.832L74.3984 78.3047V78.3516L74.4805 80.9883L74.5742 83.625V83.7422L74.5625 83.8594L74.2344 86.4961L74.1406 87.3516L73.3555 87.6914L72.5 88.0547L72.2891 89.5547L72.6992 91.9922L72.7344 92.2031L72.7109 92.4141L72.4062 94.9219L72.3242 97.418L72.5117 100.055L72.5234 100.113V100.16L72.5117 102.809V102.914L72.3008 105.492L72.4062 107.93L72.6641 110.578L72.6758 110.73L72.6641 110.883L72.3945 113.355L72.5 115.84V116.004H69.5V115.969L69.3945 113.426L69.3828 113.309L69.3945 113.203L69.6523 110.695L69.418 108.223V108.141L69.3125 105.504L69.3008 105.41L69.3125 105.328L69.5117 102.68L69.5234 100.266L69.3359 97.6289L69.3242 97.5469L69.3359 97.4766L69.4062 94.8398V94.7695L69.418 94.6992L69.6992 92.2383L69.3008 89.8477L69.2656 89.625L69.3008 89.3906L69.6523 86.8125L69.7695 85.9805L70.543 85.6523L71.3516 85.2891L71.5625 83.6133L71.4922 81.0938L71.3984 78.4922L71.2344 75.8555V75.6914L71.2578 75.5391L71.5977 73.2539L70.8242 71.0977L70.8008 71.0156L70.7891 70.9453L70.2148 68.625L68.9375 66.6211V66.5977L67.7422 64.6523L65.75 63.5625L65.7266 63.5508L65.7148 63.5391L63.6172 62.3086L61.4961 61.6875L59.082 61.6523V61.6406L56.8672 61.8047L54.8633 62.9062L52.8711 64.3711L51.1836 65.8125L50.2461 67.9453L50.2344 67.957V67.9805L49.1797 70.1836L48.5234 72.457L48.582 74.8828V74.9062L48.5938 77.543V77.6484L48.582 77.7539L48.2539 80.1562L48.6875 82.5703L48.7344 82.8164L48.6992 83.0742L48.3594 85.1133L49.25 86.3906L50.4102 87.7969L50.75 88.2188V88.7578L50.7383 91.3945V91.5L50.7266 91.6055L50.3516 94.1016L50.5039 96.5859V96.668L50.5156 99.3047V99.3516L50.4453 102L50.3867 104.625V104.648L50.3047 107.156L50.6445 109.676L50.6562 109.816V109.945L50.5273 112.582L50.7383 115.031L50.7617 115.301L50.6797 115.559L50.4453 116.414L47.5625 115.594L47.7266 114.996L47.5273 112.629V112.441L47.6445 109.934L47.3164 107.438L47.3047 107.309V107.18L47.3984 104.543L47.4453 101.918L47.5156 99.3164L47.5039 96.7617L47.3633 94.1133L47.3516 93.9609L47.375 93.8203L47.7383 91.3242V89.2852L46.8594 88.207L46.8125 88.1602L46.7773 88.1016L45.5469 86.332L45.207 85.8281L45.3008 85.2305L45.6992 82.8516L45.2656 80.4609L45.2188 80.2266L45.2539 79.9922L45.5938 77.4375L45.582 74.9414L45.5234 72.293V72.0703L45.582 71.8477L46.3203 69.3047L46.3438 69.1875L46.4023 69.0703L47.5156 66.7031L48.5938 64.2891L48.7227 63.9727L48.9805 63.75L51.0195 62.0156L51.0547 61.9805L51.1133 61.9453L53.2344 60.3984L53.3047 60.3398L53.3984 60.293L55.7305 59.0156L56.0234 58.8516L56.3516 58.8281L59.0117 58.6523H59.1406Z" fill="black"/>
<path d="M27.1406 58.6523L29.7539 58.6992H29.9531L30.1406 58.7578L32.6602 59.4961L32.8359 59.543L33 59.6367L35.2383 60.9609L37.5352 62.2266L37.8867 62.4141L38.0977 62.7539L39.4805 65.0156L40.875 67.2422L41.0156 67.4414L41.0742 67.6758L41.6719 70.1602L42.5508 72.5977L42.6797 72.9492L42.6211 73.3242L42.2344 75.832L42.3984 78.3047V78.3516L42.4805 80.9883L42.5742 83.625V83.7422L42.5625 83.8594L42.2344 86.4961L42.1406 87.3516L41.3555 87.6914L40.5 88.0547L40.2891 89.5547L40.6992 91.9922L40.7344 92.2031L40.7109 92.4141L40.4062 94.9219L40.3242 97.418L40.5117 100.055L40.5234 100.113V100.16L40.5117 102.809V102.914L40.3008 105.492L40.4062 107.93L40.6641 110.578L40.6758 110.73L40.6641 110.883L40.3945 113.355L40.5 115.84V116.004H37.5V115.969L37.3945 113.426L37.3828 113.309L37.3945 113.203L37.6523 110.695L37.418 108.223V108.141L37.3125 105.504L37.3008 105.41L37.3125 105.328L37.5117 102.68L37.5234 100.266L37.3359 97.6289L37.3242 97.5469L37.3359 97.4766L37.4062 94.8398V94.7695L37.418 94.6992L37.6992 92.2383L37.3008 89.8477L37.2656 89.625L37.3008 89.3906L37.6523 86.8125L37.7695 85.9805L38.543 85.6523L39.3516 85.2891L39.5625 83.6133L39.4922 81.0938L39.3984 78.4922L39.2344 75.8555V75.6914L39.2578 75.5391L39.5977 73.2539L38.8242 71.0977L38.8008 71.0156L38.7891 70.9453L38.2148 68.625L36.9375 66.6211V66.5977L35.7422 64.6523L33.75 63.5625L33.7266 63.5508L33.7148 63.5391L31.6172 62.3086L29.4961 61.6875L27.082 61.6523V61.6406L24.8672 61.8047L22.8633 62.9062L20.8711 64.3711L19.1836 65.8125L18.2461 67.9453L18.2344 67.957V67.9805L17.1797 70.1836L16.5234 72.457L16.582 74.8828V74.9062L16.5938 77.543V77.6484L16.582 77.7539L16.2539 80.1562L16.6875 82.5703L16.7344 82.8164L16.6992 83.0742L16.3594 85.1133L17.25 86.3906L18.4102 87.7969L18.75 88.2188V88.7578L18.7383 91.3945V91.5L18.7266 91.6055L18.3516 94.1016L18.5039 96.5859V96.668L18.5156 99.3047V99.3516L18.4453 102L18.3867 104.625V104.648L18.3047 107.156L18.6445 109.676L18.6562 109.816V109.945L18.5273 112.582L18.7383 115.031L18.7617 115.301L18.6797 115.559L18.4453 116.414L15.5625 115.594L15.7266 114.996L15.5273 112.629V112.441L15.6445 109.934L15.3164 107.438L15.3047 107.309V107.18L15.3984 104.543L15.4453 101.918L15.5156 99.3164L15.5039 96.7617L15.3633 94.1133L15.3516 93.9609L15.375 93.8203L15.7383 91.3242V89.2852L14.8594 88.207L14.8125 88.1602L14.7773 88.1016L13.5469 86.332L13.207 85.8281L13.3008 85.2305L13.6992 82.8516L13.2656 80.4609L13.2188 80.2266L13.2539 79.9922L13.5938 77.4375L13.582 74.9414L13.5234 72.293V72.0703L13.582 71.8477L14.3203 69.3047L14.3438 69.1875L14.4023 69.0703L15.5156 66.7031L16.5938 64.2891L16.7227 63.9727L16.9805 63.75L19.0195 62.0156L19.0547 61.9805L19.1133 61.9453L21.2344 60.3984L21.3047 60.3398L21.3984 60.293L23.7305 59.0156L24.0234 58.8516L24.3516 58.8281L27.0117 58.6523H27.1406Z" fill="black"/>
<path d="M52.5195 24.7578L55.0859 25.2969L55.707 25.4375L56.0469 25.9766L57.4531 28.2383L57.582 28.4375L57.6406 28.6719L58.25 31.1797L58.2852 31.2969L58.2969 31.4141L58.5195 34.0391V34.168L58.5078 36.8047V36.9219L58.3086 39.3828L58.4141 42.0195L58.6602 44.5742L58.6719 44.7266L58.6602 44.8789L58.3906 47.3633L58.4961 49.8359V50H55.4961V49.9648L55.3906 47.4219V47.3164L55.4023 47.1992L55.6484 44.7031L55.4141 42.2305V42.1367L55.3086 39.5V39.3242L55.5078 36.793L55.5195 34.1562L55.3203 31.7891L54.7695 29.5977L53.8438 28.0977L52.2031 27.7461L50.5742 28.1094L49.4141 29.5391L48.5117 31.4258V33.6875L48.5938 36.2773L48.7578 38.9141L48.7695 39.0898L48.7344 39.2773L48.3125 41.6445L48.7695 44.2344L48.7578 44.4336L48.5117 46.8945L48.6523 49.4844L48.6641 49.7891L48.5703 50.0703L48.418 50.5039L47 50L45.9688 49.625L45.6523 49.6484V49.5078L45.582 49.4961L45.6406 49.332L45.5117 47.0117V46.7891L45.7578 44.3633L45.3242 41.9141L45.2773 41.6445L45.3242 41.3867L45.7578 38.8906L45.6055 36.4648V36.4414L45.5938 36.418L45.5117 33.7812V30.7461L45.6641 30.4297L46.8008 28.0859L46.8711 27.9219L46.9883 27.793L48.582 25.8125L48.9219 25.4023L49.4375 25.2969L51.8867 24.7578L52.2031 24.6875L52.5195 24.7578Z" fill="black"/>
<path d="M68.3984 24.793L70.9766 25.3789L71.5508 25.5078L71.8789 26L73.3672 28.2148L73.5078 28.4258L73.5664 28.6602L74.2461 31.1445L74.2812 31.2734L74.293 31.4141L74.5156 34.0273V36.8633L74.5039 36.9219L74.3047 39.4883L74.4102 41.9375L74.6562 44.5742L74.6797 44.7266L74.6562 44.8789L74.3984 47.4219L74.5039 49.8359V50H71.5039V49.9648L71.3867 47.4219V47.3164L71.3984 47.1992L71.6562 44.7031L71.4219 42.2305L71.4102 42.1836V42.1367L71.3047 39.5V39.3242L71.5156 36.6875V34.1562L71.3047 31.7891L70.7305 29.6914L69.7227 28.168L67.9766 27.7578L66.1602 27.9336L64.7773 29.1758L63.6406 30.8516L63.5117 33.0781L63.5938 35.5273L63.7578 38.1641L63.7695 38.3398L63.7344 38.5273L63.3125 40.8945L63.7695 43.4844L63.7578 43.6836L63.5117 46.1445L63.6523 48.7344V48.875L63.6406 49.0156L63.4883 50.1875L60.5117 49.8125L60.6523 48.7695L60.5117 46.2617V46.0391L60.7578 43.6133L60.3242 41.1641L60.2773 40.8945L60.3242 40.6367L60.7578 38.1406L60.6055 35.7148V35.6914L60.5938 35.668L60.5117 33.0312V32.8789L60.6875 30.2422L60.7109 29.8438L60.9336 29.5039L62.3867 27.3477L62.5039 27.1836L62.6445 27.0664L64.543 25.3672L64.9062 25.0508L65.3984 25.0039L67.918 24.7578L68.1641 24.7344L68.3984 24.793Z" fill="black"/>
<path d="M84.3984 24.793L86.9766 25.3789L87.5508 25.5078L87.8789 26L89.3672 28.2148L89.5078 28.4258L89.5664 28.6602L90.2461 31.1445L90.2812 31.2734L90.293 31.4141L90.5156 34.0273V36.8633L90.5039 36.9219L90.3047 39.4883L90.4102 41.9375L90.6562 44.5742L90.6797 44.7266L90.6562 44.8789L90.3984 47.4219L90.5039 49.8359V50H87.5039V49.9648L87.3867 47.4219V47.3164L87.3984 47.1992L87.6562 44.7031L87.4219 42.2305L87.4102 42.1836V42.1367L87.3047 39.5V39.3242L87.5156 36.6875V34.1562L87.3047 31.7891L86.7305 29.6914L85.7227 28.168L83.9766 27.7578L82.1602 27.9336L80.7773 29.1758L79.6406 30.8516L79.5117 33.0781L79.5938 35.5273L79.7578 38.1641L79.7695 38.3398L79.7344 38.5273L79.3125 40.8945L79.7695 43.4844L79.7578 43.6836L79.5117 46.1445L79.6523 48.7344V48.875L79.6406 49.0156L79.4883 50.1875L76.5117 49.8125L76.6523 48.7695L76.5117 46.2617V46.0391L76.7578 43.6133L76.3242 41.1641L76.2773 40.8945L76.3242 40.6367L76.7578 38.1406L76.6055 35.7148V35.6914L76.5938 35.668L76.5117 33.0312V32.8789L76.6875 30.2422L76.7109 29.8438L76.9336 29.5039L78.3867 27.3477L78.5039 27.1836L78.6445 27.0664L80.543 25.3672L80.9062 25.0508L81.3984 25.0039L83.918 24.7578L84.1641 24.7344L84.3984 24.793Z" fill="black"/>
<path d="M100.398 24.793L102.977 25.3789L103.551 25.5078L103.879 26L105.367 28.2148L105.508 28.4258L105.566 28.6602L106.246 31.1445L106.281 31.2734L106.293 31.4141L106.516 34.0273V36.8633L106.504 36.9219L106.305 39.4883L106.41 41.9375L106.656 44.5742L106.68 44.7266L106.656 44.8789L106.398 47.4219L106.504 49.8359V50H103.504V49.9648L103.387 47.4219V47.3164L103.398 47.1992L103.656 44.7031L103.422 42.2305L103.41 42.1836V42.1367L103.305 39.5V39.3242L103.516 36.6875V34.1562L103.305 31.7891L102.73 29.6914L101.723 28.168L99.9766 27.7578L98.1602 27.9336L96.7773 29.1758L95.6406 30.8516L95.5117 33.0781L95.5938 35.5273L95.7578 38.1641L95.7695 38.3398L95.7344 38.5273L95.3125 40.8945L95.7695 43.4844L95.7578 43.6836L95.5117 46.1445L95.6523 48.7344V48.875L95.6406 49.0156L95.4883 50.1875L92.5117 49.8125L92.6523 48.7695L92.5117 46.2617V46.0391L92.7578 43.6133L92.3242 41.1641L92.2773 40.8945L92.3242 40.6367L92.7578 38.1406L92.6055 35.7148V35.6914L92.5938 35.668L92.5117 33.0312V32.8789L92.6875 30.2422L92.7109 29.8438L92.9336 29.5039L94.3867 27.3477L94.5039 27.1836L94.6445 27.0664L96.543 25.3672L96.9062 25.0508L97.3984 25.0039L99.918 24.7578L100.164 24.7344L100.398 24.793Z" fill="black"/>
<path d="M37.3984 24.793L39.9766 25.3789L40.5508 25.5078L40.8789 26L42.3672 28.2148L42.5078 28.4258L42.5664 28.6602L43.2461 31.1445L43.2812 31.2734L43.293 31.4141L43.5156 34.0273V36.8633L43.5039 36.9219L43.3047 39.4883L43.4102 41.9375L43.6562 44.5742L43.6797 44.7266L43.6562 44.8789L43.3984 47.4219L43.5039 49.8359V50H40.5039V49.9648L40.3867 47.4219V47.3164L40.3984 47.1992L40.6562 44.7031L40.4219 42.2305L40.4102 42.1836V42.1367L40.3047 39.5V39.3242L40.5156 36.6875V34.1562L40.3047 31.7891L39.7305 29.6914L38.7227 28.168L36.9766 27.7578L35.1602 27.9336L33.7773 29.1758L32.6406 30.8516L32.5117 33.0781L32.5938 35.5273L32.7578 38.1641L32.7695 38.3398L32.7344 38.5273L32.3125 40.8945L32.7695 43.4844L32.7578 43.6836L32.5117 46.1445L32.6523 48.7344V48.875L32.6406 49.0156L32.4883 50.1875L29.5117 49.8125L29.6523 48.7695L29.5117 46.2617V46.0391L29.7578 43.6133L29.3242 41.1641L29.2773 40.8945L29.3242 40.6367L29.7578 38.1406L29.6055 35.7148V35.6914L29.5938 35.668L29.5117 33.0312V32.8789L29.6875 30.2422L29.7109 29.8438L29.9336 29.5039L31.3867 27.3477L31.5039 27.1836L31.6445 27.0664L33.543 25.3672L33.9062 25.0508L34.3984 25.0039L36.918 24.7578L37.1641 24.7344L37.3984 24.793Z" fill="black"/>
<path d="M21.3984 24.793L23.9766 25.3789L24.5508 25.5078L24.8789 26L26.3672 28.2148L26.5078 28.4258L26.5664 28.6602L27.2461 31.1445L27.2812 31.2734L27.293 31.4141L27.5156 34.0273V36.8633L27.5039 36.9219L27.3047 39.4883L27.4102 41.9375L27.6562 44.5742L27.6797 44.7266L27.6562 44.8789L27.3984 47.4219L27.5039 49.8359V50H24.5039V49.9648L24.3867 47.4219V47.3164L24.3984 47.1992L24.6562 44.7031L24.4219 42.2305L24.4102 42.1836V42.1367L24.3047 39.5V39.3242L24.5156 36.6875V34.1562L24.3047 31.7891L23.7305 29.6914L22.7227 28.168L20.9766 27.7578L19.1602 27.9336L17.7773 29.1758L16.6406 30.8516L16.5117 33.0781L16.5938 35.5273L16.7578 38.1641L16.7695 38.3398L16.7344 38.5273L16.3125 40.8945L16.7695 43.4844L16.7578 43.6836L16.5117 46.1445L16.6523 48.7344V48.875L16.6406 49.0156L16.4883 50.1875L13.5117 49.8125L13.6523 48.7695L13.5117 46.2617V46.0391L13.7578 43.6133L13.3242 41.1641L13.2773 40.8945L13.3242 40.6367L13.7578 38.1406L13.6055 35.7148V35.6914L13.5938 35.668L13.5117 33.0312V32.8789L13.6875 30.2422L13.7109 29.8438L13.9336 29.5039L15.3867 27.3477L15.5039 27.1836L15.6445 27.0664L17.543 25.3672L17.9062 25.0508L18.3984 25.0039L20.918 24.7578L21.1641 24.7344L21.3984 24.793Z" fill="black"/>
<path d="M49.0234 86.3984L49.1055 86.4922L48.0039 87.5L47.9336 87.5703L48.0625 88.9062L45.4258 89.1641L45.2734 89.1758L45.1211 89.1641L42.625 88.9062L40.1641 89H40V86H40.0352L42.5781 85.8945L42.6836 85.8828L42.8008 85.8945L45.2852 86.1641L47.7695 85.918L48.5195 85.8477L49.0234 86.3984Z" fill="black"/>
<path d="M81.0234 86.3984L81.1055 86.4922L80.0039 87.5L79.9336 87.5703L80.0625 88.9062L77.4258 89.1641L77.2734 89.1758L77.1211 89.1641L74.625 88.9062L72.1641 89H72V86H72.0352L74.5781 85.8945L74.6836 85.8828L74.8008 85.8945L77.2852 86.1641L79.7695 85.918L80.5195 85.8477L81.0234 86.3984Z" fill="black"/>
<path d="M112.023 86.3984L112.105 86.4922L111.004 87.5L110.934 87.5703L111.062 88.9062L108.426 89.1641L108.273 89.1758L108.121 89.1641L105.625 88.9062L103.164 89H103V86H103.035L105.578 85.8945L105.684 85.8828L105.801 85.8945L108.285 86.1641L110.77 85.918L111.52 85.8477L112.023 86.3984Z" fill="black"/>
<path d="M17.0234 86.3984L17.1055 86.4922L16.0039 87.5L15.9336 87.5703L16.0625 88.9062L13.4258 89.1641L13.2734 89.1758L13.1211 89.1641L10.625 88.9062L8.16406 89H8V86H8.03516L10.5781 85.8945L10.6836 85.8828L10.8008 85.8945L13.2852 86.1641L15.7695 85.918L16.5195 85.8477L17.0234 86.3984Z" fill="black"/>
</svg>
