<svg width="120" height="120" viewBox="0 0 120 120" fill="none" xmlns="http://www.w3.org/2000/svg">
<path d="M61.7988 51.8425L63.5098 53.8581L65.2559 55.7448L65.3379 55.8268L66.791 58.0065L68.7246 59.9401L68.8301 60.1393L70.0254 62.3893L70.248 62.7995L70.2012 63.2565L69.9082 65.7409L70.0605 68.2839L70.0723 68.3659L70.0605 68.4479L69.9316 70.9792L70.2246 73.4753L70.2598 73.7097L70.2129 73.9323L69.7441 76.4167L69.9082 78.8307L69.9199 78.8776V78.9128L69.9434 81.5378L70.002 84.1745L70.0723 86.8112V86.8464L70.084 89.4831V89.5886L70.0723 89.6823L69.7324 92.319L69.709 92.5651L69.6035 92.7761L68.7598 94.5456L68.2559 95.5886L67.1074 95.3659L64.4941 94.8503V94.8386L62.0918 94.5925L59.5488 94.7448L59.2793 94.7682L59.0215 94.6862L56.502 93.9128L56.3613 93.8776L56.2207 93.8073L54.041 92.6237L51.6738 92.1432L51.5801 92.1198L51.498 92.0964L51.0293 91.9323L50.0098 91.5925V90.3034L50.209 87.8307L50.0801 85.3347L49.9043 82.6979V82.6042L49.8926 79.9675L49.8809 79.8737L49.8926 79.7917L50.1738 77.2722L49.9629 74.7995L49.9512 74.7526V74.694L49.9277 72.0573V72.0222L49.9395 69.4675L49.8223 66.8307L49.8105 66.737L49.8223 66.655L49.998 64.0182V63.9831L50.0098 63.9479L50.2793 61.4167L50.3379 60.9128L50.7012 60.5378L52.4473 58.7214L54.1348 56.6823L55.6699 54.6198L55.7168 54.5495L55.7637 54.5026L57.5566 52.5573L57.791 52.2878L58.1309 52.1706L60.123 51.4089L61.1074 51.0339L61.7988 51.8425ZM59.5137 54.8425L57.9785 56.53L56.4902 58.5339L56.4668 58.569L56.4434 58.5925L54.7676 60.6315L54.7324 60.6784L54.6855 60.7253L53.209 62.2487L52.9863 64.2761L52.8105 66.7839L52.9395 69.3268V69.4089L52.9277 72.0456L52.916 72.0339L52.9512 74.5417L53.1738 77.1901L53.1855 77.3307L53.1738 77.4831L52.8926 79.9675L52.9043 82.5925L53.0684 85.1354V85.1472L53.0801 85.1589L53.1973 87.8073L53.209 87.9011L53.1973 87.9948L53.0918 89.3659L54.873 89.7292L55.0957 89.7761L55.2832 89.8815L57.5449 91.1003L59.6426 91.7331L62.0801 91.6042L62.1973 91.5925L62.3145 91.6042L64.9512 91.8854H65.0098L65.0801 91.8972L66.5449 92.1901L66.7793 91.7097L67.0723 89.3893V86.8932L67.002 84.2565V84.2448L66.9434 81.6081V81.5847L66.9199 79.03L66.7441 76.3932L66.7324 76.2057L66.7676 76.0182L67.2129 73.5807L66.9434 71.1901L66.9316 71.0612V70.9323L67.0723 68.3659L66.9082 65.8229L66.8965 65.694L66.9199 65.5651L67.1543 63.3737L66.2754 61.7331L64.5762 60.0456L64.4707 59.9401L64.3887 59.8112L62.9941 57.7136L61.2598 55.8503L61.2363 55.8268L61.2129 55.7917L60.1934 54.5847L59.5137 54.8425Z" fill="black"/>
<path d="M47.6055 39.0557L50.0195 39.1495L51.3203 39.1964L51.4609 40.4854L51.6836 42.7354L52.0703 43.2628L53.957 43.5206L56.4766 43.4737H56.5352L59.1836 43.5323H59.1719L61.7969 43.5557H61.8086L64.4219 43.5792L66.9297 43.3682H67.0117L68.9922 43.2862L69.3672 42.8409L69.3906 40.7549L69.4023 39.2315L70.9258 39.2784L73.3398 39.337L75.9531 39.2081H76.0352L78.6719 39.2198H81.1562L82.5391 39.2081L82.6562 40.5909L82.8906 43.2276L82.9023 43.3799L82.8789 43.5206L82.5977 46.1573L82.6094 48.5362L82.7852 51.1729V51.2081L82.9141 53.8448V54.0323L82.7266 56.5518H82.7148V56.5753L82.4219 56.5518H79.7266V56.3409L79.9141 53.9854L79.7969 51.3721L79.6211 48.7354L79.6094 48.6885V48.6417L79.5977 46.0049V45.9229L79.6094 45.8292L79.8789 43.3214L79.7852 42.2198H78.6484L76.082 42.2081L73.457 42.3253L73.3984 42.337H73.3516L72.3672 42.3018V43.4268L72.3555 43.9776L72.0039 44.3878L70.8438 45.7354L70.4219 46.2393L69.7656 46.2628L67.1875 46.3448L67.1992 46.3565L64.5625 46.5909H64.3984L61.7617 46.5557V46.544L59.1367 46.5323H59.1133L56.5 46.4737L53.8984 46.5323H53.7812L53.6641 46.5206L51.0156 46.1456L50.3828 46.0635L50.0078 45.5362L49.0234 44.1534L48.7891 43.837L48.7539 43.4385L48.6016 42.0909L47.582 42.0557L45.0039 42.2081L44.9219 42.2198L44.8398 42.2081L42.2969 42.0792L41.3477 42.1964L41.1016 43.544L41.2539 46.0284L41.2656 46.0635V46.1104L41.2891 48.7237L41.3477 51.3604L41.418 53.9971V54.0323L41.4297 56.5518L41.4414 58.0518H39.8359V56.5518L38.4297 56.5635L38.418 54.044H38.4297L38.3477 51.4424V51.4307L38.2891 48.794V48.7823L38.2656 46.2159L38.0898 43.5792L38.0781 43.3917L38.1133 43.2042L38.6055 40.5674L38.8164 39.4893L39.9062 39.3487L42.0977 39.0909L42.2148 39.0792H42.3438L44.8867 39.2198L47.4648 39.0557H47.6055Z" fill="black"/>
<path d="M109.377 107.373L109.4 107.08L109.318 106.798L108.568 104.361L108.346 102.041L108.51 99.4624L108.521 99.2983L108.498 99.146L108.111 96.5327L108.111 96.4624L108.088 96.3921L107.514 94.0483L107.736 91.6108L107.76 91.3765L107.701 91.1421L107.115 88.6811L106.857 86.1616L106.869 86.1499L106.67 83.5132L106.459 80.8765L106.459 80.8647L106.447 80.8647L106.213 78.228L106.119 75.6733L106.107 75.4741L106.061 75.2983L105.357 72.9663L105.393 70.5171L105.393 70.3882L105.369 70.2593L104.971 67.646L104.877 65.1733L104.865 65.0444L104.842 64.9155L104.303 62.5015L104.314 59.9936L104.314 59.9585L104.303 59.9233L104.197 57.2749L104.139 55.9038L102.756 55.8452L100.154 55.7397L100.119 55.7397L97.4824 55.6811L97.4238 55.6811L94.7754 55.7397L93.8027 55.7632L93.4277 56.6655L92.748 58.2944L92.6191 58.5874L92.6309 58.9038L92.6543 60.5444L91.916 60.8608L89.6191 60.7788L89.5605 60.7671L89.5019 60.7788L87.416 60.8726L86.9004 60.439L86.7715 58.4585L86.748 58.0483L86.5137 57.7085L85.541 56.3022L85.084 55.6577L84.2988 55.6577L81.6738 55.6694L79.0371 55.646L78.8496 55.646L78.6738 55.6929L76.459 56.2202L75.1816 56.5366L75.3223 57.8491L75.5684 60.1694L75.334 60.9312L73.8691 60.8257L73.8457 60.8257L71.1973 60.6968L71.0449 60.6968L68.4902 60.8608L68.2441 60.8726L68.0098 60.9663L67.916 61.0015L68.4902 62.396L68.5957 62.6772L68.6777 63.8491L71.1387 63.7085L73.6699 63.8257L76.3066 64.0015L77.4785 64.0718L77.8418 62.9585L78.5332 60.7788L78.6269 60.4741L78.5918 60.1577L78.4394 58.8335L79.1777 58.6577L81.6504 58.6694L83.5137 58.6694L83.8066 59.0913L83.959 61.3062L84.0059 61.9624L84.5098 62.3726L85.9746 63.5444L86.4199 63.9077L86.9824 63.8843L89.5605 63.7788L92.1387 63.8726L92.4785 63.8843L92.7949 63.7437L94.7754 62.8882L95.6894 62.4897L95.6777 61.4936L95.6309 59.1616L95.8184 58.728L97.4473 58.6929L100.025 58.7397L101.256 58.7983L101.314 59.9819L101.303 62.6421L101.303 62.8061L101.338 62.9585L101.877 65.4311L101.982 67.939L101.994 68.0327L102.006 68.1147L102.381 70.6343L102.357 73.1304L102.357 73.353L102.416 73.5757L103.119 75.9897L103.213 78.4272L103.225 78.4624L103.225 78.5093L103.459 81.1226L103.682 83.7476L103.869 86.3726L103.869 86.396L103.881 86.4077L104.139 89.0327L104.15 89.1382L104.174 89.2319L104.725 91.5874L104.514 94.0249L104.49 94.271L104.549 94.5171L105.17 97.1069L105.51 99.439L105.346 101.935L105.334 102.064L105.346 102.181L105.604 104.806L105.615 104.958L105.662 105.099L106.354 107.396L106.26 108.416L107.76 108.556L109.248 108.697L109.377 107.373Z" fill="black"/>
<path d="M17.5488 86.801L16.0605 86.6604L16.1426 85.7346L16.0605 83.2854L16.0605 83.2737L16.002 80.637L16.002 80.6135L15.9785 78.0588L15.8027 75.4221L15.791 75.2229L15.8262 75.0354L16.2832 72.6565L16.002 70.2073L15.9902 70.0901L15.9902 69.9612L16.1309 67.4182L15.9668 64.8518L15.9668 64.7229L15.9785 64.594L16.2598 62.1096L16.002 59.637L15.9902 59.6018L15.9902 59.5666L15.8379 56.9299L15.7441 55.4182L17.2559 55.3362L19.834 55.2073L19.8809 55.2073L22.5176 55.1487L22.5762 55.1487L25.2246 55.2073L26.1973 55.2307L26.5723 56.1331L27.252 57.762L27.3809 58.0549L27.3691 58.3713L27.3457 60.012L28.084 60.3284L30.3809 60.2463L30.498 60.2463L32.584 60.3401L33.0996 59.9182L33.2285 57.926L33.252 57.5159L33.4863 57.176L34.459 55.7698L34.916 55.1252L35.7012 55.1252L38.3379 55.1487L40.9629 55.1135L41.1504 55.1135L41.3262 55.1604L43.541 55.6995L44.8184 56.0041L44.6777 57.3166L44.4316 59.637L44.666 60.3987L46.1309 60.2932L46.1543 60.2932L48.8027 60.176L48.8848 60.1643L48.9551 60.176L51.5098 60.3284L51.7559 60.3401L51.9902 60.4338L52.084 60.4807L51.5098 61.8635L51.4043 62.1448L51.3223 63.3167L48.8613 63.176L46.3301 63.2932L43.6934 63.469L42.5215 63.551L42.1582 62.426L41.4668 60.2463L41.373 59.9416L41.4082 59.6252L41.5605 58.301L40.834 58.1252L38.3496 58.1487L38.3262 58.1487L36.4863 58.137L36.1934 58.5588L36.041 60.7737L35.9941 61.4299L35.4902 61.8401L34.0254 63.0237L33.5801 63.3752L33.0176 63.3518L30.4395 63.2581L27.8613 63.3401L27.5215 63.3518L27.2051 63.2229L25.2246 62.3557L24.3105 61.9573L24.3223 60.9612L24.3691 58.6291L24.1816 58.1956L22.5527 58.1604L19.9863 58.2073L18.9199 58.2659L18.9902 59.3909L18.9902 59.4026L19.2598 61.9573L19.2715 62.1213L19.2598 62.2854L18.9785 64.7698L19.1191 67.3127L19.1309 67.3948L19.1309 67.4768L19.002 70.0198L19.2949 72.5041L19.3184 72.7268L19.2715 72.9612L18.8145 75.4221L18.9785 77.8596L18.9785 77.9416L19.002 80.5666L19.0605 83.1916L19.1426 85.8401L19.1426 85.9338L19.1309 86.0159L19.0488 86.9416L17.5488 86.801Z" fill="black"/>
<path d="M32 82.2346L34.4727 83.1369L34.4961 83.1486H34.5195L36.9922 84.1213L39.3242 84.8478L41.8906 85.4924L42.0312 85.5392L44.5156 86.4533H44.5039L46.9883 87.3439H47.0117L49.4844 88.2697H49.4727L51.9336 89.0783L52.0625 89.1135L52.1797 89.1838L54.3477 90.3557L56.7148 91.1291L59.2812 91.8322L59.4453 91.8791L59.5859 91.9611L61.7773 93.1213L63.9805 93.8244H65.8203L67.8477 92.758L68.0469 92.6408L68.2695 92.6057L70.7305 92.1252L72.9453 91.0939L72.9805 91.0822L73.0273 91.0588L75.4648 90.0744L75.7695 89.9572L76.0977 89.9689L78.5586 90.0627L78.7578 90.0744L78.957 90.1447L81.4648 90.9533H81.4883L81.5 90.965L83.9961 91.8322L84.0898 91.8557L84.1836 91.9025L86.3281 92.9807L88.7656 93.3674L89 93.4025L89.2227 93.508L91.5195 94.6916L93.8047 95.6057L96.3359 96.3088L96.582 96.3791L96.7812 96.508L98.9727 97.9963L99.0898 98.0783L99.1953 98.1838L100.918 99.9299L103.062 101.113L103.18 101.184L103.285 101.266L105.207 102.836L107.445 103.961L107.621 104.055L107.773 104.195L109.66 105.883L111.617 107.278L112.602 107.711L112.004 109.082L111.395 110.465L110.305 109.985L110.164 109.926L110.047 109.832L107.879 108.32L107.738 108.203L105.91 106.551L103.719 105.449L103.566 105.367L103.449 105.262L101.469 103.668L99.2891 102.473L99.0898 102.367L98.9375 102.203L97.1562 100.399L95.3281 99.1447L92.9609 98.4885L92.8789 98.465L92.8086 98.4416L90.2891 97.4338L90.2305 97.3986L88.0742 96.2971L85.6602 95.9338L85.4141 95.8869L85.2031 95.7814L82.8477 94.5978L80.5508 93.801L78.2305 93.051L76.2617 92.9689L74.2227 93.8127L71.832 94.9377L71.6562 95.0197L71.4688 95.0549L69.0664 95.5002L66.9102 96.6486L66.582 96.8244H66.207L63.7578 96.8361H63.5234L63.2891 96.7658L60.7695 95.9572L60.6523 95.9103L60.5352 95.8517L58.3086 94.6682L55.9297 94.0236L55.8945 94.0119H55.8594L53.3516 93.1916L53.2227 93.1447L53.0938 93.0861L50.8672 91.8791L48.4883 91.1057L48.4531 91.0939L48.4297 91.0822L45.9805 90.1564V90.1682L43.4961 89.2775H43.4727L41.0586 88.3869L38.5859 87.7541L38.5391 87.7424L38.5039 87.7307L35.9844 86.9572L33.4648 85.9494V85.9611L31.3203 85.176L29.1289 85.4689L26.7266 86.1486L26.6562 86.1721L24.0781 86.7463L24.0664 86.7346L21.6289 87.3205L21.6406 87.3322L19.1914 88.1057L19.2031 88.1174L17.0234 88.9494L15.1133 90.4611L13.2031 92.1603L13.1797 92.1838L11.1758 93.8947L11.1055 93.965L11.0352 94.0119L8.92578 95.4182L8.91406 95.4064L8.90234 95.4182L8.77344 95.2307L8 94.2346L7.07422 93.051L7.15625 92.9807L7.20312 92.9455L7.25 92.9221L9.28906 91.5627L11.2344 89.8986L13.1914 88.1642L13.2266 88.1291L13.2617 88.1057L15.3359 86.465L15.5117 86.3361L15.7227 86.2541L18.1133 85.3166L18.1602 85.3049L18.1953 85.2932L20.7266 84.4728L20.7734 84.4611L20.832 84.4494L23.3984 83.8283L23.4102 83.8166H23.4219L25.918 83.2658L28.4609 82.551L28.5664 82.5158L28.6719 82.5041L31.2969 82.1642L31.6484 82.1174L32 82.2346Z" fill="black"/>
<path d="M40.2754 75.033L40.2754 73.5565L38.916 73.8377L38.7402 72.994L38.7168 72.9002L38.7168 72.7947L38.5879 71.0955L38.5762 70.9549L38.5879 70.8143L38.7871 69.2088L39.4316 69.2908L41.7754 69.2908L41.7754 69.4783L41.7637 69.5721L41.5879 71.0486L41.6934 72.4432L41.8574 73.2283L42.2324 75.033L40.2754 75.033Z" fill="black"/>
<path d="M28.6016 75.033L28.6016 73.5565L27.2422 73.8377L27.0664 72.994L27.043 72.9002L27.043 72.7947L26.9141 71.0955L26.9023 70.9549L26.9141 70.8143L27.1133 69.2088L27.7578 69.2908L30.1016 69.2908L30.1016 69.4783L30.0898 69.5721L29.9141 71.0486L30.0195 72.4432L30.1836 73.2283L30.5586 75.033L28.6016 75.033Z" fill="black"/>
<path d="M92.2754 75.033L92.2754 73.5565L90.916 73.8377L90.7402 72.994L90.7168 72.9002L90.7168 72.7947L90.5879 71.0955L90.5762 70.9549L90.5879 70.8143L90.7871 69.2088L91.4316 69.2908L93.7754 69.2908L93.7754 69.4783L93.7637 69.5721L93.5879 71.0486L93.6934 72.4432L93.8574 73.2283L94.2324 75.033L92.2754 75.033Z" fill="black"/>
<path d="M80.6016 75.033L80.6016 73.5565L79.2422 73.8377L79.0664 72.994L79.043 72.9002L79.043 72.7947L78.9141 71.0955L78.9023 70.9549L78.9141 70.8143L79.1133 69.2088L79.7578 69.2908L82.1016 69.2908L82.1016 69.4783L82.0898 69.5721L81.9141 71.0486L82.0195 72.4432L82.1836 73.2283L82.5586 75.033L80.6016 75.033Z" fill="black"/>
<path d="M63.1875 43.3312L63.0117 45.0422L62.8594 46.3781L61.5 46.3781L61.5 44.8781L60.0234 44.7258L60.1875 43.0851L60.0703 40.6008L60.0703 40.5187L60.082 37.882L60.0586 35.3742L59.8359 32.7375L59.8242 32.5969L59.8359 32.4445L60.1055 29.9133L60.1055 27.3351L59.9414 24.7922L59.9414 24.7805L59.9297 24.7687L59.8125 22.1203L59.8008 22.0266L59.8125 21.9445L60 19.4016L60.1992 19.4133L63 19.4133L63 19.6242L62.8008 22.0851L62.918 24.593L62.9297 24.593L63.1055 27.2297L63.1055 27.3234L63.1172 29.9601L63.1289 30.0539L63.1172 30.1359L62.8359 32.6437L63.0469 35.1281L63.0586 35.175L63.0586 35.2336L63.082 37.882L63.082 37.9055L63.0703 40.4601L63.1875 43.1086L63.1992 43.2141L63.1875 43.3312Z" fill="black"/>
<path d="M62.4277 19.0096L64.7832 19.1737L67.3027 19.0565V19.0448L69.9395 18.869L70.4316 18.8339L70.8535 19.1034L72.5996 20.2167L73.3848 20.7206L73.291 21.6464L73.0098 24.1542L73.2207 26.6385L73.3613 28.162L71.8262 28.2557L69.2129 28.4315H69.1074L66.5176 28.4081L63.9043 28.537L63.4238 28.5604L63.0137 28.2909L61.291 27.1659L60.5996 26.7206L60.6113 25.9003L60.6348 23.2518V23.205L60.7285 21.0956L58.3262 17.955L62.4277 19.0096ZM67.502 22.0331H67.4902L67.4785 22.0448L64.8301 22.162L64.748 22.1737L64.666 22.162L63.6816 22.0917L63.6348 23.3339L63.6113 25.1034L64.2441 25.5135L66.4004 25.4198L66.4473 25.4081H66.4824L69.0254 25.4198L70.1035 25.3612L70.0098 24.2479L69.998 24.1073L70.0098 23.955L70.1973 22.244L69.6348 21.8807L67.502 22.0331Z" fill="black"/>
<path d="M52 85.9961L52.457 86.3359L52.9258 87.0859L55.0703 85.7383L55.082 85.75L57.4375 84.5313L57.5664 84.4609L57.6836 84.3672L59.7109 82.7383L61.8555 81.4141L64.0937 80.1953L64.1055 80.1953L64.1172 80.1836L66.4141 78.8828L66.4961 78.8359L66.5781 78.7773L68.6172 77.2539L68.4883 77.0781L67.8086 76L67 74.7344L66.918 74.7813L66.8242 74.8516L64.8906 76.293L62.6406 77.5703L60.3437 78.8242L60.2969 78.8477L60.2617 78.8711L58.0234 80.2656L57.9531 80.3125L57.8828 80.3711L55.8906 81.9414L53.6992 83.0898L53.6523 83.1133L53.6055 83.1484L51.3555 84.5312L51.1094 84.6836L50.793 85.1055L52 85.9961Z" fill="black"/>
<path d="M52 76.9961L52.457 77.3359L52.9258 78.0859L55.0703 76.7383L55.082 76.75L57.4375 75.5313L57.5664 75.4609L57.6836 75.3672L59.7109 73.7383L61.8555 72.4141L64.0937 71.1953L64.1055 71.1953L64.1172 71.1836L66.4141 69.8828L66.4961 69.8359L66.5781 69.7773L68.6172 68.2539L68.4883 68.0781L67.8086 67L67 65.7344L66.918 65.7813L66.8242 65.8516L64.8906 67.293L62.6406 68.5703L60.3437 69.8242L60.2969 69.8477L60.2617 69.8711L58.0234 71.2656L57.9531 71.3125L57.8828 71.3711L55.8906 72.9414L53.6992 74.0898L53.6523 74.1133L53.6055 74.1484L51.3555 75.5312L51.1094 75.6836L50.793 76.1055L52 76.9961Z" fill="black"/>
</svg>
