<svg width="120" height="120" viewBox="0 0 120 120" fill="none" xmlns="http://www.w3.org/2000/svg">
<path d="M61.1895 8.27148L61.2246 8.49414L61.2012 8.7168L60.8848 11.1426L61.0254 13.6152V13.6738L61.0488 15.8652L62.1973 17.6348L62.2441 17.7051L63.4277 20.0723L64.8574 22.1699L64.9277 22.2871L66.1934 24.5723L67.5176 26.8574L67.5645 26.9395L67.6113 27.0332L68.6191 29.5176L68.7715 29.8809L68.7246 30.2676L68.4199 32.8105L68.5254 35.1426L69.0879 37.3457L70.248 39.2793L71.9473 41.1426L71.9941 41.1895L73.6934 43.2168L73.8457 43.3926L73.9277 43.6035L74.7842 45.6484L76.4883 46.2061L76.3643 46.5713L77.832 46.5371V46.7363L77.7383 49.2793L77.9258 51.7285L78.1484 54.3652V54.4707L78.1953 57.1074V57.2012L78.1836 57.2832L77.9141 59.7676L78.125 62.2871L78.1367 62.3457V62.4043L78.1484 65.041V65.0645L78.1133 67.7129L78.2188 70.2676L78.2305 70.3496L78.2188 70.4434L78.0312 73.0801L78.0078 75.623V75.6465L77.9961 75.6699L77.9023 78.3066L77.9375 80.8613L77.9492 81.6816L77.2578 82.1387L75.9014 83.0244L75.7266 85.0371L75.8203 87.5332L75.9609 90.1816L75.9727 90.2168V90.2637L75.9609 92.9004V92.9824L75.9492 93.0645L75.7666 94.625L76.6719 94.6992L79.1797 94.582V94.5703L81.8164 94.3945H81.9102L84.5469 94.3828L84.6406 94.3711L84.7227 94.3828L87.2305 94.6641L89.7148 94.4531L89.7617 94.4414H89.8203L92.4688 94.418H92.4922L95.0469 94.4297L97.6953 94.3125L97.7773 94.3008L97.8594 94.3125L100.508 94.4883L100.496 94.5L103.051 94.5117H103.098L105.688 94.6172L108.184 94.5352L110.832 94.2891L112.18 94.1719L112.438 95.5078L112.473 95.7188L110.996 96H110.973L111.09 97.2773L108.453 97.5117L108.418 97.5234H108.371L105.734 97.6172H105.617L102.98 97.5117V97.5L100.391 97.4883H100.344L100.297 97.4766L97.7188 97.3008L95.1875 97.4297H95.1055L92.4688 97.418V97.4062L89.9609 97.4297L87.3242 97.6641L87.1836 97.6758L87.0312 97.6641L84.5 97.3828L81.9219 97.3945V97.3828L79.3789 97.5586H79.3672L79.3555 97.5703L76.707 97.6875L76.6133 97.6992L76.5312 97.6875L75.8418 97.6357L75.8789 98.0449V98.1738L75.9023 100.811V100.834L75.8672 103.354L76.043 105.99V106.154L75.9375 108.791L75.9258 108.85V108.908L75.7031 110.748L74.2266 110.572L74.2734 112.072H74.2617L72.5273 112.131L72.7266 110.396L72.9492 108.639L73.043 106.119L72.8672 103.553V103.436L72.9023 100.822L72.8789 98.1855L72.8906 98.1738L72.6562 95.666L72.6445 95.5137L72.668 95.3613L72.9727 92.8184V90.3457L72.8203 87.6973V87.6738L72.7266 85.0254V84.9434L72.7383 84.8496L72.8457 83.5547L71.7031 83.416L69.7227 83.4043L69.0898 84.0371L68.5742 84.084L68.4805 84.0957L68.416 83.4668L67.6992 83.5771L67.5234 83.6006L67.3477 83.5771L64.7227 83.3428H64.6523L62.2617 83.0029L59.8711 83.4717L59.625 83.5186L59.3789 83.4834L56.8242 83.1436H54.3398L49.0664 83.2842L46.4766 83.3779L46.4883 83.3896L46.3838 83.3965L46.25 85.0605L46.3789 87.5684L46.5547 90.2051V90.2988L46.5664 92.9355V93.1113L46.3486 95.0488L46.4375 95.5078L46.4727 95.7188L46.2959 95.752L46.4961 98.1035L46.5078 98.1504V98.209L46.5312 100.857V100.881L46.5195 103.518L46.6367 106.084L46.6484 106.166L46.6367 106.248L46.4609 108.885V108.92L46.332 110.49L44.8438 110.361L44.5742 111.838H44.5625L43.2266 111.592L43.3438 110.232L43.4727 108.662L43.6484 106.107L43.5195 103.576V103.494L43.5312 100.881L43.5078 98.3613L43.4287 97.4248L42.4531 97.5117L42.418 97.5234H42.3711L39.7344 97.6172H39.6172L36.9805 97.5117V97.5L34.3906 97.4883H34.3438L34.2969 97.4766L31.7188 97.3008L29.1875 97.4297H29.1055L26.4688 97.418V97.4062L23.9609 97.4297L21.3242 97.6641L21.1836 97.6758L21.0312 97.6641L18.5 97.3828L15.9219 97.3945V97.3828L13.3789 97.5586H13.3672L13.3555 97.5703L10.707 97.6875L10.6133 97.6992L10.5312 97.6875L7.98828 97.5L8 97.2773V94.5H8.21094L10.6719 94.6992L13.1797 94.582V94.5703L15.8164 94.3945H15.9102L18.5469 94.3828L18.6406 94.3711L18.7227 94.3828L21.2305 94.6641L23.7148 94.4531L23.7617 94.4414H23.8203L26.4688 94.418H26.4922L29.0469 94.4297L31.6953 94.3125L31.7773 94.3008L31.8594 94.3125L34.5078 94.4883L34.4961 94.5L37.0508 94.5117H37.0977L39.6875 94.6172L42.1836 94.5352L43.3955 94.4219L43.5664 92.8887L43.5547 90.3105L43.3906 87.7676L43.3789 87.7559V87.7441L43.2617 85.0957L43.25 85.002L43.2617 84.9199L43.3584 83.6074L42.7969 83.6475L42.3516 82.7451L41.332 80.6709L41.2148 80.4365L41.1797 80.1787L40.875 77.542L40.8633 77.4131V77.2959L41.0039 74.7295L40.8398 72.1748V72.0459L40.8516 71.917L41.1328 69.4326L40.8633 66.96V66.9014L40.7109 64.2529L40.6992 64.1123L40.7227 63.96L41.0742 61.4287L41.0156 58.9209V58.8506L41.0742 56.2139L41.0859 53.6006V53.5889L41.1328 50.9404L40.9102 48.4561L40.8281 47.5186L41.6367 47.0381L43.7812 45.7725L43.9795 45.6484L44.6631 44.0186L44.7451 43.8311L44.8857 43.6553L46.5498 41.6045L48.1553 39.5537L48.2021 39.4834L49.7139 37.7139L50.3467 35.7451L50.2412 33.3662V33.2607L50.2529 33.1436L50.5225 30.542L50.5459 30.3545L51.1436 27.7646L51.2021 27.5186L51.3311 27.3076L52.7373 25.0576L54.0264 22.8193L55.21 20.5225L56.2764 18.1904L56.3818 17.9561L56.5693 17.7686L58.0693 16.2383L58.0254 13.7793L57.8848 11.1426L57.873 11.002L57.8965 10.8613L58.2246 8.33008L59.3965 8.4707L59.6895 8.42383L61.1777 8.16602L61.1895 8.27148ZM58.5566 89.3828H61.4043V89.5938L61.2051 92.0547L61.334 94.5625L61.5098 97.1992V97.293L61.5215 99.9297L61.5332 100.023L61.5215 100.105L61.2402 102.613L61.4512 105.098L61.4629 105.203V105.297L61.4043 106.41L59.9043 106.34L58.4043 106.258L58.4629 105.273L58.2402 102.707L58.2285 102.566L58.2402 102.414L58.5215 99.8828L58.5098 97.3047L58.3457 94.7617V94.75L58.334 94.7383L58.2168 92.0898L58.2051 91.9961L58.2168 91.9141L58.4043 89.3711L58.5566 89.3828ZM65.2979 89.3828H68.1455V89.5938L67.9463 92.0547L68.0752 94.5625L68.251 97.1992V97.293L68.2627 99.9297L68.2744 100.023L68.2627 100.105L67.9814 102.613L68.1924 105.098L68.2041 105.203V105.297L68.1455 106.41L66.6455 106.34L65.1455 106.258L65.2041 105.273L64.9814 102.707L64.9697 102.566L64.9814 102.414L65.2627 99.8828L65.251 97.3047L65.0869 94.7617V94.75L65.0752 94.7383L64.958 92.0898L64.9463 91.9961L64.958 91.9141L65.1455 89.3711L65.2979 89.3828ZM54.2432 89.4883L54.2314 91.9258L54.4072 94.5508V94.5625L54.5713 97.2109V97.3047L54.5596 99.9414V100.023L54.5479 100.094L54.2783 102.578L54.501 105.086L54.5127 105.238L54.501 105.402L54.4424 105.883L52.9541 105.707L51.4658 105.52L51.5127 105.215L51.2783 102.707L51.2666 102.566L51.2783 102.414L51.5596 99.7773L51.5713 97.2812L51.4189 94.7617L51.2314 92.125V92.0195L51.2432 89.4766V89.4062L54.2432 89.3594V89.4883ZM71.0977 48.5967L71.0859 48.6084H71.0625L68.4258 48.7959L68.3672 48.8076H68.3203L65.6836 48.8193H65.5898L65.5078 48.8076L62.9766 48.5264L60.5156 48.7373H60.4102L57.7617 48.7725H57.75L55.1836 48.7607L52.5586 48.9014L52.4766 48.9131L52.3945 48.9014L47.1211 48.6436V48.6318L44.9414 48.5615L43.9805 49.124L44.1328 50.835V50.999L44.0859 53.6357L44.0742 56.2607V56.2842L44.0156 58.9209L44.0742 61.499V61.6162L44.0625 61.7334L43.6992 64.2178L43.8633 66.7256L44.1328 69.292L44.1445 69.4561L44.1328 69.6201L43.8398 72.0928L43.9922 74.6357L44.0039 74.7178L43.9922 74.7998L43.8633 77.3311L44.1211 79.5576L44.5781 80.5068L46.2891 80.3896H46.3359L48.9609 80.2959H48.9844L51.6211 80.2256L54.2578 80.1436H57.0352L57.1406 80.1553L59.5195 80.4834L61.9336 80.0146L62.1797 79.9678L62.4258 80.0029L64.9805 80.3545H64.9922L67.4062 80.5771L68.1094 80.4834L68.1504 80.7588L68.5273 80.3926L69.1484 80.4043L71.7969 80.4277H71.8789L71.9492 80.4395L74 80.6738L74.9258 80.0645L74.9023 78.2715V78.1895L75.0078 75.5527L75.0312 72.9512V72.8574L75.2305 70.2676L75.125 67.748L75.1133 67.7129V67.666L75.1484 65.0645L75.1367 62.5332L74.9141 59.8965L74.9023 59.7559L74.9141 59.6152L75.1953 56.9668L75.1484 54.5059V54.4941L74.9375 51.9746V51.9629L74.7383 49.3262V49.1621L74.752 48.7861L73.4297 48.3506L71.0977 48.5967ZM60.5381 52.6973L63.1514 53.1543L63.4678 53.2012L63.7373 53.3887L65.9404 54.877L65.999 54.9121L66.0459 54.9473L68.0732 56.5996L68.167 56.6699L68.2373 56.7637L70.0068 58.7207L70.1475 58.873L70.2412 59.0723L71.4014 61.4863L71.5654 61.8145L71.5537 62.1895L71.5068 63.2324L72.292 63.1035L71.7178 65.3418L71.2725 67.0527L70.8857 69.4902L70.8271 69.8301L70.6279 70.123L69.1162 72.2793L69.0576 72.3496L68.999 72.4082L67.2412 74.377L67.042 74.5879L66.7842 74.7168L64.417 75.8887H64.4053L62.0381 77.0371L61.8389 77.1309L61.6162 77.166L58.9678 77.5645L58.6162 77.623L58.2881 77.5176L55.7451 76.709L55.6748 76.6855L55.6045 76.6504L53.2139 75.6191L53.0146 75.5371L52.8506 75.3965L50.8584 73.7207L50.7295 73.6152L50.624 73.4863L49.042 71.4355L48.9248 71.2832L48.8545 71.1191L47.8115 68.7402L47.7412 68.5293L47.0732 65.998L47.0146 65.7754L47.0264 65.541L47.167 62.8926L47.1787 62.6582L47.2607 62.4355L48.1982 59.9512L48.2568 59.8105L48.3506 59.6699L49.7803 57.4668L49.8975 57.2793L50.0615 57.1387L52.0537 55.4395L52.124 55.3809L52.1943 55.334L54.3506 53.8809L54.5264 53.7637L54.7373 53.6934L57.2217 52.8965L57.4092 52.8379L57.5967 52.8262L60.1982 52.6855L60.3623 52.6738L60.5381 52.6973ZM57.9482 55.8145L55.8389 56.4824L53.8701 57.8301L52.1826 59.2598L50.9404 61.1699L50.1318 63.2793L50.0264 65.4473L50.6123 67.6738L51.5029 69.7246L52.9092 71.541L54.5967 72.9473L56.7764 73.8848L58.8506 74.541L60.96 74.2246L63.1045 73.1816L65.1787 72.1621L66.6787 70.4863L67.9678 68.6699L68.3428 66.4434L68.3662 66.3027L68.6006 65.377L68.4482 65.1309L68.46 64.6621L68.5303 62.4355L67.6396 60.5605L66.0811 58.8379L64.2646 57.3613L62.3193 56.0488L60.1631 55.6738L57.9482 55.8145ZM60.2334 58.3389L60.6084 58.749L60.6318 59.3115L60.7139 61.7607V61.9365L60.5732 63.6357L61.2646 64.0342L63.4912 64.0107H63.6553L63.8193 64.0459L65.2607 64.3506L64.9795 65.6514L66.4561 65.71V65.8857L66.374 67.6436L64.6396 67.2803L63.3271 67.0107L60.9014 67.0459H60.4912L60.1279 66.8467L58.2529 65.7686L57.4326 65.2881L57.5146 64.3506L57.7139 61.8662L57.6318 59.417L58.9795 59.3584L59.0615 59.2881L60.1631 58.2686L60.2334 58.3389ZM69.9014 64.873L69.9951 64.8965L69.9834 64.8145L69.9014 64.873ZM65.4824 39.4863L65.1777 39.5801L64.8613 39.5449L62.2129 39.252H59.834L59.8457 39.2637L57.209 39.4395H57.1855L54.5488 39.5801L54.3145 39.5918L54.1035 39.5332L52.4395 39.1152L52.4092 39.2139L52.1982 39.4482L50.5107 41.3818L48.9053 43.4678L48.8936 43.4912L48.8818 43.5029L47.335 45.4014L47.2334 45.6426L47.25 45.6436H47.2734L49.9102 45.7842L52.4531 45.9131L55.0312 45.7607H55.1133L57.7383 45.7725L60.375 45.7373V45.749L62.9062 45.5264L63.0586 45.5146L63.1992 45.5381L65.7188 45.8193H68.2031V45.8076L70.8398 45.6084V45.6201L71.4873 45.5488L71.2441 44.9746L69.7324 43.1699L67.9512 41.2246L67.8457 41.1191L67.7637 40.9785L66.6484 39.1133L65.4824 39.4863ZM53.2412 33.3076L53.3584 35.8623L53.3701 36.1201L53.3271 36.2529L54.5957 36.5801L57.0098 36.4629V36.4512L59.6465 36.2754L59.6934 36.2637H59.7402L62.377 36.252H62.4707L62.5527 36.2637L64.8613 36.5332L65.7158 36.2578L65.584 35.7402L65.5488 35.5996L65.5371 35.4355L65.4199 32.8105L65.4082 32.6816L65.4316 32.5645L65.5986 31.0947L63.1377 30.998H60.6533L58.0283 31.1855H57.9932L55.3564 31.3145H55.1338L54.9229 31.2676L53.5039 30.9072L53.2412 33.3076ZM58.8896 19.6787L57.9053 21.835L57.8936 21.8701L57.8701 21.9053L56.6631 24.2607L56.6396 24.2842L56.6279 24.3076L55.3154 26.5928L55.3037 26.6162L55.2803 26.6396L54.3965 28.0488L55.415 28.3145L57.8291 28.1973V28.1855L60.4658 28.0098H60.5596L63.1963 27.998H63.2666L64.7451 28.0557L63.6035 26.0723L63.5918 26.0605V26.0488L62.373 23.8574L60.8965 21.666L60.8379 21.584L60.791 21.502L59.6191 19.1816L59.5244 19.0342L58.8896 19.6787Z" fill="black"/>
</svg>
