<svg xmlns="http://www.w3.org/2000/svg" width="120" height="120" fill="none" viewBox="0 0 120 120"><path fill="currentColor" d="M40.77 16.62h.06l2.57.47.14.02.13.06 2.48.94.26.09.2.19 2 1.77.01.02 1.91 1.8.12.11 1.71 2.02.08.09.06.1 1.37 2.29.1.16.04.18.37 1.22 1.33-.6.23-.1.26-.02 2.65-.23.1-.02h.11l2.64.16h.14l.14.03 2.55.65.05.02.05.01 1.18.39.36-.71.83-2.4.08-.24.17-.2 1.65-2.07.02-.05.04-.02 1.74-1.95.06-.07.07-.06 1.98-1.74.1-.08.13-.09 2.3-1.34.17-.1.2-.07 2.48-.64.32 1.2.14.2.88 1.21-.08.06-.23.16-.27.07-2.3.6-1.95 1.15-1.84 1.6-1.68 1.9-1.43 1.77-.8 2.3-.03.1-.04.08-.3.58 1.13.57.21.1.18.17 1.9 1.89.1.1.09.13 1.47 2.23.1.15.06.16.92 2.5.05.12.02.11.5 2.63.04.26-.05.27-.45 2.62-.24 2.5-.01.19 1.45.62.01-.01 2.47.91.03.01 2.53 1 .04.03 2.37 1.16.07.04.07.04 2.15 1.34 2.3.86h.06l.06.03 2.4 1.11h.02v.02l2.39 1.16H93l2.37 1.03.1.03.08.05 2.21 1.31 2.33 1.24.03.02.03.02 2.2 1.3 2.32 1.18 2.39 1.18.17.09.14.12 2.03 1.74.12.08.08.12 1.66 2.09.12.13.07.15 1.15 2.41.05.1.03.14.73 2.55.07.26-.01.26-.2 2.65-.1 2.57-.02.13-.02.13-.59 2.6-.07.34-.22.27-1.67 2.09-.02.03-.04.04-1.78 1.94-.16.2-.21.11-2.31 1.29-.01.01-.03.01-2.36 1.24-.35.18-.4-.01-2.69-.1v-.02l-2.57-.05h-.2l-.2-.07-2.51-.76-.12-.03-.12-.06-2.35-1.17-.14-.06-.12-.1L89.8 84l-.11-.1-.1-.11-1.73-2-.1-.12-.09-.15-1.18-2.15-1.76-1.65-.19-.17-.11-.22-1.22-2.31L81.87 73l-1.77-1.78-.1-.08-.06-.1-1.55-2.14-.08-.11-.06-.14-1.02-2.24-1.1-1.16-1.22 2.05-.12.2-.18.16-.8.7 1.47 1.28.17.16.11.2 1.36 2.21 1.48 2.17.06.1.06.1 1.1 2.38.03.07.04.08.85 2.47.04.08.02.1.54 2.55.01.04v.03l.45 2.6.02.14v.17l-.12 2.65v.16l-.05.16-.7 2.56-.02.06-.02.07-.92 2.47-.03.1-.06.11-1.28 2.3-.01.02-.01.01-1.34 2.25-.08.13-.1.12-1.75 1.95-.05.05-.04.05-1.95 1.78v.01l-1.96 1.78-.14.12-.15.1-2.3 1.25-1.94 1.36-2 1.73-1.79 1.64-1.32 1.83-.1.14-.12.1-.07.07-1-1.13-.3-.34-.38-.28-.59.56-.37-.38-2-1.56-.05-.04-.04-.03-1.9-1.69-2.12-1.3-.1-.07-2.05-1.76-2.09-1.4-2.24-1.34-.18-.1-.16-.17-1.78-1.97-.13-.14-.08-.15-1.24-2.26-1.54-2-.15-.2-.08-.22-.87-2.52-1.02-2.33-.14-.33.01-.35.14-2.68.1-2.57.04-2.65.02-.23.07-.22.84-2.51.05-.13.06-.1 1.2-2.23.9-2.42.12-.33.26-.24 1.93-1.83 1.74-1.86.03-.04.05-.03.14-.13-1.46-2.1-.04-.06-.96-1.56-.98 1.65-.1.18-.14.14-1.82 1.74-1.38 2-1.08 2.28-.07.14-.1.13-1.59 2.1-.04.05-.04.05-1.64 1.8-.96 2.22-.1.23-.17.19-1.8 1.97-1.67 1.94-.07.1-.1.07-1.97 1.72-.13.1-.16.09-2.33 1.24-.14.07-.15.05-2.54.72-.1.04-.13.01-2.64.34-.36.05-.34-.12-2.52-.88-2.43-.62-.28-.07-.25-.18-2.11-1.58-.07-.04-.06-.06-1.92-1.82-.22-.2-.12-.28-1.08-2.41-1.07-2.4-.07-.17-.03-.19-.46-2.62-.06-.3.07-.28.55-2.6v-.03l.02-.04.66-2.53.05-.19.1-.17L9 66.37l.07-.13.09-.1 1.71-1.98.1-.12.12-.09 2.07-1.58.02-.02 2.13-1.56.05-.04.06-.03 2.26-1.37.07-.05.07-.02 2.4-1.14 2.35-1.15.04-.02.05-.01 2.38-.97 2.26-1.2.04-.01.03-.02 2.4-1.12L32 52.53l2.29-1.34.11-.07.14-.05 2.48-.88 2.26-1.07 2.25-1.24h.01l.02-.02 2.35-1.2.1-.05.09-.04 1.73-.62-.62-2.51-.02-.12-.01-.13-.2-2.64-.03-.2.05-.22.55-2.6.05-.26.14-.22 1.38-2.25v-.01l1.4-2.24.09-.15.13-.13 1.87-1.86.11-.1.13-.08.85-.56-.52-1.72-1.17-1.96-1.63-1.9-1.8-1.7-1.77-1.59-2.11-.8-2.36-.43v.01l-.66-.1.22-1.48.2-1.48zM73.1 92.6l-.02-.02-2.6.18h-.09l-2.64.01h-.1l-.07-.01-2.46-.3-2.52.23h-.12l-2.64.03h-2.59l-2.62.13h-.17l-2.55-.15-2.64.01-.03.01h-.04l-2.6-.11-2.3.2-.97.28.04.12 1.49 1.94.07.09.06.1 1.2 2.17 1.5 1.68 2.13 1.28h.02l.03.03 2.17 1.45.09.05.07.06 1.9 1.65 2.19 1.34.1.07.1.1 1.9 1.68 2.03 1.57.07-.07.08-.12.1-.1 1.92-1.78.02-.03.04-.02 2-1.72.06-.05.06-.04 2.16-1.52.14-.1 2.16-1.19 1.83-1.66 1.88-1.73 1.63-1.81 1.25-2.11.97-1.77-1.22-.18zM62.55 81.99h-.09l-2.62-.02-2.53.02-2.63.23-.15.02-.14-.02-2.53-.27-2.58.02h-.01l-2.53.2-.01-.02-2.6.22-.22.03-.2-.05-1.84-.36-.02 1.76v.03l-.1 2.59v.02l-.12 2.33.68 1.55 1.27-.36.14-.05h.14l2.64-.24h.2l2.56.11H52l2.56.13 2.56-.14h.08l2.62.01 2.53-.02 2.65-.23.14-.02.15.03 2.63.3h2.39v-.02l2.63-.16h.03l2.63-.13h.16l.14.02 2.03.3.58-2.18.1-2.32-.39-2.36-.2-.96-2.26.11h-.04l-2.64.08h-.1l-2.63-.1v-.01l-2.6-.02h-.08l-2.49-.17zM45.2 49.36l-2.25 1.17h-.02l-2.27 1.26h-.03l-.04.03-2.38 1.14-.08.03-.07.04-2.35.8-2.17 1.3-.05.02-.06.02-2.37 1.18h-.02l-2.4 1.12-2.25 1.22-.07.03-.09.03-2.36.94-2.37 1.16h-.01l-2.29 1.07-2.18 1.33-2.05 1.49h.01l-1.95 1.5-1.51 1.73-1.13 2-.6 2.31-.48 2.24.38 2.16 1 2.25.95 2.14 1.7 1.58 1.75 1.3 2.25.6h.07l.06.03 2.19.76 2.2-.28 2.27-.66 2.02-1.08 1.8-1.54 1.64-1.9v-.03l.03-.02 1.62-1.76.97-2.25.1-.22.17-.19 1.72-1.9 1.5-1.98 1.08-2.25.05-.1.07-.1 1.5-2.18.08-.12.12-.1 1.8-1.76 1.22-2.07.2-.34.33-.19.8-.47-.1-.72v-.04l-.27-2.64-.03-.27.08-.27.68-2.54.02-.05.78-2.5.03-.12.05-.1 1.16-2.39.1-.23 1.1-1.1zm29.63 1.41.07.12.06.12 1.15 2.35.05.09.02.09.86 2.5.08.25v.27l-.05 2.65.04 2.6V62l-.02.05.54.44.07.06.06.07 1.83 1.92.17.2.1.21 1.04 2.3 1.38 1.91L84.11 71l.1.1.1.14 1.44 2.21.07.12 1.14 2.14 1.77 1.67.17.16.12.21 1.2 2.18 1.5 1.75 1.92 1.48 2.07 1.04 2.22.66 2.39.06h.02l2.29.08 2-1.04 2.07-1.17 1.54-1.68 1.45-1.84.47-2.1.13-2.49v-.02l.15-2.42-.6-2.13-1.03-2.18-1.48-1.85-1.76-1.5-2.22-1.1h-.02l-2.36-1.2-.03-.02-.05-.02-2.21-1.32-2.34-1.24-.02-.01-.03-.02-2.22-1.32-2.32-1-.02-.02h-.04l-2.34-1.16-2.29-1.05-2.48-.92-.15-.05-.13-.09-2.2-1.38-2.24-1.09-2.4-.96v-.01l-2.43-.9-.07-.02-1.34-.57zM54.35 68.82h-.08l-2.4.05-2 .6-1.67 1.57-1.72 1.85-.04.03-.03.03-1.7 1.6-.79 2.18-.05.1-.04.1-1.19 2.16 1.44.28 2.42-.2h.03l2.63-.2h.1l2.63-.02h.18l2.46.28 2.53-.22.06-.01h.06l2.64-.03h.02l2.57.02 2.63-.12h.18l2.63.17v.02h2.59l2.6.11 2.55-.06 1.58-.09-.3-.87-1.03-2.18-1.4-2.07-.03-.04v-.03l-1.28-2.08-1.7-1.49-1.96-1-2.17-.45-2.41.15h-.17l-2.54-.14-2.48.3-.23.03-.22-.05-2.46-.45zM58.15 46l.02.02-2.43.51-2.25.9-2.1 1.08-1.84 1.6-1.62 1.62-1.01 2.07-.72 2.34-.62 2.3.24 2.28.31 2.31 1.17 1.88 1.19 1.7.2.05v.04l2.47-.75.2-.06h.2l2.57-.06 2.65-.2h.18l.2.03 2.42.46 2.41-.29h.25l2.54.13 2.57-.15.2-.01.2.03 2.55.56.19.03.17.1.44.21 1.35-1.18 1.13-1.89.51-2.02-.02-2.43v-.05l.04-2.41-.73-2.16-1.08-2.19-1.35-1.85-1.84-1.62-1.87-1.46-2.11-.94-2.32-.71-2.3-.16zM56.7 30.4l-2.08.92-1.97 1.31L51 34.26l-1.31 2.11-.02-.01-1.23 2.03-.45 2.15.17 2.28.58 2.34.5 1.27.34-.29.13-.11.14-.08 2.33-1.22.07-.04.07-.02 2.44-.96.12-.05.11-.02 2.55-.55.09-.03 2.6-.38.16-.03.17.01 2.65.2h.16l.17.05 2.53.77.09.03.1.03 2.4 1.1.16.06.14.1 2.08 1.63.03.02.03.03.55-1.14.22-2.34.02-.11.4-2.36-.42-2.26-.82-2.2-1.28-1.91-1.64-1.66-2.07-1.03-2.26-.75-2.4-.6-2.37-.14z"/></svg>