<svg width="120" height="120" viewBox="0 0 120 120" fill="none" xmlns="http://www.w3.org/2000/svg">
<path d="M95.3164 114.254L97.8945 114.605L100.273 114.711L102.793 114.277L102.91 114.266H103.027L105.664 114.242H105.816L105.969 114.266L108.406 114.746L110.809 114.5L110.891 114.488H110.973L112.016 114.5L112.004 116L111.98 117.5L110.984 117.488L108.477 117.746L108.254 117.77L108.031 117.734L105.57 117.242L103.145 117.254L100.648 117.688L100.496 117.711L100.332 117.699L97.6953 117.594H97.625L97.5547 117.582L95.1523 117.242L92.7617 117.711L92.5273 117.758L92.293 117.734L89.7383 117.406L87.207 117.418L87.1953 117.406L84.6055 117.488H84.5938L81.957 117.547H81.9336L79.3672 117.559L79.3789 117.57L76.7422 117.746L76.5547 117.758L73.9297 117.266L71.5391 117.547L71.4102 117.559H71.2812L68.7266 117.418L66.1719 117.582H66.043L65.9141 117.57L63.418 117.289L60.957 117.559H60.8867L58.25 117.711L58.0977 117.723L57.957 117.699L55.4141 117.348L52.9062 117.406H52.8477L50.2109 117.348V117.336H47.5742L44.9492 117.289L42.4531 117.512L42.418 117.523H42.3711L39.7344 117.617H39.6172L36.9805 117.512V117.5L34.3906 117.488H34.3438L34.2969 117.477L31.7188 117.301L29.1875 117.43H29.1055L26.4688 117.418V117.406L23.9609 117.43L21.3242 117.664L21.1836 117.676L21.0312 117.664L18.5 117.383L15.9219 117.395V117.383L13.3789 117.559H13.3672L13.3555 117.57L10.707 117.688L10.6133 117.699L10.5312 117.688L7.98828 117.5L8 117.277V114.5H8.21094L10.6719 114.699L13.1797 114.582V114.57L15.8164 114.395H15.9102L18.5469 114.383L18.6406 114.371L18.7227 114.383L21.2305 114.664L23.7148 114.453L23.7617 114.441H23.8203L26.4688 114.418H26.4922L29.0469 114.43L31.6953 114.312L31.7773 114.301L31.8594 114.312L34.5078 114.488L34.4961 114.5L37.0508 114.512H37.0977L39.6875 114.617L42.1836 114.535L44.832 114.289H44.9844L47.6211 114.336L47.6094 114.348H50.2695L52.8711 114.406L55.4844 114.348H55.6133L55.7305 114.359L58.2148 114.723L60.7109 114.559V114.57L63.2891 114.289L63.4414 114.277L63.6055 114.289L66.0898 114.582L68.6328 114.43L68.7148 114.418L68.7969 114.43L71.3281 114.559L73.8242 114.266L74.0586 114.23L74.2812 114.277L76.7305 114.734L79.1797 114.582L79.2266 114.57H79.2617L81.8867 114.559V114.547L84.5234 114.488L87.1602 114.418H87.1953L89.832 114.406H89.9375L90.0312 114.418L92.4219 114.734L94.8359 114.266L95.082 114.219L95.3164 114.254Z" fill="black"/>
<path d="M104.523 107.191L105.309 109.219L105.414 109.512L105.402 109.828L105.297 112.312L105.719 114.797L105.883 115.77L105.039 116.309L103.129 117.527L102.613 117.844L102.027 117.727L99.6133 117.246L97.1875 117.504L97.0586 117.516L96.918 117.504L94.4219 117.293L91.9609 117.645L91.7617 117.668L91.5625 117.645L88.9961 117.293L86.6406 117.27L84.0977 117.703L83.9805 117.727H83.8633L81.2266 117.762H81.1094L81.0039 117.75L78.4727 117.422L76.0352 117.621L75.9297 117.633L75.8359 117.621L73.2461 117.469L70.6914 117.574H70.5742L68.0195 117.457L65.4414 117.609L65.3359 117.621L65.2188 117.609L62.6758 117.352L60.0391 117.281H57.4375L54.9297 117.516L54.918 117.527H54.9062L52.2578 117.703L52.1641 117.715L52.0703 117.703L49.5625 117.539L46.9258 117.633L46.7969 117.645L46.668 117.621L44.1602 117.246L41.7227 117.398L39.0859 117.645L38.9688 117.656L38.8398 117.645L36.2383 117.434L33.7305 117.516L31.0938 117.609L31 117.621L30.8945 117.609L28.3984 117.375L25.9609 117.703L25.8203 117.715H25.6797L23.1367 117.574L20.582 117.75H20.3945L17.7578 117.598L17.4766 117.574L17.2305 117.469L15.2031 116.578L14.125 116.098L14.3242 114.949L14.7578 112.477L14.5234 110.051L14.5352 110.039L14.3008 108.188L14.0898 106.5H16.2109L18.6719 106.699L21.1797 106.582V106.57L23.8164 106.395H23.9102L26.5469 106.383L26.6406 106.371L26.7227 106.383L29.2305 106.664L31.7148 106.453L31.7617 106.441H31.8203L34.4688 106.418H34.4922L37.0469 106.43L39.6953 106.312L39.7773 106.301L39.8594 106.312L42.5078 106.488L42.4961 106.5L45.0508 106.512H45.0977L47.6875 106.617L50.1836 106.535L52.832 106.289H52.9844L55.6211 106.336L55.6094 106.348H58.2695L60.8711 106.406L63.4844 106.348H63.6133L63.7305 106.359L66.2148 106.723L68.7109 106.559V106.57L71.2891 106.289L71.4414 106.277L71.6055 106.289L74.0898 106.582L76.6328 106.43L76.7148 106.418L76.7969 106.43L79.3281 106.559L81.8242 106.266L82.0586 106.23L82.2812 106.277L84.7305 106.734L87.1797 106.582L87.2266 106.57H87.2617L89.8867 106.559V106.547L92.5234 106.488L95.1602 106.418H95.1953L97.832 106.406H97.9375L98.0312 106.418L100.422 106.734L102.836 106.266L104.066 106.031L104.523 107.191ZM79.5391 109.547L79.4102 109.559H79.2812L76.7266 109.418L74.1719 109.582H74.043L73.9141 109.57L71.418 109.289L68.957 109.559H68.8867L66.25 109.711L66.0977 109.723L65.957 109.699L63.4141 109.348L60.9062 109.406H60.8477L58.2109 109.348V109.336H55.5742L52.9492 109.289L50.4531 109.512L50.418 109.523H50.3711L47.7344 109.617H47.6172L44.9805 109.512V109.5L42.3906 109.488H42.3438L42.2969 109.477L39.7188 109.301L37.1875 109.43H37.1055L34.4688 109.418V109.406L31.9609 109.43L29.3242 109.664L29.1836 109.676L29.0312 109.664L26.5 109.383L23.9219 109.395V109.383L21.3789 109.559H21.3672L21.3555 109.57L18.707 109.688L18.6133 109.699L18.5312 109.688L17.4883 109.605L17.5117 109.734V109.781L17.7578 112.418L17.7695 112.617L17.7344 112.816L17.4766 114.293L18.1914 114.609L20.4648 114.738L23.0195 114.586L23.1133 114.574L23.1953 114.586L25.6914 114.703L28.1992 114.375L28.375 114.352L28.5391 114.375L31.1172 114.609L33.625 114.516H33.6367L36.2734 114.434H36.3555L36.4375 114.445L39.0039 114.633L41.4648 114.422H41.5117L44.1484 114.246H44.3008L44.4531 114.27L46.9141 114.621L49.4688 114.551H49.6094L52.1406 114.703L54.6953 114.527L57.3086 114.293H57.4375L60.0742 114.281H60.1211L62.7578 114.363H62.8633L65.4062 114.609L67.9141 114.469L67.9844 114.457L68.0664 114.469L70.6445 114.562L73.2227 114.469H73.3633L75.8828 114.621L78.4375 114.422L78.6016 114.41L78.7539 114.434L81.2852 114.75L83.6992 114.727L86.2305 114.293L86.3594 114.27H86.5L89.1367 114.305H89.2305L89.3125 114.316L91.75 114.633L94.1992 114.305L94.3633 114.281L94.5273 114.305L97 114.492L99.5312 114.246L99.7539 114.223L99.9648 114.27L102.016 114.668L102.59 114.305L102.32 112.652L102.285 112.488L102.297 112.336L102.379 110.004L102.168 109.441L100.762 109.711L100.527 109.758L100.293 109.734L97.7383 109.406L95.207 109.418L95.1953 109.406L92.6055 109.488H92.5938L89.957 109.547H89.9336L87.3672 109.559L87.3789 109.57L84.7422 109.746L84.5547 109.758L81.9297 109.266L79.5391 109.547Z" fill="black"/>
<path d="M87.2812 98.2773L89.7305 98.7344L92.1797 98.582L92.2266 98.5703H92.2617L94.8867 98.5586V98.5469L97.5234 98.4883H97.6875L100.219 98.7109L101.578 98.8164L101.59 100.199L101.602 102.836V102.93L101.59 103.035L101.262 105.543L101.379 108.191L101.461 109.984L99.6797 109.75L97.1016 109.398L94.6641 109.293L92.2031 109.715L92.0859 109.738H91.9688L89.332 109.762H89.1797L89.0273 109.727L86.6133 109.246L84.1875 109.504L84.0586 109.516L83.918 109.504L81.4219 109.293L78.9609 109.645L78.7617 109.668L78.5625 109.645L75.9961 109.293L73.6406 109.27L71.0977 109.703L70.9805 109.727H70.8633L68.2266 109.762H68.1094L68.0039 109.75L65.4727 109.422L63.0352 109.621L62.9297 109.633L62.8359 109.621L60.2461 109.469L57.6914 109.574H57.5742L55.0195 109.457L52.4414 109.609L52.3359 109.621L52.2188 109.609L49.6758 109.352L47.0391 109.281H44.4375L41.9297 109.516L41.918 109.527H41.9062L39.2578 109.703L39.1641 109.715L39.0703 109.703L36.5625 109.539L33.9258 109.633L33.7969 109.645L33.668 109.621L31.1602 109.246L28.7227 109.398L26.0859 109.645L25.9688 109.656L25.8398 109.645L23.2031 109.434H23.1797L23.1562 109.422L20.8242 109.176L19.5352 109.035L19.4883 107.734L19.3828 105.098V104.992L19.3945 104.898L19.6289 102.426L19.3008 100.211L19.0547 98.5H21.2109L23.6719 98.6992L26.1797 98.582V98.5703L28.8164 98.3945H28.9102L31.5469 98.3828L31.6406 98.3711L31.7227 98.3828L34.2305 98.6641L36.7148 98.4531L36.7617 98.4414H36.8203L39.4688 98.418H39.4922L42.0469 98.4297L44.6953 98.3125L44.7773 98.3008L44.8594 98.3125L47.5078 98.4883L47.4961 98.5L50.0508 98.5117H50.0977L52.6875 98.6172L55.1836 98.5352L57.832 98.2891H57.9844L60.6211 98.3359L60.6094 98.3477H63.2695L65.8711 98.4062L68.4844 98.3477H68.6133L68.7305 98.3594L71.2148 98.7227L73.7109 98.5586V98.5703L76.2891 98.2891L76.4414 98.2773L76.6055 98.2891L79.0898 98.582L81.6328 98.4297L81.7148 98.418L81.7969 98.4297L84.3281 98.5586L86.8242 98.2656L87.0586 98.2305L87.2812 98.2773ZM84.5391 101.547L84.4102 101.559H84.2812L81.7266 101.418L79.1719 101.582H79.043L78.9141 101.57L76.418 101.289L73.957 101.559H73.8867L71.25 101.711L71.0977 101.723L70.957 101.699L68.4141 101.348L65.9062 101.406H65.8477L63.2109 101.348V101.336H60.5742L57.9492 101.289L55.4531 101.512L55.418 101.523H55.3711L52.7344 101.617H52.6172L49.9805 101.512V101.5L47.3906 101.488H47.3438L47.2969 101.477L44.7188 101.301L42.1875 101.43H42.1055L39.4688 101.418V101.406L36.9609 101.43L34.3242 101.664L34.1836 101.676L34.0312 101.664L31.5 101.383L28.9219 101.395V101.383L26.3789 101.559H26.3672L26.3555 101.57L23.707 101.688L23.6133 101.699L23.5312 101.688L22.5234 101.605L22.6172 102.18L22.6406 102.367L22.6289 102.543L22.3828 105.109L22.4297 106.328L23.4844 106.445H23.4727L26.0039 106.633L28.4648 106.422H28.5117L31.1484 106.246H31.3008L31.4531 106.27L33.9141 106.621L36.4688 106.551H36.6094L39.1406 106.703L41.6953 106.527L44.3086 106.293H44.4375L47.0742 106.281H47.1211L49.7578 106.363H49.8633L52.4062 106.609L54.9141 106.469L54.9844 106.457L55.0664 106.469L57.6445 106.562L60.2227 106.469H60.3633L62.8828 106.621L65.4375 106.422L65.6016 106.41L65.7539 106.434L68.2852 106.75L70.6992 106.727L73.2305 106.293L73.3594 106.27H73.5L76.1367 106.305H76.2305L76.3125 106.316L78.75 106.633L81.1992 106.305L81.3633 106.281L81.5273 106.305L84 106.492L86.5312 106.246L86.7539 106.223L86.9648 106.27L89.4844 106.75L91.8398 106.738L94.3477 106.316L94.5117 106.293H94.6641L97.3008 106.41H97.3711L97.4414 106.422L98.2969 106.527L98.2617 105.543L98.25 105.414L98.2734 105.285L98.5898 102.742V101.57L97.5586 101.488L94.957 101.547H94.9336L92.3672 101.559L92.3789 101.57L89.7422 101.746L89.5547 101.758L86.9297 101.266L84.5391 101.547Z" fill="black"/>
<path d="M54.5 98.2188L54.7109 98.2305L54.8281 97.2813L54.8281 94.75L54.7812 92.1133L54.7812 92.0664L54.793 92.0195L54.9102 89.3828L54.9102 89.2891L54.9219 89.207L55.332 86.6992L55.2383 84.2266L55.2266 84.1797L55.2383 84.1211L55.332 81.4844L55.332 81.4492L55.4844 78.8242L55.4961 78.8359L55.4961 76.1641L55.5078 76.082L55.8125 73.457L55.8242 73.4688L55.9648 70.9023L55.9648 70.8555L56.1992 68.3594L56.1992 68.3477L56.2227 65.7695L56.1289 63.1328L56.1289 63.0508L56.1406 62.9805L56.3164 60.3437L56.3867 59.2539L57.4414 58.9844L59.832 58.3867L60.3711 58.2578L60.8633 58.5039L62.8086 59.4883L63.5703 59.8633L63.6289 60.7187L63.8164 63.3555L63.8281 63.4727L63.8164 63.5898L63.5937 66.0859L63.8516 68.5234L63.8633 68.5117L64.2617 71.1367L64.2969 71.3008L64.2852 71.4648L64.1094 73.9609L64.4023 76.4805L64.4141 76.5625L64.4141 76.6445L64.4023 79.1289L64.8242 81.6602L64.8594 81.8828L64.8359 82.1172L64.4844 84.5664L64.7773 87.0273L64.7773 87.0625L64.7891 87.1094L64.9297 89.7344L64.9414 89.7227L65.1172 92.3594L65.1289 92.3477L65.3398 94.9844L65.3398 95.0195L65.4805 97.6562L65.4922 97.832L65.457 98.0078L65.0938 100.023L64.918 101.031L63.8984 101.23L61.2617 101.734L61.0273 101.781L60.7813 101.746L58.2031 101.395L55.9297 101.289L56 100.023L54.5 100L54.5 98.2188ZM58.4141 98.4062L58.4727 98.4062L58.543 98.418L60.9336 98.7578L62.3164 98.4883L62.4687 97.6094L62.3398 95.1836L62.1406 92.582L61.9531 89.9453L61.9531 89.9219L61.7891 87.2852L61.4961 84.7422L61.4727 84.5547L61.4961 84.3672L61.8242 81.918L61.4258 79.5391L61.4023 79.4102L61.4023 76.8086L61.1328 74.1836L61.1094 74.0547L61.1211 73.9258L61.2734 71.3945L60.8984 68.9687L60.8867 68.9453L60.8867 68.9102L60.5937 66.2734L60.582 66.1328L60.5937 65.9805L60.8164 63.4375L60.6992 61.7852L60.0078 61.4453L59.2227 61.6328L59.1289 63.1211L59.2344 65.6641L59.2344 65.7461L59.1992 68.3828L59.1992 68.5L58.9531 71.1367L58.9414 71.1367L58.8008 73.7266L58.8008 73.7617L58.7891 73.8086L58.4844 76.3398L58.4844 78.9883L58.332 81.625L58.3203 81.625L58.2266 84.1914L58.332 86.7695L58.332 86.9219L58.3086 87.0625L57.8867 89.6641L57.7812 92.125L57.8281 94.7031L57.8281 97.4687L57.8164 97.5625L57.7109 98.3828L58.4141 98.4062Z" fill="black"/>
<path d="M54.6641 58.6953L55.5078 60.3008L55.8828 61.0391L56.7148 61.0977L59.2695 61.2969L59.293 61.3086L59.3164 61.3086L61.9531 61.4258L62.5156 61.4492L62.9609 61.0977L64.8008 59.6211L65.3398 59.1875L65.3516 58.5078L65.4453 55.8828L65.4336 55.8711L65.668 53.3281L65.7969 51.7461L64.2148 51.6992L61.6016 51.6289L61.5898 51.6172L61.5664 51.6172L58.9297 51.6055L58.918 51.6172L56.375 51.4414L55.0625 51.3477L54.8047 52.6484L54.3359 55.0742L54.2891 55.2969L54.3125 55.5195L54.4297 56.5039L53.5039 56.5039L54.6641 58.6953ZM57.5 54.5117L58.8242 54.6055L58.918 54.6055L61.5547 54.6172L62.5391 54.6406L62.4453 55.707L62.4453 55.7891L62.375 57.7109L61.5195 58.3906L59.5039 58.3086L57.7695 58.168L57.5703 57.793L57.5703 57.7812L57.3125 55.4141L57.5 54.5117Z" fill="black"/>
<path d="M38.5 98.2188L38.7109 98.2305L38.8281 97.2813L38.8281 94.75L38.7812 92.1133L38.7812 92.0664L38.793 92.0195L38.9102 89.3828L38.9102 89.2891L38.9219 89.207L39.332 86.6992L39.2383 84.2266L39.2266 84.1797L39.2383 84.1211L39.332 81.4844L39.332 81.4492L39.4844 78.8242L39.4961 78.8359L39.4961 76.1641L39.5078 76.082L39.8125 73.457L39.8242 73.4688L39.9648 70.9023L39.9648 70.8555L40.1992 68.3594L40.1992 68.3477L40.2227 65.7695L40.1289 63.1328L40.1289 63.0508L40.1406 62.9805L40.3164 60.3437L40.3867 59.2539L41.4414 58.9844L43.832 58.3867L44.3711 58.2578L44.8633 58.5039L46.8086 59.4883L47.5703 59.8633L47.6289 60.7187L47.8164 63.3555L47.8281 63.4727L47.8164 63.5898L47.5937 66.0859L47.8516 68.5234L47.8633 68.5117L48.2617 71.1367L48.2969 71.3008L48.2852 71.4648L48.1094 73.9609L48.4023 76.4805L48.4141 76.5625L48.4141 76.6445L48.4023 79.1289L48.8242 81.6602L48.8594 81.8828L48.8359 82.1172L48.4844 84.5664L48.7773 87.0273L48.7773 87.0625L48.7891 87.1094L48.9297 89.7344L48.9414 89.7227L49.1172 92.3594L49.1289 92.3477L49.3398 94.9844L49.3398 95.0195L49.4805 97.6562L49.4922 97.832L49.457 98.0078L49.0938 100.023L48.918 101.031L47.8984 101.23L45.2617 101.734L45.0273 101.781L44.7813 101.746L42.2031 101.395L39.9297 101.289L40 100.023L38.5 100L38.5 98.2188ZM42.4141 98.4062L42.4727 98.4062L42.543 98.418L44.9336 98.7578L46.3164 98.4883L46.4687 97.6094L46.3398 95.1836L46.1406 92.582L45.9531 89.9453L45.9531 89.9219L45.7891 87.2852L45.4961 84.7422L45.4727 84.5547L45.4961 84.3672L45.8242 81.918L45.4258 79.5391L45.4023 79.4102L45.4023 76.8086L45.1328 74.1836L45.1094 74.0547L45.1211 73.9258L45.2734 71.3945L44.8984 68.9687L44.8867 68.9453L44.8867 68.9102L44.5937 66.2734L44.582 66.1328L44.5937 65.9805L44.8164 63.4375L44.6992 61.7852L44.0078 61.4453L43.2227 61.6328L43.1289 63.1211L43.2344 65.6641L43.2344 65.7461L43.1992 68.3828L43.1992 68.5L42.9531 71.1367L42.9414 71.1367L42.8008 73.7266L42.8008 73.7617L42.7891 73.8086L42.4844 76.3398L42.4844 78.9883L42.332 81.625L42.3203 81.625L42.2266 84.1914L42.332 86.7695L42.332 86.9219L42.3086 87.0625L41.8867 89.6641L41.7812 92.125L41.8281 94.7031L41.8281 97.4687L41.8164 97.5625L41.7109 98.3828L42.4141 98.4062Z" fill="black"/>
<path d="M38.6641 58.6953L39.5078 60.3008L39.8828 61.0391L40.7148 61.0977L43.2695 61.2969L43.293 61.3086L43.3164 61.3086L45.9531 61.4258L46.5156 61.4492L46.9609 61.0977L48.8008 59.6211L49.3398 59.1875L49.3516 58.5078L49.4453 55.8828L49.4336 55.8711L49.668 53.3281L49.7969 51.7461L48.2148 51.6992L45.6016 51.6289L45.5898 51.6172L45.5664 51.6172L42.9297 51.6055L42.918 51.6172L40.375 51.4414L39.0625 51.3477L38.8047 52.6484L38.3359 55.0742L38.2891 55.2969L38.3125 55.5195L38.4297 56.5039L37.5039 56.5039L38.6641 58.6953ZM41.5 54.5117L42.8242 54.6055L42.918 54.6055L45.5547 54.6172L46.5391 54.6406L46.4453 55.707L46.4453 55.7891L46.375 57.7109L45.5195 58.3906L43.5039 58.3086L41.7695 58.168L41.5703 57.793L41.5703 57.7812L41.3125 55.4141L41.5 54.5117Z" fill="black"/>
<path d="M22.5 98.2188L22.7109 98.2305L22.8281 97.2813L22.8281 94.75L22.7812 92.1133L22.7812 92.0664L22.793 92.0195L22.9102 89.3828L22.9102 89.2891L22.9219 89.207L23.332 86.6992L23.2383 84.2266L23.2266 84.1797L23.2383 84.1211L23.332 81.4844L23.332 81.4492L23.4844 78.8242L23.4961 78.8359L23.4961 76.1641L23.5078 76.082L23.8125 73.457L23.8242 73.4688L23.9648 70.9023L23.9648 70.8555L24.1992 68.3594L24.1992 68.3477L24.2227 65.7695L24.1289 63.1328L24.1289 63.0508L24.1406 62.9805L24.3164 60.3437L24.3867 59.2539L25.4414 58.9844L27.832 58.3867L28.3711 58.2578L28.8633 58.5039L30.8086 59.4883L31.5703 59.8633L31.6289 60.7187L31.8164 63.3555L31.8281 63.4727L31.8164 63.5898L31.5937 66.0859L31.8516 68.5234L31.8633 68.5117L32.2617 71.1367L32.2969 71.3008L32.2852 71.4648L32.1094 73.9609L32.4023 76.4805L32.4141 76.5625L32.4141 76.6445L32.4023 79.1289L32.8242 81.6602L32.8594 81.8828L32.8359 82.1172L32.4844 84.5664L32.7773 87.0273L32.7773 87.0625L32.7891 87.1094L32.9297 89.7344L32.9414 89.7227L33.1172 92.3594L33.1289 92.3477L33.3398 94.9844L33.3398 95.0195L33.4805 97.6562L33.4922 97.832L33.457 98.0078L33.0938 100.023L32.918 101.031L31.8984 101.23L29.2617 101.734L29.0273 101.781L28.7813 101.746L26.2031 101.395L23.9297 101.289L24 100.023L22.5 100L22.5 98.2188ZM26.4141 98.4062L26.4727 98.4062L26.543 98.418L28.9336 98.7578L30.3164 98.4883L30.4687 97.6094L30.3398 95.1836L30.1406 92.582L29.9531 89.9453L29.9531 89.9219L29.7891 87.2852L29.4961 84.7422L29.4727 84.5547L29.4961 84.3672L29.8242 81.918L29.4258 79.5391L29.4023 79.4102L29.4023 76.8086L29.1328 74.1836L29.1094 74.0547L29.1211 73.9258L29.2734 71.3945L28.8984 68.9687L28.8867 68.9453L28.8867 68.9102L28.5937 66.2734L28.582 66.1328L28.5937 65.9805L28.8164 63.4375L28.6992 61.7852L28.0078 61.4453L27.2227 61.6328L27.1289 63.1211L27.2344 65.6641L27.2344 65.7461L27.1992 68.3828L27.1992 68.5L26.9531 71.1367L26.9414 71.1367L26.8008 73.7266L26.8008 73.7617L26.7891 73.8086L26.4844 76.3398L26.4844 78.9883L26.332 81.625L26.3203 81.625L26.2266 84.1914L26.332 86.7695L26.332 86.9219L26.3086 87.0625L25.8867 89.6641L25.7812 92.125L25.8281 94.7031L25.8281 97.4687L25.8164 97.5625L25.7109 98.3828L26.4141 98.4062Z" fill="black"/>
<path d="M22.6641 58.6953L23.5078 60.3008L23.8828 61.0391L24.7148 61.0977L27.2695 61.2969L27.293 61.3086L27.3164 61.3086L29.9531 61.4258L30.5156 61.4492L30.9609 61.0977L32.8008 59.6211L33.3398 59.1875L33.3516 58.5078L33.4453 55.8828L33.4336 55.8711L33.668 53.3281L33.7969 51.7461L32.2148 51.6992L29.6016 51.6289L29.5898 51.6172L29.5664 51.6172L26.9297 51.6055L26.918 51.6172L24.375 51.4414L23.0625 51.3477L22.8047 52.6484L22.3359 55.0742L22.2891 55.2969L22.3125 55.5195L22.4297 56.5039L21.5039 56.5039L22.6641 58.6953ZM25.5 54.5117L26.8242 54.6055L26.918 54.6055L29.5547 54.6172L30.5391 54.6406L30.4453 55.707L30.4453 55.7891L30.375 57.7109L29.5195 58.3906L27.5039 58.3086L25.7695 58.168L25.5703 57.793L25.5703 57.7812L25.3125 55.4141L25.5 54.5117Z" fill="black"/>
<path d="M70.5 98.2188L70.7109 98.2305L70.8281 97.2813L70.8281 94.75L70.7812 92.1133L70.7812 92.0664L70.793 92.0195L70.9102 89.3828L70.9102 89.2891L70.9219 89.207L71.332 86.6992L71.2383 84.2266L71.2266 84.1797L71.2383 84.1211L71.332 81.4844L71.332 81.4492L71.4844 78.8242L71.4961 78.8359L71.4961 76.1641L71.5078 76.082L71.8125 73.457L71.8242 73.4688L71.9648 70.9023L71.9648 70.8555L72.1992 68.3594L72.1992 68.3477L72.2227 65.7695L72.1289 63.1328L72.1289 63.0508L72.1406 62.9805L72.3164 60.3437L72.3867 59.2539L73.4414 58.9844L75.832 58.3867L76.3711 58.2578L76.8633 58.5039L78.8086 59.4883L79.5703 59.8633L79.6289 60.7187L79.8164 63.3555L79.8281 63.4727L79.8164 63.5898L79.5937 66.0859L79.8516 68.5234L79.8633 68.5117L80.2617 71.1367L80.2969 71.3008L80.2852 71.4648L80.1094 73.9609L80.4023 76.4805L80.4141 76.5625L80.4141 76.6445L80.4023 79.1289L80.8242 81.6602L80.8594 81.8828L80.8359 82.1172L80.4844 84.5664L80.7773 87.0273L80.7773 87.0625L80.7891 87.1094L80.9297 89.7344L80.9414 89.7227L81.1172 92.3594L81.1289 92.3477L81.3398 94.9844L81.3398 95.0195L81.4805 97.6562L81.4922 97.832L81.457 98.0078L81.0938 100.023L80.918 101.031L79.8984 101.23L77.2617 101.734L77.0273 101.781L76.7813 101.746L74.2031 101.395L71.9297 101.289L72 100.023L70.5 100L70.5 98.2188ZM74.4141 98.4062L74.4727 98.4062L74.543 98.418L76.9336 98.7578L78.3164 98.4883L78.4687 97.6094L78.3398 95.1836L78.1406 92.582L77.9531 89.9453L77.9531 89.9219L77.7891 87.2852L77.4961 84.7422L77.4727 84.5547L77.4961 84.3672L77.8242 81.918L77.4258 79.5391L77.4023 79.4102L77.4023 76.8086L77.1328 74.1836L77.1094 74.0547L77.1211 73.9258L77.2734 71.3945L76.8984 68.9687L76.8867 68.9453L76.8867 68.9102L76.5937 66.2734L76.582 66.1328L76.5937 65.9805L76.8164 63.4375L76.6992 61.7852L76.0078 61.4453L75.2227 61.6328L75.1289 63.1211L75.2344 65.6641L75.2344 65.7461L75.1992 68.3828L75.1992 68.5L74.9531 71.1367L74.9414 71.1367L74.8008 73.7266L74.8008 73.7617L74.7891 73.8086L74.4844 76.3398L74.4844 78.9883L74.332 81.625L74.3203 81.625L74.2266 84.1914L74.332 86.7695L74.332 86.9219L74.3086 87.0625L73.8867 89.6641L73.7812 92.125L73.8281 94.7031L73.8281 97.4687L73.8164 97.5625L73.7109 98.3828L74.4141 98.4062Z" fill="black"/>
<path d="M70.6641 58.6953L71.5078 60.3008L71.8828 61.0391L72.7148 61.0977L75.2695 61.2969L75.293 61.3086L75.3164 61.3086L77.9531 61.4258L78.5156 61.4492L78.9609 61.0977L80.8008 59.6211L81.3398 59.1875L81.3516 58.5078L81.4453 55.8828L81.4336 55.8711L81.668 53.3281L81.7969 51.7461L80.2148 51.6992L77.6016 51.6289L77.5898 51.6172L77.5664 51.6172L74.9297 51.6055L74.918 51.6172L72.375 51.4414L71.0625 51.3477L70.8047 52.6484L70.3359 55.0742L70.2891 55.2969L70.3125 55.5195L70.4297 56.5039L69.5039 56.5039L70.6641 58.6953ZM73.5 54.5117L74.8242 54.6055L74.918 54.6055L77.5547 54.6172L78.5391 54.6406L78.4453 55.707L78.4453 55.7891L78.375 57.7109L77.5195 58.3906L75.5039 58.3086L73.7695 58.168L73.5703 57.793L73.5703 57.7812L73.3125 55.4141L73.5 54.5117Z" fill="black"/>
<path d="M86.5 98.2188L86.7109 98.2305L86.8281 97.2813L86.8281 94.75L86.7812 92.1133L86.7812 92.0664L86.793 92.0195L86.9102 89.3828L86.9102 89.2891L86.9219 89.207L87.332 86.6992L87.2383 84.2266L87.2266 84.1797L87.2383 84.1211L87.332 81.4844L87.332 81.4492L87.4844 78.8242L87.4961 78.8359L87.4961 76.1641L87.5078 76.082L87.8125 73.457L87.8242 73.4688L87.9648 70.9023L87.9648 70.8555L88.1992 68.3594L88.1992 68.3477L88.2227 65.7695L88.1289 63.1328L88.1289 63.0508L88.1406 62.9805L88.3164 60.3437L88.3867 59.2539L89.4414 58.9844L91.832 58.3867L92.3711 58.2578L92.8633 58.5039L94.8086 59.4883L95.5703 59.8633L95.6289 60.7187L95.8164 63.3555L95.8281 63.4727L95.8164 63.5898L95.5937 66.0859L95.8516 68.5234L95.8633 68.5117L96.2617 71.1367L96.2969 71.3008L96.2852 71.4648L96.1094 73.9609L96.4023 76.4805L96.4141 76.5625L96.4141 76.6445L96.4023 79.1289L96.8242 81.6602L96.8594 81.8828L96.8359 82.1172L96.4844 84.5664L96.7773 87.0273L96.7773 87.0625L96.7891 87.1094L96.9297 89.7344L96.9414 89.7227L97.1172 92.3594L97.1289 92.3477L97.3398 94.9844L97.3398 95.0195L97.4805 97.6562L97.4922 97.832L97.457 98.0078L97.0938 100.023L96.918 101.031L95.8984 101.23L93.2617 101.734L93.0273 101.781L92.7813 101.746L90.2031 101.395L87.9297 101.289L88 100.023L86.5 100L86.5 98.2188ZM90.4141 98.4062L90.4727 98.4062L90.543 98.418L92.9336 98.7578L94.3164 98.4883L94.4687 97.6094L94.3398 95.1836L94.1406 92.582L93.9531 89.9453L93.9531 89.9219L93.7891 87.2852L93.4961 84.7422L93.4727 84.5547L93.4961 84.3672L93.8242 81.918L93.4258 79.5391L93.4023 79.4102L93.4023 76.8086L93.1328 74.1836L93.1094 74.0547L93.1211 73.9258L93.2734 71.3945L92.8984 68.9687L92.8867 68.9453L92.8867 68.9102L92.5937 66.2734L92.582 66.1328L92.5937 65.9805L92.8164 63.4375L92.6992 61.7852L92.0078 61.4453L91.2227 61.6328L91.1289 63.1211L91.2344 65.6641L91.2344 65.7461L91.1992 68.3828L91.1992 68.5L90.9531 71.1367L90.9414 71.1367L90.8008 73.7266L90.8008 73.7617L90.7891 73.8086L90.4844 76.3398L90.4844 78.9883L90.332 81.625L90.3203 81.625L90.2266 84.1914L90.332 86.7695L90.332 86.9219L90.3086 87.0625L89.8867 89.6641L89.7812 92.125L89.8281 94.7031L89.8281 97.4687L89.8164 97.5625L89.7109 98.3828L90.4141 98.4062Z" fill="black"/>
<path d="M86.6641 58.6953L87.5078 60.3008L87.8828 61.0391L88.7148 61.0977L91.2695 61.2969L91.293 61.3086L91.3164 61.3086L93.9531 61.4258L94.5156 61.4492L94.9609 61.0977L96.8008 59.6211L97.3398 59.1875L97.3516 58.5078L97.4453 55.8828L97.4336 55.8711L97.668 53.3281L97.7969 51.7461L96.2148 51.6992L93.6016 51.6289L93.5898 51.6172L93.5664 51.6172L90.9297 51.6055L90.918 51.6172L88.375 51.4414L87.0625 51.3477L86.8047 52.6484L86.3359 55.0742L86.2891 55.2969L86.3125 55.5195L86.4297 56.5039L85.5039 56.5039L86.6641 58.6953ZM89.5 54.5117L90.8242 54.6055L90.918 54.6055L93.5547 54.6172L94.5391 54.6406L94.4453 55.707L94.4453 55.7891L94.375 57.7109L93.5195 58.3906L91.5039 58.3086L89.7695 58.168L89.5703 57.793L89.5703 57.7812L89.3125 55.4141L89.5 54.5117Z" fill="black"/>
<path d="M87.2812 42.2773L89.7305 42.7344L92.1797 42.582L92.2266 42.5703H92.2617L94.8867 42.5586V42.5469L97.5234 42.4883H97.6875L100.219 42.7109L101.578 42.8164L101.59 44.1992L101.602 46.8359V46.9297L101.59 47.0352L101.262 49.543L101.379 52.1914L101.461 53.9844L99.6797 53.75L97.1016 53.3984L94.6641 53.293L92.2031 53.7148L92.0859 53.7383H91.9688L89.332 53.7617H89.1797L89.0273 53.7266L86.6133 53.2461L84.1875 53.5039L84.0586 53.5156L83.918 53.5039L81.4219 53.293L78.9609 53.6445L78.7617 53.668L78.5625 53.6445L75.9961 53.293L73.6406 53.2695L71.0977 53.7031L70.9805 53.7266H70.8633L68.2266 53.7617H68.1094L68.0039 53.75L65.4727 53.4219L63.0352 53.6211L62.9297 53.6328L62.8359 53.6211L60.2461 53.4688L57.6914 53.5742H57.5742L55.0195 53.457L52.4414 53.6094L52.3359 53.6211L52.2188 53.6094L49.6758 53.3516L47.0391 53.2812H44.4375L41.9297 53.5156L41.918 53.5273H41.9062L39.2578 53.7031L39.1641 53.7148L39.0703 53.7031L36.5625 53.5391L33.9258 53.6328L33.7969 53.6445L33.668 53.6211L31.1602 53.2461L28.7227 53.3984L26.0859 53.6445L25.9688 53.6562L25.8398 53.6445L23.2031 53.4336H23.1797L23.1562 53.4219L20.8242 53.1758L19.5352 53.0352L19.4883 51.7344L19.3828 49.0977V48.9922L19.3945 48.8984L19.6289 46.4258L19.3008 44.2109L19.0547 42.5H21.2109L23.6719 42.6992L26.1797 42.582V42.5703L28.8164 42.3945H28.9102L31.5469 42.3828L31.6406 42.3711L31.7227 42.3828L34.2305 42.6641L36.7148 42.4531L36.7617 42.4414H36.8203L39.4688 42.418H39.4922L42.0469 42.4297L44.6953 42.3125L44.7773 42.3008L44.8594 42.3125L47.5078 42.4883L47.4961 42.5L50.0508 42.5117H50.0977L52.6875 42.6172L55.1836 42.5352L57.832 42.2891H57.9844L60.6211 42.3359L60.6094 42.3477H63.2695L65.8711 42.4062L68.4844 42.3477H68.6133L68.7305 42.3594L71.2148 42.7227L73.7109 42.5586V42.5703L76.2891 42.2891L76.4414 42.2773L76.6055 42.2891L79.0898 42.582L81.6328 42.4297L81.7148 42.418L81.7969 42.4297L84.3281 42.5586L86.8242 42.2656L87.0586 42.2305L87.2812 42.2773ZM84.5391 45.5469L84.4102 45.5586H84.2812L81.7266 45.418L79.1719 45.582H79.043L78.9141 45.5703L76.418 45.2891L73.957 45.5586H73.8867L71.25 45.7109L71.0977 45.7227L70.957 45.6992L68.4141 45.3477L65.9062 45.4062H65.8477L63.2109 45.3477V45.3359H60.5742L57.9492 45.2891L55.4531 45.5117L55.418 45.5234H55.3711L52.7344 45.6172H52.6172L49.9805 45.5117V45.5L47.3906 45.4883H47.3438L47.2969 45.4766L44.7188 45.3008L42.1875 45.4297H42.1055L39.4688 45.418V45.4062L36.9609 45.4297L34.3242 45.6641L34.1836 45.6758L34.0312 45.6641L31.5 45.3828L28.9219 45.3945V45.3828L26.3789 45.5586H26.3672L26.3555 45.5703L23.707 45.6875L23.6133 45.6992L23.5312 45.6875L22.5234 45.6055L22.6172 46.1797L22.6406 46.3672L22.6289 46.543L22.3828 49.1094L22.4297 50.3281L23.4844 50.4453H23.4727L26.0039 50.6328L28.4648 50.4219H28.5117L31.1484 50.2461H31.3008L31.4531 50.2695L33.9141 50.6211L36.4688 50.5508H36.6094L39.1406 50.7031L41.6953 50.5273L44.3086 50.293H44.4375L47.0742 50.2812H47.1211L49.7578 50.3633H49.8633L52.4062 50.6094L54.9141 50.4688L54.9844 50.457L55.0664 50.4688L57.6445 50.5625L60.2227 50.4688H60.3633L62.8828 50.6211L65.4375 50.4219L65.6016 50.4102L65.7539 50.4336L68.2852 50.75L70.6992 50.7266L73.2305 50.293L73.3594 50.2695H73.5L76.1367 50.3047H76.2305L76.3125 50.3164L78.75 50.6328L81.1992 50.3047L81.3633 50.2812L81.5273 50.3047L84 50.4922L86.5312 50.2461L86.7539 50.2227L86.9648 50.2695L89.4844 50.75L91.8398 50.7383L94.3477 50.3164L94.5117 50.293H94.6641L97.3008 50.4102H97.3711L97.4414 50.4219L98.2969 50.5273L98.2617 49.543L98.25 49.4141L98.2734 49.2852L98.5898 46.7422V45.5703L97.5586 45.4883L94.957 45.5469H94.9336L92.3672 45.5586L92.3789 45.5703L89.7422 45.7461L89.5547 45.7578L86.9297 45.2656L84.5391 45.5469Z" fill="black"/>
<path d="M31.6406 45.7227L34.0664 45.2656L36.4688 45.5469L36.5859 45.5586H36.7148L39.2578 45.418L41.8242 45.582H41.9648L42.0938 45.5703L44.5664 45.2891L47.0391 45.5586H47.1094L49.7461 45.7109L49.8984 45.7227L50.0508 45.6992L52.5703 45.3477L55.0898 45.4062H55.1484L57.7969 45.3477L57.7852 45.3359H60.4219L63.0352 45.2891L65.543 45.5117L65.5898 45.5234H65.625L68.2617 45.6172H68.3789L71.0156 45.5117L71.0039 45.5L73.6172 45.4883H73.6641L73.6992 45.4766L76.2656 45.3008L78.8086 45.4297H78.8906L81.5273 45.418L81.5156 45.4062L84.0352 45.4297V45.4414L86.6719 45.6641L86.8125 45.6758L86.9648 45.6641L89.4844 45.3828L92.0742 45.3945V45.3828L94.6172 45.5586H94.6289L94.6523 45.5703L97.2891 45.6875L97.3828 45.6992L97.4766 45.6875L100.02 45.5H100.84L101.285 44.7734L101.355 44.668L102.211 43.25L100.711 42.5352L98.5312 41.4922L96.4453 40.1094L96.4336 40.0977L94.2188 38.6562L94.1484 38.6094L94.0781 38.5742L91.8164 37.4492L89.7891 35.9492L89.7773 35.9375L89.7539 35.9258L87.5859 34.4141L87.457 34.3203L87.3164 34.2617L84.9609 33.2656L82.8867 31.9062L82.8281 31.8594L82.7578 31.8359L80.4727 30.6289L78.4453 29.1992L76.3242 27.6172L76.207 27.5469L73.957 26.1641L73.9336 26.1523H73.9219L71.625 24.8398L71.5312 24.793L69.2812 23.7266L67.1602 22.25L67.043 22.1797L64.8281 20.9609L62.625 19.5078L62.2617 19.2617L61.8398 19.25L59.625 19.2031L59.25 19.1914L58.9102 19.3672L56.5547 20.5508L56.4141 20.6211L56.2852 20.7266L54.3281 22.2969L52.1602 23.5742L49.8281 24.4883L49.7109 24.5352L49.5938 24.6055L47.3555 26L47.2734 26.0469L47.2031 26.1055L45.293 27.6523L43.0312 28.6367L42.8789 28.707L42.75 28.8008L40.6758 30.3008L38.4375 31.3555L38.2383 31.4492L38.0742 31.6016L36.1992 33.3125L34.1719 34.5312L31.793 35.4688L31.6406 35.5273L31.5117 35.6211L29.3203 37.0859L29.2617 37.1211L29.2031 37.168L27.3281 38.6914L25.0312 39.5469L24.8086 39.6289L24.6211 39.7812L22.6172 41.3867L20.4375 42.6875L15.8789 45.4297L21.2109 45.4766H23.4023L26.0508 45.5469H26.0625L28.6172 45.5586L31.2656 45.7461L31.4531 45.7578L31.6406 45.7227ZM28.8164 42.582L28.7812 42.5703H28.7344L26.0977 42.5586L26.1094 42.5469H25.9453L26.2969 42.2773L28.6055 41.4102L28.8281 41.3281L29.0156 41.1758L30.9844 39.582L33.0469 38.2109L35.3906 37.2734L35.4961 37.2266L35.6016 37.168L37.8633 35.8086L38.0039 35.7266L38.1094 35.6328L39.9375 33.9688L42.1289 32.9258L42.2461 32.8672L42.3633 32.7852L44.3555 31.332L46.6641 30.3242L46.8516 30.2422L47.0039 30.1133L48.9727 28.5312L51.0586 27.2305L53.4258 26.293L53.5312 26.2461L53.6367 26.1875L55.9102 24.8516L56.0039 24.793L56.0859 24.7344L58.0664 23.1523L59.918 22.2148L61.3242 22.25L63.1758 23.457L63.2227 23.4922L63.2812 23.5273L65.5664 24.793L67.6406 26.2227L67.7344 26.293L67.8398 26.3398L70.1484 27.4648L72.4336 28.7539L74.5898 30.0664L76.6758 31.6016L76.6992 31.625L78.8555 33.1484L78.9375 33.207L79.0195 33.2539L81.3047 34.4609L83.4492 35.8555L83.5664 35.9375L83.6836 35.9844L86.0039 36.9805L88.043 38.3867L90.1523 39.9336L90.2461 40.0039L90.3633 40.0625L92.6602 41.2344L94.7227 42.5703L92.1797 42.3945H92.0859L89.4492 42.3828L89.3555 42.3711L89.2734 42.3828L86.7539 42.6641L84.293 42.4531L84.2344 42.4414H84.1758L81.5391 42.418H81.5156L78.9375 42.4297L76.3125 42.3125L76.2188 42.3008L76.1367 42.3125L73.5 42.4883V42.5L70.9453 42.5117H70.8984L68.3086 42.6172L65.8008 42.5352L63.1758 42.2891H63.0117L60.375 42.3359V42.3477H57.7266L55.1133 42.4062L52.5117 42.3477H52.3945L52.2773 42.3594L49.7695 42.7227L47.2852 42.5586L47.2734 42.5703L44.7188 42.2891L44.5547 42.2773L44.3906 42.2891L41.9062 42.582L39.375 42.4297L39.2812 42.418L39.1992 42.4297L36.6562 42.5586L34.1719 42.2656L33.9492 42.2305L33.7266 42.2773L31.2656 42.7344L28.8164 42.582Z" fill="black"/>
</svg>
