<svg xmlns="http://www.w3.org/2000/svg" width="120" height="120" fill="none" viewBox="0 0 120 120"><path fill="currentColor" d="M82.18 8H85v.21l-.2 2.46.12 2.51h.01l.18 2.64v1.14l1.27.5.39.15.25.34 1.52 2.02.25.35.04.42.22 2.62.02.28-.08.28-.76 2.53v.03l-.01.03-.72 2.06.53 1.73 1.35 1.42 2.12 1.13h.01l2.33 1.29.25.13.18.2L96 36.5l.54.62-.25.8-.72 2.34-.21.68-.66.27-2.41.98-.12.04-.13.04-.25.05.97 1.31.04.05.02.05.49.78 1.54-.04-.19 1.7-.05.42.85 1.35-1.02.13-.06.59.01 2.53.18 2.64v.13l.25-.3.88 2.4.92 2.48.88 2.5.9 2.47.03.08.02.07.64 2.58.72 2.33.96 2.46.02.02v.03l.85 2.41.01-.01 1.03 2.44.04.08.02.08.72 2.46.72 2.03.37.01-.04.95.38 1.04-.42.11-.1 2.07.11 2.52.22 2.57.02.08v.07l-.05 2.65-.01 2.62v.03l-.06 2.63.05 2.58v.12l-.02.12-.35 2.48.15 2.44.27 2.63.03.17-.03.16-.29 2.55.16 2.47v.18l-.02.44h1.27l.15.02 2.44.48 2.4-.25.08-.01h.08l1.05.01-.02 1.5-.02 1.5-1-.01-2.5.26-.23.02-.22-.04-2.46-.49-2.42.01-.15.03v.22h-1.25l-1.1.19-.15.02-.17-.01-2.63-.1h-.08l-.07-.02-2.4-.34-2.39.47-.23.05-.24-.03-2.55-.32H87.2l-2.6.08-2.64.06h-.05l-1.73.16H80l-2.23-.03-1.04.07h-.19l-.55-.1h-2.23l-.15-.35-2.08.25h-.26l-1.08-.05-.15.01-.13-.01-.65-.05-.54-.03-2.56.16h-.13l-.13-.01-.24-.03-.7.1-.2.02-.2-.02-1.94-.27-1.67.19h-.07l-2.64.15-.15.01-.14-.02-.48-.07-.39.07-.12.02h-.1l-2.65.05h-.1l-.11-.01-2.1-.29-.46.04-.03.01h-.05l-2.09.08-.24.02h-.42l-2.64-.1v-.02h-.53l-1.75.07h-.12l-1.16-.05h-.05l-2.64.1h-.11l-.7-.03-.47.03h-.12l-.1-.02-.84-.07-.41-.02v-.01l-2.59-.01h-.05l-.04-.01-2.58-.18-2.53.13h-.25l-1 .1h-.04l-2.64.17-.1.01-.09-.01-2.5-.15-1.25.11-.14.02-.15-.02-.5-.05-.6.02-.13.01-.14-.02-1.58-.24-2.16.02v-.02l-2.54.18h-.01l-.01.01-2.65.12h-.18L8 117.5l.01-.22v-2.78h.21l2.46.2 2.51-.12v-.01l2.46-.16-.05-.68-.23-2.64-.01-.13v-.12l.22-2.63-.08-2.48-.1-2.63v-.2l.25-2.64.01-.15.05-.14.7-2.34.14-.5.41-.29 2.09-1.51 1.24-1.14.13-2.04-.1-2.5v-.15l.02-.15.4-2.44-.2-2.46v-.08l-.07-2.65v-.24l.37-2.63v-.02l.37-2.46-.04-2.56-.01-.1.01-.1.3-2.62-.04-2.46v-.12l.02-.13.08-.51.2-1.27h1.5l2.45.2 2.51-.12v-.01l2.64-.18h2.73l.1-.02.07.01 2.51.28 2.48-.2.05-.02h.06l2.65-.02h.02l2.56.01 2.65-.12h.16l2.65.18-.01.01 2.55.01h.05l2.59.1 2.5-.07 2.64-.25h.15l2.64.05h-.01 2.66l2.6.07 2.61-.06h.25l1.7.25-.14-2.55-.01-.14.02-.16.35-2.53-.06-2.5v-.08l.06-2.63.01-2.62v-.02l.05-2.64-.22-2.48-.03-.25.06-.23.54-2.24.3-1.2.3.02 1.23-1.99-1.95-.96-.3-.14-.2-.24-1.53-1.84-.63-.77.45-.87 1.18-2.31.22-.44.42-.22 2.37-1.22 2.19-1.32 1.56-1.15.47-1.82.11-2.19-.83-2.14-.07-.18-.02-.18L78 21.8l-.05-.41.15-.38 1.02-2.38.2-.44.39-.25 2.23-1.4.18-.1v-.52l-.17-2.54v-.01l-.01-.01-.12-2.65v-.18L82 8zm13.54 75.62h-.18l-2.63-.01h-.1l-2.63-.18h-.22l-2.64.23-.14.02-.15-.02-.96-.1-.12.35-1.4-.48-.04-.01v-.04h-.01l-2.58.01-2.54.17h-.01l-.01.01-2.02.09.01.03h.01l1.53 2.08 1.78 1.75.1.1.07.11 1.46 2.1 1.64 2.07.04.07 1.5 2.11 1.6 1.87.01.02.02.01.06.08-.75.59.5.51.36.38.04.53.23 2.65v.1l.03 2.65v.02l-.01 2.64.12 2.56v.17l-.18 2.65-.02 2.54v.26l-.04.1h2.58l2.4.32 2.4-.46.25-.05.24.03 2.57.36 2.38.1 1.25-.21.04-.79-.14-2.54-.01-.13.01-.13.28-2.48-.26-2.48v-.06l-.16-2.64v-.14l.01-.16.34-2.47-.03-2.57v-.07l.06-2.63v-2.64l.06-2.47-.24-2.65v-.07l-.1-2.65v-.12l.04-1.11h-.15l-.05.01-.25.06-.25-.02-2.49-.21zm-13.8 14.77-2.54.17h-.01l-.01.01-2.65.12h-.18l-.94-.07v.41l-.09.58.08 1.22v.13l-.01.13-.14 1.2.3 1.55.05.24-.03.24-.21 1.55.02.18v.06l.15 2.64.01.14-.02.16-.2 1.44.22 1.3.01.12v.12l.03 2.52.55.1 1.1.02h.27l1.5-.09.05-.01h.03l2.4-.01.88-.08h.08l1.63-.07.24-.64.02-2.38v-.05l.01-.04.17-2.58-.12-2.53v-.08l.01-2.64-.02-2.5-.19-2.12-.44-.47zm-55.54-5.33-.01.01-2.65.12h-.18l-.18-.02-.1 1.8-.04.6-.44.41L21 97.61l-.07.07-.07.05-1.74 1.24-.51 1.69-.23 2.45.1 2.52.08 2.65.01.08-.01.08-.21 2.5.23 2.53v.02l.06.88.08.01 1.98.22 1.77-.05h.14l1.1-.1h.11l2.65-.03h2.34l1.5-.13h2.82l2.63.07h.05l.06.01 1.76.16 1.2.05.8-.04-.06-1.35v-.08l.01-2.64h.01l-.03-2.5-.22-2.65-.02-.14.02-.15.28-2.53-.01-2.58-.17-2.54v-.01l-.01-.01-.12-2.65v-.18l.12-1.61-2.47.02-2.64.22-.14.02-.15-.02-2.53-.27h-2.58zm33.38.76-1.26-.11-.07 1.55.15 2.56.01.14-.01.13-.3 2.48.27 2.47v.07l.17 2.64v.15l-.01.15-.35 2.46.04 2.58v.06l-.06 2.65v.14l-.07.52.95-.16.14-.02h.13l2.65.02h.08l.1.01.34.05.63-.07.15-.01h.17l1.97.24 1.62-.2.16-.03.16.01 2.36.18.23.02 2.04-.21.26-.18-.06-2.6v-.24l.11-.73-.15-.9-.02-.14.01-.17.1-2.64v-.06l.02-.07.1-.75-.23-2.1-.01-.16v-.16l.13-1-.12-.63-.05-.23.03-.24.22-1.84-.06-1.08-.01-.1.01-.07.07-1.3.07-1.18-.06-2.11v-.47l-1.26.07-.15.01-.14-.02-2.55-.34-2.5.05h-.06l-2.64-.06-2.62-.01h-.02l-1.46-.02zM42.4 93.4l-.1 1.27.13 2.51.18 2.64v2.73l.02.1-.01.07-.28 2.51.2 2.48.02.05v.06l.02 2.65v.02l-.01 2.64.06 1.27.51.04 1.56-.14.01-.78-.22-2.49-.01-.03v-.04l-.1-2.65v-.12l.1-2.63.04-2.6v-.2l.06-.2.73-2.5.05-.14.07-.14 1.2-2.28.39-.75.84-.05 1.96-.13.88-.06.48.75 1.4 2.2.1.16.06.17.83 2.52.1.3-.03.32-.26 2.5.01 2.65.17 2.54v.01l.01.02.12 2.64v.18l-.06.84.2-.02h.15l1.28.01.08-.63.06-2.52-.04-2.64-.02-.12.03-.11.34-2.51-.14-2.41-.27-2.64-.03-.16.03-.17.28-2.57-.15-2.44v-.18l.07-1.76-1.27-.1-2.5.28h-.19l-2.63-.01h-.1l-2.63-.18v-.01l-2.5-.12zm6.5 6.24-.74 1.42-.64 2.16-.03 2.42v.04l-.1 2.53.09 2.55.23 2.65v.15l-.01.79h2.92l.08-1.02-.13-2.51-.18-2.64v-2.73l-.02-.08.01-.08.25-2.33-.67-2.03-.83-1.31zm-16.3-2.79 2.35.28.78.08.38.7.32.63 1.12-.82-.05 3.06-.01.7.02 2.52.18 2.64.02.23-.06.23-.57 2.33-.28 1.13-1.17.01-2.64.02h-.27l-.26-.1-2.04-.75-1.06-.38.09-1.15.21-2.51-.27-2.47-.01-.1v-.1l.03-2.64v-.48l.29-.39 1.52-2.07.51-.7zm30 0 2.35.28.78.08.38.7.32.63 1.12-.82-.05 3.06-.01.7.02 2.52.18 2.64.02.23-.06.23-.57 2.33-.28 1.13-1.17.01-2.64.02h-.27l-.26-.1-2.04-.75-1.06-.38.09-1.15.21-2.51-.27-2.47-.01-.1v-.1l.03-2.64v-.48l.29-.39 1.52-2.07.51-.7zm-30.19 4.05-.02 2.1.27 2.53.01.15-.01.15-.12 1.49.7.25h1.2l.25-.98-.17-2.4v-.07l-.03-2.64v-.19l-.67-1.27-.7-.1zm30 0-.02 2.1.27 2.53.01.15-.01.15-.12 1.49.7.25h1.2l.25-.98-.17-2.4v-.07l-.03-2.64v-.19l-.67-1.27-.7-.1zm30.2-12.05 2.34.28.78.08.38.7.32.63 1.12-.82-.05 3.06-.01.7.02 2.52.18 2.64.02.23-.06.24-.57 2.32-.28 1.13-1.17.01-2.64.02h-.27l-.26-.1-2.04-.75-1.06-.38.09-1.15.21-2.51-.27-2.47-.01-.1v-.1l.03-2.64v-.48l.29-.39 1.52-2.07.51-.7zm-.2 4.04L92.4 95l.27 2.54.01.14-.01.15-.12 1.49.7.25h1.2l.25-.98-.17-2.4v-.07l-.03-2.64v-.19l-.67-1.27-.7-.1zm-17-4.71.02.05v.03l.02 2.63.06 2.63.06 2.08 1.1.09 2.51-.12 2.64-.18h.89l-1.13-1.62-1.64-2.08-.03-.03-.03-.04-1.43-2.06-1.79-1.77-.08-.08-.07-.1-1.24-1.7zm-14.49-1.29-2.54.17h-.01l-.01.01-2.65.12h-.18l-.38-.03 1.53 1.9.06.07.05.07.41.65.63-.06h.15l2.64.05h-.01 2.66l2.6.07 2.61-.06h.25l2.48.37 1.24-.08-.02-1.76-.1-1.46-.86-.01-2.5.02-2.65.23-.14.02-.15-.02-2.53-.28zm-33.54.17h-.01l-.01.01-2.65.12h-.18l-.78-.06-.01.09-.44 2.47.02.48.35.03 2.51-.12v-.01l2.64-.18h2.73l.1-.02.07.01 2.51.28 2.48-.2.05-.02h.06l2.65-.02h1.06l.41-.52.01.01 1.6-2.1.1-.11.26-.27-2.44-.01-2.5.02-2.65.22-.14.02-.15-.02-2.53-.27h-2.58zM48.5 85.2l-.03.05-.05.05-1.72 2-.03.02-.02.04-1.77 1.84-.48.63.29-.02h.16l2.65.18-.01.01 2.55.01h.05l2.59.1.96-.03-.95-1.17-.05-.07-1.51-2.07-1.7-1.85-.41-.42zm8.94-15.69-.03.01h-.05l-2.64.1h-.11l-2.64-.1v-.02l-2.59-.01h-.05l-.04-.01-2.58-.18-2.53.13h-.08l-2.64-.01v-.01l-2.5.02-2.65.23-.14.02-.15-.02-2.53-.28-2.58.01-2.54.17h-.01l-.01.01-2.65.12h-.18l-1.1-.08.03 1.53v.19l-.31 2.62.06 2.45v.13l-.01.13-.4 2.61-.34 2.49.06 2.35 1.15.09 2.51-.12v-.01l2.64-.18h2.73l.1-.02.07.01 2.51.28 2.48-.2.05-.02h.06l2.65-.02h.02l2.56.01 2.65-.12h.07l.32-.36v-.02l1.57-2.13 1.04-1.42 1.23 1.26 1.65 1.68.03.02v.02l1.39 1.5V84h.21l2.46.2 2.51-.12v-.01l2.64-.18h2.73l.1-.02.07.01 2.51.28 2.48-.2.05-.02h.06l2.65-.02h1.07l.18-.99-.27-2.4v-.25l.13-2.57-.16-2.54v-.13l.01-.13.27-2.5-.24-2.2-.3-.63-1.75-.23-2.5.06h-.06l-2.64-.06v-.01h-2.64l-2.62-.05zm20.07-21.05v.02l-2 .17.2 1.98v.15l-.06 2.65v2.65l-.07 2.63.06 2.58v.24L75.27 64l.15 2.45.26 1.24.35 1.8h-.62l.01.14.28 2.65.01.15v.17l-.3 2.48.15 2.54.01.08-.01.09-.13 2.53.03.27 1.2.1 2.51-.12v-.01l2.64-.18h2.21l.2-.53v-.04l.03-.03.95-2.24.36-2.49.04-.23.1-.2 1.1-2.32.7-2.38.02-.08.04-.08.96-2.3.56-2.49.03-.16.08-.15 1.09-2.32v-.01l.93-2.28.32-1.6.14-1.95-.11-2.5-.18-2.63v-.1l-.01-2.63v-.08l.01-.09-.59.08-.07.01h-.07l-2.63.12h-.18l-2.64-.18v-.01l-2.55-.01h-.05l-2.59-.1zm16.63 12.3-.02.13-.06.15-1 2.44-.02.03-.02.03-1.06 2.25-.54 2.44-.03.13-.05.12-1 2.43-.7 2.4-.03.11-.05.12-1.05 2.17-.37 2.45-.02.18-.08.18-.76 1.82.24-.03h.18l2.65.12 2.1-.01h.03l2.56.01 2.65-.12h.16l.25.02h.21l.35.04 1.84.12-.01.01h.36l.1-.02-.33-.95-.02-.07-.73-2.45-1-2.37-.02-.03v-.05l-.9-2.49-.95-2.41-.01-.06-.02-.06-.78-2.52v-.07l-.64-2.5-.88-2.4v-.02l-.5-1.4zm-11.55-8.9 2.35.27.78.08.38.7.32.63 1.12-.82-.05 3.06-.01.7.02 2.52.18 2.64.02.23-.06.24-.57 2.32-.28 1.13-1.17.01-2.64.02h-.27l-.26-.1-2.04-.75-1.06-.38.09-1.15.21-2.51-.27-2.47-.01-.1v-.1l.03-2.64v-.48l.29-.39 1.52-2.07.51-.7zm-.19 4.03V58l.27 2.54.01.14-.01.15-.12 1.49.7.25h1.2l.25-.98-.17-2.4v-.07l-.03-2.64v-.19l-.67-1.27-.7-.1zm-4.93-12.02-.38.61h.12v.02l2.6.01h.04l.05.01 2.55.18 2.56-.13h.07l2.64.01v.01l2.01-.01-.87-1.19-.5-.42-1.6.26-.11.02h-.12l-2.65.02h-.03l-2.65-.05h-.1l-2.63-.2-.02-.01h-.04l-.36-.05zm6.94-14.81h-.1l-1.6.13h-.16l-.15-.01-.26-.04-.01.24-.02.15-.03.14-.64 2.49-.15.51-.43.32-2.1 1.55-.07.03-.04.04-2.28 1.35-.03.03-.05.02-1.94 1.01-.5.98.68.85 1.85.9.16.02.56-.87 1.02.64 2.2.16 2.5-.12v-.01l2.64-.18h2.73l.55-.02.44.36.05.04 2.06-.43 1.6-.66.28-.86-1.01-1.18-2.1-1.16-2.3-1.21-.22-.11-.17-.19-1.77-1.86-.25-.26-.1-.34-.74-2.47zm-2.73-8.83L81 21.82l.27 1.98.9 2.3v.04l.44.06 1.4-.12.66-.15.6-.14.1-.25.65-2.22-.16-1.9-1-1.35-1.8-.71z"/></svg>