<svg width="120" height="120" viewBox="0 0 120 120" fill="none" xmlns="http://www.w3.org/2000/svg">
<path d="M35.5703 9.58203L38.1836 9.80469L38.4414 9.82812L38.6758 9.93359L41.0664 11.0234L41.1016 11.0352L41.125 11.0586L43.4805 12.2539L43.6094 12.3242L43.7383 12.418L45.707 13.9883L47.7695 15.0898L50.207 15.8164L50.3008 15.8398L50.3828 15.875L52.7969 16.918L52.832 16.9297L52.8672 16.9531L55 18.0195L57.4141 18.3359L57.5078 18.3477L57.6133 18.3828L59.9453 19.0156H62.5586L62.7109 19.0391L65.125 19.543L67.3633 19.332L69.707 18.5L69.7891 18.4648L69.8711 18.4414L72.4258 17.8438H72.4375L74.7227 17.3164L76.6562 15.9102L76.8086 15.8047L76.9727 15.7344L79.4219 14.7148L81.7656 13.6836L81.9414 13.6016L82.1289 13.5664L84.7188 13.1445L84.8711 13.1094L85.0234 13.1211L87.6602 13.2383H87.8008L87.9414 13.2734L90.5195 13.8594L90.6133 13.8828L90.707 13.918L93.2148 14.8672L93.6133 15.0078L93.8828 15.3477L95.5 17.4453L95.6992 17.7148L95.7695 18.043L96.2852 20.4336L96.4609 21.2539L95.8633 21.8281L94.1758 23.457L93.2852 25.2969L92.5898 26.8164L92.5684 26.8828L92.5449 26.9414L91.6543 29.2148L91.0449 31.6758L91.0332 31.6641L90.4824 34.2305L90.4707 34.2773L90.459 34.3125L89.7441 36.8555L89.6973 37.0195L88.748 39.3516L88.3027 41.8008L88.2793 41.8945L87.6113 44.4492V44.4609L87.5996 44.4727L86.9082 46.9336L86.3574 49.5234L86.3105 49.6875L85.4551 52.1953L84.7871 54.6562L84.7754 54.668V54.6914L84.0254 57.1055L83.4512 59.6836L83.0293 62.2266L83.0176 62.2969L82.9941 62.3789L82.291 64.9219L81.6113 67.4531V67.4766L80.8965 69.9492L80.2988 72.5273L80.2637 72.6445L80.2168 72.7617L79.2676 75.0469L78.7754 77.4609L78.3887 80.0859L78.3652 80.25L78.3066 80.4023L77.3809 82.7695L76.9004 85.2305L76.8535 85.3945L76.0801 87.7734L75.7051 90.3047L75.6699 90.5391L75.5762 90.75L74.4863 92.9531L73.9707 95.4023L73.9473 95.4961L73.2324 98.0273L73.127 98.4258L72.8223 98.707L71.0059 100.43L70.6191 100.805L70.0918 100.84L67.5254 101.039L65.3574 101.367L63.6582 102.504L62.1348 104.449L61.9238 104.707L61.6309 104.859L59.252 106.066H59.2402L56.9199 107.203L54.7402 108.586L54.5527 108.703L54.3535 108.762L51.7754 109.477L51.5059 109.547L51.2363 109.523L48.5527 109.277V109.266L46.0449 109.219L45.6816 109.207L45.3535 109.031L43.0801 107.777L42.752 107.602L42.5527 107.285L41.2168 105.246L39.8457 103.172L42.3184 102.938L44.8496 102.691H44.8613L47.1113 102.492L48.5117 101.422L47.125 100.528L46.9141 100.388L46.7617 100.177L45.2031 98.1494L43.3867 96.4385L41.3477 94.9619L41.207 94.8564L41.0898 94.7158L39.3789 92.6885L39.3203 92.6182L39.2734 92.5361L37.9375 90.4854L36.0742 88.8682L35.8633 88.6924L35.7344 88.458L34.5156 86.2432L33.0391 84.0635L33.0273 84.0518V84.04L31.5742 81.8369L31.5625 81.8018L31.5391 81.7666L30.2148 79.4814L30.168 79.4111L28.9727 77.0557L27.7656 74.7002L27.6602 74.501L27.6133 74.2783L27.1914 71.8291L26.1719 69.5674L26.1016 69.415L26.0664 69.251L25.5391 66.6729V66.6611L24.8711 64.2002L24.8359 64.0479L24.8242 63.8838L24.707 61.3643L24.1445 58.9033L24.1211 58.833L24.1094 58.751L23.8047 56.1143L23.7812 55.9268L23.8047 55.7393L24.168 53.1494L24.2383 50.6182L24.25 50.5479V50.4775L24.5781 47.8643V47.8408L24.5898 47.8174L24.9883 45.2158L25 45.1807V45.1455L25.5391 42.5674L25.8906 40.0479L25.9023 39.9775L25.9141 39.9189L26.5 37.3408L26.5117 37.2588L26.5352 37.1885L27.4023 34.6807L28.2461 32.1846L28.2695 32.1143L29.207 29.7119L29.502 28.7012L28.7852 28.1328L26.6172 26.7031L26.3828 26.5508L26.2188 26.3164L24.7188 24.207L24.6133 24.043L24.543 23.8555L23.6406 21.4414L23.5352 21.1602L23.5469 20.8672L23.6406 18.1953L23.6641 17.8789L23.8047 17.5859L25 15.1719L25.1055 14.9844L25.2578 14.8203L27.0859 12.8633L27.2383 12.7109L27.4258 12.5938L29.7109 11.2578L29.7578 11.2344L29.793 11.2109L32.1484 10.0391L32.3828 9.92188L32.6406 9.88672L35.2539 9.58203L35.4062 9.57031L35.5703 9.58203ZM83.8262 28.0078L83.791 28.125L83.7324 28.2305L82.502 30.5742L82.5137 30.5859L81.377 32.8242L80.6387 35.25L79.8535 37.7812L79.7949 37.9805L79.6895 38.1445L78.3301 40.3125L77.4863 42.6211L77.4629 42.6914L77.4395 42.75L76.3379 45.0352L75.5293 47.4609L75.459 47.625L74.3926 49.8984L73.748 52.3477L73.7012 52.5117L73.6191 52.6641L72.4473 54.8906L71.5684 57.3047L71.5566 57.3164L70.6309 59.8008L70.6074 59.8711L70.5723 59.9414L69.4004 62.25L68.6738 64.6172V64.6289L68.6621 64.6523L67.8184 67.1602L67.7715 67.3008L67.6895 67.4414L66.3887 69.6211L65.5215 71.9648L65.498 72.0352L65.4746 72.0938L64.373 74.3555L63.5527 76.7812L62.7793 79.3242L62.7559 79.3945L62.7324 79.4531L61.7363 81.8906L61.7246 81.9141L61.7129 81.9258L60.6465 84.3398L60.623 84.375L60.5996 84.4219L59.416 86.6602L58.584 89.0625L58.5605 89.1328L58.5254 89.2031L57.4707 91.4883L56.5332 93.9961L56.5098 94.0664L56.4746 94.125L55.3496 96.3867L54.5293 98.8242L54.4473 99.0703L54.2949 99.2695L52.666 101.332L52.6426 101.367L52.6074 101.391L50.9199 103.324L50.8262 103.441L50.709 103.523L48.5879 105.141L48.248 105.41L47.8145 105.445L45.4238 105.645L46.4785 106.219L48.7285 106.289H48.834L51.248 106.512L53.3223 105.926L55.4199 104.613L55.4785 104.578L55.5488 104.543L57.8926 103.383L59.9668 102.34L61.4434 100.488L61.584 100.301L61.7832 100.172L63.9512 98.707L64.2324 98.5195L64.5605 98.4609L67.1152 98.0742L67.2324 98.0508L69.3301 97.8867L70.4551 96.8203L71.0527 94.6875L71.5801 92.1797L71.6152 92.0039L71.6973 91.8398L72.7637 89.6367L73.127 87.2344L73.1504 87.1172L73.1855 87L73.9941 84.4805L74.4746 82.043L74.498 81.9258L74.5449 81.7969L75.4473 79.4648L75.8223 77.0156V76.9805L75.834 76.957L76.3496 74.3555L76.373 74.2148L76.4316 74.0742L77.4043 71.707L77.9902 69.2695V69.2344L78.002 69.2109L78.7168 66.668L79.3965 64.1367V64.1133L80.0645 61.6523L80.5098 59.1094L80.5215 59.0742V59.0391L81.0957 56.4609L81.1074 56.4023L81.1309 56.3438L81.9043 53.8125L82.584 51.3047L82.5957 51.2695L82.6191 51.2227L83.4629 48.7148L83.9902 46.3008V46.2539L84.002 46.2188L84.7168 43.6758L85.373 41.1445L85.8301 38.6367L85.8652 38.4961L85.9238 38.3555L86.9082 35.8945L87.5762 33.5039L88.1152 30.9961L88.127 30.9844V30.9609L88.7598 28.3945L88.7832 28.3008L88.8301 28.207L88.9561 27.8818L88.1406 27.7344L87.9766 27.6992L87.8242 27.6406L85.4336 26.6445L84.3799 26.3232L83.8262 28.0078ZM39.2266 25.5986L39.1914 25.6807L39.1445 25.7393L37.7148 27.9072L37.4102 28.3643L36.8594 28.5166L34.3164 29.2197L34.1055 29.2783L33.8828 29.2666L32.4766 29.2314L32.0898 30.6143L32.043 30.7549L31.082 33.1455L30.2383 35.6533V35.665L29.3828 38.1611L28.832 40.5869L28.4922 43.083V43.1299L28.4805 43.1768L27.9414 45.7549L27.5547 48.2861L27.543 48.2744L27.2266 50.7705L27.1562 53.3486V53.4189L27.1445 53.501L26.8047 55.9385L27.0977 58.3994L27.6484 60.8252L27.6836 60.9541V61.083L27.8125 63.5674L28.457 65.9814L28.4688 66.0166L28.4805 66.0635L28.9727 68.501L29.9922 70.751L30.0742 70.9268L30.1094 71.1143L30.5195 73.5166L31.6445 75.6846V75.6963L32.8047 77.9814L34.0938 80.1963L35.5234 82.376L37 84.5557L37.0703 84.6729L38.207 86.7471L40.0586 88.3525L40.2227 88.4932L40.3398 88.6807L41.7461 90.8369L43.2695 92.6416L45.2852 94.1064L45.3555 94.165L45.4258 94.2354L47.3359 96.04L47.4297 96.1221L47.5 96.2158L48.9883 98.1494L50.5508 99.1729L51.7637 97.6172L52.5488 95.3555L52.584 95.2617L52.6191 95.1797L53.7324 92.8945L54.6582 90.4453L54.6699 90.3867L54.6934 90.3398L55.748 88.0547L56.4775 85.9717L56.4141 85.793L55.5234 83.332L55.4648 83.1562L55.4414 82.9805L55.1719 80.4844L54.375 78.1406L54.3633 78.1055V78.0703L53.625 75.5273L53.5898 75.3867L53.5781 75.2344L53.3555 72.7148L52.7695 70.2539L52.7578 70.2188L52.7461 70.1953L52.2305 67.6055V67.5938L51.6797 65.0508V65.0391L51.668 65.0273L51.1758 62.6016L50.3789 60.0703L50.3555 60L49.6758 57.4453L49.6523 57.3281L49.1836 54.7266V54.7148L48.6445 52.1953L48.6211 52.1016L48.2344 49.582L47.5664 47.1094L47.543 47.0391L46.9805 44.4492V44.4375L46.4062 42.0117L45.6094 39.4922L45.5742 39.3516L45.5508 39.1992L45.2578 36.5625H45.2461L44.7188 34.2539L43.9805 31.7109L43.9688 31.6992V31.6875L43.2656 29.1328L43.207 28.9219L43.2188 28.6992L43.2666 26.6123L42.1914 26.0586L42.1094 26.0117L42.0391 25.9648L39.8477 24.4766L39.8184 24.459L39.2266 25.5986ZM38.8594 31.5977L39.2324 31.7412L39.916 31.7578L39.9062 32.0059L40.7695 32.3477L40.7344 32.4414L40.6875 32.5703L40.6055 32.6875L40.2607 33.2344L40.8184 34.5469L40.8887 34.7227L40.9238 34.9219L41.2988 37.5117L41.6855 40.0078L42.4355 42.457L42.4473 42.4688V42.4922L43.1621 45.0352L43.1738 45.0703L43.1855 45.1172L43.7363 47.5664L44.5215 50.0977L44.5801 50.2734V50.4727L44.6973 52.8984L45.623 55.125L45.6699 55.2539L45.7051 55.3945L46.2324 57.9141L46.9941 60.3633L47.0293 60.5039L47.0527 60.6562L47.2988 63.1523L48.0137 65.5781V65.6016L48.0254 65.6367L48.623 68.0156L49.5957 70.4883L49.666 70.6758L49.6895 70.875L49.9473 73.3828L50.6621 75.8086L50.6738 75.832L51.3652 78.3633L52.291 80.6953L52.373 80.8828L52.3965 81.0938L52.6191 83.5195L53.6035 85.7461L53.7207 85.9922L53.7324 86.25L53.8965 88.7695L52.959 88.8281L52.4316 88.957L52.2168 89.0098L52.1719 89.9805L51.3281 89.9336L50.8594 89.9102L50.4844 89.6289L48.3867 88.0117L46.2891 86.4062L46.1484 86.3008L46.043 86.1602L44.4492 84.1914L42.5742 82.4805L42.457 82.3633L40.6992 80.3711L40.5703 80.2188L40.4883 80.043L39.293 77.6641H39.2812L37.9688 75.5547L37.8984 75.4141L36.75 73.0469L36.7266 73.0117L36.7148 72.9766L35.6836 70.5625L35.6367 70.4688L34.8047 68.043L33.8203 65.5938L33.7852 65.5117L33.7734 65.4297L33.0703 62.875L33.0352 62.7812L33.0234 62.6758L32.6836 60.0508V60.0156L32.4141 57.3906L32.4023 57.2969V57.2148L32.4492 54.6484L32.3438 52.0234L32.332 51.9414L32.3438 51.8594L32.5312 49.2227V49.1641L32.8359 46.5625L33.082 43.9258L33.1055 43.7383L33.1641 43.5625L34.0781 41.0664L34.8164 38.6289L35.5898 36.0977L35.6016 36.0391L35.625 35.9805L36.5859 33.5078L36.6328 33.3789L36.7148 33.2617L36.8945 32.9717L36.8809 32.9414L36.8926 32.6133L36.916 31.6758L37.6855 31.6992L38.0625 31.0938L38.8594 31.5977ZM37.6992 39.4961H37.6875L36.9258 42.0156L36.9141 42.0508L36.9023 42.0977L36.0469 44.418L35.8125 46.8555V46.8789L35.5195 49.5039L35.332 52L35.4375 54.5312L35.4492 54.5781V54.6133L35.4023 57.2031L35.6602 59.6641L35.9766 62.1484L36.6094 64.4805L37.582 66.9414L37.5938 66.9648L37.6055 67L38.4375 69.3789L39.4453 71.7344L40.5234 73.9609L41.918 76.1992L41.9883 76.3164L43.0898 78.5547L44.6602 80.3125L46.5469 82.0469L46.6406 82.1172L46.7109 82.2109L48.2695 84.1445L50.2148 85.6328L50.2959 85.6953L49.7832 84.5273L49.6777 84.293L49.666 84.0586L49.4199 81.6094L48.5293 79.3242L48.5059 79.2539L48.4824 79.1719L47.7793 76.6406L47.041 74.1094L47.0059 73.9805L46.9941 73.8516L46.7129 71.4023L45.8223 69.1055L45.7871 69.0234L45.7637 68.9297L45.1309 66.4219L44.3926 63.8789L44.3574 63.75L44.3457 63.6211L44.0762 61.1133L43.3496 58.7227L43.3262 58.6641L43.3145 58.5938L42.7871 56.1445L41.8262 53.8008L41.7324 53.5547L41.7207 53.2969L41.5918 50.8242L40.8652 48.457L40.8535 48.4102L40.8418 48.3398L40.2559 45.7734V45.7617L39.5645 43.3008V43.2891L38.791 40.8047L38.7676 40.7109L38.7441 40.6055L38.334 37.9805V37.9688H38.3223L38.2666 37.5693L37.6992 39.4961ZM46.2188 28.5586L46.8516 30.8672L47.6016 33.3984L47.625 33.4922L48.2109 36.0586L48.2344 36.1523L48.2461 36.2344L48.5156 38.7188L49.2773 41.1094L49.3008 41.2266L49.9102 43.793V43.8164L50.4609 46.3242L51.1523 48.8672L51.1758 48.9492L51.1875 49.0312L51.5742 51.5625L52.125 54.1523V54.1758L52.1367 54.1992L52.582 56.6836L53.2266 59.1562H53.2383L54.0352 61.6875L54.0586 61.7578L54.082 61.8398L54.6094 64.4062L55.1719 66.9844V67.0078L55.6758 69.5391L56.3086 72.1055L56.3438 72.2227V72.3398L56.5547 74.8711L57.2227 77.1797L58.0664 79.6992L58.125 79.8516L58.1367 80.0156L58.3633 82.0752L58.9707 80.707L59.9316 78.375L60.5479 76.373L59.8887 74.8682L59.8418 74.7627L59.8066 74.6455L59.1504 72.1025L59.127 72.0322L58.5879 69.4658L58.0137 66.8994V66.876L57.4863 64.4502L56.666 61.9424L56.6543 61.8955L56.6426 61.8604L55.9395 59.3174L55.916 59.2588V59.2002L55.4238 56.6689L54.8262 54.0908L54.8145 54.0439L54.8027 54.0088L54.3691 51.4541L53.6895 49.0049L53.6777 48.9697L53.666 48.9229L53.1035 46.3682L52.5176 43.9189L51.709 41.3877L51.6621 41.2471L51.6504 41.0947L51.3926 38.6221L50.8184 36.0322H50.8066L50.0684 33.6299V33.6182L49.3066 31.0869L49.2598 30.9229L49.248 30.7588L49.1562 29.5117L46.9258 28.4023V28.3906L46.2305 28.0635L46.2188 28.5586ZM52.2363 30.4189L52.9395 32.7393L53.7246 35.2705L53.748 35.3877L54.3223 37.9658L54.3457 38.0479V38.1299L54.6035 40.5908L55.377 43.0049L55.4004 43.0986L56.0215 45.6768L56.0332 45.7002L56.5723 48.1963L57.2871 50.7393L57.3105 50.8213L57.3223 50.8916L57.7676 53.5049L58.3418 55.9893L58.3535 56.0127V56.0361L58.834 58.5205L59.5137 60.9932L60.3457 63.5127L60.3691 63.583L60.3809 63.665L60.9434 66.2432H60.9316L61.5176 68.8096L61.5293 68.833L62.0566 71.3408L62.2109 71.9492L62.7207 70.8867L63.6348 68.4492L63.6816 68.3203L63.7402 68.2031L64.418 67.0537L63.748 67.2188L63.3496 65.5664V65.5547L62.5762 63.1523L62.5527 63.1055L61.8262 60.5625L61.8027 60.5039L61.791 60.4336L61.2871 57.8438V57.832L60.7246 55.3008V55.2539L60.7129 55.207L60.3262 52.6641L59.6582 50.2031L59.6465 50.168L59.6348 50.1211L59.0957 47.5664L58.498 45V44.9883L57.7363 42.5859L57.6895 42.4453L57.6777 42.3047L57.3613 39.75L56.7637 37.2891V37.2773L55.9902 34.875L55.9785 34.8633L55.1934 32.3438L55.123 32.1445V31.9336L55.082 30.6719L55.0117 30.6641H54.9648L54.9297 30.6523L52.3281 30.207L52.3164 30.1953L52.2178 30.1768L52.2363 30.4189ZM58.0908 30.9785L58.1113 31.6406L58.8496 33.9609H58.8379L59.6582 36.4688L59.6699 36.5156L59.6816 36.5742L60.3145 39.1406L60.3379 39.2227V39.3164L60.6309 41.8125L61.3926 44.2031L61.416 44.3203L62.0137 46.8867L62.0254 46.9102V46.9219L62.5762 49.5L63.2441 51.9727L63.2676 52.0547L63.2793 52.1367L63.666 54.6562L64.2285 57.2344V57.2695L64.7324 59.8359L65.4238 62.2383L65.8584 63.5742L66.5996 61.1836L66.6348 61.0664L66.6934 60.9609L67.0596 60.2344L66.7656 58.8555L66.7539 58.8438V58.832L66.2266 56.2422V56.207L66.2148 56.1602L65.8516 53.6172L65.207 51.1562L65.1953 51.1094L65.1836 51.0742L64.6445 48.4844V48.4727L64.0938 46.0469L63.3086 43.5156L63.2734 43.375L63.2617 43.2344L63.0039 40.7617L62.4531 38.2773L61.7031 35.7344V35.7109L61 33.168L60.9531 33.0039L60.9414 32.8281L60.8643 30.9902L60.3672 30.9688L58.0908 30.9785ZM65.8398 30.9102H65.8047L63.8701 31.0391L63.9297 32.5352L64.5859 34.8906L65.3242 37.4336L65.3477 37.4805V37.5273L65.9336 40.1055L65.957 40.1875V40.2695L66.2148 42.7773L66.9648 45.168L66.9766 45.2148L66.9883 45.2734L67.5742 47.8516L67.5859 47.8633V47.875L68.125 50.4648L68.7812 52.9375L68.793 53.0312L68.8047 53.1133L69.1201 55.2549L69.6582 53.8008L69.6934 53.707L69.7402 53.6133L70.877 51.4336L71.1562 50.375L70.6035 50.4766L70.252 48.5312L69.6777 46.0586L68.8926 43.5391L68.8457 43.3984L68.834 43.2461L68.541 40.6094H68.5293L68.0137 38.2773L67.2871 35.7344L67.2754 35.7227V35.7109L66.5957 33.1562L66.5723 33.0508L66.2988 30.8672L65.8398 30.9102ZM71.3945 30.0312L71.3242 30.0547L71.2539 30.0664L69.2754 30.5049L69.5137 32.4531L70.1582 34.9141H70.1699L70.8965 37.457L70.9082 37.4922L70.9199 37.5391L71.4941 40.1172L71.5176 40.1992L71.5293 40.2812L71.7871 42.7656L72.5488 45.168L72.5605 45.2148L72.5723 45.2734L72.791 46.1953L73.5254 44.0039L73.5488 43.9102L73.5957 43.8281L74.6973 41.5078L74.8867 40.9951L74.7754 41.0283L74.4121 39.8096L74.4004 39.7861V39.751L73.7676 37.2549L73.0059 34.7236L72.9941 34.7119V34.6885L72.3027 32.1338L72.2676 32.04L72.2559 31.9463L71.9619 29.8428L71.3945 30.0312ZM79.0117 27.7109L78.9766 27.7227L78.9531 27.7344L76.457 28.543L76.4102 28.5547L76.375 28.5664L74.8711 28.9521L74.8809 29.0166L75.209 31.4072L75.877 33.8564L76.6387 36.3877L76.6621 36.458L76.8145 37.0625L77.0293 36.7148L77.7676 34.3711L78.5527 31.8398L78.5879 31.7227L79.8301 29.2383L79.8418 29.2266V29.2148L80.9961 26.9824L79.0117 27.7109ZM33.2383 12.8398L31.2227 13.8477L29.125 15.0664L27.6016 16.6836L26.6289 18.6406L26.5469 20.668L27.2852 22.6484L28.4922 24.3477L30.4375 25.6367L30.4961 25.6719L30.543 25.707L31.1934 26.2158L31.3867 26.2197L33.7422 26.2549L35.5234 25.7627L36.6016 24.1455L37.5859 22.2471L37.5156 21.04L36.3906 20.4072L35.5469 20.5244L35.3125 21.79L34.9258 23.7354L33.1562 22.833L33.0742 22.7979L33.7305 21.4736L32.3711 21.2158L32.8164 18.8955L33.0273 17.8525L34.082 17.7002L36.4844 17.3721L36.9883 17.3018L37.4336 17.5479L39.707 18.8486L40.4102 19.2588L40.4688 20.0674L40.5137 20.835L41.6641 22.0859L43.6211 23.4102L45.8711 24.582L48.2383 25.707H48.2617L48.2734 25.7188L50.4766 26.8086L52.832 27.2422H52.8438L55.4219 27.6875L57.8711 27.9688H60.5078L63.0391 28.0859L65.5703 27.9219L68.0664 27.6992L70.5742 27.1367L72.9766 26.3633L73.0234 26.3516L73.0586 26.3398L75.5547 25.6836L77.9688 24.8984L80.4414 23.9844L82.9492 23.082L83.418 22.9062L83.8984 23.0469L86.4062 23.8086L86.5469 23.8555L88.8203 24.8047L90.0977 25.0391L90.5781 24.0195V23.9961L90.5898 23.9844L91.5977 21.9102L91.7148 21.6758L91.9023 21.4883L93.168 20.2461L92.9102 19.0039L91.75 17.5156L89.7344 16.7539L87.3789 16.2148L85.0352 16.1211L82.7734 16.4961L80.6055 17.4805L80.582 17.4922H80.5703L78.2734 18.418L76.2578 19.918L76.0117 20.0938L75.707 20.1641L73.1055 20.7617L73.1172 20.7734L70.5508 21.3711L68.1953 22.2266L68.0195 22.2852L67.832 22.3086L65.1836 22.5547L64.9609 22.5664L64.7383 22.5195L62.2773 22.0156H59.5703L59.3711 21.9688L56.8867 21.2891L54.3906 20.9727L54.1328 20.9375L53.9102 20.8203L51.6016 19.6719L49.2344 18.6406L46.7969 17.9375L46.6445 17.9023L46.5156 17.8203L44.1719 16.5781L44.043 16.5195L43.9375 16.4258L41.957 14.8438L39.7656 13.7305V13.7188L37.668 12.7695L35.418 12.5703L33.2383 12.8398Z" fill="black"/>
</svg>
