<svg width="120" height="120" viewBox="0 0 120 120" fill="none" xmlns="http://www.w3.org/2000/svg">
<path d="M59.1406 44H62V44.2109L61.8008 46.6719L61.918 49.1797H61.9297L62.1055 51.8164V51.9102L62.1104 52.7959L63.1445 52.9688H63.2031L65.7695 53.5078L65.9219 53.5312L66.0625 53.6016L68.4648 54.6562L68.5703 54.6914L68.6523 54.75L70.8906 56.1211L70.9375 56.1562L70.9961 56.1914L73.1289 57.7617L73.3516 57.9141L73.4922 58.1367L74.9688 60.3398L74.9922 60.3633L75.0039 60.3984L76.375 62.625L76.4102 62.6836L76.4453 62.7539L77.6055 65.1211L77.6641 65.2383L77.6992 65.3672L78.4258 67.9219L78.4961 68.1328L78.4844 68.3555L78.4609 70.9219L78.4492 70.9209L78.4736 71.1885L78.707 73.8281L78.7139 73.9062L78.7129 73.9844L78.6689 76.625L78.6582 78.3545L78.7266 78.3643L81.2188 78.7119L83.6836 78.5654L86.2832 78.292L86.4512 78.2744L86.6182 78.2939L88.3379 78.5H90.8047L90.7344 79.543L91.8711 80.5508L94.0039 82.0391H93.9922L96.1719 83.4922L96.2188 83.5156L96.2539 83.5508L98.3516 85.1445L98.4219 85.2031L98.4805 85.2617L100.273 86.9844L102.395 88.3438L102.934 88.6953L103.062 89.3164L103.555 91.7773L103.59 91.9297V92.0938L103.566 94.7305L103.695 97.2852V97.4609L103.508 100.004L103.484 102.652V102.699L103.379 105.336L103.484 107.867L103.707 110.422L103.719 110.504L103.707 110.586L103.672 113.223L103.662 114.26L105.664 114.242H105.816L105.969 114.266L108.406 114.746L110.809 114.5L110.891 114.488H110.973L112.016 114.5L112.004 116L111.98 117.5L110.984 117.488L108.477 117.746L108.254 117.77L108.031 117.734L105.57 117.242L103.145 117.254L100.648 117.688L100.496 117.711L100.332 117.699L98.3564 117.62L96.9102 117.652H96.793L96.6758 117.641L95.6855 117.496H95.5V117.469L94.6348 117.343L92.7617 117.711L92.5273 117.758L92.293 117.734L90.1094 117.453L89.0518 117.462L88.9297 117.732L87.9707 117.74L85.3311 117.759L85.1797 117.761L85.0312 117.731L83.874 117.504L81.957 117.547H81.9336L79.3672 117.559L79.3789 117.57L76.7422 117.746L76.5547 117.758L75.5195 117.563L74.9619 117.64L74.7627 117.666L74.5625 117.64L72.7715 117.401L71.5391 117.547L71.4102 117.559H71.2812L68.7568 117.419L67.0918 117.704L66.9785 117.724L66.8623 117.725L64.2227 117.765L64.1143 117.767L64.0059 117.752L63.2178 117.648L62.8945 117.656H60.2461V117.668L58.4365 117.699L58.25 117.711L58.0977 117.723L58.0078 117.707L57.6094 117.715H57.5273L57.4336 117.703L55.5098 117.501L53.6963 117.569L53.6377 117.571L53.5791 117.569L51.0137 117.464L48.4463 117.611L48.3311 117.618L48.2168 117.607L45.6357 117.359L44.5176 117.327L42.4531 117.512L42.418 117.523H42.3711L39.7344 117.617H39.6172L37.6777 117.539L35.2617 117.704L35.166 117.71L35.0693 117.704L32.4297 117.545L32.0039 117.52L31.9326 117.47L31.1992 117.465L28.3867 117.441H28.3047L28.0566 117.425L26.4688 117.418V117.406L26.1279 117.409L26.1289 117.496H24.5V117.469L23.3242 117.641L23.207 117.652H23.0898L21.7822 117.623L21.3242 117.664L21.1836 117.676L21.0312 117.664L20.3984 117.594H20.3359L18.1924 117.384L15.9219 117.395V117.383L13.3789 117.559H13.3672L13.3555 117.57L10.707 117.688L10.6133 117.699L10.5312 117.688L7.98828 117.5L8 117.277V114.5H8.21094L10.6719 114.699L13.1797 114.582V114.57L15.8164 114.395H15.9102L16.3379 114.393L16.3281 113.223L16.293 110.586L16.2812 110.504L16.293 110.422L16.5156 107.867L16.6211 105.336L16.5156 102.699V102.652L16.4922 100.004L16.3047 97.4609V97.2852L16.4336 94.7305L16.4102 92.0938V91.9297L16.4453 91.7773L16.9375 89.3164L17.0664 88.6953L17.6055 88.3438L19.7266 86.9844L21.5195 85.2617L21.5781 85.2031L21.6484 85.1445L23.7461 83.5508L23.7812 83.5156L23.8281 83.4922L26.0078 82.0391H25.9961L28.1289 80.5508L29.1699 79.627L28.6445 78.5H35.4062L35.2559 78.6143L36.208 78.5684V78.5693L38.8203 78.3936L38.8662 78.3906H38.9121L41.5078 78.377L41.4531 78.1475L41.4131 77.9795L41.4121 77.8066L41.4014 75.166L41.4004 75.0664L41.4141 74.9678L41.7119 72.667L41.3135 71.4736L40.6582 69.5H41.4961L41.5938 67.6523L41.6055 67.3828L41.7109 67.1367L42.7656 64.6875L43.7969 62.2852L43.8555 62.1445L43.9375 62.0156L45.4258 59.8594L45.4844 59.7773L45.5547 59.6953L47.3125 57.7734L47.3945 57.6797L47.5 57.5977L49.5508 55.9922L49.5742 55.9688L49.6094 55.9453L51.7656 54.4336L51.8945 54.3398L52.0352 54.2812L54.4609 53.2266L54.625 53.1562L54.8008 53.1328L57.4141 52.6641L57.5078 52.6523H57.5898L59.1084 52.5771L59.1055 51.9336V51.9219L58.9414 49.3789V49.3672L58.9297 49.3555L58.8125 46.707L58.8008 46.6133L58.8125 46.5312L59 43.9883L59.1406 44ZM58.7227 94.7695L57.3281 96.082L56.4492 97.8281L56.4141 100.125L56.4258 102.738V102.82L56.3086 105.457L56.4844 107.93V108.012L56.5078 110.602L56.6133 113.25L56.625 113.309L56.6133 113.367L56.5811 114.482L56.6084 114.487L58.9043 114.623L61.4434 114.425L61.5986 114.413L61.7539 114.434L61.8496 114.445L63.2891 114.289L63.4414 114.277L63.6055 114.289L64.4395 114.387L64.6289 113.742L64.3008 111.422L64.2773 111.27L64.2891 111.129L64.4414 108.48V108.422L64.7109 105.938L64.4297 103.465L64.418 103.336V103.207L64.582 100.629L64.4414 98.0859L64.4531 98.0742L63.7617 96.2344L62.4023 94.9922L60.5625 94.4297L58.7227 94.7695ZM27.707 84.5L27.6836 84.5234L25.5625 85.9297V85.9414L23.5 87.5L21.6836 89.2578L21.5781 89.3633L21.4492 89.4453L19.7617 90.5234L19.4219 92.2461L19.4336 94.707V94.7539L19.4219 94.7891L19.3164 97.3203L19.4805 99.8984V99.9805L19.5156 102.582L19.6211 105.219V105.336L19.5156 107.973V108.055L19.2812 110.691L19.3281 113.176V113.188L19.3389 114.451L20.6211 114.596L21.7803 114.617L23.1084 114.504L23.1055 113.934V113.922L22.9414 111.379V111.367L22.9297 111.355L22.8125 108.707L22.8008 108.613L22.8125 108.531L23 105.988L23.1406 106H26V106.211L25.8008 108.672L25.918 111.18H25.9297L26.1055 113.816V113.91L26.1074 114.304L28.2227 114.426L29.0469 114.43L29.417 114.413L29.4854 113.945L29.4297 113.492L29.418 113.363V113.234L29.582 110.656L29.4414 108.113V108.014L29.3604 107.091L29.3496 106.966L29.3594 106.841L29.5469 104.474L29.2773 103.039L29.2422 102.852L29.2539 102.664L29.4238 100.104L29.3867 99.0957L29.3828 98.9971L29.3926 98.8994L29.4443 98.3438L29.4531 97.4609V97.4492L29.4971 95.457L29.2988 93.957L29.2803 93.8203L29.2871 93.6826L29.4189 91.124L29.251 88.5781L29.2451 88.4854L29.251 88.3916L29.3066 87.4355L29.2656 87.1133L29.2422 86.8789L29.2891 86.6445L29.3818 86.1631L29.4023 85.8271L29.3125 83.3896L27.707 84.5ZM90.4463 85.2832L90.7109 86.6445L90.7578 86.8789L90.7344 87.1133L90.6924 87.4307L90.7393 87.8262L90.7656 88.0527L90.7236 88.2773L90.4072 89.9521L90.418 92.1992H90.4062L90.4883 94.8008V94.8125L90.5469 97.4492V97.4609L90.5703 100.027L90.7461 102.664L90.7578 102.852L90.7227 103.039L90.5977 103.7L90.5986 103.834L90.5996 103.934L90.5859 104.032L90.3291 106.013L90.541 107.823L90.7363 108.838L90.7822 109.078L90.749 109.32L90.4658 111.413L90.582 113.234V113.363L90.5703 113.492L90.4531 114.441H91.5078L94.1074 114.291L94.1055 113.934V113.922L93.9414 111.379V111.367L93.9297 111.355L93.8125 108.707L93.8008 108.613L93.8125 108.531L94 105.988L94.1406 106H97V106.211L96.8008 108.672L96.918 111.18H96.9297L97.1055 113.816V113.91L97.1084 114.498L97.8945 114.605L98.1787 114.617L99.4883 114.594L100.66 114.477L100.672 113.188V113.176L100.719 110.691L100.484 108.055V107.973L100.379 105.336V105.219L100.484 102.582L100.52 99.9805V99.8984L100.684 97.3203L100.578 94.7891L100.566 94.7539V94.707L100.578 92.2461L100.238 90.5234L98.5508 89.4453L98.4219 89.3633L98.3164 89.2578L96.5 87.5L94.4375 85.9414V85.9297L92.3164 84.5234L92.293 84.5L90.5479 83.2939L90.4463 85.2832ZM83.957 81.5527L83.9229 81.5566L83.8887 81.5586L81.249 81.7148L81.1006 81.7236L80.9531 81.7031L78.4297 81.3516L75.9111 81.4043L75.8789 81.4053L75.873 81.4043L75.7012 81.4775L75.4375 81.5889L75.1514 81.5947L72.5117 81.6494L72.3916 81.6523L72.2734 81.6357L70.0156 81.3203L69.3975 81.3105L67.3154 81.4346L64.7168 81.708L64.5537 81.7256L64.3916 81.707L63.3896 81.5928L62.7363 81.6182L62.6777 81.6201L62.6182 81.6182L60.2578 81.5205L59.3701 81.5742L59.2871 81.5791L59.2031 81.5742L57.4893 81.4854H57.3418L57.2979 81.4824L56.9463 81.458L56.6904 81.4453L54.1738 81.7393L53.9473 81.7656L53.7227 81.7236L52.1562 81.4277L52.1504 81.4287H52.1104L49.4873 81.4121L48.8936 81.418L48.8193 81.4238L48.7773 81.4268H48.7363L46.8291 81.4473L44.3281 81.6631L44.1816 81.6758L44.0352 81.6592L42.8408 81.5273L42.2617 81.54L42.2422 81.4609L41.4785 81.377L38.9795 81.3896L36.3799 81.5635L36.3662 81.5645L36.3516 81.5654L33.7119 81.6914L33.6191 81.6963L33.5264 81.6895L32.6006 81.6182L32.4971 82.2139L32.7461 84.0781L32.7812 84.3242L32.7344 84.5586L32.3701 86.4316L32.3154 87.3535L32.582 89.3633L32.5938 89.4688V89.5625L32.582 92.2109V92.2461L32.5117 94.8828L32.502 95.2998L32.6221 96.2031L32.6436 96.3721L32.6279 96.541L32.4443 98.4795L32.4297 100.133V100.18L32.4287 100.182L32.4824 101.624L32.4834 101.635L32.5625 104.261L32.7227 105.125L32.7695 105.348L32.7344 105.57L32.4502 107.989L32.5801 109.469L32.582 109.487L32.583 109.507L32.748 112.146L32.7578 112.303L32.7354 112.457L32.5029 114.032L32.5254 114.215L32.7451 114.371L34.5078 114.488L34.4961 114.5L37.0508 114.512H37.0977L37.6494 114.534L37.665 114.533L40.3047 114.295L40.3721 114.289L40.4385 114.288L41.8135 114.286L41.8125 114.277L41.8359 114.031L42.1055 111.5V108.922L41.9414 106.379V106.367L41.9297 106.355L41.8125 103.707L41.8008 103.613L41.8125 103.531L41.915 102.134L40.707 102.188L40.6133 102.199L40.5312 102.188L37.9883 102L38 101.859V99H38.2109L40.6719 99.1992L43.1797 99.082V99.0703L45.8164 98.8945H45.9102L48.5469 98.8828L48.6406 98.8711L48.7227 98.8828L51.1719 99.1641L52.8125 98.9531L53.4297 98.875L53.4492 97.4414L53.4609 97.1016L53.6133 96.7969L54.7617 94.4883L54.8789 94.2422L55.0781 94.0547L57 92.2734L57.3164 91.9805L57.75 91.8984L60.375 91.418L60.7383 91.3477L61.0898 91.4531L63.5977 92.2383L63.9258 92.332L64.1719 92.5664L66.0586 94.2891L66.3164 94.5234L66.4453 94.8633L67.0664 96.5508L67.7461 96.8203L67.4648 98.0742L67.4414 98.1328L67.4922 99.1035L68.6719 99.1992L71.1797 99.082V99.0703L73.8164 98.8945H73.9102L76.5469 98.8828L76.6406 98.8711L76.7227 98.8828L79.1719 99.1641L80.8125 98.9531L82.5 98.7422V100.5H81.0117L81.1875 101.93L79.3828 102.152L79.207 102.176L79.0312 102.164L77.9316 102.047L77.8008 103.672L77.918 106.18H77.9297L78.1055 108.816V108.91L78.1172 111.547L78.1289 111.641L78.1172 111.723L77.8477 114.125L77.8896 114.329L80.0205 114.504L82.5273 114.249L82.75 114.227L82.9688 114.27L84.1309 114.496L84.5234 114.488L87.1387 114.418L87.3086 114.045L87.4072 111.697L87.4102 111.628L87.4199 111.56L87.459 111.267L87.4297 110.773L87.418 110.691L87.4297 110.609L87.5527 108.17L87.2842 106.762L87.2393 106.526L87.2695 106.287L87.3115 105.961L87.2656 105.57L87.2305 105.348L87.2773 105.125L87.5957 103.398L87.5879 101.242L87.5146 98.6016L87.5137 98.5928L87.4561 95.9531V95.9365L87.4268 93.3242L87.2559 90.7393L87.2432 90.5498L87.2783 90.3623L87.4062 89.6787V89.4688L87.418 89.3633L87.6729 87.4355L87.4521 85.5332L87.4473 85.4971L87.2656 84.5586L87.2188 84.3242L87.2539 84.0781L87.5293 82.0059L87.4951 81.4199L86.4268 81.293L83.957 81.5527ZM67.418 103.277L67.7109 105.762L67.7227 105.926L67.7109 106.09L67.4297 108.645L67.4414 108.656L67.2773 111.152L67.6406 113.648L67.6758 113.965L67.5938 114.27L67.5283 114.495L68.3369 114.447L69.2275 114.296L69.3613 114.273L69.4961 114.275L69.8125 114.278V114.277L69.8359 114.031L70.1055 111.5V108.922L69.9414 106.379V106.367L69.9297 106.355L69.8125 103.707L69.8008 103.613L69.8125 103.531L69.915 102.134L68.707 102.188L68.6133 102.199L68.5312 102.188L67.4873 102.11L67.418 103.277ZM53.1875 101.93L51.3828 102.152L51.207 102.176L51.0312 102.164L49.9316 102.047L49.8008 103.672L49.918 106.18H49.9297L50.1055 108.816V108.91L50.1172 111.547L50.1289 111.641L50.1172 111.723L49.8477 114.125L49.8945 114.348H50.2695L52.8711 114.406L53.582 114.39L53.625 113.367L53.5078 110.73V110.684L53.4844 108.129L53.3086 105.492V105.316L53.4258 102.762L53.416 100.5H53.0117L53.1875 101.93ZM72.9395 101.957L72.8008 103.672L72.918 106.18H72.9297L73.1055 108.816V108.91L73.1172 111.547L73.1289 111.641L73.1172 111.723L72.8477 114.125L72.8994 114.374L73.8242 114.266L74.0586 114.23L74.2812 114.277L74.833 114.38L74.8125 114.277L74.8359 114.031L75.1055 111.5V108.922L74.9414 106.379V106.367L74.9297 106.355L74.8125 103.707L74.8008 103.613L74.8125 103.531L74.9336 101.895H73.9219L72.9395 101.957ZM44.9395 101.957L44.8008 103.672L44.918 106.18H44.9297L45.1055 108.816V108.91L45.1172 111.547L45.1289 111.641L45.1172 111.723L44.8477 114.125L44.8818 114.289H44.9844L46.8213 114.321L46.8125 114.277L46.8359 114.031L47.1055 111.5V108.922L46.9414 106.379V106.367L46.9297 106.355L46.8125 103.707L46.8008 103.613L46.8125 103.531L46.9336 101.895H45.9219L44.9395 101.957ZM75.6211 83.8359L75.6094 83.8477H78.2695L80.8711 83.9062L83.4844 83.8477H83.7305L83.9648 83.918L84.4453 84.0703L83.5547 86.9297L83.3086 86.8594L80.9062 86.9062H80.8477L78.2109 86.8477L75.5859 86.8359H75.5742L72.9492 86.8008L70.4531 87.0117L70.418 87.0234H70.3711L67.7344 87.1172H67.6172L64.9805 87.0117V87L62.3906 86.9883H62.3438L62.2969 86.9766L59.7188 86.8125L57.1875 86.9297H57.1055L54.4688 86.918L51.9609 86.9414L49.3242 87.1641L49.1836 87.1758L49.0312 87.1641L46.5 86.8945H43.9219L41.3789 87.0586H41.3672L41.3555 87.0703L38.707 87.1875L38.6133 87.1992L38.5312 87.1875L35.9883 87L36 86.7773V84H36.2109L38.6719 84.1992L41.1797 84.082V84.0703L43.8164 83.8945H43.9102L46.5469 83.8828L46.6406 83.8711L46.7227 83.8828L49.2305 84.1641L51.7148 83.9531L51.7617 83.9414H51.8203L54.4688 83.918H54.4922L57.0469 83.9297L59.6953 83.8125L59.7773 83.8008L59.8594 83.8125L62.5078 83.9883L62.4961 84L65.0508 84.0117H65.0977L67.6875 84.1172L70.1836 84.0352L72.832 83.7891H72.9844L75.6211 83.8359ZM64.1895 72.4268L64.1504 72.4287H64.1104L61.4873 72.4121L58.9473 72.4404L58.957 72.5039H58.1787L56.3281 72.6631L56.1816 72.6758L56.0352 72.6592L53.4785 72.377L50.9795 72.3896L48.3799 72.5635L48.3662 72.5645L48.3516 72.5654L45.7119 72.6914L45.6191 72.6963L45.5264 72.6895L44.7402 72.6289L44.7305 72.7129L44.4014 75.251L44.4111 77.6172L44.6182 78.4863L46.0469 78.4561H46.0635L46.6914 78.4482L46.7119 78.4473L46.7676 78.4424H46.8232L48.7773 78.4199L51.2607 78.2559L51.4502 78.2432L51.6377 78.2783L52.3691 78.415L54.6904 78.3076L54.7764 78.3037L54.8623 78.3096L57.1191 78.4629L57.5879 78.4873L60.0547 78.5107L60.1016 78.5127L60.209 78.5166L61.8301 78.4199L61.96 78.4121L62.0889 78.4268L63.5098 78.5869L65.2285 78.5234L67.8281 78.293L67.9062 78.2861L67.9844 78.2871L69.3369 78.3096L69.751 78.2852L69.8994 78.2764L70.0469 78.2969L70.2471 78.3242L70.625 78.3311L70.624 78.332L73.249 78.3467H73.2607L73.2734 78.3477L75.2959 78.3916L75.6582 78.2402L75.6689 76.5908L75.6699 76.583V76.5752L75.7109 74.0107L75.5957 72.7041L74.5938 72.6172L71.9951 72.5098L69.3857 72.4854H69.3418L69.2979 72.4824L66.7363 72.3076L64.1895 72.4268ZM51.3906 58.3477L49.4336 59.8828L47.8281 61.6523L46.4805 63.5859L45.5312 65.8711H45.5195L44.5703 68.0742L44.4922 69.6016L45.666 69.6914L48.208 69.5684V69.5693L48.7119 69.5352L48.8867 67.3711L48.8984 67.3008L48.9102 67.2188L49.4023 64.6406L49.9062 62.0508L49.9297 61.9219L49.9766 61.8047L50.9141 59.3203L50.9727 59.168L51.0664 59.0273L51.6396 58.1709L51.3906 58.3477ZM69.2422 60.1992V60.2109L69.2539 60.2344L70.1797 62.6836L70.1914 62.7305L70.2031 62.7656L71.0117 65.2852L71.0352 65.3672L71.0586 65.4609L71.5508 68.0625L71.5742 68.2383V68.4023L71.5332 69.5059L72.0547 69.5107L72.1016 69.5127L74.7412 69.6201L74.7764 69.6221L74.8105 69.625L75.4668 69.6816L75.4727 68.5312L74.8516 66.3281L73.7734 64.125L72.4844 62.0156L71.1367 60.0117L69.2617 58.6289L68.3926 58.1006L69.2422 60.1992ZM56.5039 56.9648L54.9688 58.5703L53.6445 60.5625L52.8125 62.7539L52.3438 65.2031L51.875 67.6289L51.7324 69.3857L53.5527 69.377H53.6387L53.7246 69.3867L55.4883 69.5811V66.7148L55.7812 64.0781V64.0664L56.1094 61.4414L56.1328 61.2773L56.7422 58.7109H56.7539L57.1904 56.6143L56.5039 56.9648ZM60.1641 57.0234L59.6719 59.3672V59.3906L59.6602 59.4141L59.0859 61.8047L58.7695 64.4297L58.4883 66.9375V69.3633L58.5029 69.4648L58.7119 69.4473L58.7676 69.4424H58.8232L61.4629 69.4121H61.4893L62.5742 69.4189L62.6367 68.332L62.4141 65.9414L62.0039 63.3281V63.3047L61.6406 60.7031V60.668L61.6289 60.6328L61.4062 58.2188L60.6328 56.4258L60.5391 56.3672L60.1641 57.0234ZM64.6055 60.293H64.6172L64.9805 62.8945H64.9688L65.3789 65.4844V65.5312L65.3906 65.5781L65.6484 68.2031L65.6602 68.332L65.6484 68.4492L65.5889 69.3584L66.6904 69.3076L66.7764 69.3037L66.8623 69.3096L68.5293 69.4229L68.5625 68.4609L68.1172 66.082L67.3438 63.668V63.6562L66.4531 61.3008V61.2891L65.5625 59.1211L64.3984 57.9043L64.6055 60.293Z" fill="black"/>
</svg>
