<svg width="120" height="120" viewBox="0 0 120 120" fill="none" xmlns="http://www.w3.org/2000/svg">
<path d="M65.0254 51.0332L65.1426 51.127L65.2363 51.2324L66.5957 52.8965L68.6699 53.8809L68.7988 53.9395L68.916 54.0215L71.0488 55.5918L71.1074 55.627L71.166 55.6738L73.1348 57.4316L73.2285 57.5137L73.2988 57.6074L74.8457 59.4941L76.8027 61.2754L76.873 61.3457L76.9316 61.4277L78.6426 63.4434L78.6777 63.502L78.7246 63.5488L80.2363 65.7168L80.248 65.7285V65.752L81.7246 67.9551L81.8066 68.0723L81.8535 68.2012L82.8965 70.6387L83.334 71.6729V71.6553L83.3574 71.5381L83.8848 69.1006L84.4473 69.2295L85.3613 69.3115L85.8564 69.3613L86.1133 68.6768L87.5781 69.2041L87.707 69.251L87.8359 69.333L90.0625 70.6689H90.0742L92.3477 72.0166L92.4414 72.0752L92.5234 72.1455L94.5859 73.8096L94.6797 73.8916L94.7734 73.9971L96.4961 75.9893L96.5312 76.0244L96.5547 76.0596L98.1719 78.1338L98.2891 78.2979L99.5781 80.5244H99.5898L101.008 82.7393L101.055 82.8213L101.102 82.915L102.215 85.2939L102.238 85.3291L102.25 85.376L103.246 87.8135L104.242 90.2627L104.324 90.4619L104.348 90.6611L104.641 93.2275L105.051 95.7705L105.439 97.6309L107.23 97.2715V97.2832L109.797 96.7441L109.996 96.6973L110.207 96.709L112.762 96.8848L112.703 97.7637L112.762 98.373L112.82 99.002L113.379 99.3193L113.332 99.4014L112.172 101.546V101.558L112.16 101.569L110.848 103.866L109.582 106.163L109.535 106.257L108.83 107.344L109.725 107.633L110.275 107.809L110.557 108.301L111.471 109.848L111.611 110.094L111.658 110.375L112.068 113.035L112.104 113.27L112.068 113.516L111.897 114.498L112.016 114.5L112.004 116L111.98 117.5L111.388 117.492L111.377 117.559L110.732 117.514L108.477 117.746L108.254 117.77L108.031 117.734L106.425 117.413L104.99 117.617L104.838 117.641L104.674 117.629L102.213 117.43L101.948 117.461L100.648 117.688L100.496 117.711L100.332 117.699L100.07 117.688L99.6934 117.734L99.459 117.758L99.2363 117.723L98.7871 117.637L97.6953 117.594H97.625L97.5547 117.582L95.1523 117.242L92.7617 117.711L92.5273 117.758L92.293 117.734L91.791 117.67L91.6777 117.688L91.5254 117.676L88.8887 117.559H88.8066L88.7246 117.547L87.8828 117.414L87.207 117.418L87.1953 117.406L84.8057 117.481L83.9668 117.652L83.7441 117.688L83.5098 117.664L82.4014 117.536L81.957 117.547H81.9336L79.3672 117.559L79.3789 117.57L76.7422 117.746L76.5547 117.758L74.8311 117.435L73.1387 117.465H73.127L72.1631 117.473L71.5391 117.547L71.4102 117.559H71.2812L70.168 117.497L67.9355 117.652L67.7363 117.664L67.5605 117.629L67.0146 117.527L66.1719 117.582H66.043L65.9141 117.57L63.8389 117.336L62.7324 117.465L62.6035 117.488L62.4746 117.477L61.9277 117.452L60.957 117.559H60.8867L58.25 117.711L58.0977 117.723L57.957 117.699L55.4141 117.348L53.251 117.397L52.1504 117.523H52.0801L49.4434 117.688L49.291 117.699L49.1504 117.676L46.6777 117.336L44.0996 117.395H44.041L43.8213 117.39L42.4531 117.512L42.418 117.523H42.3711L39.7344 117.617H39.6172L36.9805 117.512V117.5L34.3906 117.488H34.3438L34.2969 117.477L34.0771 117.461L33.6465 117.5H33.5645L30.9277 117.594H30.8105L28.209 117.477L25.5723 117.453H25.5254L25.4785 117.441L25.1562 117.418L23.9609 117.43L21.3242 117.664L21.1836 117.676L21.0312 117.664L18.5 117.383L15.9219 117.395V117.383L13.3789 117.559H13.3672L13.3555 117.57L10.707 117.688L10.6133 117.699L10.5312 117.688L7.98828 117.5L8 117.277V114.5H8.07227L7.90039 113.609L7.87695 113.516V113.422L7.70117 110.785L7.66602 110.328L7.88867 109.941L9.08398 107.855L9.48242 107.164L10.2793 107.105L10.9443 107.056L10.1211 105.759H10.1094L8.59766 103.743V103.731L8.58594 103.72L7.02734 101.587L6.92188 101.446L6.85156 101.271L5.90234 98.9268L6.61719 98.6221L7.23828 98.2705L7.73047 97.9863L7.66797 97.2539L9.95312 97.0547L10.082 97.043L10.2109 97.0547L12.8477 97.2773L13.0117 97.3008L14.248 97.5469L14.2773 96.9326V96.8623L14.5234 94.2256L14.5352 94.1201L14.5586 94.0146L15.1914 91.4365V91.4014L15.2031 91.3779L15.9414 88.835L15.9648 88.7412L16.0117 88.6592L17.0781 86.2451L18.0156 83.8428L18.0508 83.7607L18.0977 83.6787L19.3633 81.3701L19.375 81.3232L19.3984 81.2881L20.793 79.0615V79.0498L22.1992 76.7998L22.3164 76.624L22.4688 76.4834L24.4492 74.7021L26.3242 72.9326L26.3594 72.8975L28.3398 71.1396L28.3984 71.0811L28.4688 71.0342L30.6367 69.5107L30.8359 69.3701L31.0586 69.2998L33.5078 68.5498L33.7207 69.2686L34.2324 69.1738L35.6973 68.8926L35.7207 68.9863L35.7441 69.0918V69.1973L35.8613 71.5879L35.9951 72.6094L36.8516 70.8975L37.9062 68.5537L37.9414 68.4717L37.9883 68.3896L39.3477 66.1396L39.3945 66.0693L40.8711 63.8896L42.3477 61.6982L42.4531 61.5342L42.6055 61.4053L44.6094 59.6475L46.3789 57.8779L48.2188 55.9795L48.2891 55.9092L50.2461 54.1279L50.4688 53.917L50.75 53.8232L52.4727 53.2119L52.5605 53.127L54.4238 51.3223L55.3262 52.2598L55.4902 52.2949L56.9434 52.6582L56.9199 52.752L56.8145 53.1621L56.5098 53.4668L55.1035 54.8262L55.1152 55.8398L55.9727 54.3438L56.0898 54.1445L56.2656 53.9805L58.2344 52.1992L58.9375 51.5664L59.8047 51.918L61.6797 52.6797L62.0781 52.8438L62.3359 53.1953L63.8594 55.3398L63.8828 55.375L63.9062 55.3984L64.3096 56.0342L64.3721 54.9229L62.916 53.1426L63.6777 52.5098L64.9434 50.9629L65.0254 51.0332ZM45.8105 109.742L45.4707 109.941H45.084L42.7051 109.977L40.2441 110.504L40.0098 110.551L39.7637 110.527L37.2324 110.246V110.234L34.8066 110.012L32.252 110.223L32.1465 110.234L32.041 110.223L29.5098 110.082L26.9551 110.27L26.9668 110.281L24.3184 110.48L24.2129 110.492L24.0957 110.48L21.541 110.293L19.0215 110.457H18.8809L16.2207 110.375H16.127L16.0332 110.352L13.4902 109.941H13.4551L13.4316 109.93L13.2441 109.883L13.0566 109.906L11.2871 110.035L10.7129 111.043L10.8535 113.129L11.0879 114.324L12.4707 114.57L14.9082 114.371H15.0254L17.6621 114.348H17.6855L20.3105 114.359L22.8887 114.266H23.0527L25.3447 114.428L26.4688 114.418H26.4922L29.0469 114.43L31.6953 114.312L31.7773 114.301L31.8594 114.312L33.9893 114.453L36.0254 114.277H36.1777L38.8145 114.312H38.8027L41.4395 114.336H41.4629L43.8613 114.379L44.832 114.289H44.9844L47.6211 114.336L47.6094 114.348H50.2695L52.8711 114.406L53.0244 114.402L54.4707 114.242L54.6348 114.23L54.7871 114.242L57.3301 114.523L59.8145 114.359H59.9785L61.834 114.447L63.2891 114.289L63.4414 114.277L63.6055 114.289L63.8154 114.313L65.0176 114.172L65.2402 114.148L65.4629 114.195L67.2178 114.514L68.6328 114.43L68.7148 114.418L68.7969 114.43L70.1807 114.5L70.373 114.488H70.4551L72.0479 114.474L73.8242 114.266L74.0586 114.23L74.2812 114.277L75.0947 114.429L75.7285 114.418L78.3652 114.371H78.4004L81.0371 114.383H81.2012L82.5293 114.532L84.4346 114.49L86.0293 114.184L86.2871 114.137L86.5449 114.172L88.1172 114.413L89.832 114.406H89.9375L90.0312 114.418L91.6836 114.636L93.9863 114.266L94.1035 114.254H94.2207L94.9131 114.25L95.082 114.219L95.2842 114.249L96.8691 114.242H97.0098L97.1504 114.266L99.2666 114.666L99.8311 114.69L101.568 114.487L102.793 114.277L102.91 114.266H103.027L105.664 114.242H105.816L105.969 114.266L106.545 114.379L107.229 114.289L107.381 114.266L107.533 114.277L108.869 114.359L109.068 113.258L108.729 111.113L108.26 110.316L106.666 109.801L104.439 110.27L104.252 110.305H104.076L101.627 110.199L99.0605 110.293L99.002 110.305L98.9434 110.293L96.3887 110.188L93.8105 110.34L93.6934 110.352L93.5879 110.34L91.0449 110.082V110.094L88.4082 110.012H85.8184L83.2988 110.258H83.2402L80.7324 110.398H80.627L78.002 110.34L75.5059 110.457L75.084 110.48L74.6973 110.27L73.7861 109.756L73.2598 110.002L72.9316 110.154L72.5684 110.143L70.002 110.061L67.4121 110.154H67.3535L64.7285 110.143L62.1973 110.154L59.5723 110.389L59.4199 110.4L59.2793 110.389L56.7363 110.107H54.252L51.6152 110.295H51.5918L48.9551 110.424L48.7324 110.436L48.5098 110.377L46.0957 109.768L46.1523 109.546L45.8105 109.742ZM12.9688 108.243L12.9238 108.249L12.9277 108.301L12.9629 108.312L13.0215 108.324L13.0332 108.312L13.0498 108.231L12.9688 108.243ZM49.8301 72.2988L48.1777 74.1738L48.1309 74.2207L46.3848 75.9902L44.8496 78.0645L43.502 80.0918L42.5176 82.2949L41.7559 84.7676V84.791L41.7441 84.8145L40.8887 87.2988L40.2559 89.7363L40.2441 89.7598L40.2324 89.7949L39.3301 92.748L39.002 93.0293L38.8066 93.1953L38.9727 93.8311L39.043 94.1006L39.0078 94.3818L38.7031 96.8662L38.9609 99.2686L39.4648 101.8L39.5234 102.116L39.4531 102.433L38.9375 104.612L39.6523 106.733L39.6992 106.897L39.7227 107.073L39.7656 107.504L39.8691 107.516L41.792 107.117L42.7324 105.403L42.7441 105.38L42.7559 105.368L44.0801 103.083L44.1035 103.036L45.5215 100.798L45.5684 100.728L45.627 100.657L47.3145 98.6064L47.3965 98.501L47.4902 98.4189L49.4355 96.7432L51.1348 94.8564L51.2051 94.7861L51.2871 94.7158L53.3262 93.0166L53.373 92.9697L53.4316 92.9346L55.623 91.4346L57.5195 90.041L57.3906 89.7158L57.3438 89.5986L57.3203 89.4697L56.7695 86.8799V86.8682L56.0781 84.5479L55.082 82.1924L55.0352 82.0869L55 81.9697L54.3555 79.4502L53.3828 77.1768L52.1875 74.9854V74.9736L50.9688 72.8643L50.2939 71.917L49.8301 72.2988ZM21.8535 95.3926L20.9863 97.0215L20.0957 99.4238L19.3457 101.861L19.2754 102.096L19.123 102.295L17.8721 104.035L17.9336 104.257L17.9922 104.503L17.9805 104.749L17.8164 107.362L17.8125 107.415L18.8691 107.445L21.4707 107.293H21.5762L21.6699 107.305L24.1895 107.48L26.7324 107.281L29.3691 107.082H29.5684L32.0762 107.223L34.6426 107.012L34.7715 107L34.9004 107.012L36.626 107.172L36.3066 106.22L36.0801 105.963L34.3223 103.994L34.2754 103.936L34.2402 103.889L32.6699 101.756L31.0879 99.8574L29.1895 98.2988V98.2871L27.1855 96.8574L25.0059 95.7559L23.0605 95.1113L21.8535 95.3926ZM56.8027 103.93L56.7793 103.941H56.7559L54.3652 104.551L52.2207 105.688L52.209 105.699L50.0176 106.824L49.3096 107.409L51.416 107.307L54.0645 107.119H54.1465L56.7949 107.107H56.877L56.959 107.119L59.4199 107.4L61.9512 107.178L62.0098 107.166H62.0566L64.7051 107.143H64.7285L67.3066 107.154L69.9551 107.061H70.0566L68.2285 106.098L68.1934 106.086L68.1699 106.062L66.0137 104.797L63.7285 104.023L61.3262 103.578L59.0645 103.273L56.8027 103.93ZM68.3398 72.6182L67.3789 74.6689L66.4297 77.1416V77.165L65.4453 79.6025L65.4219 79.6611L65.3984 79.708L64.2969 81.958L63.7695 84.3486V84.3721L63.7578 84.4072L63.0781 86.9268L62.4453 89.4932L62.4219 89.5869L62.1631 90.3828L63.9434 91.5166L64.002 91.5518L64.0605 91.5986L66.1465 93.2158H66.1348L68.2324 94.7979L68.2441 94.8213L70.3418 96.4502L70.4355 96.5322L70.5293 96.626L72.3105 98.5947L72.334 98.6182L72.3574 98.6533L74.0215 100.716L74.0684 100.763L74.1035 100.81L75.5918 103.001L75.6152 103.024L77.0566 105.239L77.1738 105.415L77.2324 105.614L77.7832 107.356L77.9082 107.352L77.9551 107.34H78.002L80.1475 107.378L80.7207 105.499L80.334 103.237L80.3105 103.085V102.921L80.416 100.296V100.237L80.627 97.6006L80.6973 95.0459V94.9756L80.709 94.9053L80.9316 92.998L80.7461 93.0625V93.0391L79.8438 90.7891L79.8086 90.6953L79.7852 90.6133L79.1406 88.1641L78.2734 85.6797L77.3711 83.2188L77.3477 83.1719L76.5859 80.875L75.2031 78.8242V78.8125L73.7734 76.75L72.2031 74.7578L70.375 73.0234V73.0352L69.1309 71.8604L68.3398 72.6182ZM94.1895 96.1299L92.0918 97.5479L92.0801 97.5596L92.0566 97.5713L89.9238 98.9189L88.084 100.56L86.3965 102.353L85.0254 104.438L84.9434 104.556L84.8496 104.661L83.791 105.736L83.6973 106.05L83.3301 107.235L85.666 107.023H85.8066L88.4434 107.012H88.4902L91.127 107.094H91.2324L93.7754 107.34L96.2832 107.199L96.3535 107.188H96.4238L99.0137 107.293L101.592 107.199H101.709L101.91 107.207L102.018 105.845L101.291 103.771L100.143 101.567L100.107 101.497L100.084 101.415L99.1113 98.9658L99.0879 98.8955L98.3145 96.5986L97.3535 95.251H96.1582L94.1895 96.1299ZM9.64648 100.083L11 101.938L12.5938 104.048L12.6289 104.095L12.6523 104.142L14.082 106.38L14.2578 106.649L14.3047 106.978L14.3105 107.023L14.8203 107.11L14.9805 104.808L14.3594 102.546L14.3242 102.394L14.3125 102.229L14.2197 100.596L12.5078 100.254L10.082 100.043L9.64648 100.083ZM107.828 100.213H107.816L105.679 100.638L105.695 101.243L105.707 101.583L105.566 101.899L104.587 104.088L104.959 105.177L105.064 105.481L105.029 105.786L104.927 107.1L105.518 106.979L105.609 106.831L107.004 104.64L108.234 102.401V102.39L108.246 102.378L109.559 100.081L109.699 99.8193L107.828 100.213ZM57.3574 93.8838L57.334 93.8955L57.3105 93.9189L55.248 95.3252L53.3145 96.9189L51.6035 98.8291L51.5332 98.9111L51.4629 98.9697L49.5527 100.61L48.0176 102.462L46.6582 104.583L46.6699 104.595L45.625 106.375L46.3145 105.98L48.2363 104.41L48.3652 104.305L48.5059 104.234L50.8379 103.027L53.1465 101.809L53.2988 101.727L53.4746 101.691L56.0176 101.035L58.5137 100.32L58.8184 100.227L59.1348 100.273L61.7598 100.625H61.7949L61.8301 100.637L64.4199 101.117L64.5254 101.129L64.6191 101.164L67.127 102.008L67.2793 102.055L67.4082 102.137L69.623 103.438L71.9668 104.668L72.1191 104.75L72.248 104.867L74.1934 106.543L74.4033 106.66L73.0957 104.665V104.653L71.6895 102.603L70.084 100.61L68.3848 98.7354L66.3926 97.1768V97.165L64.3184 95.5947H64.3066L64.2949 95.583L62.2676 94.001L60.416 92.8291L58.9863 92.6768L57.3574 93.8838ZM32.1484 72.1006L30.332 73.3896L28.375 75.1006L28.3867 75.1123L26.4766 76.917L26.4531 76.9404L24.625 78.5576L23.3359 80.6436L21.9531 82.8818L20.7578 85.0264L19.8438 87.3936L19.832 87.417L19.8203 87.4521L18.7891 89.7607L18.0859 92.21L17.5 94.6123L17.2656 97.0615L17.1934 98.6689L17.2598 98.4629L17.2715 98.416L17.2832 98.3809L18.209 95.8965L18.2441 95.8027L18.291 95.7207L19.5449 93.377L19.8613 92.7793L20.5293 92.6152L22.7793 92.0996L23.1895 92.0059L23.5879 92.1348L26.1074 92.9668L26.2129 93.002L26.3184 93.0605L28.6738 94.2559L28.7793 94.3145L28.8613 94.373L31.0176 95.9199L31.0645 95.9551L31.0996 95.9785L33.1387 97.666L33.2559 97.7598L33.3496 97.8652L35.0371 99.916L35.0605 99.9512L35.0957 99.9863L36.3945 101.76L36.0078 99.7725L35.9844 99.6318L35.7148 97.0068L35.6914 96.8311L35.7148 96.667L35.9961 94.2998L35.4219 92.085L35.4102 92.0146L35.3984 91.9561L34.9883 89.4131L34.9766 89.3662V89.3193L34.7188 86.6943L34.4609 84.1982L33.9805 81.5967L33.9688 81.5029L33.957 81.4209L33.7695 78.7842L33.7578 78.6318L33.7812 78.4795L34.0693 76.2695L33.4238 75.1504L33.2715 74.8926L33.2363 74.5996L32.8848 71.9863L32.873 71.916V71.8789L32.1484 72.1006ZM86.3105 72.0889L86.2051 74.5615L86.1934 74.6787L86.1699 74.7959L85.6895 77.0459L85.8184 79.4717L85.8301 79.6475L85.7949 79.8232L85.3379 82.3076L85.3262 84.8389V84.9561L85.0684 87.5928V87.6162L84.7637 90.2412L84.752 90.3818L84.7051 90.5225L83.9668 92.8779L83.6973 95.1279L83.627 97.7646V97.7998L83.6152 97.8467L83.4043 100.401L83.3623 101.509L83.9824 100.571L84.0527 100.466L84.1465 100.372L85.9512 98.4502L86.0566 98.3447L88.0371 96.5986L88.1191 96.5283L88.2246 96.458L90.4512 95.04L92.584 93.5986L92.6895 93.5166L92.8066 93.4697L95.209 92.3916L95.502 92.251H98.1035L98.877 92.2393L99.334 92.8721L100.881 95.0283L101.01 95.2041L101.08 95.4268L101.912 97.8643L102.649 99.7588L102.625 98.8643L102.121 96.3799L102.109 96.3447V96.3096L101.676 93.7197V93.6846L101.664 93.6494L101.371 91.1885L100.469 88.9385H100.457L99.4727 86.501V86.4893L98.4062 84.251L97.0586 82.1416L97.0469 82.1182L97.0234 82.0947L95.7578 79.9268L94.2344 77.958L92.5938 76.0596L90.7422 74.5479L88.5391 73.2588V73.2471L86.4297 71.9814L86.3398 71.9482L86.3105 72.0889ZM67.7617 58.6104L67.8438 58.9502L67.75 59.29L67.4688 60.4619L67.4561 60.5117L68.1953 62.125L68.2305 62.1953L68.2539 62.2656L69.0977 64.7617L69.1094 64.8086L69.1211 64.8438L69.7891 67.2578L70.7383 69.25L72.4375 70.8555H72.4492L74.3477 72.6719L74.4297 72.7422L74.4883 72.8242L76.1289 74.8867L76.1641 74.9219L76.1875 74.9688L77.6875 77.1367V77.1484L79.1758 79.3398L79.293 79.5156L79.3633 79.7031L80.1836 82.1875L81.0977 84.6484V84.6719L81.9766 87.168L82 87.2852L82.0576 87.5049L82.0801 87.3115L82.3262 84.792L82.3496 82.1553V82.0264L82.373 81.9092L82.8184 79.4131L82.6895 76.9873L82.5332 76.709L81.2441 74.3887L81.1973 74.3184L81.1738 74.248L80.1309 71.8223V71.8105L79.1582 69.5137L77.7754 67.4395L76.2871 65.3184L74.7168 63.4434L72.8184 61.7207L72.7363 61.6387L72.666 61.5566L71.0723 59.6113L69.2793 58.0176L67.29 56.5518L67.7617 58.6104ZM52.0273 56.542L50.3633 58.0537L50.375 58.0654L48.5352 59.9639V59.9756L46.625 61.8857L46.5781 61.9092L44.7148 63.5264L43.3555 65.5654V65.5771L41.8789 67.7568L41.8672 67.7451L40.6016 69.8428L39.5703 72.1865L39.5469 72.21L39.5352 72.2334L38.3633 74.6006L38.3281 74.6826L38.2812 74.7529L37.0508 76.6045L36.7812 78.6787L36.9453 81.1396L37.4141 83.6475L37.4258 83.7061V83.7646L37.6953 86.3896V86.4014L37.7871 87.3037L38.0176 86.4316L38.0293 86.373L38.0527 86.3145L38.9082 83.8418L39.6699 81.3574L39.6934 81.2754L39.7285 81.1934L40.8184 78.7676L40.8652 78.6621L40.9355 78.5566L42.3887 76.3535L42.4355 76.2832L44.0059 74.1621L44.0645 74.0801L44.1465 74.0098L45.9863 72.123L47.6855 70.2012L47.7676 70.1191L47.8613 70.0488L49.5371 68.6543L50.2402 66.5566L50.7793 64.1191L50.8145 63.9785L50.8613 63.8496L51.8457 61.5879L52.3848 59.2793L52.1504 57.0176L52.1387 56.9473V56.877L52.1328 56.5039L52.0273 56.542ZM58.4336 56.0547L57.25 58.1406L57.2383 58.1758L57.2148 58.2109L55.7734 60.4727L55.375 61.082L55.0527 61.1133L54.7637 62.3496L54.7285 62.4785L54.6699 62.6074L53.6738 64.8691L53.1348 67.3535L53.1113 67.4355L53.0879 67.5059L52.3711 69.6641L53.418 71.1299L53.4883 71.2471L54.8125 73.5088L54.8242 73.5322V73.5557L56.0898 75.8877L56.125 75.9463L56.1484 76.0049L57.1797 78.4424L57.2266 78.5479L57.25 78.6533L57.8594 81.0791L58.8789 83.4463L58.9141 83.5283L58.9375 83.6104L59.6758 86.1533L59.6992 86.2119L59.7109 86.2705L59.915 87.248L60.1719 86.2119L60.1836 86.2002V86.1885L60.8516 83.6338L61.4258 81.1025L61.4609 80.9385L61.543 80.7744L62.7031 78.3838L63.6406 76.04L64.5898 73.5908L64.6016 73.5439L64.625 73.4971L65.75 71.0947L65.8672 70.8486L66.0664 70.6494L67.4443 69.3145L67.0234 68.4414L66.9766 68.3242L66.9414 68.1953L66.2266 65.6523V65.6406L65.4062 63.2266H65.3945L64.4688 61.1992L62.9219 59.4062L62.8516 59.3242L62.793 59.2305L61.4219 57.0859L60.1328 55.2812L59.5469 55.0469L58.4336 56.0547ZM96.8516 12.4297L99.3828 13.2383L99.4766 13.2617L101.891 14.2227L102.043 14.2812L102.184 14.375L104.387 15.875L104.691 16.0742L104.867 16.4023L106.133 18.7461L106.168 18.8047L106.203 18.875L107.234 21.3008L107.34 21.5469L107.352 21.8281L107.387 22.4961H108.84L107.352 24.6523L106.941 26.8438L106.918 26.9609L106.883 27.0664L105.992 29.5156L105.934 29.6914L105.828 29.8438L104.34 32.0352L104.211 32.2344L104.012 32.3867L101.891 34.0039L101.668 34.1797L101.387 34.2617L98.8438 34.9648L98.7969 34.9883L98.75 35L96.1719 35.5273L95.9258 35.5742L95.668 35.5391L93.043 35.1875L92.832 35.1641L92.6328 35.082L90.207 34.0039L90.0547 33.9453L89.9258 33.8516L87.7695 32.2812L87.5352 32.1172L87.3828 31.8711L85.9531 29.6211L85.8711 29.4922L85.8125 29.3516L84.8867 26.8789L84.8047 26.668L84.793 26.4453L84.6289 23.832L84.6172 23.7031L84.6289 23.5625L84.9453 20.9609L84.9688 20.7969L85.0156 20.6445L85.8945 18.125L85.9883 17.8672L86.1758 17.6562L87.9102 15.6055L88.0273 15.4648L88.1797 15.3477L90.3711 13.8125L90.5352 13.6836L90.7461 13.6133L93.2539 12.7344L93.418 12.6875L93.582 12.6641L96.2305 12.3711L96.5469 12.3359L96.8516 12.4297ZM94.0508 15.6289L91.918 16.3789L90.0898 17.668L88.6367 19.3672L87.8984 21.4883L87.6289 23.7969L87.7578 25.9883L88.5781 28.1562L89.7617 30.0195L91.5898 31.332L93.6641 32.2461L95.7852 32.5273L98.0586 32.0703L100.309 31.4375L101.984 30.1602L103.215 28.3438L104.023 26.1289L104.434 23.9375L104.363 22.2148L103.496 20.1758L102.395 18.1484L100.625 16.9414L98.375 16.0625V16.0508L96.2422 15.3828L94.0508 15.6289Z" fill="black"/>
</svg>
