<svg width="120" height="120" viewBox="0 0 120 120" fill="none" xmlns="http://www.w3.org/2000/svg">
<path d="M59.1348 100.273L61.7598 100.625H61.7949L61.8301 100.636L64.4199 101.117L64.5254 101.128L64.6191 101.164L67.127 102.007L67.2793 102.054L67.4082 102.136L69.623 103.437L71.9668 104.667L72.1191 104.75L72.248 104.867L74.1934 106.542L75.7988 107.445L77.9082 107.351L77.9551 107.339H78.002L80.5918 107.386L83.0879 107.257L85.666 107.023H85.8066L88.4434 107.011H88.4902L91.127 107.093H91.2324L93.7754 107.339L96.2832 107.199L96.3535 107.187H96.4238L99.0137 107.292L101.592 107.199H101.709L103.982 107.292L106.455 106.789L106.842 106.707L107.217 106.824L109.725 107.632L110.275 107.808L110.557 108.3L111.471 109.847L111.611 110.093L111.658 110.375L112.068 113.035L112.104 113.269L112.068 113.515L111.6 116.222L111.377 117.558L110.018 117.464L107.463 117.265L104.99 117.617L104.838 117.64L104.674 117.628L102.213 117.429L99.6934 117.734L99.459 117.757L99.2363 117.722L96.7051 117.242H94.3262L91.8301 117.664L91.6777 117.687L91.5254 117.675L88.8887 117.558H88.8066L88.7246 117.546L86.334 117.171L83.9668 117.652L83.7441 117.687L83.5098 117.664L80.9551 117.371H78.4121L73.1387 117.464H73.127L70.4785 117.488L70.4668 117.476L67.9355 117.652L67.7363 117.664L67.5605 117.628L65.1582 117.183L62.7324 117.464L62.6035 117.488L62.4746 117.476L59.8379 117.359V117.347L57.3652 117.523L57.2363 117.535L57.1074 117.523L54.623 117.242L52.1504 117.523H52.0801L49.4434 117.687L49.291 117.699L49.1504 117.675L46.6777 117.335L44.0996 117.394H44.041L41.4043 117.335V117.324L38.7793 117.312H38.7676L36.1426 117.277L33.6465 117.5H33.5645L30.9277 117.593H30.8105L28.209 117.476L25.5723 117.453H25.5254L25.4785 117.441L23.0059 117.265L20.3809 117.371H20.2988L17.6621 117.347L15.0371 117.371L15.0254 117.359L12.5176 117.582L12.3184 117.593L12.1309 117.558L9.55273 117.113L8.5332 116.925L8.3457 115.917L7.90039 113.609L7.87695 113.515V113.421L7.70117 110.785L7.66602 110.328L7.88867 109.941L9.08398 107.855L9.48242 107.164L10.2793 107.105L12.834 106.917L12.9277 108.3L12.9629 108.312L13.0215 108.324L13.0332 108.312L13.3496 106.847L14.0293 106.976L16.373 107.375L18.8691 107.445L21.4707 107.292H21.5762L21.6699 107.304L24.1895 107.48L26.7324 107.281L29.3691 107.082H29.5684L32.0762 107.222L34.6426 107.011L34.7715 107L34.9004 107.011L37.5371 107.257H37.5723L39.8691 107.515L42.248 107.023L42.3887 106.988H42.5293L44.6387 106.941L46.3145 105.98L48.2363 104.41L48.3652 104.304L48.5059 104.234L50.8379 103.027L53.1465 101.808L53.2988 101.726L53.4746 101.691L56.0176 101.035L58.5137 100.32L58.8184 100.226L59.1348 100.273ZM20.3105 114.359L22.8887 114.265H23.0527L25.7012 114.453H25.6895L28.2441 114.488H28.291L30.8809 114.582L33.459 114.5L36.0254 114.277H36.1777L38.8145 114.312H38.8027L41.4395 114.335H41.4629L44.0645 114.382L46.6777 114.335L46.7949 114.324L46.9121 114.347L49.3965 114.687L51.834 114.535L54.4707 114.242L54.6348 114.23L54.7871 114.242L57.3301 114.523L59.8145 114.359H59.9785L62.4395 114.476L65.0176 114.171L65.2402 114.148L65.4629 114.195L67.9121 114.64L70.373 114.488H70.4551L73.0801 114.464L75.7285 114.417L78.3652 114.371H78.4004L81.0371 114.382H81.2012L83.5918 114.652L86.0293 114.183L86.2871 114.136L86.5449 114.171L89.1348 114.57L91.5137 114.664L93.9863 114.265L94.1035 114.253H94.2207L96.8691 114.242H97.0098L97.1504 114.265L99.5645 114.722L101.967 114.441L102.119 114.417L102.26 114.429L104.744 114.617L107.229 114.289L107.381 114.265L107.533 114.277L108.869 114.359L109.068 113.257L108.729 111.113L108.26 110.316L106.666 109.8L104.439 110.269L104.252 110.304H104.076L101.627 110.199L99.0605 110.292L99.002 110.304L98.9434 110.292L96.3887 110.187L93.8105 110.339L93.6934 110.351L93.5879 110.339L91.0449 110.082V110.093L88.4082 110.011H85.8184L83.2988 110.257H83.2402L80.7324 110.398H80.627L78.002 110.339L75.5059 110.457L75.084 110.48L74.6973 110.269L72.5762 109.074L72.4355 108.992L72.3301 108.898L70.4316 107.257L68.2285 106.097L68.1934 106.085L68.1699 106.062L66.0137 104.796L63.7285 104.023L61.3262 103.578L59.0645 103.273L56.8027 103.929L56.7793 103.941H56.7559L54.3652 104.55L52.2207 105.687L52.209 105.699L50.0176 106.824L48.1191 108.394L48.0254 108.464L47.9199 108.535L45.8105 109.742L45.4707 109.941H45.084L42.7051 109.976L40.2441 110.503L40.0098 110.55L39.7637 110.527L37.2324 110.246V110.234L34.8066 110.011L32.252 110.222L32.1465 110.234L32.041 110.222L29.5098 110.082L26.9551 110.269L26.9668 110.281L24.3184 110.48L24.2129 110.492L24.0957 110.48L21.541 110.292L19.0215 110.457H18.8809L16.2207 110.375H16.127L16.0332 110.351L13.4902 109.941H13.4551L13.4316 109.929L13.2441 109.882L13.0566 109.906L11.2871 110.035L10.7129 111.042L10.8535 113.128L11.0879 114.324L12.4707 114.57L14.9082 114.371H15.0254L17.6621 114.347H17.6855L20.3105 114.359Z" fill="black"/>
<path d="M33.8477 69.6984L34.0234 69.9328L34.8906 71.1516L34.8086 71.2101L34.6094 71.3508L34.375 71.4211L32.1484 72.1008L30.332 73.3898L28.375 75.1008L28.3867 75.1125L26.4766 76.9172L26.4531 76.9406L24.625 78.5578L23.3359 80.6437L21.9531 82.882L20.7578 85.0266L19.8438 87.3937L19.832 87.4172L19.8203 87.4523L18.7891 89.7609L18.0859 92.2101L17.5 94.6125L17.2656 97.0617L17.1602 99.4406L17.3008 101.948L17.9336 104.257L17.9922 104.503L17.9805 104.749L17.8164 107.362L17.7578 108.405L16.2578 108.312L14.7578 108.23L14.8164 107.187V107.175L14.9805 104.808L14.3594 102.546L14.3242 102.394L14.3125 102.23L14.1602 99.5461V99.3937L14.2773 96.9328V96.8625L14.5234 94.2258L14.5352 94.1203L14.5586 94.0148L15.1914 91.4367V91.4016L15.2031 91.3781L15.9414 88.8351L15.9648 88.7414L16.0117 88.6594L17.0781 86.2453L18.0156 83.843L18.0508 83.7609L18.0977 83.6789L19.3633 81.3703L19.375 81.3234L19.3984 81.2883L20.793 79.0617V79.05L22.1992 76.8L22.3164 76.6242L22.4688 76.4836L24.4492 74.7023L26.3242 72.9328L26.3594 72.8976L28.3398 71.1398L28.3984 71.0812L28.4688 71.0344L30.6367 69.5109L30.8359 69.3703L31.0586 69.3L33.5078 68.55L33.8477 69.6984Z" fill="black"/>
<path d="M87.5781 69.2041L87.707 69.251L87.8359 69.333L90.0625 70.6689H90.0742L92.3477 72.0166L92.4414 72.0752L92.5234 72.1455L94.5859 73.8096L94.6797 73.8916L94.7734 73.9971L96.4961 75.9893L96.5312 76.0244L96.5547 76.0596L98.1719 78.1338L98.2891 78.2979L99.5781 80.5244H99.5898L101.008 82.7393L101.055 82.8213L101.102 82.915L102.215 85.2939L102.238 85.3291L102.25 85.376L103.246 87.8135L104.242 90.2627L104.324 90.4619L104.348 90.6611L104.641 93.2275L105.051 95.7705L105.59 98.3486L105.613 98.4775L105.625 98.6182L105.695 101.243L105.707 101.583L105.566 101.899L104.523 104.231L103.375 103.716L103.152 103.728L101.652 103.751V103.317L101.781 103.013L102.684 100.985L102.625 98.8643L102.121 96.3799L102.109 96.3447V96.3096L101.676 93.7197V93.6846L101.664 93.6494L101.371 91.1885L100.469 88.9385H100.457L99.4727 86.501V86.4893L98.4062 84.251L97.0586 82.1416L97.0469 82.1182L97.0234 82.0947L95.7578 79.9268L94.2344 77.958L92.5938 76.0596L90.7422 74.5479L88.5391 73.2588V73.2471L86.4297 71.9814L85.0938 71.4893L84.1328 71.1494L84.0977 70.1299V69.9775L85.5977 69.9307H85.6445L86.1133 68.6768L87.5781 69.2041Z" fill="black"/>
<path d="M46.5176 106.814L46.6699 106.826L46.834 106.861L49.0137 107.424L51.416 107.306L54.0645 107.119H54.1465L56.7949 107.107H56.877L56.959 107.119L59.4199 107.4L61.9512 107.177L62.0098 107.166H62.0566L64.7051 107.142H64.7285L67.3066 107.154L69.9551 107.06H70.0605L72.2871 107.142L72.6738 106.955L73.9629 109.674L73.2598 110.002L72.9316 110.154L72.5684 110.142L70.002 110.06L67.4121 110.154H67.3535L64.7285 110.142L62.1973 110.154L59.5723 110.388L59.4199 110.4L59.2793 110.388L56.7363 110.107H54.252L51.6152 110.295H51.5918L48.9551 110.424L48.7324 110.435L48.5098 110.377L46.0957 109.767L46.3535 108.771L46.3652 108.314L46.4121 106.814H46.5176Z" fill="black"/>
<path d="M53.5273 54.1281L53.7031 54.3273L54.6523 55.4991L54.5703 55.5577L54.3711 55.7218L54.125 55.8038L52.0273 56.5421L50.3633 58.0538L50.375 58.0656L48.5352 59.964V59.9757L46.625 61.8859L46.5781 61.9093L44.7148 63.5265L43.3555 65.5656V65.5773L41.8789 67.757L41.8672 67.7452L40.6016 69.8429L39.5703 72.1866L39.5469 72.2101L39.5352 72.2335L38.3633 74.6007L38.3281 74.6827L38.2812 74.7531L37.0508 76.6046L36.7812 78.6788L36.9453 81.1398L37.4141 83.6476L37.4258 83.7062V83.7648L37.6953 86.3898V86.4015L37.9531 88.9327L38.3516 91.4523L38.9727 93.8312L39.043 94.1007L39.0078 94.382L38.7031 96.8663L38.9609 99.2687L39.4648 101.8L39.5234 102.116L39.4531 102.433L38.9375 104.612L39.6523 106.734L39.6992 106.898L39.7227 107.073L39.8398 108.234L38.3398 108.386L36.8516 108.526L36.7461 107.53L35.9609 105.187L35.832 104.788L35.9258 104.366L36.4531 102.058L36.0078 99.7726L35.9844 99.632L35.7148 97.007L35.6914 96.8312L35.7148 96.6671L35.9961 94.2999L35.4219 92.0851L35.4102 92.0148L35.3984 91.9562L34.9883 89.4132L34.9766 89.3663V89.3195L34.7188 86.6945L34.4609 84.1984L33.9805 81.5968L33.9688 81.5031L33.957 81.421L33.7695 78.7843L33.7578 78.632L33.7812 78.4796L34.1211 75.8781L34.168 75.5382L34.3555 75.257L35.7148 73.171L36.8516 70.8976L37.9062 68.5538L37.9414 68.4718L37.9883 68.3898L39.3477 66.1398L39.3945 66.0695L40.8711 63.8898L42.3477 61.6984L42.4531 61.5343L42.6055 61.4054L44.6094 59.6476L46.3789 57.8781L48.2188 55.9796L48.2891 55.9093L50.2461 54.1281L50.4688 53.9171L50.75 53.8234L53.1289 52.9796L53.5273 54.1281Z" fill="black"/>
<path d="M65.0254 51.0328L65.1426 51.1266L65.2363 51.2321L66.5957 52.8961L68.6699 53.8805L68.7988 53.9391L68.916 54.0211L71.0488 55.5914L71.1074 55.6266L71.166 55.6735L73.1348 57.4313L73.2285 57.5133L73.2988 57.6071L74.8457 59.4938L76.8027 61.275L76.873 61.3453L76.9316 61.4274L78.6426 63.443L78.6777 63.5016L78.7246 63.5485L80.2363 65.7164L80.248 65.7281V65.7516L81.7246 67.9547L81.8066 68.0719L81.8535 68.2008L82.8965 70.6383L83.8926 72.9938L85.1582 75.2438L84.0098 75.8766L84.0215 75.9352L84.3262 77.4117L84.1504 77.4469L83.0723 77.6696L82.5332 76.7086L81.2441 74.3883L81.1973 74.318L81.1738 74.2477L80.1309 71.8219V71.8102L79.1582 69.5133L77.7754 67.4391L76.2871 65.318L74.7168 63.443L72.8184 61.7203L72.7363 61.6383L72.666 61.5563L71.0723 59.611L69.2793 58.0172L67.2754 56.5406L65.0254 55.486L64.7207 55.3453L64.498 55.0758L62.916 53.1422L63.6777 52.5094L64.9434 50.9625L65.0254 51.0328Z" fill="black"/>
<path d="M59.8047 51.9183L61.6797 52.6801L62.0781 52.8441L62.3359 53.1957L63.8594 55.3402L63.8828 55.3754L63.9062 55.3988L65.2539 57.5199L66.8828 59.3832L67.0234 59.5472L67.1055 59.7465L68.1953 62.1254L68.2305 62.1957L68.2539 62.266L69.0977 64.7621L69.1094 64.809L69.1211 64.8441L69.7891 67.2582L70.7383 69.2504L72.4375 70.8558H72.4492L74.3477 72.6722L74.4297 72.7426L74.4883 72.8246L76.1289 74.8871L76.1641 74.9222L76.1875 74.9691L77.6875 77.1371V77.1488L79.1758 79.3402L79.293 79.516L79.3633 79.7035L80.1836 82.1879L81.0977 84.6488V84.6722L81.9766 87.1683L82 87.2855L82.6445 89.7465L83.5234 91.9144L83.5469 91.9613L83.5586 91.9965L83.5938 92.0902L82.1758 92.5707L80.7461 93.0629V93.0394L79.8438 90.7894L79.8086 90.6957L79.7852 90.6136L79.1406 88.1644L78.2734 85.6801L77.3711 83.2191L77.3477 83.1722L76.5859 80.8754L75.2031 78.8246V78.8129L73.7734 76.7504L72.2031 74.7582L70.375 73.0238V73.0355L68.4766 71.2426L68.2773 71.0551L68.1602 70.7972L67.0234 68.4418L66.9766 68.3246L66.9414 68.1957L66.2266 65.6527V65.641L65.4062 63.2269H65.3945L64.4688 61.1996L62.9219 59.4066L62.8516 59.3246L62.793 59.2308L61.4219 57.0863L60.1328 55.2816L59.5469 55.0472L58.4336 56.0551L57.25 58.141L57.2383 58.1761L57.2148 58.2113L55.7734 60.473L55.375 61.0824L54.6602 61.1527L54.1328 61.2113L53.9805 59.7113L53.9453 59.2894L53.2422 58.8558L54.6836 56.5941L55.9727 54.3441L56.0898 54.1449L56.2656 53.9808L58.2344 52.1996L58.9375 51.5668L59.8047 51.9183Z" fill="black"/>
<path d="M55.3262 52.2601L55.4902 52.2952L56.9434 52.6585L56.9199 52.7523L56.8145 53.1624L56.5098 53.4671L55.1035 54.8265L55.127 56.8069L55.3965 59.2444L55.4316 59.5023L55.373 59.7484L54.7637 62.3499L54.7285 62.4788L54.6699 62.6077L53.6738 64.8694L53.1348 67.3538L53.1113 67.4359L53.0879 67.5062L52.2559 70.014L52.1152 70.4241L51.7871 70.6937L49.8301 72.2991L48.1777 74.1741L48.1309 74.221L46.3848 75.9905L44.8496 78.0648L43.502 80.0921L42.5176 82.2952L41.7559 84.7679V84.7913L41.7441 84.8148L40.8887 87.2991L40.2559 89.7366L40.2441 89.7601L40.2324 89.7952L39.3301 92.7484L39.002 93.0296L38.3574 93.5804L37.3848 92.4319L36.4121 91.2952L36.7168 91.0374L37.3613 88.9163L38.0176 86.4319L38.0293 86.3734L38.0527 86.3148L38.9082 83.8421L39.6699 81.3577L39.6934 81.2757L39.7285 81.1937L40.8184 78.7679L40.8652 78.6624L40.9355 78.5569L42.3887 76.3538L42.4355 76.2835L44.0059 74.1624L44.0645 74.0804L44.1465 74.0101L45.9863 72.1234L47.6855 70.2015L47.7676 70.1194L47.8613 70.0491L49.5371 68.6546L50.2402 66.5569L50.7793 64.1194L50.8145 63.9788L50.8613 63.8499L51.8457 61.5882L52.3848 59.2796L52.1504 57.0179L52.1387 56.9476V56.8773L52.1035 54.2171V53.5726L52.5605 53.1273L54.4238 51.3226L55.3262 52.2601Z" fill="black"/>
<path d="M68.7148 69.7231L68.9961 69.8638L70.3203 70.5669L70.2734 70.6606L70.168 70.8599L69.9922 71.0356L68.3398 72.6177L67.3789 74.6685L66.4297 77.1411V77.1646L65.4453 79.6021L65.4219 79.6606L65.3984 79.7075L64.2969 81.9575L63.7695 84.3481V84.3716L63.7578 84.4067L63.0781 86.9263L62.4453 89.4927L62.4219 89.5864L61.8711 91.2856L61.2617 93.1958L59.5977 92.0591L59.4453 91.9419L60.2656 90.7466L59.0234 90.3599L59.5625 88.6724L60.1719 86.2114L60.1836 86.1997V86.188L60.8516 83.6333L61.4258 81.1021L61.4609 80.938L61.543 80.7739L62.7031 78.3833L63.6406 76.0396L64.5898 73.5903L64.6016 73.5435L64.625 73.4966L65.75 71.0942L65.8672 70.8481L66.0664 70.6489L67.9062 68.8677L68.7148 69.7231Z" fill="black"/>
<path d="M53.418 71.1294L53.4883 71.2466L54.8125 73.5083L54.8242 73.5317V73.5552L56.0898 75.8872L56.125 75.9458L56.1484 76.0044L57.1797 78.4419L57.2266 78.5474L57.25 78.6528L57.8594 81.0786L58.8789 83.4458L58.9141 83.5278L58.9375 83.6099L59.6758 86.1528L59.6992 86.2114L59.7109 86.27L60.2148 88.6841L60.7773 90.1138L61.4102 91.6958L59.7461 92.1177L59.5586 92.1646L59.1953 90.7349L57.9883 91.2153L57.3906 89.7153L57.3438 89.5981L57.3203 89.4692L56.7695 86.8794V86.8677L56.0781 84.5474L55.082 82.1919L55.0352 82.0864L55 81.9692L54.3555 79.4497L53.3828 77.1763L52.1875 74.9849V74.9731L50.9688 72.8638L49.5156 70.8247L49.457 70.7427L49.3633 70.5552L50.6875 69.8638L51.3203 69.5356L51.9531 69.0786L53.418 71.1294Z" fill="black"/>
<path d="M58.7402 89.63L61.0723 89.8761L61.4238 89.9113L61.7168 90.0988L63.9434 91.5167L64.002 91.5519L64.0605 91.5988L66.1465 93.2159H66.1348L68.2324 94.798L68.2441 94.8214L70.3418 96.4503L70.4355 96.5323L70.5293 96.6261L72.3105 98.5948L72.334 98.6183L72.3574 98.6534L74.0215 100.716L74.0684 100.763L74.1035 100.81L75.5918 103.001L75.6152 103.025L77.0566 105.239L77.1738 105.415L77.2324 105.614L77.9707 107.946L76.7402 108.333L76.752 108.38L76.8691 109.88L76.6465 109.892L75.4629 109.985L75.0996 108.849L74.4316 106.704L73.0957 104.665V104.653L71.6895 102.603L70.084 100.61L68.3848 98.7355L66.3926 97.1769V97.1652L64.3184 95.5948H64.3066L64.2949 95.5831L62.2676 94.0011L60.416 92.8292L58.9863 92.6769L57.3574 93.8839L57.334 93.8956L57.3105 93.9191L55.248 95.3253L53.3145 96.9191L51.6035 98.8292L51.5332 98.9113L51.4629 98.9698L49.5527 100.61L48.0176 102.462L46.6582 104.583L46.6699 104.595L45.3574 106.833L44.1738 109.025L44.1387 109.083L44.0918 109.153L44.0332 109.235L42.8027 108.38L42.0059 107.829L41.5371 107.583L42.7324 105.403L42.7441 105.38L42.7559 105.368L44.0801 103.083L44.1035 103.036L45.5215 100.798L45.5684 100.728L45.627 100.657L47.3145 98.6066L47.3965 98.5011L47.4902 98.4191L49.4355 96.7433L51.1348 94.8566L51.2051 94.7863L51.2871 94.7159L53.3262 93.0167L53.373 92.9698L53.4316 92.9347L55.623 91.4347L57.6973 89.9113L58.166 89.5714L58.7402 89.63Z" fill="black"/>
<path d="M84.4473 69.2295L85.3613 69.3115L86.8496 69.4639L86.8379 69.5693V69.6514L86.8145 69.7217L86.3105 72.0889L86.2051 74.5615L86.1934 74.6787L86.1699 74.7959L85.6895 77.0459L85.8184 79.4717L85.8301 79.6475L85.7949 79.8232L85.3379 82.3076L85.3262 84.8389V84.9561L85.0684 87.5928V87.6162L84.7637 90.2412L84.752 90.3818L84.7051 90.5225L83.9668 92.8779L83.6973 95.1279L83.627 97.7646V97.7998L83.6152 97.8467L83.4043 100.401L83.3105 102.897L83.7441 105.347L83.8027 105.698L83.6973 106.05L82.9355 108.511L82.9004 108.616L82.8535 108.71L82.7012 109.026L81.3535 108.382L79.9941 107.737L80.0996 107.538L80.7207 105.499L80.334 103.237L80.3105 103.085V102.921L80.416 100.296V100.237L80.627 97.6006L80.6973 95.0459V94.9756L80.709 94.9053L81.002 92.3975L81.0254 92.2568L81.0605 92.1279L81.7988 89.749L82.0801 87.3115L82.3262 84.792L82.3496 82.1553V82.0264L82.373 81.9092L82.8184 79.4131L82.6895 76.9873L82.6777 76.7881L82.7129 76.6006L83.2051 74.2451L83.334 71.7842V71.6553L83.3574 71.5381L83.8848 69.1006L84.4473 69.2295Z" fill="black"/>
<path d="M99.334 92.8717L100.881 95.028L101.01 95.2037L101.08 95.4264L101.912 97.8639L102.838 100.243L104.021 102.493L104.115 102.704L104.959 105.176L105.064 105.481L105.029 105.786L104.83 108.34L103.6 108.235L103.365 108.317L101.924 108.739L101.9 108.645L101.818 108.376L101.842 108.094L102.018 105.844L101.291 103.77L100.143 101.567L100.107 101.497L100.084 101.415L99.1113 98.9655L99.0879 98.8951L98.3145 96.5983L97.3535 95.2506H96.1582L94.1895 96.1295L92.0918 97.5475L92.0801 97.5592L92.0566 97.5709L89.9238 98.9186L88.084 100.559L86.3965 102.352L85.0254 104.438L84.9434 104.555L84.8496 104.661L83.4199 106.114L81.4277 108.165L80.877 105.364L80.8301 105.153L82.166 104.883L81.2754 104.028L82.6113 102.645L83.9824 100.571L84.0527 100.465L84.1465 100.372L85.9512 98.4498L86.0566 98.3444L88.0371 96.5983L88.1191 96.528L88.2246 96.4576L90.4512 95.0397L92.584 93.5983L92.6895 93.5162L92.8066 93.4694L95.209 92.3912L95.502 92.2506H98.1035L98.877 92.2389L99.334 92.8717Z" fill="black"/>
<path d="M23.5879 92.1349L26.1074 92.9669L26.2129 93.0021L26.3184 93.0607L28.6738 94.256L28.7793 94.3146L28.8613 94.3732L31.0176 95.92L31.0645 95.9552L31.0996 95.9786L33.1387 97.6661L33.2559 97.7599L33.3496 97.8654L35.0371 99.9161L35.0605 99.9513L35.0957 99.9865L36.5723 102.002L38.3184 103.971L37.2871 104.873L38.623 105.447L38.5762 105.565L37.6504 107.744L36.0801 105.963L34.3223 103.994L34.2754 103.936L34.2402 103.889L32.6699 101.756L31.0879 99.8575L29.1895 98.299V98.2872L27.1855 96.8575L25.0059 95.756L23.0605 95.1115L21.8535 95.3927L20.9863 97.0216L20.0957 99.424L19.3457 101.861L19.2754 102.096L19.123 102.295L17.6582 104.334L17.0723 103.924L16.3926 103.549L15.0801 102.834L15.127 102.752L15.1621 102.658L15.2207 102.588L16.5332 100.76L17.2598 98.463L17.2715 98.4161L17.2832 98.381L18.209 95.8966L18.2441 95.8029L18.291 95.7208L19.5449 93.3771L19.8613 92.7794L20.5293 92.6154L22.7793 92.0997L23.1895 92.006L23.5879 92.1349Z" fill="black"/>
<path d="M112.078 98.5808L113.379 99.3191L113.332 99.4011L112.172 101.546V101.557L112.16 101.569L110.848 103.866L109.582 106.163L109.535 106.257L108.223 108.284L108.07 108.753L106.652 108.249L105.246 107.745L105.457 107.135L105.516 106.983L105.609 106.831L107.004 104.639L108.234 102.401V102.389L108.246 102.378L109.559 100.081L110.707 97.9597V97.948L110.719 97.9363L110.766 97.8425L112.078 98.5808Z" fill="black"/>
<path d="M8.58594 97.6139L8.64453 97.6959L8.67969 97.7897L9.54688 99.9459L11 101.938L12.5938 104.047L12.6289 104.094L12.6523 104.141L14.082 106.38L14.2578 106.649L14.3047 106.977L14.4453 108.032L12.9688 108.243L11.4805 108.454L11.3633 107.715L10.1211 105.758H10.1094L8.59766 103.743V103.731L8.58594 103.719L7.02734 101.587L6.92188 101.446L6.85156 101.27L5.90234 98.9264L6.61719 98.6217L7.23828 98.2701L8.53906 97.5201L8.58594 97.6139Z" fill="black"/>
<path d="M110.207 96.709L112.762 96.8848L112.703 97.7637L112.762 98.3731L112.902 99.8614L112.809 99.8731L112.68 99.8848H112.551L110.172 99.7208L107.828 100.213H107.816L105.227 100.729L105.004 100.775L104.793 100.752L104.113 100.693L104.254 99.2051L104.395 97.7051L104.84 97.752L107.23 97.2715V97.2833L109.797 96.7442L109.996 96.6973L110.207 96.709Z" fill="black"/>
<path d="M10.2109 97.0548L12.8477 97.2775L13.0117 97.3009L15.4844 97.7931L15.3555 98.3907L15.2969 99.2697L15.168 100.77L15.0742 100.758L14.9102 100.734L12.5078 100.254L10.082 100.043L7.92578 100.242L6.92969 100.324L6.46094 99.4337L6.41406 99.3282L7.75 98.6486L7.78516 98.6251L7.66797 97.254L9.95312 97.0548L10.082 97.0431L10.2109 97.0548Z" fill="black"/>
<path d="M35.7207 68.986L35.7441 69.0914V69.1969L35.8613 71.5875L36.166 73.9078L36.8926 75.1735L37.3965 76.0406L36.7871 76.8375L36.7168 76.9196L35.5332 76.0055L35.4863 75.9703L34.3027 76.6735L33.4238 75.15L33.2715 74.8922L33.2363 74.5992L32.8848 71.986L32.873 71.9156V71.8571L32.7441 69.3492L33.541 69.3024L34.2324 69.1735L35.6973 68.8922L35.7207 68.986Z" fill="black"/>
<path d="M67.4102 54.2627V54.4502L67.2812 56.5127L67.7617 58.6104L67.8438 58.9502L67.75 59.29L67.4688 60.4619L67.0352 62.2314L65.3828 61.4697L65.2891 61.4229L65.8984 60.0752L64.5508 59.7471L64.7617 58.9268L64.3164 56.9697L64.2695 56.7588L64.2812 56.5479L64.4102 54.2627H67.4102Z" fill="black"/>
<path d="M95.3164 114.254L97.8945 114.605L100.273 114.711L102.793 114.277L102.91 114.266H103.027L105.664 114.242H105.816L105.969 114.266L108.406 114.746L110.809 114.5L110.891 114.488H110.973L112.016 114.5L112.004 116L111.98 117.5L110.984 117.488L108.477 117.746L108.254 117.77L108.031 117.734L105.57 117.242L103.145 117.254L100.648 117.688L100.496 117.711L100.332 117.699L97.6953 117.594H97.625L97.5547 117.582L95.1523 117.242L92.7617 117.711L92.5273 117.758L92.293 117.734L89.7383 117.406L87.207 117.418L87.1953 117.406L84.6055 117.488H84.5938L81.957 117.547H81.9336L79.3672 117.559L79.3789 117.57L76.7422 117.746L76.5547 117.758L73.9297 117.266L71.5391 117.547L71.4102 117.559H71.2812L68.7266 117.418L66.1719 117.582H66.043L65.9141 117.57L63.418 117.289L60.957 117.559H60.8867L58.25 117.711L58.0977 117.723L57.957 117.699L55.4141 117.348L52.9062 117.406H52.8477L50.2109 117.348V117.336H47.5742L44.9492 117.289L42.4531 117.512L42.418 117.523H42.3711L39.7344 117.617H39.6172L36.9805 117.512V117.5L34.3906 117.488H34.3438L34.2969 117.477L31.7188 117.301L29.1875 117.43H29.1055L26.4688 117.418V117.406L23.9609 117.43L21.3242 117.664L21.1836 117.676L21.0312 117.664L18.5 117.383L15.9219 117.395V117.383L13.3789 117.559H13.3672L13.3555 117.57L10.707 117.688L10.6133 117.699L10.5312 117.688L7.98828 117.5L8 117.277V114.5H8.21094L10.6719 114.699L13.1797 114.582V114.57L15.8164 114.395H15.9102L18.5469 114.383L18.6406 114.371L18.7227 114.383L21.2305 114.664L23.7148 114.453L23.7617 114.441H23.8203L26.4688 114.418H26.4922L29.0469 114.43L31.6953 114.312L31.7773 114.301L31.8594 114.312L34.5078 114.488L34.4961 114.5L37.0508 114.512H37.0977L39.6875 114.617L42.1836 114.535L44.832 114.289H44.9844L47.6211 114.336L47.6094 114.348H50.2695L52.8711 114.406L55.4844 114.348H55.6133L55.7305 114.359L58.2148 114.723L60.7109 114.559V114.57L63.2891 114.289L63.4414 114.277L63.6055 114.289L66.0898 114.582L68.6328 114.43L68.7148 114.418L68.7969 114.43L71.3281 114.559L73.8242 114.266L74.0586 114.23L74.2812 114.277L76.7305 114.734L79.1797 114.582L79.2266 114.57H79.2617L81.8867 114.559V114.547L84.5234 114.488L87.1602 114.418H87.1953L89.832 114.406H89.9375L90.0312 114.418L92.4219 114.734L94.8359 114.266L95.082 114.219L95.3164 114.254Z" fill="black"/>
<path d="M96.8516 12.4297L99.3828 13.2383L99.4766 13.2617L101.891 14.2227L102.043 14.2812L102.184 14.375L104.387 15.875L104.691 16.0742L104.867 16.4023L106.133 18.7461L106.168 18.8047L106.203 18.875L107.234 21.3008L107.34 21.5469L107.352 21.8281L107.387 22.4961H108.84L107.352 24.6523L106.941 26.8438L106.918 26.9609L106.883 27.0664L105.992 29.5156L105.934 29.6914L105.828 29.8438L104.34 32.0352L104.211 32.2344L104.012 32.3867L101.891 34.0039L101.668 34.1797L101.387 34.2617L98.8438 34.9648L98.7969 34.9883L98.75 35L96.1719 35.5273L95.9258 35.5742L95.668 35.5391L93.043 35.1875L92.832 35.1641L92.6328 35.082L90.207 34.0039L90.0547 33.9453L89.9258 33.8516L87.7695 32.2812L87.5352 32.1172L87.3828 31.8711L85.9531 29.6211L85.8711 29.4922L85.8125 29.3516L84.8867 26.8789L84.8047 26.668L84.793 26.4453L84.6289 23.832L84.6172 23.7031L84.6289 23.5625L84.9453 20.9609L84.9688 20.7969L85.0156 20.6445L85.8945 18.125L85.9883 17.8672L86.1758 17.6562L87.9102 15.6055L88.0273 15.4648L88.1797 15.3477L90.3711 13.8125L90.5352 13.6836L90.7461 13.6133L93.2539 12.7344L93.418 12.6875L93.582 12.6641L96.2305 12.3711L96.5469 12.3359L96.8516 12.4297ZM94.0508 15.6289L91.918 16.3789L90.0898 17.668L88.6367 19.3672L87.8984 21.4883L87.6289 23.7969L87.7578 25.9883L88.5781 28.1562L89.7617 30.0195L91.5898 31.332L93.6641 32.2461L95.7852 32.5273L98.0586 32.0703L100.309 31.4375L101.984 30.1602L103.215 28.3438L104.023 26.1289L104.434 23.9375L104.363 22.2148L103.496 20.1758L102.395 18.1484L100.625 16.9414L98.375 16.0625V16.0508L96.2422 15.3828L94.0508 15.6289Z" fill="black"/>
</svg>
