<svg width="120" height="120" viewBox="0 0 120 120" fill="none" xmlns="http://www.w3.org/2000/svg">
<path d="M60.2227 6.32422L63.082 6.86328L66.0586 7.10938H66.0938L66.1289 7.12109L69.1055 7.51953L69.2109 7.53125L69.3047 7.56641L72.1641 8.36328L74.9883 8.76172L77.9531 9.16016L78.3047 9.20703L78.5977 9.40625L81.082 11.1172L81.5273 11.4336L81.6797 11.9609L82.4648 14.8789L82.5703 15.2773L82.5 15.5352L82.3008 18.3711L82.4297 21.2539L82.6055 24.2539V24.3242L82.6172 27.3242L82.6289 27.4062L82.6172 27.4766L82.3359 30.3008L82.5586 33.2188V33.3242L82.582 36.3242V36.3477L82.5703 39.3477L82.6875 42.2773L82.6992 42.3477L82.6875 42.4297L82.5117 45.4297L82.4883 48.3477V48.3945L82.3828 51.3945L82.4766 54.2188L82.7109 57.2188V57.3594L82.6641 60.3594L82.6523 63.3477V63.3711L82.5938 66.3711L82.6523 69.3125V69.418L82.6406 69.5234L82.2773 72.3711L82.4414 75.2539H82.4297L82.7109 78.1953L82.7227 78.3477L82.7109 78.4883L82.418 81.3242L82.5703 84.2539L82.582 84.3359L82.5703 84.4062L82.4414 87.2891L82.7461 90.1836L82.7578 90.3828L82.7344 90.582L82.2656 93.3711L82.4297 96.2539V96.4062L82.2773 99.3828L82.2656 99.7695L82.0664 100.098L80.5195 102.605L80.2852 102.992L79.8633 103.191L77.1445 104.422L76.8633 104.551L76.5469 104.562L73.5352 104.598H73.4414L73.3477 104.586L70.5469 104.27L67.7695 104.738L67.5586 104.773L67.3359 104.75L64.418 104.398L61.6055 104.293L58.7344 104.727L58.6289 104.738H58.5234L55.5234 104.762H55.3945L55.2656 104.738L52.4414 104.246L49.6523 104.504L49.5352 104.516L49.4062 104.504L46.5117 104.293L43.6641 104.621L43.1953 104.668L42.7734 104.434L40.1836 102.992L39.8555 102.805L39.6562 102.488L38.1328 100.098L37.9922 99.875L37.9336 99.6055L37.3125 96.6875L37.2773 96.5469V96.3945L37.2305 93.3945V93.3008L37.2422 93.1953L37.582 90.3594L37.3711 87.4766V87.2891L37.5352 84.2891L37.4297 81.418V81.3125L37.5352 78.4531L37.3828 75.4531V75.3477L37.3945 75.2422L37.6406 72.2422L37.7109 69.3711V66.4883L37.4766 63.4883V63.4648L37.3008 60.4648L37.2891 60.3828V60.2891L37.4531 57.2891L37.3711 54.418L37.3594 54.3008L37.3828 54.1836L37.7578 51.2656L37.5938 48.4883L37.3594 45.4883L37.3477 45.3828L37.3594 45.2656L37.5703 42.2656L37.4883 39.418L37.3828 36.418V36.3359L37.3945 36.2422L37.6289 33.418L37.3008 30.5469L37.2773 30.4297L37.2891 30.3008L37.418 27.3477L37.2539 24.4531L37.2422 24.3711L37.2539 24.2891L37.4062 21.2891L37.3125 18.418L37.3008 18.2773L37.3242 18.1484L37.7812 15.1484V15.1016L37.793 15.0547L38.4023 12.2422L38.5078 11.7852L38.8477 11.457L41.0508 9.39453L41.4023 9.05469L41.8945 8.99609L44.9062 8.62109H45L47.9062 8.42188L50.7188 7.82422L50.8008 7.80078L50.8945 7.78906L53.8828 7.50781L56.6602 6.92188L56.6719 6.91016L59.6602 6.32422L59.9414 6.27734L60.2227 6.32422ZM57.2695 9.83984L57.2812 9.85156L54.3398 10.4727L54.2461 10.4961H54.1641L51.293 10.7656L48.4102 11.3867L48.3047 11.4102L48.1875 11.4219L45.1875 11.6094L42.75 11.9023L41.2266 13.332L40.7344 15.582L40.7461 15.5938L40.3008 18.4766L40.4062 21.3242V21.4531L40.2422 24.3477L40.418 27.2891V27.4414L40.2891 30.3242L40.6289 33.1953L40.6406 33.3477L40.6289 33.5L40.3828 36.4414L40.4883 39.3242V39.3359L40.5586 42.3359L40.5703 42.4062L40.5586 42.4766L40.3594 45.3359L40.582 48.2539V48.2891L40.7461 51.2891L40.7578 51.4297L40.7344 51.5586L40.3594 54.4297L40.4531 57.3242V57.4531L40.2891 60.3477L40.4648 63.2539L40.7109 66.2539V69.4062L40.6406 72.4062V72.4531L40.6289 72.5L40.3828 75.418L40.5352 78.3008V78.4297L40.4297 81.4297L40.5234 84.3242L40.5352 84.3828L40.5234 84.4531L40.3711 87.3359L40.5703 90.2656L40.582 90.4062L40.5703 90.5469L40.2305 93.5469L40.2656 96.207L40.8047 98.7148L41.9766 100.566L43.8047 101.574L46.3477 101.305L46.4883 101.293H46.6289L49.4883 101.504L52.3828 101.246L52.582 101.234L52.7695 101.258L55.6289 101.75L58.4531 101.738L61.3008 101.316L61.4297 101.293H61.5703L64.5703 101.41H64.6289L64.6992 101.422L67.4766 101.738L70.2656 101.281L70.4766 101.246L70.6875 101.27L73.5703 101.586L76.1719 101.562L78.1992 100.648L79.2891 98.8555L79.4297 96.3242L79.2539 93.418L79.2422 93.2539L79.2773 93.0898L79.7344 90.2773L79.4531 87.4883L79.4414 87.3828V87.2656L79.582 84.3242L79.418 81.418V81.3008L79.4297 81.1836L79.7109 78.3008L79.4414 75.4766V75.418L79.2891 72.418L79.2773 72.2891L79.2891 72.1484L79.6406 69.2539L79.5938 66.3594V66.3125L79.6523 63.3125L79.6641 60.3242V60.3125L79.7109 57.3125L79.4883 54.4531L79.4766 54.418V54.3828L79.3828 51.3828V51.2773L79.4883 48.2773L79.5117 45.3242V45.2422L79.6992 42.2656L79.5703 39.3945V39.3242L79.582 36.3477L79.5586 33.4531L79.3359 30.4531L79.3242 30.3242L79.3359 30.1953L79.6172 27.3477L79.6055 24.3477V24.3359L79.4414 21.4297L79.4297 21.4062V21.3945L79.3125 18.3945L79.3008 18.3125L79.3125 18.2422L79.4883 15.3828L78.9258 13.2734L77.2031 12.0781L74.5898 11.7383H74.5781L71.6016 11.3164L71.5078 11.3047L71.4023 11.2695L68.625 10.4844L65.8008 10.0977L62.8125 9.83984H62.7305L62.6602 9.82812L59.9297 9.32422L57.2695 9.83984Z" fill="black"/>
<path d="M61.1406 101.383L64.0234 101.676L66.8828 101.441H66.9883L69.9883 101.418L70.9141 101.406L71.3359 102.227L72.4023 104.312L72.5781 104.652L72.5664 105.027L72.5195 108.074L72.5078 108.766L71.9688 109.211L69.6602 111.098L69.2617 111.414L68.7344 111.426L65.7461 111.484H65.6641L62.7109 111.379L59.7578 111.484L59.7461 111.473L56.8281 111.707L56.7578 111.719L56.6875 111.707L53.6875 111.672H53.6289L53.5586 111.66L50.5352 111.355L49.8672 111.297L49.4688 110.746L47.7227 108.309L47.4531 107.945L47.4414 107.477L47.3477 104.465V104.371L47.3594 104.266L47.5117 102.848L47.6523 101.5H49.1992L52.0352 101.699L54.918 101.582V101.57L57.918 101.395H57.9883L60.9883 101.383L61.0703 101.371L61.1406 101.383ZM58.0117 104.395L58 104.383L55.082 104.559L55.0703 104.57H55.0586L52.0586 104.688L51.9766 104.699L51.8945 104.688L50.3477 104.582L50.4062 106.926L51.5078 108.438L53.8633 108.672H53.8516L56.6172 108.707L59.5938 108.484H59.6641L62.6641 108.379H62.7695L65.7344 108.473L68.1602 108.426L69.5195 107.312L69.5547 105.332L69.0859 104.418L67.1055 104.43L64.1172 104.664L63.9883 104.676L63.8594 104.664L60.9766 104.383L58.0117 104.395Z" fill="black"/>
<path d="M57.4922 13.6172L60.4922 13.7227H60.5508L60.6094 13.7344L63.5508 14.0625L63.7031 14.0742L63.8555 14.1211L66.7266 15.082L67.043 15.1875L67.2891 15.4219L69.4805 17.5078L69.5273 17.5547L69.5742 17.6133L71.5312 19.875L71.707 20.0742L71.8008 20.3203L72.8672 23.1211L72.9023 23.2031L72.9141 23.2734L73.6875 26.2031L73.8516 26.8125L73.5352 27.3516L73.3828 27.5977L72.9141 30.1875L72.9023 30.3047L72.8555 30.4102L71.8945 33.2109L71.8359 33.375L71.7422 33.5273L70.125 36.0586L70.0078 36.2578L69.832 36.3984L67.5234 38.3438L67.3125 38.5195L67.0664 38.6133L64.2422 39.6445L64.1953 39.6562L64.1367 39.6797L61.2539 40.4766L61.0312 40.5352L60.7852 40.5234L57.7852 40.3945L57.5742 40.3828L57.3867 40.3242L54.5156 39.4102L54.375 39.3633L54.2344 39.2812L51.5977 37.793L51.375 37.6641L51.1992 37.4648L49.2305 35.168L49.1367 35.0508L49.0664 34.9219L47.6016 32.3086L47.5078 32.1211L47.4609 31.9219L46.7812 29.0156L46.7461 28.8867L46.7344 28.7578L46.5938 25.7812L46.582 25.6289L46.6055 25.4766L47.0742 22.4883L47.1211 22.2305L47.2383 21.9961L48.6914 19.3242L48.7852 19.1719L48.9023 19.0312L50.9414 16.793L51.082 16.6523L51.2461 16.5352L53.7891 14.9062L53.9297 14.8242L54.082 14.7656L56.918 13.7109L57.1875 13.6172H57.4922ZM55.2656 17.5195L53.0273 18.9492L51.2344 20.918L49.9922 23.2031L49.5938 25.7812L49.7227 28.4414L50.332 31.0312L51.5859 33.293L53.2969 35.3086L55.5938 36.5977L58.1016 37.3945L60.668 37.5117L63.2812 36.7852L65.8008 35.8711L67.7109 34.2422L69.1055 32.0508L69.9727 29.543L70.4766 26.8242L70.5234 26.5781L70.6289 26.3672L70.043 24.1406L69.082 21.6328L67.4062 19.6758L65.4492 17.8125L63.0586 17.0156L60.3867 16.7227L57.6797 16.6172L55.2656 17.5195Z" fill="black"/>
<path d="M65.2109 19.8633L67.5312 21.7852L68 22.1719L68.0703 22.7812L68.3984 25.7461L67.2148 25.8633L67.1914 26.0156L68.3047 26.2852L67.8008 28.4648L67.7422 28.7227L67.5898 28.9453L65.9844 31.4062L65.9375 31.4883L65.8789 31.5469L63.957 33.8438L63.875 33.9492L63.7695 34.0312L61.4609 35.9648L60.7109 36.5977L59.832 36.1523L57.3242 34.8867L57.125 34.793L56.9727 34.6406L54.7812 32.5898L54.6641 32.4727L54.5586 32.332L52.9062 29.8711L52.8125 29.7305L52.7422 29.5781L51.6875 26.8477L51.5469 26.4727L51.6055 26.0859L52.0508 23.168L52.1211 22.7344L52.4141 22.4062L54.3008 20.2617L54.7695 19.7344L55.4727 19.7578L58.4258 19.8516L59.2695 19.875L59.6914 20.625L60.043 21.2578L60.3242 20.918L60.6172 20.543L61.0742 20.4141L63.8281 19.5938L64.5898 19.3594L65.2109 19.8633ZM62.375 23.1445L61.0039 24.8789L59.6094 26.625L58.5195 24.6797L57.4766 22.8164L56.082 22.7695L54.9453 24.0586L54.6289 26.1328L55.4727 28.3242L56.9609 30.5156L58.8594 32.2969L60.2891 33.0117L61.7422 31.8047L63.5117 29.6953L64.9414 27.5039L65.3633 25.6875L65.1406 23.6953L63.9102 22.6875L62.375 23.1445Z" fill="black"/>
<path d="M59.2188 43.4414L62.2422 43.5586L62.5586 43.582L62.8398 43.7109L65.5352 45.0352L65.6055 45.0703L65.6641 45.1055L68.1836 46.6641L68.3242 46.7578L68.4531 46.875L70.5859 49.0195L70.8438 49.2656L70.9492 49.6055L71.9102 52.4766L71.9336 52.5586L71.957 52.6523L72.543 55.582L72.6602 56.1797L72.3672 56.625L71.8867 59.1914L71.8633 59.3203L71.8047 59.4492L70.75 62.2148L70.6797 62.3906L70.5625 62.5547L68.8164 64.9805L68.6641 65.1797L68.4648 65.332L66.0156 67.0898L65.7812 67.2539L62.5938 68.0508L62.5234 68.0742L62.4414 68.0859L59.4883 68.5195L59.2422 68.5547L58.9961 68.5078L56.0312 67.9336L55.8203 67.8984L55.6211 67.793L52.9492 66.3984L52.8086 66.3164L52.6797 66.2109L50.3711 64.2422L50.1602 64.0547L50.0195 63.8086L48.5898 61.1484L48.5195 60.9961L48.4727 60.832L47.6758 57.9492L47.6172 57.7383V57.5039L47.7109 54.5273V54.375L47.7578 54.2344L48.4375 51.3398L48.4844 51.1641L48.5547 51.0117L49.9141 48.3047L50.043 48.0586L50.2422 47.8711L52.4805 45.8203L52.6211 45.6797L52.7969 45.5859L55.4922 44.1914L55.6797 44.0859L55.9023 44.0391L58.8672 43.4648L59.043 43.4297L59.2188 43.4414ZM56.6758 46.9453L54.3555 48.1523L52.4688 49.8867L51.3086 52.207L50.6992 54.7969L50.6172 57.3398L51.3203 59.8945L52.5273 62.1328L54.4961 63.8203L56.8281 65.0273L59.3008 65.5078L61.8906 65.1328L64.4805 64.4883L66.5195 63.0234L68.0078 60.9609L68.9453 58.5352L69.4727 55.8047L69.4961 55.6523L69.0273 53.3555L68.207 50.8828L66.4375 49.1016L64.082 47.6602H64.0703L61.7969 46.5352L59.2773 46.4297L56.6758 46.9453Z" fill="black"/>
<path d="M59.2188 71.4414L62.2422 71.5586L62.5586 71.582L62.8398 71.7109L65.5352 73.0352L65.6055 73.0703L65.6641 73.1055L68.1836 74.6641L68.3242 74.7578L68.4531 74.875L70.5859 77.0195L70.8438 77.2656L70.9492 77.6055L71.9102 80.4766L71.9336 80.5586L71.957 80.6523L72.543 83.582L72.6602 84.1797L72.3672 84.625L71.8867 87.1914L71.8633 87.3203L71.8047 87.4492L70.75 90.2148L70.6797 90.3906L70.5625 90.5547L68.8164 92.9805L68.6641 93.1797L68.4648 93.332L66.0156 95.0898L65.7812 95.2539L62.5938 96.0508L62.5234 96.0742L62.4414 96.0859L59.4883 96.5195L59.2422 96.5547L58.9961 96.5078L56.0312 95.9336L55.8203 95.8984L55.6211 95.793L52.9492 94.3984L52.8086 94.3164L52.6797 94.2109L50.3711 92.2422L50.1602 92.0547L50.0195 91.8086L48.5898 89.1484L48.5195 88.9961L48.4727 88.832L47.6758 85.9492L47.6172 85.7383V85.5039L47.7109 82.5273V82.375L47.7578 82.2344L48.4375 79.3398L48.4844 79.1641L48.5547 79.0117L49.9141 76.3047L50.043 76.0586L50.2422 75.8711L52.4805 73.8203L52.6211 73.6797L52.7969 73.5859L55.4922 72.1914L55.6797 72.0859L55.9023 72.0391L58.8672 71.4648L59.043 71.4297L59.2188 71.4414ZM56.6758 74.9453L54.3555 76.1523L52.4688 77.8867L51.3086 80.207L50.6992 82.7969L50.6172 85.3398L51.3203 87.8945L52.5273 90.1328L54.4961 91.8203L56.8281 93.0273L59.3008 93.5078L61.8906 93.1328L64.4805 92.4883L66.5195 91.0234L68.0078 88.9609L68.9453 86.5352L69.4727 83.8047L69.4961 83.6523L69.0273 81.3555L68.207 78.8828L66.4375 77.1016L64.082 75.6602H64.0703L61.7969 74.5352L59.2773 74.4297L56.6758 74.9453Z" fill="black"/>
<path d="M63.1406 48.8828L66.0234 49.1758L68.8828 48.9414H69.082L70.0898 49L69.9961 50.5L69.9141 52L69.0234 51.9531L66.1172 52.1641L65.9883 52.1758L65.8594 52.1641L62.9766 51.8945H60L57.082 52.0586L57.0703 52.0703H57.0586L54.0586 52.1875L53.9766 52.1992L53.8945 52.1875L51 52V49H51.1992L54.0352 49.1992L56.918 49.082V49.0703L59.918 48.8945H59.9883L62.9883 48.8828L63.0703 48.8711L63.1406 48.8828Z" fill="black"/>
<path d="M63.1406 76.8828L66.0234 77.1758L68.8828 76.9414H69.082L70.0898 77L69.9961 78.5L69.9141 80L69.0234 79.9531L66.1172 80.1641L65.9883 80.1758L65.8594 80.1641L62.9766 79.8945H60L57.082 80.0586L57.0703 80.0703H57.0586L54.0586 80.1875L53.9766 80.1992L53.8945 80.1875L51 80V77H51.1992L54.0352 77.1992L56.918 77.082V77.0703L59.918 76.8945H59.9883L62.9883 76.8828L63.0703 76.8711L63.1406 76.8828Z" fill="black"/>
</svg>
