<svg width="120" height="120" viewBox="0 0 120 120" fill="none" xmlns="http://www.w3.org/2000/svg">
<path d="M44.1465 14.3711L46.8066 14.6172L46.7949 14.6289L49.4316 14.8516L49.6426 14.8633L49.8301 14.9453L52.3027 15.8828L52.3145 15.8945L54.7988 16.8672L55.1387 16.9961L55.373 17.2656L57.1191 19.2461L58.9473 21.0273L59.0762 21.1562L59.1699 21.3086L60.5527 23.5352L60.623 23.6523L60.6699 23.7695L61.6543 26.207L61.7012 26.3359L61.7363 26.4531L62.2871 29.043L62.3105 29.1602L62.3223 29.2656L62.4746 31.9023L62.627 34.293L63.5645 36.5547L63.6465 36.7539L63.6699 36.9531L63.9395 39.3086L64.8887 41.1016L66.7988 42.4375L66.916 42.5312L68.9199 44.2656L69.0488 44.3828L69.1426 44.5117L70.6191 46.5391L72.5293 48.0391L72.6465 48.1328L72.752 48.25L74.334 50.1484L76.3262 51.7305L76.4902 51.8594L76.6191 52.0352L78.1191 54.168L79.748 56.0195L81.6816 57.5898L81.7754 57.6719L81.8574 57.7656L83.6035 59.7461L83.6855 59.8398L83.7441 59.9336L85.0918 62.0664L86.8262 63.8594L86.8965 63.9297L86.9668 64.0234L88.4199 66.0508L90.1543 68.043L90.1895 68.0781L91.7715 70.0117L93.6699 71.7109L93.7285 71.7578L93.7754 71.8164L95.5801 73.7617L95.5918 73.7852L97.2676 75.6484L97.7598 76.1055L96.7285 77.207L95.8994 78.1016L95.8242 78.6484L95.918 79.1641L95.7539 79.1875V79.2109L95.6836 79.1992L94.4629 79.4092L94.7715 79.9658L96.5762 81.3955L98.7324 82.9307L98.8965 83.0479L99.0137 83.2002L100.725 85.251L100.982 85.5557L101.053 85.9658L101.111 86.3525L99.8174 86.5674L99.8613 86.7041L100.307 88.1338L100.049 88.2158L99.8379 88.2861H99.6152L97.0605 88.3096H96.8848L96.709 88.2744L94.1426 87.6885L94.0957 87.6768L94.0488 87.6533L91.5176 86.8916H91.5059L89.0215 86.1064L86.4785 85.3564L86.4199 85.3447L86.3613 85.3213L84.1113 84.4658L81.8027 84.3838L79.3652 84.7354L76.7402 85.1104L76.5879 85.1338L76.4473 85.1221L74.2471 84.9902L74.2422 85.0068L74.1719 85.2061L74.043 85.3818L72.5312 87.4912L72.4023 87.6787L72.2148 87.8193L70.3984 89.167L69.543 90.8896L69.168 93.2686L69.0215 95.6396L70.1562 96.0459L72.6055 96.292L72.6172 96.2803L75.2539 96.5264L75.4062 96.5381L75.5586 96.585L78.1016 97.3584L78.3711 97.4404L78.5938 97.6162L80.6562 99.2451L80.9258 99.4561L81.0781 99.7607L81.7578 101.179L83.3867 101.214H83.5508L83.7148 101.261L86.2812 101.905L86.4336 101.94L86.5742 102.011L88.9648 103.194L89.2227 103.323L89.4219 103.546L91.1914 105.538L91.3438 105.714L91.4375 105.925L92.5156 108.315L92.5977 108.515L92.6328 108.737L92.9727 111.339V111.362L92.9844 111.386L93.2422 113.94H93.2539L93.4805 115.528L94.8359 115.266L95.082 115.219L95.3164 115.254L97.8945 115.605L100.273 115.711L102.793 115.277L102.91 115.266H103.027L105.664 115.242H105.816L105.969 115.266L108.406 115.746L110.809 115.5L110.891 115.488H110.973L112.016 115.5L112.004 117L111.98 118.5L110.984 118.488L108.477 118.746L108.254 118.77L108.031 118.734L105.57 118.242L103.145 118.254L100.648 118.688L100.496 118.711L100.332 118.699L97.6953 118.594H97.625L97.5547 118.582L95.1523 118.242L92.7617 118.711L92.5273 118.758L92.293 118.734L89.7383 118.406L87.207 118.418L87.1953 118.406L84.6055 118.488H84.5938L81.957 118.547H81.9336L79.3672 118.559L79.3789 118.57L76.7422 118.746L76.5547 118.758L73.9297 118.266L71.5391 118.547L71.4102 118.559H71.2812L68.7266 118.418L66.1719 118.582H66.043L65.9141 118.57L63.5791 118.307L63.0635 118.327L60.957 118.559H60.8867L58.25 118.711L58.0977 118.723L57.957 118.699L55.4141 118.348L52.9062 118.406H52.8477L50.2109 118.348V118.336H47.5742L44.9541 118.289L44.3135 118.346L42.4531 118.512L42.418 118.523H42.3711L39.7344 118.617H39.6172L36.9805 118.512V118.5L34.3906 118.488H34.3438L34.2969 118.477L31.7188 118.301L29.1875 118.43H29.1055L26.4688 118.418V118.406L23.9609 118.43L21.3242 118.664L21.1836 118.676L21.0312 118.664L18.5 118.383L15.9219 118.395V118.383L13.3789 118.559H13.3672L13.3555 118.57L10.707 118.688L10.6133 118.699L10.5312 118.688L7.98828 118.5L8 118.277V115.5H8.21094L10.6719 115.699L13.1797 115.582V115.57L15.8164 115.395H15.9102L18.5469 115.383L18.6406 115.371L18.7227 115.383L21.2305 115.664L23.7148 115.453L23.7617 115.441H23.8203L26.4688 115.418H26.4922L29.0469 115.43L29.2031 115.422L29.7344 112.886L29.7461 112.827L29.7695 112.769L30.5195 110.237L30.5898 109.968L30.7656 109.745L32.3711 107.659L33.7188 105.526L33.7422 105.479L33.7773 105.444L35.3711 103.3L35.582 103.019L35.8984 102.854L38.1953 101.694L40.3281 100.265H40.3398L42.5547 98.7998L44.7578 97.3701L44.8164 97.3232L44.875 97.2881L47.1406 96.1084L47.0352 95.9756L49.0039 94.4521L49.3555 94.1709L49.8008 94.1357L52.4609 93.9131L52.5781 93.9014L52.707 93.9131L54.9248 94.0967L54.9414 94.0889L55.1875 94.0654L57.0283 93.8828L56.9941 93.5498L56.9707 93.3975L56.9941 93.2334L57.2871 90.6904L57.334 88.0889L57.3457 87.5732L57.6719 87.1895C56.5712 86.4503 55.8879 85.355 55.4785 84.4541C55.215 83.874 55.045 83.3332 54.9404 82.9385C54.888 82.7406 54.8512 82.5765 54.8271 82.459C54.8152 82.4004 54.806 82.3526 54.7998 82.3184C54.7967 82.3013 54.7947 82.2868 54.793 82.2764C54.7921 82.2714 54.7916 82.2671 54.791 82.2637C54.7907 82.262 54.7903 82.2601 54.79 82.2588V82.2568L54.7891 82.2559L54.7783 82.1533C54.7721 82.0389 54.7857 81.9268 54.8164 81.8213L53.1914 81.2676L53.0039 81.209L52.8398 81.1035L50.6602 79.6504L48.4219 78.4316L48.3398 78.3848L48.2695 78.3379L46.125 76.8262L46.0781 76.791L46.043 76.7676L44.0039 75.1152L43.9453 75.0684L43.8984 75.0215L42.0352 73.2168L40.1016 71.4121L40.0312 71.3418L39.9609 71.2598L38.2969 69.1973L38.2148 69.0918L38.1562 68.9863L36.8789 66.666L36.8555 66.6309L36.832 66.584L35.6953 64.2051L35.6484 64.0996L35.6133 63.9824L34.8633 61.4629V61.4512L34.0781 58.9785L34.043 58.873L34.0312 58.7676L33.6094 56.166L33.5977 56.1074V56.0605L33.3633 53.4355V53.4121L33.1758 50.7637L33.1641 50.5527L33.2109 50.3418L33.7617 47.7402H33.7734L34.2188 45.209V45.1973L34.2305 45.1855L34.7344 42.584L34.7461 42.5254L34.7695 42.4551L35.5078 39.9121L35.5547 39.7715L35.625 39.6426L35.7471 39.4072H35.627L32.9785 39.3369L30.3887 39.3721H30.3652L27.7168 39.3604H27.623L27.5176 39.3486L24.8809 38.9854L24.6348 38.9502L24.4004 38.833L22.127 37.6494L22.2109 37.4814L22.1426 37.502L22.0723 37.5137L20.502 37.9004L19.0137 38.2637L18.6855 36.752L18.6738 36.7051L20.1387 36.3887V36.377L20.0596 36.0537L18.8867 35.6562L19.1094 34.9766L19.1211 34.9531L19.1328 34.918L20.0703 32.4688L20.1172 32.3516L21.2773 29.9609L21.3711 29.7617L21.5352 29.5859L23.3516 27.6523L25.0859 25.7188L25.1328 25.6719L26.9727 23.7852L27.0547 23.7031L27.1484 23.6328L29.293 22.0391L29.5156 21.875L29.7852 21.793L32.0039 21.1826L33.4004 19.4453L33.4824 19.3281L33.5996 19.2461L35.6152 17.5234L35.8027 17.3594L36.0254 17.2773L38.4629 16.293L40.8652 15.2617L41.0293 15.1914L43.584 14.4297L43.8652 14.3477L44.1465 14.3711ZM55.7148 97.0303L53.5938 98.0381L53.4414 98.1084L53.2656 98.1436L50.7461 98.6709L50.6641 98.6943H50.5703L48.2617 98.8936L47.9834 99.04L47.5977 99.3389L47.5508 99.2686L46.3984 99.8779L44.1953 101.319L44.1836 101.308L39.8008 104.237L39.7305 104.284L37.5508 105.374L36.2383 107.132L34.832 109.37L34.7969 109.429L34.75 109.476L33.3086 111.351L32.6641 113.495L32.3232 115.108L33.623 115.264L36.0605 115.193L38.6973 115.041H38.791L41.4395 115.053H41.6152L44.0645 115.357L44.3857 115.33L44.832 115.289H44.8809L46.584 115.146H46.6895L49.3379 115.123H49.3613L51.9395 115.146L54.5645 115.029H54.7402L57.377 115.217L57.3652 115.229L59.9316 115.24H59.9785L62.5566 115.346L62.8809 115.333L63.2891 115.289L63.4414 115.277L63.6055 115.289L63.7168 115.302L65.0645 115.252L67.7012 115.006L67.7832 114.994L67.8652 115.006L70.502 115.041H73.1504L75.752 115.088L78.3652 115.018H78.4824L78.5996 115.029L81.0723 115.369L83.5918 115.182V115.193L86.1582 114.889L86.3105 114.865L86.4746 114.889L88.9941 115.135L90.373 115.018L90.2773 114.374V114.315L89.9961 111.737L89.6797 109.335L88.7891 107.354L87.3711 105.749L85.3789 104.765L83.1523 104.202L80.7852 104.167L79.8594 104.144L79.4609 103.312L78.5234 101.378L76.9414 100.147L74.8203 99.4912L72.3477 99.2686H72.3359L69.6992 99.0107L69.5117 98.999L69.3477 98.9287L67.0059 98.1016L66.7051 98.3691L66.6719 98.4287L66.6016 98.5811L66.4961 98.71L64.9492 100.585L63.7773 102.659L63.0391 104.886L62.582 106.866L62.2539 108.249L60.8477 108.003L60.7305 107.979L61 106.503V106.491L59.6641 106.175L60.1211 104.206L60.1445 104.136L60.1562 104.077L60.9883 101.569L61.0352 101.429L61.1172 101.3L62.1201 99.5352L59.8125 100.309L57.5625 101.305L55.5703 102.535L53.5781 104.211L53.1094 103.648L52.5 103.496L51.0469 103.121L51.1641 102.676L51.2812 102.207L51.6562 101.902L53.6953 100.203L53.7773 100.133L53.8594 100.086L56.0742 98.7148L56.168 98.6562L56.2617 98.6094L58.6758 97.543L58.793 97.4961L59.4326 97.2793L57.8008 96.8193L55.7148 97.0303ZM63.5449 85.9092L63.3457 86.3193L62.959 86.5654L61.1426 87.6787L60.3223 88.6748L60.2754 90.7959V90.8545L60.2637 90.9248L59.9824 93.3975L60.083 94.3389L60.9062 94.5693H60.8945L63.3789 95.1201L63.4375 95.1318L63.4961 95.1553L65.207 95.6709L66.0508 94.9326L66.1914 92.9287V92.8467L66.2031 92.7764L66.6367 90.1631L66.6719 89.9404L66.7656 89.7412L66.9824 89.3076L65.9297 87.8887L64.1953 86.0137L64.125 85.9434L64.0547 85.8496L63.7588 85.4229L63.5449 85.9092ZM59.7441 35.2656L58.2324 37.2344L58.1387 37.3516L58.0332 37.4453L56.0293 39.1914L55.9004 39.3086L55.748 39.3906L53.3926 40.6094L53.2168 40.7031L53.0293 40.75L50.4512 41.3242L50.4629 41.3359L47.9082 41.957L47.6973 42.0039H47.4863L44.8379 41.875L44.6855 41.8633L44.5332 41.8281L41.9668 41.1602L41.9082 41.1484L41.8496 41.125L39.3418 40.2578L39.1191 40.1758L38.8379 39.9648L38.3438 40.9082L37.6523 43.2168L37.1719 45.7598L36.7148 48.3262L36.7031 48.3496V48.373L36.1875 50.7402L36.3633 53.1777L36.5742 55.6855L36.9492 58.1348L37.7344 60.5723V60.584L37.7461 60.6074L38.4609 63.0215L39.5391 65.2949L40.7109 67.4043L42.2227 69.2793L44.0859 71.0254L44.0977 71.0488L45.9258 72.8184L47.9297 74.4238H47.918L49.9336 75.8301L52.1602 77.0488L52.2773 77.1191L54.3516 78.502L56.543 79.2285L59.0977 79.8027L59.2383 79.8379L59.3672 79.8965L61.6641 80.8809L64.0781 81.3496L64.6758 81.4668L65.0273 81.9707L66.457 84.0449L68.1797 85.8965L68.2383 85.9551L68.2852 86.0254L68.7549 86.6611L70.2227 85.5459L71.4883 83.7881L72.2266 81.6904L72.2734 81.5498L72.3555 81.4209L72.4023 81.3271L73.6914 82.1006L73.8701 82.2061L73.8691 81.9697H74.0684L76.459 82.1221L78.9434 81.7705L81.5684 81.3955L81.6973 81.3721L81.8262 81.3838L84.4863 81.4775L84.7324 81.4893L84.9668 81.5713L87.4043 82.5205L89.8652 83.2236H89.877L89.9004 83.2354L92.3848 84.0205L94.916 84.7822L96.7393 85.1914L94.8301 83.8447L94.8066 83.8213L94.7715 83.7979L92.6855 82.1455L92.4512 81.958L92.3105 81.7002L91.0762 79.4961L90.4688 79.457L87.9258 79.7383H87.7852L85.1367 79.7617L84.9492 79.7734L84.7734 79.7266L82.2891 79.1172L79.7227 78.7891H79.6523L79.582 78.7656L77.0156 78.1914L76.9922 78.1797H76.957L74.4141 77.5L74.3203 77.4766L71.8945 76.6445L69.1875 75.8711L66.75 74.8398L66.6445 74.8047L66.5508 74.7461L64.2891 73.3633L64.2539 73.3516L64.2305 73.3281L62.0391 71.8516L61.9453 71.793L61.8633 71.7109L59.918 69.9414V69.9297L57.9727 68.2188L57.8789 68.1484L57.8086 68.0547L56.1211 66.0273L56.0742 65.9688L56.0391 65.9219L54.5625 63.7422L54.5391 63.7188L54.5273 63.6953L53.1211 61.4336L52.9922 61.2344L52.9336 61.0117L52.3008 58.4336L52.2773 58.3398L51.8086 55.7734L51.7969 55.6797L51.7852 55.5977L51.6094 52.9609L51.5977 52.7969L51.6211 52.6445L52.0195 49.9961L52.0781 49.6094L52.3242 49.293L53.918 47.2656L54.9375 48.0859L55.1016 48.0977L56.6016 48.2266L56.5898 48.332L56.5547 48.7773L54.9141 50.8281L54.6094 52.9258L54.7734 55.3398L55.2305 57.8008L55.793 60.0625L57.0703 62.1016L58.5234 64.2227L60.0234 66.0273L61.9219 67.7031L61.9453 67.7266L63.8438 69.4492L65.8359 70.7969L67.9922 72.1094L70.2539 73.0469L72.7266 73.7734L72.7617 73.7852L72.7852 73.7969L75.293 74.6289L77.7305 75.2734H77.7188L80.1914 75.8125L82.7227 76.1523L82.8047 76.1641L82.8867 76.1875L85.2656 76.75L87.7266 76.7383L90.2578 76.4688L90.375 76.457L90.5039 76.4688L92.9531 76.6094L93.9502 76.4473L93.3535 75.7773V75.7656L91.6191 73.9023L89.709 72.1797L89.6152 72.1094L89.5449 72.0156L87.8691 69.9766V69.9648L86.1582 68.0312L86.0645 67.9141L84.6113 65.875L82.8301 64.0234L82.7246 63.918L82.6426 63.7891L81.2715 61.6328L79.666 59.8164L77.709 58.2227L77.6152 58.1406L77.5332 58.0469L75.7988 56.0664L75.7402 56.0078L75.6934 55.9375L74.3105 53.957L72.2598 52.3164L72.166 52.1992L70.5371 50.2891L68.5918 48.7539L68.4277 48.625L68.3105 48.4609L66.8223 46.4219L64.9473 44.8047H64.9355L62.873 43.3633L62.5801 43.1523L62.416 42.8359L61.1621 40.4688L61.0215 40.2227L60.998 39.9414L60.7051 37.5039L59.7676 35.2305L59.7441 35.2656ZM56.874 82.4268C56.9579 82.7434 57.0937 83.1733 57.2998 83.627C57.665 84.4306 58.1971 85.1933 58.9453 85.6299L58.9863 85.5811L59.1504 85.3936L59.3613 85.2646L60.9902 84.2451L61.1709 83.8447L60.9258 83.7988L60.7617 83.7637L60.6211 83.7051L58.2773 82.6855L56.8623 82.3779C56.8664 82.3937 56.8697 82.4103 56.874 82.4268ZM42.002 18.0273L39.6465 19.0469L39.6348 19.0586L39.6113 19.0703L37.373 19.9609L35.627 21.4492L34.3848 22.9844L34.4082 25.1055L34.6543 27.4961L35.3809 29.8867L36.3066 32.0781L37.4902 34.2227L38.3789 35.5557L38.6387 35.4814L38.7871 36.168L38.8027 36.1914L40.5254 37.4922L42.7754 38.2656L45.1309 38.875L47.3809 38.9922L49.7598 38.418H49.7715L52.1504 37.8672L54.1895 36.8125L55.959 35.2539L57.4473 33.332L57.5176 33.25L57.5879 33.1797L59.416 31.3867L59.4395 31.3516L59.3223 29.5352L58.8066 27.168L57.9277 24.9883L56.6973 23.0195L54.9746 21.3438L54.9395 21.3086L54.9043 21.2617L53.3457 19.5156L51.2129 18.6836V18.6719L48.9629 17.8164L46.5371 17.6055H46.5254L44.1816 17.3828L42.002 18.0273ZM31.9277 33.8457L29.584 34.7246L29.5723 34.7129L27.1465 35.6855L27.1348 35.6973H27.1113L25.9814 36.1123L27.8457 36.3604H30.3535L32.9785 36.3369H33.0371L35.334 36.3916L34.9941 35.8867L34.959 35.8398L34.9355 35.7812L33.6582 33.4844L33.6113 33.4141L33.5977 33.374L31.9277 33.8457ZM30.8281 24.6055L29.0352 25.9531L27.2773 27.7695L27.2656 27.7578L25.5547 29.6797L25.5312 29.7031L23.8672 31.4727L22.8242 33.6641L22.6426 34.1289L23.6191 33.7871L26.0801 32.8848L28.5059 31.9238H28.5176L28.5293 31.9121L31.002 30.9863L31.0605 30.9746L31.1309 30.9512L32.46 30.5762L31.748 28.2344L31.7012 28.082L31.6895 27.9414L31.4199 25.3047V25.1641L31.4102 24.4482L30.8281 24.6055ZM47.165 24.542L49.2598 24.1865L49.2949 24.1748H49.3301L51.9434 23.8584L52.0488 23.8467H52.1426L52.998 23.8584L52.9863 25.3584L52.9629 26.8584L52.1895 26.8467L49.6934 27.1514L49.6816 27.1396L47.585 27.4961L47.7305 28.5039H46.6055L45.5977 29.7109L44.918 30.5312L43.9102 30.1562L41.7656 29.3359L40.6992 28.9141L40.8164 27.7773L41.0625 25.3047L41.1914 24.0859L42.4102 23.9688L45 23.7109L46.125 23.6055L46.3242 24.1445L46.9922 23.3359L47.165 24.542Z" fill="black"/>
</svg>
