<svg width="120" height="120" viewBox="0 0 120 120" fill="none" xmlns="http://www.w3.org/2000/svg">
<path d="M95.3164 114.254L97.8945 114.605L100.273 114.711L102.793 114.277L102.91 114.266H103.027L105.664 114.242H105.816L105.969 114.266L108.406 114.746L110.809 114.5L110.891 114.488H110.973L112.016 114.5L112.004 116L111.98 117.5L110.984 117.488L108.477 117.746L108.254 117.77L108.031 117.734L105.57 117.242L103.145 117.254L100.648 117.688L100.496 117.711L100.332 117.699L97.6953 117.594H97.625L97.5547 117.582L95.1523 117.242L92.7617 117.711L92.5273 117.758L92.293 117.734L89.7383 117.406L87.207 117.418L87.1953 117.406L84.6055 117.488H84.5938L81.957 117.547H81.9336L79.3672 117.559L79.3789 117.57L76.7422 117.746L76.5547 117.758L73.9297 117.266L71.5391 117.547L71.4102 117.559H71.2812L68.7266 117.418L66.1719 117.582H66.043L65.9141 117.57L63.418 117.289L60.957 117.559H60.8867L58.25 117.711L58.0977 117.723L57.957 117.699L55.4141 117.348L52.9062 117.406H52.8477L50.2109 117.348V117.336H47.5742L44.9492 117.289L42.4531 117.512L42.418 117.523H42.3711L39.7344 117.617H39.6172L36.9805 117.512V117.5L34.3906 117.488H34.3438L34.2969 117.477L31.7188 117.301L29.1875 117.43H29.1055L26.4688 117.418V117.406L23.9609 117.43L21.3242 117.664L21.1836 117.676L21.0312 117.664L18.5 117.383L15.9219 117.395V117.383L13.3789 117.559H13.3672L13.3555 117.57L10.707 117.688L10.6133 117.699L10.5312 117.688L7.98828 117.5L8 117.277V114.5H8.21094L10.6719 114.699L13.1797 114.582V114.57L15.8164 114.395H15.9102L18.5469 114.383L18.6406 114.371L18.7227 114.383L21.2305 114.664L23.7148 114.453L23.7617 114.441H23.8203L26.4688 114.418H26.4922L29.0469 114.43L31.6953 114.312L31.7773 114.301L31.8594 114.312L34.5078 114.488L34.4961 114.5L37.0508 114.512H37.0977L39.6875 114.617L42.1836 114.535L44.832 114.289H44.9844L47.6211 114.336L47.6094 114.348H50.2695L52.8711 114.406L55.4844 114.348H55.6133L55.7305 114.359L58.2148 114.723L60.7109 114.559V114.57L63.2891 114.289L63.4414 114.277L63.6055 114.289L66.0898 114.582L68.6328 114.43L68.7148 114.418L68.7969 114.43L71.3281 114.559L73.8242 114.266L74.0586 114.23L74.2812 114.277L76.7305 114.734L79.1797 114.582L79.2266 114.57H79.2617L81.8867 114.559V114.547L84.5234 114.488L87.1602 114.418H87.1953L89.832 114.406H89.9375L90.0312 114.418L92.4219 114.734L94.8359 114.266L95.082 114.219L95.3164 114.254Z" fill="black"/>
<path d="M36.5391 33.0273L38.543 34.6211L40.6055 36.2852L40.6172 36.2969L42.6562 37.9844L42.7852 38.0898L42.8789 38.207L44.4727 40.2109L43.6406 40.8555L43.3828 41.207L42.4688 42.3906L42.3984 42.332L42.2461 42.2266L42.1289 42.0742L40.6406 40.2227L38.7188 38.6289L36.6562 36.9648V36.9531L35.25 35.8398L34.043 36.168L32.6953 37.8555L32.6719 37.9023L32.6367 37.9375L30.8438 39.8828L30.832 39.8945L29.0156 41.8164L27.375 43.7734L27.2578 43.8906L25.3359 45.707L23.5898 47.5703L21.6914 49.4688L20.0859 51.3203L20.0977 51.332L18.4805 53.4297L18.4336 53.4883L18.375 53.5469L16.5703 55.4688L16.5586 55.457L14.8477 57.3203L14.8594 57.332L13.2656 59.3125L12.6445 58.8086L12.0234 58.6445L10.5703 58.2578L10.6523 57.9883L10.7344 57.6719L10.9336 57.4258L12.5273 55.4453L12.5625 55.4102L12.5859 55.375L14.3672 53.4297L14.3789 53.418V53.4062L16.1953 51.4844L17.7188 49.5039L17.7422 49.4688L17.7656 49.4453L19.4883 47.4414L19.5234 47.3945L21.4336 45.4844L23.2148 43.5977L23.2383 43.5625L23.2734 43.5273L25.1484 41.7461L26.7773 39.8125L26.8125 39.7891L26.8359 39.7539L28.6523 37.832L30.3516 35.9805L32.0156 33.9062L32.3203 33.5312L32.8008 33.4023L35.2148 32.7461L35.9414 32.5586L36.5391 33.0273Z" fill="black"/>
<path d="M62.7109 18.9727L64.7383 20.6836L64.8438 20.7656L64.9258 20.8594L66.5547 22.793L68.4297 24.5859L68.5234 24.6797L68.6055 24.7852L70.1055 26.8125L71.957 28.4414L71.9922 28.4648L72.0156 28.4883L73.9141 30.3398L74.0195 30.4453L74.1133 30.5625L75.543 32.6602L77.2773 34.5117L77.3008 34.5469L77.3242 34.5703L79.0234 36.5977H79.0352L80.5703 38.4375L81.8477 39.2227L83.1953 38.4609L84.8359 36.7031L85.1523 36.3633L85.6094 36.2578L88 35.707L88.7852 35.5312L89.3711 36.082L91.2812 37.9102L91.3516 37.9688L91.4102 38.0508L92.9805 39.9844L94.8438 41.8594L94.8672 41.8828L94.8789 41.9062L96.6484 43.8281L98.3828 45.668L100.352 47.4492L100.457 47.5547L100.539 47.6719L102.062 49.7227L103.738 51.5508H103.75L105.66 53.3906L105.684 53.4141L107.547 55.2891L107.605 55.3594L107.676 55.4297L109.176 57.3984L109.211 57.4336H109.199L109.223 57.457L108.977 57.6328L108.098 58.4414L106.984 59.4492L106.914 59.3789L106.879 59.332L106.832 59.2734L105.32 57.3047L103.574 55.5469L101.664 53.7188L101.641 53.6836L101.605 53.6602L99.8125 51.7148L99.7539 51.6562L99.707 51.5859L98.207 49.5703L96.3672 47.8828L96.332 47.8477L96.2852 47.8125L94.4688 45.9023L94.457 45.8906V45.8789L92.7109 43.957V43.9688L90.8477 42.1055L90.7539 41.9883L89.1133 39.9844L87.8711 38.8125L86.7109 39.082L85.2344 40.6758L85.0703 40.8516L84.8711 40.9688L82.5625 42.2695L81.8008 42.7031L81.0508 42.2461L78.7891 40.8633L78.5781 40.7344L78.4141 40.5469L76.7266 38.5195V38.5312L75.0859 36.5625L73.2812 34.6406L73.1992 34.5586L73.1406 34.4531L71.6875 32.3438L69.9766 30.6914L67.9844 28.9453L67.8672 28.8398L67.7734 28.7109L66.2617 26.6719L64.4453 24.9375L64.3867 24.8906L64.3398 24.8203L62.6992 22.8867L61.4688 21.8438L60.9648 22.0664L59.6055 23.8828L59.582 23.918L59.5469 23.9414L57.8477 25.9453L56.1836 27.9844L56.1719 27.9727L54.5195 30.0234L54.4961 30.0469L52.7734 32.0625L52.6328 32.2031L50.8281 33.7969L49.5977 35.9297L49.4688 36.1523L49.293 36.3047L47.2891 38.0742L47.2773 38.0625L45.6602 39.7734L44.3594 41.9297L44.3008 42.0352L44.2188 42.1289L42.4961 44.1328L42.3906 44.25L42.2734 44.3438L40.3047 45.8438L38.9102 47.8242L38.8281 47.9414L38.7227 48.0352L36.8711 49.8047L35.4648 51.832L35.0664 52.4062L34.3633 52.4766L34.1289 52.4883L34 51L33.9883 50.8008L33.0039 50.1211L34.5273 47.9297L34.6211 47.8008L34.7266 47.6953L36.5312 45.9727L38.0078 43.9219L38.1367 43.7461L38.3125 43.6055L40.3398 42.0234L41.875 40.2305L43.1992 38.0859L43.2812 37.9453L43.3867 37.8398L45.2031 35.918L45.25 35.8594L45.3086 35.8125L47.1016 34.2305L48.3438 32.0977L48.4727 31.8984L48.6484 31.7344L50.5703 30.0234L52.2109 28.1016L53.8633 26.0742H53.875L55.5508 24.0469V24.0352L57.2617 22.0078L58.8086 19.9453L59.0547 19.6289L59.418 19.4766L61.1523 18.7383L61.9961 18.375L62.7109 18.9727Z" fill="black"/>
<path d="M34.8125 78.4648L37.3438 79.3438L37.4141 79.3672L39.7578 80.3281L42.2891 81.1953L42.5117 81.2656L42.6875 81.4062L44.8438 82.9883L45.0547 83.1523L45.207 83.3633L46.6016 85.4727L48.3359 87.3711L48.5 87.5586L48.6055 87.7812L49.6367 90.1719L50.832 92.4688L50.9727 92.7383L50.9961 93.0547L51.1602 95.7148L51.1719 95.7383L51.207 96.5H52.1094L51.4297 98.4453L51.1016 100.812V100.859L50.6445 103.438L50.6328 103.543L50.6094 103.637L49.8242 106.156L49.7773 106.309L49.6953 106.449L48.4062 108.77L48.3125 108.934L48.1719 109.074L46.3672 110.914L44.6328 112.906L44.5273 113.035L44.3867 113.129L42.2539 114.688L42.1484 114.758L42.043 114.816L39.6758 116.012L39.6055 116.035L39.5352 116.07L37.0625 117.031L36.875 117.102L36.6758 117.125L34.0391 117.406L33.9688 117.418H33.9102L31.2617 117.477H31.1328L31.0039 117.453L28.4023 117.043H28.3555L28.3086 117.031L25.7422 116.445L22.8945 115.496L22.7305 115.402L20.4922 113.949L20.4102 113.902L20.3281 113.832L18.3125 112.098L18.2188 112.016L18.1367 111.922L16.4258 109.895L16.3789 109.836L16.332 109.766L14.8438 107.574L14.7148 107.387L14.6445 107.164L13.9062 104.68L13.0273 102.219L13.0039 102.137L12.9922 102.066L12.3594 99.4766L12.3008 99.207L12.3242 98.9375L12.6523 96.2891L12.9102 93.6992L12.9336 93.5117L12.9922 93.3242L13.918 90.8516L14.7852 88.3555L14.9023 88.0391L16.9297 86.0117L18.582 83.9727L18.6758 83.8555L18.793 83.7617L20.8203 82.0859L20.8906 82.0156L20.9844 81.9688L23.2227 80.5742L23.3164 80.5156L23.4102 80.4805L25.8359 79.4141L25.9531 79.3555L26.0703 79.332L28.6484 78.6875L28.8594 78.6406L29.0703 78.6523L31.5664 78.7461L34.1211 78.3945L34.4727 78.3477L34.8125 78.4648ZM31.8594 81.7344L31.7305 81.7461H31.6016L29.1875 81.6406L26.9258 82.2031L24.7344 83.1641L22.6484 84.4531L20.8203 85.9648L19.2734 87.8984L19.2148 87.957L19.168 88.0156L17.5039 89.668L16.7422 91.8711L16.7305 91.8828V91.8945L15.875 94.1562L15.6406 96.6289V96.6641L15.3359 99.0195L15.8633 101.211L16.7305 103.684L16.7539 103.719V103.754L17.4336 106.051L18.7461 107.996L20.3516 109.895L22.168 111.465L24.2305 112.789L26.4102 113.516L28.8594 114.078L31.3672 114.465L33.8047 114.418L36.1484 114.148L38.3984 113.281L40.5781 112.18L42.4883 110.797L44.1172 108.945L44.1758 108.887L45.875 107.117L46.9883 105.148L47.7031 102.84L48.1367 100.344L48.3125 99.0078L48.2773 98.0703L48.1719 95.9023L48.0195 93.5586L46.9414 91.4844L46.8945 91.3906L45.9453 89.1875L44.3398 87.4414L44.2695 87.3594L44.2109 87.2656L42.8516 85.25L41.1055 83.9492L38.7852 83.1758L38.7383 83.1523L38.7031 83.1406L36.3594 82.1797L34.168 81.418L31.8594 81.7344Z" fill="black"/>
<path d="M91.8125 78.4648L94.3438 79.3438L94.4141 79.3672L96.7578 80.3281L99.2891 81.1953L99.5117 81.2656L99.6875 81.4062L101.844 82.9883L102.055 83.1523L102.207 83.3633L103.602 85.4727L105.336 87.3711L105.5 87.5586L105.605 87.7812L106.637 90.1719L107.832 92.4688L107.973 92.7383L107.996 93.0547L108.16 95.7148L108.172 95.7383L108.207 96.5H109.109L108.43 98.4453L108.102 100.812V100.859L107.645 103.438L107.633 103.543L107.609 103.637L106.824 106.156L106.777 106.309L106.695 106.449L105.406 108.77L105.312 108.934L105.172 109.074L103.367 110.914L101.633 112.906L101.527 113.035L101.387 113.129L99.2539 114.688L99.1484 114.758L99.043 114.816L96.6758 116.012L96.6055 116.035L96.5352 116.07L94.0625 117.031L93.875 117.102L93.6758 117.125L91.0391 117.406L90.9688 117.418H90.9102L88.2617 117.477H88.1328L88.0039 117.453L85.4023 117.043H85.3555L85.3086 117.031L82.7422 116.445L79.8945 115.496L79.7305 115.402L77.4922 113.949L77.4102 113.902L77.3281 113.832L75.3125 112.098L75.2188 112.016L75.1367 111.922L73.4258 109.895L73.3789 109.836L73.332 109.766L71.8438 107.574L71.7148 107.387L71.6445 107.164L70.9062 104.68L70.0273 102.219L70.0039 102.137L69.9922 102.066L69.3594 99.4766L69.3008 99.207L69.3242 98.9375L69.6523 96.2891L69.9102 93.6992L69.9336 93.5117L69.9922 93.3242L70.918 90.8516L71.7852 88.3555L71.9023 88.0391L73.9297 86.0117L75.582 83.9727L75.6758 83.8555L75.793 83.7617L77.8203 82.0859L77.8906 82.0156L77.9844 81.9688L80.2227 80.5742L80.3164 80.5156L80.4102 80.4805L82.8359 79.4141L82.9531 79.3555L83.0703 79.332L85.6484 78.6875L85.8594 78.6406L86.0703 78.6523L88.5664 78.7461L91.1211 78.3945L91.4727 78.3477L91.8125 78.4648ZM88.8594 81.7344L88.7305 81.7461H88.6016L86.1875 81.6406L83.9258 82.2031L81.7344 83.1641L79.6484 84.4531L77.8203 85.9648L76.2734 87.8984L76.2148 87.957L76.168 88.0156L74.5039 89.668L73.7422 91.8711L73.7305 91.8828V91.8945L72.875 94.1562L72.6406 96.6289V96.6641L72.3359 99.0195L72.8633 101.211L73.7305 103.684L73.7539 103.719V103.754L74.4336 106.051L75.7461 107.996L77.3516 109.895L79.168 111.465L81.2305 112.789L83.4102 113.516L85.8594 114.078L88.3672 114.465L90.8047 114.418L93.1484 114.148L95.3984 113.281L97.5781 112.18L99.4883 110.797L101.117 108.945L101.176 108.887L102.875 107.117L103.988 105.148L104.703 102.84L105.137 100.344L105.312 99.0078L105.277 98.0703L105.172 95.9023L105.02 93.5586L103.941 91.4844L103.895 91.3906L102.945 89.1875L101.34 87.4414L101.27 87.3594L101.211 87.2656L99.8516 85.25L98.1055 83.9492L95.7852 83.1758L95.7383 83.1523L95.7031 83.1406L93.3594 82.1797L91.168 81.418L88.8594 81.7344Z" fill="black"/>
<path d="M57.3242 94.6758L59.7266 95.6484L59.9844 95.7539L60.1836 95.9414L62.082 97.7109L62.293 97.9102L62.4219 98.1797L63.5352 100.617L63.7344 101.062L63.6289 101.555L63.4648 102.316L63.3359 102.926L63.1953 103.008L62.7031 104.871L62.6328 105.117L62.4805 105.34L61.0039 107.438L60.8281 107.695L60.5469 107.859L58.2852 109.207L57.957 109.406L57.5703 109.418L54.8984 109.512L54.4766 109.523L54.1016 109.312L51.8281 108.023L51.6641 107.93L51.5352 107.801L49.6484 105.996L49.3672 105.727L49.25 105.352L48.4883 102.809L48.3828 102.469L48.4414 102.129L48.875 99.5156L48.9219 99.2227L49.0859 98.9648L50.4922 96.6914L50.7148 96.3281L51.0898 96.1406L53.4688 94.9336L53.7383 94.8047L54.0312 94.7812L56.6328 94.5586L56.9961 94.5352L57.3242 94.6758ZM54.5703 97.7344L52.8242 98.6133L51.7812 100.277L51.4531 102.281L52.0039 104.098L53.457 105.492L55.2148 106.488L57.0781 106.43L58.7422 105.434L59.8789 103.828L60.4648 101.66L60.5469 101.309L59.8086 99.6914L58.332 98.3203L56.5273 97.582L54.5703 97.7344Z" fill="black"/>
<path d="M28.3902 97.3771L28.4402 97.2842L28.4727 97.2485L28.5005 97.1969L29.9085 95.2L31.1086 92.9713L32.3023 90.6061L32.3467 90.5235L33.6896 88.252L33.7341 88.1694L33.7833 88.1028L35.2794 86.1399L36.3922 83.8509L36.4422 83.7581L37.7645 81.4754L37.7811 81.4445L39.1392 79.1943L40.3456 76.9291L40.39 76.8466L40.4392 76.7799L41.9472 74.5973L41.952 74.6131L43.2767 72.4249L43.3378 72.3114L43.414 72.2193L44.9625 70.4312L45.3919 69.9303L46.0427 69.9081L48.6095 69.8129L51.2485 69.5835L51.3224 69.57L51.4009 69.5724L54.0209 69.6256L56.6631 69.6375L56.679 69.6327L56.6893 69.6383L59.2672 69.6954L61.9063 69.639L62.0269 69.6375L62.1523 69.6517L64.627 69.9994L67.0589 69.8581L69.6995 69.5763L69.8678 69.5605L70.0297 69.5811L72.5481 69.8724L75.0538 69.7176L75.1641 69.7105L75.2895 69.7248L76.6436 69.8549L76.5055 71.2979L78 71.2907L77.9984 71.3431L77.9952 73.0051L76.3539 72.84L75.1149 72.7186L72.5886 72.8622L72.4624 72.8741L72.337 72.8599L69.8599 72.5908L67.3827 72.8408L67.3407 72.8448L67.3145 72.844L64.6723 73.0051L64.5199 73.0162L64.3739 72.9908L61.8729 72.6424L59.3283 72.6964L59.3022 72.6956L59.2656 72.6892L56.6298 72.6408L56.6195 72.6352L54.009 72.6138L54.0035 72.6241L53.9931 72.6186L51.4303 72.5829L48.8754 72.8043L48.8333 72.8083L48.7968 72.8019L46.7967 72.8829L45.7697 74.0734L44.4617 76.2307L44.4172 76.3132L42.9148 78.4856L41.7528 80.6682L41.7139 80.7404L40.3503 83.0009L40.34 82.9953L39.0669 85.2113L37.9319 87.5416L37.87 87.6813L37.7827 87.794L36.1993 89.8695L34.9492 92.018L33.773 94.3261L32.6063 96.4929L34.8445 96.3405L34.9024 96.3318L34.9445 96.3278L37.4772 96.3207L39.9194 95.8389L40.0352 95.8214L40.1614 95.8095L42.7592 95.7309L45.3911 95.5643L45.407 95.5595L47.9698 95.4222L50.5993 95.1611L50.6096 95.1666L50.6255 95.1619L53.2534 94.9531L53.3114 94.9444L53.3796 94.9412L55.6027 94.9404L55.7202 94.8706L55.7496 94.9396L56.0171 94.9372L56.0147 95.3619L56.4996 96.1421L57.2838 97.4294L56.8084 97.7191L56.4504 97.939L56.0258 97.9366L53.509 97.939L50.8755 98.1581L50.8652 98.1525L48.2619 98.4144L48.2357 98.4136L48.2039 98.4232L45.5625 98.5581L45.5522 98.5525L42.9409 98.7303L42.9148 98.7295L42.8989 98.7343L40.3114 98.8184L37.8851 99.2954L37.7478 99.328L37.6065 99.3184L35.058 99.3303L33.8389 99.4192L34.7651 100.517L35.889 101.841L34.4143 102.75L33.0888 103.581L33.3444 103.625L35.8247 103.616L36.0239 103.617L36.2112 103.665L38.6137 104.32L41.0829 104.677L43.6235 104.581L43.7442 104.58L43.8592 104.589L46.4872 104.899L46.5864 104.912L46.6959 104.931L49.1246 105.587L51.6113 105.715L51.8097 105.742L54.2543 106.22L56.6385 106.439L58.2021 106.575L57.9926 108.126L57.9957 108.194L56.502 108.002L56.375 109.425L53.9908 109.205L53.9122 109.203L53.8392 109.19L51.3787 108.717L48.7984 108.566L48.6413 108.561L48.4905 108.52L45.9935 107.867L43.5799 107.579L41.0654 107.676L40.9289 107.682L40.7932 107.663L38.1828 107.295L38.0994 107.277L38.0058 107.253L35.6342 106.615L33.1642 106.629L33.0071 106.624L32.8404 106.588L30.2514 106.032L28.4283 105.636L29.2085 103.94L29.972 102.275L30.1625 101.872L30.5474 101.627L31.349 101.126L30.9697 100.669L28.9696 99.5391L28.4798 99.2621L28.2965 98.7375L28.2679 98.6422L28.0362 97.985L28.3902 97.3771Z" fill="black"/>
<path d="M58.7737 96.4023L58.8118 96.3562L60.1778 94.3633L61.358 92.0973L61.3477 92.0917L62.5208 89.7154L62.5327 89.6686L62.5652 89.6328L63.8669 87.3391L63.9113 87.2565L63.9605 87.1899L65.4527 85.185L66.5075 82.9047L66.5631 82.8015L67.8544 80.5022L67.8655 80.4816L69.1815 78.2354L70.3736 75.9226L70.4125 75.8504L70.4672 75.7734L71.9284 73.5788L71.9332 73.5947L73.2325 71.3795L73.2372 71.3953L73.6928 70.5493L74.9968 71.2914L76.3064 72.0232L75.835 72.874L75.8183 72.905L74.4754 75.1765L74.4532 75.2178L74.4206 75.2535L73.015 77.3449L71.8284 79.6474L71.7895 79.7196L70.4569 81.9967L70.4466 81.9912L69.21 84.2135L68.1004 86.5708L68.0385 86.7105L67.9512 86.8232L66.4091 88.9209L65.1852 91.0702L64.0447 93.4108L64.0336 93.4315L62.8192 95.7856L62.7748 95.8681L62.72 95.9451L61.2929 98.0516L61.1699 97.9587L60 97.2888L58.7015 96.5364L58.7737 96.4023Z" fill="black"/>
<path d="M55.563 96.474L55.548 96.4162L54.7232 94.1465L53.5788 91.8622L53.5683 91.8673L52.3198 89.5292L52.2789 89.4448L51.1727 87.0509L51.1223 86.893L50.3461 84.5087L49.1167 82.3176L49.0707 82.2227L47.9488 79.8233L47.9386 79.8022L46.8899 77.4196L45.704 75.1033L45.6683 75.0294L45.6431 74.9505L44.757 72.5542L43.6878 70.1294L43.6674 70.0872L42.6925 67.6688L41.6859 65.6693L42.9943 65.0102L42.3781 63.629L42.4043 63.6293L43.7171 63.0331L44.3609 64.3099L45.4134 66.4043L45.4389 66.4571L45.4539 66.5149L46.4441 68.9649L46.4336 68.97L47.4929 71.3476L47.5286 71.4214L48.4453 73.881L49.5853 76.1024L49.6159 76.1656L50.685 78.5905L50.6745 78.5956L51.7508 80.8738L53.0313 83.1703L53.1031 83.2918L53.1483 83.4392L53.9341 85.897L55.01 88.2014L54.9995 88.2065L56.2177 90.4551L56.2279 90.4762L57.4185 92.8293L57.4699 92.9085L57.5002 92.998L58.3758 95.3994L58.1073 95.4903L57 96L55.6344 96.6217L55.563 96.474Z" fill="black"/>
<path d="M71.4651 66.6285L70.7968 64.2309L70.2705 62.3137L72.2571 62.3317L74.8884 62.3472L74.9042 62.3522L74.9146 62.3468L77.4836 62.4207L77.4887 62.4049L80.1348 62.3468L80.2554 62.3506L80.3655 62.3598L82.8753 62.7279L85.337 62.5934L85.5936 62.5798L85.8304 62.6556L88.3969 63.3899L88.8967 63.5411L89.2007 63.9777L90.7258 66.1449L90.907 66.3943L90.9682 66.6923L91.5178 69.2433L91.6229 69.7033L91.4446 70.1247L90.4517 72.5476L90.3296 72.8479L90.0912 73.0761L88.1267 74.8922L87.6914 75.3011L87.0938 75.2925L84.7927 75.2783L84.6886 75.332L84.6564 75.2695L84.4205 75.2723L84.4256 74.8215L84.0016 73.9985L83.3043 72.6704L84.0752 72.2733L84.4474 72.2793L86.518 72.3068L87.7981 71.1068L88.4907 69.4318L88.0967 67.6179L87.0568 66.1367L85.2161 65.6085L82.8746 65.7206L82.7332 65.7275L82.6019 65.7029L80.0663 65.3613L77.5562 65.4021L77.5196 65.4077L77.4934 65.4081L74.8511 65.3456L74.2065 65.3481L74.2829 65.5987L75.5867 67.669L75.6132 67.6949L75.6347 67.7366L76.9255 70.0376L76.9792 70.1418L78.0929 72.5341L78.0825 72.5394L79.2531 74.8629L79.2906 74.9358L80.315 77.3082L81.5784 79.5048L81.616 79.5777L82.8077 81.9166L83.972 84.151L85.3878 86.3877L85.4626 86.5073L85.5116 86.6535L86.4207 89.0325L87.5638 91.2515L87.5689 91.2357L88.9327 93.4992L88.9434 93.52L90.2709 95.8153L90.3138 95.8987L90.3463 95.9874L91.3388 98.3235L91.1355 98.415L88.6665 99.6869L88.5699 99.4994L87.62 97.2205L86.3674 95.0448L84.9932 92.7866L84.9503 92.7033L83.727 90.3543L83.6894 90.2814L83.6623 90.2031L82.7638 87.8449L81.4282 85.7383L81.3799 85.6445L80.1461 83.3009L80.1354 83.2801L78.9759 81.0036L77.6588 78.7029L77.5837 78.5571L76.5858 76.2106L76.57 76.2055L75.3938 73.8454L75.3723 73.8038L74.2801 71.4532L73.064 69.2718L71.6324 67.0301L71.52 66.8375L71.4651 66.6285Z" fill="black"/>
<path d="M36.1172 60L36.2344 60.0234L36.3281 60.0352L36.4453 60.0586L38.8711 60.6328L41.3672 60.8906L41.3555 60.9023L43.9688 61.125H44.0156L44.0625 61.1367L46.6758 61.5234L46.7578 61.5352L46.8398 61.5586L49.207 62.2031L51.7617 62.3906L51.9258 65.3672L49.9805 65.707L49.8984 65.7188L49.8047 65.7305L47.2383 65.8594L47.25 65.8711L44.625 66.1523L44.543 66.1641H44.4492L41.8828 66.1523L39.2578 66.293H39.2109L36.5742 66.3516L35.3906 66.375L35.0859 65.2383L34.5703 63.293L34.5469 63.2227L34.5352 63.1523L34.3125 61.7461L34.0195 60H36.1172Z" fill="black"/>
<path d="M62 89L65.5 83.5L67 80" stroke="black" stroke-width="3"/>
<path d="M56.2064 88.397L54.4986 84L51.7909 79.603" stroke="black" stroke-width="3"/>
</svg>
