<svg xmlns="http://www.w3.org/2000/svg" viewBox="0 0 100 100">
  <!-- Trinacria Symbol -->
  <g fill="#FFD700">
    <!-- Center face -->
    <circle cx="50" cy="50" r="8" fill="#FFD700"/>
    <circle cx="47" cy="47" r="1.5" fill="#000"/>
    <circle cx="53" cy="47" r="1.5" fill="#000"/>
    <path d="M 45 55 Q 50 60 55 55" stroke="#000" stroke-width="1.5" fill="none"/>
    
    <!-- Three legs -->
    <!-- Top leg -->
    <path d="M 50 42 L 50 25 L 45 20 L 50 15 L 55 20 L 50 25" fill="#FFD700"/>
    <path d="M 50 25 L 45 20 L 50 15 L 55 20" stroke="#000" stroke-width="1" fill="none"/>
    
    <!-- Bottom left leg -->
    <path d="M 35 60 L 20 75 L 15 70 L 20 65 L 25 70 L 20 75" fill="#FFD700"/>
    <path d="M 20 75 L 15 70 L 20 65 L 25 70" stroke="#000" stroke-width="1" fill="none"/>
    
    <!-- Bottom right leg -->
    <path d="M 65 60 L 80 75 L 85 70 L 80 65 L 75 70 L 80 75" fill="#FFD700"/>
    <path d="M 80 75 L 85 70 L 80 65 L 75 70" stroke="#000" stroke-width="1" fill="none"/>
    
    <!-- Connecting lines -->
    <line x1="50" y1="42" x2="35" y2="60" stroke="#FFD700" stroke-width="3"/>
    <line x1="50" y1="42" x2="65" y2="60" stroke="#FFD700" stroke-width="3"/>
  </g>
</svg>
