<svg xmlns="http://www.w3.org/2000/svg" width="120" height="120" fill="none" viewBox="0 0 120 120"><path fill="currentColor" d="m50.55 35.02.08.14.04.17.46 1.9 1.68 1.05.39.23.18.42 1.07 2.43.04.06.02.06.84 2.5.03.08.02.08.54 2.44 1.05 2.25.02.03.02.05.96 2.46.01.01v.01l.83 2.27.7.92.1.14.45.12 1.09.27.04 1.13.1 2.63v.1l-.1 2.4.7 2.26.9 2.47.03.07.02.08.59 2.42 1.1 2.26.16.34v.08H65l2.63-.11.06-.02.07.02 2.64.1-.01.01 2.37.05-.01-2.29v-.15l.03-.15.5-2.47.23-1.21h1.23l2.65-.01h2.86l.19.06 2.36.65 2.48-.03h.14l.14.02 2.59.48 2.52.25.15.02.15.05 2.4.75 2.5.34h.07l.06.02 2.59.58.19.03.16.08 2.33 1.17 2.38 1.1.16.08.14.1L106 72.5l.37.3.13.44.7 2.32.08.25-.01.25-.1 2.64.22 2.46v.07l.1 2.64v.12l-.1 2.63-.02 2.6v.07l-.17 2.57.14 2.54v.09l-.01 2.64.03 2.62.21 2.53.02.15-.02.15-.31 2.53v2.44l.22 2.65.21 2.64v.13l-.01 1.63.74.15 2.4-.25.08-.01h.08l1.05.01-.02 1.5-.02 1.5-1-.01-2.5.26-.23.02-.22-.04-2.46-.49-2.42.01-2.5.44-.15.02-.17-.01-2.63-.1h-.08l-.07-.02-2.4-.34-2.39.47-.23.05-.24-.03-2.55-.32H87.2l-2.6.08-2.64.06h-2.59v.02l-2.63.18h-.19l-2.62-.48-2.4.28h-.25l-2.55-.13-2.56.16h-.13l-.13-.01-2.5-.28-2.45.27h-.07l-2.64.15-.15.01-.14-.02-2.55-.35-2.5.06h-.06l-2.64-.06v-.01h-2.64l-2.62-.05-2.5.22-.03.01h-.05l-2.64.1h-.11l-2.64-.1v-.02l-2.59-.01h-.05l-.04-.01-2.58-.18-2.53.13h-.08l-2.64-.01v-.01l-2.5.02-2.65.23-.14.02-.15-.02-2.53-.28-2.58.02v-.02l-2.54.18h-.01l-.01.01h-.2v.52h-1.44l-.03-.45-.98.05h-.18L8 117.5l.01-.22v-2.78h.21l2.46.2.78-.04.02-.1.35-2.55-.06-2.5v-.07l.06-2.65.01-2.6v-.02l.05-2.64-.23-2.48v-.08l-.1-2.64v-.12l.1-2.63.03-2.6v-.04l.01-.05.18-2.58-.13-2.53v-2.72h.02l-.04-2.5-.22-2.64-.01-.14.01-.15.28-2.54v-2.57l-.17-2.55-.01-.02-.12-2.65-.01-.1v-.07l.16-2.03-.02-.12-.08-.04.06-.15-.3-2.25v-.03l-.3-2.63-.01-.15.01-.15.25-2.57-.08-2.53v-.12l.12-2.47-.43-2.43-.13-.74.52-.55 1.6-1.7.07-.07.06-.06 2.03-1.7.06-.05.06-.05 2.2-1.48.08-.06.1-.05 2.37-1.16.03-.01.02-.02 2.41-1.07.08-.03.08-.02 2.46-.78 2.4-.97.05-.02.06-.02 2.52-.78H30v-.01l2.52-.75 2.48-.83.17-.05.17-.02 2.59-.23 2.54-.43 2.59-.47h.04l.05-.01 2.63-.31.15-.02.16.01 2.55.23-.06.67.16-.04.43-.22 1.34-.66zm26.12 64.9-.66 1.74-.3 2.32-.04 2.56v.03l-.12 2.57.12 2.45.35 2.62.05.4.66.12 2.45-.15.05-.01h.28v-.15l.1-2.46v-2.6l-.07-2.64-.04-2.62-.08-2.32-.88-1.71-.98-.64zm11.14-5.65.06.67.7 2.44.72 2.54.02.03v.05l.58 2.57.03.07v.06l.31 2.45.82 2.42.03.07v.08l.58 2.58.03.15v.16l.03 2.66v.08l-.07 1.28.77.1 1.33-.25-.01-1.14v-2.73l.13-2.5-.11-2.64v-.2l.25-2.6.03-.33.15-.28 1.23-2.14.78-1.36 1.32.83 2.12 1.32.67.42.04.79.11 2.67v.04l.04 2.63h-.01l.18 2.57v.01l.13 2.65.01.08v.08l-.12 1.99 2.1-.36.12-.01h.12l1.64-.02.01-1.3-.2-2.5-.22-2.64-.01-.07v-.07l.01-2.64v-.08l.01-.08.28-2.52-.2-2.46v-.1l-.03-2.64v-2.13l-1.83-.44-2.31.42-.28.05-.27-.06-2.52-.5-2.45-.06v-.02l-2.6-.04h-.02l-.02-.01-2.61-.13zM43.55 38.24l-2.56.46h-.02l-2.6.45h-.05l-.06.01-2.47.22-2.35.79h-.02l-.03.01-2.51.75-2.46.76-2.39.97-.05.02-.06.02-2.43.77-2.31 1.02-2.26 1.11-2.04 1.38-1.9 1.6-1.03 1.1.33 1.86.03.16-.01.17-.13 2.58.08 2.57v.2l-.25 2.5.26 2.46.33 2.41h.08v.22l-.02.23.01.13-.03.1-.16 2 .13 2.5.17 2.64v.1l.01 2.63.01.1v.08l-.29 2.5.21 2.49.01.05v.06l.03 2.64v.03l-.01 2.63.11 2.57.02.08-.02.08-.17 2.65-.03 2.55v.04l-.1 2.65.1 2.44.23 2.65v.15l-.05 2.64-.01 2.62v.02l-.06 2.64.06 2.58v.13l-.01.12-.31 2.15 1.32-.09h.83l.04-1.9v-.04l.01-.04.18-2.62.02-2.56v-.07l.14-2.58-.13-2.54-.01-.22.05-.21.62-2.49.22-.91.92-.19 2.1-.44 1.14-.25.52 1.04 1.16 2.35.18.38-.03.42-.26 2.67.04 2.47h-.02l.2 2.55v.05l.09 2.65v.1l-.02.12-.26 2.34.16-.02h.11l2.25-.03v-.11l-.13-1.85-.02-.02v-.03l-.09-2.61-.13-2.65v-.19l.21-2.62.01-.03v-.02l.3-2.6.02-.24.1-.2 1.07-2.39.32-.7.77-.15 2.09-.39 1.06-.2.53.95 1.26 2.29.2.37-.02.41-.11 2.66.02 2.46.2 2.64v.05l.12 2.65v.22l-.25 2.3.9.07v.01h.5l.12-.41-.27-2.34v-.03l-.24-2.64v-.16l.04-2.64v-.05l.02-.04.2-2.64.03-.19.06-.17.84-2.46.07-.2.12-.17 1.42-2.1.38-.56.7-.08 2.46-.28.67-.08.5.44 1.87 1.68.26.22.13.33 1.02 2.45.12.27v8.27l-.06 2.64v.1l-.06.64 1.65.03-.29-2.52v-.06l-.19-2.64v-.16l.1-2.64v-.04l.16-2.63v-.12l.02-.1.57-2.58v-.1l.04-.1.88-2.4.21-.57.55-.27 2.23-1.07.75-.35.7.43 2.09 1.31.36.23.19.38 1.16 2.38.19.38-.04.4-.2 2.67-.02 2.42.15 2.65v.01l.13 2.64.01.07v.08l-.13 2.47 1.54.22 2.5-.16v.01l.45-.05v-.37l-.8-.23-.42.05-.02-.17h-.03l.03-.1-.2-2.38v-.07l-.09-2.64v-.12l.12-2.63.04-2.6v-.15l.04-.12.52-2.56.04-.23.1-.2 1.24-2.22.28-.5.55-.19 2.38-.82.7-.25.64.44 2.05 1.4.28.2.16.3 1.33 2.3.17.3.02.35.17 2.66v.03l.1 2.63v.02l.05 2.64v.07l-.06 2.64v.14l-.27 2.36 1.05.06 1.68-.2-.32-2.37-.01-.06v-.07l-.13-2.64v-.14l.12-2.64.04-2.6v-.08l.01-.1.36-2.57.02-.18.06-.16.9-2.4.2-.52.48-.27 2.18-1.2.8-.43.75.5 2.05 1.35.33.22.17.34 1.22 2.36.16.3.02.34.08 2.66v.02l.04 2.62.08 2.64v2.75l-.12 2.46h.01v.04l2.01-.04 2.64-.07h1.51l.05-1.13-.03-2.5-.53-2.42h-.01l-.84-2.5v-.14l-.34-2.5-.56-2.5-1.45-5.08-.05-.14-.01-.15-.09-1.03-.38.01-.92.03-.44-.81-.02-.03-1.3.14h-.08l-2.64.1-2.63.16h-.1l-2.63-.03h-.17l-2.47-.31-2.5.2h-.03l-2.64.17h-.1l-2.54-.03-2.48.2h-.18l-2.64-.1h-.02l-2.55-.13-2.57.14h-.1l-2.56-.03-2.48.27-.08.01h-.09l-2.63-.02-2.53.07h-.07l-2.63-.06-2.46.01h-.12l-2.55-.21-2.33.32-2.53.44-.23.05-.22-.04-2.44-.3-2.42.37-.16.03-.14-.02-2.47-.11-2.54.38-1.49.23-.21-1.5-.35-2.45-.01-.06v-.05l-.18-2.65-.01-.05v-.08l.06-2.63v-.15l.03-.14.56-2.54.18-.8.79-.29 2.37-.84 1.07-.37.66.92 1.5 2.11.32.47-.05.56-.27 2.44.47 2.41.04.24-.03.23-.23 1.69 1.7-.26.04-.34-.19-2.5v-.1l-.01-2.63v-.1l.14-2.6.02-.54.38-.4 1.78-1.89.6-.63.84.2 2.5.6.72.17.3.7.98 2.24.1.22.02.25.24 2.64v.03l.18 2.63v.04l.05 1.46 1.17.1.09-1.22-.09-2.48v-2.8l.01-.12.42-2.53.08-.5.36-.36 1.91-1.8.7-.66.88.34 2.42.95.56.21.26.55 1.04 2.25.12.26v.28l.17 2.64.13 2.64v.11l-.01.1-.17 2.22h1.04l.1-1.93.09-2.5-.1-2.64V84l.04-.2.59-2.52.09-.42.3-.3 1.8-1.77.43-.44h.61l2.61-.02.84-.01.44.7 1.42 2.22.17.28.05.32.35 2.56v.05l.01.04.2 2.64v.04l.11 2.64.01.1-.01.1-.08.91 2.26.11.7.02-.04-1.24-.01-.07.01-.07.18-2.63-.05-2.51v-.17l.03-.16.5-2.52.09-.42.28-.3 1.76-1.9.33-.36.48-.1 2.56-.52.7-.14.55.46 2.02 1.66.34.28.14.41.79 2.4.05.16v.15l.29 2.64v.08l.13 2.64v.2l-.14 1.66 1.2-.1h.16l.14.02 1.4.16-.07-.27-.06-.24.02-.26.28-2.65.09-2.5v-.16l.34-2.6.07-.53.38-.36 1.93-1.85.27-.25.34-.1 2.23-.67-.63-2.43-.6-1.3-1.72-.09-2.65-.1v-.01l-2.53-.06h-.03l-2.57-.1-2.58.12h-.09l-2.47-.03-2.59.2h-.1l-2.63.03h-.14l-2.5-.2-2.43.34-.1.03H52l-2.62.02v.01l-2.23.06-.04.26h-.02l-.75-.14-1.93.37-.18.04-.19-.01-2.46-.18-2.44.37h-.03l-.05.02-1.17.1v.31l-1.36.13h-.03l-.03-.3-2.27.66-.3.1-.32-.05-.78-.1-.84.22-2.58.65-.15.05h-.16l-2.31.1-2.2.83-.1.03-.1.02-2.56.61-.16.03-2.64.31-.15.03-.14-.02-2.55-.2.07-1.08-.03-.21-.22.03-.06-.41-.01-.06v-.07l-.14-2.6v-.1l.01-2.63v-.04l.01-.03.13-2.66.04-.7.56-.43 2.05-1.52.77-.59.86.47 2.03 1.14.57.32.15.64.61 2.53.03.12v.12l.2 2.63.02.1-.01.13-.08 1.19 2.03-.77-.05-2.24-.22-2.64v-.1l-.03-2.66v-.54l.32-.41 1.62-2.04.52-.66.83.1 2.45.28 1 .11.28.98.67 2.45.04.14.01.14.2 2.62.01.03v.03l.1 2.64v.16l-.03.17-.05.31.22.03 1.24-.35v-.82l-.13-2.64v-.1l.05-2.64v-.12l.03-.12.46-2.54.08-.44.31-.33 1.82-1.9.77-.8.99.5 2.28 1.14.53.27.2.57.86 2.39.05.15.03.16.33 2.63v.06l.22 2.63v.19l-.04.94.32.03 1.72-.33.01-.05.14-2.56-.15-2.56v-.17l.02-.17.45-2.54.06-.36.22-.28 1.56-2.06.31-.4.5-.13 2.53-.66.65-.16.57.37 2.15 1.47.39.25.16.42.94 2.36.08.21.03.22.2 2.64v.04l.16 2.62v.14l-.03.87.52.04 2.54-.02 1.68-.13-.76-1.56-.07-.15-.04-.15-.61-2.5-.87-2.4-.01-.04-.01-.03-.8-2.56-.07-.24.01-.25.1-2.6-.06-1.45-.74-.2-2.13.58-.13.04h-.14l-1.43.13h-.01l-1.12.1-2.54.45-.1.02h-.12l-2.57.08-2.53.31-2.57.42h-.05l-2.6.33-2.61.37h-.02l-2.48.33-2.4.77-.13.04-.13.02-2.57.35-2.54.51-.04.01h-.04l-2.5.38-2.41.75-.14.05-.14.01-1.73.2-.94.32-.18.06-.05-.15-1.83.64-.07.03-.08.02-.1.02L16 63l-.2-.9-.2-.54.06-.02h.02l.68-.24-.15-.66-.03-.16V57.6l.14-2.64v-.08l.02-.1.46-2.61.16-.9.87-.28 2.34-.73 1.05-.34.64.93 1.34 1.97.23.33.03.4.22 2.6v.1l.08 2.64v.01l.02.6 2.22-.32-.11-.05-.31.02V59l-.08-.03.08-.16-.1-2.32v-.11l.11-2.63.08-2.93.14-.28 1.1-2.38.42-.92 1.02.06 2.46.14.94.06.37.88.93 2.3.09.2.01.22.25 2.63v.07l.12 2.64.01.08v.07l-.06.96.1-.03.13-.04.13-.02 1.74-.23-.06-.37-.03-.19.02-.18.26-2.57-.01-2.54-.01-.06.01-.05.19-2.64.02-.23.08-.2.95-2.38.18-.48.43-.25 2.25-1.35.92-.56.82.7 1.98 1.68.37.33.12.47.6 2.49.02.12.01.11.21 2.64.02.03v.03l.1 2.64v.18l-.1 1.32 2-.25h.14l.47-.02.03-.2.38-2.61.1-2.5.14-2.64.03-.4.21-.33 1.46-2.25.45-.68.82.01h1.06l-.5-1.5-.9-2-1.77-1.1-.52-.33-.14-.58-.1-.39-2.31-.2zm-23.31 62.51-.33 1.37.13 2.4v.17l-.15 2.55-.01 2.65v.05l-.01.05-.18 2.63-.04 1.87 1.58.17.86-.07h-.05l-1.5-.01v-.18l.02-.07.27-2.42-.1-2.49-.17-2.65v-.08l-.04-2.63v-.09l.01-.08.21-2.21-.45-.94zm19.27-.22-.94 1.36-.73 2.1-.19 2.45-.04 2.54.23 2.47h-.01l.3 2.61.04.28-.06.21 1.58.07 2.5-.09.17-.01.11-1.15.06-2.48-.01-2.65v-5l-.78-1.86-1.12-1zm24.55-.8-.82 1.5-.46 2.24-.03 2.48v.03l-.12 2.64.1 2.46.2 2.64.02.27-.07.25-.03.1.44-.05.15-.01h.17l2.48.3 1.18-.07v-.19l.28-2.44.06-2.52-.06-2.62-.08-2.6-.15-2.3-1-1.71-1.12-.78zm32.91 3.52-.21 2.15.1 2.59v.12l-.11 2.64-.01 2.58v1.12l.95.13.11-2.03-.13-2.52-.17-2.65v-.07l-.04-2.59-.1-1.89-.1-.08zm-67.16-2.44-.65 1.46-.26 2.3-.2 2.44.13 2.64.1 2.6.12 1.84.01.2-1.48.11-.24.02 1.7.01 1.54-.07v-.03l.27-2.47-.12-2.44-.19-2.63-.01-.05v-.05l-.02-2.65v-.07l.09-2.23-.54-.98zm21.13-.98-.6 1.67-.52 2.41-.17 2.5-.08 2.65.18 2.41.3 2.64.02.24h.2l2.6.06.8-.02.12-2.44-.13-2.54-.15-2.65v-.1l.01-2.63v-.06l.01-.06.18-2.26-.8-1.62-1.03-.64zm-3.05 14.52h.38l-.02-.04zM20.15 84.59l-.36 1.57-.04 2.36.16 2.6.13.88 1.16-.16.24-1.82-.45-2.36-.05-.21.03-.23.22-2.1-.52-.72zm78.62.11-.02 1.7.01 2.6.06 2.6v.18l.73.14.29-2.05-.12-2.42-.19-2.2-.48-.66zM75.75 69.25v2.27l2.55.15.9.05.38.83 1.03 2.25.04.12.04.11.64 2.49.81 2.52.06.15.01.15.27 2.5.74 2.39.02.08.02.07.48 2.47.84 2.17.7 1.3.52-.01.17-2.06-.14-2.51v-.05l-.06-2.63-.01-.31.12-.28.95-2.37.2-.52.49-.25 2.28-1.21.93-.5.77.7 1.89 1.7.4.35.08.51.42 2.56v.05l.01.04.27 2.63v.04l.21 2.64v.19l-.07 1.4h.04l1.07.03-.06-2.42v-.02l-.01-2.65v-.03l.04-2.68.02-.98.91-.38 2.29-.92 1.07-.45.7.94 1.42 1.93.26.34.04.44.2 2.62.02.02v.03l.13 2.63.01.16-.02.14-.2 1.36.22.05 1.34.32-.01-.07.01-.1.16-2.54.02-2.65v-.05l.1-2.51-.1-2.65v-.01l-.23-2.56v-.19l.1-2.39-.5-1.65-1.52-1.2-2.21-1.01-.05-.03-2.25-1.13-2.3-.5-2.56-.34h-.14l-.13-.06-2.4-.76-2.45-.24h-.06l-.06-.02-2.47-.45-2.5.03h-.21l-.21-.06-2.38-.65h-3.88zM28.87 84.08l-.12 1.98h.01l.01 2.54.18 2.64v.25l-.04.3.4.05 2.3-.4-.05-1.65-.16-2.6-.23-2.38-.58-1.36-.93-.23zm60.52-1.36-.62 1.57.06 2.28.13 2.65.01.1-.01.1-.15 1.82.61-.01h.12l2.17.11.06-1.36-.19-2.5-.25-2.55L91 82.9l-.73-.64zM39.1 83l-.3 1.88v2.52l.08 2.64v.07l-.02.08-.07 1.1.85-.01h.04l1.97.03.19-2.44-.12-2.5-.14-2.34-.68-1.45-.97-.38zm11.18-1.66-1.04 1.03-.45 1.92.1 2.43v.12l-.09 2.63v.03l-.09 1.64 1.22-.13.1-.01h.1l2.52.03h.11l.1-1.2-.12-2.48-.17-2.54-.32-2.24-.78-1.24zm13.08.1-1.13 1.24-.4 1.97.05 2.46v.13l-.2 2.63.04 1.17 1.3-.1.06-.01h.07l2.55.02 1-.06.17-1.93-.13-2.64v-.01l-.25-2.36-.6-1.86-1.14-.94zm14.06.31L76.12 83l-.25 2-.08 2.56v.12l-.26 2.39.2.85h.53l2.62-.12h.01l2.57-.1.16-.03-.73-1.85-.05-.13-.02-.12-.47-2.45-.77-2.53-.04-.13-.02-.14-.24-2.11zM18.87 70.03l-.1 1.97-.01 2.58.09 1.65 1.8-.21.14-2-.19-2.4-.42-1.76-.61-.34zm9.57-2.61.03 2.13.21 2.53.01.05v.04l.05 2.14h.04l1.48-.38.21-1.2-.08-2.4-.18-2.45-.4-1.36-.6-.07zm9.7-2.3-.36 1.99-.04 2.5.13 2.55v.47l.91-.08 1.92-.29.04-.91-.2-2.5-.3-2.5-.6-1.63-.76-.38zm11.98-1.64-1.02 1.35-.35 2 .14 2.48.01.08-.01.08-.13 2.3.52-.02h.03l2.5-.02 1.9-.28.02-.77-.14-2.6-.2-2.38-.7-1.75-1.2-.82zm-30.52-9.9-.3 1.61-.12 2.48v2.45l.09.42 1.52-.18-.03-1.39-.06-2.55-.2-2.23-.5-.73zm9.05-2.04-.06 2.34-.1 2.52.08 2.26h.01l.05-.01h.05l1.73-.24.12-1.83-.13-2.64v-.02l-.21-2.32-.5-1.21-.5-.03zm10.92-4.13-.66 1.7-.18 2.39.03 2.52v.17l-.26 2.44.03.2.53-.07h.01l2.61-.33.19-.03.15-2.04-.1-2.4-.2-2.54-.46-1.88-.8-.67zm11.58.86-.11 2.26-.1 2.61-.02.08v.08l-.33 2.12 1.5-.27.07-.01.07-.01 1.44-.12v-.42h1.4l-.9-1.01.2-.18.25-.21.29-.1.4-.12.07-.02-.2-.52-.9-2.34-1.13-2.4-.07-.14-.04-.17-.07-.31-1.02-.02z"/></svg>