<svg width="120" height="120" viewBox="0 0 120 120" fill="none" xmlns="http://www.w3.org/2000/svg">
<path d="M50.5488 35.0205L50.6309 35.1611L50.666 35.3252L51.1348 37.2354L52.8105 38.2783L53.1973 38.5127L53.3848 38.9346L54.4512 41.3604L54.4863 41.4189L54.5098 41.4775L55.3535 43.9854L55.377 44.0557L55.4004 44.1377L55.9395 46.5752L56.9941 48.8252L57.0059 48.8604L57.0293 48.9072L57.9902 51.3682L58.002 51.3799V51.3916L58.834 53.665L59.5254 54.5791L59.6309 54.7207L60.0781 54.835L61.167 55.1123L61.207 56.2354L61.3018 58.8662L61.3037 58.9189L61.3018 58.9717L61.2188 61.3672L61.916 63.627L62.8086 66.0967L62.8359 66.1719L62.8555 66.25L63.4482 68.6689L64.5479 70.9277L64.7139 71.2695L64.71 71.3477L64.998 71.3525L67.6348 71.2354L67.6934 71.2236L67.7637 71.2354L70.4004 71.3408L70.3887 71.3525L72.7578 71.3955L72.748 69.1143V68.9619L72.7832 68.8096L73.2754 66.3369L73.5098 65.1299H74.7402L77.3887 65.1182H80.248L80.4355 65.1768L82.8027 65.833L85.2754 65.7979H85.416L85.5566 65.8213L88.1465 66.3018L90.666 66.5479L90.8184 66.5713L90.9707 66.6182L93.3613 67.3682L95.8691 67.708H95.9395L95.998 67.7314L98.5879 68.3057L98.7754 68.3408L98.9395 68.4229L101.271 69.5947L103.65 70.6846L103.814 70.7666L103.955 70.8721L105.994 72.501L106.357 72.7939L106.486 73.2393L107.189 75.5596L107.271 75.8057L107.26 76.0635L107.154 78.7002L107.377 81.1611V81.2314L107.482 83.8682V83.9854L107.377 86.6221L107.365 89.2119V89.2939L107.189 91.8604L107.33 94.4033V94.4854L107.318 97.1338L107.354 99.7471L107.564 102.278L107.576 102.431L107.564 102.583L107.248 105.114V107.552L107.471 110.2L107.682 112.837V112.966L107.666 114.6L108.406 114.746L110.809 114.5L110.891 114.488H110.973L112.016 114.5L112.004 116L111.98 117.5L110.984 117.488L108.477 117.746L108.254 117.77L108.031 117.734L105.57 117.242L103.145 117.254L100.648 117.688L100.496 117.711L100.332 117.699L97.6953 117.594H97.625L97.5547 117.582L95.1523 117.242L92.7617 117.711L92.5273 117.758L92.293 117.734L89.7383 117.406L87.207 117.418L87.1953 117.406L84.6055 117.488H84.5938L81.957 117.547H81.9336L79.3672 117.559L79.3789 117.57L76.7422 117.746L76.5547 117.758L73.9297 117.266L71.5391 117.547L71.4102 117.559H71.2812L68.7266 117.418L66.1719 117.582H66.043L65.9141 117.57L63.418 117.289L60.957 117.559H60.8867L58.25 117.711L58.0977 117.723L57.957 117.699L55.4141 117.348L52.9062 117.406H52.8477L50.2109 117.348V117.336H47.5742L44.9492 117.289L42.4531 117.512L42.418 117.523H42.3711L39.7344 117.617H39.6172L36.9805 117.512V117.5L34.3906 117.488H34.3438L34.2969 117.477L31.7188 117.301L29.1875 117.43H29.1055L26.4688 117.418V117.406L23.9609 117.43L21.3242 117.664L21.1836 117.676L21.0312 117.664L18.5 117.383L15.9219 117.395V117.383L13.3789 117.559H13.3672L13.3555 117.57L13.166 117.578V118.091H11.7246L11.6855 117.644L10.707 117.688L10.6133 117.699L10.5312 117.688L7.98828 117.5L8 117.277V114.5H8.21094L10.6719 114.699L11.4502 114.662L11.4668 114.552L11.8184 112.009L11.7598 109.501V109.442L11.8184 106.794L11.8301 104.181V104.169L11.877 101.532L11.6543 99.0479L11.6426 99.0127V98.9658L11.5488 96.3291V96.2119L11.6543 93.5752L11.6777 90.9854V90.9385L11.6895 90.8916L11.8652 88.3135L11.7363 85.7822V85.7002L11.748 83.0635H11.7598L11.7246 80.5674L11.502 77.9189L11.4902 77.7783L11.502 77.626L11.7832 75.0947L11.7715 72.5166L11.6074 69.9736V69.9619L11.5957 69.9502L11.4785 67.3018L11.4668 67.208L11.4785 67.126L11.6279 65.0967L11.6123 64.9766L11.5254 64.9424L11.5869 64.7881L11.2881 62.5449L11.2842 62.5059L11.0049 59.8789L10.9883 59.7275L11.0029 59.5752L11.251 57.0137L11.1709 54.4785L11.1689 54.418L11.1719 54.3584L11.2939 51.8945L10.8633 49.4629L10.7324 48.7227L11.2471 48.1748L12.8555 46.4619L12.916 46.3975L12.9844 46.3408L15.0088 44.6377L15.0684 44.5879L15.1328 44.5449L17.3223 43.0596L17.4092 43L17.5029 42.9541L19.8789 41.7891L19.9053 41.7764L19.9316 41.7646L22.3447 40.6943L22.4209 40.6611L22.5 40.6357L24.959 39.8574L27.3545 38.8887L27.4131 38.8652L27.4727 38.8467L29.9922 38.0654L30 38.0635L30.0078 38.0605L32.5156 37.3125L35.0039 36.4824L35.1699 36.4268L35.3447 36.4111L37.9277 36.1797L40.4727 35.749L43.0586 35.2812L43.1035 35.2734L43.1504 35.2676L45.7773 34.958L45.9326 34.9404L46.0869 34.9541L48.6357 35.1836L48.5752 35.8477L48.7441 35.8057L49.166 35.5947L50.5137 34.9268L50.5488 35.0205ZM76.6738 99.9268L76.0059 101.661L75.7012 103.981L75.666 106.536V106.571L75.5488 109.138L75.666 111.587L76.0176 114.212L76.0654 114.61L76.7305 114.734L79.1797 114.582L79.2266 114.57H79.2617L79.5098 114.568V114.423L79.6152 111.962V109.36L79.5449 106.724V106.712L79.498 104.099L79.416 101.778L78.5371 100.067L77.5645 99.4346L76.6738 99.9268ZM87.8115 94.2656L87.8652 94.9385L88.5684 97.376L89.2949 99.9189L89.3066 99.9541L89.3184 100.001L89.8926 102.567L89.916 102.638V102.696L90.2324 105.146L91.0527 107.571L91.0762 107.642L91.0879 107.724L91.6621 110.302L91.6855 110.454V110.606L91.7207 113.267V113.349L91.6523 114.632L92.4219 114.734L93.7539 114.476L93.7363 113.345V113.321L93.748 110.673V110.614L93.8652 108.106L93.7598 105.47V105.271L94.0059 102.669L94.041 102.341L94.1934 102.06L95.4238 99.915L96.1973 98.5557L97.5215 99.3877L99.6426 100.712L100.311 101.134L100.346 101.919L100.463 104.591V104.626L100.498 107.263H100.486L100.674 109.829V109.841L100.803 112.489L100.814 112.571L100.803 112.653L100.692 114.639L102.793 114.277L102.91 114.266H103.027L104.669 114.251L104.682 112.942L104.482 110.446L104.26 107.81L104.248 107.739V107.669L104.26 105.032V104.95L104.271 104.868L104.553 102.349L104.354 99.8877V99.7822L104.318 97.1455V97.1221L104.327 95.0244L102.486 94.5791L100.178 95.001L99.8965 95.0479L99.627 94.9893L97.1074 94.4971L94.6582 94.4268V94.415L92.0566 94.3682H92.0449L92.0215 94.3564L89.4082 94.2275L87.8115 94.2656ZM43.5469 38.2412L40.9902 38.7041L40.9814 38.7061L40.9727 38.707L38.375 39.1465L38.3174 39.1562L38.2598 39.1611L35.7871 39.3828L33.4395 40.168L33.416 40.1758L33.3926 40.1826L30.8799 40.9297L30.8809 40.9307L28.4219 41.6924L26.0332 42.6592L25.9795 42.6807L25.9238 42.6982L23.4854 43.4697L21.1777 44.4932L18.918 45.6006L16.8818 46.9824L14.9824 48.5791L13.9482 49.6807L14.2764 51.5361L14.3057 51.7021L14.2979 51.8701L14.1709 54.4453L14.252 57.0195L14.2549 57.1152L14.2461 57.2109L14.0029 59.7158L14.2646 62.1758L14.5869 64.5947H14.666V64.8057L14.6465 65.0391L14.665 65.1719L14.6289 65.2617L14.4668 67.2666L14.5957 69.7744L14.7715 72.4111V72.5049L14.7832 75.1416L14.7949 75.2354L14.7832 75.3174L14.502 77.8252L14.7129 80.3096L14.7246 80.3564V80.415L14.748 83.0635V83.0869L14.7363 85.7236L14.8535 88.29L14.8652 88.3721L14.8535 88.4541L14.6777 91.1025L14.6543 93.6455V93.6924L14.5488 96.3408L14.6426 98.7783L14.877 101.427V101.579L14.8301 104.216L14.8184 106.841V106.864L14.7598 109.501L14.8184 112.079V112.208L14.8066 112.325L14.498 114.481L15.8164 114.395H15.9102L16.6455 114.391L16.6895 112.481V112.446L16.7012 112.411L16.877 109.786L16.9004 107.231V107.161L17.041 104.583L16.9121 102.04L16.9004 101.817L16.9473 101.606L17.5684 99.1221L17.791 98.208L18.7051 98.0205L20.8145 97.5752L21.9512 97.3291L22.4668 98.3721L23.627 100.716L23.8145 101.103L23.7793 101.524L23.5215 104.185L23.5566 106.657H23.5449L23.7324 109.212V109.259L23.8262 111.907V112.013L23.8145 112.13L23.5547 114.466L23.7148 114.453L23.7617 114.441H23.8203L26.0703 114.421L26.0645 114.321V114.31L25.9355 112.458L25.9238 112.435V112.411L25.8301 109.798L25.7012 107.149V106.962L25.9121 104.337L25.9238 104.313V104.29L26.2168 101.688L26.2402 101.454L26.334 101.243L27.4121 98.8643L27.7285 98.1611L28.502 98.0088L30.5879 97.6221L31.6543 97.4111L32.1816 98.3721L33.4355 100.657L33.6348 101.032L33.623 101.442L33.5059 104.103L33.5293 106.563L33.7285 109.2V109.247L33.8457 111.896L33.8574 112.001L33.8457 112.118L33.5996 114.428L34.5078 114.488L34.4961 114.5L35.0088 114.502L35.123 114.087L34.8535 111.755V111.72L34.6074 109.083V108.919L34.6543 106.282V106.235L34.666 106.188L34.877 103.552L34.9004 103.364L34.959 103.188L35.8027 100.728L35.873 100.528L35.9902 100.364L37.4082 98.2666L37.7949 97.7041L38.4863 97.6221L40.9473 97.3408L41.6152 97.2588L42.1191 97.7041L43.9941 99.3799L44.252 99.6025L44.3809 99.9307L45.4004 102.38L45.5176 102.649V108.239L45.5293 110.876V110.923L45.459 113.56V113.665L45.3965 114.296L47.0498 114.325L46.7598 111.81V111.751L46.5723 109.114V108.95L46.666 106.313V106.267L46.8301 103.642V103.524L46.8535 103.419L47.416 100.841L47.4277 100.735L47.4629 100.642L48.3418 98.2393L48.5527 97.665L49.1035 97.3955L51.3301 96.3291L52.0801 95.9775L52.7715 96.4111L54.8691 97.7236L55.2324 97.9463L55.4199 98.333L56.5801 100.712L56.7676 101.087L56.7324 101.497L56.5215 104.157L56.5098 106.583L56.6621 109.231V109.243L56.791 111.88L56.8027 111.95L56.791 112.032L56.666 114.496L58.2148 114.723L60.7109 114.559V114.57L61.1602 114.521L61.166 114.2V114.153L60.3574 113.919L59.9355 113.966L59.9238 113.802H59.8887L59.9238 113.708L59.7246 111.317V111.247L59.6309 108.61V108.493L59.748 105.856L59.7949 103.255V103.114L59.8301 102.985L60.3457 100.431L60.3926 100.196L60.498 99.9971L61.7285 97.7822L62.0098 97.2783L62.5605 97.0908L64.9395 96.2705L65.6426 96.0244L66.2754 96.458L68.3262 97.8643L68.6074 98.0635L68.7715 98.3564L70.0957 100.653L70.2715 100.958L70.2949 101.31L70.459 103.97V104.005L70.5527 106.63V106.653L70.6113 109.29V109.36L70.5527 111.997V112.138L70.2783 114.505L71.3281 114.559L73.0068 114.361L72.6895 111.985L72.6777 111.927V111.856L72.5488 109.22V109.079L72.666 106.442L72.7129 103.841V103.759L72.7246 103.665L73.0762 101.087L73.0996 100.911L73.1582 100.747L74.0605 98.3447L74.2598 97.8291L74.7402 97.5596L76.9199 96.3643L77.7168 95.9307L78.4668 96.4346L80.5176 97.7822L80.8457 98.0049L81.0215 98.3447L82.2402 100.7L82.4043 101.005L82.416 101.345L82.498 104.005V104.017L82.5449 106.642L82.6152 109.278V109.313L82.627 111.95V112.032L82.498 114.493H82.5098V114.532L84.5234 114.488L87.1602 114.418H87.1953L88.667 114.411L88.7207 113.29L88.6855 110.794L88.1582 108.368H88.1465L87.3145 105.872L87.3027 105.731L86.9746 103.235L86.4121 100.739L84.959 95.6533L84.9121 95.5127L84.9004 95.3604L84.8145 94.335L84.4277 94.3447L83.5137 94.3682L83.0684 93.5596L83.0537 93.5322L81.752 93.6689H81.6699L79.0332 93.7744L76.3965 93.9268H76.3027L73.666 93.9033H73.584L73.502 93.8916L71.0293 93.5869L68.5215 93.7861H68.498L65.8613 93.9619H65.7559L63.2246 93.9268L60.7402 94.126H60.5645L57.916 94.0205H57.9043L55.3496 93.9033L52.7832 94.0439H52.6777L50.123 94.0088L47.6387 94.2783L47.5566 94.29H47.4746L44.8379 94.2666L42.3066 94.3369H42.2363L39.6113 94.2783L37.1504 94.29H37.0332L34.4785 94.0791L32.1465 94.3955L29.6152 94.8408L29.3926 94.8877L29.1699 94.8525L26.7324 94.5479L24.3066 94.9229L24.1543 94.9463L24.0137 94.9346L21.541 94.8174L18.998 95.2041L17.5098 95.4268L17.2988 93.9385L16.9473 91.4775L16.9355 91.4189V91.3721L16.7598 88.7236L16.748 88.665V88.5947L16.8066 85.958V85.8057L16.8418 85.665L17.4043 83.1338L17.5801 82.3252L18.3652 82.0439L20.7441 81.2002L21.8105 80.8252L22.4668 81.751L23.9668 83.8604L24.2949 84.3291L24.2363 84.8916L23.9668 87.3291L24.4355 89.7432L24.4824 89.9775L24.4473 90.2119L24.2246 91.8994L25.9238 91.6406L25.959 91.2979L25.7715 88.8018V88.708L25.7598 86.0713V85.9775L25.9004 83.376L25.9238 82.8252L26.2988 82.4268L28.0801 80.54L28.6777 79.9072L29.5215 80.1064L32.0176 80.7041L32.7441 80.8799L33.0371 81.5713L34.0215 83.8213L34.127 84.0439L34.1387 84.29L34.3848 86.9268V86.9619L34.5605 89.5869V89.6338L34.6074 91.0928L35.7803 91.1846L35.8652 89.9697L35.7832 87.4854V84.6846L35.7949 84.5674L36.2051 82.0361L36.2871 81.5322L36.6504 81.1807L38.5605 79.376L39.252 78.7197L40.1426 79.0596L42.5566 80.0088L43.1191 80.2197L43.377 80.7705L44.4199 83.0205L44.5371 83.2783L44.5488 83.5596L44.7129 86.1963V86.208L44.8418 88.8447V88.9502L44.8301 89.0439L44.6553 91.2686L44.7793 91.2666H44.8262L45.7002 91.2705L45.7949 89.3447L45.8887 86.8369L45.7832 84.2002V84.001L45.8301 83.8018L46.416 81.2822L46.5098 80.8604L46.8145 80.5557L48.6074 78.7861L49.041 78.3525H49.6504L52.2637 78.3291L53.0957 78.3174L53.541 79.0205L54.959 81.2354L55.1348 81.5166L55.1816 81.8447L55.5332 84.3994V84.4463L55.5449 84.4932L55.7324 87.1299V87.165L55.8496 89.8135L55.8613 89.9072L55.8496 90.001L55.7725 90.9209L58.0332 91.0322H58.0215L58.7207 91.0537L58.6895 89.8135L58.6777 89.7432L58.6895 89.6729L58.8652 87.0361L58.8184 84.5283V84.3643L58.8535 84.2002L59.3574 81.6807L59.4395 81.2588L59.7207 80.9541L61.4785 79.0557L61.8066 78.7041L62.2871 78.5986L64.8535 78.083L65.5449 77.9424L66.0957 78.3994L68.123 80.0635L68.4629 80.3447L68.6035 80.7549L69.3887 83.1572L69.4355 83.3096L69.4473 83.4619L69.7285 86.0986V86.1807L69.8574 88.8174V89.0166L69.7178 90.6826L70.9238 90.5869L71.0762 90.5752L71.2168 90.5986L72.6113 90.7646L72.5488 90.4932L72.4902 90.2471L72.5137 89.9893L72.7949 87.3408L72.877 84.833V84.7627L72.8887 84.6807L73.2168 82.0791L73.2871 81.5518L73.6738 81.1885L75.5957 79.3369L75.8652 79.0908L76.2051 78.9854L78.4434 78.3193L77.8066 75.8877L77.209 74.5986L75.4863 74.5049V74.4932L72.8379 74.3994V74.3877L70.3066 74.3291H70.2832L67.7051 74.2236L65.127 74.3525H65.0449L62.5723 74.3174L59.9824 74.5166H59.8887L57.252 74.5518H57.1113L54.6152 74.3408L52.1777 74.6924L52.084 74.7158H51.9902L49.3652 74.7393L49.377 74.751L47.1416 74.8145L47.0957 75.0713H47.084L46.3252 74.9316L44.3965 75.3018L44.2207 75.3369L44.0332 75.3252L41.5723 75.1494L39.1348 75.5244H39.0996L39.0527 75.5361L37.877 75.6318V75.9541L36.5176 76.083H36.4941L36.4648 75.7783L34.1895 76.4385L33.8848 76.5322L33.5684 76.4854L32.791 76.3828L31.9512 76.6064L29.373 77.2627L29.2207 77.3096H29.0566L26.748 77.4033L24.5449 78.2354L24.4512 78.2705L24.3574 78.2939L21.791 78.9033L21.627 78.9268L18.9902 79.2432L18.8379 79.2666L18.6973 79.2549L16.1543 79.0557L16.2246 77.9658L16.1934 77.7598L15.9707 77.79L15.9121 77.3799L15.9004 77.3213V77.251L15.7598 74.6494V74.5557L15.7715 71.9189V71.8838L15.7832 71.8486L15.9121 69.1885L15.9473 68.4854L16.5098 68.0635L18.5605 66.54L19.334 65.9541L20.1895 66.4229L22.2168 67.5596L22.791 67.876L22.9434 68.5205L23.5527 71.0518L23.5762 71.1689L23.5879 71.2861L23.7871 73.9229L23.7988 74.0283L23.7871 74.1455L23.709 75.3379L25.7402 74.5674L25.6934 72.3291L25.4707 69.6924V69.5869L25.4355 66.9268V66.3877L25.7637 65.9775L27.3809 63.9385L27.8965 63.2822L28.7285 63.376L31.1777 63.6572L32.1855 63.7744L32.4551 64.7471L33.1348 67.1963L33.1699 67.3369L33.1816 67.4775L33.3809 70.1025L33.3926 70.126V70.1611L33.4863 72.7979L33.498 72.9619L33.4629 73.126L33.4053 73.4434L33.627 73.4736L34.8691 73.123L34.8652 72.2979L34.7363 69.6611V69.5557L34.7949 66.9189V66.8018L34.8184 66.6846L35.2754 64.1416L35.3574 63.6963L35.6738 63.3682L37.4902 61.4697L38.2637 60.6611L39.248 61.165L41.5332 62.3135L42.0605 62.583L42.2598 63.1455L43.1152 65.5361L43.1738 65.6885L43.1973 65.8525L43.5254 68.4775V68.501L43.5371 68.5361L43.748 71.1729V71.3604L43.708 72.3027L44.0332 72.3252L45.7529 72.001L45.7598 71.9541L45.9004 69.3877L45.748 66.833V66.6572L45.7715 66.4932L46.2168 63.9502L46.2754 63.5869L46.498 63.3057L48.0566 61.2549L48.373 60.8447L48.877 60.7158L51.3965 60.0596L52.0527 59.8955L52.6152 60.2705L54.7715 61.7354L55.1582 61.9932L55.3223 62.415L56.2598 64.7705L56.3418 64.9814L56.3652 65.2041L56.5762 67.8408V67.876L56.7285 70.501V70.6416L56.7002 71.5078L57.2168 71.5518L59.7598 71.5283L61.4404 71.3994L60.6807 69.8369L60.6104 69.6934L60.5723 69.5381L59.959 67.0371L59.0898 64.6357L59.0771 64.6016L59.0664 64.5674L58.2793 62.0117L58.2041 61.7705L58.2129 61.5186L58.3018 58.9189L58.249 57.4658L57.5117 57.2783L55.375 57.8516L55.2451 57.8867L55.1113 57.8975L53.6777 58.0176L53.666 58.0283V58.0186L52.5518 58.1123L50.0146 58.5713L49.9033 58.5918L49.791 58.5947L47.2217 58.667L44.6914 58.9834L42.1211 59.3984L42.0957 59.4033L42.0703 59.4062L39.4678 59.7344L39.4688 59.7354L36.8555 60.0986L36.8447 60.1006L34.3555 60.4287L31.9619 61.2031L31.834 61.2441L31.7002 61.2617L29.1328 61.6064L26.5908 62.124L26.5508 62.1328L26.5098 62.1387L24.0117 62.5059L21.5957 63.2646L21.46 63.3076L21.3174 63.3242L19.585 63.5215L18.6484 63.8438L18.4736 63.9033L18.4199 63.7529L16.5928 64.3936L16.5156 64.4209L16.4365 64.4385L16.3389 64.4619L16 63L15.792 62.1035L15.6025 61.5615L15.6611 61.54V61.5391L15.6768 61.5352L16.3613 61.2959L16.2109 60.6426L16.1758 60.4795L16.1748 60.3037L16.1885 57.667V57.5967L16.3193 54.959V54.877L16.3418 54.7832L16.8018 52.168L16.9619 51.2646L17.8281 50.9922L20.1689 50.2559L21.2227 49.9238L21.8594 50.8467L23.2021 52.8213L23.4258 53.1484L23.4629 53.5469L23.6836 56.1592V56.2529L23.7637 58.8896V58.9014L23.7764 59.5078L26 59.1787L25.8857 59.1318L25.5801 59.1465L25.584 59.0059L25.5029 58.9795L25.5781 58.8174L25.4775 56.5049L25.4814 56.3877L25.5898 53.7646L25.6719 50.8252L25.8076 50.5479L26.9062 48.166L27.3301 47.2529L28.3486 47.3076L30.8066 47.4541L31.7549 47.5068L32.1172 48.3857L33.0488 50.6885L33.1377 50.8906L33.1543 51.1143L33.3984 53.7363L33.3965 53.8066L33.5215 56.4482L33.5312 56.5303L33.5293 56.6006L33.4707 57.5615L33.5684 57.5312L33.6982 57.4893L33.833 57.4717L35.5664 57.2422L35.5078 56.8711L35.4805 56.6826L35.499 56.4961L35.7646 53.9268L35.7461 51.3926L35.7373 51.333L35.751 51.2754L35.9365 48.6445L35.957 48.4102L36.0361 48.2031L36.9854 45.8281L37.168 45.3545L37.5996 45.1035L39.8467 43.7471L40.7715 43.1885L41.5879 43.8926L43.5742 45.5742L43.9375 45.8955L44.0596 46.3701L44.6533 48.8584L44.6836 48.9775L44.6914 49.0947L44.9043 51.7314L44.915 51.7559L44.9131 51.791L45.0205 54.4346L45.0137 54.6104L44.9121 55.9326L46.9189 55.6826L46.9902 55.6738L47.0625 55.6709L47.5254 55.6572L47.5586 55.4688L47.9434 52.8467L48.041 50.3525L48.1807 47.707L48.208 47.3096L48.4199 46.9785L49.8799 44.7314L50.3291 44.0469L51.1494 44.0596L52.2109 44.0664L51.709 42.5674L50.8184 40.5635L49.0371 39.4619L48.5215 39.1338L48.3809 38.5479L48.2852 38.1641L45.9697 37.9561L43.5469 38.2412ZM20.2402 100.751L19.9121 102.122L20.041 104.524V104.688L19.8887 107.243L19.877 109.892V109.938L19.8652 109.985L19.6895 112.622L19.6455 114.486L21.2305 114.664L22.0928 114.591H22.0449L20.5449 114.579V114.403L20.5566 114.333L20.8262 111.907L20.7324 109.423L20.5566 106.774V106.692L20.5215 104.056V103.974L20.5332 103.892L20.7441 101.677L20.2871 100.739L20.2402 100.751ZM39.5059 100.528L38.5684 101.888L37.8418 103.997L37.6543 106.435L37.6074 108.978L37.8418 111.45H37.8301L38.1348 114.063L38.1699 114.345L38.1084 114.553L39.6875 114.617L42.1836 114.535L42.3574 114.519L42.4707 113.372L42.5293 110.888L42.5176 108.239V103.235L41.7441 101.384L40.6191 100.388L39.5059 100.528ZM64.0605 99.7393L63.2402 101.228L62.7832 103.466L62.748 105.95V105.985L62.6309 108.622L62.7246 111.083L62.9355 113.72L62.9473 113.989L62.877 114.235L62.8506 114.336L63.2891 114.289L63.4414 114.277L63.6055 114.289L66.0898 114.582L67.2676 114.511L67.2715 114.481V114.317L67.5527 111.88L67.6113 109.36L67.5527 106.735L67.4707 104.146L67.3184 101.837L66.3223 100.126L65.1973 99.3525L64.0605 99.7393ZM96.9707 103.255L96.7598 105.399L96.8652 107.989V108.106L96.748 110.755L96.7363 113.333L96.748 114.448L97.6865 114.577L97.8027 112.548L97.6738 110.028L97.498 107.38V107.31L97.4629 104.72L97.3691 102.833L97.252 102.751L96.9707 103.255ZM29.8145 100.81L29.1582 102.274L28.9004 104.571L28.7012 107.009L28.8301 109.646V109.657L28.9238 112.247L29.0527 114.087L29.0645 114.286L27.5762 114.403L27.3389 114.421L29.0469 114.43L30.583 114.361L30.5879 114.333L30.8457 111.86L30.7285 109.423L30.541 106.786L30.5293 106.739V106.692L30.5059 104.044V104.009L30.5176 103.974L30.5996 101.735L30.0605 100.763L29.8145 100.81ZM50.9434 99.833L50.3457 101.497L49.8184 103.911L49.6543 106.407L49.5723 109.056L49.748 111.47L50.041 114.106L50.0703 114.348H50.2695L52.8711 114.406L53.6631 114.388L53.791 111.95L53.6621 109.407L53.5098 106.759V106.665L53.5215 104.028V103.97L53.5332 103.911L53.709 101.649L52.9121 100.032L51.8809 99.3877L50.9434 99.833ZM47.8945 114.348H48.2695L48.248 114.306L47.8945 114.348ZM20.1465 84.5869L19.7949 86.1572L19.748 88.5244L19.9121 91.1143L20.041 92.0049L21.2012 91.8408L21.4355 90.0244L20.9902 87.6572L20.9434 87.4463L20.9668 87.2236L21.1895 85.126L20.6738 84.3994L20.1465 84.5869ZM98.7715 84.7041L98.748 86.3916L98.7598 89.0049L98.8184 91.6064V91.7471L98.8154 91.7783L99.5488 91.918L99.8379 89.8721L99.7207 87.4463L99.5332 85.2432L99.0527 84.5869L98.7715 84.7041ZM75.748 69.2549L75.7578 71.5215L78.2988 71.6689L79.2012 71.7158L79.5762 72.5479L80.6074 74.7979L80.6543 74.915L80.6895 75.0322L81.334 77.5166L82.1426 80.0361L82.2012 80.1885L82.2129 80.3408L82.4824 82.8369L83.2207 85.2275L83.2441 85.3096L83.2559 85.3799L83.7363 87.8525L84.5801 90.0205L85.2715 91.3213L85.8008 91.3096L85.9707 89.2549L85.8301 86.7354V86.6885L85.7715 84.0635L85.7598 83.7471L85.877 83.4658L86.8262 81.0986L87.0254 80.583L87.5176 80.3252L89.8027 79.1182L90.7285 78.626L91.502 79.3174L93.3887 81.0166L93.7871 81.3682L93.8691 81.8838L94.291 84.4385V84.4854L94.3027 84.5322L94.5723 87.1572V87.2041L94.7832 89.8408V90.0283L94.7119 91.4258L94.7402 91.4268H94.752L95.8154 91.46L95.7598 89.04V89.0166L95.748 86.3682V86.3447L95.7949 83.6611L95.8066 82.6768L96.7207 82.3018L99.0059 81.376L100.084 80.9307L100.775 81.8682L102.205 83.8018L102.463 84.1416L102.498 84.5752L102.709 87.2002L102.721 87.2236V87.2471L102.85 89.8838L102.861 90.0361L102.838 90.1768L102.637 91.5381L102.861 91.5908L104.199 91.9092L104.189 91.8369L104.201 91.7432L104.365 89.2002L104.377 86.5518V86.5049L104.482 83.9854L104.377 81.3369V81.3252L104.154 78.7705V78.583L104.248 76.1924L103.744 74.54L102.232 73.333L100.018 72.3252L99.9707 72.3018L97.7207 71.165L95.4238 70.6611L92.8574 70.333L92.7168 70.3213L92.5879 70.2744L90.1855 69.5127L87.7363 69.2666H87.6777L87.6191 69.2549L85.1465 68.7979L82.6504 68.833H82.4395L82.2285 68.7744L79.8496 68.1182H75.9707L75.748 69.2549ZM28.8652 84.0791L28.748 86.0596H28.7598L28.7715 88.6025L28.9473 91.2393L28.959 91.3564L28.9473 91.4854L28.915 91.793L29.3105 91.8408L31.6152 91.4434L31.5605 89.7861L31.3965 87.1963L31.1738 84.8057L30.5879 83.4463L29.6621 83.2236L28.8652 84.0791ZM89.3926 82.7158L88.7715 84.2861L88.8301 86.5713L88.959 89.2197L88.9707 89.3135L88.959 89.4189L88.8105 91.2412L89.4199 91.2275H89.5371L91.7051 91.3428L91.7715 89.9814L91.584 87.4736L91.3262 84.9307L90.998 82.8916L90.2715 82.2471L89.3926 82.7158ZM39.0879 82.9971L38.7832 84.8838V87.4033L38.8652 90.04V90.1104L38.8535 90.1924L38.7764 91.2822L39.6348 91.2783H39.6699L41.6445 91.3135L41.8301 88.8682L41.7129 86.3721L41.5723 84.0283L40.8926 82.5752L39.9199 82.2002L39.0879 82.9971ZM50.2715 81.3408L49.2285 82.3721L48.7832 84.2939L48.8887 86.7197V86.8369L48.7949 89.4736V89.4971L48.7021 91.1357L49.9238 91.0088L50.0176 90.9971L50.1113 91.0088L52.6426 91.0322L52.752 91.0264L52.8496 89.8252L52.7324 87.3525L52.5566 84.8096L52.2402 82.5713L51.4551 81.3291L50.2715 81.3408ZM63.3535 81.4346L62.2168 82.6768L61.8184 84.6455L61.8652 87.1064V87.2354L61.6777 89.8721L61.71 91.0352L63.0137 90.9385L63.0723 90.9268H63.1426L65.6855 90.9502L66.6924 90.8906L66.8574 88.958L66.7285 86.3213V86.3096L66.4824 83.9541L65.873 82.0908L64.7363 81.1533L63.3535 81.4346ZM77.4121 81.751L76.123 82.9932L75.8652 84.9854L75.7949 87.5518V87.6104L75.7832 87.6689L75.5254 90.0596L75.7227 90.9121L76.2559 90.915L78.8809 90.7861H78.8926L81.459 90.6807L81.6162 90.6641L80.8887 88.8135L80.8418 88.6846L80.8184 88.5557L80.3496 86.1064L79.5762 83.5752L79.541 83.4463L79.5176 83.3057L79.2822 81.1953L77.4121 81.751ZM18.8652 70.0322L18.7715 72.001L18.7598 74.5791L18.8477 76.2295L20.6533 76.0176L20.7871 74.0283L20.5996 71.626L20.1777 69.8564L19.5684 69.5166L18.8652 70.0322ZM28.4355 67.4189L28.4707 69.5518L28.6816 72.083L28.6934 72.1299V72.165L28.7402 74.3096H28.7754L30.2637 73.9346L30.4746 72.7393L30.3926 70.3369L30.2051 67.876L29.8184 66.5166L29.209 66.4463L28.4355 67.4189ZM38.1465 65.1143L37.7832 67.1064L37.7363 69.6143L37.8652 72.1572V72.2275L37.8672 72.626L38.7832 72.5479L40.7002 72.2607L40.7363 71.3486L40.5488 68.8408L40.2324 66.3564L39.6348 64.7158L38.8848 64.3408L38.1465 65.1143ZM50.1191 63.4814L49.0996 64.8291L48.748 66.8213L48.8887 69.3057L48.9004 69.3877L48.8887 69.4697L48.7607 71.7666L49.2832 71.751H49.3066L51.8027 71.7275L53.7012 71.4492L53.7285 70.6768L53.5879 68.0752L53.3887 65.6963L52.6973 63.9502L51.4902 63.1299L50.1191 63.4814ZM19.5957 53.5859L19.3086 55.1934L19.1768 57.666L19.1885 57.6777L19.1738 60.1152L19.2705 60.5371L20.7939 60.3633L20.7637 58.9727L20.6963 56.418L20.5 54.1924L20.0049 53.4561L19.5957 53.5859ZM28.6523 51.5381L28.5879 53.8809L28.4824 56.3984L28.5693 58.6592L28.5811 58.6572L28.6309 58.6475L28.6807 58.6406L30.4141 58.4072L30.5283 56.5791L30.4033 53.9365V53.9248L30.1865 51.5967L29.6934 50.3857L29.1895 50.3584L28.6523 51.5381ZM39.5732 47.4062L38.9082 49.1133L38.7324 51.499L38.7627 54.0215L38.7559 54.1855L38.4961 56.626L38.5303 56.8359L39.0557 56.7637L39.0645 56.7627L39.0742 56.7607L41.6816 56.4307L41.8652 56.4004L42.0215 54.3633L41.916 51.9658L41.7109 49.4229L41.2568 47.5381L40.4629 46.8701L39.5732 47.4062ZM51.1484 48.2705L51.0361 50.5293L50.9336 53.1406L50.9189 53.2217L50.916 53.3037L50.5898 55.418L52.0889 55.1484L52.1592 55.1357L52.2295 55.1289L53.666 55.0078V54.5947H55.0723L54.1699 53.5752L54.3691 53.3994L54.6152 53.1885L54.9082 53.0947L55.3184 52.9658L55.3779 52.9463L55.1895 52.4346V52.4229L54.2754 50.0908L53.1504 47.6885L53.0801 47.5479L53.0449 47.3838L52.9746 47.0654L51.9473 47.0498L51.1484 48.2705Z" fill="black"/>
</svg>
