<svg width="120" height="120" viewBox="0 0 120 120" fill="none" xmlns="http://www.w3.org/2000/svg">
<path d="M83.8604 36.9414H83.9658L84.0713 36.9648L86.626 37.4688L86.6143 37.4805L89.1807 37.7852L89.5557 37.832L89.8486 38.043L91.9814 39.5195L94.2197 40.9023L94.3955 41.0195L94.5361 41.1719L96.2471 43.0703L98.2041 44.7109L98.4854 44.9453L98.626 45.2852L99.6221 47.7109L100.829 49.9258L100.888 50.0312L100.923 50.1484L101.778 52.6445L101.802 52.7383L101.825 52.8438L102.317 55.4453L102.364 55.668L102.341 55.8906L102.036 58.4453L101.872 61.0703L101.86 61.2461L101.802 61.3984L101.063 63.8477L100.595 66.3906L100.536 66.6953L100.36 66.9648L98.8604 69.1562L98.8369 69.2031L98.8018 69.2383L97.1963 71.3008L97.1611 71.3477L97.126 71.3828L95.3682 73.3398L95.2393 73.4688L95.0869 73.5742L92.8955 75.0508L92.7432 75.1445L92.5791 75.2031L90.1182 76.1289H90.0947L87.6221 77.0078L87.5752 77.0195L87.54 77.0312L84.9854 77.7695L84.7744 77.8398L84.5635 77.8281L81.9971 77.8164L81.1201 77.875L81.3906 78.5898L82.7852 80.5117L82.8203 80.5586L82.8438 80.6055L84.2031 82.8203L85.5977 84.9648L87.2852 86.8398L87.3672 86.9336L87.4375 87.0508L88.7383 89.1484L90.4375 91.0703L90.5195 91.1758L90.5898 91.293L91.9023 93.4844L93.4961 95.4883L93.5078 95.5117L95.0312 97.5156L96.7891 99.4844L96.8125 99.5078L96.8242 99.5312L98.5 101.547L100.176 103.551H100.188L101.887 105.508L103.68 107.395H103.691L105.52 109.293L107.359 111.18L107.418 111.238L107.465 111.309L109.105 113.406L109.363 113.746L109.41 114.168L109.441 114.464L110.738 114.266L111.031 114.219L111.312 114.289L112.355 114.547L111.652 117.453L110.891 117.266L108.547 117.629L108.453 117.652H108.359L105.723 117.723H105.582L103.051 117.301L100.672 117.734L100.438 117.781L100.203 117.746L97.6367 117.406H95.2344L92.5977 117.629L92.4922 117.641L92.3984 117.629L89.75 117.477V117.465L87.2773 117.348L84.7812 117.734L84.582 117.77L84.3945 117.746L81.8516 117.453L79.2969 117.477L79.2852 117.465L76.7773 117.711L76.6133 117.723L76.4492 117.699L73.918 117.383L71.3867 117.43H71.3281L68.6914 117.371H68.6445L66.1719 117.23L63.7109 117.699L63.4766 117.746L63.2305 117.711L60.7227 117.348L58.2383 117.488H58.0156L55.5898 117.242L53.1406 117.676L52.8828 117.723L52.6133 117.676L50.1172 117.242L47.6914 117.395H47.668L47.6445 117.406L42.3711 117.57H42.2539L42.1367 117.559L39.5938 117.254L37.1328 117.418L37.0508 117.43L36.957 117.418L34.5078 117.277L32 117.699L31.7891 117.734L31.5781 117.711L29.0234 117.395L26.5391 117.324L23.9492 117.512L23.8906 117.523H23.832L21.1953 117.512H21.0781L18.5 117.301L16.0508 117.395L16.0625 117.406L13.4258 117.664L13.2734 117.676L13.1211 117.664L10.625 117.395L10.417 117.403L10.3633 117.414L10.3613 117.405L8.16406 117.5H8V114.5H8.03516L10.0059 114.418L11.8164 114.062L13.2344 112.727L14.7812 110.758L14.793 110.734L14.8164 110.711L16.5391 108.707L16.5859 108.66L16.6328 108.602L18.4727 106.82L20.1602 104.945L21.7422 102.871L21.8125 102.777L23.5703 100.809L23.6055 100.762L23.6406 100.727L25.3633 99.0156L26.5586 96.8711L26.6289 96.7305L26.7344 96.6133L28.3867 94.668L29.8047 92.5469L29.875 92.4414L29.957 92.3477L31.6914 90.4961L33.0742 88.4219L34.4688 86.207L35.7227 83.9688L35.8047 83.8281L35.9219 83.6992L37.5156 81.9062L38.4062 79.6562L38.4766 79.4805L38.582 79.3281L39.9648 77.3828L41.0078 75.1211L41.0664 74.9688L41.1719 74.8398L42.6133 72.918L43.375 70.6094L43.4219 70.4453L43.5156 70.3047L44.8516 68.0312L46.0586 65.7578L47.125 63.4375L47.1602 63.3555L47.207 63.2852L48.4961 61.1523L49.4688 58.2344L49.9961 57.9531L52.1758 56.7695L52.7148 56.4766L53.3008 56.6406L55.5508 57.2852L57.8828 56.957L58.0234 56.9453H58.1641L60.8008 57.0977H60.8125L60.874 57.1006L60.8564 57.0273L60.7744 56.6875L60.8447 56.3477L61.3955 53.7344L61.9463 51.168L61.958 51.1211L61.9697 51.0625L62.708 48.5195L62.7783 48.3203L62.8838 48.1328L64.3018 45.8945L64.4189 45.7305L66.0596 43.7852L67.665 41.6523L67.8525 41.4062L68.1104 41.2539L70.4189 39.9062H70.4424L70.4541 39.8945L72.751 38.6172L72.7979 38.5938L72.833 38.582L75.2354 37.4336L75.4814 37.3164L75.7393 37.293L78.3994 37.0469L81.0127 36.8008L81.1182 36.7891H81.2354L83.8604 36.9414ZM51.9414 60.3086L51.2969 62.2656L51.2383 62.4297L51.1562 62.5703L49.8086 64.7617L48.7422 67.0938L48.7305 67.1289L48.707 67.1641L47.4766 69.4961L47.4531 69.5312L47.4414 69.5547L46.1523 71.7109L45.4023 74.0781L45.3203 74.3242L45.168 74.5234L44.542 75.3457L45.7217 76.6445L46.8467 77.582L47.9951 76.7617L49.7295 75.0391L50.3154 74.4648L51.1123 74.6406L53.1396 75.0859L53.5381 75.168L53.8428 75.4492L55.46 76.9609L56.5146 77.1836L57.9443 76.0703L59.6904 74.3359L60.124 73.9023L60.7334 73.8906H60.8271L60.8301 74.0547H60.9326L61.5654 74.043L62.0225 74.5L63.8271 76.293L63.9443 76.4336L64.6475 77.3359L65.3506 76.75L66.9678 74.8047L67.1787 74.5586L67.46 74.4062L68.1865 74.043L69.5225 76.7383L69.0771 76.9492L67.5889 78.7773L67.4951 78.8828L67.3779 78.9766L65.374 80.6406L64.1904 81.6133L63.2412 80.4062L61.6006 78.3203L60.7764 77.4961L60.042 78.2266L59.9834 78.2852L59.9131 78.3438L57.8389 79.9844L57.2881 80.418L56.5967 80.2656L54.4404 79.8086L54.0303 79.7266L53.7256 79.4453L52.0967 77.9219L51.2646 77.7461L49.9756 79.0234L49.8818 79.1172L49.7881 79.1875L47.6436 80.7109L46.7061 81.3789L45.8154 80.6406L43.7529 78.918L43.6709 78.8477L43.6006 78.7773L42.9482 78.0635L42.625 78.7773L42.5664 78.9062L42.4844 79.0234L41.125 80.9219L40.2227 83.2539L40.1172 83.5117L39.9414 83.7109L38.2539 85.5742L37.0469 87.7422L37.0234 87.7773L37.0117 87.8008L35.5938 90.0391V90.0508L35.582 90.0625L34.1289 92.2773L34.0586 92.3828L33.9648 92.4766L32.2422 94.293L30.8359 96.4141L30.7891 96.4844L30.7305 96.5547L29.1016 98.4531L27.9062 100.656L27.8008 100.855L27.6367 101.008L25.8086 102.801L24.0625 104.77L22.5273 106.785L22.457 106.879L20.7109 108.848L20.6289 108.93L18.7188 110.77L17.0898 112.668L15.7188 114.423L15.7695 114.418H15.8633L18.5 114.312L18.5938 114.301L18.6758 114.312L21.3125 114.512L21.3008 114.523H23.7383L26.375 114.336L26.4453 114.324L26.5273 114.336L29.1641 114.406H29.2344L29.293 114.418L31.7305 114.699L34.1562 114.301L34.3203 114.277L34.4844 114.289L37.0156 114.43L39.582 114.254L39.7227 114.242L39.8633 114.266L42.3711 114.57L44.9141 114.488L47.5039 114.418V114.406L50.1523 114.242L50.3281 114.23L50.5039 114.266L52.8828 114.688L55.2617 114.266L55.4609 114.23L55.6602 114.242L58.1328 114.488L60.7227 114.348L60.8633 114.336L61.0156 114.359L63.418 114.711L65.8086 114.266L65.9844 114.23L66.1602 114.242L68.7969 114.371L68.7852 114.383L71.3633 114.43L73.9766 114.383H74.082L74.1875 114.395L76.6836 114.711L79.1445 114.477H79.2734L81.9102 114.453H82.0039L82.0859 114.465L84.5469 114.746L86.9727 114.371L87.125 114.348L87.2773 114.359L89.9141 114.488H89.9258L92.4453 114.641L95 114.43L95.0586 114.418H95.1055L97.7539 114.406H97.8594L97.9648 114.418L100.367 114.746L102.77 114.312L103.027 114.266L103.285 114.301L105.816 114.723L106.305 114.71L105.121 113.184L103.375 111.379H103.363L101.535 109.48H101.523L99.707 107.57L99.6836 107.535L99.6484 107.512L97.9258 105.52L97.9141 105.496L96.2031 103.48V103.469L94.5508 101.488L92.793 99.5195L92.7578 99.4727L92.7109 99.4258L91.1172 97.3164V97.3047L89.5 95.2656L89.4414 95.1953L89.3945 95.1133L88.1172 92.9922L86.4297 91.0703L86.3477 90.9766L86.2891 90.8711L84.9766 88.7617L83.2773 86.8516L83.1953 86.7695L83.1367 86.6758L81.6953 84.4609L81.6836 84.4492L81.6719 84.4258L80.3477 82.2695L78.8477 80.1953L78.7305 80.0312L78.1211 78.4072L77.2217 79.1094L77.1982 79.1211L77.1865 79.1328L75.0303 80.7383L74.0459 81.4531L73.1436 80.6562L71.2217 78.9453L69.1709 77.668L69.8506 76.5898L69.8623 76.3906L69.9678 74.8906L70.0615 74.9023L70.4365 74.9258L70.7529 75.125L72.9092 76.4727L73.0146 76.543L73.1084 76.625L74.21 77.5977L75.4053 76.7188L76.4678 75.8867L76.3164 75.6953L76.1875 75.5312L76.1055 75.332L75.1328 72.9766L73.9492 70.8789L72.3555 68.8281L72.2852 68.7461L72.2383 68.6523L70.9258 66.3555L70.8438 66.2148L70.7969 66.0625L70.0352 63.7188L68.6172 61.7734L68.5352 61.6797L68.4883 61.5625L67.7266 60.0391H65.9922V60.0273L63.4727 60.2383L63.3789 60.25L63.2734 60.2383L60.6367 60.0859L58.1289 59.9453L55.6328 60.2852L55.3281 60.332L55.0352 60.25L53.0664 59.6875L51.9414 60.3086ZM97.1738 80.9551L97.334 81.0791L97.4463 81.2432L98.8887 83.2852L100.601 84.9395L101.592 85.6982L100.688 86.8916L99.7773 88.0947L98.7549 87.3193L98.6768 87.2646L98.6211 87.1953L96.7188 85.3486L96.6104 85.252L96.5342 85.1465L95.1074 83.125L93.3174 81.6689L93.25 81.6201L93.1992 81.5664L93.127 81.5029L94.1914 80.4336L94.8926 79.7295L95.2148 79.3428L97.1738 80.9551ZM60.8506 75.3906V75.4844L60.8604 75.4941L60.834 74.3359L60.8506 75.3906ZM78.6807 40.0352H78.6689L76.2783 40.2461L74.1338 41.2891L74.1221 41.2773L71.9189 42.4961L69.8799 43.6914L68.4619 45.5898L68.4385 45.625L68.415 45.6484L66.7627 47.5938L65.5322 49.5508L64.8525 51.9062L64.3252 54.3672L63.8447 56.6289L63.9854 57.1943L65.8867 57.0391H66.0039L68.6641 57.0508H69.5781L70 57.8828L71.1133 60.1211L72.6133 62.1719L72.7656 62.3711L72.8359 62.6055L73.6094 65.0195L74.7812 67.0586L76.3633 69.0859L76.4219 69.1797L76.4805 69.2617L77.8398 71.6406L77.875 71.7344L78.8008 74.0078L79.5518 74.9619L81.8096 74.8164H84.3877L86.6963 74.1484L89.0986 73.3047L91.3721 72.4492L93.2471 71.1953L94.8291 69.4492L96.3877 67.4688L97.7119 65.5117L98.1455 63.2031L98.1572 63.1328L98.1807 63.0508L98.8838 60.6953L99.0596 58.2461V58.1758L99.3291 55.7266L98.9072 53.5352L98.1221 51.25L96.9385 49.0469L96.8682 48.9062L95.9893 46.7617L94.2314 45.2852L94.1494 45.2148L94.0791 45.1445L92.4385 43.3281L90.3994 42.0742L90.3291 42.0273L88.4307 40.7148L86.1572 40.4336L86.0986 40.4219L86.0518 40.4102L83.5674 39.918L81.2119 39.7891L78.6807 40.0352ZM107.944 65.3887L108.144 65.4238L108.319 65.5176L110.546 66.6543L112.831 67.3223L114.062 67.5332L113.815 69.0098L113.569 70.498L112.304 70.2871L112.21 70.2754L112.128 70.2402L109.585 69.4902L109.444 69.4551L109.327 69.3965L107.124 68.2715L104.862 67.8145L104.78 67.8027L104.71 67.7793L104.616 67.7559L105.062 66.3145L105.354 65.3652L105.46 64.873L107.944 65.3887ZM114.085 46.8945L114.202 47.2695L114.788 48.1953L112.831 49.4375L112.585 49.5898L112.304 49.6484L109.831 50.0938L107.429 50.9727L107.03 51.125L106.62 51.043L106.058 50.9258L106.351 49.4492L106.526 48.5234L106.397 48.1602L106.62 48.0664L106.644 47.9844L106.796 48.0078L108.905 47.2461L109.022 47.1992L109.14 47.1875L111.472 46.7539L113.183 45.6641L113.347 45.5586L113.522 45.5L113.616 45.4648L114.085 46.8945ZM49.3057 46.041H49.3408L51.7666 46.5332L51.9189 46.5684L52.0596 46.627L54.333 47.5996L56.6299 48.0801L58.5283 48.4668L57.6729 50.2012L57.6377 50.2832L56.3018 49.627L56.0322 51.0098L53.6182 50.5176L53.4658 50.4941L53.3252 50.4355L50.9932 49.4395L48.6963 48.9707L48.626 48.959L48.5674 48.9473L48.4736 48.9121L48.8955 47.4707L49.2354 46.3105L49.2939 46.0293L49.3057 46.041ZM62.8027 29.4561L63.166 29.6553L63.377 30.0186L64.6543 32.1631L66.3535 33.9795L66.4238 34.0615L66.4824 34.1436L67.2793 35.292L68.6738 37.3193L66.248 37.6357L66.0488 37.6592L65.8613 36.2646L64.8184 37.0029L64.1152 35.9951L62.3457 34.085L62.2402 33.9678L62.1582 33.8271L61.0098 31.9053L59.2402 30.9443L59.0059 30.8271L58.8418 30.6279L58.7715 30.5576L59.8848 29.5498L60.0957 29.3623L60.6699 28.3076L62.8027 29.4561ZM101.973 29.2812L102.289 29.5508L103.227 30.0664L102.055 32.2344L101.961 32.4102L101.82 32.5625L100.086 34.3906L98.75 36.5117L98.375 37.0977L97.6836 37.1914L96.4414 37.3555L96.043 34.3789L96.5938 34.2969L97.6367 32.6445L97.7188 32.5273L97.8242 32.4219L99.5117 30.6289L100.59 28.6484L100.672 28.4961L100.777 28.3672L100.848 28.2969L101.973 29.2812ZM82.9854 23.0117L83.1377 25.5547V25.6719L83.126 25.8008L82.8564 28.2734L83.0439 30.8047L83.0557 30.9219L82.9502 32.082L81.4502 31.9414L79.9619 31.8125L80.0557 30.8867L79.8564 28.3906L79.8447 28.25L79.8564 28.1094L80.1377 25.625L79.9854 23.1875V23H82.9854V23.0117Z" fill="black"/>
</svg>
