<svg width="120" height="120" viewBox="0 0 120 120" fill="none" xmlns="http://www.w3.org/2000/svg">
<path d="M111.312 114.289L112.355 114.547L111.652 117.453L110.891 117.266L108.547 117.629L108.453 117.652H108.359L105.723 117.723H105.582L103.051 117.301L100.672 117.734L100.438 117.781L100.203 117.746L97.6367 117.406H95.2344L92.5977 117.629L92.4922 117.641L92.3984 117.629L89.75 117.477V117.465L87.2773 117.348L84.7812 117.734L84.582 117.77L84.3945 117.746L81.8516 117.453L79.2969 117.477L79.2852 117.465L76.7773 117.711L76.6133 117.723L76.4492 117.699L73.918 117.383L71.3867 117.43H71.3281L68.6914 117.371H68.6445L66.1719 117.23L63.7109 117.699L63.4766 117.746L63.2305 117.711L60.7227 117.348L58.2383 117.488H58.0156L55.5898 117.242L53.1406 117.676L52.8828 117.723L52.6133 117.676L50.1172 117.242L47.6914 117.395H47.668L47.6445 117.406L42.3711 117.57H42.2539L42.1367 117.559L39.5938 117.254L37.1328 117.418L37.0508 117.43L36.957 117.418L34.5078 117.277L32 117.699L31.7891 117.734L31.5781 117.711L29.0234 117.395L26.5391 117.324L23.9492 117.512L23.8906 117.523H23.832L21.1953 117.512H21.0781L18.5 117.301L16.0508 117.395L16.0625 117.406L13.4258 117.664L13.2734 117.676L13.1211 117.664L10.625 117.395L8.16406 117.5H8V114.5H8.03516L10.5781 114.395L10.6836 114.383L10.8008 114.395L13.2852 114.664L15.7695 114.418H15.8633L18.5 114.312L18.5938 114.301L18.6758 114.312L21.3125 114.512L21.3008 114.523H23.7383L26.375 114.336L26.4453 114.324L26.5273 114.336L29.1641 114.406H29.2344L29.293 114.418L31.7305 114.699L34.1562 114.301L34.3203 114.277L34.4844 114.289L37.0156 114.43L39.582 114.254L39.7227 114.242L39.8633 114.266L42.3711 114.57L44.9141 114.488L47.5039 114.418V114.406L50.1523 114.242L50.3281 114.23L50.5039 114.266L52.8828 114.688L55.2617 114.266L55.4609 114.23L55.6602 114.242L58.1328 114.488L60.7227 114.348L60.8633 114.336L61.0156 114.359L63.418 114.711L65.8086 114.266L65.9844 114.23L66.1602 114.242L68.7969 114.371L68.7852 114.383L71.3633 114.43L73.9766 114.383H74.082L74.1875 114.395L76.6836 114.711L79.1445 114.477H79.2734L81.9102 114.453H82.0039L82.0859 114.465L84.5469 114.746L86.9727 114.371L87.125 114.348L87.2773 114.359L89.9141 114.488H89.9258L92.4453 114.641L95 114.43L95.0586 114.418H95.1055L97.7539 114.406H97.8594L97.9648 114.418L100.367 114.746L102.77 114.312L103.027 114.266L103.285 114.301L105.816 114.723L108.137 114.664L110.738 114.266L111.031 114.219L111.312 114.289Z" fill="black"/>
<path d="M72.1602 106.242L74.7969 106.371L74.7852 106.383L77.3633 106.43L79.9766 106.383H80.082L80.1875 106.395L82.6836 106.711L85.1445 106.477H85.2734L87.9102 106.453H88.0039L88.0859 106.465L90.5469 106.746L92.9727 106.371L93.125 106.348L93.2773 106.359L95.9141 106.488H95.9258L98.4453 106.641L101 106.43L101.059 106.418H101.105L103.754 106.406H103.859L103.965 106.418L106.602 106.77L107.422 106.887L107.762 107.637L108.582 109.418L108.77 109.828L108.699 110.285L108.277 112.816L108.348 115.277L108.371 116.227L107.539 116.648L105.723 117.586L105.406 117.75H105.031L102.395 117.738H102.289L102.184 117.727L99.6758 117.352L97.2031 117.504H97.1328L94.4844 117.516H94.4375L91.8008 117.445V117.434L89.1641 117.387H89.1523L86.6328 117.305L84.1133 117.645L83.9844 117.656H83.8438L81.2422 117.527L78.7578 117.738L78.6172 117.75L78.4648 117.727L75.9453 117.434L73.4023 117.516H70.7891L68.1523 117.645H68.0469L65.4102 117.598L62.7734 117.539V117.527L60.1836 117.504L57.5703 117.598L54.9336 117.691H54.875L52.2266 117.668H52.2148L49.5664 117.621H49.4961L49.4258 117.609L46.9062 117.316L44.457 117.363L44.4688 117.375L41.832 117.645L41.7617 117.656H38.9375L36.2891 117.469V117.457L33.7109 117.387V117.375L31.0977 117.34L28.4961 117.293L25.8945 117.387H25.8242L23.1758 117.352H23.1406L20.5977 117.234L18.0898 117.539H18.0547L18.0078 117.551L15.3711 117.703L14.6328 117.75L14.1523 117.188L12.7812 115.629L12.4062 115.195L12.418 114.621L12.4414 112.02L12.4062 109.383V109.371L12.3945 108.012L12.3828 106.5H14.0352L16.5781 106.395L16.6836 106.383L16.8008 106.395L19.2852 106.664L21.7695 106.418H21.8633L24.5 106.312L24.5938 106.301L24.6758 106.312L27.3125 106.512L27.3008 106.523H29.7383L32.375 106.336L32.4453 106.324L32.5273 106.336L35.1641 106.406H35.2344L35.293 106.418L37.7305 106.699L40.1562 106.301L40.3203 106.277L40.4844 106.289L43.0156 106.43L45.582 106.254L45.7227 106.242L45.8633 106.266L48.3711 106.57L50.9141 106.488L53.5039 106.418V106.406L56.1523 106.242L56.3281 106.23L56.5039 106.266L58.8828 106.688L61.2617 106.266L61.4609 106.23L61.6602 106.242L64.1328 106.488L66.7227 106.348L66.8633 106.336L67.0156 106.359L69.418 106.711L71.8086 106.266L71.9844 106.23L72.1602 106.242ZM69.7109 109.699L69.4766 109.746L69.2305 109.711L66.7227 109.348L64.2383 109.488H64.0156L61.5898 109.242L59.1406 109.676L58.8828 109.723L58.6133 109.676L56.1172 109.242L53.6914 109.395H53.668L53.6445 109.406L48.3711 109.57H48.2539L48.1367 109.559L45.5938 109.254L43.1328 109.418L43.0508 109.43L42.957 109.418L40.5078 109.277L38 109.699L37.7891 109.734L37.5781 109.711L35.0234 109.395L32.5391 109.324L29.9492 109.512L29.8906 109.523H29.832L27.1953 109.512H27.0781L24.5 109.301L22.0508 109.395L22.0625 109.406L19.4258 109.664L19.2734 109.676L19.1211 109.664L16.625 109.395L15.4062 109.441L15.4414 111.973V112.02L15.418 114.082L15.9219 114.656L17.832 114.551L20.3867 114.246L20.5039 114.234H20.6211L23.2695 114.352H23.2578L25.8008 114.375L28.4258 114.293H28.5078L33.7812 114.387H33.8047L36.4414 114.469H36.5117L39.1484 114.656H41.5273L44.1641 114.387H44.2227L44.2812 114.375L46.918 114.316H47.0234L47.1289 114.328L49.6836 114.621L52.2734 114.668H52.2617L54.8398 114.68L57.4648 114.598L60.1133 114.516L60.1484 114.504H60.1836L62.8203 114.539H62.832L65.4688 114.598L68.0352 114.633L70.6484 114.516H73.3203L75.957 114.434H76.0625L76.168 114.445L78.6875 114.727L81.1602 114.527H81.3477L83.8555 114.645L86.3633 114.316L86.4805 114.305H86.6094L89.2461 114.398H89.2344L91.8711 114.445H91.8828L94.5078 114.504H97.0391L99.6758 114.363L99.8281 114.352L99.9805 114.375L102.453 114.738H104.668L105.312 114.41L105.277 112.723V112.582L105.301 112.441L105.652 110.238L105.371 109.629L103.637 109.406H101.234L98.5977 109.629L98.4922 109.641L98.3984 109.629L95.75 109.477V109.465L93.2773 109.348L90.7812 109.734L90.582 109.77L90.3945 109.746L87.8516 109.453L85.2969 109.477L85.2852 109.465L82.7773 109.711L82.6133 109.723L82.4492 109.699L79.918 109.383L77.3867 109.43H77.3281L74.6914 109.371H74.6445L72.1719 109.23L69.7109 109.699Z" fill="black"/>
<path d="M45.4844 30.2891L48.1211 30.4297L48.8594 30.4648L49.2812 31.0742L50.4883 32.832L50.8047 33.3008L50.7344 33.8633L50.4297 36.3711L50.5117 38.9141L50.5938 41.5039L50.7578 44.1523L50.7695 44.3281L50.7344 44.5039L50.3125 46.8828L50.7344 49.2617L50.7695 49.4609L50.7578 49.6602L50.5117 52.1328L50.6523 54.7227L50.6641 54.8633L50.6406 55.0156L50.2891 57.418L50.7344 59.8086L50.7695 59.9844L50.7578 60.1602L50.6289 62.7969L50.5703 65.3867L50.6172 67.9766V68.082L50.6055 68.1875L50.2891 70.6836L50.5234 73.1445V73.2734L50.5469 75.9102V76.0039L50.5352 76.0859L50.2539 78.5469L50.6289 80.9727L50.6523 81.125L50.6406 81.2773L50.5117 83.9141V83.9258L50.3594 86.4453L50.5703 89L50.582 89.0586V89.1055L50.5938 91.7539V91.8594L50.582 91.9648L50.2539 94.3672L50.6875 96.7695L50.7344 97.0273L50.6992 97.2852L50.2773 99.8164L50.3359 102.137L50.7344 104.738L50.7578 104.844V104.961L50.7461 107.609L50.7344 108.957L49.3984 109.098L46.9141 109.344L46.8789 109.355H46.8438L44.207 109.508H44.125L41.4883 109.52H41.4414L38.8047 109.449L36.168 109.391H36.1445L33.625 109.297L31.1172 109.637L30.9883 109.66L30.8477 109.648L28.3164 109.52L25.7617 109.73L25.6094 109.742L25.4688 109.73L22.9492 109.438L20.4062 109.508L19.7852 109.531L19.3281 109.109L17.957 107.809L17.5117 107.398L17.4883 106.789L17.3594 104.152L17.3477 104.105L17.3594 104.047L17.4062 101.41L17.4648 98.7734L17.4883 96.207L17.3945 93.5703L17.3125 90.9336V90.875L17.3359 88.2266V88.2148L17.3828 85.5781V85.4961L17.3945 85.4258L17.6875 82.9062L17.6172 80.3516L17.3594 77.832L17.3477 77.7617V74.9375L17.5352 72.2891L17.6055 69.7109L17.6523 67.0977L17.6992 64.4492H17.7109L17.6172 61.8945V61.8242L17.6523 59.1758V59.1406L17.7578 56.5977L17.4648 54.0898L17.4531 54.0547V54.0078L17.3008 51.3711L17.2891 51.2891L17.3008 51.207L17.418 48.5703L17.4414 46.0273L17.4062 43.3789V43.3672L17.3945 40.7305V40.6484L17.4062 40.5664L17.6641 38.0586L17.4414 35.5742L17.4297 35.4922V35.4102L17.4883 32.7734L17.5 31.9766L17.5234 30.5H19.0352L21.5781 30.3945L21.6836 30.3828L21.8008 30.3945L24.2852 30.6641L26.7695 30.418H26.8633L29.5 30.3125L29.5938 30.3008L29.6758 30.3125L32.3125 30.5117L32.3008 30.5234H34.7383L37.375 30.3359L37.4453 30.3242L37.5273 30.3359L40.1641 30.4062H40.2344L40.293 30.418L42.7305 30.6992L45.1562 30.3008L45.3203 30.2773L45.4844 30.2891ZM43 33.6992L42.7891 33.7344L42.5781 33.7109L40.0234 33.3945L37.5391 33.3242L34.9492 33.5117L34.8906 33.5234H34.832L32.1953 33.5117H32.0781L29.5 33.3008L27.0508 33.3945L27.0625 33.4062L24.4258 33.6641L24.2734 33.6758L24.1211 33.6641L21.625 33.3945L20.4648 33.4414L20.4297 35.3047L20.6641 37.9531L20.6758 38.0938L20.6641 38.2344L20.3945 40.7188L20.4062 43.3555L20.4414 45.9805V46.0156L20.418 48.6523V48.7109L20.2891 51.2539L20.4531 53.832L20.7461 56.3867L20.7695 56.5039L20.7578 56.6211L20.6406 59.2109L20.6172 61.8594L20.6992 64.4258V64.5078L20.6055 69.7812V69.8047L20.5352 72.4414L20.5234 72.4766V72.5117L20.3477 75.043V77.6797L20.6172 80.1641V80.2812L20.6875 82.918V83.0234L20.6758 83.1289L20.3828 85.625L20.3359 88.2734L20.3125 90.8867L20.3945 93.4648L20.4883 96.1133V96.1836L20.4648 98.8203V98.832L20.3477 104.105L20.4414 106.027L20.9219 106.484L22.9609 106.438H23.0664L23.1719 106.449L25.6211 106.73L28.1641 106.531L28.2578 106.52L28.3516 106.531L30.8477 106.648L33.3672 106.32L33.4844 106.297L33.6133 106.309L36.25 106.391H36.2383L38.875 106.449H38.8867L41.5117 106.508H44.0312L46.6797 106.355L47.7461 106.238V105.102L47.3711 102.547L47.3477 102.453V102.359L47.2773 99.7227V99.582L47.3008 99.4414L47.6875 97.0508L47.2656 94.6719L47.2188 94.4375L47.2539 94.2031L47.582 91.6367V89.2461L47.3711 86.5977L47.3594 86.4922L47.3711 86.3984L47.5234 83.75L47.6406 81.2773L47.2656 78.7812L47.2305 78.582L47.2539 78.3945L47.5352 75.8516L47.5234 73.2969V73.2852L47.2891 70.7773L47.2773 70.6133L47.3008 70.4492L47.6055 67.918L47.5703 65.3867V65.3281L47.6289 62.6914V62.6445L47.7578 60.1602L47.3008 57.7109L47.2539 57.4766L47.2891 57.2305L47.6406 54.7227L47.5117 52.2383V52.0156L47.7461 49.5898L47.3242 47.1406L47.2773 46.8828L47.3242 46.6133L47.7461 44.1172L47.6055 41.6914V41.668L47.5938 41.6445L47.4297 36.3711V36.2539L47.4414 36.1367L47.6875 34.0508L47.2188 33.3711L45.5078 33.2773L43 33.6992Z" fill="black"/>
<path d="M31.793 33.6055L34.2891 33.3359L36.7734 33.582L36.9492 33.5938L37.1133 33.5703L39.7266 33.2305L40.3008 33.1484L40.6758 32.7148L42.3984 30.6992L44.1797 28.918L46.1016 27.2539L46.1602 27.207L46.207 27.1484L48.0234 25.2383L50.4258 22.6836L46.9219 22.707L44.6484 22.7188L42.1523 22.3086L42 22.2734L41.8359 22.2852L39.293 22.4258L36.7266 22.25H36.5859L36.457 22.2617L33.8555 22.5781L31.4062 22.4844L28.793 22.4141L28.8047 22.4023L26.168 22.2383L25.9922 22.2266L25.8164 22.2617L23.2734 22.7188L20.8828 22.8359L17.0391 23.0234L20.0039 25.4844L21.9492 27.0898L23.6602 28.9883L23.7539 29.0938L23.8711 29.1875L25.793 30.6523L27.1875 32.6445L27.4688 33.0547L27.9375 33.2188L28.5117 33.418L28.8398 33.5352L29.1328 33.4883L31.5703 33.6055L31.6875 33.6172L31.793 33.6055ZM29.3438 30.5L28.1367 28.7422L28.0078 28.5312L27.8086 28.3906L25.7695 26.8672L24.5742 25.5312L26.1328 25.25L28.6172 25.4023H28.6641L31.3008 25.4844L33.9492 25.5664L34.0547 25.5781L34.1719 25.5664L36.6562 25.2617L39.1758 25.4258H39.3516L41.8477 25.2969L43.4766 25.5664L42.1289 26.7266L42.0938 26.7617L42.0469 26.7969L40.1953 28.6719L40.1484 28.707L40.1133 28.7539L38.7539 30.3359L36.9141 30.582L34.4297 30.3359L34.2773 30.3242L34.125 30.3359L31.6289 30.6055L29.3438 30.5Z" fill="black"/>
<path d="M107.586 101.797L106.215 103.18L106.109 103.285L105.992 103.367L103.801 104.844L103.684 104.926L103.543 104.984L101.305 105.91L99.4883 107.539L99.2305 107.762L98.9023 107.855L96.3477 108.57L96.1367 108.629H95.9141L93.2891 108.57L90.6875 108.617H90.582L90.4766 108.605L87.9688 108.289L85.5195 108.523H85.3906L82.7539 108.547H82.6602L82.5781 108.535L80.1055 108.254L77.6797 108.629L77.5391 108.652L77.3867 108.641L74.75 108.512H74.7383L72.207 108.359L69.6641 108.57L69.2773 108.605L68.9258 108.441L66.5352 107.375L66.3594 107.293L66.2188 107.176L64.3203 105.652L62.0352 104.797L61.7891 104.703L61.5898 104.527L59.6562 102.898L58.9297 102.5H56.3516L57.7109 100.227L57.793 100.098L58.5312 98.8672L59.6328 99.4766L61.5781 99.3945L61.6836 99.3828L61.8008 99.3945L64.2852 99.6641L66.7695 99.418H66.8633L69.5 99.3125L69.5938 99.3008L69.6758 99.3125L72.3125 99.5117L72.3008 99.5234H74.7383L77.375 99.3359L77.4453 99.3242L77.5273 99.3359L80.1641 99.4062H80.2344L80.293 99.418L82.7305 99.6992L85.1562 99.3008L85.3203 99.2773L85.4844 99.2891L88.0156 99.4297L90.582 99.2539L90.7227 99.2422L90.8633 99.2656L93.3711 99.5703L95.9141 99.4883L98.5039 99.418V99.4062L101.152 99.2422L101.328 99.2305L101.504 99.2656L103.883 99.6875L106.262 99.2656L110.902 98.4453L107.586 101.797ZM98.6914 102.395H98.668L98.6445 102.406L93.3711 102.57H93.2539L93.1367 102.559L90.5938 102.254L88.1328 102.418L88.0508 102.43L87.957 102.418L85.5078 102.277L83 102.699L82.7891 102.734L82.5781 102.711L80.0234 102.395L77.5391 102.324L74.9492 102.512L74.8906 102.523H74.832L72.1953 102.512H72.0781L69.5 102.301L67.0508 102.395L67.0625 102.406L64.7891 102.617L65.5977 102.934L65.8203 103.016L66.0078 103.168L67.9414 104.703L69.793 105.547L72.0664 105.371L72.1602 105.359L72.2656 105.371L74.9023 105.523H74.8906L77.3633 105.641L79.8828 105.266L80.0703 105.23L80.2695 105.254L82.7891 105.535L85.3672 105.523L87.8867 105.289L88.0508 105.277L88.2031 105.301L90.7344 105.605L93.2773 105.57H93.3359L95.7617 105.617L97.7422 105.066L99.5117 103.508L99.6992 103.344L99.9219 103.25L101.961 102.383L101.117 102.242L98.6914 102.395Z" fill="black"/>
<path d="M92.6289 99.8633L93.5898 101.012L94.4219 101.996L93.5664 102.969L91.9375 104.797L90.8828 107.023L90.5898 107.633L89.9453 107.82L87.5078 108.523L87.3555 108.559L87.1914 108.57L84.5547 108.746L84.4141 108.758L84.2734 108.734L81.7539 108.43L79.2227 108.512L79.0586 108.523L78.8945 108.488L76.4453 108.008L75.8945 107.902L75.5547 107.469L73.9141 105.395L73.7969 105.254L73.7266 105.09L72.7656 102.992L71.8867 102.348L70.2227 101.105L71.9336 99.9102L72.1445 99.7695L72.5312 99.5H73.0352L75.5781 99.3945L75.6836 99.3828L75.8008 99.3945L78.2852 99.6641L80.7695 99.418H80.8633L83.5 99.3125L83.5938 99.3008L83.6758 99.3125L86.3125 99.5117L86.3008 99.5234H88.7383L91.375 99.3359L92.1367 99.2773L92.6289 99.8633ZM81.0508 102.395L81.0625 102.406L78.4258 102.664L78.2734 102.676L78.1211 102.664L75.7891 102.406L76.3633 103.672L77.5469 105.16L79.3047 105.5L81.7656 105.43H81.8828L82 105.441L84.5312 105.734L86.8047 105.594L88.457 105.113L89.3242 103.32L89.418 103.133L89.5586 102.969L90.0273 102.43L88.9492 102.512L88.8906 102.523H88.832L86.1953 102.512H86.0781L83.5 102.301L81.0508 102.395Z" fill="black"/>
<path d="M108.09 102.031L108.102 102.008L110.41 99.5H107.562L106.414 98.457L104.574 96.5586L104.469 96.4414L104.352 96.3594L102.219 94.9297L100.426 93.3008L98.8438 91.2969L98.7852 91.2266L98.7148 91.168L96.8164 89.3281L96.7109 89.2344L96.5938 89.1523L94.543 87.8164L93.1016 85.9062L92.9609 85.7188L92.7617 85.5781L90.6172 84.1016L88.8359 82.4375L87.0781 80.5273L87.0078 80.457L86.9258 80.3867L84.8867 78.7109L84.418 78.3359L83.8203 78.3828L81.9805 78.5352L81.582 78.5586L81.2539 78.7812L79.0508 80.2695L78.8867 80.3867L78.7461 80.5273L77.1289 82.4023L75.1719 84.1719V84.1836L73.1562 85.707L73.0273 85.8008L72.9336 85.918L71.2578 87.875L69.3711 89.5508L69.3594 89.5742L69.3359 89.5859L67.4258 91.4141L67.3906 91.4492L65.6562 93.2188L63.5352 94.5312L63.3242 94.6602L63.1719 94.8594L61.6016 96.7812L59.6445 98.3867L59.5742 98.4453L59.5039 98.5273L58.3906 99.7109L56.4922 101.738L59.2227 102.219L61.8594 102.676L62.1172 102.723L62.3867 102.676L64.8711 102.242L67.3086 102.395H67.332L67.3555 102.406L72.6289 102.57H72.7461L72.8633 102.559L75.3945 102.254L77.8672 102.418L77.9492 102.43L78.043 102.418L80.4805 102.277L83 102.699L83.2109 102.734L83.4219 102.711L85.9648 102.395L88.4492 102.324L91.0508 102.512L91.1094 102.523H91.168L93.8047 102.512H93.9219L96.5 102.301L98.9375 102.395V102.406L101.574 102.664L101.727 102.676L101.879 102.664L104.363 102.395L106.355 102.477L107.07 103.145L108.09 102.031ZM80.8438 99.3008L80.6797 99.2773L80.5156 99.2891L77.9727 99.4297L75.418 99.2539L75.2773 99.2422L75.1367 99.2656L72.6172 99.5703L70.0859 99.4883L67.4844 99.418L67.4961 99.4062L64.8477 99.2422L64.6719 99.2305L64.4961 99.2656L62.9844 99.5352L63.5938 99.0312L63.7109 98.9375L63.8047 98.8203L65.3398 96.9453L67.4023 95.6562L67.5547 95.5625L67.6836 95.4336L69.5 93.582L71.3633 91.8008L73.3438 90.043L73.4141 89.9727L73.4844 89.8906L75.0781 88.0156L77.0938 86.4805L77.1406 86.4453L77.1875 86.3984L79.1445 84.6289L79.2148 84.5703L79.2734 84.5L80.8672 82.6719L82.5898 81.5L83.4453 81.4297L84.9805 82.6836L86.6797 84.5117L86.7617 84.5938L88.6953 86.3867L88.7773 86.457L88.8594 86.5156L90.8398 87.8984L92.3398 89.8555L92.4922 90.0547L92.7148 90.207L94.8242 91.5898L96.5469 93.2656L98.1758 95.2695L98.2461 95.3516L98.3398 95.4336L100.285 97.2148L100.367 97.2852L100.449 97.3438L102.535 98.7734L103.25 99.5L101.703 99.6641L99.2305 99.418H99.1367L96.5 99.3125L96.4062 99.3008L96.3242 99.3125L93.6875 99.5117V99.5234H91.25L88.625 99.3359L88.5547 99.3242L88.4727 99.3359L85.8359 99.4062H85.7656L85.707 99.418L83.2578 99.6992L80.8438 99.3008Z" fill="black"/>
<path d="M93.5664 102.395L93.6719 102.336L93.3203 100.859L94.2578 100.426L93.6953 99.1836L93.6719 99.1484L93.6602 99.1133L92.418 96.7812V96.7578L92.4062 96.7344L91.1758 94.6016L90.4961 92.1875L90.4258 91.9414L90.2852 91.7422L88.832 89.668L87.8594 87.3828L87.8125 87.2773L86.4648 85.1211L85.75 82.7305L85.6914 82.5664L85.6094 82.4023L84.4727 80.4688L83.1836 78.2422L81.8828 80.4688L80.5586 82.7656L80.5469 82.7773L80.5352 82.8008L79.2812 85.1211L78.0156 87.4414L77.9219 87.6523L77.0781 90.0195L75.8125 92.1875L75.7773 92.2695L75.7305 92.3516L74.7344 94.6484L73.2695 96.6641L73.1523 96.8281L73.0703 97.0273L72.1797 99.5352L71.8164 100.508L72.6133 101.188L73.5508 101.973L73.9258 102.289L74.418 102.324L77.0547 102.512L77.1133 102.523H77.1602L79.8086 102.512H79.9141L82.4922 102.301L84.9297 102.395L87.5781 102.664L87.7305 102.676L87.8828 102.664L90.3672 102.395L91.8906 102.453L92.1836 103.086L93.5664 102.395ZM85.2227 99.418H85.1406L82.5039 99.3125L82.4102 99.3008L82.3281 99.3125L79.6797 99.5117V99.5234H77.2539L75.4023 99.3945L75.8008 98.2812L77.2656 96.2539L77.3711 96.125L77.4297 95.9727L78.4375 93.6406L79.7383 91.4258L79.8086 91.2969L79.8555 91.168L80.6992 88.7773L81.918 86.5508L83.0898 84.3711L83.6406 86.1641L83.6992 86.3516L83.8047 86.5273L85.1406 88.6836L86.1602 91.0039L86.2188 91.1328L86.3008 91.2617L87.6836 93.2773L88.3516 95.5977L88.3984 95.7617L88.4922 95.9141L89.793 98.2227L90.4023 99.3945L90.3086 99.3828L90.2031 99.3945L87.6953 99.6641L85.2227 99.418Z" fill="black"/>
<path d="M33.6758 36.8125L36.3125 37.0117L36.3008 37.0234L38.7383 37.0234L41.375 36.8359L41.4688 36.8242L41.5508 36.8359L43.0742 36.9062L44.5039 36.9766V38.5H43.0039L42.9219 39.9062L41.5039 39.8359L38.9492 40.0117L38.8906 40.0234H38.832L36.1953 40.0117H36.0781L33.5 39.8125L31.0508 39.9062H31.0625L28.4258 40.1641L28.2734 40.1758L28.1211 40.1641L25.625 39.9062L23.1641 40H23V37H23.0352L25.5781 36.8945L25.6836 36.8828L25.8008 36.8945L28.2852 37.1641L30.7695 36.918H30.8633L33.5 36.8125L33.5938 36.8008L33.6758 36.8125Z" fill="black"/>
<path d="M33.6758 44.6875L36.3125 44.8867L36.3008 44.8984L38.7383 44.8984L41.375 44.7109L41.4688 44.6992L41.5508 44.7109L43.0742 44.7812L44.5039 44.8516V46.375H43.0039L42.9219 47.7812L41.5039 47.7109L38.9492 47.8867L38.8906 47.8984H38.832L36.1953 47.8867H36.0781L33.5 47.6875L31.0508 47.7812H31.0625L28.4258 48.0391L28.2734 48.0508L28.1211 48.0391L25.625 47.7812L23.1641 47.875H23V44.875H23.0352L25.5781 44.7695L25.6836 44.7578L25.8008 44.7695L28.2852 45.0391L30.7695 44.793H30.8633L33.5 44.6875L33.5938 44.6758L33.6758 44.6875Z" fill="black"/>
<path d="M33.6758 52.5625L36.3125 52.7617L36.3008 52.7734L38.7383 52.7734L41.375 52.5859L41.4688 52.5742L41.5508 52.5859L43.0742 52.6562L44.5039 52.7266V54.25H43.0039L42.9219 55.6562L41.5039 55.5859L38.9492 55.7617L38.8906 55.7734H38.832L36.1953 55.7617H36.0781L33.5 55.5625L31.0508 55.6562H31.0625L28.4258 55.9141L28.2734 55.9258L28.1211 55.9141L25.625 55.6562L23.1641 55.75H23V52.75H23.0352L25.5781 52.6445L25.6836 52.6328L25.8008 52.6445L28.2852 52.9141L30.7695 52.668H30.8633L33.5 52.5625L33.5938 52.5508L33.6758 52.5625Z" fill="black"/>
<path d="M33.6758 60.4375L36.3125 60.6367L36.3008 60.6484L38.7383 60.6484L41.375 60.4609L41.4688 60.4492L41.5508 60.4609L43.0742 60.5312L44.5039 60.6016V62.125H43.0039L42.9219 63.5312L41.5039 63.4609L38.9492 63.6367L38.8906 63.6484H38.832L36.1953 63.6367H36.0781L33.5 63.4375L31.0508 63.5312H31.0625L28.4258 63.7891L28.2734 63.8008L28.1211 63.7891L25.625 63.5312L23.1641 63.625H23V60.625H23.0352L25.5781 60.5195L25.6836 60.5078L25.8008 60.5195L28.2852 60.7891L30.7695 60.543H30.8633L33.5 60.4375L33.5938 60.4258L33.6758 60.4375Z" fill="black"/>
<path d="M33.6758 68.3125L36.3125 68.5117L36.3008 68.5234H38.7383L41.375 68.3359L41.4688 68.3242L41.5508 68.3359L43.0742 68.4062L44.5039 68.4766V70H43.0039L42.9219 71.4062L41.5039 71.3359L38.9492 71.5117L38.8906 71.5234H38.832L36.1953 71.5117H36.0781L33.5 71.3125L31.0508 71.4062H31.0625L28.4258 71.6641L28.2734 71.6758L28.1211 71.6641L25.625 71.4062L23.1641 71.5H23V68.5H23.0352L25.5781 68.3945L25.6836 68.3828L25.8008 68.3945L28.2852 68.6641L30.7695 68.418H30.8633L33.5 68.3125L33.5938 68.3008L33.6758 68.3125Z" fill="black"/>
<path d="M33.6758 76.1875L36.3125 76.3867L36.3008 76.3984H38.7383L41.375 76.2109L41.4688 76.1992L41.5508 76.2109L43.0742 76.2812L44.5039 76.3516V77.875H43.0039L42.9219 79.2812L41.5039 79.2109L38.9492 79.3867L38.8906 79.3984H38.832L36.1953 79.3867H36.0781L33.5 79.1875L31.0508 79.2812H31.0625L28.4258 79.5391L28.2734 79.5508L28.1211 79.5391L25.625 79.2812L23.1641 79.375H23V76.375H23.0352L25.5781 76.2695L25.6836 76.2578L25.8008 76.2695L28.2852 76.5391L30.7695 76.293H30.8633L33.5 76.1875L33.5938 76.1758L33.6758 76.1875Z" fill="black"/>
<path d="M33.6758 84.0625L36.3125 84.2617L36.3008 84.2734H38.7383L41.375 84.0859L41.4688 84.0742L41.5508 84.0859L43.0742 84.1562L44.5039 84.2266V85.75H43.0039L42.9219 87.1562L41.5039 87.0859L38.9492 87.2617L38.8906 87.2734H38.832L36.1953 87.2617H36.0781L33.5 87.0625L31.0508 87.1562H31.0625L28.4258 87.4141L28.2734 87.4258L28.1211 87.4141L25.625 87.1562L23.1641 87.25H23V84.25H23.0352L25.5781 84.1445L25.6836 84.1328L25.8008 84.1445L28.2852 84.4141L30.7695 84.168H30.8633L33.5 84.0625L33.5938 84.0508L33.6758 84.0625Z" fill="black"/>
<path d="M33.6758 91.9375L36.3125 92.1367L36.3008 92.1484H38.7383L41.375 91.9609L41.4688 91.9492L41.5508 91.9609L43.0742 92.0312L44.5039 92.1016V93.625H43.0039L42.9219 95.0312L41.5039 94.9609L38.9492 95.1367L38.8906 95.1484H38.832L36.1953 95.1367H36.0781L33.5 94.9375L31.0508 95.0312H31.0625L28.4258 95.2891L28.2734 95.3008L28.1211 95.2891L25.625 95.0312L23.1641 95.125H23V92.125H23.0352L25.5781 92.0195L25.6836 92.0078L25.8008 92.0195L28.2852 92.2891L30.7695 92.043H30.8633L33.5 91.9375L33.5938 91.9258L33.6758 91.9375Z" fill="black"/>
<path d="M33.6758 99.8125L36.3125 100.012L36.3008 100.023H38.7383L41.375 99.8359L41.4688 99.8242L41.5508 99.8359L43.0742 99.9062L44.5039 99.9766V101.5H43.0039L42.9219 102.906L41.5039 102.836L38.9492 103.012L38.8906 103.023H38.832L36.1953 103.012H36.0781L33.5 102.812L31.0508 102.906H31.0625L28.4258 103.164L28.2734 103.176L28.1211 103.164L25.625 102.906L23.1641 103H23V100H23.0352L25.5781 99.8945L25.6836 99.8828L25.8008 99.8945L28.2852 100.164L30.7695 99.918H30.8633L33.5 99.8125L33.5938 99.8008L33.6758 99.8125Z" fill="black"/>
</svg>
