<svg xmlns="http://www.w3.org/2000/svg" width="120" height="120" fill="none" viewBox="0 0 120 120"><g fill="currentColor" clip-path="url(#a)"><path d="m31.52 21.4.82 1.26.57-.38.1-.68zm.34-2.56-1.27-.8-.17.27-.05.33zm1.4-2.2-.72-1.33-.34.19-.22.33zm2.22-1.2.18-1.49-.47-.05-.41.22zm2.66.32-.18 1.49h.18zm2.42 0v1.5h.26l.25-.09zm2.48-.9.51 1.4h.02zm2.47-.95-.3-1.47-.12.03-.11.04zm2.6-.54-.1-1.5h-.1l-.11.03zm2.64-.16.1 1.5.16-.01.16-.05zm2.58-.74.14-1.5-.29-.02-.27.08zm2.65.25-.14 1.5h.02zm2.65.22.49-1.42-.18-.06-.18-.01zm2.52.86-.48 1.42.08.03.09.02zm2.59.55.33-1.46h-.02zm2.57.59-.33 1.46h.03l.03.01zm2.6.47.56-1.39-.14-.05-.15-.03zm2.48 1-.56 1.4.3.12.3-.01zm2.68-.06.28-1.48-.16-.02h-.16zm2.6.48-.27 1.48.15.03h.15zm2.64-.05.15-1.5h-.19zm2.65.27-.15 1.49.29.03.28-.08zm2.58-.74-.12-1.5-.15.02-.14.04zm2.63-.21.12 1.5.04-.01h.04zm2.62-.35.2 1.5.02-.01h.03zm2.6-.44-.02-1.5h-.12l-.11.02zm2.66-.04.02 1.5h.14l.13-.03zm2.6-.5-.09-1.5h-.1l-.1.02zm2.37-.14 1.5-.03-.03-1.56-1.56.09zm-68.58 6.82.82 1.26.08-.05-.82-1.26-.82-1.26-.09.06zm.08-.05 1.49.2.34-2.56-1.49-.2-1.49-.2-.34 2.56zm.34-2.56 1.27.8 1.39-2.2-1.27-.8-1.27-.8-1.39 2.2zm1.4-2.2.7 1.32 2.23-1.2-.7-1.32-.71-1.32-2.24 1.2zm2.22-1.2-.17 1.49 2.65.32.18-1.5.17-1.48-2.65-.32zm2.66.32v1.5h2.41v-1.5l.01-1.5h-2.42zm2.42 0 .51 1.41 2.48-.9-.51-1.41-.52-1.41-2.48.9zm2.48-.9.53 1.4 2.48-.95-.54-1.4-.53-1.4-2.48.95zm2.47-.95.31 1.47 2.6-.54-.32-1.47-.3-1.47-2.6.54zm2.6-.54.08 1.5 2.65-.16-.09-1.5-.08-1.5-2.65.16zm2.64-.16.42 1.44 2.57-.74-.41-1.44-.42-1.44-2.57.74zm2.58-.74-.15 1.5 2.66.25.14-1.5.15-1.5-2.66-.24zm2.65.25-.12 1.5 2.65.22.12-1.5.13-1.5-2.65-.21zm2.65.22-.48 1.42 2.52.86.48-1.42.49-1.42-2.52-.86zm2.52.86-.3 1.47 2.57.55.32-1.47.31-1.46-2.58-.56zm2.59.55-.34 1.46 2.58.59.33-1.46.33-1.47-2.57-.58zm2.57.59-.27 1.47 2.6.48.27-1.48.27-1.47-2.6-.48zm2.6.47-.56 1.4 2.48 1 .56-1.4.57-1.38-2.49-1zm2.48 1 .04 1.5 2.68-.06-.04-1.5-.04-1.5-2.67.07zm2.68-.06-.27 1.47 2.6.49.27-1.47.28-1.48-2.6-.48zm2.6.48.03 1.5 2.64-.05-.03-1.5-.04-1.5-2.63.06zm2.64-.05-.15 1.49 2.65.27.15-1.5.15-1.48-2.65-.28zm2.65.27.42 1.44 2.58-.74-.42-1.44-.41-1.44-2.58.74zm2.58-.74.12 1.5 2.63-.22-.12-1.5-.12-1.49-2.63.21zm2.63-.21.2 1.48 2.61-.34-.2-1.49-.19-1.48-2.61.34zm2.62-.35.25 1.48 2.6-.45-.25-1.47-.25-1.48-2.6.45zm2.6-.44.02 1.5 2.66-.04-.02-1.5-.02-1.5-2.66.04zm2.66-.04.29 1.47 2.6-.5-.3-1.47-.28-1.48-2.6.51zm2.6-.5.09 1.5 2.36-.14-.08-1.5-.09-1.5-2.37.14zm2.37-.14-1.5.03v.04l1.5-.02 1.5-.03v-.05z"/><path d="m98.97 15-.87-1.23-.28.2-.16.3zm-1.21 2.18.74 1.3.37-.2.2-.37zm-2.31 1.3-.74-1.3-.06.03-.06.05zM93.28 20l.73 1.32.07-.04.06-.05zm-2.32 1.28.52 1.4.1-.03.1-.05zm-2.48.92-.53-1.4-.03.01-.04.02zm-2.43 1.06-.6-1.38-.04.02-.04.03zm-2.35 1.21.56 1.4.07-.04.06-.03zm-2.45.99.3 1.47.13-.03.13-.05zm-2.6.52-.3-1.47-.23.05-.2.11zm-2.34 1.3.5 1.42.12-.04.11-.06zm-2.49.88-.5-1.41-.1.03-.08.05zm-2.35 1.2.4 1.45.15-.04.13-.07zm-2.56.74-.41-1.45-.09.03-.08.03zm-2.44 1.01.48 1.42.05-.02.05-.01zm-2.5.85.37 1.45.05-.01.06-.02zm-2.59.67-.17 1.49.28.03.27-.07zm-2.66-.32.18-1.49-.14-.01h-.13zm-2.67.17-1.5-.08-.1 1.68 1.69-.1zm43-17.55-.87-1.22-.08.06.87 1.22.87 1.22.08-.06zm-.08.06-1.31-.72-1.21 2.18 1.3.73 1.32.73 1.21-2.2zm-1.21 2.19-.74-1.3-2.3 1.3.73 1.3.74 1.31 2.3-1.3zm-2.31 1.3-.86-1.22-2.17 1.52.86 1.22.86 1.23 2.17-1.52zM93.28 20l-.72-1.31-2.32 1.28.72 1.31.73 1.32L94 21.32zm-2.32 1.28-.52-1.4-2.49.92.53 1.4.52 1.41 2.48-.92zm-2.48.92-.6-1.37-2.42 1.05.6 1.38.6 1.37 2.41-1.05zm-2.43 1.06-.68-1.33-2.35 1.2.68 1.34.7 1.33 2.34-1.2zm-2.35 1.21-.56-1.4-2.45 1 .56 1.39.56 1.39 2.45-.99zm-2.45.99-.3-1.47-2.6.52.3 1.47.3 1.47 2.6-.52zm-2.6.52-.73-1.3-2.34 1.3.73 1.3.73 1.32 2.34-1.3zm-2.34 1.3-.5-1.4-2.49.87.5 1.41.5 1.42 2.49-.88zm-2.49.88-.68-1.33-2.36 1.2.69 1.34.68 1.33 2.36-1.2zm-2.35 1.2-.41-1.44-2.56.73.4 1.45.42 1.44 2.56-.73zm-2.56.74-.58-1.39-2.44 1.02.58 1.38.58 1.39 2.43-1.02zm-2.44 1.01-.48-1.42-2.5.85.47 1.42.49 1.42 2.5-.85zm-2.5.85-.38-1.45-2.58.67.38 1.45.37 1.45 2.58-.67zm-2.59.67.18-1.49-2.66-.32-.18 1.5-.17 1.48 2.66.32zm-2.66-.32-.1-1.5-2.67.17.1 1.5.09 1.5 2.68-.17zm-2.67.17 1.5.09v-.27l-1.49-.08-1.5-.09-.01.27zm20.13 69.23h1.5v-.67l-.5-.44zM74.26 100l-1.3.76.12.2.18.16zm-1.34-2.27-1.48.2.03.3.16.26zm-.3-2.46-.93-1.19-.67.53.1.84zm2.1-1.65-.38-1.45-.3.08-.23.19zm2.58-.68v-1.5h-.2l-.19.05zm2.54.01.23-1.48-.1-.02h-.12zm2.62.4.34-1.46h-.06l-.05-.02zm2.57.6.44-1.43-.05-.02-.05-.01zm2.54.78-.44 1.43.22.07h.23zm2.68-.01.29-1.47-.15-.03h-.15zm2.59.5-.29 1.48.1.02h.1zm2.64.15.33-1.46-.12-.03h-.13zm2.6.59-.34 1.46.14.03H98zm2.63.1-.06 1.5h.05zm2.64.02-.01 1.5h.12zm2.63-.19.1 1.5.79-.06.4-.67zm.5-.82 1.28.76.78-1.3-1.32-.77zm-2.33-1.34-1.05 1.08.14.13.16.1zm-1.9-1.85 1.04-1.07-.1-.1-.1-.06zm-2.19-1.5-1.04 1.09.1.09.1.07zm-1.92-1.85 1.05-1.07-.2-.2-.26-.1zm-2.47-1.04-.8 1.27.1.06.12.05zm-2.22-1.4.8-1.27-.15-.1-.17-.05zM91 85.25l-1.48-.24-.2 1.26 1.2.4zm.25-1.5-1.29-.77-.14.25-.05.27zm1.36-2.3 1.29.77.12-.2.05-.24zm.58-2.59-1.46-.36v.04zm.64-2.56-1.42-.48-.02.06-.02.06zm.85-2.52 1.42.48.07-.21v-.22zm.08-2.67-1.47-.3-.02.12v.13zm.54-2.59 1.47.3v-.02zm.49-2.6 1.47.28.02-.12v-.13zm.06-2.65-1.5-.1v.07zm.18-2.63-1.48-.26-.02.08v.08zm.45-2.63 1.48.25.05-.28-.06-.27zm-.53-2.63 1.47-.3v-.03zm-.5-2.28 1.46-.32-.64-2.9-1.95 2.23zm-1.74 2-1.13-1-.07.09-.06.09zm-1.45 2.23 1.13.99.07-.08.06-.09zm-1.74 2 1 1.12.08-.07.06-.07zm-1.98 1.78-1-1.12-.12.11-.1.14zM87 63.26l1.2.9h.01l.02-.03zm-1.59 2.11 1.2.9zm-1.6 2.1-1.2-.9-.01.03-.02.03zm-1.5 2.19-1.23-.85-.02.03-.02.03zm-1.4 2.25-1.27-.79-.1.18-.06.2zm-.73 2.56-1.44-.41v.02l-.01.01zm-.66 2.54-1.45-.38-.01.05v.04zm-.5 2.62 1.28.78.14-.23.05-.27zm-1.4 2.27 1.25.83.02-.02.01-.03zm-1.46 2.19 1.04 1.07.12-.1.09-.14zm-1.9 1.84.91 1.2.08-.06.06-.07zm-2.1 1.6.62 1.36.15-.07.13-.1zm-2.42 1.1.45 1.44.09-.03.09-.04zm-2.53.8.3 1.46.07-.01.08-.03zm-2.59.52.23 1.48h.03l.04-.01zm-2.61.4.1 1.5.06-.01.06-.01zm-2.65.17-.08 1.5h.18zm-2.65-.14-.2 1.49h.12zm-2.63-.36-.45 1.43.12.04.13.02zm-2.53-.79.44-1.43-.05-.02h-.04zm-2.56-.61.35-1.46zM46.41 88l-.62 1.37.13.06.14.03zm-2.43-1.08-.84 1.24.1.07.13.06zm-2.2-1.5-.95 1.17.06.04.05.04zm-2.02-1.66-1.08 1.04.06.06.07.06zm-1.83-1.88-1.19.9.05.08.07.06zm-1.58-2.09-1.25.84.03.04.02.03zm-1.46-2.18-1.36.63.05.1.06.1zm-1.1-2.38-1.43.44.03.1.04.09zm-.76-2.5 1.43-.44v-.05l-.02-.04zm-.92-2.49-1.47.3.02.11.04.11zm-.52-2.6h-1.5v.14l.03.15zm0-2.66-1.5-.09v.09zm.16-2.64-1.5-.19v.1zm.33-2.63-1.46-.34-.02.08v.07zm.6-2.58-1.35-.63-.07.14-.03.15zm1.12-2.4 1.36.63.03-.06.02-.07zm.89-2.5-1.28-.78-.08.14-.06.15zM36.07 50l-1.21-.89-.04.05-.03.05zm1.56-2.14-1.09-1.03-.07.07-.05.08zm1.82-1.9-.9-1.21-.1.08-.08.09zm2.11-1.58.9 1.2.1-.07.08-.08zm34.62 57.44h1.5v-.1h-1.5l-1.5.01v.1zm0-.1 1-1.11-1.92-1.73-1 1.12-1 1.12 1.92 1.72zM74.26 100l1.3-.76-1.34-2.27-1.3.76-1.29.76 1.34 2.27zm-1.34-2.27 1.5-.19-.32-2.46-1.49.19-1.49.18.32 2.47zm-.3-2.46.91 1.18 2.12-1.64-.92-1.19-.92-1.18-2.12 1.64zm2.1-1.65.4 1.45 2.56-.68-.38-1.45-.39-1.45-2.57.68zm2.58-.68-.01 1.5 2.55.01v-1.5l.01-1.5-2.55-.01zm2.54.01-.23 1.48 2.62.4.23-1.47.23-1.49-2.62-.4zm2.62.4-.34 1.47 2.57.6.34-1.47.34-1.46-2.57-.6zm2.57.6-.44 1.44 2.54.77.44-1.43.44-1.44-2.54-.77zm2.54.78v1.5l2.68-.01v-3h-2.68zm2.68-.01-.3 1.47 2.6.5.29-1.46.29-1.47-2.6-.51zm2.59.5-.09 1.5 2.64.15.09-1.5.08-1.5-2.64-.14zm2.64.15-.33 1.47 2.6.58.32-1.46.33-1.47-2.6-.58zm2.6.59-.07 1.5 2.64.1.06-1.5.06-1.5-2.64-.1zm2.63.1-.01 1.5 2.64.02.01-1.5.01-1.5-2.64-.02zm2.64.02.1 1.5 2.64-.2-.11-1.49-.11-1.5-2.63.2zm2.63-.19 1.29.77.49-.83-1.29-.76-1.29-.77-.5.82zm.5-.82.74-1.3-2.32-1.34-.75 1.3-.75 1.3 2.32 1.34zm-2.33-1.34 1.04-1.08-1.9-1.84-1.04 1.07-1.05 1.08 1.9 1.85zm-1.9-1.85.84-1.23-2.18-1.5-.84 1.24-.85 1.24 2.18 1.5zm-2.19-1.5 1.05-1.07-1.92-1.85-1.05 1.07-1.04 1.08 1.92 1.86zm-1.92-1.85.59-1.38-2.47-1.04-.59 1.38-.58 1.38 2.47 1.05zm-2.47-1.04.8-1.27-2.22-1.4-.8 1.27-.8 1.27 2.22 1.4zm-2.22-1.4.48-1.42-2.45-.83-.48 1.42-.48 1.42 2.45.83zM91 85.25l1.48.25.25-1.51-1.48-.24-1.48-.25-.25 1.5zm.25-1.5 1.29.76 1.36-2.29-1.3-.76-1.28-.77-1.36 2.3zm1.36-2.3 1.46.33.58-2.6-1.46-.32-1.47-.32-.58 2.59zm.58-2.59 1.45.37.64-2.56-1.45-.37-1.46-.36-.64 2.56zm.64-2.56 1.42.48.85-2.52-1.42-.48-1.42-.48-.85 2.52zm.85-2.52 1.5.05.08-2.67-1.5-.05-1.5-.05-.08 2.67zm.08-2.67 1.47.3.54-2.59-1.47-.3-1.47-.3-.53 2.59zm.54-2.59 1.47.28.5-2.6-1.48-.28-1.48-.28-.49 2.6zm.49-2.6 1.5.03.06-2.65-1.5-.03-1.5-.03-.06 2.65zm.06-2.65 1.5.1.17-2.63-1.5-.1-1.5-.1-.17 2.63zm.18-2.63 1.47.26.46-2.64-1.48-.25-1.48-.26-.45 2.63zm.45-2.63 1.47-.3-.53-2.63-1.47.3-1.47.3.53 2.62zm-.53-2.63 1.46-.33-.5-2.27-1.46.32-1.47.32.5 2.28zm-.5-2.28-1.13-.99-1.74 2 1.13.98 1.13.99 1.74-2zm-1.74 2-1.26-.82L91 56.52l1.26.81 1.25.82 1.46-2.24zm-1.45 2.23-1.14-.98-1.73 2 1.13.98 1.14.98 1.73-2zm-1.74 2-1-1.12L87.54 60l1 1.12 1 1.11 1.99-1.77zm-1.98 1.78-1.22-.87-1.54 2.15 1.22.87 1.23.87 1.53-2.15zM87 63.26l-1.2-.9-1.58 2.1 1.2.91 1.19.9 1.6-2.1zm-1.59 2.11-1.2-.9-1.6 2.1 1.2.9 1.2.91 1.6-2.1zm-1.6 2.1-1.23-.84-1.5 2.18 1.23.85 1.24.85 1.5-2.18zm-1.5 2.19-1.27-.8-1.4 2.26 1.28.8 1.27.78 1.4-2.25zm-1.4 2.25-1.43-.41-.74 2.56 1.44.41 1.44.41.74-2.55zm-.73 2.56-1.45-.38-.66 2.54 1.45.38 1.46.38.65-2.54zm-.66 2.54-1.47-.29-.5 2.62 1.47.29 1.47.28.5-2.62zm-.5 2.62-1.28-.79-1.4 2.27 1.28.79 1.28.78 1.4-2.27zm-1.4 2.27-1.24-.84-1.47 2.2 1.25.83 1.25.83 1.46-2.19zm-1.46 2.19L75.1 83l-1.89 1.84 1.05 1.08L75.3 87l1.9-1.84zm-1.9 1.84-.9-1.2-2.11 1.6.9 1.2.9 1.2 2.12-1.6zm-2.1 1.6-.63-1.36-2.42 1.1.63 1.37.63 1.36 2.4-1.1zm-2.42 1.1-.44-1.43-2.53.79.44 1.43.45 1.43 2.53-.78zm-2.53.8-.3-1.48-2.59.53.3 1.47.3 1.47 2.59-.53zm-2.59.52-.22-1.49-2.62.4.23 1.48.22 1.49 2.62-.4zm-2.61.4-.1-1.5-2.65.17.1 1.5.1 1.5 2.64-.18zm-2.65.17.08-1.5-2.65-.14-.08 1.5-.08 1.5 2.65.13zm-2.65-.14.2-1.49-2.63-.35-.2 1.48-.2 1.49 2.63.36zm-2.63-.36.45-1.43-2.54-.8-.44 1.44-.45 1.43 2.53.8zm-2.53-.79.35-1.46-2.56-.61-.35 1.46-.35 1.46 2.56.61zm-2.56-.61.35-1.46-2.59-.61-.34 1.45-.35 1.46 2.58.62zM46.41 88l.6-1.36-2.42-1.09-.6 1.37-.62 1.37 2.42 1.08zm-2.43-1.08.85-1.24-2.2-1.5-.84 1.25-.85 1.24 2.2 1.49zm-2.2-1.5.96-1.15-2.03-1.67-.95 1.16-.95 1.16 2.02 1.67zm-2.02-1.66 1.08-1.05L39 80.83l-1.08 1.05-1.07 1.04 1.82 1.88zm-1.83-1.88 1.2-.91-1.59-2.09-1.2.91-1.19.91 1.59 2.08zm-1.58-2.09 1.24-.83-1.46-2.18-1.24.83-1.25.84 1.46 2.18zm-1.46-2.18 1.36-.62-1.1-2.39-1.36.63-1.36.63 1.1 2.38zm-1.1-2.38 1.44-.44-.77-2.5-1.43.43-1.44.44.77 2.5zm-.76-2.5 1.4-.53-.91-2.48-1.41.52-1.4.52.91 2.48zm-.92-2.49 1.47-.3-.52-2.6-1.47.3-1.47.3.52 2.6zm-.52-2.6h1.5v-2.66h-3v2.65zm0-2.66 1.5.09.15-2.64-1.5-.1-1.49-.08-.16 2.64zm.16-2.64 1.48.19.34-2.63-1.49-.19-1.49-.19-.33 2.63zm.33-2.63 1.46.35.6-2.58-1.45-.35-1.46-.34-.61 2.58zm.6-2.58 1.37.64 1.11-2.4-1.36-.64-1.36-.63-1.11 2.4zm1.12-2.4 1.41.5.89-2.49-1.41-.5-1.42-.5-.88 2.49zm.89-2.5 1.27.8 1.39-2.26-1.28-.78-1.28-.79-1.38 2.25zM36.07 50l1.21.88 1.56-2.13-1.21-.89-1.21-.88-1.56 2.13zm1.56-2.14 1.08 1.04 1.83-1.91-1.09-1.04-1.08-1.03-1.83 1.9zm1.82-1.9.9 1.2 2.11-1.57-.9-1.2-.89-1.21-2.11 1.57zm2.11-1.58 1.08 1.05.76-.78-1.08-1.05-1.08-1.04-.75.78z"/><path d="m43.08 99.36.7-1.33-.09-.04-.1-.04zm2.24 1.2.78-1.28-.04-.03-.04-.02zm2.26 1.38-.78 1.28.2.12.22.06zm2.58.65-.37 1.46h.05l.04.02zm2.57.48-.27 1.48h.02zm2.6.44-.25 1.48.16.03h.16zm2.64-.12.07 1.5h.15l.15-.05zm2.55-.66.37 1.45h.02zm2.52-.7.4 1.44h.02zm2.56-.74.42 1.44.26-.07.21-.16zm2.16-1.59-.7-1.33-.1.05-.1.07zm2.34-1.21.69 1.33.1-.06.1-.07zm2.11-1.58 1.01-1.11-.91-.83-1 .74zm-29.23 2.41-.52 1.4.1.04.52-1.4.52-1.41-.1-.04zm.1.04-.71 1.32 2.24 1.2.7-1.32.71-1.33-2.24-1.2zm2.24 1.2-.79 1.27 2.27 1.4.78-1.29.79-1.28-2.27-1.38zm2.26 1.38-.36 1.46 2.57.65.37-1.46.36-1.45-2.57-.65zm2.58.65-.28 1.48 2.58.48.27-1.48.28-1.47-2.58-.48zm2.57.48-.25 1.48 2.6.44.25-1.48.25-1.48-2.6-.44zm2.6.44.07 1.5 2.64-.12-.07-1.5-.07-1.5-2.64.13zm2.64-.12.37 1.45 2.55-.66-.37-1.45-.38-1.45-2.55.66zm2.55-.66.4 1.44 2.53-.7-.4-1.45-.4-1.44-2.54.7zm2.52-.7.42 1.43 2.56-.73-.42-1.44-.4-1.44-2.57.73zm2.56-.74.9 1.2 2.15-1.58-.9-1.2-.88-1.22-2.16 1.6zm2.16-1.59.69 1.33 2.34-1.2-.7-1.34-.68-1.33-2.34 1.21zm2.34-1.21.9 1.2 2.11-1.58-.9-1.2-.9-1.2-2.11 1.58zm2.11-1.58-1 1.11.19.17 1-1.1 1.01-1.12-.19-.17zM52.78 35.7l-1.45-.38-.09.35.08.34zm.53 2.5 1.46.36.08-.33-.07-.33zm-.62 2.58-1.45-.35zm-.61 2.56 1.34.67.08-.15.04-.17zm-1.2 2.39 1.1 1.03.15-.16.1-.2zm-1.82 1.93.93 1.18.09-.07.07-.08zM47 49.3l.72 1.32.11-.06.1-.08zm-1.65.91-1.45.4.5 1.84 1.68-.92zm7.46-14.6-1.45-.37-.03.1 1.45.37 1.45.39.03-.1zm-.03.1-1.46.31.52 2.5 1.47-.3 1.47-.31-.53-2.5zm.53 2.5-1.46-.35-.61 2.58 1.45.35 1.46.35.62-2.57zm-.62 2.58-1.45-.35-.62 2.56 1.46.35 1.46.35.61-2.56zm-.61 2.56-1.34-.67-1.2 2.39 1.35.67 1.34.67L53.42 44zm-1.2 2.39L49.8 44.7l-1.83 1.94 1.1 1.02 1.08 1.03 1.83-1.93zm-1.82 1.93-.93-1.17-2.06 1.63.93 1.17.93 1.18 2.06-1.63zM47 49.3l-.73-1.31-1.65.91.73 1.31.73 1.32 1.64-.91zm-1.65.91 1.45-.39-.05-.16-1.44.4-1.45.38.04.16z"/><path d="m53.52 18.95 1.44.41.07-.23-.01-.24zm-.7 2.46 1.4.55.03-.07.02-.07zm-.97 2.47-1.4-.55-.13.35.04.37zm.3 2.63-1.5.16.03.28.13.25zm1.19 2.3L52 29.5l.01.03.02.03zm1.32 2.27 1.5.14.04-.48-.24-.41zm-.19 2.2 1.15.96.3-.37.05-.47zm-1.7 2.02.82 1.25.18-.12.14-.16zm-2.22 1.48.63 1.36.1-.05.1-.06zm-2.42 1.1-.62-1.36-.2.1-.18.15zm-1.98 1.79.88 1.21.06-.04.06-.05zm-2.12 1.54L43.15 40l-.17.12-.13.17zm-1.37 1.75-1.18-.92-.64.82.54.88zm1.4 2.27 1.46-.28-.05-.27-.14-.23zm.48 2.58-1.47.28v.04l.01.04zm.57 2.27.57 1.39 1.2-.5-.32-1.25zm8.4-31.23-1.5.06.01.1 1.5-.06 1.5-.06v-.1zm0 .1-1.44-.4-.69 2.45 1.45.4 1.44.42.7-2.46zm-.68 2.46-1.4-.55-.97 2.47 1.4.55 1.39.55.97-2.47zm-.98 2.47-1.49.17.29 2.62 1.5-.16 1.48-.17-.29-2.62zm.3 2.63-1.34.69 1.2 2.3 1.33-.7 1.33-.68-1.2-2.3zm1.19 2.3-1.3.75 1.33 2.28 1.3-.76 1.3-.75-1.33-2.28zm1.32 2.27-1.49-.13-.2 2.19 1.5.13 1.5.13.19-2.18zm-.19 2.2-1.15-.98-1.7 2.04 1.14.96 1.15.97 1.7-2.03zm-1.7 2.02-.84-1.24-2.21 1.47.83 1.25.84 1.25 2.2-1.48zm-2.22 1.48-.62-1.36-2.42 1.1.62 1.37.63 1.36 2.42-1.1zm-2.42 1.1-1-1.11-1.99 1.78 1 1.12 1 1.12 2-1.79zm-1.98 1.79-.89-1.21L43.15 40l.88 1.21.88 1.21 2.12-1.54zm-2.12 1.54-1.18-.92-1.37 1.75 1.18.92 1.18.93 1.37-1.75zm-1.37 1.75-1.28.78 1.4 2.27 1.27-.78 1.28-.78-1.39-2.27zm1.4 2.27-1.48.28.49 2.58 1.47-.28 1.47-.28-.49-2.58zm.48 2.58-1.46.36.57 2.27 1.46-.36 1.45-.36-.56-2.27zm.57 2.27-.57-1.39-.1.04.57 1.39.58 1.39.09-.04zm19.36 51.8.72-1.32-.3-.16-.33-.02zm2.22 1.21-.72 1.32.09.05.1.04zm2.48.93-.52 1.4.31.13.33-.03zm2.65-.21.12 1.5.16-.02.14-.04zm2.48-.74.43 1.44.09-.02.08-.04zm1.6-.69.6 1.38 1.78-.77-1.2-1.53zm-11.53-.5-.09 1.49h.1l.1-1.5.08-1.49h-.1zm.1 0-.72 1.31 2.22 1.22.72-1.32.72-1.31-2.22-1.22zm2.22 1.21-.53 1.4 2.49.94.52-1.4.53-1.41-2.49-.93zm2.48.93.12 1.5 2.65-.22-.12-1.5-.12-1.49-2.65.22zm2.65-.21.42 1.44 2.49-.74-.43-1.44-.42-1.44-2.49.74zm2.48-.74.6 1.38 1.6-.7-.6-1.37-.6-1.37-1.6.69zm1.6-.69 1.18-.92zl-1.18.93zM25.31 26.6l.26 1.48.59-.1.35-.47zm-2.5.44-.26-1.48-.18.03-.17.08zm-2.42 1.07-.61-1.37-.5.22-.24.49zm-1.17 2.37-1.35-.66-.15.31v.36zm.01 2.56h-1.5v.42l.22.35zm1.12 1.84-1.28.77.59.98 1.1-.3zm2.53-.71.4 1.44.39-.1.28-.3zm1.81-1.85 1.07 1.05.2-.2.1-.25zm1.03-2.34 1.38.6.1-.23.02-.26zm.2-2.66-1.49-.21v.1zm.36-2.5-1.02-1.1-.39.35-.07.53zm1.97-1.83-.8-1.26-.12.07-.1.1zm2.28-1.43.43-1.44-.66-.2-.57.37zm2.56.76-.43 1.44.28.08.28-.02zm2.62-.22.12 1.5.43-.04.34-.25zm2.07-1.54.9 1.2.3-.23.16-.35zm1.05-2.32 1.37.62v-.02l.01-.01zm.78-1.8 1.38.58.85-1.99-2.16-.1zM25.37 26.52l-1.2-.9-.06.08 1.2.9 1.2.9.06-.08zm-.06.08-.25-1.48-2.5.43.25 1.48.25 1.48 2.5-.44zm-2.5.43-.61-1.37-2.42 1.07.6 1.37.61 1.37 2.43-1.07zm-2.42 1.07-1.35-.66-1.17 2.37 1.35.66 1.34.66 1.17-2.36zm-1.17 2.37-1.5.01.01 2.56 1.5-.01 1.5-.01-.01-2.56zm.01 2.56-1.28.77 1.12 1.84 1.28-.77 1.28-.78-1.11-1.84zm1.12 1.84.4 1.44 2.53-.7-.4-1.45-.4-1.45-2.54.71zm2.53-.71 1.07 1.05 1.81-1.85-1.07-1.05-1.07-1.05-1.81 1.84zm1.81-1.85 1.38.6 1.03-2.34-1.38-.6-1.37-.6-1.03 2.34zm1.03-2.34 1.5.1.2-2.65-1.5-.1-1.5-.12-.2 2.66zm.2-2.66 1.48.22.37-2.51-1.49-.22-1.48-.21-.37 2.5zm.36-2.5 1.02 1.1 1.97-1.82-1.02-1.1-1.02-1.1-1.97 1.81zm1.97-1.83.8 1.27 2.28-1.44-.8-1.26-.8-1.27-2.28 1.44zm2.28-1.43-.43 1.43 2.56.77.43-1.44.43-1.43-2.56-.77zm2.56.76.13 1.5 2.61-.22-.12-1.5-.13-1.5-2.61.23zm2.62-.22.9 1.2 2.06-1.54-.9-1.2-.89-1.2-2.07 1.54zm2.07-1.54 1.36.62 1.06-2.32-1.37-.62-1.36-.62-1.06 2.32zm1.05-2.32 1.38.59.78-1.8-1.38-.6-1.38-.59-.77 1.8zm.78-1.8.07-1.5-.2-.02-.08 1.5-.07 1.5.2.01zm-5.02 78.15 1.42-.46-.23-.72-.72-.24zm.8 2.43-1.43.47.09.28.2.23zm1.7 2-1.15.97.46.54.72-.02zm2.65-.07.03 1.5h.18l.17-.05zm2.53-.67.38 1.45 1.28-.33-.17-1.32zm-.3-2.16 1.5-.2-.08-.52-.38-.37zm-1.88-1.8 1.03-1.09-.34-.32-.47-.07zm-2.56-.4.23-1.48-.25-.04-.25.05zm-2.53.47-.27-1.47h-.07zm-.5.17-.5 1.42.1.04.48-1.43.47-1.42-.09-.03zm.09.03-1.43.47.8 2.43 1.42-.47 1.43-.46-.8-2.43zm.8 2.43-1.15.98 1.7 1.99 1.14-.97 1.14-.98-1.7-1.99zm1.7 2 .03 1.5 2.65-.07-.03-1.5-.04-1.5-2.66.07zm2.65-.07.38 1.45 2.53-.67-.38-1.45-.38-1.45-2.54.67zm2.53-.67 1.49-.2-.3-2.16-1.48.2-1.49.2.3 2.16zm-.3-2.16 1.04-1.09-1.9-1.8-1.02 1.09-1.04 1.09 1.9 1.8zm-1.88-1.8.22-1.48-2.55-.4-.23 1.49-.23 1.48 2.56.4zm-2.56-.4-.27-1.47-2.53.47.27 1.47.27 1.48 2.53-.47zm-2.53.47-.34-1.46-.46.1.34 1.47.33 1.46.46-.1z"/><path d="m19.57 35.29 1.32.71.12-.21.04-.24zm-1.2 2.24 1.26.8.03-.04.02-.05zm-1.43 2.25-1.27-.8-.17.28-.04.31zm-.37 2.61-1.48-.2-.05.32.1.31zm.74 2.47 1.45-.4v-.01l-.01-.02zm.7 2.56 1.5-.2-.02-.1-.03-.1zm.34 2.48 1.25.82.3-.47-.07-.55zm-1.44 2.22-1.26-.82v.01l-.01.01zm-1.38 2.2-1.28-.79-.08.14-.06.16zm-.89 2.52-1.41-.5-.14.4.08.4zm.53 2.62 1.48-.24v-.05zm.41 2.54-1.48.24.1.61.5.36zm2.07 1.5.97-1.15-.04-.03-.05-.04zm2.04 1.7 1.06-1.05-.05-.05-.05-.04zm-.1-30-1.48-.27-.02.1 1.48.26 1.48.26.01-.1zm-.02.09-1.32-.71-1.2 2.24 1.31.71 1.32.71L20.9 36zm-1.2 2.24-1.28-.8-1.42 2.25 1.27.8 1.27.8 1.42-2.25zm-1.43 2.25-1.48-.2-.37 2.6 1.48.21 1.49.21.37-2.6zm-.37 2.61-1.43.43.74 2.47 1.43-.43 1.44-.43-.74-2.47zm.74 2.47-1.44.4.7 2.56 1.45-.4 1.44-.4-.7-2.55zm.7 2.56-1.48.2.33 2.48 1.49-.2 1.48-.2-.33-2.48zm.34 2.48-1.26-.82-1.44 2.22 1.26.82 1.26.81 1.43-2.21zm-1.44 2.22-1.27-.8-1.39 2.21 1.28.8 1.27.8 1.38-2.22zm-1.38 2.2-1.42-.49-.88 2.51 1.41.5 1.42.5.88-2.52zm-.89 2.52-1.47.3.53 2.62 1.47-.3 1.47-.3-.53-2.62zm.53 2.62-1.48.24.41 2.54 1.48-.24 1.48-.24-.4-2.54zm.41 2.54-.88 1.21 2.07 1.5.88-1.21.88-1.22-2.07-1.5zm2.07 1.5-.96 1.15 2.03 1.7.97-1.14.96-1.15-2.03-1.71zm2.04 1.7-1.07 1.07.8.8L20.5 66l1.06-1.06-.8-.8zm64.27-40.94-1.37.6.05.12.08.11zm1.42 2.1 1.32-.7-.04-.07-.04-.06zm1.24 2.33-1.32.71v.02l.02.01zm1.3 2.3 1.49-.14-.03-.32-.16-.27zm.23 2.47-.2 1.49 1.87.25-.18-1.88zm-4.23-9.3-1.37.6.04.1 1.37-.6 1.38-.6-.04-.1zm.04.1-1.24.83 1.4 2.1 1.26-.83 1.24-.83-1.4-2.1zm1.42 2.1-1.33.7 1.25 2.34 1.32-.7 1.33-.71-1.25-2.34zm1.24 2.33-1.3.74 1.29 2.3 1.3-.74 1.31-.73-1.29-2.3zm1.3 2.3-1.5.14.24 2.47 1.49-.14 1.5-.14-.24-2.47zm.23 2.47.2-1.48-.2-.03-.2 1.49-.2 1.48.2.03z"/><path d="m86.88 23.47 1.26-.82-.02-.02-.01-.03zm1.36 2.08-1.25.82.06.09.06.07zm1.74 1.99 1.15-.96v-.02h-.02zm1.69 2 1.49-.13-.04-.47-.3-.36zm-4.85-6.15-1.22.86.06.08 1.22-.86 1.23-.87-.06-.08zm.06.08-1.25.82 1.36 2.08 1.25-.82 1.26-.83-1.36-2.07zm1.36 2.08-1.12.98 1.73 2 1.13-1 1.13-.98-1.74-1.99zm1.74 1.99-1.15.96 1.69 2 1.15-.96 1.14-.96-1.68-2zm1.69 2-1.5.13.07.81 1.5-.13 1.49-.13-.07-.8zm-71.1 36.55 1.5.13v-.2zm-.22 2.54 1.42.49.06-.18.01-.18zm-.87 2.51-1.42-.49-.1.3.02.3zm.2 2.63-1.5.12.02.22.08.22zm.95 2.43-1.4.55.02.03.01.02zm1.06 2.41-1.37.6.17.39.34.24zm2.14 1.5-.86 1.23.24.18.3.06zm2.6.58 1.09-1.03-.32-.33-.45-.1zm1.82 1.94 1.5.06.02-.63-.43-.46zm-.11 2.62-1.5-.06v.08zm.03 2.61-.3 1.47 1.83.39-.03-1.88zM20.57 66l-1.5.06v.1l1.5-.06 1.5-.07v-.1zm0 .1-1.5-.14-.22 2.55 1.5.13 1.5.13.22-2.54zm-.22 2.54-1.42-.5-.87 2.52 1.42.5 1.42.48.87-2.51zm-.87 2.51-1.5.11.2 2.64 1.5-.12 1.5-.1-.2-2.64zm.2 2.63-1.4.56.96 2.42 1.4-.55 1.39-.55-.96-2.43zm.95 2.43-1.37.6 1.06 2.42 1.37-.6 1.38-.61L22 75.6zm1.06 2.41-.86 1.23 2.14 1.5.86-1.22.86-1.23-2.13-1.5zm2.14 1.5-.33 1.47 2.6.58.33-1.47.32-1.46-2.6-.58zm2.6.58-1.1 1.03 1.83 1.93 1.09-1.03 1.09-1.02-1.82-1.94zm1.82 1.94-1.5-.07-.11 2.63 1.5.06 1.5.07.1-2.63zm-.11 2.62-1.5.02.03 2.61 1.5-.02 1.5-.02-.03-2.61zm.03 2.61.31-1.47-.21-.04-.3 1.47-.32 1.47.21.04z"/><path d="m23.35 79.83 1.5.1.03-.48-.26-.41zm-.16 2.54-1.5-.1v.15l.02.15zm.36 2.63-1.49.2.07.52.38.36zm1.9 1.83-1.04 1.08.22.2.28.11zm2.46.95 1.07-1.05-.22-.23-.31-.12zm1.86 1.92 1.19-.92-.06-.06-.05-.06zm1.61 2.09-1.18.92.08.1.1.1zm1.95 1.75-1 1.12.07.07.1.06zm1.11.74 1.4.57.46-1.14-1.03-.68zM23.3 79.75l-1.27.8.05.08 1.27-.8 1.27-.8-.05-.08zm.05.08-1.5-.09-.15 2.54 1.5.09 1.49.1.16-2.54zm-.16 2.54-1.48.2.35 2.63 1.49-.2 1.48-.2-.35-2.63zm.36 2.63-1.04 1.08 1.9 1.83 1.04-1.08 1.04-1.09-1.9-1.82zm1.9 1.83-.54 1.4 2.45.95.55-1.4.54-1.4-2.45-.95zm2.46.95-1.08 1.04 1.86 1.92 1.08-1.04 1.08-1.04-1.87-1.92zm1.86 1.92-1.19.92 1.62 2.09 1.18-.92 1.2-.92-1.62-2.09zm1.61 2.09-1 1.11 1.94 1.76 1-1.12 1.01-1.11-1.94-1.76zm1.95 1.75-.83 1.25 1.12.74.82-1.25.83-1.25-1.11-.74zm1.11.74-1.38-.56-.04.09 1.39.56 1.39.57.03-.1zm46.62-69.25-1.4.54.04.09.04.09zm1.21 2.24 1.42-.5-.04-.1-.06-.12zm.86 2.5 1.43-.47v-.02zm.82 2.5 1.4.56.2-.51-.17-.52zm-2.92-7.33-1.4.53.03.1 1.4-.54 1.4-.53-.03-.1zm.03.1-1.32.7 1.21 2.24 1.32-.71 1.32-.72-1.2-2.23zm1.21 2.23-1.42.48.86 2.5 1.42-.48 1.42-.5-.86-2.5zm.86 2.5-1.42.47.82 2.5 1.42-.47 1.43-.47-.82-2.5zm.82 2.5-1.39-.56-.07.2 1.39.55 1.39.56.08-.2zM16.28 63.1l1.38.59.22-.51-.16-.53zm-1 2.34-1.37-.59-.07.15-.03.16zm-.48 2.6-1.48-.28-.1.53.26.48zm1.27 2.32-1.32.72.17.3.27.19zm2.07 1.5-.88 1.22.05.03.04.03zM16.26 63l-1.43.45.03.1 1.43-.45 1.44-.45-.03-.1zm.03.1-1.38-.59-1 2.34 1.39.59 1.38.59 1-2.34zm-1 2.34-1.47-.28-.49 2.6 1.48.28 1.47.28.5-2.6zm-.48 2.6-1.32.73 1.27 2.3 1.32-.71 1.31-.73-1.27-2.31zm1.27 2.32-.88 1.2 2.07 1.52.88-1.21.89-1.22-2.08-1.5zm2.07 1.5-.79 1.28 1.1.69.8-1.28.79-1.27-1.1-.69zm-1.33-27.55.88 1.21.52-.38.08-.64zm-2.05 1.5-.89-1.2-.18.14-.14.18zm-1.56 2.14L12 47.06l-.34.46.05.57zm.24 2.63-1.5.14.04.34.18.3zm1.32 2.19-1.28.78.04.07.05.06zm.84 1.1-1.2.9 1.16 1.51 1.2-1.46zm1.22-9.66-1.5-.18v.1l1.49.18 1.48.19.02-.1zm-.01.1-.9-1.2-2.04 1.5.89 1.2.89 1.22 2.04-1.5zm-2.05 1.5-1.21-.88L12 47.06l1.2.89 1.22.89 1.56-2.14zm-1.56 2.14-1.5.14.24 2.63 1.5-.14 1.5-.14-.25-2.63zm.24 2.63-1.28.78 1.32 2.19 1.28-.78 1.29-.78-1.33-2.19zm1.32 2.19-1.19.91.84 1.1 1.19-.92 1.2-.9-.84-1.1zm.84 1.1 1.16.95v-.01zl-1.16-.96-.01.01zM62.4 21.13l-.38-1.45-.55.15-.31.47zm-1.33 2-1.16.94 1.29 1.57 1.12-1.68zm-1.44-1.77-.9-1.2-1.24.95.98 1.2zm1.8-1.36 1.03-1.1-.93-.85-1 .76zm1.16 1.08.4 1.45 2.61-.7-1.99-1.85zm-.18.05-1.25-.83-1.33 1.99 1.24.83 1.25.84 1.33-2zm-1.34 2 1.17-.96-1.44-1.76-1.17.95-1.16.95 1.44 1.76zm-1.44-1.77.9 1.2 1.8-1.36-.9-1.2-.9-1.2-1.8 1.37zm1.8-1.36-1.02 1.1 1.16 1.08 1.02-1.1 1.02-1.1-1.15-1.08zm1.16 1.08-.38-1.45-.2.05.4 1.45.38 1.45.2-.05z"/></g><defs><clipPath id="a"><path fill="#fff" d="M0 0h120v120H0z"/></clipPath></defs></svg>