<svg width="120" height="120" viewBox="0 0 120 120" fill="none" xmlns="http://www.w3.org/2000/svg">
<path d="M66.675 69.7415L67.2501 68.3562L67.1328 68.3074L67.0089 68.2791L66.675 69.7415ZM68.9836 70.7L68.4084 72.0853L68.4971 72.1221L68.5897 72.1473L68.9836 70.7ZM71.5376 71.3951L71.1437 72.8425L71.2746 72.8781L71.4097 72.8896L71.5376 71.3951ZM74.1763 71.6208L74.3783 70.1345L74.3413 70.1295L74.3041 70.1263L74.1763 71.6208ZM76.7897 71.976L77.1259 70.5142L77.0593 70.4989L76.9917 70.4897L76.7897 71.976ZM79.3632 72.5678L80.4536 71.5377L80.1418 71.2077L79.6994 71.106L79.3632 72.5678ZM81.1308 74.4388L82.3659 73.5876L82.3004 73.4926L82.2211 73.4086L81.1308 74.4388ZM82.6326 76.6182L83.9464 75.8944L83.9103 75.8288L83.8678 75.7671L82.6326 76.6182ZM83.9071 78.9314L85.2803 78.3279L85.2533 78.2664L85.2209 78.2076L83.9071 78.9314ZM84.9766 81.3652L83.6034 81.9687L83.6887 82.1627L83.8244 82.3256L84.9766 81.3652ZM86.6896 83.4203L88.0206 82.7286L87.9458 82.5845L87.8418 82.4599L86.6896 83.4203ZM87.9087 85.7661L86.5777 86.4578L86.6188 86.5367L86.6688 86.6102L87.9087 85.7661ZM89.3976 87.953L90.7725 87.3533L90.7164 87.2247L90.6375 87.1088L89.3976 87.953ZM90.4608 90.3908L91.9273 90.0757L91.8958 89.9288L91.8357 89.7911L90.4608 90.3908ZM90.9921 92.8637L92.4691 93.1254L92.5204 92.836L92.4586 92.5486L90.9921 92.8637ZM90.5332 95.453L92.0063 95.7358L92.0083 95.7252L92.0102 95.7147L90.5332 95.453ZM90.0274 98.0878L91.3281 98.835L91.4532 98.6172L91.5005 98.3706L90.0274 98.0878ZM88.6961 100.406L87.3954 99.6584L87.239 99.9307L87.2049 100.243L88.6961 100.406ZM88.4051 103.072L89.8138 103.587L89.8764 103.416L89.8962 103.235L88.4051 103.072ZM87.495 105.56L86.0863 105.045L86.0457 105.156L86.023 105.272L87.495 105.56ZM86.9866 108.155L88.3724 108.73L88.4298 108.591L88.4586 108.444L86.9866 108.155ZM85.9659 110.619L84.5801 110.045L84.4911 110.26L84.4713 110.492L85.9659 110.619ZM85.7379 113.295L87.137 113.836L87.2143 113.636L87.2325 113.423L85.7379 113.295ZM84.7794 115.775L85.4505 117.116L85.9694 116.857L86.1786 116.316L84.7794 115.775ZM82.7036 116.813L82.345 118.27L82.881 118.402L83.3746 118.155L82.7036 116.813ZM80.2449 116.208L80.6035 114.751L80.4286 114.708L80.2484 114.708L80.2449 116.208ZM77.598 116.202L77.6015 114.702L77.5483 114.702L77.4951 114.705L77.598 116.202ZM74.9659 116.383L74.8457 117.878L74.9572 117.887L75.0688 117.879L74.9659 116.383ZM72.3336 116.171L72.0555 117.645L72.1339 117.66L72.2133 117.666L72.3336 116.171ZM69.7159 115.677L69.9939 114.203L69.7305 114.154L69.4662 114.198L69.7159 115.677ZM67.0812 116.122L67.0983 117.622L67.2154 117.621L67.3309 117.601L67.0812 116.122ZM64.4393 116.152L64.3296 117.648L64.3929 117.653L64.4564 117.652L64.4393 116.152ZM61.7868 115.958L61.8965 114.462L61.7841 114.453L61.6717 114.462L61.7868 115.958ZM59.1738 116.159L59.0687 117.655L59.1789 117.663L59.2889 117.654L59.1738 116.159ZM56.5615 115.975L56.6666 114.479L56.5822 114.473L56.4978 114.477L56.5615 115.975ZM53.943 116.087L53.8793 114.588L53.8005 114.591L53.7226 114.603L53.943 116.087ZM51.3087 116.478L50.9785 117.941L51.2519 118.003L51.5292 117.962L51.3087 116.478ZM48.6977 115.889L49.0279 114.425L48.8414 114.383L48.6503 114.389L48.6977 115.889ZM46.0575 115.972L46.01 114.473L45.9167 114.476L45.8244 114.49L46.0575 115.972ZM43.4163 116.388L43.4162 117.888L43.5335 117.888L43.6494 117.869L43.4163 116.388ZM40.7753 116.388L40.5608 117.872L40.6674 117.888L40.7752 117.888L40.7753 116.388ZM38.1344 116.006L38.3488 114.521L38.2014 114.5L38.0526 114.508L38.1344 116.006ZM35.4907 116.15L35.4814 117.65L35.527 117.651L35.5725 117.648L35.4907 116.15ZM32.8525 116.134L32.7896 117.633L32.8164 117.634L32.8432 117.634L32.8525 116.134ZM30.2149 116.024L30.2777 114.525L30.247 114.524L30.2163 114.524L30.2149 116.024ZM27.574 116.021L27.5223 117.52L27.5474 117.521L27.5725 117.521L27.574 116.021ZM24.9421 115.93L24.9938 114.431L24.7891 114.424L24.59 114.472L24.9421 115.93ZM22.3486 116.557L21.9872 118.012L22.3437 118.101L22.7007 118.015L22.3486 116.557ZM20.6175 116.127L19.4089 115.238L18.0825 117.043L20.256 117.583L20.6175 116.127ZM66.5775 69.7192L66.2435 71.1816L66.341 71.2039L66.675 69.7415L67.0089 68.2791L66.9114 68.2569L66.5775 69.7192ZM66.675 69.7415L66.0998 71.1268L68.4084 72.0853L68.9836 70.7L69.5588 69.3146L67.2501 68.3562L66.675 69.7415ZM68.9836 70.7L68.5897 72.1473L71.1437 72.8425L71.5376 71.3951L71.9315 69.9477L69.3775 69.2526L68.9836 70.7ZM71.5376 71.3951L71.4097 72.8896L74.0484 73.1154L74.1763 71.6208L74.3041 70.1263L71.6655 69.9006L71.5376 71.3951ZM74.1763 71.6208L73.9743 73.1072L76.5877 73.4624L76.7897 71.976L76.9917 70.4897L74.3783 70.1345L74.1763 71.6208ZM76.7897 71.976L76.4535 73.4379L79.027 74.0297L79.3632 72.5678L79.6994 71.106L77.1259 70.5142L76.7897 71.976ZM79.3632 72.5678L78.2729 73.5979L80.0404 75.4689L81.1308 74.4388L82.2211 73.4086L80.4536 71.5377L79.3632 72.5678ZM81.1308 74.4388L79.8956 75.2899L81.3975 77.4693L82.6326 76.6182L83.8678 75.7671L82.3659 73.5876L81.1308 74.4388ZM82.6326 76.6182L81.3188 77.342L82.5932 79.6552L83.9071 78.9314L85.2209 78.2076L83.9464 75.8944L82.6326 76.6182ZM83.9071 78.9314L82.5338 79.5349L83.6034 81.9687L84.9766 81.3652L86.3499 80.7617L85.2803 78.3279L83.9071 78.9314ZM84.9766 81.3652L83.8244 82.3256L85.5374 84.3807L86.6896 83.4203L87.8418 82.4599L86.1289 80.4048L84.9766 81.3652ZM86.6896 83.4203L85.3586 84.112L86.5777 86.4578L87.9087 85.7661L89.2397 85.0744L88.0206 82.7286L86.6896 83.4203ZM87.9087 85.7661L86.6688 86.6102L88.1577 88.7971L89.3976 87.953L90.6375 87.1088L89.1487 84.9219L87.9087 85.7661ZM89.3976 87.953L88.0227 88.5526L89.0859 90.9904L90.4608 90.3908L91.8357 89.7911L90.7725 87.3533L89.3976 87.953ZM90.4608 90.3908L88.9943 90.7058L89.5255 93.1787L90.9921 92.8637L92.4586 92.5486L91.9273 90.0757L90.4608 90.3908ZM90.9921 92.8637L89.5151 92.6019L89.0562 95.1912L90.5332 95.453L92.0102 95.7147L92.4691 93.1254L90.9921 92.8637ZM90.5332 95.453L89.0601 95.1702L88.5543 97.8051L90.0274 98.0878L91.5005 98.3706L92.0063 95.7358L90.5332 95.453ZM90.0274 98.0878L88.7267 97.3407L87.3954 99.6584L88.6961 100.406L89.9968 101.153L91.3281 98.835L90.0274 98.0878ZM88.6961 100.406L87.2049 100.243L86.9139 102.909L88.4051 103.072L89.8962 103.235L90.1872 100.568L88.6961 100.406ZM88.4051 103.072L86.9963 102.557L86.0863 105.045L87.495 105.56L88.9038 106.076L89.8138 103.587L88.4051 103.072ZM87.495 105.56L86.023 105.272L85.5146 107.867L86.9866 108.155L88.4586 108.444L88.967 105.849L87.495 105.56ZM86.9866 108.155L85.6008 107.581L84.5801 110.045L85.9659 110.619L87.3517 111.193L88.3724 108.73L86.9866 108.155ZM85.9659 110.619L84.4713 110.492L84.2433 113.168L85.7379 113.295L87.2325 113.423L87.4605 110.747L85.9659 110.619ZM85.7379 113.295L84.3387 112.754L83.3803 115.234L84.7794 115.775L86.1786 116.316L87.137 113.836L85.7379 113.295ZM84.7794 115.775L84.1084 114.433L82.0325 115.472L82.7036 116.813L83.3746 118.155L85.4505 117.116L84.7794 115.775ZM82.7036 116.813L83.0622 115.357L80.6035 114.751L80.2449 116.208L79.8863 117.665L82.345 118.27L82.7036 116.813ZM80.2449 116.208L80.2484 114.708L77.6015 114.702L77.598 116.202L77.5945 117.702L80.2414 117.708L80.2449 116.208ZM77.598 116.202L77.4951 114.705L74.863 114.886L74.9659 116.383L75.0688 117.879L77.701 117.698L77.598 116.202ZM74.9659 116.383L75.0862 114.888L72.4538 114.676L72.3336 116.171L72.2133 117.666L74.8457 117.878L74.9659 116.383ZM72.3336 116.171L72.6116 114.697L69.9939 114.203L69.7159 115.677L69.4378 117.151L72.0555 117.645L72.3336 116.171ZM69.7159 115.677L69.4662 114.198L66.8315 114.643L67.0812 116.122L67.3309 117.601L69.9655 117.156L69.7159 115.677ZM67.0812 116.122L67.0642 114.622L64.4223 114.652L64.4393 116.152L64.4564 117.652L67.0983 117.622L67.0812 116.122ZM64.4393 116.152L64.5491 114.656L61.8965 114.462L61.7868 115.958L61.677 117.454L64.3296 117.648L64.4393 116.152ZM61.7868 115.958L61.6717 114.462L59.0587 114.663L59.1738 116.159L59.2889 117.654L61.9019 117.453L61.7868 115.958ZM59.1738 116.159L59.2789 114.662L56.6666 114.479L56.5615 115.975L56.4564 117.472L59.0687 117.655L59.1738 116.159ZM56.5615 115.975L56.4978 114.477L53.8793 114.588L53.943 116.087L54.0067 117.585L56.6252 117.474L56.5615 115.975ZM53.943 116.087L53.7226 114.603L51.0883 114.994L51.3087 116.478L51.5292 117.962L54.1634 117.57L53.943 116.087ZM51.3087 116.478L51.6389 115.015L49.0279 114.425L48.6977 115.889L48.3675 117.352L50.9785 117.941L51.3087 116.478ZM48.6977 115.889L48.6503 114.389L46.01 114.473L46.0575 115.972L46.105 117.471L48.7452 117.388L48.6977 115.889ZM46.0575 115.972L45.8244 114.49L43.1832 114.906L43.4163 116.388L43.6494 117.869L46.2906 117.454L46.0575 115.972ZM43.4163 116.388L43.4164 114.888L40.7754 114.888L40.7753 116.388L40.7752 117.888L43.4162 117.888L43.4163 116.388ZM40.7753 116.388L40.9897 114.903L38.3488 114.521L38.1344 116.006L37.9199 117.491L40.5608 117.872L40.7753 116.388ZM38.1344 116.006L38.0526 114.508L35.4089 114.653L35.4907 116.15L35.5725 117.648L38.2162 117.504L38.1344 116.006ZM35.4907 116.15L35.5 114.65L32.8617 114.634L32.8525 116.134L32.8432 117.634L35.4814 117.65L35.4907 116.15ZM32.8525 116.134L32.9153 114.635L30.2777 114.525L30.2149 116.024L30.152 117.522L32.7896 117.633L32.8525 116.134ZM30.2149 116.024L30.2163 114.524L27.5754 114.521L27.574 116.021L27.5725 117.521L30.2135 117.524L30.2149 116.024ZM27.574 116.021L27.6256 114.522L24.9938 114.431L24.9421 115.93L24.8905 117.43L27.5223 117.52L27.574 116.021ZM24.9421 115.93L24.59 114.472L21.9966 115.099L22.3486 116.557L22.7007 118.015L25.2942 117.389L24.9421 115.93ZM22.3486 116.557L22.7101 115.101L20.979 114.671L20.6175 116.127L20.256 117.583L21.9872 118.012L22.3486 116.557ZM20.6175 116.127L21.8261 117.015L21.8414 116.994L20.6328 116.106L19.4242 115.218L19.4089 115.238L20.6175 116.127Z" fill="black"/>
<path d="M9.02336 88.0826L7.56484 88.4329L7.57978 88.4951L7.59995 88.5558L9.02336 88.0826ZM9.82692 90.4997L11.3215 90.3724L11.3064 90.1952L11.2503 90.0265L9.82692 90.4997ZM10.0524 93.1482L8.55783 93.2754L8.57325 93.4564L8.63143 93.6285L10.0524 93.1482ZM10.9031 95.6644L12.3428 95.2434L12.334 95.2135L12.3241 95.184L10.9031 95.6644ZM11.6445 98.2001L13.1251 97.9598L13.1102 97.8682L13.0842 97.7792L11.6445 98.2001ZM12.0688 100.815L10.5882 101.055L10.5944 101.093L10.6026 101.131L12.0688 100.815ZM12.6256 103.395L11.1593 103.711L11.1737 103.778L11.194 103.843L12.6256 103.395ZM13.3991 105.868L11.9675 106.316L12.0934 106.719L12.4107 106.997L13.3991 105.868ZM15.2982 107.532L14.3097 108.66L14.3477 108.693L14.3877 108.724L15.2982 107.532ZM17.4106 109.145L16.5002 110.337L16.6652 110.463L16.8582 110.54L17.4106 109.145ZM19.8979 110.131L20.7397 108.889L20.6034 108.797L20.4503 108.736L19.8979 110.131ZM22.0862 111.614L21.2445 112.856L21.3178 112.906L21.3965 112.946L22.0862 111.614ZM24.4354 112.831L25.3282 111.625L25.2318 111.554L25.1251 111.499L24.4354 112.831ZM26.5733 114.414L25.6805 115.62L26.0698 115.908L26.5542 115.914L26.5733 114.414ZM29.1703 114.448L29.1511 115.947L29.7352 115.955L30.1705 115.565L29.1703 114.448ZM31.0993 112.722L30.1866 111.531L30.1415 111.566L30.0991 111.604L31.0993 112.722ZM33.2204 111.095L32.6845 109.694L32.4808 109.772L32.3077 109.905L33.2204 111.095ZM35.7247 110.137L36.2606 111.538L36.5117 111.442L36.7137 111.265L35.7247 110.137ZM37.7395 108.37L37.0679 107.029L36.8955 107.115L36.7505 107.243L37.7395 108.37ZM40.1096 107.184L40.0945 105.684L39.748 105.687L39.4381 105.842L40.1096 107.184ZM42.6828 107.158L43.4963 105.897L43.118 105.653L42.6677 105.658L42.6828 107.158ZM44.9236 108.604L44.1101 109.864L44.3207 110L44.5641 110.06L44.9236 108.604ZM47.5304 109.248L48.2163 107.914L48.0603 107.833L47.8899 107.791L47.5304 109.248ZM49.8812 110.456L49.1953 111.79L49.2158 111.801L49.2366 111.811L49.8812 110.456ZM52.2657 111.591L51.6211 112.946L51.6451 112.957L51.6695 112.968L52.2657 111.591ZM54.6889 112.641L55.7017 111.534L55.516 111.364L55.285 111.264L54.6889 112.641ZM56.5967 114.387L57.7484 113.426L57.6838 113.349L57.6095 113.281L56.5967 114.387ZM9 87.9854L7.54149 88.3357L7.56484 88.4329L9.02336 88.0826L10.4819 87.7322L10.4585 87.635L9 87.9854ZM9.02336 88.0826L7.59995 88.5558L8.40352 90.9729L9.82692 90.4997L11.2503 90.0265L10.4468 87.6094L9.02336 88.0826ZM9.82692 90.4997L8.33233 90.6269L8.55783 93.2754L10.0524 93.1482L11.547 93.0209L11.3215 90.3724L9.82692 90.4997ZM10.0524 93.1482L8.63143 93.6285L9.48207 96.1448L10.9031 95.6644L12.3241 95.184L11.4734 92.6678L10.0524 93.1482ZM10.9031 95.6644L9.46334 96.0853L10.2048 98.6211L11.6445 98.2001L13.0842 97.7792L12.3428 95.2434L10.9031 95.6644ZM11.6445 98.2001L10.1639 98.4404L10.5882 101.055L12.0688 100.815L13.5495 100.575L13.1251 97.9598L11.6445 98.2001ZM12.0688 100.815L10.6026 101.131L11.1593 103.711L12.6256 103.395L14.0918 103.078L13.5351 100.498L12.0688 100.815ZM12.6256 103.395L11.194 103.843L11.9675 106.316L13.3991 105.868L14.8307 105.421L14.0572 102.947L12.6256 103.395ZM13.3991 105.868L12.4107 106.997L14.3097 108.66L15.2982 107.532L16.2866 106.404L14.3876 104.74L13.3991 105.868ZM15.2982 107.532L14.3877 108.724L16.5002 110.337L17.4106 109.145L18.3211 107.953L16.2086 106.34L15.2982 107.532ZM17.4106 109.145L16.8582 110.54L19.3454 111.525L19.8979 110.131L20.4503 108.736L17.9631 107.751L17.4106 109.145ZM19.8979 110.131L19.0561 111.372L21.2445 112.856L22.0862 111.614L22.928 110.373L20.7397 108.889L19.8979 110.131ZM22.0862 111.614L21.3965 112.946L23.7457 114.163L24.4354 112.831L25.1251 111.499L22.776 110.282L22.0862 111.614ZM24.4354 112.831L23.5426 114.036L25.6805 115.62L26.5733 114.414L27.4662 113.209L25.3282 111.625L24.4354 112.831ZM26.5733 114.414L26.5542 115.914L29.1511 115.947L29.1703 114.448L29.1895 112.948L26.5925 112.914L26.5733 114.414ZM29.1703 114.448L30.1705 115.565L32.0995 113.839L31.0993 112.722L30.0991 111.604L28.1701 113.33L29.1703 114.448ZM31.0993 112.722L32.012 113.912L34.1331 112.286L33.2204 111.095L32.3077 109.905L30.1866 111.531L31.0993 112.722ZM33.2204 111.095L33.7563 112.496L36.2606 111.538L35.7247 110.137L35.1888 108.736L32.6845 109.694L33.2204 111.095ZM35.7247 110.137L36.7137 111.265L38.7285 109.498L37.7395 108.37L36.7505 107.243L34.7357 109.009L35.7247 110.137ZM37.7395 108.37L38.4111 109.712L40.7812 108.525L40.1096 107.184L39.4381 105.842L37.0679 107.029L37.7395 108.37ZM40.1096 107.184L40.1247 108.684L42.6979 108.658L42.6828 107.158L42.6677 105.658L40.0945 105.684L40.1096 107.184ZM42.6828 107.158L41.8693 108.418L44.1101 109.864L44.9236 108.604L45.7371 107.344L43.4963 105.897L42.6828 107.158ZM44.9236 108.604L44.5641 110.06L47.1709 110.704L47.5304 109.248L47.8899 107.791L45.283 107.148L44.9236 108.604ZM47.5304 109.248L46.8445 110.582L49.1953 111.79L49.8812 110.456L50.5671 109.122L48.2163 107.914L47.5304 109.248ZM49.8812 110.456L49.2366 111.811L51.6211 112.946L52.2657 111.591L52.9102 110.237L50.5257 109.102L49.8812 110.456ZM52.2657 111.591L51.6695 112.968L54.0927 114.017L54.6889 112.641L55.285 111.264L52.8618 110.215L52.2657 111.591ZM54.6889 112.641L53.6761 113.747L55.5839 115.493L56.5967 114.387L57.6095 113.281L55.7017 111.534L54.6889 112.641ZM56.5967 114.387L55.4451 115.348L56.129 116.168L57.2806 115.207L58.4322 114.245L57.7484 113.426L56.5967 114.387Z" fill="black"/>
<path d="M95.7873 42.0414L94.6249 42.9894L94.6945 43.0747L94.7758 43.1489L95.7873 42.0414ZM97.6638 43.7551L98.8991 42.9042L98.8019 42.7631L98.6753 42.6475L97.6638 43.7551ZM99.1689 45.9402L97.9336 46.7911L98.0002 46.8878L98.0811 46.973L99.1689 45.9402ZM100.997 47.8661L102.175 46.9377L102.133 46.8834L102.085 46.8334L100.997 47.8661ZM102.636 49.9452L103.939 49.2028L103.884 49.1051L103.814 49.0167L102.636 49.9452ZM103.948 52.2488L102.644 52.9912L102.66 53.0188L102.677 53.0458L103.948 52.2488ZM105.35 54.4846L104.079 55.2816L104.096 55.3081L104.114 55.3339L105.35 54.4846ZM106.851 56.6689L108.191 55.9962L108.145 55.9043L108.087 55.8195L106.851 56.6689ZM108.038 59.0352L109.456 58.547L109.424 58.4521L109.379 58.3625L108.038 59.0352ZM108.903 61.5469L107.484 62.0352L107.54 62.1961L107.63 62.3405L108.903 61.5469ZM110.319 63.8182L111.765 63.4191L111.707 63.2093L111.592 63.0247L110.319 63.8182ZM111.025 66.3764L109.579 66.7755L109.581 66.7838L109.584 66.7921L111.025 66.3764ZM111.765 68.9409L113.26 69.0554L113.281 68.7854L113.206 68.5252L111.765 68.9409ZM111.561 71.5985L113.024 71.9319L113.048 71.8237L113.057 71.713L111.561 71.5985ZM111.012 74.0062L110.327 75.3408L112.045 76.2223L112.475 74.3397L111.012 74.0062ZM95.7241 41.9639L94.5617 42.912L94.6249 42.9894L95.7873 42.0414L96.9497 41.0933L96.8865 41.0158L95.7241 41.9639ZM95.7873 42.0414L94.7758 43.1489L96.6522 44.8627L97.6638 43.7551L98.6753 42.6475L96.7989 40.9338L95.7873 42.0414ZM97.6638 43.7551L96.4285 44.606L97.9336 46.7911L99.1689 45.9402L100.404 45.0893L98.8991 42.9042L97.6638 43.7551ZM99.1689 45.9402L98.0811 46.973L99.9095 48.8989L100.997 47.8661L102.085 46.8334L100.257 44.9075L99.1689 45.9402ZM100.997 47.8661L99.8192 48.7946L101.458 50.8736L102.636 49.9452L103.814 49.0167L102.175 46.9377L100.997 47.8661ZM102.636 49.9452L101.332 50.6875L102.644 52.9912L103.948 52.2488L105.251 51.5064L103.939 49.2028L102.636 49.9452ZM103.948 52.2488L102.677 53.0458L104.079 55.2816L105.35 54.4846L106.621 53.6876L105.219 51.4518L103.948 52.2488ZM105.35 54.4846L104.114 55.3339L105.614 57.5182L106.851 56.6689L108.087 55.8195L106.587 53.6352L105.35 54.4846ZM106.851 56.6689L105.51 57.3416L106.697 59.7079L108.038 59.0352L109.379 58.3625L108.191 55.9962L106.851 56.6689ZM108.038 59.0352L106.62 59.5234L107.484 62.0352L108.903 61.5469L110.321 61.0587L109.456 58.547L108.038 59.0352ZM108.903 61.5469L107.63 62.3405L109.046 64.6118L110.319 63.8182L111.592 63.0247L110.175 60.7534L108.903 61.5469ZM110.319 63.8182L108.873 64.2174L109.579 66.7755L111.025 66.3764L112.471 65.9772L111.765 63.4191L110.319 63.8182ZM111.025 66.3764L109.584 66.7921L110.323 69.3566L111.765 68.9409L113.206 68.5252L112.466 65.9607L111.025 66.3764ZM111.765 68.9409L110.269 68.8264L110.065 71.484L111.561 71.5985L113.057 71.713L113.26 69.0554L111.765 68.9409ZM111.561 71.5985L110.099 71.2651L109.55 73.6728L111.012 74.0062L112.475 74.3397L113.024 71.9319L111.561 71.5985ZM111.012 74.0062L111.697 72.6716L111.685 72.6654L111 74L110.315 75.3346L110.327 75.3408L111.012 74.0062Z" fill="black"/>
<path d="M85.1039 49.7353L84.0427 48.6752L84.0194 48.6985L83.9973 48.7227L85.1039 49.7353ZM83.3876 51.611L84.3313 52.7769L84.4185 52.7064L84.4942 52.6236L83.3876 51.611ZM81.3243 53.2812L80.3805 52.1153L80.2627 52.2107L80.1663 52.3277L81.3243 53.2812ZM79.6382 55.3287L80.7412 56.3453L80.7695 56.3145L80.7961 56.2823L79.6382 55.3287ZM77.8477 57.2714L78.8255 58.4089L78.8916 58.3521L78.9507 58.288L77.8477 57.2714ZM75.8399 58.9975L74.862 57.8601L74.8182 57.8977L74.7774 57.9387L75.8399 58.9975ZM73.9763 60.8675L72.9138 59.8087L72.8719 59.8507L72.8335 59.896L73.9763 60.8675ZM72.2621 62.8838L73.3077 63.9593L73.3588 63.9096L73.4049 63.8554L72.2621 62.8838ZM70.369 64.7243L71.3212 65.8833L71.3697 65.8435L71.4146 65.7998L70.369 64.7243ZM68.3146 66.4122L67.3624 65.2532L67.1898 65.3949L67.0661 65.5808L68.3146 66.4122ZM66.8463 68.6173L67.535 69.9498L67.8798 69.7716L68.0949 69.4486L66.8463 68.6173ZM64.5038 69.8279L63.4565 70.9018L64.2311 71.6573L65.1925 71.1605L64.5038 69.8279ZM62.6156 67.9865L61.4285 68.9033L61.4929 68.9867L61.5683 69.0603L62.6156 67.9865ZM60.9925 65.8849L62.1796 64.968L62.0905 64.8526L61.9807 64.7565L60.9925 65.8849ZM59.0047 64.144L59.993 63.0156L59.9755 63.0003L59.9576 62.9855L59.0047 64.144ZM56.966 62.467L57.9189 61.3086L57.8882 61.2833L57.8562 61.2597L56.966 62.467ZM54.8397 60.8994L53.7051 61.8805L53.8147 62.0073L53.9496 62.1067L54.8397 60.8994ZM53.0866 58.8718L54.2213 57.8907L54.0454 57.6873L53.8098 57.5577L53.0866 58.8718ZM50.7381 57.5794L49.69 58.6525L49.836 58.7952L50.0149 58.8936L50.7381 57.5794ZM48.8405 55.7261L49.8886 54.653L49.8154 54.5815L49.7331 54.5206L48.8405 55.7261ZM46.7146 54.152L45.7044 55.2608L45.7608 55.3121L45.822 55.3575L46.7146 54.152ZM44.6992 52.3157L45.7094 51.2069L44.9064 50.4753L43.9608 51.01L44.6992 52.3157ZM42.3621 53.6373L42.8145 55.0674L42.964 55.0201L43.1004 54.943L42.3621 53.6373ZM39.8452 54.4336L39.3928 53.0034L39.3651 53.0122L39.3377 53.022L39.8452 54.4336ZM37.3602 55.327L36.8527 53.9155L36.8343 53.9221L36.816 53.9292L37.3602 55.327ZM34.8979 56.2857L35.1941 57.7562L35.3212 57.7305L35.4421 57.6835L34.8979 56.2857ZM32.2928 56.8106L31.9965 55.3401L31.8665 55.3663L31.7431 55.4149L32.2928 56.8106ZM29.8297 57.7806L29.28 56.3849L29.2766 56.3863L29.8297 57.7806ZM27.3852 58.7502L26.8322 57.3558L26.7346 57.3946L26.6433 57.4465L27.3852 58.7502ZM25.0561 60.0756L24.3143 58.7719L23.9308 58.9901L23.7265 59.3812L25.0561 60.0756ZM23.8151 62.452L25.1222 63.1879L25.1338 63.1673L25.1447 63.1463L23.8151 62.452ZM22.5224 64.7478L21.2153 64.0118L21.2099 64.0216L22.5224 64.7478ZM21.2424 67.061L19.93 66.3348L19.8824 66.4207L19.8465 66.5122L21.2424 67.061ZM20.2733 69.5257L21.625 70.176L21.649 70.1261L21.6693 70.0746L20.2733 69.5257ZM19.129 71.9045L20.3815 72.73L20.437 72.6457L20.4807 72.5548L19.129 71.9045ZM17.6624 74.13L16.4099 73.3045L16.2733 73.5118L16.2108 73.7519L17.6624 74.13ZM16.9862 76.7263L18.2215 77.5772L18.3713 77.3598L18.4378 77.1043L16.9862 76.7263ZM15.4793 78.914L16.7089 79.7732L16.7146 79.7649L15.4793 78.914ZM13.9865 81.0507L12.7569 80.1916L12.7223 80.2411L12.6918 80.2933L13.9865 81.0507ZM12.6423 83.3486L13.8775 84.1996L13.909 84.1539L13.937 84.106L12.6423 83.3486ZM11.1756 85.4775L12.3113 86.4574L12.3646 86.3956L12.4109 86.3285L11.1756 85.4775ZM9.5031 87.4159L8.36742 86.4359L8.14188 86.6973L8.05331 87.031L9.5031 87.4159ZM85.1746 49.6646L84.1133 48.6044L84.0427 48.6752L85.1039 49.7353L86.1651 50.7954L86.2358 50.7247L85.1746 49.6646ZM85.1039 49.7353L83.9973 48.7227L82.2809 50.5984L83.3876 51.611L84.4942 52.6236L86.2105 50.7479L85.1039 49.7353ZM83.3876 51.611L82.4438 50.4451L80.3805 52.1153L81.3243 53.2812L82.268 54.4471L84.3313 52.7769L83.3876 51.611ZM81.3243 53.2812L80.1663 52.3277L78.4802 54.3752L79.6382 55.3287L80.7961 56.2823L82.4822 54.2347L81.3243 53.2812ZM79.6382 55.3287L78.5352 54.3122L76.7447 56.2549L77.8477 57.2714L78.9507 58.288L80.7412 56.3453L79.6382 55.3287ZM77.8477 57.2714L76.8698 56.134L74.862 57.8601L75.8399 58.9975L76.8177 60.135L78.8255 58.4089L77.8477 57.2714ZM75.8399 58.9975L74.7774 57.9387L72.9138 59.8087L73.9763 60.8675L75.0388 61.9264L76.9024 60.0564L75.8399 58.9975ZM73.9763 60.8675L72.8335 59.896L71.1193 61.9122L72.2621 62.8838L73.4049 63.8554L75.1191 61.8391L73.9763 60.8675ZM72.2621 62.8838L71.2165 61.8083L69.3234 63.6488L70.369 64.7243L71.4146 65.7998L73.3077 63.9593L72.2621 62.8838ZM70.369 64.7243L69.4168 63.5653L67.3624 65.2532L68.3146 66.4122L69.2669 67.5712L71.3212 65.8833L70.369 64.7243ZM68.3146 66.4122L67.0661 65.5808L65.5978 67.7859L66.8463 68.6173L68.0949 69.4486L69.5632 67.2435L68.3146 66.4122ZM66.8463 68.6173L66.1576 67.2847L63.8151 68.4954L64.5038 69.8279L65.1925 71.1605L67.535 69.9498L66.8463 68.6173ZM64.5038 69.8279L65.5511 68.7541L63.6629 66.9126L62.6156 67.9865L61.5683 69.0603L63.4565 70.9018L64.5038 69.8279ZM62.6156 67.9865L63.8028 67.0696L62.1796 64.968L60.9925 65.8849L59.8053 66.8018L61.4285 68.9033L62.6156 67.9865ZM60.9925 65.8849L61.9807 64.7565L59.993 63.0156L59.0047 64.144L58.0164 65.2724L60.0042 67.0133L60.9925 65.8849ZM59.0047 64.144L59.9576 62.9855L57.9189 61.3086L56.966 62.467L56.0131 63.6255L58.0518 65.3024L59.0047 64.144ZM56.966 62.467L57.8562 61.2597L55.7299 59.692L54.8397 60.8994L53.9496 62.1067L56.0759 63.6744L56.966 62.467ZM54.8397 60.8994L55.9744 59.9183L54.2213 57.8907L53.0866 58.8718L51.952 59.8529L53.7051 61.8805L54.8397 60.8994ZM53.0866 58.8718L53.8098 57.5577L51.4613 56.2653L50.7381 57.5794L50.0149 58.8936L52.3634 60.186L53.0866 58.8718ZM50.7381 57.5794L51.7862 56.5063L49.8886 54.653L48.8405 55.7261L47.7924 56.7992L49.69 58.6525L50.7381 57.5794ZM48.8405 55.7261L49.7331 54.5206L47.6072 52.9465L46.7146 54.152L45.822 55.3575L47.9479 56.9316L48.8405 55.7261ZM46.7146 54.152L47.7249 53.0432L45.7094 51.2069L44.6992 52.3157L43.689 53.4245L45.7044 55.2608L46.7146 54.152ZM44.6992 52.3157L43.9608 51.01L41.6237 52.3316L42.3621 53.6373L43.1004 54.943L45.4376 53.6214L44.6992 52.3157ZM42.3621 53.6373L41.9096 52.2072L39.3928 53.0034L39.8452 54.4336L40.2977 55.8637L42.8145 55.0674L42.3621 53.6373ZM39.8452 54.4336L39.3377 53.022L36.8527 53.9155L37.3602 55.327L37.8677 56.7385L40.3527 55.8451L39.8452 54.4336ZM37.3602 55.327L36.816 53.9292L34.3536 54.8879L34.8979 56.2857L35.4421 57.6835L37.9044 56.7248L37.3602 55.327ZM34.8979 56.2857L34.6016 54.8153L31.9965 55.3401L32.2928 56.8106L32.589 58.281L35.1941 57.7562L34.8979 56.2857ZM32.2928 56.8106L31.7431 55.4149L29.28 56.385L29.8297 57.7806L30.3793 59.1763L32.8424 58.2063L32.2928 56.8106ZM29.8297 57.7806L29.2766 56.3863L26.8322 57.3558L27.3852 58.7502L27.9382 60.1445L30.3827 59.1749L29.8297 57.7806ZM27.3852 58.7502L26.6433 57.4465L24.3143 58.7719L25.0561 60.0756L25.798 61.3793L28.1271 60.0539L27.3852 58.7502ZM25.0561 60.0756L23.7265 59.3812L22.4855 61.7576L23.8151 62.452L25.1447 63.1463L26.3857 60.7699L25.0561 60.0756ZM23.8151 62.452L22.508 61.716L21.2154 64.0119L22.5224 64.7478L23.8295 65.4837L25.1222 63.1879L23.8151 62.452ZM22.5224 64.7478L21.2099 64.0216L19.93 66.3348L21.2424 67.061L22.5549 67.7873L23.8349 65.474L22.5224 64.7478ZM21.2424 67.061L19.8465 66.5122L18.8774 68.9769L20.2733 69.5257L21.6693 70.0746L22.6384 67.6099L21.2424 67.061ZM20.2733 69.5257L18.9216 68.8755L17.7773 71.2543L19.129 71.9045L20.4807 72.5548L21.625 70.176L20.2733 69.5257ZM19.129 71.9045L17.8765 71.0791L16.4099 73.3045L17.6624 74.13L18.9148 74.9554L20.3815 72.73L19.129 71.9045ZM17.6624 74.13L16.2108 73.7519L15.5346 76.3483L16.9862 76.7263L18.4378 77.1043L19.1139 74.508L17.6624 74.13ZM16.9862 76.7263L15.7509 75.8754L14.244 78.0631L15.4793 78.914L16.7146 79.7649L18.2215 77.5772L16.9862 76.7263ZM15.4793 78.914L14.2496 78.055L12.7569 80.1916L13.9865 81.0507L15.2161 81.9098L16.7089 79.7731L15.4793 78.914ZM13.9865 81.0507L12.6918 80.2933L11.3475 82.5912L12.6423 83.3486L13.937 84.106L15.2812 81.8081L13.9865 81.0507ZM12.6423 83.3486L11.407 82.4976L9.94039 84.6265L11.1756 85.4775L12.4109 86.3285L13.8775 84.1996L12.6423 83.3486ZM11.1756 85.4775L10.04 84.4976L8.36742 86.4359L9.5031 87.4159L10.6388 88.3958L12.3113 86.4574L11.1756 85.4775ZM9.5031 87.4159L8.05331 87.031L7.90128 87.6037L9.35107 87.9885L10.8009 88.3734L10.9529 87.8007L9.5031 87.4159Z" fill="black"/>
<path d="M89.3595 49.1964L88.3175 50.2754L88.3541 50.3108L88.3931 50.3436L89.3595 49.1964ZM91.3043 50.8349L92.4401 49.855L92.3621 49.7646L92.2708 49.6877L91.3043 50.8349ZM93.0381 52.8445L91.9023 53.8243L91.9945 53.9311L92.105 54.0189L93.0381 52.8445ZM95.1144 54.494L96.1327 53.3927L96.0914 53.3545L96.0474 53.3196L95.1144 54.494ZM97.0565 56.2897L98.2187 55.3414L98.1521 55.2598L98.0748 55.1883L97.0565 56.2897ZM98.7318 58.343L97.5696 59.2913L97.5921 59.3189L97.6159 59.3454L98.7318 58.343ZM100.496 60.3065L99.3798 61.3089L99.4021 61.3337L99.4255 61.3575L100.496 60.3065ZM102.352 62.1966L103.553 61.2984L103.493 61.2176L103.422 61.1456L102.352 62.1966ZM103.936 64.3154L105.241 63.5763L105.195 63.4934L105.138 63.4172L103.936 64.3154ZM105.246 66.6277L103.94 67.3669L104.036 67.5361L104.172 67.6752L105.246 66.6277ZM107.115 68.5434L108.416 67.7979L108.321 67.6324L108.188 67.496L107.115 68.5434ZM108.432 70.8433L107.13 71.5889L107.227 71.7574L107.363 71.8958L108.432 70.8433ZM110.232 72.6715L109.163 73.724L109.201 73.7626L109.242 73.7984L110.232 72.6715ZM111.433 73.7268L110.443 74.8537L112.025 76.2436L112.822 74.2943L111.433 73.7268ZM89.2876 49.127L88.2455 50.2059L88.3175 50.2754L89.3595 49.1964L90.4016 48.1175L90.3297 48.048L89.2876 49.127ZM89.3595 49.1964L88.3931 50.3436L90.3379 51.982L91.3043 50.8349L92.2708 49.6877L90.326 48.0493L89.3595 49.1964ZM91.3043 50.8349L90.1686 51.8147L91.9023 53.8243L93.0381 52.8445L94.1738 51.8646L92.4401 49.855L91.3043 50.8349ZM93.0381 52.8445L92.105 54.0189L94.1813 55.6685L95.1144 54.494L96.0474 53.3196L93.9711 51.67L93.0381 52.8445ZM95.1144 54.494L94.096 55.5954L96.0382 57.3911L97.0565 56.2897L98.0748 55.1883L96.1327 53.3927L95.1144 54.494ZM97.0565 56.2897L95.8942 57.238L97.5696 59.2913L98.7318 58.343L99.894 57.3947L98.2187 55.3414L97.0565 56.2897ZM98.7318 58.343L97.6159 59.3454L99.3798 61.3089L100.496 60.3065L101.612 59.3041L99.8477 57.3406L98.7318 58.343ZM100.496 60.3065L99.4255 61.3575L101.282 63.2476L102.352 62.1966L103.422 61.1456L101.566 59.2555L100.496 60.3065ZM102.352 62.1966L101.151 63.0949L102.735 65.2137L103.936 64.3154L105.138 63.4172L103.553 61.2984L102.352 62.1966ZM103.936 64.3154L102.631 65.0546L103.94 67.3669L105.246 66.6277L106.551 65.8886L105.241 63.5763L103.936 64.3154ZM105.246 66.6277L104.172 67.6752L106.041 69.5909L107.115 68.5434L108.188 67.496L106.319 65.5803L105.246 66.6277ZM107.115 68.5434L105.813 69.289L107.13 71.5889L108.432 70.8433L109.734 70.0978L108.416 67.7979L107.115 68.5434ZM108.432 70.8433L107.363 71.8958L109.163 73.724L110.232 72.6715L111.301 71.6191L109.501 69.7909L108.432 70.8433ZM110.232 72.6715L109.242 73.7984L110.443 74.8537L111.433 73.7268L112.423 72.6L111.222 71.5447L110.232 72.6715ZM111.433 73.7268L112.822 74.2943L112.849 74.2268L111.461 73.6593L110.072 73.0918L110.045 73.1593L111.433 73.7268Z" fill="black"/>
<path d="M85.1097 32.906L83.9645 31.9372L83.9551 31.9483L83.9459 31.9596L85.1097 32.906ZM83.5063 34.8775L84.5042 35.9974L84.5941 35.9173L84.67 35.8239L83.5063 34.8775ZM81.5277 36.6406L80.5298 35.5207L80.477 35.5677L80.4289 35.6195L81.5277 36.6406ZM79.7269 38.5785L80.8116 39.6146L80.8187 39.6071L80.8257 39.5995L79.7269 38.5785ZM78.006 40.3799L76.9214 39.3438L76.5068 39.7778L76.506 40.378L78.006 40.3799ZM78.0029 42.8662L76.5029 42.8643L76.5019 43.6901L77.1991 44.1326L78.0029 42.8662ZM80.1532 44.2309L80.9682 42.9716L80.957 42.9644L80.1532 44.2309ZM82.3835 45.6744L83.5217 44.6974L83.3805 44.5329L83.1985 44.4151L82.3835 45.6744ZM84.1151 47.6916L85.3446 46.8324L85.3019 46.7712L85.2533 46.7146L84.1151 47.6916ZM85.671 49.9181L84.4414 50.7773L84.9958 51.5706L85.947 51.3924L85.671 49.9181ZM87.8966 49.5013L88.1727 50.9757L88.5887 50.8978L88.9027 50.6139L87.8966 49.5013ZM89.8455 47.7389L90.8516 48.8514L90.9499 48.7625L91.0311 48.6578L89.8455 47.7389ZM91.465 45.6495L90.4903 44.5093L90.3735 44.6091L90.2794 44.7306L91.465 45.6495ZM93.4885 43.9198L94.4632 45.06L94.4999 45.0286L94.5346 44.9949L93.4885 43.9198ZM95.3781 42.0812L96.4242 43.1563L97.2931 42.3108L96.6487 41.2839L95.3781 42.0812ZM94.2115 40.2221L95.4821 39.4248L95.3736 39.252L95.223 39.1144L94.2115 40.2221ZM92.2667 38.4461L91.0758 39.3582L91.1568 39.4639L91.2552 39.5538L92.2667 38.4461ZM90.6379 36.3194L91.8288 35.4074L91.6408 35.1618L91.3709 35.0107L90.6379 36.3194ZM88.3007 35.0103L87.2949 36.1231L87.4202 36.2364L87.5677 36.319L88.3007 35.0103ZM86.3368 33.2354L87.3426 32.1226L87.2407 32.0305L87.1237 31.9584L86.3368 33.2354ZM84.0885 31.8502L83.1077 32.9852L83.199 33.064L83.3017 33.1273L84.0885 31.8502ZM82.0698 30.1056L83.0506 28.9707L82.8427 28.7911L82.5847 28.6968L82.0698 30.1056ZM79.5487 29.1841L78.7662 30.4638L78.8935 30.5417L79.0338 30.5929L79.5487 29.1841ZM77.2999 27.8089L78.0824 26.5292L78.0382 26.5021L77.9923 26.4782L77.2999 27.8089ZM74.9609 26.5917L75.6534 25.2611L75.6021 25.2344L75.5489 25.2118L74.9609 26.5917ZM72.5354 25.5583L71.8115 26.872L71.8778 26.9086L71.9474 26.9382L72.5354 25.5583ZM70.2038 24.2735L70.9277 22.9598L70.7598 22.8673L70.574 22.82L70.2038 24.2735ZM67.6314 23.6183L67.1983 25.0544L67.2295 25.0639L67.2612 25.0719L67.6314 23.6183ZM65.1055 22.8564L64.5554 24.2519L64.613 24.2747L64.6723 24.2925L65.1055 22.8564ZM62.633 21.8818L63.1831 20.4863L62.9848 20.4081L62.7726 20.3883L62.633 21.8818ZM59.9766 21.6336L59.7138 23.1104L59.7751 23.1213L59.8371 23.1271L59.9766 21.6336ZM57.3913 21.1735L57.6541 19.6967L57.4554 19.6614L57.2544 19.6798L57.3913 21.1735ZM54.7497 21.4158L54.6127 19.922L53.7518 20.001L53.3885 20.7855L54.7497 21.4158ZM53.9936 23.0489L52.6324 22.4187L51.9772 23.8339L53.4168 24.4336L53.9936 23.0489ZM56.3477 24.0294L57.0932 22.7278L57.0114 22.6809L56.9245 22.6447L56.3477 24.0294ZM58.6566 25.3518L57.9111 26.6534L58.0889 26.7552L58.2874 26.8057L58.6566 25.3518ZM61.2558 26.0118L62.1436 24.8027L61.9081 24.6298L61.625 24.5579L61.2558 26.0118ZM63.4122 27.5951L62.5245 28.8042L62.6128 28.8691L62.7097 28.9204L63.4122 27.5951ZM65.7389 28.8285L65.0363 30.1538L65.0902 30.1823L65.1462 30.2064L65.7389 28.8285ZM68.1937 29.8844L69.0498 28.6526L68.9255 28.5662L68.7864 28.5064L68.1937 29.8844ZM70.3705 31.3972L71.4451 30.3507L71.3447 30.2476L71.2266 30.1655L70.3705 31.3972ZM72.2334 33.3101L71.1588 34.3566L71.2353 34.4352L71.3225 34.5018L72.2334 33.3101ZM74.3313 34.9135L75.3726 33.8339L75.3106 33.7741L75.2422 33.7218L74.3313 34.9135ZM76.2328 36.7476L77.3865 35.789L77.3337 35.7254L77.2742 35.668L76.2328 36.7476ZM77.9178 38.7755L76.7641 39.7342L76.7857 39.7602L76.8085 39.7853L77.9178 38.7755ZM85.1742 32.8297L84.0291 31.8609L83.9645 31.9372L85.1097 32.906L86.2548 33.8748L86.3194 33.7985L85.1742 32.8297ZM85.1097 32.906L83.9459 31.9596L82.3426 33.931L83.5063 34.8775L84.67 35.8239L86.2734 33.8525L85.1097 32.906ZM83.5063 34.8775L82.5084 33.7576L80.5298 35.5207L81.5277 36.6406L82.5256 37.7605L84.5042 35.9974L83.5063 34.8775ZM81.5277 36.6406L80.4289 35.6195L78.6281 37.5574L79.7269 38.5785L80.8257 39.5995L82.6265 37.6616L81.5277 36.6406ZM79.7269 38.5785L78.6423 37.5423L76.9214 39.3438L78.006 40.3799L79.0907 41.416L80.8116 39.6146L79.7269 38.5785ZM78.006 40.3799L76.506 40.378L76.5029 42.8643L78.0029 42.8662L79.5029 42.8681L79.506 40.3818L78.006 40.3799ZM78.0029 42.8662L77.1991 44.1326L79.3494 45.4974L80.1532 44.2309L80.957 42.9644L78.8067 41.5997L78.0029 42.8662ZM80.1532 44.2309L79.3382 45.4902L81.5686 46.9336L82.3835 45.6744L83.1985 44.4151L80.9682 42.9716L80.1532 44.2309ZM82.3835 45.6744L81.2454 46.6514L82.9769 48.6686L84.1151 47.6916L85.2533 46.7146L83.5217 44.6974L82.3835 45.6744ZM84.1151 47.6916L82.8856 48.5508L84.4414 50.7773L85.671 49.9181L86.9005 49.0589L85.3446 46.8324L84.1151 47.6916ZM85.671 49.9181L85.947 51.3924L88.1727 50.9757L87.8966 49.5013L87.6205 48.0269L85.3949 48.4437L85.671 49.9181ZM87.8966 49.5013L88.9027 50.6139L90.8516 48.8514L89.8455 47.7389L88.8394 46.6263L86.8905 48.3888L87.8966 49.5013ZM89.8455 47.7389L91.0311 48.6578L92.6505 46.5684L91.465 45.6495L90.2794 44.7306L88.66 46.8199L89.8455 47.7389ZM91.465 45.6495L92.4396 46.7897L94.4632 45.06L93.4885 43.9198L92.5139 42.7796L90.4903 44.5093L91.465 45.6495ZM93.4885 43.9198L94.5346 44.9949L96.4242 43.1563L95.3781 42.0812L94.3321 41.0061L92.4425 42.8447L93.4885 43.9198ZM95.3781 42.0812L96.6487 41.2839L95.4821 39.4248L94.2115 40.2221L92.9409 41.0193L94.1075 42.8785L95.3781 42.0812ZM94.2115 40.2221L95.223 39.1144L93.2782 37.3385L92.2667 38.4461L91.2552 39.5538L93.2 41.3297L94.2115 40.2221ZM92.2667 38.4461L93.4576 37.5341L91.8288 35.4074L90.6379 36.3194L89.4471 37.2314L91.0758 39.3582L92.2667 38.4461ZM90.6379 36.3194L91.3709 35.0107L89.0337 33.7016L88.3007 35.0103L87.5677 36.319L89.9049 37.6281L90.6379 36.3194ZM88.3007 35.0103L89.3064 33.8974L87.3426 32.1226L86.3368 33.2354L85.3311 34.3483L87.2949 36.1231L88.3007 35.0103ZM86.3368 33.2354L87.1237 31.9584L84.8753 30.5732L84.0885 31.8502L83.3017 33.1273L85.55 34.5125L86.3368 33.2354ZM84.0885 31.8502L85.0693 30.7153L83.0506 28.9707L82.0698 30.1056L81.089 31.2406L83.1077 32.9852L84.0885 31.8502ZM82.0698 30.1056L82.5847 28.6968L80.0637 27.7753L79.5487 29.1841L79.0338 30.5929L81.5548 31.5145L82.0698 30.1056ZM79.5487 29.1841L80.3313 27.9044L78.0824 26.5292L77.2999 27.8089L76.5173 29.0885L78.7662 30.4638L79.5487 29.1841ZM77.2999 27.8089L77.9923 26.4782L75.6534 25.2611L74.9609 26.5917L74.2685 27.9224L76.6074 29.1395L77.2999 27.8089ZM74.9609 26.5917L75.5489 25.2118L73.1233 24.1783L72.5354 25.5583L71.9474 26.9382L74.373 27.9717L74.9609 26.5917ZM72.5354 25.5583L73.2593 24.2445L70.9277 22.9598L70.2038 24.2735L69.4799 25.5873L71.8115 26.872L72.5354 25.5583ZM70.2038 24.2735L70.574 22.82L68.0017 22.1648L67.6314 23.6183L67.2612 25.0719L69.8336 25.7271L70.2038 24.2735ZM67.6314 23.6183L68.0646 22.1822L65.5386 21.4204L65.1055 22.8564L64.6723 24.2925L67.1983 25.0544L67.6314 23.6183ZM65.1055 22.8564L65.6556 21.461L63.1831 20.4863L62.633 21.8818L62.0829 23.2773L64.5554 24.2519L65.1055 22.8564ZM62.633 21.8818L62.7726 20.3883L60.1162 20.1401L59.9766 21.6336L59.8371 23.1271L62.4934 23.3753L62.633 21.8818ZM59.9766 21.6336L60.2394 20.1568L57.6541 19.6967L57.3913 21.1735L57.1285 22.6503L59.7138 23.1104L59.9766 21.6336ZM57.3913 21.1735L57.2544 19.6798L54.6127 19.922L54.7497 21.4158L54.8867 22.9095L57.5283 22.6673L57.3913 21.1735ZM54.7497 21.4158L53.3885 20.7855L52.6324 22.4187L53.9936 23.0489L55.3548 23.6791L56.1109 22.046L54.7497 21.4158ZM53.9936 23.0489L53.4168 24.4336L55.771 25.4141L56.3477 24.0294L56.9245 22.6447L54.5703 21.6642L53.9936 23.0489ZM56.3477 24.0294L55.6022 25.331L57.9111 26.6534L58.6566 25.3518L59.4021 24.0502L57.0932 22.7278L56.3477 24.0294ZM58.6566 25.3518L58.2874 26.8057L60.8867 27.4657L61.2558 26.0118L61.625 24.5579L59.0258 23.8979L58.6566 25.3518ZM61.2558 26.0118L60.3681 27.2209L62.5245 28.8042L63.4122 27.5951L64.3 26.3861L62.1436 24.8027L61.2558 26.0118ZM63.4122 27.5951L62.7097 28.9204L65.0363 30.1538L65.7389 28.8285L66.4414 27.5032L64.1148 26.2698L63.4122 27.5951ZM65.7389 28.8285L65.1462 30.2064L67.6011 31.2623L68.1937 29.8844L68.7864 28.5064L66.3315 27.4505L65.7389 28.8285ZM68.1937 29.8844L67.3377 31.1161L69.5144 32.629L70.3705 31.3972L71.2266 30.1655L69.0498 28.6526L68.1937 29.8844ZM70.3705 31.3972L69.2959 32.4438L71.1588 34.3566L72.2334 33.3101L73.308 32.2635L71.4451 30.3507L70.3705 31.3972ZM72.2334 33.3101L71.3225 34.5018L73.4204 36.1053L74.3313 34.9135L75.2422 33.7218L73.1443 32.1183L72.2334 33.3101ZM74.3313 34.9135L73.2899 35.9932L75.1915 37.8273L76.2328 36.7476L77.2742 35.668L75.3726 33.8339L74.3313 34.9135ZM76.2328 36.7476L75.0791 37.7062L76.7641 39.7342L77.9178 38.7755L79.0715 37.8169L77.3865 35.789L76.2328 36.7476ZM77.9178 38.7755L76.8085 39.7853L77.267 40.2889L78.3762 39.2792L79.4855 38.2694L79.0271 37.7658L77.9178 38.7755Z" fill="black"/>
<path d="M26.2275 60.1288L25.0567 61.0665L25.0848 61.1016L25.1149 61.1349L26.2275 60.1288ZM27.9332 62.0151L29.1909 61.1978L29.1258 61.0976L29.0458 61.0091L27.9332 62.0151ZM29.3795 64.2408L28.1217 65.0582L28.2015 65.1809L28.3035 65.2859L29.3795 64.2408ZM31.2273 66.1433L32.3645 65.1652L32.3349 65.1308L32.3033 65.0983L31.2273 66.1433ZM32.9503 68.1467L34.3161 67.5265L34.2274 67.3312L34.0876 67.1686L32.9503 68.1467ZM34.0384 70.5426L35.5047 70.8586L35.6092 70.3738L35.4041 69.9223L34.0384 70.5426ZM33.4872 73.0999L34.9257 73.5248L34.9417 73.4709L34.9535 73.416L33.4872 73.0999ZM32.7367 75.6408L34.1142 76.2347L34.1498 76.152L34.1753 76.0656L32.7367 75.6408ZM31.6915 78.0649L33.0408 78.7201L33.0556 78.6898L33.069 78.6588L31.6915 78.0649ZM30.5278 80.4612L29.1785 79.806L29.0501 80.0702L29.031 80.3633L30.5278 80.4612ZM26.165 60.0508L24.9942 60.9884L25.0567 61.0665L26.2275 60.1288L27.3984 59.1912L27.3359 59.1131L26.165 60.0508ZM26.2275 60.1288L25.1149 61.1349L26.8206 63.0211L27.9332 62.0151L29.0458 61.0091L27.3402 59.1228L26.2275 60.1288ZM27.9332 62.0151L26.6754 62.8324L28.1217 65.0582L29.3795 64.2408L30.6373 63.4235L29.1909 61.1978L27.9332 62.0151ZM29.3795 64.2408L28.3035 65.2859L30.1513 67.1884L31.2273 66.1433L32.3033 65.0983L30.4555 63.1958L29.3795 64.2408ZM31.2273 66.1433L30.09 67.1214L31.8131 69.1248L32.9503 68.1467L34.0876 67.1686L32.3645 65.1652L31.2273 66.1433ZM32.9503 68.1467L31.5846 68.767L32.6726 71.1628L34.0384 70.5426L35.4041 69.9223L34.3161 67.5265L32.9503 68.1467ZM34.0384 70.5426L32.5721 70.2265L32.0209 72.7839L33.4872 73.0999L34.9535 73.416L35.5047 70.8586L34.0384 70.5426ZM33.4872 73.0999L32.0486 72.675L31.2982 75.2159L32.7367 75.6408L34.1753 76.0656L34.9257 73.5248L33.4872 73.0999ZM32.7367 75.6408L31.3593 75.0469L30.3141 77.471L31.6915 78.0649L33.069 78.6588L34.1142 76.2347L32.7367 75.6408ZM31.6915 78.0649L30.3422 77.4096L29.1785 79.806L30.5278 80.4612L31.8771 81.1165L33.0408 78.7201L31.6915 78.0649ZM30.5278 80.4612L29.031 80.3633L28.9604 81.4415L30.4572 81.5395L31.954 81.6374L32.0246 80.5592L30.5278 80.4612Z" fill="black"/>
<path d="M77.9511 43.6446L76.8887 42.5857L76.8441 42.6304L76.8035 42.6787L77.9511 43.6446ZM76.3126 45.5913L77.2649 46.7503L77.3715 46.6627L77.4603 46.5572L76.3126 45.5913ZM74.2621 47.2763L73.3098 46.1173L73.2043 46.204L73.1163 46.3082L74.2621 47.2763ZM72.5509 49.3018L73.6334 50.3401L73.6661 50.306L73.6967 50.2698L72.5509 49.3018ZM70.722 51.2084L71.6818 52.3611L71.7463 52.3074L71.8045 52.2467L70.722 51.2084ZM68.6877 52.9022L67.7279 51.7495L67.6807 51.7887L67.6369 51.8318L68.6877 52.9022ZM66.8037 54.7517L65.7529 53.6813L65.7098 53.7236L65.6702 53.7693L66.8037 54.7517ZM65.0704 56.7516L66.104 57.8387L66.1565 57.7888L66.204 57.734L65.0704 56.7516ZM63.1566 58.5711L64.0902 59.7452L64.1421 59.7039L64.1901 59.6582L63.1566 58.5711ZM61.0759 60.2257L60.1423 59.0516L59.9769 59.1831L59.8543 59.3551L61.0759 60.2257ZM59.5231 62.4044L60.3787 63.6364L60.5931 63.4876L60.7446 63.275L59.5231 62.4044ZM78.0217 43.5737L76.9593 42.5149L76.8887 42.5857L77.9511 43.6446L79.0136 44.7034L79.0842 44.6326L78.0217 43.5737ZM77.9511 43.6446L76.8035 42.6787L75.165 44.6254L76.3126 45.5913L77.4603 46.5572L79.0988 44.6105L77.9511 43.6446ZM76.3126 45.5913L75.3603 44.4324L73.3098 46.1173L74.2621 47.2763L75.2144 48.4352L77.2649 46.7503L76.3126 45.5913ZM74.2621 47.2763L73.1163 46.3082L71.4051 48.3337L72.5509 49.3018L73.6967 50.2698L75.4079 48.2443L74.2621 47.2763ZM72.5509 49.3018L71.4684 48.2634L69.6395 50.17L70.722 51.2084L71.8045 52.2467L73.6334 50.3401L72.5509 49.3018ZM70.722 51.2084L69.7622 50.0557L67.7279 51.7495L68.6877 52.9022L69.6475 54.0549L71.6818 52.3611L70.722 51.2084ZM68.6877 52.9022L67.6369 51.8318L65.7529 53.6813L66.8037 54.7517L67.8546 55.8221L69.7386 53.9726L68.6877 52.9022ZM66.8037 54.7517L65.6702 53.7693L63.9369 55.7692L65.0704 56.7516L66.204 57.734L67.9373 55.7341L66.8037 54.7517ZM65.0704 56.7516L64.0369 55.6645L62.1231 57.484L63.1566 58.5711L64.1901 59.6582L66.104 57.8387L65.0704 56.7516ZM63.1566 58.5711L62.223 57.3971L60.1423 59.0516L61.0759 60.2257L62.0094 61.3997L64.0902 59.7452L63.1566 58.5711ZM61.0759 60.2257L59.8543 59.3551L58.3015 61.5338L59.5231 62.4044L60.7446 63.275L62.2974 61.0962L61.0759 60.2257ZM59.5231 62.4044L58.6674 61.1724L57.6742 61.8622L58.5298 63.0942L59.3854 64.3263L60.3787 63.6364L59.5231 62.4044Z" fill="black"/>
<path d="M47.1892 94.3731L46.2444 95.5382L46.2571 95.5484L46.27 95.5584L47.1892 94.3731ZM45.2173 92.7739L44.1663 93.8441L44.2171 93.8941L44.2725 93.939L45.2173 92.7739ZM43.3229 90.9135L44.374 89.8433L44.2481 89.7197L44.0971 89.6287L43.3229 90.9135ZM41.0499 89.544L40.2224 90.795L40.2488 90.8125L40.2758 90.8288L41.0499 89.544ZM38.8467 88.0866L37.8735 89.2281L37.943 89.2873L38.0192 89.3377L38.8467 88.0866ZM36.8312 86.368L37.8044 85.2266L37.7746 85.2012L37.7435 85.1774L36.8312 86.368ZM34.7361 84.7626L35.6485 83.572L35.6218 83.5515L35.5941 83.5322L34.7361 84.7626ZM32.5724 83.2539L33.4304 82.0235L33.3056 81.9365L33.1659 81.8763L32.5724 83.2539ZM30.2434 82.2505L30.8369 80.8729L30.5195 80.7362L30.1743 80.7521L30.2434 82.2505ZM27.5931 82.3728L27.524 80.8744L27.1767 80.8904L26.8719 81.0576L27.5931 82.3728ZM25.2423 83.6619L25.6141 85.1151L25.7975 85.0682L25.9635 84.9771L25.2423 83.6619ZM22.6768 84.3183L22.305 82.8651L22.2349 82.883L22.1669 82.9076L22.6768 84.3183ZM20.1868 85.2183L20.4171 86.7005L20.5603 86.6783L20.6967 86.629L20.1868 85.2183ZM17.5585 85.6266L17.3283 84.1443L17.2067 84.1632L17.0898 84.2017L17.5585 85.6266ZM15.049 86.452L15.4501 87.8974L15.4841 87.8879L15.5176 87.8769L15.049 86.452ZM12.4908 87.1619L12.348 88.6551L12.6243 88.6815L12.8919 88.6073L12.4908 87.1619ZM10.7275 86.9933L9.266 86.6555L8.88052 88.3235L10.5847 88.4865L10.7275 86.9933ZM47.2682 94.4344L48.1875 93.2491L48.1085 93.1878L47.1892 94.3731L46.27 95.5584L46.349 95.6197L47.2682 94.4344ZM47.1892 94.3731L48.134 93.2081L46.1621 91.6089L45.2173 92.7739L44.2725 93.939L46.2444 95.5382L47.1892 94.3731ZM45.2173 92.7739L46.2683 91.7037L44.374 89.8433L43.3229 90.9135L42.2719 91.9837L44.1663 93.8441L45.2173 92.7739ZM43.3229 90.9135L44.0971 89.6287L41.8241 88.2592L41.0499 89.544L40.2758 90.8288L42.5488 92.1983L43.3229 90.9135ZM41.0499 89.544L41.8775 88.2929L39.6743 86.8356L38.8467 88.0866L38.0192 89.3377L40.2224 90.795L41.0499 89.544ZM38.8467 88.0866L39.82 86.9452L37.8044 85.2266L36.8312 86.368L35.8579 87.5095L37.8735 89.2281L38.8467 88.0866ZM36.8312 86.368L37.7435 85.1774L35.6485 83.572L34.7361 84.7626L33.8238 85.9532L35.9188 87.5587L36.8312 86.368ZM34.7361 84.7626L35.5941 83.5322L33.4304 82.0235L32.5724 83.2539L31.7145 84.4843L33.8782 85.993L34.7361 84.7626ZM32.5724 83.2539L33.1659 81.8763L30.8369 80.8729L30.2434 82.2505L29.6499 83.6281L31.979 84.6315L32.5724 83.2539ZM30.2434 82.2505L30.1743 80.7521L27.524 80.8744L27.5931 82.3728L27.6623 83.8712L30.3125 83.7489L30.2434 82.2505ZM27.5931 82.3728L26.8719 81.0576L24.5211 82.3467L25.2423 83.6619L25.9635 84.9771L28.3144 83.688L27.5931 82.3728ZM25.2423 83.6619L24.8705 82.2087L22.305 82.8651L22.6768 84.3183L23.0486 85.7715L25.6141 85.1151L25.2423 83.6619ZM22.6768 84.3183L22.1669 82.9076L19.6769 83.8076L20.1868 85.2183L20.6967 86.629L23.1867 85.729L22.6768 84.3183ZM20.1868 85.2183L19.9566 83.7361L17.3283 84.1443L17.5585 85.6266L17.7887 87.1088L20.4171 86.7005L20.1868 85.2183ZM17.5585 85.6266L17.0898 84.2017L14.5803 85.0271L15.049 86.452L15.5176 87.8769L18.0272 87.0515L17.5585 85.6266ZM15.049 86.452L14.6478 85.0066L12.0897 85.7165L12.4908 87.1619L12.8919 88.6073L15.4501 87.8974L15.049 86.452ZM12.4908 87.1619L12.6336 85.6687L10.8703 85.5001L10.7275 86.9933L10.5847 88.4865L12.348 88.6551L12.4908 87.1619ZM10.7275 86.9933L12.189 87.331L12.2481 87.0751L10.7866 86.7373L9.32514 86.3996L9.266 86.6555L10.7275 86.9933Z" fill="black"/>
<path d="M90.2694 93.757L90.6638 95.2042L90.7628 95.1772L90.8571 95.137L90.2694 93.757ZM87.8698 94.4109L87.4754 92.9637L87.4062 92.9825L87.3391 93.0079L87.8698 94.4109ZM85.3872 95.3499L84.8566 93.9469L84.7243 93.997L84.6036 94.0709L85.3872 95.3499ZM83.126 96.7353L83.8207 98.0647L83.866 98.041L83.9096 98.0143L83.126 96.7353ZM80.783 97.9595L81.303 99.3665L81.3927 99.3333L81.4776 99.2889L80.783 97.9595ZM78.2984 98.8777L77.7784 97.4707L77.7316 97.488L77.6861 97.5084L78.2984 98.8777ZM75.8885 99.9555L75.2762 98.5861L75.2285 98.6074L75.1825 98.632L75.8885 99.9555ZM73.553 101.201L74.1717 102.568L74.2161 102.548L74.259 102.525L73.553 101.201ZM71.2002 102.267L70.5815 100.9L70.2846 101.035L70.0703 101.28L71.2002 102.267ZM69.4597 104.26L68.3298 103.274L68.198 103.425L68.1104 103.605L69.4597 104.26ZM68.291 106.666L69.4649 107.6L69.5679 107.471L69.6403 107.322L68.291 106.666ZM66.6453 108.735L65.4714 107.801L65.4114 107.877L65.3615 107.959L66.6453 108.735ZM65.2786 110.997L66.4216 111.968L66.4999 111.876L66.5624 111.772L65.2786 110.997ZM63.5565 113.023L62.4136 112.051L62.223 112.276L62.1313 112.555L63.5565 113.023ZM62.839 115.209L62.5195 116.675L63.8422 116.963L64.2643 115.677L62.839 115.209ZM90.3614 93.7178L89.7737 92.3377L89.6817 92.3769L90.2694 93.757L90.8571 95.137L90.9491 95.0978L90.3614 93.7178ZM90.2694 93.757L89.875 92.3097L87.4754 92.9637L87.8698 94.4109L88.2642 95.8581L90.6638 95.2042L90.2694 93.757ZM87.8698 94.4109L87.3391 93.0079L84.8566 93.9469L85.3872 95.3499L85.9179 96.7529L88.4004 95.8139L87.8698 94.4109ZM85.3872 95.3499L84.6036 94.0709L82.3424 95.4562L83.126 96.7353L83.9096 98.0143L86.1709 96.6289L85.3872 95.3499ZM83.126 96.7353L82.4314 95.4058L80.0883 96.63L80.783 97.9595L81.4776 99.2889L83.8207 98.0647L83.126 96.7353ZM80.783 97.9595L80.263 96.5525L77.7784 97.4707L78.2984 98.8777L78.8184 100.285L81.303 99.3665L80.783 97.9595ZM78.2984 98.8777L77.6861 97.5084L75.2762 98.5861L75.8885 99.9555L76.5009 101.325L78.9108 100.247L78.2984 98.8777ZM75.8885 99.9555L75.1825 98.632L72.847 99.878L73.553 101.201L74.259 102.525L76.5946 101.279L75.8885 99.9555ZM73.553 101.201L72.9343 99.835L70.5815 100.9L71.2002 102.267L71.8189 103.633L74.1717 102.568L73.553 101.201ZM71.2002 102.267L70.0703 101.28L68.3298 103.274L69.4597 104.26L70.5896 105.247L72.3301 103.253L71.2002 102.267ZM69.4597 104.26L68.1104 103.605L66.9418 106.011L68.291 106.666L69.6403 107.322L70.8089 104.916L69.4597 104.26ZM68.291 106.666L67.1172 105.732L65.4714 107.801L66.6453 108.735L67.8191 109.669L69.4649 107.6L68.291 106.666ZM66.6453 108.735L65.3615 107.959L63.9948 110.221L65.2786 110.997L66.5624 111.772L67.9291 109.511L66.6453 108.735ZM65.2786 110.997L64.1356 110.025L62.4136 112.051L63.5565 113.023L64.6995 113.994L66.4216 111.968L65.2786 110.997ZM63.5565 113.023L62.1313 112.555L61.4138 114.742L62.839 115.209L64.2643 115.677L64.9818 113.491L63.5565 113.023ZM62.839 115.209L63.1586 113.744L63.1452 113.741L62.8257 115.206L62.5062 116.672L62.5195 116.675L62.839 115.209Z" fill="black"/>
<path d="M64.3719 69.9775L63.1861 69.0588L63.1499 69.1056L63.1175 69.1551L64.3719 69.9775ZM62.9756 72.1073L64.0077 73.1958L64.1343 73.0757L64.23 72.9297L62.9756 72.1073ZM61.0498 73.9333L60.0177 72.8449L59.9228 72.9348L59.8449 73.0399L61.0498 73.9333ZM59.4706 76.0629L58.2657 75.1695L58.2591 75.1784L58.2526 75.1874L59.4706 76.0629ZM57.9474 78.182L56.7294 77.3065L56.683 77.371L56.6437 77.4401L57.9474 78.182ZM56.65 80.4616L55.3464 79.7196L55.2572 79.8763L55.2077 80.0497L56.65 80.4616ZM55.9251 83.0004L54.4827 82.5885L54.4553 82.6847L54.4408 82.7837L55.9251 83.0004ZM55.5415 85.6288L56.921 86.2176L56.9976 86.0383L57.0257 85.8454L55.5415 85.6288ZM54.4957 88.0786L55.6283 89.0621L55.7828 88.8842L55.8753 88.6675L54.4957 88.0786ZM52.7646 90.0721L51.632 89.0886L51.5932 89.1333L51.5581 89.1809L52.7646 90.0721ZM51.1785 92.2194L51.9858 93.4836L52.22 93.3341L52.385 93.1107L51.1785 92.2194ZM48.9362 93.6514L48.1288 92.3872L48.0096 92.4634L47.9068 92.5604L48.9362 93.6514ZM47.0867 95.3966L46.0573 94.3056L45.9649 94.3927L45.8885 94.4942L47.0867 95.3966ZM45.4998 97.5037L44.3016 96.6013L44.2186 96.7115L44.1571 96.8349L45.4998 97.5037ZM44.3219 99.8685L42.9793 99.1998L42.9741 99.2101L42.9691 99.2206L44.3219 99.8685ZM43.1813 102.25L41.8285 101.602L41.8145 101.631L41.8018 101.661L43.1813 102.25ZM42.1438 104.681L43.4374 105.44L43.4859 105.358L43.5234 105.27L42.1438 104.681ZM41.0422 106.557L39.7486 105.798L39.164 106.794L39.9773 107.614L41.0422 106.557ZM64.4332 69.8984L63.2474 68.9798L63.1861 69.0588L64.3719 69.9775L65.5577 70.8961L65.619 70.8171L64.4332 69.8984ZM64.3719 69.9775L63.1175 69.1551L61.7212 71.2849L62.9756 72.1073L64.23 72.9297L65.6264 70.7999L64.3719 69.9775ZM62.9756 72.1073L61.9435 71.0188L60.0177 72.8449L61.0498 73.9333L62.0819 75.0218L64.0077 73.1958L62.9756 72.1073ZM61.0498 73.9333L59.8449 73.0399L58.2657 75.1695L59.4706 76.0629L60.6755 76.9564L62.2547 74.8268L61.0498 73.9333ZM59.4706 76.0629L58.2526 75.1874L56.7294 77.3065L57.9474 78.182L59.1654 79.0575L60.6886 76.9384L59.4706 76.0629ZM57.9474 78.182L56.6437 77.4401L55.3464 79.7196L56.65 80.4616L57.9537 81.2035L59.251 78.924L57.9474 78.182ZM56.65 80.4616L55.2077 80.0497L54.4827 82.5885L55.9251 83.0004L57.3675 83.4122L58.0924 80.8734L56.65 80.4616ZM55.9251 83.0004L54.4408 82.7837L54.0572 85.4121L55.5415 85.6288L57.0257 85.8454L57.4094 83.217L55.9251 83.0004ZM55.5415 85.6288L54.1619 85.0399L53.1161 87.4897L54.4957 88.0786L55.8753 88.6675L56.921 86.2176L55.5415 85.6288ZM54.4957 88.0786L53.3631 87.0951L51.632 89.0886L52.7646 90.0721L53.8972 91.0556L55.6283 89.0621L54.4957 88.0786ZM52.7646 90.0721L51.5581 89.1809L49.9719 91.3282L51.1785 92.2194L52.385 93.1107L53.9712 90.9633L52.7646 90.0721ZM51.1785 92.2194L50.3711 90.9552L48.1288 92.3872L48.9362 93.6514L49.7435 94.9156L51.9858 93.4836L51.1785 92.2194ZM48.9362 93.6514L47.9068 92.5604L46.0573 94.3056L47.0867 95.3966L48.1161 96.4876L49.9656 94.7424L48.9362 93.6514ZM47.0867 95.3966L45.8885 94.4942L44.3016 96.6013L45.4998 97.5037L46.698 98.4061L48.2849 96.299L47.0867 95.3966ZM45.4998 97.5037L44.1571 96.8349L42.9793 99.1998L44.3219 99.8685L45.6646 100.537L46.8425 98.1724L45.4998 97.5037ZM44.3219 99.8685L42.9691 99.2206L41.8285 101.602L43.1813 102.25L44.5342 102.898L45.6748 100.516L44.3219 99.8685ZM43.1813 102.25L41.8018 101.661L40.7643 104.092L42.1438 104.681L43.5234 105.27L44.5609 102.839L43.1813 102.25ZM42.1438 104.681L40.8503 103.921L39.7486 105.798L41.0422 106.557L42.3358 107.317L43.4374 105.44L42.1438 104.681ZM41.0422 106.557L39.9773 107.614L40.1212 107.759L41.186 106.702L42.2509 105.646L42.1071 105.501L41.0422 106.557Z" fill="black"/>
<path d="M54.8616 88.9368L54.0305 90.1855L54.2583 90.3371L54.5249 90.3985L54.8616 88.9368ZM57.3516 89.5102L58.2214 88.2881L57.9786 88.1153L57.6882 88.0484L57.3516 89.5102ZM59.5066 91.044L58.6368 92.2661L58.6562 92.2799L58.6761 92.2932L59.5066 91.044ZM61.708 92.5076L62.7095 91.3908L62.6287 91.3185L62.5385 91.2585L61.708 92.5076ZM63.6768 94.2731L64.7883 93.2659L64.7361 93.2083L64.6783 93.1564L63.6768 94.2731ZM65.4532 96.2333L64.3417 97.2406L64.385 97.2884L64.4323 97.3323L65.4532 96.2333ZM67.3874 98.0301L66.3665 99.1291L66.401 99.1611L66.4374 99.1909L67.3874 98.0301ZM69.4373 99.7077L70.5361 98.6865L70.4665 98.6116L70.3873 98.5468L69.4373 99.7077ZM71.2394 101.647L72.7328 101.788L72.7959 101.118L72.3381 100.625L71.2394 101.647ZM54.7783 88.8813L53.9472 90.1301L54.0305 90.1855L54.8616 88.9368L55.6926 87.688L55.6094 87.6326L54.7783 88.8813ZM54.8616 88.9368L54.5249 90.3985L57.015 90.9719L57.3516 89.5102L57.6882 88.0484L55.1982 87.475L54.8616 88.9368ZM57.3516 89.5102L56.4818 90.7322L58.6368 92.2661L59.5066 91.044L60.3764 89.822L58.2214 88.2881L57.3516 89.5102ZM59.5066 91.044L58.6761 92.2932L60.8776 93.7567L61.708 92.5076L62.5385 91.2585L60.3371 89.7949L59.5066 91.044ZM61.708 92.5076L60.7066 93.6243L62.6754 95.3899L63.6768 94.2731L64.6783 93.1564L62.7095 91.3908L61.708 92.5076ZM63.6768 94.2731L62.5653 95.2804L64.3417 97.2406L65.4532 96.2333L66.5647 95.226L64.7883 93.2659L63.6768 94.2731ZM65.4532 96.2333L64.4323 97.3323L66.3665 99.1291L67.3874 98.0301L68.4083 96.9311L66.4741 95.1343L65.4532 96.2333ZM67.3874 98.0301L66.4374 99.1909L68.4874 100.869L69.4373 99.7077L70.3873 98.5468L68.3373 96.8692L67.3874 98.0301ZM69.4373 99.7077L68.3386 100.729L70.1407 102.668L71.2394 101.647L72.3381 100.625L70.5361 98.6865L69.4373 99.7077ZM71.2394 101.647L69.746 101.506L69.7341 101.632L71.2274 101.773L72.7208 101.914L72.7328 101.788L71.2394 101.647Z" fill="black"/>
<path d="M85.9893 32.4841L85.7918 33.971L86.6985 34.0914L87.2207 33.3405L85.9893 32.4841ZM87.475 30.3477L87.03 28.9152L86.5378 29.0681L86.2435 29.4913L87.475 30.3477ZM89.8014 29.6251L90.5182 28.3075L89.9615 28.0046L89.3564 28.1926L89.8014 29.6251ZM92.0804 30.865L93.0215 29.6969L92.9161 29.612L92.7973 29.5474L92.0804 30.865ZM94.1464 32.5295L95.3006 31.5714L95.2045 31.4557L95.0875 31.3614L94.1464 32.5295ZM95.842 34.5721L97.0022 33.6212L96.9962 33.614L95.842 34.5721ZM97.5144 36.6126L99.0093 36.489L98.9708 36.0232L98.6745 35.6618L97.5144 36.6126ZM97.721 39.1121L98.7796 40.1748L99.2734 39.683L99.2159 38.9885L97.721 39.1121ZM95.8502 40.9757L96.8328 42.109L96.872 42.075L96.9088 42.0384L95.8502 40.9757ZM85.8901 32.4709L85.6927 33.9579L85.7918 33.971L85.9893 32.4841L86.1867 30.9971L86.0876 30.984L85.8901 32.4709ZM85.9893 32.4841L87.2207 33.3405L88.7065 31.2041L87.475 30.3477L86.2435 29.4913L84.7578 31.6276L85.9893 32.4841ZM87.475 30.3477L87.9199 31.7802L90.2463 31.0576L89.8014 29.6251L89.3564 28.1926L87.03 28.9152L87.475 30.3477ZM89.8014 29.6251L89.0845 30.9427L91.3636 32.1826L92.0804 30.865L92.7973 29.5474L90.5182 28.3075L89.8014 29.6251ZM92.0804 30.865L91.1394 32.033L93.2053 33.6975L94.1464 32.5295L95.0875 31.3614L93.0215 29.6969L92.0804 30.865ZM94.1464 32.5295L92.9923 33.4876L94.6879 35.5302L95.842 34.5721L96.9962 33.614L95.3006 31.5714L94.1464 32.5295ZM95.842 34.5721L94.6819 35.5229L96.3543 37.5634L97.5144 36.6126L98.6745 35.6618L97.0022 33.6212L95.842 34.5721ZM97.5144 36.6126L96.0195 36.7362L96.2261 39.2357L97.721 39.1121L99.2159 38.9885L99.0093 36.489L97.5144 36.6126ZM97.721 39.1121L96.6625 38.0494L94.7916 39.9129L95.8502 40.9757L96.9088 42.0384L98.7796 40.1748L97.721 39.1121ZM95.8502 40.9757L94.8676 39.8423L94.5586 40.1101L95.5412 41.2435L96.5238 42.3768L96.8328 42.109L95.8502 40.9757Z" fill="black"/>
</svg>
