<svg width="120" height="120" viewBox="0 0 120 120" fill="none" xmlns="http://www.w3.org/2000/svg">
<path d="M71.9453 7.97461L74.582 8.26758L74.8867 8.30273L75.1562 8.45508L77.4766 9.74414L77.5938 9.81445L79.7383 11.291L79.832 11.3496L79.9141 11.4316L81.8477 13.2129L81.9414 13.2949L82.0117 13.377L83.6758 15.4746L83.9102 15.7676L83.9316 15.9092L84.2539 15.7988L84.6406 15.6582L85.0391 15.7402L87.6523 16.2676L87.7227 16.2793L87.7812 16.291L90.2773 17.0176L90.6641 17.1348L90.9453 17.4277L92.7617 19.3262L92.8438 19.4199L92.9258 19.5254L94.3906 21.7168L94.4023 21.7285L94.4141 21.752L95.4922 23.4512L97.5195 23.9082L97.707 23.9434L97.8828 24.0371L100.602 25.4434L100.812 25.7598L102.312 27.9629L102.348 28.0098L102.383 28.0684L103.66 30.3301L103.789 30.5527L103.836 30.7871L104.316 33.3301L104.363 33.5762L103.965 36.3652L103.93 36.623L103.812 36.8457L102.641 39.1426L102.594 39.2363L102.523 39.3301L100.988 41.4629L100.836 41.6621L100.637 41.8027L98.4688 43.3379L98.2344 43.502L97.9531 43.5605L95.375 44.1816L95.1992 44.2168H95.0117L92.6094 44.2051L90.6055 44.8379L88.707 46.2793L88.4727 46.4551L88.168 46.5371L87.0723 46.8096L87.3828 46.9082L86.6094 49.3105L86.5977 49.3574L86.5742 49.416L85.5898 51.8418L85.5664 51.8887L85.543 51.9473L84.3125 54.4082L82.9648 56.6816L82.8945 56.7988L82.8125 56.8926L81.1836 58.7676L79.8477 60.8887L78.8984 62.9395L78.5703 65.1777L78.8398 67.5801L78.8516 67.6855V67.7793L78.7812 70.4277L78.793 73.0176V73.0762L78.7344 75.7129L78.8867 78.1387L79.1914 80.7754V80.9277L79.2266 83.541L79.2969 86.1895V86.2012L79.332 88.7676L79.4961 91.4043L79.5078 91.5215L79.4961 91.627L79.2734 94.1113L79.5547 96.5254L80.0117 99.1387L80.0352 99.291L80.0234 99.4434L79.9297 101.939L80.3047 104.447L80.3164 104.506V104.576L80.4453 106.99L81.2773 109.287L81.3008 109.381L81.8984 111.537L83.5977 113.014L83.6445 113.049L83.6914 113.107L84.8398 114.314L84.6592 114.484L87.1602 114.418H87.1953L89.832 114.406H89.9375L90.0312 114.418L92.4219 114.734L94.8359 114.266L95.082 114.219L95.3164 114.254L97.8945 114.605L100.273 114.711L102.793 114.277L102.91 114.266H103.027L105.664 114.242H105.816L105.969 114.266L108.406 114.746L110.809 114.5L110.891 114.488H110.973L112.016 114.5L112.004 116L111.98 117.5L110.984 117.488L108.477 117.746L108.254 117.77L108.031 117.734L105.57 117.242L103.145 117.254L100.648 117.688L100.496 117.711L100.332 117.699L97.6953 117.594H97.625L97.5547 117.582L95.1523 117.242L92.7617 117.711L92.5273 117.758L92.293 117.734L89.7383 117.406L87.207 117.418L87.1953 117.406L84.6055 117.488H84.5938L81.957 117.547H81.9336L79.3672 117.559L79.3789 117.57L76.7422 117.746L76.5547 117.758L73.9297 117.266L71.5391 117.547L71.4102 117.559H71.2812L68.7266 117.418L66.1719 117.582H66.043L65.9141 117.57L63.418 117.289L60.957 117.559H60.8867L59.0957 117.661L59.0742 117.67L58.875 117.693L56.2266 117.939L56.0391 117.963L55.8516 117.939L53.3555 117.553L50.8828 117.693L50.8711 117.682L48.3047 117.928L48.1289 117.951L47.9531 117.928L45.4336 117.576L42.9492 117.67L42.9023 117.682H42.8555L40.3711 117.611L37.8516 118.01L37.6055 118.045L37.3711 118.01L34.9219 117.588L32.4375 117.775L32.3906 117.787H32.3438L29.707 117.799L29.7188 117.811L27.082 117.857L24.4453 117.928H24.3984L21.75 117.893H20.543L20.4814 117.603L18.5 117.383L15.9219 117.395V117.383L13.3789 117.559H13.3672L13.3555 117.57L10.707 117.688L10.6133 117.699L10.5312 117.688L7.98828 117.5L8 117.277V114.5H8.21094L10.6719 114.699L13.1797 114.582V114.57L15.8164 114.395H15.9102L18.5469 114.383L18.6406 114.371L18.7227 114.383L19.8164 114.505L19.8047 114.447L19.7578 114.283L19.7695 114.107L19.7812 111.424L19.793 110.814L20.2266 110.369L22.0547 108.529L23.5078 106.701L24.3047 104.416L24.3281 104.346L25.2334 102.081L24.0078 100.053L23.9609 99.959L22.7539 97.6387L22.6953 97.498L22.6484 97.3574L21.9336 94.873L21.8984 94.7676L21.8867 94.6621L21.5352 92.0723L21.5 91.8262L21.5352 91.5918L22.0156 88.9902L22.0508 88.7559L22.168 88.5566L23.3984 86.2129L23.4219 86.166L23.4453 86.1309L24.8281 83.8809L24.8516 83.834L24.875 83.7988L26.3281 81.7012L27.5352 79.4512L27.5469 79.4277L27.5703 79.3926L28.8945 77.1191L30.125 74.834L31.0859 72.5254L31.1445 72.3848L31.2266 72.2676L32.6211 70.1934L33.8047 67.9551L34.5664 65.7402L34.9766 63.2207L35.0352 62.8691L35.2578 62.5762L35.8242 61.8096L35.6982 61.6816L35.6396 61.6348L35.5928 61.5762L33.9287 59.5254L33.8584 59.4316L32.417 57.334L32.0771 56.8418L32.1709 56.2441L32.5576 53.7129L32.6865 52.9395L33.3896 52.5996L35.7686 51.4395L36.3076 51.1699L36.8818 51.3574L37.5273 51.5635L38.9795 49.7236L39.1436 49.5127L39.3779 49.3721L41.6514 47.9893L41.874 47.8486L42.1436 47.8018L44.7568 47.3096L44.8623 47.2861H44.9561L47.499 47.1455L47.8154 47.1221L48.1201 47.2393L50.4639 48.1416L52.4209 48.4932L53.4805 48.1973L53.5273 48.041L53.5508 47.9473L53.9609 48.0635L54.4834 47.9189L54.7061 47.8486L54.9404 47.8604H55.0459L55.0293 48.3662L55.1328 48.3926L56.3984 47.9941L57.1484 50.3496L57.2422 50.6191L57.2188 50.9004L57.0664 53.4199L57.0312 53.9473L56.6797 54.334L55.9756 55.1035L56.1641 55.0527L56.7031 57.0566L56.9023 57.8066L56.4219 58.3926L54.7578 60.4434L53.375 62.4238L52.2617 64.5918L51.4297 66.5137L52.0273 68.4004L53.1406 70.3691L54.2656 71.5059L55.9531 71.2598L58.25 70.7207L60.1133 69.7129L61.2969 68.2246L61.5898 66.0566L61.6367 65.7637L61.7891 65.4941L63.125 63.1973L63.3125 62.8691L63.6289 62.6699L65.9258 61.252L66.1367 61.1221L66.125 60.9824L65.75 58.7324L64.5195 56.998L64.4141 56.8457L64.3438 56.6699L63.4414 54.3379L62.293 51.9473H62.2812V51.9355L61.1562 49.5332L61.1094 49.4277L61.0742 49.3223L60.6992 48.0166L60.6953 48.0176L58.0352 48.3105L57.5664 48.3574L57.1445 48.1348L54.8008 46.8457L54.707 46.7871L54.6133 46.7168L52.6445 45.2051L50.9336 44.3145L48.7773 44.584L48.5547 44.6074L48.3438 44.5723L45.7305 44.127L45.543 44.0918L45.3672 44.0098L42.918 42.8965L42.5547 42.7324L42.3203 42.3926L40.7852 40.2012V40.2129L39.2617 38.0918L39.0508 37.7988L38.9922 37.4355L38.6055 34.834L38.5938 34.7168V34.5996L38.6172 31.9629V31.6582L38.7344 31.3887L39.7656 28.9629L39.7773 28.9277L39.8008 28.8926L40.9492 26.5371L41.0781 26.2793L41.3008 26.0801L43.293 24.2871L43.5859 24.0176L43.9727 23.9355L46.3047 23.4316L47.8633 22.4355L48.5195 20.4434L48.5664 20.291L48.6484 20.1387L49.9609 17.9238L50.1016 17.6895L52.3281 15.9316L52.4922 15.791L52.6914 15.709L55.1055 14.748L55.3633 14.6426H55.6328L57.8008 14.584L59.3242 13.5176L60.9648 11.6895L61.0938 11.5488L61.2695 11.4316L63.4727 10.0137L63.5898 9.94336L65.9102 8.74805L66.0859 8.6543L66.2852 8.61914L68.8398 8.05664L68.9805 8.0332H69.1328L71.7461 7.97461L71.8516 7.96289L71.9453 7.97461ZM82.0117 48.3457L81.168 50.6543L81.1211 50.7598L81.0742 50.8535L79.7969 53.1621L79.7031 53.3379L79.5625 53.4785L77.7109 55.4004L77.2773 55.8574H76.4482L76.332 56.998L76.3086 57.2559L76.1914 57.4902L75.957 58.0059L74.5977 57.3613L73.25 56.7051L73.3906 56.4121L73.6016 54.2324L73.3086 51.8652L72.793 49.2871L72.7695 49.1465L72.6357 47.8369L70.5781 47.873H70.3789L70.1914 47.8262L69.9521 47.7676L69.9531 47.7715L70.0117 48.0645L69.9531 48.3574L69.4492 50.7363L69.7539 53.1387L69.7656 53.2676V53.4082L69.625 56.0449V56.0918L69.6133 56.1387L69.3203 58.623L69.0977 60.543L69.1016 60.5605V60.6074L69.3359 63.2441V63.291L69.4883 65.8926L69.6875 68.541L69.6992 68.6582L69.6875 68.7871L69.4414 71.4355L69.4297 71.5879L69.3828 71.7402L68.5889 74.2129L68.8008 74.1699L69.2812 76.5957L69.3047 76.748V76.9004L69.2812 79.5254L69.3281 82.127V82.2324L69.1992 84.8691L69.1875 84.9512L69.1758 85.0449L68.7539 87.5059L68.8125 90.0254V90.084L68.8008 90.1426L68.6602 92.7793V92.8145L68.4609 95.4395L68.3789 98.0176V98.123L68.3555 98.2285L67.9102 100.842L67.8984 100.83L67.5352 103.408L67.5117 103.525L66.9375 106.104L66.9258 106.092L66.4102 108.658V108.693L65.8125 111.283L65.7773 111.471L65.6836 111.646L64.4297 114.014L64.3242 114.213L64.1797 114.356L66.0898 114.582L68.6328 114.43L68.7148 114.418L68.7969 114.43L71.3281 114.559L73.8242 114.266L74.0586 114.23L74.2812 114.277L76.7305 114.734L79.1797 114.582L79.2266 114.57H79.2617L80.8193 114.562L79.6016 113.494L79.2617 113.201L79.1445 112.779L78.4414 110.283L77.5625 107.811L77.4922 107.6L77.4805 107.389L77.3398 104.893L76.9531 102.268L76.9297 102.139V101.998L77.0234 99.5371L76.6016 97.041L76.5898 96.9941V96.959L76.2734 94.3223L76.2617 94.1699L76.2734 94.0176L76.5078 91.4512L76.3438 88.9551L76.332 88.9199V88.8848L76.2969 86.2598L76.2266 83.623V83.5996L76.1914 80.9629L75.9102 78.4785L75.8984 78.4434V78.4082L75.7344 75.7715V75.6426L75.793 73.041L75.7812 70.4043V70.3574L75.8516 67.7441L75.582 65.2832L75.5586 65.0957L75.582 64.9082L75.9688 62.3184L75.9922 62.1074L76.0859 61.9082L77.1758 59.541L77.2109 59.459L77.2695 59.377L78.6758 57.1387L78.7344 57.0449L78.8047 56.9512L80.4922 54.9707L81.7227 52.8848L82.8594 50.6113L83.75 48.3848L84.1514 47.1348L82.7451 47.0596L82.0117 48.3457ZM66.0898 76.5918L64.25 78.209L62.4453 80.1426L62.3633 80.2246L60.418 82.0059L60.3945 82.0293L58.4023 83.7871L58.2266 83.9277L58.0273 84.0215L55.5898 85.123L55.2734 85.2637L54.9336 85.252L52.5547 85.1934L51.1133 85.7559L50.1758 87.6309L50.1641 87.6426L48.9336 89.998L48.8398 90.1621L48.7109 90.291L46.9414 92.2715L46.9297 92.2598L45.1953 94.2285L45.1133 94.3223L45.0195 94.4043L43.1387 95.9209L43.375 97.6309L44.1953 99.9512L44.2422 100.115L44.2656 100.279L44.5703 102.904L44.5938 103.139L44.5469 103.361L44.043 105.975L43.9961 106.209L43.8789 106.42L43.1016 107.798L44.8574 108.25L45.127 108.32L45.3613 108.484L47.4238 109.984L47.6934 110.184L47.8574 110.465L49.1582 112.75L49.2871 112.973L49.334 113.23L49.5352 114.348H50.2695L52.8711 114.406L55.4844 114.348H55.6133L55.7305 114.359L58.2148 114.723L58.3701 114.712L60.3867 113.932L61.875 112.42L62.9297 110.404L63.4805 108.025L63.9961 105.471L64.0078 105.459V105.436L64.582 102.869L64.9453 100.373V100.35L64.957 100.326L65.3789 97.8418L65.4609 95.2754V95.252L65.4727 95.2168L65.6602 92.6152L65.8125 89.9785L65.7539 87.4473V87.2949L65.7773 87.1543L66.1992 84.6582L66.3281 82.1855L66.2812 79.5371V79.4902L66.293 77.0293L66.1934 76.5059L66.0898 76.5918ZM45.2256 50.2627L42.9639 50.6846L41.1592 51.7744L40.4678 52.6533L40.7725 53.0986L41.3467 53.9307L40.7842 54.7744L40.749 54.833L40.1953 54.4648L39.7412 55.4121L38.499 55.0137L36.542 54.3809L35.3936 54.9434L35.2061 56.127L36.249 57.627L37.9131 59.666L38.5576 60.2988L37.6426 61.2031L38 61.3574L39.3711 61.9785L39.3242 62.0605L39.2656 62.2129L39.1602 62.3418L37.8828 64.0527L37.5195 66.3027L37.4961 66.4199L37.4609 66.5371L36.6055 69.0449L36.5703 69.1621L36.5117 69.2676L35.2812 71.5996L35.2461 71.6699L35.1992 71.7402L33.793 73.8145L32.832 76.123L32.7969 76.1934L32.7734 76.252L31.5195 78.584L31.5078 78.6074L31.4844 78.6309L30.1602 80.9043L28.9414 83.1895L28.9062 83.2715L28.8477 83.3418L27.3359 85.5215L26.0117 87.6895L24.9219 89.7402L24.5234 91.8848L24.8398 94.1582L25.4727 96.3613L26.5742 98.4941L27.8516 100.615L29.4805 102.525L31.2148 104.518L31.2383 104.529L31.25 104.541L32.8672 106.51L33.3125 107.049L33.1836 107.729L32.7617 110.096L32.7852 112.205L33.7344 114.338L33.7793 114.439L34.5078 114.488L34.4961 114.5L37.0508 114.512H37.0977L39.6875 114.617L42.1836 114.535L44.832 114.289H44.9844L46.4717 114.315L46.416 114.004L45.3965 112.223L43.8027 111.074L41.7588 110.54L41.6289 110.826L41.4883 111.623L40.0117 111.354L38.5352 111.096L38.7109 110.123L38.7461 109.936L38.8164 109.76L39.918 107.369L39.9414 107.322L39.9766 107.275L41.1367 105.166L41.5469 103.021L41.3008 100.795L40.5039 98.4746L40.4453 98.334L40.4336 98.1934L40.082 95.6621L40.0703 95.5918V95.5098L40.0586 95.4043L41.0225 95.374L41 95.3184L40.4258 93.9238L41.2109 93.5957L43.0273 92.1543L44.7031 90.2676L44.7148 90.2559L46.3555 88.416L47.5156 86.248L48.6758 83.9043L48.9336 83.3887L49.4844 83.1777L51.7578 82.2988L52.0391 82.1816L52.3438 82.1934L54.6758 82.2402L56.5859 81.373L58.3906 79.791L60.3359 78.0098L62.0586 76.1582L62.1055 76.0996L62.1641 76.0527L64.1445 74.3066L64.168 74.2949L64.1914 74.2715L65.8555 72.9004L66.4648 71.0137L66.6875 68.623L66.5 66.127V66.0918L66.4043 64.4775L65.5156 65.0254L64.5195 66.748L64.2266 69.0449L64.168 69.4551L63.9102 69.7832L62.082 72.0684L61.8125 72.2207L59.4922 73.4629L59.3164 73.5684L59.1172 73.6035L56.5508 74.2012L56.4336 74.2246L53.9609 74.5879L53.2109 74.7051L52.6719 74.166L50.8555 72.3262L50.7148 72.1738L50.6211 72.0098L49.332 69.7246L49.2617 69.584L49.2148 69.4434L48.4062 66.9004L48.2305 66.3613L48.4531 65.8574L49.5078 63.3965L49.5547 63.3027L50.7617 60.9824L50.8555 60.8184L52.3555 58.6504L52.3906 58.5918L52.4258 58.5449L53.5977 57.0918L53.5195 56.7969L53.2109 56.8418L53 55.3535L52.8594 54.3574L52.707 54.2285L52.8242 54.0996L52.7891 53.877L53.0586 53.8301L54.0898 52.6934L54.1973 51.1191L52.9248 51.4814L52.585 51.5869L52.2334 51.5166L49.7607 51.0479L49.6318 51.0244L49.5146 50.9775L47.335 50.1455L45.2256 50.2627ZM27.1172 105.471L26.2617 107.92L26.1797 108.166L26.0273 108.365L24.375 110.451L24.3164 110.521L24.2578 110.58L22.7695 112.057V113.967L22.8877 114.522L23.7148 114.453L23.7617 114.441H23.8203L26.4688 114.418H26.4922L29.0469 114.43L30.4648 114.366L29.9258 113.131L29.7969 112.85V112.545L29.7617 110.002V109.861L29.7852 109.721L30.1016 107.869L28.9297 106.451V106.439L27.417 104.719L27.1172 105.471ZM63.8008 47.6074L63.7168 47.6465L63.9219 48.3613L65 50.6582H64.9883L66.1367 53.0254L66.1602 53.084L66.1836 53.1309L66.6973 54.4502L66.7539 53.3613L66.4492 50.877L66.4141 50.6309L66.4727 50.3848L66.9414 48.0527L66.707 46.7637L65.7227 46.6465L63.8008 47.6074ZM76.4727 46.6191L76.3555 46.6895L76.2266 46.748L75.5703 47.0078L75.7461 48.7832L76.25 51.2793L76.2734 51.3965L76.4014 52.4258L77.2773 51.5098L78.3789 49.5176L79.2695 47.1387L79.3164 47.0215L79.375 46.916L79.8545 46.0752L79.6836 46.0098V45.998L78.125 45.5645L76.4727 46.6191ZM69.3203 11.0215L67.0938 11.502L64.9727 12.6152L64.9609 12.6035L63.0391 13.8457L61.4336 15.6621L61.3164 15.7793L61.1875 15.8848L59.1484 17.3145L58.7734 17.584H58.3164L55.9609 17.6309L54.0273 18.4043L52.4102 19.6816L51.2969 21.5566L50.3945 24.3926L49.9375 24.6855L47.7109 26.1152L47.4766 26.2559L47.2188 26.3145L44.9922 26.7832L43.5039 28.1191L42.4961 30.2168L42.4844 30.2051L41.6055 32.2793L41.5938 34.541L41.8984 36.627L43.2227 38.4668L43.2344 38.4785L44.5234 40.3301L46.457 41.209L48.6133 41.5723L51.0391 41.2793L51.4961 41.2324L51.9062 41.4434L54.1562 42.6152L54.2734 42.6738L54.3789 42.7559L56.3711 44.2793L58.1641 45.2637L60.3672 45.041H60.3789L62.6992 44.7949L64.7969 43.7637L65.1953 43.5762L65.6406 43.623L68.1602 43.9277L69.25 44.0566L69.3369 44.5264L70.6953 44.8613L72.9102 44.8262L74.9492 44.0176L77.0938 42.6699L77.668 42.3184L78.3125 42.4941L80.6328 43.1621L80.7031 43.1855L80.7617 43.209L83.0234 44.0762L85.1328 44.1816L87.1367 43.6895L88.9883 42.3066L89.1992 42.1543L89.4336 42.084L91.9297 41.2754L92.1523 41.2051H94.8594L96.9688 40.7012L98.6914 39.5059L100.027 37.6426L101.035 35.6738L101.316 33.6465L100.918 31.5605L99.8281 29.6504L98.5273 27.7402L96.7109 26.791L94.2383 26.252L93.6406 26.123L93.3008 25.5957L91.9062 23.3926L90.4883 21.2832L89.0586 19.7832L87.0312 19.1973L84.8398 18.752L83.1055 19.373L82.9824 19.0244L81.8594 19.998L81.8008 19.916L81.5312 19.5996L81.4492 19.1895L81.3281 18.4932L81.2305 18.5293L81.207 18.4707L80.6797 17.0293L80.9883 16.9238L79.7383 15.334L77.9102 13.6582L76.0117 12.3691L73.9375 11.209L71.6523 10.9629L69.3203 11.0215Z" fill="black"/>
</svg>
