<svg width="120" height="120" viewBox="0 0 120 120" fill="none" xmlns="http://www.w3.org/2000/svg">
<path d="M49.7402 3.41406L49.9395 3.42578L50.127 3.47266L53.4668 4.45703L53.6543 4.51562L53.8184 4.60938L56.7949 6.40234L56.9121 6.48438L57.0176 6.56641L59.6543 8.91016L59.8652 9.08594L59.9824 9.33203L61.6113 12.4492L61.6582 12.5312L61.6934 12.625L62.9121 15.8828L62.9355 15.9414L62.9473 16L63.9316 19.3633V19.3984L63.9434 19.4219L64.5625 21.96L67.334 19.9414L67.4043 19.8828L67.4746 19.8477L70.5215 18.1133L73.5332 16.3672L73.627 16.3203L73.709 16.2852L76.9434 14.9258L77.002 14.9023L77.0723 14.8789L80.4121 13.8359L80.4707 13.8125L80.5293 13.8008L83.9629 13.0273L84.1973 12.9688L84.4316 12.9922L87.9355 13.3086H88.0176L88.0996 13.332L91.5098 14.0117L91.6387 14.0469L91.7559 14.082L95.0254 15.3359L95.1777 15.3945L95.3184 15.4883L98.2598 17.4219L98.4355 17.5391L98.5762 17.6914L100.826 20.3047L99.9473 21.043L99.7715 21.3359L98.9629 22.6016L98.8809 22.543L98.6934 22.4258L98.5527 22.2617L98.5107 22.2129L95.9082 22.9531L95.6738 23L92.2637 23.375L89.0059 24.2539L85.6309 25.168L85.6074 25.1797H85.584L82.3027 25.9531L79.2793 27.3828L76.209 28.8828L73.3965 30.4844L76.8848 30.7891L76.9199 30.8008H76.9668L80.4355 31.3281L80.541 31.3516L80.6348 31.375L84.0215 32.3594L84.1621 32.3945L84.2793 32.4648L87.3965 34.0469L90.5371 35.6055L90.7012 35.6875L90.8301 35.793L93.5488 38.0195L93.6777 38.1367L93.7832 38.2656L95.9277 41.0547L96.0215 41.1836L96.0918 41.3242L97.6387 44.5L97.7441 44.7227L97.7676 44.9688L98.2246 48.4727L98.2363 48.5898V48.707L98.1426 52.1992V52.3281L98.1074 52.457L97.627 54.8594L96.2676 54.5781L95.9629 56.0547L95.8457 56.0312L94.3926 55.7266L94.458 55.3965L92.2871 53.2148L89.6973 50.8828L87.0488 48.5742V48.5625L84.4238 46.2539L84.4121 46.2422L81.9277 44.0273L79.0332 42.5859L76.0215 41.4258L75.5947 41.376L76.3691 42.6055L76.416 42.6758L76.4512 42.7461L78.0098 45.8984L78.0684 46.0156L78.1035 46.1445L79.0762 49.5312L79.1348 49.7422V49.9648L79.0879 53.4688V53.5391L78.8887 57.043V57.207L78.8418 57.3711L77.8691 60.7578L77.8223 60.8984L77.752 61.0273L76.123 64.1562L76.0527 64.2969L75.9473 64.4141L73.6855 67.1445L73.6152 67.2383L73.5215 67.3203L71.3535 69.1836L71.2598 69.8164L69.7715 69.582L68.2949 69.3594L68.3887 68.7295L68.2676 68.7422L68.2559 68.6367L68.2441 68.543L68.2559 68.4492L68.3262 65.1562L67.8926 61.875L67.2246 58.418V58.4062L66.5684 54.9609V54.9375L66.5566 54.9141L66.0527 51.5859L64.8809 48.5039L63.5449 45.3984L61.9043 42.832L60.6855 42.0459L60.3457 43.3594L59.748 46.7109H59.7363L59.1035 50.168L59.0801 50.2617L58.2246 53.6719L58.2129 53.7422L58.1895 53.8125L57.0176 57.082L56.3496 60.3633L56.3262 60.457L55.4004 63.8438V63.8672L54.4277 67.2422L53.6074 70.5938L53.5957 70.6523L53.5723 70.7109L52.459 74.0391L51.5449 77.3555V77.3672L50.5605 80.7422L49.8574 84.0703L49.3301 87.4688L49.3184 87.5039L49.3066 87.5508L48.5684 90.9258L47.9355 94.3477L47.3613 97.8164L46.998 101.215L46.9863 101.273L46.9746 101.344L46.3066 104.684L46.2832 107.941L46.4824 111.457L46.4941 111.562L46.4824 111.668L46.252 114.51L46.625 114.512H46.6602L50.1172 114.617L50.4404 114.609L50.3125 113.895L50.2773 113.684L50.3008 113.473L50.6875 110.051L50.7578 106.582V106.488L51.0742 102.996V102.973L51.4375 99.4805V99.457L51.4492 99.4336L51.9297 95.9648H51.9414L52.2227 92.543V92.4961L52.2344 92.4492L52.7383 88.9688L52.75 88.9219L52.7617 88.8633L53.5234 85.4297L54.2617 82.0195L54.2734 81.9727L54.2852 81.9375L55.1758 78.6562L55.832 75.2109L55.8438 75.1758L55.8555 75.1523L56.6523 71.7305L57.4141 68.3203L57.9648 64.9336L57.9883 64.8281L58.0117 64.7344L59.043 61.418L59.7461 58.0781L60.25 54.6797L60.7539 51.2109L60.7656 51.1641L60.7773 51.1055L61.5156 47.7773L61.5273 47.7305L64.4805 48.2695L64.457 48.375V48.3984L64.4453 48.4219L63.707 51.7617L63.2148 55.125L62.6992 58.6055L62.6875 58.6406V58.6875L61.9609 62.1211L61.9492 62.1914L61.9258 62.2617L60.9062 65.5312L60.3672 68.8945L60.3555 68.9297L60.3438 68.9766L59.582 72.3984V72.4219L58.7734 75.832L58.1289 79.2188L58.1055 79.3359L57.1797 82.7227L57.168 82.7109L56.4531 86.0742V86.0859L55.7031 89.4023L55.1992 92.8828L54.918 96.293L54.9062 96.3398V96.375L54.4141 99.7852L54.4258 99.7969L54.0508 103.242L54.0625 103.254L53.7461 106.641L53.7578 106.652L53.6758 110.156V110.227L53.6641 110.285L53.3008 113.566L53.4746 114.536L53.5273 114.535L57.043 114.289H57.1602L60.6641 114.336L60.6523 114.348H64.1797L67.6602 114.406L71.1523 114.348H71.2461L71.3398 114.359L74.7734 114.723L78.1367 114.559V114.57L81.5938 114.289L81.7109 114.277L81.8398 114.289L85.1914 114.582L88.6602 114.43L88.7305 114.418L88.7891 114.43L92.1523 114.559L95.6211 114.254L95.7852 114.242L95.9609 114.266L99.3242 114.746L102.699 114.57H102.758L106.25 114.559V114.547L109.742 114.5V114.488L111.945 114.418L113.504 114.359V116H112.004L112.051 117.406L109.836 117.488H109.812L106.309 117.547H106.297L102.828 117.559L102.84 117.57L99.3359 117.746L99.1953 117.758L99.0547 117.734L95.7148 117.254L92.375 117.547L92.2812 117.559H92.1875L88.7305 117.418L85.2852 117.582H85.0977L81.6992 117.277L78.3125 117.559H78.2656L74.7617 117.711L74.6445 117.723L74.5391 117.711L71.0469 117.348L67.6953 117.406H67.6484L64.1328 117.348V117.336H60.6289L57.2188 117.289L53.7266 117.512L53.7031 117.523H53.668L50.1641 117.617H50.0703L46.5664 117.512V117.5L43.0859 117.488H43.0273L39.5586 117.301L36.1367 117.43H36.0781L32.5742 117.418L29.1406 117.43L29.1523 117.441L25.6484 117.664L25.5312 117.676L25.4258 117.664L22.0508 117.383H18.5938L18.6055 117.395L15.0898 117.57H15.0781L11.5625 117.688L11.4922 117.699L11.4219 117.688L8.01172 117.5H8V114.5H8.1875L11.5391 114.699L14.9492 114.582V114.57L18.4531 114.395H18.5234L22.0391 114.383H22.168L25.5664 114.676L28.9648 114.441H29.0469L32.5625 114.418H32.5742L36.0312 114.43L39.5352 114.312L39.6055 114.301L39.6641 114.312L43.1797 114.488L43.168 114.5H43.2334L43.2363 114.469L43.4941 111.504L43.2832 108.117V108.012L43.3184 104.496V104.355L43.3535 104.227L44.0215 100.863L44.3848 97.4062L44.3965 97.3594V97.3125L44.9824 93.8555L44.9941 93.8438V93.832L45.627 90.3867V90.3633L45.6387 90.3398L46.377 86.918L46.9043 83.5312L46.916 83.4844V83.4492L47.6543 80.0156L47.666 79.957L47.6777 79.9102L48.6621 76.5352L49.5996 73.1719V73.1367L49.6113 73.1016L50.6895 69.832L51.5215 66.4688L51.5332 66.4336L51.5449 66.4102L52.5176 63.0352L53.4316 59.6719L54.123 56.3203L54.1348 56.2148L54.1699 56.1211L55.3184 52.9102L56.1504 49.6172L56.7949 46.1719L57.4277 42.7148V42.668L57.4395 42.6094L57.7021 41.5908L57.2168 41.625L54.4277 43.1484L51.4746 44.8359L48.7324 46.8633L46.2598 49.1367L43.6816 51.4922L41.5137 53.8828L39.416 56.6016L37.7285 59.5195L37.6934 59.5781L37.6582 59.625L37.002 60.5625L36.6992 60.3496L36.6309 60.6758L36.373 61.8945L34.9082 61.5898L33.4316 61.2734L33.6191 60.4414L32.6816 57.6055L32.6113 57.4062V57.1836L32.5059 53.7148L32.4941 53.5859L32.5176 53.457L33.0332 50.0117L33.0566 49.8594L33.1035 49.707L34.3223 46.4375L34.3926 46.2734L35.9863 43.1562L35.998 43.1211L36.0215 43.0859L37.791 40.0391L37.8848 39.8633L38.0254 39.7344L40.5098 37.2383L40.5566 37.1914L43.1113 34.8125L43.1816 34.7539L43.252 34.707L45.4756 33.0732L43.2754 33.0391L39.9004 33.5781L36.5254 34.2695H36.4902L33.127 34.8555L29.9863 36.0391H29.9746L29.9629 36.0508L26.6465 37.2109L26.6348 37.1992L23.4707 38.3711L20.248 39.8008L20.084 39.8711L19.9082 39.9062L19.041 40.0586L18.7988 38.7344L17.9551 38.1367L18.2246 37.1289L18.916 34.5156L18.9629 34.3516L19.0449 34.1875L20.6855 31.1172L20.7793 30.9414L20.9199 30.7891L23.334 28.2578L23.3809 28.2227L23.4277 28.1758L26.041 25.8672L26.1465 25.7734L26.2754 25.6914L29.2871 23.9336L29.3809 23.8867L29.4629 23.8398L32.6973 22.4922L32.8145 22.4453L36.166 21.3672L36.377 21.2969H36.5879L40.1152 21.2148H40.209L43.7012 21.3789H43.7832L43.877 21.3906L47.334 21.9531L47.4629 21.9766L47.5918 22.0234L50.8613 23.1719L52.7275 23.5645L52.0059 21.5703L50.2363 18.6992L50.2129 18.6641L50.1895 18.6172L48.5723 15.6172L46.5801 13.0391L44.2129 10.6484L41.7168 8.39844L39.1387 7.00391L38.9863 6.93359L38.8574 6.81641L38.7871 6.75781L39.7715 5.62109L40.0527 5.29297L40.5566 4.36719L41.2354 4.7334L40.9863 4.32812L41.9707 3.71875L42.2988 3.51953L42.6973 3.49609L46.1309 3.33203H46.2363L49.7402 3.41406ZM44.0225 6.43457L46.2285 8.42188L46.2871 8.48047L48.7598 10.9766L48.8301 11.0352L48.877 11.1172L51.0332 13.8945L51.1152 13.9883L51.1738 14.1055L52.7793 17.1289L54.6309 20.1172L54.7129 20.2461L54.7715 20.3867L55.9316 23.6094L57.127 25.8125L57.5254 26.5508L57.1035 27.2656L57.0684 27.3359L55.7676 26.5859L55.7207 26.5625L54.4902 27.2422L53.6719 25.7275L53.4277 26.7812L53.334 26.7578V26.7461L50.0996 26.0781L49.9941 26.0547L49.9004 26.0312L46.7363 24.8945L43.4082 24.3555L40.1035 24.2148L36.834 24.2852L33.7988 25.2695L30.7402 26.5469L27.9277 28.1875L25.4082 30.4258L23.2168 32.7109L21.7637 35.4414L21.6465 35.8945L22.252 35.6289L22.2988 35.6055L22.3457 35.5938L25.6387 34.3867V34.375H25.6504L28.9668 33.2148L32.2363 31.9961L32.3652 31.9375L32.5059 31.9141L35.9746 31.3164V31.3281L39.373 30.625H39.3965L39.4316 30.6133L42.9004 30.0625L43.0293 30.0391H43.1582L46.6973 30.0977L47.0605 30.1094L47.3887 30.2852L49.2832 31.3135L49.709 31.1445L50.0371 31.0156L50.4004 31.0508L53.8223 31.3672L53.6934 32.6328L53.7754 32.832L54.291 34.2383L54.1973 34.2734L53.8691 34.3906L53.541 34.3555L50.459 34.0625L49.6689 34.377L49.6387 34.7383L49.5449 34.7266L49.2285 34.7031L49.0732 34.6152L47.6699 35.1758L45.0215 37.1328L42.5957 39.3945L42.584 39.3828L40.2754 41.7031L38.6465 44.5039L38.6582 44.5156L37.0762 47.6328L35.9746 50.5977L35.5059 53.7148L35.5879 56.8672L35.6641 57.0996L36.8965 54.9844L36.9434 54.9023L37.002 54.832L39.1348 52.0547L39.2051 51.9609L41.5605 49.3711L41.6543 49.2773L44.2324 46.9219L46.8223 44.5547L46.8809 44.4961L46.9512 44.4492L49.7754 42.3633L49.916 42.2695L52.9746 40.5234L52.998 40.5L56.1035 38.8242L56.3848 38.6719L56.7129 38.6484L60.0645 38.4375L60.5566 38.4023L60.9668 38.6719L63.8145 40.5L64.084 40.6758L64.2598 40.957L66.1348 43.8867L66.2051 43.9922L66.252 44.0977L67.6348 47.3203L67.6465 47.3438L67.6582 47.3789L68.9121 50.6719L68.9707 50.8125L68.9941 50.9766L69.5098 54.4102H69.5215L70.166 57.8438L70.834 61.3008L70.8457 61.3477V61.3828L71.3262 64.875L71.3379 64.9922V65.1094L71.334 65.2168L71.4355 65.1289L73.5215 62.6328L75.0332 59.7383L75.9004 56.7031L76.0879 53.4453L76.123 50.1406L75.2559 47.1055L73.7793 44.1172L72.127 41.5156L69.7246 39.9219L69.4785 39.7578L69.3145 39.5234L69.2559 39.4414L70.4863 38.5859L70.6855 38.4453L71.377 37.4141L73.834 39.041L73.9355 38.168L76.5371 38.4609L76.7363 38.4844L76.9121 38.5547L80.1699 39.8086L80.2402 39.832L80.2988 39.8672L83.4512 41.4375L83.627 41.5312L83.7793 41.6602L86.4043 44.0039L89.0293 46.3125H89.0176L91.666 48.6211L91.6777 48.6328H91.6895L94.3027 50.9883L94.3613 51.0469L95.1465 51.8359L95.2246 48.7305L94.8262 45.6133L93.4668 42.7773L91.4863 40.2109L89.0488 38.2188L86.0723 36.7422H86.0605L86.0488 36.7305L83.0371 35.1836L79.8496 34.2695L76.6035 33.7773L73.1113 33.4609H73.0879L70.6436 33.1885L70.5254 33.2305L68.2637 34.0156L66.1895 34.7305L66.2715 32.5391V32.5273L67.7715 32.5742L67.2793 31.1797L69.1895 30.5117L71.3457 28.2734L71.498 28.1211L71.6973 28.0039L74.7441 26.2812L74.8145 26.2344L77.9668 24.6992L77.9785 24.6875L81.166 23.1758L81.3066 23.1172L81.459 23.082L84.8926 22.2617L88.2207 21.3594L91.6191 20.4453L91.7246 20.4102L91.8418 20.3984L95.2168 20.0352L96.3008 19.7256L93.8066 18.0781L90.748 16.918L87.584 16.2852L84.3848 15.9922L81.1973 16.7305L78.0684 17.7031L74.916 19.0273L72.0098 20.7148V20.7266H71.998L69.0918 22.3672L66.3496 24.3594L64.8828 25.6113L64.9043 26.4531L63.9785 26.4648L63.4277 26.582L61.9512 26.875L61.9277 26.7695L61.9043 26.6523V26.5234L61.8223 23.3711L61.0254 20.1484V20.1367L60.0996 16.9375L58.9043 13.7266L57.4512 10.9609L55.1309 8.91016L52.4238 7.28125L49.459 6.40234L46.2363 6.33203L44.0225 6.43457Z" fill="black"/>
</svg>
