<svg width="120" height="120" viewBox="0 0 120 120" fill="none" xmlns="http://www.w3.org/2000/svg">
<path d="M69.3297 54.813L68.1382 55.7243L68.7981 56.5871L69.8238 56.2293L69.3297 54.813ZM67.8179 52.8365L69.0094 51.9253L68.9157 51.8028L68.7992 51.702L67.8179 52.8365ZM65.8147 51.1039L66.796 49.9694L65.7858 49.0957L64.8012 49.9981L65.8147 51.1039ZM63.9423 52.8199L62.9289 51.714L62.488 52.1181L62.446 52.7146L63.9423 52.8199ZM63.7607 55.4024L65.2478 55.5982L65.2538 55.5531L65.257 55.5076L63.7607 55.4024ZM63.414 58.0351L64.8981 58.2524L64.8997 58.2417L64.9011 58.2309L63.414 58.0351ZM63.0317 60.6452L64.5148 60.8696L64.5159 60.8625L63.0317 60.6452ZM62.6349 63.2669L64.059 63.7379L64.099 63.6171L64.118 63.4913L62.6349 63.2669ZM61.803 65.782L63.1472 66.4476L63.194 66.3531L63.2271 66.2531L61.803 65.782ZM60.6266 68.1578L59.2824 67.4922L59.2456 67.5664L59.2173 67.6442L60.6266 68.1578ZM59.7113 70.6694L60.6256 71.8585L60.9713 71.5927L61.1206 71.183L59.7113 70.6694ZM57.5835 72.3054L57.8752 73.7767L58.2195 73.7085L58.4978 73.4945L57.5835 72.3054ZM54.9338 72.8305L54.0757 74.0608L54.5993 74.426L55.2255 74.3019L54.9338 72.8305ZM52.7318 71.2946L51.7215 72.4033L51.7936 72.4691L51.8737 72.5249L52.7318 71.2946ZM50.7833 69.5191L49.7727 70.6275L49.773 70.6278L50.7833 69.5191ZM48.8341 67.7418L49.8447 66.6334L49.7938 66.587L49.7389 66.5454L48.8341 67.7418ZM46.7377 66.1564L45.7066 67.2458L45.7668 67.3028L45.8329 67.3528L46.7377 66.1564ZM44.7945 64.317L45.8256 63.2277L45.5472 62.9641L45.1764 62.8665L44.7945 64.317ZM42.1695 63.6259L41.0972 64.6747L41.3869 64.971L41.7876 65.0765L42.1695 63.6259ZM40.29 61.7042L39.1675 62.6992L39.1919 62.7268L39.2176 62.7531L40.29 61.7042ZM38.5347 59.7241L37.3384 60.6291L37.3736 60.6755L37.4122 60.7191L38.5347 59.7241ZM36.9224 57.5931L38.1187 56.6881L37.814 56.2854L37.3279 56.1489L36.9224 57.5931ZM34.358 56.8731L34.7635 55.429L34.6795 55.4054L34.5935 55.3917L34.358 56.8731ZM31.8297 56.4713L32.0651 54.9899L31.7729 54.9435L31.4849 55.0115L31.8297 56.4713ZM29.3074 57.0671L28.9625 55.6072L28.6752 55.6751L28.4351 55.8468L29.3074 57.0671ZM27.1952 58.5769L26.3229 57.3566L26.2151 57.4337L26.1225 57.5284L27.1952 58.5769ZM25.3405 60.4744L24.2678 59.4259L24.1592 59.537L24.0757 59.6679L25.3405 60.4744ZM23.926 62.6925L24.8715 63.8569L25.0601 63.7038L25.1907 63.499L23.926 62.6925ZM21.8749 64.3579L22.4076 65.7602L22.6332 65.6745L22.8205 65.5224L21.8749 64.3579ZM19.3816 65.305L18.849 63.9028L18.5867 64.0024L18.3782 64.1901L19.3816 65.305ZM17.3928 67.095L18.327 68.2686L18.3625 68.2403L18.3963 68.2099L17.3928 67.095ZM15.3341 68.7337L14.3999 67.5601L14.3409 67.6071L14.2869 67.6597L15.3341 68.7337ZM13.4377 70.5827L12.3906 69.5087L12.2725 69.6238L12.1823 69.7618L13.4377 70.5827ZM11.9876 72.8003L10.7322 71.9794L10.6514 72.103L10.5962 72.2399L11.9876 72.8003ZM11.0231 75.195L9.63173 74.6346L9.57948 74.7644L9.55211 74.9015L11.0231 75.195ZM10.5024 77.8052L9.03135 77.5118L8.98303 77.754L9.01492 77.9989L10.5024 77.8052ZM10.8484 80.4631L12.2867 80.889L12.3768 80.5844L12.3358 80.2695L10.8484 80.4631ZM10.089 83.0281L8.65073 82.6022L8.62565 82.687L8.61068 82.774L10.089 83.0281ZM9.64404 85.6177L8.16571 85.3637L8.15821 85.4073L8.1533 85.4513L9.64404 85.6177ZM9.34757 88.2743L10.7491 88.8087L10.8171 88.6303L10.8383 88.4406L9.34757 88.2743ZM8.39079 90.7833L9.3467 91.9393L9.65145 91.6873L9.79235 91.3178L8.39079 90.7833ZM6.31478 92.5001L5.35887 91.3441L5.20513 91.4713L5.08996 91.6342L6.31478 92.5001ZM4.78233 94.6677L3.55751 93.8018L3.46334 93.935L3.4 94.0853L4.78233 94.6677ZM3.76096 97.092L2.37863 96.5097L2.33229 96.6196L2.30393 96.7355L3.76096 97.092ZM3.13344 99.6568L1.67642 99.3003L1.65853 99.3734L1.64805 99.4479L3.13344 99.6568ZM2.76536 102.275L1.27995 102.066L1.27893 102.074L2.76536 102.275ZM2.41011 104.898L0.923682 104.697L0.900349 104.869L0.917041 105.042L2.41011 104.898ZM2.66606 107.551L4.1644 107.622L4.16947 107.515L4.15913 107.407L2.66606 107.551ZM2.54153 110.19L1.0432 110.119L1.03897 110.209L1.04545 110.298L2.54153 110.19ZM2.73274 112.83L1.23666 112.938L1.24009 112.986L1.24654 113.033L2.73274 112.83ZM3.07878 115.364L1.59258 115.566L1.75755 116.774L2.97359 116.86L3.07878 115.364ZM5.6869 115.547L5.5817 117.043L5.72791 117.053L5.87334 117.035L5.6869 115.547ZM7.32407 115.342L8.81181 115.15L8.62111 113.668L7.13762 113.853L7.32407 115.342ZM69.4241 54.7801L68.93 53.3638L68.8356 53.3967L69.3297 54.813L69.8238 56.2293L69.9182 56.1964L69.4241 54.7801ZM69.3297 54.813L70.5211 53.9017L69.0094 51.9253L67.8179 52.8365L66.6265 53.7478L68.1382 55.7243L69.3297 54.813ZM67.8179 52.8365L68.7992 51.702L66.796 49.9694L65.8147 51.1039L64.8334 52.2384L66.8367 53.9711L67.8179 52.8365ZM65.8147 51.1039L64.8012 49.9981L62.9289 51.714L63.9423 52.8199L64.9558 53.9257L66.8282 52.2098L65.8147 51.1039ZM63.9423 52.8199L62.446 52.7146L62.2644 55.2971L63.7607 55.4024L65.257 55.5076L65.4386 52.9251L63.9423 52.8199ZM63.7607 55.4024L62.2735 55.2065L61.9268 57.8392L63.414 58.0351L64.9011 58.2309L65.2478 55.5982L63.7607 55.4024ZM63.414 58.0351L61.9298 57.8177L61.5475 60.4278L63.0317 60.6452L64.5159 60.8625L64.8981 58.2524L63.414 58.0351ZM63.0317 60.6452L61.5486 60.4207L61.1518 63.0424L62.6349 63.2669L64.118 63.4913L64.5148 60.8696L63.0317 60.6452ZM62.6349 63.2669L61.2108 62.7958L60.3789 65.3109L61.803 65.782L63.2271 66.2531L64.059 63.7379L62.6349 63.2669ZM61.803 65.782L60.4588 65.1164L59.2824 67.4922L60.6266 68.1578L61.9708 68.8234L63.1472 66.4476L61.803 65.782ZM60.6266 68.1578L59.2173 67.6442L58.302 70.1558L59.7113 70.6694L61.1206 71.183L62.0359 68.6714L60.6266 68.1578ZM59.7113 70.6694L58.797 69.4803L56.6692 71.1162L57.5835 72.3054L58.4978 73.4945L60.6256 71.8585L59.7113 70.6694ZM57.5835 72.3054L57.2919 70.834L54.6422 71.3592L54.9338 72.8305L55.2255 74.3019L57.8752 73.7767L57.5835 72.3054ZM54.9338 72.8305L55.792 71.6002L53.5899 70.0643L52.7318 71.2946L51.8737 72.5249L54.0757 74.0608L54.9338 72.8305ZM52.7318 71.2946L53.7421 70.1859L51.7937 68.4104L50.7833 69.5191L49.773 70.6278L51.7215 72.4033L52.7318 71.2946ZM50.7833 69.5191L51.794 68.4107L49.8447 66.6334L48.8341 67.7418L47.8234 68.8502L49.7727 70.6275L50.7833 69.5191ZM48.8341 67.7418L49.7389 66.5454L47.6425 64.96L46.7377 66.1564L45.8329 67.3528L47.9293 68.9382L48.8341 67.7418ZM46.7377 66.1564L47.7689 65.0671L45.8256 63.2277L44.7945 64.317L43.7633 65.4064L45.7066 67.2458L46.7377 66.1564ZM44.7945 64.317L45.1764 62.8665L42.5515 62.1753L42.1695 63.6259L41.7876 65.0765L44.4125 65.7676L44.7945 64.317ZM42.1695 63.6259L43.2419 62.5771L41.3624 60.6554L40.29 61.7042L39.2176 62.7531L41.0972 64.6747L42.1695 63.6259ZM40.29 61.7042L41.4125 60.7092L39.6571 58.729L38.5347 59.7241L37.4122 60.7191L39.1675 62.6992L40.29 61.7042ZM38.5347 59.7241L39.7309 58.8191L38.1187 56.6881L36.9224 57.5931L35.7262 58.4981L37.3384 60.6291L38.5347 59.7241ZM36.9224 57.5931L37.3279 56.1489L34.7635 55.429L34.358 56.8731L33.9526 58.3173L36.517 59.0372L36.9224 57.5931ZM34.358 56.8731L34.5935 55.3917L32.0651 54.9899L31.8297 56.4713L31.5942 57.9527L34.1226 58.3545L34.358 56.8731ZM31.8297 56.4713L31.4849 55.0115L28.9625 55.6072L29.3074 57.0671L29.6522 58.5269L32.1745 57.9311L31.8297 56.4713ZM29.3074 57.0671L28.4351 55.8468L26.3229 57.3566L27.1952 58.5769L28.0674 59.7972L30.1796 58.2874L29.3074 57.0671ZM27.1952 58.5769L26.1225 57.5284L24.2678 59.4259L25.3405 60.4744L26.4131 61.5229L28.2678 59.6254L27.1952 58.5769ZM25.3405 60.4744L24.0757 59.6679L22.6613 61.8859L23.926 62.6925L25.1907 63.499L26.6052 61.281L25.3405 60.4744ZM23.926 62.6925L22.9804 61.528L20.9294 63.1935L21.8749 64.3579L22.8205 65.5224L24.8715 63.8569L23.926 62.6925ZM21.8749 64.3579L21.3423 62.9557L18.849 63.9028L19.3816 65.305L19.9143 66.7073L22.4076 65.7602L21.8749 64.3579ZM19.3816 65.305L18.3782 64.1901L16.3894 65.9801L17.3928 67.095L18.3963 68.2099L20.3851 66.42L19.3816 65.305ZM17.3928 67.095L16.4587 65.9214L14.3999 67.5601L15.3341 68.7337L16.2682 69.9073L18.327 68.2686L17.3928 67.095ZM15.3341 68.7337L14.2869 67.6597L12.3906 69.5087L13.4377 70.5827L14.4849 71.6567L16.3812 69.8077L15.3341 68.7337ZM13.4377 70.5827L12.1823 69.7618L10.7322 71.9794L11.9876 72.8003L13.243 73.6212L14.6931 71.4036L13.4377 70.5827ZM11.9876 72.8003L10.5962 72.2399L9.63173 74.6346L11.0231 75.195L12.4145 75.7554L13.379 73.3607L11.9876 72.8003ZM11.0231 75.195L9.55211 74.9015L9.03135 77.5118L10.5024 77.8052L11.9734 78.0987L12.4941 75.4885L11.0231 75.195ZM10.5024 77.8052L9.01492 77.9989L9.36094 80.6568L10.8484 80.4631L12.3358 80.2695L11.9898 77.6116L10.5024 77.8052ZM10.8484 80.4631L9.4101 80.0373L8.65073 82.6022L10.089 83.0281L11.5273 83.4539L12.2867 80.889L10.8484 80.4631ZM10.089 83.0281L8.61068 82.774L8.16571 85.3637L9.64404 85.6177L11.1224 85.8717L11.5674 83.2821L10.089 83.0281ZM9.64404 85.6177L8.1533 85.4513L7.85683 88.1079L9.34757 88.2743L10.8383 88.4406L11.1348 85.7841L9.64404 85.6177ZM9.34757 88.2743L7.94601 87.7398L6.98923 90.2489L8.39079 90.7833L9.79235 91.3178L10.7491 88.8087L9.34757 88.2743ZM8.39079 90.7833L7.43488 89.6274L5.35887 91.3441L6.31478 92.5001L7.27069 93.656L9.3467 91.9393L8.39079 90.7833ZM6.31478 92.5001L5.08996 91.6342L3.55751 93.8018L4.78233 94.6677L6.00715 95.5336L7.5396 93.366L6.31478 92.5001ZM4.78233 94.6677L3.4 94.0853L2.37863 96.5097L3.76096 97.092L5.14329 97.6744L6.16466 95.2501L4.78233 94.6677ZM3.76096 97.092L2.30393 96.7355L1.67642 99.3003L3.13344 99.6568L4.59046 100.013L5.21798 97.4485L3.76096 97.092ZM3.13344 99.6568L1.64805 99.4479L1.27997 102.066L2.76536 102.275L4.25075 102.484L4.61883 99.8656L3.13344 99.6568ZM2.76536 102.275L1.27893 102.074L0.923682 104.697L2.41011 104.898L3.89654 105.099L4.25179 102.476L2.76536 102.275ZM2.41011 104.898L0.917041 105.042L1.17299 107.695L2.66606 107.551L4.15913 107.407L3.90318 104.754L2.41011 104.898ZM2.66606 107.551L1.16773 107.481L1.0432 110.119L2.54153 110.19L4.03986 110.261L4.1644 107.622L2.66606 107.551ZM2.54153 110.19L1.04545 110.298L1.23666 112.938L2.73274 112.83L4.22882 112.722L4.03761 110.082L2.54153 110.19ZM2.73274 112.83L1.24654 113.033L1.59258 115.566L3.07878 115.364L4.56498 115.161L4.21894 112.627L2.73274 112.83ZM3.07878 115.364L2.97359 116.86L5.5817 117.043L5.6869 115.547L5.79209 114.051L3.18397 113.867L3.07878 115.364ZM5.6869 115.547L5.87334 117.035L7.51051 116.83L7.32407 115.342L7.13762 113.853L5.50046 114.058L5.6869 115.547ZM7.32407 115.342L5.83632 115.533L5.83842 115.549L7.32617 115.358L8.81391 115.167L8.81181 115.15L7.32407 115.342Z" fill="black"/>
<path d="M52.0932 83.4513L51.8853 81.9658L51.8248 81.9743L51.7652 81.9876L52.0932 83.4513ZM54.6138 83.0987L54.6506 81.5991L54.5277 81.5961L54.406 81.6131L54.6138 83.0987ZM57.2714 83.164L57.2345 84.6635L57.4621 84.6691L57.6812 84.6069L57.2714 83.164ZM59.8239 82.4389L60.2338 83.8819L60.3289 83.8549L60.4197 83.8156L59.8239 82.4389ZM62.2217 81.4013L62.8174 82.7779L62.8575 82.7606L62.8965 82.7409L62.2217 81.4013ZM64.5692 80.2187L65.2441 81.5583L65.4174 81.471L65.5628 81.3424L64.5692 80.2187ZM66.5463 78.4706L67.5399 79.5943L67.6957 79.4565L67.8082 79.2814L66.5463 78.4706ZM67.9656 76.2615L69.2276 77.0724L69.2661 77.0125L69.2987 76.9492L67.9656 76.2615ZM69.1647 73.9368L70.4978 74.6244L70.5139 74.5932L70.5286 74.5612L69.1647 73.9368ZM70.2731 71.516L71.6369 72.1404L71.7528 71.8873L71.7701 71.6095L70.2731 71.516ZM70.4399 68.8448L68.9826 68.4896L68.9511 68.6187L68.9428 68.7513L70.4399 68.8448ZM71.0663 66.275L69.6731 65.7192L69.6339 65.8172L69.6089 65.9198L71.0663 66.275ZM72.0749 63.7468L71.9086 62.2561L71.0149 62.3558L70.6817 63.191L72.0749 63.7468ZM74.764 63.4468L74.7229 61.9474L74.6601 61.9491L74.5977 61.9561L74.764 63.4468ZM77.4031 63.3745L77.4442 64.874L77.4713 64.8732L77.4983 64.8715L77.4031 63.3745ZM80.0279 63.2076L80.1232 64.7046L80.4024 64.6868L80.6564 64.5696L80.0279 63.2076ZM82.2635 62.1761L82.8919 63.5381L83.39 63.3082L83.6223 62.8113L82.2635 62.1761ZM83.3419 59.8692L84.7008 60.5045L85.1982 59.4406L84.2847 58.7025L83.3419 59.8692ZM81.324 58.2386L82.2668 57.0719L82.1586 56.9845L82.0363 56.9185L81.324 58.2386ZM79.0081 56.989L79.7204 55.6689L79.6463 55.6289L79.5683 55.5975L79.0081 56.989ZM76.5494 55.9992L75.593 57.1547L75.7728 57.3035L75.9892 57.3906L76.5494 55.9992ZM74.5021 54.3047L75.4585 53.1491L75.1962 52.932L74.8659 52.8495L74.5021 54.3047ZM72.0809 53.6994L72.4447 52.2442L72.0469 52.1448L71.6538 52.2615L72.0809 53.6994ZM69.7201 54.4007L68.3429 54.995L68.8706 56.2178L70.1472 55.8386L69.7201 54.4007ZM51.9956 83.4732L52.3236 84.9369L52.4212 84.915L52.0932 83.4513L51.7652 81.9876L51.6676 82.0095L51.9956 83.4732ZM52.0932 83.4513L52.301 84.9369L54.8217 84.5842L54.6138 83.0987L54.406 81.6131L51.8853 81.9658L52.0932 83.4513ZM54.6138 83.0987L54.577 84.5982L57.2345 84.6635L57.2714 83.164L57.3082 81.6644L54.6506 81.5991L54.6138 83.0987ZM57.2714 83.164L57.6812 84.6069L60.2338 83.8819L59.8239 82.4389L59.4141 80.996L56.8615 81.721L57.2714 83.164ZM59.8239 82.4389L60.4197 83.8156L62.8174 82.7779L62.2217 81.4013L61.6259 80.0247L59.2282 81.0623L59.8239 82.4389ZM62.2217 81.4013L62.8965 82.7409L65.2441 81.5583L64.5692 80.2187L63.8943 78.8791L61.5468 80.0617L62.2217 81.4013ZM64.5692 80.2187L65.5628 81.3424L67.5399 79.5943L66.5463 78.4706L65.5527 77.3468L63.5756 79.095L64.5692 80.2187ZM66.5463 78.4706L67.8082 79.2814L69.2276 77.0724L67.9656 76.2615L66.7037 75.4507L65.2843 77.6597L66.5463 78.4706ZM67.9656 76.2615L69.2987 76.9492L70.4978 74.6244L69.1647 73.9368L67.8316 73.2492L66.6325 75.5739L67.9656 76.2615ZM69.1647 73.9368L70.5286 74.5612L71.6369 72.1404L70.2731 71.516L68.9092 70.8915L67.8009 73.3124L69.1647 73.9368ZM70.2731 71.516L71.7701 71.6095L71.937 68.9384L70.4399 68.8448L68.9428 68.7513L68.776 71.4224L70.2731 71.516ZM70.4399 68.8448L71.8973 69.2L72.5236 66.6302L71.0663 66.275L69.6089 65.9198L68.9826 68.4896L70.4399 68.8448ZM71.0663 66.275L72.4595 66.8309L73.4681 64.3027L72.0749 63.7468L70.6817 63.191L69.6731 65.7192L71.0663 66.275ZM72.0749 63.7468L72.2413 65.2376L74.9303 64.9376L74.764 63.4468L74.5977 61.9561L71.9086 62.2561L72.0749 63.7468ZM74.764 63.4468L74.805 64.9463L77.4442 64.874L77.4031 63.3745L77.362 61.8751L74.7229 61.9474L74.764 63.4468ZM77.4031 63.3745L77.4983 64.8715L80.1232 64.7046L80.0279 63.2076L79.9327 61.7106L77.3079 61.8776L77.4031 63.3745ZM80.0279 63.2076L80.6564 64.5696L82.8919 63.5381L82.2635 62.1761L81.635 60.8141L79.3995 61.8456L80.0279 63.2076ZM82.2635 62.1761L83.6223 62.8113L84.7008 60.5045L83.3419 59.8692L81.9831 59.2339L80.9046 61.5408L82.2635 62.1761ZM83.3419 59.8692L84.2847 58.7025L82.2668 57.0719L81.324 58.2386L80.3812 59.4053L82.3992 61.0359L83.3419 59.8692ZM81.324 58.2386L82.0363 56.9185L79.7204 55.6689L79.0081 56.989L78.2958 58.3091L80.6117 59.5587L81.324 58.2386ZM79.0081 56.989L79.5683 55.5975L77.1096 54.6077L76.5494 55.9992L75.9892 57.3906L78.4479 58.3805L79.0081 56.989ZM76.5494 55.9992L77.5058 54.8436L75.4585 53.1491L74.5021 54.3047L73.5457 55.4602L75.593 57.1547L76.5494 55.9992ZM74.5021 54.3047L74.8659 52.8495L72.4447 52.2442L72.0809 53.6994L71.7171 55.1547L74.1383 55.7599L74.5021 54.3047ZM72.0809 53.6994L71.6538 52.2615L69.293 52.9627L69.7201 54.4007L70.1472 55.8386L72.508 55.1373L72.0809 53.6994ZM69.7201 54.4007L71.0973 53.8063L71.047 53.6896L69.6698 54.284L68.2926 54.8784L68.3429 54.995L69.7201 54.4007Z" fill="black"/>
<path d="M42.1592 79.1572L40.6875 78.867L40.6248 79.1853L40.6992 79.5011L42.1592 79.1572ZM42.7413 81.628L44.2168 81.3584L44.21 81.321L44.2013 81.2841L42.7413 81.628ZM43.218 84.237L44.7179 84.2195L44.7164 84.0924L44.6936 83.9674L43.218 84.237ZM43.2462 86.653L44.0999 87.8863L44.7554 87.4326L44.7461 86.6355L43.2462 86.653ZM41.1521 88.1025L40.2984 86.8691L40.0717 87.026L39.9156 87.2533L41.1521 88.1025ZM39.684 90.2401L38.4475 89.3909L38.3297 89.5624L38.2631 89.7594L39.684 90.2401ZM38.8378 92.7412L37.4169 92.2605L37.4091 92.2837L37.402 92.3072L38.8378 92.7412ZM38.073 95.272L39.4735 95.8094L39.4931 95.7583L39.5089 95.7059L38.073 95.272ZM37.1285 97.7337L38.4949 98.3526L38.5132 98.3123L38.529 98.271L37.1285 97.7337ZM36.0311 100.157L34.6647 99.5378L34.5689 99.7494L34.5415 99.98L36.0311 100.157ZM35.7159 102.814L37.144 103.273L37.1884 103.134L37.2055 102.99L35.7159 102.814ZM34.9079 105.327L33.4798 104.868L33.4482 104.967L33.4304 105.068L34.9079 105.327ZM34.4513 107.931L35.8629 108.438L35.9065 108.317L35.9288 108.19L34.4513 107.931ZM33.5519 110.432L32.1403 109.925L32.0981 110.042L32.0759 110.165L33.5519 110.432ZM33.0807 113.031L31.6047 112.764L31.5424 113.108L31.6384 113.444L33.0807 113.031ZM33.7185 115.263L32.2762 115.675L32.5771 116.728L33.6714 116.762L33.7185 115.263ZM36.2585 115.343L36.2115 116.842L36.2393 116.843L36.2671 116.843L36.2585 115.343ZM38.9188 115.328L38.9273 116.828L39.2258 116.826L39.5009 116.71L38.9188 115.328ZM42.1786 79.0591L40.7069 78.7689L40.6875 78.867L42.1592 79.1572L43.6309 79.4474L43.6502 79.3493L42.1786 79.0591ZM42.1592 79.1572L40.6992 79.5011L41.2812 81.972L42.7413 81.628L44.2013 81.2841L43.6192 78.8132L42.1592 79.1572ZM42.7413 81.628L41.2657 81.8976L41.7425 84.5067L43.218 84.237L44.6936 83.9674L44.2168 81.3584L42.7413 81.628ZM43.218 84.237L41.7181 84.2545L41.7463 86.6705L43.2462 86.653L44.7461 86.6355L44.7179 84.2195L43.218 84.237ZM43.2462 86.653L42.3925 85.4196L40.2984 86.8691L41.1521 88.1025L42.0058 89.3358L44.0999 87.8863L43.2462 86.653ZM41.1521 88.1025L39.9156 87.2533L38.4475 89.3909L39.684 90.2401L40.9204 91.0893L42.3886 88.9517L41.1521 88.1025ZM39.684 90.2401L38.2631 89.7594L37.4169 92.2605L38.8378 92.7412L40.2587 93.2219L41.1049 90.7208L39.684 90.2401ZM38.8378 92.7412L37.402 92.3072L36.6372 94.8381L38.073 95.272L39.5089 95.7059L40.2737 93.1751L38.8378 92.7412ZM38.073 95.272L36.6726 94.7347L35.7281 97.1964L37.1285 97.7337L38.529 98.271L39.4735 95.8094L38.073 95.272ZM37.1285 97.7337L35.7622 97.1148L34.6647 99.5378L36.0311 100.157L37.3975 100.776L38.4949 98.3526L37.1285 97.7337ZM36.0311 100.157L34.5415 99.98L34.2264 102.637L35.7159 102.814L37.2055 102.99L37.5206 100.333L36.0311 100.157ZM35.7159 102.814L34.2879 102.355L33.4798 104.868L34.9079 105.327L36.3359 105.786L37.144 103.273L35.7159 102.814ZM34.9079 105.327L33.4304 105.068L32.9739 107.671L34.4513 107.931L35.9288 108.19L36.3853 105.587L34.9079 105.327ZM34.4513 107.931L33.0398 107.423L32.1403 109.925L33.5519 110.432L34.9634 110.94L35.8629 108.438L34.4513 107.931ZM33.5519 110.432L32.0759 110.165L31.6047 112.764L33.0807 113.031L34.5566 113.299L35.0278 110.7L33.5519 110.432ZM33.0807 113.031L31.6384 113.444L32.2762 115.675L33.7185 115.263L35.1607 114.851L34.5229 112.619L33.0807 113.031ZM33.7185 115.263L33.6714 116.762L36.2115 116.842L36.2585 115.343L36.3056 113.844L33.7655 113.764L33.7185 115.263ZM36.2585 115.343L36.2671 116.843L38.9273 116.828L38.9188 115.328L38.9102 113.828L36.25 113.843L36.2585 115.343ZM38.9188 115.328L39.5009 116.71L40.3038 116.372L39.7218 114.99L39.1397 113.607L38.3367 113.945L38.9188 115.328Z" fill="black"/>
<path d="M51.2743 81.1169L52.7589 80.9025L52.7576 80.8934L52.7562 80.8843L51.2743 81.1169ZM51.6374 83.6314L53.1369 83.5912L53.1345 83.5037L53.122 83.417L51.6374 83.6314ZM51.7086 86.2858L50.2091 86.326L50.2138 86.5006L50.2584 86.6694L51.7086 86.2858ZM52.3871 88.8511L53.8464 88.5044L53.8421 88.486L53.8372 88.4676L52.3871 88.8511ZM52.9967 91.4173L54.4805 91.1972L54.471 91.1333L54.4561 91.0706L52.9967 91.4173ZM53.3849 94.0336L51.9011 94.2537L51.912 94.3269L51.93 94.3986L53.3849 94.0336ZM54.0273 96.594L52.5724 96.959L52.5802 96.9898L52.5892 97.0203L54.0273 96.594ZM54.7801 99.1333L56.258 98.8768L56.2431 98.7907L56.2182 98.707L54.7801 99.1333ZM55.2319 101.736L56.7246 101.587L56.7192 101.533L56.7098 101.479L55.2319 101.736ZM55.495 104.384L54.0024 104.532L54.0277 104.787L54.136 105.019L55.495 104.384ZM56.6258 106.804L58.0327 106.284L58.0111 106.225L57.9848 106.169L56.6258 106.804ZM57.5328 109.258L56.1258 109.778L56.2078 109.999L56.3541 110.185L57.5328 109.258ZM59.1521 111.315L60.4596 110.58L60.4027 110.479L60.3308 110.387L59.1521 111.315ZM60.4562 113.634L61.7711 112.912L61.7674 112.906L61.7636 112.899L60.4562 113.634ZM61.3298 115.226L61.8223 116.642L63.4988 116.06L62.6447 114.504L61.3298 115.226ZM51.2588 81.0181L49.7769 81.2506L49.7924 81.3494L51.2743 81.1169L52.7562 80.8843L52.7407 80.7855L51.2588 81.0181ZM51.2743 81.1169L49.7897 81.3312L50.1528 83.8458L51.6374 83.6314L53.122 83.417L52.7589 80.9025L51.2743 81.1169ZM51.6374 83.6314L50.1379 83.6716L50.2091 86.326L51.7086 86.2858L53.2081 86.2456L53.1369 83.5912L51.6374 83.6314ZM51.7086 86.2858L50.2584 86.6694L50.9369 89.2347L52.3871 88.8511L53.8372 88.4676L53.1587 85.9023L51.7086 86.2858ZM52.3871 88.8511L50.9277 89.1979L51.5373 91.764L52.9967 91.4173L54.4561 91.0706L53.8464 88.5044L52.3871 88.8511ZM52.9967 91.4173L51.513 91.6374L51.9011 94.2537L53.3849 94.0336L54.8686 93.8134L54.4805 91.1972L52.9967 91.4173ZM53.3849 94.0336L51.93 94.3986L52.5724 96.959L54.0273 96.594L55.4822 96.2289L54.8398 93.6685L53.3849 94.0336ZM54.0273 96.594L52.5892 97.0203L53.342 99.5597L54.7801 99.1333L56.2182 98.707L55.4655 96.1676L54.0273 96.594ZM54.7801 99.1333L53.3022 99.3899L53.754 101.992L55.2319 101.736L56.7098 101.479L56.258 98.8768L54.7801 99.1333ZM55.2319 101.736L53.7393 101.884L54.0024 104.532L55.495 104.384L56.9877 104.235L56.7246 101.587L55.2319 101.736ZM55.495 104.384L54.136 105.019L55.2668 107.439L56.6258 106.804L57.9848 106.169L56.854 103.749L55.495 104.384ZM56.6258 106.804L55.2188 107.324L56.1258 109.778L57.5328 109.258L58.9397 108.738L58.0327 106.284L56.6258 106.804ZM57.5328 109.258L56.3541 110.185L57.9735 112.243L59.1521 111.315L60.3308 110.387L58.7114 108.33L57.5328 109.258ZM59.1521 111.315L57.8447 112.05L59.1487 114.369L60.4562 113.634L61.7636 112.899L60.4596 110.58L59.1521 111.315ZM60.4562 113.634L59.1413 114.356L60.0149 115.947L61.3298 115.226L62.6447 114.504L61.7711 112.912L60.4562 113.634ZM61.3298 115.226L60.8373 113.809L60.8244 113.813L61.3169 115.23L61.8094 116.647L61.8223 116.642L61.3298 115.226Z" fill="black"/>
<path d="M21.3287 79.1582L22.8236 79.0351L22.8205 78.9975L22.8156 78.9601L21.3287 79.1582ZM21.5357 81.6713L20.0407 81.7944L20.0505 81.9124L20.0786 82.0275L21.5357 81.6713ZM22.1653 84.2471L20.7082 84.6033L20.7495 84.7721L20.8282 84.927L22.1653 84.2471ZM23.3558 86.5885L24.8558 86.5915L24.8565 86.2304L24.6929 85.9086L23.3558 86.5885ZM23.3505 89.2612L24.7836 89.7041L24.85 89.4892L24.8505 89.2642L23.3505 89.2612ZM22.5661 91.7994L21.1329 91.3565L21.1161 91.4109L21.1035 91.4663L22.5661 91.7994ZM21.9799 94.3735L20.5173 94.0405L20.5092 94.0763L20.5028 94.1124L21.9799 94.3735ZM21.5183 96.9845L22.9234 97.5094L22.9715 97.3808L22.9954 97.2456L21.5183 96.9845ZM20.5895 99.4706L19.1843 98.9456L19.1265 99.1004L19.1037 99.2641L20.5895 99.4706ZM20.2281 102.071L18.7423 101.865L18.6753 102.347L18.9044 102.777L20.2281 102.071ZM21.4909 104.44L22.9226 103.992L22.8807 103.858L22.8145 103.734L21.4909 104.44ZM22.2775 106.957L20.8458 107.404L20.8897 107.544L20.96 107.674L22.2775 106.957ZM23.5332 109.264L24.8894 108.623L24.8712 108.584L24.8507 108.547L23.5332 109.264ZM24.663 111.655L23.3068 112.295L23.3702 112.43L23.4587 112.549L24.663 111.655ZM26.2188 113.75L27.526 113.014L27.4796 112.932L27.4231 112.856L26.2188 113.75ZM27.0026 115.143L28.3273 115.847L28.7121 115.122L28.3098 114.407L27.0026 115.143ZM21.3155 79.0591L19.8286 79.2572L19.8418 79.3563L21.3287 79.1582L22.8156 78.9601L22.8024 78.861L21.3155 79.0591ZM21.3287 79.1582L19.8338 79.2813L20.0407 81.7944L21.5357 81.6713L23.0306 81.5482L22.8236 79.0351L21.3287 79.1582ZM21.5357 81.6713L20.0786 82.0275L20.7082 84.6033L22.1653 84.2471L23.6224 83.891L22.9928 81.3151L21.5357 81.6713ZM22.1653 84.2471L20.8282 84.927L22.0187 87.2683L23.3558 86.5885L24.6929 85.9086L23.5024 83.5673L22.1653 84.2471ZM23.3558 86.5885L21.8558 86.5855L21.8505 89.2582L23.3505 89.2612L24.8505 89.2642L24.8558 86.5915L23.3558 86.5885ZM23.3505 89.2612L21.9174 88.8183L21.1329 91.3565L22.5661 91.7994L23.9992 92.2423L24.7836 89.7041L23.3505 89.2612ZM22.5661 91.7994L21.1035 91.4663L20.5173 94.0405L21.9799 94.3735L23.4424 94.7066L24.0286 92.1325L22.5661 91.7994ZM21.9799 94.3735L20.5028 94.1124L20.0412 96.7233L21.5183 96.9845L22.9954 97.2456L23.457 94.6347L21.9799 94.3735ZM21.5183 96.9845L20.1131 96.4595L19.1843 98.9456L20.5895 99.4706L21.9946 99.9955L22.9234 97.5094L21.5183 96.9845ZM20.5895 99.4706L19.1037 99.2641L18.7423 101.865L20.2281 102.071L21.7138 102.278L22.0752 99.677L20.5895 99.4706ZM20.2281 102.071L18.9044 102.777L20.1672 105.146L21.4909 104.44L22.8145 103.734L21.5517 101.366L20.2281 102.071ZM21.4909 104.44L20.0592 104.887L20.8458 107.404L22.2775 106.957L23.7092 106.509L22.9226 103.992L21.4909 104.44ZM22.2775 106.957L20.96 107.674L22.2157 109.981L23.5332 109.264L24.8507 108.547L23.595 106.24L22.2775 106.957ZM23.5332 109.264L22.177 109.905L23.3068 112.295L24.663 111.655L26.0192 111.014L24.8894 108.623L23.5332 109.264ZM24.663 111.655L23.4587 112.549L25.0144 114.644L26.2188 113.75L27.4231 112.856L25.8674 110.76L24.663 111.655ZM26.2188 113.75L24.9115 114.486L25.6954 115.879L27.0026 115.143L28.3098 114.407L27.526 113.014L26.2188 113.75ZM27.0026 115.143L25.6779 114.439L25.6316 114.526L26.9563 115.23L28.281 115.934L28.3273 115.847L27.0026 115.143Z" fill="black"/>
<path d="M43.7032 86.7458L42.4119 87.509L42.462 87.5938L42.5228 87.6713L43.7032 86.7458ZM45.2764 88.7522L46.7519 88.4822L46.6853 88.118L46.4568 87.8266L45.2764 88.7522ZM45.7564 91.3762L44.2809 91.6461L44.3632 92.0961L44.6826 92.4236L45.7564 91.3762ZM47.6157 93.2824L48.8061 92.3696L48.7518 92.2989L48.6895 92.2351L47.6157 93.2824ZM49.2393 95.3996L50.6627 94.9263L50.5831 94.687L50.4296 94.4868L49.2393 95.3996ZM50.0768 97.9187L48.6534 98.3919L48.6562 98.4002L50.0768 97.9187ZM50.9238 100.418L49.5032 100.899L49.5096 100.918L49.5166 100.937L50.9238 100.418ZM51.8413 102.903L53.3029 102.566L53.2815 102.473L53.2484 102.383L51.8413 102.903ZM52.4351 105.479L53.9223 105.283L53.9129 105.212L53.8967 105.142L52.4351 105.479ZM52.7816 108.115L51.2944 108.311L51.3251 108.544L51.4257 108.757L52.7816 108.115ZM53.9255 110.533L55.3843 110.184L55.3481 110.033L55.2815 109.892L53.9255 110.533ZM54.5425 113.111L53.0837 113.46L53.1289 113.649L53.2206 113.82L54.5425 113.111ZM55.6611 115.196L54.3393 115.905L54.6786 116.538L55.3843 116.671L55.6611 115.196ZM58.1671 115.667L57.8903 117.141L58.1824 117.196L58.4734 117.135L58.1671 115.667ZM60.7404 115.13L61.0467 116.599L61.115 116.584L61.1817 116.564L60.7404 115.13ZM43.6523 86.6597L42.361 87.4229L42.4119 87.509L43.7032 86.7458L44.9945 85.9825L44.9437 85.8965L43.6523 86.6597ZM43.7032 86.7458L42.5228 87.6713L44.096 89.6777L45.2764 88.7522L46.4568 87.8266L44.8836 85.8202L43.7032 86.7458ZM45.2764 88.7522L43.8009 89.0221L44.2809 91.6461L45.7564 91.3762L47.2319 91.1063L46.7519 88.4822L45.2764 88.7522ZM45.7564 91.3762L44.6826 92.4236L46.542 94.3298L47.6157 93.2824L48.6895 92.2351L46.8302 90.3288L45.7564 91.3762ZM47.6157 93.2824L46.4254 94.1952L48.049 96.3124L49.2393 95.3996L50.4296 94.4868L48.8061 92.3696L47.6157 93.2824ZM49.2393 95.3996L47.8159 95.8728L48.6534 98.3919L50.0768 97.9187L51.5002 97.4454L50.6627 94.9263L49.2393 95.3996ZM50.0768 97.9187L48.6562 98.4002L49.5032 100.899L50.9238 100.418L52.3444 99.9363L51.4974 97.4372L50.0768 97.9187ZM50.9238 100.418L49.5166 100.937L50.4341 103.422L51.8413 102.903L53.2484 102.383L52.331 99.8983L50.9238 100.418ZM51.8413 102.903L50.3796 103.24L50.9734 105.816L52.4351 105.479L53.8967 105.142L53.3029 102.566L51.8413 102.903ZM52.4351 105.479L50.9478 105.674L51.2944 108.311L52.7816 108.115L54.2688 107.92L53.9223 105.283L52.4351 105.479ZM52.7816 108.115L51.4257 108.757L52.5696 111.175L53.9255 110.533L55.2815 109.892L54.1376 107.474L52.7816 108.115ZM53.9255 110.533L52.4668 110.883L53.0837 113.46L54.5425 113.111L56.0013 112.762L55.3843 110.184L53.9255 110.533ZM54.5425 113.111L53.2206 113.82L54.3393 115.905L55.6611 115.196L56.983 114.487L55.8644 112.402L54.5425 113.111ZM55.6611 115.196L55.3843 116.671L57.8903 117.141L58.1671 115.667L58.444 114.193L55.938 113.722L55.6611 115.196ZM58.1671 115.667L58.4734 117.135L61.0467 116.599L60.7404 115.13L60.434 113.662L57.8608 114.199L58.1671 115.667ZM60.7404 115.13L61.1817 116.564L61.2716 116.536L60.8303 115.103L60.3889 113.669L60.299 113.697L60.7404 115.13Z" fill="black"/>
<path d="M68.5387 76.8729L69.3783 75.6299L69.1518 75.477L68.886 75.4137L68.5387 76.8729ZM70.6401 78.2923L69.8005 79.5353L69.8469 79.5667L69.8955 79.5945L70.6401 78.2923ZM72.9455 79.6104L72.2009 80.9126L72.4894 81.0775L72.8204 81.1052L72.9455 79.6104ZM75.5915 79.8317L75.4665 81.3265L75.595 81.3373L75.7235 81.3259L75.5915 79.8317ZM78.1894 79.6023L78.3214 81.0965L78.3719 81.092L78.4221 81.0841L78.1894 79.6023ZM80.7868 79.1944L81.0195 80.6763L81.178 80.6514L81.3276 80.5936L80.7868 79.1944ZM83.2497 78.2425L83.7905 79.6416L83.936 79.5854L84.0668 79.5004L83.2497 78.2425ZM85.4641 76.8042L85.0328 75.3676L84.8272 75.4293L84.6471 75.5463L85.4641 76.8042ZM87.9916 76.0455L88.4229 77.4821L88.8462 77.3551L89.133 77.0187L87.9916 76.0455ZM89.6763 74.0697L90.8177 75.0429L91.1063 74.7044L91.1637 74.2633L89.6763 74.0697ZM90.0218 71.4159L88.5948 70.9536L88.5522 71.0851L88.5343 71.2222L90.0218 71.4159ZM90.8365 68.9007L92.2635 69.363L92.2798 69.3127L92.2925 69.2614L90.8365 68.9007ZM91.4761 66.3188L90.1996 65.531L90.0765 65.7305L90.0202 65.9581L91.4761 66.3188ZM92.8777 64.0476L91.6215 63.2278L91.6111 63.2437L91.6011 63.2598L92.8777 64.0476ZM94.3163 61.8429L93.1674 60.8785L93.1094 60.9476L93.0601 61.0232L94.3163 61.8429ZM96.0158 59.8183L97.1647 60.7827L97.1798 60.7647L97.1944 60.7462L96.0158 59.8183ZM97.6561 57.7347L97.4824 56.2448L96.8631 56.317L96.4775 56.8069L97.6561 57.7347ZM100.262 57.4308L100.545 55.9576L100.318 55.9142L100.089 55.9409L100.262 57.4308ZM102.878 57.9322L103.948 56.8811L103.62 56.5472L103.161 56.459L102.878 57.9322ZM104.759 59.8469L105.948 58.9326L105.893 58.8606L105.829 58.7958L104.759 59.8469ZM106.378 61.9524L107.831 61.583L107.755 61.2833L107.567 61.0381L106.378 61.9524ZM107.032 64.5283L105.578 64.8977L105.61 65.0214L105.662 65.1381L107.032 64.5283ZM108.123 66.9793L109.615 66.8266L109.591 66.5883L109.493 66.3695L108.123 66.9793ZM108.393 69.6184L106.901 69.7711L106.901 69.7739L108.393 69.6184ZM108.667 72.2496L110.165 72.1738L110.163 72.1338L110.159 72.094L108.667 72.2496ZM108.801 74.8892L110.3 74.9279L110.302 74.8706L110.299 74.8134L108.801 74.8892ZM108.732 77.5591L107.232 77.5204L107.223 77.8733L107.372 78.1933L108.732 77.5591ZM109.86 79.9779L108.501 80.6122L108.517 80.6474L108.536 80.6817L109.86 79.9779ZM111.099 82.3094L112.457 81.672L112.441 81.6384L112.424 81.6057L111.099 82.3094ZM112.268 84.7993L110.91 85.4368L111.357 86.388L112.403 86.2932L112.268 84.7993ZM68.4414 76.8498L68.0941 78.309L68.1914 78.3322L68.5387 76.8729L68.886 75.4137L68.7887 75.3905L68.4414 76.8498ZM68.5387 76.8729L67.6991 78.116L69.8005 79.5353L70.6401 78.2923L71.4797 77.0493L69.3783 75.6299L68.5387 76.8729ZM70.6401 78.2923L69.8955 79.5945L72.2009 80.9126L72.9455 79.6104L73.69 78.3082L71.3846 76.9901L70.6401 78.2923ZM72.9455 79.6104L72.8204 81.1052L75.4665 81.3265L75.5915 79.8317L75.7165 78.337L73.0705 78.1156L72.9455 79.6104ZM75.5915 79.8317L75.7235 81.3259L78.3214 81.0965L78.1894 79.6023L78.0575 78.1081L75.4596 78.3375L75.5915 79.8317ZM78.1894 79.6023L78.4221 81.0841L81.0195 80.6763L80.7868 79.1944L80.5542 77.7126L77.9567 78.1205L78.1894 79.6023ZM80.7868 79.1944L81.3276 80.5936L83.7905 79.6416L83.2497 78.2425L82.709 76.8433L80.2461 77.7953L80.7868 79.1944ZM83.2497 78.2425L84.0668 79.5004L86.2812 78.0622L85.4641 76.8042L84.6471 75.5463L82.4327 76.9845L83.2497 78.2425ZM85.4641 76.8042L85.8954 78.2409L88.4229 77.4821L87.9916 76.0455L87.5603 74.6088L85.0328 75.3676L85.4641 76.8042ZM87.9916 76.0455L89.133 77.0187L90.8177 75.0429L89.6763 74.0697L88.5349 73.0964L86.8502 75.0722L87.9916 76.0455ZM89.6763 74.0697L91.1637 74.2633L91.5092 71.6095L90.0218 71.4159L88.5343 71.2222L88.1888 73.876L89.6763 74.0697ZM90.0218 71.4159L91.4488 71.8781L92.2635 69.363L90.8365 68.9007L89.4095 68.4385L88.5948 70.9536L90.0218 71.4159ZM90.8365 68.9007L92.2925 69.2614L92.9321 66.6794L91.4761 66.3188L90.0202 65.9581L89.3805 68.54L90.8365 68.9007ZM91.4761 66.3188L92.7527 67.1065L94.1542 64.8353L92.8777 64.0476L91.6011 63.2598L90.1996 65.531L91.4761 66.3188ZM92.8777 64.0476L94.1339 64.8673L95.5725 62.6627L94.3163 61.8429L93.0601 61.0232L91.6215 63.2278L92.8777 64.0476ZM94.3163 61.8429L95.4652 62.8073L97.1647 60.7827L96.0158 59.8183L94.867 58.8539L93.1674 60.8785L94.3163 61.8429ZM96.0158 59.8183L97.1944 60.7462L98.8347 58.6626L97.6561 57.7347L96.4775 56.8069L94.8372 58.8905L96.0158 59.8183ZM97.6561 57.7347L97.8299 59.2246L100.436 58.9207L100.262 57.4308L100.089 55.9409L97.4824 56.2448L97.6561 57.7347ZM100.262 57.4308L99.9799 58.904L102.596 59.4054L102.878 57.9322L103.161 56.459L100.545 55.9576L100.262 57.4308ZM102.878 57.9322L101.808 58.9833L103.689 60.898L104.759 59.8469L105.829 58.7958L103.948 56.8811L102.878 57.9322ZM104.759 59.8469L103.57 60.7612L105.189 62.8667L106.378 61.9524L107.567 61.0381L105.948 58.9326L104.759 59.8469ZM106.378 61.9524L104.924 62.3218L105.578 64.8977L107.032 64.5283L108.486 64.1589L107.831 61.583L106.378 61.9524ZM107.032 64.5283L105.662 65.1381L106.752 67.5891L108.123 66.9793L109.493 66.3695L108.403 63.9185L107.032 64.5283ZM108.123 66.9793L106.631 67.1319L106.901 69.7711L108.393 69.6184L109.885 69.4657L109.615 66.8266L108.123 66.9793ZM108.393 69.6184L106.901 69.7739L107.175 72.4051L108.667 72.2496L110.159 72.094L109.885 69.4629L108.393 69.6184ZM108.667 72.2496L107.169 72.3253L107.303 74.965L108.801 74.8892L110.299 74.8134L110.165 72.1738L108.667 72.2496ZM108.801 74.8892L107.301 74.8505L107.232 77.5204L108.732 77.5591L110.231 77.5978L110.3 74.9279L108.801 74.8892ZM108.732 77.5591L107.372 78.1933L108.501 80.6122L109.86 79.9779L111.22 79.3437L110.091 76.9248L108.732 77.5591ZM109.86 79.9779L108.536 80.6817L109.774 83.0131L111.099 82.3094L112.424 81.6057L111.185 79.2742L109.86 79.9779ZM111.099 82.3094L109.741 82.9468L110.91 85.4368L112.268 84.7993L113.626 84.1619L112.457 81.672L111.099 82.3094ZM112.268 84.7993L112.403 86.2932L113.492 86.1946L113.357 84.7007L113.221 83.2068L112.132 83.3054L112.268 84.7993Z" fill="black"/>
<path d="M104.299 58.7284L103.024 57.9395L102.896 58.1457L102.84 58.3816L104.299 58.7284ZM105.635 56.5675L106.911 57.3564L106.918 57.3461L106.924 57.3358L105.635 56.5675ZM106.997 54.2841L108.285 55.0523L108.468 54.7457L108.493 54.3895L106.997 54.2841ZM107.183 51.6381L108.68 51.7434L108.694 51.5406L108.654 51.3412L107.183 51.6381ZM106.666 49.0745L105.244 48.5972L105.116 48.9778L105.195 49.3713L106.666 49.0745ZM107.506 46.5721L108.928 47.0495L109.192 46.2626L108.666 45.6209L107.506 46.5721ZM105.946 44.6703L107.106 43.719L106.75 43.2856L106.198 43.1916L105.946 44.6703ZM103.355 44.2294L103.607 42.7507L103.422 42.7193L103.236 42.7341L103.355 44.2294ZM100.825 44.4314L100.705 42.9361L100.415 42.9593L100.154 43.0898L100.825 44.4314ZM98.4485 45.6199L97.7775 44.2784L97.4169 44.4588L97.1953 44.7956L98.4485 45.6199ZM96.9897 47.8378L95.7365 47.0135L95.6524 47.1413L95.5958 47.2835L96.9897 47.8378ZM96.0469 50.2084L94.6531 49.6541L94.3943 50.305L94.7271 50.9213L96.0469 50.2084ZM97.1005 52.159L95.7807 52.8718L96.2499 53.7404L97.2331 53.6531L97.1005 52.159ZM99.5644 51.9403L99.697 53.4344L100.041 53.4039L100.337 53.226L99.5644 51.9403ZM101.83 50.5788L101.108 49.264L101.082 49.2781L101.057 49.2931L101.83 50.5788ZM104.15 49.3047L103.59 47.9132L103.506 47.9467L103.428 47.9899L104.15 49.3047ZM106.433 48.3857L107.9 48.0734L107.528 46.3277L105.873 46.9942L106.433 48.3857ZM104.276 58.8256L105.736 59.1724L105.759 59.0751L104.299 58.7284L102.84 58.3816L102.817 58.4789L104.276 58.8256ZM104.299 58.7284L105.575 59.5172L106.911 57.3564L105.635 56.5675L104.36 55.7787L103.024 57.9395L104.299 58.7284ZM105.635 56.5675L106.924 57.3358L108.285 55.0523L106.997 54.2841L105.709 53.5159L104.347 55.7993L105.635 56.5675ZM106.997 54.2841L108.493 54.3895L108.68 51.7434L107.183 51.6381L105.687 51.5327L105.501 54.1788L106.997 54.2841ZM107.183 51.6381L108.654 51.3412L108.136 48.7777L106.666 49.0745L105.195 49.3713L105.713 51.9349L107.183 51.6381ZM106.666 49.0745L108.088 49.5519L108.928 47.0495L107.506 46.5721L106.084 46.0948L105.244 48.5972L106.666 49.0745ZM107.506 46.5721L108.666 45.6209L107.106 43.719L105.946 44.6703L104.786 45.6216L106.346 47.5234L107.506 46.5721ZM105.946 44.6703L106.198 43.1916L103.607 42.7507L103.355 44.2294L103.104 45.7081L105.694 46.149L105.946 44.6703ZM103.355 44.2294L103.236 42.7341L100.705 42.9361L100.825 44.4314L100.944 45.9266L103.475 45.7246L103.355 44.2294ZM100.825 44.4314L100.154 43.0898L97.7775 44.2784L98.4485 45.6199L99.1195 46.9615L101.496 45.7729L100.825 44.4314ZM98.4485 45.6199L97.1953 44.7956L95.7365 47.0135L96.9897 47.8378L98.2429 48.6621L99.7017 46.4443L98.4485 45.6199ZM96.9897 47.8378L95.5958 47.2835L94.6531 49.6541L96.0469 50.2084L97.4408 50.7627L98.3835 48.3921L96.9897 47.8378ZM96.0469 50.2084L94.7271 50.9213L95.7807 52.8718L97.1005 52.159L98.4203 51.4461L97.3667 49.4955L96.0469 50.2084ZM97.1005 52.159L97.2331 53.6531L99.697 53.4344L99.5644 51.9403L99.4318 50.4462L96.9679 50.6648L97.1005 52.159ZM99.5644 51.9403L100.337 53.226L102.602 51.8644L101.83 50.5788L101.057 49.2931L98.7917 50.6546L99.5644 51.9403ZM101.83 50.5788L102.552 51.8936L104.872 50.6194L104.15 49.3047L103.428 47.9899L101.108 49.264L101.83 50.5788ZM104.15 49.3047L104.71 50.6962L106.993 49.7771L106.433 48.3857L105.873 46.9942L103.59 47.9132L104.15 49.3047ZM106.433 48.3857L104.966 48.6979L105.02 48.9548L106.487 48.6426L107.955 48.3303L107.9 48.0734L106.433 48.3857Z" fill="black"/>
<path d="M13.2591 96.8064L11.8932 97.4263L11.9293 97.5058L11.9744 97.5806L13.2591 96.8064ZM14.5736 98.9876L15.9979 98.5171L15.9452 98.3574L15.8583 98.2133L14.5736 98.9876ZM15.406 101.507L13.9817 101.978L14.0212 102.097L14.0802 102.209L15.406 101.507ZM16.646 103.85L18.0062 103.218L17.9899 103.183L17.9718 103.149L16.646 103.85ZM17.758 106.243L19.1614 105.713L19.1417 105.661L19.1182 105.611L17.758 106.243ZM18.6909 108.715L17.2874 109.245L17.3108 109.307L17.3395 109.366L18.6909 108.715ZM19.8353 111.091L18.484 111.742L18.4977 111.77L18.5127 111.798L19.8353 111.091ZM21.081 113.419L19.7584 114.127L19.7928 114.191L19.8332 114.252L21.081 113.419ZM22.5002 115.547L21.2523 116.379L21.6301 116.946L22.305 117.034L22.5002 115.547ZM25.0516 115.882L24.8564 117.369L25.4511 117.447L25.9357 117.094L25.0516 115.882ZM26.386 114.908L27.7694 114.328L27.0354 112.578L25.502 113.696L26.386 114.908ZM13.2178 96.7153L11.8519 97.3352L11.8932 97.4263L13.2591 96.8064L14.625 96.1865L14.5837 96.0954L13.2178 96.7153ZM13.2591 96.8064L11.9744 97.5806L13.2889 99.7618L14.5736 98.9876L15.8583 98.2133L14.5438 96.0321L13.2591 96.8064ZM14.5736 98.9876L13.1493 99.4581L13.9817 101.978L15.406 101.507L16.8303 101.037L15.9979 98.5171L14.5736 98.9876ZM15.406 101.507L14.0802 102.209L15.3202 104.552L16.646 103.85L17.9718 103.149L16.7317 100.806L15.406 101.507ZM16.646 103.85L15.2857 104.483L16.3978 106.875L17.758 106.243L19.1182 105.611L18.0062 103.218L16.646 103.85ZM17.758 106.243L16.3546 106.772L17.2874 109.245L18.6909 108.715L20.0943 108.186L19.1614 105.713L17.758 106.243ZM18.6909 108.715L17.3395 109.366L18.484 111.742L19.8353 111.091L21.1867 110.44L20.0422 108.064L18.6909 108.715ZM19.8353 111.091L18.5127 111.798L19.7584 114.127L21.081 113.419L22.4037 112.712L21.1579 110.383L19.8353 111.091ZM21.081 113.419L19.8332 114.252L21.2523 116.379L22.5002 115.547L23.7481 114.715L22.3289 112.587L21.081 113.419ZM22.5002 115.547L22.305 117.034L24.8564 117.369L25.0516 115.882L25.2468 114.394L22.6954 114.06L22.5002 115.547ZM25.0516 115.882L25.9357 117.094L27.2701 116.12L26.386 114.908L25.502 113.696L24.1675 114.67L25.0516 115.882ZM26.386 114.908L25.0027 115.488L25.0864 115.688L26.4697 115.108L27.853 114.528L27.7694 114.328L26.386 114.908Z" fill="black"/>
<path d="M111.634 85.0462L112.882 85.8775L113.118 85.5238L113.133 85.0991L111.634 85.0462ZM110.272 87.091L109.024 86.2597L108.81 86.5799L108.778 86.9632L110.272 87.091ZM110.048 89.7159L108.553 89.5881L108.531 89.8512L108.599 90.1062L110.048 89.7159ZM110.737 92.2748L112.212 92.0005L112.201 91.9419L112.186 91.8845L110.737 92.2748ZM111.221 94.8733L112.717 94.7666L112.711 94.6822L112.695 94.599L111.221 94.8733ZM111.409 97.5133L109.913 97.62L109.919 97.7004L109.933 97.7797L111.409 97.5133ZM111.878 100.112L110.402 100.378L110.42 100.479L110.452 100.576L111.878 100.112ZM112.695 102.622L114.144 102.232L114.134 102.195L114.122 102.158L112.695 102.622ZM113.385 105.181L114.844 105.53L114.933 105.159L114.834 104.791L113.385 105.181ZM112.778 107.717L114.213 108.153L114.226 108.11L114.237 108.066L112.778 107.717ZM112.005 110.264L112.7 111.593L113.257 111.301L113.44 110.699L112.005 110.264ZM111.637 84.9463L110.138 84.8934L110.135 84.9933L111.634 85.0462L113.133 85.0991L113.136 84.9992L111.637 84.9463ZM111.634 85.0462L110.385 84.2149L109.024 86.2597L110.272 87.091L111.521 87.9223L112.882 85.8775L111.634 85.0462ZM110.272 87.091L108.778 86.9632L108.553 89.5881L110.048 89.7159L111.542 89.8437L111.767 87.2188L110.272 87.091ZM110.048 89.7159L108.599 90.1062L109.289 92.6651L110.737 92.2748L112.186 91.8845L111.496 89.3256L110.048 89.7159ZM110.737 92.2748L109.263 92.5491L109.746 95.1477L111.221 94.8733L112.695 94.599L112.212 92.0005L110.737 92.2748ZM111.221 94.8733L109.725 94.9801L109.913 97.62L111.409 97.5133L112.905 97.4065L112.717 94.7666L111.221 94.8733ZM111.409 97.5133L109.933 97.7797L110.402 100.378L111.878 100.112L113.354 99.8454L112.885 97.2469L111.409 97.5133ZM111.878 100.112L110.452 100.576L111.269 103.087L112.695 102.622L114.122 102.158L113.304 99.6475L111.878 100.112ZM112.695 102.622L111.247 103.013L111.937 105.572L113.385 105.181L114.834 104.791L114.144 102.232L112.695 102.622ZM113.385 105.181L111.926 104.832L111.319 107.368L112.778 107.717L114.237 108.066L114.844 105.53L113.385 105.181ZM112.778 107.717L111.343 107.281L110.569 109.828L112.005 110.264L113.44 110.699L114.213 108.153L112.778 107.717ZM112.005 110.264L111.309 108.934L110.947 109.124L111.642 110.453L112.337 111.782L112.7 111.593L112.005 110.264Z" fill="black"/>
<path d="M22.4793 85.0228L23.3072 86.2736L23.4873 86.1544L23.6265 85.9892L22.4793 85.0228ZM20.4789 86.3468L19.651 85.096L19.4518 85.2279L19.3034 85.4151L20.4789 86.3468ZM18.8365 88.4193L17.6609 87.4877L17.5918 87.5748L17.5363 87.6713L18.8365 88.4193ZM17.5151 90.7158L18.7468 91.5719L18.7833 91.5194L18.8153 91.4639L17.5151 90.7158ZM16.0066 92.8863L17.137 93.8723L17.1912 93.8101L17.2383 93.7424L16.0066 92.8863ZM14.2673 94.8806L15.3071 95.9618L15.3545 95.9161L15.3978 95.8665L14.2673 94.8806ZM12.4338 96.6438L13.2234 97.9191L13.3588 97.8353L13.4736 97.725L12.4338 96.6438ZM10.2062 98.023L9.41657 96.7476L9.29346 96.8238L9.18721 96.9222L10.2062 98.023ZM8.30764 99.7804L7.28868 98.6796L7.15475 98.8036L7.05445 98.9561L8.30764 99.7804ZM6.84334 102.006L5.59016 101.182L5.35209 101.544L5.34363 101.977L6.84334 102.006ZM6.79118 104.678L8.28816 104.773L8.29025 104.74L8.2909 104.707L6.79118 104.678ZM6.62445 107.3L5.12747 107.205L5.1181 107.353L5.13764 107.499L6.62445 107.3ZM6.9729 109.911L8.47278 109.892L8.47164 109.802L8.45971 109.712L6.9729 109.911ZM7.00646 112.564L5.50658 112.583L5.50859 112.742L5.5438 112.896L7.00646 112.564ZM7.58534 115.11L7.90476 116.575L9.38361 116.253L9.048 114.777L7.58534 115.11ZM22.5437 84.9463L21.3965 83.9799L21.3321 84.0564L22.4793 85.0228L23.6265 85.9892L23.6909 85.9127L22.5437 84.9463ZM22.4793 85.0228L21.6513 83.772L19.651 85.096L20.4789 86.3468L21.3069 87.5976L23.3072 86.2736L22.4793 85.0228ZM20.4789 86.3468L19.3034 85.4151L17.6609 87.4877L18.8365 88.4193L20.012 89.351L21.6545 87.2785L20.4789 86.3468ZM18.8365 88.4193L17.5363 87.6713L16.215 89.9678L17.5151 90.7158L18.8153 91.4639L20.1366 89.1674L18.8365 88.4193ZM17.5151 90.7158L16.2834 89.8598L14.7748 92.0303L16.0066 92.8863L17.2383 93.7424L18.7468 91.5719L17.5151 90.7158ZM16.0066 92.8863L14.8761 91.9004L13.1369 93.8947L14.2673 94.8806L15.3978 95.8665L17.137 93.8723L16.0066 92.8863ZM14.2673 94.8806L13.2276 93.7994L11.3941 95.5626L12.4338 96.6438L13.4736 97.725L15.3071 95.9618L14.2673 94.8806ZM12.4338 96.6438L11.6442 95.3684L9.41657 96.7476L10.2062 98.023L10.9958 99.2983L13.2234 97.9191L12.4338 96.6438ZM10.2062 98.023L9.18721 96.9222L7.28868 98.6796L8.30764 99.7804L9.3266 100.881L11.2251 99.1238L10.2062 98.023ZM8.30764 99.7804L7.05445 98.9561L5.59016 101.182L6.84334 102.006L8.09653 102.831L9.56083 100.605L8.30764 99.7804ZM6.84334 102.006L5.34363 101.977L5.29147 104.649L6.79118 104.678L8.2909 104.707L8.34306 102.036L6.84334 102.006ZM6.79118 104.678L5.2942 104.583L5.12747 107.205L6.62445 107.3L8.12142 107.396L8.28816 104.773L6.79118 104.678ZM6.62445 107.3L5.13764 107.499L5.48609 110.109L6.9729 109.911L8.45971 109.712L8.11126 107.102L6.62445 107.3ZM6.9729 109.911L5.47302 109.93L5.50658 112.583L7.00646 112.564L8.50634 112.545L8.47278 109.892L6.9729 109.911ZM7.00646 112.564L5.5438 112.896L6.12268 115.442L7.58534 115.11L9.048 114.777L8.46912 112.231L7.00646 112.564ZM7.58534 115.11L7.26592 113.644L7.25257 113.647L7.57199 115.113L7.89141 116.578L7.90476 116.575L7.58534 115.11Z" fill="black"/>
<path d="M97.6207 73.8824L98.9968 74.4794L99.0374 74.3858L99.065 74.2875L97.6207 73.8824ZM96.6215 76.1857L95.2454 75.5887L95.2137 75.6617L95.1899 75.7378L96.6215 76.1857ZM95.8301 78.7151L94.3985 78.2672L94.3555 78.4048L94.3394 78.5481L95.8301 78.7151ZM95.5351 81.3483L96.9967 81.6854L97.0162 81.6012L97.0258 81.5153L95.5351 81.3483ZM94.943 83.9153L96.3766 84.3564L96.3925 84.3049L96.4046 84.2524L94.943 83.9153ZM94.1653 86.4423L92.7317 86.0011L92.728 86.013L92.7246 86.0249L94.1653 86.4423ZM93.4339 88.9668L94.7141 89.7486L94.8188 89.5772L94.8747 89.3842L93.4339 88.9668ZM92.0487 91.2349L92.3296 92.7084L92.9824 92.5839L93.3288 92.0168L92.0487 91.2349ZM89.6937 91.6839L88.5667 92.6738L89.1324 93.3179L89.9746 93.1574L89.6937 91.6839ZM88.0427 89.8043L86.5921 90.1861L86.6822 90.5283L86.9157 90.7942L88.0427 89.8043ZM87.3731 87.2598L85.8752 87.1795L85.8627 87.4142L85.9225 87.6415L87.3731 87.2598ZM87.5148 84.618L89.0126 84.6984L89.0146 84.6627L89.0148 84.627L87.5148 84.618ZM87.5307 81.9532L86.1257 81.4279L86.0323 81.6776L86.0307 81.9443L87.5307 81.9532ZM88.4661 79.4517L89.8711 79.977L89.9839 79.6753L89.9629 79.3538L88.4661 79.4517ZM88.2967 76.86L86.8038 76.7141L86.7919 76.8358L86.7999 76.9579L88.2967 76.86ZM97.6477 73.7861L96.2034 73.3811L96.1764 73.4774L97.6207 73.8824L99.065 74.2875L99.092 74.1912L97.6477 73.7861ZM97.6207 73.8824L96.2446 73.2854L95.2454 75.5887L96.6215 76.1857L97.9975 76.7827L98.9968 74.4794L97.6207 73.8824ZM96.6215 76.1857L95.1899 75.7378L94.3985 78.2672L95.8301 78.7151L97.2617 79.163L98.053 76.6335L96.6215 76.1857ZM95.8301 78.7151L94.3394 78.5481L94.0444 81.1813L95.5351 81.3483L97.0258 81.5153L97.3208 78.8821L95.8301 78.7151ZM95.5351 81.3483L94.0735 81.0111L93.4814 83.5781L94.943 83.9153L96.4046 84.2524L96.9967 81.6854L95.5351 81.3483ZM94.943 83.9153L93.5093 83.4741L92.7317 86.0011L94.1653 86.4423L95.599 86.8835L96.3766 84.3564L94.943 83.9153ZM94.1653 86.4423L92.7246 86.0249L91.9932 88.5494L93.4339 88.9668L94.8747 89.3842L95.6061 86.8597L94.1653 86.4423ZM93.4339 88.9668L92.1538 88.1849L90.7685 90.4531L92.0487 91.2349L93.3288 92.0168L94.7141 89.7486L93.4339 88.9668ZM92.0487 91.2349L91.7677 89.7615L89.4127 90.2105L89.6937 91.6839L89.9746 93.1574L92.3296 92.7084L92.0487 91.2349ZM89.6937 91.6839L90.8206 90.694L89.1697 88.8144L88.0427 89.8043L86.9157 90.7942L88.5667 92.6738L89.6937 91.6839ZM88.0427 89.8043L89.4933 89.4226L88.8237 86.8781L87.3731 87.2598L85.9225 87.6415L86.5921 90.1861L88.0427 89.8043ZM87.3731 87.2598L88.8709 87.3401L89.0126 84.6984L87.5148 84.618L86.0169 84.5377L85.8752 87.1795L87.3731 87.2598ZM87.5148 84.618L89.0148 84.627L89.0307 81.9622L87.5307 81.9532L86.0307 81.9443L86.0148 84.6091L87.5148 84.618ZM87.5307 81.9532L88.9357 82.4786L89.8711 79.977L88.4661 79.4517L87.0611 78.9263L86.1257 81.4279L87.5307 81.9532ZM88.4661 79.4517L89.9629 79.3538L89.7935 76.7622L88.2967 76.86L86.7999 76.9579L86.9693 79.5495L88.4661 79.4517ZM88.2967 76.86L89.7896 77.006L89.8146 76.7504L88.3217 76.6044L86.8288 76.4584L86.8038 76.7141L88.2967 76.86Z" fill="black"/>
<path d="M45.812 92.1442L47.1277 92.8645L47.134 92.853L47.1401 92.8414L45.812 92.1442ZM44.592 94.3728L45.8156 95.2403L45.8659 95.1694L45.9077 95.0931L44.592 94.3728ZM43.0561 96.539L41.8325 95.6715L41.7301 95.8159L41.6641 95.9802L43.0561 96.539ZM42.0676 99.0017L43.4485 99.5872L43.4542 99.5739L43.4596 99.5605L42.0676 99.0017ZM41.0383 101.429L42.3699 102.12L42.3966 102.068L42.4193 102.014L41.0383 101.429ZM39.8211 103.776L38.4895 103.085L38.4486 103.164L38.4173 103.247L39.8211 103.776ZM38.8905 106.247L37.4867 105.718L37.4543 105.804L37.4327 105.894L38.8905 106.247ZM38.268 108.816L36.8102 108.462L36.7834 108.573L36.7736 108.687L38.268 108.816ZM38.0481 111.363L36.5536 111.234L36.541 111.381L36.5571 111.527L38.0481 111.363ZM38.3379 113.999L36.8468 114.163L36.8736 114.406L36.9761 114.628L38.3379 113.999ZM45.8585 92.0557L44.5304 91.3585L44.4839 91.447L45.812 92.1442L47.1401 92.8414L47.1866 92.7529L45.8585 92.0557ZM45.812 92.1442L44.4963 91.4239L43.2762 93.6525L44.592 94.3728L45.9077 95.0931L47.1277 92.8645L45.812 92.1442ZM44.592 94.3728L43.3683 93.5052L41.8325 95.6715L43.0561 96.539L44.2798 97.4066L45.8156 95.2403L44.592 94.3728ZM43.0561 96.539L41.6641 95.9802L40.6755 98.4429L42.0676 99.0017L43.4596 99.5605L44.4482 97.0978L43.0561 96.539ZM42.0676 99.0017L40.6866 98.4161L39.6574 100.843L41.0383 101.429L42.4193 102.014L43.4485 99.5872L42.0676 99.0017ZM41.0383 101.429L39.7068 100.738L38.4895 103.085L39.8211 103.776L41.1526 104.467L42.3699 102.12L41.0383 101.429ZM39.8211 103.776L38.4173 103.247L37.4867 105.718L38.8905 106.247L40.2943 106.776L41.2248 104.305L39.8211 103.776ZM38.8905 106.247L37.4327 105.894L36.8102 108.462L38.268 108.816L39.7258 109.169L40.3483 106.6L38.8905 106.247ZM38.268 108.816L36.7736 108.687L36.5536 111.234L38.0481 111.363L39.5425 111.492L39.7625 108.945L38.268 108.816ZM38.0481 111.363L36.5571 111.527L36.8468 114.163L38.3379 113.999L39.8289 113.835L39.5391 111.199L38.0481 111.363ZM38.3379 113.999L36.9761 114.628L37.3769 115.496L38.7387 114.867L40.1005 114.238L39.6996 113.37L38.3379 113.999Z" fill="black"/>
<path d="M90.4335 112.14L90.5626 110.645L89.2351 110.53L88.9647 111.835L90.4335 112.14ZM89.8963 114.732L89.8342 116.231L91.1067 116.283L91.3651 115.036L89.8963 114.732ZM87.3336 114.626L87.0376 116.096L87.1535 116.12L87.2715 116.125L87.3336 114.626ZM84.738 114.104L83.9451 115.377L84.1757 115.521L84.4421 115.574L84.738 114.104ZM82.4635 112.687L81.0452 113.176L81.2185 113.679L81.6706 113.961L82.4635 112.687ZM81.6132 110.218L80.4518 109.268L79.9228 109.915L80.1949 110.706L81.6132 110.218ZM83.1984 108.278L83.6839 106.859L82.6971 106.522L82.037 107.329L83.1984 108.278ZM85.6236 109.108L86.4913 107.884L86.3144 107.759L86.1091 107.689L85.6236 109.108ZM87.7559 110.62L86.8882 111.844L86.984 111.912L87.0892 111.964L87.7559 110.62ZM90.1539 111.81L89.4872 113.154L89.8596 113.338L90.2739 113.305L90.1539 111.81ZM92.8349 111.595L93.0019 110.104L92.8586 110.088L92.7149 110.1L92.8349 111.595ZM95.4423 111.887L95.2752 113.378L95.4827 113.401L95.6886 113.367L95.4423 111.887ZM98.0669 111.45L98.3345 109.974L98.0779 109.928L97.8205 109.971L98.0669 111.45ZM100.699 111.928L100.431 113.403L100.648 113.443L100.867 113.418L100.699 111.928ZM103.318 111.633L103.486 113.123L103.5 113.122L103.515 113.12L103.318 111.633ZM105.939 111.286L106.136 112.773L106.18 112.767L106.224 112.759L105.939 111.286ZM108.465 110.799L108.749 112.271L108.879 112.246L109.003 112.199L108.465 110.799ZM110.836 109.887L111.034 108.4L110.655 108.349L110.298 108.487L110.836 109.887ZM113.307 110.214L113.573 108.738L113.539 108.732L113.504 108.727L113.307 110.214ZM115.818 110.667L116.811 109.542L116.497 109.265L116.084 109.19L115.818 110.667ZM117.668 112.299L118.704 113.384L119.885 112.256L118.66 111.175L117.668 112.299ZM115.899 113.988L116.457 115.38L116.726 115.273L116.935 115.073L115.899 113.988ZM113.42 114.982L113.421 116.482L113.71 116.482L113.979 116.374L113.42 114.982ZM110.749 114.983L110.184 116.373L110.456 116.484L110.749 116.483L110.749 114.983ZM108.336 114.003L106.875 114.342L107.051 115.099L107.771 115.392L108.336 114.003ZM107.847 111.896L107.873 110.396L105.952 110.363L106.386 112.235L107.847 111.896ZM90.5331 112.148L90.6622 110.654L90.5626 110.645L90.4335 112.14L90.3043 113.634L90.404 113.643L90.5331 112.148ZM90.4335 112.14L88.9647 111.835L88.4275 114.428L89.8963 114.732L91.3651 115.036L91.9023 112.444L90.4335 112.14ZM89.8963 114.732L89.9583 113.233L87.3956 113.127L87.3336 114.626L87.2715 116.125L89.8342 116.231L89.8963 114.732ZM87.3336 114.626L87.6295 113.155L85.0339 112.633L84.738 114.104L84.4421 115.574L87.0376 116.096L87.3336 114.626ZM84.738 114.104L85.5309 112.83L83.2564 111.414L82.4635 112.687L81.6706 113.961L83.9451 115.377L84.738 114.104ZM82.4635 112.687L83.8818 112.199L83.0315 109.729L81.6132 110.218L80.1949 110.706L81.0452 113.176L82.4635 112.687ZM81.6132 110.218L82.7745 111.167L84.3597 109.228L83.1984 108.278L82.037 107.329L80.4518 109.268L81.6132 110.218ZM83.1984 108.278L82.7129 109.698L85.1381 110.527L85.6236 109.108L86.1091 107.689L83.6839 106.859L83.1984 108.278ZM85.6236 109.108L84.7559 110.332L86.8882 111.844L87.7559 110.62L88.6236 109.397L86.4913 107.884L85.6236 109.108ZM87.7559 110.62L87.0892 111.964L89.4872 113.154L90.1539 111.81L90.8206 110.466L88.4226 109.277L87.7559 110.62ZM90.1539 111.81L90.2739 113.305L92.9548 113.09L92.8349 111.595L92.7149 110.1L90.034 110.315L90.1539 111.81ZM92.8349 111.595L92.6678 113.086L95.2752 113.378L95.4423 111.887L95.6093 110.396L93.0019 110.104L92.8349 111.595ZM95.4423 111.887L95.6886 113.367L98.3132 112.93L98.0669 111.45L97.8205 109.971L95.196 110.407L95.4423 111.887ZM98.0669 111.45L97.7992 112.926L100.431 113.403L100.699 111.928L100.966 110.452L98.3345 109.974L98.0669 111.45ZM100.699 111.928L100.867 113.418L103.486 113.123L103.318 111.633L103.15 110.142L100.531 110.437L100.699 111.928ZM103.318 111.633L103.515 113.12L106.136 112.773L105.939 111.286L105.743 109.799L103.122 110.146L103.318 111.633ZM105.939 111.286L106.224 112.759L108.749 112.271L108.465 110.799L108.18 109.326L105.655 109.813L105.939 111.286ZM108.465 110.799L109.003 112.199L111.375 111.287L110.836 109.887L110.298 108.487L107.926 109.399L108.465 110.799ZM110.836 109.887L110.639 111.374L113.11 111.701L113.307 110.214L113.504 108.727L111.034 108.4L110.836 109.887ZM113.307 110.214L113.041 111.691L115.552 112.143L115.818 110.667L116.084 109.19L113.573 108.738L113.307 110.214ZM115.818 110.667L114.826 111.791L116.675 113.424L117.668 112.299L118.66 111.175L116.811 109.542L115.818 110.667ZM117.668 112.299L116.632 111.214L114.863 112.903L115.899 113.988L116.935 115.073L118.704 113.384L117.668 112.299ZM115.899 113.988L115.34 112.596L112.862 113.59L113.42 114.982L113.979 116.374L116.457 115.38L115.899 113.988ZM113.42 114.982L113.42 113.482L110.748 113.483L110.749 114.983L110.749 116.483L113.421 116.482L113.42 114.982ZM110.749 114.983L111.313 113.594L108.901 112.613L108.336 114.003L107.771 115.392L110.184 116.373L110.749 114.983ZM108.336 114.003L109.797 113.664L109.309 111.557L107.847 111.896L106.386 112.235L106.875 114.342L108.336 114.003ZM107.847 111.896L107.822 113.396L107.936 113.398L107.962 111.898L107.987 110.398L107.873 110.396L107.847 111.896Z" fill="black"/>
<path d="M40.8511 87.8741L40.6303 89.3577L40.6409 89.3593L40.6516 89.3607L40.8511 87.8741ZM38.3936 87.5083L38.6144 86.0247L38.5188 86.0104L38.4221 86.0086L38.3936 87.5083ZM35.7545 87.4581L35.7831 85.9584L35.7437 85.9576L35.7043 85.9589L35.7545 87.4581ZM33.1145 87.5466L32.8168 89.0167L32.9891 89.0516L33.1648 89.0457L33.1145 87.5466ZM30.5046 87.0179L29.808 88.3464L29.9973 88.4456L30.2068 88.4881L30.5046 87.0179ZM28.1488 85.7827L28.8454 84.4542L28.785 84.4225L28.722 84.3965L28.1488 85.7827ZM25.7127 84.7755L26.2858 83.3893L25.9982 83.2704L25.6871 83.2757L25.7127 84.7755ZM23.111 84.8199L22.5972 86.2291L22.8585 86.3244L23.1366 86.3196L23.111 84.8199ZM40.9502 87.8874L41.1497 86.4007L41.0506 86.3874L40.8511 87.8741L40.6516 89.3607L40.7507 89.374L40.9502 87.8874ZM40.8511 87.8741L41.0719 86.3904L38.6144 86.0247L38.3936 87.5083L38.1728 88.992L40.6303 89.3577L40.8511 87.8741ZM38.3936 87.5083L38.4221 86.0086L35.7831 85.9584L35.7545 87.4581L35.726 88.9578L38.365 89.0081L38.3936 87.5083ZM35.7545 87.4581L35.7043 85.9589L33.0643 86.0474L33.1145 87.5466L33.1648 89.0457L35.8048 88.9572L35.7545 87.4581ZM33.1145 87.5466L33.4123 86.0764L30.8023 85.5478L30.5046 87.0179L30.2068 88.4881L32.8168 89.0167L33.1145 87.5466ZM30.5046 87.0179L31.2012 85.6895L28.8454 84.4542L28.1488 85.7827L27.4523 87.1111L29.808 88.3464L30.5046 87.0179ZM28.1488 85.7827L28.722 84.3965L26.2858 83.3893L25.7127 84.7755L25.1396 86.1617L27.5757 87.1689L28.1488 85.7827ZM25.7127 84.7755L25.6871 83.2757L23.0854 83.3201L23.111 84.8199L23.1366 86.3196L25.7383 86.2752L25.7127 84.7755ZM23.111 84.8199L23.6249 83.4106L23.2985 83.2916L22.7847 84.7009L22.2708 86.1101L22.5972 86.2291L23.111 84.8199Z" fill="black"/>
<path d="M90.4969 92.3944L89.0993 91.8497L89.0236 92.0439L89.0037 92.2513L90.4969 92.3944ZM90.2535 94.934L91.6463 95.4909L91.7261 95.2912L91.7466 95.0771L90.2535 94.934ZM89.27 97.3936L87.8772 96.8367L87.8568 96.8878L87.8401 96.9404L89.27 97.3936ZM88.4707 99.9154L89.7964 100.617L89.8597 100.498L89.9006 100.369L88.4707 99.9154ZM87.2276 102.264L88.3574 103.251L88.4719 103.119L88.5533 102.966L87.2276 102.264ZM85.48 104.265L84.3502 103.278L84.2945 103.342L84.2464 103.412L85.48 104.265ZM83.9828 106.429L82.7491 105.576L82.5111 105.92L82.4856 106.338L83.9828 106.429ZM83.8279 108.967L83.9466 110.462L85.2458 110.359L85.3252 109.058L83.8279 108.967ZM90.5332 92.3013L89.1356 91.7565L89.0993 91.8497L90.4969 92.3944L91.8945 92.9392L91.9308 92.846L90.5332 92.3013ZM90.4969 92.3944L89.0037 92.2513L88.7603 94.7909L90.2535 94.934L91.7466 95.0771L91.99 92.5376L90.4969 92.3944ZM90.2535 94.934L88.8607 94.3771L87.8772 96.8367L89.27 97.3936L90.6628 97.9505L91.6463 95.4909L90.2535 94.934ZM89.27 97.3936L87.8401 96.9404L87.0408 99.4621L88.4707 99.9154L89.9006 100.369L90.6999 97.8468L89.27 97.3936ZM88.4707 99.9154L87.145 99.2136L85.9019 101.562L87.2276 102.264L88.5533 102.966L89.7964 100.617L88.4707 99.9154ZM87.2276 102.264L86.0978 101.277L84.3502 103.278L85.48 104.265L86.6098 105.252L88.3574 103.251L87.2276 102.264ZM85.48 104.265L84.2464 103.412L82.7491 105.576L83.9828 106.429L85.2164 107.283L86.7137 105.118L85.48 104.265ZM83.9828 106.429L82.4856 106.338L82.3307 108.875L83.8279 108.967L85.3252 109.058L85.48 106.521L83.9828 106.429ZM83.8279 108.967L83.7093 107.471L83.5405 107.485L83.6591 108.98L83.7777 110.475L83.9466 110.462L83.8279 108.967Z" fill="black"/>
<path d="M96.0055 60.9707L95.0539 62.1302L95.1267 62.1899L95.2064 62.2401L96.0055 60.9707ZM98.1587 62.3261L99.1859 61.2331L99.0804 61.1339L98.9578 61.0567L98.1587 62.3261ZM100.09 64.1414L99.063 65.2345L99.1205 65.2886L99.1834 65.3363L100.09 64.1414ZM102.199 65.7416L103.4 64.843L103.273 64.6742L103.105 64.5467L102.199 65.7416ZM95.9282 60.9072L94.9766 62.0667L95.0539 62.1302L96.0055 60.9707L96.9571 59.8112L96.8798 59.7477L95.9282 60.9072ZM96.0055 60.9707L95.2064 62.2401L97.3595 63.5955L98.1587 62.3261L98.9578 61.0567L96.8047 59.7013L96.0055 60.9707ZM98.1587 62.3261L97.1314 63.4192L99.063 65.2345L100.09 64.1414L101.117 63.0484L99.1859 61.2331L98.1587 62.3261ZM100.09 64.1414L99.1834 65.3363L101.292 66.9364L102.199 65.7416L103.105 64.5467L100.997 62.9466L100.09 64.1414ZM102.199 65.7416L100.997 66.6401L101.601 67.4472L102.802 66.5487L104.003 65.6501L103.4 64.843L102.199 65.7416Z" fill="black"/>
<path d="M8.1 116V117.5H8.13227L8.16451 117.499L8.1 116ZM10.64 115.891L10.797 114.399L10.6865 114.387L10.5755 114.392L10.64 115.891ZM13.28 116.169L13.123 117.66L13.2739 117.676L13.425 117.662L13.28 116.169ZM15.92 115.912L15.8596 114.413L15.8172 114.415L15.775 114.419L15.92 115.912ZM18.56 115.806L18.6763 114.31L18.588 114.303L18.4996 114.307L18.56 115.806ZM21.2 116.011L21.0837 117.507L21.1392 117.511L21.1948 117.511L21.2 116.011ZM23.84 116.02L23.8348 117.52L23.8912 117.52L23.9474 117.516L23.84 116.02ZM26.48 115.831L26.5223 114.331L26.4473 114.329L26.3726 114.334L26.48 115.831ZM29.12 115.905L29.2963 114.415L29.2295 114.408L29.1623 114.406L29.12 115.905ZM31.76 116.217L31.5837 117.707L31.7941 117.732L32.0032 117.698L31.76 116.217ZM34.4 115.784L34.4793 114.286L34.3171 114.277L34.1568 114.303L34.4 115.784ZM37.04 115.923L36.9607 117.421L37.0493 117.426L37.1379 117.42L37.04 115.923ZM39.68 115.751L39.8617 114.262L39.7223 114.245L39.5821 114.254L39.68 115.751ZM42.32 116.073L42.1383 117.562L42.2533 117.576L42.3692 117.572L42.32 116.073ZM44.96 115.986L44.9117 114.487L44.9108 114.487L44.96 115.986ZM47.6 115.901L47.6483 117.401L47.6707 117.4L47.693 117.398L47.6 115.901ZM50.24 115.737L50.5012 114.26L50.3253 114.229L50.147 114.24L50.24 115.737ZM52.88 116.204L52.6188 117.681L52.879 117.727L53.1393 117.682L52.88 116.204ZM55.52 115.741L55.6608 114.247L55.4596 114.228L55.2606 114.263L55.52 115.741ZM58.16 115.99L58.0192 117.483L58.1299 117.493L58.2409 117.487L58.16 115.99ZM60.8 115.847L61.0126 114.362L60.8665 114.341L60.7191 114.349L60.8 115.847ZM63.44 116.225L63.2274 117.71L63.4714 117.745L63.7137 117.7L63.44 116.225ZM66.08 115.735L66.1582 114.237L65.9809 114.228L65.8063 114.26L66.08 115.735ZM68.72 115.873L68.6418 117.371L68.6647 117.372L68.6878 117.373L68.72 115.873ZM71.36 115.93L71.3278 117.429L71.3564 117.43L71.3849 117.429L71.36 115.93ZM74 115.886L74.185 114.397L74.0804 114.384L73.975 114.386L74 115.886ZM76.64 116.214L76.455 117.702L76.6155 117.722L76.7765 117.708L76.64 116.214ZM79.28 115.973L79.2685 114.473L79.2059 114.473L79.1435 114.479L79.28 115.973ZM81.92 115.952L82.0888 114.462L81.9989 114.452L81.9085 114.452L81.92 115.952ZM84.56 116.251L84.3912 117.742L84.5876 117.764L84.783 117.735L84.56 116.251ZM87.2 115.854L87.2734 114.356L87.1245 114.349L86.977 114.371L87.2 115.854ZM89.84 115.984L89.9255 114.486L89.9134 114.486L89.84 115.984ZM92.48 116.135L92.3945 117.632L92.4978 117.638L92.6008 117.63L92.48 116.135ZM95.12 115.921L95.1099 114.421L95.0544 114.422L94.9992 114.426L95.12 115.921ZM97.76 115.903L97.9616 114.417L97.8562 114.403L97.7499 114.403L97.76 115.903ZM100.4 116.261L100.198 117.748L100.434 117.78L100.667 117.737L100.4 116.261ZM103.04 115.784L103.284 114.304L103.028 114.262L102.773 114.308L103.04 115.784ZM105.68 116.219L105.436 117.699L105.576 117.722L105.719 117.718L105.68 116.219ZM108.32 116.151L108.359 117.65L108.453 117.648L108.546 117.634L108.32 116.151ZM110.96 115.748L111.313 114.29L111.026 114.221L110.734 114.265L110.96 115.748ZM8 116V117.5H8.1V116V114.5H8V116ZM8.1 116L8.16451 117.499L10.7045 117.389L10.64 115.891L10.5755 114.392L8.03549 114.501L8.1 116ZM10.64 115.891L10.483 117.382L13.123 117.66L13.28 116.169L13.437 114.677L10.797 114.399L10.64 115.891ZM13.28 116.169L13.425 117.662L16.065 117.405L15.92 115.912L15.775 114.419L13.135 114.676L13.28 116.169ZM15.92 115.912L15.9804 117.411L18.6204 117.305L18.56 115.806L18.4996 114.307L15.8596 114.413L15.92 115.912ZM18.56 115.806L18.4437 117.301L21.0837 117.507L21.2 116.011L21.3163 114.516L18.6763 114.31L18.56 115.806ZM21.2 116.011L21.1948 117.511L23.8348 117.52L23.84 116.02L23.8452 114.52L21.2052 114.511L21.2 116.011ZM23.84 116.02L23.9474 117.516L26.5874 117.327L26.48 115.831L26.3726 114.334L23.7326 114.524L23.84 116.02ZM26.48 115.831L26.4377 117.33L29.0777 117.404L29.12 115.905L29.1623 114.406L26.5223 114.331L26.48 115.831ZM29.12 115.905L28.9437 117.395L31.5837 117.707L31.76 116.217L31.9363 114.728L29.2963 114.415L29.12 115.905ZM31.76 116.217L32.0032 117.698L34.6432 117.264L34.4 115.784L34.1568 114.303L31.5168 114.737L31.76 116.217ZM34.4 115.784L34.3207 117.282L36.9607 117.421L37.04 115.923L37.1193 114.426L34.4793 114.286L34.4 115.784ZM37.04 115.923L37.1379 117.42L39.7779 117.248L39.68 115.751L39.5821 114.254L36.9421 114.427L37.04 115.923ZM39.68 115.751L39.4983 117.24L42.1383 117.562L42.32 116.073L42.5017 114.584L39.8617 114.262L39.68 115.751ZM42.32 116.073L42.3692 117.572L45.0092 117.486L44.96 115.986L44.9108 114.487L42.2708 114.574L42.32 116.073ZM44.96 115.986L45.0083 117.486L47.6483 117.401L47.6 115.901L47.5517 114.402L44.9117 114.487L44.96 115.986ZM47.6 115.901L47.693 117.398L50.333 117.234L50.24 115.737L50.147 114.24L47.507 114.404L47.6 115.901ZM50.24 115.737L49.9788 117.214L52.6188 117.681L52.88 116.204L53.1412 114.727L50.5012 114.26L50.24 115.737ZM52.88 116.204L53.1393 117.682L55.7793 117.218L55.52 115.741L55.2606 114.263L52.6207 114.727L52.88 116.204ZM55.52 115.741L55.3792 117.234L58.0192 117.483L58.16 115.99L58.3008 114.496L55.6608 114.247L55.52 115.741ZM58.16 115.99L58.2409 117.487L60.8809 117.345L60.8 115.847L60.7191 114.349L58.0791 114.492L58.16 115.99ZM60.8 115.847L60.5874 117.332L63.2274 117.71L63.44 116.225L63.6526 114.74L61.0126 114.362L60.8 115.847ZM63.44 116.225L63.7137 117.7L66.3537 117.21L66.08 115.735L65.8063 114.26L63.1663 114.75L63.44 116.225ZM66.08 115.735L66.0018 117.233L68.6418 117.371L68.72 115.873L68.7982 114.375L66.1582 114.237L66.08 115.735ZM68.72 115.873L68.6878 117.373L71.3278 117.429L71.36 115.93L71.3922 114.43L68.7522 114.373L68.72 115.873ZM71.36 115.93L71.3849 117.429L74.0249 117.386L74 115.886L73.975 114.386L71.335 114.43L71.36 115.93ZM74 115.886L73.815 117.374L76.455 117.702L76.64 116.214L76.825 114.725L74.185 114.397L74 115.886ZM76.64 116.214L76.7765 117.708L79.4165 117.466L79.28 115.973L79.1435 114.479L76.5035 114.72L76.64 116.214ZM79.28 115.973L79.2915 117.473L81.9315 117.452L81.92 115.952L81.9085 114.452L79.2685 114.473L79.28 115.973ZM81.92 115.952L81.7512 117.443L84.3912 117.742L84.56 116.251L84.7288 114.761L82.0888 114.462L81.92 115.952ZM84.56 116.251L84.783 117.735L87.423 117.338L87.2 115.854L86.977 114.371L84.337 114.768L84.56 116.251ZM87.2 115.854L87.1266 117.353L89.7666 117.482L89.84 115.984L89.9134 114.486L87.2734 114.356L87.2 115.854ZM89.84 115.984L89.7545 117.481L92.3945 117.632L92.48 116.135L92.5655 114.637L89.9255 114.486L89.84 115.984ZM92.48 116.135L92.6008 117.63L95.2408 117.416L95.12 115.921L94.9992 114.426L92.3592 114.639L92.48 116.135ZM95.12 115.921L95.1301 117.421L97.7701 117.403L97.76 115.903L97.7499 114.403L95.1099 114.421L95.12 115.921ZM97.76 115.903L97.5584 117.39L100.198 117.748L100.4 116.261L100.602 114.775L97.9616 114.417L97.76 115.903ZM100.4 116.261L100.667 117.737L103.307 117.26L103.04 115.784L102.773 114.308L100.133 114.785L100.4 116.261ZM103.04 115.784L102.796 117.264L105.436 117.699L105.68 116.219L105.924 114.738L103.284 114.304L103.04 115.784ZM105.68 116.219L105.719 117.718L108.359 117.65L108.32 116.151L108.281 114.651L105.641 114.719L105.68 116.219ZM108.32 116.151L108.546 117.634L111.186 117.231L110.96 115.748L110.734 114.265L108.094 114.668L108.32 116.151ZM110.96 115.748L110.607 117.206L111.647 117.458L112 116L112.353 114.542L111.313 114.29L110.96 115.748Z" fill="black"/>
</svg>
