<svg width="120" height="120" viewBox="0 0 120 120" fill="none" xmlns="http://www.w3.org/2000/svg">
<path d="M111.312 114.289L112.355 114.547L111.652 117.453L110.891 117.266L108.547 117.629L108.453 117.652H108.359L105.723 117.723H105.582L103.051 117.301L100.672 117.734L100.438 117.781L100.203 117.746L97.6367 117.406H95.2344L92.5977 117.629L92.4922 117.641L92.3984 117.629L89.75 117.477V117.465L87.2773 117.348L84.7812 117.734L84.582 117.77L84.3945 117.746L81.8516 117.453L79.2969 117.477L79.2852 117.465L76.7773 117.711L76.6133 117.723L76.4492 117.699L73.918 117.383L71.3867 117.43H71.3281L68.6914 117.371H68.6445L66.1719 117.23L63.7109 117.699L63.4766 117.746L63.2305 117.711L60.7227 117.348L58.2383 117.488H58.0156L55.5898 117.242L53.1406 117.676L52.8828 117.723L52.6133 117.676L50.1172 117.242L47.6914 117.395H47.668L47.6445 117.406L42.3711 117.57H42.2539L42.1367 117.559L39.5938 117.254L37.1328 117.418L37.0508 117.43L36.957 117.418L34.5078 117.277L32 117.699L31.7891 117.734L31.5781 117.711L29.0234 117.395L26.5391 117.324L23.9492 117.512L23.8906 117.523H23.832L21.1953 117.512H21.0781L18.5 117.301L16.0508 117.395L16.0625 117.406L13.4258 117.664L13.2734 117.676L13.1211 117.664L10.625 117.395L8.16406 117.5H8V114.5H8.03516L10.5781 114.395L10.6836 114.383L10.8008 114.395L13.2852 114.664L15.7695 114.418H15.8633L18.5 114.312L18.5938 114.301L18.6758 114.312L21.3125 114.512L21.3008 114.523H23.7383L26.375 114.336L26.4453 114.324L26.5273 114.336L29.1641 114.406H29.2344L29.293 114.418L31.7305 114.699L34.1562 114.301L34.3203 114.277L34.4844 114.289L37.0156 114.43L39.582 114.254L39.7227 114.242L39.8633 114.266L42.3711 114.57L44.9141 114.488L47.5039 114.418V114.406L50.1523 114.242L50.3281 114.23L50.5039 114.266L52.8828 114.688L55.2617 114.266L55.4609 114.23L55.6602 114.242L58.1328 114.488L60.7227 114.348L60.8633 114.336L61.0156 114.359L63.418 114.711L65.8086 114.266L65.9844 114.23L66.1602 114.242L68.7969 114.371L68.7852 114.383L71.3633 114.43L73.9766 114.383H74.082L74.1875 114.395L76.6836 114.711L79.1445 114.477H79.2734L81.9102 114.453H82.0039L82.0859 114.465L84.5469 114.746L86.9727 114.371L87.125 114.348L87.2773 114.359L89.9141 114.488H89.9258L92.4453 114.641L95 114.43L95.0586 114.418H95.1055L97.7539 114.406H97.8594L97.9648 114.418L100.367 114.746L102.77 114.312L103.027 114.266L103.285 114.301L105.816 114.723L108.137 114.664L110.738 114.266L111.031 114.219L111.312 114.289Z" fill="black"/>
<path d="M44.4844 53.2891L47.1211 53.4297L47.8594 53.4648L48.2812 54.0742L49.4883 55.832L49.8047 56.3008L49.7344 56.8633L49.4297 59.3711L49.5117 61.9141L49.5938 64.5039L49.7578 67.1523L49.7695 67.3281L49.7344 67.5039L49.3125 69.8828L49.7344 72.2617L49.7695 72.4609L49.7578 72.6602L49.5117 75.1328L49.6523 77.7227L49.6641 77.8633L49.6406 78.0156L49.2891 80.418L49.7344 82.8086L49.7695 82.9844L49.7578 83.1602L49.6289 85.7969L49.5703 88.3867L49.6172 90.9766V91.082L49.6055 91.1875L49.2891 93.6836L49.5234 96.1445V96.2734L49.5469 98.9102V99.0039L49.5352 99.0859L49.2539 101.547L49.6289 103.973L49.6523 104.125L49.6406 104.277L49.5117 106.914V106.926L49.3594 109.445L49.5703 112L49.582 112.059V112.105L49.5938 114.754L49.6055 115.562L48.9141 116.02L47.4258 116.992L47.168 117.156L46.8633 117.215L44.2266 117.695L43.9688 117.742L43.7109 117.695L41.2266 117.285L38.8477 117.332L36.2695 117.73L36.1523 117.754H36.0352L33.3984 117.742H33.293L33.1875 117.73L30.6797 117.355L28.207 117.508H28.125L25.4883 117.52H25.4414L22.8047 117.449L20.168 117.391H20.0625L19.957 117.367L17.9531 117.039L16.8516 116.863L16.7109 115.762L16.3594 113.113L16.3359 112.984L16.3477 112.844L16.4766 110.324L16.2656 107.758L16.2539 107.617L16.2656 107.465L16.5586 104.945L16.4883 102.402V99.7891L16.3594 97.1523L16.3477 97.1055L16.3594 97.0469L16.4062 94.4102L16.4648 91.7734L16.4883 89.207L16.3945 86.5703L16.3125 83.9336V83.875L16.3359 81.2266V81.2148L16.3828 78.5664V78.4961L16.3945 78.4258L16.6875 75.9062L16.6172 73.3516L16.3594 70.832L16.3477 70.7617V67.9375L16.5352 65.2891L16.6055 62.7109L16.6523 60.0977L16.6992 57.4492H16.7109L16.6172 55.0586L18 55V53.5H18.0352L20.5781 53.3945L20.6836 53.3828L20.8008 53.3945L23.2852 53.6641L25.7695 53.418H25.8633L28.5 53.3125L28.5938 53.3008L28.6758 53.3125L31.3125 53.5117L31.3008 53.5234H33.7383L36.375 53.3359L36.4453 53.3242L36.5273 53.3359L39.1641 53.4062H39.2344L39.293 53.418L41.7305 53.6992L44.1562 53.3008L44.3203 53.2773L44.4844 53.2891ZM42 56.6992L41.7891 56.7344L41.5781 56.7109L39.0234 56.3945L36.5391 56.3242L33.9492 56.5117L33.8906 56.5234H33.832L31.1953 56.5117H31.0781L28.5 56.3008L26.0508 56.3945L26.0625 56.4062L23.4258 56.6641L23.2734 56.6758L23.1211 56.6641L20.625 56.3945L19.6641 56.4297L19.6992 57.4258L19.7109 57.4609L19.6992 57.5078L19.6055 62.7812V62.8047L19.5352 65.4414L19.5234 65.4766V65.5117L19.3477 68.043V70.6797L19.6172 73.1641V73.2812L19.6875 75.918V76.0234L19.6758 76.1289L19.3828 78.625L19.3359 81.2734L19.3125 83.8867L19.3945 86.4648L19.4883 89.1133V89.1836L19.4648 91.8203V91.832L19.3477 97.1055L19.4766 99.6484L19.4883 99.6836V102.355L19.5586 104.957L19.5703 105.062L19.5586 105.168L19.2656 107.688L19.4648 110.16L19.4766 110.254V110.348L19.3477 112.855L19.5352 114.262L20.3086 114.391L22.875 114.449H22.8867L25.5117 114.508H28.0312L30.6797 114.355H30.832L30.9727 114.367L33.5391 114.742H35.8945L38.4492 114.367L38.543 114.355H38.6367L41.2852 114.285L41.4258 114.273L41.5664 114.297L43.957 114.684L46.0195 114.309L46.582 113.945V112.246L46.3711 109.598L46.3594 109.492L46.3711 109.398L46.5234 106.75L46.6406 104.277L46.2656 101.781L46.2305 101.582L46.2539 101.395L46.5352 98.8516L46.5234 96.2969V96.2852L46.2891 93.7773L46.2773 93.6133L46.3008 93.4492L46.6055 90.918L46.5703 88.3867V88.3281L46.6289 85.6914V85.6445L46.7578 83.1602L46.3008 80.7109L46.2539 80.4766L46.2891 80.2305L46.6406 77.7227L46.5117 75.2383V75.0156L46.7461 72.5898L46.3242 70.1406L46.2773 69.8828L46.3242 69.6133L46.7461 67.1172L46.6055 64.6914V64.668L46.5938 64.6445L46.4297 59.3711V59.2539L46.4414 59.1367L46.6875 57.0508L46.2188 56.3711L44.5078 56.2773L42 56.6992Z" fill="black"/>
<path d="M40.0352 74.543L40.4688 76.9336L40.4922 77.0742V77.2031L40.4805 79.7344L40.668 82.3711V82.5234L40.5977 85.1602V85.2305L40.5859 85.3008L40.293 87.7266L40.6914 90.1523L40.7266 90.3164L40.7148 90.4805L40.5742 93.0117L40.75 95.5781V95.7188L40.7383 95.8594L40.4219 98.4375L40.5156 100.91L40.5977 103.512L40.7617 106.148L40.7734 106.324L40.7383 106.5L40.3047 108.879L40.7383 111.258L40.7734 111.457L40.75 111.656L40.5039 114.305L40.4805 114.516L40.3984 114.727L39.5898 116.719L39.1445 117.809L37.9844 117.633L35.582 117.281L33.1914 117.738L33.0156 117.773L32.8398 117.762L30.2031 117.621H30.0859L29.9805 117.598L27.625 117.105L26.4531 116.859L26.4297 115.664L26.3828 113.027V112.922L26.3945 112.816L26.7109 110.309L26.4766 107.859V107.73L26.4531 105.094V105L26.4648 104.906L26.7461 102.445L26.3711 100.02L26.3477 99.8789L26.3594 99.7266L26.4883 97.0898V97.0781L26.6406 94.5469L26.4297 92.0039L26.418 91.9453V91.8867L26.4062 89.25V89.1445L26.418 89.0391L26.7461 86.625L26.3125 84.2227L26.2656 83.9766L26.3008 83.7188L26.7227 81.1758L26.6641 78.8438L26.2656 76.2656L26.2188 75.9727L26.2891 75.6914L26.5469 74.6484L26.8516 73.3945L28.0938 73.5117L30.5664 73.3945L30.6836 73.3828L30.8008 73.3945L33.2852 73.6641L35.7695 73.418H35.8633L38.5 73.3125L39.8008 73.2539L40.0352 74.543ZM36.0508 76.3945L36.0625 76.4062L33.4258 76.6641L33.2734 76.6758L33.1211 76.6641L30.625 76.3945L29.3242 76.4531L29.6289 78.457L29.6523 78.5508V78.6445L29.7227 81.2812V81.4219L29.6992 81.5625L29.3008 83.9297L29.7344 86.332L29.7812 86.5664L29.7461 86.8008L29.4062 89.3438L29.418 91.7578L29.6289 94.3945L29.6406 94.5L29.6289 94.6055L29.4766 97.2422L29.3477 99.7031L29.7344 102.223L29.7695 102.41L29.7461 102.609L29.4531 105.129L29.4648 107.695L29.7109 110.227L29.7227 110.379L29.6992 110.543L29.3828 113.062L29.4062 114.41L30.5078 114.633L32.8164 114.75L35.2891 114.305L35.5234 114.258L35.7695 114.293L37.2461 114.492L37.5273 113.789L37.7383 111.551L37.3164 109.137L37.2695 108.879L37.3164 108.621L37.75 106.172L37.5977 103.688V103.652L37.5156 101.004L37.4336 98.3672L37.4219 98.25L37.4336 98.1328L37.7383 95.6484L37.5742 93.1406V92.9648L37.7031 90.4453L37.3047 88.0078L37.2695 87.7969L37.293 87.5859L37.5977 85.0312L37.668 82.582L37.4805 79.9453V77.3203L37.3047 76.3477L36.0508 76.3945Z" fill="black"/>
<path d="M40.0352 75.457L40.4688 73.0664L40.5156 72.7852L40.457 72.5156L39.9648 69.9492L39.9062 69.6445L39.7305 69.3984L38.2422 67.1953L37.9961 66.832L37.5859 66.6562L35.1133 65.6133L34.7148 65.4492L34.2812 65.5195L31.7148 65.9648L31.5625 65.9883L31.4102 66.0469L28.9492 67.0195L28.4453 67.2188L28.1875 67.6875L26.8867 70.043L26.7578 70.2656L26.7227 70.5117L26.2773 73.1484L26.2305 73.418L26.2773 73.6992L26.6055 75.293L27.9414 75.0234L28 76.5H28.293L30.5664 76.6055L30.6836 76.6172L30.8008 76.6055L33.2852 76.3359L35.7695 76.582H35.8633L38.5 76.6875L39.8008 76.7461L40.0352 75.457ZM36.0508 73.6055L36.0625 73.5938L33.4258 73.3359L33.2734 73.3242L33.1211 73.3359L30.625 73.6055L29.3008 73.5469L29.2773 73.4062L29.6289 71.2852L30.543 69.6211L32.3594 68.8945L34.3516 68.5547L36.0039 69.2578L37.082 70.8516L37.457 72.832L37.3047 73.6523L36.0508 73.6055Z" fill="black"/>
<path d="M32.6758 56.6875L35.3125 56.4883L35.3008 56.4766H37.7383L40.375 56.6641L40.4453 56.6758L40.5273 56.6641L43.1641 56.5938L43.5039 56.582L43.8086 56.4297L45.4727 55.5742L46.1406 55.2344L46.2578 54.4844L46.6914 51.8477L46.7266 51.6836L46.7148 51.5195L46.5742 48.9883L46.75 46.4219V46.2812L46.7383 46.1406L46.4219 43.5625L46.5156 41.0898L46.5977 38.4531L46.6328 37.2812L45.5078 36.9531L43.1641 36.2969L42.8359 36.2031L42.4961 36.2617L40.1172 36.6953L37.7383 36.2617L37.5391 36.2266L37.3398 36.25L34.7852 36.4961L32.2773 36.3438H32.1367L31.9844 36.3672L29.582 36.7188L27.1914 36.2617L27.0156 36.2266L26.8398 36.2383L24.2031 36.3789H24.0859L23.9805 36.4023L21.625 36.8945L20.4531 37.1406L20.4297 38.3359L20.3828 40.9727V41.0781L20.3945 41.1836L20.7109 43.6914L20.4766 46.1406V46.2695L20.4531 48.9062V49L20.4648 49.0938L20.7461 51.5547L20.3711 53.9805L20.3359 54.2266L20.3828 54.4727L20.5234 55.2695L20.7461 56.5H22.0352L24.5781 56.6055L24.6836 56.6172L24.8008 56.6055L27.2852 56.3359L29.7695 56.582H29.8633L32.5 56.6875L32.5938 56.6992L32.6758 56.6875ZM30.0508 53.6055L30.0625 53.5938L27.4258 53.3359L27.2734 53.3242L27.1211 53.3359L24.625 53.6055L23.4648 53.5586L23.7344 51.7773L23.7695 51.5898L23.7461 51.3906L23.4531 48.8828L23.4766 46.3164L23.7109 43.7734L23.7227 43.6211L23.6992 43.457L23.3828 40.9375L23.4062 39.5898L24.5078 39.3672L26.8164 39.25L29.2891 39.6953L29.5234 39.7422L29.7695 39.707L32.2656 39.3555L34.7617 39.4844L34.8672 39.4961L34.9844 39.4844L37.4453 39.2617L39.8594 39.6836L40.1172 39.7305L40.3867 39.6836L42.6836 39.2852L43.5508 39.5312L43.5156 40.9961L43.4336 43.6328L43.4219 43.75L43.4336 43.8672L43.7383 46.3516L43.5742 48.8594V49.0352L43.7031 51.5547L43.4219 53.2539L42.7305 53.6055L40.5391 53.6758L37.9492 53.4883L37.8906 53.4766H37.832L35.1953 53.4883H35.0781L32.5 53.6992L30.0508 53.6055Z" fill="black"/>
<path d="M35.6758 39.6875L38.3125 39.4883L38.3008 39.4766H42.1562L42.332 38.1758L42.6602 35.7148L42.6719 35.5977V35.4805L42.5898 32.832V32.7031L42.2969 30.2773L42.6953 27.8398L42.9062 26.5391L41.6523 26.1641L39.3906 25.4844L39.2266 25.4375L39.0625 25.4258L36.4141 25.25H36.2734L36.1328 25.2617L33.543 25.5781L31.0938 25.4844L28.4805 25.4141L28.4922 25.4023L25.8555 25.2383L24.6133 25.168L24.3086 26.3633L23.7578 28.5078L23.7344 28.5664L23.7227 28.625L23.2656 31.2617L23.2305 31.4609L23.2422 31.6602L23.4883 34.1562L23.3477 36.7227V36.8516L23.3594 36.9922L23.5117 38.1875L23.6758 39.5H25.0352L27.5781 39.6055L27.6836 39.6172L27.8008 39.6055L30.2852 39.3359L32.7695 39.582H32.8633L35.5 39.6875L35.5938 39.6992L35.6758 39.6875ZM33.0508 36.6055L33.0625 36.5938L30.4258 36.3359L30.2734 36.3242L30.1211 36.3359L27.625 36.6055L26.3594 36.5586L26.4883 34.2383V34.0156L26.2422 31.6016L26.6523 29.2578L26.8984 28.3203L28.3047 28.4023H28.3516L33.625 28.5664L33.7422 28.5781L33.8594 28.5664L36.332 28.2617L38.7227 28.4258L39.5078 28.6602L39.2969 29.9961L39.2734 30.207L39.2969 30.418L39.5898 32.9727L39.6602 35.4453L39.5195 36.4883H38.0781L35.5 36.6992L33.0508 36.6055Z" fill="black"/>
<path d="M40.0352 27.457L40.4688 25.0664L40.4922 24.9258V24.7969L40.4805 22.2656L40.668 19.6289L40.75 18.3867L39.5547 18.0703L37.2695 17.4609L36.9883 17.3789L36.707 17.4141L34.2578 17.707L31.8438 17.3086L31.6797 17.2734L31.5156 17.2852L28.8789 17.4258L28.1406 17.4609L27.7188 18.0703L26.5117 19.8281L26.1953 20.2969L26.2656 20.8594L26.5703 23.3789L26.4883 25.9102V25.9805L26.5 27.0234L26.5234 28.6406L28.1055 28.4883L30.5664 28.6055L30.6836 28.6172L30.8008 28.6055L33.2852 28.3359L35.7695 28.582H35.8633L38.5 28.6875L39.8008 28.7461L40.0352 27.457ZM36.0508 25.6055L36.0625 25.5938L33.4258 25.3359L33.2734 25.3242L33.1211 25.3359L30.625 25.6055L29.5 25.5586L29.5703 23.3672V23.25L29.5586 23.1328L29.3008 21.0586L29.7578 20.3906L31.5391 20.2969L34 20.6953L34.2109 20.7305L34.4219 20.707L36.7539 20.4375L37.5742 20.6484L37.4805 22.0547V24.6797L37.3047 25.6523L36.0508 25.6055Z" fill="black"/>
<path d="M38.1055 20.0078L39.3828 18.3555L39.9102 17.6758L39.582 16.8789L38.5977 14.4062L38.4453 14.043L38.1406 13.7969L36.1133 12.1797L35.8086 11.9219L35.4219 11.8633L32.7969 11.4414L32.2695 11.3594L31.8125 11.6289L29.4922 12.9648L29.0352 13.2227L28.8477 13.7148L27.8984 16.1289L27.8633 16.2344L27.8281 16.3516L27.3242 18.6719L26.9141 20.5H29.2461L29.293 20.4766L31.5547 20.6055L31.6719 20.6172L31.8008 20.6055L34.2852 20.3359L36.7695 20.582L37.6016 20.6641L38.1055 20.0078ZM30.6289 17.5586L30.7227 17.1602L31.4375 15.3086L32.8555 14.5L34.543 14.7695L35.9492 15.9062L36.4766 17.1953L36.2305 17.5234L34.4258 17.3359L34.2734 17.3242L34.1211 17.3359L31.5664 17.6172L30.6289 17.5586Z" fill="black"/>
<path d="M33.5 4.50391L33.5 5.99219L34.8945 5.78125L35.1523 7.50391L35.1758 7.69141L35.1641 7.87891L34.9062 10.375L35 12.8359L35 13L32 13L32 12.9648L31.8945 10.4219L31.8828 10.3164L31.8945 10.1992L32.1641 7.73828L31.9297 6.22656L31.6719 4.50391L33.5 4.50391Z" fill="black"/>
<path d="M98.4844 53.2891L101.121 53.4297L101.859 53.4648L102.281 54.0742L103.488 55.832L103.805 56.3008L103.734 56.8633L103.43 59.3711L103.512 61.9141L103.594 64.5039L103.758 67.1523L103.77 67.3281L103.734 67.5039L103.312 69.8828L103.734 72.2617L103.77 72.4609L103.758 72.6602L103.512 75.1328L103.652 77.7227L103.664 77.8633L103.641 78.0156L103.289 80.418L103.734 82.8086L103.77 82.9844L103.758 83.1602L103.629 85.7969L103.57 88.3867L103.617 90.9766V91.082L103.605 91.1875L103.289 93.6836L103.523 96.1445V96.2734L103.547 98.9102V99.0039L103.535 99.0859L103.254 101.547L103.629 103.973L103.652 104.125L103.641 104.277L103.512 106.914V106.926L103.359 109.445L103.57 112L103.582 112.059V112.105L103.594 114.754L103.605 115.562L102.914 116.02L101.426 116.992L101.168 117.156L100.863 117.215L98.2266 117.695L97.9688 117.742L97.7109 117.695L95.2266 117.285L92.8477 117.332L90.2695 117.73L90.1523 117.754H90.0352L87.3984 117.742H87.293L87.1875 117.73L84.6797 117.355L82.207 117.508H82.125L79.4883 117.52H79.4414L76.8047 117.449L74.168 117.391H74.0625L73.957 117.367L71.9531 117.039L70.8516 116.863L70.7109 115.762L70.3594 113.113L70.3359 112.984L70.3477 112.844L70.4766 110.324L70.2656 107.758L70.2539 107.617L70.2656 107.465L70.5586 104.945L70.4883 102.402V99.7891L70.3594 97.1523L70.3477 97.1055L70.3594 97.0469L70.4062 94.4102L70.4648 91.7734L70.4883 89.207L70.3945 86.5703L70.3125 83.9336V83.875L70.3359 81.2266V81.2148L70.3828 78.5664V78.4961L70.3945 78.4258L70.6875 75.9062L70.6172 73.3516L70.3594 70.832L70.3477 70.7617V67.9375L70.5352 65.2891L70.6055 62.7109L70.6523 60.0977L70.6992 57.4492H70.7109L70.6172 55.0586L72 55V53.5H72.0352L74.5781 53.3945L74.6836 53.3828L74.8008 53.3945L77.2852 53.6641L79.7695 53.418H79.8633L82.5 53.3125L82.5938 53.3008L82.6758 53.3125L85.3125 53.5117L85.3008 53.5234H87.7383L90.375 53.3359L90.4453 53.3242L90.5273 53.3359L93.1641 53.4062H93.2344L93.293 53.418L95.7305 53.6992L98.1562 53.3008L98.3203 53.2773L98.4844 53.2891ZM96 56.6992L95.7891 56.7344L95.5781 56.7109L93.0234 56.3945L90.5391 56.3242L87.9492 56.5117L87.8906 56.5234H87.832L85.1953 56.5117H85.0781L82.5 56.3008L80.0508 56.3945L80.0625 56.4062L77.4258 56.6641L77.2734 56.6758L77.1211 56.6641L74.625 56.3945L73.6641 56.4297L73.6992 57.4258L73.7109 57.4609L73.6992 57.5078L73.6055 62.7812V62.8047L73.5352 65.4414L73.5234 65.4766V65.5117L73.3477 68.043V70.6797L73.6172 73.1641V73.2812L73.6875 75.918V76.0234L73.6758 76.1289L73.3828 78.625L73.3359 81.2734L73.3125 83.8867L73.3945 86.4648L73.4883 89.1133V89.1836L73.4648 91.8203V91.832L73.3477 97.1055L73.4766 99.6484L73.4883 99.6836V102.355L73.5586 104.957L73.5703 105.062L73.5586 105.168L73.2656 107.688L73.4648 110.16L73.4766 110.254V110.348L73.3477 112.855L73.5352 114.262L74.3086 114.391L76.875 114.449H76.8867L79.5117 114.508H82.0312L84.6797 114.355H84.832L84.9727 114.367L87.5391 114.742H89.8945L92.4492 114.367L92.543 114.355H92.6367L95.2852 114.285L95.4258 114.273L95.5664 114.297L97.957 114.684L100.02 114.309L100.582 113.945V112.246L100.371 109.598L100.359 109.492L100.371 109.398L100.523 106.75L100.641 104.277L100.266 101.781L100.23 101.582L100.254 101.395L100.535 98.8516L100.523 96.2969V96.2852L100.289 93.7773L100.277 93.6133L100.301 93.4492L100.605 90.918L100.57 88.3867V88.3281L100.629 85.6914V85.6445L100.758 83.1602L100.301 80.7109L100.254 80.4766L100.289 80.2305L100.641 77.7227L100.512 75.2383V75.0156L100.746 72.5898L100.324 70.1406L100.277 69.8828L100.324 69.6133L100.746 67.1172L100.605 64.6914V64.668L100.594 64.6445L100.43 59.3711V59.2539L100.441 59.1367L100.688 57.0508L100.219 56.3711L98.5078 56.2773L96 56.6992Z" fill="black"/>
<path d="M94.0352 74.543L94.4688 76.9336L94.4922 77.0742V77.2031L94.4805 79.7344L94.668 82.3711V82.5234L94.5977 85.1602V85.2305L94.5859 85.3008L94.293 87.7266L94.6914 90.1523L94.7266 90.3164L94.7148 90.4805L94.5742 93.0117L94.75 95.5781V95.7188L94.7383 95.8594L94.4219 98.4375L94.5156 100.91L94.5977 103.512L94.7617 106.148L94.7734 106.324L94.7383 106.5L94.3047 108.879L94.7383 111.258L94.7734 111.457L94.75 111.656L94.5039 114.305L94.4805 114.516L94.3984 114.727L93.5898 116.719L93.1445 117.809L91.9844 117.633L89.582 117.281L87.1914 117.738L87.0156 117.773L86.8398 117.762L84.2031 117.621H84.0859L83.9805 117.598L81.625 117.105L80.4531 116.859L80.4297 115.664L80.3828 113.027V112.922L80.3945 112.816L80.7109 110.309L80.4766 107.859V107.73L80.4531 105.094V105L80.4648 104.906L80.7461 102.445L80.3711 100.02L80.3477 99.8789L80.3594 99.7266L80.4883 97.0898V97.0781L80.6406 94.5469L80.4297 92.0039L80.418 91.9453V91.8867L80.4062 89.25V89.1445L80.418 89.0391L80.7461 86.625L80.3125 84.2227L80.2656 83.9766L80.3008 83.7188L80.7227 81.1758L80.6641 78.8438L80.2656 76.2656L80.2188 75.9727L80.2891 75.6914L80.5469 74.6484L80.8516 73.3945L82.0938 73.5117L84.5664 73.3945L84.6836 73.3828L84.8008 73.3945L87.2852 73.6641L89.7695 73.418H89.8633L92.5 73.3125L93.8008 73.2539L94.0352 74.543ZM90.0508 76.3945L90.0625 76.4062L87.4258 76.6641L87.2734 76.6758L87.1211 76.6641L84.625 76.3945L83.3242 76.4531L83.6289 78.457L83.6523 78.5508V78.6445L83.7227 81.2812V81.4219L83.6992 81.5625L83.3008 83.9297L83.7344 86.332L83.7812 86.5664L83.7461 86.8008L83.4062 89.3438L83.418 91.7578L83.6289 94.3945L83.6406 94.5L83.6289 94.6055L83.4766 97.2422L83.3477 99.7031L83.7344 102.223L83.7695 102.41L83.7461 102.609L83.4531 105.129L83.4648 107.695L83.7109 110.227L83.7227 110.379L83.6992 110.543L83.3828 113.062L83.4062 114.41L84.5078 114.633L86.8164 114.75L89.2891 114.305L89.5234 114.258L89.7695 114.293L91.2461 114.492L91.5273 113.789L91.7383 111.551L91.3164 109.137L91.2695 108.879L91.3164 108.621L91.75 106.172L91.5977 103.688V103.652L91.5156 101.004L91.4336 98.3672L91.4219 98.25L91.4336 98.1328L91.7383 95.6484L91.5742 93.1406V92.9648L91.7031 90.4453L91.3047 88.0078L91.2695 87.7969L91.293 87.5859L91.5977 85.0312L91.668 82.582L91.4805 79.9453V77.3203L91.3047 76.3477L90.0508 76.3945Z" fill="black"/>
<path d="M94.0352 75.457L94.4688 73.0664L94.5156 72.7852L94.457 72.5156L93.9648 69.9492L93.9062 69.6445L93.7305 69.3984L92.2422 67.1953L91.9961 66.832L91.5859 66.6562L89.1133 65.6133L88.7148 65.4492L88.2812 65.5195L85.7148 65.9648L85.5625 65.9883L85.4102 66.0469L82.9492 67.0195L82.4453 67.2188L82.1875 67.6875L80.8867 70.043L80.7578 70.2656L80.7227 70.5117L80.2773 73.1484L80.2305 73.418L80.2773 73.6992L80.6055 75.293L81.9414 75.0234L82 76.5H82.293L84.5664 76.6055L84.6836 76.6172L84.8008 76.6055L87.2852 76.3359L89.7695 76.582H89.8633L92.5 76.6875L93.8008 76.7461L94.0352 75.457ZM90.0508 73.6055L90.0625 73.5938L87.4258 73.3359L87.2734 73.3242L87.1211 73.3359L84.625 73.6055L83.3008 73.5469L83.2773 73.4062L83.6289 71.2852L84.543 69.6211L86.3594 68.8945L88.3516 68.5547L90.0039 69.2578L91.082 70.8516L91.457 72.832L91.3047 73.6523L90.0508 73.6055Z" fill="black"/>
<path d="M86.6758 56.6875L89.3125 56.4883L89.3008 56.4766H91.7383L94.375 56.6641L94.4453 56.6758L94.5273 56.6641L97.1641 56.5938L97.5039 56.582L97.8086 56.4297L99.4727 55.5742L100.141 55.2344L100.258 54.4844L100.691 51.8477L100.727 51.6836L100.715 51.5195L100.574 48.9883L100.75 46.4219V46.2812L100.738 46.1406L100.422 43.5625L100.516 41.0898L100.598 38.4531L100.633 37.2812L99.5078 36.9531L97.1641 36.2969L96.8359 36.2031L96.4961 36.2617L94.1172 36.6953L91.7383 36.2617L91.5391 36.2266L91.3398 36.25L88.7852 36.4961L86.2773 36.3438H86.1367L85.9844 36.3672L83.582 36.7188L81.1914 36.2617L81.0156 36.2266L80.8398 36.2383L78.2031 36.3789H78.0859L77.9805 36.4023L75.625 36.8945L74.4531 37.1406L74.4297 38.3359L74.3828 40.9727V41.0781L74.3945 41.1836L74.7109 43.6914L74.4766 46.1406V46.2695L74.4531 48.9062V49L74.4648 49.0938L74.7461 51.5547L74.3711 53.9805L74.3359 54.2266L74.3828 54.4727L74.5234 55.2695L74.7461 56.5H76.0352L78.5781 56.6055L78.6836 56.6172L78.8008 56.6055L81.2852 56.3359L83.7695 56.582H83.8633L86.5 56.6875L86.5938 56.6992L86.6758 56.6875ZM84.0508 53.6055L84.0625 53.5938L81.4258 53.3359L81.2734 53.3242L81.1211 53.3359L78.625 53.6055L77.4648 53.5586L77.7344 51.7773L77.7695 51.5898L77.7461 51.3906L77.4531 48.8828L77.4766 46.3164L77.7109 43.7734L77.7227 43.6211L77.6992 43.457L77.3828 40.9375L77.4062 39.5898L78.5078 39.3672L80.8164 39.25L83.2891 39.6953L83.5234 39.7422L83.7695 39.707L86.2656 39.3555L88.7617 39.4844L88.8672 39.4961L88.9844 39.4844L91.4453 39.2617L93.8594 39.6836L94.1172 39.7305L94.3867 39.6836L96.6836 39.2852L97.5508 39.5312L97.5156 40.9961L97.4336 43.6328L97.4219 43.75L97.4336 43.8672L97.7383 46.3516L97.5742 48.8594V49.0352L97.7031 51.5547L97.4219 53.2539L96.7305 53.6055L94.5391 53.6758L91.9492 53.4883L91.8906 53.4766H91.832L89.1953 53.4883H89.0781L86.5 53.6992L84.0508 53.6055Z" fill="black"/>
<path d="M89.6758 39.6875L92.3125 39.4883L92.3008 39.4766H96.1562L96.332 38.1758L96.6602 35.7148L96.6719 35.5977V35.4805L96.5898 32.832V32.7031L96.2969 30.2773L96.6953 27.8398L96.9062 26.5391L95.6523 26.1641L93.3906 25.4844L93.2266 25.4375L93.0625 25.4258L90.4141 25.25H90.2734L90.1328 25.2617L87.543 25.5781L85.0938 25.4844L82.4805 25.4141L82.4922 25.4023L79.8555 25.2383L78.6133 25.168L78.3086 26.3633L77.7578 28.5078L77.7344 28.5664L77.7227 28.625L77.2656 31.2617L77.2305 31.4609L77.2422 31.6602L77.4883 34.1562L77.3477 36.7227V36.8516L77.3594 36.9922L77.5117 38.1875L77.6758 39.5H79.0352L81.5781 39.6055L81.6836 39.6172L81.8008 39.6055L84.2852 39.3359L86.7695 39.582H86.8633L89.5 39.6875L89.5938 39.6992L89.6758 39.6875ZM87.0508 36.6055L87.0625 36.5938L84.4258 36.3359L84.2734 36.3242L84.1211 36.3359L81.625 36.6055L80.3594 36.5586L80.4883 34.2383V34.0156L80.2422 31.6016L80.6523 29.2578L80.8984 28.3203L82.3047 28.4023H82.3516L87.625 28.5664L87.7422 28.5781L87.8594 28.5664L90.332 28.2617L92.7227 28.4258L93.5078 28.6602L93.2969 29.9961L93.2734 30.207L93.2969 30.418L93.5898 32.9727L93.6602 35.4453L93.5195 36.4883H92.0781L89.5 36.6992L87.0508 36.6055Z" fill="black"/>
<path d="M94.0352 27.457L94.4688 25.0664L94.4922 24.9258V24.7969L94.4805 22.2656L94.668 19.6289L94.75 18.3867L93.5547 18.0703L91.2695 17.4609L90.9883 17.3789L90.707 17.4141L88.2578 17.707L85.8438 17.3086L85.6797 17.2734L85.5156 17.2852L82.8789 17.4258L82.1406 17.4609L81.7188 18.0703L80.5117 19.8281L80.1953 20.2969L80.2656 20.8594L80.5703 23.3789L80.4883 25.9102V25.9805L80.5 27.0234L80.5234 28.6406L82.1055 28.4883L84.5664 28.6055L84.6836 28.6172L84.8008 28.6055L87.2852 28.3359L89.7695 28.582H89.8633L92.5 28.6875L93.8008 28.7461L94.0352 27.457ZM90.0508 25.6055L90.0625 25.5938L87.4258 25.3359L87.2734 25.3242L87.1211 25.3359L84.625 25.6055L83.5 25.5586L83.5703 23.3672V23.25L83.5586 23.1328L83.3008 21.0586L83.7578 20.3906L85.5391 20.2969L88 20.6953L88.2109 20.7305L88.4219 20.707L90.7539 20.4375L91.5742 20.6484L91.4805 22.0547V24.6797L91.3047 25.6523L90.0508 25.6055Z" fill="black"/>
<path d="M92.1055 20.0078L93.3828 18.3555L93.9102 17.6758L93.582 16.8789L92.5977 14.4062L92.4453 14.043L92.1406 13.7969L90.1133 12.1797L89.8086 11.9219L89.4219 11.8633L86.7969 11.4414L86.2695 11.3594L85.8125 11.6289L83.4922 12.9648L83.0352 13.2227L82.8477 13.7148L81.8984 16.1289L81.8633 16.2344L81.8281 16.3516L81.3242 18.6719L80.9141 20.5H83.2461L83.293 20.4766L85.5547 20.6055L85.6719 20.6172L85.8008 20.6055L88.2852 20.3359L90.7695 20.582L91.6016 20.6641L92.1055 20.0078ZM84.6289 17.5586L84.7227 17.1602L85.4375 15.3086L86.8555 14.5L88.543 14.7695L89.9492 15.9062L90.4766 17.1953L90.2305 17.5234L88.4258 17.3359L88.2734 17.3242L88.1211 17.3359L85.5664 17.6172L84.6289 17.5586Z" fill="black"/>
<path d="M87.5 4.50391L87.5 5.99219L88.8945 5.78125L89.1523 7.50391L89.1758 7.69141L89.1641 7.87891L88.9062 10.375L89 12.8359L89 13L86 13L86 12.9648L85.8945 10.4219L85.8828 10.3164L85.8945 10.1992L86.1641 7.73828L85.9297 6.22656L85.6719 4.50391L87.5 4.50391Z" fill="black"/>
<path d="M58.6758 63.8125L61.3125 64.0117L61.3008 64.0234H63.7383L66.375 63.8359L66.4453 63.8242L66.5273 63.8359L69.1641 63.9062H69.2344L69.293 63.918L71.9414 64.2227L71.8125 65.3008L72 65.5L73.0078 66.6133L72.7617 66.8242L72.2578 67.293L71.5781 67.2109L69.0234 66.9062L66.5391 66.8359L63.9492 67.0117L63.8906 67.0234H63.832L61.1953 67.0117H61.0781L58.5 66.8125L56.0508 66.9062H56.0625L53.4258 67.1641L53.2734 67.1758L53.1211 67.1641L50.625 66.9062L48.1641 67H48V64H48.0352L50.5781 63.8945L50.6836 63.8828L50.8008 63.8945L53.2852 64.1641L55.7695 63.918H55.8633L58.5 63.8125L58.5938 63.8008L58.6758 63.8125Z" fill="black"/>
<path d="M58.6758 72.8125L61.3125 73.0117L61.3008 73.0234H63.7383L66.375 72.8359L66.4453 72.8242L66.5273 72.8359L69.1641 72.9062H69.2344L69.293 72.918L71.9414 73.2227L71.8125 74.3008L72 74.5L73.0078 75.6133L72.7617 75.8242L72.2578 76.293L71.5781 76.2109L69.0234 75.9062L66.5391 75.8359L63.9492 76.0117L63.8906 76.0234H63.832L61.1953 76.0117H61.0781L58.5 75.8125L56.0508 75.9062H56.0625L53.4258 76.1641L53.2734 76.1758L53.1211 76.1641L50.625 75.9062L48.1641 76H48V73H48.0352L50.5781 72.8945L50.6836 72.8828L50.8008 72.8945L53.2852 73.1641L55.7695 72.918H55.8633L58.5 72.8125L58.5938 72.8008L58.6758 72.8125Z" fill="black"/>
<path d="M61.3242 73.4805L62.9883 75.5312L63.0234 75.5781L63.0586 75.6367L64.418 77.6641L66.3164 79.2578L66.4336 79.3633L66.5391 79.4922L68.0625 81.4844L69.8789 83.3477L69.9727 83.4414L70.0547 83.5586L71.4375 85.6445L73.1133 87.4727L74.168 88.6211L72.9844 89.6289L72.9727 89.6406L72 88.5039L71.9883 88.4922L70.9102 89.5L69.1758 87.625L69.0938 87.5312L69.0352 87.4375L67.6406 85.3516L65.8828 83.5469L65.8242 83.4883L65.7656 83.418L64.2539 81.4492L62.332 79.832L62.168 79.6914L62.0508 79.5156L60.5742 77.3125H60.5625L60.0938 76.7266L59.4492 77.4531L59.4609 77.4648L57.7383 79.4688L57.6562 79.5508L55.875 81.3203L54.2695 83.3594L52.793 85.457L52.6992 85.5859L52.5938 85.6914L50.7422 87.4258L49.2422 89.3477L49.2305 89.3711L49.207 89.3945L49.1367 89.4766L48 88.5039L46.8633 87.5195L46.9219 87.4492L48.457 85.5039L48.5273 85.4102L48.6094 85.3398L50.3906 83.6289L51.8555 81.5664L51.8789 81.5312L51.9141 81.4961L53.543 79.4219L53.6016 79.3516L55.5352 77.418L57.1875 75.5078L57.1992 75.4961L59.0273 73.4219L60.2109 72.0977L61.3242 73.4805Z" fill="black"/>
</svg>
