<svg xmlns="http://www.w3.org/2000/svg" width="120" height="120" fill="none" viewBox="0 0 120 120"><path fill="currentColor" d="m111.31 114.29 1.05.26-.7 2.9-.77-.18-2.34.36-.1.02h-.1l-2.63.07h-.14l-2.53-.42-2.38.43-.23.05-.24-.03-2.56-.34h-2.4l-2.64.22-.1.01-.1-.01-2.65-.15v-.02l-2.47-.11-2.5.38-.2.04-.19-.02-2.54-.3-2.55.03-.01-.02-2.51.25-.17.01-.16-.02-2.53-.32-2.53.05h-.06l-2.64-.06h-.05l-2.47-.14-2.46.47-.23.05-.25-.04-2.5-.36-2.5.14h-.21l-2.43-.25-2.45.44-.26.04-.27-.04-2.5-.44-2.42.16h-.05l-5.27.17h-.12l-.11-.01-2.55-.3-2.46.16-.08.01-.1-.01-2.44-.14-2.51.42-.21.03-.21-.02-2.56-.31-2.48-.08-2.6.2h-2.86l-2.58-.22-2.45.1h.01l-2.63.26-.16.02-.15-.02-2.5-.27-2.46.11H8v-3h.04l2.54-.1.1-.02.12.02 2.49.26 2.48-.24h.1l2.63-.1.1-.02.08.01 2.63.2v.01h2.43l2.64-.18.07-.02.08.02 2.63.07h.13l2.44.29 2.43-.4.16-.02h.16l2.54.15 2.56-.18h.14l.14.02 2.51.3 2.54-.08 2.6-.07v-.01l2.64-.17.18-.01.17.04 2.38.42 2.38-.42.2-.04.2.01 2.47.25 2.6-.14.13-.01.16.02 2.4.35 2.39-.44.17-.04.18.01 2.64.13-.01.01 2.57.05 2.62-.05h.1l.1.02 2.5.31 2.46-.23h.13l2.64-.03h.1l.08.02 2.46.28 2.42-.38.16-.02h.15l2.63.14h.02l2.52.15 2.55-.21.06-.01h.05l2.64-.01h.21l2.4.34 2.41-.44.26-.04.25.03 2.54.42 2.32-.06 2.6-.4.3-.04z"/><path fill="currentColor" d="m44.48 53.29 2.64.14.74.03.42.61 1.2 1.76.32.47-.07.56-.3 2.51.08 2.54.08 2.6.17 2.64.01.18-.04.17-.42 2.38.42 2.38.04.2-.01.2-.25 2.47.14 2.6.01.13-.02.16-.35 2.4.44 2.39.04.17-.01.18-.13 2.64-.06 2.59.05 2.59v.1l-.01.1-.32 2.5.23 2.46v.13l.03 2.64v.1l-.01.08-.29 2.46.38 2.42.02.16v.15l-.14 2.63v.02l-.15 2.51.21 2.56.01.06v.05l.01 2.64.02.81-.7.46-1.48.97-.26.17-.3.06-2.64.47-.26.05-.26-.05-2.48-.4-2.38.04-2.58.4-.12.02H33.3l-.11-.02-2.51-.37-2.47.15h-.09l-2.63.01h-.05l-2.64-.07-2.63-.06h-.1l-.11-.02-2-.33-1.1-.18-.15-1.1-.35-2.65-.02-.13v-.14l.14-2.52-.21-2.56-.02-.14.02-.16.29-2.52-.07-2.54v-2.6l-.13-2.64-.01-.04v-.06l.06-2.64.05-2.64.03-2.56-.1-2.64-.08-2.64v-.06l.03-2.64v-.02l.04-2.64v-.07l.01-.07.3-2.52-.07-2.56-.26-2.52-.01-.07v-2.82l.19-2.65.07-2.58.04-2.61.05-2.65h.01l-.1-2.4L18 55v-1.5h.04l2.54-.1.1-.02.12.01 2.49.27 2.48-.24h.1l2.63-.1.1-.02.08.01 2.63.2v.01h2.43l2.63-.18.08-.02.08.02 2.63.07h.13l2.44.29 2.43-.4.16-.02zM42 56.69l-.21.04-.21-.02-2.56-.32-2.48-.07-2.6.2h-2.86l-2.58-.22-2.45.1h.01l-2.63.26-.16.02-.15-.02-2.5-.27-.96.04.04 1 .01.03-.01.05-.1 5.27v.02l-.06 2.64-.02.04v.03l-.17 2.53v2.64l.27 2.48v.12l.07 2.64v.1l-.01.1-.3 2.5-.04 2.65-.03 2.62.08 2.57.1 2.65v.07l-.03 2.64v.01l-.11 5.28.13 2.54v2.7l.08 2.6.01.11-.01.1-.3 2.53.2 2.47.02.1v.09l-.13 2.5.19 1.41.77.13 2.57.06 2.63.06h2.52l2.65-.16h.15l.14.02 2.57.37h2.35l2.56-.37.1-.02h.09l2.65-.06.14-.02.14.03 2.39.38 2.06-.37.56-.37v-1.7l-.2-2.64-.02-.1.01-.1.15-2.65.12-2.47-.37-2.5-.04-.2.02-.19.29-2.54-.02-2.55v-.01l-.23-2.51-.01-.17.02-.16.3-2.53-.03-2.53v-.06l.06-2.64v-.05l.13-2.48-.46-2.45-.05-.23.04-.25.35-2.5-.13-2.5v-.21l.24-2.43-.43-2.45-.04-.26.04-.27.43-2.5-.14-2.42v-.02l-.02-.03-.16-5.27v-.12l.01-.11.25-2.09-.47-.68-1.71-.1z"/><path fill="currentColor" d="m40.04 74.54.43 2.4.02.13v.13l-.01 2.53.19 2.64v.15l-.07 2.64v.07l-.01.07-.3 2.43.4 2.42.04.17-.02.16-.14 2.53.18 2.57v.14l-.01.14-.32 2.58.1 2.47.08 2.6.16 2.64.01.17-.03.18-.44 2.38.44 2.38.03.2-.02.2-.25 2.65-.02.2-.08.22-.81 1.99-.45 1.09-1.16-.18-2.4-.35-2.39.46-.17.03h-.18l-2.64-.15h-.11l-.11-.02-2.36-.5-1.17-.24-.02-1.2-.05-2.63v-.1l.01-.11.32-2.51-.23-2.45v-.13l-.03-2.64V105l.01-.1.29-2.46-.38-2.42-.02-.14v-.15l.14-2.64v-.01l.15-2.53-.21-2.55-.01-.05v-.06l-.01-2.64v-.21l.34-2.42-.44-2.4-.04-.24.03-.26.42-2.54-.06-2.34-.4-2.57-.04-.3.07-.28.26-1.04.3-1.26 1.24.12 2.48-.12h.23l2.49.27 2.48-.24h.1l2.63-.1 1.3-.07zm-3.99 1.85.01.02-2.63.25-.16.02-.15-.02-2.5-.27-1.3.06.3 2 .03.1v.1l.07 2.63v.14l-.02.14-.4 2.37.43 2.4.05.24-.03.23-.34 2.54v2.42l.22 2.63.01.11-.01.1-.15 2.64-.13 2.46.38 2.52.04.19-.02.2-.3 2.52.01 2.56.25 2.54.01.15-.02.16-.32 2.52.03 1.35 1.1.22 2.3.12 2.48-.44.23-.05.25.03 1.48.2.28-.7.2-2.24-.41-2.41-.05-.26.05-.26.43-2.45-.15-2.48v-.04l-.08-2.65-.09-2.63v-.24l.3-2.48-.16-2.5v-.19l.13-2.51-.4-2.44-.03-.21.02-.21.3-2.56.08-2.45-.19-2.63v-2.63l-.18-.97z"/><path fill="currentColor" d="m40.04 75.46.43-2.4.05-.27-.06-.27-.5-2.57-.05-.3-.18-.25-1.49-2.2-.24-.37-.41-.17-2.48-1.05-.4-.16-.43.07-2.57.44-.15.03-.15.06-2.46.97-.5.2-.26.47-1.3 2.35-.13.23-.04.24-.44 2.64-.05.27.05.28.33 1.6 1.33-.28.06 1.48h.3l2.27.1.11.02.12-.01 2.49-.27 2.48.24h.1l2.63.1 1.3.07zm-3.99-1.85.01-.02-2.63-.25-.16-.02-.15.02-2.5.27-1.32-.06-.02-.14.35-2.12.91-1.67 1.82-.73 2-.34 1.64.7 1.08 1.6.38 1.98-.16.82zm-3.37-16.92 2.63-.2v-.01h2.43l2.63.18.08.02.08-.02 2.63-.07h.34l.3-.16 1.67-.86.67-.34.12-.75.43-2.63.04-.17-.02-.16-.14-2.53.18-2.57v-.14l-.01-.14-.32-2.58.1-2.47.08-2.64.03-1.17-1.12-.33-2.35-.65-.32-.1-.34.06-2.38.44-2.38-.44-.2-.03-.2.02-2.55.25-2.51-.16h-.14l-.16.03-2.4.35-2.39-.46-.17-.03h-.18l-2.64.15h-.11l-.11.02-2.36.5-1.17.24-.02 1.2-.05 2.63v.1l.01.11.32 2.51-.23 2.45v.13l-.03 2.64V49l.01.1.29 2.45-.38 2.43-.03.25.04.24.14.8.23 1.23h1.29l2.54.1.1.02.12-.01 2.49-.27 2.48.24h.1l2.63.1.1.02zm-2.63-3.08.01-.02-2.63-.25-.16-.02-.15.02-2.5.27-1.16-.05.27-1.78.04-.19-.02-.2-.3-2.5.03-2.57.23-2.55.01-.15-.02-.16-.32-2.52.03-1.35 1.1-.22 2.3-.12 2.48.45.23.04.25-.03 2.5-.35 2.5.12.1.02.11-.02 2.47-.22 2.4.42.27.05.27-.05 2.3-.4.86.25-.03 1.47-.09 2.63v.24l.3 2.48-.16 2.5v.19l.13 2.51-.28 1.7-.69.36-2.2.07-2.58-.2h-2.87l-2.58.22z"/><path fill="currentColor" d="m35.68 39.69 2.63-.2v-.01h3.85l.17-1.3.33-2.47.01-.11v-.12l-.08-2.65v-.13l-.3-2.42.4-2.44.22-1.3-1.26-.38-2.26-.68-.16-.04-.17-.01-2.65-.18h-.14l-.14.01-2.59.32-2.45-.1-2.61-.07h.01l-2.63-.17-1.25-.07-.3 1.2-.55 2.14-.03.06v.05l-.46 2.64-.04.2.01.2.25 2.5-.14 2.56V37l.16 1.2.17 1.31h1.36l2.54.1.1.02.12-.01 2.49-.27 2.48.24h.1l2.63.1.1.02zm-2.63-3.08.01-.02-2.63-.25-.16-.02-.15.02-2.5.27-1.26-.05.13-2.32v-.22l-.25-2.42.41-2.34.25-.94 1.4.08h.05l5.27.17h.24l2.47-.3 2.4.16.78.23L39.3 30l-.03.2.03.22.29 2.55.07 2.48-.14 1.04h-1.44l-2.58.2z"/><path fill="currentColor" d="m40.04 27.46.43-2.4.02-.13v-.13l-.01-2.53.19-2.64.08-1.24-1.2-.32-2.28-.6-.28-.1-.28.04-2.45.3-2.42-.4-.16-.04-.16.02-2.64.14-.74.03-.42.61-1.2 1.76-.32.47.07.56.3 2.52-.08 2.53v.07l.01 1.04.02 1.62 1.59-.15 2.46.12h.23l2.49-.27 2.48.24h.1l2.63.1 1.3.07zm-3.99-1.85.01-.02-2.63-.25-.16-.02-.15.02-2.5.27-1.12-.05.07-2.2v-.11l-.01-.12-.26-2.07.46-.67 1.78-.1 2.46.4.21.04.21-.02 2.33-.27.82.2-.09 1.41v2.63l-.18.97z"/><path fill="currentColor" d="m38.1 20 1.28-1.64.53-.68-.33-.8-.98-2.47-.15-.37-.3-.24-2.04-1.62-.3-.26-.39-.06-2.62-.42-.53-.08-.46.27-2.32 1.33-.45.26-.2.5-.94 2.4-.04.11-.03.12-.5 2.32-.42 1.83h2.34l.04-.02 2.26.13h.25l2.49-.27 2.48.24.83.08zm-7.47-2.44.1-.4.7-1.85 1.43-.81 1.68.27 1.4 1.14.54 1.29-.25.32-1.8-.18-.16-.02-.15.02-2.55.28z"/><path fill="currentColor" d="M33.5 4.5V6l1.4-.22.25 1.72.03.2-.02.18-.25 2.5.09 2.46V13h-3v-.04l-.1-2.54-.02-.1.01-.12.27-2.46-.23-1.51-.26-1.73zm64.98 48.79 2.64.14.74.03.42.61 1.2 1.76.33.47-.08.56-.3 2.51.08 2.54.08 2.6.17 2.64.01.18-.04.17-.42 2.38.42 2.38.04.2-.01.2-.25 2.47.14 2.6.01.13-.02.16-.35 2.4.44 2.39.04.17-.01.18-.13 2.64-.06 2.59.05 2.59v.1l-.02.1-.31 2.5.23 2.46v.13l.03 2.64v.1l-.02.08-.28 2.46.38 2.42.02.16v.15l-.14 2.63v.02l-.15 2.51.21 2.56.01.06v.05l.01 2.64.02.81-.7.46-1.48.97-.26.17-.3.06-2.64.47-.26.05-.26-.05-2.48-.4-2.38.04-2.58.4-.12.02H87.3l-.11-.02-2.51-.37-2.47.15h-.08l-2.64.01h-.05l-2.64-.07-2.63-.06h-.1l-.11-.02-2-.33-1.1-.18-.15-1.1-.35-2.65-.02-.13v-.14l.14-2.52-.21-2.56-.02-.14.02-.16.29-2.52-.07-2.54v-2.6l-.13-2.64-.01-.04v-.06l.06-2.64.05-2.64.03-2.56-.1-2.64-.08-2.64v-.06l.03-2.64v-.02l.04-2.64v-.07l.01-.07.3-2.52-.07-2.56-.26-2.52-.01-.07v-2.82l.19-2.65.07-2.58.04-2.61.05-2.65h.01l-.1-2.4L72 55v-1.5h.04l2.54-.1.1-.02.12.01 2.49.27 2.48-.24h.1l2.63-.1.1-.02.08.01 2.63.2v.01h2.43l2.64-.18.07-.02.08.02 2.63.07h.13l2.44.29 2.43-.4.16-.02zM96 56.69l-.21.04-.21-.02-2.56-.32-2.48-.07-2.6.2h-2.86l-2.58-.22-2.45.1h.01l-2.63.26-.16.02-.15-.02-2.5-.27-.96.04.04 1 .01.03-.01.05-.1 5.27v.02l-.06 2.64-.02.04v.03l-.17 2.53v2.64l.27 2.48v.12l.07 2.64v.1l-.01.1-.3 2.5-.04 2.65-.03 2.62.08 2.57.1 2.65v.07l-.03 2.64v.01l-.11 5.28.13 2.54v2.7l.08 2.6.01.11-.01.1-.3 2.53.2 2.47.02.1v.09l-.13 2.5.19 1.41.77.13 2.56.06h.02l2.62.06h2.52l2.65-.16h.15l.14.02 2.57.37h2.35l2.56-.37.1-.02h.09l2.65-.06.14-.02.14.03 2.39.38 2.06-.37.56-.37v-1.7l-.2-2.64-.02-.1.01-.1.15-2.65.12-2.47-.37-2.5-.04-.2.02-.19.28-2.54V96.3l-.24-2.51-.01-.17.02-.16.3-2.53-.03-2.53v-.06l.06-2.64v-.05l.13-2.48-.46-2.45-.05-.23.04-.25.35-2.5-.13-2.5v-.21l.24-2.43-.43-2.45-.04-.26.04-.27.43-2.5-.14-2.42v-.02l-.02-.03-.16-5.27v-.12l.01-.11.25-2.09-.47-.68-1.71-.1z"/><path fill="currentColor" d="m94.04 74.54.43 2.4.02.13v2.66l.18 2.64v.15l-.07 2.64v.07l-.01.07-.3 2.43.4 2.42.04.17-.02.16-.14 2.53.18 2.57v.14l-.01.14-.32 2.58.1 2.47.08 2.6.16 2.64.01.17-.03.18-.44 2.38.44 2.38.03.2-.02.2-.25 2.65-.02.2-.08.22-.81 1.99-.45 1.09-1.16-.18-2.4-.35-2.39.46-.17.03h-.18l-2.64-.15h-.11l-.1-.02-2.36-.5-1.18-.24-.02-1.2-.05-2.63v-.1l.01-.11.32-2.51-.23-2.45v-.13l-.03-2.64V105l.01-.1.29-2.46-.38-2.42-.02-.14v-.15l.14-2.64v-.01l.15-2.53-.21-2.55-.01-.05v-.06l-.01-2.64v-.21l.34-2.42-.44-2.4-.04-.24.03-.26.42-2.54-.06-2.34-.4-2.57-.04-.3.07-.28.26-1.04.3-1.26 1.24.12 2.48-.12h.23l2.49.27 2.48-.24h.1l2.63-.1 1.3-.07zm-3.99 1.85.01.02-2.63.25-.16.02-.15-.02-2.5-.27-1.3.06.3 2 .03.1v.1l.07 2.63v.14l-.02.14-.4 2.37.43 2.4.05.24-.03.23-.34 2.54v2.42l.22 2.63.01.11-.01.1-.15 2.64-.13 2.46.38 2.52.04.19-.02.2-.3 2.52.01 2.56.25 2.54.01.15-.02.16-.32 2.52.03 1.35 1.1.22 2.3.12 2.48-.44.23-.05.25.03 1.48.2.28-.7.2-2.24-.41-2.41-.05-.26.05-.26.43-2.45-.15-2.48v-.04l-.08-2.65-.09-2.63v-.24l.3-2.48-.16-2.5v-.19l.13-2.51-.4-2.44-.03-.21.02-.21.3-2.56.08-2.45-.19-2.63v-2.63l-.18-.97z"/><path fill="currentColor" d="m94.04 75.46.43-2.4.05-.27-.06-.27-.5-2.57-.05-.3-.18-.25-1.49-2.2-.24-.37-.41-.17-2.48-1.05-.4-.16-.43.07-2.57.44-.15.03-.15.06-2.46.97-.5.2-.26.47-1.3 2.35-.13.23-.04.24-.44 2.64-.05.27.05.28.33 1.6 1.33-.28.06 1.48h.3l2.27.1.11.02.12-.01 2.49-.27 2.48.24h.1l2.63.1 1.3.07zm-3.99-1.85.01-.02-2.63-.25-.16-.02-.15.02-2.5.27-1.32-.06-.02-.14.35-2.12.91-1.67 1.82-.73 2-.34 1.64.7 1.08 1.6.38 1.98-.16.82zm-3.37-16.92 2.63-.2v-.01h2.43l2.64.18.07.02.08-.02 2.63-.07h.34l.3-.16 1.67-.86.67-.34.12-.75.43-2.63.04-.17-.02-.16-.14-2.53.18-2.57v-.14l-.01-.14-.32-2.58.1-2.47.08-2.64.03-1.17-1.12-.33-2.35-.65-.32-.1-.34.06-2.38.44-2.38-.44-.2-.03-.2.02-2.55.25-2.51-.16h-.14l-.16.03-2.4.35-2.39-.46-.17-.03h-.18l-2.64.15h-.11l-.1.02-2.36.5-1.18.24-.02 1.2-.05 2.63v.1l.01.11.32 2.51-.23 2.45v.13l-.03 2.64V49l.01.1.29 2.45-.38 2.43-.03.25.04.24.14.8.23 1.23h1.29l2.54.1.1.02.12-.01 2.49-.27 2.48.24h.1l2.63.1.1.02zm-2.63-3.08.01-.02-2.63-.25-.16-.02-.15.02-2.5.27-1.16-.05.27-1.78.04-.19-.02-.2-.3-2.5.03-2.57.23-2.55.01-.15-.02-.16-.32-2.52.03-1.35 1.1-.22 2.3-.12 2.48.45.23.04.25-.03 2.5-.35 2.5.12.1.02.11-.02 2.47-.22 2.4.42.27.05.27-.05 2.3-.4.86.25-.03 1.47-.09 2.63v.24l.3 2.48-.16 2.5v.19l.13 2.51-.28 1.7-.69.36-2.2.07-2.58-.2h-2.87l-2.58.22z"/><path fill="currentColor" d="m89.68 39.69 2.63-.2v-.01h3.85l.17-1.3.33-2.47.01-.11v-.12l-.08-2.65v-.13l-.3-2.42.4-2.44.22-1.3-1.26-.38-2.26-.68-.16-.04-.17-.01-2.65-.18h-.14l-.14.01-2.59.32-2.45-.1-2.6-.07-2.63-.17-1.25-.07-.3 1.2-.55 2.14-.03.06v.05l-.46 2.64-.04.2.01.2.25 2.5-.14 2.56V37l.16 1.2.17 1.31h1.36l2.54.1.1.02.12-.01 2.49-.27 2.48.24h.1l2.63.1.1.02zm-2.63-3.08.01-.02-2.63-.25-.16-.02-.15.02-2.5.27-1.26-.05.13-2.32v-.22l-.25-2.42.41-2.34.25-.94 1.4.08h.05l5.28.17h.23l2.47-.3 2.4.16.78.23L93.3 30l-.03.2.03.22.29 2.55.07 2.48-.14 1.04h-1.44l-2.58.2z"/><path fill="currentColor" d="m94.04 27.46.43-2.4.02-.13v-2.66l.18-2.64.08-1.24-1.2-.32-2.28-.6-.28-.1-.28.04-2.45.3-2.42-.4-.16-.04-.16.02-2.64.14-.74.03-.42.61-1.2 1.76-.32.47.07.56.3 2.52-.08 2.53v.07l.01 1.04.02 1.62 1.59-.15 2.46.12h.23l2.49-.27 2.48.24h.1l2.63.1 1.3.07zm-3.99-1.85.01-.02-2.63-.25-.16-.02-.15.02-2.5.27-1.12-.05.07-2.2v-.11l-.01-.12-.26-2.07.46-.67 1.78-.1 2.46.4.21.04.21-.02 2.33-.27.82.2-.09 1.41v2.63l-.18.97z"/><path fill="currentColor" d="m92.1 20 1.28-1.64.53-.68-.33-.8-.98-2.47-.15-.37-.3-.24-2.04-1.62-.3-.26-.39-.06-2.62-.42-.53-.08-.46.27-2.32 1.33-.45.26-.2.5-.94 2.4-.04.11-.03.12-.5 2.32-.42 1.83h2.34l.04-.02 2.26.13h.25l2.49-.27 2.48.24.83.08zm-7.47-2.44.1-.4.7-1.85 1.43-.81 1.68.27 1.4 1.14.54 1.29-.25.32-1.8-.18-.16-.02-.15.02-2.55.28z"/><path fill="currentColor" d="M87.5 4.5V6l1.4-.22.25 1.72.03.2-.02.18-.25 2.5.09 2.46V13h-3v-.04l-.1-2.54-.02-.1.01-.12.27-2.46-.23-1.51-.26-1.73zM58.68 63.81l2.63.2v.01h2.43l2.63-.18.08-.02.08.02 2.63.07h.13l2.65.31-.13 1.08.19.2 1 1.11-.24.21-.5.47-.68-.08-2.56-.3-2.48-.07-2.6.17-.05.01h-2.81l-2.58-.2-2.45.09h.01l-2.63.25-.16.02-.15-.02-2.5-.25-2.46.09H48v-3h.04l2.54-.1.1-.02.12.01 2.49.27 2.48-.24h.1l2.63-.1.1-.02zm0 9 2.63.2v.01h2.43l2.63-.18.08-.02.08.02 2.63.07h.13l2.65.31-.13 1.08.19.2 1 1.11-.24.21-.5.47-.68-.08-2.56-.3-2.48-.07-2.6.17-.05.01h-2.81l-2.58-.2-2.45.09h.01l-2.63.25-.16.02-.15-.02-2.5-.25-2.46.09H48v-3h.04l2.54-.1.1-.02.12.01 2.49.27 2.48-.24h.1l2.63-.1.1-.02z"/><path fill="currentColor" d="M61.32 73.48 63 75.53l.03.05.04.06 1.36 2.02 1.9 1.6.11.1.1.13 1.53 2 1.82 1.86.1.1.07.1 1.39 2.1 1.67 1.82 1.06 1.15-1.19 1v.02L72 88.5h-.01l-1.08 1-1.73-1.87-.09-.1-.05-.1-1.4-2.08-1.76-1.8-.06-.06-.05-.07-1.52-1.97-1.92-1.62-.16-.14-.12-.17-1.48-2.2-.48-.6-.64.73.01.01-1.72 2-.08.1-1.78 1.76-1.61 2.04-1.48 2.1-.1.13-.1.1-1.85 1.74-1.5 1.92-.01.02-.02.02-.07.09L48 88.5l-1.14-.98.06-.07 1.54-1.95.07-.09.08-.07 1.78-1.71 1.47-2.06.02-.04.03-.03 1.63-2.08.06-.07 1.94-1.93 1.65-1.91v-.01l1.84-2.08 1.18-1.32z"/></svg>