<svg width="120" height="120" viewBox="0 0 120 120" fill="none" xmlns="http://www.w3.org/2000/svg">
<path d="M100.027 106.211L103.016 106.75L103.145 106.773L103.262 106.82L106.051 107.828H106.039L108.863 108.66L108.969 108.684L109.062 108.73L111.793 109.973L111.969 110.043L112.121 110.172L112.941 110.828L112.004 112L111.055 113.172L110.387 112.621L107.891 111.484L105.113 110.676L105.02 110.652L102.371 109.68L99.8984 109.234L97.4492 110.16H97.4258L97.4023 110.172L94.7656 111.062L92.5508 112.691L92.4336 112.773L92.3164 112.832L89.6328 114.121L89.4336 114.215L89.2227 114.25L86.2695 114.73L86.0469 114.766L85.8359 114.742L82.8477 114.355L82.6719 114.332L82.5078 114.273L79.6719 113.195L79.4023 113.09L79.1914 112.902L77.2109 111.086L74.6797 110.5L72.125 110.277L69.6992 110.98L67.0859 112.141L64.7773 113.77L64.5664 113.898L64.332 113.969L61.4258 114.824L61.0977 114.918L60.7461 114.859L57.7695 114.355L57.6641 114.332L57.5703 114.297L54.7461 113.395L54.5469 113.336L54.3711 113.207L52.0156 111.602L49.543 110.488L47.0234 110.09L44.5156 110.652L42.043 111.871L39.5469 113.383L39.4062 113.465L39.2422 113.523L36.3945 114.449L36.1602 114.52H35.9023L32.9375 114.461H32.8086L32.668 114.438L29.7734 113.852L29.5273 113.805L29.3164 113.676L26.75 112.188L26.6797 112.141L24.3828 110.617L21.8281 109.879L19.1445 109.328L16.625 109.715L14.1172 110.898L11.4922 112.258L11.4219 112.293L11.3398 112.316L8.63281 113.359L8.62109 113.371H8.60938L8.51562 113.406L7.48438 110.594L7.57812 110.559H7.58984L10.2617 109.516L12.793 108.215L12.8398 108.191L15.5586 106.902L15.7578 106.809L15.9688 106.785L18.957 106.328L19.2266 106.281L19.4844 106.34L22.4258 106.938L22.543 106.961L25.4141 107.793L25.6367 107.852L25.8242 107.98L28.2617 109.598L30.6055 110.957L33.1016 111.461L35.6914 111.508L38.1289 110.711L40.5781 109.27L40.625 109.234L40.6836 109.211L43.3438 107.887L43.5078 107.816L43.6836 107.77L46.6367 107.113L46.918 107.055L47.1875 107.09L50.1992 107.547L50.3984 107.582L50.5859 107.664L53.3633 108.918L53.4805 108.977L53.5859 109.047L55.8828 110.605L58.332 111.391L60.9102 111.836L63.2188 111.168L65.5039 109.598L65.6211 109.516L65.7617 109.457L68.5156 108.238L68.6094 108.191L68.7031 108.168L71.5742 107.324L71.8555 107.242L72.1367 107.266L75.125 107.535L75.2188 107.547L75.3242 107.57L78.2773 108.262L78.6641 108.344L78.9453 108.613L80.9844 110.477L83.375 111.391L86.0117 111.73L88.5195 111.332L90.8867 110.184L93.207 108.496L93.3828 108.367L93.6055 108.297L96.4414 107.324L99.2422 106.281L99.6289 106.141L100.027 106.211ZM69.6172 18.2891L72.2539 18.793L72.0996 19.624L73.0039 20L73.333 20.1348L73.4961 20.1523L73.4893 20.1992L74.2578 20.5156L74.3867 20.5625V20.5742L74.3516 20.668L73.5898 22.9766L73.5547 23.0703L73.5195 23.1523L72.3828 25.543V25.5547L72.3711 25.5664L71.1992 27.9336L70.25 30.1953L69.6641 32.4336L69.4414 34.9648L69.418 37.4727L69.4297 37.5078L70.3672 39.7578L71.6328 41.9023L73.0625 44.1289L73.0859 44.1523L73.0977 44.1758L74.4336 46.4375L74.4688 46.4961L74.5039 46.5664L75.5703 48.8047L77.1055 50.7617L77.1289 50.7969L77.1523 50.8203L78.6641 52.9648L80.1523 55.0039L81.8633 57.0078L81.8984 57.0547L81.9336 57.1133L83.3984 59.1641L85.0977 61.1797L85.1094 61.1914L86.7852 63.1836L88.5781 64.9297L90.5469 66.5703L90.5938 66.6055L90.6406 66.6523L92.4805 68.457L94.4023 70.2383L96.2773 71.9492H96.2891L98.3516 73.6016L98.4336 73.6719L98.5039 73.7422L100.215 75.5586L102.195 76.9062L104.48 78.2656L104.609 78.3359L104.715 78.4414L106.543 80.0938L108.723 81.418L108.793 81.4531L108.852 81.5L109.906 82.3086L109.674 82.6162L110.809 82.5L110.891 82.4883H110.973L112.016 82.5L112.004 84L111.98 85.5L110.984 85.4883L108.477 85.7461L108.254 85.7695L108.031 85.7344L105.57 85.2422L103.145 85.2539L100.648 85.6875L100.496 85.7109L100.332 85.6992L97.6953 85.5938H97.625L97.5547 85.582L95.1523 85.2422L92.7617 85.7109L92.5273 85.7578L92.293 85.7344L89.7383 85.4062L87.207 85.418L87.1953 85.4062L84.6055 85.4883H84.5938L82.5996 85.5322L83.1289 87.3828L83.5205 88.5098L84.5234 88.4883L87.1602 88.418H87.1953L89.832 88.4062H89.9375L90.0312 88.418L92.4219 88.7344L94.8359 88.2656L95.082 88.2188L95.3164 88.2539L97.8945 88.6055L100.273 88.7109L102.793 88.2773L102.91 88.2656H103.027L105.664 88.2422H105.816L105.969 88.2656L108.406 88.7461L110.809 88.5L110.891 88.4883H110.973L112.016 88.5L112.004 90L111.98 91.5L110.984 91.4883L108.477 91.7461L108.254 91.7695L108.031 91.7344L105.57 91.2422L103.145 91.2539L100.648 91.6875L100.496 91.7109L100.332 91.6992L97.6953 91.5938H97.625L97.5547 91.582L95.1523 91.2422L92.7617 91.7109L92.5273 91.7578L92.293 91.7344L89.7383 91.4062L87.207 91.418L87.1953 91.4062L84.6055 91.4883H84.5938L84.5332 91.4893L84.8398 92.3984L85.6602 94.8828L86.4922 97.25L87.4961 99.1133L89.3281 99.1992L91.7891 99H92V101.859L92.0117 102L89.4688 102.188L89.3867 102.199L89.293 102.188L86.6445 102.07L86.6328 102.059H86.6211L84.0781 101.895H81.5L78.9688 102.164L78.8164 102.176L78.6758 102.164L76.0391 101.941L73.5312 101.918L72.0195 101.93L71.9961 100.5H70.4961V98.9414L71.9844 98.9297L73.5078 98.918H73.5312L76.1797 98.9414H76.2383L76.2852 98.9531L78.0303 99.1006L77.6211 98.1055L77.5859 98.0234L77.5625 97.9297L76.8828 95.375L76.8711 95.3633V95.3516L76.2617 92.8789L75.8662 91.6279L73.9297 91.2656L71.5391 91.5469L71.4102 91.5586H71.2812L68.7266 91.418L66.1719 91.582H66.043L65.9141 91.5703L63.418 91.2891L60.957 91.5586H60.8867L58.25 91.7109L58.0977 91.7227L57.957 91.6992L55.4141 91.3477L52.9062 91.4062H52.8477L50.2109 91.3477V91.3359H47.5742L44.9492 91.2891L44.2197 91.3535L43.7383 92.8789L43.1289 95.3516V95.3633L43.1172 95.375L42.4375 97.9297L42.4141 98.0234L42.3789 98.1055L41.9688 99.1006L43.7148 98.9531L43.7617 98.9414H43.8203L46.4688 98.918H46.4922L48.0156 98.9297L49.5039 98.9414V100.5H48.0039L47.9805 101.93L46.4688 101.918L43.9609 101.941L41.3242 102.164L41.1836 102.176L41.0312 102.164L38.5 101.895H35.9219L33.3789 102.059H33.3672L33.3555 102.07L30.707 102.188L30.6133 102.199L30.5312 102.188L27.9883 102L28 101.859V99H28.2109L30.6719 99.1992L32.5029 99.1133L33.5078 97.25L34.3398 94.8828L35.1602 92.3984L35.4639 91.4922L34.3906 91.4883H34.3438L34.2969 91.4766L31.7188 91.3008L29.1875 91.4297H29.1055L26.4688 91.418V91.4062L23.9609 91.4297L21.3242 91.6641L21.1836 91.6758L21.0312 91.6641L18.5 91.3828L15.9219 91.3945V91.3828L13.3789 91.5586H13.3672L13.3555 91.5703L10.707 91.6875L10.6133 91.6992L10.5312 91.6875L7.98828 91.5L8 91.2773V88.5H8.21094L10.6719 88.6992L13.1797 88.582V88.5703L15.8164 88.3945H15.9102L18.5469 88.3828L18.6406 88.3711L18.7227 88.3828L21.2305 88.6641L23.7148 88.4531L23.7617 88.4414H23.8203L26.4688 88.418H26.4922L29.0469 88.4297L31.6953 88.3125L31.7773 88.3008L31.8594 88.3125L34.5078 88.4883L34.4961 88.5L36.4795 88.5088L36.8711 87.3828L37.4004 85.5283L36.9805 85.5117V85.5L34.3906 85.4883H34.3438L34.2969 85.4766L31.7188 85.3008L29.1875 85.4297H29.1055L26.4688 85.418V85.4062L23.9609 85.4297L21.3242 85.6641L21.1836 85.6758L21.0312 85.6641L18.5 85.3828L15.9219 85.3945V85.3828L13.3789 85.5586H13.3672L13.3555 85.5703L10.707 85.6875L10.6133 85.6992L10.5312 85.6875L7.98828 85.5L8 85.2773V82.5H8.21094L10.3701 82.6738L10.0938 82.3086L11.1484 81.5L11.207 81.4531L11.2773 81.418L13.457 80.0938L15.2852 78.4414L15.3906 78.3359L15.5195 78.2656L17.8047 76.9062L19.7852 75.5586L21.4961 73.7422L21.5664 73.6719L21.6484 73.6016L23.7109 71.9492H23.7227L25.5977 70.2383L27.5195 68.457L29.3594 66.6523L29.4062 66.6055L29.4531 66.5703L31.4219 64.9297L33.2148 63.1836L34.8906 61.1914L34.9023 61.1797L36.6016 59.1641L38.0664 57.1133L38.1016 57.0547L38.1367 57.0078L39.8477 55.0039L41.3359 52.9648L42.8477 50.8203L42.8711 50.7969L42.8945 50.7617L44.4297 48.8047L45.4961 46.5664L45.5312 46.4961L45.5664 46.4375L46.9023 44.1758L46.9141 44.1523L46.9375 44.1289L48.3672 41.9023L49.6328 39.7578L50.5703 37.5078L50.582 37.4727L50.5586 34.9648L50.3359 32.4336L49.75 30.1953L48.8008 27.9336L47.6289 25.5664L47.6172 25.5547V25.543L46.4805 23.1523L46.4453 23.0703L46.4102 22.9766L45.6484 20.668L45.6133 20.5742V20.5625L45.7422 20.5156L46.5098 20.1992L46.5039 20.1523L46.666 20.1348L46.9961 20L47.8994 19.624L47.7461 18.793L50.3828 18.2891L51.1211 18.1367L51.6836 18.6523L53.3359 20.1641L53.6172 20.4219L53.7461 20.7852L54.5781 23.2578L55.4805 25.7422L56.3711 28.2383L56.3828 28.25L57.1807 30.5781L58.6719 30.6992L61.1797 30.582V30.5703L62.8604 30.458L63.6172 28.25L63.6289 28.2383L64.5195 25.7422L65.4219 23.2578L66.2539 20.7852L66.3828 20.4219L66.6641 20.1641L68.3164 18.6523L68.8789 18.1367L69.6172 18.2891ZM39.7344 91.6172H39.6172L38.5898 91.5752L38.0078 93.3477L37.1758 95.8438V95.8672L37.1641 95.8789L36.2852 98.375L36.25 98.4805L36.1914 98.5742L36.0195 98.8936L38.5469 98.8828L38.6406 98.8711L38.7227 98.8828L38.8223 98.8936L39.5781 97.0625L40.2227 94.6016L40.8555 92.0586L40.8672 92.0234L40.8789 91.9766L41.0068 91.5713L39.7344 91.6172ZM79.3672 91.5586L79.3789 91.5703L79 91.5947L79.1211 91.9766L79.1328 92.0234L79.1445 92.0586L79.7773 94.6016L80.4219 97.0625L81.1768 98.8936L81.2773 98.8828L81.3594 98.8711L81.4531 98.8828L83.9795 98.8936L83.8086 98.5742L83.75 98.4805L83.7148 98.375L82.8359 95.8789L82.8242 95.8672V95.8438L81.9922 93.3477L81.4004 91.5488L79.3672 91.5586ZM71.5391 85.5469L71.4102 85.5586H71.2812L68.7266 85.418L66.1719 85.582H66.043L65.9141 85.5703L63.418 85.2891L60.957 85.5586H60.8867L58.25 85.7109L58.0977 85.7227L57.957 85.6992L55.4141 85.3477L52.9062 85.4062H52.8477L50.2109 85.3477V85.3359H47.5742L46.2168 85.3115L46.2109 85.332L45.6484 87.8164L45.6133 87.957L45.5547 88.0859L45.46 88.2969L47.6211 88.3359L47.6094 88.3477H50.2695L52.8711 88.4062L55.4844 88.3477H55.6133L55.7305 88.3594L58.2148 88.7227L60.7109 88.5586V88.5703L63.2891 88.2891L63.4414 88.2773L63.6055 88.2891L66.0898 88.582L68.6328 88.4297L68.7148 88.418L68.7969 88.4297L71.3281 88.5586L73.8242 88.2656L74.0586 88.2305L74.2812 88.2773L74.5527 88.3271L74.4453 88.0859L74.3867 87.957L74.3516 87.8164L73.7891 85.332L73.7734 85.2832L71.5391 85.5469ZM79.3672 85.5586L79.3789 85.5703L76.9658 85.7305L77.2578 86.9961L77.9854 88.6562L79.1797 88.582L79.2266 88.5703H79.2617L80.3613 88.5645L80.293 88.3672L80.2812 88.332L80.2695 88.2852L79.6016 85.918L79.3867 85.5576L79.3672 85.5586ZM42.4531 85.5117L42.418 85.5234H42.3711L40.5957 85.5859L40.3984 85.918L39.7305 88.2852L39.7188 88.332L39.707 88.3672L39.6211 88.6143L39.6875 88.6172L42.0645 88.5381L42.7422 86.9961L43.0977 85.4541L42.4531 85.5117ZM68.9844 22.1094L68.2578 24.2539L68.2461 24.2656V24.2891L67.3438 26.7617L66.4531 29.2461L65.6445 31.6133L65.2812 33.8398L65.7266 36.2188L65.7617 36.4414L65.7383 36.6758L65.457 39.1602L65.5742 41.7031V41.8672L65.4219 44.3281L65.7031 46.8945L65.7266 47.0469L65.7031 47.2109L65.4688 49.6016L65.9492 51.8047L67.0156 54.043L67.0625 54.1484L67.0977 54.2656L67.8359 56.7383L68.6914 59.2344V59.2461L68.7031 59.2578L69.5234 61.7656L70.3555 64.25L70.3789 64.332L70.4023 64.4023L70.9648 66.9102L71.6445 69.3477L72.5469 71.832L72.5586 71.8555V71.8789L73.3672 74.293L74.3398 76.7539L74.375 76.8359L74.3867 76.918L75.0547 79.4023L75.875 81.9102L75.8867 81.9219V81.9336L76.0957 82.6152L76.7305 82.7344L77.9961 82.6553L77.5742 80.8555L76.6133 78.5703L76.5781 78.4883L76.5547 78.4062L75.8516 75.9805L74.6562 73.5898L74.6211 73.4258L74 70.918L73.2969 68.5039L72.125 66.2891L72.0664 66.1836L72.0312 66.0781L71.1992 63.5586L70.2617 61.168V61.1562L70.25 61.1445L69.3594 58.6719L69.3477 58.6836L68.4102 56.2109L68.3867 56.1406L68.3633 56.0586L67.6953 53.5039L67.707 53.4922L66.9102 51.0547L66.875 50.9258L66.8516 50.7969L66.5234 48.2305L66.5117 48.1484V48.0547L66.4883 45.5L66.3125 42.8633L66.3008 42.7812L66.3125 42.6875L66.4297 40.1328L66.418 37.4844V37.4609L66.4414 34.8242V34.7656L66.4531 34.707L66.6758 32.0703L66.6875 31.9414L66.7227 31.8242L67.3789 29.3164L67.4023 29.2109L67.4492 29.1172L68.4688 26.6797L68.4922 26.6445L68.5039 26.5977L69.6875 24.2305L70.7773 21.9453L70.8965 21.582L69.793 21.3711L68.9844 22.1094ZM71.2461 55.1914L72.1602 57.6172V57.6289L73.0625 60.0898L74.0117 62.5508L74.0234 62.5859L74.0352 62.6094L74.8438 64.9883L76.0273 67.2617L76.0859 67.3906L76.1328 67.5312L76.8828 70.0625L76.8945 70.0977V70.1328L77.4922 72.5234L78.5938 74.7852L78.6523 74.9023L78.6875 75.0312L79.4258 77.5156L80.3984 79.8477L80.4453 79.9648L80.4805 80.082L81.0312 82.4375L81.1035 82.5615L81.8867 82.5586V82.5469L84.5234 82.4883L87.1602 82.418H87.1953L89.832 82.4062H89.9375L90.0312 82.418L92.4219 82.7344L94.8359 82.2656L95.082 82.2188L95.3164 82.2539L96.3564 82.3955L95.2578 81.6133L95.2109 81.5781L95.1758 81.543L93.1367 79.8789H93.125V79.8672L91.0977 78.1797L91.0742 78.1562L91.0508 78.1445L89.1875 76.457L87.0898 74.8398L86.9961 74.7695L85.0273 72.9883L84.9688 72.9414L84.9219 72.8828L83.1523 70.9141V70.9023L81.3945 68.9453L81.3477 68.8984L81.3125 68.8516L79.7188 66.7422H79.707L78.043 64.8672L77.9961 64.8203L77.9609 64.7734L76.3672 62.6641V62.6523L74.8438 60.5898L73.168 58.5273L73.0625 58.3984L72.9922 58.2461L71.8789 55.9727L71.1152 54.7031L71.2461 55.1914ZM61.3789 51.5586H61.3672L61.3555 51.5703L58.707 51.6875L58.6133 51.6992L58.5312 51.6875L57.1826 51.5879L56.957 52.6133L56.9219 52.7891L56.8516 52.9414L55.7266 55.25L55.0234 57.6523L55.0117 57.6875V57.7109L54.1445 60.1719L54.1562 60.1836L53.3359 62.7031L53.3242 62.7148L52.5273 65.0586L51.9414 67.6484L51.9297 67.6836V67.7188L51.2148 70.2617L51.2031 70.3203L51.1797 70.3789L50.2773 72.8047L49.457 75.3242L49.4453 75.3594L49.4219 75.4062L48.4844 77.75L47.8164 80.2578L47.793 80.3281L47.1289 82.3271L47.6211 82.3359L47.6094 82.3477H50.2695L52.8711 82.4062L55.4844 82.3477H55.6133L55.7305 82.3594L58.2148 82.7227L60.7109 82.5586V82.5703L63.2891 82.2891L63.4414 82.2773L63.6055 82.2891L66.0898 82.582L68.6328 82.4297L68.7148 82.418L68.7969 82.4297L71.3281 82.5586L72.8857 82.375L72.207 80.3281L72.1836 80.2578L71.5156 77.75L70.5781 75.4062L70.5547 75.3594L70.543 75.3242L69.7227 72.8047L68.8203 70.3789L68.7969 70.3203L68.7852 70.2617L68.0703 67.7188V67.6836L68.0586 67.6484L67.4727 65.0586L66.6758 62.7148L66.6641 62.7031L65.8438 60.1836L65.8555 60.1719L64.9883 57.7109V57.6875L64.9766 57.6523L64.2734 55.25L63.1484 52.9414L63.0781 52.7891L63.043 52.6133L62.7891 51.4639L61.3789 51.5586ZM48.1211 55.9727L47.0078 58.2461L46.9375 58.3984L46.832 58.5273L45.1562 60.5898L43.6328 62.6523V62.6641L42.0391 64.7734L42.0039 64.8203L41.957 64.8672L40.293 66.7422H40.2812L38.6875 68.8516L38.6523 68.8984L38.6055 68.9453L36.8477 70.9023V70.9141L35.0781 72.8828L35.0312 72.9414L34.9727 72.9883L33.0039 74.7695L32.9102 74.8398L30.8125 76.457L28.9492 78.1445L28.9258 78.1562L28.9023 78.1797L26.875 79.8672V79.8789H26.8633L24.8242 81.543L24.7891 81.5781L24.7422 81.6133L23.541 82.4678L23.7148 82.4531L23.7617 82.4414H23.8203L26.4688 82.418H26.4922L29.0469 82.4297L31.6953 82.3125L31.7773 82.3008L31.8594 82.3125L34.5078 82.4883L34.4961 82.5L37.0508 82.5117H37.0977L38.8828 82.584L38.9688 82.4375L39.5195 80.082L39.5547 79.9648L39.6016 79.8477L40.5742 77.5156L41.3125 75.0312L41.3477 74.9023L41.4062 74.7852L42.5078 72.5234L43.1055 70.1328V70.0977L43.1172 70.0625L43.8672 67.5312L43.9141 67.3906L43.9727 67.2617L45.1562 64.9883L45.9648 62.6094L45.9766 62.5859L45.9883 62.5508L46.9375 60.0898L47.8398 57.6289V57.6172L48.7539 55.1914L48.8838 54.7031L48.1211 55.9727ZM49.1025 21.582L49.2227 21.9453L50.3125 24.2305L51.4961 26.5977L51.5078 26.6445L51.5312 26.6797L52.5508 29.1172L52.5977 29.2109L52.6211 29.3164L53.2773 31.8242L53.3125 31.9414L53.3242 32.0703L53.5469 34.707L53.5586 34.7656V34.8242L53.582 37.4609V37.4844L53.5703 40.1328L53.6875 42.6875L53.6992 42.7812L53.6875 42.8633L53.5117 45.5L53.4883 48.0547V48.1484L53.4766 48.2305L53.1484 50.7969L53.125 50.9258L53.0898 51.0547L52.293 53.4922L52.3047 53.5039L51.6367 56.0586L51.6133 56.1406L51.5898 56.2109L50.6523 58.6836L50.6406 58.6719L49.75 61.1445L49.7383 61.1562V61.168L48.8008 63.5586L47.9688 66.0781L47.9336 66.1836L47.875 66.2891L46.7031 68.5039L46 70.918L45.3789 73.4258L45.3438 73.5898L44.1484 75.9805L43.4453 78.4062L43.4219 78.4883L43.3867 78.5703L42.4258 80.8555L42.0303 82.54L42.1836 82.5352L43.9795 82.3682L44.1133 81.9336V81.9219L44.125 81.9102L44.9453 79.4023L45.6133 76.918L45.625 76.8359L45.6602 76.7539L46.6328 74.293L47.4414 71.8789V71.8555L47.4531 71.832L48.3555 69.3477L49.0352 66.9102L49.5977 64.4023L49.6211 64.332L49.6445 64.25L50.4766 61.7656L51.2969 59.2578L51.3086 59.2461V59.2344L52.1641 56.7383L52.9023 54.2656L52.9375 54.1484L52.9844 54.043L54.0508 51.8047L54.5312 49.6016L54.2969 47.2109L54.2734 47.0469L54.2969 46.8945L54.5781 44.3281L54.4258 41.8672V41.7031L54.543 39.1602L54.2617 36.6758L54.2383 36.4414L54.2734 36.2188L54.7188 33.8398L54.3555 31.6133L53.5469 29.2461L52.6562 26.7617L51.7539 24.2891V24.2656L51.7422 24.2539L51.0156 22.1094L50.207 21.3711L49.1025 21.582ZM69.4766 45.3008L69.4883 45.3359V45.3828L69.4902 45.6396L70.3438 47.7344L71.6211 49.9023L73.0625 52.1172L73.0742 52.1406L73.0977 52.1641L74.457 54.4258L74.4922 54.4727L74.5156 54.5312L75.6172 56.793L77.1758 58.7031L77.1875 58.7266L77.2109 58.75L78.7695 60.8594L80.2695 62.8633H80.2812L82.0391 64.832L82.0859 64.8906L82.1211 64.9375L83.6211 66.9414L85.3906 68.9102L87.043 70.7617L88.918 72.4609L91.0156 74.0781L91.0625 74.1133L91.0977 74.1484L93.0195 75.8711L95.0352 77.5586L97.0625 79.2109L99.1367 80.6875L99.2188 80.7461L99.3008 80.8164L101.023 82.4219L101.329 82.5283L102.793 82.2773L102.91 82.2656H103.027L104.462 82.252L102.828 80.7734L100.66 79.4961L100.625 79.4727L100.59 79.4375L98.3984 77.9492L98.2578 77.8555L98.1523 77.7383L96.3945 75.875L94.4141 74.293L94.3789 74.2695L94.3438 74.2344L92.3867 72.4531L90.4531 70.6719L90.418 70.6367L88.5312 68.7852H88.5195L86.5859 67.168L86.5508 67.1328L86.5039 67.0977L84.6055 65.2461L84.5 65.1406L82.8125 63.1133L81.1133 61.1094L81.0664 61.0625L81.0312 61.0039L79.5312 58.8945L77.8672 56.9492L77.832 56.9141L77.7969 56.8555L76.2383 54.7227V54.7109L74.7031 52.5664V52.5547L73.1094 50.5273L73.0039 50.3984L72.9336 50.2461L71.8555 47.9727L70.543 45.7461L69.3906 43.9619L69.4766 45.3008ZM49.457 45.7461L48.1445 47.9727L47.0664 50.2461L46.9961 50.3984L46.8906 50.5273L45.2969 52.5547V52.5664L43.7617 54.7109V54.7227L42.2031 56.8555L42.168 56.9141L42.1328 56.9492L40.4688 58.8945L38.9688 61.0039L38.9336 61.0625L38.8867 61.1094L37.1875 63.1133L35.5 65.1406L35.3945 65.2461L33.4961 67.0977L33.4492 67.1328L33.4141 67.168L31.4805 68.7852H31.4688L29.582 70.6367L29.5469 70.6719L27.6133 72.4531L25.6562 74.2344L25.6211 74.2695L25.5859 74.293L23.6055 75.875L21.8477 77.7383L21.7422 77.8555L21.6016 77.9492L19.4102 79.4375L19.375 79.4727L19.3398 79.4961L17.1719 80.7734L15.3457 82.4258L15.8164 82.3945H15.9102L18.5469 82.3828L18.6406 82.3711L18.7227 82.3828L18.9863 82.4121L20.6992 80.8164L20.7812 80.7461L20.8633 80.6875L22.9375 79.2109L24.9648 77.5586L26.9805 75.8711L28.9023 74.1484L28.9375 74.1133L28.9844 74.0781L31.082 72.4609L32.957 70.7617L34.6094 68.9102L36.3789 66.9414L37.8789 64.9375L37.9141 64.8906L37.9609 64.832L39.7188 62.8633H39.7305L41.2305 60.8594L42.7891 58.75L42.8125 58.7266L42.8242 58.7031L44.3828 56.793L45.4844 54.5312L45.5078 54.4727L45.543 54.4258L46.9023 52.1641L46.9258 52.1406L46.9375 52.1172L48.3789 49.9023L49.6562 47.7344L50.5088 45.6396L50.5117 45.3828V45.3359L50.5234 45.3008L50.6084 43.9619L49.457 45.7461ZM61.3789 45.5586H61.3672L61.3555 45.5703L58.707 45.6875L58.6133 45.6992L58.5312 45.6875L57.457 45.6074L57.2852 47.0703L57.4512 48.5996L58.6719 48.6992L61.1797 48.582V48.5703L62.5605 48.4775L62.7148 47.0703L62.5273 45.4814L61.3789 45.5586ZM61.3789 39.5586H61.3672L61.3555 39.5703L58.707 39.6875L58.6133 39.6992L58.5312 39.6875L57.5342 39.6133L57.4258 41.7617L57.4756 42.6016L58.6719 42.6992L61.1797 42.582V42.5703L62.5312 42.4795L62.5742 41.7617L62.458 39.4863L61.3789 39.5586ZM61.3789 33.5586H61.3672L61.3555 33.5703L58.707 33.6875L58.6133 33.6992L58.5312 33.6875L57.7314 33.6279L57.7656 33.875L57.7188 34.1328L57.2617 36.5586L57.2646 36.585L58.6719 36.6992L61.1797 36.582V36.5703L62.7207 36.4668L62.2812 34.1328L62.2344 33.875L62.2695 33.6172L62.2891 33.4971L61.3789 33.5586Z" fill="black"/>
</svg>
