<svg width="120" height="120" viewBox="0 0 120 120" fill="none" xmlns="http://www.w3.org/2000/svg">
<path d="M92.8047 27.1094L94.4688 28.9492L94.6211 29.125L94.7148 29.3359L95.7344 31.5273L97.4102 33.3086L97.5742 33.4844L97.6797 33.6953L98.7461 35.9922L100.07 38.043L101.711 40.0586H101.723L103.387 42.1094L103.398 42.1211L104.992 44.1133L106.762 46.082L106.891 46.2227L106.973 46.3984L108.215 48.7773H108.203L109.375 50.9219L109.574 51.2969L109.551 51.7188L109.422 54.2617L109.574 56.8281L109.586 56.957L109.574 57.0859L109.293 59.5234L109.551 62.043V62.0781L109.562 62.1133L109.715 64.75L109.727 64.9023L109.703 65.043L109.352 67.5742L109.41 70.0938V70.1523L109.352 72.7891L109.328 75.4141V75.4258L109.281 77.9102L109.516 80.5469V80.6289L109.621 83.2656V83.3828L109.516 86.0195L109.48 88.6094V88.7031L109.305 91.2695L109.422 93.8125L109.434 93.8477V93.8945L109.41 96.5312L109.445 99.1445L109.668 101.676L109.68 101.816L109.656 101.969L109.375 104.453L109.387 106.984L109.562 109.621V109.645L109.691 112.293V112.469L109.531 114.63L110.809 114.5L110.891 114.488H110.973L112.016 114.5L112.004 116L111.98 117.5L110.984 117.488L108.477 117.746L108.254 117.77L108.031 117.734L105.57 117.242L103.145 117.254L100.648 117.688L100.496 117.711L100.332 117.699L97.6953 117.594H97.625L97.5547 117.582L95.1523 117.242L92.7617 117.711L92.5273 117.758L92.293 117.734L89.7383 117.406L87.207 117.418L87.1953 117.406L84.6055 117.488H84.5938L81.957 117.547H81.9336L79.3672 117.559L79.3789 117.57L76.7422 117.746L76.5547 117.758L73.9297 117.266L71.5391 117.547L71.4102 117.559H71.2812L68.7266 117.418L66.1719 117.582H66.043L65.9141 117.57L63.418 117.289L60.957 117.559H60.8867L58.25 117.711L58.0977 117.723L57.957 117.699L55.4141 117.348L52.9062 117.406H52.8477L50.2109 117.348V117.336H47.5742L44.9492 117.289L42.4531 117.512L42.418 117.523H42.3711L39.7344 117.617H39.6172L36.9805 117.512V117.5L34.3906 117.488H34.3438L34.2969 117.477L31.7188 117.301L29.1875 117.43H29.1055L26.4688 117.418V117.406L23.9609 117.43L21.3242 117.664L21.1836 117.676L21.0312 117.664L18.5 117.383L15.9219 117.395V117.383L13.3789 117.559H13.3672L13.3555 117.57L10.707 117.688L10.6133 117.699L10.5312 117.688L7.98828 117.5L8 117.277V114.5H8.21094L10.4492 114.681L10.3633 114.016L10.3398 113.875L10.3516 113.746L10.4922 111.133L10.2812 108.66V108.543L10.293 108.414L10.5273 105.789L10.7148 103.211L10.4805 100.762L10.2461 98.125L10.2227 97.9258L10.2578 97.7266L10.6914 95.2539L10.5977 92.7578V92.6172L10.75 90.0742L10.5859 87.5195L10.5742 87.4375L10.5859 87.3438L10.7148 84.8359L10.375 82.3398L10.3516 82.1758L10.375 82L10.6211 79.4219L10.5156 76.9258V76.9141L10.4336 74.2656V74.1836L10.4453 74.1016L10.6445 71.5234L10.4219 69.0742V69.0391L10.2461 66.4023V66.2383L10.2695 66.0859L10.6328 63.6133L10.5508 61.0703V60.9297L10.7148 58.3867L10.5273 55.8438L10.5391 55.832L10.293 53.2422V53.1484L10.2109 50.5469L10.0938 47.9102V47.8047L10.1523 45.1562L10.1758 44.2539L10.9844 43.8438L12.8711 42.918L13.0938 42.8008L13.3516 42.7773L15.0391 42.5664L15.332 41.7227L15.3086 39.4375L15.1445 36.8594L15.0508 35.3125L16.6094 35.2773L19.1523 35.1953L20.3359 34.9844L20.2773 33.5664V33.4727L20.3008 30.8359V30.7422L20.3125 30.6484L20.6641 28.0117L20.8047 26.9336L21.8828 26.7344L24.168 26.3242L24.3555 26.2891L24.5547 26.3008L27.0977 26.5117L29.5586 26.2539L29.7812 26.2305L30.0039 26.2656L32.6406 26.793L33.5898 26.9688L33.8125 27.918L34.2227 29.6523L34.2344 29.6992V29.7461L34.6797 32.3828L34.7148 32.5352L34.7031 32.6992L34.6445 34.0586L35.6406 34.2695L37.9492 34.5391L39.3672 34.7031L39.2734 36.1328L39.0977 38.6875L39.25 41.0195L39.543 41.9805L41.0664 41.957H41.1602L41.2656 41.9688L43.75 42.2383L44.9219 42.3672L45.0742 43.5391L45.4141 46.1641L45.4375 46.3516L45.2373 47.9502L46.1094 47.7461L47.6094 46.3398L48.8633 44.4766L49.4844 42.168L49.4961 42.0977L49.5195 42.0391L50.3633 39.6602L50.6328 37.3633L50.3984 34.8789L50.3867 34.7852V34.6797L50.4688 32.0547V31.9375L50.7617 29.2891L50.7852 28.9844L50.9375 28.7266L51.8633 27.0625L52.332 26.2188L53.293 26.3008L55.8477 26.5117L58.5195 26.2305L58.7422 26.2656L61.1914 26.7578L63.6172 26.7461L66.125 26.3125L66.7461 26.207L67.2617 26.582L68.9141 27.8008L69.6523 28.3516L69.5 29.2656L69.0898 31.6094L69.582 33.9766L69.6289 34.1758L69.6055 34.375L69.4297 36.8945L69.7227 39.2148L70.2969 41.7344L71.082 43.9727L72.1602 45.9531L73.7891 47.3711L75.9805 48.6602L76.3525 48.874L77.4648 47.2656L78.6016 44.9805L78.6602 44.8516L78.7305 44.7461L80.3008 42.625L80.3594 42.543L80.418 42.4844L82.1055 40.6797L83.2656 38.5117L83.3242 38.4062L83.4062 38.3008L84.9297 36.3203L86.0547 34.0938L86.1484 33.8828L86.3008 33.7305L88.0586 31.8672L89.3125 29.8516L90.3086 27.5195L91.2227 25.3516L92.8047 27.1094ZM95.1484 35.8828L93.4375 36.0586H93.3906L93.3555 36.0703L90.707 36.1875L90.6133 36.1992L90.5312 36.1875L88.417 36.0312L87.543 37.8086L87.4727 37.9375L87.3906 38.0547L85.8555 40.0234L84.6602 42.2734L84.5664 42.4609L84.4258 42.6016L82.6562 44.4648L81.25 46.3984L80.1133 48.707L80.0664 48.8008L79.9961 48.8945L78.5195 50.9922L77.5029 52.6436L77.4805 53.0938L77.6172 54.8828L77.6289 54.9883V55.082L77.5459 56.3623L77.5742 56.8281L77.5859 56.957L77.5742 57.0859L77.4766 57.9297L77.5703 60.2266V60.3438L77.5137 61.6826L77.5508 62.043V62.0781L77.5625 62.1133L77.7148 64.75L77.7266 64.9023L77.7031 65.043L77.5918 65.8418L77.3672 68.251L77.4102 70.0938V70.1523L77.3516 72.7891L77.3398 74.0273L77.5234 75.9766V76.0117L77.6992 78.6602L77.7109 78.7539L77.6992 78.8477L77.5488 81.4492L77.6211 83.2656V83.3828L77.6143 83.5488L77.6289 83.9922L77.6406 84.1211L77.6172 84.25L77.5752 84.5283L77.5156 86.0195L77.4805 88.6094V88.7031L77.4287 89.4453L77.6406 91.8203L77.6523 91.9492L77.6406 92.0781L77.4297 94.7148L77.5117 97.1758L77.6172 99.8242V99.918L77.6055 100.023L77.5625 100.478L77.668 101.676L77.6797 101.816L77.6562 101.969L77.4922 103.414L77.6992 104.957L77.7227 105.098L77.7109 105.238L77.582 107.875L77.7461 110.336L77.7578 110.43L77.7461 110.523L77.668 111.819L77.6914 112.293V112.469L77.6143 113.492L77.6738 114.675L79.1797 114.582L79.2266 114.57H79.2617L81.5557 114.56L81.6758 113.863L81.7109 111.32L81.4883 108.836L81.4766 108.789V108.754L81.3828 106.117V106L81.4883 103.363L81.5117 100.762V100.574L81.5703 100.387L82.2031 98.0078L82.3438 97.4688L82.8008 97.1641L84.8633 95.7461L85.3438 95.418L85.918 95.5L88.4258 95.8398L88.9531 95.9102L89.3164 96.2969L91.0391 98.1367L91.3906 98.5117L91.4375 99.0273L91.6602 101.676L91.6719 101.816L91.6602 101.969L91.3789 104.453L91.3906 106.984L91.5664 109.621V109.645L91.6953 112.293V112.387L91.6836 112.469L91.5244 114.615L92.4219 114.734L94.8359 114.266L95.082 114.219L95.3164 114.254L97.8945 114.605L100.273 114.711L102.793 114.277L102.91 114.266H103.027L105.664 114.242H105.816L105.969 114.266L106.536 114.377L106.691 112.434L106.574 109.82L106.398 107.184L106.387 107.137V107.09L106.375 104.453V104.359L106.387 104.277L106.656 101.77L106.445 99.2852V99.1797L106.41 96.5312V96.5078L106.434 93.9531L106.305 91.3047V91.1406L106.48 88.5859L106.516 85.9492V85.9023L106.621 83.3711L106.516 80.7344V80.7227L106.293 78.168L106.281 78.0977L106.293 78.0156L106.328 75.3789L106.352 72.7539V72.7305L106.41 70.1523L106.352 67.5156V67.3867L106.363 67.2695L106.703 64.7734L106.562 62.2891V62.2773L106.293 59.7109L106.27 59.5586L106.293 59.3945L106.574 56.8984L106.422 54.3672V54.2031L106.539 51.9766L105.566 50.1836L105.543 50.1602L104.395 47.9336L102.766 46.1172L102.707 46.0586L101.055 43.9961V43.9844L99.3906 41.957V41.9453L97.7148 39.918L97.6562 39.8477L97.6094 39.7773L96.1797 37.5508L96.1328 37.4688L96.0859 37.375L95.082 35.2295L95.1484 35.8828ZM20.9453 99.3203L20.5 100.996L20.4883 103.434V103.48L20.3828 106.117L20.4766 108.566L20.7109 111.203V111.367L20.6641 114.004V114.121L20.6523 114.227L20.5889 114.592L21.2305 114.664L23.7148 114.453L23.7617 114.441H23.8203L24.5322 114.435L24.6836 112.316L24.5664 109.82L24.3906 107.184V107.09L24.3789 104.453V104.359L24.3906 104.277L24.6484 101.77L24.4844 99.8008L23.4766 98.7344L22.082 98.5352L20.9453 99.3203ZM57.3789 36.0586H57.3672L57.3555 36.0703L54.707 36.1875L54.6133 36.1992L54.5312 36.1875L53.5303 36.1133L53.6445 37.2461L53.6562 37.4102L53.6445 37.5742L53.3281 40.2109L53.3047 40.3867L53.2461 40.5391L52.3438 43.0586L51.6992 45.4961L51.6406 45.7422L51.5 45.9414L50.0234 48.1445L49.9297 48.2852L49.8008 48.4023L47.8789 50.207L47.5859 50.4883L47.1992 50.5703L45.6992 50.9102L45.6055 52.2109V52.2344L45.4365 54.0381L45.4258 54.2617L45.5781 56.8281L45.5898 56.957L45.5781 57.0859L45.2891 59.5371V59.6055L45.5547 62.043V62.1133L45.7188 64.75V64.9023L45.707 65.043L45.6943 65.1289L45.6992 65.1953L45.7109 65.2891L45.6992 65.3828L45.5469 68.0195L45.6289 70.5273L45.6406 70.6562L45.6172 70.7852L45.3477 72.5732L45.3438 72.7891L45.335 74.665L45.4062 75.7188L45.6406 78.3672L45.6523 78.4844L45.6406 78.6133L45.501 80.3477L45.5195 80.5469V80.6289L45.6133 83.2656L45.625 83.3242L45.6133 83.3828L45.5557 84.8223L45.6172 86.3594V86.4531L45.6055 86.5586L45.4912 87.7607L45.4844 88.6094V88.7031L45.4287 89.4775L45.6992 91.4922L45.7227 91.6328L45.7109 91.7734L45.582 94.4102L45.7461 96.8711L45.7578 96.9648L45.7461 97.0586L45.5938 99.6953L45.6875 102.203L45.6992 102.355L45.6758 102.508L45.4629 103.708L45.3789 104.453L45.3877 106.476L45.4766 107.395L45.7109 110.043L45.7227 110.16L45.7109 110.289L45.6416 111.199L45.6953 112.293V112.387L45.6836 112.469L45.5479 114.299L47.6211 114.336L47.6094 114.348H49.5928L49.6758 113.863L49.7109 111.32L49.4883 108.836L49.4766 108.789V108.754L49.3828 106.117V106L49.4883 103.363L49.5117 100.762V100.574L49.5703 100.387L50.2031 98.0078L50.3438 97.4688L50.8008 97.1641L52.8633 95.7461L53.3438 95.418L53.918 95.5L56.4258 95.8398L56.9531 95.9102L57.3164 96.2969L59.0391 98.1367L59.3906 98.5117L59.4375 99.0273L59.6602 101.676L59.6719 101.816L59.6602 101.969L59.3789 104.453L59.3906 106.984L59.5664 109.621V109.645L59.6953 112.293V112.387L59.6836 112.469L59.5234 114.636L60.7109 114.559V114.57L63.2891 114.289L63.4414 114.277L63.6055 114.289L66.0898 114.582L68.6328 114.43L68.7148 114.418L68.7969 114.43L71.3281 114.559L73.8242 114.266L74.0586 114.23L74.2812 114.277L74.54 114.325L74.6094 113.448L74.5938 113.148V112.984L74.665 111.865L74.5742 109.82L74.3984 107.184L74.3867 107.137V107.09L74.375 104.453V104.359L74.3867 104.277L74.4766 103.436L74.3828 102.719L74.3594 102.543L74.3711 102.379L74.5488 100.506L74.4453 99.2852V99.1797L74.4102 96.5312V96.5078L74.4336 93.9531L74.3047 91.3047V91.1406L74.4189 89.4707L74.418 89.4531V89.4062L74.2539 86.7695L74.2422 86.6172L74.2656 86.4648L74.5801 84.3369L74.6201 83.3916L74.5801 82.3398L74.5156 80.7344V80.7227L74.293 78.168L74.2812 78.0977L74.293 78.0156L74.3281 75.3789L74.3389 74.1475L74.2891 73.6094V70.7969L74.3594 68.1484V68.1016L74.3633 68.082L74.3516 67.5156V67.3867L74.3633 67.2695L74.6123 65.4336L74.4648 63.0039V62.8516L74.5098 61.7754L74.293 59.7109L74.2695 59.5586L74.293 59.3945L74.4775 57.748L74.4766 57.6953L74.4648 57.625L74.4766 57.5547L74.5449 56.415L74.4219 54.3672V54.2031L74.4785 53.1025L74.4297 52.4688L74.3828 51.9883L74.4795 51.8369L74.0586 51.0156L72.1719 49.9023L72.043 49.832L71.9375 49.7383L70.0039 48.0508L69.8047 47.875L69.6758 47.6406L68.4102 45.3438L68.3516 45.2383L68.3164 45.1211L67.4492 42.625L67.4141 42.5547L67.4023 42.4727L66.8047 39.8945L66.7812 39.8242L66.7695 39.7422L66.4414 37.1172L66.4297 36.9766L66.4414 36.8242L66.4951 36.0146L65.3828 36.1523L65.207 36.1758L65.0312 36.1641L62.5 35.8945H59.9219L57.3789 36.0586ZM29.9336 35.8945H29.9219L27.3789 36.0586H27.3672L27.3555 36.0703L24.707 36.1875L24.6133 36.1992L24.5312 36.1875L23.4023 36.1035L23.4062 36.168L23.4648 37.4922L22.1641 37.7148L19.5625 38.1719L19.457 38.1953H19.3516L18.2383 38.2188L18.3086 39.25V39.3203L18.3438 41.957V42.2266L18.2617 42.4727L17.5703 44.4531L17.2656 45.332L16.3281 45.4492L13.9727 45.7188L13.1289 46.1289L13.0938 47.875L13.2109 50.418V50.4414L13.293 53.0547L13.5156 55.6094L13.5273 55.6211V55.6445L13.7031 58.2812L13.7148 58.375L13.7031 58.4805L13.5508 60.9766L13.6328 63.6133L13.6445 63.7539L13.6211 63.8828L13.2461 66.3672L13.4102 68.8164L13.6445 71.4531L13.6562 71.582L13.6445 71.6992L13.4336 74.3477L13.5156 76.8086L13.6094 79.4453L13.6211 79.5508L13.6094 79.6445L13.375 82.1289L13.7031 84.5898L13.7148 84.7188V84.8594L13.5742 87.3906L13.75 89.9688V90.1562L13.5977 92.793L13.6914 95.2891L13.7031 95.4414L13.668 95.5938L13.2461 98.0547L13.4688 100.492L13.7148 103.129L13.7266 103.258L13.7148 103.375L13.5156 106.012V106.035L13.293 108.543L13.4922 111.062L13.5039 111.168L13.4922 111.262L13.3516 113.77L13.457 114.552L15.8164 114.395H15.9102L17.5859 114.387L17.6758 113.863L17.7109 111.32L17.4883 108.836L17.4766 108.789V108.754L17.3828 106.117V106L17.4883 103.363L17.5117 100.762V100.574L17.5703 100.387L18.2031 98.0078L18.3438 97.4688L18.8008 97.1641L20.8633 95.7461L21.3438 95.418L21.918 95.5L24.4258 95.8398L24.9531 95.9102L25.3164 96.2969L27.0391 98.1367L27.3906 98.5117L27.4375 99.0273L27.6602 101.676L27.6719 101.816L27.6602 101.969L27.3789 104.453L27.3906 106.984L27.5664 109.621V109.645L27.6953 112.293V112.387L27.6836 112.469L27.5391 114.422L29.0469 114.43L31.6953 114.312L31.7773 114.301L31.8594 114.312L34.5078 114.488L34.4961 114.5L37.0508 114.512H37.0977L39.6875 114.617L42.1836 114.535L42.3223 114.521L42.5234 112.656L42.6309 111.213L42.5664 109.82L42.3906 107.184V107.09L42.3877 106.594L42.2422 105.027L42.2305 104.828L42.2656 104.641L42.4844 103.36L42.6484 101.77L42.4492 99.2852L42.4375 99.2383V99.1797L42.4141 96.5312V96.5078L42.4258 93.9531L42.3086 91.3047V91.1406L42.416 89.5117L42.3828 89.2539L42.3594 89.0781L42.3711 88.9141L42.4922 87.6387L42.5078 85.9492V85.9023L42.5557 84.8594L42.5117 83.8281V83.8164L42.4414 81.1797L42.4297 81.0977L42.4414 81.0156L42.4902 80.3906L42.2969 78.168L42.2852 78.0977V78.0156L42.332 75.3789L42.335 74.6143L42.2539 73.3047L42.2422 73.1523L42.2656 73L42.3506 72.4258L42.4023 70.1523L42.3555 67.5156L42.3438 67.3867L42.3672 67.2695L42.6846 64.9336L42.5352 62.793L42.2891 60.1445V59.6602L42.2734 59.5586L42.2891 59.4492V57.332L42.3594 54.6953V54.6367L42.3711 54.5898L42.4443 53.7998L42.543 51.7188L42.1211 49.2812L42.0742 49.0586L42.1094 48.8359L42.4023 46.3516L42.2383 45.0859L41.043 44.957L38.4883 45.0156L37.3633 45.0391L37.0234 43.9609L36.3438 41.7695L36.2969 41.6055L36.1094 38.793L36.0977 38.6875L36.1094 38.5938L36.1797 37.3633L35.2422 37.2578L35.1016 37.2344L32.7812 36.7422L31.5391 36.4727L31.5654 35.8848L29.9336 35.8945ZM84.9453 99.3203L84.5 100.996L84.4883 103.434V103.48L84.3828 106.117L84.4766 108.566L84.7109 111.203V111.367L84.6641 114.004V114.121L84.6523 114.227L84.6074 114.485L87.1602 114.418H87.1953L88.5342 114.411L88.6836 112.316L88.5664 109.82L88.3906 107.184V107.09L88.3789 104.453V104.359L88.3906 104.277L88.6484 101.77L88.4844 99.8008L87.4766 98.7344L86.082 98.5352L84.9453 99.3203ZM52.9453 99.3203L52.5 100.996L52.4883 103.434V103.48L52.3828 106.117L52.4766 108.566L52.7109 111.203V111.367L52.6641 114.004V114.121L52.6523 114.227L52.6221 114.4L52.8711 114.406L55.4844 114.348H55.6133L55.7305 114.359L56.5293 114.476L56.6836 112.316L56.5664 109.82L56.3906 107.184V107.09L56.3789 104.453V104.359L56.3906 104.277L56.6484 101.77L56.4844 99.8008L55.4766 98.7344L54.082 98.5352L52.9453 99.3203ZM32.5322 96.6484L33.7002 96.6943L34.2119 96.7148L34.6045 97.0449L35.8984 98.1318L36.3877 98.543L36.4297 99.1807L36.6064 101.82L36.6094 101.866V101.912L36.623 104.553V104.639L36.6133 104.725L36.3223 107.364L36.2344 108.166L35.5166 108.534L33.8447 109.393L33.3506 109.646L32.8105 109.517L30.5635 108.979L29.4043 108.701L29.4121 107.511L29.4287 104.903L29.3076 102.31L29.3037 102.224L29.3096 102.138L29.4873 99.5303L29.5059 98.3652L28.5732 96.5H32.5352L32.5322 96.6484ZM65.5322 96.6484L66.7002 96.6943L67.2119 96.7148L67.6045 97.0449L68.8984 98.1318L69.3877 98.543L69.4297 99.1807L69.6064 101.82L69.6094 101.866V101.912L69.623 104.553V104.639L69.6133 104.725L69.3223 107.364L69.2344 108.166L68.5166 108.534L66.8447 109.393L66.3506 109.646L65.8105 109.517L63.5635 108.979L62.4043 108.701L62.4121 107.511L62.4287 104.903L62.3076 102.31L62.3037 102.224L62.3096 102.138L62.4873 99.5303L62.5059 98.3652L61.5732 96.5H65.5352L65.5322 96.6484ZM97.5322 96.6484L98.7002 96.6943L99.2119 96.7148L99.6045 97.0449L100.898 98.1318L101.388 98.543L101.43 99.1807L101.606 101.82L101.609 101.866V101.912L101.623 104.553V104.639L101.613 104.725L101.322 107.364L101.234 108.166L100.517 108.534L98.8447 109.393L98.3506 109.646L97.8105 109.517L95.5635 108.979L94.4043 108.701L94.4121 107.511L94.4287 104.903L94.3076 102.31L94.3037 102.224L94.3096 102.138L94.4873 99.5303L94.5059 98.3652L93.5732 96.5H97.5352L97.5322 96.6484ZM32.4854 99.6631L32.4824 99.7021L32.3076 102.263L32.4268 104.811L32.4287 104.85V104.89L32.4189 106.338L32.9688 106.469L33.4287 106.233L33.6221 104.479L33.6094 101.979L33.4785 100.017L33.0674 99.6709L32.4854 99.6475V99.6631ZM65.4854 99.6631L65.4824 99.7021L65.3076 102.263L65.4268 104.811L65.4287 104.85V104.89L65.4189 106.338L65.9688 106.469L66.4287 106.233L66.6221 104.479L66.6094 101.979L66.4785 100.017L66.0674 99.6709L65.4854 99.6475V99.6631ZM97.4854 99.6631L97.4824 99.7021L97.3076 102.263L97.4268 104.811L97.4287 104.85V104.89L97.4189 106.338L97.9688 106.469L98.4287 106.233L98.6221 104.479L98.6094 101.979L98.4785 100.017L98.0674 99.6709L97.4854 99.6475V99.6631ZM21.5322 77.6484L22.7002 77.6943L23.2119 77.7148L23.6045 78.0449L24.8984 79.1318L25.3877 79.543L25.4297 80.1807L25.6064 82.8203L25.6094 82.8662V82.9121L25.623 85.5527V85.6387L25.6133 85.7246L25.3223 88.3643L25.2344 89.166L24.5166 89.5342L22.8447 90.3926L22.3506 90.6455L21.8105 90.5166L19.5635 89.9785L18.4043 89.7012L18.4121 88.5107L18.4287 85.9033L18.3076 83.3096L18.3037 83.2236L18.3096 83.1377L18.4873 80.5303L18.5059 79.3652L17.5732 77.5H21.5352L21.5322 77.6484ZM32.5322 77.6484L33.7002 77.6943L34.2119 77.7148L34.6045 78.0449L35.8984 79.1318L36.3877 79.543L36.4297 80.1807L36.6064 82.8203L36.6094 82.8662V82.9121L36.623 85.5527V85.6387L36.6133 85.7246L36.3223 88.3643L36.2344 89.166L35.5166 89.5342L33.8447 90.3926L33.3506 90.6455L32.8105 90.5166L30.5635 89.9785L29.4043 89.7012L29.4121 88.5107L29.4287 85.9033L29.3076 83.3096L29.3037 83.2236L29.3096 83.1377L29.4873 80.5303L29.5059 79.3652L28.5732 77.5H32.5352L32.5322 77.6484ZM54.5322 77.6484L55.7002 77.6943L56.2119 77.7148L56.6045 78.0449L57.8984 79.1318L58.3877 79.543L58.4297 80.1807L58.6064 82.8203L58.6094 82.8662V82.9121L58.623 85.5527V85.6387L58.6133 85.7246L58.3223 88.3643L58.2344 89.166L57.5166 89.5342L55.8447 90.3926L55.3506 90.6455L54.8105 90.5166L52.5635 89.9785L51.4043 89.7012L51.4121 88.5107L51.4287 85.9033L51.3076 83.3096L51.3037 83.2236L51.3096 83.1377L51.4873 80.5303L51.5059 79.3652L50.5732 77.5H54.5352L54.5322 77.6484ZM65.5322 77.6484L66.7002 77.6943L67.2119 77.7148L67.6045 78.0449L68.8984 79.1318L69.3877 79.543L69.4297 80.1807L69.6064 82.8203L69.6094 82.8662V82.9121L69.623 85.5527V85.6387L69.6133 85.7246L69.3223 88.3643L69.2344 89.166L68.5166 89.5342L66.8447 90.3926L66.3506 90.6455L65.8105 90.5166L63.5635 89.9785L62.4043 89.7012L62.4121 88.5107L62.4287 85.9033L62.3076 83.3096L62.3037 83.2236L62.3096 83.1377L62.4873 80.5303L62.5059 79.3652L61.5732 77.5H65.5352L65.5322 77.6484ZM86.5322 77.6484L87.7002 77.6943L88.2119 77.7148L88.6045 78.0449L89.8984 79.1318L90.3877 79.543L90.4297 80.1807L90.6064 82.8203L90.6094 82.8662V82.9121L90.623 85.5527V85.6387L90.6133 85.7246L90.3223 88.3643L90.2344 89.166L89.5166 89.5342L87.8447 90.3926L87.3506 90.6455L86.8105 90.5166L84.5635 89.9785L83.4043 89.7012L83.4121 88.5107L83.4287 85.9033L83.3076 83.3096L83.3037 83.2236L83.3096 83.1377L83.4873 80.5303L83.5059 79.3652L82.5732 77.5H86.5352L86.5322 77.6484ZM97.5322 77.6484L98.7002 77.6943L99.2119 77.7148L99.6045 78.0449L100.898 79.1318L101.388 79.543L101.43 80.1807L101.606 82.8203L101.609 82.8662V82.9121L101.623 85.5527V85.6387L101.613 85.7246L101.322 88.3643L101.234 89.166L100.517 89.5342L98.8447 90.3926L98.3506 90.6455L97.8105 90.5166L95.5635 89.9785L94.4043 89.7012L94.4121 88.5107L94.4287 85.9033L94.3076 83.3096L94.3037 83.2236L94.3096 83.1377L94.4873 80.5303L94.5059 79.3652L93.5732 77.5H97.5352L97.5322 77.6484ZM21.4854 80.6631L21.4824 80.7021L21.3076 83.2627L21.4268 85.8105L21.4287 85.8496V85.8896L21.4189 87.3379L21.9688 87.4688L22.4287 87.2334L22.6221 85.4785L22.6094 82.9795L22.4785 81.0166L22.0674 80.6709L21.4854 80.6475V80.6631ZM32.4854 80.6631L32.4824 80.7021L32.3076 83.2627L32.4268 85.8105L32.4287 85.8496V85.8896L32.4189 87.3379L32.9688 87.4688L33.4287 87.2334L33.6221 85.4785L33.6094 82.9795L33.4785 81.0166L33.0674 80.6709L32.4854 80.6475V80.6631ZM54.4854 80.6631L54.4824 80.7021L54.3076 83.2627L54.4268 85.8105L54.4287 85.8496V85.8896L54.4189 87.3379L54.9688 87.4688L55.4287 87.2334L55.6221 85.4785L55.6094 82.9795L55.4785 81.0166L55.0674 80.6709L54.4854 80.6475V80.6631ZM65.4854 80.6631L65.4824 80.7021L65.3076 83.2627L65.4268 85.8105L65.4287 85.8496V85.8896L65.4189 87.3379L65.9688 87.4688L66.4287 87.2334L66.6221 85.4785L66.6094 82.9795L66.4785 81.0166L66.0674 80.6709L65.4854 80.6475V80.6631ZM86.4854 80.6631L86.4824 80.7021L86.3076 83.2627L86.4268 85.8105L86.4287 85.8496V85.8896L86.4189 87.3379L86.9688 87.4688L87.4287 87.2334L87.6221 85.4785L87.6094 82.9795L87.4785 81.0166L87.0674 80.6709L86.4854 80.6475V80.6631ZM97.4854 80.6631L97.4824 80.7021L97.3076 83.2627L97.4268 85.8105L97.4287 85.8496V85.8896L97.4189 87.3379L97.9688 87.4688L98.4287 87.2334L98.6221 85.4785L98.6094 82.9795L98.4785 81.0166L98.0674 80.6709L97.4854 80.6475V80.6631ZM21.5322 58.6484L22.7002 58.6943L23.2119 58.7148L23.6045 59.0449L24.8984 60.1318L25.3877 60.543L25.4297 61.1807L25.6064 63.8203L25.6094 63.8662V63.9121L25.623 66.5527V66.6387L25.6133 66.7246L25.3223 69.3643L25.2344 70.166L24.5166 70.5342L22.8447 71.3926L22.3506 71.6455L21.8105 71.5166L19.5635 70.9785L18.4043 70.7012L18.4121 69.5107L18.4287 66.9033L18.3076 64.3096L18.3037 64.2236L18.3096 64.1377L18.4873 61.5303L18.5059 60.3652L17.5732 58.5H21.5352L21.5322 58.6484ZM32.5322 58.6484L33.7002 58.6943L34.2119 58.7148L34.6045 59.0449L35.8984 60.1318L36.3877 60.543L36.4297 61.1807L36.6064 63.8203L36.6094 63.8662V63.9121L36.623 66.5527V66.6387L36.6133 66.7246L36.3223 69.3643L36.2344 70.166L35.5166 70.5342L33.8447 71.3926L33.3506 71.6455L32.8105 71.5166L30.5635 70.9785L29.4043 70.7012L29.4121 69.5107L29.4287 66.9033L29.3076 64.3096L29.3037 64.2236L29.3096 64.1377L29.4873 61.5303L29.5059 60.3652L28.5732 58.5H32.5352L32.5322 58.6484ZM54.5322 58.6484L55.7002 58.6943L56.2119 58.7148L56.6045 59.0449L57.8984 60.1318L58.3877 60.543L58.4297 61.1807L58.6064 63.8203L58.6094 63.8662V63.9121L58.623 66.5527V66.6387L58.6133 66.7246L58.3223 69.3643L58.2344 70.166L57.5166 70.5342L55.8447 71.3926L55.3506 71.6455L54.8105 71.5166L52.5635 70.9785L51.4043 70.7012L51.4121 69.5107L51.4287 66.9033L51.3076 64.3096L51.3037 64.2236L51.3096 64.1377L51.4873 61.5303L51.5059 60.3652L50.5732 58.5H54.5352L54.5322 58.6484ZM65.5322 58.6484L66.7002 58.6943L67.2119 58.7148L67.6045 59.0449L68.8984 60.1318L69.3877 60.543L69.4297 61.1807L69.6064 63.8203L69.6094 63.8662V63.9121L69.623 66.5527V66.6387L69.6133 66.7246L69.3223 69.3643L69.2344 70.166L68.5166 70.5342L66.8447 71.3926L66.3506 71.6455L65.8105 71.5166L63.5635 70.9785L62.4043 70.7012L62.4121 69.5107L62.4287 66.9033L62.3076 64.3096L62.3037 64.2236L62.3096 64.1377L62.4873 61.5303L62.5059 60.3652L61.5732 58.5H65.5352L65.5322 58.6484ZM86.5322 58.6484L87.7002 58.6943L88.2119 58.7148L88.6045 59.0449L89.8984 60.1318L90.3877 60.543L90.4297 61.1807L90.6064 63.8203L90.6094 63.8662V63.9121L90.623 66.5527V66.6387L90.6133 66.7246L90.3223 69.3643L90.2344 70.166L89.5166 70.5342L87.8447 71.3926L87.3506 71.6455L86.8105 71.5166L84.5635 70.9785L83.4043 70.7012L83.4121 69.5107L83.4287 66.9033L83.3076 64.3096L83.3037 64.2236L83.3096 64.1377L83.4873 61.5303L83.5059 60.3652L82.5732 58.5H86.5352L86.5322 58.6484ZM97.5322 58.6484L98.7002 58.6943L99.2119 58.7148L99.6045 59.0449L100.898 60.1318L101.388 60.543L101.43 61.1807L101.606 63.8203L101.609 63.8662V63.9121L101.623 66.5527V66.6387L101.613 66.7246L101.322 69.3643L101.234 70.166L100.517 70.5342L98.8447 71.3926L98.3506 71.6455L97.8105 71.5166L95.5635 70.9785L94.4043 70.7012L94.4121 69.5107L94.4287 66.9033L94.3076 64.3096L94.3037 64.2236L94.3096 64.1377L94.4873 61.5303L94.5059 60.3652L93.5732 58.5H97.5352L97.5322 58.6484ZM21.4854 61.6631L21.4824 61.7021L21.3076 64.2627L21.4268 66.8105L21.4287 66.8496V66.8896L21.4189 68.3379L21.9688 68.4688L22.4287 68.2334L22.6221 66.4785L22.6094 63.9795L22.4785 62.0166L22.0674 61.6709L21.4854 61.6475V61.6631ZM32.4854 61.6631L32.4824 61.7021L32.3076 64.2627L32.4268 66.8105L32.4287 66.8496V66.8896L32.4189 68.3379L32.9688 68.4688L33.4287 68.2334L33.6221 66.4785L33.6094 63.9795L33.4785 62.0166L33.0674 61.6709L32.4854 61.6475V61.6631ZM54.4854 61.6631L54.4824 61.7021L54.3076 64.2627L54.4268 66.8105L54.4287 66.8496V66.8896L54.4189 68.3379L54.9688 68.4688L55.4287 68.2334L55.6221 66.4785L55.6094 63.9795L55.4785 62.0166L55.0674 61.6709L54.4854 61.6475V61.6631ZM65.4854 61.6631L65.4824 61.7021L65.3076 64.2627L65.4268 66.8105L65.4287 66.8496V66.8896L65.4189 68.3379L65.9688 68.4688L66.4287 68.2334L66.6221 66.4785L66.6094 63.9795L66.4785 62.0166L66.0674 61.6709L65.4854 61.6475V61.6631ZM86.4854 61.6631L86.4824 61.7021L86.3076 64.2627L86.4268 66.8105L86.4287 66.8496V66.8896L86.4189 68.3379L86.9688 68.4688L87.4287 68.2334L87.6221 66.4785L87.6094 63.9795L87.4785 62.0166L87.0674 61.6709L86.4854 61.6475V61.6631ZM97.4854 61.6631L97.4824 61.7021L97.3076 64.2627L97.4268 66.8105L97.4287 66.8496V66.8896L97.4189 68.3379L97.9688 68.4688L98.4287 68.2334L98.6221 66.4785L98.6094 63.9795L98.4785 62.0166L98.0674 61.6709L97.4854 61.6475V61.6631ZM26.5322 42.6484L27.7002 42.6943L28.2119 42.7148L28.6045 43.0449L29.8984 44.1318L30.3877 44.543L30.4297 45.1807L30.6064 47.8203L30.6094 47.8662V47.9121L30.623 50.5527V50.6387L30.6133 50.7246L30.3223 53.3643L30.2344 54.166L29.5166 54.5342L27.8447 55.3926L27.3506 55.6455L26.8105 55.5166L24.5635 54.9785L23.4043 54.7012L23.4121 53.5107L23.4287 50.9033L23.3076 48.3096L23.3037 48.2236L23.3096 48.1377L23.4873 45.5303L23.5059 44.3652L22.5732 42.5H26.5352L26.5322 42.6484ZM59.5322 42.6484L60.7002 42.6943L61.2119 42.7148L61.6045 43.0449L62.8984 44.1318L63.3877 44.543L63.4297 45.1807L63.6064 47.8203L63.6094 47.8662V47.9121L63.623 50.5527V50.6387L63.6133 50.7246L63.3223 53.3643L63.2344 54.166L62.5166 54.5342L60.8447 55.3926L60.3506 55.6455L59.8105 55.5166L57.5635 54.9785L56.4043 54.7012L56.4121 53.5107L56.4287 50.9033L56.3076 48.3096L56.3037 48.2236L56.3096 48.1377L56.4873 45.5303L56.5059 44.3652L55.5732 42.5H59.5352L59.5322 42.6484ZM91.5322 42.6484L92.7002 42.6943L93.2119 42.7148L93.6045 43.0449L94.8984 44.1318L95.3877 44.543L95.4297 45.1807L95.6064 47.8203L95.6094 47.8662V47.9121L95.623 50.5527V50.6387L95.6133 50.7246L95.3223 53.3643L95.2344 54.166L94.5166 54.5342L92.8447 55.3926L92.3506 55.6455L91.8105 55.5166L89.5635 54.9785L88.4043 54.7012L88.4121 53.5107L88.4287 50.9033L88.3076 48.3096L88.3037 48.2236L88.3096 48.1377L88.4873 45.5303L88.5059 44.3652L87.5732 42.5H91.5352L91.5322 42.6484ZM26.4854 45.6631L26.4824 45.7021L26.3076 48.2627L26.4268 50.8105L26.4287 50.8496V50.8896L26.4189 52.3379L26.9688 52.4688L27.4287 52.2334L27.6221 50.4785L27.6094 47.9795L27.4785 46.0166L27.0674 45.6709L26.4854 45.6475V45.6631ZM59.4854 45.6631L59.4824 45.7021L59.3076 48.2627L59.4268 50.8105L59.4287 50.8496V50.8896L59.4189 52.3379L59.9688 52.4688L60.4287 52.2334L60.6221 50.4785L60.6094 47.9795L60.4785 46.0166L60.0674 45.6709L59.4854 45.6475V45.6631ZM91.4854 45.6631L91.4824 45.7021L91.3076 48.2627L91.4268 50.8105L91.4287 50.8496V50.8896L91.4189 52.3379L91.9688 52.4688L92.4287 52.2334L92.6221 50.4785L92.6094 47.9795L92.4785 46.0166L92.0674 45.6709L91.4854 45.6475V45.6631ZM27.2266 29.5L27.0859 29.5117L26.9453 29.5L24.4844 29.3008L23.4883 29.4766L23.2891 30.9648L23.2783 33.0859L24.6719 33.1992L27.1797 33.082V33.0703L29.8164 32.8945H29.9102L31.6836 32.8838L31.6914 32.6992L31.2812 30.2383V30.2266L31.1172 29.5469L29.6055 29.2539L27.2266 29.5ZM55.9648 29.5L55.8242 29.5117L55.6953 29.5L54.0078 29.3594L53.7031 29.9219L53.457 32.1367L53.4297 33.0986L54.6719 33.1992L57.1797 33.082V33.0703L59.8164 32.8945H59.9102L62.5469 32.8828L62.6406 32.8711L62.7227 32.8828L65.1719 33.1641L66.3301 33.0146L66.1133 31.9375L66.0547 31.668L66.1016 31.3867L66.3828 29.6641L65.9844 29.3711L63.9805 29.7227L63.8633 29.7344H63.7461L61.1094 29.7578H60.957L60.8047 29.7344L58.3555 29.2539L55.9648 29.5ZM92.0312 31.1641L91.9844 31.2695L91.9141 31.375L90.7803 33.1934L93.1328 33.082V33.0703L93.1396 33.0693L93.1094 33.0039L92.1367 30.8945L92.0312 31.1641Z" fill="black"/>
</svg>
