<svg width="120" height="120" viewBox="0 0 120 120" fill="none" xmlns="http://www.w3.org/2000/svg">
<path d="M95.3164 114.254L97.8945 114.605L100.273 114.711L102.793 114.277L102.91 114.266H103.027L105.664 114.242H105.816L105.969 114.266L108.406 114.746L110.809 114.5L110.891 114.488H110.973L112.016 114.5L112.004 116L111.98 117.5L110.984 117.488L108.477 117.746L108.254 117.77L108.031 117.734L105.57 117.242L103.145 117.254L100.648 117.688L100.496 117.711L100.332 117.699L97.6953 117.594H97.625L97.5547 117.582L95.1523 117.242L92.7617 117.711L92.5273 117.758L92.293 117.734L89.7383 117.406L87.207 117.418L87.1953 117.406L84.6055 117.488H84.5938L81.957 117.547H81.9336L79.3672 117.559L79.3789 117.57L76.7422 117.746L76.5547 117.758L73.9297 117.266L71.5391 117.547L71.4102 117.559H71.2812L68.7266 117.418L66.1719 117.582H66.043L65.9141 117.57L63.418 117.289L60.957 117.559H60.8867L58.25 117.711L58.0977 117.723L57.957 117.699L55.4141 117.348L52.9062 117.406H52.8477L50.2109 117.348V117.336H47.5742L44.9492 117.289L42.4531 117.512L42.418 117.523H42.3711L39.7344 117.617H39.6172L36.9805 117.512V117.5L34.3906 117.488H34.3438L34.2969 117.477L31.7188 117.301L29.1875 117.43H29.1055L26.4688 117.418V117.406L23.9609 117.43L21.3242 117.664L21.1836 117.676L21.0312 117.664L18.5 117.383L15.9219 117.395V117.383L13.3789 117.559H13.3672L13.3555 117.57L10.707 117.688L10.6133 117.699L10.5312 117.688L7.98828 117.5L8 117.277V114.5H8.21094L10.6719 114.699L13.1797 114.582V114.57L15.8164 114.395H15.9102L18.5469 114.383L18.6406 114.371L18.7227 114.383L21.2305 114.664L23.7148 114.453L23.7617 114.441H23.8203L26.4688 114.418H26.4922L29.0469 114.43L31.6953 114.312L31.7773 114.301L31.8594 114.312L34.5078 114.488L34.4961 114.5L37.0508 114.512H37.0977L39.6875 114.617L42.1836 114.535L44.832 114.289H44.9844L47.6211 114.336L47.6094 114.348H50.2695L52.8711 114.406L55.4844 114.348H55.6133L55.7305 114.359L58.2148 114.723L60.7109 114.559V114.57L63.2891 114.289L63.4414 114.277L63.6055 114.289L66.0898 114.582L68.6328 114.43L68.7148 114.418L68.7969 114.43L71.3281 114.559L73.8242 114.266L74.0586 114.23L74.2812 114.277L76.7305 114.734L79.1797 114.582L79.2266 114.57H79.2617L81.8867 114.559V114.547L84.5234 114.488L87.1602 114.418H87.1953L89.832 114.406H89.9375L90.0312 114.418L92.4219 114.734L94.8359 114.266L95.082 114.219L95.3164 114.254ZM71.4287 51.4062L74.0537 51.7109L74.042 51.7227L76.667 51.9805H76.7021L76.749 51.9922L79.21 52.3789L81.8467 52.5312H81.917L84.542 52.8125L84.5303 52.8242L87.1436 53.0234H87.1318L89.71 53.0938H89.8623L90.0029 53.1289L92.5459 53.7148L93.46 53.9258L93.6709 54.8398L94.1982 57.1602L94.2217 57.2656L94.2334 57.3711L94.4443 60.0078V60.0547L94.5732 62.7031V62.8438L94.5498 62.9844L94.3525 64.4004L94.4717 64.4102H94.46L97.085 64.5508H97.1084L99.7451 64.7617L99.8506 64.7734L99.9561 64.7969L102.417 65.3359L105.077 65.4297L106.448 65.4766L106.519 66.8477L106.671 69.5195L106.683 69.5898L106.671 69.6602L106.589 72.1094L107.116 74.5469L107.14 74.6406L107.151 74.7344L107.362 77.3711L107.374 77.5117L107.362 77.6641L107.069 80.1367L107.468 82.5391L107.491 82.6797V82.8203L107.409 85.2695L107.913 87.7422L107.948 87.9297L107.937 88.1289L107.772 90.6953L107.89 93.0859L108.499 95.582L108.522 95.6875L108.534 95.793L108.78 98.4297L108.792 98.5469L108.78 98.6641L108.604 101.195L108.634 102.812L109.288 102.865L109.487 101.904H110.812V103.416L112.194 103.697L111.972 104.787L111.702 106.1L110.366 105.982L108.686 105.832L108.687 105.836L108.672 105.831L107.741 105.748V105.736L105.128 105.549L105.058 105.537L104.976 105.525L102.87 105.137L102.146 105.803L101.677 106.236L101.056 106.201L98.3721 106.049H98.3135L98.2549 106.037L95.7939 105.697L93.4033 106.061L93.2393 106.084L93.0752 106.072L90.5557 105.873L88.0361 106.107L87.8018 106.131L87.5557 106.084L85.0596 105.486L82.5635 105.275L82.4229 105.264L82.2939 105.229L81.4307 104.986L80.8496 105.398L80.5215 105.633L80.1113 105.668L77.5098 105.902L77.4395 105.914H77.3691L74.8262 105.891L72.2012 106.078L72.0254 106.09L71.8379 106.055L69.4238 105.633L67.0098 105.949L66.8809 105.961H66.7402L64.1621 105.82L61.6074 105.926L61.4785 105.938L61.3496 105.926L58.9004 105.609L56.4043 105.855H56.3457L53.709 106.008H53.5566L53.416 105.996L50.8848 105.645L48.377 105.715H48.3184L45.6934 105.691L43.0684 105.715H40.4785L37.9473 105.996L37.8184 106.008H37.6895L35.0293 105.844L33.7637 105.773L33.623 104.508L33.3301 101.941L33.0605 100.629L31.5957 100.477L29.1113 100.605H29.0293L26.4043 100.582L23.7793 100.617L23.7676 100.605L21.248 100.84L21.0957 100.852L20.9551 100.828L18.3301 100.547L15.8457 100.57L15.834 100.559L13.3145 100.652L10.8652 100.992L10.7246 101.004H10.5723L8.00586 100.828L8.0293 100.477L8.00586 99.3281L7.98242 97.8281H8.14648L8.20508 97.8398L10.4121 97.9893L10.458 96.0527H10.4697L10.3408 93.5449L10.165 90.9082V90.8145L10.1416 88.1777V88.084L10.1533 88.002L10.4346 85.4824L10.2119 83.0098V80.2441L10.2002 79.5293L10.751 79.084L12.5439 77.6191L13.0479 77.1973L13.6924 77.291L16.3174 77.6426L16.5986 77.6777L16.833 77.8066L17.5547 78.2012L18.1279 77.7451L18.4912 77.4639L18.96 77.4287L21.5381 77.2529H21.5732L24.1396 77.1592L24.9551 77.0137L24.8975 75.1211V75.0156L24.9092 74.9102L25.2021 72.332L26.5615 72.4844L26.6084 72.4375L26.7871 72.2129L25.5127 72.2832V72.1191L25.3838 70.502L25.2666 68.9316L26.8486 68.8848L29.4268 68.8262H29.4502L32.0986 68.8027V68.8145L34.6182 68.5918L34.7705 68.5801L34.9111 68.5918L37.5244 68.8848L40.0205 68.8613V68.873L42.5635 68.6855H42.5869L45.2354 68.5566L45.6221 68.5332L45.9736 68.709L47.7139 69.583L48.0068 69.5898H48.5469L48.5303 68.6797V68.5742L48.6709 66.0078L48.5186 63.4648L48.5068 63.3359L48.5186 63.207L48.8115 60.5703L48.8232 60.4531L48.8584 60.3359L49.4912 58.0039L49.6904 57.2773L50.3936 56.9961L52.8545 56.0352L52.9951 55.9766L53.1357 55.9531L55.6436 55.4844L58.0576 54.6992H58.0811L58.1045 54.6875L60.6357 53.9375L63.0615 53.082L63.1318 53.0586L65.6514 52.332L65.6631 52.3203H65.6748L68.2061 51.6172L68.3701 51.5703L68.5225 51.5586L71.1709 51.4062L71.2998 51.3945L71.4287 51.4062ZM99.1611 103.078L99.9834 103.122L99.9482 103.088L99.5 103.024L99.1611 103.078ZM26.9873 79.7021L26.8936 79.7139L24.5264 80.124L24.4326 80.1475H24.3389L21.7256 80.2412L21.0479 80.29L21.2861 80.4434L23.6064 81.2168H23.5947L26.0205 81.9316H26.0322L28.6104 82.5762L28.6807 82.5879L28.751 82.623L31.2354 83.5137H31.2236L33.708 84.3809H33.7197L33.7314 84.3926L36.1455 85.2715H36.1572L38.6768 86.0801L38.7822 86.1152L38.8994 86.1738L41.0908 87.2988L43.54 88.002H43.5283L46.0596 88.5996L46.2236 88.6348L46.3643 88.7051L48.6729 89.8066L51.0635 90.4863L51.1455 90.5098L51.2158 90.5449L53.5596 91.4941L56.0205 92.0449L56.2432 92.0918L56.4424 92.209L58.6221 93.4395L60.9775 94.0957L61.0127 94.1074L61.0596 94.1191L63.5557 94.9746H63.5439L66.0518 95.8066H66.04L68.5596 96.6152L68.583 96.627L71.0791 97.4941L71.1729 97.5293L71.2666 97.5762L73.4229 98.6777L75.8486 99.0762L76.0713 99.1113L76.2705 99.2168L78.6494 100.389L78.7197 100.424L78.7783 100.459L80.7588 101.689L82.9619 102.299L85.4111 102.51L85.5166 102.521L85.6221 102.545L87.9893 103.096L90.4033 102.885L90.5322 102.873H90.6611L93.0869 103.061L95.6064 102.709L95.8174 102.686L96.0283 102.709L98.5947 103.049L98.8721 103.062L98.874 102.937L97.7803 102.783L97.6162 102.76L97.4639 102.701L95.0381 101.775L92.5654 101.061L92.4951 101.037L92.4365 101.014L90.0576 100.064L87.6201 99.5137L87.5615 99.502L87.5146 99.4902L84.9951 98.7285L84.9248 98.7051L84.8662 98.6816L82.4404 97.6973L80.0264 96.9824L79.9092 96.9355L77.542 96.0098L75.0225 95.2012V95.2129L72.5732 94.4277L70.042 93.8887L69.9951 93.877L69.96 93.8652L67.417 93.1504L67.2998 93.1035L64.8271 92.1895V92.1777L62.3662 91.3691L62.2959 91.3457L59.9873 90.4434L57.4326 89.7637L57.3623 89.7402L54.8662 88.9199L52.3467 88.1582V88.1465L49.874 87.5957L49.7334 87.5723L49.5928 87.5137L47.3076 86.4941L44.8232 85.7324L42.3271 85.1582L39.7725 84.5723L39.4912 84.502L39.2686 84.3496L37.1943 82.9434L37.543 82.4229L35.8633 82.7129L35.5586 82.7715L35.2539 82.7012L32.6992 82.0801L32.6875 82.0684H32.6758L30.1211 81.4004L29.8984 81.3418L29.7109 81.2246L28.0469 80.1816L27.0596 79.5703L26.958 79.5303L26.9873 79.7021ZM13.2119 80.9473V82.7637L13.4346 85.4004L13.4463 85.541L13.4229 85.6934L13.1416 88.3301L13.165 90.8027L13.3291 93.3457V93.3691L13.458 96.0176L13.4697 96.0645L13.458 96.123L13.4219 97.6533L15.7871 97.5703H15.834L18.4707 97.5469H18.5527L18.6465 97.5586L21.1426 97.8398L23.627 97.6172H23.7441L26.3809 97.582H26.4043L28.9707 97.6055L31.6074 97.4766H31.7246L31.8301 97.4883L34.4668 97.7578L35.5566 97.875L35.7793 98.9414L36.2949 101.391L36.3066 101.461L36.3184 101.543L36.459 102.914L37.7715 102.996L40.2559 102.727L40.3379 102.715H43.0449L45.6816 102.691H45.7168L48.3066 102.703L50.9434 102.645H51.0605L51.1777 102.656L53.6738 102.996L56.1699 102.855L58.7598 102.609L58.9238 102.586L59.0879 102.609L61.584 102.926L64.1152 102.82H64.2559L66.7637 102.949L69.2598 102.633L69.4941 102.598L69.7168 102.645L72.1895 103.066L74.627 102.902L74.6855 102.891H74.7441L76.9658 102.9L75.1455 102.006L72.708 101.607L72.4854 101.561L72.2744 101.455L70.001 100.295L67.6221 99.4629L65.1143 98.6543H65.1025L62.6064 97.8223L62.5947 97.8105L60.1807 96.9785V96.9902L57.626 96.2871L57.4502 96.2402L55.1533 94.9277L52.7744 94.4004L52.6455 94.3652L52.5283 94.3184L50.208 93.3691L47.7002 92.6543L47.5713 92.6191L47.4541 92.5605L45.2393 91.4824L42.79 90.9082L42.7197 90.8848L40.1768 90.1699L40.0361 90.123L39.9072 90.0645L37.6338 88.9043L35.2432 88.1309L35.208 88.1191L35.1846 88.1074L32.7236 87.2051L30.2275 86.3496V86.3379H30.2158L27.8018 85.459L25.3057 84.8496L25.2822 84.8379L25.2471 84.8262L22.7158 84.0879L22.6689 84.0645L20.1611 83.2441L19.9736 83.1855L19.8213 83.0801L17.6299 81.6621H17.6182L15.6494 80.5723L13.9385 80.3379L13.2119 80.9473ZM99.7148 75.2344L100.078 77.625L100.488 80.2383V80.2852L100.5 80.332L100.723 82.9688L100.734 83.0508L100.723 83.1445L100.652 85.6523L101.062 88.1133L101.074 88.1719V88.2305L101.32 90.8555V90.8789L101.508 93.4219L101.871 96.0469L101.883 96.1172V96.1992L101.953 98.8477V98.918L101.917 100.81L102.521 101.401L102.579 101.35L103.438 102.179L105.397 102.549L105.628 102.567L105.604 101.254L105.593 101.184L105.604 101.113L105.78 98.5469L105.546 96.1797L104.948 93.6836L104.913 93.543V93.4023L104.772 90.7656V90.6836L104.784 90.6016L104.925 88.1523L104.444 85.7266L104.409 85.5508V85.3867L104.479 82.9023L104.081 80.4062L104.046 80.1953L104.069 79.9844L104.362 77.4883L104.163 75.1211L103.949 74.1084L102.086 73.7363L99.9141 73.6953L99.7148 75.2344ZM92.5195 74.4521L92.8594 76.8545L93.2578 79.4678L93.2695 79.5146V79.5615L93.5039 82.1865L93.5156 82.2686L93.5039 82.3623L93.4453 84.8818L93.8672 87.3428V87.4014L93.8789 87.4482L94.1133 90.085V90.1084L94.3008 92.6514H94.3125L94.6641 95.2646L94.6758 95.3584V95.4639L94.6875 98.1123V98.2646L94.6523 98.4287L94.6289 98.5391L95.9404 98.9277L95.999 98.9395L96.0459 98.9629L98.3779 99.8301L98.9336 99.9111L98.9531 98.9297L98.8828 96.375L98.543 93.832L98.5312 93.7852V93.7383L98.332 91.125L98.0977 88.6055L97.6641 85.9922L97.6406 85.8516L97.6523 85.6992L97.7344 83.2266L97.5234 80.6953L97.1133 78.082V78.0703L96.7148 75.457L96.6914 75.2578L96.7148 75.0469L96.9121 73.5146L96.8945 73.5137H96.8359L96.7656 73.502L94.1992 73.1035H94.1875L92.7607 72.8672L92.5195 74.4521ZM85.0693 73.4785L85.3623 75.916H85.374L85.7959 78.5293L85.8076 78.5762V78.623L86.0537 81.2598V81.4473L85.96 83.9668L86.3818 86.416L86.3936 86.4629L86.4053 86.5215L86.6514 89.1465V89.2168L86.7686 91.7363L87.249 94.2324L87.3076 94.4785L87.2607 94.7363L87.0439 96.2129L88.3818 96.6191L90.8545 97.1699L90.9717 97.1934L91.0771 97.2402L91.6758 97.4795V95.5693L91.3359 93.0498L91.3242 93.0029V92.9678L91.125 90.3545L90.9023 87.835L90.4688 85.2217L90.4453 85.0811V84.9404L90.5156 82.4561L90.293 79.9131L89.8945 77.2998V77.2881L89.5195 74.6631L89.4844 74.4404L89.5195 74.2295L89.7695 72.5889L89.0781 72.5527H89.0312L88.9844 72.541L86.3711 72.248V72.2363L85.1328 72.1621L85.0693 73.4785ZM77.8184 72.8301L78.1348 75.3379L78.5449 77.9043V77.9629L78.5566 78.0098L78.7793 80.6465L78.791 80.7285V80.8223L78.709 83.3418L79.1191 85.791L79.1426 85.9316L79.3301 88.5566L79.541 91.1816V91.252L79.6328 93.6094L80.9873 94.1348L83.4014 94.8613L83.4717 94.873L83.542 94.9082L84.1611 95.1592L84.249 94.5371L83.8154 92.2168L83.792 92.1113V92.0059L83.6631 89.4395L83.4287 86.9199L82.9834 84.3066L82.96 84.1543V84.002L83.0537 81.3535L82.8311 79.0098L82.4092 76.3965V76.3613L82.3975 76.3379L82.0811 73.7129L82.0576 73.584L82.0693 73.4551L82.1475 71.9795L81.1797 71.9199L80.9922 71.8965L78.4961 71.416L77.873 71.4004L77.8184 72.8301ZM73.7148 71.627L71.4062 72.3535L68.9688 73.3379L68.8984 73.3613L68.8164 73.3848L66.2852 74.0996L63.7539 74.8262H63.7422L63.7305 74.8379L61.2227 75.4941L58.7031 76.2793L58.5859 76.3145L58.4688 76.3379L55.9609 76.6777L53.6172 77.498L51.2031 78.4473L51.0742 78.5059L50.9219 78.5293L48.4375 78.9629L46.0938 79.8535L46.0117 79.8887L45.918 79.9121L43.4805 80.498L40.9609 81.5059L40.5869 81.6172L40.71 81.7012L43.0068 82.2402L45.585 82.8379L45.6787 82.8613L48.21 83.6348L48.292 83.6582L48.374 83.6934L50.7178 84.7129L53.1201 85.252L53.167 85.2754L53.2256 85.2871L55.7451 86.0605H55.7568L55.7803 86.0723L58.2529 86.8691L60.7607 87.5371L60.8428 87.5605L60.9248 87.5957L63.3037 88.5215H63.3154L65.8232 89.3535L65.8701 89.377L68.3193 90.2793L70.6865 90.959L73.2764 91.5215L73.335 91.5332L73.4053 91.5566L75.9131 92.3418L75.9248 92.3535L76.5938 92.5645L76.5527 91.416L76.3418 88.791V88.7793L76.166 86.2832L75.7324 83.6699L75.709 83.5293V83.377L75.791 80.9043L75.5801 78.373L75.1582 75.7598V75.7129L74.8301 73.0879L74.8184 72.9707V72.8535L74.8701 71.4951L73.7148 71.627ZM73.7881 66.0977L71.4209 66.9766H71.3975L71.374 66.9883L68.8779 67.8086L68.7842 67.8438L68.6904 67.8555L66.1826 68.3359L63.7568 69.1328L63.6631 69.1562L61.1084 69.8008L58.5537 70.457L58.542 70.4688L56.0576 71.0898L53.7021 72.0273L53.5615 72.0859L53.4092 72.1094L51.5977 72.4336L51.6006 72.5586L51.3115 72.4854L50.7959 72.5781L50.6553 72.6016L50.5264 72.5898H48.5342L46.9756 73.8906L46.6826 74.1367L46.3076 74.207L43.7529 74.7227L41.4092 75.543L41.3857 75.5547L41.3506 75.5664L38.8193 76.3281L36.3701 77.125L33.9912 78.0859L33.8271 78.1562L33.6396 78.1797L31.3662 78.5195L31.2695 78.5869L33.4375 79.1621H33.4258L35.6523 79.7012L37.6328 79.3613L39.9766 78.6582L42.4375 77.6855L42.6484 77.6152L45.1445 77.0059L47.5117 76.1152L47.6406 76.0684L47.7812 76.0449L50.2305 75.5996L52.5742 74.6855L52.5977 74.6738L52.6328 74.6621L55.1406 73.7949L55.2695 73.748L55.4219 73.7363L57.9648 73.373L60.3438 72.6348L60.3672 72.623H60.4023L62.9453 71.9316L65.4531 71.2168L65.4648 71.2051L67.9844 70.4902L70.3164 69.5645L70.375 69.541L70.4219 69.5293L72.9531 68.7324L73.082 68.6855L73.2344 68.6738L75.8594 68.3691L75.9648 68.3457L76.082 68.3574L78.707 68.4277L78.8242 68.4395L78.9414 68.4629L81.4375 68.9316L84.0039 69.084L86.6406 69.2598H86.7109L89.2305 69.5645L89.2422 69.5527L91.8906 69.7051L92.0312 69.7285L94.6562 70.1387H94.6445L97.1758 70.5254L99.6484 70.6895L102.309 70.748L102.438 70.7598L102.566 70.7832L103.634 70.9922L103.683 69.6953L103.601 68.3828L102.171 68.3359H102.03L101.901 68.3008L99.417 67.7383L96.8857 67.5508V67.5391L94.2725 67.3984H94.249L91.6123 67.2109V67.1992H91.6006L89.0576 66.9766V66.9883L86.4092 66.918L86.2217 66.9062L86.0342 66.8594L83.667 66.168L81.2295 66.2031H81.0771L80.9248 66.168L78.5107 65.6992H76.1201L73.7881 66.0977ZM32.2275 71.8027H32.1104L29.4971 71.8145L28.4893 71.8379L28.501 71.8965V71.9316L28.5127 72.1309L28.2373 72.1436L28.1787 72.6719L27.8975 75.1211L27.9443 76.6914L28.4482 76.8906L29.9248 75.8594L30.2178 75.6602L30.5693 75.6016L33.0303 75.2383L35.3154 74.3125L35.3623 74.3008L35.4209 74.2773L37.9287 73.457H37.9639L40.4248 72.707L42.9209 71.8398L43.0264 71.8047L43.1201 71.793L44.0195 71.6064L42.7627 71.6738L40.126 71.8613H40.0322L37.3955 71.8848H37.3018L37.2197 71.873L34.7002 71.5918L32.2275 71.8027ZM66.4834 55.2148L66.4717 55.2031L64.0459 55.9062L64.0576 55.918L61.5615 56.7852L61.4912 56.8086L58.96 57.5703L56.4873 58.3672L56.3936 58.4023L56.2998 58.4258L53.8037 58.8711L52.1865 59.5156L51.7646 61.0508L51.5186 63.3711L51.6709 65.9258V66.0898L51.5303 68.7266L51.542 69.3867L52.7178 69.1797L55.0615 68.2656L55.1553 68.2305L55.249 68.207L60.3584 66.8945L62.8193 66.2734L65.3271 65.4531L65.5146 65.4062L67.4199 65.041L67.3574 64.0186L67.3457 63.9717V63.9248L67.3223 61.3818L67.1465 58.7451L67.1348 58.7217V58.6982L67.041 56.0615L67.0293 55.9326L67.0527 55.8154L67.1475 55.0254L66.4834 55.2148ZM70.2344 54.4551L70.0293 56.1201L70.1348 58.5342L70.3223 61.1826V61.2646L70.3457 63.8193L70.3682 64.1582L70.3896 64.1523L72.874 63.2383L73.0029 63.2031L73.1318 63.1797L75.7334 62.7227L75.8623 62.6992H78.7686L78.9092 62.7227L81.3584 63.2031L83.8545 63.168H84.0771L84.2881 63.2266L86.6787 63.9297L89.1396 63.9883H89.2217L91.3525 64.168L91.5615 62.6914L91.4443 60.2422L91.2568 57.7812L90.9404 56.4219L89.499 56.082L86.9795 56.0234H86.9326L86.8975 56.0117L84.2607 55.8008H84.249L84.2373 55.7891L81.6123 55.5195V55.5078L79.0459 55.3789H78.9639L78.8936 55.3672L76.3271 54.9453L73.7373 54.6992H73.7139L71.1709 54.3945L70.2344 54.4551ZM24.8516 12.4297L27.3828 13.2383L27.4766 13.2617L29.8906 14.2227L30.043 14.2812L30.1836 14.375L32.3867 15.875L32.6914 16.0742L32.8672 16.4023L34.1328 18.7461L34.168 18.8047L34.2031 18.875L35.2344 21.3008L35.3398 21.5469L35.3516 21.8281L35.3867 22.4961H36.8398L35.3516 24.6523L34.9414 26.8438L34.918 26.9609L34.8828 27.0664L33.9922 29.5156L33.9336 29.6914L33.8281 29.8438L32.3398 32.0352L32.2109 32.2344L32.0117 32.3867L29.8906 34.0039L29.668 34.1797L29.3867 34.2617L26.8438 34.9648L26.7969 34.9883L26.75 35L24.1719 35.5273L23.9258 35.5742L23.668 35.5391L21.043 35.1875L20.832 35.1641L20.6328 35.082L18.207 34.0039L18.0547 33.9453L17.9258 33.8516L15.7695 32.2812L15.5352 32.1172L15.3828 31.8711L13.9531 29.6211L13.8711 29.4922L13.8125 29.3516L12.8867 26.8789L12.8047 26.668L12.793 26.4453L12.6289 23.832L12.6172 23.7031L12.6289 23.5625L12.9453 20.9609L12.9688 20.7969L13.0156 20.6445L13.8945 18.125L13.9883 17.8672L14.1758 17.6562L15.9102 15.6055L16.0273 15.4648L16.1797 15.3477L18.3711 13.8125L18.5352 13.6836L18.7461 13.6133L21.2539 12.7344L21.418 12.6875L21.582 12.6641L24.2305 12.3711L24.5469 12.3359L24.8516 12.4297ZM22.0508 15.6289L19.918 16.3789L18.0898 17.668L16.6367 19.3672L15.8984 21.4883L15.6289 23.7969L15.7578 25.9883L16.5781 28.1562L17.7617 30.0195L19.5898 31.332L21.6641 32.2461L23.7852 32.5273L26.0586 32.0703L28.3086 31.4375L29.9844 30.1602L31.2148 28.3438L32.0234 26.1289L32.4336 23.9375L32.3633 22.2148L31.4961 20.1758L30.3945 18.1484L28.625 16.9414L26.375 16.0625V16.0508L24.2422 15.3828L22.0508 15.6289Z" fill="black"/>
</svg>
