<svg width="120" height="120" viewBox="0 0 120 120" fill="none" xmlns="http://www.w3.org/2000/svg">
<path d="M61.1997 15.958L61.8364 17.4023L61.851 17.4346L61.8637 17.4678L62.8149 19.9326L62.8296 19.9697L62.8413 20.0078L63.6606 22.5176L64.4956 24.9326L65.5249 27.3164L65.5438 27.3602C65.5702 27.4213 65.5904 27.485 65.6041 27.5501L65.6137 27.5957L65.8516 28.7025C65.9513 29.1667 66.3638 29.4968 66.8386 29.4923L67.5854 29.4853L67.761 29.4837C67.9887 29.4816 68.2102 29.5573 68.3891 29.6981L68.5268 29.8066L70.1216 31.0615L70.3229 31.2197C70.5771 31.4195 70.719 31.7298 70.7039 32.0528L70.6919 32.3096L70.5708 34.9043L70.5874 37.5107L70.59 37.9069C70.593 38.372 70.275 38.7778 69.8227 38.886L69.436 38.9785V38.9785C69.0842 39.0622 68.8533 39.3992 68.9023 39.7575L69.1167 41.3242L69.5005 43.9365L69.5122 44.0137L69.5161 44.0928L69.6255 46.7187L69.8589 49.2402L70.2973 51.7822L70.3051 51.8291L70.6645 54.4014L71.1762 56.9521L71.1938 57.0361L71.2007 57.1221L71.3838 59.3252C71.384 59.3285 71.3868 59.3311 71.3901 59.3311V59.3311L71.4507 59.3301L71.5112 59.335L74.3237 59.5439L74.8295 59.5817C75.3855 59.6233 75.8002 60.1115 75.7511 60.6669L75.7065 61.1719L75.476 63.7715L75.3813 66.3154L75.4868 68.8984L75.4985 69.1797C75.5131 69.5295 75.3437 69.8613 75.0519 70.0548L74.8178 70.21L73.229 71.2637L73.1183 71.3371C72.9739 71.433 72.807 71.4897 72.6341 71.5016L72.5014 71.5107L69.8618 71.6904L69.7759 71.6963L69.6899 71.6924L68.6475 71.6429C68.6447 71.6427 68.6429 71.6458 68.6443 71.6482V71.6482C68.6447 71.649 68.6449 71.6499 68.6447 71.6508L68.5161 72.1894L68.2083 73.4735C68.1775 73.6018 68.264 73.7286 68.3947 73.7468L68.8312 73.8075C68.8345 73.8079 68.8359 73.812 68.8335 73.8144V73.8144C68.8311 73.8168 68.8326 73.8209 68.8359 73.8213L71.4409 74.1367L71.5492 74.1558C71.6097 74.1665 71.669 74.1827 71.7265 74.2043L71.8276 74.2422L74.0012 75.1609C74.0676 75.189 74.1368 75.2098 74.2076 75.2229L76.6206 75.6719L76.7413 75.6993C76.8322 75.72 76.9199 75.7533 77.0016 75.7982L77.1128 75.8594L79.3862 77.2305L79.4214 77.2539L79.4448 77.2656L81.6479 78.7305L81.7885 78.8242L83.8159 80.5234L83.8745 80.5703L83.9331 80.6289L85.7467 82.5006C85.7563 82.5106 85.7668 82.5198 85.7779 82.5281V82.5281C85.7979 82.5432 85.8157 82.5609 85.8307 82.581L85.8432 82.5977L87.519 84.625L89.2651 86.5703L89.3406 86.6542C89.43 86.7535 89.4986 86.8697 89.5423 86.996L89.5815 87.1094L90.3071 89.409C90.3311 89.485 90.3641 89.5579 90.4054 89.6261L91.6206 91.6328L91.6292 91.6458C91.6702 91.7072 91.7027 91.7737 91.726 91.8437V91.8437L92.7104 94.3047L92.7304 94.3565C92.7561 94.4233 92.7745 94.4927 92.7854 94.5635L92.7925 94.6094L93.2125 97.0504C93.2215 97.1026 93.2347 97.1541 93.2518 97.2043L93.9665 99.2943C93.9884 99.3583 94.0168 99.42 94.0512 99.4783L95.2768 101.559L95.3 101.596C95.3622 101.695 95.4064 101.805 95.4306 101.92L95.4409 101.969L96.0385 104.488V104.488C96.0574 104.539 96.1055 104.572 96.1594 104.573L98.5112 104.588L101.093 104.559L103.671 104.337L103.718 104.333C103.784 104.327 103.851 104.328 103.917 104.335L103.964 104.341L106.604 104.632L106.957 104.671C107.38 104.718 107.726 105.027 107.822 105.441L107.901 105.786L108.352 107.743L108.362 107.788C108.373 107.836 108.38 107.885 108.384 107.934L108.387 107.98L108.563 110.62L108.564 110.634L108.565 110.648L108.691 113.288L108.696 113.387L108.688 113.485L108.685 113.523C108.632 114.147 109.16 114.665 109.783 114.601L110.807 114.497L110.89 114.489L110.974 114.49L111.014 114.491C111.566 114.496 112.01 114.948 112.004 115.5L111.994 116.55C111.989 117.074 111.559 117.495 111.035 117.489V117.489L108.472 117.751L108.397 117.759C108.299 117.768 108.2 117.764 108.104 117.745L108.031 117.73L105.638 117.262C105.573 117.249 105.506 117.242 105.439 117.243L103.251 117.258C103.198 117.259 103.145 117.263 103.092 117.272L100.648 117.684L100.599 117.692C100.529 117.704 100.458 117.708 100.387 117.705L100.336 117.703L97.6967 117.593L97.6274 117.59L97.5591 117.58L95.3244 117.278C95.2172 117.263 95.1084 117.266 95.0022 117.287L92.7612 117.716L92.6816 117.731C92.5784 117.751 92.4728 117.754 92.3686 117.741L92.2866 117.73L89.7475 117.401L87.2407 117.411L84.601 117.485L84.5923 117.486L81.9526 117.544H81.936L79.3237 117.572L76.7387 117.744L76.6758 117.748C76.5918 117.754 76.5074 117.749 76.4247 117.733L76.3618 117.722L74.0954 117.295C73.9962 117.276 73.8948 117.273 73.7945 117.284L71.5327 117.548L71.4903 117.553C71.436 117.559 71.3812 117.561 71.3265 117.559L71.2827 117.557L68.7241 117.426L66.1694 117.58L66.1262 117.583C66.0685 117.586 66.0107 117.585 65.9532 117.578L65.9106 117.573L63.5398 117.304C63.4676 117.296 63.3946 117.296 63.3223 117.303L60.9565 117.553L60.9223 117.557L60.8882 117.559L58.2485 117.715L58.1989 117.718C58.1332 117.722 58.0672 117.719 58.002 117.71L57.9526 117.703L55.5083 117.363C55.4556 117.355 55.4025 117.352 55.3493 117.353L52.9106 117.404L52.8784 117.405L52.8462 117.404L50.207 117.347C50.2067 117.347 50.2065 117.346 50.2065 117.346V117.346C50.2065 117.346 50.2063 117.346 50.206 117.346L47.5903 117.331L47.5825 117.33H47.5747L45.0102 117.288L42.4516 117.515L42.4135 117.518L42.3755 117.52L39.7358 117.618L39.6772 117.62L39.6176 117.618L36.9946 117.51L34.3852 117.485H34.3413L34.2973 117.482L31.7358 117.308L29.1889 117.427L29.1499 117.429H29.1098L26.4868 117.412L23.9048 117.441L21.3276 117.663L21.2807 117.667C21.2145 117.673 21.1478 117.672 21.0818 117.665L21.0346 117.659L18.478 117.377L15.979 117.39L13.3794 117.563L13.3657 117.564L13.351 117.565L10.7114 117.691L10.6186 117.696L10.5259 117.689L8.03757 117.5H8.001C8.00016 117.5 7.99948 117.499 7.99948 117.498V117.498C7.99948 117.498 7.99887 117.497 7.99807 117.497L7.99291 117.497C7.98899 117.496 7.98605 117.493 7.98635 117.489L7.99948 117.315V114.657C7.99948 114.57 8.06988 114.5 8.15671 114.5V114.5L8.21335 114.504L10.6655 114.691L11.5413 114.649C11.9634 114.628 12.2967 114.283 12.3022 113.86V113.86L12.3032 113.771L12.3149 113.683L12.6223 111.374C12.6341 111.285 12.634 111.195 12.6219 111.107L12.3081 108.802L12.3001 108.744C12.2898 108.669 12.2881 108.593 12.2949 108.518L12.3003 108.458L12.5464 105.869L12.5851 105.46C12.6302 104.985 13.0045 104.608 13.4791 104.559L13.8872 104.518L16.5268 104.249L16.6019 104.241C16.6998 104.232 16.7985 104.236 16.895 104.255L16.9682 104.27L19.3597 104.738C19.4254 104.751 19.4922 104.758 19.5591 104.757L21.7464 104.742C21.7998 104.741 21.8531 104.737 21.9057 104.728L23.2477 104.502C23.6342 104.436 23.947 104.151 24.0478 103.773L24.2378 103.059L24.2418 103.043C24.2547 102.991 24.2718 102.94 24.2928 102.891L24.2964 102.883L25.291 100.437C25.292 100.435 25.2925 100.432 25.2925 100.43V100.43C25.2925 100.425 25.2945 100.42 25.2981 100.416L25.3004 100.414C25.3029 100.411 25.3049 100.409 25.3062 100.405L26.2978 98.0722C26.2994 98.0684 26.3003 98.0642 26.3003 98.0601V98.0601C26.3003 98.0565 26.3009 98.053 26.3021 98.0496L27.1557 95.6523L27.7417 93.1445L27.7502 93.1046C27.7679 93.0222 27.7959 92.9423 27.8336 92.8669L27.8471 92.8398L28.9935 90.4536C28.9949 90.4507 28.9967 90.4481 28.999 90.4458V90.4458C29.0043 90.4405 29.0073 90.4333 29.0073 90.4258V90.4227C29.0073 90.417 29.0086 90.4114 29.0112 90.4064L30.2026 88.0703L30.2043 88.0661C30.2187 88.03 30.2379 87.996 30.2612 87.9648V87.9648L31.644 85.7266L31.6535 85.7095C31.6862 85.6507 31.7247 85.5954 31.7684 85.5443L31.7729 85.5391L33.4566 83.5631C33.4591 83.5602 33.4604 83.5565 33.4604 83.5526V83.5526C33.4604 83.5489 33.4617 83.5453 33.4641 83.5424L35.1245 81.5078L35.2885 81.3437L37.2573 79.5859L37.3042 79.5508L37.3393 79.5273L39.437 77.8984L39.5425 77.8281L39.6596 77.7578L42.0034 76.5391L42.0276 76.5256C42.0817 76.4956 42.1384 76.4706 42.197 76.4511L42.2143 76.4453L44.6987 75.5898L47.1714 74.7227L47.2534 74.6992L47.3237 74.6758L49.8723 74.0939C49.8842 74.0912 49.8958 74.0876 49.907 74.0831L49.9094 74.0821C49.9354 74.0717 49.9631 74.0664 49.991 74.0664V74.0664C50.0019 74.0664 50.0127 74.0656 50.0234 74.064L50.8178 73.9455C51.3592 73.8647 51.735 73.3638 51.6611 72.8215L51.5337 71.8857L51.4889 71.5623C51.4797 71.4959 51.4251 71.4451 51.3582 71.4406L51.208 71.4307C51.2077 71.4307 51.2075 71.4309 51.2075 71.4312V71.4312C51.2075 71.4314 51.2073 71.4316 51.207 71.4316L48.6655 71.3086L46.2134 71.4961L46.1567 71.5H45.1532C44.3916 71.5 43.9095 70.6826 44.2781 70.0161L44.4262 69.7482C44.5064 69.6032 44.5492 69.4406 44.551 69.275L44.5727 67.2637V67.2227L44.5757 67.1807L44.7303 64.8593C44.7359 64.775 44.7308 64.6904 44.7152 64.6075L44.2759 62.2773L44.2059 61.9062C44.1231 61.4666 44.3423 61.0254 44.7428 60.8259L45.0815 60.6572L46.9702 59.7158L47.0633 59.6694C47.1867 59.6079 47.3216 59.5726 47.4593 59.5657L47.563 59.5605L47.7862 59.5491C48.2579 59.525 48.6484 59.1743 48.7227 58.7079L49.0005 56.9658L49.3969 54.3643L49.7651 51.7656L49.771 51.7246L49.7788 51.6846L50.2317 49.4007C50.248 49.3181 50.2539 49.2339 50.2492 49.1498L50.1157 46.7832L50.1115 46.7075C50.1059 46.6068 50.1155 46.5059 50.14 46.4082L50.1587 46.334L50.7527 43.9627C50.7661 43.9089 50.7751 43.854 50.7795 43.7987L50.9721 41.3682L50.979 41.2842L50.9946 41.2021L51.2884 39.6733C51.3057 39.5834 51.2368 39.5 51.1453 39.5V39.5C51.0648 39.5 50.9995 39.4347 50.9995 39.3542V38.7196C50.9995 38.3574 50.6778 38.0798 50.3195 38.1329V38.1329C49.9955 38.1808 49.694 37.9571 49.646 37.6331L49.3657 35.7402L49.3597 35.6997C49.3513 35.6435 49.3478 35.5867 49.3491 35.5298L49.3501 35.4883L49.4048 32.8486L49.4067 32.7543C49.4093 32.6276 49.4359 32.5025 49.4852 32.3858L49.5219 32.2988L50.0084 31.1395C50.0526 31.0342 49.9979 30.9136 49.8895 30.8775V30.8775C49.699 30.814 49.7156 30.5392 49.9124 30.4992L50.1739 30.446C50.2603 30.4285 50.3325 30.3694 50.3669 30.2882L50.3764 30.2656L50.5046 29.9611C50.6597 29.5925 51.0195 29.3517 51.4194 29.349L51.7505 29.3467L53.4357 29.3371C53.861 29.3346 54.2383 29.0634 54.376 28.661L54.3803 28.6484L54.3852 28.6367L55.2329 26.2266L55.8305 23.7178L55.8393 23.6816L55.8501 23.6445L56.5913 21.1094L56.6069 21.0527L56.6284 20.998L57.5493 18.5684L58.4087 16.0752L58.8237 14.8682C59.1195 14.008 60.3171 13.9575 60.6842 14.7897L61.1997 15.958ZM16.2332 107.294C15.7585 107.342 15.3839 107.719 15.3388 108.194L15.3141 108.453C15.3069 108.53 15.3084 108.607 15.3188 108.683L15.6391 111.038L15.6482 111.106C15.6597 111.193 15.6597 111.281 15.6483 111.368L15.6391 111.437L15.3003 113.99V113.99C15.2971 114.226 15.4962 114.415 15.7319 114.399L15.8198 114.394L15.8657 114.391H15.9116L18.5522 114.377H18.6382L18.7241 114.387L21.1176 114.651C21.1826 114.658 21.2481 114.659 21.3132 114.654L23.7114 114.447L23.7671 114.442H23.8227L26.4624 114.412H26.4887L29.0952 114.429L31.6899 114.308L31.7759 114.304L31.8618 114.31L34.4487 114.486L37.0542 114.511L37.101 114.513L39.6841 114.618L42.228 114.523L44.8276 114.293L44.9057 114.286L44.9839 114.287L47.6238 114.331C47.6241 114.331 47.6242 114.331 47.624 114.332V114.332C47.6238 114.332 47.6239 114.332 47.6242 114.332L50.2485 114.347H50.2602L50.2729 114.348L52.8803 114.405L55.4878 114.351L55.5257 114.35C55.5804 114.348 55.6351 114.351 55.6893 114.359L55.726 114.364L58.1199 114.698C58.1853 114.707 58.2514 114.71 58.3174 114.706L60.6831 114.565L63.2827 114.292L63.3353 114.286C63.4087 114.278 63.4828 114.279 63.5562 114.287L63.6079 114.293L66.0325 114.567C66.0898 114.574 66.1476 114.575 66.2051 114.572L68.6294 114.426L68.7124 114.421L68.7964 114.426L71.2242 114.55C71.28 114.553 71.336 114.551 71.3915 114.545L73.8257 114.261L73.9018 114.252C74.0015 114.24 74.1024 114.244 74.2011 114.262L74.2768 114.276L76.606 114.716C76.689 114.731 76.7736 114.736 76.8578 114.731L79.1801 114.576L79.2221 114.573H79.2632L81.9023 114.544C81.9026 114.544 81.9028 114.544 81.9028 114.544V114.544C81.9028 114.545 81.903 114.545 81.9033 114.545L84.5263 114.486C84.5266 114.486 84.5268 114.487 84.5268 114.487V114.487C84.5268 114.487 84.527 114.487 84.5273 114.487L87.1577 114.413H87.1753L87.1928 114.412L89.8335 114.401L89.8592 114.401C89.9084 114.401 89.9575 114.404 90.0063 114.411L90.0317 114.414L92.275 114.704C92.3804 114.718 92.4872 114.714 92.5916 114.694L94.8374 114.264L94.9166 114.249C95.0232 114.228 95.1325 114.225 95.24 114.24L95.3198 114.251L97.8862 114.598L100.201 114.695C100.27 114.698 100.34 114.693 100.408 114.682L102.79 114.281L102.828 114.275C102.882 114.265 102.936 114.261 102.991 114.26L103.029 114.26L104.699 114.248C105.217 114.244 105.646 113.844 105.689 113.328V113.328L105.568 110.792V110.791L105.406 108.378C105.403 108.324 105.395 108.272 105.383 108.22L105.376 108.188C105.28 107.774 104.933 107.465 104.511 107.418L103.88 107.349C103.815 107.341 103.75 107.341 103.685 107.346L101.288 107.553L101.232 107.558H101.176L98.5366 107.588H98.5102L95.9028 107.571L93.3091 107.692L93.2231 107.696L93.1372 107.69L90.5493 107.514L87.9448 107.489L87.8979 107.487L85.3139 107.382L82.77 107.477L80.1714 107.707L80.0932 107.714L80.0151 107.713L77.375 107.669C77.3747 107.669 77.3745 107.669 77.3745 107.668V107.668C77.3745 107.668 77.3743 107.668 77.374 107.668L74.7505 107.653H74.7387L74.726 107.652L72.1176 107.595L69.5112 107.649L69.4732 107.65C69.4186 107.652 69.3639 107.649 69.3097 107.641L69.2729 107.636L66.8781 107.302C66.8127 107.293 66.7466 107.29 66.6807 107.294L64.3149 107.435L61.7163 107.708L61.6637 107.714C61.5902 107.722 61.5162 107.721 61.4428 107.713L61.3911 107.707L58.9655 107.433C58.9082 107.426 58.8504 107.425 58.7929 107.428L56.3696 107.574L56.2866 107.579L56.2026 107.574L53.7738 107.45C53.718 107.447 53.662 107.449 53.6065 107.455L51.1733 107.739L51.0972 107.748C50.9975 107.76 50.8966 107.756 50.7978 107.738L50.7221 107.724L48.392 107.284C48.309 107.269 48.2244 107.264 48.1402 107.269L45.8188 107.424L45.7768 107.427H45.7358L43.0968 107.456C43.0964 107.456 43.096 107.456 43.0957 107.456V107.456C43.0954 107.455 43.0949 107.455 43.0945 107.455L40.4728 107.514C40.4724 107.514 40.472 107.513 40.4717 107.513V107.513C40.4713 107.513 40.4709 107.513 40.4705 107.513L37.8413 107.587H37.8237L37.8061 107.588L35.1655 107.599L35.1398 107.599C35.0906 107.599 35.0414 107.596 34.9927 107.589L34.9673 107.586L32.723 107.296C32.6176 107.282 32.5108 107.286 32.4064 107.306L30.1616 107.736L30.0824 107.751C29.9758 107.772 29.8665 107.775 29.7589 107.76L29.6792 107.749L27.1118 107.402L24.7975 107.305C24.7279 107.302 24.6582 107.307 24.5896 107.318L22.2085 107.719L22.1711 107.725C22.1173 107.735 22.0629 107.739 22.0083 107.74L21.9702 107.74L19.3305 107.759L19.2834 107.759C19.2141 107.76 19.1449 107.754 19.0769 107.741L19.0307 107.731L16.7547 107.284C16.658 107.266 16.559 107.261 16.461 107.271L16.2332 107.294ZM55.6557 76.6328L55.562 76.6445H55.4682L52.9604 76.668L50.476 77.0312L48.1626 77.557C48.1617 77.5572 48.1619 77.5586 48.1628 77.5586V77.5586C48.1637 77.5586 48.1639 77.5598 48.1631 77.5601L45.7004 78.4238C45.6967 78.4251 45.6928 78.4258 45.6889 78.4258V78.4258C45.685 78.4258 45.6812 78.4264 45.6776 78.4277L43.4076 79.2108C43.3622 79.2265 43.3179 79.2454 43.2751 79.2675L41.2411 80.3173C41.1869 80.3453 41.1354 80.3782 41.0871 80.4156L39.1792 81.8945L37.4461 83.435C37.4062 83.4705 37.3693 83.5091 37.3355 83.5504L35.7892 85.4467C35.7836 85.4535 35.7767 85.4591 35.7688 85.463V85.463C35.7612 85.4668 35.7545 85.4721 35.749 85.4786L34.2223 87.288C34.191 87.3251 34.1624 87.3645 34.1368 87.4057L32.8159 89.5352L31.6909 91.7734L30.6615 93.9106C30.6291 93.9778 30.6044 94.0484 30.5877 94.1211L30.062 96.4141V96.4141C30.0542 96.4685 30.0393 96.5217 30.0176 96.5723L30.0151 96.5781L29.1362 99.0625L29.1293 99.0762C29.1183 99.0983 29.1088 99.1211 29.101 99.1445V99.1445L28.0581 101.582L27.1089 103.926L27.066 104.085C27.0234 104.243 27.1384 104.4 27.3022 104.407V104.407L27.3716 104.41L27.4399 104.42L29.6736 104.722C29.7808 104.737 29.8896 104.734 29.9958 104.713L32.2378 104.284L32.3174 104.269C32.4206 104.249 32.5262 104.246 32.6304 104.259L32.7124 104.27L35.2505 104.599L37.7573 104.589L40.3979 104.515L40.4067 104.514L43.0464 104.456H43.063L45.6743 104.428L48.2602 104.256L48.3232 104.252C48.4072 104.246 48.4916 104.251 48.5743 104.267L48.6372 104.278L50.9026 104.705C51.0018 104.724 51.1032 104.727 51.2035 104.716L53.4663 104.452L53.5087 104.447C53.563 104.441 53.6178 104.439 53.6724 104.441L53.7163 104.443L56.2739 104.574L58.8296 104.42L58.8728 104.417C58.9304 104.414 58.9883 104.415 59.0457 104.422L59.0884 104.427L61.4582 104.696C61.5304 104.704 61.6033 104.704 61.6757 104.697L64.0425 104.447L64.0766 104.443L64.1108 104.441L66.7505 104.285L66.8001 104.282C66.8658 104.278 66.9317 104.281 66.9969 104.29L67.0464 104.297L69.4897 104.637C69.5424 104.645 69.5955 104.648 69.6487 104.647L72.0884 104.596L72.1206 104.595L72.1528 104.596L74.7918 104.653C74.792 104.653 74.7922 104.654 74.792 104.654V104.654C74.7918 104.654 74.7919 104.654 74.7922 104.654L77.4087 104.669L77.4165 104.67H77.4243L79.9878 104.712L82.5473 104.485L82.5854 104.482L82.6235 104.48L85.2632 104.382L85.3217 104.38L85.3813 104.382L88.0034 104.49L90.6137 104.515H90.6577L90.7016 104.518L91.6407 104.581C92.3155 104.627 92.8401 104.004 92.68 103.347L92.6042 103.036C92.5814 102.942 92.5452 102.852 92.4967 102.769L91.3276 100.762L91.2891 100.685C91.2679 100.642 91.2498 100.599 91.2348 100.554L91.2104 100.48L90.355 97.9844L90.3518 97.9765C90.3228 97.904 90.3041 97.8277 90.2964 97.75V97.75L89.8803 95.3886C89.8686 95.3224 89.8503 95.2576 89.8257 95.1951L89.0361 93.1942C89.0169 93.1455 88.994 93.0985 88.9674 93.0534L87.6948 90.8945L87.6677 90.8506C87.6235 90.7786 87.5885 90.7013 87.5636 90.6206L87.5542 90.5898L86.8809 88.5274C86.838 88.396 86.7684 88.2749 86.6763 88.1718L85.2573 86.582L85.2446 86.5693C85.2375 86.5622 85.2316 86.554 85.2271 86.545V86.545C85.2238 86.5385 85.2198 86.5323 85.2151 86.5267L83.5346 84.5195L81.812 82.7617L79.9135 81.1797L77.851 79.8086L75.9391 78.668C75.8395 78.6085 75.7303 78.5669 75.6164 78.5449L73.4214 78.1211L73.3511 78.1049C73.2965 78.0923 73.243 78.0751 73.1913 78.0536L73.1284 78.0273L70.9529 77.1394C70.8723 77.1065 70.7878 77.0843 70.7014 77.0733L68.4409 76.7852H68.4292L66.1246 76.4623C66.0441 76.451 65.9625 76.4496 65.8817 76.4581L63.5425 76.7031L63.5198 76.7064C63.426 76.7198 63.3308 76.7198 63.237 76.7064L63.2143 76.7031L60.5776 76.4336L58.2486 76.2986C58.1842 76.2948 58.1197 76.2973 58.0558 76.306L55.6557 76.6328ZM37.5005 94.5859L39.3071 95.2266L39.6535 95.3492C40.0661 95.4952 40.3358 95.8926 40.3191 96.33L40.3051 96.6963L40.2182 98.9902L40.1899 99.7426C40.163 100.457 39.4162 100.914 38.768 100.611L38.0854 100.293L36.2563 99.4394L35.9693 99.3055C35.6192 99.1422 35.3944 98.7918 35.3921 98.4055L35.3901 98.0898L35.3764 96.0098L35.3732 95.5065C35.3696 94.9517 35.8183 94.5 36.3732 94.5H37.0858C37.1993 94.5 37.312 94.5193 37.419 94.5571L37.5005 94.5859ZM46.5005 94.5859L48.3071 95.2266L48.6535 95.3492C49.0661 95.4952 49.3358 95.8926 49.3191 96.33L49.3051 96.6963L49.2182 98.9902L49.1899 99.7426C49.163 100.457 48.4162 100.914 47.768 100.611L47.0854 100.293L45.2563 99.4394L44.9693 99.3055C44.6192 99.1422 44.3944 98.7918 44.3921 98.4055L44.3901 98.0898L44.3764 96.0098L44.3732 95.5065C44.3696 94.9517 44.8183 94.5 45.3732 94.5H46.0858C46.1993 94.5 46.312 94.5193 46.419 94.5571L46.5005 94.5859ZM55.5005 94.5859L57.3071 95.2266L57.6535 95.3492C58.0661 95.4952 58.3358 95.8926 58.3191 96.33L58.3051 96.6963L58.2182 98.9902L58.1899 99.7426C58.163 100.457 57.4162 100.914 56.768 100.611L56.0854 100.293L54.2563 99.4394L53.9693 99.3055C53.6192 99.1422 53.3944 98.7918 53.3921 98.4055L53.3901 98.0898L53.3764 96.0098L53.3732 95.5065C53.3696 94.9517 53.8183 94.5 54.3732 94.5H55.0858C55.1993 94.5 55.312 94.5193 55.419 94.5571L55.5005 94.5859ZM64.5005 94.5859L66.3071 95.2266L66.6535 95.3492C67.0661 95.4952 67.3358 95.8926 67.3191 96.33L67.3051 96.6963L67.2182 98.9902L67.1899 99.7426C67.163 100.457 66.4162 100.914 65.768 100.611L65.0854 100.293L63.2563 99.4394L62.9693 99.3055C62.6192 99.1422 62.3944 98.7918 62.3921 98.4055L62.3901 98.0898L62.3764 96.0098L62.3732 95.5065C62.3696 94.9517 62.8183 94.5 63.3732 94.5H64.0858C64.1993 94.5 64.312 94.5193 64.419 94.5571L64.5005 94.5859ZM73.5005 94.5859L75.3071 95.2266L75.6535 95.3492C76.0661 95.4952 76.3358 95.8926 76.3191 96.33L76.3051 96.6963L76.2182 98.9902L76.1899 99.7426C76.163 100.457 75.4162 100.914 74.768 100.611L74.0854 100.293L72.2563 99.4394L71.9693 99.3055C71.6192 99.1422 71.3944 98.7918 71.3921 98.4055L71.3901 98.0898L71.3764 96.0098L71.3732 95.5065C71.3696 94.9517 71.8183 94.5 72.3732 94.5H73.0858C73.1993 94.5 73.312 94.5193 73.419 94.5571L73.5005 94.5859ZM82.5005 94.5859L84.3071 95.2266L84.6535 95.3492C85.0661 95.4952 85.3358 95.8926 85.3191 96.33L85.3051 96.6963L85.2182 98.9902L85.1899 99.7426C85.163 100.457 84.4162 100.914 83.768 100.611L83.0854 100.293L81.2563 99.4394L80.9693 99.3055C80.6192 99.1422 80.3944 98.7918 80.3921 98.4055L80.3901 98.0898L80.3764 96.0098L80.3732 95.5065C80.3696 94.9517 80.8183 94.5 81.3732 94.5H82.0858C82.1993 94.5 82.312 94.5193 82.419 94.5571L82.5005 94.5859ZM58.3794 71.5635L58.3657 71.5644L58.351 71.5654L55.7114 71.6914L55.6186 71.6963L55.5259 71.6894L55.0167 71.6502C54.7633 71.6307 54.5565 71.8501 54.5909 72.102V72.102C54.6171 72.2934 54.7766 72.4384 54.9696 72.4464L56.0034 72.4893L58.6137 72.5146H58.6577L58.7016 72.5176L61.2622 72.6914L63.81 72.5732L63.8491 72.5713H63.8891L64.9515 72.5777C65.1774 72.5791 65.3744 72.4245 65.4267 72.2047V72.2047C65.4535 72.0921 65.4392 71.9737 65.3864 71.8707L65.3821 71.8625C65.2942 71.6911 65.1173 71.5838 64.9246 71.585L64.4887 71.5879H64.4624L61.8227 71.5576H61.7671L61.7114 71.5527L60.4013 71.4393C60.3503 71.4348 60.299 71.4343 60.2479 71.4378L58.3794 71.5635ZM69.5076 62.3418C69.3831 62.3424 69.2627 62.3866 69.1673 62.4667V62.4667C69.0697 62.5487 68.946 62.593 68.8186 62.5917L68.4624 62.5879L65.8227 62.5576H65.7671L65.7114 62.5527L63.611 62.3711C63.5362 62.3646 63.461 62.3666 63.3867 62.3769L61.0464 62.7031L60.9969 62.71C60.9317 62.7191 60.8658 62.7217 60.8001 62.7178L60.7505 62.7148L59.0698 62.6152L57.9116 62.6094H57.8657L57.8198 62.6064L55.208 62.4307C55.2077 62.4307 55.2075 62.4309 55.2075 62.4312V62.4312C55.2075 62.4314 55.2073 62.4316 55.207 62.4316L54.6439 62.4035C54.6147 62.4021 54.5855 62.403 54.5565 62.4063L53.0884 62.5732L53.0457 62.5781C52.9883 62.5846 52.9304 62.5861 52.8728 62.5827L52.8296 62.5801L50.7475 62.4551L50.2134 62.4961L50.1567 62.5H48.8335L48.1701 62.5337C48.0756 62.5385 47.9831 62.5628 47.8984 62.605V62.605C47.6231 62.7422 47.4725 63.0456 47.5296 63.3478L47.7212 64.3623L47.733 64.4252C47.7485 64.5079 47.7535 64.5923 47.7478 64.6763L47.7436 64.7393L47.5717 67.3252L47.5707 67.4162C47.565 67.9368 48.0067 68.3504 48.5259 68.3105V68.3105L48.6186 68.3037L48.7114 68.3086L51.351 68.4346L51.3657 68.4355L51.3794 68.4365L52.3286 68.5H53.1567L53.2134 68.5039L54.6499 68.6133L56.478 68.623L59.0346 68.3408L59.0818 68.3355C59.1478 68.328 59.2145 68.3271 59.2807 68.3328L59.3276 68.3369L60.2751 68.4183C60.3256 68.4226 60.3765 68.4231 60.4271 68.4197L60.8198 68.3936L60.8657 68.3906H60.9116L63.5522 68.3769H63.6382L63.7241 68.3867L65.4907 68.5811L67.1098 68.5713H67.1499L67.1889 68.5732L69.7358 68.6924L71.6889 68.5594C71.8278 68.5499 71.9619 68.5045 72.0779 68.4275V68.4275C72.3117 68.2725 72.4476 68.0065 72.4361 67.7261L72.3813 66.3818L72.3794 66.3223L72.3813 66.2637L72.48 63.624L72.4819 63.5859L72.4848 63.5478L72.4949 63.4328C72.5436 62.8777 72.1292 62.3898 71.5735 62.3482L71.3579 62.332L69.5076 62.3418ZM54.6879 39.5874C54.4502 39.7346 54.2849 39.9746 54.2322 40.2492L53.9565 41.6855L53.7553 44.2393L53.7524 44.277C53.7479 44.3351 53.7383 44.3926 53.7237 44.449L53.7143 44.4853L53.1605 46.6972C53.136 46.795 53.1264 46.8959 53.1321 46.9966L53.2622 49.2969L53.2657 49.3593C53.2705 49.4437 53.2646 49.5282 53.2481 49.6111L53.2358 49.6728L52.726 52.2461L52.3657 54.8008L52.3637 54.8086L52.3628 54.8174L51.9643 57.4277L51.9624 57.4365L51.7911 58.5132C51.7211 58.9539 52.0809 59.3444 52.5259 59.3105V59.3105L52.6186 59.3037L52.7114 59.3086L54.4186 59.3898C54.4718 59.3923 54.5251 59.3906 54.578 59.3846L55.3911 59.293L55.4428 59.287C55.5162 59.2786 55.5902 59.2784 55.6637 59.2863L55.7163 59.292L58.3149 59.5654L59.1723 59.6162L60.478 59.623L63.0346 59.3408L63.0818 59.3355C63.1478 59.328 63.2145 59.3271 63.2807 59.3328L63.3276 59.3369L63.476 59.3496L63.5112 59.3506L66.1176 59.4053L68.127 59.3602C68.1797 59.359 68.2306 59.34 68.2711 59.3063V59.3063C68.3298 59.2575 68.361 59.1833 68.3547 59.1072L68.2182 57.4619L67.7153 54.9463L67.7065 54.9033L67.7007 54.8603L67.3335 52.25L66.8921 49.6885L66.8823 49.6299L66.8774 49.5713L66.6333 46.9414L66.6303 46.9033L66.6284 46.8652L66.521 44.2959L66.1479 41.7607L66.1469 41.7539L66.146 41.7461L65.9632 40.4115C65.9192 40.0903 65.7222 39.8103 65.4347 39.6605L64.9645 39.4153C64.9444 39.4048 64.9224 39.3984 64.8999 39.3965V39.3965L63.8735 39.375L61.7241 39.6133L61.6382 39.623H61.5522L60.9154 39.6195C60.8673 39.6193 60.8194 39.6225 60.7718 39.6291L60.2407 39.7031L60.1927 39.7098C60.1272 39.719 60.061 39.7217 59.9949 39.7178L59.9458 39.7148L57.3051 39.5586L57.2719 39.5566L57.2378 39.5527L55.978 39.4199L55.3432 39.3891C55.141 39.3793 54.9405 39.4311 54.7684 39.5377L54.6879 39.5874ZM53.4176 32.3375C53.0176 32.3401 52.6577 32.5808 52.5025 32.9495L52.4711 33.024C52.4221 33.1404 52.3956 33.265 52.393 33.3913L52.3527 35.3428C52.3516 35.3967 52.355 35.4506 52.363 35.504V35.504C52.4371 36.003 52.8844 36.3597 53.3874 36.3212L53.5259 36.3105L53.6186 36.3037L53.7114 36.3086L54.1599 36.3299C54.2164 36.3325 54.2723 36.3181 54.3204 36.2885V36.2885C54.3732 36.2559 54.4353 36.2418 54.497 36.2483L54.9106 36.292L56.1958 36.4268L56.351 36.4346L56.3657 36.4355L56.3794 36.4365L58.979 36.6103L60.5695 36.6178C60.6172 36.618 60.6648 36.6149 60.712 36.6083L62.4673 36.3643L62.5055 36.3589C62.5593 36.3514 62.6137 36.3483 62.6681 36.3497L62.7055 36.3506L63.7495 36.3721L64.0346 36.3408L64.0818 36.3355C64.1478 36.328 64.2145 36.3271 64.2807 36.3328L64.3276 36.3369L65.0512 36.3984L65.3452 36.4053L65.6393 36.4118C65.6771 36.4126 65.7142 36.4221 65.7478 36.4394V36.4394C65.7767 36.4543 65.8081 36.4634 65.8404 36.4662L66.5758 36.5301C66.674 36.5386 66.773 36.5313 66.8689 36.5084V36.5084C67.285 36.4091 67.5777 36.036 67.5751 35.6082L67.5708 34.8896V34.8496L67.5727 34.8105L67.6395 33.3762C67.6521 33.104 67.5324 32.8424 67.3182 32.6741V32.6741C67.1675 32.5557 66.981 32.4922 66.7894 32.494L65.0034 32.5107L62.3813 32.6182L62.3217 32.6201L62.2632 32.6182L60.5298 32.5527L60.3657 32.5644L60.351 32.5654L57.7114 32.6914L57.6128 32.6963L57.5141 32.6885L56.3743 32.5924C56.2752 32.584 56.183 32.6443 56.1509 32.7385V32.7385C56.1125 32.8513 55.9902 32.9119 55.8772 32.8742L54.6704 32.4717L54.5249 32.4228L54.4095 32.3844C54.3055 32.3497 54.1965 32.3324 54.0868 32.3331L53.4176 32.3375ZM59.4526 22.0088L58.7358 24.4648L58.1352 26.9912L58.1167 27.0674L58.0913 27.1416L57.7567 28.0926C57.5401 28.7081 57.9616 29.3628 58.6115 29.4205L59.77 29.5234L60.4819 29.5498L62.6975 29.4014C62.7074 29.4007 62.7172 29.3993 62.7269 29.3972V29.3972C62.8354 29.3736 62.9044 29.2666 62.881 29.158L62.7303 28.4581C62.7177 28.3996 62.6995 28.3424 62.6758 28.2875L61.7202 26.0723L61.6987 26.0215L61.6801 25.9687L60.8169 23.4736L60.8091 23.4482L60.0034 20.9824V20.9824C59.975 20.9085 59.8703 20.9087 59.8421 20.9827L59.4526 22.0088Z" fill="black"/>
</svg>
