<svg width="120" height="120" viewBox="0 0 120 120" fill="none" xmlns="http://www.w3.org/2000/svg">
<path d="M49.4043 1.63672L51.9824 2.1875L52.252 2.24609L52.4746 2.38672L54.6895 3.78125L54.7715 3.83984L54.8535 3.91016L56.834 5.58594L56.9512 5.67969L57.0449 5.79688L58.6973 7.88281L58.9082 8.14062L58.9785 8.48047L59.5762 11.0586L59.5996 11.1289V11.1992L59.7207 12.0996L61.5078 12.8477L61.6133 12.8945L61.707 12.9531L63.6406 14.125L65.7969 14.207H65.9023L66.0078 14.2305L66.1133 14.2422L65.8438 15.7188L65.8359 15.7578L65.8516 15.7803L65.9805 15.9678L67.0469 16.6357L65.7695 18.6865L65.4766 19.1553L64.9492 19.3193L64.3047 19.5205L64.8613 20.3838L65.541 21.415L64.6387 22.2822L63.3848 23.4775L63.5254 25.4229L63.5488 25.8916L63.3145 26.29L62.3418 27.9424L61.9053 28.6836L62.7207 29.8535L62.7324 29.8652L64.2207 32.0566L64.3379 32.2207L64.4082 32.4199L65.252 34.9512L65.334 35.1855V38.1504L65.252 39.8379L66.2832 40.377L68.6152 40.6348H68.6504L68.6855 40.6465L70.4463 40.9141L71.1074 39.3242L72.0918 36.8984L72.1387 36.7812L72.209 36.6641L73.6152 34.4258L73.6855 34.3086L73.7793 34.2031L75.5723 32.2695L75.5957 32.2461L77.4121 30.3594L77.459 30.3125L77.5176 30.2656L79.5332 28.5312L79.7441 28.3672L80.002 28.2734L82.498 27.3594L82.627 27.3125L82.7793 27.2891L84.5469 27.0068L84.875 26.04L84.9922 25.665L85.2969 25.3955L87.043 23.8486L87.8164 24.7275L88.0977 24.8799L88.2451 24.9648L89.3359 24.2246L89.3945 24.3066L89.5117 24.4824L89.5703 24.6816L90.2617 26.8027L91.3867 28.1387L93.4609 28.5488L94.5156 28.7598L94.6562 29.8145L94.9375 31.8184L95.0205 32.4268L96.2383 33.8936L98.0781 35.792L99.9648 37.5029L100.023 37.5498L100.082 37.6084L101.84 39.5771L101.898 39.6475L101.934 39.7061L103.492 41.8623L103.574 41.9795L103.633 42.1201L104.676 44.4404L104.934 45.0029L104.711 45.5889L103.75 48.0967L103.598 48.5186L103.223 48.7764L101.055 50.335L100.211 50.9326L99.3438 50.3584L97.3047 48.999L96.2383 48.7178L95.1133 50.0186L94.9492 50.1943L94.7383 50.3115L92.4062 51.6943L91.9375 51.9639L91.3984 51.8701L89.7852 51.5996L90.1484 53.4033L90.957 55.9111L90.9805 55.9463L90.9922 55.9932L91.332 57.2959L92.127 57.4668L94.6465 58.0059L96.873 58.3926L98.4668 58.6621L98.0801 60.2324L98.0098 60.4785L96.5684 60.127L96.3691 61.3457L94.1426 60.9707L94.1074 60.959H94.084L92.0977 60.5273L92.2461 61.1963L92.293 61.4307L92.2812 61.665L92.0469 64.1494L92.4922 66.5752L92.5391 66.833L92.4922 67.0908L92.0234 69.7158L91.7305 72.2705L91.707 72.4814L91.6133 72.6924L90.5938 75.001L90.4209 75.624L91.3301 76.0898L93.7676 77.0859H93.7559L96.0879 78L98.502 78.4922L99.041 78.5977L99.3809 79.0195L101.033 81.0703L101.256 81.3516L101.326 81.6914L101.889 84.293L101.924 84.4453V87.0703L102.498 89.543L102.533 89.707V89.8828L102.51 92.5312V92.6719L102.24 95.332L102.193 95.7656L101.936 96.1055L100.307 98.1914L98.748 100.324L98.6777 100.418L96.9434 102.41L96.1582 103.312L95.0918 102.75L93.4395 101.859L92.8652 101.555L92.7012 100.934L91.9863 98.3555L91.9629 98.25L91.9512 98.1445L91.6816 96.0234L91.5762 95.1797L92.2324 94.6641L93.8379 93.375L94.2715 91.4062L94.4941 89.2383L93.7559 87.0234V87L93.7441 86.9766L93.1816 85.125L91.7988 84.4219L89.4434 84.1172L89.3848 84.1055L89.3379 84.0938L86.9121 83.6016L84.4043 83.6484H84.2871L84.1582 83.625L83.665 83.5518L83.375 84.3906L83.3164 84.5781L83.1992 84.7422L81.7695 86.8398L80.7266 89.125L80.7031 89.1719L80.6797 89.207L79.4375 91.5273L78.4062 93.8242V93.8359L78.3945 93.8477L77.2695 96.1562L76.4258 98.5703L76.4141 98.582V98.5938L75.4883 101.055L74.9961 102.707L76.1328 103.938L78.0547 105.777L78.1016 105.824L78.1484 105.883L79.8945 107.887L80.1992 108.227L80.2578 108.695L80.3066 109.114L82.2559 109.357L84.7402 109.428L87.3535 109.24H87.459L90.084 109.252H90.1895L92.791 109.463L95.334 109.357H95.4863L98.123 109.521L99.0723 109.58L99.4238 110.471L100.396 112.896L101.155 114.604L102.77 114.312L103.027 114.266L103.285 114.301L105.816 114.723L108.137 114.664L110.738 114.266L111.031 114.219L111.312 114.289L112.355 114.547L111.652 117.453L110.891 117.266L108.547 117.629L108.453 117.652H108.359L105.723 117.723H105.582L103.051 117.301L100.672 117.734L100.438 117.781L100.203 117.746L97.6367 117.406H95.2344L92.5977 117.629L92.4922 117.641L92.3984 117.629L89.75 117.477V117.465L87.2773 117.348L84.7812 117.734L84.582 117.77L84.3945 117.746L81.8516 117.453L79.2969 117.477L79.2852 117.465L76.7773 117.711L76.6133 117.723L76.4492 117.699L73.918 117.383L71.3867 117.43H71.3281L68.6914 117.371H68.6445L66.1719 117.23L63.7109 117.699L63.4766 117.746L63.2305 117.711L60.7227 117.348L58.2383 117.488H58.0156L55.5898 117.242L53.1406 117.676L52.8828 117.723L52.6133 117.676L50.1172 117.242L47.6914 117.395H47.668L47.6445 117.406L42.3711 117.57H42.2539L42.1367 117.559L39.5938 117.254L37.1328 117.418L37.0508 117.43L36.957 117.418L34.5078 117.277L32 117.699L31.7891 117.734L31.5781 117.711L29.0234 117.395L26.5391 117.324L23.9492 117.512L23.8906 117.523H23.832L21.1953 117.512H21.0781L18.5 117.301L16.0508 117.395L16.0625 117.406L13.4258 117.664L13.2734 117.676L13.1211 117.664L10.625 117.395L8.16406 117.5H8V114.5H8.03516L10.5781 114.395L10.6836 114.383L10.8008 114.395L13.2852 114.664L15.7695 114.418H15.8633L18.5 114.312L18.5938 114.301L18.6758 114.312L21.3125 114.512L21.3008 114.523H21.6221L21.8457 113.014L21.8691 112.861L21.916 112.721L22.7129 110.506L22.9941 109.732L23.8145 109.557L23.8682 109.544L23.4902 108.476H23.4785L22.6113 105.979L22.5527 105.815L22.541 105.64L22.2715 102.944L22.3184 102.71L22.8926 100.12L22.9277 99.9443L23.0098 99.7803L24.0996 97.5771L24.5918 95.1631L24.6035 95.1045L24.6152 95.0576L25.248 92.749L24.9785 90.4053L24.8965 89.7139L25.377 89.21L26.9473 87.5342L27.1113 87.3584L27.3105 87.2529L29.4316 86.0459L30.9902 84.5576L31.6699 82.6709L31.7637 80.5967L30.791 78.5107L30.7441 78.417L30.709 78.3115L29.959 75.8154V75.792L29.2324 73.2256L29.127 72.874L29.209 72.5107L29.748 69.8975L29.7598 69.8154L29.7949 69.7334L30.1367 68.7139H29.6094L27.6172 69.0889L26.3867 70.46L25.5781 72.5459L24.9219 74.9014L24.6875 77.2568V80.0811L24.3711 82.7061L24.3594 82.8232L24.3359 82.9287L23.6445 85.3545L23.3984 87.8975L23.375 88.2021L23.2344 88.46L21.9688 90.8154L21.9219 90.8975L21.8633 90.9678L20.3047 93.1592L20.0938 93.4521L19.7656 93.6279L17.8086 94.6006L15.1602 95.9365L15.6523 93.0186L16.0977 90.4053L16.3203 88.0146L16.3555 85.3662L16.3672 85.2139L16.4023 85.0615L16.9297 82.7061L16.6016 80.3271L16.5781 80.1162L16.6016 79.917L16.9531 77.4561L16.9766 74.8311V74.6436L17.0234 74.4678L17.6328 72.0654L17.6562 69.5576V69.2646L17.7734 68.9951L18.8047 66.5225L18.8867 66.3467L19.0039 66.1943L20.6328 64.085L20.832 63.8271L21.1133 63.6748L23.4453 62.4209L23.832 62.2217L24.2656 62.2451L26.9023 62.4443H26.9609L29.5742 62.749L29.7383 62.7607L29.9023 62.8193L32.375 63.6982L32.457 63.7217L32.4746 63.7314L33.7324 62.3506L33.8496 62.21L34.002 62.1162L36.1582 60.6396L36.252 60.5811L36.3457 60.5342L38.6777 59.3857L38.7598 59.3506L38.8535 59.3154L41.373 58.46L41.5723 58.3896L41.7949 58.3779L44.373 58.2959L45.7422 58.0527L45.7441 58.0508L46.7285 56.1289L46.8574 55.875L46.8145 54.2334L46.8027 54.0107L46.8613 53.8115L47.5293 51.2451L47.5645 51.1045L47.623 50.9873L47.9404 50.3057L47.9648 50.1631L48.3281 47.9365L47.9531 46.4834L46.2188 45.3232L46.1836 45.2881L46.1484 45.2646L44.0508 43.6592L43.9688 43.6006L43.8984 43.542L42.0234 41.667L42 41.6553L41.9883 41.6436L40.1953 39.7451L39.5977 39.124L39.8438 38.292L40.5469 35.8779L40.6641 35.5029L40.9453 35.2334L42.8203 33.3818L44.5898 31.6357L45.8203 29.5498L45.9727 29.292L46.2188 29.1162L48.3398 27.5107L48.3516 27.499L48.375 27.4873L50.5547 25.9287L50.5986 25.8975L50.0586 25.7852L50.4922 24.2383L51.1484 21.8594L51.1719 19.4922L51.1016 16.8555V16.4805L52.6367 13.4102L53.0234 13.1875L53.1738 13.0996L52.8984 12.8652L50.9297 12.2324L48.8086 12.2559L46.9805 12.9824L45.9141 14.459L45.7266 16.4629L45.9961 18.4902L47.3672 20.1074L47.8008 20.5996L47.707 21.3496L46.2188 21.1738L46.125 21.1621L45.0938 22.0527L43.4297 20.1074L43.1367 19.7676L43.0781 19.3223L42.7383 16.7207L42.7148 16.5566L42.7266 16.3809L42.9727 13.791L43.0078 13.3809L43.2539 13.0527L44.8125 10.873L45.0703 10.5098L45.4805 10.3574L47.9648 9.37305L48.2227 9.26758H48.4922L51.1055 9.23242L51.3516 9.2207L51.5859 9.30273L54.0938 10.1113L54.3867 10.1934L54.6094 10.3926L56.1553 11.6992L56.6494 11.7021L56.1309 9.48828L54.7598 7.75391L53.0254 6.28906L51.0918 5.05859L49.0527 4.625L47.0137 5L45.0215 5.92578L43.5332 7.19141L43.1699 9.32422L43.1465 9.44141L42.5254 11.8438L42.3262 12.5938L41.5996 12.875L41.5293 12.8984L41.002 11.5039L40.9785 11.4336L39.6191 11.0938L40.2402 8.69141L40.6738 6.16016L40.7676 5.62109L41.1777 5.26953L43.2168 3.52344L43.3691 3.39453L43.5566 3.30078L45.9004 2.21094L46.0645 2.14062L46.2637 2.10547L48.8184 1.625L49.1113 1.57812L49.4043 1.63672ZM25.2441 112.311L24.7754 113.611L24.6533 114.458L26.375 114.336L26.4453 114.324L26.5273 114.336L29.1641 114.406H29.2344L29.293 114.418L31.7305 114.699L34.1562 114.301L34.3203 114.277L34.4844 114.289L37.0156 114.43L39.582 114.254L39.7227 114.242L39.8633 114.266L42.3711 114.57L44.9141 114.488L47.5039 114.418V114.406L50.1523 114.242L50.3281 114.23L50.5039 114.266L52.8828 114.688L55.2617 114.266L55.4609 114.23L55.6602 114.242L58.1328 114.488L60.7227 114.348L60.8633 114.336L61.0156 114.359L63.418 114.711L65.8086 114.266L65.9844 114.23L66.1602 114.242L68.7969 114.371L68.7852 114.383L71.3633 114.43L73.9766 114.383H74.082L74.1875 114.395L76.6836 114.711L79.1445 114.477H79.2734L81.9102 114.453H82.0039L82.0859 114.465L84.5469 114.746L86.9727 114.371L87.125 114.348L87.2773 114.359L89.9141 114.488H89.9258L92.4453 114.641L95 114.43L95.0586 114.418H95.1055L97.7539 114.406H97.7803L97.6543 114.127L97.6426 114.092L97.6309 114.068L96.9863 112.451L95.3574 112.357L92.8027 112.463H92.7207L92.627 112.451L89.9551 112.252V112.24H87.5527L84.916 112.428H84.7754L82.127 112.346H82.0684L81.998 112.334L79.5488 112.053L77.1348 112.451L76.9707 112.475L76.8066 112.463L74.252 112.322L71.6973 112.486L71.5566 112.498L71.416 112.486L68.8965 112.17L66.3652 112.252L63.752 112.322L63.7637 112.334L61.127 112.498L60.9512 112.51L60.7754 112.475L58.3848 112.041L56.0059 112.463L55.8066 112.498L55.6074 112.486L53.123 112.24L50.5566 112.381H50.4043L50.2637 112.369L47.8496 112.006L45.459 112.463L45.2832 112.498L45.1074 112.486L42.4707 112.346V112.334L39.8926 112.287L37.291 112.334H37.1855L37.0801 112.322L34.5723 112.006L32.0996 112.24H31.9824L29.3574 112.264H29.2754L29.1816 112.252L26.7559 111.982L25.2441 112.311ZM54.6016 85.125L53.2422 87.375L53.1836 87.4805L53.1016 87.5742L51.4023 89.5781L51.332 89.6719L51.25 89.7422L49.8906 90.9141L50.0312 91.8047L51.0977 93.832L52.6445 95.8242L52.7266 95.9297L52.7969 96.0586L53.9336 98.2383L55.5391 100.23L55.7734 100.523L55.8555 100.887L56.2891 103.148L57.8359 104.754L57.9883 104.906L58.082 105.082L59.2539 107.285L59.7344 108.188L59.0664 108.973L58.9502 109.106L61.1035 109.498L63.5879 109.334H63.6348L68.9082 109.17H69.0254L69.1426 109.182L69.3691 109.21L69.041 108.239L69.0176 108.169L68.3965 106.036L66.7559 104.665L65.9121 103.95L66.3457 102.931L67.377 100.458L68.2441 98.1025L68.7598 95.665L69.252 93.0986L69.2637 93.04L69.2871 92.9814L69.9785 90.4854L70.0137 90.3447L70.0723 90.2275L71.209 87.8721L71.2207 87.8369L71.2441 87.79L72.5449 85.4814L72.6035 85.3643L72.6973 85.2588L74.1152 83.5127L74.1299 83.4102L73.9561 83.4355L73.9863 83.4902L72.627 84.1934L70.9277 85.0605L70.6113 85.2246H70.2715L67.752 85.2598L67.7637 85.2715L65.1973 85.5762L64.8926 85.6113L64.5996 85.5293L62.0566 84.7793L61.9629 84.7559L59.5723 83.8887L59.5928 83.8291L58.3633 83.71L58.1875 83.6982L58.0234 83.6396L55.9248 82.9189L54.6016 85.125ZM40.3809 90.123L40.334 90.1582L40.2871 90.1816L37.9082 91.3652L37.7676 91.4355L37.6035 91.4707L35.0371 92.127L35.0254 92.1152L33.291 92.6309L32.7168 94.4473L32.7051 94.5059L32.6816 94.5645L31.7207 96.8965L31.1699 99.3457L31.0996 99.5566L30.1621 101.889L29.8574 103.705L30.8652 105.1L32.6699 106.998L32.9629 107.303L33.0566 107.701L33.373 109.108L34.4902 109.006L34.6543 108.994L34.8184 109.018L37.3379 109.334L39.8809 109.287H39.9395L42.5762 109.346H42.623L45.0957 109.486L47.5566 109.029L47.8027 108.982L48.0488 109.018L49.9834 109.299L50.5469 107.648L49.9023 105.996L48.707 103.734L47.4062 101.754L45.6836 99.7383L45.6719 99.7266L45.6602 99.7031L43.9961 97.6523V97.6406L42.4492 95.7891L40.4453 94.5234L39.4141 93.8555L39.8477 92.7188L40.7148 90.4688L40.7734 90.293L40.8789 90.1406L41.251 89.6084L40.3809 90.123ZM77.3203 82.4004L77.3008 82.4121L77.0215 84.3799L76.9629 84.79L76.6934 85.1182L75.0879 87.0518L73.8691 89.2666L72.8145 91.4111L72.1816 93.7783L71.7012 96.251V96.2744L71.1621 98.876L71.1387 98.9814L71.0918 99.0986L70.166 101.571L70.1426 101.618L69.5332 103.071L70.6934 104.044L71.0449 104.337L71.1738 104.782L71.877 107.278H71.8887L72.6152 109.428L74.1465 109.322H74.3223L76.8301 109.463L77.2236 109.396L75.8867 107.852H75.875L74.0586 106.105L73.9883 106.035L72.2188 104.125L71.6445 103.504L71.8906 102.684L72.6406 100.105L72.6641 100.059L72.6758 100L73.6133 97.5391L74.4805 95.0781L74.5156 95.0078L74.5391 94.9258L75.6875 92.5469L76.7539 90.2031L76.7656 90.1445L76.8008 90.1094L77.9961 87.8711L79.1094 85.4688L79.1562 85.3516L79.2266 85.2461L80.6094 83.207L80.7119 82.9053L78.7559 81.9375L78.709 81.9141L78.4072 81.749L77.3203 82.4004ZM44.7598 61.2607L44.666 61.2725L44.5605 61.2842L42.1113 61.3662L39.9316 62.1045L37.7754 63.1709L35.8535 64.46L34.3301 66.1357L33.4277 68.3154L32.666 70.5889L32.209 72.7568L32.8301 74.9482L33.5566 77.3389L34.6465 79.6592L34.7988 79.999L34.7871 80.3623L34.6699 83.0342L34.6582 83.2686L34.5762 83.4912L33.6855 85.9287L33.5684 86.2451L33.3223 86.4912L31.4121 88.3193L31.2715 88.46L31.1074 88.5537L28.9746 89.7373L28.0371 90.7451L28.2715 92.7139L28.3066 93.0068L28.2246 93.2998L27.5098 95.8662L27.0059 98.3506L26.9707 98.5498L26.877 98.7256L25.7871 100.905L25.3066 103.132L25.4941 105.136L26.3145 107.468L26.8506 108.983L29.3926 109.264L30.332 109.255L30.2207 108.768L28.6621 107.139L28.5918 107.068L28.5332 106.986L27.0684 104.959L26.6934 104.455L26.7988 103.834L27.2441 101.221L27.2676 101.068L27.3262 100.928L28.252 98.584L28.8262 96.0996L28.8613 95.9824L28.9082 95.8652L29.8574 93.5332L30.6777 90.9785L30.9121 90.2168L31.6738 89.9941L34.2402 89.2324L34.2754 89.2207L34.2988 89.209L36.7363 88.5879L38.8574 87.5332L41.0723 86.2324L42.9824 84.8496L44.4941 82.998L45.6895 80.8418L45.7363 80.7598L45.7949 80.6895L47.248 78.6738L47.3291 78.4932L47.3359 78.4365L47.3535 78.4404L48.3027 76.3535L48.3848 76.248L48.4434 76.166L49.6738 77.0215L50.1191 77.3262L50.9863 77.7246L50.3389 79.1475L51.0391 79.3154L53.5234 79.585L56.1602 79.8662L56.3242 79.8896L56.4883 79.9365L58.7969 80.7334L59.9619 80.8467L59.8535 78.6875L59.1035 76.3672L59.0918 76.332L59.0801 76.3086L58.3418 73.7656L58.3184 73.6602L58.2949 73.543L57.9551 70.918L57.9199 70.707V70.6484L57.7207 70.6016L57.6738 70.5898L57.6387 70.5781L55.1191 69.8633L54.8613 69.793L54.6387 69.6289L52.5645 68.0938L50.3613 66.7812L50.0332 66.5938L49.8457 66.2773L48.4512 63.9805H48.4395L46.9629 62.0234L46.8691 61.8828L46.7988 61.7305L46.457 60.9736L44.7598 61.2607ZM48.2559 82.3887L47.0371 84.6152L46.9668 84.7324L46.8848 84.8262L45.4424 86.6006L45.1094 89.0273L45.0625 89.3906L44.8633 89.6836L43.4453 91.6992L43.082 92.6484L44.2656 93.3984L44.4648 93.5273L44.6172 93.7031L46.3164 95.7539L46.3398 95.7656L47.9688 97.793L49.6914 99.7969L49.75 99.8672L49.8086 99.9492L51.2617 102.164L51.2969 102.211L51.3203 102.281L52.5859 104.625L52.6328 104.707L52.6562 104.789L53.5469 107.086L53.7461 107.602L53.5703 108.129L53.418 108.527H53.6172L55.5156 108.48L56.1133 107.789L55.5156 106.652L53.8164 104.895L53.5117 104.578L53.4297 104.145L52.9609 101.812L51.5195 100.043L51.4258 99.9258L51.3555 99.7852L50.1953 97.5586L48.6602 95.5781L48.5781 95.4727L48.5195 95.3555L47.2656 93L47.1484 92.7773L47.1133 92.5312L46.8086 90.5625L46.6797 89.7422L47.3008 89.2031L49.1758 87.5625L50.7109 85.7461L52.0234 83.5781L52.668 82.502L50.5703 82.2686L50.4766 82.2568L50.3945 82.2334L48.6602 81.834L48.2559 82.3887ZM70.2207 55.9258L70.2324 56.0312V56.1367L70.1973 58.6797L70.3613 61.3047V61.4219L70.3496 61.5508L70.0918 64.1289L70.0801 64.2227L70.0566 64.3281L69.459 66.918L69.377 67.2461L69.1543 67.5156L67.5488 69.5078L67.3467 69.7539L67.3242 70.084L67.4883 72.6387V72.8262L67.3242 75.4629L67.3008 75.627L66.9609 77.5488L68.0156 78.8262L69.9609 79.6934L70.0547 79.7402L71.8477 80.7012L73.7812 80.4199L75.6377 79.835L74.3965 77.918L74.3379 77.8359L74.291 77.7422L74.1504 77.4258L76.8691 76.1602L76.9395 76.3359L78.1465 78.1875L80.0801 79.2422L82.2129 80.2969L84.498 80.6367L87.0059 80.6016H87.1699L87.3223 80.625L89.9355 81.1523H89.9238L92.4434 81.4805L92.6895 81.5156L92.9238 81.6328L95.1152 82.7461L95.6895 83.0391L95.8652 83.6484L96.6035 86.0625L97.459 88.6055L97.5645 88.9102L97.5293 89.25L97.2363 91.8984L97.2246 91.9805L97.2012 92.0508L96.6621 94.5586L96.5449 95.0742L96.123 95.4141L94.7637 96.4805L94.916 97.6875L95.4082 99.5039L95.4551 99.5273L96.334 98.5195L97.9043 96.4102L97.916 96.3984H97.9277L99.2871 94.6055L99.5098 92.4727L99.5215 90.0469L98.9707 87.5977L98.9355 87.4453V87.2695L98.9238 84.7734L98.4668 82.6641L97.3652 81.3164L95.3496 80.918L95.2207 80.8945L95.0918 80.8359L92.6426 79.875H92.6309V79.8633L90.1934 78.8672L90.1348 78.8438L90.0879 78.8203L87.7207 77.6133L87.4512 77.4727L87.2637 77.25L85.541 75.2227L85.4473 75.1172L85.377 74.9883L84.1465 72.7969L85.2246 72.1758L85.377 72L86.3027 70.8164L86.3848 70.875L86.6191 71.0625L86.7715 71.332L87.8965 73.3594L88.0049 73.4873L88.7773 71.708L89.0586 69.2822L89.0703 69.2354V69.2002L89.4805 66.833L89.0586 64.4658L89.0234 64.2549L89.0469 64.0557L89.2578 61.6299L88.8701 59.8477L88.7988 59.834L88.6934 59.7871L86.373 58.8965L83.877 58.4512L83.7832 58.4277L83.7012 58.4043L81.3105 57.6777L78.8262 57.4902L78.6152 57.4668L78.416 57.3965L75.9199 56.459V56.4473L73.5879 55.8027L71.0449 55.3691H70.9863L70.9395 55.3457L70.1182 55.1426L70.2207 55.9258ZM22.7891 66.1709L21.4766 67.8818L20.6445 69.874L20.6328 72.2764V72.4521L20.5859 72.6396L19.9766 75.0303L19.9414 77.5029V77.5967L19.9297 77.6904L19.6016 80.1162L19.9414 82.5771L19.9766 82.8467L19.918 83.1162L19.3438 85.5771L19.3203 88.0498V88.167L19.1797 89.5615L19.3203 89.3623L20.4453 87.2881L20.6914 84.9326L20.7031 84.8154L20.7383 84.6865L21.3945 82.2607L21.6875 79.8232V77.1865L21.6992 77.1045L21.957 74.4678L21.9805 74.3506L22.0039 74.2217L22.707 71.6904L22.7539 71.5498L23.6914 69.1357L23.7969 68.8779L23.9727 68.6787L25.7305 66.71L26.082 66.3232L26.5859 66.2295L29.1758 65.749L29.0352 65.7021L26.6211 65.4326V65.4209L24.4766 65.2686L22.7891 66.1709ZM61.1387 58.0664L61.0449 58.1367L60.9395 58.1953L58.6543 59.5078L58.4902 59.6016L58.3027 59.6484L57.0449 59.9922L58.0254 60.4414L58.2598 60.5469L58.4473 60.7227L60.3574 62.5742L60.5098 62.7383L60.627 62.9375L61.6348 64.7891L61.8926 65.2578L61.7871 65.7852L61.2832 68.4102L60.9434 70.7305L61.248 73.0508L61.9512 75.4297L62.7715 77.9375L62.8418 78.125L62.8535 78.3242L62.9824 80.9844V81.1602L62.9277 81.9121L62.9824 81.9316L65.1387 82.5527L67.4004 82.2832H67.5527L68.3682 82.2666L66.1641 81.2871L65.9414 81.0176L64.207 78.9316L63.7617 78.4043L63.8906 77.7129L64.3242 75.2051L64.4766 72.7207L64.3359 70.1777L64.3242 70.084L64.3359 69.9785L64.5117 67.3535V67.3184L64.7227 64.916L64.125 62.7129L63.1055 60.4277L63.0469 60.3105L63.0117 60.1816L62.4258 57.873L62.0498 57.333L61.1387 58.0664ZM49.4473 60.3359L50.9355 62.3047L50.9824 62.3633L51.0176 62.4336L52.2129 64.3906L54.1934 65.5742L54.252 65.6094L54.3105 65.6562L56.1973 67.0508L58.3535 67.6602L58.7285 65.7383L58.084 64.5664L56.5371 63.0664L54.3457 62.0586L54.2402 62.0117L54.1582 61.9531L52.0605 60.6055L51.7979 60.4932L51.5293 60.5039L51.5244 60.376L49.7285 59.6094L49.623 59.5625L49.5176 59.5039L48.8965 59.1055L49.4473 60.3359ZM63.8545 54.665L65.0508 56.373L65.2148 56.6074L65.2734 56.8652L65.9062 59.3496L66.9258 61.6113L66.9727 61.7285L66.9961 61.8457L67.2139 62.6562L67.3496 61.3398L67.1973 58.8672V58.7617L67.2207 56.207L66.9727 54.248L65.8301 53.8691L64.0342 53.4941L63.8545 54.665ZM50.4004 52.1006L49.8027 54.3623L49.8633 56.168L51.041 56.9023L52.3457 57.4678L52.6309 57.457H52.6543L55.1504 57.3984L57.3418 56.7891L59.3105 55.6641L60.8457 54.4453L61.0674 53.0293L60.791 52.9902L60.6504 52.9668L60.498 52.9199L58.1543 52.0527L56.5322 51.7314L54.9648 53.3096L53.8047 54.4697L52.75 53.2275L51.1914 51.376L50.8584 51.1289L50.4004 52.1006ZM71.3828 49.0918L71.3711 49.127L71.3477 49.1738L70.5156 51.5293L70.4434 52.1318L71.6191 52.4277L74.1621 52.873L74.2324 52.8848L74.3145 52.8965L76.8574 53.6113L76.916 53.623L76.9863 53.6465L79.2598 54.502L81.7207 54.7129L81.8848 54.7246L82.0488 54.7715L84.5215 55.5098L87.0059 55.9668L87.1465 55.9902L87.2754 56.0371L87.9287 56.2852L87.2891 54.3291L87.2422 54.165L86.75 51.7275L86.2168 50.6982L84.9473 50.668H84.8184L84.6895 50.6445L82.1113 50.1289V50.1406L79.5098 49.6367L79.4043 49.6133L79.2871 49.5781L76.9082 48.7344L74.4473 48.3477L74.3535 48.3359L74.2715 48.3125L71.8047 47.6328L71.3828 49.0918ZM64.3516 49.0342V49.1396L64.2627 50.4893L66.5215 50.9512L66.6152 50.9629L66.6973 50.998L67.5283 51.2734L67.5625 50.9902L67.5859 50.8262L67.6328 50.6738L68.5234 48.166L68.5654 48.0205L68.2578 48.1006L68.0352 48.1592L67.7891 48.1357L65.1523 47.9834L65.0117 47.96L64.3457 47.8564L64.3516 49.0342ZM44.9297 35.5264L43.3125 37.1084L42.9492 38.3037L44.1211 39.5342L45.9141 41.3154L47.8828 42.8271H47.8945L50.0977 44.3154L50.5664 44.6318L50.707 45.1826L51.3281 47.5029L51.3916 47.791L53.1133 49.0674L53.2539 49.1729L53.3711 49.3018L53.9805 50.04L54.6016 49.4189L55.7031 47.8369L55.6562 47.5439L54.2617 47.5908L52.2461 47.6611L52.5156 46.6416L51.7773 44.9775L50.6055 42.8682L49.0469 40.9346L47.6055 39.2588L46.6094 38.1104L47.7695 37.1377L48.4062 36.5928L48.3965 36.5781L47.0723 34.9375L46.0664 34.4102L44.9297 35.5264ZM51.9023 28.6357L50.1328 29.8896L50.1445 29.9014L48.2461 31.3311L47.8711 31.9775L48.7246 32.4297L48.9941 32.5703L49.1816 32.8047L50.7988 34.7617L50.7998 34.7637L51.8711 34.0674L53.0898 32.6963L54.2148 31.4189L55.3398 32.708L55.375 32.7432L54.25 33.7275L55.3398 34.6885L53.9922 36.2119L53.8633 36.3643L53.6875 36.4697L52.4268 37.2793L52.6621 37.6445L51.3193 38.0479L50.8633 38.4385L51.3203 38.9775L51.3555 39.0127L53.0312 41.0986L53.1016 41.1924L53.1719 41.3096L54.4375 43.5947L54.4609 43.6533L54.4961 43.7119L54.8711 44.5791L56.8516 44.5205L58.1289 44.4736L58.375 45.7393L58.7852 47.9072L58.9023 48.5283L58.5391 49.0439L58.5166 49.0752L58.8105 49.1348L58.9277 49.1465L59.0332 49.1934L61.2852 50.0146L61.3516 49.0459L61.3398 46.3975V46.2334L61.375 46.0811L61.9141 43.4795L62.1943 41.6143L62.1816 41.6074L62.2285 40.6582L62.334 38.0918V35.6543L61.6191 33.5566L60.248 31.5527V31.541L59.249 30.1182L59.0625 30.1709L58.6875 30.0889L56.168 29.5381L56.0508 29.5029L55.9336 29.4561L53.7773 28.5771L51.9023 28.6357ZM88.3555 46.2432V46.2783L88.3672 46.3252L88.5205 48.4941L88.8086 48.46L89.0195 48.4248L89.2422 48.4717L91.3516 48.8232L92.9922 47.8506L93.4766 47.3096L92.3672 46.707L90.1992 45.9219L88.2881 45.7285L88.3555 46.2432ZM81.2793 30.9805L79.5684 32.4453L77.7637 34.2969L77.7754 34.3086L76.0879 36.1133L74.8223 38.1523L73.8848 40.4727V40.4844H73.873L72.8652 42.875L72.291 44.3398L72.8418 44.7969L74.916 45.3828L77.5176 45.793L77.6582 45.8164L77.7871 45.8633L80.1895 46.707L82.6738 47.1875L85.0996 47.668L85.4482 47.6768L85.3672 46.5361V46.5244L85.1211 44.6025L83.75 42.9033L83.6211 42.7393L83.5391 42.54L82.5547 40.1846L82.4492 39.9385L82.4375 39.6689L82.332 37.0791V35.2041L81.1953 33.9619L80.2695 32.9424L81.207 31.9346L82.4824 30.542L81.2793 30.9805ZM99.6152 43.6572L98.2676 45.0635L98.1152 45.8721L98.0703 46.1074L98.3242 46.1748L98.5586 46.2334L100.141 47.2881L101.102 46.5967L101.688 45.0967L100.949 43.4678L100.528 42.8779L99.6152 43.6572ZM95.8057 45.5068L96.1211 45.5889L96.5479 45.7021L96.5566 45.5908V45.5674L95.8457 45.4346L95.8057 45.5068ZM64.8672 44.0068V44.0537L64.8555 44.1006L64.6895 44.8809L65.3281 44.9834L67.7422 45.1357L68.8623 44.8428L69.1035 44.2344L69.2881 43.7725L68.2285 43.6113V43.5996L65.6738 43.3418L65.3926 43.3066L65.1348 43.166L65.0039 43.0967L64.8672 44.0068ZM89.8867 34.9365L89.8633 34.9482L89.8281 34.9717L87.6016 36.4014L87.25 36.624L86.8398 36.6357L85.333 36.6836L85.332 37.0205L85.4258 39.2471L86.2109 41.1807L87.2471 42.4668L88.207 42.7227L90.7031 42.957L90.8906 42.9805L91.0664 43.0391L93.5508 43.9531L93.6562 43.9883L93.75 44.0469L95.2568 44.8643L95.4082 44.0557L95.502 43.6221L95.8066 43.3057L97.5645 41.4775L97.6113 41.4189L97.6699 41.3721L98.6602 40.5264L97.9492 39.7295L95.9922 37.9482L95.9453 37.9131L95.9102 37.8779L94.082 35.9795L94.0469 35.9326L94.0117 35.8975L92.5938 34.21L91.4219 33.835L89.8867 34.9365ZM86.8672 29.5322L86.7969 29.7314L86.6797 29.9072L85.2969 31.9111L85.2266 32.0049L85.1562 32.0869L84.3359 32.9541L84.957 33.6338L85.0156 33.6973L86.3359 33.6475L88.2109 32.4404L90.2695 30.9824L89.7578 30.8809L89.418 30.4707L87.7773 28.5137L87.5898 28.291L87.5078 28.0098L87.4346 27.7891L86.8672 29.5322ZM56.6504 25.2568L56.6035 25.3037L55.7109 26.1309L56.9531 26.6436L58.4805 26.9648L58.4795 26.627L58.2344 26.5264L57.8125 26.3506L57.5547 25.9639L56.9131 24.9912L56.6504 25.2568ZM59.9922 20.4795L59.0898 21.2178L58.9023 22.5771L59.7812 23.9131L60.4326 24.1816L60.3496 22.9971L60.3027 22.2939L60.8066 21.8135L61.6621 20.9697L61.2344 20.3018L59.9922 20.4795ZM54.9102 15.5664L54.1016 17.1719L54.1719 19.4219V19.4688L54.125 22.1172V22.3164L54.0781 22.4922L53.7969 23.4883L54.083 23.5508L54.5527 23.1123L55.9238 21.7178V21.7295L56.0059 21.6475L56.0137 21.6553L56.207 20.2451L56.2773 19.6592L56.7344 19.2842L58.4336 17.8896L58.7617 17.6318L59.1719 17.5732L61.6797 17.1982L62.5 16.9385L62.4219 16.8906L60.1953 15.543L58.1797 14.6992H57.2959L57.209 14.75L57.1729 14.6992H56.4102L54.9102 15.5664Z" fill="black"/>
</svg>
