<svg width="120" height="120" viewBox="0 0 120 120" fill="none" xmlns="http://www.w3.org/2000/svg">
<path d="M23.6797 110.192L26.4688 110.637L29.2812 110.32L29.3984 110.309L29.5156 110.32L32.4453 110.461L35.375 110.32L35.4922 110.309L35.5977 110.32L38.4688 110.625L41.3164 110.379H41.375L44.375 110.238L44.5039 110.227L44.6328 110.25L47.4453 110.613L50.4219 110.578H50.4805L53.4805 110.66L53.4688 110.672L56.457 110.684H56.4688L59.3516 110.742L62.3281 110.52H62.3984L65.3984 110.426H65.5039L68.5039 110.531L68.4922 110.543L71.457 110.555H71.5273L74.457 110.731L77.375 110.602H80.4219V110.59L83.3164 110.555V110.543L86.3164 110.285L86.4453 110.274L86.5625 110.285L89.4219 110.531L92.3516 110.484L95.3516 110.297L95.5859 110.285L95.8086 110.344L98.5625 111.047L99.8047 111.363L99.6875 112.641L99.3945 115.606L98 115.465V115.5L97.4141 116.883L97.3203 116.848L96.3125 116.414L96.418 115.324L96.5703 113.625L95.2578 113.297L92.5391 113.473H92.4805L89.4805 113.531H89.3164L86.4453 113.274L83.5742 113.531L83.5273 113.543H83.4688L80.4688 113.59H80.4453L77.4453 113.602V113.59L74.5156 113.731H74.3633L71.3633 113.555V113.543L68.4336 113.531H68.3867L65.4336 113.426L62.4922 113.52L62.4805 113.508L59.5508 113.742H59.4102L56.4102 113.684V113.672L53.4336 113.66H53.4102L50.4219 113.578L47.457 113.613L47.3516 113.625L47.2578 113.602L44.3281 113.227L41.5625 113.356L41.5742 113.367L38.5742 113.625L38.4336 113.637L38.2812 113.625L35.4336 113.32L32.5156 113.461H32.375L29.5273 113.309L26.6094 113.637L26.4219 113.649L26.2227 113.625L24.6641 113.379L24.4414 114.574L24.5 115.699L21.5 115.863L21.4297 114.574L21.418 114.399L21.4531 114.223L21.9805 111.399L22.2383 109.969L23.6797 110.192Z" fill="black"/>
<path d="M87.4219 106.086L90.2578 106.379L93.1875 106.215L94.418 106.145L94.7227 107.34L95.3789 109.93L95.3906 110L95.4023 110.059L95.4727 110.504L93.9961 110.75L92.5195 110.984L92.4727 110.668L92.1211 109.274L90.3633 109.379H90.2461L90.1289 109.367L87.3164 109.074L84.4102 109.344H84.3867L84.3516 109.356L81.3516 109.508L81.2227 109.52L81.0938 109.496L78.1992 109.156L75.3047 109.215H75.2461L72.2461 109.168H69.2578L66.375 109.133L63.3984 109.379H63.3281L60.3281 109.484L60.2812 109.496L60.2344 109.484L57.2227 109.391V109.379H54.1875L51.2461 109.215L48.3398 109.344H48.2695L45.2812 109.332L42.293 109.367L42.2812 109.356L39.3867 109.59H39.2578L39.1289 109.578L36.2461 109.297H33.3516L30.3516 109.449L28.7461 109.543L28.6758 110.844L28.6172 111.875L27.6211 112.192L27.5273 112.215L27.082 110.785L27.0586 110.738L25.6758 110.668L25.8398 108.031L25.9219 106.695L27.2578 106.625L30.1992 106.461L33.1992 106.297H36.4219L39.2461 106.59L42.1641 106.367H42.2578L45.2578 106.332H45.2812L48.2109 106.344L51.2109 106.215H51.3633L54.3633 106.379L54.3516 106.391H57.3281L60.2695 106.496L63.1523 106.391L66.1523 106.133H66.293L69.293 106.168H72.3047L75.2695 106.215L78.2461 106.156L78.3516 106.145L78.457 106.156L81.375 106.52L84.1406 106.367V106.356L87.1406 106.086L87.2812 106.074L87.4219 106.086Z" fill="black"/>
<path d="M87.9531 12.6603L90.8477 12.7657L91.6211 12.7892L92.043 13.4337L93.6719 15.8947L93.8594 16.1759L93.9062 16.5157L94.3164 19.4806L94.3281 19.5509V19.6212L94.4453 22.5978V22.6681L94.4336 25.6798V25.7853L94.4219 25.9025L93.9766 28.8673V28.8907L93.9648 28.9142L93.4375 31.879L93.4258 31.9142V31.9493L92.7695 34.8322L92.7812 34.8439L92.1719 37.7853L92.1484 37.9025L92.1133 38.0197L91.0938 40.7032L90.5195 43.504L90.5312 43.5157L90.0273 46.4923L89.9922 46.6329L89.9453 46.7736L88.8789 49.5275L88.2578 52.3165L88.2109 52.4572L87.2617 55.2462L86.7461 58.0704L86.7109 58.2697L86.6172 58.4454L85.3516 61.0587L84.7188 63.8009L84.707 63.8361V63.8712L83.8867 66.754L83.875 66.7423L83.1133 69.6017L83.125 69.6134L82.4102 72.5197L81.707 75.4259L81.6953 75.4728L81.6719 75.5197L80.8516 78.1798L80.7344 79.9962L80.582 82.2579L78.5547 81.2384L78.3203 81.1212L78.9531 79.879L77.7344 79.8087L77.8633 77.84L77.875 77.6642L77.9336 77.5001L78.8125 74.629L79.4922 71.8048V71.7931L80.207 68.8986L80.2188 68.8751V68.8634L80.9922 65.9572V65.9454L81.0039 65.9337L81.8125 63.0509L82.4805 60.1915L82.5156 60.0275L82.5977 59.8751L83.8164 57.3322L84.3555 54.5548L84.3672 54.4493L84.4023 54.3439L85.3633 51.4962L85.9961 48.7189L86.0195 48.6134L86.0547 48.5079L87.0859 45.8361L87.5781 43.0118V42.965L88.1758 40.0236L88.1992 39.9064L88.2344 39.7892L89.2422 37.1056L89.8398 34.2462V34.2228L90.4961 31.2931L91.0117 28.3868L91.4336 25.6095L91.4453 22.715L91.3281 19.7853L90.9766 17.254L89.9688 15.7306L88.6094 15.6837L87.2734 17.4181L86.0078 19.7853L84.8945 22.4923L84.1211 25.3048L84.0977 25.3986L84.0625 25.4923L82.9023 28.1876L82.1523 30.8361L82.1641 30.8478L81.6016 33.8009L81.0859 36.7306V36.7892L80.4883 39.6134V39.6368L80.4648 39.7306L77.5352 39.0743L77.5586 38.9806L78.1445 36.1681L78.6484 33.2736V33.2384L79.2109 30.2853L79.2227 30.2267L79.2461 30.1681L80.0547 27.2736L80.0781 27.1798L80.1133 27.0861L81.2969 24.3087L82.0352 21.6017L82.0586 21.5197L82.0938 21.4376L83.2305 18.6486L83.2539 18.5782L83.2891 18.5079L84.7188 15.8595L84.7773 15.7423L84.8477 15.6486L86.7109 13.2462L87.1797 12.6368L87.9531 12.6603Z" fill="black"/>
<path d="M60.0938 64.7853H60.1406L61.6406 64.9025L61.6289 65.0079L61.5469 65.9923L60.6094 66.3087L58.8633 66.8829L58.9688 68.4532L59.9531 71.0548L59.9766 71.09L59.9883 71.1368L60.9023 73.9845L60.9375 74.0665L60.9492 74.1603L61.5234 77.0665L62.1914 79.9728L62.8242 82.7501L63.9258 85.422L64.0078 85.6329L64.0312 85.8439L64.3008 88.8556L64.3125 88.8907V88.9259L64.418 91.6447L65.4141 94.1642L66.7383 96.7072L66.8438 96.9064L66.8906 97.1407L67.3945 100.047V100.106L67.4062 100.164L67.6875 103.164L67.6992 103.34L67.6758 103.504L67.2891 106.434L67.1602 107.899L67.0547 109.094L65.8711 109.246L65.7188 109.27L65.5195 107.781L65.5078 107.746L64.1719 107.629L64.3125 106.176V106.117L64.6758 103.305L64.4297 100.563L63.9727 97.8907L62.6953 95.4415L62.6602 95.3712L62.6367 95.3009L61.5352 92.5118L61.4414 92.2775L61.4297 92.0197L61.3125 89.1251L61.0547 86.3243L60.0117 83.7697L59.9648 83.6642L59.9414 83.547L59.2734 80.6525L58.5938 77.7462V77.7228L58.582 77.6876L58.0195 74.8048L57.1523 72.1212L56.0859 69.3087L56.0156 69.0978L55.9922 68.8751L55.8047 65.9337L55.7227 64.7853L56.8242 64.422L59.6602 63.4611L60.0938 64.7853Z" fill="black"/>
<path d="M49.668 16.7853L49.7734 16.8556L51.1094 16.7736L51.3086 19.6564L51.3203 19.9142L51.25 20.1486L50.5117 22.9025L50.3828 23.3712L50.0078 23.6876L47.6992 25.5626L47.6055 25.6329L47.5117 25.6915L44.8984 27.215L44.7578 27.297L44.6055 27.3439L42.1211 28.1407L40.6445 29.8165L40.0352 32.1251L40.082 34.9025V38.1251L40.0352 38.3009L39.332 41.2072L38.9922 44.0079L38.957 44.2775L38.8281 44.5236L37.5273 46.9611L37.5391 46.9728L36.5312 49.5626L36.4141 52.2931V52.3165L36.2383 55.3165L36.2266 55.3634V55.422L35.8398 58.4103L35.793 58.7384L35.6172 59.0197L34.0234 61.5626L34.0117 61.5861L34 61.5978L32.7227 63.5079L32.8984 64.879L34.3633 65.2072L34.0469 66.59L35.418 66.0743L35.4297 66.1212L36.4492 68.7345L33.7188 68.1368L31.2109 67.5861L30.1797 67.3517L30.0508 66.297L29.6875 63.3322L29.6172 62.7814L29.9219 62.3243L31.4805 59.9689L32.8984 57.6837L33.25 55.0353L33.4141 52.1407L33.5547 49.1759L33.5664 48.9298L33.6484 48.7072L34.7383 45.8947L34.7617 45.8126L34.8086 45.7306L36.0391 43.3751L36.3789 40.6681L36.3906 40.5743L36.4141 40.4923L37.082 37.7736V34.9376L37.0352 31.9728V31.7618L37.0938 31.5626L37.832 28.715L37.9258 28.3634L38.1602 28.0939L40.1406 25.8556L40.4102 25.5509L40.8086 25.422L43.5391 24.5197L45.8945 23.1603L47.7344 21.6603L48.2852 19.6095L48.1094 16.9728L48.0859 16.4923L48.332 16.0822L48.3906 16.0001L49.668 16.7853Z" fill="black"/>
<path d="M55.8789 4.51965L58.7266 5.39856L59.0781 5.50403L59.3359 5.76184L61.4922 7.90637L61.832 8.24622L61.9141 8.72668L62.3945 11.6329L61.0469 11.8556L61 11.9376L60.1562 13.1798L60.0742 13.1212L59.5469 12.7579L59.4414 12.1251L59.0195 9.6759L57.4727 8.14075L55.2695 7.47278L52.8672 7.68372L50.6992 8.56262L49.1289 10.6603L47.7227 13.0978L46.4805 15.6056L45.5664 18.3478L44.6875 20.9376L44.6289 23.2697L45.0742 23.9962L43.8086 24.7814L42.5312 25.5782L41.8516 24.4767L41.6055 24.09L41.6172 23.6447L41.6992 20.6681V20.4454L42.7188 17.3868V17.3751L43.6797 14.5509L43.7148 14.4572L43.7617 14.3751L45.0742 11.6798L45.1211 11.5861L46.6328 8.99622L46.7266 8.85559L48.543 6.44153L48.7891 6.1134L49.1758 5.94934L51.9531 4.82434L52.1641 4.74231L52.3867 4.71887L55.3047 4.46106L55.5977 4.43762L55.8789 4.51965Z" fill="black"/>
<path d="M42.0508 65.7384L42.9531 65.7853L44.4414 65.879V65.9845L44.418 66.1486L43.9141 68.8907L43.7852 71.8204L43.8086 74.7501L43.8203 77.7384V77.7736L43.7734 80.7853L44.0078 83.5861L44.0195 83.7618L43.9844 83.9493L43.5391 86.7384L43.5508 89.5743L43.9727 92.3868L43.9844 92.4337V92.4806L44.4766 98.4572L44.4883 98.5743L44.4766 98.6915L44.2422 101.692L44.2188 102.031L44.0547 102.324L42.6602 104.738L42.4609 105.09L42.1211 105.289L39.625 106.731L38.1016 107.949L37.75 108.219L37.3164 108.266L37.1406 108.277L37 106.789L36.9766 106.508L36.2383 105.594L37.8438 104.328L37.9258 104.27L38.0195 104.211L40.2578 102.899L41.2773 101.129L41.4648 98.5157L41.2422 95.715L41.0078 92.8087L40.5742 89.8556L40.5625 89.7501V89.6447L40.5391 86.6564V86.5392L40.5508 86.4103L40.9844 83.6798L40.7734 80.879V80.7384L40.8203 77.7501L40.8086 74.7618L40.7852 71.7618V71.715L40.7969 71.6798L40.9258 68.6798L40.9375 68.5743L40.9492 68.4806L41.4648 65.6212L42.0508 65.7384Z" fill="black"/>
<path d="M69.9648 34.0157L72.1094 36.0431L72.2148 36.1486L74.1367 38.34L74.3359 38.5626L74.4297 38.8556L75.2031 41.1876L77.1016 42.7931L77.6758 43.2853L77.6289 44.0353L77.4648 46.672V46.7423L77.4531 46.8126L76.9844 49.7775V49.8126L76.4453 52.754L76.082 55.6603L76.0703 55.7306L76.0469 55.8009L75.3789 58.7306L74.875 61.6134V61.6368L74.8633 61.6603L74.2891 64.4728L73.9375 67.4493L73.9258 67.5197L73.9141 67.5782L73.4219 69.9572L74.3359 71.7618L76.1992 73.8478L76.2227 73.8595L76.2344 73.8829L78.1797 76.1681L80.1367 78.465L80.4648 78.8634L80.4883 79.3907L80.5 79.7306L79 79.7892L78.5547 79.8009L77.8398 80.4103L75.8945 78.1134L73.9492 75.8282V75.8165L71.9688 73.6251L71.8398 73.4728L71.7461 73.297L70.5039 70.8595L70.2695 70.3907L70.375 69.8751L70.9492 67.0861L71.3008 64.1212L71.3242 64.004L71.9336 61.0509L72.4375 58.1447L72.4492 58.1095V58.0626L73.1289 55.1329L73.4805 52.297L73.4922 52.2618V52.2267L74.0195 49.3087L74.4883 46.3439L74.582 44.5978L72.9531 43.215L72.625 42.9454L72.4961 42.547L71.6758 40.0861L69.9531 38.129H69.9414L67.8672 36.1603L67.8086 36.1017L67.75 36.0314L65.9102 33.8282L65.875 33.7931L65.8516 33.7462L65.793 33.6642L68.207 31.9064L69.9648 34.0157Z" fill="black"/>
<path d="M54.5117 65.6095L55.0039 65.7853L56.4102 66.3009L56.375 66.3947L56.3281 66.5236L56.2461 66.6525L54.8867 68.9142L54.1367 71.5626L53.3867 74.4806V74.504L53.375 74.5392L52.5078 77.4103L52.4961 77.4689L52.4727 77.5275L51.3828 80.2579L50.75 82.8478V85.4025L51.2891 88.2384L51.3125 88.3907V88.5431L51.2656 91.5665V91.7657L51.207 91.965L50.3633 94.8595L50.3516 94.8712L49.4727 97.7072L49.4844 97.7189L48.6875 100.438L48.5 102.981L49.3438 105.606L49.3906 105.77L49.4023 105.922L49.5664 107.645L49.7188 109.32L48.043 109.285H47.8672L47.8906 107.797L46.5781 107.926L46.4375 106.332L45.5703 103.649L45.4766 103.379L45.5 103.098L45.6992 100.086L45.7109 99.9337L45.7578 99.7697L46.6016 96.8868V96.8634L47.4805 93.9923L48.2656 91.3439L48.3008 88.6486L47.7852 85.8361L47.7617 85.6954V85.5665L47.75 82.6954V82.5079L47.7852 82.3322L48.5117 79.4142L48.5352 79.3204L48.5703 79.215L49.625 76.5431L50.5039 73.672L51.2422 70.8126V70.8009L51.2539 70.7892L52.0625 67.8947L52.1211 67.7072L52.2148 67.5314L53.6797 65.1056L54.5117 65.6095Z" fill="black"/>
<path d="M70.2266 77.5861L70.2969 77.9259L70.2148 78.254L69.5938 80.6681L69.9922 82.9532L71.4922 85.1798L71.6211 85.3673L71.6797 85.59L72.5586 88.4728L72.6172 88.672V88.8712L72.6758 91.8243L73.0156 94.7306L73.0273 94.7657V94.8126L73.2031 97.6603L73.6133 100.402L74.668 102.934L76.1211 105.383L76.2266 105.559L76.2852 105.758L76.4492 106.402L74.9961 106.789L73.543 107.164L73.4258 106.707L72.0312 104.34L71.9727 104.246L71.9375 104.152L70.7891 101.422L70.7188 101.258L70.6836 101.07L70.2383 98.1173L70.2266 98.0587L70.2148 97.9884L70.0273 95.0001V94.9884L69.6992 92.0939L69.6875 92.0236V91.9532L69.6172 89.1525L68.8672 86.6447L67.3203 84.3712L67.1445 84.1017L67.0859 83.7853L66.582 80.879L66.5352 80.5626L66.6055 80.2462L67.3086 77.5157L68.5391 77.8204L68.7383 77.7853L70.2148 77.4923L70.2266 77.5861Z" fill="black"/>
<path d="M45.0039 31.7853L46.4922 31.9493L46.4805 32.0431V32.0782L46.4688 32.1017L46.0703 34.8673L46.1523 37.7267V37.8204L46.0469 40.8322L46.0352 40.9845L46 41.1368L45.2617 44.0665L45.2148 44.2892L45.0859 44.4884L43.6797 46.7618L43.3281 49.3868L43.3164 49.4337L43.3047 49.4923L42.6719 52.4337L42.6367 52.6095L42.5664 52.7618L41.2656 55.4806L41.2305 55.5743L41.1719 55.6564L39.5664 58.129L38.6758 59.9806L39.1914 61.2111L37.8086 61.7736V61.7853L37.7617 63.2853H37.75L36.7773 63.2501L36.4141 62.3595L35.6523 60.5079L35.3945 59.8868L35.6875 59.2892L36.9297 56.7228L36.9648 56.6407L37.0234 56.5704L38.6055 54.0861L39.7656 51.6603L40.3398 48.9767L40.75 46.0587L40.7969 45.7423L40.9609 45.4728L42.4023 43.0939L43.0469 40.5743L43.1523 37.8087L43.0703 34.8087V34.6798L43.082 34.5509L43.5039 31.6681V31.6212L45.0039 31.7853Z" fill="black"/>
<path d="M67.6328 30.129L67.6914 30.3048L67.7148 30.4806L67.9492 33.1525L67.9609 33.3868L67.9141 33.6212L67.2344 36.5626L67.1641 36.7736L66.0742 39.4454L65.4766 42.047L65.5586 43.7462L65.6406 45.9611L63.5547 45.2228L63.4961 45.1993L64 43.8048L62.5586 43.8634L62.4766 41.965L62.4648 41.7657L62.5117 41.5665L63.1797 38.672L63.2148 38.5548L63.25 38.4493L64.3281 35.7657L64.9375 33.1407L64.7383 30.9376L63.8594 28.3712L63.7656 28.09L63.7891 27.7853V27.6798L65.2891 27.7853L65.5352 27.797L66.707 27.3986L67.6328 30.129Z" fill="black"/>
<path d="M85.918 41.0509L86.3867 41.6251L86.2344 42.34L85.6133 45.1173L85.5664 45.34L85.4492 45.5392L83.9609 48.1525L83.6094 48.7501L82.9414 48.879L80.3164 49.3712L78.9453 49.6407L78.582 48.2931L78.5469 48.1759L80 47.7892L80.0117 47.7775L79.7539 46.4298L81.6992 46.0548L82.7305 44.2501L83.1406 42.3986L81.8516 40.84L81.2891 40.1603L81.6055 39.3517L81.6406 39.2579L83.0352 39.7853L83.082 39.797L84.1602 38.9181L85.918 41.0509Z" fill="black"/>
<path d="M60.3125 65.0587L60.3945 65.1876L60.4531 65.34L61.4375 67.9298L62.832 70.3087L64.6016 72.5353L66.6172 74.6212L68.6094 76.6486L70.9062 78.0665L73.168 79.1564L75.7344 79.1915L78.6992 78.9806L78.8164 78.9689L78.9336 78.9806L80.1172 79.0626L79.8828 82.0626L78.8047 81.9689L75.9453 82.2032H75.8047L72.8047 82.1564H72.4766L72.1836 82.004L69.582 80.7618L69.5117 80.7267L69.4414 80.6798L66.875 79.0978L66.7227 79.004L66.5938 78.8751L64.4844 76.7306H64.4727V76.7189L62.3984 74.5743L62.3516 74.5275L62.3047 74.4689L60.4414 72.1251L60.3711 72.0431L60.3242 71.9493L58.7891 69.3478L58.7305 69.2423L58.6836 69.1251L57.6523 66.4064L58.625 66.0314L59 65.7853L60.2539 64.965L60.3125 65.0587Z" fill="black"/>
<path d="M64.9961 28.7853L65.0664 29.0079L65.9102 29.9337L63.7773 31.8556L63.6602 31.9611L63.5312 32.0431L60.9766 33.5314L60.7773 33.6486L60.5547 33.6954L57.625 34.3517L57.2852 34.4337L56.957 34.3517L54.5898 33.7892L52.5859 33.3204L53.6523 31.5509L53.7109 31.4454L54.9766 32.2072L55.2812 30.8712L57.3086 31.3517L59.6406 30.8126L61.9023 29.5118L63.8945 27.7072L64.1289 27.4962L64.4219 27.4025L64.5156 27.3673L64.9961 28.7853Z" fill="black"/>
<path d="M66.4648 48.4806L67.25 51.2579V51.2697L68.0469 54.1525L68.0586 54.1759L68.0703 54.2111L68.7383 57.1407L68.75 57.1993V57.2462L69.207 60.2111L69.2188 60.2697V60.3165L69.4531 63.1407L70.3555 65.7072L71.375 68.1329L73.0273 69.5978L73.8477 70.3243L73.4023 71.3204L73.3672 71.3907L71.9961 70.7814L71.9727 70.7697L71.0352 71.8478L69.1367 70.1603L68.8789 69.9376L68.75 69.6212L67.5898 66.879L67.5664 66.8322L67.5547 66.7853L66.5586 63.9376L66.5 63.7618L66.4883 63.5743L66.2422 60.6681L65.7852 57.7032H65.7734L65.1406 54.879V54.8673L64.3555 52.0665L63.582 49.2892L63.5703 49.254L63.5352 49.1134L66.4648 48.4572V48.4806Z" fill="black"/>
<path d="M55.2305 52.9259L55.207 52.9845L56.2031 53.2072L55.6055 55.8673L55.582 55.9493L55.5586 56.0197L54.5859 58.8556L54.5742 58.8907L54.5508 58.9376L53.3906 61.7267L53.2734 61.9962L50.9297 64.34L50.7773 64.504L50.5664 64.6095L47.918 65.9923L47.8242 66.0392L47.7305 66.0743L44.9297 67.0939L44.6953 67.1759H44.4375L41.4492 67.1993L41.4609 67.2111L38.4609 67.3048H38.168L37.8867 67.1993L35.2734 66.2032L34.043 65.7228L34.3594 64.4454L35.0273 61.6681L35.2617 60.672L36.2812 60.5431L39.0703 60.1564L41.5664 59.2072L43.8984 57.7189L46.3359 55.9962L46.3477 55.9845L46.3711 55.9728L48.8438 54.297H48.8555L51.3398 52.6212L52.8516 51.5079L55.7461 49.3517L55.2305 52.9259ZM50.5195 56.7931L48.0586 58.4337L48.0703 58.4454L45.6328 60.1681L45.6094 60.1915L45.5859 60.2032L43.0664 61.8204L42.9375 61.9142L42.7852 61.9728L39.9727 63.0275L39.8203 63.0861L39.6445 63.1095L37.6992 63.3673L37.582 63.8712L38.6719 64.2931L41.3672 64.2111H41.4023L44.1562 64.1759L46.5352 63.3204L48.9609 62.0548L50.7422 60.2736L51.75 57.8712L52.5938 55.3868L50.5195 56.7931Z" fill="black"/>
<path d="M46.7422 45.422L47.9961 45.7853L49.4375 46.2072L49.4141 46.3009L49.3906 46.3595L49.3789 46.4181L48.3945 48.9611L47.668 51.8322L47.0117 54.7736V54.8087L47 54.8439L46.2031 57.7384L46.1914 57.8087L46.1562 57.879L45.2422 60.2814L44 59.8009L43.6484 61.2423L43.4844 61.2072L41.8203 60.8087L42.4414 59.2032L43.332 56.8712L44.082 54.1173L44.75 51.1876V51.1525L45.4883 48.2345L45.5 48.1525L45.5352 48.0587L46.5547 45.3634V45.3751L46.5664 45.3517L46.7422 45.422Z" fill="black"/>
<path d="M68.1641 19.8009L68.3633 19.8361L68.5391 19.9064L71.0938 21.0197L71.5742 21.2306L71.8203 21.6993L73.2031 24.3361L73.2734 24.4767L74.3398 27.1368L75.6055 29.7032L77.2695 31.9884L79.0859 34.2853L81.0312 36.5704L81.1602 36.7228L81.2539 36.9103L81.3594 37.1564L80 37.7892L79.1211 38.1759L78.7461 38.5157L78.6406 38.3986V38.4103L78.6172 38.3634L76.8008 36.2306L76.7891 36.2072L76.7656 36.1954L74.9141 33.8517L74.8906 33.8282L74.8789 33.8048L73.1094 31.379L73.0273 31.2736L72.9688 31.1564L71.6445 28.4728L71.6211 28.4142L71.5977 28.3673L70.543 25.7306L69.3945 23.5509L67.5078 22.7306L64.8477 22.3322L64.4023 22.2736L64.0742 21.9689L63.9922 21.8986L65 20.7853L65.0938 20.6798L65.293 19.3673L68.1641 19.8009Z" fill="black"/>
<path d="M57.9102 11.7853L58.0859 11.8673L59.3633 11.8322L59.4336 14.7032L59.4453 14.9376L59.375 15.1603L58.5664 17.9728L58.4727 18.2775L58.2617 18.5353L57.7695 19.0978L59.4102 18.8751L59.4453 18.8634H59.4805L62.4688 18.5822L64.7891 18.2775L66.125 18.1017L66.4414 19.4142L66.4531 19.4845L64.9883 19.8361L65.1758 21.254L62.7969 21.5704H62.7383L59.75 21.8517L59.7383 21.84L56.8438 22.2501L56.7031 22.2736H56.5625L53.5508 22.1329L48.0312 21.8868L52.918 19.3087L54.2305 18.6056L55.7656 16.8126L56.4336 14.5509L56.3633 11.9142L56.3516 11.5509L56.5156 11.2345L56.5508 11.1407L57.9102 11.7853Z" fill="black"/>
<path d="M44.0586 30.2853L44.0938 31.7853L45.4766 31.8204L45.418 34.0118L45.8984 34.6564L47.4219 33.8361L47.5508 33.7657L47.6797 33.7306L50.4453 32.8282L50.9375 32.6759L51.418 32.8517L51.5117 32.8868L50.9961 34.2931L50.9492 34.4103L51.3711 35.6876L48.7461 36.5197L46.2031 37.9142L45.0664 38.5236L44.293 37.4923L42.7109 35.4181L42.3945 34.9962L42.4062 34.4689L42.4766 31.7501L42.5117 30.3204L43.9297 30.2853H44.0586Z" fill="black"/>
<path d="M63.9531 43.3907L66.6016 44.7501L67.6914 45.3009L67.3633 46.4845L66.625 49.1447L65.2773 48.7697V48.7814L64.75 50.1876L64.6562 50.1525L63.3672 49.6603L63.7422 48.3478L64.1406 46.8595L63.0977 46.3204L60.7656 46.965L60.6719 46.9884L60.5781 47.0001L57.5898 47.3986L57.4727 47.422L57.3555 47.4103L54.4844 47.3282L51.6836 47.8322L51.6484 47.8439H51.6133L48.6836 48.2189L46.2695 48.629L45.0508 48.84L44.6172 47.6681L44.5938 47.6095L46 47.0822V47.0704L45.7773 45.6759L48.1914 45.2657H48.2266L48.25 45.254L51.2266 44.8673L54.1211 44.3517L54.2734 44.3282H54.4258L57.2969 44.422L60.1211 44.0353L62.8633 43.2736L63.4258 43.1212L63.9531 43.3907Z" fill="black"/>
<path d="M52.0312 60.6954L52.1602 60.8009L52.2656 60.9298L54.0234 63.2032H54.0117L55.4297 64.9845L57.1641 65.1837L58.5 65.3243V66.7775H56.9883L56.8359 68.1603L54.4805 67.9025L53.8594 67.8322L53.4727 67.34L51.6562 65.0548L51.6445 65.0431L49.8867 62.7697L50.7188 62.1251L51 61.7853L51.9609 60.6368L52.0312 60.6954Z" fill="black"/>
<path d="M82.1562 35.8243L82.2266 35.9181L81.0078 36.7736L81.9688 37.7697L80.5508 39.129L79.4375 41.4025L78.875 44.0743L78.5352 46.8751L78.5117 47.0626L78.4062 47.3439L77.0117 46.7814L76.6602 46.6407L75.5586 46.5118L75.9102 43.6407V43.5822L75.9336 43.5118L76.5547 40.6056L76.5898 40.4298L76.6719 40.2657L77.9844 37.5704L78.1016 37.3243L78.2891 37.1368L79.8945 35.6017L81.1484 34.3947L82.1562 35.8243Z" fill="black"/>
<path d="M95.3164 114.254L97.8945 114.605L100.273 114.711L102.793 114.277L102.91 114.266H103.027L105.664 114.242H105.816L105.969 114.266L108.406 114.746L110.809 114.5L110.891 114.488H110.973L112.016 114.5L112.004 116L111.98 117.5L110.984 117.488L108.477 117.746L108.254 117.77L108.031 117.734L105.57 117.242L103.145 117.254L100.648 117.688L100.496 117.711L100.332 117.699L97.6953 117.594H97.625L97.5547 117.582L95.1523 117.242L92.7617 117.711L92.5273 117.758L92.293 117.734L89.7383 117.406L87.207 117.418L87.1953 117.406L84.6055 117.488H84.5938L81.957 117.547H81.9336L79.3672 117.559L79.3789 117.57L76.7422 117.746L76.5547 117.758L73.9297 117.266L71.5391 117.547L71.4102 117.559H71.2812L68.7266 117.418L66.1719 117.582H66.043L65.9141 117.57L63.418 117.289L60.957 117.559H60.8867L58.25 117.711L58.0977 117.723L57.957 117.699L55.4141 117.348L52.9062 117.406H52.8477L50.2109 117.348V117.336H47.5742L44.9492 117.289L42.4531 117.512L42.418 117.523H42.3711L39.7344 117.617H39.6172L36.9805 117.512V117.5L34.3906 117.488H34.3438L34.2969 117.477L31.7188 117.301L29.1875 117.43H29.1055L26.4688 117.418V117.406L23.9609 117.43L21.3242 117.664L21.1836 117.676L21.0312 117.664L18.5 117.383L15.9219 117.395V117.383L13.3789 117.559H13.3672L13.3555 117.57L10.707 117.688L10.6133 117.699L10.5312 117.688L7.98828 117.5L8 117.277V114.5H8.21094L10.6719 114.699L13.1797 114.582V114.57L15.8164 114.395H15.9102L18.5469 114.383L18.6406 114.371L18.7227 114.383L21.2305 114.664L23.7148 114.453L23.7617 114.441H23.8203L26.4688 114.418H26.4922L29.0469 114.43L31.6953 114.312L31.7773 114.301L31.8594 114.312L34.5078 114.488L34.4961 114.5L37.0508 114.512H37.0977L39.6875 114.617L42.1836 114.535L44.832 114.289H44.9844L47.6211 114.336L47.6094 114.348H50.2695L52.8711 114.406L55.4844 114.348H55.6133L55.7305 114.359L58.2148 114.723L60.7109 114.559V114.57L63.2891 114.289L63.4414 114.277L63.6055 114.289L66.0898 114.582L68.6328 114.43L68.7148 114.418L68.7969 114.43L71.3281 114.559L73.8242 114.266L74.0586 114.23L74.2812 114.277L76.7305 114.734L79.1797 114.582L79.2266 114.57H79.2617L81.8867 114.559V114.547L84.5234 114.488L87.1602 114.418H87.1953L89.832 114.406H89.9375L90.0312 114.418L92.4219 114.734L94.8359 114.266L95.082 114.219L95.3164 114.254Z" fill="black"/>
</svg>
