<svg width="120" height="120" viewBox="0 0 120 120" fill="none" xmlns="http://www.w3.org/2000/svg">
<path d="M23.1758 14H26V14.2109L25.8008 16.6719L25.918 19.1797H25.9297L26.1055 21.8164V21.9961L26.7695 22.1211L27.1797 22.1914L27.4961 22.4727L29.4883 24.2656L29.8867 24.6172L29.9688 25.1445L30.2031 26.5859L30.4961 26.6211V30.1953L29.6934 29.8828L29.7129 31.0156L29.7139 31.0938L29.707 31.1719L29.4766 33.7705L29.3818 36.3145L29.4688 38.46L31.4365 38.5605L32.3447 38.6064L32.7236 39.4336L33.6133 41.375L33.8115 41.8086L33.7236 42.2773L33.2607 44.7324L33.4238 47.1807L33.4268 47.2227V47.2637L33.4561 49.9033L33.4551 49.9043L33.5137 52.5273L33.5127 52.5283L33.5869 55.1582V55.1758L33.5879 55.1934L33.5986 57.834L33.5996 57.9336L33.5859 58.0322L33.2754 60.4355L33.7363 62.8379L33.7822 63.0781L33.749 63.3203L33.4023 65.8877L33.3008 68.3066L33.6885 70.6113L35.334 70.6914L36.4043 70.6094L36.3994 70.5H36.5596L36.5439 69.0967L36.5449 69.0957L36.4863 66.4727L36.4873 66.4717L36.4131 63.8418V63.8242L36.4121 63.8066L36.4014 61.166L36.4004 61.0664L36.4141 60.9678L36.7383 58.4541L36.6211 55.8037L36.542 54.0107L38.3203 54.251L40.8867 54.5967L43.3057 54.6982L45.791 54.2812L45.9092 54.2607L46.0293 54.2598L47.54 54.249L47.7373 53.5479L47.4971 51.1924L47.3174 49.4307L49.085 49.543L51.5459 49.6992L54.0381 49.3604L54.2373 49.334L54.4375 49.3604L56.9883 49.6992L58.4844 49.7148L58.0586 49.5938L58.1055 49.3711V46.9219L57.9414 44.3789V44.3672L57.9297 44.3555L57.9102 43.915L57.8672 43.918V43.9297L56.1562 44.1055L54.5039 44.2695V42.5H55.9922L55.8516 41.1172L57.5625 40.9414H57.6094L57.6445 40.9297L57.8574 40.9199L58 38.9883L58.1758 39H61V39.2109L60.8672 40.8418L63.0117 41L63 41.1406V44H62.7891L60.9023 43.8467L60.918 44.1797H60.9297L61.1055 46.8164V46.9102L61.1162 49.4307L61.9082 49.2959L62.0215 49.2764L62.1377 49.2754L64.7773 49.2354L64.8857 49.2334L64.9941 49.248L67.4795 49.5723L69.9629 49.3779L70.9854 49.2979L71.4307 50.2207L72.3223 52.0684L72.459 52.3506L72.4707 52.6641L72.543 54.6094L73.6602 54.6904L76.208 54.5684L78.8203 54.3936L78.8662 54.3906H78.9121L81.5527 54.377L82.8945 54.3701L83.0498 55.7031L83.3213 58.0264L83.3242 58.0488L83.3262 58.0723L83.4014 58.9492L83.5039 58.9531V60.1426L83.5527 60.7119L83.5576 60.7676V60.8232L83.5879 63.4629V63.4893L83.5713 66.0957L83.6924 68.6904L83.6963 68.7764L83.6904 68.8623L83.584 70.4238L85.5107 70.4121H85.5371L88.1768 70.4424H88.2324L88.2881 70.4473L90.7842 70.6621L93.2754 70.3867L93.3613 70.377H93.4473L96.0879 70.3906H96.1338L96.1797 70.3936L98.792 70.5693V70.5684L101.334 70.6914L102.404 70.6094L102.399 70.5H104V71.999L105.461 71.9385L105.569 74.5791L105.571 74.6377L105.569 74.6963L105.473 77.2676L105.624 79.832L105.631 79.9346L105.622 80.0371L105.428 82.5195L105.752 85.0059L105.767 85.1143L105.765 85.2227L105.725 87.8623L105.724 87.9785L105.704 88.0918L105.275 90.6025L105.301 93.0107L105.64 95.5625L105.666 95.7627L105.64 95.9619L105.303 98.4395L105.505 100.918L105.517 101.055L105.503 101.192L105.256 103.609L105.731 106.031L105.761 106.18L105.759 106.331L105.74 108.971L105.739 109.091L105.719 109.209L105.301 111.693L105.405 114.178L105.407 114.244L105.664 114.242H105.816L105.969 114.266L108.406 114.746L110.809 114.5L110.891 114.488H110.973L112.016 114.5L112.004 116L111.98 117.5L110.984 117.488L108.477 117.746L108.254 117.77L108.031 117.734L105.57 117.242L104.346 117.248L104.065 117.971L102.838 117.736L101.663 117.511L100.648 117.688L100.496 117.711L100.332 117.699L97.8154 117.598L95.1934 117.588L95.1758 117.587H95.1582L93.6152 117.543L92.7617 117.711L92.5273 117.758L92.293 117.734L90.1631 117.46L89.9043 117.455L89.9033 117.456L87.2637 117.427H87.2227L87.1807 117.424L87.0059 117.412L84.6055 117.488H84.5938L81.957 117.547H81.9336L81.2266 117.55L80.0479 117.651L80.0586 117.555L79.3672 117.559L79.3789 117.57L76.7422 117.746L76.5547 117.758L75.8076 117.617L75.209 117.719L75.0908 117.739L74.9707 117.74L72.3311 117.759L72.1797 117.761L72.0312 117.731L71.0996 117.548L68.7266 117.418L66.1719 117.582H66.043L65.9141 117.57L64.0312 117.357L61.9619 117.64L61.7627 117.666L61.5625 117.64L60.9521 117.559H60.8867L58.25 117.711L58.0977 117.723L57.957 117.699L55.8369 117.405L54.0918 117.704L53.9785 117.724L53.8623 117.725L51.2227 117.765L51.1143 117.767L51.0059 117.752L48.5195 117.428L46.0371 117.622L45.9346 117.631L45.832 117.624L43.2676 117.473L42.6162 117.497L42.4531 117.512L42.418 117.523H42.3711L39.7344 117.617H39.6172L38.2236 117.561L38.0654 117.971L36.8379 117.736L35.5723 117.493L34.3906 117.488H34.3438L34.2969 117.477L33.3682 117.413L32.0322 117.586L31.9336 117.6L31.834 117.599L29.1934 117.588L29.1758 117.587H29.1582L26.5283 117.513L26.5273 117.514L23.9043 117.455L23.9033 117.456L23.6904 117.453L21.3242 117.664L21.1836 117.676L21.0312 117.664L18.5 117.383L17.1025 117.389L15.8789 117.494L14.0479 117.651L14.0635 117.511L13.3789 117.559H13.3672L13.3555 117.57L10.707 117.688L10.6133 117.699L10.5312 117.688L7.98828 117.5L8 117.277V114.5H8.21094L10.6719 114.699L13.1797 114.582V114.57L14.417 114.487L14.5547 113.309L14.4258 110.797L14.4209 110.713L14.4258 110.63L14.5771 108.119L14.293 105.608L14.2744 105.446L14.292 105.283L14.5654 102.684L14.7119 100.219L14.3643 97.7266L14.3477 97.6084L14.3506 97.4883L14.4043 94.8789L14.3477 92.2734L14.3467 92.2607V92.249L14.3311 89.625L14.2871 86.9844L14.2861 86.9062L14.293 86.8281L14.5234 84.2285L14.6182 81.6846L14.5127 79.1016L14.5107 79.0547L14.4863 76.4492L14.3096 73.8623L14.2773 73.4004L14.5117 73.001L14.7109 72.6592L14.667 72.2041L14.4189 69.666L14.4121 69.5879V69.5107L14.4287 66.9043L14.3076 64.3096L14.3037 64.2236L14.3096 64.1377L14.4863 61.5508L14.5107 58.9453L14.5127 58.8984L14.6182 56.3154L14.5234 53.7715L14.293 51.1719L14.2861 51.0938L14.2871 51.0156L14.3311 48.375L14.3467 45.751V45.7393L14.3477 45.7266L14.4043 43.1211L14.3506 40.5117L14.3223 39.1445L15.6807 38.9893L17.9902 38.7266L18.0312 38.7227L18.0713 38.7197L18.4092 38.6992L18.4121 38.4629L18.4424 35.8232V35.7676L18.4473 35.7119L18.6621 33.2158L18.3867 30.7246L18.3711 30.5859L18.3818 30.4463L18.457 29.4492L17.4062 29.457L17.6406 27.7344L17.9805 25.3086L18.0625 24.7344L18.5078 24.3711L20.5234 22.6719L20.7695 22.4727L21.0742 22.3789L23.0967 21.7852L22.9414 19.3789V19.3672L22.9297 19.3555L22.8125 16.707L22.8008 16.6133L22.8125 16.5312L23 13.9883L23.1758 14ZM68.957 78.0586H68.8867L66.25 78.2109L66.0977 78.2227L65.957 78.1992L63.4141 77.8594L60.9062 77.9062H60.8477L58.2109 77.8477L55.5859 77.8359H55.5742L52.9492 77.8008L50.4531 78.0117L50.418 78.0234H50.3711L47.7344 78.1172H47.6172L44.9805 78.0117V78L42.3906 77.9883H42.3438L42.2969 77.9766L39.7188 77.8125L39.5059 77.8223V77.8301L39.624 79.832L39.6309 79.9346L39.6221 80.0371L39.4863 81.7598L39.5352 83.3438L39.752 85.0059L39.7666 85.1143L39.7646 85.2227L39.7246 87.8623L39.7236 87.9785L39.7041 88.0918L39.542 89.0381L39.5801 89.4688L39.582 89.4873L39.583 89.5068L39.748 92.1465L39.7578 92.3027L39.7354 92.457L39.4678 94.2744L39.6396 95.5625L39.666 95.7627L39.6396 95.9619L39.4473 97.3711L39.4512 97.4707L39.4541 97.54L39.4492 97.6104L39.3574 99.1152L39.5049 100.918L39.5166 101.055L39.5029 101.192L39.4209 101.994L39.4668 102.665L39.7051 105.305L39.7109 105.372L39.7119 105.438V105.934L39.7314 106.031L39.7607 106.18L39.7588 106.331L39.7402 108.971L39.7393 109.091L39.7188 109.209L39.6738 109.472L39.6377 110.763L39.6367 110.812L39.6318 110.863L39.3887 113.395L39.4385 114.52L40.6445 114.568L42.5635 114.496L42.6992 112.816L42.5703 110.32L42.3945 107.684V107.59L42.3828 104.953L42.3711 104.859L42.3828 104.777L42.6641 102.258L42.4531 99.7852L42.4414 99.7383V99.6797L42.418 97.0312L42.4062 96.9609L42.418 96.8906L42.6523 94.2539V94.1602L42.6758 94.0781L43.2031 91.4766L43.2383 91.2656L43.3438 91.0781L44.5625 88.7227L44.5977 88.6406L44.6445 88.582L46.1094 86.3789L46.1914 86.2617L46.2969 86.1562L48.1484 84.293L48.2422 84.1992L50.2461 82.5L50.3047 82.4531L50.3867 82.4062L52.6016 80.9297L52.7656 80.8125L52.9648 80.7539L55.4961 79.9102L55.6133 79.875L55.7188 79.8633L58.3555 79.4297L58.4844 79.4062H58.625L61.2852 79.4531H61.3672L61.4609 79.4648L64.0977 79.8398L64.332 79.8633L64.5547 79.9805L66.8867 81.1406L69.2656 82.2422L69.3477 82.2773L69.4297 82.3242L71.6914 83.7188L71.9375 83.8711L72.1133 84.1055L73.6953 86.2383L75.2891 88.3477L75.4062 88.5117L75.4883 88.7109L76.4375 91.1719L77.4102 93.6562L77.5391 93.9961L77.5039 94.3477L77.2578 96.8789L77.4219 99.4102V99.4922L77.457 102.117L77.5156 104.754L77.5859 107.391V107.426L77.5977 110.062V110.168L77.5859 110.262L77.2695 112.652L77.5879 114.293L77.6631 114.297L79.9883 114.394L80.4482 114.214L80.4912 113.848L80.2393 112.526L80.2695 112.287L80.4355 110.998L80.4258 110.797L80.4209 110.713L80.4258 110.63L80.5771 108.119L80.293 105.608L80.2744 105.446L80.292 105.283L80.4873 103.419L80.4561 101.953V101.937L80.4268 99.3242L80.2559 96.7393L80.2432 96.5498L80.2783 96.3623L80.3848 95.792L80.4043 94.8789L80.3477 92.2734L80.3467 92.2607V92.249L80.3311 89.625L80.2871 86.9844L80.2861 86.9062L80.293 86.8281L80.5234 84.2285L80.5928 82.3486L80.4473 80.957L80.4434 80.9229L80.4414 80.8887L80.2852 78.249L80.2764 78.1006L80.2949 77.9609L79.5391 78.0469L79.4102 78.0586H79.2812L76.7266 77.9297L74.1719 78.082H74.043L73.9141 78.0703L71.418 77.8008L68.957 78.0586ZM61.3789 103.059H61.3672L61.3555 103.07L58.707 103.188L58.6133 103.199L58.5312 103.188L57.5332 103.113L57.3828 104.449L57.3945 107.074L57.5586 109.617V109.629L57.5703 109.652L57.6875 112.289L57.6992 112.383L57.6875 112.477L57.5537 114.286L59.1357 114.303L59.2266 114.304L59.3174 114.315L60.999 114.538L62.5742 114.366L62.6328 113.988L62.5977 111.48V111.422L62.6562 108.809L62.668 106.16V106.148L62.7148 103.664L62.6533 102.973L61.3789 103.059ZM91.3086 95.2383L90.4766 96.8789L90.4414 99.0352L90.6641 101.672L90.6758 101.812L90.6641 101.965L90.3828 104.449L90.3945 107.074L90.5586 109.617V109.629L90.5703 109.652L90.6875 112.289L90.6992 112.383L90.6875 112.477L90.54 114.468L92.5928 114.514L92.6016 114.515L93.4336 114.537L94.8359 114.266L95.082 114.219L95.3164 114.254L95.5859 114.29L95.6328 113.988L95.5977 111.48V111.422L95.6562 108.809L95.668 106.16V106.148L95.7148 103.664L95.4805 101.027V100.945L95.3867 98.3672L95.2109 96.2227L94.168 94.8867L92.6914 94.4414L91.3086 95.2383ZM56.293 82.793L54.1016 83.5312L52.0508 84.9023L50.1758 86.4961L48.5352 88.1367L47.2227 90.1055L46.1094 92.25L45.6289 94.5938L45.4062 97.1484L45.4414 99.5273L45.6641 102.176L45.6758 102.316L45.6641 102.469L45.3828 104.953L45.3945 107.578L45.5586 110.121V110.133L45.5703 110.145L45.6875 112.793L45.6992 112.887L45.6875 112.969L45.5889 114.3L47.6211 114.336L47.6094 114.348H48.5352L48.6992 112.312L48.5703 109.816L48.3945 107.18V107.086L48.3828 104.449L48.3711 104.355L48.3828 104.273L48.6641 101.754L48.4531 99.293L48.4414 99.2227V99.1641L48.4297 96.5156V96.3633L48.4648 96.2227L48.9805 93.6211L49.0156 93.4688L49.0742 93.3281L50.1172 90.8672L50.2344 90.6094L50.4336 90.4102L52.2969 88.5L52.4023 88.3945L52.5312 88.3008L54.7109 86.8359L54.8984 86.707L55.1094 86.6367L57.6172 85.875L57.7461 85.8398L57.8984 85.8281L60.5 85.5469L60.6641 85.5352L60.8281 85.5469L63.4766 85.8516L63.7578 85.8867L64.0039 86.0156L66.3828 87.2695L66.5469 87.3633L66.6875 87.4922L68.668 89.2852L68.8203 89.4258L68.9258 89.6016L70.332 91.8633L70.4258 92.0039L70.4727 92.1562L71.3633 94.6758L71.4688 94.957L71.457 95.2734L71.2812 97.8398L71.4336 100.312L71.7031 102.949L71.7266 103.113L71.7031 103.277L71.4102 105.82L71.5742 108.293V108.469L71.4453 111L71.7383 113.496L71.7852 113.859L71.6562 114.199L71.5283 114.534L73.8242 114.266L74.0586 114.23L74.2812 114.277L74.5352 114.324L74.2812 112.992L74.2344 112.758L74.2695 112.523L74.5859 109.969V107.473L74.5156 104.836V104.824L74.457 102.188V102.164L74.4219 99.5273V99.5156L74.2578 96.9727L74.2461 96.8555L74.2578 96.7266L74.4805 94.4062L73.6484 92.25L72.7578 89.9883L71.3047 88.043L71.293 88.0312L69.8516 86.1094L67.9297 84.9258L65.6328 83.8711L63.4297 82.7695L61.1211 82.4414L58.6719 82.4062L56.293 82.793ZM21.3789 78.0586H21.3672L21.3555 78.0703L18.707 78.1875L18.6133 78.1992L18.5312 78.1875L17.502 78.1113L17.5107 78.9951L17.6182 81.6182L17.6201 81.6777L17.6182 81.7363L17.5195 84.376L17.5176 84.4141L17.5146 84.4521L17.2891 87.0107L17.3301 89.5752V89.583L17.3311 89.5908L17.3467 92.207L17.4043 94.8467L17.4053 94.8789L17.4043 94.9111L17.3525 97.4297L17.7031 99.9531L17.7236 100.101L17.7148 100.249L17.5586 102.889L17.5566 102.923L17.5527 102.957L17.293 105.432L17.5732 107.911L17.5879 108.04L17.5801 108.17L17.4268 110.725L17.5566 113.283L17.5625 113.409L17.5479 113.533L17.4531 114.349L18.5117 114.258L18.625 114.248L18.7393 114.256L21.3252 114.427L21.5283 114.429L21.6992 112.312L21.5703 109.816L21.3945 107.18V107.086L21.3828 104.449L21.3711 104.355L21.3828 104.273L21.6641 101.754L21.4531 99.293L21.4414 99.2109V99.1406L21.4883 96.4805V96.1406L21.6523 95.8242L22.8477 93.4688L23.0586 93.0703L23.457 92.8477L25.7891 91.5234L26.3516 91.2188L26.9609 91.3945L29.5039 92.1797L29.9609 92.3086L30.2539 92.6836L31.8594 94.7344L32.1406 95.0859L32.1758 95.5312L32.375 98.1328V98.1914L32.4805 100.84L32.7031 103.395L32.7148 103.477V103.559L32.668 106.195L32.6562 108.82V108.844L32.5977 111.48L32.6445 114.059L32.6562 114.199L32.6328 114.34L32.6279 114.363L33.2432 114.404L34.2871 114.27L34.5264 114.239L34.7617 114.284L35.9268 114.506L36.1924 114.507L36.3945 113.988L36.2969 111.663L36.29 111.506L36.3164 111.352L36.6816 109.176L36.7139 108.081L36.7129 106.23L36.2695 103.969L36.2266 103.75L36.249 103.527L36.4102 101.945L36.2959 100.262L36.29 100.166L36.2959 100.069L36.3506 99.1504L36.2998 98.5225L36.2861 98.3594L36.3086 98.1982L36.4414 97.2188L36.3652 94.9297L36.3613 94.7959L36.3809 94.6631L36.4404 94.2559L36.3154 93.3174L36.3037 93.2266L36.3027 93.1357L36.2754 90.4961L36.2734 90.3613L36.2959 90.2275L36.5195 88.9121L36.3604 87.0908L36.3496 86.9658L36.3594 86.8408L36.5625 84.29L36.54 83.5742L36.4336 82.7539L36.4131 82.5986L36.4248 82.4434L36.4834 81.6885L36.3867 79.0957L36.3828 78.9971L36.3926 78.8994L36.4834 77.9268L34.4688 77.918L31.9609 77.9414L29.3242 78.1641L29.1836 78.1758L29.0312 78.1641L26.5 77.8945H23.9219L21.3789 78.0586ZM58.332 88.7812L56.1992 89.4375L54.3242 90.7148L52.7539 92.3086L51.875 94.3828L51.4297 96.6797L51.4414 99.0352L51.6641 101.672L51.6758 101.812L51.6641 101.965L51.3828 104.449L51.3945 107.074L51.5586 109.617V109.629L51.5703 109.652L51.6875 112.289L51.6992 112.383L51.6875 112.477L51.5469 114.376L52.8711 114.406L54.5332 114.368L54.6992 112.312L54.5703 109.816L54.3945 107.18V107.086L54.3828 104.449L54.3711 104.355L54.3828 104.273L54.6641 101.754L54.4531 99.293L54.4414 99.2109V99.1406L54.4883 96.4805V96.1406L54.6523 95.8242L55.8477 93.4688L56.0586 93.0703L56.457 92.8477L58.7891 91.5234L59.3516 91.2188L59.9609 91.3945L62.5039 92.1797L62.9609 92.3086L63.2539 92.6836L64.8594 94.7344L65.1406 95.0859L65.1758 95.5312L65.375 98.1328V98.1914L65.4805 100.84L65.7031 103.395L65.7148 103.477V103.559L65.668 106.195L65.6562 108.82V108.844L65.5977 111.48L65.6445 114.059L65.6562 114.199L65.6328 114.34L65.624 114.39L67.0205 114.504L68.3926 114.364L68.7148 113.473L68.457 111.199L68.4336 111.082L68.4453 110.953L68.5742 108.387L68.4219 105.844L68.4102 105.715L68.4219 105.586L68.7031 103.09L68.4453 100.629V100.559L68.2812 97.9219V97.7344L68.4336 95.3789L67.6953 93.3164L66.4883 91.3711L64.8008 89.8242L62.8555 88.8047L60.6289 88.5469L58.332 88.7812ZM100.762 78.2109L100.527 78.2578L100.293 78.2344L97.7383 77.918H95.1953L92.6055 77.9883H92.5938L89.957 78.0469H89.9336L87.3672 78.0586L87.3789 78.0703L84.7422 78.2461L84.5547 78.2578L84.3672 78.2227L83.501 78.0645L83.5107 78.9951L83.6182 81.6182L83.6201 81.6777L83.6182 81.7363L83.5986 82.2471L83.708 83.2832L83.7256 83.4463L83.707 83.6084L83.4229 86.1191L83.5742 88.6299L83.5791 88.7129L83.5742 88.7969L83.4453 91.3086L83.7393 93.8262L83.7656 94.0527L83.7236 94.2773L83.3789 96.0996L83.3525 97.4297L83.7031 99.9531L83.7236 100.101L83.7148 100.249L83.5586 102.889L83.5566 102.923L83.5527 102.957L83.4912 103.539L83.5137 104.527H83.5127L83.5869 107.158V107.176L83.5879 107.193L83.5986 109.834L83.5996 109.934L83.5859 110.032L83.4463 111.111L83.5566 113.283L83.5625 113.409L83.5479 113.533L83.5244 113.733L83.6387 114.332L84.5117 114.258L84.625 114.248L84.7393 114.256L87.1924 114.418H87.1953L87.5293 114.416L87.6992 112.312L87.5703 109.816L87.3945 107.18V107.086L87.3828 104.449L87.3711 104.355L87.3828 104.273L87.6641 101.754L87.4531 99.293L87.4414 99.2109V99.1406L87.4883 96.4805V96.1406L87.6523 95.8242L88.8477 93.4688L89.0586 93.0703L89.457 92.8477L91.7891 91.5234L92.3516 91.2188L92.9609 91.3945L95.5039 92.1797L95.9609 92.3086L96.2539 92.6836L97.8594 94.7344L98.1406 95.0859L98.1758 95.5312L98.375 98.1328V98.1914L98.4805 100.84L98.7031 103.395L98.7148 103.477V103.559L98.668 106.195L98.6562 108.82V108.844L98.5977 111.48L98.6445 114.059L98.6562 114.199L98.6328 114.34L98.6074 114.486L100.287 114.27L100.526 114.239L100.762 114.284L101.706 114.464L102.245 114.371L102.395 113.988L102.297 111.663L102.29 111.506L102.316 111.352L102.741 108.827L102.758 106.459L102.27 103.969L102.227 103.75L102.249 103.527L102.505 101.021L102.3 98.5225L102.286 98.3594L102.309 98.1982L102.641 95.7588L102.315 93.3174L102.304 93.2266L102.303 93.1357L102.275 90.4961L102.273 90.3613L102.296 90.2275L102.728 87.6973L102.764 85.2842L102.434 82.7539L102.413 82.5986L102.425 82.4434L102.624 79.9043L102.503 77.8779L100.762 78.2109ZM25.3086 95.2383L24.4766 96.8789L24.4414 99.0352L24.6641 101.672L24.6758 101.812L24.6641 101.965L24.3828 104.449L24.3945 107.074L24.5586 109.617V109.629L24.5703 109.652L24.6875 112.289L24.6992 112.383L24.6875 112.477L24.543 114.435L26.4688 114.418H26.4922L29.0469 114.43L29.5684 114.406L29.6328 113.988L29.5977 111.48V111.422L29.6562 108.809L29.668 106.16V106.148L29.7148 103.664L29.4805 101.027V100.945L29.3867 98.3672L29.2109 96.2227L28.168 94.8867L26.6914 94.4414L25.3086 95.2383ZM58.3086 95.2383L57.4766 96.8789L57.4414 99.0352L57.5312 100.106L58.6719 100.199L61.1797 100.082V100.07L62.4453 99.9854L62.3867 98.3672L62.2109 96.2227L61.168 94.8867L59.6914 94.4414L58.3086 95.2383ZM90.9648 73.6592L90.8184 73.6758L90.6719 73.6631L88.0947 73.4414L85.5127 73.4121L83.7422 73.4229L83.6104 73.6455L83.6396 75.0303L84.7305 75.2344L87.1797 75.082L87.2266 75.0703H87.2617L89.8867 75.0586V75.0469L92.5234 74.9883L95.1602 74.918H95.1953L97.832 74.9062H97.9375L98.0312 74.918L100.422 75.2344L102.562 74.8184L102.569 74.6445L102.527 73.6084L101.474 73.6895L101.381 73.6963L101.288 73.6914L98.6484 73.5654L98.6338 73.5645L98.6201 73.5635L96.0205 73.3896L93.5215 73.377L90.9648 73.6592ZM74.7705 73.4766L72.1719 73.707L72.0938 73.7139L72.0156 73.7129L69.375 73.6689V73.668L66.751 73.6533H66.7393L66.7266 73.6523L64.1182 73.5947L61.5117 73.6494L61.3916 73.6523L61.2734 73.6357L60.4385 73.5186L60.4023 73.5312L59.9688 73.6719L59.5352 73.5547L59.0801 73.4277L56.6729 73.4131L56.3154 73.4346L53.7168 73.708L53.5537 73.7256L53.3916 73.707L52.2793 73.5811L51.3281 73.6631L51.1816 73.6758L51.0352 73.6592L49.5957 73.5L48.3701 73.5742L48.2871 73.5791L48.2031 73.5742L45.6904 73.4453L43.1738 73.7393L42.9473 73.7656L42.7227 73.7236L42.1787 73.6211L40.7119 73.6914L40.6191 73.6963L40.5264 73.6895L39.5293 73.6123L39.5693 74.5791L39.5713 74.6377L39.5693 74.6963L39.5645 74.8174L39.6953 74.8125L39.7773 74.8008L39.8594 74.8125L42.5078 74.9883L42.4961 75L45.0508 75.0117H45.0977L47.6875 75.1172L50.1836 75.0352L52.832 74.7891H52.9844L55.6211 74.8359L55.6094 74.8477H58.2695L60.8711 74.9062L63.4844 74.8477H63.6133L63.7305 74.8594L66.2148 75.2227L68.7109 75.0586V75.0703L71.2891 74.7891L71.4414 74.7773L71.6055 74.7891L74.0898 75.082L76.6328 74.9297L76.7148 74.918L76.7969 74.9297L79.3281 75.0586L80.3828 74.9346L80.3096 73.8623L80.29 73.5908L80.1211 73.4971L79.8984 73.4873L77.3145 73.3818L74.7705 73.4766ZM27.208 73.4111L24.9648 73.6592L24.8184 73.6758L24.6719 73.6631L24.0488 73.6094L21.4473 73.623H21.3613L21.2754 73.6133L19.458 73.4121L17.8008 73.4219L17.7393 73.4277L17.335 74.1182L17.4004 75.0957L18.6719 75.1992L21.1797 75.082V75.0703L23.8164 74.8945H23.9102L26.5469 74.8828L26.6406 74.8711L26.7227 74.8828L29.2305 75.1641L31.7148 74.9531L31.7617 74.9414H31.8203L34.4688 74.918H34.4922L36.4268 74.9268L36.2988 73.957L36.2783 73.8008L36.29 73.6445L36.291 73.626L35.4736 73.6895L35.3809 73.6963L35.2881 73.6914L32.6484 73.5654L32.6338 73.5645L32.6201 73.5635L30.0205 73.3896L27.8828 73.3779L27.208 73.4111ZM72.4531 62.0117L72.418 62.0234H72.3711L69.7344 62.1172H69.6172L66.9805 62.0117V62L64.3906 61.9883H64.3438L64.2969 61.9766L63.9834 61.9561L65.5586 63.7109L65.8281 64.0273L65.9102 64.4258L66.3555 66.7109L65.2656 66.9219L65.3125 67.1562L66.332 67.4844L65.582 69.875L65.4883 70.1914L65.2539 70.4375L65.2021 70.4932L67.0547 70.5107L67.1016 70.5127L69.6846 70.6182L72.2285 70.5234L74.8281 70.293L74.9062 70.2861L74.9844 70.2871L77.625 70.3311L77.624 70.332L80.2432 70.3457L80.5889 70.248L80.6914 68.7363L80.5732 66.1895L80.5713 66.1504V66.1104L80.5879 63.4971L80.5684 61.8604L80.1875 61.8477L77.5859 61.8359H77.5742L74.9492 61.8008L72.4531 62.0117ZM43.3789 62.0586H43.3672L43.3555 62.0703L40.707 62.1875L40.6133 62.1992L40.5312 62.1875L39.4043 62.1035L39.4121 63.7578L39.4854 66.3984L39.4863 66.4072L39.5439 69.0469V69.0635L39.5566 70.2402L40.3809 70.252L40.5107 70.2539L40.6377 70.2783L42.3906 70.6074L43.208 70.5684V70.5693L45.8203 70.3936L45.8662 70.3906H45.9121L48.5527 70.377H48.6387L48.7246 70.3867L49.6592 70.4893L50.8301 70.4199L50.96 70.4121L51.0889 70.4268L52.3252 70.5664L53.7119 70.4473L53.7676 70.4424H53.8232L54.7266 70.4316L54.5781 70.2383L54.4258 70.0391L54.3438 69.793L53.5234 67.3438L53.3711 66.8984L53.5 66.4531L54.3438 63.5L54.6602 63.2188L56.0674 61.9209L53.9609 61.9414L51.3242 62.1641L51.1836 62.1758L51.0312 62.1641L48.5 61.8945H45.9219L43.3789 62.0586ZM21.3789 48.0586H21.3672L21.3555 48.0703L18.707 48.1875L18.6133 48.1992L18.5312 48.1875L17.332 48.0986L17.3311 48.4092L17.3301 48.417V48.4248L17.2891 50.9893L17.5146 53.5479L17.5176 53.5859L17.5195 53.624L17.6182 56.2637L17.6201 56.3223L17.6182 56.3818L17.5107 59.0049L17.4854 61.6143V61.6582L17.4824 61.7021L17.3086 64.2637L17.4268 66.8105L17.4287 66.8496V66.8896L17.4131 69.4492L17.5078 70.4238L17.6689 70.4229L18.6719 70.3369L18.8184 70.3242L18.9648 70.3408L19.6191 70.4121L22.1768 70.4424H22.2324L22.2881 70.4473L24.1113 70.6035L26.6201 70.4365L26.6338 70.4355L26.6484 70.4346L26.9893 70.418L27.2754 70.3867L27.3613 70.377H27.4473L27.8154 70.3779L29.2881 70.3086L29.3809 70.3037L29.4736 70.3105L30.6113 70.3975L30.3164 68.6484L30.29 68.4941L30.2969 68.3369L30.4072 65.6973L30.4102 65.6279L30.4199 65.5596L30.7441 63.1641L30.2842 60.7617L30.2393 60.5264L30.2695 60.2871L30.5986 57.749L30.5879 55.2422L30.5146 52.6016L30.5137 52.5928L30.4561 49.9531V49.9365L30.4355 48.0703L29.3242 48.1641L29.1836 48.1758L29.0312 48.1641L26.5 47.8945H23.9219L21.3789 48.0586ZM58.3516 63.8633L57.0039 65.1172L56.5117 66.8164L57.1211 68.6328L58.2344 70.0742L59.043 70.2959L59.0469 70.2969L59.7686 70.3965L60.4004 70.3672L61.5859 69.9805L62.8164 68.6562L63.3438 66.957L63.0391 65.4102L61.8086 64.0273L60.1211 63.3828L58.3516 63.8633ZM62.3018 52.2725L59.7725 52.7041L59.6387 52.7266L59.5039 52.7246L56.8643 52.6973L56.7734 52.6963L56.6826 52.6846L54.2402 52.3594L51.8018 52.6914L51.6543 52.7119L51.5049 52.7021L50.6611 52.6484L50.751 53.5273L50.7803 53.8115L50.7031 54.0859L50.124 56.1465L49.8193 57.2324L48.6914 57.2412L46.1719 57.2588L43.6484 57.6836L43.4941 57.71L43.3369 57.7031L40.6973 57.5928L40.6279 57.5898L40.5596 57.5801L39.6973 57.4629L39.7412 58.4541L39.7471 58.584L39.7305 58.7129L39.6777 59.1182L40.6719 59.1992L43.1797 59.082V59.0703L45.8164 58.8945H45.9102L48.5469 58.8828L48.6406 58.8711L48.7227 58.8828L51.2305 59.1641L53.7148 58.9531L53.7617 58.9414H53.8203L56.4688 58.918H56.4922L59.0469 58.9297L61.6953 58.8125L61.7773 58.8008L61.8594 58.8125L64.5078 58.9883L64.4961 59L67.0508 59.0117H67.0977L69.6875 59.1172L72.1836 59.0352L74.832 58.7891H74.9844L77.6211 58.8359L77.6094 58.8477H80.293L80.3809 58.8506L80.3369 58.3281H80.3359L80.2256 57.3838L78.9795 57.3896L76.3799 57.5635L76.3662 57.5645L76.3516 57.5654L73.7119 57.6914L73.6221 57.6963L73.5312 57.6895L70.9912 57.5049L70.9639 57.5029L70.8643 57.4941L69.3418 57.3555L69.5088 55.8359L69.5674 55.3037L69.4844 53.0898L69.1738 52.4482L67.5566 52.5752L67.4014 52.5869L67.2461 52.5664L64.7148 52.2363L62.3018 52.2725ZM26.1699 41.5801L26.04 41.5879L25.9111 41.5732L25.7881 41.5586L23.8623 41.6904L23.7764 41.6963L23.6904 41.6924L21.0498 41.5693L20.8564 41.5596L18.291 41.7129L17.3789 41.8164L17.4043 43.0889L17.4053 43.1211L17.4043 43.1533L17.3613 45.0928L18.6719 45.1992L21.1797 45.082V45.0703L23.8164 44.8945H23.9102L26.5469 44.8828L26.6406 44.8711L26.7227 44.8828L29.2305 45.1641L30.2773 45.0742L30.2559 44.7393L30.2432 44.5498L30.2783 44.3623L30.6875 42.1914L30.376 41.5107L28.7256 41.4268L26.1699 41.5801ZM21.3838 30.5352L21.6592 33.0352L21.6758 33.1816L21.6631 33.3281L21.4424 35.9053L21.4189 37.9824L21.7734 38.4502L23.2832 38.292L23.4463 38.2744L23.6084 38.293L25.8545 38.5469L25.9023 38.5439L26.4561 38.1768L26.3818 36.3818L26.3799 36.3223L26.3818 36.2637L26.4805 33.624L26.4824 33.5859L26.4854 33.5479L26.7119 30.9883L26.6895 29.6172L25.4473 29.6904L25.3682 29.6953L25.2881 29.6914L22.6484 29.5654L22.6338 29.5645L22.6201 29.5635L21.4639 29.4863L21.3838 30.5352ZM22.2109 25.168L20.875 26.293L20.8516 26.4219L21.7539 26.4102H21.7773L24.3555 26.4219L26.9805 26.3047H27.1094L27.0859 26.1406L26.0098 25.1719L25.9414 25.4023L24.5 25.0039L23.6191 24.7529L22.2109 25.168Z" fill="black"/>
</svg>
