<svg width="120" height="120" viewBox="0 0 120 120" fill="none" xmlns="http://www.w3.org/2000/svg">
<path d="M63.8516 28.9102L64.0391 28.9336L66.5938 29.5078H66.6055L69.1719 30.1055L69.3008 30.1406L69.4062 30.1875L71.8555 31.1953L71.9844 31.2539L72.1016 31.3359L74.3164 32.7773L74.4102 32.8477L76.5078 34.4531L76.6016 34.5234L76.6836 34.6172L78.4766 36.5156L80.3047 38.3906L80.3867 38.4727L80.4453 38.5664L81.9922 40.6992L82.0273 40.7344L82.0508 40.7812L83.4336 43.0312L83.4453 43.043L84.8047 45.3281L84.9102 45.5039L84.9688 45.7148L85.6367 48.2344L86.3867 50.7539V50.7891L86.7275 52.0234L87.5039 52.0547L87.4922 52.2773L87.4219 54.0117L87.208 53.9717L87.5703 56.0977L87.5938 56.25L87.582 56.4141L87.4902 58.627L89.2227 58.4883H89.375L91.9766 58.5586L94.5781 58.4883H94.6836L95.0703 58.5L96.3828 58.5586L96.4883 59.8711L96.5 59.9648L96.5117 60.0234V60.082L96.5352 62.6016L96.8867 65.0273L97.2969 67.6406V67.6875L97.3086 67.7344L97.5547 70.3711L97.5664 70.4531V70.5352L97.5078 73.043L97.9414 75.5156L97.9531 75.5625V75.6211L98.2227 78.2461V78.2695L98.4336 80.8242L98.7969 83.4492L98.8086 83.5312V83.6133L98.8672 86.2617L99.0664 88.8047V88.8516L99.1836 91.4414L99.5117 93.9258L99.9805 96.5273L99.9922 96.6094V96.6914L100.191 99.3164H100.18L100.402 101.93V101.953L100.578 104.531L100.871 107.156L100.883 107.273L100.871 107.391L100.742 109.887L101.117 112.371L101.537 114.493L102.793 114.277L102.91 114.266H103.027L105.664 114.242H105.816L105.969 114.266L108.406 114.746L110.809 114.5L110.891 114.488H110.973L112.016 114.5L112.004 116L111.98 117.5L110.984 117.488L108.477 117.746L108.254 117.77L108.031 117.734L105.57 117.242L103.145 117.254L100.648 117.688L100.496 117.711L100.332 117.699L97.6953 117.594H97.625L97.5547 117.582L96.918 117.491L95.5977 117.574H95.4219L93.8613 117.495L92.7617 117.711L92.5273 117.758L92.293 117.734L91.3994 117.619L90.3945 117.738L90.1719 117.762L89.9492 117.727L88.3018 117.412L87.207 117.418L87.1953 117.406L84.6055 117.488H84.5938L81.957 117.547H81.9336L79.3672 117.559L79.3789 117.57L76.7422 117.746L76.5547 117.758L75.6699 117.592L74.3867 117.598H74.293L74.1875 117.586L72.7812 117.4L71.5391 117.547L71.4102 117.559H71.2812L70.5186 117.517L69.3828 117.738L69.1484 117.785L68.9023 117.75L67.1904 117.516L66.1719 117.582H66.043L65.9141 117.57L63.7139 117.322L61.4258 117.715L61.3086 117.738H61.1914L58.5547 117.762H58.4023L58.25 117.727L58.1934 117.715L58.0977 117.723L57.957 117.699L55.4141 117.348L54.7295 117.363L53.4102 117.504L53.2812 117.516L53.1406 117.504L51.6768 117.38L50.2549 117.349L49.5938 117.442V117.496H49.2227L48.1836 117.645L47.9844 117.668L47.7852 117.645L45.2256 117.294L45.1035 117.291L44.9365 117.29L42.4531 117.512L42.418 117.523H42.3711L41.1113 117.567L40.3203 117.703L40.2031 117.727H40.0859L37.4492 117.762H37.332L37.2266 117.75L35.2363 117.491L34.3906 117.488H34.3438L34.2969 117.477L34.1484 117.466L32.2578 117.621L32.1523 117.633L32.0586 117.621L29.4688 117.469L26.9141 117.574H26.7969L24.2422 117.457L22.4854 117.561L21.3242 117.664L21.1836 117.676L21.0312 117.664L18.5 117.383L15.9219 117.395V117.383L13.3789 117.559H13.3672L13.3555 117.57L10.707 117.688L10.6133 117.699L10.5312 117.688L7.98828 117.5L8 117.277V114.5H8.21094L10.6719 114.699L13.1797 114.582V114.57L15.8164 114.395H15.9102L18.5469 114.383L18.6406 114.371L18.7227 114.383L18.791 114.39L19.0508 112.16L19.2734 109.711V107.027L19.332 104.379V104.285L19.3438 104.191L19.7188 101.707L19.8711 99.0703L19.8828 98.9414L19.9062 98.8125L20.4922 96.3281L20.5625 93.9141V91.1367L20.5859 91.0195L21.0078 88.5234L21.1602 85.9336L21.3008 83.3086V83.2031L21.3242 83.1094L21.7695 80.6602L21.6641 78.1758V78.0352L21.6875 77.9062L22.0391 75.3398L22.0977 72.8203V72.7266L22.1211 72.6328L22.5078 70.0195L22.625 67.5234L22.6367 67.3594L22.6719 67.207L23.3047 64.8047V62.2266L23.3281 62.0859L23.7969 59.5195L24.043 58.1836L25.3906 58.2891L28.0273 58.4883H28.0508L30.5586 58.7227L33.0781 58.5117L33.1719 58.5L33.2773 58.5117L33.3867 58.5176L33.3008 58.043L33.2539 57.75L33.3125 57.4688L33.8516 54.8555L34.2383 52.3359L34.25 52.2891L34.2617 52.2539L34.8125 49.6758L34.8242 49.6055L34.8477 49.5469L35.6211 47.0156L35.6445 46.9453L35.668 46.8867L36.6875 44.4492L36.7109 44.4023L37.8125 41.9766L37.918 41.7422L38.1055 41.5547L39.8398 39.7617L41.1758 37.6289L41.2812 37.4648L41.4336 37.3242L43.3672 35.5312L45.2656 33.7148L45.418 33.5742L45.6055 33.4805L47.8555 32.2852L50 30.8555L50.0938 30.7852L50.1992 30.7383L52.6133 29.6133L52.8242 29.5078L53.0586 29.4844L55.707 29.1445L58.2266 28.7109L58.3438 28.6875H58.4609L61.0859 28.6641H61.2383L63.8516 28.9102ZM59.1328 81.1445L57.7617 82.5273L56.4961 84.625L56.4727 84.6719L56.4492 84.707L55.043 86.7344L54.2812 88.9023L53.6484 91.4805L53.6133 91.6094L53.5664 91.7266L52.5352 94.0234L52.043 96.4492L52.0195 96.5664L51.3281 98.9336L51.1172 101.453L51.1055 101.652L51.0352 101.852L50.168 104.184L50.0039 106.598V106.633L49.7578 109.188L49.7695 109.199L49.6289 111.836L49.6064 114.348H50.1016L50.4219 114.305L50.5859 114.281L50.75 114.305L51.7588 114.381L52.8711 114.406L54.4766 114.37L55.7539 114.246L55.9766 114.223L56.1875 114.27L58.4736 114.705L60.7109 114.559V114.57L63.2891 114.289L63.4414 114.277L63.6055 114.289L63.6904 114.299L63.7344 114.293H63.8867L66.5234 114.41H66.5938L66.6641 114.422L67.3154 114.508L68.6328 114.43L68.7148 114.418L68.7969 114.43L70.2744 114.505L70.5791 114.446L70.6406 113.406L70.3945 110.934V110.945L69.9961 108.332V108.285L69.6797 105.672L69.668 105.602V105.543L69.5625 103.07L68.918 100.668L68.9062 100.633V100.598L68.3203 98.0312V98.0195L67.7461 95.6172L66.9023 93.1094L66.8789 93.0625L66.8672 93.0039L66.2227 90.5312L65.3555 88.1523L64.4062 85.7852L63.2109 83.7695L61.6289 81.9414L60.3281 80.9102L59.1328 81.1445ZM26.3047 62.4844L26.3164 65.0039V65.2031L26.2695 65.3906L25.6133 67.8281L25.4844 70.3125V70.3828L25.4727 70.4531L25.0859 73.0078L25.0391 75.5273V75.6211L25.0273 75.7031L24.6641 78.1875L24.7812 80.707V80.8828L24.7578 81.0469L24.3008 83.5312L24.1602 86.0977V86.1094L24.0078 88.7461L23.9844 88.9102L23.5625 91.3711V93.9609L23.4922 96.5977L23.4805 96.7617L23.4453 96.9141L22.8711 99.3047L22.7188 101.883V101.953L22.707 102.023L22.3203 104.484L22.2734 107.086V109.84L22.0391 112.465V112.488L22.0273 112.512L21.8047 114.34L22.0977 114.586L22.2607 114.576L23.7148 114.453L23.7617 114.441H23.8203L26.4688 114.418H26.4922L29.0469 114.43L31.6953 114.312L31.7773 114.301L31.8594 114.312L34.1299 114.463L34.6602 114.422L34.8242 114.41L34.9766 114.434L35.5459 114.504L37.0508 114.512H37.0977L39.6875 114.617L40.7764 114.581L42.4531 114.293L42.582 114.27H42.7227L44.751 114.296L44.832 114.289H44.9844L46.6055 114.317L46.6289 111.742V111.719L46.6406 111.684L46.7695 109.047V108.988L47.0156 106.352L47.2031 103.75L47.2148 103.527L47.2852 103.328L48.1406 101.008L48.3516 98.5586L48.3633 98.4062L48.3984 98.2656L49.1367 95.7344L49.6523 93.25L49.6758 93.0977L49.7461 92.9453L50.7539 90.625L51.3633 88.1875L51.4102 88.0469L52.2891 85.5508L52.3477 85.3633L52.4648 85.1992L53.9766 82.9961L55.2891 80.8281L55.3828 80.6758L55.5117 80.5469L57.3398 78.707L57.668 78.3906L58.1133 78.2969L60.4219 77.8398L61.1133 77.6992L61.6523 78.1328L63.6328 79.7031L63.7383 79.7969L63.832 79.9023L65.5547 81.8828L65.6367 81.9883L65.707 82.1055L67.0547 84.3789L67.1133 84.4727L67.1602 84.5898L68.1445 87.0391V87.0625L68.1562 87.0742L69.0703 89.5586L69.1172 89.6992L69.7383 92.1484L70.582 94.6562L70.6055 94.7148L70.6172 94.7852L71.2383 97.3516L71.25 97.375L71.8359 99.9414H71.8242L72.5039 102.438L72.5508 102.602L72.5625 102.777L72.6562 105.309L72.9727 107.922L73.3594 110.488L73.3711 110.535V110.57L73.6406 113.207L73.6523 113.324L73.6406 113.441L73.5898 114.292L73.8242 114.266L74.0586 114.23L74.2812 114.277L75.9346 114.586H76.9766L79.625 114.516L82.2734 114.457H82.2852L84.9219 114.422L87.4883 114.258L87.6758 114.246L87.8633 114.281L88.5742 114.411L89.832 114.406H89.9375L90.0312 114.418L91.4111 114.601L92.6914 114.457L92.8086 114.434L92.9375 114.445L93.7236 114.481L94.8359 114.266L95.082 114.219L95.3164 114.254L96.9756 114.479L97.8242 114.434L98.4219 114.211L98.1641 112.887L98.1523 112.852V112.816L97.7656 110.203L97.7422 110.051V109.91L97.8711 107.391L97.5898 104.859V104.789L97.4141 102.188L97.1914 99.5508V99.5391L97.0039 96.9023H96.9922L96.5586 94.4531L96.5469 94.418V94.3711L96.207 91.7578V91.6992L96.1953 91.6406L96.0781 89.0508L95.8672 86.4141V86.3203L95.8086 83.7773L95.457 81.2344V81.1523L95.2344 78.5508L94.9883 76.0312L94.5312 73.418L94.5078 73.2773V73.1367L94.5664 70.6523L94.332 68.1094L93.9219 65.4961V65.4727L93.5586 62.8477L93.5469 62.7539V62.6719L93.5234 61.5117L92.0234 61.5586H91.9414L89.4102 61.4883L86.8086 61.6875L86.7148 61.6992L86.6211 61.6875L84.0547 61.5586L81.5 61.6992L81.4648 61.7109H80.457L80.5859 62.6719L80.5977 62.8008V62.9297L80.4688 65.5664V65.7422L80.4219 65.918L79.8711 67.8281L79.5547 68.918H75.8633L73.3789 69.3047L73.25 69.3164H73.1211L70.4727 69.2695L70.4023 69.2578H70.3203L67.8594 68.9414L65.3633 69.1641L65.2578 69.1758H65.1641L62.5508 69.0703L60.043 69.1055L57.418 69.3047L57.2891 69.3164L57.1602 69.3047L54.582 69.0352V69.0469L52.0273 68.8945L49.4844 69.0586H49.4609L46.8242 69.1992H46.7539L44.1172 69.2109H44L43.8828 69.1875L41.2344 68.7891L40.1094 68.6133L39.9805 67.4766L39.7578 65.5664L39.7461 65.5312V65.4961L39.5703 62.8477V62.6484L39.6406 61.5234L38.4922 61.4531L35.9492 61.6406L35.8438 61.6523H35.75L33.2188 61.5L30.6758 61.7109L30.5469 61.7227L30.418 61.7109L27.7812 61.4766V61.4648L26.5039 61.3711L26.3047 62.4844ZM57.2344 52.582H57.1523L54.5273 52.6641L51.9258 52.793L49.3828 53.1328L49.2422 53.1445L49.0898 53.1328L46.5117 52.957L43.9805 53.0742L43.9688 53.0625L41.4375 53.3438H41.4258L41.4141 53.3555L38.7773 53.5781L38.6836 53.5898H38.5898L37.0898 53.5342L36.8047 55.3945V55.4297L36.793 55.4648L36.3008 57.8086L36.4512 58.6006L38.3633 58.4531H38.5625L41.3398 58.6172L42.8516 58.7109L42.7461 60.2227L42.5703 62.7539L42.7344 65.2148L42.8164 65.9883L44.2461 66.1992H46.6719L49.3086 66.0586L51.9336 65.8945H52.1094L54.7578 66.0469H54.7812L54.8164 66.0586L57.3359 66.3047L59.8438 66.1289L59.8789 66.1172H59.9141L62.5625 66.0703H62.6445L65.1523 66.1641L67.7305 65.9531L67.8945 65.9297L68.0469 65.9531L70.6836 66.2695H70.6719L73.0742 66.3047L75.5586 65.9297L75.6758 65.918H77.293L77.4922 65.2031L77.5859 62.9062L77.2695 60.4102L77.0586 58.7344L78.7578 58.7227H81.3359V58.7109L83.9844 58.5703L84.0547 58.5586L84.1367 58.5703L84.498 58.5859L84.582 56.4844L84.1602 53.9883H84.1484L83.9785 53.3633L83.3203 53.2383L80.8242 53.2031H80.7891L80.7539 53.1914L78.1406 53.0273V53.0391L75.5039 52.9102H75.4922L72.9141 52.7578L70.3594 52.8867H67.582L67.5234 52.875L64.8984 52.6641V52.6523L62.3086 52.5352H62.2734L59.7539 52.3477L57.2344 52.582ZM54.082 57.5547L55.1133 58.7617L55.7109 59.4648L55.3594 60.3203L54.457 62.4297L53.8477 63.8828L52.4297 63.2031L50.2852 62.1602L49.207 61.6445L49.4766 60.4727L50.0625 57.9062L50.2734 56.9922L51.1875 56.7812L52.2422 56.5352L54.082 56.1133V57.5547ZM61.248 57.5547L62.2793 58.7617L62.877 59.4648L62.5254 60.3203L61.623 62.4297L61.0137 63.8828L59.5957 63.2031L57.4512 62.1602L56.373 61.6445L56.6426 60.4727L57.2285 57.9062L57.4395 56.9922L58.3535 56.7812L59.4082 56.5352L61.248 56.1133V57.5547ZM68.4141 57.5547L69.4453 58.7617L70.043 59.4648L69.6914 60.3203L68.7891 62.4297L68.1797 63.8828L66.7617 63.2031L64.6172 62.1602L63.5391 61.6445L63.8086 60.4727L64.3945 57.9062L64.6055 56.9922L65.5195 56.7812L66.5742 56.5352L68.4141 56.1133V57.5547ZM58.5898 31.6758L56.1406 32.1094H56.1172L56.082 32.1211L53.6562 32.4258L51.5586 33.4102L49.4844 34.8164L49.4141 34.8633L49.3438 34.8984L47.1758 36.0352L45.418 37.7109V37.7227H45.4062L43.6016 39.3984L42.3125 41.4727L42.2305 41.6016L42.125 41.7188L40.4258 43.4648L39.4531 45.5859L39.4648 45.5977L38.4688 47.9648L37.7422 50.2969L37.6865 50.5557L38.5664 50.5898L41.1211 50.3789V50.3672L43.7461 50.0859L43.793 50.0742H43.8398L46.4766 49.957H46.6523L49.1602 50.1445L51.6328 49.8164H51.75L54.3867 49.6758H54.4102L57.0469 49.582V49.5938L59.6016 49.3594L59.7188 49.3477L59.8359 49.3594L62.4844 49.5469L62.4727 49.5586L65.0859 49.6758H65.1328L67.7695 49.8867H70.3008L70.2891 49.8984L72.8672 49.7695L72.9492 49.7578L73.0195 49.7695L75.6562 49.9102L75.6445 49.9219L78.2812 50.0391H78.3047L80.9414 50.2031L80.9297 50.2148L83.0977 50.2441L82.7539 49.0898V49.0664L82.7422 49.043L82.1094 46.6758L80.8789 44.6016L79.4961 42.3633V42.3516L78.0664 40.3945L76.3203 38.6016L76.3086 38.5898L74.5977 36.7617L72.582 35.2266V35.2148L70.5664 33.9141L68.3984 33.0117L65.9258 32.4375V32.4258L63.5117 31.8867L61.0859 31.6641L58.5898 31.6758Z" fill="black"/>
</svg>
