<svg width="120" height="120" viewBox="0 0 120 120" fill="none" xmlns="http://www.w3.org/2000/svg">
<path d="M36.0752 15.1094L38.5596 15.707L39.333 15.8945L39.6143 16.6445L40.1455 18.0752L41.6387 18.1982L44.498 18.1279V18.1162L47.498 17.9756H47.5801L50.5801 17.9873H50.6504L50.7207 17.999L53.5449 18.3037L56.4629 18.0928H56.5566L59.5566 18.0576H62.4746L65.4629 17.8701H65.6152L68.627 17.9873H68.6855L68.7559 17.999L71.7324 18.3857L71.9902 18.4209L72.2246 18.5381L74.8262 19.874L75.8926 20.4248L75.5996 21.585L75.084 23.5654L74.9199 24.2217L74.3105 24.5264L71.6152 25.8975L71.3457 26.0381L71.0527 26.0615L68.0293 26.2842H67.9121L64.9004 26.2725H64.8887L61.9004 26.2139L58.9355 26.2607L58.8301 26.2725L58.7246 26.249L55.8652 25.8975L53.0293 26.0381L53.041 26.0498L50.041 26.3311L49.9004 26.3428L49.7598 26.3193L46.8301 26.0264L43.9824 26.1904H43.8301L40.8652 26.0615L40.1973 26.0781L40.1533 26.7227L39.6025 27.1328L37.2119 28.9023L36.6963 29.2891L36.0518 29.1719L35.0908 28.9961L34.6104 30.7656L34.5635 30.9531L34.4697 31.1172L33.0049 33.6367L32.1143 36.2266L31.6807 38.8984L31.6689 41.0078L33.1338 42.4844L35.665 43.5039L35.8291 43.5742L35.9814 43.6797L38.29 45.3555L40.8096 46.6328L43.4932 47.7578L46.1299 48.6719L46.8213 48.7305L46.9502 47.7812L45.9424 45.9883L44.8408 44.0781L43.6455 42.5898L43.2236 42.0742L43.3174 41.418L43.7744 38.4414L43.7979 38.3008L43.8564 38.1602L44.8408 35.418L45.4385 32.582L45.5322 32.1367L45.8721 31.8086L48.0635 29.6992L48.3564 29.418L48.7549 29.3242L51.6963 28.6328L51.8135 28.5977H51.9189L54.8721 28.3516L55.1416 28.3281L55.3994 28.4102L58.2236 29.207L58.5166 29.2891L58.751 29.4766L61.0244 31.293L61.3057 31.5156L61.4463 31.8555L62.6299 34.5039L62.6416 34.5156V34.5273L63.7314 37.1289L65.2314 39.1445L67.4932 40.668L67.9619 40.9844L68.1025 41.5234L68.8525 44.2891L69.0518 45.0039L68.5947 45.5898L66.8955 47.793L66.6729 48.0859L66.333 48.2383L63.6494 49.4688L63.2744 49.6445L62.8525 49.5859L60.0049 49.2578L59.6768 49.2227L59.3955 49.0586L58.9385 48.7822L58.9219 49.0186L60.5977 49.5811L63.4688 50.0732L63.6797 50.1201L66.5391 51.0576L66.7266 51.1162L66.8906 51.2217L69.4219 52.8271L69.5273 52.8975L69.6328 52.9912L71.7891 54.9951L72.1758 55.3584L72.2578 55.874L72.5508 57.7725L72.6865 58.6719L72.6992 58.6797H72.6875L75.2305 60.168L75.3945 60.2617L75.5234 60.3906L77.6445 62.4883L77.75 62.582L77.832 62.6992L79.5312 65.1719L79.6133 65.2891L79.6719 65.4297L80.8672 68.1836L80.9375 68.3359L80.9609 68.5L81.5234 71.4648L81.5469 71.6289V71.793L81.5 73.0586L81.4883 73.3281L81.4062 73.5039L80.9961 76.1758L80.9844 76.2461L80.9609 76.3281L80.2109 79.1992L80.1758 79.3281L80.1172 79.457L78.8281 82.1758L78.7461 82.3516L78.6172 82.4922L76.6836 84.8125L76.543 84.9883L76.3555 85.1055L74.7354 86.1602L75.1182 86.3271L75.458 86.4678L75.6807 86.7607L77.5205 89.0107L77.6143 89.1396L77.6846 89.2686L79.0322 91.835L79.4756 92.4336L80.8008 90.6914L82.2656 88.1602L82.3125 88.0664L82.3711 87.9961L84.2109 85.5938L85.7461 83.1797L85.8164 83.0625L85.9219 82.957L87.9609 80.8008L88.0898 80.6719L88.2422 80.5664L90.7148 78.9844L90.9141 78.8555L91.1484 78.7969L93.9844 78.0469L94.1367 78.0117L94.3008 78L97.2539 77.8711L98.0273 77.8477L98.4961 78.4453L100.219 80.625L101.133 81.7969L99.9844 82.7227L97.7109 84.5273L95.5664 86.625L93.8203 88.6641L92.5312 91.207L91.4062 93.7617L90.4805 96.457L89.8008 99.3867L89.7773 99.5156L89.7188 99.6211L88.5703 102.41L87.6562 105.141V105.152L86.6836 108.07L86.6484 108.141L85.4062 110.883L85.2422 111.234L84.7852 111.572L86.0117 111.73L88.5195 111.332L90.8867 110.184L93.207 108.496L93.3828 108.367L93.6055 108.297L96.4414 107.324L99.2422 106.281L99.6289 106.141L100.027 106.211L103.016 106.75L103.145 106.773L103.262 106.82L106.051 107.828H106.039L108.863 108.66L108.969 108.684L109.062 108.73L111.793 109.973L111.969 110.043L112.121 110.172L112.941 110.828L112.004 112L111.055 113.172L110.387 112.621L107.891 111.484L105.113 110.676L105.02 110.652L102.371 109.68L99.8984 109.234L97.4492 110.16H97.4258L97.4023 110.172L94.7656 111.062L92.5508 112.691L92.4336 112.773L92.3164 112.832L89.6328 114.121L89.4336 114.215L89.2227 114.25L86.2695 114.73L86.0469 114.766L85.8359 114.742L82.8477 114.355L82.6719 114.332L82.5078 114.273L79.6719 113.195L79.4023 113.09L79.1914 112.902L77.2109 111.086L74.6797 110.5L72.125 110.277L69.6992 110.98L67.0859 112.141L64.7773 113.77L64.5664 113.898L64.332 113.969L61.4258 114.824L61.0977 114.918L60.7461 114.859L57.7695 114.355L57.6641 114.332L57.5703 114.297L54.7461 113.395L54.5469 113.336L54.3711 113.207L52.0156 111.602L49.543 110.488L47.0234 110.09L44.5156 110.652L42.043 111.871L39.5469 113.383L39.4062 113.465L39.2422 113.523L36.3945 114.449L36.1602 114.52H35.9023L32.9375 114.461H32.8086L32.668 114.438L29.7734 113.852L29.5273 113.805L29.3164 113.676L26.75 112.188L26.6797 112.141L24.3828 110.617L21.8281 109.879L19.1445 109.328L16.625 109.715L14.1172 110.898L11.4922 112.258L11.4219 112.293L11.3398 112.316L8.63281 113.359L8.62109 113.371H8.60938L8.51562 113.406L7.48438 110.594L7.57812 110.559H7.58984L10.2617 109.516L12.793 108.215L12.8398 108.191L15.5586 106.902L15.7578 106.809L15.9688 106.785L18.957 106.328L19.2266 106.281L19.4844 106.34L22.4258 106.938L22.543 106.961L25.4141 107.793L25.6367 107.852L25.8242 107.98L28.2617 109.598L29.4482 110.286L29.501 107.689L29.3486 104.701V104.537L29.5361 101.549V101.502L29.5479 101.455L29.9111 98.4902L29.9229 98.4316L29.9346 98.3613L30.5557 95.4434L31.1416 92.5254L31.1533 92.4434L31.1768 92.3613L32.0908 89.502L32.126 89.3965L32.1729 89.3145L33.4502 86.5957L33.4619 86.5723L33.4736 86.5605L34.833 83.8887L34.8564 83.8184L34.9033 83.7598L36.4619 81.2754L37.4814 78.791L37.9854 76.2129L37.6338 73.7051L36.5439 71.0918L36.4619 70.8926L36.4385 70.6699L36.1221 67.6816L36.1104 67.5527L36.1221 67.4121L36.333 64.4707L36.3447 64.3301L36.3799 64.2012L37.1416 61.3066L37.165 61.1895L37.2236 61.0723L38.4541 58.3184L38.5127 58.166L38.6064 58.0371L39.0635 57.4111L38.8389 57.2939V57.3057L36.0967 56.0635L36.0615 56.0518L36.0146 56.0283L33.3662 54.6221L33.3545 54.6104H33.3428L30.7178 53.1572L30.6943 53.1338L30.6592 53.1221L28.1631 51.5635V51.5752L25.5498 50.0869L25.4678 50.04L25.3857 49.9814L22.9834 48.1768L22.8428 48.0713L22.7373 47.9307L20.8154 45.6104L20.6045 45.3643L20.5225 45.0596L19.7256 42.2471L19.6084 41.8604L19.7139 41.4736L20.4521 38.5674L21.1787 35.6729L21.2021 35.5791L21.2373 35.4971L22.3271 32.708L22.3506 32.6377L23.5576 29.9072L24.5771 27.2354L25.1279 24.7979L24.5889 22.2549L24.4482 21.5518L24.8818 21.001L26.6631 18.7744L26.9795 18.3877L27.4717 18.2588L30.4131 17.5205L30.6475 17.4619L30.8936 17.4854L32.6768 17.6279L34.6338 15.543L35.2314 14.9102L36.0752 15.1094ZM28.6904 21.0361L27.6709 22.3018L27.6982 22.4307L27.8027 22.4385L29.4785 22.6025L30.8848 22.5088V22.5205L30.9551 22.5088L31.0605 24.0088L31.1777 25.4971L31.0723 25.5088H31.0488L29.5137 25.5908L29.4082 25.6025L29.3027 25.5908L28.0645 25.4756L27.4717 28.0557L27.4482 28.1611L27.4131 28.2549L26.335 31.0557L26.3232 31.0908L26.2998 31.1143L25.0928 33.8564L24.0498 36.4932L23.3584 39.3057L22.7139 41.8135L23.3115 43.9346L24.9053 45.8564L27.085 47.5088L29.6396 48.9619L29.6631 48.9736L29.6865 48.9971L32.2412 50.5674H32.2295L34.7725 51.9736L37.3271 53.333L40.0693 54.5635L40.1045 54.5869L40.1514 54.5986L42.1904 55.665L41.7422 56.5293L42.9775 56.9824L42.9424 57.0762L42.8721 57.2754L42.7549 57.4395L41.1143 59.6895L40.001 62.1738L39.3213 64.7988L39.1221 67.4707L39.4033 70.1309L40.4814 72.7207L40.5518 72.8965L40.5752 73.084L41.0088 76.0605L41.0439 76.3184L40.9854 76.5762L40.3994 79.5176L40.3643 79.6582L40.3174 79.7871L39.1807 82.5762L39.1221 82.7051L39.0518 82.8223L37.4346 85.3652L36.1455 87.9199L34.915 90.498L34.083 93.1113L33.4971 96.0527V96.0762L32.8877 98.8652L32.5244 101.83L32.3486 104.619L32.501 107.537V107.643L32.4424 110.42L32.7451 111.389L33.1016 111.461L35.6914 111.508L38.1289 110.711L40.5781 109.27L40.625 109.234L40.6836 109.211L43.3438 107.887L43.5078 107.816L43.6836 107.77L46.6367 107.113L46.918 107.055L47.1875 107.09L50.1992 107.547L50.3984 107.582L50.5859 107.664L53.3633 108.918L53.4805 108.977L53.5859 109.047L55.8828 110.605L58.332 111.391L60.9102 111.836L63.2188 111.168L65.5039 109.598L65.6211 109.516L65.7617 109.457L68.5156 108.238L68.6094 108.191L68.7031 108.168L71.5742 107.324L71.8555 107.242L72.1367 107.266L75.125 107.535L75.2188 107.547L75.3242 107.57L78.2773 108.262L78.6641 108.344L78.9453 108.613L80.9844 110.477L81.1416 110.536L82.8164 109.289L83.8711 106.992L84.8086 104.191L85.7578 101.355L85.7695 101.309L85.793 101.25L86.9062 98.5547L87.5508 95.7773L87.5977 95.6367L88.5703 92.7891L88.582 92.7305L88.6172 92.6719L89.8242 89.918L89.8359 89.8828L89.8594 89.8477L91.2305 87.1523L91.3125 87L91.4297 86.8711L93.375 84.5625L93.4336 84.5156L93.4805 84.457L95.6367 82.3828L95.6836 82.3359L95.7422 82.2891L96.9375 81.3164L96.6094 80.8945L94.5938 80.9883L92.1211 81.6445L90 82.9922L88.2188 84.8672L86.6602 87.3047L86.6367 87.3633L86.5898 87.4102L84.7969 89.7422L83.3789 92.25L83.332 92.332L83.2734 92.4023L81.4453 94.8164L81.2109 95.1211L80.8594 95.2852L78.5742 96.293L78.0703 95.1533L77.8721 95.3037L77.7217 95.1016L76.6055 95.543L76.5703 95.4609L76.0547 94.1367L76.7656 93.8154L76.5479 93.5225L76.4658 93.417L76.4189 93.3115L75.083 90.7686L73.5947 88.9287L71.625 88.0771L71.25 88.3057L72.3467 90.7891L72.4287 90.9648L72.4521 91.1523L72.9326 94.0703L72.9678 94.2461L72.9443 94.4219L72.7217 97.375V97.457L72.6982 97.5508L72.124 100.469L72.0771 100.668L71.9951 100.844L70.6826 103.551L70.5771 103.75L70.4131 103.926L68.3389 106.105L68.21 106.246L68.0459 106.352L65.5146 107.922L65.2803 108.074L64.999 108.133L62.0928 108.684L61.9287 108.707H61.7646L58.8115 108.602L58.5303 108.59L58.2725 108.484L55.5537 107.312L55.2959 107.195L55.085 106.996L53.0225 104.91L52.7178 104.605L52.6123 104.184L51.9561 101.277L51.874 100.891L51.9795 100.504L52.8584 97.6211L52.9287 97.4336L54.1709 94.7266L54.1943 94.6797L55.5068 92.0781L56.6553 89.4297L57.2607 87.5107L55.4141 86.4062L55.2617 86.3242L55.1445 86.207L52.9883 84.1328L52.918 84.0625L52.8594 83.9922L50.9961 81.6602L50.9141 81.5664L50.8555 81.4727L49.3555 78.8477L49.25 78.6484L49.2031 78.4375L48.5234 75.4844L48.4883 75.3438L48.4766 75.1914L48.3711 72.168V72.0156L48.3945 71.8516L48.9219 68.875L48.9453 68.7578L48.9922 68.6406L50 65.793L50.082 65.5469L50.2461 65.3477L52.1445 63.0156L52.1562 62.9922L52.168 62.9805L54.0898 60.7188L54.1719 60.625L54.2656 60.5547L56.5625 58.5977L56.7852 58.3984L57.0781 58.3047L59.9492 57.3789L60.0195 57.3555L62.9141 56.5703L63.125 56.5117L63.3594 56.5234L66.3594 56.6172H66.4297L69.3682 56.8672L69.3633 56.835L67.6875 55.2881L65.4375 53.8467L62.8242 53.0029L60 52.5342L59.8828 52.5107L59.7656 52.4756L56.8828 51.5029L55.7812 51.1279L55.8633 49.9795L56.0625 47.0146L56.2939 47.0303L54.4268 45.2031L54.1572 44.9336L54.0518 44.582L53.1494 41.7109L53.0908 41.5469L53.0791 41.3711L52.8682 38.6641L52.001 36.4727L50.2432 35.1016L48.1104 34.4102L47.7588 36.1445L47.7354 36.25L47.7002 36.3555L46.7158 39.0391L46.3877 41.207L47.2314 42.25L47.3135 42.3438L47.3721 42.4492L48.5439 44.5L48.5557 44.5117L49.8213 46.75L50.0674 47.1953L49.9971 47.6992L49.5869 50.5586L49.3877 51.9648L47.9814 51.8477L45.708 51.6484L45.5205 51.6367L45.3447 51.5781L42.5088 50.5938L42.4619 50.5703L42.4268 50.5586L39.6494 49.3984L39.5557 49.3516L36.8721 48.0039L36.7666 47.9453L36.6611 47.875L34.3643 46.2109L31.7158 45.1445L31.4346 45.0273L31.2119 44.8047L29.1025 42.6836L28.6689 42.2383V41.6172L28.6807 38.8398V38.7109L28.6924 38.5938L29.1846 35.6055L29.208 35.4766L29.2549 35.3594L30.2275 32.5117L30.2744 32.3828L30.3447 32.2539L31.7744 29.7695L32.4775 27.2617L32.4893 24.6367L31.8096 21.9062L31.7275 21.5898L31.7861 21.2734L31.9111 20.5713L30.8701 20.4854L28.6904 21.0361ZM59.5029 90.3906L59.4795 90.4727L59.4561 90.543L58.2607 93.2734L58.249 93.3086L58.2256 93.3555L56.8779 96.0391L55.6943 98.5938L54.9678 100.984L55.4365 103.105L56.9951 104.664L59.1982 105.602L61.6826 105.695L64.167 105.227L66.3115 103.879L68.0576 102.039L69.2178 99.6836L69.7334 97.0469L69.9443 94.3164L69.5225 91.832L68.4326 89.3594L68.3379 89.208L67.9766 89.3125L67.8242 89.3594L67.6602 89.3711L64.6602 89.5586L64.543 89.5703L64.4258 89.5586L61.4141 89.2891L61.1914 89.2773L60.9805 89.1836L59.998 88.7842L59.5029 90.3906ZM60.8047 60.25L58.2852 61.0703L56.2578 62.793L54.4648 64.8906L52.7305 67.0469L51.8398 69.5547L51.3711 72.2148L51.4648 74.9336L52.0625 77.5352L53.4102 79.8906L55.1797 82.082L57.0781 83.8984L59.4453 85.3164L61.9062 86.3125L64.5898 86.5586L67.3203 86.3711L69.8516 85.6445L72.2305 84.2031L74.5391 82.7031L76.2031 80.6992L77.3398 78.2969L78.0312 75.6836L78.4766 72.8594L78.5117 72.6836H78.5L78.5352 71.8516L78.043 69.2266L76.9766 66.7539L75.418 64.4922L73.5195 62.6406L71.1523 61.2578L71.1406 61.2461H71.1289L68.8203 59.8281L66.2539 59.6055L63.4883 59.5117L60.8047 60.25ZM52.2705 31.5742L50.4189 32.0078L51.415 32.3242L51.6611 32.4062L51.8721 32.5703L54.1807 34.3633L54.4971 34.6211L54.6494 34.9961L55.7393 37.75L55.833 37.9609L55.8447 38.1953L56.0557 40.9844L56.7939 43.3281L58.5635 45.0508L60.6494 46.3164L62.7822 46.5508L64.7393 45.6602L65.7588 44.3359L65.3486 42.8359L63.3564 41.5117L63.1455 41.3711L62.9932 41.1602L61.2236 38.793L61.1182 38.6406L61.0479 38.4766L59.8877 35.7227L58.8564 33.4023L57.1221 32.0195L54.8135 31.3633L52.2705 31.5742ZM50.5 38.5H49.5312L49.8672 39.3594L49.5625 39.4766L49.4531 39.5156L49.3359 39.5312L48.7422 39.6172L48.5391 39.6484L48.3516 39.5938L47.8516 39.4688L48 38.8906V37.5H48.2266L48.3516 37.5312L48.6562 37.6172L48.9219 37.5781L49.1328 37.4922L50.5 36.9609V38.5ZM35.1729 19.3398L34.7861 21.4844L35.4541 24.0977L35.5127 24.2852L35.501 24.4844L35.4775 26.0195L35.9346 26.1016L37.2588 25.1172L37.4346 22.9258V22.8672L37.7393 20.2188L37.0713 18.4375L36.2158 18.2266L35.1729 19.3398ZM62.6621 21.0459L62.6152 21.0576H59.5801L56.5801 21.0928L56.5684 21.0811L53.6738 21.3037H53.5449L53.4043 21.292L50.5215 20.9756H47.627L44.6387 21.1045L44.627 21.1162H44.6035L41.6035 21.1982H41.5215L41.4395 21.1865L40.6592 21.123L40.4385 23.0713L40.8652 23.0615H40.9707L43.877 23.1787L46.8301 23.0381L46.9355 23.0264L47.0527 23.0381L49.9121 23.3193L52.7715 23.0615H52.8301L55.8301 22.8975H55.959L56.0879 22.9092L58.9707 23.249L61.8887 23.2139H61.9355L64.9473 23.2725H67.8066L70.5254 23.0732L72.3418 22.1592L72.3887 21.9951L71.0762 21.3271L68.4277 20.9756L65.5801 20.8701L62.6621 21.0459Z" fill="black"/>
</svg>
