<svg width="120" height="120" viewBox="0 0 120 120" fill="none" xmlns="http://www.w3.org/2000/svg">
<path d="M82.1523 8H85V8.21094L84.8008 10.6719L84.918 13.1797H84.9297L85.1055 15.8164V15.8926L85.6562 16.1992L86.1367 16.457L86.3242 16.9609L87.2852 19.4336L87.2969 19.457L87.3086 19.4922L88.082 21.8359L89.3945 23.9922L89.4648 24.0977L89.5117 24.2266L90.4258 26.6289L91.6211 28.8789L91.7148 29.1133L92.4531 31.4102L93.8828 33.4258L93.9883 33.5898L94.0586 33.7656L94.9609 36.168L94.9727 36.1562L95.1055 36.4561V35.9219L94.9414 33.3789V33.3672L94.9297 33.3555L94.8125 30.707L94.8008 30.6133L94.8125 30.5312L95 27.9883L95.1523 28H98V28.2109L97.8008 30.6719L97.918 33.1797H97.9297L98.1055 35.8164V35.9102L98.1172 38.5469L98.1289 38.7109L98.0938 38.8633L97.8008 40.293L96.6357 40.0615L97.2109 41.5H95.0195L94.5342 41.5352L94.6357 42.2764L94.6523 42.3936L94.6494 42.5117L94.5957 45.1211L94.6523 47.7266L94.6533 47.7393V47.751L94.6689 50.375L94.7129 53.0156L94.7139 53.0938L94.707 53.1719L94.4766 55.7715L94.3818 58.3154L94.4873 60.8984L94.4893 60.9453L94.5137 63.5508L94.6904 66.1377L94.6963 66.2236L94.6924 66.3096L94.5713 68.9043L94.5811 70.5293L96.5273 70.4863V70.4873L99.1582 70.4131L100.144 70.3857L100.56 71.2783L101.458 73.2061L101.643 73.6006L101.586 74.0322L101.275 76.4346L101.736 78.8379L101.782 79.0781L101.749 79.3203L101.402 81.8867L101.301 84.3057L101.719 86.791L101.739 86.9092L101.74 87.0293L101.759 89.6689L101.761 89.8203L101.731 89.9688L101.256 92.3896L101.503 94.8076L101.517 94.9453L101.505 95.082L101.303 97.5596L101.64 100.038L101.666 100.237L101.64 100.438L101.301 102.988L101.275 105.396L101.704 107.908L101.724 108.021L101.725 108.138L101.737 108.979L102.012 109L102 109.199V112H101.789L101.622 111.986L101.42 113.536V114.513L102.793 114.277L102.91 114.266H103.027L105.664 114.242H105.816L105.969 114.266L108.406 114.746L110.809 114.5L110.891 114.488H110.973L112.016 114.5L112.004 116L111.98 117.5L110.984 117.488L108.477 117.746L108.254 117.77L108.031 117.734L105.57 117.242L103.145 117.254L101.42 117.553V117.718L100.714 117.676L100.648 117.688L100.496 117.711L100.332 117.699L97.6953 117.594H97.625L97.5547 117.582L96.8828 117.486L94.6963 117.569L94.6377 117.571L94.5791 117.569L93.6729 117.531L92.7617 117.711L92.5273 117.758L92.293 117.734L90.751 117.536L89.4463 117.611L89.3311 117.618L89.2168 117.607L87.2432 117.417L87.207 117.418L87.2021 117.413L87.1406 117.407L84.6055 117.488H84.5938L81.957 117.547H81.9336L79.3672 117.559L79.3789 117.57L76.7422 117.746L76.5547 117.758L76.2656 117.703L76.2617 117.704L76.166 117.71L76.0693 117.704L73.5 117.549L70.9297 117.635L70.7959 117.639L70.6631 117.619L69.6309 117.468L68.7266 117.418L67.1543 117.519L66.9492 117.57L66.7158 117.547L66.1719 117.582H66.043L65.9141 117.57L65.0205 117.469L63.0908 117.64L62.9658 117.65L62.8408 117.641L62.0664 117.578L61.7227 117.617L61.6406 117.629L61.5469 117.617L59.9922 117.609L58.25 117.711L58.0977 117.723L57.957 117.699L56.8564 117.547L55.0957 117.613L54.9971 117.617L54.8994 117.607L52.7607 117.404L52.7695 117.5H51.4766L49.957 117.701L49.8203 117.72L49.6826 117.713L47.124 117.581L44.5781 117.749L44.4854 117.755L44.3916 117.749L41.8271 117.598L39.2549 117.692L39.0986 117.698L38.9453 117.672L38.3291 117.565L36.9805 117.512V117.5L34.3906 117.488H34.3438L34.2969 117.477L34.1406 117.466L34.0566 117.474H34.0537L31.4141 117.71L31.29 117.722L31.167 117.712L28.5273 117.513L28.5166 117.512L28.5068 117.511L27.5205 117.422L26.4688 117.418V117.406L24.2607 117.427L23.4814 117.49L23.3789 117.499L23.2773 117.493L23.2578 117.491L21.3242 117.664L21.1836 117.676L21.0312 117.664L18.5 117.383L15.9219 117.395V117.383L13.3789 117.559H13.3672L13.3555 117.57L10.707 117.688L10.6133 117.699L10.5312 117.688L7.98828 117.5L8 117.277V114.5H8.21094L10.6719 114.699L13.1797 114.582V114.57L15.8164 114.395H15.9102L18.4707 114.383L18.457 114.195L18.252 111.556L18.2441 111.446L18.252 111.336L18.4287 108.802L18.2607 106.259L18.2578 106.215V106.171L18.2393 103.53L18.2383 103.411L18.2559 103.293L18.6426 100.77L18.6357 98.2842L18.4971 95.6953L18.3301 93.0547L18.3242 92.9639L18.3291 92.873L18.4824 90.2334L18.4844 90.2031L18.4873 90.1729L18.7344 87.6621L18.5557 85.1465L18.5537 85.1084L18.5527 85.0693L18.5 82.4297L18.499 82.3848L18.501 82.3389L18.6055 79.793L18.3799 77.252L18.3662 77.0947L18.3857 76.9385L18.6992 74.3721L18.751 71.9668L20 71.9951V70.5H21.7842L21.7812 70.624L22.666 70.6914L25.208 70.5684V70.5693L25.3994 70.5557L25.2773 70.0068L25.2393 69.8398L25.2412 69.6689L25.2598 67.0293L25.2607 66.9092L25.2812 66.791L25.6992 64.3066L25.5977 61.8877L25.251 59.3203L25.2178 59.0781L25.2637 58.8379L25.7246 56.4355L25.4141 54.0322L25.4004 53.9336L25.4014 53.834L25.4121 51.1934L25.4131 51.1758V51.1582L25.4873 48.5283L25.4863 48.5273L25.5449 45.9043L25.5439 45.9033L25.5732 43.2637V43.2227L25.5762 43.1807L25.6914 41.4307L24.5 41.4395V41.5H22.4961L22.8594 39.707L23.1055 38.4297V35.9219L22.9414 33.3789V33.3672L22.9297 33.3555L22.8125 30.707L22.8008 30.6133L22.8125 30.5312L23 27.9883L23.1523 28H26V28.2109L25.8008 30.6719L25.918 33.1797H25.9297L25.999 34.2334L26.5352 33.0391V33.0273L27.5312 30.5781L27.5547 30.5312L27.5898 30.4727L28.7734 28.1172L28.7969 28.082L28.8086 28.0469L30.0742 25.8203L31.1172 23.4648V23.4531L32.1953 21.0859V21.0742L33.2383 18.6484L33.25 18.6133L33.2734 18.5898L34.1055 16.8662V15.9219L33.9414 13.3789V13.3672L33.9297 13.3555L33.8125 10.707L33.8008 10.6133L33.8125 10.5312L34 7.98828L34.1523 8H37V8.21094L36.8008 10.6719L36.918 13.1797H36.9297L37.1055 15.8164V15.8926L37.6562 16.1992L38.1367 16.457L38.3242 16.9609L39.2852 19.4336L39.2969 19.457L39.3086 19.4922L40.082 21.8359L41.3945 23.9922L41.4648 24.0977L41.5117 24.2266L42.4258 26.6289L43.6211 28.8789L43.7148 29.1133L44.4531 31.4102L45.8828 33.4258L45.9883 33.5898L46.0586 33.7656L46.9609 36.168L46.9727 36.1562L47.1055 36.4561V35.9219L46.9414 33.3789V33.3672L46.9297 33.3555L46.8125 30.707L46.8008 30.6133L46.8125 30.5312L47 27.9883L47.1523 28H50V28.2109L49.8008 30.6719L49.918 33.1797H49.9297L50.1055 35.8164V35.9102L50.1172 38.5469L50.1289 38.7109L50.0938 38.8633L49.8008 40.293L48.6357 40.0615L49.2109 41.5H47.0195L46.5342 41.5352L46.6357 42.2764L46.6523 42.3936L46.6494 42.5117L46.5957 45.1211L46.6523 47.7266L46.6533 47.7393V47.751L46.6689 50.375L46.7129 53.0156L46.7139 53.0938L46.707 53.1719L46.4766 55.7715L46.3818 58.3154L46.4873 60.8984L46.4893 60.9453L46.5137 63.5508L46.6396 65.3994L46.8164 65.0977L47.8594 62.7656V62.7539H47.8711L48.9609 60.3867V60.375L50.0273 57.9609L50.0391 57.9258L50.0625 57.9023L51.1758 55.6172L51.9258 53.2148L51.9727 53.0742L52.043 52.9336L53.3086 50.6133L53.3203 50.5781L53.332 50.5547L54.6094 48.4453L55.418 46.0547L55.4648 45.9375L55.5234 45.8203L56.7539 43.5703L57.7148 41.2031L57.8086 40.9688L57.9844 40.7695L58.9336 39.7031L59.1055 39.5098V37.9219L58.9414 35.3789V35.3672L58.9297 35.3555L58.8125 32.707L58.8008 32.6133L58.8125 32.5312L59 29.9883L59.1523 30H62V30.2109L61.8008 32.6719L61.918 35.1797H61.9297L62.1055 37.8164V37.9102L62.1172 40.5469L62.1289 40.7109L62.0938 40.8633L62.0762 40.9453L62.8359 42L62.9531 42.1641L63.0234 42.3398L63.9492 44.7188L65.0508 47.1328V47.1445L66.1172 49.5586L66.1289 49.5703L67.1719 51.9961L68.2148 54.2578L69.6094 56.4258L69.7383 56.625L69.7969 56.8594L70.4062 59.2383L71.707 61.2539L71.7422 61.3125L71.7773 61.3828L72.9961 63.7266L73.0781 63.8555L73.1133 64.0078L73.5078 65.4434L73.6992 64.3066L73.5977 61.8877L73.251 59.3203L73.2178 59.0781L73.2637 58.8379L73.7246 56.4355L73.4141 54.0322L73.4004 53.9336L73.4014 53.834L73.4121 51.1934L73.4131 51.1758V51.1582L73.4873 48.5283L73.4863 48.5273L73.5449 45.9043L73.5439 45.9033L73.5732 43.2637V43.2227L73.5762 43.1807L73.6914 41.4307L72.5 41.4395V41.5H70.4961L70.8594 39.707L71.1055 38.4297V35.9219L70.9414 33.3789V33.3672L70.9297 33.3555L70.8125 30.707L70.8008 30.6133L70.8125 30.5312L71 27.9883L71.1523 28H74V28.2109L73.8008 30.6719L73.918 33.1797H73.9297L73.999 34.2334L74.5352 33.0391V33.0273L75.5312 30.5781L75.5547 30.5312L75.5898 30.4727L76.7734 28.1172L76.7969 28.082L76.8086 28.0469L78.0742 25.8203L79.1172 23.4648V23.4531L80.1953 21.0859V21.0742L81.2383 18.6484L81.25 18.6133L81.2734 18.5898L82.1055 16.8662V15.9219L81.9414 13.3789V13.3672L81.9297 13.3555L81.8125 10.707L81.8008 10.6133L81.8125 10.5312L82 7.98828L82.1523 8ZM43.9912 73.3242L43.1895 73.5166L42.9531 73.5732L42.7119 73.5527L41.2256 73.4248L41.1895 73.4268L41.1504 73.4287H41.1104L39.4902 73.418L37.7246 73.6133L37.6387 73.623H37.5527L34.9121 73.6094H34.8662L34.8203 73.6064L34.3467 73.5742L33.3281 73.6631L33.1816 73.6758L33.0352 73.6592L30.4785 73.377L29.1045 73.3828L29.1309 73.5H27V73.4551L25.3799 73.5635L25.3662 73.5645L25.3516 73.5654L22.7119 73.6914L22.6191 73.6963L22.5264 73.6895L21.7148 73.627L21.6963 74.5127L21.6943 74.5879L21.6855 74.6621L21.3818 77.1465L21.6016 79.6279L21.6104 79.7246L21.6064 79.8213L21.5 82.415L21.5508 84.9609L21.7363 87.5732L21.7451 87.7002L21.7324 87.8271L21.4756 90.4307L21.3291 92.9521L21.4912 95.5049L21.4922 95.5127V95.5205L21.6328 98.1602L21.6348 98.1982V98.2354L21.6426 100.875L21.6436 100.992L21.626 101.107L21.2393 103.627L21.2559 106.101L21.4287 108.701L21.4346 108.803L21.4277 108.904L21.4072 109.195L23.8125 109.07H23.8945L26.5312 109.082V109.094L29.0391 109.07L31.6758 108.836L31.8164 108.824L31.9688 108.836L34.5 109.117L37.0781 109.105V109.117L39.6211 108.941H39.6328L39.6445 108.93L42.293 108.812L42.3867 108.801L42.4688 108.812L45.0117 109L45 109.211V112H44.7891L42.3281 111.801L39.8203 111.918V111.93L37.1836 112.105H37.0898L34.4531 112.117L34.3594 112.129L34.2773 112.117L31.7695 111.836L29.2852 112.047L29.2383 112.059H29.1797L26.5312 112.082H26.5078L23.9531 112.07L21.3086 112.187L21.4277 113.712L21.7266 114.402L23.293 114.488L23.7148 114.453L23.7617 114.441H23.8203L23.9697 114.439L25.8789 114.286L26.0059 114.276L26.1328 114.287L27.6611 114.423L29.0469 114.43L31.6953 114.312L31.7773 114.301L31.8594 114.312L34.0752 114.459L36.4238 114.245L36.6201 114.227L36.8145 114.261L38.6338 114.574L39.6875 114.617L42.1836 114.535L44.832 114.289H44.9844L47.6211 114.336L47.6094 114.348H49.6348L49.6055 113.68L49.2539 111.043L49.2188 110.809L49.2656 110.562L49.7344 108.16L49.5947 107.104L49.5 107.105V106.38L49.418 105.758L49.4062 105.652V105.559L49.418 102.922V102.887L49.4883 100.238L49.5469 97.6133L49.5508 97.1045L49.5 97.1055V95.5H49.5654L49.5703 94.9883V94.9414L49.582 94.8945L49.7695 92.2695L49.8516 89.6562L49.875 89.1992L50.1328 88.8242L51.7031 86.6562L51.7617 86.5859L51.832 86.5156L53.625 84.582L53.8359 84.3594L54.1172 84.2422L56.5312 83.1758L56.6133 83.1406L56.707 83.1172L59.2617 82.3555L59.6367 82.2383L60.0117 82.3203L62.6133 82.8945L62.8008 82.9297L62.9766 83.0234L65.2852 84.1836L65.3555 84.2188L65.4141 84.2539L67.6523 85.6719L67.9453 85.8477L68.1211 86.1406L69.5391 88.4023L69.6328 88.5664L69.6914 88.7422L70.5 91.2969L70.5586 91.4844L70.5703 91.6836L70.6641 94.3438V94.3789L70.7109 97.0156V97.168L70.4766 99.8164L70.3828 102.254L70.4883 104.902V104.949L70.5117 107.492L70.6875 110.141L70.6992 110.223L70.6875 110.305L70.5703 112.871L70.5771 114.52L71.3281 114.559L73.8242 114.266L74.0586 114.23L74.2812 114.277L76.457 114.683L78.665 114.533L81.3047 114.295L81.3721 114.289L81.4385 114.288L84.0791 114.286H84.1006L84.123 114.287L86.7627 114.362L86.8125 114.363L86.8633 114.368L87.375 114.417L89.832 114.406H89.9375L90.0312 114.418L90.8457 114.525L91.9141 114.465L91.9873 114.461L92.0615 114.464L93.5117 114.522L94.8359 114.266L95.082 114.219L95.3164 114.254L96.9854 114.481L97.2236 114.473L97.2959 114.47L97.3682 114.474L98.4199 114.535L98.4209 113.439V113.343L98.4336 113.246L98.6162 111.834L96.8203 111.918V111.93L94.1836 112.105H94.0898L91.4531 112.117L91.3594 112.129L91.2773 112.117L88.7695 111.836L86.2852 112.047L86.2383 112.059H86.1797L83.5312 112.082H83.5078L80.9531 112.07L78.3047 112.188L78.2227 112.199L78.1406 112.188L75.4922 112.012L75.5039 112H74.9648L75.0352 109L75.6328 109.012H75.668L75.7031 109.023L78.2812 109.199L80.8125 109.07H80.8945L83.5312 109.082V109.094L86.0391 109.07L88.6758 108.836L88.8164 108.824L88.9688 108.836L91.5 109.117L94.0781 109.105V109.117L96.6211 108.941H96.6328L96.6445 108.93L98.7344 108.837L98.7266 108.302L98.2959 105.772L98.2734 105.639L98.2754 105.504L98.3027 102.864L98.3037 102.773L98.3154 102.683L98.6396 100.24L98.3086 97.8018L98.2861 97.6406L98.2998 97.4775L98.5039 94.9785L98.249 92.4727L98.2266 92.25L98.2695 92.0312L98.7568 89.54L98.7402 87.1719L98.3164 84.6484L98.29 84.4941L98.2969 84.3369L98.4072 81.6973L98.4102 81.6279L98.4199 81.5596L98.7432 79.1631L98.2842 76.7617L98.2393 76.5264L98.2695 76.2871L98.5547 74.0791L98.2568 73.4385L96.6016 73.4854L96.5928 73.4863L94.8936 73.5225L94.8008 74.6719L94.918 77.1797H94.9297L95.1055 79.8164V79.9102L95.1172 82.5469L95.1289 82.7109L95.0938 82.8633L94.8008 84.293L93.5 84.0352V85.5H91.4961L91.8594 83.707L92.1055 82.4297V79.9219L91.9414 77.3789V77.3672L91.9297 77.3555L91.8125 74.707L91.8008 74.6133L91.8125 74.5312L91.8828 73.5654L91.3242 73.5723L88.7393 73.7441L88.5498 73.7568L88.3623 73.7217L87.0234 73.4688L85.7246 73.6133L85.6387 73.623H85.5527L82.9121 73.6094H82.8662L82.8203 73.6064L80.4141 73.4443L78.1699 73.5801L78.04 73.5879L77.9111 73.5732L77.127 73.4834L77.1309 73.5H75.0117L72.4688 73.6875L72.3867 73.6992L72.293 73.6875L71.3867 73.6465L70.249 73.7148L70.1006 73.7236L69.9531 73.7031L68.2207 73.4609L67.0781 73.3828V73.3945L65.6797 73.3877L64.9111 73.4043L64.8789 73.4053L64.8467 73.4043L64.3857 73.3936L61.9688 73.6641L61.8164 73.6758L61.6758 73.6641L59.0273 73.4297L56.5195 73.4062L56.5312 73.418L55.4912 73.4219L54.4521 73.5146L54.4141 73.5176L54.376 73.5195L51.7363 73.6182L51.6777 73.6201L51.6182 73.6182L48.9951 73.5098L47.6289 73.4961L45.9727 73.5117L44.7656 73.5234L44.7314 73.375L43.9912 73.3242ZM53.2852 107.047L53.2383 107.059H53.1797L52.6113 107.064L52.7344 108.008L52.7578 108.254L52.7109 108.488L52.2422 110.891L52.582 113.281L52.5938 113.352V113.422L52.6279 114.38L52.6436 114.381L53.5312 114.312L53.6133 114.301L53.707 114.312L54.8301 114.361L55.4844 114.348H55.6133L55.7305 114.359L56.1494 114.42L56.3555 114.43L56.3672 114.441H56.3789L57.5293 114.521L57.624 114.518L57.6348 114.517L58.9277 114.477L58.9883 112.98H59L59.0117 110.391V110.344L59.0234 110.297L59.1875 107.719L59.1592 107.113L58.4531 107.117L58.3594 107.129L58.2773 107.117L55.7695 106.836L53.2852 107.047ZM63.8203 106.918V106.93L62.1582 107.04L62.1875 107.695L62.1992 107.777L62.1875 107.859L62.0117 110.508L62 110.496L61.9883 113.051V113.098L61.9346 114.436L63.2891 114.289L63.4414 114.277L63.6055 114.289L64.0166 114.337L64.0312 114.336L64.1836 114.324L64.3242 114.336L65.373 114.428L65.4688 114.42L65.4873 114.418L65.5068 114.417L67.5703 114.287V112.812L67.6875 110.281L67.5234 107.703L67.5117 107.656V107.609L67.5049 106.896L66.3281 106.801L63.8203 106.918ZM53.2852 97.0469L53.2383 97.0586H53.1797L52.5518 97.0645L52.5469 97.6602V97.6719L52.4883 100.32V100.332L52.4062 102.934H52.418L52.4121 104.068L53.0391 104.059L55.6758 103.836L55.8164 103.824L55.9688 103.836L58.5 104.105H59.0752L59.082 102.469L59.0586 99.9609L58.8359 97.3242L58.8242 97.1836L58.8291 97.1152L58.4531 97.1172L58.3594 97.1289L58.2773 97.1172L55.7695 96.8359L53.2852 97.0469ZM63.8203 96.918V96.9297L61.8545 97.0605L61.8359 97.2305L62.0469 99.7148L62.0586 99.7617V99.8203L62.082 102.469V102.492L62.0742 104.041L63.6211 103.941H63.6328L63.6445 103.93L66.293 103.812L66.3867 103.801L66.4688 103.812L67.4424 103.884L67.3828 102.383V102.266L67.4766 99.6289V99.582L67.4883 99.5469L67.7109 97.0625L67.708 96.9121L66.3281 96.8008L63.8203 96.918ZM37.6875 79.1992L38.5078 79.4102L38.7539 80.2305L39.4922 82.7383L39.5742 83.0078L39.5508 83.2891L39.3398 85.7969L39.6094 88.2812L39.6211 88.3633V88.4453L39.6094 91.082V91.1758L39.4336 93.8242L39.3398 95.1719L37.9922 95.2188L35.6953 95.2891L35.707 95.3008L33.8438 95.3828L33.7734 95.5H31.043L31.3008 93.7773L31.5234 92.3125L31.6172 89.7695L31.5117 87.25V87.2031L31.4883 84.6016L31.3828 81.9297L31.3594 81.25L31.8398 80.7812L33.7617 78.9414L34.3594 78.3672L37.6875 79.1992ZM86.6875 79.1992L87.5078 79.4102L87.7539 80.2305L88.4922 82.7383L88.5742 83.0078L88.5508 83.2891L88.3398 85.7969L88.6094 88.2812L88.6211 88.3633V88.4453L88.6094 91.082V91.1758L88.4336 93.8242L88.3398 95.1719L86.9922 95.2188L84.6953 95.2891L84.707 95.3008L82.8438 95.3828L82.7734 95.5H80.043L80.3008 93.7773L80.5234 92.3125L80.6172 89.7695L80.5117 87.25V87.2031L80.4883 84.6016L80.3828 81.9297L80.3594 81.25L80.8398 80.7812L82.7617 78.9414L83.3594 78.3672L86.6875 79.1992ZM57.6914 85.9531L55.6172 86.8672L54.082 88.4844L52.8281 90.2188L52.7695 92.4336V92.4922L52.6494 94.0645L53.0391 94.0586L55.6758 93.8359L55.8164 93.8242L55.9688 93.8359L58.5 94.1055H59.1055V91.9219L58.9414 89.3789V89.3672L58.9297 89.3555L58.8125 86.707L58.8008 86.6133L58.8125 86.5312L58.8809 85.5986L57.6914 85.9531ZM61.8008 86.6719L61.918 89.1797H61.9297L62.1055 91.8164V91.9102L62.1143 94.0381L63.6211 93.9414H63.6328L63.6445 93.9297L66.293 93.8125L66.3867 93.8008L66.4688 93.8125L67.6436 93.8984L67.5703 92.0117L66.8789 89.832L65.7539 88.0273L63.8438 86.832L61.8682 85.833L61.8008 86.6719ZM34.4062 82.4805L34.4883 84.4844V84.5312L34.5117 87.1211L34.6172 89.7695V89.8867L34.5234 92.3594L35.5781 92.3125L36.5156 92.2773L36.6094 90.9766V88.5039L36.3398 85.9609L36.3281 85.8203L36.3398 85.668L36.5391 83.3125L36.1172 81.918L35.2266 81.6953L34.4062 82.4805ZM83.4062 82.4805L83.4883 84.4844V84.5312L83.5117 87.1211L83.6172 89.7695V89.8867L83.5234 92.3594L84.5781 92.3125L85.5156 92.2773L85.6094 90.9766V88.5039L85.3398 85.9609L85.3281 85.8203L85.3398 85.668L85.5391 83.3125L85.1172 81.918L84.2266 81.6953L83.4062 82.4805ZM59.4961 44.7891L59.4258 44.9297L58.207 47.1562L57.4102 49.5352L57.3633 49.6875L57.2812 49.8281L55.9102 52.1016L54.7383 54.2578L54 56.6484L53.9648 56.7539L53.918 56.8594L52.7461 59.2266L51.7031 61.5938L51.6914 61.6055L50.5898 63.9961H50.6016L49.5117 66.3984L49.4883 66.4688L49.4414 66.5391L48.1172 68.8359L47.2588 70.4932L48.2051 70.502L48.4922 70.5V70.4883L51.1406 70.3125L51.2227 70.3008L51.3047 70.3125L53.9414 70.4297L55.3584 70.4229L56.8281 70.293L56.9062 70.2861L56.9844 70.2871L59.625 70.3311L59.624 70.332L62.249 70.3467H62.2607L62.2734 70.3477L64.209 70.3896L64.2773 70.3828L64.3594 70.3711L64.4531 70.3828L65.6895 70.3877L67.4883 70.3506L67.6084 70.3477L67.7266 70.3643L68.6387 70.4912L69.8203 70.5703L69.8086 70.582L71.2607 70.6494L72.4922 70.5762L72.2812 70.2773L72.1875 70.1602L72.1289 70.0195L71.0273 67.6172L70.9805 67.5117L70.9453 67.3945L70.2539 64.9688L69.1289 62.8125L67.7461 60.6445L67.6172 60.4336L67.5469 60.1992L66.9375 57.832L65.6484 55.7812L65.5898 55.6992L65.5547 55.6172L64.4414 53.2148L64.4297 53.2031V53.1797L63.375 50.7656L62.3203 48.375L61.2188 45.9727L61.207 45.9258L61.1836 45.8906L60.2695 43.582L60.2139 43.5H60.0225L59.4961 44.7891ZM39.0742 41.3945L38.6846 41.3926L37.0889 41.5732L36.96 41.5879L36.8301 41.5801L35.4551 41.4971L33.9648 41.6641L33.8125 41.6758L33.6719 41.6641L32.1426 41.5342L31.7168 41.5566L31.5908 41.5625L31.4668 41.5479L30.3994 41.4229L29.042 41.4111L28.6875 41.5918L28.5723 43.3252L28.5439 45.9365V45.9531L28.4863 48.5928L28.4854 48.6016L28.4121 51.2422L28.4014 53.749L28.7305 56.2871L28.7607 56.5264L28.7158 56.7617L28.2559 59.1641L28.5801 61.5596L28.5898 61.6279L28.5928 61.6973L28.7031 64.3369L28.71 64.4941L28.6836 64.6484L28.2588 67.1729L28.2422 69.5205L28.4346 70.3867H28.5156L29.5264 70.3105L29.6191 70.3037L29.7119 70.3086L32.3516 70.4346L32.3662 70.4355L32.3799 70.4365L34.3252 70.5664L35.7119 70.4473L35.7676 70.4424H35.8232L38.4629 70.4121H38.4893L39.3398 70.417L40.0352 70.3408L40.1816 70.3242L40.3281 70.3369L41.29 70.4189L43.5791 70.3125L43.5713 68.8896V68.8496L43.5732 68.8105L43.6914 66.2637L43.5176 63.7021L43.5146 63.6582V63.6143L43.4893 61.0049L43.3818 58.3818L43.3799 58.3223L43.3818 58.2637L43.4805 55.624L43.4824 55.5859L43.4854 55.5479L43.7109 52.9893L43.6699 50.4248V50.417L43.6689 50.4092L43.6533 47.793L43.5957 45.1533L43.5947 45.1211L43.5957 45.0889L43.6475 42.5664L43.5215 41.6533L41.6523 41.5703L41.6289 41.5586H41.6172L39.0742 41.3828V41.3945ZM87.0742 41.3945L86.6846 41.3926L85.0889 41.5732L84.96 41.5879L84.8301 41.5801L83.4551 41.4971L81.9648 41.6641L81.8125 41.6758L81.6719 41.6641L80.1426 41.5342L79.7168 41.5566L79.5908 41.5625L79.4668 41.5479L78.3994 41.4229L77.042 41.4111L76.6875 41.5918L76.5723 43.3252L76.5439 45.9365V45.9531L76.4863 48.5928L76.4854 48.6016L76.4121 51.2422L76.4014 53.749L76.7305 56.2871L76.7607 56.5264L76.7158 56.7617L76.2559 59.1641L76.5801 61.5596L76.5898 61.6279L76.5928 61.6973L76.7031 64.3369L76.71 64.4941L76.6836 64.6484L76.2588 67.1729L76.2422 69.5205L76.4346 70.3857L76.4727 70.3906L77.5264 70.3105L77.6191 70.3037L77.7119 70.3086L80.3516 70.4346L80.3662 70.4355L80.3799 70.4365L80.4131 70.4385L80.6299 70.4258L80.7129 70.4209L80.7969 70.4258L83.3086 70.5547L85.8262 70.2607L86.0527 70.2344L86.2773 70.2764L87.1416 70.4385L88.0352 70.3408L88.1816 70.3242L88.3281 70.3369L90.7246 70.543L91.5801 70.3389L91.5713 68.8896V68.8496L91.5732 68.8105L91.6914 66.2637L91.5176 63.7021L91.5146 63.6582V63.6143L91.4893 61.0049L91.3818 58.3818L91.3799 58.3223L91.3818 58.2637L91.4805 55.624L91.4824 55.5859L91.4854 55.5479L91.7109 52.9893L91.6699 50.4248V50.417L91.6689 50.4092L91.6533 47.793L91.5957 45.1533L91.5947 45.1211L91.5957 45.0889L91.6475 42.5664L91.5215 41.6533L89.6523 41.5703L89.6289 41.5586H89.6172L87.0742 41.3828V41.3945ZM61.7109 55.9453L63.8555 58.0898L63.9609 58.4883L64.6406 61.0781L65.0508 62.6016L64.125 62.7891L63.75 64.3359L63.6562 64.7109L63.4102 64.9805L61.7578 66.832L61.1602 67.4883L60.293 67.2891L57.8438 66.7148L57.1523 66.5508L56.8477 65.918L55.6641 63.5156L55.4766 63.1289L55.5234 62.6953L55.8047 60.082L55.8164 59.8945L55.8867 59.7188L56.8008 57.2812L57.0469 56.6133L57.7383 56.3906L60.1758 55.582L61.0547 55.3008L61.7109 55.9453ZM59.3438 59.0039L58.7578 60.5977L58.5469 62.5664L59.2266 63.9492L60.1055 64.1602L60.9141 63.2695L61.4414 61.1367L61.5 60.9023L61.1602 59.6484L60.2344 58.7227L59.3438 59.0039ZM37.6875 47.1992L38.5078 47.4102L38.7539 48.2305L39.4922 50.7383L39.5742 51.0078L39.5508 51.2891L39.3398 53.7969L39.6094 56.2812L39.6211 56.3633V56.4453L39.6094 59.082V59.1758L39.4336 61.8242L39.3398 63.1719L37.9922 63.2188L35.6953 63.2891L35.707 63.3008L33.8438 63.3828L33.7734 63.5H31.043L31.3008 61.7773L31.5234 60.3125L31.6172 57.7695L31.5117 55.25V55.2031L31.4883 52.6016L31.3828 49.9297L31.3594 49.25L31.8398 48.7812L33.7617 46.9414L34.3594 46.3672L37.6875 47.1992ZM86.6875 47.1992L87.5078 47.4102L87.7539 48.2305L88.4922 50.7383L88.5742 51.0078L88.5508 51.2891L88.3398 53.7969L88.6094 56.2812L88.6211 56.3633V56.4453L88.6094 59.082V59.1758L88.4336 61.8242L88.3398 63.1719L86.9922 63.2188L84.6953 63.2891L84.707 63.3008L82.8438 63.3828L82.7734 63.5H80.043L80.3008 61.7773L80.5234 60.3125L80.6172 57.7695L80.5117 55.25V55.2031L80.4883 52.6016L80.3828 49.9297L80.3594 49.25L80.8398 48.7812L82.7617 46.9414L83.3594 46.3672L86.6875 47.1992ZM34.4062 50.4805L34.4883 52.4844V52.5312L34.5117 55.1211L34.6172 57.7695V57.8867L34.5234 60.3594L35.5781 60.3125L36.5156 60.2773L36.6094 58.9766V56.5039L36.3398 53.9609L36.3281 53.8203L36.3398 53.668L36.5391 51.3125L36.1172 49.918L35.2266 49.6953L34.4062 50.4805ZM83.4062 50.4805L83.4883 52.4844V52.5312L83.5117 55.1211L83.6172 57.7695V57.8867L83.5234 60.3594L84.5781 60.3125L85.5156 60.2773L85.6094 58.9766V56.5039L85.3398 53.9609L85.3281 53.8203L85.3398 53.668L85.5391 51.3125L85.1172 49.918L84.2266 49.6953L83.4062 50.4805ZM35.5 20.9785V21.5H35.2754L34.9492 22.2578L34.9375 22.2812L33.8594 24.6836L32.8047 27.0859L32.7695 27.168L32.7344 27.2266L31.4219 29.5352L30.2617 31.832L29.3125 34.1641L29.2891 34.2109L28.2109 36.6133L27.5312 38.4297L28.3066 38.4199L28.3213 38.4131L28.7246 38.209L29.1738 38.2607L30.6826 38.4365L31.1758 38.4414H31.2344L31.293 38.4531L32.1826 38.5293L34.2031 38.4258L34.2871 38.4209L34.3701 38.4258L35.3555 38.4844L36.2734 38.3828L36.3555 38.3711L36.4492 38.3828L38.5156 38.3916L39.3916 38.293L39.5537 38.2744L39.7168 38.292L42.3154 38.5654L44.4316 38.6904L44.793 38.6641L44.2305 37.375L44.207 37.3398L44.1953 37.3047L43.3164 35.0078L41.8867 32.9688L41.7461 32.7812L41.6758 32.5703L40.8789 30.1328L39.7305 27.9297L39.6953 27.8477L39.6602 27.7773L38.7461 25.4219L37.457 23.2656L37.3633 23.125L37.3164 22.9727L36.4961 20.5117L36.374 20.208L35.874 20.1094L35.5 20.9785ZM83.5 20.9785V21.5H83.2754L82.9492 22.2578L82.9375 22.2812L81.8594 24.6836L80.8047 27.0859L80.7695 27.168L80.7344 27.2266L79.4219 29.5352L78.2617 31.832L77.3125 34.1641L77.2891 34.2109L76.2109 36.6133L75.5312 38.4297L76.3066 38.4199L76.3213 38.4131L76.7246 38.209L77.1738 38.2607L78.6826 38.4365L79.1758 38.4414H79.2344L79.293 38.4531L80.1826 38.5293L82.2031 38.4258L82.2871 38.4209L82.3701 38.4258L83.3555 38.4844L84.2734 38.3828L84.3555 38.3711L84.4492 38.3828L86.5156 38.3916L87.3916 38.293L87.5537 38.2744L87.7168 38.292L90.3154 38.5654L92.4316 38.6904L92.793 38.6641L92.2305 37.375L92.207 37.3398L92.1953 37.3047L91.3164 35.0078L89.8867 32.9688L89.7461 32.7812L89.6758 32.5703L88.8789 30.1328L87.7305 27.9297L87.6953 27.8477L87.6602 27.7773L86.7461 25.4219L85.457 23.2656L85.3633 23.125L85.3164 22.9727L84.4961 20.5117L84.374 20.208L83.874 20.1094L83.5 20.9785Z" fill="black"/>
</svg>
