<svg width="120" height="120" viewBox="0 0 120 120" fill="none" xmlns="http://www.w3.org/2000/svg">
<path d="M80.7148 18H83V18.1992L82.9883 18.293L82.8008 19.6172L82.918 21.0117L83.0703 21.6797L83.1865 22.1943L85.1875 23.375L85.7031 23.6797L85.8672 24.2539L86.5469 26.668L86.6992 27.1953L86.4766 27.6875L86.2803 28.125L86.3008 28.7891L86.3711 31.3906L86.3828 31.4141V31.4375L86.3945 34.0742L86.5586 36.6172L86.5703 36.793L86.5469 36.9805L86.1133 39.4531L85.8789 40.8359L84.4727 40.6836L82.6768 40.4805L82.707 40.8242L82.7188 40.9062L82.707 40.9883L82.6719 43.625L82.6484 46.25V46.2734L82.5898 48.9102L82.6484 51.4883V51.6055L82.6367 51.7227L82.3779 53.6084L83.0781 53.6055V53.6172L83.9707 53.5547L83.9648 53.5273L83.9414 53.4219V53.3164L83.8125 51.7227L83.8008 51.5586L83.8242 51.4062L84.0117 49.9062L84.7148 50H87V50.1992L86.9883 50.293L86.8008 51.6172L86.918 53.0117L86.999 53.3691L88.293 53.3125L88.3867 53.3008L88.4688 53.3125L88.9414 53.3467V53.3164L88.8125 51.7227L88.8008 51.5586L88.8242 51.4062L89.0117 49.9062L89.7148 50H92V50.1992L91.9883 50.293L91.8008 51.6172L91.918 53.0117L92.0293 53.5H92.6875L92.4883 55.1758L92.46 55.4082L92.4805 55.4961H92.4502L92.3359 56.4648L92.3242 56.5586L92.3008 56.6406L91.75 58.9844L91.5742 59.6992L90.918 60.0039L88.5977 61.0586L86.4111 62.5L86.418 62.6484L86.5586 65.2852V65.4141L86.5469 65.5312L86.2656 67.9336L86.7227 70.3594L86.7578 70.5469L86.7461 70.7344L86.5703 73.3828L86.5469 75.9375V75.9492L86.4932 78.3574L86.6875 78.2578L87.4023 78.6914L89.6758 80.0508L89.7461 80.0859L89.8047 80.1328L91.7383 81.6094L92.2539 81.9961L92.3242 82.6406L92.6172 85.2773L92.6221 85.3291L94.0156 84.4062L94.4023 84.1484H94.8594L95.1016 84.1504L94.9648 83.5273L94.9414 83.4219V83.3164L94.8125 81.7227L94.8008 81.5586L94.8242 81.4062L95.0117 79.9062L95.7031 80H98V80.1992L97.9883 80.293L97.8008 81.6172L97.918 83.0117L98.0703 83.6797L98.2969 84.6865L100.145 86.1289L100.449 86.375L100.602 86.7266L101.504 88.8477L101.645 89.1875L101.621 89.5508L101.41 92.2227L101.389 92.5205L101.434 93.0312L101.668 95.668L101.68 95.8203L101.656 95.9609L101.375 98.4922L101.387 100.977L101.562 103.625L101.609 104.281L101.141 104.762L99.7227 106.238L99.207 106.766L98.4805 106.684L97.4785 106.575L97.2607 107.731L97.4238 110.181L97.4268 110.223V110.264L97.4561 112.903H97.4551L97.4912 114.55L97.8945 114.605L100.273 114.711L102.793 114.277L102.91 114.266H103.027L105.664 114.242H105.816L105.969 114.266L108.406 114.746L110.809 114.5L110.891 114.488H110.973L112.016 114.5L112.004 116L111.98 117.5L110.984 117.488L108.477 117.746L108.254 117.77L108.031 117.734L105.57 117.242L103.145 117.254L100.648 117.688L100.496 117.711L100.332 117.699L97.6953 117.594H97.625L97.5547 117.582L95.3242 117.266L94.1475 117.547L93.9795 117.587L93.8066 117.588L93.3799 117.589L92.7617 117.711L92.5273 117.758L92.293 117.734L91.2334 117.598L91.166 117.599L91.0664 117.6L90.9678 117.586L89.582 117.406L87.8359 117.415L86.1621 117.736L85.9219 117.782L85.6797 117.749L83.8672 117.504L81.957 117.547H81.9336L79.3672 117.559L79.3789 117.57L78.9023 117.602L78.209 117.719L78.0908 117.739L77.9707 117.74L76.6914 117.749L76.5547 117.758L76.5146 117.75L75.3311 117.759L75.1797 117.761L75.0312 117.731L73.1348 117.358L71.5391 117.547L71.4102 117.559H71.2812L70.2188 117.5L70.1924 117.503L70.0547 117.517L69.918 117.505L69.1133 117.438L68.7266 117.418L66.1719 117.582H66.043L65.9141 117.57L65.6719 117.543L64.9619 117.64L64.7627 117.666L64.5625 117.64L62.5977 117.378L60.957 117.559H60.8867L58.25 117.711L58.0977 117.723L57.957 117.699L57.4941 117.635L57.0918 117.704L56.9785 117.724L56.8623 117.725L54.2227 117.765L54.1143 117.767L54.0059 117.752L51.5195 117.428L49.0371 117.622L48.9346 117.631L48.832 117.624L46.2676 117.473L43.6963 117.569L43.6377 117.571L43.5791 117.569L42.4229 117.521L42.418 117.523H42.3711L39.7344 117.617H39.6172L38.8662 117.587L38.4463 117.611L38.3311 117.618L38.2168 117.607L37.3877 117.527L36.9805 117.512V117.5L35.834 117.494L35.7988 117.649L34.625 117.669L31.9844 117.713L31.9062 117.714L31.8281 117.707L29.2295 117.477L27.8164 117.424L26.4688 117.418V117.406L25.9736 117.41L24.1016 117.487L24.0547 117.489L23.1973 117.497L21.3242 117.664L21.1836 117.676L21.0312 117.664L18.5 117.383L15.9219 117.395V117.383L13.3789 117.559H13.3672L13.3555 117.57L10.707 117.688L10.6133 117.699L10.5312 117.688L7.98828 117.5L8 117.277V114.5H8.21094L10.6719 114.699L13.1797 114.582V114.57L15.8164 114.395H15.9102L18.5469 114.383L18.6406 114.371L18.7227 114.383L19.4395 114.463L19.3555 114.143L19.2969 113.92L19.3076 113.69L19.4287 111.087L19.4121 108.489V108.463L19.4424 105.823L19.4463 105.47L19.6074 105.155L20.1494 104.098L19.1406 104.324L18.9648 103.527L18.9414 103.422V103.316L18.8125 101.723L18.8008 101.559L18.8242 101.406L19.0117 99.9062L19.7031 100H22V100.199L21.9883 100.293L21.8008 101.617L21.8867 102.649L24.2754 102.387L24.3613 102.377H24.5459L24.5234 101.771L24.293 99.1719L24.2861 99.0938L24.2871 99.0156L24.3311 96.375L24.3467 93.751V93.7305L24.3477 93.7109L24.4062 91.9502L24.4541 90.5H24.4912L24.4883 90.2539L24.4297 87.4648L24.418 86.5391L25.2383 86.1055L27.582 84.8867L29.0889 84.0918L28.9648 83.5273L28.9414 83.4219V83.3164L28.8125 81.7227L28.8008 81.5586L28.8242 81.4062L29.0117 79.9062L29.7031 80H32V80.1992L31.9883 80.293L31.8008 81.6172L31.918 83.0117L32.0703 83.6797L32.1768 84.1543L33.6758 85.0508L33.7461 85.0859L33.8047 85.1328L35.7383 86.6094L36.2539 86.9961L36.3242 87.6406L36.6172 90.2773L36.6758 90.8516L36.3359 91.3203L35.8467 92L36.3398 92.6836L36.6768 93.1514L36.6133 93.7246L36.3379 96.2158L36.543 98.6055L37.666 98.6914L38.5635 98.6475L38.6182 97.3145L38.5225 94.7676L38.293 92.1719L38.2861 92.0938L38.2871 92.0156L38.3311 89.375L38.3467 86.9902L38.3574 85.5H38.3779L38.3125 84.5508L38.2891 84.2344L38.3945 83.9297L39.2383 81.5977L39.4023 81.1406L39.8242 80.8594L42.0156 79.4062L42.4023 79.1484H42.8594L44.3633 79.1631L44.3125 78.4688L44.3008 78.3867L44.3125 78.293L44.4297 75.6445L44.4414 75.6328V75.6211L44.6055 73.0781L44.6172 70.5469L44.3359 67.9688L44.3242 67.8164L44.3359 67.6758L44.5586 65.0273L44.5938 62.5078V62.0273L44.6113 62.002L43.0234 61.375L42.8594 61.3164L42.7188 61.2227L40.5273 59.7227L40.3633 59.6055L40.2344 59.4531L38.793 57.7773L38.1836 57.0508L38.5703 56.1836L39.4316 54.2588L39.1406 54.3242L38.9648 53.5273L38.9414 53.4219V53.3164L38.8125 51.7227L38.8008 51.5586L38.8242 51.4062L39.0117 49.9062L39.7148 50H42V50.1992L41.9883 50.293L41.8008 51.6172L41.918 53.0117L42.0146 53.4355L43.5742 53.6523L43.9902 53.6426L43.9648 53.5273L43.9414 53.4219V53.3164L43.8125 51.7227L43.8008 51.5586L43.8242 51.4062L44.0117 49.9062L44.7148 50H47V50.1992L46.9883 50.293L46.8008 51.6172L46.918 53.0117L47.0547 53.6133L48.7109 53.6504L48.7461 52.6484L48.2656 50.1641L48.2188 49.918L48.2539 49.6836L48.6055 47.0352L48.7109 44.7148L48.2773 42.207L48.2656 42.0898V41.9727L48.251 40.334L46.1875 40.4258L44.6406 40.4961L44.6172 38.9492L44.5938 36.5L44.5586 33.9688L44.3359 31.332L44.3125 31.0508L44.3945 30.7812L44.4766 30.5H44.4414L44.4297 29.0117L44.418 26.4922L44.4062 26.0938L44.6055 25.7539L45.7773 23.6328L46 23.2344L46.4102 23.0234L48.292 22.0654L47.1406 22.3242L46.9648 21.5273L46.9414 21.4219V21.3164L46.8125 19.7227L46.8008 19.5586L46.8242 19.4062L47.0117 17.9062L47.7148 18H50V18.1992L49.9883 18.293L49.8008 19.6172L49.918 21.0117L50.0703 21.6797L50.1865 22.1943L52.1875 23.375L52.7031 23.6797L52.8672 24.2539L53.5469 26.668L53.6992 27.1953L53.4766 27.6875L53.1494 28.4189L53.1953 28.6484L53.6641 31.0742L53.7109 31.2969L53.6875 31.5195L53.4541 33.6621L55.1797 33.582V33.5703L55.9619 33.5176L55.9414 33.4219V33.3164L55.8125 31.7227L55.8008 31.5586L55.8242 31.4062L56.0117 29.9062L56.7148 30H59V30.1992L58.9883 30.293L58.8008 31.6172L58.918 33.0117L59.0039 33.3896L60.5469 33.3828L60.6406 33.3711L60.7227 33.3828L60.9414 33.4072V33.3164L60.8125 31.7227L60.8008 31.5586L60.8242 31.4062L61.0117 29.9062L61.7148 30H64V30.1992L63.9883 30.293L63.8008 31.6172L63.918 33.0117L64.0508 33.5938L65.7148 33.4531L65.7617 33.4414H65.8203L65.9453 33.4395L65.9414 33.4219V33.3164L65.8125 31.7227L65.8008 31.5586L65.8242 31.4062L66.0117 29.9062L66.7148 30H69V30.1992L68.9883 30.293L68.8008 31.6172L68.918 33.0117L69.0107 33.4199L70.9424 33.4287L70.9414 33.4219V33.3164L70.8125 31.7227L70.8008 31.5586L70.8242 31.4062L71.0117 29.9062L71.7148 30H74V30.1992L73.9883 30.293L73.8008 31.6172L73.918 33.0117L73.9883 33.3203L76.5078 33.4883L76.4961 33.5L77.6826 33.5049L77.5703 31.1914L77.5586 30.9922L77.6055 30.793L77.6699 30.5H77.4414L77.4297 29.0117L77.418 26.4922L77.4062 26.0938L77.6055 25.7539L78.7773 23.6328L79 23.2344L79.4102 23.0234L81.292 22.0654L80.1406 22.3242L79.9648 21.5273L79.9414 21.4219V21.3164L79.8125 19.7227L79.8008 19.5586L79.8242 19.4062L80.0117 17.9062L80.7148 18ZM69.4521 101.515L69.4141 101.518L69.376 101.52L66.7363 101.618L66.6777 101.62L66.6182 101.618L63.9951 101.51L61.3857 101.485H61.3418L61.2979 101.482L58.7363 101.308L56.1895 101.427L56.1504 101.429H56.1104L53.4873 101.412L50.9053 101.441L48.3281 101.663L48.1816 101.676L48.0352 101.659L47.4375 101.593L45.3096 101.692L45.2236 101.696L45.1377 101.69L42.5283 101.513L41.4668 101.49L40.3799 101.563L40.3662 101.564L40.3516 101.565L37.7119 101.691L37.6191 101.696L37.5264 101.689L36.5869 101.617L36.5713 104.13L36.5654 104.982L36.3574 105.104L36.3086 105.926L36.6357 108.273L36.6523 108.392L36.6494 108.512L36.6123 110.282L36.7051 111.305L36.7109 111.372L36.7119 111.438L36.7129 113.868L36.8828 114.466L37.5596 114.53L38.8467 114.582L40.9141 114.465L40.9873 114.461L41.0615 114.464L42.377 114.517L44.832 114.289H44.9844L47.6211 114.336L47.6094 114.348H50.2695L52.8711 114.406L55.4844 114.348H55.6133L55.7305 114.359L57.4102 114.604L59.2275 114.296L59.3613 114.273L59.4961 114.275L62.1357 114.303L62.2266 114.304L62.3174 114.315L62.6465 114.358L63.2891 114.289L63.4414 114.277L63.6055 114.289L65.6045 114.524L67.1982 114.309L67.3594 114.286L67.5225 114.3L69.6328 114.472L70.0977 114.495L72.5273 114.249L72.75 114.227L72.9688 114.27L73.2764 114.329L73.8242 114.266L74.0586 114.23L74.2812 114.277L76.7305 114.734L78.5273 114.622L80.3516 114.316L80.5059 114.29L80.6631 114.297L83.3027 114.407L83.3721 114.41L83.4404 114.42L84.0283 114.499L84.5234 114.488L87.1602 114.418H87.1953L87.5459 114.416L88.2383 114.284L88.4736 114.239L88.7129 114.27L89.7725 114.406H89.9375L90.0312 114.418L91.3838 114.597L93.166 114.589L94.4844 114.333L94.4561 112.953V112.937L94.4268 110.324L94.2559 107.739L94.2432 107.55L94.2783 107.362L94.7324 104.946L94.4521 102.533L94.4492 102.515L94.4482 102.496L94.3574 101.508L93.1699 101.58L93.04 101.588L92.9111 101.573L90.4316 101.292L90.3115 101.304L89.999 101.488L89.5996 101.723L89.1377 101.69L87.5234 101.58L85.249 101.715L85.1006 101.724L84.9531 101.703L82.4297 101.352L79.9111 101.404L79.8789 101.405L79.8467 101.404L77.207 101.347V101.346L74.5908 101.331L74.583 101.33H74.5752L72.0107 101.288L69.4521 101.515ZM22.7666 105.57L22.4385 106.209L22.4121 108.497L22.4287 111.11V111.15L22.4268 111.189L22.3145 113.6L22.5537 114.503L23.2002 114.496L23.7148 114.453L23.7617 114.441H23.8203L25.5342 114.426L26.6182 114.382L26.6777 114.38L26.7363 114.382L27.8721 114.424L29.0469 114.43L31.6953 114.312L31.7773 114.301L31.8594 114.312L33.4629 114.418L33.6494 113.607L33.5957 111.153L33.5947 111.121L33.5957 111.089L33.6104 110.385L33.4785 108.936L33.4775 108.919L33.4756 108.902L33.3252 106.703L33.1377 106.69L30.5498 106.514L27.9453 106.489L27.6885 106.486L27.4473 106.398L25.6064 105.729L24.6582 105.385L24.6572 105.377H24.5215L22.7666 105.57ZM93.8867 93.6523L93.5 94.0391L93.4883 96.0547V96.1016L93.3828 98.5605L95.6299 98.4258L97.082 98.3389L97.2139 99.7871L97.4336 102.207L97.5918 103.57L98.0703 103.625L98.5273 103.145L98.3984 101.176L98.3867 101.129V101.082L98.375 98.4453V98.3633L98.3867 98.2812L98.6562 95.7617L98.5039 93.9453L98 93.5703H95.9375L93.8867 93.6523ZM31.3799 93.5635L31.3662 93.5645L31.3516 93.5654L28.7119 93.6914L28.6279 93.6953L28.5449 93.6904L27.3516 93.6143L27.3467 93.7695L27.3311 96.4092L27.3301 96.417V96.4248L27.2881 98.9883L27.5146 101.548L27.5176 101.586L27.5195 101.624L27.5488 102.418L29.792 102.569V102.568L32.334 102.691L33.4209 102.608L33.3652 100.93L33.3613 100.79L33.3818 100.652L33.5176 99.7725L33.5635 99.4678L33.5576 98.9053L33.3369 96.3281L33.3242 96.1816L33.3408 96.0352L33.5684 93.9688L33.2803 93.5693L32.2812 93.5029L31.3799 93.5635ZM77.8984 62.6875L77.7461 62.7109L77.5938 62.6992L74.957 62.5938H74.8867L74.8164 62.582L74.4766 62.5332L73.7266 62.6367L73.6094 62.6484H73.4922L70.8789 62.6016L70.541 62.6074L70.0117 62.7109L69.7773 62.7578L69.543 62.7344L68.8027 62.6387L68.2773 62.6484H68.2539L65.6172 62.6719H65.6289L62.9805 62.707L62.9102 62.7188L62.8281 62.707L60.6201 62.5146L59.207 62.5469H59.1953L56.6172 62.5586L56.6289 62.5703L53.9922 62.7461L53.8047 62.7578L52.5254 62.5176L52.4102 62.5195H52.3984L49.8672 62.6953H49.6914L47.8633 62.6133L47.5703 63.0234L47.5586 65.1797V65.2383L47.5469 65.2852L47.3359 67.7695L47.6172 70.2773L47.6289 70.3594L47.6172 70.4531L47.6055 73.0898V73.1836L47.4297 75.8203L47.3008 78.3281L47.4854 80.6143L48.1445 81.1289L48.4492 81.375L48.6016 81.7266L49.5039 83.8477L49.6445 84.1875L49.6211 84.5508L49.4297 86.9658L49.6182 89.4463L49.6289 89.5859L49.6133 89.7246L49.3379 92.2158L49.5527 94.7119L49.5576 94.7676V94.8232L49.5879 97.4629L49.5889 97.5312L49.583 97.5996L49.5059 98.5508L50.7119 98.4473L50.7676 98.4424H50.8232L53.4629 98.4121H53.4893L56.0957 98.4287L58.6904 98.3076L58.7764 98.3037L58.8623 98.3096L61.4492 98.4863L64.0547 98.5107L64.1016 98.5127L66.6846 98.6182L69.2285 98.5234L71.8281 98.293L71.9062 98.2861L71.9844 98.2871L74.625 98.3311L74.624 98.332L77.249 98.3467H77.2607L77.2734 98.3477L79.8809 98.4053L80.583 98.3896L80.5234 96.7705L80.293 94.1719L80.2861 94.0938L80.2871 94.0156L80.3311 91.375L80.3467 88.751V88.7305L80.3477 88.7109L80.4062 86.9502L80.4541 85.5H80.4912L80.4883 85.2539L80.4297 82.4648L80.418 81.5391L81.2383 81.1055L83.4463 79.957L83.4883 78.5156L83.5469 75.8906L83.5703 73.2656V73.2188L83.582 73.1836L83.7227 70.7344L83.2773 68.2734L83.2305 68.0508L83.2656 67.8281L83.5469 65.3438L83.4414 63.082L83.1719 62.5312L81.6133 62.707L81.4492 62.7305L81.2852 62.707L79.1035 62.4785L77.8984 62.6875ZM93.1191 98.5771L93.3701 98.5615L92.7539 98.5352L93.1191 98.5771ZM87.3799 88.5635L87.3662 88.5645L87.3516 88.5654L84.7119 88.6914L84.6279 88.6953L84.5449 88.6904L83.3516 88.6143L83.3467 88.7695L83.3311 91.4092L83.3301 91.417V91.4248L83.2881 93.9883L83.5146 96.5479L83.5176 96.5859L83.5195 96.624L83.5801 98.2549L84.2314 98.4912L86.6143 98.5146H86.6582L87.5371 98.5732L87.6836 98.5654L89.3496 98.3896L89.5762 98.2578L89.5879 96.4971L89.5576 93.9053L89.3369 91.3281L89.3242 91.1816L89.3408 91.0352L89.5684 88.9688L89.2803 88.5693L88.2812 88.5029L87.3799 88.5635ZM45.3799 88.5635L45.3662 88.5645L45.3516 88.5654L42.7119 88.6914L42.6318 88.6953L42.5527 88.6904L41.3359 88.6191L41.3311 89.4102L41.3301 89.417V89.4248L41.2881 91.9883L41.5146 94.5479L41.5176 94.5859L41.5195 94.624L41.6182 97.2637L41.6201 97.3223L41.6182 97.3818L41.5723 98.4766L42.8203 98.3936L42.8662 98.3906H42.9121L45.5527 98.377H45.6387L45.7246 98.3867L46.5029 98.4727L46.5869 97.4297L46.5576 94.9053L46.3369 92.3281L46.3242 92.1816L46.3408 92.0352L46.6162 89.5352L46.5381 88.5195L46.2822 88.5029L45.3799 88.5635ZM66.4414 84.2852L68.0352 86.418L68.0703 86.4648L68.1055 86.5352L69.4062 88.6562L69.6289 89.0195L69.6172 89.4531L69.6055 92.0898V92.4062L69.4766 92.6875L68.6445 94.5508L68.2344 95.4766L67.2031 95.4297L64.6367 95.3008L62.7266 95.3945L62.6328 95.5H60.5938L60.4883 94.1055L60.3125 91.5859L60.3008 91.4922L60.3125 91.4102L60.4297 88.7734L60.4531 88.3516L60.6875 88L62.1406 85.8555L62.2578 85.668L62.4336 85.5273L64.2969 84.0156L65.5156 83.043L66.4414 84.2852ZM64.4961 87.7188L63.4062 89.3359L63.3008 91.457L63.3594 92.3711L64.5664 92.3125L64.6367 92.3008L64.707 92.3125L66.3242 92.3945L66.6055 91.7617V89.8516L65.6211 88.2109L64.9648 87.3438L64.4961 87.7188ZM93.8867 88.0977L93.3125 89.668L93.3711 90.3828L94.5547 90.3125L94.6367 90.3008L94.707 90.3125L97.3555 90.4297L97.3672 90.4414H97.3789L98.5273 90.5234L98.5977 89.7148L97.9766 88.2617L96.5938 87.1719L95.293 87.1602L93.8867 88.0977ZM28.9766 87.5469H28.9648L27.4414 88.3438L27.4883 90.207V90.3828L28.543 90.3125L28.625 90.3008L28.707 90.3125L31.3555 90.4297L31.3672 90.4414H31.3789L32.2178 90.501L33.2832 90.4287L33.5586 90.043L33.4062 88.6133L32.0469 87.5703L30.582 86.7031L28.9766 87.5469ZM41.8867 83.0977L41.3125 84.668L41.3711 85.3828L42.5547 85.3125L42.6367 85.3008L42.707 85.3125L45.3555 85.4297L45.3672 85.4414H45.3789L46.2178 85.501L46.5303 85.4795L46.5977 84.7148L45.9766 83.2617L44.5938 82.1719L43.293 82.1602L41.8867 83.0977ZM84.9766 82.5469H84.9648L83.4414 83.3438L83.4883 85.207V85.3828L84.543 85.3125L84.625 85.3008L84.707 85.3125L87.3555 85.4297L87.3672 85.4414H87.3789L88.2178 85.501L89.2832 85.4287L89.5586 85.043L89.4062 83.6133L88.0469 82.5703L86.582 81.7031L84.9766 82.5469ZM95.8779 84.1582L96.5 84.165V84.0195L95.8779 84.1582ZM66.4414 69.2852L68.0352 71.418L68.0703 71.4648L68.1055 71.5352L69.4062 73.6562L69.6289 74.0195L69.6172 74.4531L69.6055 77.0898V77.4062L69.4766 77.6875L68.6445 79.5508L68.2344 80.4766L67.2031 80.4297L64.6367 80.3008L62.7266 80.3945L62.6328 80.5H60.5938L60.4883 79.1055L60.3125 76.5859L60.3008 76.4922L60.3125 76.4102L60.4297 73.7734L60.4531 73.3516L60.6875 73L62.1406 70.8555L62.2578 70.668L62.4336 70.5273L64.2969 69.0156L65.5156 68.043L66.4414 69.2852ZM64.4961 72.7188L63.4062 74.3359L63.3008 76.457L63.3594 77.3711L64.5664 77.3125L64.6367 77.3008L64.707 77.3125L66.3242 77.3945L66.6055 76.7617V74.8516L65.6211 73.2109L64.9648 72.3438L64.4961 72.7188ZM85.8086 56.418L85.8203 56.4297L83.1836 56.6055H83.0898L80.4531 56.6172L80.3594 56.6289L80.2773 56.6172L78.9775 56.4717L76.7188 56.7031L76.5547 56.7266L76.3906 56.7031L75.1338 56.5586L72.5312 56.582H72.5078L69.9414 56.5703L67.3047 56.6875L67.2227 56.6992L67.1406 56.6875L66.7959 56.6641L66.1719 56.7383L65.9492 56.7617L65.7266 56.7266L64.6553 56.5225L64.4922 56.5117V56.5L61.9492 56.4883H61.9023L60.3486 56.4248L58.0977 56.4453L58.1094 56.457L56.6006 56.4834L54.168 56.7109H54.0156L51.3789 56.6641V56.6523H48.7305L46.1172 56.5938L43.5156 56.6523H43.3867L43.2695 56.6406L41.7461 56.418L41.6875 56.5469L42.4023 57.3789L44.2891 58.6562L46.3047 59.4414L48.5781 59.5469L51.0859 59.2656L51.3086 59.2305L51.5312 59.2773L52.8027 59.5156L54.9766 59.4961V59.4844L57.6133 59.3789H57.7305L60.3789 59.4844H60.4492L60.7471 59.5107L61.7734 59.4883L64.4102 59.418H64.4453L67.0938 59.4062H67.1875L67.293 59.418L68.9609 59.6309L70.3135 59.6016L72.0977 59.2656L72.332 59.2188L72.5781 59.2539L74.4639 59.5029L75.9531 59.2969L76.1055 59.2734L76.2461 59.2852L78.8945 59.4375L78.918 59.4492H78.9531L78.9922 59.4531L80.043 59.2773L80.1602 59.2656H80.2891L82.9258 59.2422H83.0781L83.2188 59.2656L83.9941 59.416L84.9766 59.3086L85.1309 59.6367L85.2695 59.6641L87.0625 58.4922L87.1562 58.4336L87.25 58.3867L88.9961 57.5781L89.2773 56.3711L88.3164 56.3008L85.8086 56.418ZM71.1875 36.4297H71.1055L68.4688 36.418V36.4062L65.9609 36.4297L63.3242 36.6641L63.1836 36.6758L63.0312 36.6641L60.5 36.3828L57.9219 36.3945V36.3828L55.3789 36.5586H55.3672L55.3555 36.5703L52.707 36.6875L52.6133 36.6992L52.5312 36.6875L51.7578 36.6289L51.7812 36.7109L51.7344 36.9688L51.2422 39.418L51.2539 41.8438L51.6875 44.3516L51.7109 44.5039L51.6992 44.668L51.5938 47.3047V47.375L51.582 47.4453L51.2422 49.8359L51.2617 49.9395L51.7148 50H54V50.1992L53.9883 50.293L53.8008 51.6172L53.918 53.0117L54.041 53.5518L55.4023 53.5156L55.959 53.502L55.9414 53.4219V53.3164L55.8125 51.7227L55.8008 51.5586L55.8242 51.4062L56.0117 49.9062L56.7148 50H59V50.1992L58.9883 50.293L58.8008 51.6172L58.918 53.0117L59.0039 53.3916L59.2656 53.3828H59.3828L60.4443 53.4248L60.6992 53.4219L60.9414 53.4062V53.3164L60.8125 51.7227L60.8008 51.5586L60.8242 51.4062L61.0117 49.9062L61.7148 50H64V50.1992L63.9883 50.293L63.8008 51.6172L63.918 53.0117L63.9941 53.3457L65.1123 53.5508L65.9824 53.6104L65.9648 53.5273L65.9414 53.4219V53.3164L65.8125 51.7227L65.8008 51.5586L65.8242 51.4062L66.0117 49.9062L66.7148 50H69V50.1992L68.9883 50.293L68.8008 51.6172L68.918 53.0117L69.0195 53.459L70.9688 53.5488L70.9648 53.5273L70.9414 53.4219V53.3164L70.8125 51.7227L70.8008 51.5586L70.8242 51.4062L71.0117 49.9062L71.7148 50H74V50.1992L73.9883 50.293L73.8008 51.6172L73.918 53.0117L74.0098 53.4141L74.0938 53.4219L75.2354 53.5518L75.9561 53.4873L75.9414 53.4219V53.3164L75.8125 51.7227L75.8008 51.5586L75.8242 51.4062L76.0117 49.9062L76.7148 50H79V50.1992L78.9883 50.293L78.8008 51.6172L78.918 53.0117L78.9971 53.3613L79.4023 53.1641L79.6367 51.418L79.5898 48.9102V48.8516L79.6484 46.2031L79.6719 43.5898V43.5781L79.7188 41.0938L79.4844 38.457V38.375L79.4141 36.7344L78.7695 36.5L76.3906 36.4883H76.3438L76.2969 36.4766L73.7188 36.3008L71.1875 36.4297ZM66.293 38.9922L68.4844 40.5273L69.0234 40.9141L69.1055 41.5703L69.4219 44.1484L69.5273 44.9922L68.8477 45.5195L67.3477 46.6797L66.832 47.0781L66.1875 46.9727L65.1211 46.7969L64.9805 48.1328L62.8359 46.3047L62.0039 45.6016L61.3242 45.0156L61.5117 44.1484L62.0156 41.7344L62.1094 41.2656L62.4609 40.9492L64.4062 39.1211L65.2969 38.3008L66.293 38.9922ZM64.8398 42.8242L64.6641 43.6914L66.0234 43.9141L66.3398 43.668L66.1992 42.6133L65.5547 42.1562L64.8398 42.8242ZM82.293 30.5469L82.2344 30.5586H82.1758L80.7227 30.5703L80.5703 31.2383L80.6875 33.6875L80.708 34.0234L81.3945 34.2734L82.3438 34.6133L82.3789 35.6211L82.4512 37.4404L83.3945 37.543L83.5586 36.6523L83.3945 34.1797V34.0859L83.3828 31.4844L83.3477 30.4531L82.293 30.5469ZM49.1758 30.6055H47.5586L47.3477 31.332L47.5469 33.7109L47.5586 33.7695V33.8281L47.582 36.4648L47.5938 37.3555L48.6094 37.3115L48.7461 36.6289L48.5117 35.2344L48.2305 33.5H50.2109L50.4561 33.5195L50.6758 31.4141L50.4883 30.5117L49.1758 30.6055ZM48.168 25.4961L47.418 26.8555V27.3711L48.5781 27.3125L48.6367 27.3008L48.707 27.3125L50.3242 27.3945L50.5117 26.9727L50.1367 25.6484L49.082 25.0273L48.168 25.4961ZM81.168 25.4961L80.418 26.8555V27.3711L81.5781 27.3125L81.6367 27.3008L81.707 27.3125L83.3242 27.3945L83.5117 26.9727L83.1367 25.6484L82.082 25.0273L81.168 25.4961Z" fill="black"/>
</svg>
