<svg width="120" height="120" viewBox="0 0 120 120" fill="none" xmlns="http://www.w3.org/2000/svg">
<path d="M60.4492 1.57031H60.4609L61.1875 1.80469L61.4219 2.53125L61.4336 2.56641L62.1367 4.46484L63.3086 5.19141L64.5625 5.4375L67.7852 6.04688L65.207 8.08594L63.8008 9.1875L64 10.5703L64.1289 11.4492L63.4258 11.9766L62.8047 12.457L62.0547 13.0195L61.2227 12.5977L60.6924 12.332L60.8203 12.5469L62.2969 15.0078L62.3555 15.2188L62.9883 17.6562L64.125 19.8594L64.1602 19.9297L64.1953 20.0234L65.0859 22.4141L66.3633 24.5234L66.4219 24.6289L66.4688 24.7344L67.4648 27.1719L68.4727 29.6211L68.4961 29.6914L69.1758 31.6016L68.5596 31.8164L69.1523 32.0469L69.1289 32.0918L69.5 32.1211L69.4062 33.2344L69.418 35.7539L69.6289 38.4023L69.6406 38.5078L69.6289 38.6016L69.4766 41.25L69.3477 43.7227L69.7344 46.2188L69.7695 46.418L69.7461 46.6055L69.4531 49.1484L69.4766 51.7031L69.4648 51.7148L69.7109 54.2227L69.7227 54.3867L69.6992 54.5508L69.3828 57.082L69.4287 59.5713L69.6523 59.582H69.6406L70.5312 59.6055L70.5195 59.3125L70.5078 59.1953L70.5312 59.0664L70.6719 57.8242L73.6484 58.1758L73.5195 59.2656L73.6133 61H73.6602V62.5703H73.6484V64.4805L73.7305 67.1172V67.2227L73.7188 67.3398L73.4258 69.8477L73.6367 72.3203V72.5195L73.5078 75.0156L73.8477 77.5234L73.8594 77.6523V77.7695L73.833 78.498L74.8203 78.3242L75.0781 78.2773L75.3477 78.3242L76.4492 78.5117L76.6016 77.5156L76.5195 75.043L76.4258 72.4062L76.4023 71.5391L77.1406 71.082L78.3359 70.332L79.0391 69.8984L79.7891 70.2617L82.1211 71.3984L82.3906 71.5273L82.5898 71.7617L84.3008 73.707L84.3359 73.7539L84.3828 73.8125L84.793 74.3867L86.2344 72.3242L86.3984 72.0898L86.6445 71.9258L88.8242 70.4961L89.3867 70.1328L90.0312 70.2969L91.2969 70.625L92.3047 70.8945L92.4102 71.9375L92.6562 74.5742L92.6797 74.7266L92.6562 74.8789L92.3867 77.457L92.4209 78.4824L93.3203 78.3242L93.5781 78.2773L93.8477 78.3242L94.9492 78.5117L95.1016 77.5156L95.0195 75.043L94.9258 72.4062L94.9023 71.5391L95.6406 71.082L96.8359 70.332L97.5391 69.8984L98.2891 70.2617L100.621 71.3984L100.891 71.5273L101.09 71.7617L102.801 73.707L102.836 73.7539L102.883 73.8125L103.293 74.3867L104.734 72.3242L104.898 72.0898L105.145 71.9258L107.324 70.4961L107.887 70.1328L108.531 70.2969L109.797 70.625L110.805 70.8945L110.91 71.9375L111.156 74.5742L111.18 74.7266L111.156 74.8789L110.887 77.457L110.969 79.8594L109.797 79.8945L109.504 80L108.086 80.4922L108.051 80.3984L107.98 80.1758L107.969 79.9531L107.887 77.4102V77.3047L107.898 77.1992L108.168 74.6914L108.051 73.6016L107.043 74.2578L105.859 75.9805L105.309 78.2422L105.297 78.2773V78.3008L104.84 79.918L101.898 79.6016L101.77 77.375L100.539 75.6875L99.0156 73.9531L97.9492 73.4258L98.0078 74.9492L98.1016 77.5859V77.7148L98.0781 77.8555L97.7031 80.4805L97.4922 82.0039L95.957 81.7344L93.5781 81.3125L91.2695 81.7344L89.5 82.0508V80.2373L89.4805 80.1758L89.4688 79.9531L89.3867 77.4102V77.3047L89.3984 77.1992L89.668 74.6914L89.5508 73.6016L88.543 74.2578L87.3594 75.9805L86.8086 78.2422L86.7969 78.2773V78.3008L86.3398 79.918L83.3984 79.6016L83.2695 77.375L82.0391 75.6875L80.5156 73.9531L79.4492 73.4258L79.5078 74.9492L79.6016 77.5859V77.7148L79.5781 77.8555L79.2031 80.4805L78.9922 82.0039L77.457 81.7344L75.0781 81.3125L73.7451 81.5557L73.7188 83.0312V83.043L73.6484 85.6797L73.6602 88.1992L73.8008 90.8359L73.8125 90.9883L73.7891 91.1406L73.4141 93.6133V96.1328L73.8008 98.6172L73.8125 98.7109V98.8047L73.8828 101.441V101.582L73.8594 101.723L73.4609 104.09L73.9062 106.492L73.9414 106.727L73.9062 106.961L73.5664 109.504L73.5781 111.004H73.6602V112.797L73.6367 112.785L73.7734 114.386L73.9766 114.383H74.082L74.1875 114.395L76.6836 114.711L79.1445 114.477H79.2734L81.9102 114.453H82.0039L82.0859 114.465L84.5469 114.746L86.9727 114.371L87.125 114.348L87.2773 114.359L89.9141 114.488H89.9258L92.4453 114.641L95 114.43L95.0586 114.418H95.1055L97.7539 114.406H97.8594L97.9648 114.418L100.367 114.746L102.77 114.312L103.027 114.266L103.285 114.301L105.816 114.723L108.137 114.664L110.738 114.266L111.031 114.219L111.312 114.289L112.355 114.547L111.652 117.453L110.891 117.266L108.547 117.629L108.453 117.652H108.359L105.723 117.723H105.582L103.051 117.301L100.672 117.734L100.438 117.781L100.203 117.746L97.6367 117.406H95.2344L92.5977 117.629L92.4922 117.641L92.3984 117.629L89.75 117.477V117.465L87.2773 117.348L84.7812 117.734L84.582 117.77L84.3945 117.746L81.8516 117.453L79.2969 117.477L79.2852 117.465L76.7773 117.711L76.6133 117.723L76.4492 117.699L73.918 117.383L71.4658 117.428L71.375 117.508L70.7656 117.484L68.2227 117.355L65.7852 117.73L65.5859 117.766L65.3867 117.742L64.2031 117.604L63.7109 117.699L63.4766 117.746L63.2305 117.711L62.8594 117.656L62.707 117.668H62.5547L59.9062 117.598H59.8477L59.7773 117.586L59.4707 117.549L57.7812 117.707L57.6172 117.719L57.4531 117.707L55.957 117.52L54.9141 117.691L53.6719 117.902L53.5645 117.6L53.1406 117.676L52.8828 117.723L52.6133 117.676L51.0049 117.396L49.6836 117.367H49.6367L48.7871 117.325L47.6914 117.395H47.668L47.6445 117.406L42.3711 117.57H42.2539L42.1367 117.559L39.5938 117.254L37.1328 117.418L37.0508 117.43L36.957 117.418L34.5078 117.277L32 117.699L31.7891 117.734L31.5781 117.711L29.0234 117.395L26.5391 117.324L23.9492 117.512L23.8906 117.523H23.832L21.1953 117.512H21.0781L18.5 117.301L16.0508 117.395L16.0625 117.406L13.4258 117.664L13.2734 117.676L13.1211 117.664L10.625 117.395L8.16406 117.5H8V114.5H8.03516L10.5781 114.395L10.6836 114.383L10.8008 114.395L13.2852 114.664L15.7695 114.418H15.8633L18.5 114.312L18.5938 114.301L18.6758 114.312L21.3125 114.512L21.3008 114.523H23.7383L26.375 114.336L26.4453 114.324L26.5273 114.336L29.1641 114.406H29.2344L29.293 114.418L31.7305 114.699L34.1562 114.301L34.3203 114.277L34.4844 114.289L37.0156 114.43L39.582 114.254L39.7227 114.242L39.8633 114.266L42.3711 114.57L44.9141 114.488L45.3994 114.475L45.2891 113.641L45.2656 113.43L45.2891 113.23L45.6523 110.723L45.5117 108.238V108.016L45.7578 105.59L45.3242 103.141L45.2773 102.883L45.3242 102.613L45.7578 100.117L45.6055 97.6914V97.668L45.5938 97.6445L45.4297 92.3711V92.2539L45.4414 92.1367L45.7461 89.582L45.582 87.1328L45.5703 87.0508L45.582 86.957L45.7109 84.4844L45.3008 82L45.2656 81.7891L45.2803 81.6514L43.4219 81.3125L41.043 81.7344L39.5078 82.0039L39.2969 80.4805L38.9219 77.8555L38.8984 77.7148V77.5859L38.9922 74.9492L39.0508 73.4258L37.9844 73.9531L36.4609 75.6875L35.2305 77.375L35.1016 79.6016L32.1602 79.918L31.7031 78.3008V78.2773L31.6914 78.2422L31.1406 75.9805L29.957 74.2578L28.9492 73.6016L28.832 74.6914L29.1016 77.1992L29.1133 77.3047V77.4102L29.0312 79.9531L29.0195 80.1758L29 80.2373V82.0508L27.2305 81.7344L24.9219 81.3125L22.543 81.7344L21.0078 82.0039L20.7969 80.4805L20.4219 77.8555L20.3984 77.7148V77.5859L20.4922 74.9492L20.5508 73.4258L19.4844 73.9531L17.9609 75.6875L16.7305 77.375L16.6016 79.6016L13.6602 79.918L13.2031 78.3008V78.2773L13.1914 78.2422L12.6406 75.9805L11.457 74.2578L10.4492 73.6016L10.332 74.6914L10.6016 77.1992L10.6133 77.3047V77.4102L10.5312 79.9531L10.5195 80.1758L10.4492 80.3984L10.4141 80.4922L8.99609 80L8.70312 79.8945L7.53125 79.8594L7.61328 77.457L7.34375 74.8789L7.32031 74.7266L7.34375 74.5742L7.58984 71.9375L7.69531 70.8945L8.70312 70.625L9.96875 70.2969L10.6133 70.1328L11.1758 70.4961L13.3555 71.9258L13.6016 72.0898L13.7656 72.3242L15.207 74.3867L15.6172 73.8125L15.6641 73.7539L15.6992 73.707L17.4102 71.7617L17.6094 71.5273L17.8789 71.3984L20.2109 70.2617L20.9609 69.8984L21.6641 70.332L22.8594 71.082L23.5977 71.5391L23.5742 72.4062L23.4805 75.043L23.3984 77.5156L23.5508 78.5117L24.6523 78.3242L24.9219 78.2773L25.1797 78.3242L26.0781 78.4824L26.1133 77.457L25.8438 74.8789L25.8203 74.7266L25.8438 74.5742L26.0898 71.9375L26.1953 70.8945L27.2031 70.625L28.4688 70.2969L29.1133 70.1328L29.6758 70.4961L31.8555 71.9258L32.1016 72.0898L32.2656 72.3242L33.707 74.3867L34.1172 73.8125L34.1641 73.7539L34.1992 73.707L35.9102 71.7617L36.1094 71.5273L36.3789 71.3984L38.7109 70.2617L39.4609 69.8984L40.1641 70.332L41.3594 71.082L42.0977 71.5391L42.0742 72.4062L41.9805 75.043L41.8984 77.5156L42.0508 78.5117L43.1523 78.3242L43.4219 78.2773L43.6797 78.3242L45.6152 78.665L45.6758 76.5859L45.4883 73.9492L45.4766 73.8906V73.832L45.4883 71.1953V71.0781L45.6992 68.5L45.5938 66.0625L45.3359 63.4258L45.3242 63.2734L45.3359 63.1211L45.6055 60.5781L45.5 58.1641V58H48.5V58.0352L48.5469 59.4062H48.6172L48.6992 59.3945H48.7812L49.665 59.4365L49.7188 58.5117L49.2969 56.0039L49.2734 55.793L49.2969 55.582L49.5898 53.0742L49.6719 50.5898L49.4844 47.9531V45.1406L49.4961 45.082L49.6953 42.5156L49.5898 40.0664L49.3438 37.4297L49.3203 37.2773L49.3438 37.125L49.6016 34.5703L49.4961 32.168V32.0039H50.7188L50.6533 31.8457L49.6289 31.3906L49.6758 31.2969L49.6875 31.2617L49.6992 31.2383L50.7891 29.0703L51.5742 26.6445L51.6211 26.5039L51.7031 26.375L52.9688 24.1484V24.1367L54.1406 21.7695L54.9727 19.4375L54.9844 19.3906L55.0078 19.3438L56.0742 16.9297L56.0977 16.8711L56.1328 16.8242L57.375 14.4922L57.8594 13.4092L55.7031 14.8828L56.1836 11.5078L56.3477 10.3477L55.9609 9.07031L54.2734 7.69922L51.5312 5.47266L55.0352 5.03906L57.2617 4.75781L58.1289 4.05469L58.5391 2.58984L58.9609 1.08984L60.4492 1.57031ZM58.3242 101.824L58.1133 101.965L57.8555 102.035L55.957 102.504L55.4062 103.758L55.4883 106.066L55.5703 108.703V108.82L55.5586 108.938L55.2539 111.469L55.3945 113.695L55.585 114.237L55.6602 114.242L56.7715 114.353L57.0703 114.305L57.2812 114.27L57.4922 114.293L58.8135 114.451L60.7227 114.348L60.8633 114.336L61.0156 114.359L61.7021 114.459L62.9141 114.449H62.9961L63.0898 114.461L63.9434 114.556L64.4316 114.521L65.0146 114.413L65.5547 114.152L65.6836 112.43L65.5898 109.992L65.3438 107.355L65.3203 107.203L65.3438 107.051L65.6016 104.473L65.5312 103.031L63.9727 102.047L61.7109 101.18L59.9648 100.699L58.3242 101.824ZM51.7109 112.328L50.8555 112.574L50.4805 112.68L50.1055 112.598L48.6406 112.27L48.4531 112.293L48.2891 113.453L48.4062 114.297L48.8486 114.322L50.1523 114.242L50.3281 114.23L50.5039 114.266L51.2559 114.398L52.3555 114.414L52.4658 114.412L52.4414 114.328L52.4297 114.129L52.2539 111.492L52.2422 111.352L52.2656 111.211L52.291 111.004H51.3242L51.7109 112.328ZM68.6953 112.605L68.5547 114.358L68.7969 114.371L68.7881 114.379L68.9033 114.385L70.3271 114.41L70.7305 114.051L70.625 112.633L69.5469 112.609H69.4883L68.6953 112.555V112.605ZM68.3867 92.6289L68.2109 92.6523L65.4219 92.4531L64.6758 92.4668L64.6924 92.9316C64.6988 93.113 64.6766 93.3951 64.5205 93.6934C64.352 94.0152 64.0867 94.2427 63.7998 94.3721L62.7139 94.8623L61.627 95.3516C61.3827 95.4616 61.1532 95.4898 60.9805 95.4893L59.4951 95.4844L58.0107 95.4795C57.6557 95.4784 57.057 95.3332 56.7021 94.7324L56.124 93.7529L55.5449 92.7725C55.4685 92.643 55.4185 92.5143 55.3857 92.3936L54.9922 92.3711L52.4375 92.6406L52.2734 92.6641L52.0977 92.6406L49.6133 92.3359L48.4297 92.418L48.5117 94.9141L48.5938 97.5039L48.7578 100.152L48.7695 100.328L48.7344 100.504L48.3125 102.883L48.7344 105.262L48.7695 105.461L48.7578 105.66L48.5117 108.133L48.5703 109.246L48.7695 109.223L49.0508 109.281L50.3867 109.574L50.8672 109.445L52.5381 108.956L52.5703 108.691L52.4883 106.16L52.4062 103.523L52.3945 103.184L52.5234 102.867L53.5195 100.629L53.8125 99.9609L54.5156 99.7852L56.8594 99.1875L58.8633 97.8281L59.4375 97.4414L60.1055 97.6289L62.6133 98.3203L62.6953 98.332L62.7656 98.3672L65.2266 99.3164L65.3672 99.375L65.4961 99.457L67.7109 100.863L67.207 101.648L68.4961 101.93V101.965L68.6133 104.496V104.613L68.6016 104.719L68.332 107.203L68.5615 109.54L69.6875 109.609H69.6758L70.5664 109.633V109.305L70.5781 109.199L70.9062 106.785L70.4727 104.395L70.4258 104.137L70.4727 103.879L70.8711 101.395L70.8125 98.8867H70.8008L70.4258 96.4258L70.4141 96.3203V96.2031L70.4258 93.5547V93.4492L70.4375 93.3438L70.5898 92.2773L68.3867 92.6289ZM58.5547 88.4443L58.5088 88.4453L58.4014 89.1338L58.3672 90.5371L58.3398 91.6064L58.707 92.2275L58.8574 92.4814L59.5049 92.4844L60.6777 92.4873L61.4805 92.127L61.6582 92.0459L61.6416 91.5527L61.5889 90.0684C61.5884 90.0563 61.5883 90.044 61.5879 90.0322L61.5449 88.6309L61.542 88.54L61.3613 88.5234L59.96 88.3926L58.5547 88.4443ZM54.8047 80.9824L54.6641 81.0059L52.1211 81.2402L51.8516 81.2637L51.5938 81.2051L49.5547 80.6543L48.3721 81.1084L48.3008 81.7305L48.6992 84.1562L48.7227 84.3203L48.7109 84.4844L48.5703 87.0156L48.7227 89.3828L49.543 89.3359L49.6836 89.3242L49.8242 89.3477L52.2969 89.6406L54.7695 89.3828L54.875 89.3711L54.9922 89.3828L55.3945 89.4033L55.4053 88.9775C55.4065 88.9303 55.4102 88.8521 55.4248 88.7588L55.5791 87.7686L55.6182 87.5176C55.5475 87.2137 55.5247 86.764 55.5811 86.5176C55.6746 86.3003 55.9021 85.9791 56.0156 85.8691C56.2233 85.6882 56.4296 85.6125 56.4688 85.5977C56.5433 85.5694 56.6045 85.5525 56.6348 85.5449C56.6974 85.5292 56.7478 85.5214 56.7656 85.5186C56.7893 85.5148 56.809 85.5121 56.8203 85.5107C56.8578 85.5062 56.8878 85.5041 56.8906 85.5039C56.9069 85.5027 56.92 85.5021 56.9219 85.502C56.9262 85.5017 56.9297 85.502 56.9316 85.502C56.9381 85.5017 56.9441 85.501 56.9453 85.501C56.9497 85.5008 56.955 85.5002 56.96 85.5L59.9307 85.3926L60.1533 85.3984L61.6387 85.5361L63.123 85.6738C63.3475 85.6946 63.731 85.7834 64.0605 86.1152C64.3594 86.4163 64.4649 86.766 64.4922 87.0293L64.5 87.1357V87.1367L64.543 88.5381L64.5713 89.4697L65.4805 89.4531H65.6211L68.082 89.6289L70.5664 89.2539L70.707 89.2305L70.6602 88.3633V88.293L70.6484 85.6562V85.5977L70.7188 82.9609L70.752 81.0791L69.5352 80.9004L67.1562 80.9941L67.1094 81.0059H67.0508L64.6133 80.9238H64.5312L62.2695 80.7246L60.0195 81.4277L59.5156 81.5918L59.0117 81.3926L56.9609 80.5605L54.8047 80.9824ZM56.1172 75.9062H56.1289L53.1289 76.1641L53 76.1758L52.8594 76.1641L50 75.9062L48.6338 75.9512L48.6641 76.375L48.6758 76.4453L48.6641 76.5273L48.6299 77.8008L48.957 77.6777L49.4023 77.5137L49.8711 77.6309L52.0977 78.2285L54.2422 78.041V78.0293L56.8438 77.5371L57.2773 77.4434L57.6875 77.6191L59.6328 78.416L61.6484 77.7832L61.9297 77.6895L62.2344 77.7129L64.6953 77.9355L64.707 77.9238L67.0742 78.0059L69.5117 77.9004L69.6523 77.8887L69.793 77.9121L70.8398 78.0645L70.8477 77.793L70.5996 75.8975L67.9648 75.8359L65.0938 76.0117L65.0469 76.0234H65L62 76.0117H61.8945L58.9414 75.8125L56.1172 75.9062ZM48.4297 62.418L48.3359 63.2734L48.582 65.7695V65.8633L48.6875 68.5L48.6992 68.5938L48.6875 68.6758L48.4883 71.3125L48.4795 72.9473L49.9414 72.8945L50.0469 72.8828L50.1406 72.8945L53.0117 73.1641L55.8711 72.918H55.9414L58.9414 72.8125L59.0234 72.8008L59.1055 72.8125L62.1055 73.0117L62.0938 73.0234H64.9062L67.9062 72.8359L67.9766 72.8242L68.0352 72.8359L70.6055 72.8955L70.625 72.4844L70.4258 69.9297L70.4141 69.7773L70.4375 69.6367L70.7188 67.1055L70.6484 64.5625V62.6055L69.5469 62.582H69.5234L69.3594 62.5742L69.2422 64.8398L69.6992 67.2891L69.8516 68.1094L69.2305 68.6719L67.8008 69.9609L67.4141 70.3125L66.8867 70.3477L64.2383 70.4883H64.0156L61.6016 70.2422L59.1406 70.6758L58.8828 70.7227L58.6133 70.6758L56.1289 70.2422L53.6914 70.3945H53.668L53.6328 70.4062L51.043 70.4648L49.5664 70.4883L49.5195 69.0117L49.4258 66.375V66.2578L49.4375 66.1406L49.7422 63.6797L49.6621 62.4385L48.7344 62.3945L48.4297 62.418ZM60.8604 53.8809L62.3711 54.4961L62.5938 54.5898L62.7695 54.7422L64.7852 56.4414L65.2188 56.8164L65.3008 57.3906L65.5586 59.3008L65.793 61H65.1133L64.8086 62.3828L64.668 62.9688L64.1758 63.2969L62.0078 64.7383L61.7617 64.9023L61.4688 64.9609L58.9375 65.4766L58.4453 65.5703L57.9883 65.3594L55.5625 64.2109L55.0703 63.9648L54.8477 63.4727L53.7461 61.0469L53.582 60.6953L53.6172 60.2969L53.8398 57.7188L53.875 57.3203L54.0977 56.9922L55.6094 54.8125L55.9023 54.3672L56.418 54.2266L56.6816 54.1475L54 53.9062L52.5107 53.9551L52.2969 55.7578L52.6953 58.1602L52.7188 58.3125V58.4766L52.5918 61H52.7891V63.1562L52.7148 63.1357L52.7422 63.5859L52.7539 63.7266L52.7422 63.8672L52.4258 66.4453L52.4727 67.4414L53.5156 67.418L53.5039 67.4062L56.1523 67.2422L56.3281 67.2305L56.5039 67.2656L58.8828 67.6875L61.2617 67.2656L61.4609 67.2305L61.6602 67.2422L64.1445 67.4883L66.1953 67.3828L66.6055 67.0078L66.2656 65.1914L66.2305 65.0156L66.2422 64.8398L66.3711 62.2031L66.4297 59.6133L66.3828 57.0234V56.918L66.3945 56.8125L66.7109 54.3164L66.6816 54.0156L65.9883 54.0117H65.8945L62.9414 53.8125L60.8604 53.8809ZM57.7656 56.9453L56.793 58.3633L56.6289 60.1562L57.3438 61.7148L58.8203 62.4297L60.5781 62.0781L62.0078 61.1289L62.4414 59.1953L62.4883 58.9609L62.3945 58.3633L61.0117 57.1797L59.3359 56.4883L57.7656 56.9453ZM58.3594 33.9453H58.3359L56.0039 34.2734L55.6875 34.3203L53.4727 33.6641L52.5869 34.0156L52.6133 34.5703V34.6875L52.6016 34.793L52.3438 37.3008L52.5781 39.7734L52.5898 39.8203V39.8555L52.6953 42.5039V42.6797L52.4844 45.3164V47.8477L52.6602 50.3672L52.6719 50.4492V50.5195L52.6582 50.9404L53.9414 50.8945L54.0469 50.8828L54.1406 50.8945L57.0117 51.1641L59.8711 50.918H59.9414L62.9414 50.8125L63.0234 50.8008L63.1055 50.8125L66.1055 51.0117L66.0938 51.0234H66.4707L66.4531 49.0898V48.9961L66.4648 48.9141L66.7461 46.4531L66.3711 44.0273L66.3477 43.875L66.3594 43.7227L66.4883 41.0859V41.0742L66.6406 38.5547L66.4297 36L66.418 35.9414V35.8945L66.4102 34.2041L65.1211 33.6992L63.293 34.332L62.8125 34.4961L62.332 34.332L60.2344 33.6289L58.3594 33.9453ZM57 36.0117L57.1055 37.9102L57.1172 38.0625L57.0938 38.2031L56.8477 39.8906L57.0352 40.6289L57.5156 42.5039H55.5V41.0273L54.1406 41.3672L53.8828 40.3711L53.8008 40.0898L53.8477 39.7969L54.1055 37.9336L54 36.1875V36H57V36.0117ZM61 36.0117L61.1055 37.9102L61.1172 38.0625L61.0938 38.2031L60.8477 39.8906L61.0352 40.6289L61.5156 42.5039H59.5V41.0273L58.1406 41.3672L57.8828 40.3711L57.8008 40.0898L57.8477 39.7969L58.1055 37.9336L58 36.1875V36H61V36.0117ZM65 36.0117L65.1055 37.9102L65.1172 38.0625L65.0938 38.2031L64.8477 39.8906L65.0352 40.6289L65.5156 42.5039H63.5V41.0273L62.1406 41.3672L61.8828 40.3711L61.8008 40.0898L61.8477 39.7969L62.1055 37.9336L62 36.1875V36H65V36.0117ZM55.6523 25.4727L55.6406 25.5078L55.6172 25.543L54.3984 27.6875L53.6016 30.1016L53.5664 30.207L53.4102 30.5186L53.8359 30.6406L55.6172 31.1836L55.9688 29.2578L56.0273 26.7031V26.5508L56.0625 26.4102L56.6484 23.9141L56.6367 23.9023L56.7432 23.29L55.6523 25.4727ZM62.3555 25.1562L63 27.6406L63.0352 27.7578L63.0469 27.875L63.3047 30.5V30.5469L63.3457 31.1416L64.6758 30.6875L65.1914 30.5L65.6641 30.6826L64.6875 28.3086L63.7148 25.9531L62.4258 23.7969L62.3555 23.668L62.3086 23.5391L62.2539 23.3955L62.3555 25.1562ZM59.0039 26.9492L58.957 29.4336L58.9453 29.5508L58.9336 29.6562L58.7217 30.8447L60.1172 30.6172L60.2959 30.5938L60.0703 28.3086L59.4375 25.8125L59.4023 25.6836L59.3906 25.543L59.3672 25.3672L59.0039 26.9492ZM58.7969 7.37109L58.6211 7.5L58.7148 7.76953L59.0547 8.95312L59.7227 8.49609L60.7539 9.01172L60.7188 8.75391L60.6016 7.91016L61.1992 7.41797L60.1328 6.75L59.8164 6.55078L58.7969 7.37109Z" fill="black"/>
</svg>
