<svg width="120" height="120" viewBox="0 0 120 120" fill="none" xmlns="http://www.w3.org/2000/svg">
<path d="M49.6914 14.5117L52.1992 15.0273L54.707 15.168L54.8711 15.1914L57.4609 15.625L59.9219 15.7539L62.3359 15.707L64.9141 15.2969V15.3086L67.4805 14.8281H67.5391L67.6094 14.8164L70.2344 14.5586L71.3711 14.4531L71.7812 15.5195L72.5547 17.5469L72.6836 17.875L72.6367 18.2383L72.3789 20.7227L72.6367 23.207H72.625L72.9648 25.7969L72.9883 25.9258L72.9766 26.043L72.8828 28.6914L73.0586 31.1523L73.2695 33.7891L73.2812 33.8828L73.2695 33.9883L73.1289 36.4727L73.5625 38.9219L73.5859 39.0508V39.1914L73.5625 41.7695L73.832 44.2891L73.8438 44.3828V44.4766L73.7969 47.125L73.9961 49.6094L74.0078 49.7734L73.9844 49.9258L73.6562 52.375L73.9844 54.8125V54.8242L74.3242 57.4492L74.3477 57.5664L74.3359 57.6953L74.2422 60.3438V60.3555L74.125 62.8867L74.4297 65.3828L74.4414 65.4883V65.582L74.4062 68.1367L74.6992 70.6562L75.0156 73.293L75.0273 73.3984L75.0156 73.5156L74.9453 76.0586L75.2148 78.5781L75.2266 78.625V78.6719L75.3555 81.3086V81.4258L75.3438 81.543L75.0508 84.1328L75.168 86.5352L75.4141 89.1484L75.6836 91.7852L75.6953 91.8672V91.9609L75.6484 94.6094V94.668L75.4961 97.2109L75.7773 99.6953L75.7891 99.7305V99.7656L75.9531 102.402V105.027L76.2812 107.57L76.293 107.723L76.2812 107.887L76.0703 110.535L76.1172 112.855L76.4727 114.686L76.7305 114.734L79.1797 114.582L79.2266 114.57H79.2617L80.4609 114.564L80.6602 112.203L80.3906 109.719L80.3672 109.59L80.3789 109.449L80.5898 106.777L80.6953 105.301L82.1836 105.395L84.8203 105.57L87.3516 105.688L88.875 105.594L88.9922 104.668L89.1562 103.32L90.5156 103.355L93.1172 103.391L94.6738 103.362L94.5703 102.129L96 102V100.5H97.4414V100.605L98.6719 100.699L101.18 100.582V100.57L103.816 100.395H103.91L106.547 100.383L107.191 100.371L107.637 100.84L108.914 102.164L109.277 102.539L109.324 103.066L109.547 105.715L109.559 105.762V105.82L109.582 108.469V108.492L109.57 111.129L109.688 113.695L109.699 113.918L109.641 114.141L109.513 114.632L110.809 114.5L110.891 114.488H110.973L112.016 114.5L112.004 116L111.98 117.5L110.984 117.488L108.477 117.746L108.254 117.77L108.031 117.734L106.907 117.509L104.941 117.492H104.895L102.417 117.38L100.648 117.688L100.496 117.711L100.332 117.699L98.1602 117.612L97.1719 117.703L96.2812 117.785L95.999 117.361L95.1523 117.242L94.751 117.32L94.5469 117.395L94.3125 117.488H93.8926L92.7617 117.711L92.5273 117.758L92.293 117.734L90.8799 117.553L88.8633 117.688L88.7812 117.699L88.6875 117.688L86.0625 117.57L83.4844 117.582L82.957 117.594L82.873 117.526L81.957 117.547H81.9336L79.3672 117.559L79.3789 117.57L76.7422 117.746L76.5547 117.758L75.1592 117.496H74.7812L73.0977 117.363L71.5391 117.547L71.4102 117.559H71.2812L69.3906 117.454L67.1758 117.602L67.1289 117.613H67.082L64.4453 117.625H64.3633L64.2812 117.613L62.3867 117.401L60.957 117.559H60.8867L58.25 117.711L58.0977 117.723L57.957 117.699L57.1104 117.582L56.5352 117.59H56.5117L53.9336 117.566L51.3086 117.695H51.1328L48.5664 117.508L45.9766 117.461L44.4062 117.426L44.4121 117.337L42.4531 117.512L42.418 117.523H42.3711L39.7344 117.617H39.6172L36.9805 117.512V117.5L34.3906 117.488H34.3438L34.2969 117.477L33.9854 117.455L32.2617 117.57L32.2031 117.582L32.1328 117.57L29.4961 117.535L29.5078 117.523H26.8594L24.2227 117.5L24.1641 117.488H24.0938L23.7158 117.451L21.3242 117.664L21.1836 117.676L21.0312 117.664L18.9199 117.429L16.3125 117.418L16.3008 117.406H16.2891L15.7559 117.394L13.3789 117.559H13.3672L13.3555 117.57L10.707 117.688L10.6133 117.699L10.5312 117.688L7.98828 117.5L8 117.277V114.5H8.21094L9.55078 114.608L9.5625 113.387V113.34L9.57422 113.293L9.73828 110.844L9.85547 109.273L11.4141 109.461L12.5039 109.59L12.5859 108.371L12.5742 105.84V104.949L13.3594 104.516L15.082 103.59L15.4805 103.367L15.5322 103.372L15.4883 103.184L15.4297 102.949L15.4531 102.715L15.6641 100.23L15.3828 97.7227L15.3711 97.6406L15.3828 97.5469L15.3945 94.9102V94.5938L15.5234 94.3125L16.3555 92.4492L16.7656 91.5234L17.7969 91.5703L20.3633 91.6992L22.2852 91.6055L22.3789 91.5H24.9336L24.6992 93.2109L24.4648 94.8164L24.3828 97.3711L24.4883 99.9023V99.9492L24.5117 102.586V102.75L24.4131 103.736L26.2383 103.719H26.2266L27.457 103.613L27.4688 101.762V101.691L27.6094 99.043L27.6445 98.4102L28.1367 97.9883L29.5547 96.7812L30.1758 96.2539L30.9492 96.4883L33.5273 97.2383L33.75 97.3086L33.9492 97.4375L36.1523 98.9258L36.3516 99.0664L36.4922 99.2422L38.1211 101.305L38.2031 101.398L38.2617 101.516L39.4922 103.789L39.5508 103.895L39.5859 104L40.4766 106.484L40.6055 106.812L40.5586 107.152L40.2773 109.672L40.4883 112.156L40.5 112.227V112.297L40.4688 114.591L42.1836 114.535L44.626 114.308L44.6992 113.336L44.6875 110.77L44.5352 108.121V107.969L44.6523 105.332L44.7578 102.707V102.684L44.8984 100.047L44.9219 97.4688V97.3516L44.9453 97.2344L45.3672 94.7617L45.2969 92.3242L45.0977 89.6758L45.0859 89.5117L45.1094 89.3477L45.4727 86.8867L45.4023 84.332L45.3906 84.25L45.4023 84.168L45.6133 81.6602L45.3906 79.1406L45.3672 78.9062L45.4258 78.6836L45.9648 76.2461L45.8711 73.7969V73.7148L45.918 71.0781L45.9414 68.4531L45.9531 65.8164V65.7812L46.0234 63.1445V63.0391L46.0469 62.9453L46.4219 60.5547L46.0352 58.1406L46 57.8945L46.0469 57.6484L46.4805 55.0234L46.6445 52.6328L46.3047 50.1836L46.2812 50.0664L46.293 49.9492L46.3516 47.3125V47.1602L46.3867 47.0078L46.9258 44.6055L46.7617 42.1797L46.75 42.0391L46.7734 41.9102L47.043 39.4258L46.7852 36.9531L46.7617 36.7539L46.7969 36.5547L47.207 34.0352L47.3125 31.6094L46.9609 29.0781L46.9492 28.9609V28.8555L46.9961 26.207V26.1016L47.0078 25.9961L47.4062 23.5469L47.2891 21.0273V20.9336L47.3008 20.8281L47.5352 18.1914V18.1445L47.5469 18.0977L47.9102 15.7539L48.1445 14.1953L49.6914 14.5117ZM103.922 103.395V103.383L101.379 103.559H101.367L101.355 103.57L98.707 103.688L98.6133 103.699L98.5312 103.688L97.6992 103.617L97.7109 103.711L97.7227 103.875L97.6992 104.051L97.4443 105.872L97.6523 107.164L97.6641 107.27V107.375L97.7109 110.012V110.176L97.4766 112.812L97.4287 114.096L97.75 114.585L97.8945 114.605L98.0293 114.611L99.5508 114.48H99.6211L102.128 114.392L102.793 114.277L102.91 114.266H103.027L105.664 114.242H105.816L105.969 114.266L106.478 114.365L106.688 113.59L106.57 111.188V111.105L106.582 108.469L106.559 105.973L106.371 103.852L105.926 103.383L103.922 103.395ZM67.8906 17.8047L65.418 18.2617H65.3828L62.7578 18.6719L62.6641 18.6953H62.5586L59.9102 18.7539H59.793L57.1562 18.6016H57.0742L56.9805 18.5898L54.4844 18.1562L51.8945 18.0156L51.7891 18.0039L51.6836 17.9805L50.6289 17.7578L50.5117 18.5547L50.2891 21.0156L50.418 23.5352V23.6875L50.3945 23.8398L49.9844 26.3359L49.9492 28.7383L50.3008 31.3164L50.3242 31.457L50.3125 31.5859L50.207 34.2227V34.3164L50.1953 34.4102L49.7969 36.8125L50.043 39.2852L50.0664 39.4492L50.043 39.6133L49.7617 42.0625L49.9492 44.6172L49.9609 44.8398L49.9141 45.0508L49.3398 47.5352L49.293 49.9258L49.6328 52.4336L49.6562 52.5859L49.457 55.375L49.4336 55.5156L49.0352 57.8945L49.4219 60.3203L49.4688 60.5547L49.4219 60.7891L49.0117 63.2734L48.9531 65.8633L48.9414 68.4648V68.4766L48.918 71.1133V71.1367L48.8711 73.7734L48.9648 76.3281V76.5273L48.9297 76.7031L48.3906 79.1172L48.6133 81.5312V81.7773L48.4023 84.25L48.4727 86.8867L48.4844 87.0273L48.4609 87.1562L48.0977 89.6172L48.2852 92.1016V92.1367L48.2969 92.1719L48.3672 94.8086V94.9609L48.3438 95.1133L47.9102 97.5977L47.8867 100.141V100.199L47.7461 102.801L47.7578 102.812L47.6523 105.461V105.473L47.5352 108.109L47.6758 110.594L47.6875 110.641V110.676L47.6992 113.312V113.43L47.6289 114.348H50.2695L52.8711 114.406L55.4844 114.348H55.6133L55.7305 114.359L57.1846 114.571L59.1484 114.555L61.668 114.332L61.8203 114.32L61.9609 114.344L62.3789 114.388L63.2891 114.289L63.4414 114.277L63.6055 114.289L66.0898 114.582L68.6328 114.43L68.7148 114.418L68.7969 114.43L69.332 114.456L69.625 114.438H69.6484L72.2852 114.309H72.4727L73.1006 114.35L73.3418 114.321L73.1523 113.348L73.1289 113.219V113.09L73.0703 110.441V110.371L73.082 110.289L73.2812 107.77L72.9648 105.332L72.9531 105.227V102.59L72.7891 99.9531V99.9414L72.5078 97.3984L72.4961 97.2695V97.1406L72.6484 94.4922L72.6953 91.9375L72.4258 89.4648V89.4414L72.1797 86.8164V86.7695L72.168 86.7344L72.0625 84.0977L72.0508 83.9805L72.0625 83.8633L72.3438 81.2852L72.2266 78.8125V78.8008L71.957 76.2695L71.9453 76.1758V76.0703L72.0039 73.5156L71.7227 71.0195V71.0078L71.418 68.3828L71.4062 68.2891V68.1836L71.4297 65.6289L71.1367 63.1211L71.1133 62.9922L71.125 62.8633L71.2539 60.2148L71.3242 57.707L71.0078 55.2109L70.6562 52.5859L70.6328 52.3867L70.6562 52.1875L70.9844 49.7031L70.7969 47.207L70.7852 47.1367L70.7969 47.0664L70.8438 44.6055L70.5625 41.9805V41.8047L70.5859 39.2734L70.1523 36.8125L70.1289 36.6484V36.4727L70.2695 33.8242L70.0703 31.3867V31.375L69.8828 28.7383L69.8711 28.6562L69.8828 28.5742L69.9648 26.0547L69.6602 23.5586L69.6484 23.5352V23.5117L69.3789 20.8867L69.3672 20.7344L69.3789 20.5703L69.6133 18.2852L69.3672 17.6523L67.8906 17.8047ZM93.1523 106.402H93.0938L91.8164 106.379L91.7109 107.188L91.5469 108.5H90.3516L90.3047 108.523L90 108.547L87.4453 108.688L87.3633 108.699L87.293 108.688L84.6445 108.57L84.6328 108.559H84.6211L83.4727 108.477L83.3789 109.461L83.6602 112.039L83.6719 112.18L83.6602 112.332L83.5078 114.172L83.915 114.501L84.5234 114.488L87.1602 114.418H87.1953L89.832 114.406H89.9375L90.0312 114.418L90.9814 114.543L91.3008 114.523L91.3359 114.512H91.3828L93.6836 114.489L93.8945 114.448L94.3359 114.287L94.3477 111.75V111.727L94.4062 109.148L94.3477 106.512V106.395L94.3496 106.37L93.1523 106.402ZM30.5742 99.8516L30.4688 101.773V101.785L30.4453 104.422L30.4922 104.855L30.6445 106.496H29.0273L26.4844 106.707L26.4375 106.719H26.3789L24.1133 106.748V106.758L23.9717 106.75L23.7422 106.754H23.6133L23.4727 106.73L23.4336 106.724L22.6953 106.688L20.0586 106.57L19.0371 106.574L18.6211 106.625L18.4688 106.648L18.3047 106.625L17.7891 106.58L17.4922 106.582L16.2969 106.594L16.2617 106.449L16.125 106.438L15.5859 106.73V108.535L15.5742 108.594L15.375 111.371L15.2578 112.941L13.6992 112.754L12.6328 112.625L12.5625 113.504V114.371L13.6523 114.348H13.7109L15.7188 114.4L15.8164 114.395H15.9102L18.5469 114.383L18.6406 114.371L18.7227 114.383L19.0762 114.422L21.4922 114.254L21.6211 114.242L21.7383 114.254L23.7598 114.441H23.8203L26.4688 114.418H26.4922L29.0469 114.43L31.6953 114.312L31.7773 114.301L31.8594 114.312L33.9785 114.453L34.6992 114.406H34.7109L34.7344 114.395L37.0195 114.289L37.4766 114.02L37.5 112.402L37.2773 109.766L37.2656 109.613L37.2773 109.473L37.5469 107.164L36.8086 105.113L35.707 103.086L34.2891 101.281L32.4609 100.051L30.8906 99.582L30.5742 99.8516ZM18.3945 95.2383V97.5L18.6641 100.031L18.6758 100.184L18.6641 100.324L18.4648 102.727L18.6641 103.57H18.9141L20.9062 103.332L21.1172 103.309L21.3164 103.344L21.4414 103.363L21.5117 102.609L21.4883 100.02L21.3828 97.3828V97.2656L21.4766 94.6289L20.4336 94.6875L20.3633 94.6992L20.293 94.6875L18.6758 94.6055L18.3945 95.2383ZM62.5234 20.043L65.0898 20.7461L65.2305 20.793L67.3867 21.6133L68.5469 21.707L68.6641 22.9727L68.7461 23.9453L68.7578 24.0156V24.0742L68.7695 26.7227V26.8516L68.7461 26.9805L68.3125 29.4531L68.3594 31.9727L68.3711 32.0781L68.3477 32.1953L68.0195 34.8086L67.7148 37.4336L67.7031 37.5273L67.0352 40.1992L67.0234 40.2578L67 40.3281L66.1445 42.8359L66.0977 42.9766L66.0273 43.0938L64.7148 45.4023L64.6562 45.4961L64.5859 45.5898L62.9219 47.6875L62.4531 48.2734L61.7031 48.25L59.1016 48.1914L58.5977 48.1797L58.1992 47.8516L56.1953 46.2227L55.9844 46.0352L55.8438 45.7891L54.543 43.4922L54.4961 43.3984L54.4609 43.3047L53.4766 40.832L53.3945 40.6328L53.3828 40.4102L53.1602 37.8906L52.5508 35.418L52.5391 35.3711L52.5273 35.3359L52.0586 32.7227L52.0352 32.6523V32.582L51.8125 29.9453V29.9336L51.625 27.2969V27.168L51.6602 24.5195V24.1797L51.8125 23.875L52.8672 21.7539L53.207 21.0742L53.957 20.9453L56.582 20.4766L56.6875 20.4648H56.7812L59.3008 20.3711L61.9023 19.9961L62.2188 19.9492L62.5234 20.043ZM59.6758 23.3477L59.6055 23.3594L59.5234 23.3711L57.0508 23.4414L55.2109 23.7578L54.6484 24.8828L54.625 27.2031L54.8008 29.6992L55.0117 32.2891L55.4688 34.7031L56.1016 37.2578L56.125 37.375L56.1367 37.4922L56.3477 39.9414L57.1797 42.0391L58.3047 44.0547L59.6992 45.2031L61.0234 45.2383L62.1484 43.8203L63.3438 41.7227L64.1641 39.3555L64.7266 37.0117L65.043 34.4453V34.4336L65.3477 31.9258L65.3125 29.3828V29.2305L65.3359 29.0898L65.7578 26.5938V24.2031L64.2227 23.6172L62.043 23.0078L59.6758 23.3477Z" fill="black"/>
</svg>
