<svg width="120" height="120" viewBox="0 0 120 120" fill="none" xmlns="http://www.w3.org/2000/svg">
<path d="M38.9381 56.4021L40.0696 57.3869L40.1335 57.3134L40.1875 57.2322L38.9381 56.4021ZM37.2686 58.3205L38.3264 59.384L38.3647 59.346L38.4001 59.3052L37.2686 58.3205ZM35.3808 60.198L34.323 59.1345L34.1063 59.35L33.9912 59.6332L35.3808 60.198ZM34.382 62.6552L35.7375 63.2977L35.7556 63.2593L35.7716 63.22L34.382 62.6552ZM33.2504 65.0428L34.5209 65.8402L34.568 65.7652L34.6059 65.6852L33.2504 65.0428ZM31.8428 67.2856L30.5723 66.4882L30.5427 66.5354L30.5167 66.5845L31.8428 67.2856ZM30.6089 69.6195L29.2828 68.9185L29.2565 68.9683L29.2339 69.02L30.6089 69.6195ZM29.551 72.0457L30.8593 72.7794L30.896 72.714L30.9259 72.6453L29.551 72.0457ZM28.2592 74.3493L29.4967 75.1971L29.5347 75.1416L29.5676 75.083L28.2592 74.3493ZM26.7567 76.5424L25.5193 75.6947L25.3995 75.8694L25.3329 76.0705L26.7567 76.5424ZM25.9151 79.082L27.2049 79.8478L27.2879 79.7081L27.339 79.5539L25.9151 79.082ZM24.5655 81.3552L23.2757 80.5895L23.2304 80.6658L23.1944 80.7469L24.5655 81.3552ZM23.4926 83.7736L24.7269 84.6259L24.8067 84.5103L24.8637 84.3819L23.4926 83.7736ZM21.9814 85.9621L20.7471 85.1098L20.6812 85.2052L20.6308 85.3095L21.9814 85.9621ZM20.8323 88.3405L22.1825 88.9938L22.1829 88.993L20.8323 88.3405ZM19.6818 90.7181L18.3315 90.0648L18.3218 90.0849L18.3127 90.1053L19.6818 90.7181ZM18.6012 93.1324L19.7881 94.0496L19.8973 93.9082L19.9703 93.7452L18.6012 93.1324ZM16.9618 95.2538L15.7749 94.3365L15.6133 94.5457L15.5329 94.7974L16.9618 95.2538ZM16.1464 97.8071L17.4037 98.6252L17.5139 98.4559L17.5754 98.2634L16.1464 97.8071ZM14.7002 100.03L13.4429 99.2116L13.3823 99.3048L13.3361 99.4059L14.7002 100.03ZM13.6007 102.434L14.817 103.312L14.9034 103.192L14.9648 103.058L13.6007 102.434ZM12.0401 104.597L10.8237 103.719L10.6795 103.919L10.6068 104.154L12.0401 104.597ZM11.2482 107.162L12.5386 107.927L12.6291 107.774L12.6815 107.605L11.2482 107.162ZM9.90027 109.436L8.60992 108.672L8.59818 108.691L8.58705 108.712L9.90027 109.436ZM8.62419 111.748L7.31097 111.023L7.29715 111.048L7.2843 111.074L8.62419 111.748ZM7.43727 114.107L8.59589 115.06L8.70203 114.93L8.77716 114.781L7.43727 114.107ZM6.41508 115.35L5.25646 114.397L4.08498 115.822L5.71859 116.678L6.41508 115.35ZM38.9934 56.3188L37.744 55.4888L37.6887 55.572L38.9381 56.4021L40.1875 57.2322L40.2428 57.1489L38.9934 56.3188ZM38.9381 56.4021L37.8066 55.4174L36.1371 57.3358L37.2686 58.3205L38.4001 59.3052L40.0696 57.3869L38.9381 56.4021ZM37.2686 58.3205L36.2109 57.2569L34.323 59.1345L35.3808 60.198L36.4385 61.2616L38.3264 59.384L37.2686 58.3205ZM35.3808 60.198L33.9912 59.6332L32.9924 62.0904L34.382 62.6552L35.7716 63.22L36.7704 60.7629L35.3808 60.198ZM34.382 62.6552L33.0265 62.0128L31.895 64.4004L33.2504 65.0428L34.6059 65.6852L35.7375 63.2977L34.382 62.6552ZM33.2504 65.0428L31.9799 64.2454L30.5723 66.4882L31.8428 67.2856L33.1133 68.083L34.5209 65.8402L33.2504 65.0428ZM31.8428 67.2856L30.5167 66.5845L29.2828 68.9185L30.6089 69.6195L31.935 70.3206L33.1689 67.9867L31.8428 67.2856ZM30.6089 69.6195L29.2339 69.02L28.176 71.4462L29.551 72.0457L30.9259 72.6453L31.9839 70.2191L30.6089 69.6195ZM29.551 72.0457L28.2426 71.3121L26.9509 73.6157L28.2592 74.3493L29.5676 75.083L30.8593 72.7794L29.551 72.0457ZM28.2592 74.3493L27.0218 73.5015L25.5193 75.6947L26.7567 76.5424L27.9942 77.3902L29.4967 75.1971L28.2592 74.3493ZM26.7567 76.5424L25.3329 76.0705L24.4913 78.6101L25.9151 79.082L27.339 79.5539L28.1806 77.0143L26.7567 76.5424ZM25.9151 79.082L24.6253 78.3162L23.2757 80.5895L24.5655 81.3552L25.8553 82.121L27.2049 79.8478L25.9151 79.082ZM24.5655 81.3552L23.1944 80.7469L22.1215 83.1652L23.4926 83.7736L24.8637 84.3819L25.9366 81.9635L24.5655 81.3552ZM23.4926 83.7736L22.2582 82.9213L20.7471 85.1098L21.9814 85.9621L23.2157 86.8144L24.7269 84.6259L23.4926 83.7736ZM21.9814 85.9621L20.6308 85.3095L19.4817 87.6879L20.8323 88.3405L22.1829 88.993L23.332 86.6147L21.9814 85.9621ZM20.8323 88.3405L19.482 87.6871L18.3315 90.0648L19.6818 90.7181L21.032 91.3715L22.1825 88.9938L20.8323 88.3405ZM19.6818 90.7181L18.3127 90.1053L17.232 92.5196L18.6012 93.1324L19.9703 93.7452L21.0509 91.3309L19.6818 90.7181ZM18.6012 93.1324L17.4143 92.2152L15.7749 94.3365L16.9618 95.2538L18.1487 96.171L19.7881 94.0496L18.6012 93.1324ZM16.9618 95.2538L15.5329 94.7974L14.7175 97.3508L16.1464 97.8071L17.5754 98.2634L18.3907 95.7101L16.9618 95.2538ZM16.1464 97.8071L14.8892 96.989L13.4429 99.2116L14.7002 100.03L15.9574 100.848L17.4037 98.6252L16.1464 97.8071ZM14.7002 100.03L13.3361 99.4059L12.2365 101.81L13.6007 102.434L14.9648 103.058L16.0643 100.653L14.7002 100.03ZM13.6007 102.434L12.3843 101.556L10.8237 103.719L12.0401 104.597L13.2565 105.474L14.817 103.312L13.6007 102.434ZM12.0401 104.597L10.6068 104.154L9.81495 106.72L11.2482 107.162L12.6815 107.605L13.4734 105.039L12.0401 104.597ZM11.2482 107.162L9.95788 106.398L8.60992 108.672L9.90027 109.436L11.1906 110.201L12.5386 107.927L11.2482 107.162ZM9.90027 109.436L8.58705 108.712L7.31097 111.023L8.62419 111.748L9.93742 112.473L11.2135 110.161L9.90027 109.436ZM8.62419 111.748L7.2843 111.074L6.09737 113.433L7.43727 114.107L8.77716 114.781L9.96409 112.423L8.62419 111.748ZM7.43727 114.107L6.27865 113.154L5.25646 114.397L6.41508 115.35L7.5737 116.303L8.59589 115.06L7.43727 114.107ZM6.41508 115.35L5.71859 116.678L5.908 116.778L6.60449 115.449L7.30098 114.121L7.11157 114.021L6.41508 115.35Z" fill="black"/>
<path d="M77.8069 107.13L79.0867 106.348L78.9652 106.149L78.7892 105.997L77.8069 107.13ZM75.8881 105.468L74.4887 106.008L74.6233 106.357L74.9058 106.601L75.8881 105.468ZM74.9301 102.986L76.3295 102.446L76.2743 102.303L76.1913 102.174L74.9301 102.986ZM73.4931 100.754L72.1949 101.505L72.2127 101.536L72.2319 101.566L73.4931 100.754ZM72.1696 98.4673L70.7886 99.0529L70.8249 99.1384L70.8714 99.2187L72.1696 98.4673ZM71.1355 96.0286L72.5165 95.443L72.5008 95.406L72.4832 95.3698L71.1355 96.0286ZM69.9764 93.6573L71.324 92.9985L71.3109 92.9716L71.2967 92.9453L69.9764 93.6573ZM68.7187 91.3248L67.3301 91.892L67.3604 91.9662L67.3984 92.0367L68.7187 91.3248ZM67.7224 88.8858L66.3191 89.4157L66.3262 89.4345L66.3337 89.453L67.7224 88.8858ZM66.7826 86.3973L68.1859 85.8674L68.1036 85.6494L67.959 85.4667L66.7826 86.3973ZM65.1218 84.298L63.7657 84.939L63.839 85.0941L63.9455 85.2287L65.1218 84.298ZM63.9903 81.9042L65.3465 81.2632L65.3233 81.2142L65.2967 81.167L63.9903 81.9042ZM62.6881 79.5967L61.2686 80.0813L61.3135 80.2129L61.3818 80.3339L62.6881 79.5967ZM61.8294 77.0816L63.249 76.5969L63.2075 76.4753L63.1458 76.3624L61.8294 77.0816ZM60.5628 74.7632L61.8792 74.044L61.8757 74.0376L61.8721 74.0313L60.5628 74.7632ZM59.2741 72.4579L60.5835 71.726L60.5711 71.7039L60.5581 71.6823L59.2741 72.4579ZM57.9065 70.1939L56.4746 70.6407L56.5287 70.814L56.6226 70.9695L57.9065 70.1939ZM57.108 67.6346L58.5399 67.1878L58.463 66.9413L58.308 66.7346L57.108 67.6346ZM55.4999 65.4902L54.1027 66.036L54.1771 66.2265L54.2998 66.3902L55.4999 65.4902ZM54.535 63.0201L55.9321 62.4743L55.8913 62.3697L55.8353 62.2724L54.535 63.0201ZM53.2173 60.7284L51.7992 61.2172L51.8457 61.3523L51.9169 61.4761L53.2173 60.7284ZM52.3481 58.2067L53.7662 57.7179L53.6846 57.4813L53.5307 57.284L52.3481 58.2067ZM50.6958 56.0891L49.3231 56.6939L49.3984 56.8647L49.5132 57.0118L50.6958 56.0891ZM49.6283 53.6663L48.2554 54.2706L48.2557 54.2711L49.6283 53.6663ZM48.563 51.246L49.9359 50.6417L49.8479 50.4419L49.7066 50.2754L48.563 51.246ZM46.9501 49.3458L48.0937 48.3752L47.7573 47.9788L47.2478 47.8757L46.9501 49.3458ZM44.3813 48.8256L44.679 47.3555L44.3509 47.289L44.0256 47.3684L44.3813 48.8256ZM41.8583 49.4415L41.5025 47.9843L40.8119 48.1529L40.5051 48.7943L41.8583 49.4415ZM40.7408 51.7777L42.0874 52.4385L42.0907 52.4318L42.094 52.425L40.7408 51.7777ZM39.5757 54.152L38.2291 53.4912L38.0875 53.7798L38.0765 54.101L39.5757 54.152ZM39.4913 56.6303L37.9922 56.5793L37.9885 56.6883L38.0006 56.7967L39.4913 56.6303ZM39.786 59.2706L41.242 59.6313L41.3065 59.3709L41.2767 59.1042L39.786 59.2706ZM39.1527 61.827L37.6967 61.4664L37.6793 61.5366L37.6687 61.6083L39.1527 61.827ZM38.7662 64.4488L40.2358 64.7491L40.2441 64.7085L40.2502 64.6675L38.7662 64.4488ZM38.2376 67.035L39.6521 67.5341L39.6865 67.4366L39.7072 67.3353L38.2376 67.035ZM37.351 69.5476L35.9365 69.0484L35.8568 69.2744L35.8514 69.514L37.351 69.5476ZM37.2909 72.2298L38.6935 72.7617L38.7848 72.5209L38.7905 72.2634L37.2909 72.2298ZM36.3422 74.7315L34.9397 74.1996L34.889 74.3334L34.8644 74.4742L36.3422 74.7315ZM35.8892 77.3334L34.4115 77.0761L34.3952 77.1693L34.3908 77.2638L35.8892 77.3334ZM35.7654 80.0011L37.2349 80.302L37.2583 80.1875L37.2638 80.0707L35.7654 80.0011ZM35.2357 82.5877L36.6473 83.0951L36.6837 82.9939L36.7053 82.8886L35.2357 82.5877ZM34.3332 85.0986L32.9217 84.5912L32.871 84.732L32.8492 84.88L34.3332 85.0986ZM33.9481 87.7143L35.418 88.0131L35.4262 87.9732L35.4321 87.9328L33.9481 87.7143ZM33.4222 90.3015L34.8801 90.6543L34.8866 90.6274L34.8922 90.6003L33.4222 90.3015ZM32.8011 92.8683L31.3431 92.5155L31.3422 92.5197L32.8011 92.8683ZM32.1872 95.4369L33.6447 95.7916L33.6461 95.7856L32.1872 95.4369ZM31.5623 98.0049L30.1048 97.6502L30.0739 97.7772L30.0654 97.9077L31.5623 98.0049ZM31.3896 100.663L32.8455 101.024L32.8778 100.894L32.8865 100.76L31.3896 100.663ZM30.7533 103.228L29.2975 102.867L29.2742 102.961L29.2631 103.057L30.7533 103.228ZM30.4508 105.86L31.8771 106.324L31.9238 106.181L31.941 106.031L30.4508 105.86ZM29.6278 108.387L28.2016 107.923L28.1706 108.018L28.1526 108.116L29.6278 108.387ZM29.1505 110.985L30.6214 111.278L30.6237 111.267L30.6258 111.256L29.1505 110.985ZM28.6344 113.566L27.1635 113.272L27.1355 113.413L27.1345 113.555L28.6344 113.566ZM28.6203 115.505L28.0427 116.89L30.104 117.75L30.1203 115.516L28.6203 115.505ZM77.8591 107.216L79.1388 106.433L79.0867 106.348L77.8069 107.13L76.5272 107.913L76.5794 107.998L77.8591 107.216ZM77.8069 107.13L78.7892 105.997L76.8703 104.334L75.8881 105.468L74.9058 106.601L76.8247 108.264L77.8069 107.13ZM75.8881 105.468L77.2874 104.928L76.3295 102.446L74.9301 102.986L73.5307 103.526L74.4887 106.008L75.8881 105.468ZM74.9301 102.986L76.1913 102.174L74.7543 99.9419L73.4931 100.754L72.2319 101.566L73.669 103.798L74.9301 102.986ZM73.4931 100.754L74.7913 100.003L73.4678 97.7159L72.1696 98.4673L70.8714 99.2187L72.1949 101.505L73.4931 100.754ZM72.1696 98.4673L73.5506 97.8817L72.5165 95.443L71.1355 96.0286L69.7546 96.6141L70.7886 99.0529L72.1696 98.4673ZM71.1355 96.0286L72.4832 95.3698L71.324 92.9985L69.9764 93.6573L68.6288 94.316L69.7879 96.6873L71.1355 96.0286ZM69.9764 93.6573L71.2967 92.9453L70.039 90.6128L68.7187 91.3248L67.3984 92.0367L68.6561 94.3692L69.9764 93.6573ZM68.7187 91.3248L70.1073 90.7575L69.111 88.3186L67.7224 88.8858L66.3337 89.453L67.3301 91.892L68.7187 91.3248ZM67.7224 88.8858L69.1256 88.3559L68.1859 85.8674L66.7826 86.3973L65.3794 86.9272L66.3191 89.4157L67.7224 88.8858ZM66.7826 86.3973L67.959 85.4667L66.2982 83.3674L65.1218 84.298L63.9455 85.2287L65.6063 87.328L66.7826 86.3973ZM65.1218 84.298L66.478 83.657L65.3465 81.2632L63.9903 81.9042L62.6342 82.5452L63.7657 84.939L65.1218 84.298ZM63.9903 81.9042L65.2967 81.167L63.9945 78.8595L62.6881 79.5967L61.3818 80.3339L62.684 82.6414L63.9903 81.9042ZM62.6881 79.5967L64.1077 79.112L63.249 76.5969L61.8294 77.0816L60.4099 77.5663L61.2686 80.0813L62.6881 79.5967ZM61.8294 77.0816L63.1458 76.3624L61.8792 74.044L60.5628 74.7632L59.2465 75.4824L60.5131 77.8008L61.8294 77.0816ZM60.5628 74.7632L61.8721 74.0313L60.5835 71.726L59.2741 72.4579L57.9648 73.1898L59.2535 75.4951L60.5628 74.7632ZM59.2741 72.4579L60.5581 71.6823L59.1904 69.4183L57.9065 70.1939L56.6226 70.9695L57.9902 73.2335L59.2741 72.4579ZM57.9065 70.1939L59.3384 69.7471L58.5399 67.1878L57.108 67.6346L55.676 68.0813L56.4746 70.6407L57.9065 70.1939ZM57.108 67.6346L58.308 66.7346L56.6999 64.5903L55.4999 65.4902L54.2998 66.3902L55.9079 68.5345L57.108 67.6346ZM55.4999 65.4902L56.8971 64.9444L55.9321 62.4743L54.535 63.0201L53.1378 63.5659L54.1027 66.036L55.4999 65.4902ZM54.535 63.0201L55.8353 62.2724L54.5176 59.9807L53.2173 60.7284L51.9169 61.4761L53.2346 63.7678L54.535 63.0201ZM53.2173 60.7284L54.6354 60.2396L53.7662 57.7179L52.3481 58.2067L50.9299 58.6955L51.7992 61.2172L53.2173 60.7284ZM52.3481 58.2067L53.5307 57.284L51.8784 55.1664L50.6958 56.0891L49.5132 57.0118L51.1654 59.1294L52.3481 58.2067ZM50.6958 56.0891L52.0685 55.4843L51.001 53.0615L49.6283 53.6663L48.2557 54.2711L49.3231 56.6939L50.6958 56.0891ZM49.6283 53.6663L51.0012 53.062L49.9359 50.6417L48.563 51.246L47.1901 51.8504L48.2554 54.2706L49.6283 53.6663ZM48.563 51.246L49.7066 50.2754L48.0937 48.3752L46.9501 49.3458L45.8065 50.3165L47.4194 52.2167L48.563 51.246ZM46.9501 49.3458L47.2478 47.8757L44.679 47.3555L44.3813 48.8256L44.0836 50.2958L46.6524 50.816L46.9501 49.3458ZM44.3813 48.8256L44.0256 47.3684L41.5025 47.9843L41.8583 49.4415L42.214 50.8988L44.7371 50.2828L44.3813 48.8256ZM41.8583 49.4415L40.5051 48.7943L39.3877 51.1304L40.7408 51.7777L42.094 52.425L43.2114 50.0888L41.8583 49.4415ZM40.7408 51.7777L39.3942 51.1169L38.2291 53.4912L39.5757 54.152L40.9222 54.8129L42.0874 52.4385L40.7408 51.7777ZM39.5757 54.152L38.0765 54.101L37.9922 56.5793L39.4913 56.6303L40.9905 56.6813L41.0748 54.203L39.5757 54.152ZM39.4913 56.6303L38.0006 56.7967L38.2952 59.4369L39.786 59.2706L41.2767 59.1042L40.9821 56.464L39.4913 56.6303ZM39.786 59.2706L38.33 58.9099L37.6967 61.4664L39.1527 61.827L40.6087 62.1877L41.242 59.6313L39.786 59.2706ZM39.1527 61.827L37.6687 61.6083L37.2822 64.23L38.7662 64.4488L40.2502 64.6675L40.6366 62.0458L39.1527 61.827ZM38.7662 64.4488L37.2966 64.1484L36.768 66.7346L38.2376 67.035L39.7072 67.3353L40.2358 64.7491L38.7662 64.4488ZM38.2376 67.035L36.8231 66.5358L35.9365 69.0484L37.351 69.5476L38.7656 70.0467L39.6521 67.5341L38.2376 67.035ZM37.351 69.5476L35.8514 69.514L35.7913 72.1962L37.2909 72.2298L38.7905 72.2634L38.8506 69.5812L37.351 69.5476ZM37.2909 72.2298L35.8884 71.698L34.9397 74.1996L36.3422 74.7315L37.7448 75.2634L38.6935 72.7617L37.2909 72.2298ZM36.3422 74.7315L34.8644 74.4742L34.4115 77.0761L35.8892 77.3334L37.367 77.5907L37.82 74.9888L36.3422 74.7315ZM35.8892 77.3334L34.3908 77.2638L34.267 79.9315L35.7654 80.0011L37.2638 80.0707L37.3876 77.4029L35.8892 77.3334ZM35.7654 80.0011L34.2959 79.7002L33.7662 82.2868L35.2357 82.5877L36.7053 82.8886L37.2349 80.302L35.7654 80.0011ZM35.2357 82.5877L33.8242 82.0803L32.9217 84.5912L34.3332 85.0986L35.7448 85.6059L36.6473 83.0951L35.2357 82.5877ZM34.3332 85.0986L32.8492 84.88L32.4641 87.4958L33.9481 87.7143L35.4321 87.9328L35.8172 85.3171L34.3332 85.0986ZM33.9481 87.7143L32.4781 87.4156L31.9523 90.0027L33.4222 90.3015L34.8922 90.6003L35.418 88.0131L33.9481 87.7143ZM33.4222 90.3015L31.9643 89.9487L31.3431 92.5155L32.8011 92.8683L34.259 93.2211L34.8801 90.6543L33.4222 90.3015ZM32.8011 92.8683L31.3422 92.5197L30.7283 95.0882L32.1872 95.4369L33.6461 95.7856L34.26 93.217L32.8011 92.8683ZM32.1872 95.4369L30.7298 95.0822L30.1048 97.6502L31.5623 98.0049L33.0197 98.3596L33.6447 95.7916L32.1872 95.4369ZM31.5623 98.0049L30.0654 97.9077L29.8928 100.566L31.3896 100.663L32.8865 100.76L33.0591 98.1021L31.5623 98.0049ZM31.3896 100.663L29.9338 100.302L29.2975 102.867L30.7533 103.228L32.2092 103.589L32.8455 101.024L31.3896 100.663ZM30.7533 103.228L29.2631 103.057L28.9606 105.689L30.4508 105.86L31.941 106.031L32.2435 103.399L30.7533 103.228ZM30.4508 105.86L29.0245 105.396L28.2016 107.923L29.6278 108.387L31.0541 108.852L31.8771 106.324L30.4508 105.86ZM29.6278 108.387L28.1526 108.116L27.6752 110.713L29.1505 110.985L30.6258 111.256L31.1031 108.658L29.6278 108.387ZM29.1505 110.985L27.6796 110.691L27.1635 113.272L28.6344 113.566L30.1053 113.86L30.6214 111.278L29.1505 110.985ZM28.6344 113.566L27.1345 113.555L27.1203 115.494L28.6203 115.505L30.1203 115.516L30.1344 113.577L28.6344 113.566ZM28.6203 115.505L29.1979 114.121L29.0629 114.065L28.4854 115.449L27.9078 116.833L28.0427 116.89L28.6203 115.505Z" fill="black"/>
<path d="M114.237 110.491L112.786 110.87L112.812 110.969L112.851 111.064L114.237 110.491ZM113.6 108.049L115.051 107.671L115.042 107.635L115.031 107.599L113.6 108.049ZM112.803 105.518L114.234 105.068L114.175 104.88L114.069 104.713L112.803 105.518ZM111.379 103.278L110.048 103.971L110.078 104.028L110.113 104.083L111.379 103.278ZM110.162 100.941L108.76 101.475L108.791 101.556L108.832 101.634L110.162 100.941ZM109.218 98.4644L110.62 97.9303L110.6 97.8767L110.575 97.8248L109.218 98.4644ZM108.091 96.0732L109.448 95.4336L109.423 95.3815L109.395 95.3315L108.091 96.0732ZM106.782 93.7726L105.412 94.3825L105.442 94.45L105.478 94.5143L106.782 93.7726ZM105.709 91.36L104.29 91.8465L104.311 91.9093L104.338 91.9699L105.709 91.36ZM104.846 88.8443L106.265 88.3578L106.196 88.1567L106.074 87.9827L104.846 88.8443ZM103.308 86.6531L101.925 87.2336L101.988 87.3825L102.08 87.5148L103.308 86.6531ZM102.285 84.2149L103.668 83.6344L103.633 83.5518L103.589 83.4738L102.285 84.2149ZM100.978 81.9151L99.5598 82.4031L99.6051 82.5349L99.674 82.6562L100.978 81.9151ZM100.112 79.3985L101.531 78.9105L101.493 78.7999L101.438 78.6964L100.112 79.3985ZM98.8755 77.0631L100.201 76.361L100.2 76.359L98.8755 77.0631ZM97.6368 74.7329L98.9613 74.0289L98.9498 74.0072L98.9376 73.9859L97.6368 74.7329ZM96.3157 72.4327L94.8787 72.8626L94.9285 73.0291L95.015 73.1798L96.3157 72.4327ZM95.5465 69.8614L96.9836 69.4314L96.8911 69.1223L96.6797 68.8785L95.5465 69.8614ZM93.8361 67.8893L94.9693 66.9065L94.7327 66.6337L94.398 66.4985L93.8361 67.8893ZM91.5832 66.9791L92.145 65.5883L91.8178 65.4561L91.4659 65.4837L91.5832 66.9791ZM88.9453 67.1859L88.7259 68.6698L88.8936 68.6946L89.0626 68.6813L88.9453 67.1859ZM86.3087 66.796L86.5281 65.3121L86.2961 65.2778L86.0648 65.3159L86.3087 66.796ZM83.6822 67.2288L83.4383 65.7488L83.4061 65.7541L83.3742 65.7608L83.6822 67.2288ZM81.1875 67.7522L80.8795 66.2841L80.5627 66.3506L80.3015 66.5417L81.1875 67.7522ZM79.0982 69.2813L78.2123 68.0709L77.9993 68.2267L77.8524 68.4459L79.0982 69.2813ZM77.6406 71.4551L78.8287 72.3707L78.8589 72.3315L78.8864 72.2905L77.6406 71.4551ZM76.0166 73.5626L74.8284 72.647L74.7264 72.7794L74.656 72.9309L76.0166 73.5626ZM74.8999 75.9677L76.209 76.7L76.2366 76.6507L76.2604 76.5994L74.8999 75.9677ZM73.6112 78.2715L74.8309 79.1446L74.8795 79.0767L74.9203 79.0038L73.6112 78.2715ZM72.0642 80.4328L70.8445 79.5597L70.725 79.7266L70.6547 79.9195L72.0642 80.4328ZM71.1506 82.9418L72.4383 83.7111L72.5113 83.5888L72.56 83.455L71.1506 82.9418ZM69.7952 85.2106L70.8795 86.247L70.9962 86.1249L71.0829 85.9799L69.7952 85.2106ZM68.0172 87.0709L69.0748 88.1346L69.0884 88.1211L69.1016 88.1073L68.0172 87.0709ZM114.275 110.584L115.662 110.011L115.624 109.919L114.237 110.491L112.851 111.064L112.889 111.156L114.275 110.584ZM114.237 110.491L115.689 110.113L115.051 107.671L113.6 108.049L112.148 108.428L112.786 110.87L114.237 110.491ZM113.6 108.049L115.031 107.599L114.234 105.068L112.803 105.518L111.373 105.969L112.169 108.5L113.6 108.049ZM112.803 105.518L114.069 104.713L112.644 102.473L111.379 103.278L110.113 104.083L111.538 106.323L112.803 105.518ZM111.379 103.278L112.709 102.585L111.493 100.248L110.162 100.941L108.832 101.634L110.048 103.971L111.379 103.278ZM110.162 100.941L111.564 100.407L110.62 97.9303L109.218 98.4644L107.817 98.9986L108.76 101.475L110.162 100.941ZM109.218 98.4644L110.575 97.8248L109.448 95.4336L108.091 96.0732L106.734 96.7128L107.862 99.104L109.218 98.4644ZM108.091 96.0732L109.395 95.3315L108.086 93.0308L106.782 93.7726L105.478 94.5143L106.787 96.815L108.091 96.0732ZM106.782 93.7726L108.153 93.1627L107.079 90.7501L105.709 91.36L104.338 91.9699L105.412 94.3825L106.782 93.7726ZM105.709 91.36L107.127 90.8734L106.265 88.3578L104.846 88.8443L103.427 89.3309L104.29 91.8465L105.709 91.36ZM104.846 88.8443L106.074 87.9827L104.536 85.7915L103.308 86.6531L102.08 87.5148L103.618 89.706L104.846 88.8443ZM103.308 86.6531L104.691 86.0726L103.668 83.6344L102.285 84.2149L100.902 84.7953L101.925 87.2336L103.308 86.6531ZM102.285 84.2149L103.589 83.4738L102.282 81.1741L100.978 81.9151L99.674 82.6562L100.981 84.9559L102.285 84.2149ZM100.978 81.9151L102.397 81.4271L101.531 78.9105L100.112 79.3985L98.6939 79.8865L99.5598 82.4031L100.978 81.9151ZM100.112 79.3985L101.438 78.6964L100.201 76.361L98.8755 77.0631L97.5499 77.7651L98.7868 80.1005L100.112 79.3985ZM98.8755 77.0631L100.2 76.359L98.9613 74.0289L97.6368 74.7329L96.3123 75.437L97.551 77.7672L98.8755 77.0631ZM97.6368 74.7329L98.9376 73.9859L97.6165 71.6857L96.3157 72.4327L95.015 73.1798L96.3361 75.48L97.6368 74.7329ZM96.3157 72.4327L97.7528 72.0028L96.9836 69.4314L95.5465 69.8614L94.1094 70.2913L94.8787 72.8626L96.3157 72.4327ZM95.5465 69.8614L96.6797 68.8785L94.9693 66.9065L93.8361 67.8893L92.7029 68.8721L94.4133 70.8442L95.5465 69.8614ZM93.8361 67.8893L94.398 66.4985L92.145 65.5883L91.5832 66.9791L91.0213 68.3699L93.2742 69.2801L93.8361 67.8893ZM91.5832 66.9791L91.4659 65.4837L88.8281 65.6905L88.9453 67.1859L89.0626 68.6813L91.7004 68.4745L91.5832 66.9791ZM88.9453 67.1859L89.1648 65.702L86.5281 65.3121L86.3087 66.796L86.0892 68.2798L88.7259 68.6698L88.9453 67.1859ZM86.3087 66.796L86.0648 65.3159L83.4383 65.7488L83.6822 67.2288L83.9261 68.7088L86.5526 68.276L86.3087 66.796ZM83.6822 67.2288L83.3742 65.7608L80.8795 66.2841L81.1875 67.7522L81.4954 69.2202L83.9901 68.6969L83.6822 67.2288ZM81.1875 67.7522L80.3015 66.5417L78.2123 68.0709L79.0982 69.2813L79.9842 70.4917L82.0734 68.9626L81.1875 67.7522ZM79.0982 69.2813L77.8524 68.4459L76.3947 70.6197L77.6406 71.4551L78.8864 72.2905L80.3441 70.1167L79.0982 69.2813ZM77.6406 71.4551L76.4524 70.5395L74.8284 72.647L76.0166 73.5626L77.2047 74.4782L78.8287 72.3707L77.6406 71.4551ZM76.0166 73.5626L74.656 72.9309L73.5394 75.336L74.8999 75.9677L76.2604 76.5994L77.3771 74.1943L76.0166 73.5626ZM74.8999 75.9677L73.5908 75.2354L72.3021 77.5392L73.6112 78.2715L74.9203 79.0038L76.209 76.7L74.8999 75.9677ZM73.6112 78.2715L72.3914 77.3984L70.8445 79.5597L72.0642 80.4328L73.2839 81.3058L74.8309 79.1446L73.6112 78.2715ZM72.0642 80.4328L70.6547 79.9195L69.7411 82.4285L71.1506 82.9418L72.56 83.455L73.4737 80.946L72.0642 80.4328ZM71.1506 82.9418L69.8629 82.1725L68.5074 84.4414L69.7952 85.2106L71.0829 85.9799L72.4383 83.7111L71.1506 82.9418ZM69.7952 85.2106L68.7108 84.1742L66.9328 86.0345L68.0172 87.0709L69.1016 88.1073L70.8795 86.247L69.7952 85.2106ZM68.0172 87.0709L66.9596 86.0072L66.648 86.317L67.7056 87.3807L68.7632 88.4445L69.0748 88.1346L68.0172 87.0709Z" fill="black"/>
<path d="M101.131 115.35L99.6369 115.478L99.6384 115.496L99.6404 115.514L101.131 115.35ZM100.914 112.823L99.4146 112.851L99.4156 112.902L99.4199 112.951L100.914 112.823ZM100.864 110.169L102.364 110.141L102.361 109.967L102.318 109.799L100.864 110.169ZM100.21 107.597L98.7319 107.852L98.7419 107.91L98.7564 107.967L100.21 107.597ZM99.7596 104.987L98.2597 105.004L98.2611 105.124L98.2814 105.242L99.7596 104.987ZM99.7286 102.336L101.228 102.319L101.227 102.236L101.217 102.153L99.7286 102.336ZM99.4061 99.7155L100.895 99.5323L100.877 99.387L100.831 99.2479L99.4061 99.7155ZM98.5992 97.256L100.024 96.7884L99.7706 96.0146L98.9833 95.806L98.5992 97.256ZM96.3038 96.6479L96.6879 95.198L96.5849 95.1707L96.479 95.1582L96.3038 96.6479ZM93.6638 96.3376L93.839 94.8478L93.6189 94.822L93.4008 94.8608L93.6638 96.3376ZM91.0647 96.8004L90.8017 95.3237L90.1117 95.4466L89.7632 96.0546L91.0647 96.8004ZM89.9848 98.6847L88.6834 97.9388L88.4797 98.2943L88.485 98.704L89.9848 98.6847ZM90.019 101.333L91.4926 101.613L91.5208 101.465L91.5189 101.313L90.019 101.333ZM89.5223 103.947L88.0486 103.667L88.0279 103.776L88.0235 103.887L89.5223 103.947ZM89.4162 106.586L87.9174 106.526L87.9174 106.526L89.4162 106.586ZM89.3112 109.225L87.8124 109.165L87.8113 109.194L87.8112 109.223L89.3112 109.225ZM89.3076 111.868L90.7707 112.199L90.8074 112.036L90.8076 111.87L89.3076 111.868ZM88.7163 114.482L87.2532 114.151L87.1864 114.447L87.2395 114.745L88.7163 114.482ZM101.142 115.449L102.633 115.285L102.622 115.185L101.131 115.35L99.6404 115.514L99.6514 115.614L101.142 115.449ZM101.131 115.35L102.626 115.221L102.409 112.695L100.914 112.823L99.4199 112.951L99.6369 115.478L101.131 115.35ZM100.914 112.823L102.414 112.795L102.364 110.141L100.864 110.169L99.3646 110.197L99.4146 112.851L100.914 112.823ZM100.864 110.169L102.318 109.799L101.664 107.227L100.21 107.597L98.7564 107.967L99.4106 110.539L100.864 110.169ZM100.21 107.597L101.688 107.342L101.238 104.732L99.7596 104.987L98.2814 105.242L98.7319 107.852L100.21 107.597ZM99.7596 104.987L101.259 104.969L101.228 102.319L99.7286 102.336L98.2287 102.354L98.2597 105.004L99.7596 104.987ZM99.7286 102.336L101.217 102.153L100.895 99.5323L99.4061 99.7155L97.9173 99.8987L98.2398 102.52L99.7286 102.336ZM99.4061 99.7155L100.831 99.2479L100.024 96.7884L98.5992 97.256L97.174 97.7236L97.9808 100.183L99.4061 99.7155ZM98.5992 97.256L98.9833 95.806L96.6879 95.198L96.3038 96.6479L95.9197 98.0979L98.2151 98.706L98.5992 97.256ZM96.3038 96.6479L96.479 95.1582L93.839 94.8478L93.6638 96.3376L93.4887 97.8273L96.1287 98.1377L96.3038 96.6479ZM93.6638 96.3376L93.4008 94.8608L90.8017 95.3237L91.0647 96.8004L91.3277 98.2772L93.9268 97.8143L93.6638 96.3376ZM91.0647 96.8004L89.7632 96.0546L88.6834 97.9388L89.9848 98.6847L91.2863 99.4305L92.3661 97.5463L91.0647 96.8004ZM89.9848 98.6847L88.485 98.704L88.5191 101.352L90.019 101.333L91.5189 101.313L91.4847 98.6653L89.9848 98.6847ZM90.019 101.333L88.5454 101.053L88.0486 103.667L89.5223 103.947L90.9959 104.227L91.4926 101.613L90.019 101.333ZM89.5223 103.947L88.0235 103.887L87.9174 106.526L89.4162 106.586L90.915 106.646L91.0211 104.007L89.5223 103.947ZM89.4162 106.586L87.9174 106.526L87.8124 109.165L89.3112 109.225L90.81 109.284L90.915 106.646L89.4162 106.586ZM89.3112 109.225L87.8112 109.223L87.8076 111.866L89.3076 111.868L90.8076 111.87L90.8112 109.227L89.3112 109.225ZM89.3076 111.868L87.8446 111.537L87.2532 114.151L88.7163 114.482L90.1793 114.813L90.7707 112.199L89.3076 111.868ZM88.7163 114.482L87.2395 114.745L87.4124 115.716L88.8892 115.453L90.3659 115.19L90.193 114.219L88.7163 114.482Z" fill="black"/>
<path d="M80.6613 68.5814L79.1615 68.6043L79.1654 68.8583L79.2527 69.0968L80.6613 68.5814ZM81.5333 70.9646L83.0139 71.2051L83.0768 70.8178L82.942 70.4492L81.5333 70.9646ZM81.1067 73.5907L79.6261 73.3502L79.6032 73.4914L79.6073 73.6343L81.1067 73.5907ZM81.1838 76.2424L82.6834 76.2764L82.6843 76.2376L82.6832 76.1988L81.1838 76.2424ZM81.124 78.8836L82.6092 79.0942L82.6216 79.0063L82.6236 78.9176L81.124 78.8836ZM80.7522 81.5055L79.2671 81.2949L79.2598 81.3459L79.2561 81.3973L80.7522 81.5055ZM80.5617 84.1385L79.0656 84.0303L79.0621 84.0794L79.0617 84.1287L80.5617 84.1385ZM80.5443 86.7851L82.0369 86.9342L82.0439 86.8647L82.0443 86.7949L80.5443 86.7851ZM80.2821 89.4114L81.7579 89.6797L81.7686 89.6204L81.7746 89.5605L80.2821 89.4114ZM79.8066 92.0272L78.3308 91.7589L78.2924 91.97L78.3147 92.1834L79.8066 92.0272ZM80.0852 94.6883L81.5755 94.8584L81.5941 94.6953L81.577 94.5321L80.0852 94.6883ZM79.7852 97.3156L78.2949 97.1454L78.2855 97.2276L78.2852 97.3103L79.7852 97.3156ZM79.7758 99.9631L81.2447 100.267L81.2752 100.119L81.2758 99.9684L79.7758 99.9631ZM79.2367 102.569L77.7678 102.265L77.7475 102.363L77.7404 102.463L79.2367 102.569ZM79.0514 105.203L80.4591 105.721L80.5327 105.521L80.5477 105.309L79.0514 105.203ZM78.1601 107.626L76.7523 107.108L76.5918 107.544L76.7062 107.995L78.1601 107.626ZM78.7861 110.093L80.2536 109.783L80.2474 109.753L80.24 109.724L78.7861 110.093ZM79.3411 112.714L77.8736 113.025L77.9215 113.251L78.0353 113.452L79.3411 112.714ZM80.6669 115.059L82.0254 115.696L82.3535 114.995L81.9728 114.321L80.6669 115.059ZM80.6598 68.4814L79.16 68.5043L79.1615 68.6043L80.6613 68.5814L82.1612 68.5586L82.1596 68.4586L80.6598 68.4814ZM80.6613 68.5814L79.2527 69.0968L80.1246 71.48L81.5333 70.9646L82.942 70.4492L82.07 68.066L80.6613 68.5814ZM81.5333 70.9646L80.0527 70.7241L79.6261 73.3502L81.1067 73.5907L82.5873 73.8312L83.0139 71.2051L81.5333 70.9646ZM81.1067 73.5907L79.6073 73.6343L79.6845 76.286L81.1838 76.2424L82.6832 76.1988L82.606 73.5471L81.1067 73.5907ZM81.1838 76.2424L79.6842 76.2085L79.6244 78.8497L81.124 78.8836L82.6236 78.9176L82.6834 76.2764L81.1838 76.2424ZM81.124 78.8836L79.6389 78.673L79.2671 81.2949L80.7522 81.5055L82.2374 81.7161L82.6092 79.0942L81.124 78.8836ZM80.7522 81.5055L79.2561 81.3973L79.0656 84.0303L80.5617 84.1385L82.0578 84.2468L82.2483 81.6138L80.7522 81.5055ZM80.5617 84.1385L79.0617 84.1287L79.0444 86.7753L80.5443 86.7851L82.0443 86.7949L82.0617 84.1484L80.5617 84.1385ZM80.5443 86.7851L79.0518 86.636L78.7895 89.2624L80.2821 89.4114L81.7746 89.5605L82.0369 86.9342L80.5443 86.7851ZM80.2821 89.4114L78.8062 89.1432L78.3308 91.7589L79.8066 92.0272L81.2824 92.2955L81.7579 89.6797L80.2821 89.4114ZM79.8066 92.0272L78.3147 92.1834L78.5933 94.8445L80.0852 94.6883L81.577 94.5321L81.2984 91.871L79.8066 92.0272ZM80.0852 94.6883L78.5949 94.5181L78.2949 97.1454L79.7852 97.3156L81.2755 97.4857L81.5755 94.8584L80.0852 94.6883ZM79.7852 97.3156L78.2852 97.3103L78.2758 99.9577L79.7758 99.9631L81.2758 99.9684L81.2852 97.3209L79.7852 97.3156ZM79.7758 99.9631L78.3069 99.6592L77.7678 102.265L79.2367 102.569L80.7056 102.873L81.2447 100.267L79.7758 99.9631ZM79.2367 102.569L77.7404 102.463L77.5551 105.098L79.0514 105.203L80.5477 105.309L80.733 102.674L79.2367 102.569ZM79.0514 105.203L77.6436 104.686L76.7523 107.108L78.1601 107.626L79.5678 108.144L80.4591 105.721L79.0514 105.203ZM78.1601 107.626L76.7062 107.995L77.3322 110.462L78.7861 110.093L80.24 109.724L79.614 107.257L78.1601 107.626ZM78.7861 110.093L77.3187 110.404L77.8736 113.025L79.3411 112.714L80.8085 112.403L80.2536 109.783L78.7861 110.093ZM79.3411 112.714L78.0353 113.452L79.3611 115.798L80.6669 115.059L81.9728 114.321L80.6469 111.976L79.3411 112.714ZM80.6669 115.059L79.3085 114.423L79.1261 114.813L80.4846 115.449L81.843 116.085L82.0254 115.696L80.6669 115.059Z" fill="black"/>
<path d="M105.595 116.042L105.568 117.542L105.577 117.542L105.587 117.542L105.595 116.042ZM103.057 115.995L102.886 117.485L102.957 117.494L103.03 117.495L103.057 115.995ZM100.42 115.692L100.591 114.202L100.42 114.182L100.249 114.202L100.42 115.692ZM97.7832 115.993L97.8743 117.491L97.914 117.488L97.9536 117.484L97.7832 115.993ZM95.1446 116.154L95.0297 117.65L95.1326 117.657L95.2357 117.651L95.1446 116.154ZM92.5021 115.951L92.617 114.455L92.5632 114.451L92.5092 114.451L92.5021 115.951ZM89.8617 115.938L89.8689 114.438L89.8023 114.438L89.736 114.444L89.8617 115.938ZM87.2234 116.16L87.1661 117.659L87.2578 117.663L87.3492 117.655L87.2234 116.16ZM84.5793 116.059L84.3395 117.54L84.4302 117.555L84.5221 117.558L84.5793 116.059ZM81.9454 115.633L82.1852 114.152L81.9181 114.109L81.6526 114.162L81.9454 115.633ZM79.3155 116.156L79.2337 117.654L79.4227 117.664L79.6083 117.627L79.3155 116.156ZM76.666 116.011L76.7478 114.514L76.6644 114.509L76.581 114.514L76.666 116.011ZM74.0326 116.161L73.8555 117.65L73.9862 117.666L74.1176 117.659L74.0326 116.161ZM71.4117 115.849L70.4925 117.035L70.8214 117.29L71.2346 117.339L71.4117 115.849ZM69.4049 114.293L68.1407 115.101L68.2805 115.319L68.4857 115.479L69.4049 114.293ZM67.9817 112.065L66.7114 112.863L66.7176 112.873L67.9817 112.065ZM66.5728 109.822L65.1439 110.278L65.2017 110.459L65.3025 110.619L66.5728 109.822ZM65.7565 107.267L67.1854 106.81L67.103 106.552L66.9356 106.34L65.7565 107.267ZM64.1006 105.161L62.7277 105.765L62.8042 105.939L62.9215 106.088L64.1006 105.161ZM63.0326 102.735L64.4055 102.131L64.3602 102.028L64.3003 101.933L63.0326 102.735ZM61.6192 100.501L60.22 101.041L60.2729 101.179L60.3516 101.303L61.6192 100.501ZM60.6584 98.0131L62.0577 97.4727L61.9688 97.2426L61.811 97.053L60.6584 98.0131ZM58.9399 95.95L57.595 96.6142L57.6737 96.7735L57.7874 96.91L58.9399 95.95ZM57.7692 93.5797L59.1141 92.9154L59.1041 92.8951L59.0934 92.8751L57.7692 93.5797ZM56.5288 91.2484L57.8531 90.5439L57.8399 90.5192L57.8259 90.495L56.5288 91.2484ZM55.2026 88.9652L53.8346 89.5805L53.8665 89.6514L53.9055 89.7186L55.2026 88.9652ZM54.0969 86.507L55.4649 85.8917L55.1374 85.1635L54.3504 85.0285L54.0969 86.507ZM51.4863 86.0593L51.7398 84.5809L51.5371 84.5461L51.3325 84.5672L51.4863 86.0593ZM48.9007 86.3257L48.7469 84.8336L48.2267 84.8872L47.8526 85.2526L48.9007 86.3257ZM47.0309 88.1518L45.9829 87.0787L45.2399 87.8044L45.6576 88.7552L47.0309 88.1518ZM48.1297 90.6529L49.6296 90.6718L49.6337 90.347L49.503 90.0495L48.1297 90.6529ZM48.0961 93.3118L49.5718 93.5809L49.5944 93.4569L49.596 93.3308L48.0961 93.3118ZM47.6216 95.9145L46.1459 95.6454L46.1216 95.7788L46.1216 95.9144L47.6216 95.9145ZM47.6215 98.5653L49.1205 98.619L49.1215 98.5922L49.1215 98.5653L47.6215 98.5653ZM47.5271 101.203L48.9998 101.487L49.0219 101.373L49.0261 101.256L47.5271 101.203ZM47.0218 103.816L45.5491 103.531L45.5065 103.751L45.5302 103.975L47.0218 103.816ZM47.3054 106.483L48.7649 106.829L48.8241 106.58L48.797 106.325L47.3054 106.483ZM46.688 109.087L45.2285 108.741L45.193 108.891L45.1886 109.044L46.688 109.087ZM46.613 111.731L45.1136 111.688L45.1103 111.804L45.1247 111.918L46.613 111.731ZM46.9462 114.378L48.4014 114.742L48.4696 114.47L48.4345 114.191L46.9462 114.378ZM105.695 116.042L105.704 114.542L105.604 114.542L105.595 116.042L105.587 117.542L105.687 117.542L105.695 116.042ZM105.595 116.042L105.623 114.542L103.085 114.495L103.057 115.995L103.03 117.495L105.568 117.542L105.595 116.042ZM103.057 115.995L103.228 114.505L100.591 114.202L100.42 115.692L100.248 117.182L102.886 117.485L103.057 115.995ZM100.42 115.692L100.249 114.202L97.6128 114.503L97.7832 115.993L97.9536 117.484L100.59 117.182L100.42 115.692ZM97.7832 115.993L97.692 114.496L95.0534 114.657L95.1446 116.154L95.2357 117.651L97.8743 117.491L97.7832 115.993ZM95.1446 116.154L95.2595 114.658L92.617 114.455L92.5021 115.951L92.3871 117.447L95.0297 117.65L95.1446 116.154ZM92.5021 115.951L92.5092 114.451L89.8689 114.438L89.8617 115.938L89.8546 117.438L92.4949 117.451L92.5021 115.951ZM89.8617 115.938L89.736 114.444L87.0976 114.666L87.2234 116.16L87.3492 117.655L89.9875 117.433L89.8617 115.938ZM87.2234 116.16L87.2806 114.662L84.6366 114.561L84.5793 116.059L84.5221 117.558L87.1661 117.659L87.2234 116.16ZM84.5793 116.059L84.8192 114.579L82.1852 114.152L81.9454 115.633L81.7055 117.114L84.3395 117.54L84.5793 116.059ZM81.9454 115.633L81.6526 114.162L79.0228 114.685L79.3155 116.156L79.6083 117.627L82.2381 117.104L81.9454 115.633ZM79.3155 116.156L79.3973 114.658L76.7478 114.514L76.666 116.011L76.5842 117.509L79.2337 117.654L79.3155 116.156ZM76.666 116.011L76.581 114.514L73.9476 114.663L74.0326 116.161L74.1176 117.659L76.751 117.509L76.666 116.011ZM74.0326 116.161L74.2097 114.671L71.5888 114.36L71.4117 115.849L71.2346 117.339L73.8555 117.65L74.0326 116.161ZM71.4117 115.849L72.3309 114.664L70.324 113.108L69.4049 114.293L68.4857 115.479L70.4925 117.035L71.4117 115.849ZM69.4049 114.293L70.669 113.486L69.2459 111.258L67.9817 112.065L66.7176 112.873L68.1407 115.101L69.4049 114.293ZM67.9817 112.065L69.252 111.268L67.8431 109.024L66.5728 109.822L65.3025 110.619L66.7114 112.863L67.9817 112.065ZM66.5728 109.822L68.0016 109.365L67.1854 106.81L65.7565 107.267L64.3277 107.723L65.1439 110.278L66.5728 109.822ZM65.7565 107.267L66.9356 106.34L65.2797 104.234L64.1006 105.161L62.9215 106.088L64.5774 108.194L65.7565 107.267ZM64.1006 105.161L65.4734 104.557L64.4055 102.131L63.0326 102.735L61.6598 103.34L62.7277 105.765L64.1006 105.161ZM63.0326 102.735L64.3003 101.933L62.8869 99.699L61.6192 100.501L60.3516 101.303L61.765 103.537L63.0326 102.735ZM61.6192 100.501L63.0185 99.9605L62.0577 97.4727L60.6584 98.0131L59.2592 98.5535L60.22 101.041L61.6192 100.501ZM60.6584 98.0131L61.811 97.053L60.0924 94.9899L58.9399 95.95L57.7874 96.91L59.5059 98.9731L60.6584 98.0131ZM58.9399 95.95L60.2848 95.2858L59.1141 92.9154L57.7692 93.5797L56.4243 94.2439L57.595 96.6142L58.9399 95.95ZM57.7692 93.5797L59.0934 92.8751L57.8531 90.5439L56.5288 91.2484L55.2046 91.953L56.445 94.2843L57.7692 93.5797ZM56.5288 91.2484L57.8259 90.495L56.4996 88.2118L55.2026 88.9652L53.9055 89.7186L55.2318 92.0019L56.5288 91.2484ZM55.2026 88.9652L56.5706 88.3499L55.4649 85.8917L54.0969 86.507L52.7289 87.1223L53.8346 89.5805L55.2026 88.9652ZM54.0969 86.507L54.3504 85.0285L51.7398 84.5809L51.4863 86.0593L51.2328 87.5377L53.8434 87.9854L54.0969 86.507ZM51.4863 86.0593L51.3325 84.5672L48.7469 84.8336L48.9007 86.3257L49.0544 87.8178L51.64 87.5514L51.4863 86.0593ZM48.9007 86.3257L47.8526 85.2526L45.9829 87.0787L47.0309 88.1518L48.079 89.2249L49.9487 87.3988L48.9007 86.3257ZM47.0309 88.1518L45.6576 88.7552L46.7564 91.2562L48.1297 90.6529L49.503 90.0495L48.4043 87.5485L47.0309 88.1518ZM48.1297 90.6529L46.6298 90.6339L46.5962 93.2929L48.0961 93.3118L49.596 93.3308L49.6296 90.6718L48.1297 90.6529ZM48.0961 93.3118L46.6205 93.0428L46.1459 95.6454L47.6216 95.9145L49.0972 96.1835L49.5718 93.5809L48.0961 93.3118ZM47.6216 95.9145L46.1216 95.9144L46.1215 98.5653L47.6215 98.5653L49.1215 98.5653L49.1216 95.9145L47.6216 95.9145ZM47.6215 98.5653L46.1225 98.5116L46.028 101.149L47.5271 101.203L49.0261 101.256L49.1205 98.619L47.6215 98.5653ZM47.5271 101.203L46.0543 100.918L45.5491 103.531L47.0218 103.816L48.4946 104.101L48.9998 101.487L47.5271 101.203ZM47.0218 103.816L45.5302 103.975L45.8138 106.642L47.3054 106.483L48.797 106.325L48.5134 103.657L47.0218 103.816ZM47.3054 106.483L45.8459 106.137L45.2285 108.741L46.688 109.087L48.1476 109.433L48.7649 106.829L47.3054 106.483ZM46.688 109.087L45.1886 109.044L45.1136 111.688L46.613 111.731L48.1124 111.773L48.1874 109.13L46.688 109.087ZM46.613 111.731L45.1247 111.918L45.458 114.565L46.9462 114.378L48.4345 114.191L48.1013 111.543L46.613 111.731ZM46.9462 114.378L45.4911 114.014L45.2386 115.023L46.6937 115.387L48.1489 115.752L48.4014 114.742L46.9462 114.378Z" fill="black"/>
<path d="M46.9906 88.7749L48.0065 89.8785L48.152 89.7446L48.2578 89.5776L46.9906 88.7749ZM45.1536 90.466L44.1377 89.3624L44.0274 89.464L43.9393 89.5854L45.1536 90.466ZM43.5983 92.6105L42.384 91.7299L42.269 91.8885L42.1986 92.0714L43.5983 92.6105ZM42.6453 95.0849L44.0085 95.7106L44.0281 95.6679L44.045 95.624L42.6453 95.0849ZM41.543 97.4863L42.8219 98.27L42.8688 98.1936L42.9062 98.1121L41.543 97.4863ZM40.1594 99.7442L38.8804 98.9605L38.852 99.0068L38.8271 99.055L40.1594 99.7442ZM38.9464 102.089L37.6141 101.4L37.5889 101.449L37.5673 101.499L38.9464 102.089ZM37.9053 104.523L39.2171 105.25L39.2543 105.183L39.2844 105.113L37.9053 104.523ZM36.6244 106.833L37.8638 107.678L37.9027 107.62L37.9362 107.56L36.6244 106.833ZM35.127 109.029L33.8876 108.184L33.7694 108.357L33.7033 108.557L35.127 109.029ZM34.2844 111.568L35.6109 112.269L35.6689 112.159L35.7081 112.041L34.2844 111.568ZM33.0653 113.877L31.7389 113.177L31.5996 113.441L31.5718 113.738L33.0653 113.877ZM32.931 115.317L32.5964 116.78L34.2654 117.161L34.4245 115.457L32.931 115.317ZM47.0441 88.6904L45.777 87.8877L45.7235 87.9722L46.9906 88.7749L48.2578 89.5776L48.3113 89.4931L47.0441 88.6904ZM46.9906 88.7749L45.9747 87.6713L44.1377 89.3624L45.1536 90.466L46.1695 91.5696L48.0065 89.8785L46.9906 88.7749ZM45.1536 90.466L43.9393 89.5854L42.384 91.7299L43.5983 92.6105L44.8126 93.4912L46.3679 91.3467L45.1536 90.466ZM43.5983 92.6105L42.1986 92.0714L41.2455 94.5457L42.6453 95.0849L44.045 95.624L44.9981 93.1497L43.5983 92.6105ZM42.6453 95.0849L41.282 94.4591L40.1797 96.8605L41.543 97.4863L42.9062 98.1121L44.0085 95.7106L42.6453 95.0849ZM41.543 97.4863L40.264 96.7026L38.8804 98.9605L40.1594 99.7442L41.4384 100.528L42.8219 98.27L41.543 97.4863ZM40.1594 99.7442L38.8271 99.055L37.6141 101.4L38.9464 102.089L40.2787 102.778L41.4917 100.433L40.1594 99.7442ZM38.9464 102.089L37.5673 101.499L36.5262 103.933L37.9053 104.523L39.2844 105.113L40.3255 102.679L38.9464 102.089ZM37.9053 104.523L36.5935 103.795L35.3126 106.105L36.6244 106.833L37.9362 107.56L39.2171 105.25L37.9053 104.523ZM36.6244 106.833L35.385 105.988L33.8876 108.184L35.127 109.029L36.3664 109.874L37.8638 107.678L36.6244 106.833ZM35.127 109.029L33.7033 108.557L32.8607 111.096L34.2844 111.568L35.7081 112.041L36.5507 109.501L35.127 109.029ZM34.2844 111.568L32.9579 110.868L31.7389 113.177L33.0653 113.877L34.3918 114.578L35.6109 112.269L34.2844 111.568ZM33.0653 113.877L31.5718 113.738L31.4374 115.178L32.931 115.317L34.4245 115.457L34.5589 114.017L33.0653 113.877ZM32.931 115.317L33.2656 113.855L33.0226 113.799L32.688 115.262L32.3534 116.724L32.5964 116.78L32.931 115.317Z" fill="black"/>
<path d="M1.45058 116.103L1.46103 117.603L1.52001 117.603L1.57877 117.598L1.45058 116.103ZM3.96952 115.887L4.02513 114.388L3.9331 114.385L3.84133 114.393L3.96952 115.887ZM6.60479 115.985L6.69983 114.488L6.68013 114.487L6.6604 114.486L6.60479 115.985ZM9.19045 116.149L9.09541 117.646L9.23992 117.655L9.38352 117.637L9.19045 116.149ZM11.8217 115.808L11.9591 114.314L11.7935 114.299L11.6287 114.32L11.8217 115.808ZM14.459 116.05L14.3217 117.544L14.3773 117.549L14.4332 117.55L14.459 116.05ZM17.0987 116.096L17.0729 117.596L17.1356 117.597L17.1981 117.592L17.0987 116.096ZM19.7387 115.92L19.7645 114.421L19.7018 114.42L19.6393 114.424L19.7387 115.92ZM22.3766 115.966L22.4998 114.471L22.4512 114.467L22.4024 114.466L22.3766 115.966ZM25.0279 116.184L24.9048 117.679L25.0874 117.694L25.2682 117.665L25.0279 116.184ZM27.6748 115.755L27.8678 114.267L27.6506 114.239L27.4345 114.274L27.6748 115.755ZM30.2792 116.092L30.0862 117.58L30.4359 117.625L30.7692 117.51L30.2792 116.092ZM32.7774 115.229L33.2597 113.809L32.7731 113.643L32.2873 113.811L32.7774 115.229ZM35.3675 116.109L34.8852 117.529L35.1527 117.62L35.4348 117.607L35.3675 116.109ZM38.0057 115.99L37.9575 114.491L37.948 114.491L37.9385 114.492L38.0057 115.99ZM40.6461 115.905L40.6944 117.404L40.7141 117.404L40.7338 117.403L40.6461 115.905ZM43.2864 115.75L43.548 114.273L43.3745 114.243L43.1987 114.253L43.2864 115.75ZM45.9259 116.218L45.6643 117.695L45.9255 117.741L46.1866 117.695L45.9259 116.218ZM48.5655 115.752L48.7053 114.258L48.5039 114.24L48.3048 114.275L48.5655 115.752ZM51.2058 115.999L51.066 117.492L51.1757 117.503L51.2857 117.497L51.2058 115.999ZM53.846 115.858L54.0603 114.373L53.9139 114.352L53.7661 114.36L53.846 115.858ZM56.4865 116.239L56.2721 117.724L56.5206 117.76L56.7672 117.713L56.4865 116.239ZM59.1249 115.737L59.2104 114.239L59.0258 114.228L58.8441 114.263L59.1249 115.737ZM61.7677 115.887L61.6822 117.385L61.6837 117.385L61.7677 115.887ZM64.3764 116.034L65.8741 116.117L65.9572 114.62L64.4605 114.536L64.3764 116.034ZM1.35059 116.104L1.36104 117.604L1.46103 117.603L1.45058 116.103L1.44013 114.603L1.34014 114.604L1.35059 116.104ZM1.45058 116.103L1.57877 117.598L4.0977 117.382L3.96952 115.887L3.84133 114.393L1.3224 114.609L1.45058 116.103ZM3.96952 115.887L3.91391 117.386L6.54918 117.484L6.60479 115.985L6.6604 114.486L4.02513 114.388L3.96952 115.887ZM6.60479 115.985L6.50975 117.482L9.09541 117.646L9.19045 116.149L9.28549 114.652L6.69983 114.488L6.60479 115.985ZM9.19045 116.149L9.38352 117.637L12.0148 117.295L11.8217 115.808L11.6287 114.32L8.99738 114.662L9.19045 116.149ZM11.8217 115.808L11.6844 117.301L14.3217 117.544L14.459 116.05L14.5964 114.557L11.9591 114.314L11.8217 115.808ZM14.459 116.05L14.4332 117.55L17.0729 117.596L17.0987 116.096L17.1246 114.596L14.4849 114.551L14.459 116.05ZM17.0987 116.096L17.1981 117.592L19.838 117.417L19.7387 115.92L19.6393 114.424L16.9993 114.599L17.0987 116.096ZM19.7387 115.92L19.7128 117.42L22.3508 117.466L22.3766 115.966L22.4024 114.466L19.7645 114.421L19.7387 115.92ZM22.3766 115.966L22.2535 117.461L24.9048 117.679L25.0279 116.184L25.1511 114.689L22.4998 114.471L22.3766 115.966ZM25.0279 116.184L25.2682 117.665L27.9151 117.235L27.6748 115.755L27.4345 114.274L24.7876 114.704L25.0279 116.184ZM27.6748 115.755L27.4819 117.242L30.0862 117.58L30.2792 116.092L30.4721 114.605L27.8678 114.267L27.6748 115.755ZM30.2792 116.092L30.7692 117.51L33.2674 116.647L32.7774 115.229L32.2873 113.811L29.7891 114.675L30.2792 116.092ZM32.7774 115.229L32.295 116.649L34.8852 117.529L35.3675 116.109L35.8499 114.688L33.2597 113.809L32.7774 115.229ZM35.3675 116.109L35.4348 117.607L38.073 117.489L38.0057 115.99L37.9385 114.492L35.3003 114.61L35.3675 116.109ZM38.0057 115.99L38.054 117.489L40.6944 117.404L40.6461 115.905L40.5978 114.406L37.9575 114.491L38.0057 115.99ZM40.6461 115.905L40.7338 117.403L43.3741 117.248L43.2864 115.75L43.1987 114.253L40.5584 114.408L40.6461 115.905ZM43.2864 115.75L43.0248 117.227L45.6643 117.695L45.9259 116.218L46.1875 114.741L43.548 114.273L43.2864 115.75ZM45.9259 116.218L46.1866 117.695L48.8262 117.229L48.5655 115.752L48.3048 114.275L45.6652 114.741L45.9259 116.218ZM48.5655 115.752L48.4257 117.245L51.066 117.492L51.2058 115.999L51.3455 114.506L48.7053 114.258L48.5655 115.752ZM51.2058 115.999L51.2857 117.497L53.926 117.356L53.846 115.858L53.7661 114.36L51.1258 114.501L51.2058 115.999ZM53.846 115.858L53.6317 117.343L56.2721 117.724L56.4865 116.239L56.7008 114.755L54.0603 114.373L53.846 115.858ZM56.4865 116.239L56.7672 117.713L59.4056 117.21L59.1249 115.737L58.8441 114.263L56.2057 114.766L56.4865 116.239ZM59.1249 115.737L59.0393 117.234L61.6822 117.385L61.7677 115.887L61.8533 114.39L59.2104 114.239L59.1249 115.737ZM61.7677 115.887L61.6837 117.385L64.2923 117.532L64.3764 116.034L64.4605 114.536L61.8518 114.39L61.7677 115.887ZM64.3764 116.034L62.8787 115.951L62.8748 116.021L64.3725 116.104L65.8702 116.187L65.8741 116.117L64.3764 116.034Z" fill="black"/>
<path d="M66.3858 110.246L66.9049 111.653L66.919 111.648L66.933 111.643L66.3858 110.246ZM64.0007 111.126L63.9172 112.623L64.2279 112.641L64.5198 112.533L64.0007 111.126ZM61.3491 110.978L61.4325 109.48L61.3038 109.473L61.1758 109.488L61.3491 110.978ZM58.7242 111.283L58.551 109.793L58.1778 109.837L57.8691 110.051L58.7242 111.283ZM57.0291 112.46L56.174 111.227L55.4707 111.715L55.5331 112.569L57.0291 112.46ZM57.2206 115.077L58.7178 115.168L58.724 115.068L58.7166 114.967L57.2206 115.077ZM66.4789 110.209L65.9317 108.813L65.8386 108.849L66.3858 110.246L66.933 111.643L67.0261 111.606L66.4789 110.209ZM66.3858 110.246L65.8666 108.839L63.4815 109.718L64.0007 111.126L64.5198 112.533L66.9049 111.653L66.3858 110.246ZM64.0007 111.126L64.0841 109.628L61.4325 109.48L61.3491 110.978L61.2656 112.476L63.9172 112.623L64.0007 111.126ZM61.3491 110.978L61.1758 109.488L58.551 109.793L58.7242 111.283L58.8975 112.773L61.5223 112.468L61.3491 110.978ZM58.7242 111.283L57.8691 110.051L56.174 111.227L57.0291 112.46L57.8843 113.692L59.5794 112.516L58.7242 111.283ZM57.0291 112.46L55.5331 112.569L55.7246 115.186L57.2206 115.077L58.7166 114.967L58.5251 112.35L57.0291 112.46ZM57.2206 115.077L55.7234 114.985L55.7007 115.357L57.1979 115.449L58.6951 115.54L58.7178 115.168L57.2206 115.077Z" fill="black"/>
<path d="M118.55 111.331L118.573 109.831L118.537 109.831L118.501 109.832L118.55 111.331ZM115.999 111.414L115.608 112.862L115.824 112.921L116.047 112.913L115.999 111.414ZM113.458 110.728L113.849 109.28L113.518 109.191L113.18 109.254L113.458 110.728ZM110.858 111.219L110.939 112.717L111.038 112.711L111.136 112.693L110.858 111.219ZM108.213 111.364L108.07 112.857L108.182 112.868L108.294 112.861L108.213 111.364ZM105.575 111.112L105.718 109.618L105.654 109.612L105.59 109.612L105.575 111.112ZM102.935 111.085L102.95 109.585L102.753 109.583L102.563 109.632L102.935 111.085ZM101.305 111.501L99.8095 111.391L99.6551 113.472L101.677 112.955L101.305 111.501ZM118.65 111.333L118.673 109.833L118.573 109.831L118.55 111.331L118.526 112.831L118.626 112.832L118.65 111.333ZM118.55 111.331L118.501 109.832L115.95 109.915L115.999 111.414L116.047 112.913L118.599 112.83L118.55 111.331ZM115.999 111.414L116.39 109.966L113.849 109.28L113.458 110.728L113.067 112.176L115.608 112.862L115.999 111.414ZM113.458 110.728L113.18 109.254L110.579 109.745L110.858 111.219L111.136 112.693L113.736 112.202L113.458 110.728ZM110.858 111.219L110.776 109.721L108.131 109.866L108.213 111.364L108.294 112.861L110.939 112.717L110.858 111.219ZM108.213 111.364L108.355 109.87L105.718 109.618L105.575 111.112L105.432 112.605L108.07 112.857L108.213 111.364ZM105.575 111.112L105.59 109.612L102.95 109.585L102.935 111.085L102.919 112.585L105.56 112.611L105.575 111.112ZM102.935 111.085L102.563 109.632L100.934 110.048L101.305 111.501L101.677 112.955L103.306 112.538L102.935 111.085ZM101.305 111.501L102.801 111.612L102.814 111.443L101.318 111.333L99.822 111.222L99.8095 111.391L101.305 111.501Z" fill="black"/>
</svg>
