<svg width="120" height="120" viewBox="0 0 120 120" fill="none" xmlns="http://www.w3.org/2000/svg">
<path d="M74.9883 28.1523L74.8945 29.1367L75.0586 31.6211V31.6328L75.0703 31.6445L75.1875 34.293L75.1992 34.3867L75.1875 34.4688L75.0029 36.9678L75.3828 37.293L77.3164 38.8633L79.5078 39.9414L81.8516 40.7852L81.8984 40.7969L81.9453 40.8203L84.3125 41.8398L86.7617 42.7891L89.2344 43.7383H89.2227L91.6719 44.5117L91.7656 44.5352L91.8711 44.5938L94.1211 45.6836L96.5352 46.2812H96.5234L99.0781 46.7617L99.2305 46.7969L99.3711 46.8555L101.82 47.875L102.031 47.9688L102.207 48.1094L103.613 49.2695L105.277 50.6406L103.426 51.7188L101.152 53.0547L101.082 53.1016L98.7031 54.3086L98.4336 54.4492L98.1289 54.4727L95.5859 54.6602L93.1953 55.3164L93.125 55.3398L93.0547 55.3516L90.4648 55.7969H90.4531L90.4297 55.8086L88.9893 56.0283L89.7812 56.291L89.5234 57.0879L89.418 59.5137V59.5957L89.4062 59.6777L88.9844 62.291V62.3379L88.9727 62.3848L88.3867 64.9395H88.3984L87.8945 67.4707L87.7891 68.7393L89.168 69.75L91.1836 71.1211L93.5156 71.9648L93.5625 71.9883L93.6094 72L95.8711 73.0078L98.3438 73.5703L98.5547 73.6172L98.7305 73.7227L100.887 74.9062L103.289 75.4922L103.324 75.5039H103.348L105.891 76.2305H105.879L108.41 76.9219L111.633 77.8008L108.82 79.6289L106.641 81.0352L106.453 81.1641L106.23 81.2227L103.676 81.9492L103.523 81.9844L103.371 81.9961L100.91 82.1484L98.5781 82.9805L98.3203 83.0625H98.0625L96.5 83.041L96.6836 85.5273L96.6953 85.6211V85.7148L96.5664 88.3516V88.375L96.3906 91.0234L96.3789 93.5078L96.6602 96.0391L96.6719 96.1797L96.6602 96.332L96.4375 98.9688L96.4141 101.411L98.834 101.401L98.9336 101.4L99.0322 101.414L101.673 101.755L101.919 101.787L102.143 101.896L103.925 102.774L104.894 103.251L104.749 104.32L104.402 106.887L104.301 109.306L104.719 111.791L104.739 111.909L104.74 112.029L104.755 114.25L105.664 114.242H105.816L105.969 114.266L108.406 114.746L110.809 114.5L110.891 114.488H110.973L112.016 114.5L112.004 116L111.98 117.5L110.984 117.488L108.477 117.746L108.254 117.77L108.031 117.734L105.57 117.242L103.145 117.254L100.648 117.688L100.496 117.711L100.332 117.699L97.6953 117.594H97.625L97.5547 117.582L96.001 117.361L93.9619 117.64L93.7627 117.666L93.5625 117.64L93.3018 117.604L92.7617 117.711L92.5273 117.758L92.293 117.734L89.7383 117.406L87.7822 117.415L86.0918 117.704L85.9785 117.724L85.8623 117.725L83.2227 117.765L83.1143 117.767L83.0059 117.752L81.4492 117.549L79.3672 117.559L79.3789 117.57L77.2275 117.713L77.2148 117.73L77.0518 117.725L76.7422 117.746L76.5547 117.758L76.2695 117.704L73.8281 117.672V117.66L71.2031 117.648H71.1797L68.5664 117.59L67.3438 117.617L67.3311 117.618L67.3262 117.617L65.9648 117.648H65.8359L65.7188 117.637L63.5166 117.326L63.1602 117.316L60.957 117.559H60.8867L58.25 117.711L58.0977 117.723L58.0781 117.719L58.0078 117.73L57.8438 117.707L56.5088 117.55L54.2617 117.704L54.166 117.71L54.0693 117.704L51.5 117.549L48.9297 117.635L48.7959 117.639L48.6631 117.619L48.6602 117.618L47.625 117.742L47.3906 117.766L47.168 117.719L45.0547 117.324L43.709 117.409L42.4199 117.522L42.418 117.523H42.4111L41.0908 117.64L40.9658 117.65L40.8408 117.641L40.2949 117.597L39.7344 117.617H39.6172L39.4941 117.611L39.4805 117.613V117.611L36.9805 117.512V117.5L36.334 117.497L35.7256 117.516L35.7246 117.515L33.0957 117.613L32.9971 117.617L32.8994 117.607L30.4297 117.374L27.957 117.701L27.8203 117.72L27.6826 117.713L25.124 117.581L22.5781 117.749L22.4854 117.755L22.3916 117.749L19.8271 117.598L17.2549 117.692L15.6631 117.751L15.6709 117.399L13.3789 117.559H13.3672L13.3555 117.57L10.707 117.688L10.6133 117.699L10.5312 117.688L7.98828 117.5L8 117.277V114.5H8.21094L10.6719 114.699L13.1797 114.582V114.57L15.7412 114.399L15.7598 113.61L15.5264 111.057V111.054L15.29 108.414L15.2783 108.29L15.2881 108.167L15.4873 105.527L15.4883 105.517L15.4893 105.507L15.7246 102.867L17 102.981V101.5H18.8584L18.8467 101.629L19.666 101.691L22.208 101.568V101.569L23.4316 101.486L23.3242 100.867L23.2773 100.609L23.3125 100.352L23.7461 97.8555L23.7578 95.4297L23.2656 92.9688L23.2305 92.7461L23.2539 92.5234L23.5117 90.0859L23.3008 87.5195L23.2891 87.3555L23.3125 87.2031L23.6406 84.7891L23.3359 83.2891L23.291 83.0703L21.293 82.6641V82.6523L18.7969 82.3477H18.7383L16.125 81.9141L15.9609 81.8906L15.8086 81.832L13.3594 80.8477L13.1367 80.7539L12.9492 80.6016L11.2852 79.1953L8.97656 77.25L11.918 76.582L14.4141 76.0078L16.7812 75.1289L16.9453 75.082L19.3828 74.4609L21.8203 73.5586L21.9492 73.5117L22.0898 73.4883L24.5273 73.0547L26.6953 71.9883L28.957 70.7344L29.0156 70.7109L29.0625 70.6875L31.2188 69.7031L32.9883 68.0156L33.2637 68.3076L33.1953 67.4707L32.6914 64.9395H32.7031L32.1172 62.3848L32.1055 62.3379V62.291L31.6836 59.6777L31.6719 59.5957V59.5137L31.5664 57.0879L31.3086 56.291L31.8223 56.1211L29.4688 55.9492L29.3281 55.9375L29.1875 55.9023L26.6328 55.2227V55.2109L24.1133 54.6133H24.0664L21.5352 53.9219H21.5117L18.9805 53.207L18.7812 53.1484L18.6055 53.043L16.3203 51.6367L14.375 50.4414L16.2383 49.1289L18.0547 47.8516L18.2422 47.7227L18.4531 47.6523L20.9609 46.832L21.0781 46.7969L21.207 46.7734L23.668 46.4102L26 45.5195L28.3906 44.5L28.4961 44.4531L28.6016 44.4297L31.0859 43.7852L33.418 42.8711L35.8438 41.8398L35.9141 41.8047L35.9844 41.7812L38.3164 41.0547L40.4141 39.7422L40.4844 39.6953L40.5664 39.6602L42.7227 38.6055L44.3398 37.1523L44.4375 37H44V36.7891L44.1992 34.3281L44.082 31.8203H44.0703L43.8945 29.1836L43.8828 29.0547L43.8945 28.9258L44.0117 27.8477L46.9883 28.1523L46.8945 29.1367L47.0586 31.6211V31.6328L47.0703 31.6445L47.1875 34.293L47.1992 34.3867L47.1875 34.4688L47.1074 35.5459L48.9922 35.6992L51.5 35.582V35.5703L54.1367 35.3945H54.2305L56.8672 35.3828L56.9609 35.3711L57.043 35.3828L59.5508 35.6641L62.0352 35.4531L62.082 35.4414H62.1406L64.7773 35.418H64.8125L67.3672 35.4297L70.0039 35.3125L70.0977 35.3008L70.1797 35.3125L72.1084 35.4404L72.1992 34.3281L72.082 31.8203H72.0703L71.8945 29.1836L71.8828 29.0547L71.8945 28.9258L72.0117 27.8477L74.9883 28.1523ZM26.8652 104.38L25.4453 104.582L24.0156 104.77L23.958 104.457L22.3799 104.563L22.3662 104.564L22.3516 104.565L19.7119 104.691L19.6191 104.696L19.5264 104.689L18.5801 104.617L18.4785 105.752L18.4795 105.753L18.2881 108.271L18.5137 110.783L18.7549 113.424L18.7627 113.509L18.7607 113.595L18.7422 114.385L21.2305 114.664L23.7148 114.453L23.7617 114.441H23.8203L26.4688 114.418H26.4922L29.0469 114.43L30.1963 114.378H30.2031L30.3721 114.356L30.4785 114.366L31.6953 114.312L31.7773 114.301L31.8594 114.312L34.5078 114.488L34.4961 114.5L35.96 114.506L38.2744 114.437L38.3564 114.434L38.4385 114.44L40.3809 114.594L41.2188 114.565L42.0234 113.16L43.3359 110.875L44.6367 108.59L44.6484 108.566L44.6602 108.555L46.0078 106.293L46.0664 106.199L46.125 106.129L47.3359 104.59L46.6328 104.723L46.4453 104.758L46.2578 104.746L43.6211 104.57V104.559L41.0664 104.547H41.043L38.4062 104.488H38.3945L36.1016 104.415L35.793 104.413V104.418L35.208 104.415L32.9844 104.44L30.707 104.734L30.4727 104.758L30.2383 104.711L29.8916 104.643L27.4785 104.377L26.8652 104.38ZM73.3594 105.062L73.4062 105.133L73.4414 105.215L74.6133 107.488L75.9609 109.762L75.9727 109.773L75.9844 109.797L77.2031 112.012L78.6562 114.215L78.8721 114.547L80.4434 114.425L80.5986 114.413L80.7539 114.434L81.7197 114.559H81.8867V114.547L84.5234 114.488L87.1602 114.418H87.1953L87.5186 114.416L88.2275 114.296L88.3613 114.273L88.4961 114.275L91.1357 114.303L91.2266 114.304L91.3174 114.315L93.2539 114.572L94.8359 114.266L95.082 114.219L95.3164 114.254L95.957 114.341L96.1982 114.309L96.3594 114.286L96.5225 114.3L99.0205 114.504L101.154 114.286L101.753 113.885L101.74 112.172L101.316 109.648L101.29 109.494L101.297 109.337L101.407 106.697L101.41 106.628L101.42 106.56L101.632 104.989L101.04 104.698L98.748 104.401L96.2412 104.411L94.6387 104.456L94.6328 104.465L94.5127 104.459L93.6016 104.485L93.5928 104.486L90.9531 104.544H90.9365L88.3242 104.572L85.7393 104.744L85.5498 104.757L85.3623 104.722L84.5576 104.569L83.3828 104.617H83.2656L80.7158 104.526L80.5332 104.548L80.4092 104.562L80.2832 104.557L77.7246 104.426L75.1699 104.58L75.04 104.588L74.9111 104.573L72.873 104.342L73.3594 105.062ZM57.0859 104.57L56.957 104.582H56.8281L55.832 104.518L55.2539 104.559H55.2422L55.2305 104.57L52.582 104.688L52.4883 104.699L52.4062 104.688L50.6719 104.559L50.3906 105.449L50.2969 105.707L50.1328 105.918L48.5391 107.898L47.2383 110.055L45.9375 112.363V112.375L44.8477 114.238H44.8945L45.082 114.273L45.1846 114.292L45.4268 114.297L46.1465 114.252L46.3027 114.242L46.457 114.265L46.8506 114.321L47.6211 114.336L47.6094 114.348H50.2695L52.8711 114.406L55.4844 114.348H55.6133L55.7305 114.359L56.8213 114.519L59.3047 114.295L59.3721 114.289L59.4385 114.288L62.0791 114.286H62.1006L62.123 114.287L62.8242 114.307L63.1992 114.285L63.3516 114.273L63.3955 114.28L63.4414 114.277L63.6055 114.289L64.0557 114.342L64.7627 114.362L64.8125 114.363L64.8633 114.368L66.71 114.544L68.6328 114.43L68.7148 114.418L68.7969 114.43L69.7129 114.476L69.9141 114.465L69.9873 114.461L70.0615 114.464L71.6035 114.525L73.8242 114.266L74.0586 114.23L74.2812 114.277L75.2139 114.451L74.6953 113.664L74.6602 113.617L74.6367 113.559L73.3594 111.25V111.238L72.0352 109.023L72.0117 108.977L71.9883 108.941L70.8633 106.738L69.6562 104.945L68.7686 104.638L68.6729 104.63L67.249 104.715L67.1006 104.724L66.9531 104.703L65.9873 104.567L65.043 104.699L64.9023 104.723L64.75 104.711L63.4893 104.638L63.1992 104.664L63.0586 104.676L62.9062 104.664L62.4814 104.616L59.9102 104.605H59.8164L57.9023 104.478L57.0859 104.57ZM92.9883 83.168L90.5508 83.7891L90.4219 83.8242L90.293 83.8359L87.668 84.0352L87.5039 84.0469L87.3516 84.0352L84.8555 83.6953L82.4766 84.0586L82.3359 84.082H82.1953L79.7461 83.9648L77.2617 84.3984L77.0625 84.4336L76.8516 84.4102L74.3203 84.1406L71.8008 84.1641L69.3633 84.6328L69.2461 84.6562L69.1172 84.668L66.4922 84.7383H66.3867L66.2695 84.7266L63.7852 84.4102L61.2891 84.6211L61.1836 84.6328L61.0781 84.6211L58.4297 84.4688L55.9102 84.5625H55.8398L55.7812 84.5508L53.1914 84.4219L50.625 84.5508H50.5078L50.3906 84.5391L47.7656 84.2461V84.2344L45.1992 84.1172V84.1055L42.5977 84.0469V84.0352L40.0898 84.1875H40.043L37.4062 84.2578H37.3008L37.1953 84.2461L34.6758 83.9531L32.0625 83.8945H31.9219L31.7812 83.8594L29.3086 83.3086L26.8008 83.2617V83.25L26.3848 83.2461L26.6289 84.4727L26.6758 84.7188L26.6406 84.9648L26.3008 87.4375L26.5 89.9219L26.5117 90.0508L26.5 90.1914L26.2539 92.5938L26.7344 95.0312L26.7578 95.1836V95.3359L26.7344 97.9727V98.0898L26.7227 98.207L26.3125 100.598L26.4463 101.382L26.7285 101.381L27.6836 101.254L27.918 101.219L28.1641 101.266L30.1699 101.656L30.2158 101.662L32.7119 101.447L32.7676 101.442H32.7832L32.9688 101.418L33.0625 101.406H33.168L35.1895 101.415L35.4629 101.412H35.4893L36.2598 101.417L36.1289 99.9961L35.6016 97.4531H35.6133L35.0156 94.9102L34.9922 94.8164L34.5586 92.2148L34.5352 92.1094V92.0156L34.5 91.0547L36 90.9961L37.5 90.9492L37.5234 91.8398L37.957 94.3125L37.9453 94.3242L38.5312 96.7969L38.543 96.8203V96.832L39.0938 99.4102L39.1172 99.5039V99.5977L39.2686 101.373L40.6904 101.308L40.7764 101.304L40.8623 101.31L43.4492 101.486L46.0547 101.511L46.1016 101.513L47.2451 101.559L48.5781 101.304L48.8086 100.598L50.0713 101.371L50.3477 101.403V101.348L50.4062 98.7109V98.5938L50.4297 98.4766L50.8984 95.8516L50.9453 95.5938L51.0742 95.3711L52.4102 93.0391L52.5273 92.8281L52.7031 92.6758L54.707 90.8711L54.9531 90.6602L55.2695 90.5547L57.8242 89.7812L58.0234 89.7109H58.2344L60.8477 89.6641H61.0352L61.2227 89.7109L63.7539 90.3086L64.0234 90.3789L64.2578 90.5312L66.4258 92.0078L66.6016 92.125L66.7305 92.2773L68.4531 94.3164L68.6758 94.5742L68.7578 94.9023L69.4375 97.4922L69.4844 97.6562L69.4961 97.8203L69.5898 100.469V100.562L69.5781 100.668L69.5068 101.392L70.1172 101.406L71.4893 101.375L72.2832 101.292L72.4463 101.274L72.6084 101.293L73.0918 101.348H75.3789V101.336L78.0156 101.289H78.168L80.1768 101.476L80.3379 99.5977V99.5039L80.3613 99.4102L80.9121 96.832V96.8203L80.9238 96.7969L81.5098 94.3242L81.498 94.3125L81.9316 91.8398L81.9551 90.9492L83.4551 90.9961L84.9551 91.0547L84.9199 92.0156V92.1094L84.8965 92.2148L84.4629 94.8164L84.4395 94.9102L83.8418 97.4531H83.8535L83.3262 99.9961L83.208 101.263L83.2773 101.276L84.7686 101.558L85.9023 101.512H85.9492L88.4922 101.5V101.488L91.1406 101.312L91.2227 101.301L91.3047 101.312L93.1328 101.395L93.4141 101.008L93.4375 98.8281V98.7695L93.4492 98.7109L93.6484 96.2383L93.3906 93.7188L93.3789 93.6367V93.5547L93.3906 90.918V90.8242L93.5664 88.1758L93.6836 85.6797L93.5078 83.2188L93.4961 83.1602V83.1387L92.9883 83.168ZM58.4805 92.7109L56.4648 93.332L54.8945 94.7266L53.8047 96.6367L53.3945 98.8867L53.3477 101.23L53.3682 101.333L53.8281 101.293L53.9062 101.286L53.9844 101.287L56.625 101.331L56.624 101.332L58.9189 101.345L59.3945 101.289L59.5586 101.277L59.7109 101.289L60.4854 101.373L60.4883 101.374L60.5156 101.371L60.5488 101.375L61.8809 101.405L64.4883 101.351L64.6084 101.348L64.7266 101.364L64.748 101.367L65.0312 101.336L65.1836 101.324L65.3242 101.336L66.4141 101.435L66.4844 101.434L66.5781 100.434L66.4961 98.1133L65.9336 96.0156L64.5508 94.375L62.7812 93.168L60.6836 92.6758L58.4805 92.7109ZM68.2734 70.5117L68.2266 70.5234H68.1914L65.5547 70.6172H65.4375L62.8008 70.5117V70.5L60.1992 70.4883H60.1641L60.1172 70.4766L57.5391 70.3008L55.0078 70.4297H54.9258L52.2891 70.418V70.4062L49.7695 70.4297L49.7812 70.4414L47.1445 70.6641L47.0039 70.6758L46.8516 70.6641L44.3203 70.3828L41.7422 70.3945V70.3828L39.1992 70.5586H39.1875L39.1758 70.5703L36.5273 70.6875L36.4336 70.6992L36.3398 70.6875L34.6641 70.5586L33.1289 72.0469L32.9414 72.2227L32.707 72.3281L30.3047 73.418L28.0898 74.6367L28.0664 74.6602L28.0312 74.6719L25.6523 75.8555L25.4531 75.9492L25.2422 75.9961L22.7461 76.4062L20.4023 77.2969L20.3203 77.332L20.2383 77.3438L17.7539 77.9648L15.9375 78.6445L16.7344 78.9609L19.1602 79.3711H19.1719L21.7852 79.6992L21.9023 79.7227L24.3867 80.2266L26.8594 80.2617H26.8711L29.5195 80.3203H29.6719L29.8125 80.3555L32.2734 80.8945L34.7812 80.9648H34.8516L34.9102 80.9766L37.4062 81.2461L39.9141 81.1875L42.5508 81.0469H42.6797L45.3164 81.1172H45.3516L48.0117 81.2578H48.1055L50.5781 81.5391L53.1211 81.4336L53.1914 81.4219L53.2617 81.4336L55.8633 81.5508L58.418 81.4688H58.5586L61.125 81.6211L63.668 81.4102L63.8203 81.3984L63.9727 81.4219L66.5156 81.7266L68.9062 81.668L71.4375 81.1992L71.5664 81.1758H71.6953L74.3438 81.1406H74.4375L74.5195 81.1523L76.9922 81.3984L79.3711 80.9883L79.5234 80.9648L79.6875 80.9766L82.1484 81.0703L84.6562 80.6953L84.8789 80.6602L85.0898 80.6953L87.5742 81.0352L89.8945 80.8477L92.4141 80.2266L92.5547 80.1914L92.6953 80.1797L95.3438 80.0273H95.4492L97.8164 80.0508L100.125 79.2539L100.312 79.1836L100.523 79.1719L102.984 79.0078L103.875 78.7617L102.586 78.3984L100.02 77.7891L99.8203 77.7422L99.6445 77.6484L97.4766 76.4531L95.0859 75.9141L94.9453 75.8789L94.8164 75.8203L92.4961 74.7891L90 73.8867L89.8242 73.8164L89.6719 73.7109L87.4805 72.2344L87.4453 72.1992L85.6641 70.8867L83.8242 70.7109H83.8008L83.7656 70.6992L81.2344 70.3477L78.7266 70.4062H78.668L76.0195 70.3477V70.3359H73.3945L70.7695 70.2891L68.2734 70.5117ZM85.168 56.5703L85.1328 56.582H85.1094L82.4727 56.8281L82.3672 56.8398L82.25 56.8281L79.8125 56.6875L78.6982 56.9795L78.7441 59.3379V59.4199L78.7324 59.5137L78.4746 62.1387V62.1855L78.4629 62.2324L78.041 64.834H78.0293L77.6777 67.2715L77.6758 67.3828L78.6914 67.4062L81.3047 67.3477H81.4219L81.5391 67.3594L84.1172 67.7344L84.1289 67.7227L84.8535 67.7939L84.9062 67.1074V67.0137L84.9297 66.9199L85.457 64.3301V64.3066L86.0312 61.8223L86.0195 61.8105L86.4414 59.2441L86.5469 56.7246L86.5586 56.5137L86.5996 56.3721L85.168 56.5703ZM34.543 56.7246L34.6484 59.2441L35.0703 61.8105L35.0586 61.8223L35.6328 64.3066V64.3301L36.1602 66.9199L36.1836 67.0137V67.1074L36.2266 67.6777L36.4922 67.6992L39 67.582V67.5703L41.6367 67.3945H41.7305L43.415 67.3867L43.4141 67.2715L43.0625 64.834H43.0508L42.6289 62.2324L42.6172 62.1855V62.1387L42.3594 59.5137L42.3477 59.4199V59.3379L42.3926 57.0078L40.1328 57.0508H40.0156L39.8984 57.0273L37.3438 56.6758L34.7539 56.5469H34.6836L34.6133 56.5352L34.5312 56.5225L34.543 56.7246ZM48.1953 57.5195L48.0781 57.543L47.9609 57.5312L45.3809 57.4736L45.3477 59.3379L45.5938 61.8105L46.0156 64.3535V64.3887L46.3906 67.002L46.4023 67.0957V67.1895L46.4072 67.5918L47.0508 67.6641L49.5352 67.4531L49.582 67.4414H49.6406L52.2773 67.418H52.3125L53.6084 67.4238L53.6191 67.1895L53.4199 64.7285H53.4082L53.1504 62.1035L53.1387 62.0566V62.0098L53.0449 59.373L53.0332 59.2793L53.0449 59.1973L53.1953 57.248L50.6562 57.168L48.1953 57.5195ZM61.4141 57.4961L61.2734 57.5195L61.1328 57.5078L58.6133 57.2969L56.168 57.6191L56.0332 59.373L56.127 61.8105L56.3965 64.4355V64.459L56.6191 67.0957V67.2832L56.6162 67.3516L57.5039 67.3125L57.5977 67.3008L57.6797 67.3125L60.3164 67.4883L60.3047 67.5L62.8711 67.5117H62.918L64.4824 67.5752L64.4707 67.2832V67.0957L64.6934 64.459V64.4355L64.9629 61.8105L65.0566 59.373L64.9072 57.4385L63.793 57.2383L61.4141 57.4961ZM69.4648 57.6016L69.3477 57.625L69.2188 57.6367L67.9258 57.6709L68.0449 59.1973L68.0566 59.2793L68.0449 59.373L67.9512 62.0098V62.0566L67.9395 62.1035L67.6816 64.7285H67.6699L67.4707 67.1895L67.4854 67.5518L68.0039 67.5352L70.6406 67.2891H70.8047L73.4414 67.3359L73.4297 67.3477H74.6875L74.6895 67.1895V67.0957L74.7012 67.002L75.0762 64.3887V64.3535L75.498 61.8105L75.7441 59.3379L75.7061 57.2393L74.293 57.1211V57.1094H71.9609L69.4648 57.6016ZM67.5078 38.4297H67.4258L64.7891 38.418V38.4062L62.2695 38.4297L62.2812 38.4414L59.6445 38.6641L59.5039 38.6758L59.3516 38.6641L56.8203 38.3828L54.2422 38.3945V38.3828L51.6992 38.5586H51.6875L51.6758 38.5703L49.0273 38.6875L48.9336 38.6992L48.8398 38.6875L47.0117 38.5469L46.7773 38.9336L46.6602 39.1094L46.5078 39.25L44.5742 40.9844L44.4219 41.125L44.2344 41.207L41.9609 42.2969L39.7695 43.7031L39.6055 43.8086L39.418 43.8672L36.9219 44.6289L34.5898 45.6367H34.5664L34.5547 45.6484L32.0938 46.6211L32 46.6562L31.918 46.6797L29.3984 47.3125L27.125 48.2969L27.0781 48.3203L24.6055 49.2695L24.4531 49.3281L24.2891 49.3516L21.7461 49.7266L19.9297 50.3242L19.9883 50.3594L22.332 51.0273H22.3203L24.8047 51.6953L27.3594 52.3047L27.3828 52.3164H27.3945L29.8203 52.9492L32.3281 53.1602H32.3867L32.4336 53.1719L34.9062 53.5469L37.5664 53.6992H37.625L37.6836 53.7109L40.1914 54.0391L42.7227 54.0039H42.875L43.0156 54.0273L45.5117 54.4727L47.9609 54.5195L50.4336 54.1797L50.5625 54.1562L50.6797 54.168L53.3281 54.25H53.4102L53.5039 54.2617L55.9531 54.6133L58.3555 54.3086L58.5195 54.2852L61.2617 54.4961L63.6992 54.2266L63.9102 54.2031L64.1211 54.25L66.6289 54.6953L68.9727 54.6367L71.5039 54.1445L71.6445 54.1094H71.7969L74.4219 54.1211H74.4922L74.5508 54.1328L76.9648 54.332L79.3086 53.7344L79.5312 53.6758L79.7656 53.6875L82.2734 53.8281L84.8281 53.5938L87.3594 53.2422L89.9492 52.8438L92.5039 52.3867L94.9297 51.7305L95.0703 51.6836L95.2227 51.6719L97.6133 51.4844L99.7109 50.4297L99.8867 50.3242L98.3633 49.6797L95.8906 49.2109H95.8555L95.8203 49.1992L93.2422 48.5547L93.0898 48.5195L92.9492 48.4492L90.6641 47.3359L88.2383 46.5742L88.2031 46.5508L88.1562 46.5391L85.6953 45.5898H85.6836L83.2344 44.6406L83.1992 44.6289L83.1758 44.6172L80.8438 43.6094L78.3477 42.7188L78.2656 42.6836L78.1953 42.6484L75.8164 41.4766L75.6641 41.4062L75.5352 41.2891L73.4844 39.6133L73.4727 39.6016H73.4609L72.1016 38.4414L70.0391 38.3008L67.5078 38.4297Z" fill="black"/>
</svg>
