<svg width="120" height="120" viewBox="0 0 120 120" fill="none" xmlns="http://www.w3.org/2000/svg">
<path d="M67.986 99.209L69.4742 99.0213L69.4621 98.9252L69.4377 98.8314L67.986 99.209ZM67.3456 96.7469L65.8502 96.8631L65.8605 96.9957L65.8939 97.1245L67.3456 96.7469ZM67.14 94.102L68.6355 93.9858L68.6266 93.8708L68.6002 93.7585L67.14 94.102ZM66.5331 91.5224L65.0413 91.6781L65.0512 91.773L65.073 91.8659L66.5331 91.5224ZM66.2577 88.8838L67.7495 88.728L67.7495 88.7278L66.2577 88.8838ZM65.994 86.3624L67.4859 86.2065L67.473 86.0829L67.4399 85.9631L65.994 86.3624ZM65.2939 83.8277L63.8206 84.1098L63.832 84.169L63.848 84.2271L65.2939 83.8277ZM64.7957 81.2262L63.3034 81.3778L63.3101 81.4435L63.3225 81.5083L64.7957 81.2262ZM64.5298 78.6081L63.0308 78.6638L63.0326 78.7118L63.0374 78.7596L64.5298 78.6081ZM64.431 75.9518L65.9299 75.896L65.9221 75.6864L65.8571 75.487L64.431 75.9518ZM63.6023 73.4086L62.1122 73.5811L62.1295 73.7304L62.1761 73.8733L63.6023 73.4086ZM63.2988 70.786L64.7888 70.6136L64.7756 70.499L64.745 70.3878L63.2988 70.786ZM62.5985 68.2428L61.11 68.4282L61.1234 68.5361L61.1523 68.641L62.5985 68.2428ZM62.2705 65.6096L63.759 65.4242L63.7509 65.3593L63.7372 65.2953L62.2705 65.6096ZM61.7179 63.0307L60.2274 63.1997L60.2357 63.273L60.2512 63.345L61.7179 63.0307ZM61.4197 60.4017L59.9221 60.4859L59.9244 60.5284L59.9292 60.5708L61.4197 60.4017ZM61.271 57.7548L59.7967 57.478L59.7631 57.657L59.7733 57.8389L61.271 57.7548ZM61.7656 55.1202L63.2399 55.3969L63.2902 55.1287L63.2429 54.8599L61.7656 55.1202ZM61.3007 52.4808L59.8057 52.3582L59.7899 52.5507L59.8234 52.741L61.3007 52.4808ZM61.5173 49.8395L63.0123 49.9622L63.0221 49.8422L63.0127 49.7221L61.5173 49.8395ZM61.3104 47.2048L59.8187 47.0474L59.8042 47.1847L59.815 47.3222L61.3104 47.2048ZM61.5903 44.5522L63.082 44.7095L63.1089 44.4543L63.0495 44.2046L61.5903 44.5522ZM60.9683 41.9404L59.4684 41.9582L59.4704 42.1253L59.5091 42.288L60.9683 41.9404ZM60.9371 39.2998L62.437 39.2821L62.4365 39.2403L62.4337 39.1987L60.9371 39.2998ZM60.7592 36.6688L62.2558 36.5676L62.2522 36.5154L62.2451 36.4636L60.7592 36.6688ZM60.3985 34.0559L58.8989 34.091L58.9009 34.1764L58.9126 34.261L60.3985 34.0559ZM60.3363 31.3953L61.8359 31.3603L61.8318 31.1825L61.7861 31.0106L60.3363 31.3953ZM59.6559 28.8313L58.1835 29.1179L58.1931 29.1674L58.2061 29.216L59.6559 28.8313ZM59.1515 26.2404L57.6566 26.365L57.6635 26.4466L57.6791 26.527L59.1515 26.2404ZM58.9306 23.5919L60.4254 23.4673L60.4081 23.2594L60.3347 23.0642L58.9306 23.5919ZM57.9924 21.0959L56.5787 21.5973L56.5834 21.6105L56.5884 21.6237L57.9924 21.0959ZM57.1214 18.64L58.5351 18.1386L58.4101 17.7862L58.1343 17.5337L57.1214 18.64ZM55.1727 16.8558L56.1856 15.7495L55.7547 15.3549L55.1705 15.3558L55.1727 16.8558ZM52.5547 16.8596L52.5525 15.3596L52.1624 15.3602L51.822 15.5508L52.5547 16.8596ZM50.3075 18.1176L49.5748 16.8088L49.4152 16.8981L49.2818 17.0231L50.3075 18.1176ZM48.3543 19.9479L47.3286 18.8534L47.0081 19.1537L46.9002 19.5795L48.3543 19.9479ZM47.6944 22.5527L49.0551 23.1842L49.1141 23.057L49.1485 22.9211L47.6944 22.5527ZM46.5699 24.9759L45.2093 24.3445L45.122 24.5325L45.089 24.7372L46.5699 24.9759ZM46.148 27.5924L44.6672 27.3537L44.65 27.4603L44.6482 27.5682L46.148 27.5924ZM46.1049 30.2637L47.5801 30.5348L47.6027 30.4124L47.6047 30.2879L46.1049 30.2637ZM45.6271 32.863L47.0435 33.3568L47.0815 33.2478L47.1024 33.1342L45.6271 32.863ZM44.7486 35.3829L43.3322 34.8891L43.2856 35.0228L43.2649 35.1627L44.7486 35.3829ZM44.3607 37.9975L45.8269 38.3138L45.8373 38.266L45.8444 38.2177L44.3607 37.9975ZM43.8039 40.5783L45.2533 40.9645L45.2626 40.9298L45.2701 40.8947L43.8039 40.5783ZM43.1241 43.13L44.5696 43.5307L44.5716 43.5234L44.5736 43.5161L43.1241 43.13ZM42.4192 45.6733L43.8519 46.1174L43.8586 46.0958L43.8647 46.074L42.4192 45.6733ZM41.6379 48.1938L40.2052 47.7497L40.1714 47.8586L40.1545 47.9713L41.6379 48.1938ZM41.2434 50.8249L42.6804 51.255L42.711 51.1528L42.7268 51.0473L41.2434 50.8249ZM40.4871 53.3518L39.0501 52.9217L39.0115 53.0505L38.9965 53.1841L40.4871 53.3518ZM40.1916 55.9783L41.6366 56.3805L41.6688 56.265L41.6822 56.146L40.1916 55.9783ZM39.4799 58.5355L38.0348 58.1333L38.0013 58.2535L37.9882 58.3776L39.4799 58.5355ZM39.2018 61.1623L40.6908 61.3441L40.6922 61.3321L40.6935 61.3202L39.2018 61.1623ZM38.882 63.7829L37.393 63.6011L37.3889 63.6349L37.3863 63.6688L38.882 63.7829ZM38.681 66.4192L40.1627 66.6532L40.1721 66.5935L40.1767 66.5332L38.681 66.4192ZM38.269 69.0281L36.7874 68.7941L36.7859 68.8039L36.7845 68.8136L38.269 69.0281ZM37.8918 71.64L36.4072 71.4255L36.4044 71.4445L36.4022 71.4635L37.8918 71.64ZM37.5812 74.2615L36.0916 74.0851L36.087 74.1244L36.0844 74.1639L37.5812 74.2615ZM37.4094 76.8975L38.9056 77.0044L38.9062 76.9951L37.4094 76.8975ZM37.2212 79.5337L38.7094 79.7212L38.7145 79.681L38.7174 79.6405L37.2212 79.5337ZM36.8906 82.1565L38.3708 82.3993L38.3753 82.3718L38.3788 82.3441L36.8906 82.1565ZM36.4625 84.7664L37.8975 85.2032L37.9265 85.1077L37.9427 85.0093L36.4625 84.7664ZM35.6892 87.307L34.2542 86.8703L34.2343 86.9357L34.2204 87.0026L35.6892 87.307ZM35.1549 89.8843L33.6861 89.5798L33.6837 89.5922L35.1549 89.8843ZM34.6378 92.4885L36.0266 93.0554L36.081 92.922L36.1091 92.7807L34.6378 92.4885ZM33.6347 94.946L34.898 95.7548L34.9718 95.6396L35.0235 95.5129L33.6347 94.946ZM32.2046 97.1797L33.3889 98.1002L33.431 98.0462L33.4679 97.9885L32.2046 97.1797ZM30.5913 99.2554L31.6367 100.331L31.7116 100.258L31.7756 100.176L30.5913 99.2554ZM28.7153 101.079L29.567 102.313L29.6705 102.242L29.7607 102.154L28.7153 101.079ZM26.5694 102.559L25.7177 101.324L25.6984 101.337L25.6796 101.351L26.5694 102.559ZM24.4269 104.138L23.5371 102.93L23.4607 102.986L23.392 103.052L24.4269 104.138ZM22.5013 105.973L21.4664 104.887L21.3851 104.964L21.3163 105.053L22.5013 105.973ZM20.8617 108.086L19.6767 107.166L19.6172 107.243L19.5681 107.326L20.8617 108.086ZM19.5318 110.351L20.6056 111.398L20.733 111.268L20.8254 111.111L19.5318 110.351ZM17.6867 112.243L16.6129 111.196L16.5348 111.276L16.4694 111.367L17.6867 112.243ZM16.1968 114.312L14.9795 113.436L14.9362 113.496L14.899 113.56L16.1968 114.312ZM67.9985 99.3082L69.4867 99.1205L69.4742 99.0213L67.986 99.209L66.4978 99.3967L66.5103 99.4959L67.9985 99.3082ZM67.986 99.209L69.4377 98.8314L68.7974 96.3693L67.3456 96.7469L65.8939 97.1245L66.5343 99.5866L67.986 99.209ZM67.3456 96.7469L68.8411 96.6306L68.6355 93.9858L67.14 94.102L65.6446 94.2183L65.8502 96.8631L67.3456 96.7469ZM67.14 94.102L68.6002 93.7585L67.9933 91.1789L66.5331 91.5224L65.073 91.8659L65.6799 94.4456L67.14 94.102ZM66.5331 91.5224L68.025 91.3666L67.7495 88.728L66.2577 88.8838L64.7658 89.0396L65.0413 91.6781L66.5331 91.5224ZM66.2577 88.8838L67.7495 88.7278L67.4859 86.2065L65.994 86.3624L64.5022 86.5184L64.7658 89.0398L66.2577 88.8838ZM65.994 86.3624L67.4399 85.9631L66.7397 83.4283L65.2939 83.8277L63.848 84.2271L64.5482 86.7618L65.994 86.3624ZM65.2939 83.8277L66.7671 83.5456L66.269 80.9441L64.7957 81.2262L63.3225 81.5083L63.8206 84.1098L65.2939 83.8277ZM64.7957 81.2262L66.288 81.0746L66.0221 78.4565L64.5298 78.6081L63.0374 78.7596L63.3034 81.3778L64.7957 81.2262ZM64.5298 78.6081L66.0287 78.5523L65.9299 75.896L64.431 75.9518L62.932 76.0075L63.0308 78.6638L64.5298 78.6081ZM64.431 75.9518L65.8571 75.487L65.0285 72.9439L63.6023 73.4086L62.1761 73.8733L63.0048 76.4165L64.431 75.9518ZM63.6023 73.4086L65.0923 73.2362L64.7888 70.6136L63.2988 70.786L61.8087 70.9585L62.1122 73.5811L63.6023 73.4086ZM63.2988 70.786L64.745 70.3878L64.0446 67.8446L62.5985 68.2428L61.1523 68.641L61.8526 71.1843L63.2988 70.786ZM62.5985 68.2428L64.087 68.0574L63.759 65.4242L62.2705 65.6096L60.782 65.795L61.11 68.4282L62.5985 68.2428ZM62.2705 65.6096L63.7372 65.2953L63.1846 62.7164L61.7179 63.0307L60.2512 63.345L60.8038 65.9239L62.2705 65.6096ZM61.7179 63.0307L63.2083 62.8617L62.9101 60.2327L61.4197 60.4017L59.9292 60.5708L60.2274 63.1997L61.7179 63.0307ZM61.4197 60.4017L62.9173 60.3176L62.7686 57.6707L61.271 57.7548L59.7733 57.8389L59.9221 60.4859L61.4197 60.4017ZM61.271 57.7548L62.7452 58.0316L63.2399 55.3969L61.7656 55.1202L60.2914 54.8434L59.7967 57.478L61.271 57.7548ZM61.7656 55.1202L63.2429 54.8599L62.7779 52.2205L61.3007 52.4808L59.8234 52.741L60.2884 55.3804L61.7656 55.1202ZM61.3007 52.4808L62.7956 52.6034L63.0123 49.9622L61.5173 49.8395L60.0223 49.7169L59.8057 52.3582L61.3007 52.4808ZM61.5173 49.8395L63.0127 49.7221L62.8058 47.0874L61.3104 47.2048L59.815 47.3222L60.0219 49.9569L61.5173 49.8395ZM61.3104 47.2048L62.8021 47.3622L63.082 44.7095L61.5903 44.5522L60.0986 44.3948L59.8187 47.0474L61.3104 47.2048ZM61.5903 44.5522L63.0495 44.2046L62.4275 41.5929L60.9683 41.9404L59.5091 42.288L60.1311 44.8997L61.5903 44.5522ZM60.9683 41.9404L62.4682 41.9227L62.437 39.2821L60.9371 39.2998L59.4372 39.3176L59.4684 41.9582L60.9683 41.9404ZM60.9371 39.2998L62.4337 39.1987L62.2558 36.5676L60.7592 36.6688L59.2626 36.77L59.4405 39.401L60.9371 39.2998ZM60.7592 36.6688L62.2451 36.4636L61.8844 33.8508L60.3985 34.0559L58.9126 34.261L59.2733 36.8739L60.7592 36.6688ZM60.3985 34.0559L61.8981 34.0209L61.8359 31.3603L60.3363 31.3953L58.8367 31.4304L58.8989 34.091L60.3985 34.0559ZM60.3363 31.3953L61.7861 31.0106L61.1057 28.4465L59.6559 28.8313L58.2061 29.216L58.8865 31.7801L60.3363 31.3953ZM59.6559 28.8313L61.1282 28.5446L60.6238 25.9537L59.1515 26.2404L57.6791 26.527L58.1835 29.1179L59.6559 28.8313ZM59.1515 26.2404L60.6463 26.1157L60.4254 23.4673L58.9306 23.5919L57.4358 23.7166L57.6566 26.365L59.1515 26.2404ZM58.9306 23.5919L60.3347 23.0642L59.3965 20.5682L57.9924 21.0959L56.5884 21.6237L57.5265 24.1197L58.9306 23.5919ZM57.9924 21.0959L59.4062 20.5945L58.5351 18.1386L57.1214 18.64L55.7077 19.1414L56.5787 21.5973L57.9924 21.0959ZM57.1214 18.64L58.1343 17.5337L56.1856 15.7495L55.1727 16.8558L54.1597 17.9621L56.1084 19.7463L57.1214 18.64ZM55.1727 16.8558L55.1705 15.3558L52.5525 15.3596L52.5547 16.8596L52.5569 18.3596L55.1749 18.3558L55.1727 16.8558ZM52.5547 16.8596L51.822 15.5508L49.5748 16.8088L50.3075 18.1176L51.0402 19.4265L53.2874 18.1685L52.5547 16.8596ZM50.3075 18.1176L49.2818 17.0231L47.3286 18.8534L48.3543 19.9479L49.38 21.0424L51.3332 19.2122L50.3075 18.1176ZM48.3543 19.9479L46.9002 19.5795L46.2404 22.1844L47.6944 22.5527L49.1485 22.9211L49.8084 20.3162L48.3543 19.9479ZM47.6944 22.5527L46.3338 21.9213L45.2093 24.3445L46.5699 24.9759L47.9305 25.6074L49.0551 23.1842L47.6944 22.5527ZM46.5699 24.9759L45.089 24.7372L44.6672 27.3537L46.148 27.5924L47.6289 27.8312L48.0508 25.2147L46.5699 24.9759ZM46.148 27.5924L44.6482 27.5682L44.6051 30.2394L46.1049 30.2637L47.6047 30.2879L47.6478 27.6167L46.148 27.5924ZM46.1049 30.2637L44.6296 29.9925L44.1518 32.5919L45.6271 32.863L47.1024 33.1342L47.5801 30.5348L46.1049 30.2637ZM45.6271 32.863L44.2107 32.3692L43.3322 34.8891L44.7486 35.3829L46.165 35.8767L47.0435 33.3568L45.6271 32.863ZM44.7486 35.3829L43.2649 35.1627L42.8769 37.7774L44.3607 37.9975L45.8444 38.2177L46.2324 35.6031L44.7486 35.3829ZM44.3607 37.9975L42.8944 37.6812L42.3376 40.262L43.8039 40.5783L45.2701 40.8947L45.8269 38.3138L44.3607 37.9975ZM43.8039 40.5783L42.3544 40.1922L41.6747 42.7439L43.1241 43.13L44.5736 43.5161L45.2533 40.9645L43.8039 40.5783ZM43.1241 43.13L41.6786 42.7294L40.9737 45.2727L42.4192 45.6733L43.8647 46.074L44.5696 43.5307L43.1241 43.13ZM42.4192 45.6733L40.9864 45.2292L40.2052 47.7497L41.6379 48.1938L43.0707 48.6379L43.8519 46.1174L42.4192 45.6733ZM41.6379 48.1938L40.1545 47.9713L39.76 50.6025L41.2434 50.8249L42.7268 51.0473L43.1214 48.4162L41.6379 48.1938ZM41.2434 50.8249L39.8064 50.3948L39.0501 52.9217L40.4871 53.3518L41.9241 53.782L42.6804 51.255L41.2434 50.8249ZM40.4871 53.3518L38.9965 53.1841L38.701 55.8106L40.1916 55.9783L41.6822 56.146L41.9777 53.5195L40.4871 53.3518ZM40.1916 55.9783L38.7465 55.5761L38.0348 58.1333L39.4799 58.5355L40.9249 58.9376L41.6366 56.3805L40.1916 55.9783ZM39.4799 58.5355L37.9882 58.3776L37.7101 61.0044L39.2018 61.1623L40.6935 61.3202L40.9715 58.6933L39.4799 58.5355ZM39.2018 61.1623L37.7129 60.9806L37.393 63.6011L38.882 63.7829L40.3709 63.9646L40.6908 61.3441L39.2018 61.1623ZM38.882 63.7829L37.3863 63.6688L37.1854 66.3052L38.681 66.4192L40.1767 66.5332L40.3776 63.8969L38.882 63.7829ZM38.681 66.4192L37.1994 66.1852L36.7874 68.7941L38.269 69.0281L39.7507 69.2621L40.1627 66.6532L38.681 66.4192ZM38.269 69.0281L36.7845 68.8136L36.4072 71.4255L37.8918 71.64L39.3764 71.8544L39.7536 69.2425L38.269 69.0281ZM37.8918 71.64L36.4022 71.4635L36.0916 74.0851L37.5812 74.2615L39.0708 74.438L39.3814 71.8164L37.8918 71.64ZM37.5812 74.2615L36.0844 74.1639L35.9126 76.8L37.4094 76.8975L38.9062 76.9951L39.0781 74.3591L37.5812 74.2615ZM37.4094 76.8975L35.9132 76.7907L35.725 79.4268L37.2212 79.5337L38.7174 79.6405L38.9056 77.0044L37.4094 76.8975ZM37.2212 79.5337L35.733 79.3461L35.4024 81.9689L36.8906 82.1565L38.3788 82.3441L38.7094 79.7212L37.2212 79.5337ZM36.8906 82.1565L35.4104 81.9137L34.9822 84.5236L36.4625 84.7664L37.9427 85.0093L38.3708 82.3993L36.8906 82.1565ZM36.4625 84.7664L35.0274 84.3297L34.2542 86.8703L35.6892 87.307L37.1242 87.7438L37.8975 85.2032L36.4625 84.7664ZM35.6892 87.307L34.2204 87.0026L33.6862 89.5798L35.1549 89.8843L36.6237 90.1888L37.158 87.6115L35.6892 87.307ZM35.1549 89.8843L33.6837 89.5922L33.1666 92.1964L34.6378 92.4885L36.1091 92.7807L36.6262 90.1765L35.1549 89.8843ZM34.6378 92.4885L33.2491 91.9216L32.246 94.3791L33.6347 94.946L35.0235 95.5129L36.0266 93.0554L34.6378 92.4885ZM33.6347 94.946L32.3715 94.1372L30.9413 96.3709L32.2046 97.1797L33.4679 97.9885L34.898 95.7548L33.6347 94.946ZM32.2046 97.1797L31.0203 96.2592L29.4069 98.3349L30.5913 99.2554L31.7756 100.176L33.3889 98.1002L32.2046 97.1797ZM30.5913 99.2554L29.5458 98.1798L27.6698 100.003L28.7153 101.079L29.7607 102.154L31.6367 100.331L30.5913 99.2554ZM28.7153 101.079L27.8635 99.844L25.7177 101.324L26.5694 102.559L27.4211 103.794L29.567 102.313L28.7153 101.079ZM26.5694 102.559L25.6796 101.351L23.5371 102.93L24.4269 104.138L25.3167 105.345L27.4592 103.767L26.5694 102.559ZM24.4269 104.138L23.392 103.052L21.4664 104.887L22.5013 105.973L23.5362 107.059L25.4618 105.223L24.4269 104.138ZM22.5013 105.973L21.3163 105.053L19.6767 107.166L20.8617 108.086L22.0467 109.005L23.6864 106.892L22.5013 105.973ZM20.8617 108.086L19.5681 107.326L18.2382 109.592L19.5318 110.351L20.8254 111.111L22.1553 108.845L20.8617 108.086ZM19.5318 110.351L18.4579 109.304L16.6129 111.196L17.6867 112.243L18.7606 113.29L20.6056 111.398L19.5318 110.351ZM17.6867 112.243L16.4694 111.367L14.9795 113.436L16.1968 114.312L17.4141 115.189L18.904 113.12L17.6867 112.243ZM16.1968 114.312L14.899 113.56L14.7007 113.902L15.9985 114.654L17.2963 115.406L17.4946 115.064L16.1968 114.312Z" fill="black"/>
<path d="M105.918 114.384L106.8 113.171L106.35 112.843L105.795 112.889L105.918 114.384ZM103.357 114.594L102.212 115.564L102.71 116.153L103.48 116.089L103.357 114.594ZM101.674 112.606L100.495 113.534L100.511 113.555L100.529 113.575L101.674 112.606ZM100.039 110.53L101.218 109.602L101.129 109.49L101.021 109.396L100.039 110.53ZM98.0742 108.827L99.0565 107.693L99.0026 107.647L98.9446 107.605L98.0742 108.827ZM95.934 107.302L96.8043 106.081L96.7654 106.053L96.7248 106.028L95.934 107.302ZM93.7001 105.916L92.6135 106.95L92.746 107.09L92.9093 107.191L93.7001 105.916ZM91.8738 103.997L90.6721 104.895L90.7255 104.967L90.7872 105.031L91.8738 103.997ZM90.3124 101.907L91.5142 101.009L91.4449 100.917L91.3621 100.835L90.3124 101.907ZM88.4068 100.04L89.4564 98.9688L89.1454 98.6641L88.7195 98.5733L88.4068 100.04ZM85.7997 99.4845L85.4855 100.951L85.4869 100.952L85.7997 99.4845ZM83.2249 98.933L82.7577 100.358L82.8331 100.383L82.9108 100.4L83.2249 98.933ZM80.675 98.0971L79.6216 99.165L79.8727 99.4127L80.2078 99.5225L80.675 98.0971ZM78.7698 96.2177L77.6581 97.2247L77.6864 97.2559L77.7164 97.2856L78.7698 96.2177ZM77.0025 94.2664L75.7653 95.1147L75.8227 95.1983L75.8907 95.2734L77.0025 94.2664ZM75.508 92.0868L76.7451 91.2386L76.6958 91.1666L76.6384 91.1008L75.508 92.0868ZM73.7958 90.1237L72.6264 91.0632L72.6454 91.0868L72.6654 91.1097L73.7958 90.1237ZM72.1235 88.0422L73.2929 87.1028L73.0441 86.7931L72.6747 86.6472L72.1235 88.0422ZM69.6347 87.059L68.8906 88.3615L68.9838 88.4147L69.0835 88.4541L69.6347 87.059ZM67.3483 85.7529L68.0923 84.4504L67.583 84.1595L67.0114 84.2912L67.3483 85.7529ZM66.0902 86.0429L64.8896 86.9421L65.4752 87.724L66.4271 87.5046L66.0902 86.0429ZM105.999 114.442L106.881 113.23L106.8 113.171L105.918 114.384L105.035 115.596L105.116 115.655L105.999 114.442ZM105.918 114.384L105.795 112.889L103.233 113.1L103.357 114.594L103.48 116.089L106.041 115.879L105.918 114.384ZM103.357 114.594L104.502 113.625L102.819 111.637L101.674 112.606L100.529 113.575L102.212 115.564L103.357 114.594ZM101.674 112.606L102.852 111.678L101.218 109.602L100.039 110.53L98.8605 111.458L100.495 113.534L101.674 112.606ZM100.039 110.53L101.021 109.396L99.0565 107.693L98.0742 108.827L97.0919 109.961L99.0568 111.663L100.039 110.53ZM98.0742 108.827L98.9446 107.605L96.8043 106.081L95.934 107.302L95.0637 108.524L97.2039 110.049L98.0742 108.827ZM95.934 107.302L96.7248 106.028L94.4909 104.642L93.7001 105.916L92.9093 107.191L95.1432 108.577L95.934 107.302ZM93.7001 105.916L94.7867 104.882L92.9604 102.963L91.8738 103.997L90.7872 105.031L92.6135 106.95L93.7001 105.916ZM91.8738 103.997L93.0756 103.1L91.5142 101.009L90.3124 101.907L89.1107 102.805L90.6721 104.895L91.8738 103.997ZM90.3124 101.907L91.3621 100.835L89.4564 98.9688L88.4068 100.04L87.3572 101.112L89.2628 102.979L90.3124 101.907ZM88.4068 100.04L88.7195 98.5733L86.1124 98.0175L85.7997 99.4845L85.4869 100.952L88.094 101.507L88.4068 100.04ZM85.7997 99.4845L86.1138 98.0178L83.5391 97.4663L83.2249 98.933L82.9108 100.4L85.4855 100.951L85.7997 99.4845ZM83.2249 98.933L83.6922 97.5077L81.1423 96.6718L80.675 98.0971L80.2078 99.5225L82.7577 100.358L83.2249 98.933ZM80.675 98.0971L81.7284 97.0293L79.8232 95.1498L78.7698 96.2177L77.7164 97.2856L79.6216 99.165L80.675 98.0971ZM78.7698 96.2177L79.8816 95.2107L78.1142 93.2595L77.0025 94.2664L75.8907 95.2734L77.6581 97.2247L78.7698 96.2177ZM77.0025 94.2664L78.2396 93.4182L76.7451 91.2386L75.508 92.0868L74.2709 92.935L75.7653 95.1147L77.0025 94.2664ZM75.508 92.0868L76.6384 91.1008L74.9262 89.1377L73.7958 90.1237L72.6654 91.1097L74.3776 93.0728L75.508 92.0868ZM73.7958 90.1237L74.9651 89.1843L73.2929 87.1028L72.1235 88.0422L70.9542 88.9817L72.6264 91.0632L73.7958 90.1237ZM72.1235 88.0422L72.6747 86.6472L70.1858 85.6639L69.6347 87.059L69.0835 88.4541L71.5724 89.4373L72.1235 88.0422ZM69.6347 87.059L70.3787 85.7565L68.0923 84.4504L67.3483 85.7529L66.6043 87.0554L68.8906 88.3615L69.6347 87.059ZM67.3483 85.7529L67.0114 84.2912L65.7533 84.5812L66.0902 86.0429L66.4271 87.5046L67.6852 87.2146L67.3483 85.7529ZM66.0902 86.0429L67.2908 85.1437L67.1991 85.0213L65.9985 85.9205L64.7979 86.8197L64.8896 86.9421L66.0902 86.0429Z" fill="black"/>
<path d="M55.0133 64.754L56.5103 64.6591L56.5095 64.6462L56.5085 64.6333L55.0133 64.754ZM55.1738 67.2862L56.6736 67.3119L56.6746 67.2516L56.6708 67.1913L55.1738 67.2862ZM55.1282 69.9406L53.6284 69.9148L53.6255 70.0866L53.6614 70.2546L55.1282 69.9406ZM55.6838 72.5353L57.1687 72.3232L57.1614 72.2719L57.1505 72.2212L55.6838 72.5353ZM56.0581 75.1555L57.558 75.15L57.5577 75.0462L57.543 74.9434L56.0581 75.1555ZM56.0679 77.8038L54.568 77.8094L54.5682 77.8702L54.5733 77.9308L56.0679 77.8038ZM56.2914 80.4336L54.7968 80.5606L54.8017 80.6189L54.8112 80.6768L56.2914 80.4336ZM56.7188 83.0347L55.2386 83.2779L55.2415 83.2957L55.2449 83.3135L56.7188 83.0347ZM57.206 85.6112L55.7321 85.8899L55.7374 85.9178L55.7437 85.9454L57.206 85.6112ZM57.7994 88.2081L56.3371 88.5422L56.4002 88.8183L56.5596 89.0524L57.7994 88.2081ZM59.3166 90.436L60.7901 90.1551L60.7317 89.8491L60.5564 89.5917L59.3166 90.436ZM59.8172 93.0625L61.2967 92.8152L61.2939 92.7983L61.2907 92.7816L59.8172 93.0625ZM60.2469 95.6327L60.3766 97.1271L61.994 96.9867L61.7263 95.3854L60.2469 95.6327ZM55.0053 64.6543L53.5102 64.775L53.5182 64.8747L55.0133 64.754L56.5085 64.6333L56.5004 64.5336L55.0053 64.6543ZM55.0133 64.754L53.5163 64.8488L53.6768 67.381L55.1738 67.2862L56.6708 67.1913L56.5103 64.6591L55.0133 64.754ZM55.1738 67.2862L53.674 67.2604L53.6284 69.9148L55.1282 69.9406L56.628 69.9663L56.6736 67.3119L55.1738 67.2862ZM55.1282 69.9406L53.6614 70.2546L54.217 72.8493L55.6838 72.5353L57.1505 72.2212L56.595 69.6265L55.1282 69.9406ZM55.6838 72.5353L54.1988 72.7474L54.5731 75.3677L56.0581 75.1555L57.543 74.9434L57.1687 72.3232L55.6838 72.5353ZM56.0581 75.1555L54.5581 75.1611L54.568 77.8094L56.0679 77.8038L57.5679 77.7982L57.558 75.15L56.0581 75.1555ZM56.0679 77.8038L54.5733 77.9308L54.7968 80.5606L56.2914 80.4336L57.786 80.3066L57.5626 77.6768L56.0679 77.8038ZM56.2914 80.4336L54.8112 80.6768L55.2386 83.2779L56.7188 83.0347L58.1989 82.7915L57.7715 80.1904L56.2914 80.4336ZM56.7188 83.0347L55.2449 83.3135L55.7321 85.8899L57.206 85.6112L58.6799 85.3325L58.1926 82.756L56.7188 83.0347ZM57.206 85.6112L55.7437 85.9454L56.3371 88.5422L57.7994 88.2081L59.2617 87.8739L58.6683 85.2771L57.206 85.6112ZM57.7994 88.2081L56.5596 89.0524L58.0768 91.2803L59.3166 90.436L60.5564 89.5917L59.0392 87.3638L57.7994 88.2081ZM59.3166 90.436L57.8431 90.7168L58.3437 93.3433L59.8172 93.0625L61.2907 92.7816L60.7901 90.1551L59.3166 90.436ZM59.8172 93.0625L58.3377 93.3098L58.7674 95.88L60.2469 95.6327L61.7263 95.3854L61.2967 92.8152L59.8172 93.0625ZM60.2469 95.6327L60.1171 94.1384L59.8688 94.1599L59.9985 95.6543L60.1283 97.1487L60.3766 97.1271L60.2469 95.6327Z" fill="black"/>
<path d="M8.1 116V117.5H8.13227L8.16451 117.499L8.1 116ZM10.64 115.891L10.797 114.399L10.6865 114.387L10.5755 114.392L10.64 115.891ZM13.28 116.169L13.123 117.66L13.2739 117.676L13.425 117.662L13.28 116.169ZM15.92 115.912L15.8596 114.413L15.8172 114.415L15.775 114.419L15.92 115.912ZM18.56 115.806L18.6763 114.31L18.588 114.303L18.4996 114.307L18.56 115.806ZM21.2 116.011L21.0837 117.507L21.1392 117.511L21.1948 117.511L21.2 116.011ZM23.84 116.02L23.8348 117.52L23.8912 117.52L23.9474 117.516L23.84 116.02ZM26.48 115.831L26.5223 114.331L26.4473 114.329L26.3726 114.334L26.48 115.831ZM29.12 115.905L29.2963 114.415L29.2295 114.408L29.1623 114.406L29.12 115.905ZM31.76 116.217L31.5837 117.707L31.7941 117.732L32.0032 117.698L31.76 116.217ZM34.4 115.784L34.4793 114.286L34.3171 114.277L34.1568 114.303L34.4 115.784ZM37.04 115.923L36.9607 117.421L37.0493 117.426L37.1379 117.42L37.04 115.923ZM39.68 115.751L39.8617 114.262L39.7223 114.245L39.5821 114.254L39.68 115.751ZM42.32 116.073L42.1383 117.562L42.2533 117.576L42.3692 117.572L42.32 116.073ZM44.96 115.986L44.9117 114.487L44.9108 114.487L44.96 115.986ZM47.6 115.901L47.6483 117.401L47.6707 117.4L47.693 117.398L47.6 115.901ZM50.24 115.737L50.5012 114.26L50.3253 114.229L50.147 114.24L50.24 115.737ZM52.88 116.204L52.6188 117.681L52.879 117.727L53.1393 117.682L52.88 116.204ZM55.52 115.741L55.6608 114.247L55.4596 114.228L55.2606 114.263L55.52 115.741ZM58.16 115.99L58.0192 117.483L58.1299 117.493L58.2409 117.487L58.16 115.99ZM60.8 115.847L61.0126 114.362L60.8665 114.341L60.7191 114.349L60.8 115.847ZM63.44 116.225L63.2274 117.71L63.4714 117.745L63.7137 117.7L63.44 116.225ZM66.08 115.735L66.1582 114.237L65.9809 114.228L65.8063 114.26L66.08 115.735ZM68.72 115.873L68.6418 117.371L68.6647 117.372L68.6878 117.373L68.72 115.873ZM71.36 115.93L71.3278 117.429L71.3564 117.43L71.3849 117.429L71.36 115.93ZM74 115.886L74.185 114.397L74.0804 114.384L73.975 114.386L74 115.886ZM76.64 116.214L76.455 117.702L76.6155 117.722L76.7765 117.708L76.64 116.214ZM79.28 115.973L79.2685 114.473L79.2059 114.473L79.1435 114.479L79.28 115.973ZM81.92 115.952L82.0888 114.462L81.9989 114.452L81.9085 114.452L81.92 115.952ZM84.56 116.251L84.3912 117.742L84.5876 117.764L84.783 117.735L84.56 116.251ZM87.2 115.854L87.2734 114.356L87.1245 114.349L86.977 114.371L87.2 115.854ZM89.84 115.984L89.9255 114.486L89.9134 114.486L89.84 115.984ZM92.48 116.135L92.3945 117.632L92.4978 117.638L92.6008 117.63L92.48 116.135ZM95.12 115.921L95.1099 114.421L95.0544 114.422L94.9992 114.426L95.12 115.921ZM97.76 115.903L97.9616 114.417L97.8562 114.403L97.7499 114.403L97.76 115.903ZM100.4 116.261L100.198 117.748L100.434 117.78L100.667 117.737L100.4 116.261ZM103.04 115.784L103.284 114.304L103.028 114.262L102.773 114.308L103.04 115.784ZM105.68 116.219L105.436 117.699L105.576 117.722L105.719 117.718L105.68 116.219ZM108.32 116.151L108.359 117.65L108.453 117.648L108.546 117.634L108.32 116.151ZM110.96 115.748L111.313 114.29L111.026 114.221L110.734 114.265L110.96 115.748ZM8 116V117.5H8.1V116V114.5H8V116ZM8.1 116L8.16451 117.499L10.7045 117.389L10.64 115.891L10.5755 114.392L8.03549 114.501L8.1 116ZM10.64 115.891L10.483 117.382L13.123 117.66L13.28 116.169L13.437 114.677L10.797 114.399L10.64 115.891ZM13.28 116.169L13.425 117.662L16.065 117.405L15.92 115.912L15.775 114.419L13.135 114.676L13.28 116.169ZM15.92 115.912L15.9804 117.411L18.6204 117.305L18.56 115.806L18.4996 114.307L15.8596 114.413L15.92 115.912ZM18.56 115.806L18.4437 117.301L21.0837 117.507L21.2 116.011L21.3163 114.516L18.6763 114.31L18.56 115.806ZM21.2 116.011L21.1948 117.511L23.8348 117.52L23.84 116.02L23.8452 114.52L21.2052 114.511L21.2 116.011ZM23.84 116.02L23.9474 117.516L26.5874 117.327L26.48 115.831L26.3726 114.334L23.7326 114.524L23.84 116.02ZM26.48 115.831L26.4377 117.33L29.0777 117.404L29.12 115.905L29.1623 114.406L26.5223 114.331L26.48 115.831ZM29.12 115.905L28.9437 117.395L31.5837 117.707L31.76 116.217L31.9363 114.728L29.2963 114.415L29.12 115.905ZM31.76 116.217L32.0032 117.698L34.6432 117.264L34.4 115.784L34.1568 114.303L31.5168 114.737L31.76 116.217ZM34.4 115.784L34.3207 117.282L36.9607 117.421L37.04 115.923L37.1193 114.426L34.4793 114.286L34.4 115.784ZM37.04 115.923L37.1379 117.42L39.7779 117.248L39.68 115.751L39.5821 114.254L36.9421 114.427L37.04 115.923ZM39.68 115.751L39.4983 117.24L42.1383 117.562L42.32 116.073L42.5017 114.584L39.8617 114.262L39.68 115.751ZM42.32 116.073L42.3692 117.572L45.0092 117.486L44.96 115.986L44.9108 114.487L42.2708 114.574L42.32 116.073ZM44.96 115.986L45.0083 117.486L47.6483 117.401L47.6 115.901L47.5517 114.402L44.9117 114.487L44.96 115.986ZM47.6 115.901L47.693 117.398L50.333 117.234L50.24 115.737L50.147 114.24L47.507 114.404L47.6 115.901ZM50.24 115.737L49.9788 117.214L52.6188 117.681L52.88 116.204L53.1412 114.727L50.5012 114.26L50.24 115.737ZM52.88 116.204L53.1393 117.682L55.7793 117.218L55.52 115.741L55.2606 114.263L52.6207 114.727L52.88 116.204ZM55.52 115.741L55.3792 117.234L58.0192 117.483L58.16 115.99L58.3008 114.496L55.6608 114.247L55.52 115.741ZM58.16 115.99L58.2409 117.487L60.8809 117.345L60.8 115.847L60.7191 114.349L58.0791 114.492L58.16 115.99ZM60.8 115.847L60.5874 117.332L63.2274 117.71L63.44 116.225L63.6526 114.74L61.0126 114.362L60.8 115.847ZM63.44 116.225L63.7137 117.7L66.3537 117.21L66.08 115.735L65.8063 114.26L63.1663 114.75L63.44 116.225ZM66.08 115.735L66.0018 117.233L68.6418 117.371L68.72 115.873L68.7982 114.375L66.1582 114.237L66.08 115.735ZM68.72 115.873L68.6878 117.373L71.3278 117.429L71.36 115.93L71.3922 114.43L68.7522 114.373L68.72 115.873ZM71.36 115.93L71.3849 117.429L74.0249 117.386L74 115.886L73.975 114.386L71.335 114.43L71.36 115.93ZM74 115.886L73.815 117.374L76.455 117.702L76.64 116.214L76.825 114.725L74.185 114.397L74 115.886ZM76.64 116.214L76.7765 117.708L79.4165 117.466L79.28 115.973L79.1435 114.479L76.5035 114.72L76.64 116.214ZM79.28 115.973L79.2915 117.473L81.9315 117.452L81.92 115.952L81.9085 114.452L79.2685 114.473L79.28 115.973ZM81.92 115.952L81.7512 117.443L84.3912 117.742L84.56 116.251L84.7288 114.761L82.0888 114.462L81.92 115.952ZM84.56 116.251L84.783 117.735L87.423 117.338L87.2 115.854L86.977 114.371L84.337 114.768L84.56 116.251ZM87.2 115.854L87.1266 117.353L89.7666 117.482L89.84 115.984L89.9134 114.486L87.2734 114.356L87.2 115.854ZM89.84 115.984L89.7545 117.481L92.3945 117.632L92.48 116.135L92.5655 114.637L89.9255 114.486L89.84 115.984ZM92.48 116.135L92.6008 117.63L95.2408 117.416L95.12 115.921L94.9992 114.426L92.3592 114.639L92.48 116.135ZM95.12 115.921L95.1301 117.421L97.7701 117.403L97.76 115.903L97.7499 114.403L95.1099 114.421L95.12 115.921ZM97.76 115.903L97.5584 117.39L100.198 117.748L100.4 116.261L100.602 114.775L97.9616 114.417L97.76 115.903ZM100.4 116.261L100.667 117.737L103.307 117.26L103.04 115.784L102.773 114.308L100.133 114.785L100.4 116.261ZM103.04 115.784L102.796 117.264L105.436 117.699L105.68 116.219L105.924 114.738L103.284 114.304L103.04 115.784ZM105.68 116.219L105.719 117.718L108.359 117.65L108.32 116.151L108.281 114.651L105.641 114.719L105.68 116.219ZM108.32 116.151L108.546 117.634L111.186 117.231L110.96 115.748L110.734 114.265L108.094 114.668L108.32 116.151ZM110.96 115.748L110.607 117.206L111.647 117.458L112 116L112.353 114.542L111.313 114.29L110.96 115.748Z" fill="black"/>
</svg>
