<svg width="120" height="120" viewBox="0 0 120 120" fill="none" xmlns="http://www.w3.org/2000/svg">
<path d="M92.8594 0.875L96.2109 1.05078L96.9609 1.08594L97.3828 1.71875L99.293 4.58984L99.5859 5.02344L99.5391 5.55078L99.4922 6.125L99.3867 7.40234L98.8594 7.4375L98.3037 8.54102L99.0312 8.51953L99.793 8.49609L100.262 9.10547L102.102 11.5078L102.277 11.7422L102.359 12.0234L103.285 15.3984L104.234 18.7852V18.7969L105.137 22.1953L105.16 22.2656L105.465 23.6836L105.863 25.5H103.812L102.579 25.4258L102.652 25.5117L102.699 25.5586L102.734 25.6172L104.773 28.4883L104.782 28.5H105.594L105.531 29.5605L106.895 31.5H105.416L105.242 34.8164L105.629 38.2617L105.641 38.3555L105.629 38.4609L105.547 41.9648L105.711 45.375V45.5156L105.523 49.0312V49.0547L105.289 52.5586V55.9688L105.359 59.3672L105.605 62.8828L105.617 62.9648V63.0586L105.465 66.5625L105.57 69.9609V70.0547L105.477 73.5586L105.465 73.5469L105.629 76.9688V77.1211L105.418 80.4727L105.758 83.9062L105.77 83.9883V84.0703L105.723 87.5742V87.668L105.711 87.75L105.277 91.1602L105.301 94.4297L105.641 97.9453L105.664 98.0859L105.641 98.2383L105.301 101.602L105.497 104.801H105.504V104.895L105.512 105.023V105.223L105.504 105.323V106.5H105.413L105.254 108.562L105.746 111.914L105.758 112.02V112.137L105.744 114.242H105.816L105.969 114.266L108.406 114.746L110.809 114.5L110.891 114.488H110.973L112.016 114.5L112.004 116L111.98 117.5L110.984 117.488L108.477 117.746L108.254 117.77L108.031 117.734L105.57 117.242L103.145 117.254L100.648 117.688L100.496 117.711L100.332 117.699L97.6953 117.594H97.625L97.5547 117.582L96.7344 117.466L93.9805 117.75L93.793 117.773L93.6172 117.75L93.0127 117.661L92.7617 117.711L92.5273 117.758L92.293 117.734L89.7383 117.406L88.7158 117.41L86.9609 117.586L86.6797 117.621L86.4102 117.539L86.0576 117.441L84.6055 117.488H84.5938L81.957 117.547H81.9336L79.3672 117.559L79.3789 117.57L76.7422 117.746L76.5547 117.758L75.5518 117.569L74.7314 117.587L74.7178 117.588H74.7051L71.1943 117.599H71.1191L71.0449 117.592L69.9531 117.485L68.7266 117.418L66.1719 117.582H66.043L65.9141 117.57L65.7441 117.551L64.3838 117.747L64.2012 117.773L64.0186 117.755L61.5 117.499L60.957 117.559H60.8867L58.25 117.711L58.0977 117.723L57.957 117.699L56.0908 117.44L53.8281 117.729L53.7383 117.739L53.6484 117.74L50.1387 117.759L50.0244 117.76L49.9111 117.743L47.0977 117.327L45.8389 117.305L43.2246 117.506L43.1211 117.514L43.0176 117.508L42.709 117.488L42.4531 117.512L42.418 117.523H42.3711L39.7344 117.617H39.6172L37.3887 117.527L36.2422 117.646L36.0918 117.66L35.9414 117.646L34.3643 117.488H34.3438L34.3301 117.484L34.1377 117.465L31.7188 117.301L29.1875 117.43H29.1055L27.9922 117.424L25.751 117.713L25.6641 117.724L25.5771 117.725L22.0674 117.765L21.9854 117.766L21.9033 117.758L18.3936 117.413L18.2256 117.396L18.1875 117.384L15.9219 117.395V117.383L13.3789 117.559H13.3672L13.3555 117.57L10.707 117.688L10.6133 117.699L10.5312 117.688L7.98828 117.5L8 117.277V114.5H8.21094L10.6719 114.699L13.1797 114.582V114.57L14.3945 114.489L14.5283 111.509L14.4307 108.052L14.4287 108.008L14.4307 107.964L14.5371 104.505L14.3867 101.055L14.3838 100.969L14.3896 100.883L14.6396 97.417L14.7139 93.9375L14.7129 90.5352L14.5469 88.834L13.5625 88.1758L14.3896 87.2178L14.3203 86.5H15.0146L16.9023 84.3438L18.7422 81.5312L20.3828 78.4609L20.4531 78.332L20.5469 78.2148L22.2861 76.1123L22.3066 75.5371L22.4287 72.0586L22.4121 68.5771V68.5576L22.4424 65.0469V65.0049L22.4453 64.9639L22.665 61.5635L22.3828 58.1641L22.3359 57.6006L22.6719 57.1465L23.1035 56.5625L22.7695 56.3867L21.1758 55.5547L22.2773 54.1367L23.3613 52.7402L22.4766 52.3047L21.293 51.7188L21.7266 50.4648L22.875 47.1953L23.4961 43.9023L23.5664 43.5273L23.8125 43.2344L25.6758 40.9609L25.9346 40.6484L25.9336 40.5586L25.8984 37.1719L25.8867 36.0703L26.9414 35.7305L30.1172 34.7227L31.3945 34.3125L31.9453 35.543L32.9531 37.8398L36.2578 40.5H32.7188L32.5801 40.7207L33.9141 40.9023L34.957 41.0547L35.168 42.0859L35.8711 45.4727L36.7266 48.8711V48.8945L36.7383 48.918L37.3477 51.707L36.1758 51.9766L36.375 53.4531L36.2578 53.4766H36.2549L37.0029 54.5H37.251L37.333 54.9521L37.3711 55.0039L38.3086 56.293L37.6514 56.7168L37.6494 56.8438L37.5947 60.3281L37.6533 63.8154V63.833L37.6689 67.3311L37.7129 70.8418L37.7139 70.9004L37.71 70.959L37.4893 74.2637L37.6445 74.2656H37.7383L41.207 74.6992L44.6172 74.5938V74.6055L48.0156 74.2422L48.2031 74.2305L48.3789 74.2539L51.6953 74.7344L55.0469 74.4062H55.1992L58.7031 74.418H58.7266L62.2422 74.4883L65.7461 74.5469L65.7344 74.5586L69.2383 74.5703H69.3086L72.6602 74.7461L76.0352 74.2656L76.2109 74.2422L76.3867 74.2539L79.832 74.5586L82.4766 74.457L82.3555 73.3359L82.3438 73.2422L82.3555 73.1602L82.4023 69.6914L82.3438 66.1875V66.1641L82.332 62.6719L82.2852 59.1562V59.0391L82.5195 55.5352L82.625 52.1719L82.5078 48.6562V48.6211L82.4844 45.1758L82.3086 41.6719V41.543L82.4258 38.0859L82.4141 34.582V34.5586L82.4375 31.043L82.4492 30L82.6094 29.9424L82.2734 29.8125L83.2812 28.2656L85.2031 25.3242L85.3086 25.1719L85.4424 25.0488L83.6914 24.3633L82.4258 23.8711L82.7891 22.5703L83.7266 19.1836V19.1602L84.7109 15.7969L85.543 12.4453L85.5898 12.2578L85.6836 12.082L87.2188 9.26953L87.6523 8.48438H88.5547L88.9395 8.48633L88.9102 8.11719L88.6523 4.625L88.5938 3.85156L89.2031 3.35938L91.8281 1.20312L92.2734 0.839844L92.8594 0.875ZM51.168 89.5L51.1797 89.5117L47.6641 89.6875L47.6055 89.6992L47.5352 89.6875L44.0312 89.5703L40.5742 89.582H40.5625L37.0469 89.5586H36.9648L36.1592 89.5029L33.6465 89.665L33.5361 89.6729L33.4258 89.6631L31.4941 89.502L30.168 89.6172H30.0391L26.5234 89.6055H26.4531L24.3623 89.5L23.0947 89.5645L23.085 89.5654H23.0742L19.5645 89.6924L19.4941 89.6943L19.4248 89.6904L17.6328 89.5889L17.7041 90.3154L17.7109 90.3867L17.7119 90.459L17.7139 93.9688V94.002L17.6377 97.5127L17.6367 97.5498L17.6348 97.5879L17.3877 101.007L17.5361 104.436L17.5391 104.49L17.5371 104.546L17.4297 108.01L17.5283 111.478L17.5293 111.532L17.5273 111.587L17.4209 113.966L18.6367 114.371H18.6406L18.7227 114.383L21.2305 114.664L21.4277 114.646L21.2539 114.512L21.3125 113.703L21.4883 111.066L21.5117 108.512V108.277L21.5938 108.043L22.4141 105.617L22.543 105.242L22.8359 104.984L24.7344 103.262L24.9688 103.062L25.2617 102.957L27.0195 102.371L29 101.703V103.016L30.3828 103.496L30.7344 103.625L30.9922 103.906L32.7031 105.77L32.9727 106.074L33.0547 106.484L33.582 109.051L33.6055 109.191V109.344L33.6172 111.98L33.6289 112.074L33.6172 112.156L33.3701 114.374L34.6416 114.5L36.2539 114.508L36.3125 113.703L36.4883 111.066L36.5117 108.512V108.277L36.5938 108.043L37.4141 105.617L37.543 105.242L37.8359 104.984L39.7344 103.262L39.9688 103.062L40.2617 102.957L42.0195 102.371L44 101.703V103.016L45.3828 103.496L45.7344 103.625L45.9922 103.906L47.7031 105.77L47.9727 106.074L48.0547 106.484L48.582 109.051L48.6055 109.191V109.344L48.6172 111.98L48.6289 112.074L48.6172 112.156L48.374 114.348H50.2695L51.2637 114.369L51.3125 113.703L51.4883 111.066L51.5117 108.512V108.277L51.5938 108.043L52.4141 105.617L52.543 105.242L52.8359 104.984L54.7344 103.262L54.9688 103.062L55.2617 102.957L57.0195 102.371L59 101.703V103.016L60.3828 103.496L60.7344 103.625L60.9922 103.906L62.7031 105.77L62.9727 106.074L63.0547 106.484L63.582 109.051L63.6055 109.191V109.344L63.6172 111.98L63.6289 112.074L63.6172 112.156L63.3809 114.281L63.4414 114.277L63.6055 114.289L65.665 114.531L66.2578 114.445L66.3125 113.703L66.4883 111.066L66.5117 108.512V108.277L66.5938 108.043L67.4141 105.617L67.543 105.242L67.8359 104.984L69.7344 103.262L69.9688 103.062L70.2617 102.957L72.0195 102.371L74 101.703V103.016L75.3828 103.496L75.7344 103.625L75.9922 103.906L77.7031 105.77L77.9727 106.074L78.0547 106.484L78.582 109.051L78.6055 109.191V109.344L78.6172 111.98L78.6289 112.074L78.6172 112.156L78.3555 114.511L81.3311 114.462L82.3809 113.896L82.2539 111.335L82.2471 111.191L82.2666 111.05L82.5264 109.208L82.543 108.258L82.5674 105.752L82.4473 104.371L82.4395 104.276L82.4434 104.183L82.5752 100.74L82.5332 99.8213L82.2617 97.957L82.2383 97.793L82.2617 97.6172L82.5547 94.3008L82.4258 90.7852V90.6562L82.4277 90.6152L81.8086 89.6328L80.6172 89.5078L79.3398 89.6406L79.2461 89.6523H79.1523L75.6602 89.5938L72.1797 89.6523H68.6523L68.6641 89.6641L65.1602 89.7109H65.043L62.0049 89.498L61.7295 89.5166L61.7012 89.5186L61.6719 89.5195L58.1621 89.6182L58.1182 89.6201L58.0742 89.6182L54.5635 89.5107V89.5098L52.5205 89.4951L51.168 89.5ZM94.5938 107.895H94.6055L91.0898 108.07H91.0781L87.5625 108.188L87.4922 108.199L87.4219 108.188L85.7148 108.093L85.5234 109.444L85.4844 111.82L85.4375 114.164L86.4434 114.437L87.1602 114.418H87.1953L88.6709 114.411L90.1719 114.27L90.3594 114.246L90.5352 114.27L93.001 114.621L94.8359 114.266L95.082 114.219L95.3164 114.254L96.7754 114.452L97.1914 114.41H97.2969L100.789 114.293H100.777L102.746 114.199L102.758 112.254L102.254 108.844L102.23 108.668L102.242 108.504L102.272 108.11L101.555 108.176L101.426 108.164L98.0508 107.883L94.5938 107.895ZM26.4805 105.711L25.1328 106.93L24.5 108.781L24.4883 111.184V111.23L24.4766 111.266L24.3477 113.105L24.957 113.574H27.0781L29.5391 113.562L30.4531 113.375L30.6055 111.934V109.473L30.1953 107.48L29.0352 106.203L27.0781 105.512L26.4805 105.711ZM41.4805 105.711L40.1328 106.93L39.5 108.781L39.4883 111.184V111.23L39.4766 111.266L39.3477 113.105L39.957 113.574H42.0781L44.5391 113.562L45.4531 113.375L45.6055 111.934V109.473L45.1953 107.48L44.0352 106.203L42.0781 105.512L41.4805 105.711ZM56.4805 105.711L55.1328 106.93L54.5 108.781L54.4883 111.184V111.23L54.4766 111.266L54.3477 113.105L54.957 113.574H57.0781L59.5391 113.562L60.4531 113.375L60.6055 111.934V109.473L60.1953 107.48L59.0352 106.203L57.0781 105.512L56.4805 105.711ZM71.4805 105.711L70.1328 106.93L69.5 108.781L69.4883 111.184V111.23L69.4766 111.266L69.3477 113.105L69.957 113.574H72.0781L74.5391 113.562L75.4531 113.375L75.6055 111.934V109.473L75.1953 107.48L74.0352 106.203L72.0781 105.512L71.4805 105.711ZM93.5469 31.6055H93.4766L89.9609 31.6172H89.832L88.4668 31.5029L86.7734 31.6406L85.4375 32.1211L85.4141 34.582L85.4258 38.0742V38.1328L85.3086 41.5078L85.4844 45.0234V45.0938L85.5078 48.5625L85.6133 52.0781L85.625 52.1133L85.6133 52.1602L85.5195 55.6758V55.7344L85.2852 59.2383L85.332 62.6367V62.6484L85.3438 66.1406L85.4023 69.6445V69.6914L85.3672 73.1367L85.707 76.5352L85.7188 76.6406V76.7578L85.5547 80.2617V80.3154L85.7148 82.1641L85.7266 82.2812L85.7148 82.4102L85.4541 85.6562L85.5781 87.0938L85.5898 87.1875L85.5781 87.293L85.4482 90.2637L85.7119 93.5918L85.7217 93.7148L85.7109 93.8369L85.4199 97.249L85.5234 99.5439L85.7305 101.051L85.7539 101.191L85.7422 101.332L85.5781 104.766V104.777L85.5742 105.082L87.5391 105.199L90.9492 105.082V105.07L94.4531 104.895H94.5234L98.0391 104.883H98.168L101.531 105.176L102.511 105.082H102.512L102.301 101.695L102.289 101.566L102.301 101.449L102.652 98.0742L102.312 94.7344L102.301 94.6641V94.5938L102.277 91.0781V90.9844L102.289 90.8789L102.734 87.457L102.77 84.1992L102.43 80.6836L102.418 80.5664V80.4492L102.629 76.9688L102.477 73.582L102.465 73.5352L102.477 73.4766L102.57 70.0547L102.465 66.5508V66.4336L102.617 63.0234L102.371 59.5898L102.359 59.5547V59.5078L102.289 56.0039V52.3594L102.535 48.8438L102.711 45.4219L102.547 42V41.8945L102.641 38.5898L102.254 35.0742L102.242 34.957L102.254 34.8398L102.406 31.582L100.578 31.6875L100.508 31.6992L100.438 31.6875L96.9219 31.5703H96.9102L95.5762 31.5029L93.5469 31.6055ZM23.4688 93H26V93.1758L25.9883 93.2461L25.8008 95.0508L25.918 96.8438L26.082 97.7344L26.3984 99.5039H24.5V98.0273L23.1289 98.2617L22.9531 97.2656L22.9414 97.1836V97.0898L22.8125 95.0977L22.8008 94.9688L22.8125 94.8516L23.0117 92.9531L23.4688 93ZM31.4688 93H34V93.1758L33.9883 93.2461L33.8008 95.0508L33.918 96.8438L34.082 97.7344L34.3984 99.5039H32.5V98.0273L31.1289 98.2617L30.9531 97.2656L30.9414 97.1836V97.0898L30.8125 95.0977L30.8008 94.9688L30.8125 94.8516L31.0117 92.9531L31.4688 93ZM39.4688 93H42V93.1758L41.9883 93.2461L41.8008 95.0508L41.918 96.8438L42.082 97.7344L42.3984 99.5039H40.5V98.0273L39.1289 98.2617L38.9531 97.2656L38.9414 97.1836V97.0898L38.8125 95.0977L38.8008 94.9688L38.8125 94.8516L39.0117 92.9531L39.4688 93ZM47.4688 93H50V93.1758L49.9883 93.2461L49.8008 95.0508L49.918 96.8438L50.082 97.7344L50.3984 99.5039H48.5V98.0273L47.1289 98.2617L46.9531 97.2656L46.9414 97.1836V97.0898L46.8125 95.0977L46.8008 94.9688L46.8125 94.8516L47.0117 92.9531L47.4688 93ZM55.4688 93H58V93.1758L57.9883 93.2461L57.8008 95.0508L57.918 96.8438L58.082 97.7344L58.3984 99.5039H56.5V98.0273L55.1289 98.2617L54.9531 97.2656L54.9414 97.1836V97.0898L54.8125 95.0977L54.8008 94.9688L54.8125 94.8516L55.0117 92.9531L55.4688 93ZM63.4688 93H66V93.1758L65.9883 93.2461L65.8008 95.0508L65.918 96.8438L66.082 97.7344L66.3984 99.5039H64.5V98.0273L63.1289 98.2617L62.9531 97.2656L62.9414 97.1836V97.0898L62.8125 95.0977L62.8008 94.9688L62.8125 94.8516L63.0117 92.9531L63.4688 93ZM71.4688 93H74V93.1758L73.9883 93.2461L73.8008 95.0508L73.918 96.8438L74.082 97.7344L74.3984 99.5039H72.5V98.0273L71.1289 98.2617L70.9531 97.2656L70.9414 97.1836V97.0898L70.8125 95.0977L70.8008 94.9688L70.8125 94.8516L71.0117 92.9531L71.4688 93ZM44.8164 77.582L44.7578 77.5938H44.7109L41.1953 77.6992L41.0781 77.7109L40.9609 77.6875L37.5391 77.2656L34.8057 77.2559L34.6729 77.3643L34.166 77.3799L33.167 77.4102L30.8359 77.7461L30.6719 77.7695L30.5078 77.7578L27.1777 77.5137H27.124L24.7305 77.8516L22.9609 79.9961L21.3672 82.9844L21.3438 83.043L21.3086 83.1016L19.375 86.043L19.3281 86.125L19.2578 86.207L19.1523 86.3359L19.4219 86.3125L19.4922 86.3008L19.5625 86.3125L23.0781 86.4297H23.0898L24.4072 86.4951L26.4551 86.3926L26.4893 86.3906H26.5244L30.0342 86.377H30.0996L30.1641 86.3828L31.5156 86.4941L33.4258 86.3359L33.5312 86.3242L33.6484 86.3359L36.1729 86.4961L36.9639 86.4453L37.0049 86.4424H37.0469L40.5576 86.4121H40.5771L44.0586 86.4287L47.5371 86.3066L47.6025 86.3047L47.667 86.3076L51.1426 86.4863L53.5684 86.5029L54.5664 86.5V86.4883L58.0703 86.3828H58.1641L61.668 86.4766H61.7031L61.7266 86.4883L61.8975 86.499L65.041 86.29L65.0996 86.2861L65.1582 86.2871L68.6689 86.3311L68.668 86.332L72.167 86.3467H72.1846L75.6709 86.4053L79.1562 86.3506L79.2461 86.3486L79.3359 86.3584L80.6143 86.4922L81.8008 86.3711L82.4219 85.3887L82.2852 83.8359L82.2734 83.7188L82.2852 83.5898L82.543 80.3711L82.4219 79L82.082 77.4766L79.8203 77.5586H79.7266L79.6328 77.5469L76.2695 77.2656L72.9531 77.7344L72.8125 77.7578L72.6602 77.7461L69.1562 77.5703L65.7109 77.5469H65.6992L62.1836 77.4883L58.668 77.418H55.2109L51.8242 77.7344L51.6484 77.7578L51.4609 77.7227L48.1445 77.2539L44.8164 77.582ZM26.0859 57.5781L25.4189 58.4775L25.6631 61.4258L25.6729 61.5361L25.665 61.6465L25.4424 65.1162L25.4121 68.583L25.4287 72.0732V72.1025L25.4277 72.1328L25.3535 74.2764L26.9883 74.4863L27.0625 74.4766L27.2266 74.4883L27.5244 74.5107L30.5645 74.4893H30.5635L32.7715 74.4209L33.7061 74.2832L34.5273 73.6182L34.7129 70.8164L34.6699 67.3682L34.6689 67.3574L34.6533 63.8652L34.5947 60.3545V60.3066L34.6387 57.5732L32.5752 57.6904L32.5059 57.6943L32.4355 57.6924L28.9258 57.5654H28.915L28.9053 57.5645L27.6338 57.5L26.0859 57.5781ZM95.5547 56.6943L96.8076 56.7314L96.9932 57.9707L97.417 60.7979L97.4277 60.8711L97.4316 60.9453L97.6074 64.4551L97.6094 64.4893V64.5244L97.623 68.0342V68.0996L97.6172 68.1641L97.3262 71.6738L97.2305 72.8271L96.0908 73.0273L93.1992 73.5352L91.9902 73.748L91.543 72.6045L90.5156 69.9766L90.4111 69.709L90.4121 69.4229L90.4287 65.9404L90.3066 62.4629L90.3047 62.3975L90.3076 62.333L90.4873 58.8232L90.5 57.9766L92.0586 57.6221L92.0898 56.5898L95.5547 56.6943ZM93.3066 62.4219L93.4277 65.8672L93.4287 65.8975V65.9268L93.4131 69.1494L93.8896 70.3672L94.4316 70.2715L94.6221 67.9775L94.6094 64.5684L94.4385 61.1689L94.2119 59.6543L93.4492 59.6318L93.3066 62.4219ZM28.9336 53.4453L26.4258 53.7148L25.8828 54.4092L27.6279 54.4971L28.9102 54.4297H28.9219L32.4375 54.3125L32.5078 54.3008L32.5781 54.3125L32.8711 54.3359L31.8398 53.4219L28.9336 53.4453ZM95.5547 36.6943L96.8076 36.7314L96.9932 37.9707L97.417 40.7979L97.4277 40.8711L97.4316 40.9453L97.6074 44.4551L97.6094 44.4893V44.5244L97.623 48.0342V48.0996L97.6172 48.1641L97.3262 51.6738L97.2305 52.8271L96.0908 53.0273L93.1992 53.5352L91.9902 53.748L91.543 52.6045L90.5156 49.9766L90.4111 49.709L90.4121 49.4229L90.4287 45.9404L90.3066 42.4629L90.3047 42.3975L90.3076 42.333L90.4873 38.8232L90.5 37.9766L92.0586 37.6221L92.0898 36.5898L95.5547 36.6943ZM26.3789 44.8398L25.7812 47.9219L25.7578 48.0273L25.7227 48.1328L25.0078 50.2188L25.7695 50.5938L28.9102 50.4297H28.9219L32.4375 50.3125L32.5078 50.3008L32.5781 50.3125L33.9961 50.3945L33.8203 49.6094L32.9531 46.1992V46.1758L32.9414 46.1406L32.4609 43.7383L30.8408 43.5078L30.832 43.5234L30.7686 43.4971L30.3164 43.4336L27.5508 43.4219L26.3789 44.8398ZM93.3066 42.4219L93.4277 45.8672L93.4287 45.8975V45.9268L93.4131 49.1494L93.8896 50.3672L94.4316 50.2715L94.6221 47.9775L94.6094 44.5684L94.4385 41.1689L94.2119 39.6543L93.4492 39.6318L93.3066 42.4219ZM28.8984 38.25L28.9219 39.5273L29.6133 39.7969L30.1523 38.9297L29.7422 37.9805L28.8984 38.25ZM93.5469 25.6055H93.4766L89.9609 25.6172H89.832L89.3105 25.5732L87.6406 27.1055L86.8203 28.3594H86.8086L88.4756 28.4961L89.832 28.3828H89.9609L93.4766 28.3945H93.5469L95.5762 28.4961L96.9102 28.4297H96.9219L100.438 28.3125L100.508 28.3008L100.578 28.3125L100.988 28.3359L100.285 27.3516L98.7148 25.5117L95.8818 25.4883L93.5469 25.6055ZM88.4023 13.3594L87.6055 16.5703V16.6055L87.5938 16.6289L86.6094 20.0039L86.0469 22.0664L86.8086 22.3594L88.2354 22.4756L88.2617 22.4531L88.8125 22.4297L92.3281 22.3125L92.3867 22.3008L92.457 22.3125L95.8496 22.4824L96.9102 22.4297H96.9219L100.438 22.3125L100.508 22.3008L100.578 22.3125L102.09 22.4062L101.34 19.5938L100.391 16.2188V16.207L99.5469 13.1016L98.3516 11.543L95.5977 11.6133L95.5625 11.625L95.5156 11.6133L92 11.5078H92.0117L89.4336 11.4961L88.4023 13.3594ZM91.6992 5.17578L91.8516 7.14453L93.5156 8.22266L95.3789 7.67188L96.3984 5.64453L95.2969 3.99219L93.2695 3.88672L91.6992 5.17578Z" fill="black"/>
</svg>
