<svg width="120" height="120" viewBox="0 0 120 120" fill="none" xmlns="http://www.w3.org/2000/svg">
<path d="M62.0234 73.7969L64.9062 74.1953L67.7422 74.1484L70.7539 73.9961H70.918L71.0703 74.0195L73.9883 74.5L76.8359 74.5586H76.9297L77.0117 74.5703L79.8945 74.9453H82.9883L83.1875 74.9922L85.9648 75.7305L88.8008 75.8359H88.8359L88.8711 75.8477L91.8359 76.0938L94.8359 76.3281H94.8242L97.8242 76.5391H97.8477L100.836 76.8203L100.93 76.832L101.012 76.8438L103.73 77.418L106.578 77.2305L106.801 77.2188L107.012 77.2539L109.953 77.8984H109.941L112.191 78.2148L112.004 79.5039L113.492 79.6445L113.469 79.8438L113.328 81.4141L111.77 81.1914L109.426 80.8516L109.379 80.8398L109.32 80.8281L106.555 80.2305L104.916 80.3535L104.859 81.4883L105.012 84.418V84.5703L104.871 87.4766L105.188 90.3359L105.199 90.418V90.5L105.188 93.5V93.5586L105.059 96.5586L105.047 96.5469L105.023 99.5117V99.6172L104.777 102.617L104.766 102.605L104.742 105.383L105.106 107.486L106.051 107.828H106.039L108.863 108.66L108.969 108.684L109.062 108.73L111.793 109.973L111.969 110.043L112.121 110.172L112.941 110.828L112.004 112L111.055 113.172L110.387 112.621L107.891 111.484L105.113 110.676L105.02 110.652L102.371 109.68L99.8984 109.234L97.4492 110.16H97.4258L97.4023 110.172L94.7656 111.062L92.5508 112.691L92.4336 112.773L92.3164 112.832L89.6328 114.121L89.4336 114.215L89.2227 114.25L86.2695 114.73L86.0469 114.766L85.8359 114.742L82.8477 114.355L82.6719 114.332L82.5078 114.273L79.6719 113.195L79.4023 113.09L79.1914 112.902L77.2109 111.086L74.6797 110.5L72.125 110.277L69.6992 110.98L67.0859 112.141L64.7773 113.77L64.5664 113.898L64.332 113.969L61.4258 114.824L61.0977 114.918L60.7461 114.859L57.7695 114.355L57.6641 114.332L57.5703 114.297L54.7461 113.395L54.5469 113.336L54.3711 113.207L52.0156 111.602L49.543 110.488L47.0234 110.09L44.5156 110.652L42.043 111.871L39.5469 113.383L39.4062 113.465L39.2422 113.523L36.3945 114.449L36.1602 114.52H35.9023L32.9375 114.461H32.8086L32.668 114.438L29.7734 113.852L29.5273 113.805L29.3164 113.676L26.75 112.188L26.6797 112.141L24.3828 110.617L21.8281 109.879L19.1445 109.328L16.625 109.715L14.1172 110.898L11.4922 112.258L11.4219 112.293L11.3398 112.316L8.63281 113.359L8.62109 113.371H8.60938L8.51562 113.406L7.48438 110.594L7.57812 110.559H7.58984L10.2617 109.516L12.793 108.215L12.8398 108.191L15.5586 106.902L15.7578 106.809L15.9688 106.785L18.957 106.328L19.2266 106.281L19.4844 106.34L22.4258 106.938L22.543 106.961L25.4141 107.793L25.6367 107.852L25.8242 107.98L27.958 109.396L27.7422 107.684L27.7305 107.543V107.402L27.918 104.402H27.9297V101.414L28.0938 98.5195L27.8711 95.6133L27.8594 95.4844L27.8711 95.3438L28.1758 92.5547L27.7656 89.7188L27.7422 89.6016V89.4844L27.7773 86.4844L27.7891 86.4258V86.3789L28.0352 83.4844H28.0234L28.0586 80.5078L28.0273 78.9932L26.1289 79.1992L23.1992 79.7148L23.0703 79.7266H20.082L17.1055 80.0078L14.2109 80.4766H14.1875L11.2109 80.8867L11.0469 80.9102L8.14062 80.9922L8 79.5039L7.85938 78.0039L7.95312 77.9922H8.05859L10.8594 77.9102L13.7422 77.5117L16.7188 77.043H16.8008L19.7773 76.7383L19.8594 76.7266H22.8359L25.6602 76.2461L25.7539 76.2227L28.7422 75.9062H28.7656L31.7422 75.6367L34.6484 75.2383L34.7305 75.2266H34.8008L37.7305 75.1211L40.7188 74.8633L40.7422 74.8516H40.7656L43.6836 74.6992L46.6719 74.3828V74.3945L49.6133 73.9844L49.6836 73.9727H49.7656L52.7656 73.8789H52.7773L55.7773 73.8086H55.8242L58.8008 73.832L61.8008 73.7852L61.9062 73.7734L62.0234 73.7969ZM58.8477 76.832H58.8125L55.8359 76.8086L52.8594 76.8789L49.9414 76.9609L47.0352 77.3594L47.0117 77.3711H46.9883L44.0225 77.6846L44.0586 79.4648V79.5117L44.0234 82.5117V82.6172L43.7773 85.6172L43.7656 85.6055L43.7422 88.3711L44.1641 91.2891L44.1875 91.4648L44.1641 91.6523L43.8711 94.5352L44.0938 97.3828V97.582L43.9297 100.582L43.918 100.57V103.594L43.7305 106.5L43.8613 107.729L46.6367 107.113L46.918 107.055L47.1875 107.09L50.1992 107.547L50.3984 107.582L50.5859 107.664L53.3633 108.918L53.4805 108.977L53.5859 109.047L55.8828 110.605L58.332 111.391L60.9102 111.836L63.2188 111.168L65.5039 109.598L65.6211 109.516L65.7617 109.457L68.5156 108.238L68.6094 108.191L68.7031 108.168L71.5742 107.324L71.8555 107.242L72.1367 107.266L75.125 107.535L75.2188 107.547L75.3242 107.57L78.2773 108.262L78.6641 108.344L78.9453 108.613L80.9844 110.477L83.375 111.391L86.0117 111.73L88.5195 111.332L89.0908 111.054L89.0938 111.031L88.8711 108.113L88.8594 107.984L88.8711 107.844L89.1758 105.055L88.7656 102.219L88.7422 102.102V101.984L88.7773 98.9844L88.7891 98.9258V98.8789L89.0352 95.9844H89.0234L89.0586 92.9844V92.9375L89.1875 89.9375H89.1992V87.043L88.8828 84.1602L88.8711 84.043V83.9258L89.0117 80.9258L89.0029 78.8691L88.6133 78.8359V78.8242L85.6836 78.7188H85.5078L85.3555 78.6719L82.625 77.9453L79.7891 77.957H79.6836L79.5781 77.9453L76.6602 77.5352L73.7656 77.4766H73.6602L73.5664 77.4648L70.707 76.9961L67.8828 77.1367H67.8477L64.8477 77.1953H64.7305L64.6016 77.1836L61.7773 76.7852L58.8477 76.832ZM40.9648 77.8398L40.9766 77.8516L37.9883 78.1094H37.918L34.9062 78.2266L34.8945 78.2148L32.082 78.6133L32.0586 78.625H32.0234L31.0225 78.7109L31.0586 80.4727V80.5195L31.0234 83.5195V83.625L30.7773 86.625L30.7656 86.6133L30.7422 89.3672L31.1641 92.2852L31.1875 92.4727L31.1641 92.6602L30.8711 95.543L31.0938 98.3906V98.5781L30.9297 101.578L30.918 101.566V104.59L30.7305 107.461L31.0352 109.816L31.1924 111.075L33.1016 111.461L35.6914 111.508L38.1289 110.711L40.5781 109.27L40.625 109.234L40.6836 109.211L41.002 109.052L40.7422 106.652L40.7305 106.535V106.406L40.918 103.406H40.9297V100.418L41.0938 97.5234L40.8711 94.6172L40.8594 94.4766L40.8711 94.3477L41.1758 91.5469L40.7656 88.7109L40.7422 88.5938V88.4766L40.7773 85.4766L40.7891 85.4297V85.3828L41.0352 82.4883H41.0234L41.0586 79.5117L41.0244 77.8359L40.9648 77.8398ZM29.0723 110.067L29.5 110.315V110.016L29.0723 110.067ZM92.0117 80.9961V81.0664L91.8711 83.9844L92.1875 86.8438L92.1992 86.9258V87.0078L92.1875 90.0078V90.0664L92.0586 93.0664L92.0469 93.0547L92.0234 96.0195V96.125L91.7773 99.125L91.7656 99.1133L91.7422 101.867L92.1641 104.785L92.1875 104.973L92.1641 105.16L91.8711 108.043L91.9756 109.391L93.207 108.496L93.3828 108.367L93.6055 108.297L96.4414 107.324L99.2422 106.281L99.6289 106.141L100.027 106.211L101.902 106.549L101.766 105.758L101.742 105.617V105.477L101.777 102.477L101.789 102.43V102.383L102.035 99.4883H102.023L102.059 96.4883V96.4414L102.188 93.4414H102.199V90.5469L101.883 87.6641L101.871 87.5469V87.4297L102.012 84.5L101.859 81.582V81.4297L101.923 80.1064L100.449 79.7969L97.6016 79.5273L94.6133 79.3164H94.6016L92.0039 79.1221L92.0117 80.9961ZM31 18.1992L30.8008 21.0352L30.8037 21.1123L32.0352 21.1992L34.918 21.082V21.0703L37.918 20.8945H37.9883L40.8125 20.8828L41 18H44V18.1992L43.8008 21.0352L43.918 23.918H43.9297L43.9863 24.8984L44.4883 24.8477L44.5 24.9414L44.5117 25.0586V25.1641L44.3828 27.9883L44.7109 30.7422L45.2734 33.6836L45.8477 36.6016L45.8594 36.625V36.6484L46.3164 39.4258L47.4297 42.0039L48.625 44.6289L49.9961 47.1367L51.7422 49.457L52.9238 51H53L53.0068 51.1084L53.4648 51.707L55.5742 53.6875L57.7305 55.3633L60.1797 56.582L62.8398 57.3789H62.8516L65.6289 58.0703L68.3359 58.3281L71.125 58.2461L73.8789 57.6367L76.5742 56.9922L78.8008 55.6211L80.8984 53.6758L80.9453 53.6289L83.0195 51.8008L84.4727 49.4453L85.7734 47.0664L86.3945 44.3477L86.418 44.2422L86.4531 44.1484L87.4492 41.5352L87.543 38.8867L87.4961 37.5742L88.9082 37.5293L88.8125 35.0586L88.8008 34.9766L88.8125 34.8945L89 32H92V32.1992L91.8008 35.0352L91.8438 36.1152L93.0352 36.1992L95.918 36.082V36.0703L98.918 35.8945H98.9883L101.844 35.8828L101.812 35.0586L101.801 34.9766L101.812 34.8945L102 32H105V32.1992L104.801 35.0352L104.918 37.918H104.93L105.105 40.918V40.9883L105.112 42.7402L105.461 42.6602L105.859 44.3711L105.871 44.3945V44.418L106.469 47.3594L106.48 47.3828V47.4062L106.961 50.1953L108.027 52.8672L108.051 52.9375L109.012 55.75L109.996 58.5039L111.18 60.9062L113.043 62.875L113.184 63.0273L113.289 63.2148L113.336 63.3086L112 64L111.695 64.1523L110.863 64.9492L108.848 62.8281L108.695 62.6641L108.59 62.4531L107.254 59.7578L107.184 59.5938L106.188 56.7578L106.176 56.7461L105.238 53.9805L105.079 53.585L105.07 55.9414L105.188 58.9414L105.199 59.0117L105.188 59.0938L105.012 62.0938L105 62.082L104.988 65.0117V65.0586L104.883 67.9531L104.896 68.0684L106.754 67.7539L106.965 67.7188L107.176 67.7422L110.082 68.0938L112.086 68.2109L112.016 69.5H113.504V71.293L111.922 71.1992L109.918 71.0938H109.871L109.824 71.082L107.023 70.7656L104.246 71.2227L104.035 71.2578L103.836 71.2344L100.941 70.918H98L95.0352 70.9883H95.0234L92.0234 71.0469H92.0117L89.0703 71.0586L89.082 71.0703L86.082 71.2461L85.918 71.2578L85.7539 71.2227L82.9414 70.7656L80.1523 71.0469L80.0469 71.0586H79.9297L77.0117 70.9297L74.082 71.082H73.9648L73.8477 71.0703L70.9883 70.8008L68.1406 71.0586H68.082L65.082 71.2109L64.9531 71.2227L64.8125 71.2109L61.918 70.8594L59.0234 70.9062H58.9766L55.9766 70.8477L52.9883 70.8359H52.9766L49.9766 70.7891L47.1172 71.0117L47.082 71.0234H47.0469L44.0469 71.1172H43.9414L40.9414 71.0117V71L37.9883 70.9883H37.9062L34.9648 70.8125L32.0586 70.9297H29L26.1055 70.9414L23.1172 71.1641L22.9883 71.1758L22.8594 71.1641L19.9766 70.8945H17L14.082 71.0586L14.0703 71.0703H14.0586L11.0586 71.1875L10.9766 71.1992L10.8945 71.1875L8 71V68H8.19922L11.0352 68.1992L13.918 68.082V68.0703L16.918 67.8945H16.9883L19.9883 67.8828L20.0703 67.8711L20.1406 67.8828L23.0234 68.1758L25.8828 67.9414H25.9883L28.1201 67.9238L28.1523 65.9766H28.1641V62.9766L28.2109 59.9766H28.2227L27.9883 57.1172L27.9766 57.082V57.0469L27.8828 54.0469V53.9414L27.9883 50.9414H28L28.0117 47.9883V47.9062L28.1992 44.9648L28.0703 42.0586V41.9883L28.082 39L28.0703 36.1055L27.957 34.668L26.7383 37.6914L26.7148 37.7383L26.6914 37.7969L25.3438 40.4805L24.2188 43.1523L24.1719 43.2695L22.7891 45.918L22.7773 45.9414L22.7656 45.9531L21.3242 48.543L21.3359 48.5547L19.918 51.2148L19.8477 51.3672L19.7305 51.4961L17.7617 53.7812L17.75 53.7695L15.9102 56.0664L15.8984 56.0781L15.8867 56.1016L13.9531 58.3867L13.8945 58.457L13.8242 58.5156L11.6328 60.5781L11.5039 60.6953L11.3516 60.7773L8.82031 62.2305L8.29297 61.3164L8 61L6.98047 59.8984L7.05078 59.8398L7.17969 59.7109L7.33203 59.6289L9.71094 58.2578L11.7266 56.3594L13.6016 54.1562L15.4531 51.8594L15.4766 51.8359L15.4883 51.8125L17.3281 49.6797L18.6758 47.1484L18.6875 47.1367V47.125L20.1406 44.5L21.4531 41.9688L22.6133 39.2266L22.6602 39.1328L24.0078 36.4492L25.0859 33.7773L26.1758 31.0703L27.0078 28.2461L27.6172 25.4102L27.6641 25.1875L27.7812 24.9883L27.9746 24.6445L27.9414 24.082L27.9297 24.0703V24.0586L27.8125 21.0586L27.8008 20.9766L27.8125 20.8945L28 18H31V18.1992ZM88.668 47.9336L88.6211 48.1445L88.5156 48.332L87.0742 50.957L87.0508 50.9805L87.0391 51.0156L85.4688 53.582L85.3398 53.7695L85.1758 53.9219L84.5312 54.4824L84.6875 56.8945L84.6992 56.9766L84.6875 57.0586L84.5703 60.0586V60.0703L84.5586 60.082L84.3828 63L84.3945 63.0117L84.3828 65.9766L84.5791 67.9941L86.0469 68.2461L88.8828 68.0723V67.9414L88.9883 64.9414H89L89.0117 61.9883V61.9062L89.1992 58.9648L89.0703 56.0586V55.9883L89.082 53L89.0703 50.1055L88.8389 47.165L88.668 47.9336ZM61.1875 60.8945L61.1992 60.9766L61.1875 61.0586L61.0703 64.0586V64.0703L61.0586 64.082L60.8828 67L60.8945 67.0117L60.8887 67.8682L61.9766 67.8477H62.082L62.1875 67.8594L65.0352 68.2227L65.3984 68.2012L65.3945 68.1641L65.3828 68.0352L65.3945 67.918L65.5703 64.918H65.582L65.6992 62.0352L65.6318 61.0859L65.2305 61.0469L65.125 61.0352L65.0078 61.0117L62.125 60.2969L62.1016 60.2852L62.0664 60.2734L61.1289 59.998L61.1875 60.8945ZM44.0703 41.9414L44.1875 44.9414L44.1992 45.0117L44.1875 45.0938L44.0117 48.0938L44 48.082L43.9883 51.0117V51.0586L43.8828 54L43.9648 56.8828L44.2109 59.8828V60.0234L44.1641 63.0234L44.1523 63.0117V66.0234L44.1113 68.1133L46.8828 68.0352L49.8828 67.7891H50.0303L50.1758 66.0234L49.8828 63.1406L49.8711 63.0703L49.8828 62.9883L49.8945 59.9883V59.918L50.0703 56.918H50.082L50.1992 54.0352L50.0693 52.1992L49.3633 51.2734L49.3516 51.2617L47.5469 48.8828L47.4297 48.6953L45.9883 46.0703L45.9648 46.0234L45.9414 45.9648L44.6992 43.2461V43.2344L44.6875 43.2227L44.0703 41.7959V41.9414ZM80.7578 57.9062L80.6523 58.0117L80.5352 58.0938L77.957 59.6875L77.7578 59.8164L77.5117 59.875L76.6338 60.0771L76.6875 60.8945L76.6992 60.9766L76.6875 61.0586L76.5703 64.0586V64.0703L76.5586 64.082L76.3828 67L76.3945 67.0117L76.3887 67.957L76.918 67.9297L76.9883 67.918L77.0703 67.9297L79.9883 68.0586L81.5537 67.8916L81.3828 66.1406L81.3711 66.0703L81.3828 65.9883L81.3945 62.9883V62.918L81.5703 59.918H81.582L81.6992 57.0352L81.6982 57.0264L80.7578 57.9062ZM102.012 55.8828L99.0117 55.8945H99L96.082 56.0586L96.0703 56.0703H96.0586L93.0586 56.1875L92.9766 56.1992L92.8945 56.1875L92.0771 56.1338L92.1875 58.9414L92.1992 59.0117L92.1875 59.0938L92.0117 62.0938L92 62.082L91.9883 65.0117V65.0586L91.8828 67.9531L91.8887 68.0586H91.9766V68.0469L94.9648 68V67.9883L97.9648 67.918H98L101 67.9062H101.164L101.883 67.9912V67.9414L101.988 64.9414H102L102.012 61.9883V61.9062L102.199 58.9648L102.07 56.0586V55.9883L102.076 54.5H102L102.012 55.8828ZM71.6406 61.2109L71.5 61.2344L71.3711 61.2461L68.6504 61.3311L68.6875 61.8945L68.6992 61.9766L68.6875 62.0586L68.5703 65.0586V65.0703L68.5586 65.082L68.3828 67.918L68.3945 68.0244L70.8594 67.7891L71 67.7773L71.1523 67.7891L73.3877 68.0195L73.3945 66.9883V66.918L73.5703 63.918H73.582L73.6992 61.0352L73.6797 60.7578L71.6406 61.2109ZM38.0117 49.8945H38L35.082 50.0586L35.0703 50.0703H35.0586L32.0586 50.1875L31.9766 50.1992L31.8945 50.1875L30.9912 50.1289L30.9883 51.0117V51.0586L30.8828 54L30.9648 56.8828L31.2109 59.8828V60.0234L31.1641 63.0234L31.1523 63.0117V66.0234L31.1143 67.9258L31.9414 67.9297L34.9414 67.8125L35.0117 67.8008L35.0938 67.8125L38.0938 67.9883L38.082 68L41.0117 68.0117H41.0586L41.1123 68.0127L41.1523 65.9766H41.1641V62.9766L41.2109 59.9766H41.2227L40.9883 57.1172L40.9766 57.082V57.0469L40.8828 54.0469V53.9414L40.9883 50.9414H41L41.0039 49.8828L38.0117 49.8945ZM53.0703 57.0586V57.0703L53.0586 57.082L52.8828 60L52.8945 60.0117L52.8828 62.9766L53.1641 65.8594L53.1758 65.9883L53.1641 66.1172L53.0352 67.8477H56.0234L57.8887 67.8838L57.8945 66.9883V66.918L58.0703 63.918H58.082L58.1992 61.0352L58.0469 58.873L56.2539 57.9766L56.125 57.918L56.0078 57.8242L53.6406 55.9844L53.582 55.9375L53.5352 55.8906L53.1299 55.5117L53.0703 57.0586ZM99.0117 38.8945H99L96.082 39.0586L96.0703 39.0703H96.0586L93.0586 39.1875L92.9766 39.1992L92.8945 39.1875L92 39.1289L92.1055 40.918V40.9883L92.1172 43.9883L92.1289 44.0703L92.1172 44.1406L91.8242 47.0234L92.0586 49.8828V49.9883L92.082 52.9883V53.0117L92.0811 53.1318L93.0352 53.1992L95.918 53.082V53.0703L98.918 52.8945H98.9883L101.988 52.8828L102.081 52.8818L102.07 50.1055L101.836 47.1172L101.824 46.9883L101.836 46.8594L102.117 43.9766L102.105 41.0117L102.117 41L101.989 38.8828L99.0117 38.8945ZM41.0059 49.2783L41.0098 48.5H41L41.0059 49.2783ZM38.0117 23.8945H38L35.082 24.0586L35.0703 24.0703H35.0586L32.0586 24.1875L31.9766 24.1992L31.8945 24.1875L30.9414 24.125L31.1055 26.918V26.9883L31.1172 29.9883L31.1289 30.0703L31.1172 30.1406L30.8242 33.0234L31.0586 35.8828V35.9883L31.082 38.9883V39.0117L31.0703 41.9414L31.1875 44.9414L31.1992 45.0117L31.1875 45.0938L31.0674 47.1309L32.0352 47.1992L34.918 47.082V47.0703L37.918 46.8945H37.9883L40.9883 46.8828L41.0762 46.8818L41.1992 44.9648L41.0703 42.0586V41.9883L41.082 39L41.0703 36.1055L40.8359 33.1172L40.8242 32.9883L40.8359 32.8594L41.1172 29.9766L41.1055 27.0117L41.1172 27L40.9297 24.082V24.0586L40.9219 23.8828L38.0117 23.8945Z" fill="black"/>
</svg>
