<svg width="120" height="120" viewBox="0 0 120 120" fill="none" xmlns="http://www.w3.org/2000/svg">
<path d="M8.1 116V117.5H8.13227L8.16451 117.499L8.1 116ZM10.64 115.891L10.797 114.399L10.6865 114.387L10.5755 114.392L10.64 115.891ZM13.28 116.169L13.123 117.66L13.2739 117.676L13.425 117.662L13.28 116.169ZM15.92 115.912L15.8596 114.413L15.8172 114.415L15.775 114.419L15.92 115.912ZM18.56 115.806L18.6763 114.31L18.588 114.303L18.4996 114.307L18.56 115.806ZM21.2 116.011L21.0837 117.507L21.1392 117.511L21.1948 117.511L21.2 116.011ZM23.84 116.02L23.8348 117.52L23.8912 117.52L23.9474 117.516L23.84 116.02ZM26.48 115.831L26.5223 114.331L26.4473 114.329L26.3726 114.334L26.48 115.831ZM29.12 115.905L29.2963 114.415L29.2295 114.408L29.1623 114.406L29.12 115.905ZM31.76 116.217L31.5837 117.707L31.7941 117.732L32.0032 117.698L31.76 116.217ZM34.4 115.784L34.4793 114.286L34.3171 114.277L34.1568 114.303L34.4 115.784ZM37.04 115.923L36.9607 117.421L37.0493 117.426L37.1379 117.42L37.04 115.923ZM39.68 115.751L39.8617 114.262L39.7223 114.245L39.5821 114.254L39.68 115.751ZM42.32 116.073L42.1383 117.562L42.2533 117.576L42.3692 117.572L42.32 116.073ZM44.96 115.986L44.9117 114.487L44.9108 114.487L44.96 115.986ZM47.6 115.901L47.6483 117.401L47.6707 117.4L47.693 117.398L47.6 115.901ZM50.24 115.737L50.5012 114.26L50.3253 114.229L50.147 114.24L50.24 115.737ZM52.88 116.204L52.6188 117.681L52.879 117.727L53.1393 117.682L52.88 116.204ZM55.52 115.741L55.6608 114.247L55.4596 114.228L55.2606 114.263L55.52 115.741ZM58.16 115.99L58.0192 117.483L58.1299 117.493L58.2409 117.487L58.16 115.99ZM60.8 115.847L61.0126 114.362L60.8665 114.341L60.7191 114.349L60.8 115.847ZM63.44 116.225L63.2274 117.71L63.4714 117.745L63.7137 117.7L63.44 116.225ZM66.08 115.735L66.1582 114.237L65.9809 114.228L65.8063 114.26L66.08 115.735ZM68.72 115.873L68.6418 117.371L68.6647 117.372L68.6878 117.373L68.72 115.873ZM71.36 115.93L71.3278 117.429L71.3564 117.43L71.3849 117.429L71.36 115.93ZM74 115.886L74.185 114.397L74.0804 114.384L73.975 114.386L74 115.886ZM76.64 116.214L76.455 117.702L76.6155 117.722L76.7765 117.708L76.64 116.214ZM79.28 115.973L79.2685 114.473L79.2059 114.473L79.1435 114.479L79.28 115.973ZM81.92 115.952L82.0888 114.462L81.9989 114.452L81.9085 114.452L81.92 115.952ZM84.56 116.251L84.3912 117.742L84.5876 117.764L84.783 117.735L84.56 116.251ZM87.2 115.854L87.2734 114.356L87.1245 114.349L86.977 114.371L87.2 115.854ZM89.84 115.984L89.9255 114.486L89.9134 114.486L89.84 115.984ZM92.48 116.135L92.3945 117.632L92.4978 117.638L92.6008 117.63L92.48 116.135ZM95.12 115.921L95.1099 114.421L95.0544 114.422L94.9992 114.426L95.12 115.921ZM97.76 115.903L97.9616 114.417L97.8562 114.403L97.7499 114.403L97.76 115.903ZM100.4 116.261L100.198 117.748L100.434 117.78L100.667 117.737L100.4 116.261ZM103.04 115.784L103.284 114.304L103.028 114.262L102.773 114.308L103.04 115.784ZM105.68 116.219L105.436 117.699L105.576 117.722L105.719 117.718L105.68 116.219ZM108.32 116.151L108.359 117.65L108.453 117.648L108.546 117.634L108.32 116.151ZM110.96 115.748L111.313 114.29L111.026 114.221L110.734 114.265L110.96 115.748ZM8 116V117.5H8.1V116V114.5H8V116ZM8.1 116L8.16451 117.499L10.7045 117.389L10.64 115.891L10.5755 114.392L8.03549 114.501L8.1 116ZM10.64 115.891L10.483 117.382L13.123 117.66L13.28 116.169L13.437 114.677L10.797 114.399L10.64 115.891ZM13.28 116.169L13.425 117.662L16.065 117.405L15.92 115.912L15.775 114.419L13.135 114.676L13.28 116.169ZM15.92 115.912L15.9804 117.411L18.6204 117.305L18.56 115.806L18.4996 114.307L15.8596 114.413L15.92 115.912ZM18.56 115.806L18.4437 117.301L21.0837 117.507L21.2 116.011L21.3163 114.516L18.6763 114.31L18.56 115.806ZM21.2 116.011L21.1948 117.511L23.8348 117.52L23.84 116.02L23.8452 114.52L21.2052 114.511L21.2 116.011ZM23.84 116.02L23.9474 117.516L26.5874 117.327L26.48 115.831L26.3726 114.334L23.7326 114.524L23.84 116.02ZM26.48 115.831L26.4377 117.33L29.0777 117.404L29.12 115.905L29.1623 114.406L26.5223 114.331L26.48 115.831ZM29.12 115.905L28.9437 117.395L31.5837 117.707L31.76 116.217L31.9363 114.728L29.2963 114.415L29.12 115.905ZM31.76 116.217L32.0032 117.698L34.6432 117.264L34.4 115.784L34.1568 114.303L31.5168 114.737L31.76 116.217ZM34.4 115.784L34.3207 117.282L36.9607 117.421L37.04 115.923L37.1193 114.426L34.4793 114.286L34.4 115.784ZM37.04 115.923L37.1379 117.42L39.7779 117.248L39.68 115.751L39.5821 114.254L36.9421 114.427L37.04 115.923ZM39.68 115.751L39.4983 117.24L42.1383 117.562L42.32 116.073L42.5017 114.584L39.8617 114.262L39.68 115.751ZM42.32 116.073L42.3692 117.572L45.0092 117.486L44.96 115.986L44.9108 114.487L42.2708 114.574L42.32 116.073ZM44.96 115.986L45.0083 117.486L47.6483 117.401L47.6 115.901L47.5517 114.402L44.9117 114.487L44.96 115.986ZM47.6 115.901L47.693 117.398L50.333 117.234L50.24 115.737L50.147 114.24L47.507 114.404L47.6 115.901ZM50.24 115.737L49.9788 117.214L52.6188 117.681L52.88 116.204L53.1412 114.727L50.5012 114.26L50.24 115.737ZM52.88 116.204L53.1393 117.682L55.7793 117.218L55.52 115.741L55.2606 114.263L52.6207 114.727L52.88 116.204ZM55.52 115.741L55.3792 117.234L58.0192 117.483L58.16 115.99L58.3008 114.496L55.6608 114.247L55.52 115.741ZM58.16 115.99L58.2409 117.487L60.8809 117.345L60.8 115.847L60.7191 114.349L58.0791 114.492L58.16 115.99ZM60.8 115.847L60.5874 117.332L63.2274 117.71L63.44 116.225L63.6526 114.74L61.0126 114.362L60.8 115.847ZM63.44 116.225L63.7137 117.7L66.3537 117.21L66.08 115.735L65.8063 114.26L63.1663 114.75L63.44 116.225ZM66.08 115.735L66.0018 117.233L68.6418 117.371L68.72 115.873L68.7982 114.375L66.1582 114.237L66.08 115.735ZM68.72 115.873L68.6878 117.373L71.3278 117.429L71.36 115.93L71.3922 114.43L68.7522 114.373L68.72 115.873ZM71.36 115.93L71.3849 117.429L74.0249 117.386L74 115.886L73.975 114.386L71.335 114.43L71.36 115.93ZM74 115.886L73.815 117.374L76.455 117.702L76.64 116.214L76.825 114.725L74.185 114.397L74 115.886ZM76.64 116.214L76.7765 117.708L79.4165 117.466L79.28 115.973L79.1435 114.479L76.5035 114.72L76.64 116.214ZM79.28 115.973L79.2915 117.473L81.9315 117.452L81.92 115.952L81.9085 114.452L79.2685 114.473L79.28 115.973ZM81.92 115.952L81.7512 117.443L84.3912 117.742L84.56 116.251L84.7288 114.761L82.0888 114.462L81.92 115.952ZM84.56 116.251L84.783 117.735L87.423 117.338L87.2 115.854L86.977 114.371L84.337 114.768L84.56 116.251ZM87.2 115.854L87.1266 117.353L89.7666 117.482L89.84 115.984L89.9134 114.486L87.2734 114.356L87.2 115.854ZM89.84 115.984L89.7545 117.481L92.3945 117.632L92.48 116.135L92.5655 114.637L89.9255 114.486L89.84 115.984ZM92.48 116.135L92.6008 117.63L95.2408 117.416L95.12 115.921L94.9992 114.426L92.3592 114.639L92.48 116.135ZM95.12 115.921L95.1301 117.421L97.7701 117.403L97.76 115.903L97.7499 114.403L95.1099 114.421L95.12 115.921ZM97.76 115.903L97.5584 117.39L100.198 117.748L100.4 116.261L100.602 114.775L97.9616 114.417L97.76 115.903ZM100.4 116.261L100.667 117.737L103.307 117.26L103.04 115.784L102.773 114.308L100.133 114.785L100.4 116.261ZM103.04 115.784L102.796 117.264L105.436 117.699L105.68 116.219L105.924 114.738L103.284 114.304L103.04 115.784ZM105.68 116.219L105.719 117.718L108.359 117.65L108.32 116.151L108.281 114.651L105.641 114.719L105.68 116.219ZM108.32 116.151L108.546 117.634L111.186 117.231L110.96 115.748L110.734 114.265L108.094 114.668L108.32 116.151ZM110.96 115.748L110.607 117.206L111.647 117.458L112 116L112.353 114.542L111.313 114.29L110.96 115.748Z" fill="black"/>
<path d="M51.9713 96.0958L50.5345 95.6648L50.5253 95.6957L50.5173 95.7269L51.9713 96.0958ZM51.3461 98.5601L52.7298 99.1391L52.7727 99.0366L52.8001 98.9289L51.3461 98.5601ZM50.3213 101.009L48.9376 100.43L48.879 100.57L48.8497 100.719L50.3213 101.009ZM49.8083 103.611L51.2612 103.984L51.2718 103.943L51.28 103.901L49.8083 103.611ZM49.1516 106.17L50.5506 106.712L50.5826 106.629L50.6046 106.543L49.1516 106.17ZM48.1964 108.64L46.7974 108.099L46.7773 108.151L46.7612 108.204L48.1964 108.64ZM47.4291 111.166L45.9938 110.73L45.9775 110.784L45.9652 110.839L47.4291 111.166ZM46.852 113.749L48.2949 114.159L48.3066 114.118L48.316 114.076L46.852 113.749ZM46.2394 115.905L44.7965 115.495L44.3154 117.188L46.0631 117.395L46.2394 115.905ZM48.8794 116.217L48.7031 117.707L48.9135 117.732L49.1226 117.698L48.8794 116.217ZM51.5194 115.784L51.5987 114.286L51.4365 114.277L51.2762 114.303L51.5194 115.784ZM54.1594 115.923L54.0801 117.421L54.1687 117.426L54.2573 117.42L54.1594 115.923ZM56.7994 115.751L56.9811 114.262L56.8417 114.245L56.7015 114.254L56.7994 115.751ZM59.4394 116.073L59.2577 117.562L59.3727 117.576L59.4886 117.572L59.4394 116.073ZM62.0794 115.986L62.0311 114.487L62.0302 114.487L62.0794 115.986ZM64.7194 115.901L64.7677 117.401L64.79 117.4L64.8124 117.398L64.7194 115.901ZM67.3594 115.737L67.6206 114.26L67.4447 114.229L67.2664 114.24L67.3594 115.737ZM69.9994 116.204L69.7382 117.681L69.9984 117.727L70.2587 117.682L69.9994 116.204ZM72.6394 115.741L72.8987 117.218L73.3569 117.138L73.6892 116.812L72.6394 115.741ZM73.6225 114.778L74.6723 115.849L75.3598 115.175L75.0339 114.27L73.6225 114.778ZM72.7273 112.29L71.244 112.513L71.2659 112.659L71.3159 112.798L72.7273 112.29ZM72.3307 109.653L73.814 109.43L73.7774 109.186L73.6647 108.967L72.3307 109.653ZM71.1028 107.265L69.6455 107.62L69.6876 107.793L69.7688 107.951L71.1028 107.265ZM70.4763 104.696L71.9336 104.341L71.9281 104.319L71.922 104.296L70.4763 104.696ZM69.772 102.151L71.2177 101.751L71.2101 101.724L71.2014 101.697L69.772 102.151ZM68.9714 99.6354L67.4924 99.886L67.51 99.9899L67.542 100.09L68.9714 99.6354ZM68.527 97.0125L70.006 96.7619L69.9665 96.5293L69.8576 96.3199L68.527 97.0125ZM52 96L50.5633 95.569L50.5345 95.6648L51.9713 96.0958L53.408 96.5268L53.4367 96.431L52 96ZM51.9713 96.0958L50.5173 95.7269L49.8922 98.1912L51.3461 98.5601L52.8001 98.9289L53.4252 96.4646L51.9713 96.0958ZM51.3461 98.5601L49.9624 97.981L48.9376 100.43L50.3213 101.009L51.7051 101.588L52.7298 99.1391L51.3461 98.5601ZM50.3213 101.009L48.8497 100.719L48.3366 103.321L49.8083 103.611L51.28 103.901L51.793 101.299L50.3213 101.009ZM49.8083 103.611L48.3554 103.238L47.6987 105.798L49.1516 106.17L50.6046 106.543L51.2612 103.984L49.8083 103.611ZM49.1516 106.17L47.7526 105.629L46.7974 108.099L48.1964 108.64L49.5954 109.181L50.5506 106.712L49.1516 106.17ZM48.1964 108.64L46.7612 108.204L45.9938 110.73L47.4291 111.166L48.8643 111.602L49.6317 109.076L48.1964 108.64ZM47.4291 111.166L45.9652 110.839L45.3881 113.422L46.852 113.749L48.316 114.076L48.893 111.493L47.4291 111.166ZM46.852 113.749L45.4092 113.339L44.7965 115.495L46.2394 115.905L47.6822 116.315L48.2949 114.159L46.852 113.749ZM46.2394 115.905L46.0631 117.395L48.7031 117.707L48.8794 116.217L49.0556 114.728L46.4156 114.415L46.2394 115.905ZM48.8794 116.217L49.1226 117.698L51.7626 117.264L51.5194 115.784L51.2762 114.303L48.6362 114.737L48.8794 116.217ZM51.5194 115.784L51.4401 117.282L54.0801 117.421L54.1594 115.923L54.2387 114.426L51.5987 114.286L51.5194 115.784ZM54.1594 115.923L54.2573 117.42L56.8973 117.248L56.7994 115.751L56.7015 114.254L54.0615 114.427L54.1594 115.923ZM56.7994 115.751L56.6177 117.24L59.2577 117.562L59.4394 116.073L59.6211 114.584L56.9811 114.262L56.7994 115.751ZM59.4394 116.073L59.4886 117.572L62.1286 117.486L62.0794 115.986L62.0302 114.487L59.3902 114.574L59.4394 116.073ZM62.0794 115.986L62.1277 117.486L64.7677 117.401L64.7194 115.901L64.6711 114.402L62.0311 114.487L62.0794 115.986ZM64.7194 115.901L64.8124 117.398L67.4524 117.234L67.3594 115.737L67.2664 114.24L64.6264 114.404L64.7194 115.901ZM67.3594 115.737L67.0982 117.214L69.7382 117.681L69.9994 116.204L70.2606 114.727L67.6206 114.26L67.3594 115.737ZM69.9994 116.204L70.2587 117.682L72.8987 117.218L72.6394 115.741L72.38 114.263L69.74 114.727L69.9994 116.204ZM72.6394 115.741L73.6892 116.812L74.6723 115.849L73.6225 114.778L72.5727 113.706L71.5896 114.669L72.6394 115.741ZM73.6225 114.778L75.0339 114.27L74.1387 111.782L72.7273 112.29L71.3159 112.798L72.2111 115.285L73.6225 114.778ZM72.7273 112.29L74.2106 112.067L73.814 109.43L72.3307 109.653L70.8474 109.876L71.244 112.513L72.7273 112.29ZM72.3307 109.653L73.6647 108.967L72.4368 106.579L71.1028 107.265L69.7688 107.951L70.9968 110.339L72.3307 109.653ZM71.1028 107.265L72.5601 106.909L71.9336 104.341L70.4763 104.696L69.019 105.052L69.6455 107.62L71.1028 107.265ZM70.4763 104.696L71.922 104.296L71.2177 101.751L69.772 102.151L68.3264 102.552L69.0306 105.096L70.4763 104.696ZM69.772 102.151L71.2014 101.697L70.4007 99.1806L68.9714 99.6354L67.542 100.09L68.3427 102.606L69.772 102.151ZM68.9714 99.6354L70.4503 99.3849L70.006 96.7619L68.527 97.0125L67.0481 97.263L67.4924 99.886L68.9714 99.6354ZM68.527 97.0125L69.8576 96.3199L69.3305 95.3074L68 96L66.6695 96.6926L67.1965 97.7051L68.527 97.0125Z" fill="black"/>
<path d="M51.9733 95.9036L53.3865 95.4008L53.4045 95.4514L53.4189 95.5032L51.9733 95.9036ZM51.121 93.5082L52.4478 92.8084L52.4981 92.9038L52.5343 93.0054L51.121 93.5082ZM49.8825 91.1602L48.5558 91.8601L48.485 91.7258L48.4425 91.5801L49.8825 91.1602ZM49.1401 88.6139L50.5541 88.1133L50.5683 88.1533L50.5802 88.194L49.1401 88.6139ZM48.2584 86.1232L46.8444 86.6237L46.1807 84.7487L48.1659 84.626L48.2584 86.1232ZM50.4297 85.9889L50.3371 84.4918L50.3808 84.4891L50.4245 84.489L50.4297 85.9889ZM53.0697 85.9798L53.0645 84.4798L53.1209 84.4796L53.1771 84.4837L53.0697 85.9798ZM55.7097 86.1694L55.7519 87.6688L55.677 87.6709L55.6022 87.6655L55.7097 86.1694ZM58.3497 86.095L58.5259 87.5846L58.4591 87.5925L58.3919 87.5944L58.3497 86.095ZM60.9897 85.7826L60.8134 84.293L61.0238 84.2681L61.2329 84.3024L60.9897 85.7826ZM63.6297 86.2164L63.709 87.7143L63.5468 87.7229L63.3865 87.6965L63.6297 86.2164ZM66.2697 86.0766L66.1904 84.5787L66.279 84.574L66.3676 84.5798L66.2697 86.0766ZM68.9097 86.2493L69.0914 87.7382L68.9519 87.7552L68.8118 87.7461L68.9097 86.2493ZM71.5497 85.9271L71.368 84.4381L73.3836 84.1921L73.0263 86.191L71.5497 85.9271ZM71.1741 88.028L72.6507 88.2919L72.6194 88.4669L72.5481 88.6296L71.1741 88.028ZM70.1147 90.4476L71.4887 91.0492L71.4797 91.0697L71.4702 91.0899L70.1147 90.4476ZM68.982 92.8379L67.5135 92.5318L67.5499 92.3569L67.6264 92.1955L68.982 92.8379ZM68.435 95.4624L69.9034 95.7685L69.8294 96.1238L69.601 96.406L68.435 95.4624ZM52 96L50.5544 96.4005L50.5277 96.3041L51.9733 95.9036L53.4189 95.5032L53.4456 95.5995L52 96ZM51.9733 95.9036L50.5601 96.4064L49.7078 94.011L51.121 93.5082L52.5343 93.0054L53.3865 95.4008L51.9733 95.9036ZM51.121 93.5082L49.7943 94.208L48.5558 91.8601L49.8825 91.1602L51.2093 90.4604L52.4478 92.8084L51.121 93.5082ZM49.8825 91.1602L48.4425 91.5801L47.7001 89.0337L49.1401 88.6139L50.5802 88.194L51.3226 90.7404L49.8825 91.1602ZM49.1401 88.6139L47.7261 89.1144L46.8444 86.6237L48.2584 86.1232L49.6725 85.6226L50.5541 88.1133L49.1401 88.6139ZM48.2584 86.1232L48.1659 84.626L50.3371 84.4918L50.4297 85.9889L50.5222 87.4861L48.351 87.6203L48.2584 86.1232ZM50.4297 85.9889L50.4245 84.489L53.0645 84.4798L53.0697 85.9798L53.0749 87.4798L50.4349 87.4889L50.4297 85.9889ZM53.0697 85.9798L53.1771 84.4837L55.8171 84.6732L55.7097 86.1694L55.6022 87.6655L52.9622 87.476L53.0697 85.9798ZM55.7097 86.1694L55.6674 84.67L58.3074 84.5956L58.3497 86.095L58.3919 87.5944L55.7519 87.6688L55.7097 86.1694ZM58.3497 86.095L58.1734 84.6054L60.8134 84.293L60.9897 85.7826L61.1659 87.2722L58.5259 87.5846L58.3497 86.095ZM60.9897 85.7826L61.2329 84.3024L63.8729 84.7362L63.6297 86.2164L63.3865 87.6965L60.7465 87.2627L60.9897 85.7826ZM63.6297 86.2164L63.5504 84.7185L66.1904 84.5787L66.2697 86.0766L66.349 87.5745L63.709 87.7143L63.6297 86.2164ZM66.2697 86.0766L66.3676 84.5798L69.0076 84.7524L68.9097 86.2493L68.8118 87.7461L66.1718 87.5734L66.2697 86.0766ZM68.9097 86.2493L68.728 84.7603L71.368 84.4381L71.5497 85.9271L71.7314 87.416L69.0914 87.7382L68.9097 86.2493ZM71.5497 85.9271L73.0263 86.191L72.6507 88.2919L71.1741 88.028L69.6975 87.764L70.0731 85.6631L71.5497 85.9271ZM71.1741 88.028L72.5481 88.6296L71.4887 91.0492L70.1147 90.4476L68.7406 89.8459L69.8 87.4263L71.1741 88.028ZM70.1147 90.4476L71.4702 91.0899L70.3375 93.4802L68.982 92.8379L67.6264 92.1955L68.7591 89.8052L70.1147 90.4476ZM68.982 92.8379L70.4504 93.1439L69.9034 95.7685L68.435 95.4624L66.9665 95.1564L67.5135 92.5318L68.982 92.8379ZM68.435 95.4624L69.601 96.406L69.1661 96.9436L68 96L66.8339 95.0564L67.2689 94.5189L68.435 95.4624Z" fill="black"/>
<path d="M52 86V87.5H51.1444L50.7089 86.7636L52 86ZM52.1 86V84.5H52.1323L52.1645 84.5014L52.1 86ZM54.64 86.1093L54.797 87.6011L54.6865 87.6127L54.5755 87.6079L54.64 86.1093ZM57.28 85.8314L57.123 84.3397L57.2739 84.3238L57.425 84.3385L57.28 85.8314ZM59.92 86.0878L59.8596 87.5866L59.8172 87.5849L59.775 87.5808L59.92 86.0878ZM62.56 86.1942L62.6763 87.6897L62.588 87.6966L62.4996 87.693L62.56 86.1942ZM65.2 85.9889L65.0837 84.4935L65.1392 84.4891L65.1948 84.489L65.2 85.9889ZM67.84 85.9798L69.1499 86.7106L68.7225 87.4768L67.8452 87.4798L67.84 85.9798ZM69.0783 83.7603L70.4862 84.2779L70.4456 84.3884L70.3882 84.4911L69.0783 83.7603ZM69.9897 81.2815L71.4382 81.6711L71.4208 81.736L71.3976 81.7991L69.9897 81.2815ZM70.6801 78.7143L69.2316 78.3247L69.2866 78.1201L69.3962 77.9388L70.6801 78.7143ZM72.0634 76.4242L72.3782 74.9576L74.4349 75.3991L73.3473 77.1997L72.0634 76.4242ZM69.7303 75.9234L69.8282 74.4266L69.9378 74.4338L70.0451 74.4568L69.7303 75.9234ZM67.0903 75.7507L66.9086 74.2618L67.0481 74.2448L67.1882 74.2539L67.0903 75.7507ZM64.4503 76.0729L64.632 77.5619L64.517 77.5759L64.4012 77.5721L64.4503 76.0729ZM61.8103 75.9863L61.8586 74.4871L61.8595 74.4871L61.8103 75.9863ZM59.1703 75.9013L59.122 77.4005L59.0997 77.3998L59.0774 77.3984L59.1703 75.9013ZM56.5303 75.7373L56.2691 74.2603L56.445 74.2291L56.6233 74.2402L56.5303 75.7373ZM53.8903 76.2042L54.1516 77.6813L53.8913 77.7273L53.631 77.6816L53.8903 76.2042ZM51.2503 75.7408L51.1095 74.2474L51.3107 74.2285L51.5097 74.2634L51.2503 75.7408ZM48.6103 75.9897L47.1103 75.9908L47.1093 74.6245L48.4695 74.4963L48.6103 75.9897ZM48.6118 77.9413L47.3121 78.6901L47.1121 78.343L47.1118 77.9424L48.6118 77.9413ZM49.9432 80.2521L51.2429 79.5033L51.366 79.7168L51.4142 79.9585L49.9432 80.2521ZM50.4687 82.8853L49.107 83.5142L49.0325 83.353L48.9978 83.1788L50.4687 82.8853ZM51.5773 85.2852L50.2862 86.0488L50.2474 85.9833L50.2155 85.9142L51.5773 85.2852ZM52 86V84.5H52.1V86V87.5H52V86ZM52.1 86L52.1645 84.5014L54.7045 84.6107L54.64 86.1093L54.5755 87.6079L52.0355 87.4986L52.1 86ZM54.64 86.1093L54.483 84.6176L57.123 84.3397L57.28 85.8314L57.437 87.3232L54.797 87.6011L54.64 86.1093ZM57.28 85.8314L57.425 84.3385L60.065 84.5948L59.92 86.0878L59.775 87.5808L57.135 87.3244L57.28 85.8314ZM59.92 86.0878L59.9804 84.589L62.6204 84.6954L62.56 86.1942L62.4996 87.693L59.8596 87.5866L59.92 86.0878ZM62.56 86.1942L62.4437 84.6987L65.0837 84.4935L65.2 85.9889L65.3163 87.4844L62.6763 87.6897L62.56 86.1942ZM65.2 85.9889L65.1948 84.489L67.8348 84.4798L67.84 85.9798L67.8452 87.4798L65.2052 87.4889L65.2 85.9889ZM67.84 85.9798L66.5301 85.249L67.7684 83.0295L69.0783 83.7603L70.3882 84.4911L69.1499 86.7106L67.84 85.9798ZM69.0783 83.7603L67.6705 83.2427L68.5818 80.7638L69.9897 81.2815L71.3976 81.7991L70.4862 84.2779L69.0783 83.7603ZM69.9897 81.2815L68.5412 80.8919L69.2316 78.3247L70.6801 78.7143L72.1287 79.1039L71.4382 81.6711L69.9897 81.2815ZM70.6801 78.7143L69.3962 77.9388L70.7794 75.6487L72.0634 76.4242L73.3473 77.1997L71.9641 79.4898L70.6801 78.7143ZM72.0634 76.4242L71.7486 77.8908L69.4155 77.39L69.7303 75.9234L70.0451 74.4568L72.3782 74.9576L72.0634 76.4242ZM69.7303 75.9234L69.6324 77.4202L66.9924 77.2476L67.0903 75.7507L67.1882 74.2539L69.8282 74.4266L69.7303 75.9234ZM67.0903 75.7507L67.272 77.2397L64.632 77.5619L64.4503 76.0729L64.2686 74.584L66.9086 74.2618L67.0903 75.7507ZM64.4503 76.0729L64.4012 77.5721L61.7612 77.4855L61.8103 75.9863L61.8595 74.4871L64.4995 74.5737L64.4503 76.0729ZM61.8103 75.9863L61.762 77.4856L59.122 77.4005L59.1703 75.9013L59.2186 74.4021L61.8586 74.4871L61.8103 75.9863ZM59.1703 75.9013L59.0774 77.3984L56.4374 77.2344L56.5303 75.7373L56.6233 74.2402L59.2633 74.4042L59.1703 75.9013ZM56.5303 75.7373L56.7916 77.2144L54.1516 77.6813L53.8903 76.2042L53.6291 74.7271L56.2691 74.2603L56.5303 75.7373ZM53.8903 76.2042L53.631 77.6816L50.991 77.2182L51.2503 75.7408L51.5097 74.2634L54.1497 74.7268L53.8903 76.2042ZM51.2503 75.7408L51.3911 77.2342L48.7511 77.4831L48.6103 75.9897L48.4695 74.4963L51.1095 74.2474L51.2503 75.7408ZM48.6103 75.9897L50.1103 75.9885L50.1118 77.9401L48.6118 77.9413L47.1118 77.9424L47.1103 75.9908L48.6103 75.9897ZM48.6118 77.9413L49.9115 77.1925L51.2429 79.5033L49.9432 80.2521L48.6435 81.0009L47.3121 78.6901L48.6118 77.9413ZM49.9432 80.2521L51.4142 79.9585L51.9397 82.5917L50.4687 82.8853L48.9978 83.1788L48.4722 80.5457L49.9432 80.2521ZM50.4687 82.8853L51.8305 82.2563L52.939 84.6562L51.5773 85.2852L50.2155 85.9142L49.107 83.5142L50.4687 82.8853ZM51.5773 85.2852L52.8683 84.5216L53.2911 85.2364L52 86L50.7089 86.7636L50.2862 86.0488L51.5773 85.2852Z" fill="black"/>
<path d="M52 76V77.5H51.1444L50.7089 76.7636L52 76ZM52.1 76V74.5H52.1323L52.1645 74.5014L52.1 76ZM54.64 76.1093L54.797 77.6011L54.6865 77.6127L54.5755 77.6079L54.64 76.1093ZM57.28 75.8314L57.123 74.3397L57.2739 74.3238L57.425 74.3385L57.28 75.8314ZM59.92 76.0878L59.8596 77.5866L59.8172 77.5849L59.775 77.5808L59.92 76.0878ZM62.56 76.1942L62.6763 77.6897L62.588 77.6966L62.4996 77.693L62.56 76.1942ZM65.2 75.9889L65.0837 74.4935L65.1392 74.4891L65.1948 74.489L65.2 75.9889ZM67.84 75.9798L69.1499 76.7106L68.7225 77.4768L67.8452 77.4798L67.84 75.9798ZM69.0783 73.7603L70.4862 74.2779L70.4456 74.3884L70.3882 74.4911L69.0783 73.7603ZM69.9897 71.2815L71.4382 71.6711L71.4208 71.736L71.3976 71.7991L69.9897 71.2815ZM70.6801 68.7143L69.2316 68.3247L69.2866 68.1201L69.3962 67.9388L70.6801 68.7143ZM72.0634 66.4242L72.3782 64.9576L74.4349 65.3991L73.3473 67.1997L72.0634 66.4242ZM69.7303 65.9234L69.8282 64.4266L69.9378 64.4338L70.0451 64.4568L69.7303 65.9234ZM67.0903 65.7507L66.9086 64.2618L67.0481 64.2448L67.1882 64.2539L67.0903 65.7507ZM64.4503 66.0729L64.632 67.5619L64.517 67.5759L64.4012 67.5721L64.4503 66.0729ZM61.8103 65.9863L61.8586 64.4871L61.8595 64.4871L61.8103 65.9863ZM59.1703 65.9013L59.122 67.4005L59.0997 67.3998L59.0774 67.3984L59.1703 65.9013ZM56.5303 65.7373L56.2691 64.2603L56.445 64.2291L56.6233 64.2402L56.5303 65.7373ZM53.8903 66.2042L54.1516 67.6813L53.8913 67.7273L53.631 67.6816L53.8903 66.2042ZM51.2503 65.7408L51.1095 64.2474L51.3107 64.2285L51.5097 64.2634L51.2503 65.7408ZM48.6103 65.9897L47.1103 65.9908L47.1093 64.6245L48.4695 64.4963L48.6103 65.9897ZM48.6118 67.9413L47.3121 68.6901L47.1121 68.343L47.1118 67.9424L48.6118 67.9413ZM49.9432 70.2521L51.2429 69.5033L51.366 69.7168L51.4142 69.9585L49.9432 70.2521ZM50.4687 72.8853L49.107 73.5142L49.0325 73.353L48.9978 73.1788L50.4687 72.8853ZM51.5773 75.2852L50.2862 76.0488L50.2474 75.9833L50.2155 75.9142L51.5773 75.2852ZM52 76V74.5H52.1V76V77.5H52V76ZM52.1 76L52.1645 74.5014L54.7045 74.6107L54.64 76.1093L54.5755 77.6079L52.0355 77.4986L52.1 76ZM54.64 76.1093L54.483 74.6176L57.123 74.3397L57.28 75.8314L57.437 77.3232L54.797 77.6011L54.64 76.1093ZM57.28 75.8314L57.425 74.3385L60.065 74.5948L59.92 76.0878L59.775 77.5808L57.135 77.3244L57.28 75.8314ZM59.92 76.0878L59.9804 74.589L62.6204 74.6954L62.56 76.1942L62.4996 77.693L59.8596 77.5866L59.92 76.0878ZM62.56 76.1942L62.4437 74.6987L65.0837 74.4935L65.2 75.9889L65.3163 77.4844L62.6763 77.6897L62.56 76.1942ZM65.2 75.9889L65.1948 74.489L67.8348 74.4798L67.84 75.9798L67.8452 77.4798L65.2052 77.4889L65.2 75.9889ZM67.84 75.9798L66.5301 75.249L67.7684 73.0295L69.0783 73.7603L70.3882 74.4911L69.1499 76.7106L67.84 75.9798ZM69.0783 73.7603L67.6705 73.2427L68.5818 70.7638L69.9897 71.2815L71.3976 71.7991L70.4862 74.2779L69.0783 73.7603ZM69.9897 71.2815L68.5412 70.8919L69.2316 68.3247L70.6801 68.7143L72.1287 69.1039L71.4382 71.6711L69.9897 71.2815ZM70.6801 68.7143L69.3962 67.9388L70.7794 65.6487L72.0634 66.4242L73.3473 67.1997L71.9641 69.4898L70.6801 68.7143ZM72.0634 66.4242L71.7486 67.8908L69.4155 67.39L69.7303 65.9234L70.0451 64.4568L72.3782 64.9576L72.0634 66.4242ZM69.7303 65.9234L69.6324 67.4202L66.9924 67.2476L67.0903 65.7507L67.1882 64.2539L69.8282 64.4266L69.7303 65.9234ZM67.0903 65.7507L67.272 67.2397L64.632 67.5619L64.4503 66.0729L64.2686 64.584L66.9086 64.2618L67.0903 65.7507ZM64.4503 66.0729L64.4012 67.5721L61.7612 67.4855L61.8103 65.9863L61.8595 64.4871L64.4995 64.5737L64.4503 66.0729ZM61.8103 65.9863L61.762 67.4856L59.122 67.4005L59.1703 65.9013L59.2186 64.4021L61.8586 64.4871L61.8103 65.9863ZM59.1703 65.9013L59.0774 67.3984L56.4374 67.2344L56.5303 65.7373L56.6233 64.2402L59.2633 64.4042L59.1703 65.9013ZM56.5303 65.7373L56.7916 67.2144L54.1516 67.6813L53.8903 66.2042L53.6291 64.7271L56.2691 64.2603L56.5303 65.7373ZM53.8903 66.2042L53.631 67.6816L50.991 67.2182L51.2503 65.7408L51.5097 64.2634L54.1497 64.7268L53.8903 66.2042ZM51.2503 65.7408L51.3911 67.2342L48.7511 67.4831L48.6103 65.9897L48.4695 64.4963L51.1095 64.2474L51.2503 65.7408ZM48.6103 65.9897L50.1103 65.9885L50.1118 67.9401L48.6118 67.9413L47.1118 67.9424L47.1103 65.9908L48.6103 65.9897ZM48.6118 67.9413L49.9115 67.1925L51.2429 69.5033L49.9432 70.2521L48.6435 71.0009L47.3121 68.6901L48.6118 67.9413ZM49.9432 70.2521L51.4142 69.9585L51.9397 72.5917L50.4687 72.8853L48.9978 73.1788L48.4722 70.5457L49.9432 70.2521ZM50.4687 72.8853L51.8305 72.2563L52.939 74.6562L51.5773 75.2852L50.2155 75.9142L49.107 73.5142L50.4687 72.8853ZM51.5773 75.2852L52.8683 74.5216L53.2911 75.2364L52 76L50.7089 76.7636L50.2862 76.0488L51.5773 75.2852Z" fill="black"/>
<path d="M52 66V67.5H51.1444L50.7089 66.7636L52 66ZM52.1 66V64.5H52.1323L52.1645 64.5014L52.1 66ZM54.64 66.1093L54.797 67.6011L54.6865 67.6127L54.5755 67.6079L54.64 66.1093ZM57.28 65.8314L57.123 64.3397L57.2739 64.3238L57.425 64.3385L57.28 65.8314ZM59.92 66.0878L59.8596 67.5866L59.8172 67.5849L59.775 67.5808L59.92 66.0878ZM62.56 66.1942L62.6763 67.6897L62.588 67.6966L62.4996 67.693L62.56 66.1942ZM65.2 65.9889L65.0837 64.4935L65.1392 64.4891L65.1948 64.489L65.2 65.9889ZM67.84 65.9798L69.1499 66.7106L68.7225 67.4768L67.8452 67.4798L67.84 65.9798ZM69.0783 63.7603L70.4862 64.2779L70.4456 64.3884L70.3882 64.4911L69.0783 63.7603ZM69.9897 61.2815L71.4382 61.6711L71.4208 61.736L71.3976 61.7991L69.9897 61.2815ZM70.6801 58.7143L69.2316 58.3247L69.2866 58.1201L69.3962 57.9388L70.6801 58.7143ZM72.0634 56.4242L72.3782 54.9576L74.4349 55.3991L73.3473 57.1997L72.0634 56.4242ZM69.7303 55.9234L69.8282 54.4266L69.9378 54.4338L70.0451 54.4568L69.7303 55.9234ZM67.0903 55.7507L66.9086 54.2618L67.0481 54.2448L67.1882 54.2539L67.0903 55.7507ZM64.4503 56.0729L64.632 57.5619L64.517 57.5759L64.4012 57.5721L64.4503 56.0729ZM61.8103 55.9863L61.8586 54.4871L61.8595 54.4871L61.8103 55.9863ZM59.1703 55.9013L59.122 57.4005L59.0997 57.3998L59.0774 57.3984L59.1703 55.9013ZM56.5303 55.7373L56.2691 54.2603L56.445 54.2291L56.6233 54.2402L56.5303 55.7373ZM53.8903 56.2042L54.1516 57.6813L53.8913 57.7273L53.631 57.6816L53.8903 56.2042ZM51.2503 55.7408L51.1095 54.2474L51.3107 54.2285L51.5097 54.2634L51.2503 55.7408ZM48.6103 55.9897L47.1103 55.9908L47.1093 54.6245L48.4695 54.4963L48.6103 55.9897ZM48.6118 57.9413L47.3121 58.6901L47.1121 58.343L47.1118 57.9424L48.6118 57.9413ZM49.9432 60.2521L51.2429 59.5033L51.366 59.7168L51.4142 59.9585L49.9432 60.2521ZM50.4687 62.8853L49.107 63.5142L49.0325 63.353L48.9978 63.1788L50.4687 62.8853ZM51.5773 65.2852L50.2862 66.0488L50.2474 65.9833L50.2155 65.9142L51.5773 65.2852ZM52 66V64.5H52.1V66V67.5H52V66ZM52.1 66L52.1645 64.5014L54.7045 64.6107L54.64 66.1093L54.5755 67.6079L52.0355 67.4986L52.1 66ZM54.64 66.1093L54.483 64.6176L57.123 64.3397L57.28 65.8314L57.437 67.3232L54.797 67.6011L54.64 66.1093ZM57.28 65.8314L57.425 64.3385L60.065 64.5948L59.92 66.0878L59.775 67.5808L57.135 67.3244L57.28 65.8314ZM59.92 66.0878L59.9804 64.589L62.6204 64.6954L62.56 66.1942L62.4996 67.693L59.8596 67.5866L59.92 66.0878ZM62.56 66.1942L62.4437 64.6987L65.0837 64.4935L65.2 65.9889L65.3163 67.4844L62.6763 67.6897L62.56 66.1942ZM65.2 65.9889L65.1948 64.489L67.8348 64.4798L67.84 65.9798L67.8452 67.4798L65.2052 67.4889L65.2 65.9889ZM67.84 65.9798L66.5301 65.249L67.7684 63.0295L69.0783 63.7603L70.3882 64.4911L69.1499 66.7106L67.84 65.9798ZM69.0783 63.7603L67.6705 63.2427L68.5818 60.7638L69.9897 61.2815L71.3976 61.7991L70.4862 64.2779L69.0783 63.7603ZM69.9897 61.2815L68.5412 60.8919L69.2316 58.3247L70.6801 58.7143L72.1287 59.1039L71.4382 61.6711L69.9897 61.2815ZM70.6801 58.7143L69.3962 57.9388L70.7794 55.6487L72.0634 56.4242L73.3473 57.1997L71.9641 59.4898L70.6801 58.7143ZM72.0634 56.4242L71.7486 57.8908L69.4155 57.39L69.7303 55.9234L70.0451 54.4568L72.3782 54.9576L72.0634 56.4242ZM69.7303 55.9234L69.6324 57.4202L66.9924 57.2476L67.0903 55.7507L67.1882 54.2539L69.8282 54.4266L69.7303 55.9234ZM67.0903 55.7507L67.272 57.2397L64.632 57.5619L64.4503 56.0729L64.2686 54.584L66.9086 54.2618L67.0903 55.7507ZM64.4503 56.0729L64.4012 57.5721L61.7612 57.4855L61.8103 55.9863L61.8595 54.4871L64.4995 54.5737L64.4503 56.0729ZM61.8103 55.9863L61.762 57.4856L59.122 57.4005L59.1703 55.9013L59.2186 54.4021L61.8586 54.4871L61.8103 55.9863ZM59.1703 55.9013L59.0774 57.3984L56.4374 57.2344L56.5303 55.7373L56.6233 54.2402L59.2633 54.4042L59.1703 55.9013ZM56.5303 55.7373L56.7916 57.2144L54.1516 57.6813L53.8903 56.2042L53.6291 54.7271L56.2691 54.2603L56.5303 55.7373ZM53.8903 56.2042L53.631 57.6816L50.991 57.2182L51.2503 55.7408L51.5097 54.2634L54.1497 54.7268L53.8903 56.2042ZM51.2503 55.7408L51.3911 57.2342L48.7511 57.4831L48.6103 55.9897L48.4695 54.4963L51.1095 54.2474L51.2503 55.7408ZM48.6103 55.9897L50.1103 55.9885L50.1118 57.9401L48.6118 57.9413L47.1118 57.9424L47.1103 55.9908L48.6103 55.9897ZM48.6118 57.9413L49.9115 57.1925L51.2429 59.5033L49.9432 60.2521L48.6435 61.0009L47.3121 58.6901L48.6118 57.9413ZM49.9432 60.2521L51.4142 59.9585L51.9397 62.5917L50.4687 62.8853L48.9978 63.1788L48.4722 60.5457L49.9432 60.2521ZM50.4687 62.8853L51.8305 62.2563L52.939 64.6562L51.5773 65.2852L50.2155 65.9142L49.107 63.5142L50.4687 62.8853ZM51.5773 65.2852L52.8683 64.5216L53.2911 65.2364L52 66L50.7089 66.7636L50.2862 66.0488L51.5773 65.2852Z" fill="black"/>
<path d="M52 56V57.5H51.1444L50.7089 56.7636L52 56ZM52.1 56V54.5H52.1323L52.1645 54.5014L52.1 56ZM54.64 56.1093L54.797 57.6011L54.6865 57.6127L54.5755 57.6079L54.64 56.1093ZM57.28 55.8314L57.123 54.3397L57.2739 54.3238L57.425 54.3385L57.28 55.8314ZM59.92 56.0878L59.8596 57.5866L59.8172 57.5849L59.775 57.5808L59.92 56.0878ZM62.56 56.1942L62.6763 57.6897L62.588 57.6966L62.4996 57.693L62.56 56.1942ZM65.2 55.9889L65.0837 54.4935L65.1392 54.4891L65.1948 54.489L65.2 55.9889ZM67.84 55.9798L69.1499 56.7106L68.7225 57.4768L67.8452 57.4798L67.84 55.9798ZM69.0783 53.7603L70.4862 54.2779L70.4456 54.3884L70.3882 54.4911L69.0783 53.7603ZM69.9897 51.2815L71.4382 51.6711L71.4208 51.736L71.3976 51.7991L69.9897 51.2815ZM70.6801 48.7143L69.2316 48.3247L69.2866 48.1201L69.3962 47.9388L70.6801 48.7143ZM72.0634 46.4242L72.3782 44.9576L74.4349 45.3991L73.3473 47.1997L72.0634 46.4242ZM69.7303 45.9234L69.8282 44.4266L69.9378 44.4338L70.0451 44.4568L69.7303 45.9234ZM67.0903 45.7507L66.9086 44.2618L67.0481 44.2448L67.1882 44.2539L67.0903 45.7507ZM64.4503 46.0729L64.632 47.5619L64.517 47.5759L64.4012 47.5721L64.4503 46.0729ZM61.8103 45.9863L61.8586 44.4871L61.8595 44.4871L61.8103 45.9863ZM59.1703 45.9013L59.122 47.4005L59.0997 47.3998L59.0774 47.3984L59.1703 45.9013ZM56.5303 45.7373L56.2691 44.2603L56.445 44.2291L56.6233 44.2402L56.5303 45.7373ZM53.8903 46.2042L54.1516 47.6813L53.8913 47.7273L53.631 47.6816L53.8903 46.2042ZM51.2503 45.7408L51.1095 44.2474L51.3107 44.2285L51.5097 44.2634L51.2503 45.7408ZM48.6103 45.9897L47.1103 45.9908L47.1093 44.6245L48.4695 44.4963L48.6103 45.9897ZM48.6118 47.9413L47.3121 48.6901L47.1121 48.343L47.1118 47.9424L48.6118 47.9413ZM49.9432 50.2521L51.2429 49.5033L51.366 49.7168L51.4142 49.9585L49.9432 50.2521ZM50.4687 52.8853L49.107 53.5142L49.0325 53.353L48.9978 53.1788L50.4687 52.8853ZM51.5773 55.2852L50.2862 56.0488L50.2474 55.9833L50.2155 55.9142L51.5773 55.2852ZM52 56V54.5H52.1V56V57.5H52V56ZM52.1 56L52.1645 54.5014L54.7045 54.6107L54.64 56.1093L54.5755 57.6079L52.0355 57.4986L52.1 56ZM54.64 56.1093L54.483 54.6176L57.123 54.3397L57.28 55.8314L57.437 57.3232L54.797 57.6011L54.64 56.1093ZM57.28 55.8314L57.425 54.3385L60.065 54.5948L59.92 56.0878L59.775 57.5808L57.135 57.3244L57.28 55.8314ZM59.92 56.0878L59.9804 54.589L62.6204 54.6954L62.56 56.1942L62.4996 57.693L59.8596 57.5866L59.92 56.0878ZM62.56 56.1942L62.4437 54.6987L65.0837 54.4935L65.2 55.9889L65.3163 57.4844L62.6763 57.6897L62.56 56.1942ZM65.2 55.9889L65.1948 54.489L67.8348 54.4798L67.84 55.9798L67.8452 57.4798L65.2052 57.4889L65.2 55.9889ZM67.84 55.9798L66.5301 55.249L67.7684 53.0295L69.0783 53.7603L70.3882 54.4911L69.1499 56.7106L67.84 55.9798ZM69.0783 53.7603L67.6705 53.2427L68.5818 50.7638L69.9897 51.2815L71.3976 51.7991L70.4862 54.2779L69.0783 53.7603ZM69.9897 51.2815L68.5412 50.8919L69.2316 48.3247L70.6801 48.7143L72.1287 49.1039L71.4382 51.6711L69.9897 51.2815ZM70.6801 48.7143L69.3962 47.9388L70.7794 45.6487L72.0634 46.4242L73.3473 47.1997L71.9641 49.4898L70.6801 48.7143ZM72.0634 46.4242L71.7486 47.8908L69.4155 47.39L69.7303 45.9234L70.0451 44.4568L72.3782 44.9576L72.0634 46.4242ZM69.7303 45.9234L69.6324 47.4202L66.9924 47.2476L67.0903 45.7507L67.1882 44.2539L69.8282 44.4266L69.7303 45.9234ZM67.0903 45.7507L67.272 47.2397L64.632 47.5619L64.4503 46.0729L64.2686 44.584L66.9086 44.2618L67.0903 45.7507ZM64.4503 46.0729L64.4012 47.5721L61.7612 47.4855L61.8103 45.9863L61.8595 44.4871L64.4995 44.5737L64.4503 46.0729ZM61.8103 45.9863L61.762 47.4856L59.122 47.4005L59.1703 45.9013L59.2186 44.4021L61.8586 44.4871L61.8103 45.9863ZM59.1703 45.9013L59.0774 47.3984L56.4374 47.2344L56.5303 45.7373L56.6233 44.2402L59.2633 44.4042L59.1703 45.9013ZM56.5303 45.7373L56.7916 47.2144L54.1516 47.6813L53.8903 46.2042L53.6291 44.7271L56.2691 44.2603L56.5303 45.7373ZM53.8903 46.2042L53.631 47.6816L50.991 47.2182L51.2503 45.7408L51.5097 44.2634L54.1497 44.7268L53.8903 46.2042ZM51.2503 45.7408L51.3911 47.2342L48.7511 47.4831L48.6103 45.9897L48.4695 44.4963L51.1095 44.2474L51.2503 45.7408ZM48.6103 45.9897L50.1103 45.9885L50.1118 47.9401L48.6118 47.9413L47.1118 47.9424L47.1103 45.9908L48.6103 45.9897ZM48.6118 47.9413L49.9115 47.1925L51.2429 49.5033L49.9432 50.2521L48.6435 51.0009L47.3121 48.6901L48.6118 47.9413ZM49.9432 50.2521L51.4142 49.9585L51.9397 52.5917L50.4687 52.8853L48.9978 53.1788L48.4722 50.5457L49.9432 50.2521ZM50.4687 52.8853L51.8305 52.2563L52.939 54.6562L51.5773 55.2852L50.2155 55.9142L49.107 53.5142L50.4687 52.8853ZM51.5773 55.2852L52.8683 54.5216L53.2911 55.2364L52 56L50.7089 56.7636L50.2862 56.0488L51.5773 55.2852Z" fill="black"/>
<path d="M52 46V47.5H51.0425L50.6394 46.6315L52 46ZM52.1 46V44.5H52.1323L52.1645 44.5014L52.1 46ZM54.64 46.1093L54.797 47.6011L54.6865 47.6127L54.5755 47.6079L54.64 46.1093ZM57.28 45.8314L57.123 44.3397L57.2739 44.3238L57.425 44.3385L57.28 45.8314ZM59.92 46.0878L59.8596 47.5866L59.8172 47.5849L59.775 47.5808L59.92 46.0878ZM62.56 46.1942L62.6763 47.6897L62.588 47.6966L62.4996 47.693L62.56 46.1942ZM65.2 45.9889L65.0837 44.4935L65.1392 44.4891L65.1948 44.489L65.2 45.9889ZM67.84 45.9798L69.1499 46.7106L68.7225 47.4768L67.8452 47.4798L67.84 45.9798ZM69.0783 43.7603L70.4862 44.2779L70.4456 44.3884L70.3882 44.4911L69.0783 43.7603ZM69.9897 41.2815L71.4382 41.6711L71.4208 41.736L71.3976 41.7991L69.9897 41.2815ZM70.6801 38.7143L69.2316 38.3247L69.2866 38.1201L69.3962 37.9388L70.6801 38.7143ZM72.0634 36.4242L72.3782 34.9576L74.4349 35.3991L73.3473 37.1997L72.0634 36.4242ZM69.7303 35.9234L69.8282 34.4266L69.9378 34.4338L70.0451 34.4568L69.7303 35.9234ZM67.0903 35.7507L66.9924 37.2476L66.2204 37.1971L65.814 36.5388L67.0903 35.7507ZM66.3051 34.4789L65.0288 35.2669L64.6956 34.7273L64.8506 34.1123L66.3051 34.4789ZM66.9334 31.9863L66.9817 30.4871L68.8432 30.5471L68.3879 32.353L66.9334 31.9863ZM64.2934 31.9013L64.2451 33.4005L64.2228 33.3998L64.2005 33.3984L64.2934 31.9013ZM61.6534 31.7373L61.3922 30.2603L61.5681 30.2291L61.7464 30.2402L61.6534 31.7373ZM59.0134 32.2042L59.2747 33.6813L59.0144 33.7273L58.7541 33.6816L59.0134 32.2042ZM56.3734 31.7408L56.2326 30.2474L56.4338 30.2285L56.6328 30.2634L56.3734 31.7408ZM53.7334 31.9897L52.2688 31.6659L52.5047 30.5989L53.5926 30.4963L53.7334 31.9897ZM53.3141 33.8867L51.8234 34.0541L51.7956 33.8063L51.8494 33.5629L53.3141 33.8867ZM53.5765 36.225L55.0672 36.0577L55.293 38.0692L53.3028 37.6998L53.5765 36.225ZM50.9365 35.7351L50.8583 34.2371L51.0357 34.2278L51.2103 34.2602L50.9365 35.7351ZM48.2965 35.873L46.8311 36.1929L46.4543 34.4671L48.2183 34.375L48.2965 35.873ZM48.8051 38.202L47.4033 38.7358L47.3635 38.6312L47.3396 38.5219L48.8051 38.202ZM49.7448 40.6694L48.4314 41.394L48.3805 41.3018L48.343 41.2033L49.7448 40.6694ZM51.0298 42.9988L52.3432 42.2742L52.4213 42.4158L52.4675 42.5708L51.0298 42.9988ZM51.7863 45.5396L50.4257 46.1711L50.3798 46.0721L50.3486 45.9676L51.7863 45.5396ZM52 46V44.5H52.1V46V47.5H52V46ZM52.1 46L52.1645 44.5014L54.7045 44.6107L54.64 46.1093L54.5755 47.6079L52.0355 47.4986L52.1 46ZM54.64 46.1093L54.483 44.6176L57.123 44.3397L57.28 45.8314L57.437 47.3232L54.797 47.6011L54.64 46.1093ZM57.28 45.8314L57.425 44.3385L60.065 44.5948L59.92 46.0878L59.775 47.5808L57.135 47.3244L57.28 45.8314ZM59.92 46.0878L59.9804 44.589L62.6204 44.6954L62.56 46.1942L62.4996 47.693L59.8596 47.5866L59.92 46.0878ZM62.56 46.1942L62.4437 44.6987L65.0837 44.4935L65.2 45.9889L65.3163 47.4844L62.6763 47.6897L62.56 46.1942ZM65.2 45.9889L65.1948 44.489L67.8348 44.4798L67.84 45.9798L67.8452 47.4798L65.2052 47.4889L65.2 45.9889ZM67.84 45.9798L66.5301 45.249L67.7684 43.0295L69.0783 43.7603L70.3882 44.4911L69.1499 46.7106L67.84 45.9798ZM69.0783 43.7603L67.6705 43.2427L68.5818 40.7638L69.9897 41.2815L71.3976 41.7991L70.4862 44.2779L69.0783 43.7603ZM69.9897 41.2815L68.5412 40.8919L69.2316 38.3247L70.6801 38.7143L72.1287 39.1039L71.4382 41.6711L69.9897 41.2815ZM70.6801 38.7143L69.3962 37.9388L70.7794 35.6487L72.0634 36.4242L73.3473 37.1997L71.9641 39.4898L70.6801 38.7143ZM72.0634 36.4242L71.7486 37.8908L69.4155 37.39L69.7303 35.9234L70.0451 34.4568L72.3782 34.9576L72.0634 36.4242ZM69.7303 35.9234L69.6324 37.4202L66.9924 37.2476L67.0903 35.7507L67.1882 34.2539L69.8282 34.4266L69.7303 35.9234ZM67.0903 35.7507L65.814 36.5388L65.0288 35.2669L66.3051 34.4789L67.5814 33.6909L68.3667 34.9627L67.0903 35.7507ZM66.3051 34.4789L64.8506 34.1123L65.4789 31.6197L66.9334 31.9863L68.3879 32.353L67.7596 34.8456L66.3051 34.4789ZM66.9334 31.9863L66.8851 33.4856L64.2451 33.4005L64.2934 31.9013L64.3417 30.4021L66.9817 30.4871L66.9334 31.9863ZM64.2934 31.9013L64.2005 33.3984L61.5605 33.2344L61.6534 31.7373L61.7464 30.2402L64.3864 30.4042L64.2934 31.9013ZM61.6534 31.7373L61.9147 33.2144L59.2747 33.6813L59.0134 32.2042L58.7522 30.7271L61.3922 30.2603L61.6534 31.7373ZM59.0134 32.2042L58.7541 33.6816L56.1141 33.2182L56.3734 31.7408L56.6328 30.2634L59.2728 30.7268L59.0134 32.2042ZM56.3734 31.7408L56.5142 33.2342L53.8742 33.4831L53.7334 31.9897L53.5926 30.4963L56.2326 30.2474L56.3734 31.7408ZM53.7334 31.9897L55.1981 32.3135L54.7787 34.2105L53.3141 33.8867L51.8494 33.5629L52.2688 31.6659L53.7334 31.9897ZM53.3141 33.8867L54.8047 33.7194L55.0672 36.0577L53.5765 36.225L52.0859 36.3924L51.8234 34.0541L53.3141 33.8867ZM53.5765 36.225L53.3028 37.6998L50.6628 37.2099L50.9365 35.7351L51.2103 34.2602L53.8503 34.7502L53.5765 36.225ZM50.9365 35.7351L51.0148 37.233L48.3748 37.3709L48.2965 35.873L48.2183 34.375L50.8583 34.2371L50.9365 35.7351ZM48.2965 35.873L49.762 35.553L50.2705 37.882L48.8051 38.202L47.3396 38.5219L46.8311 36.1929L48.2965 35.873ZM48.8051 38.202L50.2069 37.6681L51.1465 40.1356L49.7448 40.6694L48.343 41.2033L47.4033 38.7358L48.8051 38.202ZM49.7448 40.6694L51.0581 39.9449L52.3432 42.2742L51.0298 42.9988L49.7165 43.7234L48.4314 41.394L49.7448 40.6694ZM51.0298 42.9988L52.4675 42.5708L53.2239 45.1116L51.7863 45.5396L50.3486 45.9676L49.5922 43.4268L51.0298 42.9988ZM51.7863 45.5396L53.1469 44.908L53.3606 45.3685L52 46L50.6394 46.6315L50.4257 46.1711L51.7863 45.5396Z" fill="black"/>
<path d="M57.3333 31L58.4394 32.0132L56.283 34.3673L55.8474 31.2047L57.3333 31ZM57.4009 30.9263L56.2948 29.9131L56.7844 29.3786L57.5074 29.43L57.4009 30.9263ZM59.9733 31.1093L60.1304 32.6011L59.9988 32.6149L59.8669 32.6055L59.9733 31.1093ZM62.6133 30.8314L64.0901 31.0945L63.8922 32.2051L62.7704 32.3232L62.6133 30.8314ZM63.0396 28.4389L64.5225 28.6644L64.5197 28.6832L64.5163 28.7019L63.0396 28.4389ZM63.4369 25.8267L64.9361 25.8763L64.9331 25.9648L64.9198 26.0523L63.4369 25.8267ZM63.5244 23.1802L62.0252 23.1306L62.0271 23.075L62.033 23.0197L63.5244 23.1802ZM63.8069 20.5554L65.1431 19.8738L65.3461 20.2717L65.2983 20.7159L63.8069 20.5554ZM62.9272 18.8306L62.8849 17.3312L63.8326 17.3045L64.2634 18.1491L62.9272 18.8306ZM60.2872 18.905L60.1109 17.4154L60.1777 17.4075L60.2449 17.4056L60.2872 18.905ZM57.6472 19.2174L57.0287 17.8509L57.2403 17.7551L57.4709 17.7278L57.6472 19.2174ZM55.8946 20.0106L54.4146 20.2549L54.2271 19.1189L55.2761 18.6441L55.8946 20.0106ZM56.325 22.6191L57.805 22.3748L57.8195 22.4624L57.8235 22.5511L56.325 22.6191ZM56.445 25.262L54.9852 25.607L54.9529 25.4703L54.9465 25.33L56.445 25.262ZM57.0567 27.8502L58.5165 27.5052L58.5432 27.618L58.5522 27.7336L57.0567 27.8502ZM57.2622 30.4837L55.7762 30.6883L55.7702 30.6445L55.7668 30.6003L57.2622 30.4837ZM57.3333 31L56.2273 29.9868L56.2948 29.9131L57.4009 30.9263L58.507 31.9395L58.4394 32.0132L57.3333 31ZM57.4009 30.9263L57.5074 29.43L60.0798 29.6131L59.9733 31.1093L59.8669 32.6055L57.2944 32.4225L57.4009 30.9263ZM59.9733 31.1093L59.8163 29.6176L62.4563 29.3397L62.6133 30.8314L62.7704 32.3232L60.1304 32.6011L59.9733 31.1093ZM62.6133 30.8314L61.1366 30.5683L61.5628 28.1758L63.0396 28.4389L64.5163 28.7019L64.0901 31.0945L62.6133 30.8314ZM63.0396 28.4389L61.5566 28.2133L61.9539 25.6012L63.4369 25.8267L64.9198 26.0523L64.5225 28.6644L63.0396 28.4389ZM63.4369 25.8267L61.9377 25.7772L62.0252 23.1306L63.5244 23.1802L65.0236 23.2298L64.9361 25.8763L63.4369 25.8267ZM63.5244 23.1802L62.033 23.0197L62.3155 20.3949L63.8069 20.5554L65.2983 20.7159L65.0158 23.3407L63.5244 23.1802ZM63.8069 20.5554L62.4706 21.2369L61.591 19.5122L62.9272 18.8306L64.2634 18.1491L65.1431 19.8738L63.8069 20.5554ZM62.9272 18.8306L62.9694 20.33L60.3294 20.4044L60.2872 18.905L60.2449 17.4056L62.8849 17.3312L62.9272 18.8306ZM60.2872 18.905L60.4634 20.3946L57.8234 20.707L57.6472 19.2174L57.4709 17.7278L60.1109 17.4154L60.2872 18.905ZM57.6472 19.2174L58.2657 20.584L56.5131 21.3772L55.8946 20.0106L55.2761 18.6441L57.0287 17.8509L57.6472 19.2174ZM55.8946 20.0106L57.3746 19.7664L57.805 22.3748L56.325 22.6191L54.8451 22.8633L54.4146 20.2549L55.8946 20.0106ZM56.325 22.6191L57.8235 22.5511L57.9434 25.194L56.445 25.262L54.9465 25.33L54.8266 22.6871L56.325 22.6191ZM56.445 25.262L57.9048 24.9169L58.5165 27.5052L57.0567 27.8502L55.597 28.1953L54.9852 25.607L56.445 25.262ZM57.0567 27.8502L58.5522 27.7336L58.7577 30.367L57.2622 30.4837L55.7668 30.6003L55.5613 27.9669L57.0567 27.8502ZM57.2622 30.4837L58.7482 30.279L58.8193 30.7953L57.3333 31L55.8474 31.2047L55.7762 30.6883L57.2622 30.4837Z" fill="black"/>
<path d="M57.3333 15L58.3657 13.9118L56.9032 12.5244L55.9944 14.3238L57.3333 15ZM57.4059 15.0688L56.3735 16.157L56.8519 16.6109L57.5097 16.5652L57.4059 15.0688ZM59.9733 14.8907L60.1304 13.3989L60.0001 13.3852L59.8695 13.3943L59.9733 14.8907ZM62.6133 15.1686L63.9949 14.5844L63.6503 13.7694L62.7704 13.6768L62.6133 15.1686ZM63.5679 17.4262L64.9936 17.8924L65.1681 17.3589L64.9495 16.842L63.5679 17.4262ZM62.9897 19.1942L62.8734 20.6897L64.0489 20.7811L64.4154 19.6605L62.9897 19.1942ZM60.3497 18.9889L60.466 17.4935L60.4105 17.4891L60.3549 17.489L60.3497 18.9889ZM57.7097 18.9798L56.9561 20.2767L57.3031 20.4784L57.7045 20.4798L57.7097 18.9798ZM56.1335 18.0639L54.7244 17.5496L54.2937 18.7297L55.3799 19.3608L56.1335 18.0639ZM57.0389 15.5829L55.7 14.9066L55.6602 14.9856L55.6298 15.0686L57.0389 15.5829ZM57.3333 15L56.301 16.0882L56.3735 16.157L57.4059 15.0688L58.4383 13.9806L58.3657 13.9118L57.3333 15ZM57.4059 15.0688L57.5097 16.5652L60.0772 16.3871L59.9733 14.8907L59.8695 13.3943L57.302 13.5724L57.4059 15.0688ZM59.9733 14.8907L59.8163 16.3824L62.4563 16.6603L62.6133 15.1686L62.7704 13.6768L60.1304 13.3989L59.9733 14.8907ZM62.6133 15.1686L61.2318 15.7528L62.1864 18.0103L63.5679 17.4262L64.9495 16.842L63.9949 14.5844L62.6133 15.1686ZM63.5679 17.4262L62.1423 16.9599L61.564 18.7279L62.9897 19.1942L64.4154 19.6605L64.9936 17.8924L63.5679 17.4262ZM62.9897 19.1942L63.106 17.6987L60.466 17.4935L60.3497 18.9889L60.2334 20.4844L62.8734 20.6897L62.9897 19.1942ZM60.3497 18.9889L60.3549 17.489L57.7149 17.4798L57.7097 18.9798L57.7045 20.4798L60.3445 20.4889L60.3497 18.9889ZM57.7097 18.9798L58.4634 17.6829L56.8871 16.767L56.1335 18.0639L55.3799 19.3608L56.9561 20.2767L57.7097 18.9798ZM56.1335 18.0639L57.5426 18.5781L58.448 16.0971L57.0389 15.5829L55.6298 15.0686L54.7244 17.5496L56.1335 18.0639ZM57.0389 15.5829L58.3779 16.2591L58.6723 15.6762L57.3333 15L55.9944 14.3238L55.7 14.9066L57.0389 15.5829Z" fill="black"/>
<path d="M54.1 107.5V109H54.1323L54.1645 108.999L54.1 107.5ZM56.64 107.391L56.797 105.899L56.6865 105.887L56.5755 105.892L56.64 107.391ZM59.28 107.669L59.123 109.16L59.2739 109.176L59.425 109.162L59.28 107.669ZM61.92 107.412L61.8596 105.913L61.8172 105.915L61.775 105.919L61.92 107.412ZM64.56 107.306L64.6857 105.811L64.5928 105.803L64.4996 105.807L64.56 107.306ZM67 107.511L66.8743 109.006L68.5 109.143V107.511H67ZM54 107.5V109H54.1V107.5V106H54V107.5ZM54.1 107.5L54.1645 108.999L56.7045 108.889L56.64 107.391L56.5755 105.892L54.0355 106.001L54.1 107.5ZM56.64 107.391L56.483 108.882L59.123 109.16L59.28 107.669L59.437 106.177L56.797 105.899L56.64 107.391ZM59.28 107.669L59.425 109.162L62.065 108.905L61.92 107.412L61.775 105.919L59.135 106.176L59.28 107.669ZM61.92 107.412L61.9804 108.911L64.6204 108.805L64.56 107.306L64.4996 105.807L61.8596 105.913L61.92 107.412ZM64.56 107.306L64.4343 108.801L66.8743 109.006L67 107.511L67.1257 106.016L64.6857 105.811L64.56 107.306ZM67 107.511H68.5V107.5H67H65.5V107.511H67Z" fill="black"/>
<path d="M57.1 102.5V104H57.1323L57.1645 103.999L57.1 102.5ZM59.64 102.391L59.797 100.899L59.6865 100.887L59.5755 100.892L59.64 102.391ZM62.28 102.669L62.123 104.16L62.3126 104.18L62.5011 104.152L62.28 102.669ZM64 102.412H65.5V100.672L63.7789 100.929L64 102.412ZM57 102.5V104H57.1V102.5V101H57V102.5ZM57.1 102.5L57.1645 103.999L59.7045 103.889L59.64 102.391L59.5755 100.892L57.0355 101.001L57.1 102.5ZM59.64 102.391L59.483 103.882L62.123 104.16L62.28 102.669L62.437 101.177L59.797 100.899L59.64 102.391ZM62.28 102.669L62.5011 104.152L64.2211 103.896L64 102.412L63.7789 100.929L62.0589 101.185L62.28 102.669ZM64 102.412H62.5V102.5H64H65.5V102.412H64Z" fill="black"/>
<path d="M64 95.5L63.7855 96.9846L65.53 97.2366L65.4998 95.4743L64 95.5ZM63.901 95.4857L64.1155 94.0011L62.8476 93.818L62.4683 95.0415L63.901 95.4857ZM63.1304 97.9715L63.6289 99.3863L64.3399 99.1357L64.5631 98.4156L63.1304 97.9715ZM60.7077 98.8251L60.3781 100.288L60.7991 100.383L61.2062 100.24L60.7077 98.8251ZM58.2107 98.2626L56.9231 99.0321L57.2533 99.5846L57.8811 99.726L58.2107 98.2626ZM56.8341 95.9591L55.4124 95.4806L55.192 96.1355L55.5465 96.7285L56.8341 95.9591ZM57.68 93.4453L56.8821 92.1751L56.429 92.4597L56.2583 92.9669L57.68 93.4453ZM59.8532 92.0802L60.038 90.5916L59.5078 90.5258L59.0554 90.81L59.8532 92.0802ZM62.4724 92.4053L63.71 91.5577L63.328 91L62.6572 90.9167L62.4724 92.4053ZM63.9848 94.6134L65.4846 94.5876L65.4768 94.1373L65.2223 93.7658L63.9848 94.6134ZM64 95.5L64.2145 94.0154L64.1155 94.0011L63.901 95.4857L63.6866 96.9703L63.7855 96.9846L64 95.5ZM63.901 95.4857L62.4683 95.0415L61.6977 97.5273L63.1304 97.9715L64.5631 98.4156L65.3338 95.9299L63.901 95.4857ZM63.1304 97.9715L62.632 96.5567L60.2093 97.4103L60.7077 98.8251L61.2062 100.24L63.6289 99.3863L63.1304 97.9715ZM60.7077 98.8251L61.0373 97.3617L58.5403 96.7993L58.2107 98.2626L57.8811 99.726L60.3781 100.288L60.7077 98.8251ZM58.2107 98.2626L59.4983 97.4932L58.1216 95.1896L56.8341 95.9591L55.5465 96.7285L56.9231 99.0321L58.2107 98.2626ZM56.8341 95.9591L58.2557 96.4375L59.1016 93.9237L57.68 93.4453L56.2583 92.9669L55.4124 95.4806L56.8341 95.9591ZM57.68 93.4453L58.4778 94.7155L60.6511 93.3504L59.8532 92.0802L59.0554 90.81L56.8821 92.1751L57.68 93.4453ZM59.8532 92.0802L59.6684 93.5687L62.2876 93.8939L62.4724 92.4053L62.6572 90.9167L60.038 90.5916L59.8532 92.0802ZM62.4724 92.4053L61.2349 93.2529L62.7472 95.461L63.9848 94.6134L65.2223 93.7658L63.71 91.5577L62.4724 92.4053ZM63.9848 94.6134L62.485 94.6391L62.5002 95.5257L64 95.5L65.4998 95.4743L65.4846 94.5876L63.9848 94.6134Z" fill="black"/>
<path d="M65.1 95.5V97H65.1546L65.209 96.996L65.1 95.5ZM66.6 95.3907L66.8567 93.9128L66.6749 93.8812L66.491 93.8946L66.6 95.3907ZM68.2 95.6686L67.9433 97.1464L68.3066 97.2095L68.6578 97.097L68.2 95.6686ZM69 95.4122H70.5V93.3563L68.5422 93.9838L69 95.4122ZM65 95.5V97H65.1V95.5V94H65V95.5ZM65.1 95.5L65.209 96.996L66.709 96.8867L66.6 95.3907L66.491 93.8946L64.991 94.004L65.1 95.5ZM66.6 95.3907L66.3433 96.8685L67.9433 97.1464L68.2 95.6686L68.4567 94.1907L66.8567 93.9128L66.6 95.3907ZM68.2 95.6686L68.6578 97.097L69.4578 96.8406L69 95.4122L68.5422 93.9838L67.7422 94.2401L68.2 95.6686ZM69 95.4122H67.5V95.5H69H70.5V95.4122H69Z" fill="black"/>
<path d="M52.1 95.5V97H52.1546L52.209 96.996L52.1 95.5ZM53.6 95.3907L53.8567 93.9128L53.6749 93.8812L53.491 93.8946L53.6 95.3907ZM55.2 95.6686L54.9433 97.1464L55.3066 97.2095L55.6578 97.097L55.2 95.6686ZM56 95.4122H57.5V93.3563L55.5422 93.9838L56 95.4122ZM52 95.5V97H52.1V95.5V94H52V95.5ZM52.1 95.5L52.209 96.996L53.709 96.8867L53.6 95.3907L53.491 93.8946L51.991 94.004L52.1 95.5ZM53.6 95.3907L53.3433 96.8685L54.9433 97.1464L55.2 95.6686L55.4567 94.1907L53.8567 93.9128L53.6 95.3907ZM55.2 95.6686L55.6578 97.097L56.4578 96.8406L56 95.4122L55.5422 93.9838L54.7422 94.2401L55.2 95.6686ZM56 95.4122H54.5V95.5H56H57.5V95.4122H56Z" fill="black"/>
<path d="M59.5 14.9L61 14.9L61 14.8677L60.9986 14.8355L59.5 14.9ZM59.3907 12.36L57.8989 12.203L57.8873 12.3135L57.8921 12.4245L59.3907 12.36ZM59.6686 9.72L61.1603 9.87703L61.1762 9.72608L61.1615 9.57501L59.6686 9.72ZM59.4122 7.08L57.9134 7.14041L57.9151 7.18278L57.9192 7.22499L59.4122 7.08ZM59.3058 4.44L57.8111 4.31425L57.8032 4.40721L57.807 4.50041L59.3058 4.44ZM59.5111 2L61.0058 2.12575L61.1425 0.5L59.5111 0.5L59.5111 2ZM59.5 15L61 15L61 14.9L59.5 14.9L58 14.9L58 15L59.5 15ZM59.5 14.9L60.9986 14.8355L60.8893 12.2955L59.3907 12.36L57.8921 12.4245L58.0014 14.9645L59.5 14.9ZM59.3907 12.36L60.8824 12.517L61.1603 9.87703L59.6686 9.72L58.1768 9.56297L57.8989 12.203L59.3907 12.36ZM59.6686 9.72L61.1615 9.57501L60.9052 6.93501L59.4122 7.08L57.9192 7.22499L58.1756 9.86499L59.6686 9.72ZM59.4122 7.08L60.911 7.01959L60.8046 4.37959L59.3058 4.44L57.807 4.50041L57.9134 7.14041L59.4122 7.08ZM59.3058 4.44L60.8005 4.56575L61.0058 2.12575L59.5111 2L58.0163 1.87425L57.8111 4.31425L59.3058 4.44ZM59.5111 2L59.5111 0.5L59.5 0.5L59.5 2L59.5 3.5L59.5111 3.5L59.5111 2Z" fill="black"/>
</svg>
