<svg width="120" height="120" viewBox="0 0 120 120" fill="none" xmlns="http://www.w3.org/2000/svg">
<path d="M46.4893 83.6831L49.126 83.8354H49.2314L49.3486 83.8589L51.833 84.3979L54.3877 84.7729L54.3994 84.7612L57.0361 85.0659L57.2002 85.0776L57.3525 85.1362L59.7197 85.9331L62.0986 86.2612H62.1455L62.1924 86.2729L62.2861 86.2847L62.0049 87.7612L61.7119 89.2378L61.6182 89.2144L59.1924 88.8979L59.04 88.8745L58.8994 88.8276L56.5439 88.019L54.0596 87.7495L54.0361 87.7378H54.0244L51.4111 87.3745L51.3525 87.3628L51.3057 87.3511L48.7744 86.812L46.4541 86.6714L44.2627 87.0464L42.833 87.7964L42.3174 89.3667L42.6924 91.6519L42.7158 91.8159L42.7041 91.98L42.5283 94.5347L42.6689 97.0894L42.6807 97.23L42.6572 97.3589L42.3174 99.8784L42.376 102.398L42.4463 104.976L42.6338 107.613L42.6455 107.777L42.6104 107.953L42.2354 110.343L42.7393 112.675L42.7744 112.875L42.7627 113.085L42.6221 115.253L42.54 116.578L41.2158 116.66H41.2041L41.1221 115.16L41.1104 115.148L39.6338 115.066L39.7627 113.109L39.2471 110.671L39.1885 110.402L39.2354 110.132L39.6221 107.613L39.458 105.175V105.152L39.4463 105.117L39.376 102.48V102.468L39.3174 99.8315L39.3057 99.7144L39.3291 99.5972L39.6689 97.0894L39.54 94.5933L39.5283 94.5112L39.54 94.4175L39.6924 91.8862L39.3057 89.4722L39.2471 89.1206L39.3643 88.7808L40.1611 86.2964L40.3486 85.7104L40.8994 85.4292L43.126 84.2808L43.3252 84.1753L43.5596 84.1401L46.1494 83.6948L46.3135 83.6714L46.4893 83.6831Z" fill="black"/>
<path d="M64.5 64.1621V64.1973L64.6055 66.7402L64.6172 66.8457L64.6055 66.9629L64.3359 69.4355L64.582 71.9316V72.0254L64.6875 74.6621L64.6992 74.7559L64.6875 74.8379L64.4883 77.4746L64.4766 79.9004L64.6641 82.5371L64.6758 82.6074L64.6641 82.6895L64.5938 85.3262V85.3965L64.582 85.4551L64.3008 87.8926L64.6992 90.3184L64.7227 90.4824L64.7109 90.6465L64.5703 93.1777L64.7461 95.7441L64.7578 95.8848L64.7344 96.0254L64.4297 98.5332L64.5117 101.076L64.5938 103.666L64.7578 106.314L64.7695 106.49L64.7344 106.666L64.3125 109.045L64.7344 111.424L64.7695 111.623L64.7578 111.822L64.5 114.33V115.186L61.5 115.139L61.5117 114.307V114.178L61.7578 111.752L61.3242 109.303L61.2773 109.045L61.3242 108.775L61.7578 106.279L61.6055 103.854V103.83L61.5938 103.807L61.4297 98.5332V98.416L61.4414 98.2988L61.7461 95.7441L61.582 93.2949L61.5703 93.2129L61.582 93.1191L61.7109 90.6465L61.3008 88.1621L61.2656 87.9512L61.2891 87.7402L61.6055 85.1855L61.6758 82.748L61.4883 80.1113L61.4766 80.0527V79.9941L61.4883 77.3574V77.2402L61.6992 74.6621L61.5938 72.2246L61.3359 69.5879L61.3242 69.4355L61.3359 69.2832L61.6055 66.7402L61.5 64.3262V64.1621H64.5Z" fill="black"/>
<path d="M52.5039 60.3535L55.1289 60.5996L55.2344 60.6113L55.3281 60.6348L57.8477 61.2559L60.3906 61.6191L60.3789 61.6309L62.9453 61.8652L63.0742 61.877L63.2031 61.9121L65.5703 62.5684L67.9961 62.7441H68.0781L68.1484 62.7559L68.2422 62.7793L67.9961 64.2559L67.8203 65.2402L67.7969 65.7324L67.75 65.7207V65.7324L67.6914 65.7207L65.2656 65.5684L65.1133 65.5566L64.9609 65.5215L62.5234 64.8301L60.0156 64.5957H59.9453L57.332 64.1973L57.2734 64.1855L57.2031 64.1738L54.7422 63.5762L52.3047 63.3418L49.832 63.5176L47.9453 63.6465L47.3594 64.5254L47.6992 66.5879L47.7227 66.752V66.916L47.582 69.4473L47.7578 72.0137V72.1543L47.7461 72.2949L47.4297 74.873L47.5234 77.3457L47.6172 79.9824H47.6055L47.7812 82.5723L47.793 82.6895L47.7812 82.8184L47.5352 85.3848L46.2695 85.2676L46.8672 86.5215L46.6914 86.6035L44.3008 87.7402L44.5469 85.1152L44.7812 82.6777L44.6172 80.1348V80.0879L44.5234 77.4395L44.4414 74.8027L44.4297 74.6855L44.4414 74.5684L44.7578 72.084L44.582 69.5762V69.4004L44.7227 66.8926L44.3008 64.4434L44.207 63.8574L44.5352 63.3652L45.8594 61.373L46.2695 60.7637L46.9961 60.7168L49.6211 60.5293L52.2578 60.3535L52.375 60.3418L52.5039 60.3535Z" fill="black"/>
<path d="M56.8193 37.626L56.96 37.6377L59.4561 38.0361L61.835 37.9307L61.9053 37.9189L61.9756 37.9307H62.0693L61.999 39.4307L61.9404 40.5088L61.9639 40.9189H61.9287V40.9307L61.8584 40.9189L59.4209 41.0244L59.2803 41.0361L59.1279 41.0127L56.6084 40.626L54.1357 40.7197H54.042L51.8271 40.6494L51.499 40.8604L51.5107 42.6768L51.71 45.1963L51.7217 45.2666V45.3369L51.6748 47.9854V48.0439L51.6631 48.1143L51.3936 50.54L51.8154 52.9775L51.8506 53.1416L51.8389 53.3057L51.71 55.8369L51.8857 58.415L51.8975 58.5674L51.874 58.708L51.5342 61.3447L50.1045 61.1572L49.9756 62.6572L49.9053 62.6455L48.3584 62.4932L48.5576 60.958L48.8857 58.415L48.7217 55.9775L48.71 55.8955L48.7217 55.8018L48.8271 53.3057L48.4053 50.8564L48.3701 50.6455L48.3936 50.4346L48.6748 47.7979L48.7217 45.4307L48.5107 42.7939V42.6768L48.499 40.04V39.1963L49.2139 38.7627L50.6436 37.8721L51.0303 37.6377L51.4756 37.6494L54.0654 37.7197L56.6787 37.626H56.8193Z" fill="black"/>
<path d="M66.8359 49.166L67.3516 49.248L67.7031 49.6348L69.3555 51.4277L69.6953 51.791L69.7422 52.2832L70.0234 54.8965L70.0352 54.9434V55.002L70.1406 57.6387V57.8145L69.9297 60.4512L69.918 62.8652L70.1055 65.5137V65.666L70.0352 68.3027V68.3613L70.0234 68.4316L69.7305 70.8223L70.1406 73.2949L70.1641 73.459L70.1523 73.6113L70.0117 76.1543L70.1875 78.7207L70.1992 78.8613L70.1758 79.002L69.8711 81.5098L69.9531 84.0527L70.0352 86.6426L70.1992 89.2793L70.2109 89.4668L70.1758 89.6426L69.7539 92.0098L70.2109 94.5996L70.1992 94.7988L69.9531 97.3535L70.0938 99.8496L70.1055 100.002L70.082 100.154L69.7305 102.545L70.1875 104.947L70.2227 105.123L70.2109 105.299L70.0703 107.936L70.0234 110.525L70.0586 113.115L70.0703 113.244L70.0469 113.373L69.7188 115.4L68.4531 115.189V116.666H66.4727L66.7539 114.92L67.0469 113.045L67.0234 110.525V110.467L67.0703 107.83V107.807L67.082 107.783L67.1992 105.299L66.7422 102.85L66.707 102.604L66.7422 102.369L67.0938 99.8496L66.9531 97.377V97.2715L66.9648 97.1543L67.1875 94.7285L66.7656 92.2793L66.7188 92.0215L66.7656 91.752L67.1875 89.2559L67.0469 86.8301L67.0352 86.8066V86.7832L66.8711 81.5098L66.8594 81.3926L66.8828 81.2754L67.1758 78.791L67.0234 76.2715L67.0117 76.1895V76.0957L67.1406 73.5879L66.7422 71.1387L66.707 70.9277L66.7305 70.7168L67.0352 68.1621L67.1055 65.5723L66.9297 63.0879L66.918 63.0293V62.9707L66.9297 60.334V60.2754L66.9414 60.2168L67.1289 57.6387L67.0352 55.1191V55.1074L66.8125 53.1035L65.8398 52.0488L63.8125 51.7324L63.0391 51.6152L62.6992 50.9121L62.6523 50.8301L64 50.1621L64.0586 50.1387L64.2812 48.7676L66.8359 49.166Z" fill="black"/>
<path d="M58.9453 19.4941L60.0586 21.7793L60.1641 22.002L60.1875 22.248L60.5156 24.8379L60.7969 26.2793L62.4258 26.8184L63 26.9941L63.2812 27.5215L64.4883 29.748L64.6641 30.0645L64.6758 30.416L64.7578 33.0645L64.8398 35.6543L64.9922 38.3027L65.0039 38.4785L64.9688 38.6543L64.5469 41.0215L64.957 43.4121L64.9922 43.6113L64.9688 43.8105L64.7227 46.2715L64.8516 48.873L64.8633 49.0137L64.8398 49.1543L64.4883 51.5449L64.957 53.9473L64.9805 54.123V54.2988L64.8516 56.9355L64.8164 59.5254V59.584L64.6758 62.2441L64.6641 62.584L64.4883 62.8887L63.9375 63.8848L62.625 63.1582L61.3125 62.4434L61.6992 61.7168L61.8164 59.4316L61.8516 56.8418V56.7949L61.9688 54.2988L61.5117 51.8613L61.4648 51.627L61.5 51.3809L61.8516 48.8613L61.7227 46.3887L61.7109 46.2715L61.7227 46.166L61.957 43.7285L61.5469 41.2793L61.5 41.0215L61.5469 40.7637L61.9805 38.2559L61.8398 35.8418V35.7949L61.7578 33.1582L61.6758 30.873L60.9258 29.4668L59.0391 28.8574L58.1953 28.5879L58.0312 27.7207L57.5391 25.2598V25.2129L57.2344 22.8457L56.707 21.7441L56.0039 21.8262L55.5117 23.1738V25.6699L55.3008 28.2363L55.4062 30.6855L55.6641 33.3223L55.6758 33.4746L55.6641 33.627L55.3945 36.1113L55.5 38.584V38.748H52.5V38.7129L52.3945 36.1699L52.3828 36.0645L52.3945 35.9473L52.6641 33.4512L52.418 30.9785V30.8848L52.3125 28.248L52.3008 28.166L52.3125 28.0723L52.5117 25.4355L52.5234 22.9043V22.6348L52.6172 22.3887L53.5195 19.9395L53.8359 19.0723L54.75 18.9668L57.4219 18.6504L58.4766 18.5215L58.9453 19.4941Z" fill="black"/>
<path d="M77.0742 99.8379L77.2969 99.9082L79.793 100.705L80.6367 100.975L80.8008 101.854L81.2812 104.314L81.3047 104.432V104.537L81.4102 107.092L81.6562 109.74L81.6797 109.893L81.6562 110.045L81.3867 112.611L81.4922 115.002L81.5039 115.025V115.154L78.5039 115.178V115.131L78.3867 112.588V112.471L78.3984 112.365L78.6562 109.857L78.4219 107.385L78.4102 107.35V107.303L78.3047 104.783L78.0234 103.283L76.6406 102.838H75L73.5234 102.826L73.5 101.361V101.186L75 101.162V99.8379H77.0742Z" fill="black"/>
<path d="M71.4258 75.875H71.6484L71.8594 75.9453L74.332 76.7891L75.1172 77.0586L75.3047 77.8672L75.8906 80.3398L75.9492 80.6094L75.9141 80.8906L75.5625 83.375L75.7031 85.8828V85.9648L75.6914 86.0469L75.5391 88.543L75.9492 91.0039L75.9844 91.2031L75.9492 91.4141L75.6562 93.9219L75.5859 96.4062L75.7852 99.043L75.7969 99.1016V101.902L75.6094 104.469L75.7383 107.012L76.0078 109.566L76.0195 109.719L76.0078 109.871L75.75 112.426L75.8555 114.828V114.992L74.3555 115.004H72.8555V114.969L72.75 112.426L72.7383 112.32L72.75 112.203L72.9961 109.719L72.75 107.234L72.7383 107.188V107.152L72.6211 104.516L72.6094 104.422L72.6211 104.34L72.7969 101.809V99.2773L72.5977 96.6406L72.5859 96.5586V96.4883L72.6562 93.8398V93.7695L72.668 93.6992L72.9492 91.2383L72.5625 88.8359L72.5273 88.6719L72.5391 88.5078L72.6914 85.9414L72.5625 83.3984L72.5508 83.2461L72.5742 83.1055L72.9023 80.75L72.5742 79.3555L71.0742 78.8516L68.9648 78.7812L67.6406 78.7344L67.5234 77.4102L67.5 77.1523L69 77.0234L69.0234 77.0117L69.082 75.7812L71.4258 75.875Z" fill="black"/>
<path d="M60.4814 4.16211V4.19727L60.5986 6.74023V6.8457L60.5869 6.96289L60.3174 9.43555L60.5635 11.9434V12.0254L60.6689 14.6621L60.6807 14.7559L60.6689 14.8379L60.4697 17.4746V20.0059L60.6572 22.5371V22.7012L60.5986 24.5527L60.54 25.9941H59.0049V24.5059L58.9932 24.4824L57.5986 24.4473L57.6572 22.5957L57.4697 20.1113V17.252L57.6807 14.6621L57.5752 12.2246L57.3174 9.58789L57.3057 9.43555L57.3174 9.2832L57.5986 6.70508L57.4932 4.32617L57.4814 4.29102V4.16211H60.4814Z" fill="black"/>
<path d="M111.312 114.289L112.355 114.547L111.652 117.453L110.891 117.266L108.547 117.629L108.453 117.652H108.359L105.723 117.723H105.582L103.051 117.301L100.672 117.734L100.438 117.781L100.203 117.746L97.6367 117.406H95.2344L92.5977 117.629L92.4922 117.641L92.3984 117.629L89.75 117.477V117.465L87.2773 117.348L84.7812 117.734L84.582 117.77L84.3945 117.746L81.8516 117.453L79.2969 117.477L79.2852 117.465L76.7773 117.711L76.6133 117.723L76.4492 117.699L73.918 117.383L71.3867 117.43H71.3281L68.6914 117.371H68.6445L66.1719 117.23L63.7109 117.699L63.4766 117.746L63.2305 117.711L60.7227 117.348L58.2383 117.488H58.0156L55.5898 117.242L53.1406 117.676L52.8828 117.723L52.6133 117.676L50.1172 117.242L47.6914 117.395H47.668L47.6445 117.406L42.3711 117.57H42.2539L42.1367 117.559L39.5938 117.254L37.1328 117.418L37.0508 117.43L36.957 117.418L34.5078 117.277L32 117.699L31.7891 117.734L31.5781 117.711L29.0234 117.395L26.5391 117.324L23.9492 117.512L23.8906 117.523H23.832L21.1953 117.512H21.0781L18.5 117.301L16.0508 117.395L16.0625 117.406L13.4258 117.664L13.2734 117.676L13.1211 117.664L10.625 117.395L8.16406 117.5H8V114.5H8.03516L10.5781 114.395L10.6836 114.383L10.8008 114.395L13.2852 114.664L15.7695 114.418H15.8633L18.5 114.312L18.5938 114.301L18.6758 114.312L21.3125 114.512L21.3008 114.523H23.7383L26.375 114.336L26.4453 114.324L26.5273 114.336L29.1641 114.406H29.2344L29.293 114.418L31.7305 114.699L34.1562 114.301L34.3203 114.277L34.4844 114.289L37.0156 114.43L39.582 114.254L39.7227 114.242L39.8633 114.266L42.3711 114.57L44.9141 114.488L47.5039 114.418V114.406L50.1523 114.242L50.3281 114.23L50.5039 114.266L52.8828 114.688L55.2617 114.266L55.4609 114.23L55.6602 114.242L58.1328 114.488L60.7227 114.348L60.8633 114.336L61.0156 114.359L63.418 114.711L65.8086 114.266L65.9844 114.23L66.1602 114.242L68.7969 114.371L68.7852 114.383L71.3633 114.43L73.9766 114.383H74.082L74.1875 114.395L76.6836 114.711L79.1445 114.477H79.2734L81.9102 114.453H82.0039L82.0859 114.465L84.5469 114.746L86.9727 114.371L87.125 114.348L87.2773 114.359L89.9141 114.488H89.9258L92.4453 114.641L95 114.43L95.0586 114.418H95.1055L97.7539 114.406H97.8594L97.9648 114.418L100.367 114.746L102.77 114.312L103.027 114.266L103.285 114.301L105.816 114.723L108.137 114.664L110.738 114.266L111.031 114.219L111.312 114.289Z" fill="black"/>
</svg>
