<svg width="120" height="120" viewBox="0 0 120 120" fill="none" xmlns="http://www.w3.org/2000/svg">
<path d="M86.8633 7.8125L87.5195 9.41797L87.6484 9.73438L87.6367 10.0742L87.4844 12.6992L87.4258 15.2891L87.4141 15.4062L87.3906 15.5234L86.9102 18.1133L86.8984 18.1953L86.875 18.2773L86.0898 20.7852L86.0664 20.8555L86.0312 20.9258L84.9883 23.375L84.8711 23.6562L84.6367 23.8672L83.8662 24.5986L85.1855 26.4502L85.2295 26.5117L85.2666 26.5771L86.5771 28.877L86.7119 29.1133L86.7549 29.3809L87.1768 31.9912L87.1914 32.0791L87.1953 32.1689L87.2256 32.9062H88.25L87.416 34.9062L87.0596 37.2275L87.0518 37.2764L87.041 37.3242L86.4736 39.8779L86.4482 39.9932L86.4053 40.1025L85.4365 42.5645L85.375 42.7217L85.2793 42.8613L83.7812 45.0547L83.6689 45.2188L83.5176 45.3477L81.5293 47.0488L80.8115 47.7451L81.4258 47.5547L81.6133 48.1172L81.5586 48.5L83.4668 50.2695L85.4678 52.0225L85.5879 52.1279L85.6836 52.2559L87.2656 54.3848L88.8574 56.5088L88.9932 56.6885L89.0693 56.9004L89.9307 59.2969L91.1699 61.4775L91.2041 61.5391L91.2334 61.6025L92.3242 64.0264L92.4033 64.2012L92.4355 64.3896L92.8838 67.0098L92.8965 67.085L92.9014 67.1611L93.0762 69.7393L93.4658 72.2764L93.4814 72.375L93.502 73.4209L93.5049 73.5752L93.4766 73.7266L93.4678 73.7676L93.1943 76.2168L93.002 78.8086L92.999 78.8555L92.9922 78.9023L92.6299 81.5244L92.6152 81.6299L92.585 81.7334L91.8535 84.2793L91.8125 84.4209L91.7451 84.5518L90.5664 86.8369L89.665 89.2275L89.624 89.3359L89.5674 89.4365L88.2627 91.7393L88.2266 91.8027L88.1846 91.8623L86.6611 94.0264L86.6377 94.0596L85.0508 96.1865L84.9639 96.3037L84.8555 96.4023L82.8877 98.1826L82.875 98.1943L82.8623 98.2051L80.8652 99.9316L80.8018 99.9863L80.7314 100.034L78.5557 101.523L78.5518 101.526L76.3721 103.008L76.3525 103.021L76.332 103.034L74.0879 104.457L73.9688 104.532L73.8389 104.584L71.7051 105.431L71.7852 105.441L74.4219 105.688L74.4102 105.699L77 105.84L77.0586 105.852H77.1172L79.6836 106.227L82.1562 106.367L84.6641 106.074L84.8633 106.039L85.0742 106.074L87.5234 106.496L90.043 106.391L90.1484 106.379L90.2656 106.391L92.8906 106.684L92.8789 106.695L95.4453 106.812H95.4922L95.5391 106.824L98 107.105L100.543 106.93L100.66 106.918L100.777 106.93L103.414 107.164H103.402L106.004 107.316H106.016L108.652 107.492H108.641L111.125 107.539L111.91 107.504L112.004 109.004L112.098 110.492L111.277 110.551H111.16L108.512 110.492H108.453L105.816 110.305V110.293L103.191 110.164L103.168 110.152H103.145L100.625 109.918L98.1055 110.117H97.9648L97.8242 110.105L95.293 109.801V109.812L92.6562 109.672H92.5625L90.0664 109.391L87.5117 109.496H87.3594L87.207 109.473L84.793 109.074L82.3438 109.355L82.2148 109.367H82.0859L79.4492 109.203H79.3906L79.332 109.191L76.7539 108.828L74.1875 108.676H74.1406L73.8291 108.646L73.8477 108.656L73.9883 108.738L74.1055 108.844L75.9453 110.449L76.0742 110.566L76.1797 110.707L77.7148 112.875L77.8438 113.051L77.9141 113.25L78.1748 113.999L79.1914 113.945H79.2734L81.9102 113.969H84.5352V113.957L87.1719 113.934H87.207L89.8438 113.98H89.9492L90.043 113.992L92.457 114.355L94.8594 113.934L95.0938 113.898L95.3398 113.934L97.9414 114.332L100.297 114.484L102.805 114.109L102.922 114.086H103.051L105.688 114.121H105.84L105.98 114.156L108.406 114.684L110.82 114.473H110.984L112.039 114.496L112.004 115.996L111.957 117.496L110.914 117.473L108.418 117.684L108.195 117.695L107.984 117.648L105.5 117.109L103.145 117.086L100.602 117.461L100.449 117.484L100.285 117.473L97.6484 117.32L97.5078 117.297L95.0938 116.922L92.7148 117.344L92.4805 117.391L92.2344 117.355L89.75 116.969L87.1719 116.934L84.5586 116.957H84.5469L81.9102 116.969H81.8984L79.3086 116.945L76.6953 117.062L76.5078 117.074L76.3887 117.052L76.1211 117.199L76.0439 116.979L73.8945 116.523L71.4922 116.77L71.3633 116.781L71.2461 116.77L68.7617 116.582L68.3887 116.598L68.3633 116.918L67.2734 116.812L67.0039 117L65.75 117.832L65.6094 117.621L65.3281 117.188L65.3633 116.672L65.3672 116.62L63.418 116.359L60.9219 116.57H60.8867L59.459 116.665L59.4453 116.695L58.8125 117.996L57.4766 117.41L57.3945 117.375L57.5068 117.121L57.3359 116.973L57.1016 116.773L57.0361 116.63L55.3906 116.43L52.9297 116.535L52.8945 116.547H52.8711L51.0225 116.538L50.9961 117.066L49.4961 116.996L47.9961 116.938L48.0117 116.564L47.6094 116.57H44.9961L42.4766 116.852H42.4414L42.3945 116.863L40.3848 116.97L40.3086 117.16L40.001 116.99L39.7578 117.004L39.6992 117.016L39.6406 117.004L37.0156 116.957L34.4141 116.98H34.3203L31.7656 116.852L29.2109 117.016L29.1758 117.027H29.1289L26.4922 117.062L26.4805 117.051L23.9844 117.121L21.3594 117.402L21.207 117.426L21.0664 117.414L18.4531 117.168L16.0391 117.227L13.4141 117.461H13.3789L10.7422 117.637L10.6484 117.648L10.5547 117.637L8.01172 117.496L8.02344 117.238L8 115.996L7.97656 114.496H8.1875L10.625 114.648L13.1562 114.484V114.473L15.793 114.238H15.875L18.5234 114.18L18.6055 114.168L18.6875 114.18L21.1719 114.414L23.6797 114.145H23.7383L23.7852 114.133L26.4336 114.062H26.457L29.0117 114.039V114.027L31.6484 113.852H31.8242L34.4492 113.98L37.0156 113.957H37.0625L38.3564 113.986L38.8438 112.777L38.9023 112.613L39.0078 112.473L40.543 110.305L40.6719 110.129L40.8359 110L42.2783 108.851L39.7812 109.074H39.6641L37.0508 109.086L37.0625 109.098L34.4258 109.203H34.3438L31.8242 109.145L29.2344 109.391L29.1992 109.402H29.1523L26.5273 109.496L26.5391 109.508L23.9375 109.66L21.3945 110.012L21.2422 110.035L21.1016 110.023L18.5234 109.859L16.0625 109.988L16.0742 110L13.4492 110.305H13.4258L10.7891 110.562H10.6016L8.15234 110.492L8.07031 110.504L8.05859 110.492V110.305L8 109.004L7.92969 107.504L8.02344 107.492H8.14062L10.625 107.551L13.1094 107.316L15.7344 107.012H15.8281L18.4648 106.859H18.5469L18.6289 106.871L21.1367 107.012L23.6211 106.684L23.668 106.672H23.7266L26.3633 106.52H26.375L26.3867 106.508L28.9531 106.414V106.402L31.5781 106.156L31.6602 106.145H31.7539L34.332 106.203L36.9453 106.098H36.9922L39.6406 106.074V106.086L42.1484 105.852V105.863L44.7031 105.5L44.7734 105.488H44.8555L47.3125 105.411L47.3867 105.359L47.4688 105.324L47.5283 105.295L47.0166 105.086L44.5439 104.312L44.2656 104.226L44.04 104.04L42.0635 102.416L39.8867 101.178L39.7979 101.127L39.7158 101.064L37.626 99.46L37.584 99.4287L37.5449 99.3936L35.5684 97.6445L35.5264 97.6074L35.4873 97.5664L33.6436 95.6709L33.5898 95.6152L33.541 95.5537L31.9023 93.4746L31.8027 93.3486L31.7324 93.2051L30.6465 90.9805L29.0449 89.0479L28.8496 88.8115L28.7617 88.5176L28.0059 85.9746L27.2559 83.5508L26.1865 81.2041L26.1113 81.0391L26.0771 80.8613L25.583 78.2471L25.5439 78.0381L25.5635 77.8252L25.8057 75.3057L25.5117 72.8398L25.4883 72.6406L25.5176 72.4414L25.8926 69.9248L25.9346 67.3672L25.9385 67.0986L26.0361 66.8486L26.9932 64.3887L27.833 62.0068L28.4814 59.4766L28.5273 59.2979L28.6152 59.1357L29.8809 56.7939L29.9648 56.6377L30.083 56.5059L31.8037 54.585L33.2822 52.4893L33.3809 52.3496L33.5068 52.2363L35.4697 50.4766L37.4229 48.6963L37.5146 48.6133L37.6182 48.5459L38.9316 47.6943L38.1035 46.8203L36.2451 45.001L36.1035 44.8633L36.0029 44.6934L34.6582 42.4219L33.2949 40.124L33.1094 39.8115L33.0879 39.4482L32.9316 36.8252L32.5898 34.2871L32.5654 34.1094L32.584 33.9316L32.8555 31.3223L32.8701 31.1816L32.9111 31.0459L33.6689 28.5244L33.7119 28.3809L33.7832 28.248L35.0322 25.915L35.1094 25.7705L35.2158 25.6465L35.2412 25.6162L34.9844 25.4727L34.7852 25.1914L33.25 23.0117L33.2266 22.9883L33.2148 22.9531L31.7734 20.7031L31.5742 20.3867L31.5508 20.0117L31.3398 17.3281L31.3516 17.3164L31.0469 14.8438L30.6602 12.1953L30.625 11.9609L30.6719 11.7266L31.1289 9.10156L31.2812 8.25781L32.0898 7.96484L33.3555 7.49609L33.9062 7.28516L34.457 7.51953L36.9297 8.5625L37.1523 8.65625L37.3281 8.80859L39.2969 10.5078L41.3594 11.8789L43.5977 13.2734V13.2852L45.8242 14.7031H45.8477L47.7109 15.9219L49.6562 15.9805H49.6445L52.0938 16.0273L54.4375 15.3594L54.5547 15.3242L54.6836 15.3125L57.2031 15.0078L59.7695 14.4688L60.168 14.375L60.5547 14.5039L62.9453 15.2891L65.3945 15.5352L65.4297 15.5469H65.4648L68.0898 15.9336L68.2305 15.957L68.3711 16.0039L70.5156 16.7656L72.2969 16.5312L74.1367 15.207L76.2461 13.6602V13.6484H76.2578L78.3203 12.1484L80.2422 10.4258L80.2656 10.4023L80.3008 10.3789L82.3516 8.71484L82.4453 8.64453L84.625 7.14453L86.1602 6.08984L86.8633 7.8125ZM46.7422 109.379L46.7305 109.367L44.6562 110.773L42.8633 112.203L41.6631 113.901L42.1484 113.875L44.7852 113.582H47.5742V113.57L47.8623 113.566L47.8438 113.328V113.188L47.8789 110.645V110.527L47.8906 110.41L48.2305 108.395L46.7422 109.379ZM68.7383 111.27L68.7734 111.445L68.7617 111.633L68.6221 113.594H68.8203L71.3047 113.781L73.8477 113.523L74.0703 113.5L74.293 113.547L74.5703 113.605L73.8359 112.582L72.2422 111.188L70.0859 109.992L68.3633 109.078L68.7383 111.27ZM65.0117 109.383L63.1367 111.164L63.0898 111.199L63.0547 111.234L61.3555 112.617L60.9209 113.56L63.3008 113.359L63.4648 113.336L63.6289 113.359L65.6133 113.628L65.75 111.574L65.375 109.418L65.2812 109.148L65.0117 109.383ZM50.8555 110.844L50.8438 113.223L50.8682 113.537L52.8125 113.547L55.4492 113.441L55.4658 113.439L54.7578 112.156L53.0117 110.492L52.9766 110.445L52.9297 110.398L51.2539 108.5L50.8555 110.844ZM55.0977 108.324L56.9961 110.164L57.1602 110.316L57.2656 110.516L58.2295 112.234L58.7773 111.059L58.918 110.742L59.1875 110.52L61.1445 108.914L62.7012 107.436L60.415 107.271L57.8652 107.394L57.8389 107.396H57.8135L55.1514 107.431L54.9258 107.434L54.71 107.371L54.0986 107.192L55.0977 108.324ZM37.4912 52.6943L37.4814 52.7021L35.6367 54.3545L34.208 56.3828L34.1582 56.4541L34.0996 56.5195L32.4336 58.377L31.3418 60.3994L30.7236 62.8135L30.707 62.8779L30.6855 62.9414L29.8135 65.4111L29.8057 65.4336L29.7969 65.4561L28.9287 67.6855L28.8896 70.0781L28.8887 70.1768L28.874 70.2744L28.5137 72.6816L28.8027 75.1143L28.8223 75.2734L28.8066 75.4336L28.5703 77.8965L28.9912 80.126L30.0264 82.3965L30.0664 82.4834L30.0947 82.5752L30.8721 85.0879L30.875 85.0957L30.877 85.1035L31.5498 87.3701L33.0703 89.2031L33.1846 89.3408L33.2627 89.502L34.3574 91.7432L35.8477 93.6338L37.5938 95.4297L39.4893 97.1084L41.4561 98.6182L43.6582 99.8721L43.7695 99.9355L43.8682 100.017L45.7188 101.536L47.9834 102.246L48.043 102.265L48.1016 102.288L50.4131 103.231L52.8662 103.713L52.9326 103.726L52.998 103.745L55.3369 104.428L57.7578 104.396L60.3555 104.271L60.4443 104.268L60.5332 104.273L63.0078 104.449L65.4072 104.041L67.9033 103.517L70.3086 102.758L72.5996 101.848L74.707 100.512L76.8613 99.0479L78.9688 97.6045L80.8857 95.9463L82.7314 94.2773L84.2139 92.291L85.6895 90.1924L86.8984 88.0596L87.792 85.6934L87.8232 85.6133L87.8623 85.5361L89.0098 83.3086L89.6729 81.0049L90.0137 78.5332L90.2061 75.9619L90.208 75.9336L90.2109 75.9062L90.4932 73.3818L90.499 73.3262H90.498L90.4844 72.6289L90.1006 70.124L90.0908 70.0615L90.0869 69.998L89.9121 67.4346L89.5107 65.085L88.5303 62.9053L87.2588 60.666L87.1953 60.5547L87.1514 60.4336L86.3213 58.127L84.8652 56.1855L84.8613 56.1797L83.3711 54.1748L81.4902 52.5273L81.459 52.498L81.251 52.3047L81.2617 53.4023L81.707 55.9219L81.7305 56.0508V56.1914L81.6953 58.8281V58.9219L81.6836 59.0156L81.3555 61.4414L81.6953 63.8906L81.7188 64.0547L81.6953 64.2188L81.4961 66.7031L81.7539 69.2227L81.7773 69.4453L81.7305 69.6562L81.2383 72.1758L81.2617 74.5078L81.6836 77.0391L81.7188 77.2266L81.6953 77.4141L81.4961 80.0508L81.4844 80.2266L81.4258 80.3906L80.6641 82.7812L80.3711 85.3125L80.3242 85.6641L80.1367 85.957L78.6719 88.1836V88.1953L77.2188 90.3867L77.1719 90.457L77.1133 90.5273L75.4258 92.543L75.3555 92.625L75.2734 92.6953L73.3047 94.4531L73.2227 94.5234L73.1172 94.582L70.9023 96.0352L70.8555 96.0703L70.7969 96.0938L68.4531 97.3594L68.1836 97.5L67.8906 97.5234L65.3359 97.7812L62.9102 98.4492L62.6992 98.5078L62.4766 98.4961L59.875 98.4258L57.2734 98.4961L57.0391 98.5078L56.8164 98.4492L54.2734 97.7344H54.2617L51.8008 97.2422L51.6602 97.2188L51.5312 97.1602L49.0586 96.1641L48.8242 96.0703L48.6367 95.9062L46.6445 94.1719L44.6406 92.4844L44.5352 92.4023L44.4414 92.2969L42.7773 90.2812L42.7188 90.1992L42.6602 90.1289L41.2539 87.9258L41.1953 87.832L41.1484 87.7266L40.082 85.3477L40.0703 85.3242L40.0586 85.2891L39.0742 82.8516L39.0156 82.7227L38.9922 82.582L38.4883 79.9805L38.4531 79.8281V79.6641L38.4883 77.0156L38.5117 74.3906V74.3438L38.5234 74.2969L38.6992 71.7188L38.5703 69.1875V69.1055L38.582 66.4688H38.5938L38.5586 63.9727L38.3359 61.3242L38.3242 61.1836L38.3359 61.0312L38.6172 58.5L38.6055 55.9219L38.4414 53.3789V53.3672L38.4297 53.3555L38.3643 51.8965L37.4912 52.6943ZM41.3799 49.6826L41.3008 50.6719L41.4297 53.1797L41.6055 55.8164V55.9102L41.6172 58.5469L41.6289 58.6406L41.6172 58.7227L41.3359 61.2305L41.5469 63.7148L41.5586 63.7617V63.8203L41.582 66.4688V66.4922L41.5703 69.1289L41.6875 71.6953L41.6992 71.7773L41.6875 71.8594L41.5117 74.5078L41.4883 77.0508V77.0625L41.4531 79.4883L41.8984 81.8555L42.8242 84.1172L43.832 86.3906L45.1211 88.3945L46.6797 90.2812L48.5781 91.875L48.6016 91.8867L50.418 93.4805L52.4922 94.3125L54.9766 94.8164L55.0352 94.8281L55.082 94.8398L57.4375 95.4961L59.8281 95.4258H59.9219L62.3594 95.4844L64.6797 94.8633L64.7969 94.8281L64.9141 94.8164L67.2695 94.5703L69.2852 93.4922L71.3242 92.168L73.1992 90.5273L74.7578 88.6523L76.1641 86.543L77.418 84.6094L77.7109 82.2891L77.7344 82.1484L77.7695 82.0195L78.5078 79.6641L78.6836 77.332L78.2852 74.9062L78.2617 74.7891V74.6602L78.2383 72.0234V71.8711L78.2734 71.7188L78.7422 69.3047L78.4961 66.8906L78.4844 66.75L78.4961 66.6094L78.6953 64.0898L78.3555 61.6523L78.332 61.4531L78.3555 61.2539L78.6953 58.6875L78.7188 56.332L78.2969 53.7891L78.2734 53.6719V53.5547L78.2383 50.918V50.8008L78.25 50.6953L78.3213 50.1348L78.0039 49.9697L77.2354 50.4727L77.1572 50.5234L77.0732 50.5635L74.6924 51.7246L74.6631 51.7393L74.6338 51.752L72.2021 52.8105L72.0635 52.8711L71.916 52.9023L69.3213 53.4551L69.3057 53.459L69.29 53.4619L66.6982 53.958L66.6211 53.9727L66.5439 53.9795L63.9316 54.2021L63.9326 54.2031L61.3076 54.457L61.2881 54.459L58.6396 54.6816L58.5137 54.6924L58.3887 54.6816L55.7451 54.4619L55.7012 54.458L55.6592 54.4521L53.0342 54.0801L52.9678 54.0703L52.9023 54.0557L50.3232 53.4512L50.2959 53.4453L50.2686 53.4375L47.7129 52.7383L47.5342 52.6895L47.3721 52.5986L45.1152 51.3252L42.7793 50.3027L42.7354 50.2842L42.6943 50.2627L41.4629 49.6289L41.3799 49.6826ZM80.4766 27.3594L80.3711 27.4414L80.2656 27.4883L77.9102 28.6836L77.7695 28.7539H77.7666L78.6875 29.6641L78.8984 29.8633L79.0156 30.1328L80.0938 32.582L80.1641 32.7461L80.1992 32.9336L80.6328 35.5703L80.7383 36.2148L80.3398 36.7305L79.9648 38.8281L79.9414 38.9688L79.8945 39.0977L78.9688 41.5234L78.875 41.7578L78.7109 41.957L76.9883 43.9609L76.7539 44.2422L76.4258 44.3828L73.9531 45.3906L73.6016 45.5312L73.2266 45.4961L70.6016 45.2266L70.4727 45.2031L70.3438 45.168L67.8359 44.4414L67.4727 44.3359L67.2148 44.0781L65.3047 42.2266L65.1055 42.0273L64.9883 41.7578L64.9619 41.6982L64.9141 41.7734L63.5547 43.8711L62.6289 46.2148L62.582 46.3086L61.4336 48.6875L60.8594 49.8594L59.6172 49.4492L58.3867 49.0508L57.7773 48.8516L57.4961 48.2539L56.3828 45.8633L56.3477 45.7812L56.3242 45.6992L55.4922 43.1914V43.1797L54.8965 41.7021L54.875 41.7578L54.7109 41.957L52.9883 43.9609L52.7539 44.2422L52.4258 44.3828L49.9531 45.3906L49.6016 45.5312L49.2266 45.4961L46.6016 45.2266L46.4727 45.2031L46.3438 45.168L43.8359 44.4414L43.4727 44.3359L43.2148 44.0781L41.3047 42.2266L41.1055 42.0273L40.9883 41.7578L39.9102 39.332L39.8398 39.168L39.8047 38.9922L39.3359 36.3672L39.2773 36.0977L39.3359 35.8281L39.8164 33.2031L39.8398 33.0391L39.9102 32.875L40.9531 30.4609L41.082 30.1914L41.293 29.9922L42.2188 29.0889L40.1641 28.5078L39.9531 28.4492L39.7656 28.332L37.8887 27.1348L37.6006 27.4727L36.498 29.5303L35.8242 31.7725L35.5859 34.0664L35.9111 36.4814L35.9189 36.5361L35.9219 36.5918L36.0596 38.9043L37.2383 40.8906L37.2393 40.8916L38.4834 42.9941L40.2314 44.7051L40.251 44.7246L40.2705 44.7451L41.9277 46.4941L44.0234 47.5723L46.3916 48.6094L46.4609 48.6396L46.5264 48.6768L48.6826 49.8926L51.0322 50.5361L53.5215 51.1182L56.0352 51.4746L58.5117 51.6816L61.0176 51.4707L63.6436 51.2168L63.6514 51.2158L63.6602 51.2148L66.2119 50.9961L68.6982 50.5205L71.1426 49.999L73.4209 49.0068L75.6777 47.9062L77.6953 46.5918L79.4844 44.8555L79.5176 44.8232L79.5537 44.792L81.416 43.1973L82.707 41.3076L83.5703 39.1123L84.1035 36.7109L84.3213 35.2939L84.2871 34.4678L84.2002 32.376L83.8369 30.127L82.6973 28.1289L81.5732 26.5498L80.4766 27.3594ZM59.207 39.6875L59.125 39.6992L59.043 39.6875L57.543 39.5938L57.4727 40.0859L58.3047 42.1602L58.3281 42.207L58.3398 42.2422L59.1133 44.5977L59.582 45.6172L59.8867 44.9961L60.8242 42.6406L60.8711 42.5L60.9531 42.3828L62.2656 40.332L62.4414 39.6641L61.75 39.5703L59.207 39.6875ZM46.9648 29.6172L45.0547 30.4961L43.5781 31.9258L42.7109 33.9297L42.3242 36.0977L42.7227 38.2773L43.6133 40.2695L45.0312 41.6523L47.0586 42.25L49.1562 42.4609L50.9375 41.7344L52.2617 40.1992L53.0469 38.1133L53.457 35.8047L53.5273 35.3945L53.5508 35.3594L53.2578 33.6016L52.3906 31.6094L50.8906 30.1328L49.0039 29.4062L46.9648 29.6172ZM70.9648 29.6172L69.0547 30.4961L67.5781 31.9258L66.7109 33.9297L66.3242 36.0977L66.7227 38.2773L67.6133 40.2695L69.0312 41.6523L71.0586 42.25L73.1562 42.4609L74.9375 41.7344L76.2617 40.1992L77.0469 38.1133L77.457 35.8047L77.5273 35.3945L77.5508 35.3594L77.2578 33.6016L76.3906 31.6094L74.8906 30.1328L73.2188 29.4883L72.416 29.4668L70.9648 29.6172ZM47.3477 32.7344L49.5977 33.4492L50.7812 33.8242L50.6289 35.0547L50.4531 36.4609L50.3242 36.7188L49.3398 38.5234L48.5547 39.9766L47.1836 39.0508L45.2969 37.7852L44.3594 37.1523L44.6992 36.0742L45.4609 33.707L45.918 32.2773L47.3477 32.7344ZM71.3477 32.7344L73.5977 33.4492L74.7812 33.8242L74.6289 35.0547L74.4531 36.4609L74.3242 36.7188L73.3398 38.5234L72.5547 39.9766L71.1836 39.0508L69.2969 37.7852L68.3594 37.1523L68.6992 36.0742L69.4609 33.707L69.918 32.2773L71.3477 32.7344ZM33.6602 12.0195L34.0234 14.4102V14.457L34.3281 17.0352V17.0703L34.3398 17.0938L34.5039 19.3906L35.7109 21.2891L37.0352 23.1875L39.0742 24.3242L39.1445 24.3711L41.1953 25.6836L43.3047 26.2812L45.7656 26.1992L45.8008 26.1875L45.8477 26.1992L48.0273 26.2344L49.5039 26.2578V26.3809L49.7539 26.4766L52.2617 27.4609L52.5547 27.5664L52.7773 27.7773L54.6875 29.6641L54.8984 29.8633L55.0156 30.1328L56.0938 32.582L56.1641 32.7461L56.1992 32.9336L56.6328 35.5703L56.7383 36.2148L56.6582 36.3174L57.0508 36.582L59.125 36.6992L61.7031 36.5703L61.8438 36.5586L61.9727 36.582L63.4102 36.7852L63.3359 36.3672L63.2773 36.0977L63.3359 35.8281L63.8164 33.2031L63.8398 33.0391L63.9102 32.875L64.9531 30.4609L65.082 30.1914L65.293 29.9922L67.1562 28.1758L67.332 28L67.5664 27.8945L69.9219 26.793L70.1445 26.6875L70.3906 26.6641L71.6348 26.5322L71.8164 26.457L72.1328 26.4688L72.2207 26.4697L73.0508 26.3828L73.4141 26.3477L73.7539 26.4766L73.8203 26.502L74.4648 26.5156L76.7148 25.918L78.7891 24.875L80.7109 23.4453L82.3516 21.8984L83.2188 19.8711L84.0039 17.3867L84.4258 15.0781L84.4844 12.582V12.5586L84.4961 12.5352L84.5781 10.8008L84.2148 11.0703L82.1875 12.7109L82.1758 12.6992L80.2773 14.4219L80.2188 14.4805L80.1484 14.5273L78.0156 16.0742L75.9062 17.6328L75.8828 17.6562L73.7383 19.1914L73.4336 19.4023L73.0703 19.4492L70.5859 19.8008L70.2109 19.8477L69.8711 19.7305L67.4922 18.875L65.1016 18.5117V18.5234L62.4531 18.2539L62.2891 18.2422L62.1367 18.1836L59.9922 17.4805L57.7891 17.9609L57.7188 17.9844H57.6484L55.1523 18.2656L52.7148 18.9805L52.4922 19.0391H52.2695L49.5742 18.9805H49.5625L47.1836 18.8984L46.7734 18.8867L46.4219 18.6641L44.2188 17.2227L41.9922 15.8164V15.8047L39.7656 14.4102H39.7422L39.7305 14.3984L37.5273 12.9453L37.4453 12.8867L37.375 12.8164L35.5469 11.2344L33.918 10.543L33.6602 12.0195Z" fill="black"/>
</svg>
