<svg width="120" height="120" viewBox="0 0 120 120" fill="none" xmlns="http://www.w3.org/2000/svg">
<path d="M35.5225 6.3125L38.1709 6.5L38.1592 6.51172L40.7607 6.55859L40.9834 6.57031L41.1943 6.64062L43.5615 7.4375L46.0811 7.70703L46.3506 7.73047L46.585 7.84766L48.9756 9.03125L49.0928 9.10156L51.3545 10.4961L51.4131 10.543L51.46 10.5781L53.5811 12.1836L53.7451 12.3008L53.8623 12.4648L55.4795 14.5742H55.4678L57.167 16.4258L57.2725 16.543L57.3428 16.6719L58.6904 18.9453L58.7725 19.0977L58.8311 19.2617L59.5811 21.6406L60.7412 23.9258L60.835 24.1133L60.8701 24.3242L61.3623 26.9375L61.3857 27.0547L61.6436 29.5625L62.1123 32.1641L62.1357 32.2578V32.3633L62.2646 35V35.1172L62.2529 35.2344L62.1709 36.0898L62.0068 37.625L60.5771 37.4375L58.2334 37.7422L58.0225 37.7656L57.7998 37.7305L55.3271 37.3203L52.6904 37.1328H52.5732L52.4561 37.1094L49.7139 36.4766L49.5615 36.418L47.1592 35.293L47.1475 35.2812L47.124 35.2695L44.7686 34.0977L44.7451 34.0859L44.7334 34.0742L42.3896 32.8203L42.249 32.75L42.1318 32.6445L40.1045 30.9336L39.9873 30.8398L39.8936 30.7227L38.3115 28.7305L36.4248 27.0312L36.249 26.8672L36.1201 26.6562L34.8311 24.3359L33.5186 22.0391L33.4014 21.8516L33.3545 21.6406L32.7686 19.1211L32.0068 16.6016L31.9951 16.543L31.9834 16.4727L31.4443 13.8945L31.4209 13.8242L31.0107 11.1875L30.9639 10.9531L31.0107 10.7188L31.374 8.38672L31.5146 7.46094L32.4053 7.17969L34.9717 6.38281L35.2412 6.30078L35.5225 6.3125ZM34.1865 9.75781L33.999 10.9414L34.374 13.2734L34.9014 15.8164L35.6396 18.2656L35.6514 18.3125L35.6631 18.3477L36.2139 20.7148L37.4443 22.8594V22.8711L38.6162 24.957L40.4209 26.5977L40.5146 26.6797L40.5967 26.7734L42.1201 28.7188L43.9365 30.2422L46.1396 31.4258H46.1279L48.4717 32.5859H48.46L50.6865 33.6172L52.9951 34.1445L55.5381 34.3203L55.6787 34.3438L58.0928 34.7305L59.2295 34.5781L59.1357 32.5742L58.6904 30.1016L58.6787 30.043V29.9844L58.3975 27.3711H58.3857L57.9639 25.1094L56.8506 22.918L56.7568 22.6836L56.0068 20.3047L54.8232 18.3125L53.1709 16.4961L53.124 16.4492L53.0889 16.3906L51.624 14.4688L49.7139 13.0156L47.6396 11.7266L45.4717 10.6484L43.0928 10.4023L42.9287 10.3789L42.7764 10.332L40.4326 9.54688L38.0303 9.5H37.9717L35.5693 9.32422L34.1865 9.75781Z" fill="black"/>
<path d="M83.3389 15.7642L84.1123 16.0103L83.6787 17.4399L83.2334 18.8696L82.7412 18.7173L80.4561 19.022L80.4326 19.0337H80.4092L78.0068 19.2563L75.7803 20.2524L75.6631 20.311L75.5459 20.3345L73.1084 20.9438L71.0225 21.9868L69.1943 23.4985L67.2607 25.2915L65.5967 27.0259L64.46 29.0063L63.6279 31.4087L63.6045 31.479L63.5811 31.5376L62.5498 33.7993L62.1982 36.0845L62.1631 36.272L62.0928 36.4478L62.0459 36.5415L60.6748 35.9438L60.335 35.7798L59.2334 35.6157L59.6318 33.0962L59.667 32.897L59.749 32.7095L60.8389 30.2954L61.6709 27.9165L61.7178 27.7993L61.7881 27.6821L63.1006 25.3618L63.1943 25.2095L63.3232 25.0688L65.1631 23.147L65.2217 23.0884L67.1553 21.2954L67.1904 21.272L67.2256 21.2368L69.2764 19.5493L69.4053 19.4438L69.5576 19.3618L71.9365 18.1899L72.0771 18.1196L72.2412 18.0728L74.6904 17.4517L77.0107 16.4321L77.2334 16.3384L77.4678 16.3149L80.1162 16.0454V16.0571L82.7061 15.7173L83.0225 15.6704L83.3389 15.7642Z" fill="black"/>
<path d="M73.0322 32.9229L75.6572 33.2275L75.7393 33.2393L75.8096 33.251L78.3525 33.8369L80.9307 34.2939L81.0596 34.3174L81.1768 34.3643L83.6611 35.2783L83.8252 35.3369L83.9775 35.4424L86.0283 36.8252L88.3955 37.7627L88.7002 37.8916L88.9346 38.1377L90.6572 39.9658L92.5674 41.6299H92.5791L94.6768 43.3057L94.8174 43.4111L94.9229 43.5518L96.5752 45.6494L96.6807 45.7666L96.751 45.9189L97.876 48.2275L99.2822 50.3252L99.3291 50.3838L99.3643 50.4658L100.583 52.7979L100.618 52.8564L100.642 52.9268L101.673 55.4229L101.685 55.458L101.708 55.5049L102.552 57.9775L102.575 58.0361L102.587 58.1064L103.196 60.5205L104.063 63.04L104.134 63.2275L104.146 63.4385L104.333 66.0752L104.614 68.6533L104.638 68.876L104.603 69.0869L104.134 71.7002L103.817 74.2432L103.806 74.3252L103.782 74.4189L103.149 76.9736L103.138 77.0088L103.126 77.0322L102.388 79.5752L102.353 79.6924L102.306 79.7979L101.181 82.2002L101.134 82.2939L99.833 84.6025L99.8096 84.6377L99.7861 84.6846L98.3447 86.8994L98.333 86.9111V86.9229L96.8447 89.1143L96.7979 89.1846L95.1807 91.2822L95.1338 91.3408L95.0869 91.3877L93.2822 93.333L93.2588 93.3682L93.2236 93.4033L91.3135 95.2314L91.2314 95.3018L91.1494 95.3604L89.0986 96.8135L87.1299 98.5596L85.2549 100.353L85.1846 100.423L85.1025 100.481L82.958 102.04L82.8994 102.087L82.8291 102.122L80.5439 103.423L80.5557 103.435L78.2822 104.782L78.2588 104.794L75.9736 106.106L75.9619 106.118L75.9385 106.13L73.6416 107.349L71.3564 108.673L71.2627 108.72L68.8721 109.868L68.8369 109.892L68.8018 109.903L66.4932 110.853L64.2432 112.177L64.1846 112.2L64.126 112.235L61.7236 113.36L61.3018 113.56L60.833 113.489L60.4346 113.419L60.6807 111.942L60.7627 111.356L60.4463 110.653L62.7549 109.552L65.04 108.228L65.1338 108.181L65.2275 108.146L67.583 107.161L69.8564 106.071L72.1533 104.759L72.1768 104.747L72.1885 104.735L74.5205 103.481L76.7705 102.192L79.0205 100.856H79.0322V100.845L81.2471 99.5557L83.251 98.1025L85.1025 96.3447L85.126 96.333L85.1494 96.3096L87.1299 94.5635L87.1768 94.5166L87.2354 94.4697L89.333 92.9697L91.1494 91.2354L92.8135 89.4189L94.3604 87.4268L95.8252 85.2588L97.2666 83.0439L98.4619 80.9229L99.54 78.6143L100.243 76.1885L100.864 73.6924L101.169 71.2549V71.208L101.181 71.1729L101.603 68.7588L101.345 66.3447L101.333 66.3096V66.2861L101.169 63.8604L100.36 61.5049L100.337 61.4463L100.325 61.376L99.7158 58.9502L98.8604 56.4775V56.4658L97.8643 54.0635H97.8525L96.7393 51.9307L95.3096 49.7861L95.2627 49.7041L95.2158 49.6104L94.126 47.3838L92.6729 45.5322L90.7158 43.9854L90.6924 43.9619L90.6689 43.9502L88.6885 42.2393L88.6299 42.1924L88.583 42.1338L86.9775 40.4346L84.7861 39.5674L84.6338 39.5088L84.5049 39.415L82.4541 38.0205L80.2744 37.2236L77.79 36.7666H77.7666L77.7314 36.7549L75.2939 36.2041L72.8916 35.9229L70.4893 36.3564L70.3604 36.3682H67.7119L65.4033 36.8486L63.0713 37.7744L62.9775 37.8096L62.8721 37.833L60.4346 38.4072L58.208 39.4854L55.9111 40.6924L55.8994 40.6807L53.8486 41.8643L52.1963 43.6807L52.0674 43.8213L51.9033 43.9268L49.8174 45.251L48.1768 47.0674L48.1416 47.1143L48.0947 47.1611L46.3486 48.79L45.2236 50.958L45.1299 51.1455L44.9775 51.2979L43.2783 53.0908L42.2354 55.2588L41.2041 57.626L40.3721 60.0166L40.3252 60.1338L39.3174 62.3721L38.9307 64.8213V64.8564L38.9189 64.8799L38.4268 67.2588L38.6494 69.708L38.6611 69.8721L38.6494 70.0244L38.3447 72.5205L38.4502 74.9346L38.9893 77.3955V77.4072L39.54 79.9971V80.0088L40.0322 82.458L40.958 84.7432L42.1768 86.9697L42.2236 87.0635L42.2588 87.1689L43.1143 89.4775L44.4033 91.5518L44.4619 91.6455L44.5088 91.751L44.5439 91.833L43.1729 92.4424L42.5518 92.7002L41.8604 93.1455L40.501 90.9541L40.4189 90.8252L40.3604 90.6846L39.4697 88.2939L38.2627 86.0674L38.2275 85.9971L38.1924 85.915L37.208 83.4541L37.1494 83.3252L37.126 83.1963L36.5986 80.6064L36.6104 80.5947L36.0596 78.0283L35.4971 75.4385L35.4619 75.3213V75.1924L35.3447 72.5557V72.4268L35.3564 72.3096L35.6611 69.8486L35.4268 67.3174L35.4033 67.0947L35.4502 66.8838L35.9775 64.2822L36.3877 61.7275L36.4229 61.5283L36.5049 61.3525L37.5244 59.0205L38.415 56.5361L38.4268 56.4775L38.4502 56.4307L39.5049 54.0049L39.5166 53.9814L39.5283 53.9463L40.7002 51.5674L40.7939 51.3564L40.958 51.1807L42.6572 49.3643L43.7939 47.1963L43.9111 46.9736L44.0986 46.7979L46.0439 44.9697L47.7314 43.0947L47.8721 42.9541L48.0361 42.8369L50.1104 41.501L51.8096 39.6729L51.9619 39.4971L52.1611 39.3916L54.4697 38.0557L54.5166 38.0322L56.8604 36.8018L56.9072 36.7783L59.2979 35.6299L59.4385 35.5596L59.5908 35.5244L62.0518 34.9385L64.4541 34.0127L64.5713 33.9658L64.6885 33.9424L67.2783 33.4033L67.4307 33.3799H70.1025L72.5869 32.9346L72.8096 32.8994L73.0322 32.9229Z" fill="black"/>
<path d="M48.3242 32.9985L48.3359 32.9868L48.3477 33.1157L48.6758 34.4399L49.0156 35.9048L48.875 35.9399H48.8164L46.3086 36.3501L46.2383 36.3618H46.1797L43.7188 36.5376L41.4102 37.3696L41.3984 37.3579L38.9609 38.272L38.9375 38.2837L38.9023 38.2954L36.5352 39.0337L34.2969 40.1587L32.293 41.6118L32.2812 41.6235L30.125 43.1235L28.1797 44.4712L26.8438 46.4868L26.7852 46.5688L26.7266 46.6392L25.0859 48.4907L23.8672 50.6587L23.832 50.7173L23.7852 50.7876L22.332 52.7798L21.3828 55.0767L20.5859 57.479L20.0352 59.9165L20 60.0337L19.9531 60.1626L19.0273 62.3306L19.0742 64.6978V64.8501L19.0391 65.0024L18.5703 67.4399L18.6641 69.9009V69.9946L18.5703 72.3267L19.5078 74.4946L19.5664 74.6118L19.5898 74.7524L20.1523 77.2603L20.9141 79.6509L21.9102 82.0181L21.957 82.1353L22.7188 84.4556L24.0898 86.4946L24.1016 86.5063L24.1133 86.5298L25.5312 88.7563L25.5781 88.8267L26.7383 90.936L28.5312 92.5884L28.6133 92.6587L28.6836 92.7407L30.3008 94.7329L32 96.5962L33.9805 98.0962H34.0039L34.0156 98.1079L36.0898 99.7368L36.1836 99.8306L37.9062 101.448L40.1562 102.385L40.3555 102.467L40.5312 102.608L42.4531 104.19L44.5625 105.221L47.0117 105.948L47.0938 105.971L47.1758 106.006L49.6016 107.026L49.6602 107.049L49.7305 107.084L51.9219 108.268L54.3008 108.901H54.3125L56.8672 109.592H56.8555L59.293 110.213L60.8867 110.459L60.6758 111.936L60.4648 113.424L58.8008 113.178L58.7188 113.167L58.6484 113.155L56.0938 112.499L56.082 112.487L53.5391 111.795L50.9844 111.127L50.8086 111.081L50.6445 110.999L48.4297 109.792L46.0859 108.795L43.6133 108.081L43.4844 108.045L43.3789 107.987L40.9883 106.815L40.8359 106.745L40.6953 106.627L38.7734 105.045L36.5234 104.131L36.2773 104.026L36.0664 103.838L34.1328 102.01V101.999L32.1641 100.475V100.463L30.0664 98.9048L29.9492 98.811L29.8555 98.7056L28.0742 96.7368L28.0273 96.6899L26.4336 94.7329L24.5352 92.9868L24.3594 92.8228L24.2422 92.6118L23 90.3618L21.6055 88.1704L20.1172 85.9673L20.0117 85.7915L19.9414 85.5923L19.1094 83.0728H19.0977L18.125 80.7524L18.1016 80.6938L18.0781 80.6235L17.2812 78.104L17.2578 78.0454L17.2461 77.9868L16.7188 75.561L15.6992 73.2173L15.5703 72.9126L15.582 72.5728L15.6641 70.0063L15.5703 67.3696V67.2056L15.6055 67.0415L16.0742 64.5688L16.0391 62.061L16.0273 61.7446L16.1562 61.4634L17.1289 59.1196L17.7031 56.6704L17.7148 56.6001L18.5703 54.0337L18.5938 53.9751L18.6172 53.9282L19.625 51.4907L19.6953 51.3267L19.7891 51.186L21.2773 49.1118L22.5547 46.8853L22.6367 46.7446L22.7305 46.6392L24.3945 44.729L25.8477 42.5845L26 42.3501L26.2344 42.1978L28.4023 40.6743L30.5586 39.1626L32.6914 37.6274L32.7852 37.5571L32.8906 37.5103L35.2578 36.3267L35.3633 36.2798L35.4688 36.2446L37.9883 35.436L40.3906 34.5454H40.4141L42.9102 33.6548L43.0977 33.5845L43.2969 33.5728L45.8516 33.3853L48.2305 33.0103L48.3242 32.9751V32.9985Z" fill="black"/>
<path d="M43.1826 16.522L45.4912 17.6235L45.7021 17.729L45.8779 17.8931L47.7998 19.7329L49.6748 21.3384L51.7842 22.9438L51.8428 22.9907L51.9131 23.0493L53.8115 24.8774L53.8818 24.936L53.9404 25.0063L55.6279 27.0337H55.6162L57.374 28.8618L59.2139 30.772L59.3545 30.9243L59.4482 31.1001L60.7021 33.4204L61.9326 35.6353L61.2998 35.9751L60.6787 36.4438L59.46 37.3228L59.4014 37.2407L59.3545 37.1704L59.3076 37.0884L58.0771 34.8735L58.0654 34.8618L56.9053 32.7056L55.2061 30.936L53.3779 29.0376L53.3428 28.9907L53.3076 28.9556L51.6201 26.9165H51.6084L49.9326 25.2993L47.8584 23.729L47.8232 23.7056L47.7881 23.6704L45.7842 21.9595L45.7607 21.9243L45.7256 21.9009L43.9795 20.2251L41.7764 19.1821L41.6475 19.1235L41.5303 19.0415L39.7373 17.7056L38.624 16.8853L39.3623 15.7134L39.3975 15.6431L40.6748 16.4399L41.5303 15.3032L43.1826 16.522Z" fill="black"/>
</svg>
