<svg width="120" height="120" viewBox="0 0 120 120" fill="none" xmlns="http://www.w3.org/2000/svg">
<path d="M73.127 21.5586L76.0566 21.6289L76.0215 22.9297L76.1152 23.0703L76.877 24.3594L76.7949 24.418L76.4199 24.6406L75.9863 24.6289L75.8887 24.626L75.8008 25.7598L76.457 28.3379L76.4805 28.4434L76.4922 28.5488L76.8086 31.5254L76.832 31.8066L76.7617 32.0879L75.9297 34.9941L75.8711 35.2051L75.7539 35.3926L74.1484 37.877L74.1602 37.8887L72.625 40.4668L72.5312 40.6191L72.4023 40.7363L71.6289 41.5449L71.5186 41.4375L71.5488 41.6953L71.5723 41.9062L71.5371 42.1172L71.0215 45.0703V45.1055L70.4473 48.0117L70.4004 48.293L70.2363 48.5391L69.6582 49.4248L69.6914 49.4092L69.9941 50.0352L70.8594 49.6924L70.8711 49.6807L73.6719 48.6025L76.1797 47.4307L78.4883 45.7432L80.6445 43.915L82.4492 41.8994L83.8906 39.4268L83.9023 39.4033L83.9258 39.3682L85.4492 36.9658L86.4102 34.3994L87.0312 31.5752L87.4561 28.957L87.3164 28.3369L86.6602 25.501L87.8906 25.208L88.0547 25.0791V25.0781L88.0723 23.9824L88.9629 23.9941L91.9512 23.9707H92.291L95.3379 25.377H95.3262L98.0801 26.5605L98.3379 26.666L98.5371 26.8652L100.693 28.9863L102.838 30.8027L105.252 32.6426L105.404 32.7715L105.533 32.9238L107.35 35.3262L107.42 35.4199L107.479 35.5254L108.826 38.0566L110.678 40.2363L110.854 40.4473L110.947 40.6934L111.955 43.4355L113.186 45.9434L113.326 46.2363L113.338 46.5527L113.42 49.4238L113.877 52.3418V52.3535L114.287 55.2598L114.861 58.2012L114.908 58.4473L114.885 58.6816L114.568 61.1309L114.475 61.8223L113.889 62.1973L111.393 63.7676L111.404 63.7793L109.131 65.4551L107.256 67.6113L107.186 67.6816L105.404 69.4863L105.064 72.0059L104.865 73.541L103.342 73.2949L100.682 72.8613L100.4 72.8145L100.154 72.6738L97.8809 71.3145L95.4668 71.1738L93.0059 71.8301L90.873 73.2832L88.9746 75.4277L87.5332 77.373L87.123 79.9863L86.9355 81.2402L85.6582 81.2637L83.1504 81.2871H82.8809L82.623 81.1934L80.0566 80.2793L77.5957 80.209L75.252 81.2285L74.0488 82.084L74.8418 84.4404L74.9707 84.8037L75.0098 84.8135L75.1152 84.8369L75.209 84.8721L76.5332 85.4111L77.9043 85.7627L78.502 85.6807L80.1074 85.458L80.2012 87.0869V87.1924L78.7129 87.2627L78.9004 88.6572L78.0332 88.7744L77.752 88.8096L77.4707 88.7393L76.458 88.4873L77.0215 89.667L77.4785 90.6279L76.7285 91.3779L76.6465 91.4482L75.5566 90.3584L74.3145 90.9561L73.0488 88.2959L73.0137 88.2256L72.9902 88.1553L72.0176 85.4482L72.0059 85.4365V85.4131L71.54 83.998L70.8105 84.5684L68.959 86.7012L68.8418 86.8184L66.6973 88.7754L64.9043 91.0371L63.3457 93.4277L63.334 93.4629L63.3105 93.4863L61.5645 95.9473L61.4238 96.1465L61.4053 96.1602L61.4141 96.3096L61.2109 96.3047L58.8926 98.0215L58.2832 97.1895L57.9316 96.8965L56.7949 95.9121L56.8535 95.8418L56.9707 95.7129L57.0361 95.6592L55.9473 94.4531L55.8535 94.3359L54.1074 91.957V91.9688L52.2207 89.6367H52.209L50.334 87.3047L50.3105 87.2812L50.2988 87.2578L48.623 84.9844L46.5479 83.3389L45.5781 85.3545L44.8984 88.0264L44.875 88.0967L44.8516 88.1553L43.8789 90.874L43.6094 91.6357L42.8125 91.8232L42.707 91.8467L42.3672 90.3936L42.3555 90.3232L41.0547 89.8545L41.6885 88.0879L40.6797 88.5283L40.5859 88.5752L40.4805 88.5986L39.625 88.833L37.6328 89.3721L37.7383 87.3096V87.2041L39.2148 87.2627L38.8398 85.9385L39.5898 85.7393L41.0664 85.1064L41.2539 85.0244L41.4531 85.001L42.6123 84.8438L42.7188 84.4287L42.7539 84.2881L42.8242 84.1475L44.0479 81.6055L41.9199 80.5195L39.5527 80.3672L36.9043 81.0352L36.7637 81.0703H36.623L34.2207 81.1992L32.8848 81.2695L32.6621 79.9453L32.2402 77.332L31.5859 76.5488L31.3105 76.5312L31.3291 76.2412L30.6934 75.4805L28.7012 73.4648L26.6035 71.9766L24.3652 71.3438L22.0098 71.6719L19.6426 72.9258L19.4199 73.0547L19.1504 73.0898L18.5195 73.1768L18.5684 73.6582L18.7559 75.4863L16.9277 75.3105L16.7871 75.2988L16.916 73.834L15.5801 73.9746L15.3223 71.4668V71.3848L15.2305 69.5068L15.2227 69.5029L14.9648 69.3857L14.7773 69.1631L12.8438 67.0303L10.8984 65.5654L8.30859 65.0732L8.19141 65.0615L8.07422 65.0146L5.68359 64.1592L4.46484 63.7256L4.71094 62.46L5.29688 59.5068V59.4951L5.89453 56.6475L6.22266 53.7061V53.6709L6.23438 53.6357L6.70312 50.6709V50.6357L6.71484 50.6006L7.32422 47.6709L7.34766 47.6006L8.08594 44.6943L8.12109 44.5654L8.17969 44.4365L9.44531 41.7295V41.7178L9.45703 41.7061L10.7578 39.0225L10.8047 38.917L10.875 38.8232L12.5625 36.3623L12.5977 36.3154L12.6211 36.2686L14.4961 33.9248L14.5078 33.9131L16.4062 31.5811L16.5234 31.4404L16.6758 31.335L19.0898 29.5303L21.4453 27.7256L21.4805 27.6904L21.5156 27.667L24 25.9912L24.082 25.9326L24.1641 25.8857L26.8594 24.5381L27.0117 24.4561L27.1758 24.4209L29.5557 23.8398L30.252 23.0332L30.7324 23.4551L31.4473 23.9238L32.6895 24.7559L32.6426 24.8379L32.584 24.9199L32.5254 24.9902L32.3555 25.1855L32.375 25.3838L32.2344 25.7236L31.3555 27.9502L31.8125 30.376L32.7031 33.2471H32.6914L33.582 36.0947L34.4023 38.7314L36.0078 41.04L37.6836 43.208L39.6523 45.2236L41.9844 46.8877L44.3281 48.4932L46.9297 49.7354H46.9414L48.4746 50.4531L48.9736 49.7881L48.9668 49.7812L48.8496 49.3594L48.041 46.4766L48.0059 46.3477L47.9941 46.2305L47.666 43.2656V43.2539L47.4053 41.4512L46.4434 40.584L46.4199 40.5605L44.2285 38.498L44.0176 38.2988L43.9004 38.041L42.623 35.3105L42.541 35.123L42.5059 34.9238L42.0371 32.0293L42.002 31.8418L42.0254 31.666L42.2715 28.6777V28.6543L42.2832 28.6309L42.5996 25.877L42.6133 24.7393L42.166 24.6875L42.541 21.7109L43.1855 21.793L43.1973 21.7812L46.0332 22.0391L46.3613 22.0742L46.6426 22.2383L49.2207 23.7266L49.3965 23.832L49.5371 23.9727L51.6699 26.0938L51.8105 26.2461L51.916 26.4336L53.3809 29.0586L53.4043 29.1172L53.4395 29.1758L54.5176 31.6133L55.6543 32.6211L57.834 32.1523L58.0449 32.1172L58.2559 32.1289L61.2207 32.3516L61.3613 32.375L63.0254 32.6562L63.5762 31.0156L63.6348 30.8516L63.7168 30.7109L65.2988 28.0742L65.334 28.0273L67.0449 25.6133L67.1152 25.5195L67.1973 25.4258L69.2949 23.293L69.4824 23.0938L69.7285 22.9766L72.459 21.6992L72.7754 21.5469L73.127 21.5586ZM49.7598 76.2217L49.7246 76.292L48.2598 78.7998L47.502 80.335L48.2129 80.8359L48.248 80.8594L48.2949 80.8828L50.6504 82.7578L50.8027 82.8867L50.9199 83.0508L52.666 85.418L54.5527 87.75H54.541L56.4395 90.082L56.4629 90.1055L56.4863 90.1406L58.1875 92.4443L58.1562 89.7236L58.1328 86.8174L57.9336 84.3916L56.3398 82.8096V82.7979L54.1719 80.8643L54.1016 80.7939L52.0039 78.6611L51.9336 78.5908L51.875 78.5088L50.0469 76.1064L50.0234 76.0713L49.9883 76.0244L49.916 75.916L49.7598 76.2217ZM67.6562 75.9424L66.0859 78.415L66.0508 78.4736L66.0039 78.5322L64.1641 80.8994L64.082 81.0049L63.9883 81.0869L61.7734 83.1143L61.6211 83.2549L61.457 83.3369L60.8994 83.627L61.1211 86.5947L61.1328 86.6416V86.7002L61.1562 89.6885L61.1748 91.2764L62.4785 89.2793L62.5137 89.209L62.5605 89.1621L64.4473 86.8184L64.5176 86.7246L64.5996 86.6543L66.7324 84.6738L68.6777 82.459L68.7715 82.3535L68.8887 82.2715L70.749 80.8066L70.125 79.1982L70.0781 79.0811L69.2461 76.3271L68.5498 74.8369L67.6562 75.9424ZM50.2754 53.0303L49.7598 55.585L49.5137 58.4795L49.5605 61.3154L49.584 64.1279L50.3457 66.7529L51.3184 69.5771L51.4121 69.8467L51.4004 70.1279L51.2988 72.5645L52.4375 74.29L54.2305 76.6455L56.1758 78.626L58.3906 80.6182L58.4492 80.6768L59.0088 81.2295L59.8867 80.7705L61.8906 78.9307L63.5898 76.7275L65.1602 74.2783L65.207 74.208L65.2656 74.1377L67.0938 71.8994L67.1055 71.8877L67.1641 71.8057L67.7715 72.3086L67.5703 70.5381L67.5469 70.2568L67.6172 69.9873L68.332 67.2217L68.6133 64.3389L68.625 64.2686L68.6367 64.1865L69.1875 61.3506V58.5967L68.7188 55.7842V55.7725L68.1562 53.1123L67.541 51.8516L66.1465 52.9102L64.5059 55.1953L64.4941 55.2188L64.4824 55.2305L62.6895 57.5508L62.3379 57.9961L61.7988 58.1133L58.8809 58.6992L58.2832 58.8164L57.7676 58.4766L55.2598 56.8477L54.9785 56.6719L54.8027 56.3789L53.3145 53.9648L51.4277 51.9727L51.2168 51.7852L50.2754 53.0303ZM88.2148 38.1729L88.1562 38.3252L88.0742 38.4541L86.4688 40.9268L86.4805 40.9385L84.9805 43.5283L84.8984 43.6572L84.8047 43.7744L82.8008 46.0127L82.7305 46.0947L82.6484 46.165L80.3398 48.0986L80.2695 48.1689L77.832 49.9502L77.7148 50.0322L77.5742 50.1025L74.8438 51.3682L74.7969 51.3916L74.75 51.4033L71.9492 52.4814L71.1543 52.8018L71.6719 55.2217L71.6836 55.2568V55.3037L72.1641 58.2686L72.1875 58.3857V61.667L72.1523 61.8076L71.6016 64.6201L71.3203 67.6084L71.3086 67.7256L71.2734 67.8428L70.582 70.4561L70.8281 72.6123L72 75.1318L72.0469 75.2256L72.0703 75.3311L72.9141 78.0967L73.2607 78.9834L73.6465 78.709L73.7754 78.6152L73.916 78.5566L76.6934 77.3379L76.998 77.209H77.3262L80.3496 77.291H80.5957L80.8184 77.373L83.3848 78.2754H84.3457L84.627 76.5645L84.6855 76.2012L84.707 76.1699L84.666 76.0186L84.6895 75.7607L84.9004 72.8193V72.7373L84.9238 72.6553L85.4746 69.7139H85.4863L85.9434 66.7959L85.9668 66.6787L86.6816 63.7607L86.6934 63.6904L86.7168 63.6318L87.6777 60.7842L88.5449 57.96L88.5566 57.9365L88.5684 57.9248L89.4824 55.2061L90.0332 52.3232L90.5371 49.3818L90.7246 46.6279L90.4668 43.792V43.6865L90.3965 40.7217L89.8926 37.9561H89.8809L89.1904 35.5576L88.2148 38.1729ZM29.4473 35.5391V35.6094L29.0254 38.5859L29.0137 38.6445L29.002 38.6914L28.3926 41.4453L28.4863 44.2578L28.6152 47.1641L28.9082 50.0234L29.5293 52.9062L29.541 52.9414V52.9883L29.998 55.8242L30.7246 58.7305L30.7363 58.7422L31.4395 61.6602L32.3184 64.3555L33.3496 67.1797L33.3848 67.2734L33.4082 67.3789L34.041 70.3203L34.0527 70.3789L34.0645 70.4258L34.4863 73.4141L34.5098 73.5664L34.498 73.7188L34.4014 75.2617L34.8066 75.75L35.0762 76.0547L35.1348 76.4648L35.4043 78.1289L36.2832 78.082L39.0254 77.4023L39.2598 77.3438L39.4941 77.3672L42.4121 77.543L42.7168 77.5664L42.998 77.707L44.957 78.6992L45.5645 77.4639L45.5879 77.417L45.623 77.3701L47.123 74.7803L48.2949 72.5068L48.3887 70.2803L47.5098 67.7373L47.498 67.7021L47.4863 67.6553L46.6543 64.7607L46.5957 64.5732V64.374L46.5605 61.3506L46.5137 58.374V58.3037L46.5254 58.2217L46.7832 55.2334L46.8066 55.0693L47.1973 53.166L45.6758 52.4541H45.6641L42.957 51.165L42.8516 51.1182L42.7461 51.0479L40.2852 49.3486H40.2734L40.2617 49.3369L37.8359 47.6143L37.7188 47.5322L37.625 47.4385L35.5391 45.3057L35.4805 45.2471L35.4336 45.1768L33.5938 42.8213L33.5586 42.7861L33.5352 42.751L31.8242 40.2783L31.6953 40.0908L31.625 39.8682L30.7227 36.9971V36.9854L29.832 34.1377V34.126L29.6396 33.5107L29.4473 35.5391ZM90.7363 31.9443L91.8613 34.1006L91.9316 34.2295L91.9785 34.3818L92.8105 37.2646L92.8223 37.3467L92.8457 37.417L93.373 40.3701L93.3965 40.4873V40.6162L93.4668 43.6162L93.7246 46.499L93.7363 46.6279V46.7451L93.5137 49.7451V49.8154L93.502 49.8857L92.9863 52.8506V52.874L92.4238 55.8389L92.4121 55.9443L92.377 56.0381L91.4043 58.8857L90.5371 61.71L90.5254 61.7334V61.7568L89.5879 64.4756L88.8848 67.3936L88.4277 70.2295V70.2764L88.1172 71.877L88.752 71.1621L88.8809 71.0332L89.0332 70.9277L91.541 69.2168L91.752 69.0762L91.9863 69.0059L94.916 68.2207L95.1504 68.1504L95.3965 68.1738L98.4199 68.3496L98.7832 68.3613L99.0996 68.5488L101.408 69.9316L102.299 70.0723L102.498 68.5957L102.568 68.0918L102.92 67.7402L103.019 67.6387L102.844 65.3682L102.832 65.2979V65.2393L102.844 62.333L102.469 59.4619L102.059 56.4854V56.4619L101.719 53.6025L101.121 50.6729L100.523 47.8369L99.4805 45.1533V45.1416L98.4023 42.5049L97.0547 39.8682L95.4492 37.5244L95.4023 37.4541L95.3672 37.3838L93.9844 34.8291L92.2969 32.6611L90.8037 31.1406L90.7363 31.9443ZM26.1738 34.7402L26.1035 34.834L24.4043 37.1777L23.3145 39.7676L22.1426 42.5098L21.1582 45.0879L21.1699 45.0996L20.4199 48.0059L20.4082 48.041L20.3965 48.0645L19.5293 50.9355L18.9902 53.6895L18.498 56.6543L18.3457 59.4902L18.4512 62.3613V62.4434L18.3809 65.4316V65.502L18.1699 68.4434L18.2637 70.1689L18.4824 70.1367L20.8613 68.8945L21.0957 68.7656L21.3652 68.7305L24.2715 68.332L24.5762 68.2852L24.8809 68.3789L27.6816 69.1641L27.9395 69.2344L28.1504 69.3867L30.541 71.0977L30.6465 71.168L30.7285 71.2617L31.2246 71.7607L31.1113 70.9648L30.4902 68.1055L29.4941 65.3867V65.3516L29.4824 65.3281L28.5566 62.4688L28.5332 62.4219L28.5215 62.3633L27.8184 59.457L27.0918 56.5508L27.0684 56.4922L27.0566 56.4219L26.5762 53.4688L26.5879 53.457L25.9668 50.6094L25.9434 50.5273L25.9316 50.4453L25.627 47.4688V47.3867L25.4863 44.3984V44.375L25.3926 41.3633L25.3809 41.1758L25.4277 41L26.0605 38.1289L26.4707 35.1875L26.5771 34.0742L26.1738 34.7402ZM25.6523 28.4873L23.2617 30.0928L23.2734 30.1045L20.8945 31.9209L20.8828 31.9326L18.5859 33.6436L16.8281 35.7881L14.9766 38.1436L13.418 40.417L12.1523 42.9834L12.1641 42.9951L10.957 45.5615L10.2539 48.2686L10.2656 48.2803L9.64453 51.2217L9.19922 54.1045L9.1875 54.0928L8.87109 57.0342L8.85938 57.1045L8.84766 57.1631L8.23828 60.1045L7.91016 61.7686L9 62.1553L11.8242 62.6943L12.1641 62.7529L12.4453 62.9756L14.7891 64.7451L14.9062 64.8389L15 64.9443L15.377 65.3604L15.3809 65.3027L15.4512 62.4551L15.3457 59.4551V59.3848L15.3574 59.3262L15.5215 56.3262V56.2324L15.5332 56.1504L16.0488 53.1855V53.1621L16.623 50.209L16.6348 50.1387L16.6582 50.0566L17.5137 47.2559L18.2637 44.3613L18.2754 44.2793L18.3105 44.209L19.3535 41.3965L19.3652 41.3613L19.377 41.3379L20.5605 38.584L21.7441 35.8066L21.8145 35.6543L21.9082 35.5254L23.6309 33.123L25.166 30.6152L26.6074 28.0371L26.6309 28.0137L26.6426 27.9902L26.6445 27.9854L25.6523 28.4873ZM90.9248 26.9766L90.8193 27.4668L92.0742 28.2197L92.2383 28.3252L92.3672 28.4541L94.4766 30.5986L94.5469 30.6572L94.5938 30.7275L96.4453 33.0947L96.5273 33.2002L96.5859 33.3057L97.957 35.8604L99.6211 38.3096L99.6797 38.3916L99.7266 38.4736L101.086 41.1572L101.109 41.2158L101.133 41.2627L102.27 44.0518L102.281 44.0752L103.359 46.876L103.406 46.9932L103.43 47.1104L104.062 50.0518V50.0635L104.66 53.0049L104.684 53.1221L105.035 56.0752L105.434 59.0518H105.445L105.832 62.04L105.855 62.1455V62.251L105.835 64.6738L106.963 63.3809L107.068 63.2637L107.197 63.1699L109.611 61.377L109.646 61.3418L109.693 61.3184L111.674 60.041L111.873 58.541L111.346 55.834V55.7871L111.334 55.752L110.9 52.7871V52.7754L110.455 49.834L110.432 49.752V49.6582L110.338 46.9746L109.236 44.7012L109.201 44.6426L109.178 44.5723L108.217 41.9824L106.424 39.873L106.318 39.7441L106.248 39.6035L104.877 37.0371L103.26 34.8926L101.021 33.1816L100.986 33.1582L100.963 33.1348L98.6895 31.2129L98.6426 31.1777L98.6074 31.1426L96.627 29.1973L94.1191 28.1191L94.0957 28.1074H94.084L91.6113 26.9707L90.9248 26.9766ZM71.252 25.5781L69.4355 27.418L67.8418 29.668L66.3887 32.082L65.4863 34.8242L65.0762 36.0547L63.7988 35.832L60.8691 35.3281L58.2559 35.1289L55.5488 35.7148L54.8105 35.8789L54.248 35.375L52.291 33.6523L52.0449 33.4414L51.916 33.1367L50.7207 30.4531L49.373 28.0391L47.5449 26.2227L45.6016 25.1016L45.5879 25.9824V26.0527L45.5762 26.123L45.5615 26.25L47.6191 27.9023L47.7715 28.0312L47.877 28.1836L49.6465 30.5508L49.7637 30.7148L49.8457 30.9141L50.9121 33.7148L51.0059 33.9492V34.1953L51.1113 37.2188V37.4766L51.041 37.7109L50.3174 40.04L50.7676 40.4434L50.3525 40.9014L50.6426 42.8789V42.9141L50.6543 42.9375L50.9473 45.7617L51.627 48.1172L53.4316 49.7344L53.4785 49.7812L53.5137 49.8281L55.5996 52.0078L55.7051 52.125L55.7871 52.2539L57.1699 54.5156L58.8926 55.6289L60.6504 55.2773L62.1035 53.4023L63.8613 50.9766L63.9902 50.8008L64.166 50.6602L66.3457 48.9961L67.5527 47.1445L68.0684 44.5312L68.5254 41.8125L68.2676 39.3281L67.5879 36.375L67.5059 36.0352L67.5879 35.6953L68.2676 32.7539L68.3379 32.5195L69.4746 29.7539L69.5918 29.4844L69.791 29.2852L71.8887 27.1289L71.9473 27.0703L72.0059 27.0234L72.8535 26.3232L72.8359 26.252L72.7773 26.0059L72.7891 25.7715L72.8613 24.8164L71.252 25.5781ZM56.0645 42.8721L56.6035 43.001L56.9199 43.458L57.9746 44.9463L58.1504 45.1924L58.209 45.4854L58.4434 46.5166L58.8535 48.3447H56.873V46.8682L55.5137 47.1729L55.3379 46.4229L54.7754 45.6143L53.4746 45.2861L53.0762 45.1924L52.7949 44.8994L52.7246 44.8291L53.8965 43.6572L54.2246 42.3916L56.0645 42.8721ZM64.0703 43.6924L64.1641 43.7393L65.418 44.5713L65.3594 44.6533L65.0547 45.1104L64.5156 45.2627L63.7305 45.4854L63.5898 46.0361L63.6953 46.5752L64.0234 48.3447H62.1133V46.8564L60.7422 47.126L60.5898 46.2588L60.5195 45.9424L60.6016 45.626L61.0234 43.9268L61.2344 43.083L62.0781 42.8369L63.707 42.3799L64.0703 43.6924ZM45.0254 31.7598L45.4355 34.2441L46.502 36.5176L47.8691 37.8047L48.0996 37.0664L48.0176 34.5469L47.1152 32.168L45.6035 30.1406L45.1895 29.8057L45.0254 31.7598ZM72.1465 31.1484L71.1504 33.5742L70.5762 36.0234L70.917 37.4658L71.582 36.3535L71.6055 36.3066L73.1055 33.9512L73.7852 31.5371L73.5869 29.6797L72.1465 31.1484Z" fill="black"/>
</svg>
