<svg width="120" height="120" viewBox="0 0 120 120" fill="none" xmlns="http://www.w3.org/2000/svg">
<path d="M111.312 114.289L112.355 114.547L111.652 117.453L110.891 117.266L108.547 117.629L108.453 117.652H108.359L105.723 117.723H105.582L103.051 117.301L100.672 117.734L100.438 117.781L100.203 117.746L97.6367 117.406H95.2344L92.5977 117.629L92.4922 117.641L92.3984 117.629L89.75 117.477V117.465L87.2773 117.348L84.7812 117.734L84.582 117.77L84.3945 117.746L81.8516 117.453L79.2969 117.477L79.2852 117.465L76.7773 117.711L76.6133 117.723L76.4492 117.699L73.918 117.383L71.3867 117.43H71.3281L68.6914 117.371H68.6445L66.1719 117.23L63.7109 117.699L63.4766 117.746L63.2305 117.711L60.7227 117.348L58.2383 117.488H58.0156L55.5898 117.242L53.1406 117.676L52.8828 117.723L52.6133 117.676L50.1172 117.242L47.6914 117.395H47.668L47.6445 117.406L42.3711 117.57H42.2539L42.1367 117.559L39.5938 117.254L37.1328 117.418L37.0508 117.43L36.957 117.418L34.5078 117.277L32 117.699L31.7891 117.734L31.5781 117.711L29.0234 117.395L26.5391 117.324L23.9492 117.512L23.8906 117.523H23.832L21.1953 117.512H21.0781L18.5 117.301L16.0508 117.395L16.0625 117.406L13.4258 117.664L13.2734 117.676L13.1211 117.664L10.625 117.395L8.16406 117.5H8V114.5H8.03516L10.5781 114.395L10.6836 114.383L10.8008 114.395L13.2852 114.664L15.7695 114.418H15.8633L18.5 114.312L18.5938 114.301L18.6758 114.312L21.3125 114.512L21.3008 114.523H23.7383L26.375 114.336L26.4453 114.324L26.5273 114.336L29.1641 114.406H29.2344L29.293 114.418L31.7305 114.699L34.1562 114.301L34.3203 114.277L34.4844 114.289L37.0156 114.43L39.582 114.254L39.7227 114.242L39.8633 114.266L42.3711 114.57L44.9141 114.488L47.5039 114.418V114.406L50.1523 114.242L50.3281 114.23L50.5039 114.266L52.8828 114.688L55.2617 114.266L55.4609 114.23L55.6602 114.242L58.1328 114.488L60.7227 114.348L60.8633 114.336L61.0156 114.359L63.418 114.711L65.8086 114.266L65.9844 114.23L66.1602 114.242L68.7969 114.371L68.7852 114.383L71.3633 114.43L73.9766 114.383H74.082L74.1875 114.395L76.6836 114.711L79.1445 114.477H79.2734L81.9102 114.453H82.0039L82.0859 114.465L84.5469 114.746L86.9727 114.371L87.125 114.348L87.2773 114.359L89.9141 114.488H89.9258L92.4453 114.641L95 114.43L95.0586 114.418H95.1055L97.7539 114.406H97.8594L97.9648 114.418L100.367 114.746L102.77 114.312L103.027 114.266L103.285 114.301L105.816 114.723L108.137 114.664L110.738 114.266L111.031 114.219L111.312 114.289Z" fill="black"/>
<path d="M71.8672 6.26562L74.375 6.57031L76.9062 6.48828L79.5547 6.40625H79.5781L82.2383 6.35938H82.5195L82.7773 6.45312L85.1211 7.32031L87.6406 7.66016L87.9453 7.70703L88.2031 7.85938L90.4766 9.20703L92.7852 10.5312L92.9961 10.6602L93.1602 10.8477L94.8125 12.7227L96.8398 14.2812L97.0625 14.4453L97.2031 14.6797L98.5977 16.9531L98.668 17.0938L99.8164 19.4844L99.8516 19.543L99.875 19.6133L100.789 22.0977L100.859 22.2852L100.883 22.4961L101.082 25.0156L101.504 27.6172L101.527 27.7344V27.8516L101.551 30.4883V30.582L101.539 30.6758L101.258 33.0781L101.633 35.5625L101.656 35.7031L101.645 35.8555L101.516 38.4922V38.5039L101.363 41.0234L101.574 43.5781V43.6953L101.598 46.332V46.4375L101.586 46.543L101.246 48.9453L101.691 51.3594L101.738 51.6055L101.691 51.8633L101.281 54.3477L101.34 56.8203L101.738 59.3164L101.75 59.4336V59.5508L101.738 62.1875V62.293L101.727 62.3984L101.352 64.8945L101.504 67.3789V67.5195L101.41 70.1562V70.2734L101.387 70.3906L100.859 72.9805L100.848 73.0742L100.812 73.168L99.9805 75.6523L99.9453 75.7578L99.8984 75.8633L98.7148 78.1953L98.7031 78.1836L97.6133 80.5625L97.5078 80.7734L97.3438 80.9492L95.5391 82.8945L93.7227 84.8398L93.5586 85.0156L93.3359 85.1328L90.9922 86.4102L90.9805 86.3984L88.6953 87.6758L88.5898 87.7344L88.4844 87.7695L86 88.6602L85.9414 88.6836L85.8711 88.707L83.3164 89.3867L83.1641 89.4219L83.0117 89.4336L80.3633 89.5859L80.3047 89.5977H80.2461L77.6094 89.5391V89.5273L75.0195 89.5039L72.4062 89.5977L69.7578 89.6914H69.6992L67.0625 89.668H67.0508L64.4023 89.6211H64.332L64.2617 89.6094L61.7422 89.3164L59.293 89.3633L59.3047 89.375L56.668 89.6445L56.5977 89.6562H53.7734L51.125 89.4688V89.457L48.5469 89.3867V89.375L45.9336 89.3398H45.9219L43.332 89.293L40.7305 89.3867H40.6016L37.9766 89.2578L37.8594 89.2461L37.7422 89.2227L35.2227 88.6836V88.6953L32.6211 88.2266L32.4805 88.2031L32.3516 88.1562L29.8672 87.1836L29.7031 87.125L29.5625 87.0195L27.3711 85.5078L27.2539 85.4141L25.2383 83.7031L25.1797 83.6562L25.1211 83.5977L23.293 81.6758L23.2227 81.6055L23.1641 81.5117L21.6172 79.3555L21.5117 79.2148L21.4531 79.0391L20.5039 76.6602L19.3789 74.2695L19.2969 74.1055L19.2617 73.9297L18.7461 71.3398L18.7227 71.1758L18.4766 68.5508V68.3984L18.5 65.75V65.7148L18.5117 65.668L18.6875 63.1836L18.2539 60.7461L18.207 60.4766L18.2656 60.2188L18.7344 57.6992L18.7109 55.332L18.4883 52.6953V52.6719L18.3125 50.0352V47.3047L18.2773 44.668V44.5391L18.3008 44.4102L18.7109 41.9141L18.5469 39.4648V39.3125L18.6406 36.8164L18.5 34.168V34.0508L18.5703 31.6133L18.2891 28.9766L18.2539 28.7422L18.3125 28.5078L18.8281 26.0469L18.8867 23.5039L18.8984 23.2695L18.9805 23.0469L19.8477 20.5508L19.8711 20.4805L19.9062 20.4102L21.0195 18.0195L21.0312 18.0078L22.1797 15.6055L22.2852 15.3828L22.4609 15.207L24.3125 13.3086L24.3828 13.2383L26.3281 11.4688L26.4336 11.3633L26.5625 11.293L28.8242 9.93359L30.8633 8.45703L31.0273 8.32812L31.2266 8.25781L33.7227 7.35547L33.8516 7.30859L33.9922 7.28516L36.6055 6.86328L36.6758 6.85156H36.7578L39.1602 6.72266L39.4883 6.59375L39.7344 6.5H40.0391L42.5703 6.39453L42.6875 6.38281L42.793 6.39453L45.2891 6.66406L47.7734 6.41797H47.8555L50.5039 6.3125L50.5859 6.30078L50.6797 6.3125L53.3164 6.51172L53.3047 6.52344H55.7305L58.3672 6.33594L58.4492 6.32422L58.5195 6.33594L61.168 6.40625H61.2266L61.2969 6.41797L63.7227 6.69922L66.1602 6.30078L66.3125 6.27734L66.4766 6.28906L69.0195 6.42969L71.5859 6.25391L71.7266 6.24219L71.8672 6.26562ZM69.1367 9.41797L69.0547 9.42969L68.9609 9.41797L66.5 9.27734L64.0039 9.69922L63.793 9.73438L63.582 9.71094L61.0273 9.39453L58.543 9.32422L55.9531 9.51172L55.8945 9.52344H55.8359L53.1992 9.51172H53.082L50.5039 9.30078L48.0547 9.39453L45.4297 9.66406L45.2773 9.67578L45.125 9.66406L42.6172 9.39453L40.2617 9.48828L39.9688 9.60547L39.7578 9.6875L39.5469 9.69922L36.9336 9.83984L34.6016 10.2266L32.4336 11L30.4648 12.4414L30.418 12.4766L30.3594 12.5117L28.2266 13.7773L26.3984 15.4648L24.7812 17.1172L23.7266 19.2852L22.625 21.6758L21.875 23.8086L21.8164 26.2344V26.3633L21.7812 26.4922L21.2891 28.8711L21.5586 31.2852L21.5703 31.3906V31.4844L21.5 34.0156L21.6406 36.6523V36.793L21.5469 39.4297L21.6992 41.9258L21.7109 42.0898L21.6875 42.2539L21.2773 44.7969L21.3125 47.2695V49.9297L21.4883 52.4727H21.4766L21.6992 55.0859L21.7109 55.1445V55.2031L21.7344 57.8398V57.9805L21.6992 58.1328L21.2539 60.4766L21.6641 62.8789L21.6992 63.0547L21.6875 63.2305L21.5 65.8789L21.4766 68.4336L21.6992 70.8125L22.1562 73.1328L23.2227 75.3945L23.2461 75.4648L24.1484 77.7266L25.5195 79.6602L27.2656 81.4883L29.1875 83.1172L31.1328 84.4531L33.2656 85.2852L35.7617 85.7422L35.7852 85.7539H35.7969L38.2109 86.2578L40.6953 86.375L43.2617 86.293H43.3438L48.6172 86.3867H48.6406L51.2773 86.4688H51.3359L53.9844 86.6562H56.3633L59 86.3867H59.0586L59.1172 86.375L61.7539 86.3164H61.8594L61.9648 86.3281L64.4961 86.6211L67.0977 86.668H67.0859L69.6758 86.6797L72.3008 86.5977L74.9375 86.5156L74.9727 86.5039H75.0078L77.6562 86.5391H77.668L80.2109 86.5859L82.6836 86.4336L85.1094 85.8008L87.3711 84.9688L89.5625 83.7734V83.7617L91.707 82.6016L93.3477 80.8438L94.9883 79.0742L96.0078 76.8828L96.0312 76.8359L97.168 74.5859L97.918 72.3477L98.4102 69.957L98.5039 67.543L98.3633 64.9062L98.3516 64.7539L98.375 64.6016L98.7383 62.1172V59.6094L98.3633 57.125L98.3516 57.0312V56.9375L98.2812 54.3008V54.1602L98.3047 54.0195L98.6914 51.6406L98.2578 49.25L98.2227 49.0156L98.2578 48.7812L98.5859 46.2383L98.5742 43.7188V43.707L98.375 41.1875L98.3633 41.082V40.9766L98.5156 38.3398L98.6328 35.8086L98.2695 33.3711L98.2344 33.1719L98.2578 32.9727L98.5391 30.4414L98.5273 27.9688L98.1055 25.4375V25.3789L97.9062 22.9648L97.0859 20.7148L95.9961 18.4531L94.7891 16.4961L92.8789 15.0195L92.7617 14.9258L92.668 14.8203L91.0625 13.0039L88.9883 11.8086H88.9648L86.9375 10.5898L84.582 10.2734L84.418 10.25L84.2656 10.1914L82.0039 9.35938L79.6367 9.39453L79.6484 9.40625L74.375 9.57031H74.2578L74.1406 9.55859L71.5977 9.24219L69.1367 9.41797Z" fill="black"/>
<path d="M82.7656 86.2656L85.2617 86.6758L86.4453 86.875L86.5039 88.082L86.6562 90.7188V90.8711L86.6328 91.0117L86.2812 93.4023L86.7383 95.8047L86.7734 95.9805L86.7617 96.1562L86.6211 98.793L86.5742 101.395L86.6094 103.973L86.6211 104.078L86.5977 104.184L86.293 106.621L86.5156 109.141L86.5273 109.211V109.27L86.5508 111.906V112L86.5391 112.094L86.2344 114.73L86.1992 115.047L86.0352 115.328L85.0859 116.91L84.6289 117.684L83.7266 117.648L81.0898 117.52H81.0781L78.4648 117.367L76.0039 117.578H75.8867L73.25 117.602H73.1445L73.0391 117.578L70.625 117.25L68.2227 117.695L67.9766 117.742L67.7188 117.695L65.2344 117.285L62.832 117.332L60.2656 117.73L60.1484 117.754H60.0312L57.3945 117.742H57.2891L57.1836 117.73L54.6758 117.355L52.2031 117.508H52.1328L49.4844 117.52H49.4375L46.8008 117.449V117.438L44.1641 117.391H44.1523L41.6328 117.297L39.1133 117.637L38.9844 117.66L38.8438 117.648L36.207 117.52L35.668 117.496L35.2695 117.133L33.7461 115.75L33.1836 115.234L33.2656 114.473L33.5586 111.906L33.4883 109.398V106.797L33.3594 104.148L33.3477 104.102L33.3594 104.055L33.4062 101.406L33.4648 98.7695L33.4883 96.2148L33.3945 93.5664L33.3125 90.9297V90.8711L33.3359 88.2344V87.7539L33.6055 87.3789L33.7695 87.1328L34.2266 86.5H35.0352L37.5781 86.3945L37.6836 86.3828L37.8008 86.3945L40.2852 86.6641L42.7695 86.418H42.8633L45.5 86.3125L45.5938 86.3008L45.6758 86.3125L48.3125 86.5117L48.3008 86.5234H50.7383L53.375 86.3359L53.4453 86.3242L53.5273 86.3359L56.1641 86.4062H56.2344L56.293 86.418L58.7305 86.6992L61.1562 86.3008L61.3203 86.2773L61.4844 86.2891L64.0156 86.4297L66.582 86.2539L66.7227 86.2422L66.8633 86.2656L69.3711 86.5703L71.9141 86.4883L74.5039 86.418V86.4062L77.1523 86.2422L77.3281 86.2305L77.5039 86.2656L79.8828 86.6875L82.2617 86.2656L82.5195 86.2188L82.7656 86.2656ZM74.6914 89.3945H74.668L74.6445 89.4062L69.3711 89.5703H69.2539L69.1367 89.5586L66.5938 89.2539L64.1328 89.418L64.0508 89.4297L63.957 89.418L61.5078 89.2773L59 89.6992L58.7891 89.7344L58.5781 89.7109L56.0234 89.3945L53.5391 89.3242L50.9492 89.5117L50.8906 89.5234H50.832L48.1953 89.5117H48.0781L45.5 89.3008L43.0508 89.3945L43.0625 89.4062L40.4258 89.6641L40.2734 89.6758L40.1211 89.6641L37.625 89.3945L36.3242 89.4414L36.3125 90.8945L36.3945 93.4727L36.4883 96.1094V96.1797L36.4648 98.8164V98.8281L36.4062 101.477L36.3477 104.113L36.4766 106.645L36.4883 106.68V109.316L36.5586 111.953L36.5703 112.07L36.5586 112.176L36.3359 114.051L36.8867 114.555L38.8555 114.648L41.3633 114.32L41.4805 114.297L41.6094 114.309L44.2461 114.391H44.2344L46.8828 114.449L49.5078 114.508H52.0391L54.6758 114.355H54.8281L54.9805 114.367L57.5352 114.742H59.8906L62.457 114.367L62.5508 114.355H62.6445L65.2812 114.285L65.4219 114.273L65.5625 114.297L67.9648 114.684L70.332 114.262L70.5664 114.215L70.8008 114.25L73.3438 114.59L75.7578 114.578L78.3945 114.367H78.6055L81.2422 114.52H81.2305L82.9648 114.602L83.293 114.051L83.5508 111.824L83.5273 109.293H83.5156L83.293 106.773L83.2812 106.621L83.293 106.457L83.5977 103.914L83.5742 101.383V101.324L83.6328 98.6875V98.6406L83.75 96.1445L83.3047 93.7188L83.2578 93.4727L83.293 93.2266L83.6445 90.7188L83.5742 89.4297L82.5195 89.2539L80.1406 89.6758L79.8828 89.7227L79.6133 89.6758L77.1172 89.2422L74.6914 89.3945Z" fill="black"/>
<path d="M45.2812 86.5234L47.5547 86.3945L47.6719 86.3828L47.8008 86.3945L50.2852 86.6641L52.7695 86.418L53.6016 86.3359L54.1055 86.9922L55.3828 88.6445L55.7344 89.1016L55.6875 89.6758L55.4883 92.3125L55.4766 94.7383L55.6641 97.375L55.6758 97.4453L55.6641 97.5273L55.5938 100.164V100.234L55.582 100.293L55.3008 102.73L55.6992 105.156L55.7227 105.32L55.7109 105.484L55.5703 108.016L55.7461 110.582L55.7578 110.723L55.7344 110.863L55.4297 113.371L55.5117 115.914L55.5586 117.379L54.0938 117.461L51.4805 117.59L51.4922 117.602L48.8555 117.766H48.6797L48.5039 117.742L45.8555 117.273L45.4102 117.191L45.082 116.887L43.7109 115.562L43.1836 115.059L43.2422 114.344L43.4883 111.836L43.3477 109.281L43.3359 109.129L43.3594 108.988L43.6992 106.562L43.2656 104.195L43.2305 104.02L43.2422 103.844L43.3711 101.207L43.4297 98.6641L43.3828 96.0273V95.9219L43.3945 95.8164L43.7109 93.3086L43.4766 90.8594V90.7305L43.4531 88.0938V87.6719L43.6641 87.3086L43.7109 87.2383L44.332 86.1953L45.2812 86.5234ZM46.4648 89.4531V90.6953L46.7109 93.2266L46.7227 93.3789L46.6992 93.543L46.3828 96.0625L46.4297 98.6172V98.6758L46.3711 101.312V101.359L46.2305 103.82L46.7461 106.527L46.7109 106.773L46.3477 109.27L46.4883 111.754V111.977L46.3008 113.887L46.8281 114.391L48.8203 114.754L51.3047 114.602H51.3164L52.4648 114.531L52.4297 113.371V113.254L52.4414 113.137L52.7461 110.582L52.582 108.133L52.5703 108.051L52.582 107.957L52.7109 105.484L52.3008 103L52.2656 102.789L52.2891 102.578L52.5938 100.023L52.6758 97.5859L52.4883 94.9492L52.4766 94.8906V94.832L52.4883 92.1953V92.0781L52.6523 90.0156L52.2422 89.4766L50.4258 89.6641L50.2734 89.6758L50.1211 89.6641L47.5664 89.3828L46.4648 89.4531Z" fill="black"/>
<path d="M66.8008 86.3945L69.2852 86.6641L71.7695 86.418L72.0625 86.3945L72.332 86.4648L74.6055 87.1211L75.7891 87.4492L75.6953 88.6797L75.4844 91.3164V93.8477L75.6602 96.3672L75.6719 96.4492V96.5195L75.5898 99.168V99.2969L75.2969 101.723L75.6953 104.16L75.7188 104.312V104.477L75.5781 107.02L75.7422 109.586L75.7539 109.727L75.7422 109.867L75.4258 112.375L75.5078 114.906L75.543 115.715L74.875 116.184L73.2695 117.32L72.918 117.566L72.4961 117.602L69.8477 117.766H69.6719L69.4961 117.742L67.1172 117.309L64.7383 117.742L63.2969 117.988L63.0156 116.559L62.5234 114.133L62.5 114.027L62.4883 113.922L62.3477 111.285L62.3359 111.133L62.3594 110.992L62.6992 108.555L62.2656 106.199L62.2305 106.023L62.2422 105.836L62.3711 103.199L62.4297 100.668L62.3828 98.0195V97.9141L62.3945 97.8203L62.7109 95.3125L62.4766 92.8516V92.7344L62.4531 90.0859V89.9805L62.4648 89.8633L62.7695 87.7891L63.8594 87.9531L64 86.5H64.4805L66.5664 86.3945L66.6836 86.3828L66.8008 86.3945ZM65.5586 89.4531L65.4531 90.2031L65.4648 92.6992L65.7109 95.2188L65.7227 95.3828L65.6992 95.5469L65.3828 98.0664L65.4297 100.609V100.668L65.3711 103.316V103.363L65.2305 105.824L65.7461 108.531L65.7109 108.777L65.3477 111.273L65.4766 113.629L65.6523 114.52L66.8594 114.32L67.1172 114.273L67.3867 114.32L69.8242 114.754L71.875 114.625L72.4844 114.191L72.4258 112.375V112.258L72.4375 112.141L72.7422 109.656L72.5781 107.137V106.961L72.707 104.477L72.2969 102.004L72.2734 101.793L72.2969 101.582L72.5898 99.0273L72.6719 96.5898L72.4844 93.9531V91.1406L72.4961 91.082L72.6016 89.6641L71.7695 89.4297L69.4258 89.6641L69.2734 89.6758L69.1211 89.6641L66.625 89.3945L65.5586 89.4531Z" fill="black"/>
<path d="M60.6055 15.7236L60.7461 15.8057L61.0977 16.0049L61.2969 16.3564L61.3203 16.3916L62.6797 18.5479L62.7383 18.6416L62.7734 18.7354L63.7812 21.0205L65.2344 23.0713L65.2812 23.1416L66.6758 25.3799L66.7227 25.4619L66.7695 25.5322L67.8477 27.8291L69.0898 30.0322L70.5664 32.2354L70.6016 32.2939L70.6367 32.3643L71.8789 34.6846L71.9141 34.7432L71.9375 34.8135L72.8867 37.04L74.4453 38.9736L74.5508 39.1025L74.6211 39.2432L75.7812 41.5518L77.1875 43.6611L77.2578 43.7783L77.3164 43.9072L78.3008 46.2627L79.625 48.4072L80.9844 50.6221L82.4375 52.8252L82.5312 52.9775L82.6016 53.1416L83.4102 55.415L84.957 57.2783L85.0859 57.4307L85.168 57.6182L86.2109 59.9385L87.5938 62.0596L87.6641 62.1885L87.7227 62.3174L88.707 64.8018L89.0586 65.6807L88.4023 66.3838L87.4531 67.4033L86.9727 67.9072L86.2812 67.8721L83.6328 67.7314V67.7197L81.0664 67.6729L78.4648 67.7197H78.3594L78.2539 67.708L75.793 67.4033L73.2969 67.626L73.2266 67.6377H73.168L70.5312 67.6494H70.3438L67.8711 67.3564L65.457 67.7314L65.3164 67.7549H65.1641L62.5273 67.626H62.5156L59.9023 67.4736L57.4414 67.6846H57.3242L54.6875 67.708H54.582L54.4766 67.6846L52.0625 67.3564L49.6602 67.8018L49.4023 67.8486L49.1562 67.8018L46.6602 67.3916L44.2812 67.4385L41.7031 67.8369L41.5859 67.8604H41.4688L38.832 67.8486H38.7266L38.6211 67.8369L36.1133 67.4619L33.6406 67.6143L33.0078 67.6494L32.5391 67.2158L31.5078 66.2549L30.6055 65.4229L31.2383 64.3799L32.6094 62.1182L33.9688 59.8682V59.8447L35.2812 57.7119L36.2539 55.3564L36.3008 55.2275L36.3828 55.1104L37.7539 52.9424L38.832 50.6572L38.8906 50.5283L38.9844 50.4111L40.4609 48.3838L41.6797 46.1104L41.6914 46.0986L41.7031 46.0752L43.0039 43.79L44.1758 41.4932L44.2227 41.3994L45.5703 39.1377H45.582L46.9297 36.8643L48.2656 34.6025L49.4609 32.3291L50.6914 29.9854L50.7148 29.9619L50.7266 29.9385L52.0508 27.6533V27.6416H52.0625L53.4102 25.3682L53.4453 25.3096L53.4922 25.251L55.0156 23.1533L56.1523 21.0674L57.2305 18.6416L57.3008 18.501L58.5547 16.2861L59.3047 14.9854L60.6055 15.7236ZM59.9375 19.9189L58.8945 22.2744L58.8477 22.3916L57.5938 24.7119L57.5469 24.8057L57.4883 24.8877L55.9062 27.0322L54.6406 29.1768L54.6289 29.165L53.3398 31.3799L52.1094 33.7119L50.8906 36.0557L50.8672 36.0908L50.8555 36.126L49.5195 38.3994L49.5078 38.4111L48.1484 40.6729L46.8008 42.9463L45.6523 45.208L45.6289 45.2432L45.6172 45.2666L44.3164 47.5166L44.3281 47.5283L43.0859 49.8604L43.0391 49.9541L42.9688 50.0361L41.4922 52.04L40.4258 54.3252L40.3789 54.4189L40.332 54.501L38.9727 56.5986L38.0234 58.9541L37.9766 59.0713L37.918 59.1768L36.5234 61.4268L35.1758 63.665V63.6768L34.6484 64.5439L36.1133 64.4619H36.2656L36.418 64.4736L38.9727 64.8486H41.3281L43.8945 64.4736L43.9883 64.4619H44.082L46.7188 64.3916L46.8594 64.3799L47 64.4033L49.4023 64.79L51.7695 64.3682L52.0039 64.3213L52.2383 64.3564L54.7812 64.6963L57.1953 64.6846L59.832 64.4736H60.043L62.6797 64.626H62.668L65.1406 64.7432L67.6484 64.3682L67.8477 64.3447L68.0469 64.3682L70.5664 64.6377H73.0156L75.6641 64.4033L75.8164 64.3799L75.9805 64.4033L78.5 64.708L81.0547 64.6729H81.1133L83.75 64.7314H83.7969L85.4844 64.8135L84.9688 63.5244L83.6328 61.4619L83.5742 61.3682L83.5273 61.2744L82.5195 59.0479L80.9375 57.1377L80.7617 56.9268L80.6797 56.6807L79.8359 54.3369L78.4766 52.2627L78.4648 52.2393L78.4531 52.2275L75.6875 47.7275L75.6289 47.6338L75.582 47.5166L74.6094 45.1963L73.2266 43.1104L73.1797 43.04L73.1328 42.958L72.0312 40.7549L70.4375 38.7861L70.2969 38.6221L70.2148 38.4346L69.1836 35.9854H69.1719L67.9883 33.7705H67.9766L66.5938 31.708L66.5586 31.6611L66.5352 31.6143L65.2344 29.3174L65.2109 29.2588L65.1875 29.2119L64.0859 26.9033L62.7852 24.8057L61.25 22.6377L61.1562 22.5205L61.0977 22.3799L60.0664 20.0479L59.9609 19.8721L59.9375 19.9189Z" fill="black"/>
<path d="M61.7109 43.5908L61.5703 46.2275L61.5703 46.2627L61.5 47.2236L58.5 46.9893L58.582 46.0283L58.7109 43.6143L58.3008 41.1064L58.2656 40.8955L58.2891 40.6846L58.5937 38.1299L58.6641 35.6455L58.4883 33.0557L58.4766 32.9971L58.4766 32.9385L58.4883 30.3018L58.4883 30.1846L58.6875 27.6064L58.5937 25.1572L58.5937 25.1689L58.3359 22.5322L58.3242 22.3799L58.3359 22.2275L58.5937 19.7314L58.5 17.2705L58.5 17.1064L61.5 17.1064L61.5 17.1416L61.6055 19.6846L61.6172 19.79L61.6055 19.9072L61.3359 22.3916L61.582 24.876L61.582 24.9697L61.6875 27.6064L61.6992 27.7002L61.6875 27.7822L61.4883 30.4189L61.4766 30.4072L61.4766 32.8447L61.6641 35.4814L61.6758 35.5518L61.6641 35.6338L61.5937 38.2705L61.5937 38.3408L61.582 38.3994L61.3008 40.8369L61.6992 43.2627L61.7227 43.4268L61.7109 43.5908Z" fill="black"/>
<path d="M86.8703 65.4018L85.6417 64.5827L85.0307 65.6683L83.2366 64.6835L83.1423 64.6347L83.0611 64.5665L81.0947 63.1006L78.7806 62.0508L78.5856 61.9631L78.4231 61.8266L76.4664 60.156L74.4383 58.7194L72.1859 57.4291L72.1307 57.4063L72.0819 57.3738L69.8945 55.9015L69.797 55.8365L67.7624 54.2406L65.6725 52.96L65.6823 52.9665L63.3454 51.7185L63.2121 51.6437L63.0919 51.5494L61.158 49.9503L59.0584 48.6633L58.9219 48.5723L60.586 46.0761L60.6152 46.0956L62.7896 47.4184L62.8839 47.4672L62.9749 47.542L64.8925 49.1443L67.0961 50.3176L67.1741 50.3696L69.4265 51.7445L69.511 51.7867L69.5728 51.842L71.6561 53.4703L71.6399 53.4736L73.668 54.8256L75.9659 56.1322L76.0309 56.1615L76.0927 56.2167L78.2475 57.7378L78.306 57.7768L78.3483 57.8191L80.2204 59.4052L82.4598 60.4192L82.6093 60.4907L82.7393 60.5915L84.7382 62.0931L86.4835 63.0454L87.9169 63.8319L86.8703 65.4018Z" fill="black"/>
<path d="M58.8588 46.2124L59.75 45.9182L60.7121 48.7501L60.0609 48.9804L58.1793 50.444L58.1181 50.4999L58.034 50.5429L55.9362 51.8135L54.093 53.5629L53.9384 53.7105L53.7508 53.8098L51.4669 54.9943L49.373 56.3332L47.3302 57.9348L47.2883 57.9775L47.2399 58.0104L45.0529 59.4834L44.956 59.5493L42.7121 60.8343L40.7395 62.289L40.7491 62.2824L38.7137 63.9783L38.5944 64.0736L38.4618 64.1496L36.2527 65.34L34.2704 66.8013L34.1348 66.8936L32.4478 64.4128L32.4769 64.393L34.5204 62.8759L34.6011 62.8069L34.7046 62.7507L36.9105 61.5765L38.8265 59.9761L38.9041 59.9233L41.0251 58.3535L41.0961 58.2911L41.1705 58.2546L43.4629 56.9367L43.4598 56.953L45.4754 55.5824L47.5504 53.9447L47.6019 53.8954L47.6763 53.859L49.8962 52.4345L49.9544 52.3949L50.0094 52.3717L52.1832 51.2336L53.9651 49.5401L54.0876 49.4285L54.2299 49.3459L56.4021 48.0389L58.4255 46.4504L58.6321 46.2957L58.8588 46.2124Z" fill="black"/>
<path d="M58 83.4961L58 82.0078L56.6992 82.0781L56.6055 80.0508L56.5937 80.0625L56.3359 77.4258L56.3242 77.2734L56.3359 77.1211L56.6055 74.625L56.5 72.1641L56.5 72L59.5 72L59.5 72.0352L59.6055 74.5781L59.6172 74.6836L59.6055 74.8008L59.3359 77.2852L59.582 79.7695L59.582 79.8398L59.6875 81.9258L59.7695 83.4961L58 83.4961Z" fill="black"/>
<path d="M49 83.4961L49 82.0078L47.6992 82.0781L47.6055 80.0508L47.5937 80.0625L47.3359 77.4258L47.3242 77.2734L47.3359 77.1211L47.6055 74.625L47.5 72.1641L47.5 72L50.5 72L50.5 72.0352L50.6055 74.5781L50.6172 74.6836L50.6055 74.8008L50.3359 77.2852L50.582 79.7695L50.582 79.8398L50.6875 81.9258L50.7695 83.4961L49 83.4961Z" fill="black"/>
<path d="M51.999 73.0049L53.4873 73.0049L53.417 71.7041L55.4443 71.6104L55.4326 71.5986L58.0693 71.3408L58.2217 71.3291L58.374 71.3408L60.8701 71.6104L63.3311 71.5049L63.4951 71.5049L63.4951 74.5049L63.46 74.5049L60.917 74.6104L60.8115 74.6221L60.6943 74.6104L58.21 74.3408L55.7256 74.5869L55.6553 74.5869L53.5693 74.6924L51.999 74.7744L51.999 73.0049Z" fill="black"/>
<path d="M75.4961 77.9902H74.0195L74.4531 79.3262L73.6562 79.584L73.3047 79.7012L72.9414 79.6309L71.5 79.3848L70.2109 79.4902H70L70 76.6426L69.9883 76.4902L71.4883 76.3848L71.6758 76.373L71.8516 76.4082L73.082 76.6191L73.5391 76.4785L75.4961 75.8457L75.4961 77.9902Z" fill="black"/>
<path d="M82.9805 71.5234L85.3711 72.4961L85.5938 72.5898L85.7695 72.7422L87.7852 74.4414L88.2188 74.8164L88.3008 75.3906L88.5586 77.3008L88.793 79H88.1133L87.8086 80.3828L87.668 80.9688L87.1758 81.2969L85.0078 82.7383L84.7617 82.9023L84.4688 82.9609L81.9375 83.4766L81.4453 83.5703L80.9883 83.3594L78.5625 82.2109L78.0703 81.9648L77.8477 81.4727L76.7461 79.0469L76.582 78.6953L76.6172 78.2969L76.8398 75.7188L76.875 75.3203L77.0977 74.9922L78.6094 72.8125L78.9023 72.3672L79.418 72.2266L81.9844 71.4648L82.4883 71.3125L82.9805 71.5234ZM80.7656 74.9453L79.793 76.3633L79.6289 78.1562L80.3438 79.7148L81.8203 80.4297L83.5781 80.0781L85.0078 79.1289L85.4414 77.1953L85.4883 76.9609L85.3945 76.3633L84.0117 75.1797L82.3359 74.4883L80.7656 74.9453Z" fill="black"/>
<path d="M39.5117 71.3711L42.1367 71.7812L42.4883 71.8398L42.7812 72.0625L44.7383 73.4922L43.9297 74.6055L43.9531 74.6758L44.3867 76.1172L44.293 76.1406L43.5781 76.3633L42.9688 75.918L41.293 74.6875L39.5 74.3945L37.8945 75.168L36.8867 76.6094L36.6758 78.25L37.4961 79.5977L39.1016 80.2305L40.9414 80.1016L42.418 79.1992L42.5703 78.7539L45.4297 79.668L45.1133 80.6523L44.9492 81.1914L44.457 81.4844L42.1836 82.8672L41.8789 83.043L41.5156 83.0781L38.9844 83.2539L38.6445 83.2891L38.3281 83.1602L35.9375 82.2109L35.4688 82.0352L35.2109 81.6016L33.8516 79.375L33.5703 78.918L33.6406 78.4023L33.9688 75.8711L34.0156 75.4961L34.2266 75.2031L35.668 73.1289L35.8906 72.8125L36.2422 72.6367L38.6211 71.5L39.0547 71.2891L39.5117 71.3711Z" fill="black"/>
<path d="M68.9258 71.4297L71.5625 71.7812L71.6328 71.793L71.6914 71.8047L74.1875 72.3555L73.8945 73.6445L73.9531 73.7734L74.5859 75.1328L74.4922 75.1797L74.0352 75.3906L73.5312 75.2852L71.1172 74.7461L69.0664 74.4766L67.625 75.3672L66.793 76.9258V78.5781L67.7656 79.832L69.4531 80.2773L71.2461 79.9375L73.0625 78.543L73.5664 79.1992L74 79.2109L75.5 79.2578L75.4883 79.7734L75.4648 80.4883L74.9023 80.9219L72.8047 82.5508L72.5117 82.7734L72.1602 82.832L69.6641 83.3008L69.3242 83.3594L68.9961 83.2656L66.5117 82.5977L66.0312 82.4688L65.7266 82.082L64.1094 80.0312L63.793 79.6094V79.0938L63.8047 76.5391V76.1641L63.9805 75.8359L65.1641 73.6094L65.3633 73.2578L65.6914 73.0469L67.9297 71.6523L68.3867 71.3594L68.9258 71.4297Z" fill="black"/>
</svg>
