<svg width="120" height="120" viewBox="0 0 120 120" fill="none" xmlns="http://www.w3.org/2000/svg">
<rect width="120" height="120" fill="white"/>
<path d="M64.8438 29.3477L67.2812 29.8984L69.7656 29.8633H69.8242L69.8945 29.875L72.5195 30.0742H72.5898L75.2148 30.4023L75.3789 30.4258L77.957 31.0586L78.3672 31.1523L78.6602 31.4453L80.1602 32.9336L82.7383 35.5H80.3994L80.3008 36.7539L80.3359 39.2383L80.4062 41.8867L80.4531 44.5352V44.6172L80.3594 47.1133L80.5117 49.75V49.9258L80.3711 52.4336L80.6875 54.9414L80.7002 55.04L82.2969 55.6602L84.8047 56.375L84.8633 56.3984L84.9219 56.4102L87.4062 57.3242H87.3945L89.8203 57.957L89.9258 57.9805L90.0312 58.0273L92.3867 59.0469L93.4629 59.4375L93.582 59.4336H93.6992L95.6064 59.5039H96.0664L96.0605 59.5205L96.2422 59.5273L98.832 59.375H99.0312L101.527 59.5859L104.012 59.2461L104.117 59.2344H104.223L106.859 59.2695L107.094 59.293L109.555 59.7266L111.734 59.6211L113.105 59.5625L113.293 60.9219L113.645 63.5586L113.668 63.7578L113.645 63.957L113.281 66.6055L113.246 66.8633L113.129 67.0859L112.297 68.7031L111.828 69.6055L110.809 69.5L108.406 69.2539L105.969 69.7344L105.816 69.7578H105.664L104.692 69.749L104.398 71.9609L104.293 74.3164L104.715 76.7891L104.738 76.9062V77.0234L104.762 79.6719V79.8242L104.727 79.9648L104.258 82.3438L104.504 84.8047L104.516 84.9453L104.504 85.0859L104.305 87.5352L104.645 90.043L104.668 90.2422L104.645 90.4414L104.305 92.9609L104.27 95.3516L104.703 97.9062L104.727 98.0234V98.1406L104.762 100.777V100.883L104.75 100.988L104.422 103.508L104.621 105.969L104.656 106.344L104.492 106.695L104.25 107.234L106.859 107.27L107.094 107.293L109.555 107.727L111.734 107.621L113.105 107.562L113.293 108.922L113.645 111.559L113.668 111.758L113.645 111.957L113.281 114.605L113.246 114.863L113.129 115.086L112.297 116.703L111.828 117.605L110.809 117.5L108.406 117.254L105.969 117.734L105.816 117.758H105.664L103.027 117.734H102.91L102.793 117.723L100.273 117.289L97.8945 117.395L95.3164 117.746L95.082 117.781L94.8359 117.734L92.4219 117.266L90.0312 117.582L89.9375 117.594H89.832L87.1953 117.582H87.1602L84.5234 117.512L81.8867 117.453V117.441L79.2617 117.43H79.2266L79.1797 117.418L76.7305 117.266L74.2812 117.723L74.0586 117.77L73.8242 117.734L71.3281 117.441L68.7969 117.57L68.7148 117.582L68.6328 117.57L66.0898 117.418L63.6055 117.711L63.4414 117.723L63.2891 117.711L60.7109 117.43V117.441L58.2148 117.277L55.7305 117.641L55.6133 117.652H55.4844L52.8711 117.594L50.2695 117.652H47.6094L47.6211 117.664L44.9844 117.711H44.832L42.1836 117.465L39.6875 117.383L37.0977 117.488H37.0508L34.4961 117.5L34.5078 117.512L31.8594 117.688L31.7773 117.699L31.6953 117.688L29.0469 117.57L26.4922 117.582H26.4688L23.8203 117.559H23.7617L23.7148 117.547L21.2305 117.336L18.7227 117.617L18.6406 117.629L18.5469 117.617L15.9102 117.605H15.8164L13.1797 117.43V117.418L10.6719 117.301L8.21094 117.5H5.43359L6.64062 115.355V113.211L6.25391 110.703L6.16016 110.047L6.58203 109.531L8 107.809L8.49219 107.211L9.25391 107.258L11.7852 107.434L14.3398 107.246H14.4453L14.5508 107.258L15.6924 107.343L15.4414 106.883L15.2656 106.543L15.2539 106.168L15.2422 103.531V103.414L15.2539 103.297L15.6406 100.777V98.3164L15.5 95.6914L15.3242 93.0547V92.8672L15.4883 90.2305V90.1719L15.7344 87.6055L15.5586 85.1445V85.1094L15.5469 85.0742L15.5 82.4258V82.3438L15.6055 79.7188L15.3828 77.2578L15.3711 77.0938L15.3828 76.9414L15.7109 74.375L15.7461 71.9023L15.3818 69.5762L13.1797 69.4297V69.418L10.6719 69.3008L8.21094 69.5H5.43359L6.64062 67.3555V65.2109L6.25391 62.7031L6.16016 62.0469L6.58203 61.5312L8 59.8086L8.49219 59.2109L9.25391 59.2578L11.7852 59.4336L14.3398 59.2461H14.4453L14.5508 59.2578L17.1992 59.457L19.7422 59.6562L22.2734 59.5039H22.4844L24.9805 59.7266L26.209 59.6123L28.5898 58.6719L28.625 58.6484L28.6602 58.6367L31.168 57.793L33.6406 56.9375L36.125 56.0586L36.1484 56.0469H36.1602L38.542 55.2559L38.6992 53.3125L38.5703 50.8164L38.3945 48.1797V48.0859L38.3828 45.4492L38.3711 45.3555L38.3828 45.2734L38.6641 42.7539L38.4531 40.293L38.4414 40.2344V40.1758L38.418 37.5391V37.5156L38.4297 34.8672V34.7617L38.5 33.8828L39.0898 33.9287L39.3906 32.3945L39.5664 31.5156L42.9883 30.4844L43.0703 30.4492L43.1523 30.4375L45.7539 29.9688L45.918 29.9336L46.082 29.9453L48.6367 30.0508L51.0977 29.7578V29.7461L53.7227 29.3711L53.8984 29.3477L54.0742 29.3594L56.6172 29.6055L59.125 29.4297L59.2188 29.418L59.3125 29.4297L61.8672 29.5703L64.3633 29.3125L64.6094 29.2891L64.8438 29.3477ZM101.75 110.562L101.598 110.586L101.445 110.574L98.9727 110.387L96.3711 110.527H96.2188L93.6406 110.445L91.0625 110.539H90.9102L88.3438 110.398L85.8594 110.633H85.7656L83.1172 110.715H80.375L80.3047 110.703L77.668 110.469L75.1367 110.305L72.6055 110.445L72.5352 110.457H72.4648L69.9805 110.375L67.4609 110.738L67.2969 110.762L67.1445 110.75L64.5078 110.586H64.4727L61.9414 110.363L59.4336 110.562H59.2695L57.0586 110.493V110.5H55.5V110.444L54.0312 110.398L51.5352 110.633L51.3711 110.645L51.207 110.621L48.6992 110.293L46.1914 110.422H46.0273L43.4609 110.258L40.9297 110.398L40.8594 110.41L40.7891 110.398L38.2812 110.316L35.8203 110.738L35.6211 110.773L35.4219 110.75L32.7852 110.516L30.2539 110.293L27.7578 110.48H27.7695L25.1328 110.715L25.0039 110.727L24.875 110.715L22.3086 110.516L19.8008 110.645L19.707 110.656L19.6133 110.645L16.9648 110.445L14.4219 110.258L11.9023 110.434H11.7031L9.81641 110.316L9.3125 110.914L9.62891 112.895L9.64062 113.012V114.383L10.5312 114.312L10.6133 114.301L10.707 114.312L13.3555 114.43L13.3672 114.441H13.3789L15.9219 114.617V114.605L18.5 114.617L21.0312 114.336L21.1836 114.324L21.3242 114.336L23.9609 114.57L26.4688 114.594V114.582L29.1055 114.57H29.1875L31.7188 114.699L34.2969 114.523L34.3438 114.512H34.3906L36.9805 114.5V114.488L39.6172 114.383H39.7344L42.3711 114.477H42.418L42.4531 114.488L44.9492 114.711L47.5742 114.664H50.2109V114.652L52.8477 114.594H52.9062L55.4141 114.652L57.957 114.301L58.0977 114.277L58.25 114.289L60.8867 114.441H60.957L63.418 114.711L65.9141 114.43L66.043 114.418H66.1719L68.7266 114.582L71.2812 114.441H71.4102L71.5391 114.453L73.9297 114.734L76.5547 114.242L76.7422 114.254L79.3789 114.43L79.3672 114.441L81.9336 114.453H81.957L84.5938 114.512H84.6055L87.1953 114.594L87.207 114.582L89.7383 114.594L92.293 114.266L92.5273 114.242L92.7617 114.289L95.1523 114.758L97.5547 114.418L97.625 114.406H97.6953L100.332 114.301L100.496 114.289L100.648 114.312L103.145 114.746L105.57 114.758L108.031 114.266L108.254 114.23L108.477 114.254L110.082 114.43L110.328 113.949L110.633 111.758L110.492 110.691L109.543 110.727H109.391L109.227 110.703L106.637 110.27L104.293 110.246L101.75 110.562ZM22.3789 69.5586H22.3672L22.3555 69.5703L19.707 69.6875L19.6133 69.6992L19.5312 69.6875L18.6729 69.624L18.6406 69.6289L18.5469 69.6172L18.4189 69.6162L18.7344 71.6094L18.7578 71.7383L18.7461 71.8672L18.6992 74.5156V74.5859L18.6875 74.6562L18.3828 77.0938L18.6055 79.625V79.8242L18.5 82.4609L18.5469 84.9336L18.7344 87.5703L18.7461 87.6992L18.7344 87.8281L18.4766 90.4648L18.3242 92.9492L18.4883 95.5039V95.5156L18.6289 98.1641L18.6406 98.1992V100.988L18.6289 101.105L18.2422 103.555V105.758L18.7227 106.613L20.4219 106.742L22.9648 106.555L24.1758 106.463L24.1992 104.949L23.9883 102.453L23.9766 102.418V102.371L23.8828 99.7344V99.6172L23.9883 96.9805H24L24.0117 94.3906V94.3438L24.0234 94.2969L24.1875 91.7188L24.0703 89.1875V89.1055L24.082 86.4688L24.0586 83.9609L23.8359 81.3242L23.8242 81.1836L23.8359 81.0312L24.1055 78.5V75.9219L23.9414 73.3789V73.3672L23.9297 73.3555L23.8125 70.707L23.8008 70.6133L23.8125 70.5312L23.8838 69.5586H23.7617L23.7148 69.5469L23.1875 69.502L22.3789 69.5586ZM50.2695 69.6523H47.6094L47.6211 69.6641L46.8809 69.6768L46.8008 70.6719L46.918 73.1797H46.9297L47.1055 75.8164V75.9102L47.1172 78.5469L47.1289 78.6406L47.1172 78.7227L46.8359 81.2305L47.0469 83.7148L47.0586 83.7617V83.8203L47.082 86.4688V86.4922L47.0703 89.0469L47.1875 91.6953L47.1992 91.7773L47.1875 91.8594L47.0117 94.5078L47 94.4961L46.9883 97.0508V97.0977L46.8828 99.6875L46.9648 102.184L47.2109 104.832V104.984L47.1816 106.615L49.4609 106.742L52.0273 106.578H52.1914L54.1514 106.679L54.1523 106.656L54.1641 104.008V103.996L54.2109 101.359L53.9883 98.875L53.9766 98.8398V98.793L53.8828 96.1562V96.0391L53.9883 93.4023L54.0117 92.9805L54.2344 92.6406L54.7881 91.7969L54.1992 91.8242L54.0703 89.1875V89.1055L54.082 86.4688L54.0586 83.9609L53.8359 81.3242L53.8242 81.1836L53.8359 81.0312L54.1055 78.5V75.9219L53.9414 73.3789V73.3672L53.9297 73.3555L53.8125 70.707L53.8008 70.6133L53.8125 70.5312L53.8789 69.6162L52.8711 69.5938L50.2695 69.6523ZM76.8975 69.4707L76.8008 70.6719L76.918 73.1797H76.9297L77.1055 75.8164V75.9102L77.1172 78.5469L77.1289 78.6406L77.1172 78.7227L76.8359 81.2305L77.0469 83.7148L77.0586 83.7617V83.8203L77.082 86.4688V86.4922L77.0703 89.0469L77.1875 91.6953L77.1992 91.7773L77.1875 91.8594L77.0117 94.5078L77 94.4961L76.9883 97.0508V97.0977L76.8828 99.6875L76.9648 102.184L77.2109 104.832V104.984L77.1816 106.585L78.4648 106.543H78.5352L78.6055 106.555L81.1367 106.695L83.668 106.531L84.1758 106.485L84.1992 104.949L83.9883 102.453L83.9766 102.418V102.371L83.8828 99.7344V99.6172L83.9883 96.9805H84L84.0117 94.3906V94.3438L84.0234 94.2969L84.1875 91.7188L84.0703 89.1875V89.1055L84.082 86.4688L84.0586 83.9609L83.8359 81.3242L83.8242 81.1836L83.8359 81.0312L84.1055 78.5V75.9219L83.9414 73.3789V73.3672L83.9297 73.3555L83.8125 70.707L83.8008 70.6133L83.8125 70.5312L83.8877 69.4971L81.8867 69.4531V69.4414L81.4512 69.4395L80.5391 69.5469L80.4102 69.5586H80.2812L77.7266 69.418L76.8975 69.4707ZM37.0977 69.4883H36.8955L36.8008 70.6719L36.918 73.1797H36.9297L37.1055 75.8164V75.9102L37.1172 78.5469L37.1289 78.6406L37.1172 78.7227L36.8359 81.2305L37.0469 83.7148L37.0586 83.7617V83.8203L37.082 86.4688V86.4922L37.0703 89.0469L37.1875 91.6953L37.1992 91.7773L37.1875 91.8594L37.0117 94.5078L37 94.4961L36.9883 97.0508V97.0977L36.8828 99.6875L36.9648 102.184L37.2109 104.832V104.984L37.1816 106.625L38.7852 106.484L41.4219 106.25L41.6211 106.227L41.8203 106.262L44.1729 106.665L44.1992 104.949L43.9883 102.453L43.9766 102.418V102.371L43.8828 99.7344V99.6172L43.9883 96.9805H44L44.0117 94.3906V94.3438L44.0234 94.2969L44.1875 91.7188L44.0703 89.1875V89.1055L44.082 86.4688L44.0586 83.9609L43.8359 81.3242L43.8242 81.1836L43.8359 81.0312L44.1055 78.5V75.9219L43.9414 73.3789V73.3672L43.9297 73.3555L43.8125 70.707L43.8008 70.6133L43.8125 70.5312L43.8789 69.6221L42.1836 69.4648L39.6875 69.3828L37.0977 69.4883ZM70.7646 69.4697L69.957 69.5586H69.8867L67.25 69.7109L67.0977 69.7227L66.957 69.6992L66.8799 69.6885L66.8008 70.6719L66.918 73.1797H66.9297L67.1055 75.8164V75.9102L67.1172 78.5469L67.1289 78.6406L67.1172 78.7227L66.8359 81.2305L67.0469 83.7148L67.0586 83.7617V83.8203L67.082 86.4688V86.4922L67.0703 89.0469L67.1875 91.6953L67.2227 92.2578L66.9072 92.6426L66.9375 93.0273L67.1602 95.6758L67.1719 95.8164L67.1602 95.9688L66.8789 98.4531L66.8906 100.984L67.0664 103.621V103.645L67.1953 106.293V106.387L67.1836 106.469L67.1748 106.575L67.9414 106.637L70.4727 106.414H70.5078L73.1445 106.25L73.2969 106.238L73.4609 106.262L74.1777 106.364L74.1992 104.949L73.9883 102.453L73.9766 102.418V102.371L73.8828 99.7344V99.6172L73.9883 96.9805H74L74.0117 94.3906V94.3438L74.0234 94.2969L74.1875 91.7188L74.0703 89.1875V89.1055L74.082 86.4688L74.0586 83.9609L73.8359 81.3242L73.8242 81.1836L73.8359 81.0312L74.1055 78.5V75.9219L73.9414 73.3789V73.3672L73.9297 73.3555L73.8125 70.707L73.8008 70.6133L73.8125 70.5312L73.8701 69.7412L73.8242 69.7344L71.3281 69.4414L70.7646 69.4697ZM59.5078 91.6914L57.8672 92.5469L56.9648 93.9297L56.8828 96.1562L56.9766 98.6055L57.2109 101.254V101.406L57.1641 104.043L57.1533 106.386L57.207 106.379L57.3711 106.355L57.5352 106.367L60.0312 106.602L62.6211 106.52H62.6328L64.1719 106.471L64.1836 106.316L64.0664 103.82L63.8906 101.184V101.09L63.8789 98.4531V98.3594L63.8906 98.2773L64.1484 95.7695L63.9844 93.7422L62.9062 92.4297L61.3125 91.5391L59.5078 91.6914ZM90.957 69.5469H90.9336L90.2734 69.5498L90.0312 69.582L89.9375 69.5938H89.832L88.1396 69.5859L86.8818 69.6699L86.8008 70.6719L86.918 73.1797H86.9297L87.1055 75.8164V75.9102L87.1172 78.5469L87.1289 78.6406L87.1172 78.7227L86.8359 81.2305L87.0469 83.7148L87.0586 83.7617V83.8203L87.082 86.4688V86.4922L87.0703 89.0469L87.1875 91.6953L87.1992 91.7773L87.1875 91.8594L87.0117 94.5078L87 94.4961L86.9883 97.0508V97.0977L86.8828 99.6875L86.9648 102.184L87.2109 104.832V104.984L87.1875 106.285H89.1172L91.7656 106.367H91.8594L94.1738 106.585L94.1992 104.949L93.9883 102.453L93.9766 102.418V102.371L93.8828 99.7344V99.6172L93.9883 96.9805H94L94.0117 94.3906V94.3438L94.0234 94.2969L94.1875 91.7188L94.0703 89.1875V89.1055L94.082 86.4688L94.0586 83.9609L93.8359 81.3242L93.8242 81.1836L93.8359 81.0312L94.1055 78.5V75.9219L93.9414 73.3789V73.3672L93.9297 73.3555L93.8125 70.707L93.8008 70.6133L93.8125 70.5312L93.8838 69.5488L93.5703 69.4883L90.957 69.5469ZM97.7783 69.4102L96.8926 69.5303L96.8008 70.6719L96.918 73.1797H96.9297L97.1055 75.8164V75.9102L97.1172 78.5469L97.1289 78.6406L97.1172 78.7227L96.8359 81.2305L97.0469 83.7148L97.0586 83.7617V83.8203L97.082 86.4688V86.4922L97.0703 89.0469L97.1875 91.6953L97.1992 91.7773L97.1875 91.8594L97.0117 94.5078L97 94.4961L96.9883 97.0508V97.0977L96.8828 99.6875L96.9648 102.184L97.2109 104.832V104.984L97.1846 106.465L99.6406 106.555L101.281 106.496L101.598 105.816L101.422 103.555L101.41 103.402L101.434 103.25L101.762 100.648L101.727 98.2461L101.293 95.7734L101.27 95.6445V95.5039L101.305 92.8672V92.7734L101.316 92.6797L101.645 90.2305L101.305 87.8047L101.281 87.6406L101.305 87.4766L101.504 84.9453L101.246 82.4727L101.223 82.25L101.27 82.0273L101.75 79.5078L101.738 77.1523L101.316 74.6445L101.293 74.4922V74.3398L101.41 71.7031V71.6328L101.422 71.5625L101.621 69.9805L101.023 69.6992L98.7383 69.4062L97.7783 69.4102ZM31.8594 69.6875L31.7773 69.6992L31.6953 69.6875L30.6035 69.6387L30.3242 69.6641L30.1836 69.6758L30.0312 69.6641L29.2803 69.5801L29.0469 69.5703L26.8877 69.5801L26.8008 70.6719L26.918 73.1797H26.9297L27.1055 75.8164V75.9102L27.1172 78.5469L27.1289 78.6406L27.1172 78.7227L26.8359 81.2305L27.0469 83.7148L27.0586 83.7617V83.8203L27.082 86.4688V86.4922L27.0703 89.0469L27.1875 91.6953L27.1992 91.7773L27.1875 91.8594L27.0117 94.5078L27 94.4961L26.9883 97.0508V97.0977L26.8828 99.6875L26.9648 102.184L27.2109 104.832V104.984L27.1846 106.426L28.3086 106.484L30.875 106.285L31.0039 106.273L31.1328 106.285L33.7695 106.52H33.7578L34.1748 106.551L34.1992 104.949L33.9883 102.453L33.9766 102.418V102.371L33.8828 99.7344V99.6172L33.9883 96.9805H34L34.0117 94.3906V94.3438L34.0234 94.2969L34.1875 91.7188L34.0703 89.1875V89.1055L34.082 86.4688L34.0586 83.9609L33.8359 81.3242L33.8242 81.1836L33.8359 81.0312L34.1055 78.5V75.9219L33.9414 73.3789V73.3672L33.9297 73.3555L33.8125 70.707L33.8008 70.6133L33.8125 70.5312L33.8838 69.5527L31.8594 69.6875ZM56.8975 69.4697L56.8008 70.6719L56.918 73.1797H56.9297L57.1055 75.8164V75.9102L57.1172 78.5469L57.1289 78.6406L57.1172 78.7227L56.8359 81.2305L57.0469 83.7148L57.0586 83.7617V83.8203L57.082 86.4688V86.4922L57.0703 89.0469L57.0938 89.5801L58.4062 88.8906L58.6875 88.7383L58.9922 88.7148L61.5234 88.5273L61.9805 88.4922L62.3672 88.7031L64.0928 89.6553L64.0703 89.1875V89.1055L64.082 86.4688L64.0586 83.9609L63.8359 81.3242L63.8242 81.1836L63.8359 81.0312L64.1055 78.5V75.9219L63.9414 73.3789V73.3672L63.9297 73.3555L63.8125 70.707L63.8008 70.6133L63.8125 70.5312L63.874 69.6787L63.6055 69.7109L63.4414 69.7227L63.2891 69.7109L60.7109 69.4297V69.4414L59.3213 69.3496L59.2109 69.3477V69.3428L59.1064 69.3359H57.8145L56.8975 69.4697ZM101.75 62.5625L101.598 62.5859L101.445 62.5742L98.9727 62.3867L96.3711 62.5273H96.2188L95.0918 62.4912L94.8828 63.1367L93.418 62.6094L93.0273 62.4668L91.0625 62.5391H90.9102L88.7939 62.4229L86.1758 62.6094H86.1074L85.8594 62.6328H85.7656L83.1172 62.7148H80.375L80.3047 62.7031L78.4424 62.5371L78.2891 62.5508L78.2305 62.5625H78.1719L75.5352 62.5859H75.5117L72.9336 62.5742L70.3086 62.6914H70.1328L68.5273 62.584L67.4609 62.7383L67.2969 62.7617L67.1445 62.75L64.5078 62.5859H64.4727L62.1475 62.3809L61.2461 62.418L59.4336 62.5625H59.2695L58.8477 62.5488L57.1719 62.7031L57.0898 62.7148H57.0195L54.3711 62.668V62.6562H51.7227L49.1094 62.5977L46.5078 62.6445L46.3906 62.6562L46.2734 62.6328L43.7773 62.2812L41.3398 62.4219L41.3516 62.4336L38.7148 62.7031L38.5508 62.7266L38.3867 62.7031L36.9717 62.54L35.8203 62.7383L35.6211 62.7734L35.4219 62.75L33.4121 62.5713L33.3711 62.5742H33.207L30.6641 62.4453L28.168 62.7383L27.9688 62.7617L27.7578 62.7266L26.7754 62.5684L25.1328 62.7148L25.0039 62.7266L24.875 62.7148L22.3086 62.5156L19.8008 62.6445L19.707 62.6562L19.6133 62.6445L16.9648 62.4453L14.4219 62.2578L11.9023 62.4336H11.7031L9.81641 62.3164L9.3125 62.9141L9.62891 64.8945L9.64062 65.0117V66.3828L10.5312 66.3125L10.6133 66.3008L10.707 66.3125L13.3555 66.4297L13.3672 66.4414H13.3789L15.6631 66.5986L15.6758 66.5H17.2109L18.5664 66.6094L21.0312 66.3359L21.1836 66.3242L21.3242 66.3359L23.1973 66.502L24.8164 66.3945H24.9102L27.5469 66.3828L27.6406 66.3711L27.7227 66.3828L29.5664 66.5889L30.5293 66.6377L32.7148 66.4531L32.7617 66.4414H32.8203L35.4688 66.418H35.4922L38.0469 66.4297L40.6953 66.3125L40.7773 66.3008L40.8594 66.3125L43.5078 66.4883L43.4961 66.5L46.0508 66.5117H46.0977L48.6875 66.6172L51.1836 66.5352L53.832 66.2891H53.9844L56.6211 66.3359L56.6094 66.3477H57.6182L57.957 66.3008L58.0977 66.2773L58.25 66.2891L59.2637 66.3477H59.2695L61.8711 66.4062L64.4844 66.3477H64.6133L64.7305 66.3594L65.5166 66.4736L65.9141 66.4297L66.043 66.418H66.1719L68.7266 66.582L70.4961 66.4844L72.2891 66.2891L72.4414 66.2773L72.6055 66.2891L74.876 66.5566L76.5547 66.2422L76.7422 66.2539L79.3789 66.4297L79.3672 66.4414L81.2529 66.4492L82.8242 66.2656L83.0586 66.2305L83.2812 66.2773L84.5293 66.5098L84.5938 66.5117H84.6055L87.1953 66.5938L87.207 66.582L88.1123 66.5859L88.1797 66.582L88.2266 66.5703H88.2617L89.9805 66.5625L92.293 66.2656L92.5273 66.2422L92.7617 66.2891L93.7471 66.4814L96.1602 66.418H96.1953L97.5918 66.4111L97.625 66.4062H97.6953L100.332 66.3008L100.496 66.2891L100.648 66.3125L103.145 66.7461L105.57 66.7578L108.031 66.2656L108.254 66.2305L108.477 66.2539L110.082 66.4297L110.328 65.9492L110.633 63.7578L110.492 62.6914L109.543 62.7266H109.391L109.227 62.7031L106.637 62.2695L104.293 62.2461L101.75 62.5625ZM57.4297 52.6719L57.2305 52.7656L57.0078 52.7891L54.5117 53.082L52.2266 53.8203L49.9648 55.0156L49.8359 55.0859L49.6836 55.1328L47.1289 55.8359L47.0703 55.8594L47 55.8711L44.6094 56.293L42.4766 57.4766L42.2656 57.5938L42.0312 57.6289L39.5117 58.0977L37.0977 58.8945L35.5508 59.4336L35.832 59.4219L35.9609 59.4102L36.0898 59.4219L36.8916 59.5127L37.9414 59.3281L38.0938 59.3047H38.2578L40.8008 59.4102L43.3906 59.2461H43.5781L46.1328 59.4219L48.6875 59.293L48.8164 59.2812L48.957 59.293L51.4414 59.6328L53.9023 59.3867H54.1016L56.7266 59.4922L58.7656 59.5469L59.5508 59.4805H59.6211L60.9619 59.4326L61.8359 59.3633L61.9648 59.3516L62.0938 59.3633L62.2949 59.3809L62.3281 59.375L62.3867 59.3867L65.0234 59.4922H65.0117L67.6133 59.5156H67.707L68.4141 59.5625L69.6641 59.375L69.793 59.3633H69.9336L72.4766 59.457L75.0664 59.293H75.2656L77.9023 59.4805H77.9375L78.4561 59.5264L80.668 59.3398L80.8203 59.3281L80.9609 59.3398L83.4922 59.6094H84.9219L83.9961 59.2578V59.2695L81.4531 58.543L81.3828 58.5312L81.3125 58.4961L78.9922 57.582L76.4727 56.9844L76.3203 56.9492L76.1797 56.8789L73.8945 55.8008L71.5859 55.0742L69.0195 54.7109L68.8906 54.6875L68.7617 54.6523L66.2656 53.8086L66.1719 53.7852L66.0898 53.7383L63.8867 52.6836L61.4492 52.25L61.4141 52.2383H61.3906L59.4102 51.793L57.4297 52.6719ZM74.9219 37.5625L74.8516 37.5859L74.793 37.5977L72.2031 38.1133L72.0391 38.1367L69.4023 38.3594L69.2969 38.3711L69.1914 38.3594L66.6367 38.207L64.1641 38.5L64.1055 38.5117H64.0352L61.3867 38.582H61.3516L58.75 38.5703L56.125 38.6641L56.0312 38.6758L55.9258 38.6641L53.3477 38.418L50.7109 38.2891H50.6289L48.0625 37.9961L45.4258 37.8203H45.4023L42.7539 37.5742L42.5078 37.5625L42.2969 37.4688L41.4199 37.0918L41.418 37.5273L41.4062 37.5156L41.4414 40.0352L41.6641 42.6719L41.6758 42.8125L41.6641 42.9648L41.3828 45.4492L41.3945 48.0742L41.5586 50.6172V50.6289L41.5703 50.6523L41.6875 53.2891L41.6992 53.3828L41.6875 53.4766L41.6104 54.5117L43.3906 53.5508L43.6016 53.4336L43.8477 53.3867L46.332 52.9297L48.7227 52.2734L50.9609 51.1133L51.0664 51.0664L51.1836 51.0195L53.6914 50.1992L53.832 50.1406L53.9844 50.1289L56.4219 49.8477L58.6602 48.8516L59.1055 48.6641L59.5859 48.7695L61.9766 49.2969L64.6016 49.7656L64.8008 49.8008L64.9766 49.8828L67.2617 50.9727L69.6172 51.7578L72.1016 52.1211L72.2188 52.1445L72.3359 52.1797L74.8555 52.9531L74.9609 52.9883L75.0547 53.0352L77.3281 54.1016L77.5674 54.1592L77.3828 52.668L77.3711 52.5273V52.3984L77.5117 49.832L77.3594 47.2891V47.1484L77.4531 44.5938L77.4062 41.957L77.3359 39.3203V39.2969L77.3037 36.8828L74.9219 37.5625ZM62.0195 32.5586L61.9023 32.5703H61.7852L59.2422 32.418L56.6875 32.5938L56.5703 32.6055L56.4531 32.5938L53.957 32.3594L51.5195 32.7109L51.5078 32.7227H51.4961L48.8711 33.0391L48.7539 33.0508H48.625L46.1172 32.9336L43.8086 33.3672L42.1562 33.8594L42.1094 34.1172L43.2461 34.5977L45.6719 34.832H45.6602L48.2734 35.0078L48.2969 35.0195H48.332L50.957 35.3008H50.9453L53.5 35.4297H53.5703L56.0547 35.6523L58.6562 35.5703H61.3164L63.9062 35.5117L66.4492 35.2188L66.5781 35.207H66.7188L69.2383 35.3594L71.6992 35.1484L74.0898 34.668L76.3398 34.0352L76.6328 33.8242L74.7812 33.3672L72.2266 33.0625V33.0508L69.6719 32.8633L67.1523 32.8867L66.9766 32.8984L66.8125 32.8516L64.3984 32.3242L62.0195 32.5586Z" fill="black"/>
</svg>
