<svg width="120" height="120" viewBox="0 0 120 120" fill="none" xmlns="http://www.w3.org/2000/svg">
<path d="M58.1641 8.14062L57.8945 11.0234V14L58.0586 16.918L58.0703 16.9297V16.9414L58.1875 19.9414L58.1992 20.0234L58.1875 20.1055L58.0488 22.2422H58.0977L58.2031 22.2539L61.1094 22.6406H63.0117L63.1992 19.9648L63.082 17.082H63.0703L62.8945 14.082V14.0117L62.8828 11.0117L62.8711 10.9297L62.8828 10.8594L63.1758 7.85938L64.5 7.98828V6.5H66.3164L66.1641 8.14062L65.8945 11.0234V14L66.0586 16.918L66.0703 16.9297V16.9414L66.1875 19.9414L66.1992 20.0234L66.1875 20.1055L66.0332 22.4805L69.0156 22.5156H69.9766L70.375 23.4062L71.2539 25.3984L71.3711 25.6562L71.3828 25.9492L71.4766 28.8789L71.7109 31.8789V32.0195L71.6641 35.0195L71.6523 38.0078V38.0312L71.5938 40.9727L71.6523 43.9727V44.125L71.6289 44.2656L71.5918 44.4551L72.0898 44.4844H72.0781L75.0078 44.5078H75.0547L75.1465 44.5107L77.8828 44.2969L79.418 44.168L79.4443 44.6689L79.5078 44.6719L79.499 45.6943L79.5 45.7031L79.6641 48.9258V49.0078L79.6553 51.2129L79.707 51.8789L79.7188 51.9492L79.707 52.0195L79.6719 55.0195L79.6494 57.8398L79.6523 57.9727V58.0781L79.6465 58.1299L79.5898 61.0312L79.6484 63.9727V64.0781L79.6367 64.1836L79.5332 65.0186L79.7109 66.8672L79.7227 67.0078L79.7109 67.1484L79.4336 69.8125L79.4375 69.8672L79.707 72.8672L79.7188 73.0078L79.707 73.1484L79.6865 73.3467L79.6992 73.5H79.6719L79.4141 76.0664L79.5781 78.9258V79.0664L79.5479 79.6729L79.7344 80.7422L79.7578 80.8711V81.0117L79.7344 84.0117V84.1172L79.7227 84.2227L79.6953 84.3984L79.7422 84.8438L79.7656 85.043L79.7305 85.2422L79.3105 87.6855L79.3945 89.9062L79.7578 92.8242L79.7812 93.0352L79.7461 93.2461L79.4736 94.8418L79.5078 96.9609L79.5479 98.4561L79.5938 98.8359V99L79.5898 99.9609V99.9961L79.6016 102.996V103.078L79.5898 103.172L79.5459 103.548L79.5117 105.035L79.4707 107.115L79.7422 108.75L79.7773 108.961L79.7539 109.172L79.4023 112.055L79.3164 114.474L81.5938 114.289L81.7109 114.277L81.8398 114.289L85.1914 114.582L88.6602 114.43L88.7305 114.418L88.7891 114.43L92.1523 114.559L95.6211 114.254L95.7852 114.242L95.9609 114.266L99.3242 114.746L102.699 114.57H102.758L106.25 114.559V114.547L109.742 114.5V114.488L111.945 114.418L113.504 114.359V116H112.004L112.051 117.406L109.836 117.488H109.812L106.309 117.547H106.297L102.828 117.559L102.84 117.57L99.3359 117.746L99.1953 117.758L99.0547 117.734L95.7148 117.254L92.375 117.547L92.2812 117.559H92.1875L88.7305 117.418L85.2852 117.582H85.0977L81.6992 117.277L78.3125 117.559H78.2656L78.1465 117.563L78.0469 117.867L76.8516 117.738L76.5195 117.704L76.4727 117.738H76.0039L73.0039 117.762H72.875L72.7461 117.738L71.6572 117.548L71.0625 117.574H70.9219L68.1172 117.412L67.4961 117.47L65.1445 117.715L65.0156 117.727L64.8867 117.715L62.2295 117.514L61.1797 117.645L61.0039 117.668L60.8281 117.645L57.9746 117.299L57.2188 117.289L53.7266 117.512L53.7031 117.523H53.668L53.3789 117.53L52.2266 117.703L52.1211 117.727H52.0156L49.0156 117.762H48.9219L48.8281 117.75L46.7812 117.518L46.5664 117.512V117.5L43.0859 117.488H43.0273L39.5586 117.301L36.1367 117.43H36.0781L32.5742 117.418L29.1406 117.43L29.1523 117.441L25.6484 117.664L25.5312 117.676L25.4258 117.664L22.0508 117.383H18.5938L18.6055 117.395L15.0898 117.57H15.0781L11.5625 117.688L11.4922 117.699L11.4219 117.688L8.01172 117.5H8V114.5H8.1875L11.5391 114.699L14.9492 114.582V114.57L18.4531 114.395H18.5234L22.0391 114.383H22.168L25.5664 114.676L28.9648 114.441H29.0469L32.5625 114.418H32.5742L36.0312 114.43L39.5352 114.312L39.6055 114.301L39.6641 114.312L42.3965 114.448L42.5352 111.926L42.4297 109.055V108.949L42.5352 106.078L42.3828 103.078V102.973L42.3945 102.879L42.6406 99.8789L42.7109 96.9961V94.1133L42.4766 91.1133V91.0898L42.3008 88.0898L42.2891 88.0078V87.9258L42.4531 84.9258L42.3711 82.043L42.3594 81.9258L42.3828 81.8086L42.7578 78.8906L42.5938 76.1133L42.3594 73.1133L42.2773 72.0469L43.25 71.625L45.3945 70.6875L45.6641 70.5703H45.957L48.9453 70.4883L50.5625 70.4297L50.6211 69.0352L50.293 66.1758L50.2812 66.0586V65.9297L50.4219 62.9883L50.2461 60.082V59.918L50.3984 57.0469L50.3047 54.0469V53.9062L50.3281 53.7773L50.7383 50.9414L50.5273 48.1172L50.293 45.1172L50.2812 45.0117V44.9062L50.4922 41.9062V41.8828L50.7148 38.9883L50.5039 36.1055V35.9297L50.6445 33.0117L50.457 30.1055L50.2461 27.1055V26.9062L50.4336 23.9062L50.5156 22.6055L51.8164 22.5L54.8867 22.2656L54.9336 22.2539H54.9922L55.0381 22.2529L55.1992 19.9648L55.082 17.082H55.0703L54.8945 14.082V14.0117L54.8828 11.0117L54.8711 10.9297L54.8828 10.8594L55.1758 7.85938L56.5 7.98828V6.5H58.3164L58.1641 8.14062ZM53.3516 25.3945L53.2461 26.9883L53.4453 29.8945V29.9062L53.6445 32.9062L53.6562 32.9883L53.6445 33.0703L53.5039 35.9648L53.7148 38.8945L53.7266 39L53.7148 39.1172L53.4805 42.1172L53.2812 44.9766L53.5156 47.8828L53.7617 50.8828L53.7734 51.0586L53.75 51.2227L53.3047 54.1055L53.3984 56.9531L53.4102 57.0117L53.3984 57.082L53.2461 59.9883L53.4219 62.918V63.0703L53.2812 65.8945L53.6211 68.8242L53.6328 68.9531V69.0703L53.5039 71.9531L53.4336 73.3359L52.0508 73.3828L49.0508 73.4883H49.0391L46.3438 73.5469L45.4297 73.9453L45.582 75.8789V75.9141L45.7461 78.9141L45.7578 79.0547L45.7344 79.1953L45.3594 82.0664L45.4531 84.9609V85.0781L45.2891 87.9844L45.4648 90.8789L45.7109 93.8789V97.043L45.6406 100.043V100.078L45.6289 100.125L45.3828 103.043L45.5352 105.926V106.055L45.4297 109.055L45.5234 111.949L45.5352 112.02L45.5234 112.078L45.418 114.023L46.4141 114.457L46.999 114.521L50.1172 114.617L53.0615 114.546L54.7812 114.293L54.8984 114.27H55.0156L56.9912 114.292L57.043 114.289H57.1602L60.6455 114.335L60.7148 113.027L60.3633 110.18L60.3516 110.074V109.969L60.4102 107.027L60.3516 104.027V104.004L60.3281 101.027L60.293 98.0273L60.2812 97.957L60.293 97.8867L60.5273 94.9453H60.5156L60.6211 92.0508L60.5156 89.0508V89.0156L60.4922 86.0039L60.3047 83.0859V82.9336L60.4336 80.0039L60.4102 77.0039V76.9805L60.4453 73.9805V73.5938L60.6445 73.2539L61.6992 71.4141L62.0859 70.7461L62.8594 70.6758L65.8594 70.3828L65.9297 70.3711L66.0117 70.3828L68.3877 70.3916L68.3789 68.0039V67.8516L68.6602 65.0156L68.4492 62.1094L68.4375 62.0625V62.0156L68.4141 59.0156V58.9922L68.4258 55.9922L68.3086 53.0625V52.9102L68.4844 49.9102L68.5039 47.5H67.9844L68.0195 47.3477L68.0088 47.3467L66.0664 47.4258L65.6797 47.4375L65.5293 47.3643L64.0586 47.4297L62.5586 47.5L62.5 45.9883L62.3945 43.0586V43.0117L62.3828 40.0117L62.3711 39.9297L62.3828 39.8594L62.3896 39.7891L62.3398 39.1172L62.3281 38.9883L62.3398 38.8594L62.6016 36.2041L62.4414 34.1172V34.0117L62.418 31.0117V30.9883L62.4219 29.8027L62.3047 27.0586V26.8945L62.3545 26.123L62.3359 25.6406H60.8984L60.8047 25.6289L57.8867 25.2422H55.1094L53.3516 25.3945ZM68.9883 73.3945L66.0234 73.3828L63.9258 73.582L63.4453 74.4141L63.4102 77.0156L63.4336 79.9922V80.0273L63.4219 80.0625L63.3047 82.9336L63.4805 85.9102V85.9922L63.5156 88.9453L63.6211 91.9453V92.0508L63.5156 95.0508V95.1211L63.2812 98.1211L63.3281 100.98V100.992L63.3516 103.969L63.4102 106.969V107.027L63.3633 109.922L63.7031 112.816L63.7266 112.945L63.7148 113.074L63.6562 114.323L63.8164 114.305L63.9688 114.293H64.1094L65.0488 114.361L67.6602 114.406L68.1582 114.397L69.8633 114.246L70.0625 114.234L70.25 114.258L70.8057 114.353L71.1523 114.348H71.2461L71.3398 114.359L72.6416 114.497L73.9336 114.445L74.0391 114.434L74.1562 114.445L75.7119 114.606L76.0459 114.376L76.2773 113.684L76.4297 110.918L76.4531 107.988V107.977L76.4639 107.387L76.2734 106.254L76.2383 106.043L76.2617 105.832L76.5605 103.18L76.5898 102.141V102H76.582L76.5898 100.031L76.5596 98.7607L76.2656 96.1641L76.2422 95.9648L76.2773 95.7539L76.4717 94.5957L76.4609 94.0312V94.0195L76.4258 91.0898L76.25 88.0898V87.9258L76.2734 87.75L76.3154 87.4883L76.3008 87.0586L76.2891 86.918L76.3125 86.7773L76.6748 84.3926L76.4492 82.1484L76.4375 82.043V81.9375L76.5371 79.834L76.2656 78.2578L76.2305 78.0586L76.2422 77.8711L76.4141 76.0176V75.9609L76.4258 75.8555L76.5098 74.9512L76.4062 73.5938L75.1055 73.6875L75.0234 73.6992L74.9414 73.6875L71.9414 73.5703H71.9297L71.918 73.5586L69 73.3828L68.9883 73.3945ZM75.1172 47.5195H75.0469L72.375 47.6133L71.5078 47.9883L71.4844 50.0156V50.0859L71.3086 53.0625L71.4258 55.9336V56.0039L71.4141 58.9805L71.4375 61.8867L71.6602 64.8867L71.6719 65.0156L71.6602 65.1445L71.3789 67.9922L71.3906 70.0312L72.293 70.418L74.9414 70.3125L75.0117 70.3008L75.082 70.3125L76.4414 70.3828L76.418 70.1133L76.4062 69.9844L76.4268 69.8701L76.2852 67.0781L76.2734 66.9492L76.2969 66.8203L76.5166 64.9434L76.4414 64.1367V64.0781L76.2891 61.0781L76.2773 60.9492L76.2891 60.8203L76.6484 57.9658L76.6494 57.8135L76.5938 55.0312V54.9727L76.6523 51.9727L76.6543 51.2969L76.4844 49.1133V47.5547L75.1816 47.5146L75.1172 47.5195ZM65.3779 25.9346L65.3584 26.2217L65.4297 27.9414V28.0117L65.4229 29.6826L65.4336 29.918L65.6094 32.918V32.9883L65.6211 35.9883V36.1406L65.6133 36.21L65.6641 36.8828L65.6758 37.0117L65.6641 37.1406L65.3994 39.8135L65.5508 41.8828L65.5625 41.9414V41.9883L65.5742 44.0508L66.1768 44.3418L66.9414 44.3125L67 44.3008L67.0586 44.3125L67.8242 44.3477L68.5801 44.3213L68.6523 43.8789L68.5938 41.0312V40.9727L68.6523 37.9727L68.6641 34.9961V34.9727L68.7109 31.9727L68.4883 29.1133L68.4766 29.0781V29.0547L68.3945 26.3359L68.0312 25.5156L66.3438 25.4922L65.3779 25.9346ZM63.9951 23L63.9971 23.2598L64.5557 23H63.9951Z" fill="black"/>
</svg>
