<svg width="120" height="120" viewBox="0 0 120 120" fill="none" xmlns="http://www.w3.org/2000/svg">
<path d="M8.1 116V117.5H8.13227L8.16451 117.499L8.1 116ZM10.64 115.891L10.797 114.399L10.6865 114.387L10.5755 114.392L10.64 115.891ZM13.28 116.169L13.123 117.66L13.2739 117.676L13.425 117.662L13.28 116.169ZM15.92 115.912L15.8596 114.413L15.8172 114.415L15.775 114.419L15.92 115.912ZM18.56 115.806L18.6763 114.31L18.588 114.303L18.4996 114.307L18.56 115.806ZM21.2 116.011L21.0837 117.507L21.1392 117.511L21.1948 117.511L21.2 116.011ZM23.84 116.02L23.8348 117.52L23.8912 117.52L23.9474 117.516L23.84 116.02ZM26.48 115.831L26.5223 114.331L26.4473 114.329L26.3726 114.334L26.48 115.831ZM29.12 115.905L29.2963 114.415L29.2295 114.408L29.1623 114.406L29.12 115.905ZM31.76 116.217L31.5837 117.707L31.7941 117.732L32.0032 117.698L31.76 116.217ZM34.4 115.784L34.4793 114.286L34.3171 114.277L34.1568 114.303L34.4 115.784ZM37.04 115.923L36.9607 117.421L37.0493 117.426L37.1379 117.42L37.04 115.923ZM39.68 115.751L39.8617 114.262L39.7223 114.245L39.5821 114.254L39.68 115.751ZM42.32 116.073L42.1383 117.562L42.2533 117.576L42.3692 117.572L42.32 116.073ZM44.96 115.986L44.9117 114.487L44.9108 114.487L44.96 115.986ZM47.6 115.901L47.6483 117.401L47.6707 117.4L47.693 117.398L47.6 115.901ZM50.24 115.737L50.5012 114.26L50.3253 114.229L50.147 114.24L50.24 115.737ZM52.88 116.204L52.6188 117.681L52.879 117.727L53.1393 117.682L52.88 116.204ZM55.52 115.741L55.6608 114.247L55.4596 114.228L55.2606 114.263L55.52 115.741ZM58.16 115.99L58.0192 117.483L58.1299 117.493L58.2409 117.487L58.16 115.99ZM60.8 115.847L61.0126 114.362L60.8665 114.341L60.7191 114.349L60.8 115.847ZM63.44 116.225L63.2274 117.71L63.4714 117.745L63.7137 117.7L63.44 116.225ZM66.08 115.735L66.1582 114.237L65.9809 114.228L65.8063 114.26L66.08 115.735ZM68.72 115.873L68.6418 117.371L68.6647 117.372L68.6878 117.373L68.72 115.873ZM71.36 115.93L71.3278 117.429L71.3564 117.43L71.3849 117.429L71.36 115.93ZM74 115.886L74.185 114.397L74.0804 114.384L73.975 114.386L74 115.886ZM76.64 116.214L76.455 117.702L76.6155 117.722L76.7765 117.708L76.64 116.214ZM79.28 115.973L79.2685 114.473L79.2059 114.473L79.1435 114.479L79.28 115.973ZM81.92 115.952L82.0888 114.462L81.9989 114.452L81.9085 114.452L81.92 115.952ZM84.56 116.251L84.3912 117.742L84.5876 117.764L84.783 117.735L84.56 116.251ZM87.2 115.854L87.2734 114.356L87.1245 114.349L86.977 114.371L87.2 115.854ZM89.84 115.984L89.9255 114.486L89.9134 114.486L89.84 115.984ZM92.48 116.135L92.3945 117.632L92.4978 117.638L92.6008 117.63L92.48 116.135ZM95.12 115.921L95.1099 114.421L95.0544 114.422L94.9992 114.426L95.12 115.921ZM97.76 115.903L97.9616 114.417L97.8562 114.403L97.7499 114.403L97.76 115.903ZM100.4 116.261L100.198 117.748L100.434 117.78L100.667 117.737L100.4 116.261ZM103.04 115.784L103.284 114.304L103.028 114.262L102.773 114.308L103.04 115.784ZM105.68 116.219L105.436 117.699L105.576 117.722L105.719 117.718L105.68 116.219ZM108.32 116.151L108.359 117.65L108.453 117.648L108.546 117.634L108.32 116.151ZM110.96 115.748L111.313 114.29L111.026 114.221L110.734 114.265L110.96 115.748ZM8 116V117.5H8.1V116V114.5H8V116ZM8.1 116L8.16451 117.499L10.7045 117.389L10.64 115.891L10.5755 114.392L8.03549 114.501L8.1 116ZM10.64 115.891L10.483 117.382L13.123 117.66L13.28 116.169L13.437 114.677L10.797 114.399L10.64 115.891ZM13.28 116.169L13.425 117.662L16.065 117.405L15.92 115.912L15.775 114.419L13.135 114.676L13.28 116.169ZM15.92 115.912L15.9804 117.411L18.6204 117.305L18.56 115.806L18.4996 114.307L15.8596 114.413L15.92 115.912ZM18.56 115.806L18.4437 117.301L21.0837 117.507L21.2 116.011L21.3163 114.516L18.6763 114.31L18.56 115.806ZM21.2 116.011L21.1948 117.511L23.8348 117.52L23.84 116.02L23.8452 114.52L21.2052 114.511L21.2 116.011ZM23.84 116.02L23.9474 117.516L26.5874 117.327L26.48 115.831L26.3726 114.334L23.7326 114.524L23.84 116.02ZM26.48 115.831L26.4377 117.33L29.0777 117.404L29.12 115.905L29.1623 114.406L26.5223 114.331L26.48 115.831ZM29.12 115.905L28.9437 117.395L31.5837 117.707L31.76 116.217L31.9363 114.728L29.2963 114.415L29.12 115.905ZM31.76 116.217L32.0032 117.698L34.6432 117.264L34.4 115.784L34.1568 114.303L31.5168 114.737L31.76 116.217ZM34.4 115.784L34.3207 117.282L36.9607 117.421L37.04 115.923L37.1193 114.426L34.4793 114.286L34.4 115.784ZM37.04 115.923L37.1379 117.42L39.7779 117.248L39.68 115.751L39.5821 114.254L36.9421 114.427L37.04 115.923ZM39.68 115.751L39.4983 117.24L42.1383 117.562L42.32 116.073L42.5017 114.584L39.8617 114.262L39.68 115.751ZM42.32 116.073L42.3692 117.572L45.0092 117.486L44.96 115.986L44.9108 114.487L42.2708 114.574L42.32 116.073ZM44.96 115.986L45.0083 117.486L47.6483 117.401L47.6 115.901L47.5517 114.402L44.9117 114.487L44.96 115.986ZM47.6 115.901L47.693 117.398L50.333 117.234L50.24 115.737L50.147 114.24L47.507 114.404L47.6 115.901ZM50.24 115.737L49.9788 117.214L52.6188 117.681L52.88 116.204L53.1412 114.727L50.5012 114.26L50.24 115.737ZM52.88 116.204L53.1393 117.682L55.7793 117.218L55.52 115.741L55.2606 114.263L52.6207 114.727L52.88 116.204ZM55.52 115.741L55.3792 117.234L58.0192 117.483L58.16 115.99L58.3008 114.496L55.6608 114.247L55.52 115.741ZM58.16 115.99L58.2409 117.487L60.8809 117.345L60.8 115.847L60.7191 114.349L58.0791 114.492L58.16 115.99ZM60.8 115.847L60.5874 117.332L63.2274 117.71L63.44 116.225L63.6526 114.74L61.0126 114.362L60.8 115.847ZM63.44 116.225L63.7137 117.7L66.3537 117.21L66.08 115.735L65.8063 114.26L63.1663 114.75L63.44 116.225ZM66.08 115.735L66.0018 117.233L68.6418 117.371L68.72 115.873L68.7982 114.375L66.1582 114.237L66.08 115.735ZM68.72 115.873L68.6878 117.373L71.3278 117.429L71.36 115.93L71.3922 114.43L68.7522 114.373L68.72 115.873ZM71.36 115.93L71.3849 117.429L74.0249 117.386L74 115.886L73.975 114.386L71.335 114.43L71.36 115.93ZM74 115.886L73.815 117.374L76.455 117.702L76.64 116.214L76.825 114.725L74.185 114.397L74 115.886ZM76.64 116.214L76.7765 117.708L79.4165 117.466L79.28 115.973L79.1435 114.479L76.5035 114.72L76.64 116.214ZM79.28 115.973L79.2915 117.473L81.9315 117.452L81.92 115.952L81.9085 114.452L79.2685 114.473L79.28 115.973ZM81.92 115.952L81.7512 117.443L84.3912 117.742L84.56 116.251L84.7288 114.761L82.0888 114.462L81.92 115.952ZM84.56 116.251L84.783 117.735L87.423 117.338L87.2 115.854L86.977 114.371L84.337 114.768L84.56 116.251ZM87.2 115.854L87.1266 117.353L89.7666 117.482L89.84 115.984L89.9134 114.486L87.2734 114.356L87.2 115.854ZM89.84 115.984L89.7545 117.481L92.3945 117.632L92.48 116.135L92.5655 114.637L89.9255 114.486L89.84 115.984ZM92.48 116.135L92.6008 117.63L95.2408 117.416L95.12 115.921L94.9992 114.426L92.3592 114.639L92.48 116.135ZM95.12 115.921L95.1301 117.421L97.7701 117.403L97.76 115.903L97.7499 114.403L95.1099 114.421L95.12 115.921ZM97.76 115.903L97.5584 117.39L100.198 117.748L100.4 116.261L100.602 114.775L97.9616 114.417L97.76 115.903ZM100.4 116.261L100.667 117.737L103.307 117.26L103.04 115.784L102.773 114.308L100.133 114.785L100.4 116.261ZM103.04 115.784L102.796 117.264L105.436 117.699L105.68 116.219L105.924 114.738L103.284 114.304L103.04 115.784ZM105.68 116.219L105.719 117.718L108.359 117.65L108.32 116.151L108.281 114.651L105.641 114.719L105.68 116.219ZM108.32 116.151L108.546 117.634L111.186 117.231L110.96 115.748L110.734 114.265L108.094 114.668L108.32 116.151ZM110.96 115.748L110.607 117.206L111.647 117.458L112 116L112.353 114.542L111.313 114.29L110.96 115.748Z" fill="black"/>
<path d="M94 115.9L95.5 115.9L95.5 115.868L95.4986 115.835L94 115.9ZM93.8907 113.36L92.3989 113.203L92.3873 113.313L92.3921 113.425L93.8907 113.36ZM94.1686 110.72L95.6603 110.877L95.6762 110.726L95.6615 110.575L94.1686 110.72ZM93.9122 108.08L92.4134 108.14L92.4151 108.183L92.4192 108.225L93.9122 108.08ZM93.8058 105.44L92.3103 105.324L92.3034 105.412L92.307 105.5L93.8058 105.44ZM94.0111 102.8L95.5065 102.916L95.5109 102.861L95.511 102.805L94.0111 102.8ZM94.0202 100.16L95.5202 100.165L95.5204 100.109L95.5163 100.053L94.0202 100.16ZM93.8306 97.52L92.3312 97.4777L92.3291 97.5527L92.3345 97.6274L93.8306 97.52ZM93.905 94.88L92.4154 94.7037L92.4075 94.7705L92.4056 94.8377L93.905 94.88ZM94.2174 92.24L95.707 92.4163L95.7319 92.2059L95.6976 91.9968L94.2174 92.24ZM93.7836 89.6L92.2857 89.5207L92.2771 89.6829L92.3035 89.8432L93.7836 89.6ZM93.9234 86.96L95.4213 87.0393L95.426 86.9507L95.4202 86.8621L93.9234 86.96ZM93.7507 84.32L92.2618 84.1383L92.2448 84.2777L92.2539 84.4179L93.7507 84.32ZM94.0729 81.68L95.5619 81.8617L95.5759 81.7467L95.5721 81.6308L94.0729 81.68ZM93.9863 79.04L92.4871 79.0883L92.4871 79.0892L93.9863 79.04ZM93.9013 76.4L95.4005 76.3517L95.3998 76.3293L95.3984 76.307L93.9013 76.4ZM93.7373 73.76L92.2602 73.4988L92.2291 73.6747L92.2402 73.853L93.7373 73.76ZM94.2042 71.12L95.6813 71.3812L95.7273 71.121L95.6816 70.8607L94.2042 71.12ZM93.7408 68.48L92.2474 68.3392L92.2285 68.5404L92.2634 68.7394L93.7408 68.48ZM93.9897 65.84L95.4831 65.9808L95.4935 65.8701L95.4875 65.7591L93.9897 65.84ZM93.8471 63.2L92.3622 62.9874L92.3413 63.1335L92.3493 63.2809L93.8471 63.2ZM94.225 60.56L95.7099 60.7726L95.7448 60.5286L95.6998 60.2863L94.225 60.56ZM93.7351 57.92L92.2371 57.8418L92.2278 58.0191L92.2602 58.1937L93.7351 57.92ZM93.873 55.28L95.3709 55.3582L95.3721 55.3353L95.3726 55.3122L93.873 55.28ZM93.9297 52.64L95.4293 52.6722L95.43 52.6436L95.4295 52.6151L93.9297 52.64ZM93.8858 50L92.3972 49.815L92.3842 49.9196L92.386 50.025L93.8858 50ZM94.2139 47.36L95.7024 47.545L95.7224 47.3845L95.7076 47.2235L94.2139 47.36ZM93.9726 44.72L92.4726 44.7315L92.4731 44.7941L92.4788 44.8565L93.9726 44.72ZM93.9524 42.08L92.4619 41.9112L92.4517 42.0011L92.4524 42.0915L93.9524 42.08ZM94.2513 39.44L95.7418 39.6088L95.764 39.4124L95.7347 39.217L94.2513 39.44ZM93.8545 36.8L92.3563 36.7266L92.349 36.8755L92.3711 37.023L93.8545 36.8ZM93.9839 34.16L92.4863 34.0745L92.4857 34.0866L93.9839 34.16ZM94.1345 31.52L95.6321 31.6055L95.638 31.5022L95.6297 31.3992L94.1345 31.52ZM93.9212 28.88L92.4212 28.8901L92.4216 28.9456L92.4261 29.0008L93.9212 28.88ZM93.9033 26.24L92.4169 26.0384L92.4027 26.1438L92.4034 26.2501L93.9033 26.24ZM94.2614 23.6L95.7478 23.8016L95.7797 23.5665L95.7374 23.333L94.2614 23.6ZM93.7838 20.96L92.3037 20.7163L92.2616 20.972L92.3077 21.227L93.7838 20.96ZM94.2185 18.32L95.6986 18.5637L95.7217 18.4235L95.718 18.2815L94.2185 18.32ZM94.1507 15.68L95.6502 15.6415L95.6478 15.5471L95.6335 15.4538L94.1507 15.68ZM93.7479 13.04L92.2901 12.6867L92.2205 12.974L92.2651 13.2662L93.7479 13.04ZM94 116L95.5 116L95.5 115.9L94 115.9L92.5 115.9L92.5 116L94 116ZM94 115.9L95.4986 115.835L95.3893 113.295L93.8907 113.36L92.3921 113.425L92.5014 115.965L94 115.9ZM93.8907 113.36L95.3824 113.517L95.6603 110.877L94.1686 110.72L92.6768 110.563L92.3989 113.203L93.8907 113.36ZM94.1686 110.72L95.6615 110.575L95.4052 107.935L93.9122 108.08L92.4192 108.225L92.6756 110.865L94.1686 110.72ZM93.9122 108.08L95.411 108.02L95.3046 105.38L93.8058 105.44L92.307 105.5L92.4134 108.14L93.9122 108.08ZM93.8058 105.44L95.3013 105.556L95.5065 102.916L94.0111 102.8L92.5156 102.684L92.3103 105.324L93.8058 105.44ZM94.0111 102.8L95.511 102.805L95.5202 100.165L94.0202 100.16L92.5202 100.155L92.5111 102.795L94.0111 102.8ZM94.0202 100.16L95.5163 100.053L95.3268 97.4126L93.8306 97.52L92.3345 97.6274L92.524 100.267L94.0202 100.16ZM93.8306 97.52L95.33 97.5623L95.4044 94.9223L93.905 94.88L92.4056 94.8377L92.3312 97.4777L93.8306 97.52ZM93.905 94.88L95.3946 95.0563L95.707 92.4163L94.2174 92.24L92.7278 92.0637L92.4154 94.7037L93.905 94.88ZM94.2174 92.24L95.6976 91.9968L95.2638 89.3568L93.7836 89.6L92.3035 89.8432L92.7373 92.4832L94.2174 92.24ZM93.7836 89.6L95.2815 89.6793L95.4213 87.0393L93.9234 86.96L92.4255 86.8807L92.2857 89.5207L93.7836 89.6ZM93.9234 86.96L95.4202 86.8621L95.2476 84.2221L93.7507 84.32L92.2539 84.4179L92.4266 87.0579L93.9234 86.96ZM93.7507 84.32L95.2397 84.5017L95.5619 81.8617L94.0729 81.68L92.584 81.4983L92.2618 84.1383L93.7507 84.32ZM94.0729 81.68L95.5721 81.6308L95.4855 78.9908L93.9863 79.04L92.4871 79.0892L92.5737 81.7292L94.0729 81.68ZM93.9863 79.04L95.4856 78.9917L95.4005 76.3517L93.9013 76.4L92.4021 76.4483L92.4871 79.0883L93.9863 79.04ZM93.9013 76.4L95.3984 76.307L95.2344 73.667L93.7373 73.76L92.2402 73.853L92.4042 76.493L93.9013 76.4ZM93.7373 73.76L95.2144 74.0212L95.6813 71.3812L94.2042 71.12L92.7271 70.8588L92.2602 73.4988L93.7373 73.76ZM94.2042 71.12L95.6816 70.8607L95.2182 68.2207L93.7408 68.48L92.2634 68.7394L92.7268 71.3793L94.2042 71.12ZM93.7408 68.48L95.2342 68.6208L95.4831 65.9808L93.9897 65.84L92.4963 65.6992L92.2474 68.3392L93.7408 68.48ZM93.9897 65.84L95.4875 65.7591L95.3449 63.1191L93.8471 63.2L92.3493 63.2809L92.4919 65.9209L93.9897 65.84ZM93.8471 63.2L95.3319 63.4126L95.7099 60.7726L94.225 60.56L92.7402 60.3474L92.3622 62.9874L93.8471 63.2ZM94.225 60.56L95.6998 60.2863L95.2099 57.6463L93.7351 57.92L92.2602 58.1937L92.7502 60.8337L94.225 60.56ZM93.7351 57.92L95.233 57.9982L95.3709 55.3582L93.873 55.28L92.375 55.2018L92.2371 57.8418L93.7351 57.92ZM93.873 55.28L95.3726 55.3122L95.4293 52.6722L93.9297 52.64L92.43 52.6078L92.3733 55.2478L93.873 55.28ZM93.9297 52.64L95.4295 52.6151L95.3856 49.9751L93.8858 50L92.386 50.025L92.4299 52.665L93.9297 52.64ZM93.8858 50L95.3743 50.185L95.7024 47.545L94.2139 47.36L92.7253 47.175L92.3972 49.815L93.8858 50ZM94.2139 47.36L95.7076 47.2235L95.4663 44.5835L93.9726 44.72L92.4788 44.8565L92.7201 47.4965L94.2139 47.36ZM93.9726 44.72L95.4725 44.7085L95.4523 42.0685L93.9524 42.08L92.4524 42.0915L92.4726 44.7315L93.9726 44.72ZM93.9524 42.08L95.4429 42.2488L95.7418 39.6088L94.2513 39.44L92.7608 39.2712L92.4619 41.9112L93.9524 42.08ZM94.2513 39.44L95.7347 39.217L95.3378 36.577L93.8545 36.8L92.3711 37.023L92.768 39.663L94.2513 39.44ZM93.8545 36.8L95.3527 36.8734L95.4821 34.2334L93.9839 34.16L92.4857 34.0866L92.3563 36.7266L93.8545 36.8ZM93.9839 34.16L95.4814 34.2455L95.6321 31.6055L94.1345 31.52L92.637 31.4345L92.4863 34.0745L93.9839 34.16ZM94.1345 31.52L95.6297 31.3992L95.4163 28.7592L93.9212 28.88L92.4261 29.0008L92.6394 31.6408L94.1345 31.52ZM93.9212 28.88L95.4211 28.8699L95.4033 26.2299L93.9033 26.24L92.4034 26.2501L92.4212 28.8901L93.9212 28.88ZM93.9033 26.24L95.3897 26.4416L95.7478 23.8016L94.2614 23.6L92.775 23.3984L92.4169 26.0384L93.9033 26.24ZM94.2614 23.6L95.7374 23.333L95.2598 20.693L93.7838 20.96L92.3077 21.227L92.7853 23.867L94.2614 23.6ZM93.7838 20.96L95.2638 21.2037L95.6986 18.5637L94.2185 18.32L92.7384 18.0763L92.3037 20.7163L93.7838 20.96ZM94.2185 18.32L95.718 18.2815L95.6502 15.6415L94.1507 15.68L92.6512 15.7185L92.719 18.3585L94.2185 18.32ZM94.1507 15.68L95.6335 15.4538L95.2308 12.8138L93.7479 13.04L92.2651 13.2662L92.6678 15.9062L94.1507 15.68ZM93.7479 13.04L95.2057 13.3933L95.4578 12.3533L94 12L92.5422 11.6467L92.2901 12.6867L93.7479 13.04Z" fill="black"/>
<path d="M68.0457 38.5176L69.018 39.6598L69.2018 39.5033L69.3273 39.2969L68.0457 38.5176ZM69.3673 36.3441L68.1619 35.4514L68.1212 35.5063L68.0857 35.5647L69.3673 36.3441ZM70.9473 34.2104L72.1528 35.1031L72.2016 35.0372L72.2429 34.9663L70.9473 34.2104ZM72.2779 31.9299L71.9122 30.4752L71.3003 30.629L70.9823 31.174L72.2779 31.9299ZM74.8647 31.2796L74.9934 29.7851L74.7429 29.7635L74.499 29.8248L74.8647 31.2796ZM77.5033 31.5069L77.3746 33.0013L77.4562 33.0084L77.538 33.0065L77.5033 31.5069ZM80.1432 31.4457L80.1779 32.9453L80.4565 32.9389L80.7142 32.8328L80.1432 31.4457ZM82.5286 30.4637L83.0997 31.8507L83.3364 31.7533L83.5274 31.5828L82.5286 30.4637ZM84.4492 28.7497L85.448 29.8688L85.7075 29.6372L85.8386 29.315L84.4492 28.7497ZM85.4511 26.2873L86.8405 26.8526L87.2914 25.7444L86.3112 25.0584L85.4511 26.2873ZM83.2421 24.7412L82.3013 25.9095L82.3406 25.9412L82.382 25.9702L83.2421 24.7412ZM81.1772 23.0782L80.1709 24.1906L80.2028 24.2195L80.2363 24.2465L81.1772 23.0782ZM79.1829 21.2742L77.7374 21.6748L77.8536 22.0945L78.1766 22.3866L79.1829 21.2742ZM78.4617 18.6714L79.9072 18.2709L79.8074 17.9108L79.5504 17.6396L78.4617 18.6714ZM76.6528 16.7628L77.7415 15.731L77.576 15.5564L77.3642 15.4423L76.6528 16.7628ZM74.3352 15.5142L75.0466 14.1937L74.9863 14.1612L74.9232 14.1343L74.3352 15.5142ZM71.8904 14.4725L70.8025 15.5052L71.0165 15.7306L71.3024 15.8524L71.8904 14.4725ZM70.0448 12.5283L71.1327 11.4956L71.0654 11.4247L70.9894 11.3631L70.0448 12.5283ZM67.9762 10.8514L68.9208 9.6862L68.4155 9.27658L67.7711 9.36551L67.9762 10.8514ZM66.2366 11.0915L66.0316 9.6056L65.2163 9.71811L64.8732 10.4662L66.2366 11.0915ZM65.1414 13.4794L66.0993 14.6337L66.3623 14.4155L66.5048 14.1048L65.1414 13.4794ZM63.0991 15.1741L62.1413 14.0198L62.0692 14.0796L62.0051 14.1479L63.0991 15.1741ZM61.2646 17.1298L62.0073 18.4331L62.2039 18.321L62.3587 18.156L61.2646 17.1298ZM58.9637 18.4411L58.221 17.1379L58.1713 17.1662L58.1239 17.1982L58.9637 18.4411ZM56.7863 19.9125L55.9465 18.6696L55.8496 18.7351L55.764 18.8149L56.7863 19.9125ZM54.859 21.7077L55.7704 22.8991L55.8282 22.8549L55.8814 22.8054L54.859 21.7077ZM52.7445 23.3255L51.833 22.1341L51.6804 22.2509L51.5621 22.4025L52.7445 23.3255ZM51.1111 25.4178L52.2513 26.3925L52.2729 26.3671L52.2935 26.3408L51.1111 25.4178ZM49.396 27.424L50.4532 28.4882L50.4965 28.4452L50.5362 28.3987L49.396 27.424ZM47.5079 29.2996L46.4508 28.2354L46.2889 28.3962L46.1822 28.5979L47.5079 29.2996ZM46.2579 31.6612L47.4607 32.5575L47.5297 32.465L47.5837 32.3629L46.2579 31.6612ZM44.6809 33.7775L43.4781 32.8812L43.4578 32.9084L43.4388 32.9365L44.6809 33.7775ZM43.1967 35.9695L41.9547 35.1286L41.8661 35.2594L41.8067 35.4058L43.1967 35.9695ZM42.2008 38.4251L40.8108 37.8613L40.7958 37.8982L40.7828 37.9359L42.2008 38.4251ZM41.346 40.903L42.7336 41.4726L42.7499 41.4328L42.7639 41.3922L41.346 40.903ZM40.3336 43.3692L38.9459 42.7996L38.8638 42.9998L38.8415 43.2151L40.3336 43.3692ZM40.0578 46.0385L41.3914 46.7254L41.5208 46.474L41.5499 46.1927L40.0578 46.0385ZM38.8333 48.4161L37.4998 47.7293L37.4464 47.8329L37.4097 47.9435L38.8333 48.4161ZM38.0042 50.9133L36.5806 50.4406L36.5596 50.5039L36.5443 50.5687L38.0042 50.9133ZM37.3904 53.5143L38.7579 54.1308L38.8172 53.9993L38.8503 53.8588L37.3904 53.5143ZM36.3031 55.926L37.5438 56.7691L37.617 56.6613L37.6706 56.5425L36.3031 55.926ZM34.8026 58.1341L33.5619 57.291L33.4841 57.4055L33.4286 57.5322L34.8026 58.1341ZM33.7418 60.5559L35.09 61.2133L35.1034 61.1858L35.1157 61.1577L33.7418 60.5559ZM32.585 62.9278L31.2368 62.2703L31.2324 62.2794L31.2281 62.2884L32.585 62.9278ZM31.4595 65.3166L30.1025 64.6773L30.076 64.7336L30.0542 64.7919L31.4595 65.3166ZM30.5342 67.7945L29.129 67.2697L29.1092 67.3229L29.0934 67.3774L30.5342 67.7945ZM29.7912 70.3612L28.3504 69.9441L28.3011 70.1144L28.2928 70.2915L29.7912 70.3612ZM29.6677 73.0188L31.1503 73.2464L31.1624 73.1678L31.1661 73.0884L29.6677 73.0188ZM29.2679 75.6232L27.7853 75.3957L27.759 75.567L27.7724 75.7398L29.2679 75.6232ZM29.4719 78.2405L30.9718 78.222L30.9712 78.1729L30.9674 78.1239L29.4719 78.2405ZM29.5043 80.8834L28.0045 80.9018L28.0073 81.133L28.0796 81.3526L29.5043 80.8834ZM30.3305 83.3925L28.9058 83.8616L28.9418 83.9709L28.994 84.0733L30.3305 83.3925ZM31.5248 85.7367L30.1882 86.4176L30.2593 86.557L30.3575 86.6788L31.5248 85.7367ZM33.1765 87.7832L32.0093 88.7253L32.0268 88.747L32.0451 88.768L33.1765 87.7832ZM34.9038 89.7675L33.7723 90.7523L33.7889 90.7713L33.8061 90.7898L34.9038 89.7675ZM36.7031 91.6993L37.8306 90.71L37.8159 90.6933L37.8008 90.677L36.7031 91.6993ZM38.4452 93.6848L39.6287 92.7632L39.6017 92.7285L39.5727 92.6955L38.4452 93.6848ZM40.0708 95.7723L41.382 95.0439L41.3256 94.9424L41.2543 94.8507L40.0708 95.7723ZM41.3629 98.0985L42.7957 97.6543L42.7497 97.5059L42.6742 97.3701L41.3629 98.0985ZM42.1513 100.641L43.6362 100.429L43.6194 100.311L43.584 100.197L42.1513 100.641ZM42.5281 103.279L43.7992 104.075L44.0906 103.61L44.013 103.066L42.5281 103.279ZM41.4006 105.078L42.4469 106.153L42.5761 106.027L42.6718 105.875L41.4006 105.078ZM39.4738 106.954L38.4275 105.879L38.1794 106.121L38.0622 106.446L39.4738 106.954ZM38.6419 109.268L37.2304 108.76L36.9109 109.649L37.5739 110.321L38.6419 109.268ZM40.443 111.094L41.5611 110.094L41.5367 110.067L41.511 110.041L40.443 111.094ZM42.2064 113.066L41.0883 114.066L41.1931 114.183L41.3199 114.276L42.2064 113.066ZM67.9695 38.5824L68.9418 39.7246L69.018 39.6598L68.0457 38.5176L67.0733 37.3754L66.9972 37.4402L67.9695 38.5824ZM68.0457 38.5176L69.3273 39.2969L70.649 37.1234L69.3673 36.3441L68.0857 35.5647L66.764 37.7383L68.0457 38.5176ZM69.3673 36.3441L70.5728 37.2367L72.1528 35.1031L70.9473 34.2104L69.7418 33.3178L68.1619 35.4514L69.3673 36.3441ZM70.9473 34.2104L72.2429 34.9663L73.5735 32.6858L72.2779 31.9299L70.9823 31.174L69.6517 33.4545L70.9473 34.2104ZM72.2779 31.9299L72.6436 33.3846L75.2304 32.7343L74.8647 31.2796L74.499 29.8248L71.9122 30.4752L72.2779 31.9299ZM74.8647 31.2796L74.7359 32.774L77.3746 33.0013L77.5033 31.5069L77.632 30.0124L74.9934 29.7851L74.8647 31.2796ZM77.5033 31.5069L77.538 33.0065L80.1779 32.9453L80.1432 31.4457L80.1085 29.9461L77.4686 30.0073L77.5033 31.5069ZM80.1432 31.4457L80.7142 32.8328L83.0997 31.8507L82.5286 30.4637L81.9576 29.0766L79.5722 30.0587L80.1432 31.4457ZM82.5286 30.4637L83.5274 31.5828L85.448 29.8688L84.4492 28.7497L83.4504 27.6305L81.5299 29.3445L82.5286 30.4637ZM84.4492 28.7497L85.8386 29.315L86.8405 26.8526L85.4511 26.2873L84.0617 25.722L83.0598 28.1843L84.4492 28.7497ZM85.4511 26.2873L86.3112 25.0584L84.1022 23.5123L83.2421 24.7412L82.382 25.9702L84.591 27.5162L85.4511 26.2873ZM83.2421 24.7412L84.183 23.573L82.118 21.91L81.1772 23.0782L80.2363 24.2465L82.3013 25.9095L83.2421 24.7412ZM81.1772 23.0782L82.1834 21.9658L80.1892 20.1618L79.1829 21.2742L78.1766 22.3866L80.1709 24.1906L81.1772 23.0782ZM79.1829 21.2742L80.6284 20.8737L79.9072 18.2709L78.4617 18.6714L77.0161 19.072L77.7374 21.6748L79.1829 21.2742ZM78.4617 18.6714L79.5504 17.6396L77.7415 15.731L76.6528 16.7628L75.5641 17.7947L77.3729 19.7033L78.4617 18.6714ZM76.6528 16.7628L77.3642 15.4423L75.0466 14.1937L74.3352 15.5142L73.6237 16.8348L75.9413 18.0834L76.6528 16.7628ZM74.3352 15.5142L74.9232 14.1343L72.4784 13.0925L71.8904 14.4725L71.3024 15.8524L73.7472 16.8942L74.3352 15.5142ZM71.8904 14.4725L72.9783 13.4397L71.1327 11.4956L70.0448 12.5283L68.957 13.5611L70.8025 15.5052L71.8904 14.4725ZM70.0448 12.5283L70.9894 11.3631L68.9208 9.6862L67.9762 10.8514L67.0316 12.0167L69.1003 13.6936L70.0448 12.5283ZM67.9762 10.8514L67.7711 9.36551L66.0316 9.6056L66.2366 11.0915L66.4417 12.5774L68.1813 12.3373L67.9762 10.8514ZM66.2366 11.0915L64.8732 10.4662L63.778 12.8541L65.1414 13.4794L66.5048 14.1048L67.6001 11.7169L66.2366 11.0915ZM65.1414 13.4794L64.1835 12.3251L62.1413 14.0198L63.0991 15.1741L64.057 16.3285L66.0993 14.6337L65.1414 13.4794ZM63.0991 15.1741L62.0051 14.1479L60.1706 16.1036L61.2646 17.1298L62.3587 18.156L64.1932 16.2004L63.0991 15.1741ZM61.2646 17.1298L60.5219 15.8266L58.221 17.1379L58.9637 18.4411L59.7064 19.7443L62.0073 18.4331L61.2646 17.1298ZM58.9637 18.4411L58.1239 17.1982L55.9465 18.6696L56.7863 19.9125L57.6262 21.1553L59.8036 19.6839L58.9637 18.4411ZM56.7863 19.9125L55.764 18.8149L53.8366 20.6101L54.859 21.7077L55.8814 22.8054L57.8087 21.0101L56.7863 19.9125ZM54.859 21.7077L53.9475 20.5164L51.833 22.1341L52.7445 23.3255L53.6559 24.5168L55.7704 22.8991L54.859 21.7077ZM52.7445 23.3255L51.5621 22.4025L49.9287 24.4948L51.1111 25.4178L52.2935 26.3408L53.9269 24.2485L52.7445 23.3255ZM51.1111 25.4178L49.9709 24.4431L48.2559 26.4494L49.396 27.424L50.5362 28.3987L52.2513 26.3925L51.1111 25.4178ZM49.396 27.424L48.3389 26.3599L46.4508 28.2354L47.5079 29.2996L48.5651 30.3638L50.4532 28.4882L49.396 27.424ZM47.5079 29.2996L46.1822 28.5979L44.9322 30.9595L46.2579 31.6612L47.5837 32.3629L48.8337 30.0013L47.5079 29.2996ZM46.2579 31.6612L45.0552 30.7649L43.4781 32.8812L44.6809 33.7775L45.8837 34.6738L47.4607 32.5575L46.2579 31.6612ZM44.6809 33.7775L43.4388 32.9365L41.9547 35.1286L43.1967 35.9695L44.4388 36.8105L45.923 34.6185L44.6809 33.7775ZM43.1967 35.9695L41.8067 35.4058L40.8108 37.8613L42.2008 38.4251L43.5909 38.9888L44.5868 36.5333L43.1967 35.9695ZM42.2008 38.4251L40.7828 37.9359L39.928 40.4138L41.346 40.903L42.7639 41.3922L43.6188 38.9143L42.2008 38.4251ZM41.346 40.903L39.9583 40.3334L38.9459 42.7996L40.3336 43.3692L41.7212 43.9389L42.7336 41.4726L41.346 40.903ZM40.3336 43.3692L38.8415 43.2151L38.5658 45.8844L40.0578 46.0385L41.5499 46.1927L41.8256 43.5234L40.3336 43.3692ZM40.0578 46.0385L38.7243 45.3517L37.4998 47.7293L38.8333 48.4161L40.1668 49.103L41.3914 46.7254L40.0578 46.0385ZM38.8333 48.4161L37.4097 47.9435L36.5806 50.4406L38.0042 50.9133L39.4278 51.3859L40.2569 48.8888L38.8333 48.4161ZM38.0042 50.9133L36.5443 50.5687L35.9305 53.1698L37.3904 53.5143L38.8503 53.8588L39.4641 51.2578L38.0042 50.9133ZM37.3904 53.5143L36.0229 52.8978L34.9357 55.3095L36.3031 55.926L37.6706 56.5425L38.7579 54.1308L37.3904 53.5143ZM36.3031 55.926L35.0625 55.0829L33.5619 57.291L34.8026 58.1341L36.0432 58.9772L37.5438 56.7691L36.3031 55.926ZM34.8026 58.1341L33.4286 57.5322L32.3678 59.954L33.7418 60.5559L35.1157 61.1577L36.1765 58.7359L34.8026 58.1341ZM33.7418 60.5559L32.3935 59.8984L31.2368 62.2703L32.585 62.9278L33.9333 63.5853L35.09 61.2133L33.7418 60.5559ZM32.585 62.9278L31.2281 62.2884L30.1025 64.6773L31.4595 65.3166L32.8164 65.956L33.942 63.5672L32.585 62.9278ZM31.4595 65.3166L30.0542 64.7919L29.129 67.2697L30.5342 67.7945L31.9395 68.3192L32.8647 65.8414L31.4595 65.3166ZM30.5342 67.7945L29.0934 67.3774L28.3504 69.9441L29.7912 70.3612L31.2321 70.7783L31.9751 68.2115L30.5342 67.7945ZM29.7912 70.3612L28.2928 70.2915L28.1693 72.9491L29.6677 73.0188L31.1661 73.0884L31.2896 70.4308L29.7912 70.3612ZM29.6677 73.0188L28.1851 72.7912L27.7853 75.3957L29.2679 75.6232L30.7505 75.8508L31.1503 73.2464L29.6677 73.0188ZM29.2679 75.6232L27.7724 75.7398L27.9764 78.357L29.4719 78.2405L30.9674 78.1239L30.7634 75.5067L29.2679 75.6232ZM29.4719 78.2405L27.972 78.2589L28.0045 80.9018L29.5043 80.8834L31.0042 80.865L30.9718 78.222L29.4719 78.2405ZM29.5043 80.8834L28.0796 81.3526L28.9058 83.8616L30.3305 83.3925L31.7553 82.9233L30.9291 80.4143L29.5043 80.8834ZM30.3305 83.3925L28.994 84.0733L30.1882 86.4176L31.5248 85.7367L32.8613 85.0558L31.6671 82.7116L30.3305 83.3925ZM31.5248 85.7367L30.3575 86.6788L32.0093 88.7253L33.1765 87.7832L34.3438 86.8411L32.692 84.7946L31.5248 85.7367ZM33.1765 87.7832L32.0451 88.768L33.7723 90.7523L34.9038 89.7675L36.0352 88.7826L34.308 86.7983L33.1765 87.7832ZM34.9038 89.7675L33.8061 90.7898L35.6055 92.7217L36.7031 91.6993L37.8008 90.677L36.0014 88.7451L34.9038 89.7675ZM36.7031 91.6993L35.5756 92.6886L37.3177 94.6741L38.4452 93.6848L39.5727 92.6955L37.8306 90.71L36.7031 91.6993ZM38.4452 93.6848L37.2617 94.6064L38.8873 96.6939L40.0708 95.7723L41.2543 94.8507L39.6287 92.7632L38.4452 93.6848ZM40.0708 95.7723L38.7595 96.5007L40.0517 98.8269L41.3629 98.0985L42.6742 97.3701L41.382 95.0439L40.0708 95.7723ZM41.3629 98.0985L39.9302 98.5427L40.7186 101.086L42.1513 100.641L43.584 100.197L42.7957 97.6543L41.3629 98.0985ZM42.1513 100.641L40.6664 100.853L41.0431 103.491L42.5281 103.279L44.013 103.066L43.6362 100.429L42.1513 100.641ZM42.5281 103.279L41.2569 102.482L40.1294 104.282L41.4006 105.078L42.6718 105.875L43.7992 104.075L42.5281 103.279ZM41.4006 105.078L40.3543 104.004L38.4275 105.879L39.4738 106.954L40.52 108.029L42.4469 106.153L41.4006 105.078ZM39.4738 106.954L38.0622 106.446L37.2304 108.76L38.6419 109.268L40.0534 109.775L40.8853 107.461L39.4738 106.954ZM38.6419 109.268L37.5739 110.321L39.375 112.147L40.443 111.094L41.511 110.041L39.7099 108.214L38.6419 109.268ZM40.443 111.094L39.3249 112.094L41.0883 114.066L42.2064 113.066L43.3245 112.066L41.5611 110.094L40.443 111.094ZM42.2064 113.066L41.3199 114.276L41.6999 114.554L42.5864 113.344L43.4729 112.134L43.0929 111.856L42.2064 113.066Z" fill="black"/>
<path d="M34.1237 89.9756L35.5198 90.524L35.5416 90.4685L35.559 90.4114L34.1237 89.9756ZM33.2152 92.2882L31.8191 91.7398L31.7967 91.7968L31.779 91.8554L33.2152 92.2882ZM32.4502 94.827L31.014 94.3943L30.9808 94.5044L30.9648 94.6183L32.4502 94.827ZM32.0816 97.4502L33.527 97.8514L33.5533 97.7564L33.567 97.6589L32.0816 97.4502ZM31.3727 100.004L32.7298 100.643L32.7841 100.528L32.8181 100.405L31.3727 100.004ZM30.2433 102.403L28.8862 101.764L28.8756 101.786L28.8658 101.809L30.2433 102.403ZM29.1985 104.827L27.821 104.233L27.7985 104.285L27.78 104.339L29.1985 104.827ZM28.3387 107.327L29.746 107.846L29.7518 107.83L29.7572 107.814L28.3387 107.327ZM27.4313 109.786L26.024 109.267L25.957 109.448L25.9383 109.641L27.4313 109.786ZM27.1746 112.434L25.6816 112.29L25.6175 112.951L26.0637 113.442L27.1746 112.434ZM28.95 114.391L27.8391 115.399L28.0119 115.59L28.2383 115.712L28.95 114.391ZM31.1785 115.592L30.4668 116.913L30.7704 117.076L31.115 117.091L31.1785 115.592ZM33.7916 115.703L33.9545 114.212L33.9049 114.206L33.8551 114.204L33.7916 115.703ZM36.4263 115.991L36.2635 117.482L36.3986 117.497L36.5343 117.487L36.4263 115.991ZM39.061 115.801L39.169 117.297L39.2657 117.29L39.3607 117.27L39.061 115.801ZM41.5877 115.286L41.8874 116.755L42.5568 116.619L42.8932 116.024L41.5877 115.286ZM42.8808 113L42.8496 111.5L41.9958 111.518L41.5753 112.261L42.8808 113ZM34.1527 89.8799L32.7174 89.4441L32.6884 89.5397L34.1237 89.9756L35.559 90.4114L35.588 90.3157L34.1527 89.8799ZM34.1237 89.9756L32.7275 89.4271L31.8191 91.7398L33.2152 92.2882L34.6114 92.8366L35.5198 90.524L34.1237 89.9756ZM33.2152 92.2882L31.779 91.8554L31.014 94.3943L32.4502 94.827L33.8864 95.2598L34.6514 92.721L33.2152 92.2882ZM32.4502 94.827L30.9648 94.6183L30.5962 97.2415L32.0816 97.4502L33.567 97.6589L33.9356 95.0358L32.4502 94.827ZM32.0816 97.4502L30.6363 97.049L29.9274 99.6028L31.3727 100.004L32.8181 100.405L33.527 97.8514L32.0816 97.4502ZM31.3727 100.004L30.0157 99.365L28.8862 101.764L30.2433 102.403L31.6004 103.042L32.7298 100.643L31.3727 100.004ZM30.2433 102.403L28.8658 101.809L27.821 104.233L29.1985 104.827L30.576 105.42L31.6208 102.996L30.2433 102.403ZM29.1985 104.827L27.78 104.339L26.9203 106.839L28.3387 107.327L29.7572 107.814L30.6169 105.314L29.1985 104.827ZM28.3387 107.327L26.9315 106.807L26.024 109.267L27.4313 109.786L28.8386 110.305L29.746 107.846L28.3387 107.327ZM27.4313 109.786L25.9383 109.641L25.6816 112.29L27.1746 112.434L28.6676 112.579L28.9243 109.931L27.4313 109.786ZM27.1746 112.434L26.0637 113.442L27.8391 115.399L28.95 114.391L30.0609 113.383L28.2855 111.427L27.1746 112.434ZM28.95 114.391L28.2383 115.712L30.4668 116.913L31.1785 115.592L31.8902 114.272L29.6617 113.071L28.95 114.391ZM31.1785 115.592L31.115 117.091L33.7282 117.202L33.7916 115.703L33.8551 114.204L31.2419 114.094L31.1785 115.592ZM33.7916 115.703L33.6287 117.194L36.2635 117.482L36.4263 115.991L36.5892 114.5L33.9545 114.212L33.7916 115.703ZM36.4263 115.991L36.5343 117.487L39.169 117.297L39.061 115.801L38.9531 114.305L36.3184 114.495L36.4263 115.991ZM39.061 115.801L39.3607 117.27L41.8874 116.755L41.5877 115.286L41.288 113.816L38.7613 114.331L39.061 115.801ZM41.5877 115.286L42.8932 116.024L44.1863 113.739L42.8808 113L41.5753 112.261L40.2822 114.547L41.5877 115.286ZM42.8808 113L42.912 114.5L43.8732 114.48L43.842 112.98L43.8109 111.48L42.8496 111.5L42.8808 113Z" fill="black"/>
<path d="M60.1177 34.639L59.2431 35.8576L59.4555 36.0101L59.707 36.0817L60.1177 34.639ZM62.5255 35.3244L63.5969 34.2746L63.3186 33.9906L62.9362 33.8817L62.5255 35.3244ZM64.3829 37.22L63.3115 38.2698L63.4037 38.3639L63.5109 38.4405L64.3829 37.22ZM66.5402 38.7614L67.4694 37.5839L67.4413 37.5618L67.4122 37.5409L66.5402 38.7614ZM68.6111 40.3957L69.6262 39.2914L69.5846 39.2532L69.5403 39.2182L68.6111 40.3957ZM70.5567 42.1841L69.5416 43.2885L69.6247 43.3649L69.7183 43.428L70.5567 42.1841ZM72.7464 43.6599L71.9081 44.9038L72.013 44.9746L72.1284 45.0267L72.7464 43.6599ZM75.0671 44.7093L74.4491 46.0761L74.9472 46.3012L75.4733 46.1532L75.0671 44.7093ZM77.5292 44.0167L77.1944 42.5545L77.1585 42.5627L77.123 42.5727L77.5292 44.0167ZM80.1213 43.4232L80.456 44.8854L80.6566 44.8395L80.8373 44.7413L80.1213 43.4232ZM82.4726 42.1457L82.0554 40.7049L81.8993 40.7501L81.7566 40.8277L82.4726 42.1457ZM85.0128 41.4102L85.4301 42.851L85.5227 42.8241L85.6111 42.7857L85.0128 41.4102ZM87.436 40.3562L88.0342 41.7317L88.0936 41.7059L88.1505 41.6751L87.436 40.3562ZM89.668 39.1468L90.3826 40.4657L91.1111 40.071L91.1649 39.2442L89.668 39.1468ZM89.8397 36.5073L88.3939 36.1081L88.3529 36.2564L88.3429 36.4099L89.8397 36.5073ZM90.5359 33.9861L90.0878 32.5546L89.3076 32.7988L89.09 33.5868L90.5359 33.9861ZM93.124 33.1758L94.5677 32.7685L94.1486 31.2832L92.6759 31.7443L93.124 33.1758ZM93.7679 35.458L95.2476 35.2118L95.234 35.1303L95.2115 35.0507L93.7679 35.458ZM94.2078 38.102L95.6999 38.2561L95.7206 38.0551L95.6875 37.8558L94.2078 38.102ZM93.9354 40.7397L92.4433 40.5856L92.4319 40.6962L92.4369 40.8072L93.9354 40.7397ZM94.0545 43.3808L95.5374 43.6066L95.5596 43.4607L95.553 43.3133L94.0545 43.3808ZM93.6531 46.0174L94.9644 46.7456L95.0954 46.5098L95.136 46.2432L93.6531 46.0174ZM92.5089 48.0778L93.2619 49.3751L93.6196 49.1675L93.8203 48.806L92.5089 48.0778ZM90.2192 49.4068L89.4662 48.1095L89.4563 48.1153L89.4465 48.1212L90.2192 49.4068ZM87.9548 50.7679L87.1821 49.4822L87.1672 49.4912L87.1526 49.5004L87.9548 50.7679ZM85.7225 52.1808L86.32 53.5566L86.4266 53.5103L86.5247 53.4482L85.7225 52.1808ZM83.2851 53.2393L82.6876 51.8634L82.5478 51.9241L82.423 52.0118L83.2851 53.2393ZM81.1155 54.7631L81.8621 56.0641L81.9216 56.03L81.9777 55.9906L81.1155 54.7631ZM78.825 56.0774L79.4168 57.4558L79.4964 57.4216L79.5716 57.3785L78.825 56.0774ZM76.3821 57.1263L75.7903 55.7479L75.6095 55.8256L75.4549 55.9472L76.3821 57.1263ZM74.2736 58.7843L74.4424 60.2748L74.8659 60.2268L75.2009 59.9634L74.2736 58.7843ZM71.6323 59.0835L71.2847 60.5426L71.5402 60.6035L71.8011 60.5739L71.6323 59.0835ZM69.0802 58.4754L68.6359 59.9081L68.6838 59.9229L68.7325 59.9345L69.0802 58.4754ZM66.558 57.6932L65.84 59.0101L65.9711 59.0816L66.1137 59.1259L66.558 57.6932ZM64.2328 56.4254L63.2425 57.552L63.368 57.6623L63.5148 57.7423L64.2328 56.4254ZM62.2346 54.6689L63.2249 53.5423L63.0764 53.4118L62.8991 53.3242L62.2346 54.6689ZM59.8299 53.4807L58.7276 54.498L58.9162 54.7024L59.1654 54.8255L59.8299 53.4807ZM58.0134 51.5124L59.1158 50.4951L58.7091 50.0544L58.1106 50.0155L58.0134 51.5124ZM60.0364 34.5807L59.1618 35.7993L59.2431 35.8576L60.1177 34.639L60.9923 33.4203L60.9111 33.362L60.0364 34.5807ZM60.1177 34.639L59.707 36.0817L62.1148 36.7671L62.5255 35.3244L62.9362 33.8817L60.5284 33.1963L60.1177 34.639ZM62.5255 35.3244L61.4541 36.3742L63.3115 38.2698L64.3829 37.22L65.4543 36.1703L63.5969 34.2746L62.5255 35.3244ZM64.3829 37.22L63.5109 38.4405L65.6682 39.9819L66.5402 38.7614L67.4122 37.5409L65.2549 35.9996L64.3829 37.22ZM66.5402 38.7614L65.6109 39.9389L67.6818 41.5732L68.6111 40.3957L69.5403 39.2182L67.4694 37.5839L66.5402 38.7614ZM68.6111 40.3957L67.596 41.5001L69.5416 43.2885L70.5567 42.1841L71.5718 41.0798L69.6262 39.2914L68.6111 40.3957ZM70.5567 42.1841L69.7183 43.428L71.9081 44.9038L72.7464 43.6599L73.5847 42.4161L71.395 40.9403L70.5567 42.1841ZM72.7464 43.6599L72.1284 45.0267L74.4491 46.0761L75.0671 44.7093L75.6851 43.3425L73.3644 42.2932L72.7464 43.6599ZM75.0671 44.7093L75.4733 46.1532L77.9354 45.4606L77.5292 44.0167L77.123 42.5727L74.6609 43.2653L75.0671 44.7093ZM77.5292 44.0167L77.8639 45.4788L80.456 44.8854L80.1213 43.4232L79.7865 41.9611L77.1944 42.5545L77.5292 44.0167ZM80.1213 43.4232L80.8373 44.7413L83.1887 43.4638L82.4726 42.1457L81.7566 40.8277L79.4052 42.1052L80.1213 43.4232ZM82.4726 42.1457L82.8899 43.5865L85.4301 42.851L85.0128 41.4102L84.5956 39.9694L82.0554 40.7049L82.4726 42.1457ZM85.0128 41.4102L85.6111 42.7857L88.0342 41.7317L87.436 40.3562L86.8377 38.9807L84.4146 40.0346L85.0128 41.4102ZM87.436 40.3562L88.1505 41.6751L90.3826 40.4657L89.668 39.1468L88.9534 37.828L86.7214 39.0374L87.436 40.3562ZM89.668 39.1468L91.1649 39.2442L91.3366 36.6047L89.8397 36.5073L88.3429 36.4099L88.1712 39.0495L89.668 39.1468ZM89.8397 36.5073L91.2856 36.9066L91.9818 34.3853L90.5359 33.9861L89.09 33.5868L88.3939 36.1081L89.8397 36.5073ZM90.5359 33.9861L90.9841 35.4175L93.5722 34.6073L93.124 33.1758L92.6759 31.7443L90.0878 32.5546L90.5359 33.9861ZM93.124 33.1758L91.6804 33.5831L92.3242 35.8653L93.7679 35.458L95.2115 35.0507L94.5677 32.7685L93.124 33.1758ZM93.7679 35.458L92.2882 35.7042L92.7281 38.3482L94.2078 38.102L95.6875 37.8558L95.2476 35.2118L93.7679 35.458ZM94.2078 38.102L92.7157 37.9479L92.4433 40.5856L93.9354 40.7397L95.4275 40.8938L95.6999 38.2561L94.2078 38.102ZM93.9354 40.7397L92.4369 40.8072L92.556 43.4484L94.0545 43.3808L95.553 43.3133L95.4339 40.6721L93.9354 40.7397ZM94.0545 43.3808L92.5716 43.1551L92.1702 45.7916L93.6531 46.0174L95.136 46.2432L95.5374 43.6066L94.0545 43.3808ZM93.6531 46.0174L92.3417 45.2892L91.1975 47.3496L92.5089 48.0778L93.8203 48.806L94.9644 46.7456L93.6531 46.0174ZM92.5089 48.0778L91.7559 46.7805L89.4662 48.1095L90.2192 49.4068L90.9722 50.7041L93.2619 49.3751L92.5089 48.0778ZM90.2192 49.4068L89.4465 48.1212L87.1821 49.4822L87.9548 50.7679L88.7275 52.0535L90.992 50.6925L90.2192 49.4068ZM87.9548 50.7679L87.1526 49.5004L84.9203 50.9133L85.7225 52.1808L86.5247 53.4482L88.757 52.0353L87.9548 50.7679ZM85.7225 52.1808L85.125 50.8049L82.6876 51.8634L83.2851 53.2393L83.8826 54.6151L86.32 53.5566L85.7225 52.1808ZM83.2851 53.2393L82.423 52.0118L80.2534 53.5356L81.1155 54.7631L81.9777 55.9906L84.1473 54.4668L83.2851 53.2393ZM81.1155 54.7631L80.369 53.4621L78.0785 54.7764L78.825 56.0774L79.5716 57.3785L81.8621 56.0641L81.1155 54.7631ZM78.825 56.0774L78.2333 54.6991L75.7903 55.7479L76.3821 57.1263L76.9738 58.5046L79.4168 57.4558L78.825 56.0774ZM76.3821 57.1263L75.4549 55.9472L73.3464 57.6052L74.2736 58.7843L75.2009 59.9634L77.3093 58.3054L76.3821 57.1263ZM74.2736 58.7843L74.1048 57.2938L71.4635 57.593L71.6323 59.0835L71.8011 60.5739L74.4424 60.2748L74.2736 58.7843ZM71.6323 59.0835L71.98 57.6243L69.4279 57.0162L69.0802 58.4754L68.7325 59.9345L71.2847 60.5426L71.6323 59.0835ZM69.0802 58.4754L69.5245 57.0427L67.0023 56.2605L66.558 57.6932L66.1137 59.1259L68.6359 59.9081L69.0802 58.4754ZM66.558 57.6932L67.2761 56.3762L64.9509 55.1084L64.2328 56.4254L63.5148 57.7423L65.84 59.0101L66.558 57.6932ZM64.2328 56.4254L65.2231 55.2987L63.2249 53.5423L62.2346 54.6689L61.2443 55.7956L63.2425 57.552L64.2328 56.4254ZM62.2346 54.6689L62.8991 53.3242L60.4944 52.136L59.8299 53.4807L59.1654 54.8255L61.5701 56.0137L62.2346 54.6689ZM59.8299 53.4807L60.9323 52.4635L59.1158 50.4951L58.0134 51.5124L56.9111 52.5296L58.7276 54.498L59.8299 53.4807ZM58.0134 51.5124L58.1106 50.0155L57.7207 49.9902L57.6235 51.487L57.5263 52.9839L57.9162 53.0092L58.0134 51.5124Z" fill="black"/>
<path d="M67.6894 58.3279L66.1982 58.1663L66.1783 58.3497L66.2034 58.5324L67.6894 58.3279ZM68.0373 60.8562L69.5253 61.0454L69.5504 60.8484L69.5233 60.6517L68.0373 60.8562ZM67.7031 63.4834L66.2151 63.2941L66.2065 63.3623L66.2041 63.431L67.7031 63.4834ZM67.6107 66.1295L69.0797 66.4327L69.1053 66.3086L69.1097 66.1819L67.6107 66.1295ZM67.0735 68.7317L68.4345 69.3624L68.5075 69.2049L68.5426 69.0349L67.0735 68.7317ZM65.9564 71.1425L67.2898 71.8296L67.3042 71.8017L67.3174 71.7732L65.9564 71.1425ZM64.7485 73.4865L66.0489 74.2343L66.0661 74.2043L66.0819 74.1736L64.7485 73.4865ZM63.4251 75.7879L64.5202 76.813L64.6389 76.6862L64.7255 76.5357L63.4251 75.7879ZM61.6104 77.7267L62.4284 78.984L62.581 78.8847L62.7055 78.7518L61.6104 77.7267ZM59.3922 79.1699L58.5742 77.9126L58.5189 77.9485L58.467 77.9892L59.3922 79.1699ZM57.2889 80.8182L57.3965 82.3144L57.8535 82.2815L58.2141 81.9989L57.2889 80.8182ZM67.7002 58.2285L66.2089 58.0669L66.1982 58.1663L67.6894 58.3279L69.1807 58.4895L69.1915 58.3901L67.7002 58.2285ZM67.6894 58.3279L66.2034 58.5324L66.5513 61.0606L68.0373 60.8562L69.5233 60.6517L69.1754 58.1235L67.6894 58.3279ZM68.0373 60.8562L66.5493 60.6669L66.2151 63.2941L67.7031 63.4834L69.1912 63.6727L69.5253 61.0454L68.0373 60.8562ZM67.7031 63.4834L66.2041 63.431L66.1116 66.0771L67.6107 66.1295L69.1097 66.1819L69.2022 63.5358L67.7031 63.4834ZM67.6107 66.1295L66.1416 65.8263L65.6045 68.4285L67.0735 68.7317L68.5426 69.0349L69.0797 66.4327L67.6107 66.1295ZM67.0735 68.7317L65.7126 68.1011L64.5955 70.5119L65.9564 71.1425L67.3174 71.7732L68.4345 69.3624L67.0735 68.7317ZM65.9564 71.1425L64.6231 70.4554L63.4152 72.7994L64.7485 73.4865L66.0819 74.1736L67.2898 71.8296L65.9564 71.1425ZM64.7485 73.4865L63.4482 72.7388L62.1248 75.0402L63.4251 75.7879L64.7255 76.5357L66.0489 74.2343L64.7485 73.4865ZM63.4251 75.7879L62.33 74.7629L60.5153 76.7016L61.6104 77.7267L62.7055 78.7518L64.5202 76.813L63.4251 75.7879ZM61.6104 77.7267L60.7923 76.4694L58.5742 77.9126L59.3922 79.1699L60.2103 80.4272L62.4284 78.984L61.6104 77.7267ZM59.3922 79.1699L58.467 77.9892L56.3636 79.6376L57.2889 80.8182L58.2141 81.9989L60.3175 80.3505L59.3922 79.1699ZM57.2889 80.8182L57.1812 79.3221L56.3802 79.3797L56.4878 80.8759L56.5954 82.372L57.3965 82.3144L57.2889 80.8182Z" fill="black"/>
<path d="M42.509 103.619L41.0672 104.033L41.078 104.071L41.0908 104.108L42.509 103.619ZM43.3359 106.019L44.8352 106.068L44.8441 105.792L44.7541 105.531L43.3359 106.019ZM43.2503 108.673L41.7511 108.625L41.7466 108.762L41.7672 108.898L43.2503 108.673ZM43.6476 111.295L42.1645 111.52L42.2005 111.757L42.3088 111.972L43.6476 111.295ZM44.7561 113.489L43.4173 114.165L43.5383 114.405L43.7349 114.587L44.7561 113.489ZM46.667 115.264L45.6458 116.363L45.9476 116.644L46.3502 116.731L46.667 115.264ZM49.2401 115.82L48.9233 117.287L49.13 117.331L49.3411 117.317L49.2401 115.82ZM51.8817 115.642L51.9278 114.143L51.8542 114.141L51.7807 114.146L51.8817 115.642ZM54.5205 115.723L54.6761 114.231L54.6215 114.226L54.5666 114.224L54.5205 115.723ZM57.166 115.999L57.0104 117.491L57.225 117.513L57.4372 117.474L57.166 115.999ZM59.797 115.515L59.8267 114.016L59.675 114.013L59.5258 114.04L59.797 115.515ZM62.418 115.567L62.3883 117.067L62.656 117.072L62.909 116.985L62.418 115.567ZM42.4814 103.523L41.0396 103.937L41.0672 104.033L42.509 103.619L43.9509 103.205L43.9233 103.109L42.4814 103.523ZM42.509 103.619L41.0908 104.108L41.9177 106.508L43.3359 106.019L44.7541 105.531L43.9272 103.13L42.509 103.619ZM43.3359 106.019L41.8367 105.971L41.7511 108.625L43.2503 108.673L44.7495 108.722L44.8352 106.068L43.3359 106.019ZM43.2503 108.673L41.7672 108.898L42.1645 111.52L43.6476 111.295L45.1307 111.07L44.7334 108.449L43.2503 108.673ZM43.6476 111.295L42.3088 111.972L43.4173 114.165L44.7561 113.489L46.0948 112.812L44.9864 110.619L43.6476 111.295ZM44.7561 113.489L43.7349 114.587L45.6458 116.363L46.667 115.264L47.6881 114.166L45.7772 112.39L44.7561 113.489ZM46.667 115.264L46.3502 116.731L48.9233 117.287L49.2401 115.82L49.5569 114.354L46.9838 113.798L46.667 115.264ZM49.2401 115.82L49.3411 117.317L51.9827 117.139L51.8817 115.642L51.7807 114.146L49.1391 114.324L49.2401 115.82ZM51.8817 115.642L51.8356 117.141L54.4744 117.223L54.5205 115.723L54.5666 114.224L51.9278 114.143L51.8817 115.642ZM54.5205 115.723L54.365 117.215L57.0104 117.491L57.166 115.999L57.3215 114.507L54.6761 114.231L54.5205 115.723ZM57.166 115.999L57.4372 117.474L60.0683 116.991L59.797 115.515L59.5258 114.04L56.8947 114.524L57.166 115.999ZM59.797 115.515L59.7674 117.015L62.3883 117.067L62.418 115.567L62.4476 114.068L59.8267 114.016L59.797 115.515ZM62.418 115.567L62.909 116.985L64.0651 116.584L63.5741 115.167L63.0831 113.749L61.927 114.15L62.418 115.567Z" fill="black"/>
<path d="M64.126 115.555L62.6412 115.768L62.7212 116.324L63.1464 116.691L64.126 115.555ZM63.7698 113.077L65.2545 112.864L65.1892 112.41L64.8813 112.07L63.7698 113.077ZM62.0215 111.148L63.133 110.141L62.8245 109.8L62.3783 109.691L62.0215 111.148ZM59.4353 110.515L59.0524 111.965L59.0654 111.968L59.0785 111.971L59.4353 110.515ZM56.8522 109.833L55.3543 109.753L55.2893 110.971L56.4693 111.283L56.8522 109.833ZM56.961 107.795L55.7325 106.934L55.486 107.286L55.4631 107.715L56.961 107.795ZM58.4785 105.629L59.707 106.489L59.7633 106.409L59.8086 106.322L58.4785 105.629ZM59.6996 103.287L58.3942 102.548L58.3815 102.57L58.3695 102.593L59.6996 103.287ZM60.9961 100.996L59.6921 100.255L59.6908 100.257L60.9961 100.996ZM62.3133 98.6791L63.6174 99.4204L63.7708 99.1505L63.8045 98.8419L62.3133 98.6791ZM62.6031 96.0242L61.1124 95.8573L61.112 95.8614L62.6031 96.0242ZM62.8915 93.4485L64.3821 93.6154L64.4162 93.3111L64.3283 93.0177L62.8915 93.4485ZM62.1429 90.9517L60.7033 91.3733L60.7061 91.3825L62.1429 90.9517ZM61.4001 88.4156L62.8397 87.994L62.7829 87.8L62.6768 87.628L61.4001 88.4156ZM60.0117 86.165L61.2884 85.3775L61.2578 85.3279L61.2235 85.2809L60.0117 86.165ZM58.4566 84.0337L59.6684 83.1495L59.6292 83.0959L59.5855 83.046L58.4566 84.0337ZM56.7201 82.0488L55.4249 82.8053L55.497 82.9288L55.5911 83.0365L56.7201 82.0488ZM55.3681 79.7341L56.6633 78.9776L56.5137 78.7215L56.278 78.5417L55.3681 79.7341ZM53.239 78.1094L52.0504 79.0244L52.1714 79.1816L52.329 79.3019L53.239 78.1094ZM64.2017 115.62L65.1813 114.484L65.1055 114.419L64.126 115.555L63.1464 116.691L63.2221 116.756L64.2017 115.62ZM64.126 115.555L65.6107 115.341L65.2545 112.864L63.7698 113.077L62.285 113.291L62.6412 115.768L64.126 115.555ZM63.7698 113.077L64.8813 112.07L63.133 110.141L62.0215 111.148L60.9099 112.155L62.6582 114.085L63.7698 113.077ZM62.0215 111.148L62.3783 109.691L59.7921 109.058L59.4353 110.515L59.0785 111.971L61.6646 112.605L62.0215 111.148ZM59.4353 110.515L59.8182 109.064L57.2351 108.382L56.8522 109.833L56.4693 111.283L59.0524 111.965L59.4353 110.515ZM56.8522 109.833L58.3501 109.913L58.4588 107.875L56.961 107.795L55.4631 107.715L55.3543 109.753L56.8522 109.833ZM56.961 107.795L58.1895 108.655L59.707 106.489L58.4785 105.629L57.25 104.768L55.7325 106.934L56.961 107.795ZM58.4785 105.629L59.8086 106.322L61.0297 103.98L59.6996 103.287L58.3695 102.593L57.1485 104.935L58.4785 105.629ZM59.6996 103.287L61.005 104.026L62.3015 101.735L60.9961 100.996L59.6908 100.257L58.3942 102.548L59.6996 103.287ZM60.9961 100.996L62.3002 101.738L63.6174 99.4204L62.3133 98.6791L61.0093 97.9379L59.6921 100.255L60.9961 100.996ZM62.3133 98.6791L63.8045 98.8419L64.0943 96.1869L62.6031 96.0242L61.112 95.8614L60.8222 98.5163L62.3133 98.6791ZM62.6031 96.0242L64.0938 96.191L64.3821 93.6154L62.8915 93.4485L61.4008 93.2817L61.1124 95.8573L62.6031 96.0242ZM62.8915 93.4485L64.3283 93.0177L63.5797 90.521L62.1429 90.9517L60.7061 91.3825L61.4546 93.8793L62.8915 93.4485ZM62.1429 90.9517L63.5824 90.5301L62.8397 87.994L61.4001 88.4156L59.9606 88.8372L60.7034 91.3733L62.1429 90.9517ZM61.4001 88.4156L62.6768 87.628L61.2884 85.3775L60.0117 86.165L58.7351 86.9526L60.1235 89.2032L61.4001 88.4156ZM60.0117 86.165L61.2235 85.2809L59.6684 83.1495L58.4566 84.0337L57.2449 84.9178L58.8 87.0492L60.0117 86.165ZM58.4566 84.0337L59.5855 83.046L57.849 81.0611L56.7201 82.0488L55.5911 83.0365L57.3277 85.0213L58.4566 84.0337ZM56.7201 82.0488L58.0153 81.2922L56.6633 78.9776L55.3681 79.7341L54.0728 80.4907L55.4249 82.8053L56.7201 82.0488ZM55.3681 79.7341L56.278 78.5417L54.149 76.917L53.239 78.1094L52.329 79.3019L54.4581 80.9266L55.3681 79.7341ZM53.239 78.1094L54.4276 77.1944L53.1886 75.585L52 76.5L50.8114 77.415L52.0504 79.0244L53.239 78.1094Z" fill="black"/>
</svg>
