<svg width="120" height="120" viewBox="0 0 120 120" fill="none" xmlns="http://www.w3.org/2000/svg">
<path d="M23.4375 5.41797L26.0625 5.45312L28.6875 5.42969H28.7578L28.8281 5.44141L31.4766 5.66406L31.4648 5.67578L33.9492 5.76953L36.5273 5.60547L36.5625 5.59375H36.5859L39.2344 5.53516H39.2695L41.9062 5.54688H42.4102L42.8086 5.85156L44.6484 7.24609L45.3047 7.73828L45.2461 8.54688L45.0586 11.1016L45.2227 13.6328L45.2461 13.9961L45.0938 14.3359L44.168 16.4219L43.7578 17.3477L42.75 17.3125L40.2773 17.2422L38.5664 17.4414L38.0859 18.4023L38.0273 20.7227L38.0859 23.3008V23.4766L37.8281 25.9609L38.1094 28.4688L38.1211 28.5859V28.7031L37.9922 31.3398L37.9805 33.9062V33.9766L37.8398 36.625L37.9219 39.1445V39.1562L37.9688 41.8047V41.8516L37.9336 44.4883L38.1562 46.9844V47.2422L37.9219 49.8438L37.7578 52.4922L37.6875 54.918L38.1445 57.4141L38.168 57.5312V57.6484L38.2266 60.2852V60.4258L37.8047 62.957L38.2148 65.3477L38.25 65.5469L38.2266 65.7461L37.9688 68.2305L38.1211 70.8086V70.9961L37.9336 73.5625L38.0508 76.0586L38.2969 77.2656L39.8203 77.3711H39.8086L41.5078 77.3945L42.3164 75.9883L43.3242 73.7969L43.9336 71.3828L44.5781 68.8164L45.0938 66.2852L45.1172 66.2148L45.7617 63.6602L45.7734 63.6133L45.7852 63.5781L46.582 61.0469L46.5938 61.0352V61.0117L47.4609 58.5156L48.1523 56.1367L48.4922 53.6289L48.5156 53.4648L48.5625 53.3125L49.4766 50.8164L50.1797 48.3906L50.2031 48.332L50.2148 48.2852L51.0938 45.8945L51.5039 43.457L51.5156 43.3633L51.5391 43.2812L52.2773 40.7383L52.2891 40.7148L52.3008 40.7031L53.0625 38.3008L53.4258 35.7812L53.5078 35.207L53.9648 34.832L55.7461 33.3672L56.0859 33.0977L56.5195 33.0391L59.1445 32.7227L59.25 32.7109H59.3672L61.957 32.793L64.5469 32.7109H64.6758L67.2188 32.8398L69.7969 32.6875L70.8047 32.6172L71.2383 33.5195L72.375 35.8398L72.4219 35.9336L72.4453 36.0391L73.2539 38.5469V38.5703L73.2656 38.582L74.0156 41.1133L74.8828 43.4805H74.8945L75.832 45.9648L75.8555 46.0117L75.8789 46.0703L76.6289 48.6016L76.6641 48.7422L76.6758 48.8828L76.8984 51.2852L77.9531 53.4648L78.0234 53.6172L78.0703 53.793L78.6094 56.3008L79.3008 58.8086L80.0742 61.3281V61.3516L80.0859 61.3633L80.7773 63.8945L81.7148 66.2266L81.7617 66.3672L81.7969 66.5078L82.2539 69.0156L82.9922 71.4883H82.9805L83.7422 74.0078L83.7656 74.0547L84.3633 76.293L85.3008 77.4414L87.1523 77.2773L89.2383 77.0312L89.8242 76.4102L89.8594 74.4414L89.7656 71.793V71.7109L89.8125 69.0742L89.8242 68.7109L90 68.3828L91.1836 66.2148L91.6172 65.418L92.5195 65.4297L95.1797 65.4648H95.2617L97.8984 65.6523H97.8867L100.441 65.6641H100.992L101.414 66.0273L103.09 67.4805L103.594 67.9141L103.617 68.5703L103.676 71.207L103.688 71.3125L103.676 71.418L103.383 73.9141L103.336 76.5625L103.312 79.1758L103.395 81.7539L103.488 84.4023V84.4727L103.441 87.1094L103.43 87.9062L102.773 88.3398L100.969 89.5234L100.582 89.7812H100.113L97.5469 89.7227L94.9453 89.875H94.875L92.2734 89.8984L89.6953 90.0039L88.5234 90.1094L88.6641 91.2109L89.2383 93.5078L90.293 95.8164L90.3398 95.9219L90.375 96.0391L91.0664 98.5352L91.8398 101.031L92.4727 102.695L93.9844 103.082L96.7266 102.977L97.0078 103.082L99.2578 103.938L100.16 104.277L100.219 105.238L100.383 107.723L100.699 110.289V110.336L100.711 110.395L100.84 113.066L100.898 114.273L99.7266 114.59L97.2891 115.234L97.1719 115.258L94.5352 115.727L94.3008 115.773L94.0664 115.738L91.5117 115.398H89.0977L86.4727 115.621L86.3672 115.633L86.2617 115.621L83.625 115.469V115.457L81.1523 115.34L78.6562 115.727L78.457 115.75L78.2578 115.738L75.7148 115.434V115.445L73.1016 115.305L72.1055 115.246L71.7656 114.32L70.8984 111.941L70.7812 111.602L70.8281 111.238L71.1328 108.707L71.0859 106.188L71.0742 105.484L71.6016 105.027L73.1953 103.633L73.6289 103.258L74.2148 103.27L76.5234 103.316L77.6719 102.812L77.7188 101.547L76.9922 99.2969L76.9688 99.2031L76.9453 99.0977L76.5117 96.6953L75.4219 94.4805L75.3164 94.2578L75.2812 94.0117L74.9531 91.5977L74.2617 90.1328L72.6094 89.9688L70.043 90.0508H69.9258L69.8086 90.0391L67.2656 89.7344L64.8047 89.8984L64.7227 89.9102L64.6289 89.8984L62.168 89.7578L59.6719 90.1797L59.4609 90.2148L59.25 90.1914L56.6953 89.875L54.3398 89.8047L52.7461 90.2148L52.0195 91.9258L51.0469 94.2812L50.4375 96.7422L50.0391 99.2383L50.0156 99.3672L49.9688 99.4844L49.1836 101.805L49.1484 102.777L50.9297 102.895H51L51.0586 102.906L53.6836 103.316L54.4453 103.434L54.7852 104.113L55.7695 106.047L55.9453 106.398L55.9219 106.785L55.8164 109.434L55.7812 112.023V112.305L55.6641 112.574L54.7617 114.789L54.3281 115.832L53.2148 115.703L50.7188 115.422L48.2578 115.738L48.0469 115.762L47.8359 115.727L45.3047 115.328L42.832 115.41L42.7969 115.422L42.7617 115.41L40.1484 115.363L37.6406 115.586L37.4883 115.609L37.3359 115.586L34.7812 115.281L32.3555 115.234L29.8711 115.715L29.2969 115.82L28.8047 115.527L26.6953 114.227L26.0039 113.816L25.9688 113.008L25.8867 110.359V110.336L25.8398 107.688L25.8281 107.5L25.875 107.312L26.4609 104.863L26.6602 104.031L27.4805 103.785L29.7891 103.07L29.9883 103.012H30.2109L32.8477 102.965H32.8945L32.9297 102.977L34.5469 103.035L35.0977 101.547L35.1211 101.488L35.1445 101.441L36.1406 99.2031L36.5625 96.7539L36.5859 96.6367L36.6211 96.5195L37.418 94.1172L38.0039 91.5859L38.0273 91.4688L38.3672 90.3438L37.5938 90.1211L35.1445 89.9805L32.5195 89.8516V89.8398L30 89.7227L27.4336 89.9453H27.3516L24.7148 90.0273H24.6094L24.5039 90.0156L21.8906 89.7344L19.4297 89.7812L18.6562 89.793L18.1992 89.1719L16.793 87.2852L16.5469 86.957L16.5117 86.5352L16.2539 83.8984L16.2422 83.7812L16.2539 83.6758L16.3828 81.0273L16.3945 80.7812L16.4883 80.5469L17.4609 78.1562L17.8125 77.2773L18.75 77.2305L21.4336 77.0664L21.5273 77.0547L21.6328 77.0664L23.6484 77.207L24.3633 76.5859L24.4453 74.7227L24.2227 72.1562L24.2109 72.0156L24.2227 71.8867L24.457 69.2383L24.375 66.7773L24.3633 66.7188L24.375 66.6484L24.5039 64.082L24.375 61.5273V61.3633L24.5273 58.7266L24.4688 56.1953V56.1836L24.2578 53.6523V53.6055L24.1289 50.957V50.8984L24.1055 48.25H24.1172L24.0586 45.6367V45.543L24.1758 42.8945L24.2344 40.4102L24.082 37.7734V37.7148L24.0352 35.0664L24.0234 34.9258L24.0586 34.7734L24.4922 32.2656L24.4453 29.793V29.7812L24.2578 27.2383L24.2461 27.1797V27.1328L24.2344 24.6016L24.0234 21.9531L24.0117 21.8477L24.0234 21.7422L24.1641 19.2109L24.1523 17.8164L22.9453 17.6523L20.4727 17.6992H20.1445L19.8516 17.5703L17.6719 16.6328L16.7695 16.2461V15.2617L16.7578 12.707L16.7109 10.0586V10.0469L16.6758 7.39844L16.6641 5.95703L18.1055 5.88672L20.6602 5.76953L23.2266 5.42969L23.332 5.41797H23.4375ZM42.8086 112.398L45.3867 112.328H45.5273L45.668 112.352L48.1172 112.727L50.5312 112.434L50.6953 112.41L50.8711 112.434L52.4062 112.598L52.7812 111.707L52.8164 109.352V109.305L52.9102 107.066L52.4531 106.152L50.625 105.871L48.1406 105.719H48.0938L48.0469 105.707L47.3906 105.637L45.7383 105.426L46.1133 103.809L46.1953 101.453L46.207 101.23L46.2773 101.031L47.0859 98.6172L47.4961 96.1445L47.5078 96.0742L47.5312 96.0156L48.1758 93.4492L48.1992 93.3438L48.2344 93.2383L49.2539 90.7891V90.7773L50.2734 88.3633L50.5664 87.6719L51.293 87.4844L53.7773 86.8516L53.9883 86.8047L54.1875 86.8164L56.8359 86.8867H56.8945L56.9648 86.8984L59.4023 87.1797L61.8281 86.7812L61.9922 86.7578L62.1445 86.7695L64.6875 86.8984L67.2539 86.7344L67.3945 86.7227L67.5352 86.7461L70.043 87.0391L72.5859 86.9688H72.7852L75.4102 87.25L76.2539 87.332L76.6172 88.0938L77.7656 90.5078L77.8711 90.7305L77.9062 90.9648L78.2227 93.3672L79.3008 95.5586L79.3945 95.7461L79.4297 95.957L79.875 98.4414L80.6602 100.891L80.7422 101.148L80.7305 101.406L80.6367 103.867L80.6016 104.805L79.7461 105.18L77.4258 106.199L77.1211 106.328H76.793L74.7188 106.281L74.0977 106.82L74.1445 108.754V108.871L74.1328 108.977L73.8398 111.238L74.2383 112.352L75.8672 112.445H75.9141L75.9609 112.457L78.4102 112.727L80.8477 112.363L80.9883 112.34L81.1406 112.352L83.7773 112.48H83.7891L86.3906 112.609L88.8633 112.422L88.9219 112.41H88.9805L91.6172 112.398H91.7227L91.8281 112.41L94.207 112.727L96.5508 112.316L97.7812 111.988L97.7109 110.535H97.6992L97.3945 108.004V107.922L97.2891 106.398L96.2227 106L93.9023 106.094L93.6797 106.105L93.4688 106.047L90.9844 105.414L90.2344 105.227L89.9531 104.5L89.0156 102.039L89.0039 101.992L88.9805 101.945L88.207 99.4258L88.1953 99.4023V99.3906L87.5039 96.9531L86.4492 94.6445L86.3906 94.5156L86.3555 94.375L85.7344 91.7969L85.7109 91.7148L85.6992 91.6328L85.3594 88.9375L85.1719 87.3789L86.7305 87.25L89.4492 87.0273L89.4844 87.0156H89.5195L92.1562 86.9102H92.2031L94.7812 86.875L97.418 86.7344L97.4766 86.7227H97.5234L99.7031 86.7695L100.453 86.2656L100.488 84.4961L100.395 81.8594L100.312 79.2227V79.1641L100.336 76.5156V76.5039L100.383 73.8672V73.7148L100.664 71.1953L100.629 69.2969L99.8789 68.6523H97.7344L97.6875 68.6406L95.1328 68.4531L93.3867 68.4414L92.8008 69.5078L92.7656 71.7695L92.8594 74.3359V74.4062L92.8242 77.043L92.8125 77.6289L92.4141 78.0508L91.0547 79.4922L90.6797 79.8906L90.1406 79.9492L87.5039 80.2656H87.4688L84.7969 80.5L84.0234 80.5703L83.5195 79.9727L81.8438 77.957L81.6211 77.6992L81.5391 77.3828L80.8711 74.875L80.1094 72.3555V72.3438L79.3594 69.8125L79.3359 69.7422L79.3242 69.6602L78.8672 67.1875L77.9414 64.8672L77.918 64.7852L77.8945 64.7148L77.1914 62.1719V62.1602L76.4297 59.6758V59.6406L75.7148 57.0977L75.7031 57.0625L75.6914 57.0156L75.1641 54.5898L74.0859 52.3516L73.9688 52.1055L73.9453 51.8359L73.6992 49.3047L73.0312 47.0312L72.0938 44.5586L72.082 44.5469V44.5352L71.168 42.0508L71.1562 42.0156L71.1445 41.9688L70.3828 39.4375V39.4258L69.6445 37.1055L68.9766 35.7344L67.3359 35.8398L67.2422 35.8516H67.1602L64.5703 35.7109L62.0156 35.8047H61.9102L59.3672 35.7109L57.3047 35.957L56.3203 36.7656L56.0273 38.8516L56.0039 38.9922L55.9688 39.1094L55.1484 41.6289L54.4453 44.0195L54.0352 46.5508L54.0117 46.7031L53.9531 46.832L53.0273 49.3281L52.3242 51.7539L52.3008 51.8477L51.4219 54.2148L51.1055 56.6641L51.0938 56.7812L51.0586 56.8867L50.3203 59.418L50.3086 59.4648L50.2969 59.5L49.4297 61.9961L48.6445 64.4805L48.0234 66.9531L47.4961 69.4844V69.5195L47.4844 69.543L46.8516 72.1094L46.1953 74.6758L46.1602 74.8164L46.1016 74.9453L44.9766 77.3711L44.9531 77.4297L44.918 77.4766L43.6758 79.6562L43.2422 80.4297L42.3516 80.418L39.6914 80.3711H39.6211L36.9492 80.1953L35.8008 80.1133L35.5781 78.9883L35.0859 76.4688L35.0625 76.3633V76.2461L34.9453 73.6094L34.9336 73.5156L34.9453 73.4336L35.1094 70.8789L34.9688 68.3359V68.207L34.9805 68.0898L35.2148 65.6172L34.8047 63.2148L34.7695 62.9688L34.8047 62.7227L35.2148 60.168L35.168 57.8359L34.7109 55.3047L34.6875 55.1523V55L34.7578 52.3633V52.3047L34.9336 49.6562V49.6328L35.1445 47.1133L34.9336 44.5938V44.4531L34.9688 41.8516L34.9219 39.2266L34.8398 36.5898V36.4609L34.9805 33.8242L34.9922 31.2578V31.1875L35.1094 28.6328L34.8398 26.1367L34.8164 25.9844L34.8398 25.832L35.0859 23.3594L35.0273 20.7227V20.6523L35.0977 18.0156V17.6875L35.25 17.3828L36.2578 15.3789L36.6211 14.6523L37.4297 14.5586L40.0547 14.2539L40.1602 14.2422H40.2773L41.8242 14.2773L42.1992 13.457L42.0586 11.1836V10.9844L42.1875 9.13281L41.3906 8.53516H39.293L36.7031 8.58203L36.7148 8.59375L34.0781 8.76953H33.9258L31.2773 8.66406H31.2422L31.207 8.65234L28.582 8.42969L26.0742 8.45312H26.0391L23.4961 8.41797L20.9648 8.74609H20.9062L20.8477 8.75781L19.6875 8.80469L19.7109 10L19.7578 12.6484V14.2656L20.7422 14.6875L23.0391 14.6523H23.1562L23.2734 14.6641L25.8633 15.0273L27.1523 15.2148V16.5156L27.1641 19.1992V19.293L27.0117 21.7891L27.2227 24.3555L27.2344 24.4141V24.4609L27.2461 27.0039L27.4453 29.6406V29.7227L27.5039 32.3594L27.5156 32.5117L27.4805 32.6641L27.0352 35.1602L27.082 37.6562H27.0703L27.2227 40.2344L27.2344 40.293L27.2227 40.3516L27.1758 43V43.0352L27.0586 45.6719L27.1055 48.2148V48.2383L27.1289 50.8164L27.2578 53.4062L27.4688 56.043V56.1367L27.5273 58.7852V58.8438L27.5156 58.8906L27.375 61.4453L27.5156 64.0117V64.1758L27.3633 66.8125L27.457 69.332V69.4141L27.4453 69.5078L27.2227 72.0156L27.4453 74.5234L27.457 74.6172V74.7227L27.3398 77.3477L27.3164 77.9922L26.8242 78.4258L25.1484 79.8906L24.668 80.3008L24.0469 80.2539L21.4922 80.0547L19.875 80.1602L19.3594 81.4375L19.2422 83.6758L19.4531 85.832L20.1328 86.7578L21.9961 86.7344H22.0898L22.1836 86.7461L24.7734 87.0156L27.1875 86.9453L29.8359 86.7344L29.9297 86.7227H30.0234L32.6602 86.8516H32.6719L35.3086 86.9922H35.3203L37.957 87.1445L38.1328 87.1562L38.3086 87.2031L40.6992 87.918L42.1523 88.3516L41.6953 89.8047L40.8984 92.3594L40.3477 94.8203L40.3242 94.9023L40.3008 94.9727L39.4805 97.4219L39.082 99.8711L39.0469 100.059L38.9648 100.234L37.9219 102.566L36.9961 105.098L36.6211 106.141L35.5195 106.094L32.8242 105.965L30.4453 106L29.1797 106.387L28.8398 107.805L28.8867 110.254L28.9336 112.082L29.8828 112.656L31.9453 112.27L32.0977 112.234H32.2617L34.8984 112.293H34.9688L35.0391 112.305L37.4883 112.586L40.0195 112.363L40.1016 112.352L40.1836 112.363L42.8086 112.398Z" fill="black"/>
<path d="M64.7031 46.25L64.9258 46.6367L64.9961 46.7539L65.043 46.8828L65.875 49.2266L67.0703 51.5586L67.1641 51.7461L67.2109 51.9688L67.7031 54.5703L68.3828 56.8555L69.3086 59.3281L69.3672 59.4922L69.3906 59.6562L69.7305 62.1406L70.4219 64.6367V64.6719L70.4336 64.707L71.0312 67.2852V67.3203L71.043 67.3438L71.5 69.7461L72.5312 72.043L72.625 72.2656L72.6484 72.5234L72.8828 75.0898L73.375 77.5859L73.6211 78.8164L72.4492 79.2734L70.375 80.082L70.2461 80.1289L70.1172 80.1523L67.4805 80.6562L67.2109 80.7031L66.9414 80.6562L64.4453 80.2344L62.0078 80.3867H61.9844L61.9609 80.3984L59.3242 80.4805H59.3125L56.6641 80.5391L55.9609 80.5625L55.4922 80.0234L54.1211 78.4414L53.6758 77.9375L53.7695 77.2578L54.1094 74.6914L54.1211 74.5859L54.1562 74.4805L54.8477 72.1016L55.0234 69.582L55.0352 69.3594L55.1172 69.1602L56.0312 66.6641L56.6641 64.332L57.1211 61.7773L57.1328 61.707L57.1445 61.6484L57.8125 59.0938L57.8242 59.0352L57.8477 58.9766L58.6914 56.5742L59.2773 54.0664L59.7695 51.5117L59.8047 51.3359L59.875 51.1719L60.9766 48.7578L61.9844 46.5195L63.0391 43.3906L64.7031 46.25ZM62.6641 52.25L62.207 54.6875V54.7109L62.1953 54.7461L61.5977 57.3125L61.5508 57.4766L60.6836 59.9727L60.0508 62.4102L59.6172 64.8945L59.5938 65.0352L58.8906 67.5898L58.8438 67.707L57.9883 70.0156L57.8359 72.4531L57.8242 72.6172L57.7773 72.7695L57.0742 75.1719L56.8164 76.9766L57.2969 77.5156L59.2305 77.4805L61.8203 77.3984L64.457 77.2344L64.6328 77.2227L64.8086 77.2461L67.1992 77.6562L69.3789 77.2344L70.1875 76.918L69.9297 75.6055L69.918 75.5234L69.9062 75.4531L69.6953 73.0625L68.6992 70.8242L68.6172 70.6602L68.5938 70.4961L68.1016 67.9648L67.5273 65.4336L66.8242 62.8906L66.8008 62.7969L66.7891 62.7031L66.4375 60.2188L65.5703 57.9102L65.5469 57.8633L65.5352 57.8164L64.7852 55.2734L64.7617 55.2031L64.75 55.1211L64.293 52.7305L63.3203 50.832L62.6641 52.25Z" fill="black"/>
</svg>
