<svg width="120" height="120" viewBox="0 0 120 120" fill="none" xmlns="http://www.w3.org/2000/svg">
<path d="M61.9717 4.48438L63.6592 6.51172L65.3818 8.45703L65.5107 8.59766L65.5928 8.76172L66.7764 11.0469L68.2061 13.1914L68.2295 13.2383L68.2646 13.2852L69.542 15.5938L69.5889 15.6875L70.6201 17.9492L72.1084 20.0352L72.2725 20.2695L72.3428 20.5508L72.9521 23.0703L73.8545 25.4258L73.9248 25.6133L73.9365 25.8125L74.1826 28.3789L74.792 30.8164L74.8857 31.1562L74.8037 31.4961L74.2529 33.9688L74.0771 36.5234L74.0654 36.6055L74.0537 36.6758L73.585 39.2773V39.3242L73.5732 39.3594L72.9521 41.9258L72.917 42.0781L72.8467 42.2188L71.7686 44.5039L71.0654 46.9414L71.042 47.0352L70.9951 47.1172L70.0107 49.4023L69.5654 51.8516L69.5303 52.0391L69.4365 52.2266L68.3584 54.4648L67.5381 56.7852L66.9756 59.375V59.4102L66.9639 59.4336L66.2959 61.9883V62.0234L66.2842 62.0469L65.5576 64.4844L65.2178 66.9102L65.1475 69.4766V69.582L65.124 69.6875L64.6787 72.125L64.7842 74.5273V74.6328L64.7725 74.75L64.7607 74.8438L63.2725 74.6797L62.6396 74.6094L61.7842 74.6445L61.6787 72.1016V71.9375L61.7021 71.7734L62.1475 69.2656L62.2295 66.7344V66.6523L62.2412 66.5703L62.5928 63.957L62.6162 63.8281L62.6514 63.7227L63.4131 61.1797L64.0576 58.6836L64.5967 56.1523L64.6201 56.0586L64.6553 55.9766L65.5225 53.4805L65.5459 53.3984L65.5811 53.3281L66.6475 51.0781L67.1045 48.6758L67.1279 48.5L67.1982 48.3477L68.2178 45.9688L68.9209 43.5664L68.9561 43.4492L69.0029 43.3438L70.0693 41.0469L70.6318 38.7383L71.1006 36.1484L71.2764 33.6875V33.582L71.2998 33.4766L71.792 31.1914L71.2412 28.9414L71.2178 28.8359L71.2061 28.7188L70.96 26.2812L70.1162 24.0195L70.0811 23.9375L70.0576 23.8438L69.4834 21.5234L68.1123 19.5781L68.0303 19.4727L67.9717 19.3438L66.917 17.0469L65.6982 14.8438L64.2451 12.6406L64.1982 12.582L64.1631 12.5117L62.9912 10.2852L61.3857 8.46875L61.3506 8.43359L60.2256 7.08594L59.5342 7.21484L58.6084 8.94922L58.5381 9.07812L58.4561 9.18359L56.8037 11.2109L56.8154 11.2227L55.2568 13.1914L54.0615 15.4297L54.0381 15.4766L52.7021 17.75L52.6318 17.8672L51.2256 19.8242L50.6514 22.1328L50.5928 22.3438L50.4873 22.5195L49.2334 24.6523L48.6123 26.8203V29.3281L48.542 31.9297V31.9883L48.3896 34.4141L48.9404 36.8047H48.9287L49.5381 39.3008H49.5498L50.2295 41.8086L50.9912 44.3398V44.3516L51.7061 46.7891L52.8076 49.0508L52.8662 49.1797L53.5693 51.7578L54.5537 54.1367L54.6123 54.2773L54.6475 54.4297L55.1396 56.9961L55.9365 59.3516L55.9482 59.3867V59.4219L56.6748 61.9414L57.4131 64.4844L57.4482 64.5898L57.46 64.6953L57.835 67.3203V67.4023L58.0693 70.0273V70.0859L58.1982 72.6992L58.3154 74.5859L58.4209 76.1797H56.71V74.6797L55.3271 74.7734L55.1982 72.8984V72.8633L55.0811 70.2969L54.8584 67.7422L54.4951 65.2109L53.792 62.7852V62.7734L53.0654 60.2305V60.2188L52.2568 57.793L52.2217 57.6992L52.1982 57.6055L51.7178 55.1094L50.7686 52.8359L50.7334 52.7422L50.71 52.6602L50.0303 50.1875L48.9521 47.9609L48.8936 47.8555L48.8584 47.7266L48.1201 45.207L47.3584 42.6758V42.6641L47.3467 42.6406L46.6553 40.0859L46.6436 40.0742V40.0508L46.0107 37.4844V37.4727L45.4248 34.8828L45.3779 34.6719L45.3896 34.4609L45.542 31.8008L45.6123 29.2461L45.624 26.6211V26.4219L45.6826 26.2227L46.3975 23.6562L46.4561 23.4688L46.5498 23.3047L47.792 21.1953L48.4014 18.793L48.4717 18.5234L48.6357 18.2891L50.1123 16.2148L51.4482 13.9648L52.6787 11.668L52.7373 11.5625L52.8193 11.457L54.4482 9.37109L54.46 9.35938L56.0303 7.39062L57.2373 5.17578L57.5654 4.55469L58.2686 4.41406L60.5303 3.96875L61.4092 3.80469L61.9717 4.48438Z" fill="black"/>
<path d="M29.3174 40.4053L31.9658 40.5928L32.1064 40.6045L32.2354 40.6396L34.7783 41.3076H34.8018L34.8252 41.3193L37.3564 42.0693L37.5322 42.1279L37.6846 42.21L39.9814 43.5342L40.1689 43.6396L40.3096 43.792L42.0674 45.6318L44.1064 47.0967L44.3877 47.3076L44.5518 47.6123L45.7822 49.9092L47.1885 52.042L48.7236 54.1396L48.8174 54.2686L48.8877 54.4209L49.9541 56.8584L50.0127 56.9873L50.0479 57.1396L50.5986 59.6709L51.4893 62.0029L51.5244 62.0732L51.5361 62.1436L52.2158 64.6982L52.2393 64.7568L52.251 64.8271L52.708 67.417L52.7197 67.4521V67.499L53.0596 70.1123V70.1592L53.0713 70.2178L53.2002 72.7139L53.5986 74.4365L54.0088 76.2412L52.1455 76.2646H51.9932L51.9814 74.7881L50.6689 75.0928L50.2471 73.2529L50.2236 73.1357V73.0068L50.083 70.4873L49.7549 67.9443L49.3213 65.4717L48.665 63.0107L47.751 60.5967L47.6807 60.3857L47.1416 57.9014L46.2041 55.7686L44.7275 53.7529L44.7041 53.7295L44.6807 53.6943L43.2393 51.5029L43.1689 51.3857L42.0791 49.3232L40.1807 47.9639L40.0752 47.8818L39.9697 47.7881L38.2939 46.0186L36.3486 44.9053L33.9697 44.1904V44.1787L31.6025 43.5693L29.4111 43.4053L27.1377 44.1436L27.0791 44.1553L27.0205 44.1787L24.6885 44.7061L22.7432 45.8193L20.9854 47.542L20.9619 47.5654L20.9268 47.5889L19.1221 49.1943L17.9619 51.1631L17.0361 53.4248L16.4971 55.6045L16.9307 57.9482L16.9541 58.042V58.1475L17.0479 60.5146L17.9971 62.6475L18.9932 64.7686L20.7979 66.3154L20.915 66.4209L21.0205 66.5498L22.4619 68.4482L24.3721 69.5498L26.5752 70.335L28.4502 70.4873L28.9072 70.1709L28.5439 68.6123L28.4971 68.3896L28.5088 68.167L28.6846 65.5771V65.4482L28.7197 65.3076L29.3643 62.7412L29.5283 62.0967L30.1143 61.792L32.458 60.5264L32.6807 60.3975L32.9268 60.3623L35.4814 59.9521L35.6807 59.917L35.8916 59.9404L38.4697 60.2334L38.7861 60.2686L39.0557 60.4326L41.3408 61.7568L41.5635 61.8857L41.7275 62.085L43.4268 64.0771L43.4736 64.1357L43.5088 64.1826L45.0088 66.3271L45.0557 66.3975L45.1025 66.4795L46.3564 68.8232L46.4854 69.0576L46.5205 69.3271L46.8838 71.9521V71.9639L47.2236 74.4717L46.1455 74.6123L45.7705 74.7646L44.376 75.3154L44.3408 75.2217L44.2705 75.0576L44.2471 74.8701L43.9072 72.3623L43.5791 69.9951L42.4775 67.9443L41.1299 66.0225L39.6064 64.2178L37.8369 63.1865L35.7393 62.9404L33.6416 63.2803L32.1182 64.1006L31.6611 65.8818L31.5205 68.167L32.0713 70.4873L32.3174 71.4834L31.4619 72.0693L29.7158 73.2646L29.2822 73.5693L28.7432 73.5225L26.1299 73.3115L25.9307 73.2998L25.7549 73.2295L23.2588 72.3389L23.1299 72.292L23.0127 72.2217L20.6924 70.8857L20.4346 70.7334L20.2588 70.499L18.7471 68.5186L16.8018 66.8428L16.5557 66.6318L16.4268 66.3506L15.2783 63.9365V63.9131L15.2666 63.9014L14.1885 61.4756L14.0713 61.2178L14.0596 60.9248L13.9658 58.3584L13.4971 55.8389L13.4385 55.5225L13.5205 55.2178L14.1533 52.6162L14.1768 52.5107L14.2236 52.4053L15.2314 49.9443L15.2666 49.8506L15.3252 49.7568L16.6611 47.4717L16.7783 47.2607L16.9541 47.1084L18.9346 45.3389L20.7744 43.5576L20.915 43.417L21.0791 43.3232L23.3643 42.0107L23.5635 41.8936L23.7744 41.8467L26.3057 41.2607L28.7549 40.4756L29.0244 40.3818L29.3174 40.4053Z" fill="black"/>
<path d="M62.2686 73.3389L64.7295 73.7021L67.2021 73.5615H67.2256L69.8271 73.4678H69.9443L70.0498 73.4795L72.5928 73.7842L74.9482 73.6553L75.0537 73.6436L75.1709 73.6553L77.7842 73.9248L78.2529 73.9717L78.6162 74.2881L80.4209 75.8467L80.7373 76.1162L80.8662 76.5146L81.6631 78.999L81.792 79.4092L81.6865 79.8193L81.0537 82.3857L80.9482 82.7725L80.6787 83.0654L78.9678 84.835L78.4756 85.3389L77.7725 85.2803L75.3467 85.0928L72.9092 85.585L72.6279 85.6318L72.3467 85.585L69.9326 85.1279L67.6006 85.3975L67.5186 85.4092H67.4248L64.8936 85.3975L62.3154 85.585L62.1162 85.5967L61.917 85.5615L59.585 85.0928L57.2646 85.5732L56.9834 85.6318L56.7139 85.585L54.5225 85.1982L52.249 85.8896L51.8389 86.0186L51.4404 85.9131L49.0029 85.2803L46.5303 85.2217V85.21L44.0342 85.3975L43.8701 85.4092L43.7061 85.3857L41.1162 84.9873L40.3662 84.8701L40.0146 84.1904L38.8779 81.999L38.7256 81.7178L38.7139 81.3896L38.585 78.7764L38.5732 78.5771L38.6084 78.4014L39.1357 75.8115L39.3115 74.9561L40.1436 74.6865L42.6279 73.8896L42.7451 73.8545L42.8623 73.8311L45.4053 73.4561L45.6045 74.792L45.6865 74.8506L45.8506 74.9561V74.8623L45.792 73.3623L46.4717 73.3271L46.6592 73.3154L46.835 73.3506L49.0967 73.8193L51.499 73.4912L51.6396 73.4795H51.7686L54.2764 73.6084L56.7139 73.3506L56.9482 73.3271L57.1826 73.374L59.4678 73.8662L61.7295 73.3623L61.9873 73.292L62.2686 73.3389ZM45.8506 76.4209L43.4248 76.7725L41.9014 77.2646L41.5732 78.8232L41.6904 80.9092L42.335 82.1279L43.999 82.3857L46.46 82.2217L46.542 82.21L46.6123 82.2217L49.249 82.292H49.4248L49.5889 82.3389L51.7568 82.8896L53.9834 82.2334L54.3232 82.1279L54.6631 82.1865L56.9482 82.5732L59.585 82.0459L59.8779 82.1045L62.292 82.5732L64.6826 82.3975H67.3545L69.792 82.1279L70.0146 82.1045L70.2373 82.1514L72.5928 82.5732L74.9717 82.1162L75.1709 82.0811L75.3701 82.0928L77.292 82.2334L78.2295 81.2725L78.6631 79.5146L78.124 77.8271L77.0107 76.8545L75.0068 76.6553L72.5811 76.7725L72.4521 76.7842L72.3232 76.7607L69.8389 76.4678L67.3311 76.5615L67.3193 76.5498L64.7295 76.6904L64.5889 76.7021L64.4365 76.6787L62.0928 76.3389L59.7842 76.8545L59.4678 76.9365L59.1514 76.8662L56.7725 76.3506L54.4404 76.5967L54.3232 76.6084H54.2178L51.7568 76.4795L49.2725 76.8193L49.0264 76.8545L48.7803 76.8076L46.4482 76.3271L45.8506 76.4209Z" fill="black"/>
<path d="M51.8047 84.3994L51.9805 84.4932L53.2578 84.5869L53.082 87.1533L53.0586 87.3994L52.9648 87.6338L51.9336 90.0596V90.083L51.9219 90.1064L50.832 92.4971L50.7266 92.7314L50.5508 92.9189L48.6992 94.8408L48.4883 95.0635L48.2188 95.1807L45.7695 96.2471L45.6758 96.2939L45.5703 96.3174L43.0273 97.0088L42.9805 97.0205L42.9453 97.0322L40.3438 97.583L40.2383 97.6064H40.1211L38.8672 97.6768L38.7852 96.1768L38.7031 94.6885L39.7812 94.6182L42.3125 94.0908L44.6445 93.458L46.7422 92.5322L48.1953 91.0205L49.168 88.8994L50.0938 86.6963L50.2578 84.3877L50.2812 84.0479L50.4453 83.7549L50.4922 83.6729L51.8047 84.3994Z" fill="black"/>
<path d="M69.7715 83.9268L69.8066 84.1963L70.1348 86.6455L70.5566 88.9189L71.8105 90.665L73.5918 92.2471L75.4902 93.501L77.6348 94.1689L80.084 94.3564L80.2363 94.3682L80.377 94.415L81.5254 94.7432L80.7051 97.626L79.6738 97.3213L77.2246 97.1455L77.0488 97.1338L76.8965 97.0752L74.377 96.29L74.166 96.2314L73.9902 96.1025L71.8105 94.6611L71.7168 94.6025L71.6465 94.5322L69.7012 92.7979L69.584 92.6924L69.4902 92.5635L67.9316 90.4072L67.7324 90.1377L67.6738 89.8096L67.1816 87.1963V87.1611L67.1699 87.126L66.8301 84.6064L68.0605 84.4307L68.2715 84.3135L69.584 83.5986L69.7715 83.9268Z" fill="black"/>
<path d="M56.5459 84.4014L56.5928 84.4951L57.8936 84.5771L57.7178 87.3896L57.6592 87.5771L56.8857 89.9092L56.6396 92.4404L56.6162 92.7217L56.4756 92.9795L55.3154 95.2061L54.6943 97.6084V97.6201L54.0381 99.917L54.1553 102.296L54.4365 104.651L55.4443 106.854V106.866L55.4561 106.89L56.4053 109.14L57.9639 111.015L58.0459 111.12L58.1162 111.237L59.2295 113.229L60.085 113.815L60.9873 112.854L62.4404 110.851L63.7764 108.753L64.5264 106.538L64.9482 104.054L64.96 103.983L64.9834 103.901L65.6514 101.487L65.71 99.1787V99.0029L65.7451 98.8389L65.7686 98.7451L67.2334 99.1084L67.667 99.2139L68.6982 99.2373L68.6514 101.792L68.6396 101.979L68.5928 102.155L67.9014 104.616L67.4678 107.171L67.4443 107.288L67.4092 107.405L66.5537 109.913L66.4951 110.089L66.4014 110.241L64.9717 112.479L64.9482 112.526L64.9248 112.562L63.3662 114.694L63.3076 114.765L63.249 114.823L61.4092 116.804L60.5303 117.741L59.4756 117.026L57.2725 115.526L56.9678 115.327L56.8037 115.022L55.5615 112.831L53.9443 110.874L53.8037 110.698L53.71 110.499L52.7021 108.085L51.6123 105.659L51.5186 105.448L51.4834 105.214L51.1787 102.565L51.167 102.519V102.472L51.0381 99.8467L51.0264 99.6006L51.0967 99.3662L51.7998 96.8232L52.4678 94.292L52.5029 94.1279L52.585 93.9756L53.6748 91.8545L53.9209 89.4756L53.9326 89.3115L53.9912 89.1592L54.7295 86.8271L54.8936 84.4014L54.9404 83.5811L55.6553 83.1826L55.8076 83.0889L56.5459 84.4014Z" fill="black"/>
<path d="M81.1035 96.6138L82.4395 97.3052L82.2285 97.7153L82.1699 97.8325L82.0879 97.938L80.4824 100.024L80.3184 100.235L80.084 100.387L77.8809 101.77L77.7285 101.864L77.5527 101.922L75.1152 102.731L74.9043 102.79L74.6934 102.801L72.0449 102.895L71.6934 102.907L71.377 102.766L68.9512 101.676L68.8574 101.629L66.6191 100.446L67.2168 99.3442L67.2285 99.1099L67.334 97.6099L67.4395 97.6216L67.7559 97.645L68.0371 97.7974L70.2754 98.981H70.2637L72.2793 99.8716L74.3887 99.8013L76.4277 99.1333L78.2559 97.9849L79.6152 96.2388L79.7793 95.9224L81.1035 96.6138Z" fill="black"/>
<path d="M64.8457 84.1768L64.8574 84.2588L64.8691 84.3525L65.127 86.8721V86.9424L65.2559 89.3799L66.0645 91.665L66.9668 94.1494L66.9902 94.2197L67.7285 96.6807L68.5723 98.4854L67.2246 99.1064L67.9512 100.431H67.9277L66.5215 101.204L65.8535 99.751L64.9512 97.8174L64.9043 97.7236L64.8691 97.6182L64.1426 95.1689L63.2402 92.6846V92.6729L62.3613 90.165L62.291 89.9658L62.2793 89.7549L62.1387 87.165L61.8809 84.6455L62.5254 84.5752L63.3574 84.3994L64.8223 84.083L64.8457 84.1768Z" fill="black"/>
<path d="M39.5352 94.8813L40.0039 95.104L40.2266 95.5845L41.1992 97.6353L42.5352 99.0649L44.4688 99.4517L46.8359 99.3931L49.3438 99.147L51.6758 98.4321L51.9453 99.2993L52.2383 99.7915L53 101.081L52.8828 101.151L52.7305 101.245L52.5664 101.292L50.0469 102.077L49.8945 102.124L49.7422 102.135L47.1172 102.381H47.0234L44.4219 102.463L44.2461 102.475L44.0703 102.44L41.4688 101.913L41 101.819L38.8672 99.5337L38.7148 99.3696L38.6094 99.1587L37.5195 96.8735L38.7383 96.2993L38.7852 96.1821L39.4414 94.8345L39.5352 94.8813Z" fill="black"/>
<path d="M88.4502 40.5659L91.0752 40.7183L91.0635 40.73L93.7236 40.8354L94.0635 40.8472L94.3564 40.9995L96.7236 42.2417L96.7939 42.2886L99.0557 43.6245L99.1025 43.6479L99.1494 43.6831L101.329 45.2065L101.563 45.3706L101.716 45.605L103.204 47.8198L103.228 47.8667L104.61 50.0933L104.692 50.2339L104.751 50.3862L105.606 52.8589L105.665 53.0112L105.688 53.1753L105.993 55.6831L106.462 58.3198L106.532 58.6948L106.403 59.0698L105.524 61.5542L105.536 61.5659L104.716 64.062L104.634 64.3081L104.481 64.5073L102.888 66.5933L101.528 68.7378L101.329 69.0659L100.989 69.2534L98.6924 70.5073L96.6182 71.9487L96.501 72.019L96.3838 72.0776L93.9814 73.1558L93.8408 73.2261L93.6885 73.2612L91.1104 73.8237L90.1729 74.0347L89.5869 73.2612L88.6729 72.0542L88.2979 71.562L88.3799 70.9526L88.708 68.3745V66.23L87.5713 64.5073L86.165 63.1128L84.3369 62.6909L82.2744 63.1948L80.3057 64.2729L78.5713 65.7612L77.4346 67.6714L76.626 70.0503L76.6025 70.0972L75.7471 72.3354L75.6768 74.644L75.665 74.9019L75.5596 75.1479L75.5244 75.2417L74.1299 74.6792L73.8721 74.5737L72.6768 74.5386L72.7588 71.9839L72.7705 71.7378L72.8643 71.5034L73.8018 69.0308L74.6338 66.5815L74.6924 66.4292L74.7744 66.2886L76.1338 64.0034L76.2627 63.7925L76.4502 63.6401L78.4658 61.9058L78.583 61.8003L78.7236 61.7183L81.0322 60.4644L81.1963 60.3706L81.3838 60.3237L83.9736 59.6909L84.3252 59.6089L84.665 59.6909L87.2783 60.2886L87.6885 60.3823L89.833 62.5269L89.9502 62.6323L90.0322 62.7729L91.4736 64.9995L91.7197 65.3628L91.708 65.8081V68.5854L91.6963 68.6792L91.4385 70.6714L92.8799 70.3667L95.0127 69.4058L97.0752 67.9878L97.1338 67.9526L97.2041 67.9175L99.1963 66.8042L100.427 64.8706L100.462 64.8237L100.509 64.7651L101.938 62.8784L102.688 60.6284V60.6167L103.438 58.4487L103.04 56.1987L103.028 56.1636V56.1284L102.712 53.6675L101.962 51.5347L100.673 49.4487V49.437L99.3721 47.5034L97.4268 46.144V46.1323L95.2588 44.8667V44.855L93.2666 43.812L90.9229 43.7065H90.8994L88.4033 43.5659L86.1299 43.8472L84.0205 44.8433L81.8408 46.144L81.8291 46.1323L79.8604 47.3394L78.5596 49.3081L78.4541 49.4487L78.3252 49.5776L76.5088 51.2417L75.3252 53.1753L74.458 55.5659L74.4346 55.6362L74.4111 55.6948L73.2979 58.0737L73.2744 58.1323L73.2393 58.1792L72.0322 60.2886L71.376 62.7026L70.6846 65.2456L70.6729 65.2339L70.04 67.7886L69.6064 70.1792L69.3369 72.5815L69.6533 74.5151L69.9229 76.2144L68.2119 76.2612H68.0596L68.0127 74.7847L66.6885 74.9956L66.3486 72.8979L66.3135 72.6987L66.6299 69.8511L66.6416 69.8042V69.7573L67.0986 67.1558L67.1104 67.0972L67.1221 67.0503L67.7783 64.4839V64.4722L67.79 64.4604L68.4814 61.9175L69.1729 59.3628L69.2197 59.1753L69.3135 59.0112L70.6377 56.6909L71.6338 54.5464L72.5479 52.0386L72.5947 51.8979L72.6768 51.769L74.0596 49.5073L74.1768 49.3315L74.3291 49.1909L76.1689 47.4683L77.5518 45.4058L77.7275 45.1245L78.0205 44.9604L80.3057 43.5659H80.3174L82.5791 42.23L82.6963 42.1597L85.0986 41.0347L85.3096 40.9292L85.5557 40.9058L88.1807 40.5776L88.3213 40.5542L88.4502 40.5659Z" fill="black"/>
</svg>
