<svg width="120" height="120" viewBox="0 0 120 120" fill="none" xmlns="http://www.w3.org/2000/svg">
<path d="M19.6602 5.99609L21.0195 8.30469L21.0781 8.38672L21.1133 8.48047L22.1445 10.918L22.2148 11.1055L22.8945 13.6602L22.9062 13.6836L23.5391 16.2383L23.5625 16.3086L24.0781 18.9219L24.1133 19.0859L24.1016 19.25L24.043 21.9102V22.0039L24.0312 22.1094L23.6211 24.7344L23.5977 24.875L23.5508 25.0156L23.0371 26.4443H25.6074L25.6191 27.9209L25.6426 30.5576L25.6543 30.5811V30.5928L25.6309 33.2295V33.9561L25.0566 34.4014L23.4648 35.6572L24.5264 37.834L24.5615 37.8926L24.585 37.9512L25.5225 40.4004L25.5693 40.5059L25.5928 40.6113L26.1553 43.1895L26.167 43.2129L26.6475 45.709L27.3389 48.2637L27.374 48.3809L27.3857 48.5098L27.6201 51.0176L28.2646 53.3379L29.249 55.4824L30.5967 57.5918L31.5371 58.7422L33.7471 59.8701L33.9814 59.9873L34.1572 60.1748L35.9854 62.0967L36.0791 62.1904L36.1494 62.3076L37.6143 64.5107L37.6377 64.5576L39.0205 66.8076L39.0557 66.8779L39.0908 66.96L39.9463 68.7881L40.2393 66.749L40.2627 66.5967L40.3213 66.4443L41.2354 63.9482L41.8799 61.5225L42.501 58.9912L42.5479 58.8506L43.415 56.3428L43.5088 56.0615L43.708 55.8389L44.5449 54.9023L43.9551 54.6758L43.7324 54.5938L43.5332 54.4297L41.5176 52.7656L41.2129 52.5195L41.0723 52.1562L40.1348 49.7891L39.9824 49.4141L40.041 49.0156L40.3926 46.5547L40.4863 45.9336L40.9902 45.5586L42.4062 44.5156L42.4766 42.0098V41.9512L42.4883 41.8926L42.7578 39.291L42.7695 39.1504L42.8164 39.0215L43.167 37.8555L41.5225 36.6504L39.2842 35.373V35.3613L36.999 34.2363L36.9756 34.2246L36.9639 34.2129L34.6201 32.9941L34.5381 32.9473L34.4678 32.8887L32.4756 31.5059L32.3936 31.459L32.4053 31.4473L32.3701 31.4355L32.5928 31.1191L33.1436 30.1582L33.8936 28.8574L33.9873 28.916L34.0342 28.9395L34.0811 28.9746L36.1318 30.3926L38.3232 31.541H38.335L40.7021 32.7246L40.7725 32.7715L43.0693 34.084L43.1396 34.1191L43.21 34.166L44.4238 35.0586L45.1836 33.8652L45.3125 33.666L45.5 33.5137L47.5508 31.8379L49.0176 30.6172L48.416 29.8955L48.334 29.7314L47.209 27.4111L45.8848 25.3721L44.3027 23.251V23.2393H44.291L42.7324 21.1064L42.6855 21.0361L42.6387 20.9541L41.3848 18.7393L43.8926 17.0986L43.9512 17.1807L43.9746 17.2275L43.998 17.2627L45.2168 19.4189L46.7051 21.458L48.3223 23.6143L48.3457 23.6611L49.7871 25.876L49.834 25.9463L49.8691 26.0283L50.959 28.2549L51.6621 29.1006L52.25 28.8145L52.3672 28.7559L52.4844 28.7207L55.0273 27.9824L55.0977 27.959L55.1562 27.9473L57.7695 27.4316L57.9453 27.3848L58.1445 27.3965L58.7051 27.4258L58.6719 26.7803L58.6836 26.7686L58.3789 24.2373L58.3672 24.085L58.3789 23.9326L58.6133 21.2842L58.5664 18.8936L58.3906 16.2568V16.2334L58.3789 16.21L58.2617 13.5732V13.4795L58.2734 13.374L58.4844 10.8428L58.7539 10.8662H61.4844V11.0303L61.4727 11.0889L61.2617 13.5615L61.3789 16.0459L61.5664 18.6826V18.7646L61.6133 21.4014V21.4834L61.6016 21.5654L61.3789 24.0732L61.6602 26.5342V26.5811L61.6719 26.6279L61.7197 27.6572L63.5234 27.9004L63.6523 27.9121L63.7812 27.959L66.2891 28.7441L66.3359 28.7559L66.3945 28.7793L67.9551 29.3945L68.8438 27.6777L68.9141 27.5488L69.0078 27.4316L70.6016 25.4277L71.9375 23.3301L73.2383 21.0215L73.25 21.0098V20.998L74.6094 18.7246L74.6562 18.6309L74.7148 18.5605L76.2969 16.5566L76.5781 16.791L77.5273 17.4004L78.7812 18.2207L78.7227 18.3027L78.6875 18.3613L78.6523 18.4082L77.1406 20.3066L75.8398 22.5215L74.5625 24.7949L74.5391 24.8418L74.5156 24.877L73.0977 27.1035L73.0625 27.1738L73.0039 27.2324L71.4219 29.1895L70.6572 30.6924L71.3398 31.0527L71.5156 31.1465L73.625 33.0801L73.7188 33.1738L73.8008 33.291L75.0654 34.9707L75.1348 34.9219L75.3105 34.8398L77.6191 33.8203L79.7402 32.5195L81.8145 30.9727L83.8887 29.3789L83.9355 29.332L83.9824 29.2969L86.1035 27.9258L86.1855 27.8672L87.8496 30.375L87.7676 30.4219V30.4336H87.7559L85.623 31.8164L83.6309 33.3633L83.6191 33.375L81.498 34.957L81.4395 35.0039L81.3809 35.0391L79.1309 36.4219L79.0488 36.4805L78.9551 36.5156L76.7168 37.4883L76.4736 37.6865L76.6719 38.1191L76.7188 38.2129L76.7422 38.3184L77.5039 40.8613L77.5742 41.084L77.5625 41.3184L77.5156 43.6035L78.5 45.6074L79.7539 47.9512L80.0703 48.5371L79.8359 49.1699L78.9336 51.6777L78.8281 51.9473L78.6406 52.1699L76.8984 54.085L77.2959 55.8135L77.917 58.3682L77.9404 58.4854L78.3623 61.0986L78.374 61.2158V61.3213L78.3975 63.9697L78.4092 64.1221L78.374 64.2627L77.8936 66.876L77.7412 69.3369V69.4424L77.7178 69.5479L77.1787 72.1377L77.1553 72.1963L77.1436 72.2666L76.7949 73.4043L76.9424 73.4404L77.2588 73.5225L77.5166 73.7217L79.6025 75.3623L79.626 75.374L79.6494 75.3975L81.665 77.0967L81.7119 77.1318L81.7588 77.1787L83.6338 79.042L83.7393 79.1475L83.8213 79.2646L85.2275 81.3389L87.0088 83.1436L87.126 83.2607L87.208 83.3896L88.5791 85.5693L90.1611 87.6201L90.2314 87.7021L90.2783 87.7959L91.1807 89.373L91.8613 88.3164L91.9668 88.1523L92.1074 88.0234L94.0176 86.2539L94.2754 86.0195L94.6152 85.9258L97.0527 85.1992L97.4277 85.082L97.8145 85.1758L100.393 85.7734L100.721 85.8555L100.99 86.0664L103.006 87.6836L105.139 89.2188H105.127L107.271 90.543H107.283L109.545 91.8906L109.592 91.9141L109.627 91.9375L111.725 93.3672L111.807 93.4258L111.154 94.3857L111.582 94.6709L112.824 95.5146L112.777 95.5967L112.707 95.7021L112.613 95.7959L111.055 97.4131L110.012 99.3584L109.917 99.5928L111.594 101.024L112.074 101.435L112.121 102.067L112.285 104.423L112.309 104.868L112.086 105.267L110.785 107.54L109.766 109.825L109.602 110.177L109.285 110.411L107.639 111.635L107.691 111.817L107.27 112.403L105.952 114.263L105.969 114.266L108.406 114.746L110.809 114.5L110.891 114.488H110.973L112.016 114.5L112.004 116L111.98 117.5L110.984 117.488L108.477 117.746L108.254 117.77L108.031 117.734L105.57 117.242L103.145 117.254L100.648 117.688L100.496 117.711L100.332 117.699L97.6953 117.594H97.625L97.5547 117.582L95.1523 117.242L92.7617 117.711L92.5273 117.758L92.293 117.734L89.7383 117.406L87.207 117.418L87.1953 117.406L84.6055 117.488H84.5938L81.957 117.547H81.9336L79.3672 117.559L79.3789 117.57L76.7422 117.746L76.5547 117.758L73.9297 117.266L71.5391 117.547L71.4102 117.559H71.2812L68.7266 117.418L66.1719 117.582H66.043L65.9141 117.57L63.418 117.289L60.957 117.559H60.8867L58.25 117.711L58.0977 117.723L57.957 117.699L55.4141 117.348L52.9062 117.406H52.8477L52.2148 117.392L52.0391 117.653L51.623 117.379L50.2109 117.348V117.336H47.5742L44.9492 117.289L42.4531 117.512L42.418 117.523H42.3711L39.7344 117.617H39.6172L36.9805 117.512V117.5L34.3906 117.488H34.3438L34.2969 117.477L31.7188 117.301L29.1875 117.43H29.1055L26.4688 117.418V117.406L23.9609 117.43L21.3242 117.664L21.1836 117.676L21.0312 117.664L18.5 117.383L15.9219 117.395V117.383L13.3789 117.559H13.3672L13.3555 117.57L10.707 117.688L10.6133 117.699L10.5312 117.688L7.98828 117.5L8 117.277V114.5H8.21094L10.6719 114.699L13.1797 114.582V114.57L15.8164 114.395H15.9102L18.5469 114.383L18.6406 114.371L18.7227 114.383L21.2305 114.664L23.7148 114.453L23.7617 114.441H23.8203L26.4688 114.418H26.4922L29.0469 114.43L29.2744 114.419L29.1533 114.163L28.0518 111.843V111.831L26.9268 109.405L26.833 109.206L26.7979 108.995L26.4111 106.37L26.3877 106.183L26.3408 103.757L25.5322 101.448L25.4502 101.237V101.015L25.333 98.4482L24.7822 96.1279L23.9385 94.1709L22.5205 92.9053L20.3057 92.1318L19.8252 91.9561L19.5557 91.5342L18.0791 89.2725L17.7861 88.8389L17.833 88.3115L18.0908 85.6514V85.6162L18.1025 85.5693L18.4775 82.9912L18.5361 82.5811L18.8057 82.2529L20.4111 80.3193L21.5596 78.1396L21.5713 78.1045L21.6064 78.0576L22.8721 75.9482L23.4932 73.6045L23.5156 73.5146L22.5703 72.1797L22.5117 72.0977L22.4648 72.0039L21.2461 69.6602V69.6484L19.9922 67.3984L19.8984 67.2109L18.9492 64.7617L18.9258 64.668L18.1289 62.1602L17.3203 59.6289L17.2617 59.4414L17.25 59.2539L17.1211 56.5938L17.1328 56.582L16.8398 54.0859L16.5117 51.4727V51.3906L16.3242 48.7422L16.3154 48.6641L15.8779 48.8145L15.5264 48.9316L15.1631 48.873L12.5146 48.4746L11.8584 48.3691L11.4834 47.8066L10.0303 45.5801L9.84277 45.2988L9.7959 44.959L9.45605 42.416L9.4209 42.1816L9.46777 41.959L9.91309 39.3691V39.3457L9.9248 39.3223L10.4521 36.7324L10.583 35.9111L9.43555 36.0186L8.47461 36.1006L7.99414 35.2568L6.91602 33.3115L6.7168 32.9717L6.72852 32.5732L6.74023 29.9365V29.9014L6.79883 27.7334L6.83398 26.2686H8.60352L10.7412 26.4414L10.543 25.4844L10.5195 25.3672V25.2383L10.4141 22.6602V22.4141L10.4844 22.168L11.2344 19.6367L11.293 19.4609L11.3867 19.2969L12.7578 17.0352L12.793 16.9766L12.8281 16.9297L14.1992 14.9961L14.7734 12.7812L15.0547 10.3789L15.0898 7.78906L15.1016 6.94531L15.8281 6.52344L17.6094 5.46875L18.9102 4.70703L19.6602 5.99609ZM72.1377 76.2295L70.2861 77.3428L68.6455 79.124L68.54 79.2295L66.583 80.9404L64.9658 82.8271L63.3252 84.8545L63.29 84.9014L63.2432 84.9482L61.4268 86.8584L61.4033 86.8818L59.54 88.7568L59.5049 88.7803L59.4697 88.8154L57.6064 90.4561L55.9541 92.4365L55.9072 92.4951L55.8486 92.542L54.0557 94.3232L52.3213 96.3154L52.2744 96.374L52.2158 96.4209L50.3525 98.1787L48.7471 100.147L48.6533 100.276L48.5244 100.37L46.5088 101.964L44.8447 103.698L43.3447 105.819L43.2627 105.937L43.1572 106.03L41.2354 107.847L41.165 107.917L41.083 107.976L39.0439 109.429L37.4736 111.315L37.3564 111.444L37.2158 111.55L35.1299 113.085L33.8164 114.442L34.5078 114.488L34.4961 114.5L37.0508 114.512H37.0977L39.6875 114.617L42.1836 114.535L44.832 114.289H44.9844L47.6211 114.336L47.6094 114.348H50.2695L50.6514 114.355L51.2305 113.505V113.493L52.6602 111.407L53.9023 109.122L53.9141 109.087L53.9375 109.052L55.3086 106.802L55.3438 106.743L55.3672 106.696L56.9141 104.552L58.3672 102.407L58.3906 102.36L58.4141 102.325L59.9727 100.274L61.2852 98.0947L61.2969 98.0596L61.3203 98.0244L62.7969 95.8447L64.2266 93.6533L65.4688 91.4268L65.5391 91.2979L65.6328 91.1807L67.2969 89.2002L68.7383 87.1025L70.0508 84.8994V84.8877L70.0625 84.876L71.4805 82.6377L71.5273 82.5557L71.5859 82.4736L73.2148 80.5166L73.4492 80.7158L74.4336 81.3955L75.6641 82.251L75.6055 82.333L75.5703 82.3916L75.5234 82.4385L73.9414 84.3252L72.6055 86.4697L71.2695 88.708L71.2461 88.7549L71.2227 88.79L69.7344 90.9697L69.6992 91.04L69.6406 91.0986L67.9883 93.0205L66.8047 95.2002L66.7695 95.2471L66.7461 95.2939L65.3047 97.4971L65.293 97.5088V97.5205L63.8164 99.7119L63.8047 99.7002L62.5039 101.903L62.4102 102.044L60.8047 104.153L59.375 106.263L59.3516 106.31L57.875 108.349L56.5039 110.61L55.2852 112.884L55.2383 112.954L55.2031 113.013L54.2598 114.375L55.4844 114.348H55.6133L55.7305 114.359L58.2148 114.723L60.7109 114.559V114.57L63.2891 114.289L63.4414 114.277L63.6055 114.289L66.0898 114.582L68.6328 114.43L68.7148 114.418L68.7969 114.43L71.3281 114.559L73.8242 114.266L74.0586 114.23L74.2812 114.277L76.7305 114.734L77.0332 114.715L77.2832 113.453L77.626 111.736L77.3984 109.694L77.3867 109.624V109.542L77.375 106.905V106.894L77.3867 104.339L77.2344 101.69V101.55L77.2578 101.397L77.6211 98.8428L77.6562 96.4404L77.4922 93.8389L77.2461 91.2139V91.1787L77.0703 88.6475L77.0586 88.624V88.4951L80.0586 88.4014V88.4482L80.2344 90.9326L80.4805 93.5576V93.5928L80.6562 96.2412V96.3584L80.6094 99.0068V99.1006L80.5977 99.1943L80.2344 101.667L80.3867 104.175V104.257L80.3799 105.685L81.9004 103.703L83.4121 101.605L84.6777 99.4375L84.6895 99.4141L84.7129 99.3906L86.1309 97.1641L86.1543 97.1406L86.1777 97.1055L87.7012 94.9492L88.9082 92.7812L88.9785 92.6641L89.3662 92.0957L89.1064 91.7686L88.9893 91.5811L87.7354 89.3779L86.1768 87.3506L86.1299 87.292L86.0947 87.2334L84.7705 85.1475L83.001 83.3545L82.9072 83.249L82.8369 83.1436L81.4072 81.0576L79.6377 79.2998H79.626L77.7158 77.6943V77.6826L75.9229 76.2764L74.0127 75.8193L72.1377 76.2295ZM95.7871 88.6914L94.2754 90.0977L93.0791 91.9658L93.2432 92.1787L92.6514 92.5957L91.4629 94.3516L90.2324 96.5547L90.1973 96.625L90.1504 96.6953L88.6504 98.7695L88.6621 98.7812L87.2559 100.949L85.9316 103.246L85.8848 103.305L85.8496 103.363L84.3145 105.496L84.291 105.52L84.2793 105.543L82.6504 107.652L82.6152 107.688L81.1973 109.387L80.7168 111.508L80.6523 111.837L80.668 111.979L80.6797 112.003L80.9258 114.499L80.9414 114.562L81.8867 114.559V114.547L84.5234 114.488L87.1602 114.418H87.1953L89.832 114.406H89.9375L90.0312 114.418L92.4219 114.734L94.8359 114.266L95.082 114.219L95.3164 114.254L96.1035 114.36L95.3906 113.288L95.0273 112.749L95.1797 112.116L95.7305 109.714L95.7891 109.456L95.9297 109.233L97.3594 107.007L98.7305 104.815L99.9141 102.624L100.219 102.062L100.84 101.886L101.817 101.618L101.492 101.446L102.676 99.2197L102.969 98.6807L103.566 98.4932L105.852 97.8135L106.426 97.6377L106.965 97.9189L107.286 98.084L107.328 98.0225L108.523 95.7959L108.617 95.6201L108.758 95.4678L109.041 95.1719L107.939 94.4219V94.4102L105.748 93.1211H105.736L105.725 93.1094L103.475 91.7148L103.428 91.6914L103.393 91.6562L101.248 90.1094L101.213 90.0977L101.189 90.0742L99.3613 88.6094L97.5215 88.1758L95.7871 88.6914ZM98.2383 112.163L99.2344 113.663L99.5977 114.214L99.4883 114.676L100.273 114.711L102.239 114.372L101.82 114.255L101.527 114.173L101.281 113.985L99.207 112.321L99.1016 112.239L99.0078 112.134L98.4102 111.436L98.2383 112.163ZM97.8184 114.595L97.8945 114.605L98.0518 114.612L97.957 114.589L97.8633 114.565L97.8184 114.595ZM30.5127 62.3779L29.7158 64.5225L28.8838 66.8662L28.8955 66.8779L28.1807 69.4209L28.1455 69.5381L28.0986 69.6553L27.0557 71.8818L26.3877 74.3779L25.7197 76.9443L25.6611 77.1553L25.5439 77.3428L24.1611 79.6162L22.9893 81.8779L22.9072 82.0186L22.8135 82.1357L21.3721 83.8467L21.0674 86.0146L20.8682 88.0654L21.7822 89.46L23.7744 90.1631L24.0557 90.2568L24.2783 90.4561L26.1885 92.1553L26.4463 92.3896L27.6064 95.1318L27.6533 95.249L27.6885 95.3662L28.2979 97.9443L28.333 98.085V98.2373L28.4268 100.651L29.2471 102.995L29.3291 103.218L29.3408 103.452L29.376 105.983L29.7393 108.351L30.7705 110.554L31.5205 112.171L31.8018 112.218L33.1143 110.87L33.208 110.788L33.3018 110.718L35.2939 109.229L36.8877 107.343L37.0166 107.202L37.1689 107.085L39.2197 105.608L41.001 103.933L42.4658 101.894L42.5244 101.8L42.5947 101.729L44.4229 99.8193L44.4932 99.749L44.5752 99.6787L46.5088 98.1436L48.1025 96.1982L48.1611 96.1279L48.2314 96.0576L50.0713 94.3115L51.7822 92.3545L51.8174 92.3076L51.8643 92.2725L53.7393 90.4092L55.333 88.4873L55.4033 88.3936L55.4971 88.3232L57.4775 86.5654L59.2822 84.7607L61.0283 82.9092L61.7119 82.0674L61.4951 82.0303L59.0225 81.8779H58.9639L58.9053 81.8662L56.292 81.4912H56.2568L56.2334 81.4795L53.6436 80.999L53.4678 80.9756L53.3037 80.8936L50.8779 79.8154L49.6943 79.2881L50.0459 78.0342L50.7725 75.5146L50.7959 75.4092L50.8311 75.3154L51.2422 74.3643L50.7354 74.1348L48.4268 73.9238L45.9189 74.0527L45.9072 74.041L43.3174 74.2285L43.2588 74.2402L43.1885 74.2285L41.4131 74.1953L40.5215 75.6475L39.4551 77.9678L39.4434 77.9795L38.3301 80.3701L38.2598 80.5107L36.9121 82.7842L36.8418 82.8896L36.7598 82.9834L35.0371 85.0107L33.6777 87.0615L33.6191 87.167L33.5254 87.2607L31.7207 89.1943L31.6621 89.2646L31.5801 89.3232L29.5879 90.9639L29.0957 91.4326L27.0801 89.2061L27.584 88.749L27.6309 88.7021L29.6113 87.0615L31.2637 85.2803L32.6465 83.2061L32.6934 83.124L32.752 83.0537L34.416 81.0967L35.623 79.0459L36.7246 76.7021L37.8379 74.3115L37.873 74.2295L37.9199 74.1592L38.6826 72.9092L37.5205 70.6748L37.5088 70.6514L37.4971 70.6162L36.4072 68.2959L35.083 66.1279V66.1162L33.6885 64.0303L32.1768 62.4365L31.0635 61.874L30.5127 62.3779ZM99.9121 108.577L101.164 110.048L102.922 111.454L104.035 111.759L104.41 111.243L104.07 110.083L102.312 109.04L102.266 109.017L102.23 108.981L100.432 107.75L99.9121 108.577ZM102.234 104.604L101.942 105.152L103.93 106.509L106.133 107.821L106.648 108.126L106.768 108.546L107.176 108.243L107.645 107.211L107.215 106.995L107.086 106.937L106.98 106.854L104.965 105.296L103.289 104.312L102.234 104.604ZM105.02 101.177L104.746 101.693L106.559 102.753L106.641 102.8L106.711 102.858L108.68 104.37L109.036 104.552L109.25 104.177L109.156 102.888L107.773 101.704L106.121 100.849L105.02 101.177ZM45.5029 80.2393L45.4678 80.333L45.4561 80.3213L44.6592 82.7236L44.0146 85.1729V85.1846L44.0029 85.208L43.2529 87.751L43.2412 87.8213L43.2061 87.8916L42.1982 90.3408L42.1514 90.4463L42.0928 90.5518L40.7568 92.7432L39.8311 95.0635L39.8076 95.1338L39.7725 95.2041L38.5186 97.5361L38.5068 97.5713L38.4834 97.5947L37.1475 99.8213L35.8584 102.142L35.1201 103.454L33.8076 102.716L33.6436 102.61L34.3818 101.31L33.2451 100.677L34.5342 98.3682L34.5459 98.3447L34.5576 98.333L35.9053 96.0596L37.0771 93.8447L38.0498 91.4775L38.0967 91.3721L38.1553 91.2666L39.4561 89.0869L40.4287 86.7549L41.1201 84.3643L41.7881 81.8564L41.7998 81.8096L41.8115 81.751L42.6318 79.3486V79.3369L42.667 79.2314L45.5029 80.2393ZM64.9258 67.8682L64.6914 68.0322L64.4102 68.1025L61.8203 68.7354L61.668 68.7705H61.5156L58.8906 68.876H58.6797L58.4805 68.8291L55.9375 68.2314L55.7969 68.1963L55.668 68.1377L55.4316 68.0312L55.4365 68.2725V68.3662L55.3193 70.9678V71.0967L55.2959 71.2139L54.7334 73.8037L54.71 73.9561L54.6396 74.0967L53.6318 76.4053L53.2803 77.6006L54.3584 78.0811L56.7139 78.5264L59.2686 78.8779L61.8467 79.0537H61.9287L62.0107 79.0771L63.9434 79.4131L64.415 78.8662L64.4854 78.7842L64.5674 78.7256L66.5127 77.0146L68.2041 75.1963L66.8184 73.4746L66.6777 73.3105L66.5957 73.0996L65.5996 70.6621L65.5527 70.5449L65.5293 70.416L64.959 67.8438L64.9258 67.8682ZM73.3438 54.8535L73.1543 54.8711L72.8828 56.3135L72.8594 56.4775L72.7891 56.6299L71.7461 59.0557L70.9141 61.458L70.8555 61.6221L70.7617 61.7627L69.3555 64.001L69.2617 64.1299L69.1562 64.2471L67.9375 65.4961L67.9199 67.3457L68.4238 69.6309L69.291 71.7637L70.5098 73.2754L70.9326 73.4648L71.0127 73.417L71.2471 73.3584L73.6963 72.8193L73.8447 72.7881L74.249 71.4697L74.7529 68.9854L74.917 66.501V66.4072L74.9404 66.3135L75.3857 63.8994L75.374 61.4268L74.999 59.083L74.3779 56.5283V56.5049L73.9785 54.7861L73.3438 54.8535ZM46.1572 57.585L45.3838 59.835L44.7861 62.2725V62.2959L44.7744 62.3076L44.0947 64.8506L44.0713 64.9209L44.0479 64.9795L43.1924 67.2998L42.8408 69.7959V69.8311L42.8291 69.8779L42.5615 71.2188L43.2471 71.2285L43.2354 71.2402L45.7432 71.0527H45.7783L48.4268 70.9238H48.5322L48.6377 70.9355L51.2744 71.1699L51.5322 71.1934L51.7666 71.2988L52.1562 71.4785L52.3311 70.6631L52.4365 68.3193L52.4014 66.4512L50.8633 65.3018L50.6641 65.1611L50.5234 64.9502L49 62.7588L48.9414 62.665L48.8828 62.5479L47.7344 60.1572L47.6875 60.0518L47.6523 59.9463L46.8672 57.415L46.8438 57.3799L46.832 57.333L46.7354 56.9414L46.1572 57.585ZM14.8936 35.7715L13.6162 35.9121L13.4053 37.2715V37.3066L13.3936 37.3418L12.8662 39.9316L12.8545 39.9199L12.4561 42.2285L12.7256 44.2207L13.6279 45.6035L15.2451 45.8496L17.0498 45.2402L18.292 44.1035L18.4678 42.3223L18.0342 40.6582L16.4287 39.6855L15.7607 39.2988L17.2373 36.6973L17.917 37.0723L17.9404 37.084L17.9521 37.0957L20.1201 38.4199L20.6357 38.7363L20.7881 39.3223L21.4443 41.8418L21.5146 42.1113L21.4912 42.3809L21.21 44.9941L21.1514 45.5566L20.7295 45.9434L19.4287 47.1309L19.3125 48.6367L19.5 51.1797L19.8164 53.7227L19.8281 53.7461L20.1094 56.3594V56.4062L20.1211 56.4531L20.2383 58.9141L20.9883 61.2461L21.75 63.6719L22.6406 65.9922L23.8945 68.2422V68.2656L23.9062 68.2773L24.707 69.8232L25.3213 68.4951L26.001 66.0693L26.0127 66.0342L26.0361 65.9873L26.8916 63.4912L26.9033 63.4795V63.4561L27.8408 60.9951L27.958 60.667L28.2158 60.4326L28.6855 59.9932L28.2061 59.4082L28.1475 59.3379L28.1006 59.2676L26.6943 57.0645L26.6357 56.9824L26.5889 56.8887L25.4873 54.4746L25.4404 54.3691L25.4053 54.252L24.7021 51.6973L24.667 51.5684L24.6553 51.4395L24.4209 48.9785L23.7529 46.4941L23.7412 46.4355L23.7295 46.3887L23.2256 43.8223L22.6982 41.4082L21.8311 39.1465L20.8232 37.0957L19.3818 35.959L18.1523 35.7998L17.2168 35.7959H17.1699L15.8018 35.7402L14.8936 35.7715ZM58.5449 39.7812L58.5332 39.7695L56.5762 41.4102L56.5527 41.4219L56.541 41.4453L54.4434 43.0625L54.373 43.1094L54.3145 43.1445L52.0645 44.5391L51.9707 44.5859L51.8652 44.6328L49.4277 45.6875L49.3809 45.7109L49.3223 45.7344L48.1504 46.1211L48.3848 46.1445L48.3496 46.4023L48.7715 48.7812L48.7832 48.8281V48.8633L49.0996 51.4766L49.1348 51.7344L49.0762 51.9922L49.0205 52.2363L49.1406 54.1221L49.7266 56.5244L50.4883 58.9619L51.5195 61.1182L52.8555 63.04L54.6602 64.3877L56.7461 65.3369L58.9844 65.8643L61.2109 65.7822L63.4258 65.2432L65.2656 63.9307L66.8828 62.2666L68.125 60.3096L68.9453 57.9775L68.9688 57.9189L68.9922 57.8721L69.9648 55.5752L70.3984 53.3252L70.4922 50.8291L70.4102 48.1924V48.1338L70.4395 45.9609L69.0146 45.6328L68.7686 45.5742L68.5459 45.4453L66.3076 44.0156H66.2959L64.0811 42.5977L64.0459 42.5742L64.0107 42.5391L61.8779 40.9805L61.7725 40.8984L61.6787 40.793L59.8506 38.8594L59.8174 38.8242L58.5449 39.7812ZM58.5117 58.3975L60.9814 58.6719L61.0049 58.6758L63.3311 58.9658L63.332 58.9541L63.4248 58.9668L63.2637 60.459L63.1133 61.9521L62.9854 61.9346L60.6484 61.6426L58.2363 61.376L57.1309 61.4111L55.4688 61.4502L55.6064 59.7891L55.6094 59.6826L57.1064 59.8096L57.0645 58.4199L58.3223 58.3945L58.418 58.3838L58.5117 58.3975ZM60.0039 48L61.457 48.3516L61.3516 48.7852L61.375 51.2227V51.2461L61.3516 53.8945V53.9883L61.3398 54.082L61 56.4844V56.5898L60.9883 56.5781V56.6016L60.8125 56.5781L59.5 56.4961L58 56.4141L58.0117 56.3086V56.25L58.0234 56.2031L58.3633 53.7422L58.375 51.2461L58.3516 48.5977V48.4102L58.3984 48.2344L58.5391 47.6484L60.0039 48ZM44.4473 46.7305L43.2754 47.5977L43.0645 49.0273L43.709 50.6914L45.2324 51.9453L45.9355 52.2148L46.0879 51.5703L45.8184 49.2969L45.373 46.7305L45.3613 46.6719L44.4473 46.7305ZM74.7568 46.5L74.5811 46.5234L74.4053 46.5L73.4336 46.4121L73.4102 48.1689L73.4922 50.7354V50.8291L73.4561 51.8242L75.0312 51.666L76.2031 50.377L76.7891 48.7715L75.8516 47.0254L75.8281 46.9785L75.5352 46.3809L74.7568 46.5ZM55.7969 48.583L56 48.8955H57.2422L56.125 50.4736L55.9062 50.7783L55.8984 50.7861L55.6953 51.0752L55.5312 51.2939L55.2891 51.4033L54.9062 51.5752L54.5 51.7549L54.1016 51.5752L53.6953 51.3955L53.1719 51.1689L53.1094 50.5986L53.0781 50.3018L52.9688 50.0439L52.7969 49.5908L53.0391 49.1768L53.2578 48.8174L53.4219 48.5283L53.7266 48.3955L54.1172 48.2314L54.2969 48.1533H54.4844L54.9375 48.1377L55.4844 48.1299L55.7969 48.583ZM66.5312 48.583L66.7344 48.8955H67.9766L66.8594 50.4736L66.6406 50.7783L66.6328 50.7861L66.4297 51.0752L66.2656 51.2939L66.0234 51.4033L65.6406 51.5752L65.2344 51.7549L64.8359 51.5752L64.4297 51.3955L63.9062 51.1689L63.8438 50.5986L63.8125 50.3018L63.7031 50.0439L63.5312 49.5908L63.7734 49.1768L63.9922 48.8174L64.1562 48.5283L64.4609 48.3955L64.8516 48.2314L65.0312 48.1533H65.2188L65.6719 48.1377L66.2188 48.1299L66.5312 48.583ZM55.7656 30.877L53.4336 31.5684L51.3359 32.5879L49.4609 34.1582L49.4492 34.1699L47.5508 35.6934L46.3906 37.5332L45.7227 39.7363L45.4766 42.209L45.4336 43.6543L46.2168 43.6016L48.3145 42.8984L50.5762 41.9141L52.6855 40.6016L54.7012 39.0664L56.6934 37.4141L56.7285 37.3906L56.752 37.3672L58.6553 35.9629L58.6436 35.9297L58.7617 35.8848L58.8027 35.8555L58.8262 35.832L58.9082 35.7734L58.9395 35.8184L59.8389 35.4844L59.9795 35.3438L61.0342 34.2773L61.3389 34.582L61.4561 34.8984L62.2295 37.0078L63.7295 38.6016L65.6982 40.0664L67.9131 41.4844H67.9014L69.9404 42.7617L72.1436 43.2773L74.499 43.4883L74.5215 43.4844L74.5508 41.459L73.8945 39.2676L72.9102 37.0996L71.5156 35.2363L69.7695 33.6074L67.6133 32.4824L65.3867 31.6035L63.0078 30.8535L60.582 30.5254L58.1797 30.3965L55.7656 30.877ZM16.3145 29.1631V29.1514L13.7715 29.3271H13.7598L13.748 29.3389L11.0996 29.4561L11.0059 29.4678L10.9238 29.4561L9.75195 29.3623L9.74023 29.9834L9.72852 32.1982L10.1387 32.9365L11.8145 32.7959L11.8496 32.7842H11.8965L14.5332 32.6904H14.6504L15.8926 32.7393L17.3193 32.6895H17.4482L17.5654 32.7012L18.3691 32.8057L19.877 32.8193H19.9707L22.0215 32.96L22.6309 32.4795L22.6543 30.5928L22.6309 29.4326H21.4238L18.8926 29.1514L16.3145 29.1631ZM18.0547 10.4961V10.5664L18.043 10.6484L17.7383 13.25L17.7266 13.3438L17.7031 13.4375L17.0469 16.0156L16.9766 16.2852L16.8125 16.5195L15.2656 18.6758L14.0469 20.668L13.4141 22.8008L13.5078 25.0156L13.7822 26.3242L16.209 26.1631H16.3027L18.9395 26.1514L19.0332 26.1396L19.1152 26.1514L19.9062 26.2422L20.6797 24.125L21.043 21.793L21.0898 19.3086L20.6328 16.9648L19.9883 14.4102V14.3984L19.3203 11.9492L18.3711 9.71094L18.0664 9.19531L18.0547 10.4961Z" fill="black"/>
</svg>
