<svg width="120" height="120" viewBox="0 0 120 120" fill="none" xmlns="http://www.w3.org/2000/svg">
<path d="M8.1 116V117.5H8.13227L8.16451 117.499L8.1 116ZM10.64 115.891L10.797 114.399L10.6865 114.387L10.5755 114.392L10.64 115.891ZM13.28 116.169L13.123 117.66L13.2739 117.676L13.425 117.662L13.28 116.169ZM15.92 115.912L15.8596 114.413L15.8172 114.415L15.775 114.419L15.92 115.912ZM18.56 115.806L18.6763 114.31L18.588 114.303L18.4996 114.307L18.56 115.806ZM21.2 116.011L21.0837 117.507L21.1392 117.511L21.1948 117.511L21.2 116.011ZM23.84 116.02L23.8348 117.52L23.8912 117.52L23.9474 117.516L23.84 116.02ZM26.48 115.831L26.5223 114.331L26.4473 114.329L26.3726 114.334L26.48 115.831ZM29.12 115.905L29.2963 114.415L29.2295 114.408L29.1623 114.406L29.12 115.905ZM31.76 116.217L31.5837 117.707L31.7941 117.732L32.0032 117.698L31.76 116.217ZM34.4 115.784L34.4793 114.286L34.3171 114.277L34.1568 114.303L34.4 115.784ZM37.04 115.923L36.9607 117.421L37.0493 117.426L37.1379 117.42L37.04 115.923ZM39.68 115.751L39.8617 114.262L39.7223 114.245L39.5821 114.254L39.68 115.751ZM42.32 116.073L42.1383 117.562L42.2533 117.576L42.3692 117.572L42.32 116.073ZM44.96 115.986L44.9117 114.487L44.9108 114.487L44.96 115.986ZM47.6 115.901L47.6483 117.401L47.6707 117.4L47.693 117.398L47.6 115.901ZM50.24 115.737L50.5012 114.26L50.3253 114.229L50.147 114.24L50.24 115.737ZM52.88 116.204L52.6188 117.681L52.879 117.727L53.1393 117.682L52.88 116.204ZM55.52 115.741L55.6608 114.247L55.4596 114.228L55.2606 114.263L55.52 115.741ZM58.16 115.99L58.0192 117.483L58.1299 117.493L58.2409 117.487L58.16 115.99ZM60.8 115.847L61.0126 114.362L60.8665 114.341L60.7191 114.349L60.8 115.847ZM63.44 116.225L63.2274 117.71L63.4714 117.745L63.7137 117.7L63.44 116.225ZM66.08 115.735L66.1582 114.237L65.9809 114.228L65.8063 114.26L66.08 115.735ZM68.72 115.873L68.6418 117.371L68.6647 117.372L68.6878 117.373L68.72 115.873ZM71.36 115.93L71.3278 117.429L71.3564 117.43L71.3849 117.429L71.36 115.93ZM74 115.886L74.185 114.397L74.0804 114.384L73.975 114.386L74 115.886ZM76.64 116.214L76.455 117.702L76.6155 117.722L76.7765 117.708L76.64 116.214ZM79.28 115.973L79.2685 114.473L79.2059 114.473L79.1435 114.479L79.28 115.973ZM81.92 115.952L82.0888 114.462L81.9989 114.452L81.9085 114.452L81.92 115.952ZM84.56 116.251L84.3912 117.742L84.5876 117.764L84.783 117.735L84.56 116.251ZM87.2 115.854L87.2734 114.356L87.1245 114.349L86.977 114.371L87.2 115.854ZM89.84 115.984L89.9255 114.486L89.9134 114.486L89.84 115.984ZM92.48 116.135L92.3945 117.632L92.4978 117.638L92.6008 117.63L92.48 116.135ZM95.12 115.921L95.1099 114.421L95.0544 114.422L94.9992 114.426L95.12 115.921ZM97.76 115.903L97.9616 114.417L97.8562 114.403L97.7499 114.403L97.76 115.903ZM100.4 116.261L100.198 117.748L100.434 117.78L100.667 117.737L100.4 116.261ZM103.04 115.784L103.284 114.304L103.028 114.262L102.773 114.308L103.04 115.784ZM105.68 116.219L105.436 117.699L105.576 117.722L105.719 117.718L105.68 116.219ZM108.32 116.151L108.359 117.65L108.453 117.648L108.546 117.634L108.32 116.151ZM110.96 115.748L111.313 114.29L111.026 114.221L110.734 114.265L110.96 115.748ZM8 116V117.5H8.1V116V114.5H8V116ZM8.1 116L8.16451 117.499L10.7045 117.389L10.64 115.891L10.5755 114.392L8.03549 114.501L8.1 116ZM10.64 115.891L10.483 117.382L13.123 117.66L13.28 116.169L13.437 114.677L10.797 114.399L10.64 115.891ZM13.28 116.169L13.425 117.662L16.065 117.405L15.92 115.912L15.775 114.419L13.135 114.676L13.28 116.169ZM15.92 115.912L15.9804 117.411L18.6204 117.305L18.56 115.806L18.4996 114.307L15.8596 114.413L15.92 115.912ZM18.56 115.806L18.4437 117.301L21.0837 117.507L21.2 116.011L21.3163 114.516L18.6763 114.31L18.56 115.806ZM21.2 116.011L21.1948 117.511L23.8348 117.52L23.84 116.02L23.8452 114.52L21.2052 114.511L21.2 116.011ZM23.84 116.02L23.9474 117.516L26.5874 117.327L26.48 115.831L26.3726 114.334L23.7326 114.524L23.84 116.02ZM26.48 115.831L26.4377 117.33L29.0777 117.404L29.12 115.905L29.1623 114.406L26.5223 114.331L26.48 115.831ZM29.12 115.905L28.9437 117.395L31.5837 117.707L31.76 116.217L31.9363 114.728L29.2963 114.415L29.12 115.905ZM31.76 116.217L32.0032 117.698L34.6432 117.264L34.4 115.784L34.1568 114.303L31.5168 114.737L31.76 116.217ZM34.4 115.784L34.3207 117.282L36.9607 117.421L37.04 115.923L37.1193 114.426L34.4793 114.286L34.4 115.784ZM37.04 115.923L37.1379 117.42L39.7779 117.248L39.68 115.751L39.5821 114.254L36.9421 114.427L37.04 115.923ZM39.68 115.751L39.4983 117.24L42.1383 117.562L42.32 116.073L42.5017 114.584L39.8617 114.262L39.68 115.751ZM42.32 116.073L42.3692 117.572L45.0092 117.486L44.96 115.986L44.9108 114.487L42.2708 114.574L42.32 116.073ZM44.96 115.986L45.0083 117.486L47.6483 117.401L47.6 115.901L47.5517 114.402L44.9117 114.487L44.96 115.986ZM47.6 115.901L47.693 117.398L50.333 117.234L50.24 115.737L50.147 114.24L47.507 114.404L47.6 115.901ZM50.24 115.737L49.9788 117.214L52.6188 117.681L52.88 116.204L53.1412 114.727L50.5012 114.26L50.24 115.737ZM52.88 116.204L53.1393 117.682L55.7793 117.218L55.52 115.741L55.2606 114.263L52.6207 114.727L52.88 116.204ZM55.52 115.741L55.3792 117.234L58.0192 117.483L58.16 115.99L58.3008 114.496L55.6608 114.247L55.52 115.741ZM58.16 115.99L58.2409 117.487L60.8809 117.345L60.8 115.847L60.7191 114.349L58.0791 114.492L58.16 115.99ZM60.8 115.847L60.5874 117.332L63.2274 117.71L63.44 116.225L63.6526 114.74L61.0126 114.362L60.8 115.847ZM63.44 116.225L63.7137 117.7L66.3537 117.21L66.08 115.735L65.8063 114.26L63.1663 114.75L63.44 116.225ZM66.08 115.735L66.0018 117.233L68.6418 117.371L68.72 115.873L68.7982 114.375L66.1582 114.237L66.08 115.735ZM68.72 115.873L68.6878 117.373L71.3278 117.429L71.36 115.93L71.3922 114.43L68.7522 114.373L68.72 115.873ZM71.36 115.93L71.3849 117.429L74.0249 117.386L74 115.886L73.975 114.386L71.335 114.43L71.36 115.93ZM74 115.886L73.815 117.374L76.455 117.702L76.64 116.214L76.825 114.725L74.185 114.397L74 115.886ZM76.64 116.214L76.7765 117.708L79.4165 117.466L79.28 115.973L79.1435 114.479L76.5035 114.72L76.64 116.214ZM79.28 115.973L79.2915 117.473L81.9315 117.452L81.92 115.952L81.9085 114.452L79.2685 114.473L79.28 115.973ZM81.92 115.952L81.7512 117.443L84.3912 117.742L84.56 116.251L84.7288 114.761L82.0888 114.462L81.92 115.952ZM84.56 116.251L84.783 117.735L87.423 117.338L87.2 115.854L86.977 114.371L84.337 114.768L84.56 116.251ZM87.2 115.854L87.1266 117.353L89.7666 117.482L89.84 115.984L89.9134 114.486L87.2734 114.356L87.2 115.854ZM89.84 115.984L89.7545 117.481L92.3945 117.632L92.48 116.135L92.5655 114.637L89.9255 114.486L89.84 115.984ZM92.48 116.135L92.6008 117.63L95.2408 117.416L95.12 115.921L94.9992 114.426L92.3592 114.639L92.48 116.135ZM95.12 115.921L95.1301 117.421L97.7701 117.403L97.76 115.903L97.7499 114.403L95.1099 114.421L95.12 115.921ZM97.76 115.903L97.5584 117.39L100.198 117.748L100.4 116.261L100.602 114.775L97.9616 114.417L97.76 115.903ZM100.4 116.261L100.667 117.737L103.307 117.26L103.04 115.784L102.773 114.308L100.133 114.785L100.4 116.261ZM103.04 115.784L102.796 117.264L105.436 117.699L105.68 116.219L105.924 114.738L103.284 114.304L103.04 115.784ZM105.68 116.219L105.719 117.718L108.359 117.65L108.32 116.151L108.281 114.651L105.641 114.719L105.68 116.219ZM108.32 116.151L108.546 117.634L111.186 117.231L110.96 115.748L110.734 114.265L108.094 114.668L108.32 116.151ZM110.96 115.748L110.607 117.206L111.647 117.458L112 116L112.353 114.542L111.313 114.29L110.96 115.748Z" fill="black"/>
<path d="M79.5816 50.1101L80.6139 51.1984L80.6542 51.1601L80.6915 51.1191L79.5816 50.1101ZM81.2762 48.2459L80.5451 46.9361L80.3311 47.0556L80.1663 47.2369L81.2762 48.2459ZM83.5956 46.9511L84.3268 48.2609L84.5303 48.1473L84.6897 47.9773L83.5956 46.9511ZM85.4125 45.0141L86.5066 46.0403L86.5328 46.0124L86.5575 45.9831L85.4125 45.0141ZM87.1087 43.0098L85.9701 42.0334L85.9638 42.0408L87.1087 43.0098ZM88.8249 41.0086L89.9636 41.985L90.0591 41.8736L90.1312 41.7459L88.8249 41.0086ZM90.1227 38.7093L91.429 39.4466L91.5061 39.3099L91.5533 39.1602L90.1227 38.7093ZM90.9145 36.1969L92.3451 36.6478L92.356 36.6133L92.3652 36.5783L90.9145 36.1969ZM91.5801 33.6652L93.0308 34.0465L93.045 33.9923L93.0552 33.9372L91.5801 33.6652ZM92.0636 31.0434L93.5387 31.3155L93.6014 30.9759L93.5092 30.643L92.0636 31.0434ZM91.3498 28.4668L89.8842 28.7858L89.8931 28.8268L89.9043 28.8672L91.3498 28.4668ZM90.7928 25.9074L92.2585 25.5884L92.2154 25.3903L92.1212 25.2108L90.7928 25.9074ZM89.5764 23.588L88.2215 24.2315L88.2342 24.2583L88.248 24.2846L89.5764 23.588ZM88.442 21.1994L89.7969 20.5559L89.6992 20.3501L89.5448 20.1826L88.442 21.1994ZM86.6501 19.256L87.7529 18.2392L87.678 18.158L87.5921 18.0886L86.6501 19.256ZM84.6027 17.6037L85.5447 16.4364L85.4393 16.3514L85.3204 16.2866L84.6027 17.6037ZM82.3061 16.3524L81.481 17.605L81.5334 17.6396L81.5885 17.6696L82.3061 16.3524ZM80.0732 14.8815L80.8984 13.6288L80.5735 13.4148L80.1855 13.3857L80.0732 14.8815ZM77.4078 14.6814L77.1392 16.1572L77.2168 16.1713L77.2955 16.1772L77.4078 14.6814ZM74.8231 14.2111L75.0917 12.7353L74.8586 12.6929L74.6239 12.7244L74.8231 14.2111ZM72.2183 14.5602L72.3728 16.0522L72.3952 16.0499L72.4176 16.0469L72.2183 14.5602ZM69.5629 14.8351L69.4085 13.3431L69.0374 13.3815L68.7275 13.5892L69.5629 14.8351ZM67.3373 16.3274L68.0633 17.64L68.1194 17.6089L68.1726 17.5733L67.3373 16.3274ZM65.0507 17.5923L64.3246 16.2797L64.2142 16.3408L64.1155 16.4195L65.0507 17.5923ZM62.9976 19.2295L62.0624 18.0567L61.9668 18.1329L61.8849 18.2235L62.9976 19.2295ZM61.2351 21.1789L62.3222 22.2125L62.3351 22.1988L62.3478 22.1848L61.2351 21.1789ZM59.3992 23.1098L58.3121 22.0763L58.1437 22.2534L58.0402 22.4748L59.3992 23.1098ZM58.2732 25.5197L56.9142 24.8847L56.9062 24.9018L56.8986 24.9192L58.2732 25.5197ZM57.2187 27.9334L55.8442 27.3329L55.84 27.3425L55.8359 27.3522L57.2187 27.9334ZM56.1868 30.3885L54.804 29.8073L54.6942 30.0687L54.6873 30.3521L56.1868 30.3885ZM56.1219 33.0629L57.6123 33.232L57.6198 33.1659L57.6214 33.0994L56.1219 33.0629ZM55.8251 35.6791L54.3347 35.51L54.3258 35.5886L54.3252 35.6678L55.8251 35.6791ZM55.8052 38.3286L54.3053 38.3174L54.3038 38.5087L54.3505 38.6942L55.8052 38.3286ZM56.4512 40.899L57.9168 41.218L57.9916 40.8745L57.9059 40.5335L56.4512 40.899ZM55.9015 43.4248L54.4358 43.1058L54.423 43.1645L54.415 43.224L55.9015 43.4248ZM55.5452 46.0618L54.0587 45.861L54.0242 46.1165L54.077 46.3689L55.5452 46.0618ZM56.095 48.6903L57.5676 48.4049L57.5655 48.394L57.5633 48.3832L56.095 48.6903ZM56.5756 51.1693L55.103 51.4547L55.3375 52.6647L56.57 52.6693L56.5756 51.1693ZM59.2484 51.1791L59.2429 52.6791L59.3395 52.6794L59.4354 52.6674L59.2484 51.1791ZM61.8983 50.8462L61.9435 49.3469L61.827 49.3434L61.7113 49.3579L61.8983 50.8462ZM64.5361 50.9257L64.778 49.4454L64.6802 49.4294L64.5812 49.4264L64.5361 50.9257ZM67.1688 51.356L66.9269 52.8363L67.0909 52.8631L67.2569 52.8534L67.1688 51.356ZM69.8101 51.2006L69.7534 49.7017L69.7377 49.7023L69.722 49.7032L69.8101 51.2006ZM72.4478 51.1008L72.5045 52.5997L72.5117 52.5994L72.5189 52.5991L72.4478 51.1008ZM75.0864 50.9754L75.1576 52.4738L75.2052 52.4715L75.2526 52.4662L75.0864 50.9754ZM77.7156 50.6823L77.8335 49.187L77.6913 49.1758L77.5495 49.1916L77.7156 50.6823ZM80.0564 50.8669L79.9385 52.3622L79.9987 52.367L80.0591 52.3669L80.0564 50.8669ZM82.7297 50.8622L82.7948 49.3636L82.7609 49.3621L82.727 49.3622L82.7297 50.8622ZM85.3756 50.9772L85.3105 52.4758L85.4028 52.4798L85.495 52.4725L85.3756 50.9772ZM88.018 50.7663L88.1936 49.2766L88.0464 49.2592L87.8986 49.271L88.018 50.7663ZM90.6579 51.0775L91.0355 49.6258L90.9358 49.5999L90.8335 49.5878L90.6579 51.0775ZM92.7179 51.6133L94.2179 51.6133L94.2179 50.4535L93.0955 50.1616L92.7179 51.6133ZM92.7179 54.2537L91.2179 54.2537V54.2882L91.2195 54.3226L92.7179 54.2537ZM92.8393 56.8944L94.339 56.9262L94.34 56.8758L94.3377 56.8255L92.8393 56.8944ZM92.7834 59.5343L91.2837 59.5025L91.2836 59.5077L92.7834 59.5343ZM92.7367 62.1745L94.2356 62.2311L94.2362 62.2161L94.2364 62.201L92.7367 62.1745ZM92.637 64.8118L93.0708 66.2477L94.0955 65.9381L94.1359 64.8685L92.637 64.8118ZM90.2922 65.5203L88.9458 66.1816L89.5072 67.3244L90.726 66.9562L90.2922 65.5203ZM89.1789 63.2537L87.7307 63.6445L87.7685 63.7846L87.8325 63.915L89.1789 63.2537ZM88.5048 60.7552L89.953 60.3645L89.9027 60.1783L89.807 60.0109L88.5048 60.7552ZM87.2182 58.5044L88.5205 57.76L88.4592 57.6527L88.3811 57.5569L87.2182 58.5044ZM85.5398 56.4442L86.7027 55.4968L86.5338 55.2895L86.3037 55.1533L85.5398 56.4442ZM83.242 55.0845L84.006 53.7936L83.7413 53.6369L83.4363 53.5971L83.242 55.0845ZM80.6309 54.7434L80.8252 53.256L80.7272 53.2432L80.6283 53.2434L80.6309 54.7434ZM77.9978 54.748L77.9952 53.248L77.9577 53.2481L77.9202 53.25L77.9978 54.748ZM75.4161 54.8817L75.3386 53.3837L74.0726 53.4493L73.9262 54.7085L75.4161 54.8817ZM75.1119 57.4983L73.622 57.325L73.6135 57.3978L73.6122 57.471L75.1119 57.4983ZM75.0639 60.1384L76.5637 60.1662L76.5637 60.1656L75.0639 60.1384ZM75.015 62.7786L73.5153 62.7508L73.5145 62.7918L73.516 62.8327L75.015 62.7786ZM75.1104 65.4187L73.6113 65.4728L73.6204 65.7231L73.7102 65.9568L75.1104 65.4187ZM76.0141 67.7699L74.6139 68.308L74.9691 69.2322L75.9586 69.2688L76.0141 67.7699ZM78.693 67.8691L78.6375 69.368L79.0305 69.3826L79.3801 69.2024L78.693 67.8691ZM81.0728 66.6427L81.7599 67.9761L82.1113 67.795L82.3278 67.4643L81.0728 66.6427ZM82.4664 64.5138L83.7214 65.3353L83.7373 65.311L83.7522 65.2862L82.4664 64.5138ZM83.7715 62.3412L84.8998 61.3528L83.5447 59.8057L82.4856 61.5688L83.7715 62.3412ZM85.261 64.0417L86.7606 64.0092L86.7488 63.4638L86.3894 63.0534L85.261 64.0417ZM85.3184 66.6818L86.8183 66.6667L86.8182 66.658L86.818 66.6492L85.3184 66.6818ZM85.3449 69.3236L86.8376 69.4708L86.8456 69.3898L86.8448 69.3085L85.3449 69.3236ZM85.0843 71.966L83.5916 71.8188L83.5776 71.9604L83.5905 72.1021L85.0843 71.966ZM85.3249 74.6069L86.6955 75.2164L86.8541 74.8596L86.8187 74.4708L85.3249 74.6069ZM84.3568 76.784L83.2624 77.8098L84.8087 79.4595L85.7275 77.3934L84.3568 76.784ZM82.8442 75.1702L81.475 75.7827L81.5778 76.0124L81.7498 76.1959L82.8442 75.1702ZM81.7856 72.804L83.1548 72.1914L82.9929 71.8296L82.6734 71.5949L81.7856 72.804ZM79.6363 71.226L80.524 70.0169L80.0827 69.6928L79.5364 69.7293L79.6363 71.226ZM76.9813 71.4032L76.8814 69.9065L76.5613 69.9279L76.2779 70.0783L76.9813 71.4032ZM75.0098 72.4499L74.3064 71.1251L73.5043 71.551L73.5099 72.4591L75.0098 72.4499ZM75.0259 75.0914L73.526 75.1006L73.5263 75.1567L73.5308 75.2127L75.0259 75.0914ZM75.2402 77.7327L76.737 77.6336L76.7362 77.6225L76.7353 77.6114L75.2402 77.7327ZM75.4151 80.3742L76.9151 80.3754L76.9152 80.3252L76.9118 80.2751L75.4151 80.3742ZM75.413 83.0108L73.913 83.0096L73.9124 83.8049L74.5704 84.2517L75.413 83.0108ZM76.966 84.0653L76.1234 85.3063L76.457 85.5328L76.8593 85.5615L76.966 84.0653ZM79.6318 84.2556L79.525 85.7517L79.786 85.7704L80.0379 85.6995L79.6318 84.2556ZM82.1923 83.5353L82.5985 84.9793L82.6437 84.9666L82.6881 84.951L82.1923 83.5353ZM84.6994 82.6573L85.1952 84.073L85.4147 83.9962L85.6006 83.8564L84.6994 82.6573ZM86.8212 81.0628L87.7224 82.2619L87.847 82.1682L87.9497 82.0509L86.8212 81.0628ZM88.561 79.0758L89.6895 80.0639L89.9166 79.8045L90.0077 79.472L88.561 79.0758ZM89.2529 76.5492L87.8407 76.0437L87.8213 76.0977L87.8062 76.153L89.2529 76.5492ZM89.9972 74.4701L89.7682 72.9877L88.8858 73.124L88.5849 73.9646L89.9972 74.4701ZM92.6278 74.0637L94.1077 73.8192L93.8658 72.3547L92.3988 72.5813L92.6278 74.0637ZM93.0129 76.3947L94.5127 76.4194L94.5149 76.2839L94.4928 76.1502L93.0129 76.3947ZM92.9694 79.0349L91.4696 79.0102L91.4681 79.1025L91.4779 79.1943L92.9694 79.0349ZM93.2515 81.6751L94.7459 81.8047L94.7584 81.6601L94.743 81.5158L93.2515 81.6751ZM93.0226 84.3152L91.5282 84.1856L91.5234 84.2409L91.5227 84.2964L93.0226 84.3152ZM92.9895 86.9557L94.2561 87.7593L94.484 87.4L94.4894 86.9745L92.9895 86.9557ZM91.7685 88.8802L90.5019 88.0767L89.7474 89.266L90.8869 90.0938L91.7685 88.8802ZM79.5091 50.1789L80.5414 51.2672L80.6139 51.1984L79.5816 50.1101L78.5493 49.0218L78.4768 49.0906L79.5091 50.1789ZM79.5816 50.1101L80.6915 51.1191L82.3862 49.2549L81.2762 48.2459L80.1663 47.2369L78.4717 49.1011L79.5816 50.1101ZM81.2762 48.2459L82.0074 49.5556L84.3268 48.2609L83.5956 46.9511L82.8645 45.6414L80.5451 46.9361L81.2762 48.2459ZM83.5956 46.9511L84.6897 47.9773L86.5066 46.0403L85.4125 45.0141L84.3185 43.9879L82.5016 45.925L83.5956 46.9511ZM85.4125 45.0141L86.5575 45.9831L88.2537 43.9788L87.1087 43.0098L85.9638 42.0408L84.2675 44.0451L85.4125 45.0141ZM87.1087 43.0098L88.2474 43.9863L89.9636 41.985L88.8249 41.0086L87.6863 40.0321L85.9701 42.0334L87.1087 43.0098ZM88.8249 41.0086L90.1312 41.7459L91.429 39.4466L90.1227 38.7093L88.8164 37.972L87.5186 40.2713L88.8249 41.0086ZM90.1227 38.7093L91.5533 39.1602L92.3451 36.6478L90.9145 36.1969L89.4838 35.7461L88.6921 38.2584L90.1227 38.7093ZM90.9145 36.1969L92.3652 36.5783L93.0308 34.0465L91.5801 33.6652L90.1293 33.2838L89.4638 35.8156L90.9145 36.1969ZM91.5801 33.6652L93.0552 33.9372L93.5387 31.3155L92.0636 31.0434L90.5885 30.7714L90.1049 33.3931L91.5801 33.6652ZM92.0636 31.0434L93.5092 30.643L92.7954 28.0663L91.3498 28.4668L89.9043 28.8672L90.6181 31.4439L92.0636 31.0434ZM91.3498 28.4668L92.8155 28.1477L92.2585 25.5884L90.7928 25.9074L89.3271 26.2265L89.8842 28.7858L91.3498 28.4668ZM90.7928 25.9074L92.1212 25.2108L90.9048 22.8913L89.5764 23.588L88.248 24.2846L89.4644 26.6041L90.7928 25.9074ZM89.5764 23.588L90.9314 22.9444L89.7969 20.5559L88.442 21.1994L87.087 21.8429L88.2215 24.2315L89.5764 23.588ZM88.442 21.1994L89.5448 20.1826L87.7529 18.2392L86.6501 19.256L85.5473 20.2727L87.3392 22.2162L88.442 21.1994ZM86.6501 19.256L87.5921 18.0886L85.5447 16.4364L84.6027 17.6037L83.6607 18.771L85.7081 20.4233L86.6501 19.256ZM84.6027 17.6037L85.3204 16.2866L83.0238 15.0352L82.3061 16.3524L81.5885 17.6696L83.885 18.9209L84.6027 17.6037ZM82.3061 16.3524L83.1313 15.0998L80.8984 13.6288L80.0732 14.8815L79.248 16.1341L81.481 17.605L82.3061 16.3524ZM80.0732 14.8815L80.1855 13.3857L77.5201 13.1856L77.4078 14.6814L77.2955 16.1772L79.9609 16.3773L80.0732 14.8815ZM77.4078 14.6814L77.6763 13.2056L75.0917 12.7353L74.8231 14.2111L74.5546 15.6868L77.1392 16.1572L77.4078 14.6814ZM74.8231 14.2111L74.6239 12.7244L72.0191 13.0735L72.2183 14.5602L72.4176 16.0469L75.0224 15.6978L74.8231 14.2111ZM72.2183 14.5602L72.0639 13.0682L69.4085 13.3431L69.5629 14.8351L69.7174 16.3271L72.3728 16.0522L72.2183 14.5602ZM69.5629 14.8351L68.7275 13.5892L66.5019 15.0815L67.3373 16.3274L68.1726 17.5733L70.3983 16.081L69.5629 14.8351ZM67.3373 16.3274L66.6112 15.0148L64.3246 16.2797L65.0507 17.5923L65.7768 18.9048L68.0633 17.64L67.3373 16.3274ZM65.0507 17.5923L64.1155 16.4195L62.0624 18.0567L62.9976 19.2295L63.9328 20.4022L65.9859 18.7651L65.0507 17.5923ZM62.9976 19.2295L61.8849 18.2235L60.1224 20.1729L61.2351 21.1789L62.3478 22.1848L64.1102 20.2354L62.9976 19.2295ZM61.2351 21.1789L60.148 20.1453L58.3121 22.0763L59.3992 23.1098L60.4862 24.1434L62.3222 22.2125L61.2351 21.1789ZM59.3992 23.1098L58.0402 22.4748L56.9142 24.8847L58.2732 25.5197L59.6321 26.1547L60.7581 23.7448L59.3992 23.1098ZM58.2732 25.5197L56.8986 24.9192L55.8442 27.3329L57.2187 27.9334L58.5933 28.5339L59.6477 26.1202L58.2732 25.5197ZM57.2187 27.9334L55.8359 27.3522L54.804 29.8073L56.1868 30.3885L57.5697 30.9697L58.6016 28.5146L57.2187 27.9334ZM56.1868 30.3885L54.6873 30.3521L54.6223 33.0265L56.1219 33.0629L57.6214 33.0994L57.6864 30.4249L56.1868 30.3885ZM56.1219 33.0629L54.6314 32.8939L54.3347 35.51L55.8251 35.6791L57.3156 35.8481L57.6123 33.232L56.1219 33.0629ZM55.8251 35.6791L54.3252 35.6678L54.3053 38.3174L55.8052 38.3286L57.3052 38.3399L57.3251 35.6903L55.8251 35.6791ZM55.8052 38.3286L54.3505 38.6942L54.9964 41.2646L56.4512 40.899L57.9059 40.5335L57.26 37.9631L55.8052 38.3286ZM56.4512 40.899L54.9855 40.5801L54.4358 43.1058L55.9015 43.4248L57.3672 43.7438L57.9168 41.218L56.4512 40.899ZM55.9015 43.4248L54.415 43.224L54.0587 45.861L55.5452 46.0618L57.0317 46.2626L57.388 43.6256L55.9015 43.4248ZM55.5452 46.0618L54.077 46.3689L54.6268 48.9974L56.095 48.6903L57.5633 48.3832L57.0134 45.7547L55.5452 46.0618ZM56.095 48.6903L54.6225 48.9757L55.103 51.4547L56.5756 51.1693L58.0482 50.8838L57.5676 48.4049L56.095 48.6903ZM56.5756 51.1693L56.57 52.6693L59.2429 52.6791L59.2484 51.1791L59.2539 49.6791L56.5811 49.6693L56.5756 51.1693ZM59.2484 51.1791L59.4354 52.6674L62.0853 52.3345L61.8983 50.8462L61.7113 49.3579L59.0614 49.6908L59.2484 51.1791ZM61.8983 50.8462L61.8531 52.3455L64.4909 52.425L64.5361 50.9257L64.5812 49.4264L61.9435 49.3469L61.8983 50.8462ZM64.5361 50.9257L64.2941 52.4061L66.9269 52.8363L67.1688 51.356L67.4107 49.8756L64.778 49.4454L64.5361 50.9257ZM67.1688 51.356L67.2569 52.8534L69.8982 52.698L69.8101 51.2006L69.722 49.7032L67.0807 49.8586L67.1688 51.356ZM69.8101 51.2006L69.8668 52.6995L72.5045 52.5997L72.4478 51.1008L72.3911 49.6018L69.7534 49.7017L69.8101 51.2006ZM72.4478 51.1008L72.5189 52.5991L75.1576 52.4738L75.0864 50.9754L75.0152 49.4771L72.3766 49.6025L72.4478 51.1008ZM75.0864 50.9754L75.2526 52.4662L77.8818 52.1731L77.7156 50.6823L77.5495 49.1916L74.9202 49.4847L75.0864 50.9754ZM77.7156 50.6823L77.5978 52.1777L79.9385 52.3622L80.0564 50.8669L80.1743 49.3715L77.8335 49.187L77.7156 50.6823ZM80.0564 50.8669L80.0591 52.3669L82.7323 52.3622L82.7297 50.8622L82.727 49.3622L80.0538 49.3669L80.0564 50.8669ZM82.7297 50.8622L82.6645 52.3608L85.3105 52.4758L85.3756 50.9772L85.4408 49.4786L82.7948 49.3636L82.7297 50.8622ZM85.3756 50.9772L85.495 52.4725L88.1373 52.2615L88.018 50.7663L87.8986 49.271L85.2562 49.482L85.3756 50.9772ZM88.018 50.7663L87.8423 52.2559L90.4823 52.5672L90.6579 51.0775L90.8335 49.5878L88.1936 49.2766L88.018 50.7663ZM90.6579 51.0775L90.2803 52.5292L92.3403 53.065L92.7179 51.6133L93.0955 50.1616L91.0355 49.6258L90.6579 51.0775ZM92.7179 51.6133L91.2179 51.6133L91.2179 54.2537L92.7179 54.2537L94.2179 54.2537L94.2179 51.6133L92.7179 51.6133ZM92.7179 54.2537L91.2195 54.3226L91.3409 56.9633L92.8393 56.8944L94.3377 56.8255L94.2163 54.1848L92.7179 54.2537ZM92.8393 56.8944L91.3396 56.8627L91.2837 59.5025L92.7834 59.5343L94.2831 59.566L94.339 56.9262L92.8393 56.8944ZM92.7834 59.5343L91.2836 59.5077L91.2369 62.1479L92.7367 62.1745L94.2364 62.201L94.2832 59.5608L92.7834 59.5343ZM92.7367 62.1745L91.2377 62.1178L91.1381 64.7552L92.637 64.8118L94.1359 64.8685L94.2356 62.2311L92.7367 62.1745ZM92.637 64.8118L92.2031 63.3759L89.8583 64.0844L90.2922 65.5203L90.726 66.9562L93.0708 66.2477L92.637 64.8118ZM90.2922 65.5203L91.6385 64.859L90.5253 62.5924L89.1789 63.2537L87.8325 63.915L88.9458 66.1816L90.2922 65.5203ZM89.1789 63.2537L90.6271 62.8629L89.953 60.3645L88.5048 60.7552L87.0565 61.146L87.7307 63.6445L89.1789 63.2537ZM88.5048 60.7552L89.807 60.0109L88.5205 57.76L87.2182 58.5044L85.9159 59.2487L87.2025 61.4996L88.5048 60.7552ZM87.2182 58.5044L88.3811 57.5569L86.7027 55.4968L85.5398 56.4442L84.3769 57.3917L86.0553 59.4518L87.2182 58.5044ZM85.5398 56.4442L86.3037 55.1533L84.006 53.7936L83.242 55.0845L82.4781 56.3754L84.7759 57.7351L85.5398 56.4442ZM83.242 55.0845L83.4363 53.5971L80.8252 53.256L80.6309 54.7434L80.4366 56.2307L83.0477 56.5718L83.242 55.0845ZM80.6309 54.7434L80.6283 53.2434L77.9952 53.248L77.9978 54.748L78.0005 56.248L80.6336 56.2434L80.6309 54.7434ZM77.9978 54.748L77.9202 53.25L75.3386 53.3837L75.4161 54.8817L75.4937 56.3797L78.0754 56.246L77.9978 54.748ZM75.4161 54.8817L73.9262 54.7085L73.622 57.325L75.1119 57.4983L76.6019 57.6715L76.9061 55.055L75.4161 54.8817ZM75.1119 57.4983L73.6122 57.471L73.5642 60.1111L75.0639 60.1384L76.5637 60.1656L76.6117 57.5255L75.1119 57.4983ZM75.0639 60.1384L73.5642 60.1106L73.5153 62.7508L75.015 62.7786L76.5147 62.8064L76.5637 60.1662L75.0639 60.1384ZM75.015 62.7786L73.516 62.8327L73.6113 65.4728L75.1104 65.4187L76.6094 65.3645L76.514 62.7244L75.015 62.7786ZM75.1104 65.4187L73.7102 65.9568L74.6139 68.308L76.0141 67.7699L77.4142 67.2317L76.5105 64.8805L75.1104 65.4187ZM76.0141 67.7699L75.9586 69.2688L78.6375 69.368L78.693 67.8691L78.7485 66.3701L76.0696 66.2709L76.0141 67.7699ZM78.693 67.8691L79.3801 69.2024L81.7599 67.9761L81.0728 66.6427L80.3857 65.3093L78.0059 66.5357L78.693 67.8691ZM81.0728 66.6427L82.3278 67.4643L83.7214 65.3353L82.4664 64.5138L81.2114 63.6922L79.8178 65.8212L81.0728 66.6427ZM82.4664 64.5138L83.7522 65.2862L85.0573 63.1136L83.7715 62.3412L82.4856 61.5688L81.1806 63.7414L82.4664 64.5138ZM83.7715 62.3412L82.6431 63.3295L84.1326 65.0301L85.261 64.0417L86.3894 63.0534L84.8998 61.3528L83.7715 62.3412ZM85.261 64.0417L83.7614 64.0743L83.8187 66.7144L85.3184 66.6818L86.818 66.6492L86.7606 64.0092L85.261 64.0417ZM85.3184 66.6818L83.8184 66.6968L83.8449 69.3386L85.3449 69.3236L86.8448 69.3085L86.8183 66.6667L85.3184 66.6818ZM85.3449 69.3236L83.8521 69.1764L83.5916 71.8188L85.0843 71.966L86.5771 72.1132L86.8376 69.4708L85.3449 69.3236ZM85.0843 71.966L83.5905 72.1021L83.8311 74.743L85.3249 74.6069L86.8187 74.4708L86.5781 71.8299L85.0843 71.966ZM85.3249 74.6069L83.9543 73.9975L82.9862 76.1745L84.3568 76.784L85.7275 77.3934L86.6955 75.2164L85.3249 74.6069ZM84.3568 76.784L85.4513 75.7582L83.9386 74.1444L82.8442 75.1702L81.7498 76.1959L83.2624 77.8098L84.3568 76.784ZM82.8442 75.1702L84.2134 74.5576L83.1548 72.1914L81.7856 72.804L80.4164 73.4166L81.475 75.7827L82.8442 75.1702ZM81.7856 72.804L82.6734 71.5949L80.524 70.0169L79.6363 71.226L78.7485 72.435L80.8979 74.0131L81.7856 72.804ZM79.6363 71.226L79.5364 69.7293L76.8814 69.9065L76.9813 71.4032L77.0812 72.8998L79.7362 72.7226L79.6363 71.226ZM76.9813 71.4032L76.2779 70.0783L74.3064 71.1251L75.0098 72.4499L75.7133 73.7748L77.6847 72.728L76.9813 71.4032ZM75.0098 72.4499L73.5099 72.4591L73.526 75.1006L75.0259 75.0914L76.5259 75.0823L76.5098 72.4408L75.0098 72.4499ZM75.0259 75.0914L73.5308 75.2127L73.7452 77.854L75.2402 77.7327L76.7353 77.6114L76.521 74.9701L75.0259 75.0914ZM75.2402 77.7327L73.7435 77.8318L73.9184 80.4733L75.4151 80.3742L76.9118 80.2751L76.737 77.6336L75.2402 77.7327ZM75.4151 80.3742L73.9151 80.373L73.913 83.0096L75.413 83.0108L76.913 83.012L76.9151 80.3754L75.4151 80.3742ZM75.413 83.0108L74.5704 84.2517L76.1234 85.3063L76.966 84.0653L77.8087 82.8244L76.2557 81.7698L75.413 83.0108ZM76.966 84.0653L76.8593 85.5615L79.525 85.7517L79.6318 84.2556L79.7385 82.7594L77.0728 82.5691L76.966 84.0653ZM79.6318 84.2556L80.0379 85.6995L82.5985 84.9793L82.1923 83.5353L81.7861 82.0914L79.2256 82.8116L79.6318 84.2556ZM82.1923 83.5353L82.6881 84.951L85.1952 84.073L84.6994 82.6573L84.2036 81.2416L81.6965 82.1196L82.1923 83.5353ZM84.6994 82.6573L85.6006 83.8564L87.7224 82.2619L86.8212 81.0628L85.92 79.8636L83.7982 81.4582L84.6994 82.6573ZM86.8212 81.0628L87.9497 82.0509L89.6895 80.0639L88.561 79.0758L87.4324 78.0876L85.6926 80.0746L86.8212 81.0628ZM88.561 79.0758L90.0077 79.472L90.6996 76.9455L89.2529 76.5492L87.8062 76.153L87.1143 78.6795L88.561 79.0758ZM89.2529 76.5492L90.6652 77.0548L91.4094 74.9756L89.9972 74.4701L88.5849 73.9646L87.8407 76.0437L89.2529 76.5492ZM89.9972 74.4701L90.2262 75.9525L92.8568 75.5461L92.6278 74.0637L92.3988 72.5813L89.7682 72.9877L89.9972 74.4701ZM92.6278 74.0637L91.1478 74.3082L91.533 76.6392L93.0129 76.3947L94.4928 76.1502L94.1077 73.8192L92.6278 74.0637ZM93.0129 76.3947L91.5131 76.37L91.4696 79.0102L92.9694 79.0349L94.4692 79.0596L94.5127 76.4194L93.0129 76.3947ZM92.9694 79.0349L91.4779 79.1943L91.76 81.8345L93.2515 81.6751L94.743 81.5158L94.4609 78.8756L92.9694 79.0349ZM93.2515 81.6751L91.7571 81.5455L91.5282 84.1856L93.0226 84.3152L94.517 84.4448L94.7459 81.8047L93.2515 81.6751ZM93.0226 84.3152L91.5227 84.2964L91.4896 86.937L92.9895 86.9557L94.4894 86.9745L94.5224 84.334L93.0226 84.3152ZM92.9895 86.9557L91.7229 86.1522L90.5019 88.0767L91.7685 88.8802L93.0351 89.6838L94.2561 87.7593L92.9895 86.9557ZM91.7685 88.8802L90.8869 90.0938L91.0974 90.2467L91.979 89.0331L92.8606 87.8195L92.6501 87.6666L91.7685 88.8802Z" fill="black"/>
<path d="M55.5804 32.7183L55.7701 34.2062L56.5294 34.1094L56.8965 33.4378L55.5804 32.7183ZM53.1956 33.0223L53.0059 31.5344L51.9498 31.6691L51.7284 32.7104L53.1956 33.0223ZM52.6604 35.5397L51.1932 35.2278L51.1737 35.3194L51.1657 35.4128L52.6604 35.5397ZM52.4368 38.172L53.848 38.6805L53.9148 38.4952L53.9314 38.299L52.4368 38.172ZM51.533 40.6804L52.7015 41.6208L52.859 41.4252L52.9442 41.1889L51.533 40.6804ZM49.8635 42.7548L50.8908 43.8478L50.9667 43.7764L51.032 43.6953L49.8635 42.7548ZM47.9456 44.5575L48.8314 45.768L48.9058 45.7136L48.973 45.6505L47.9456 44.5575ZM45.8018 46.1262L46.322 47.5331L46.5185 47.4605L46.6876 47.3368L45.8018 46.1262ZM43.306 47.049L43.4603 48.5411L43.6486 48.5216L43.8262 48.4559L43.306 47.049ZM40.6736 47.3213L40.5193 45.8292L40.4193 45.8396L40.3216 45.8632L40.6736 47.3213ZM38.0748 47.9487L37.4556 49.3149L37.9254 49.5279L38.4269 49.4068L38.0748 47.9487ZM35.7672 46.9027L34.2723 47.0263L34.345 47.9049L35.1479 48.2689L35.7672 46.9027ZM35.548 44.251L34.0591 44.0686L34.0404 44.2213L34.0531 44.3746L35.548 44.251ZM35.8714 41.6111L37.3603 41.7935L37.3744 41.6786L37.3706 41.5628L35.8714 41.6111ZM35.7862 38.9711L34.287 39.0187L34.287 39.0195L35.7862 38.9711ZM35.7023 36.3311L37.2016 36.2834L37.2008 36.2609L37.1995 36.2384L35.7023 36.3311ZM35.5388 33.6911L34.0617 33.4302L34.0307 33.6058L34.0417 33.7838L35.5388 33.6911ZM36.0052 31.051L37.4823 31.3119L37.5283 31.0512L37.4824 30.7905L36.0052 31.051ZM35.5397 28.4114L34.0461 28.2728L34.0275 28.4735L34.0624 28.6719L35.5397 28.4114ZM35.7846 25.7711L37.2782 25.9097L37.2885 25.7983L37.2822 25.6867L35.7846 25.7711ZM35.6357 23.1315L34.162 22.8521L34.1278 23.0326L34.1381 23.216L35.6357 23.1315ZM36.1171 20.5929L34.9225 19.6857L34.7091 19.9667L34.6433 20.3134L36.1171 20.5929ZM37.6956 18.5143L36.9392 17.219L36.6815 17.3695L36.501 17.6071L37.6956 18.5143ZM39.422 17.5062L40.1784 18.8015L40.9036 18.378L40.9216 17.5384L39.422 17.5062ZM39.4787 14.8662L40.9784 14.8984L41.0027 13.7654L39.9195 13.4324L39.4787 14.8662ZM37.5894 14.2854L38.0302 12.8516L37.907 12.8137L37.7792 12.7974L37.5894 14.2854ZM34.9495 13.9486L35.1393 12.4607L34.9765 12.4399L34.8131 12.4548L34.9495 13.9486ZM32.3094 14.1898L32.3236 15.6898L32.3849 15.6892L32.4459 15.6836L32.3094 14.1898ZM29.6692 14.2149L29.5043 15.7058L29.5936 15.7157L29.6835 15.7148L29.6692 14.2149ZM27.0283 13.9228L27.1932 12.4319L26.9971 12.4102L26.802 12.44L27.0283 13.9228ZM24.389 14.3255L24.3166 15.8238L24.4667 15.8311L24.6153 15.8084L24.389 14.3255ZM21.7483 14.1978L21.8208 12.6995L21.1904 12.669L20.7278 13.0984L21.7483 14.1978ZM20.3071 15.5356L19.2866 14.4363L18.7665 14.9191L18.8099 15.6274L20.3071 15.5356ZM20.4691 18.1793L18.9719 18.271L19.0392 19.3679L20.1053 19.6345L20.4691 18.1793ZM22.8298 18.7696L24.2077 18.1768L23.9142 17.4945L23.1937 17.3144L22.8298 18.7696ZM23.7628 20.9383L25.2284 20.6188L25.1977 20.4779L25.1407 20.3454L23.7628 20.9383ZM24.3341 23.5593L25.8197 23.767L25.8568 23.5016L25.7997 23.2399L24.3341 23.5593ZM23.9634 26.2109L22.4779 26.0032L22.4589 26.1385L22.4648 26.2749L23.9634 26.2109ZM24.076 28.8481L22.5773 28.912L22.5812 29.0025L22.5959 29.0918L24.076 28.8481ZM24.51 31.484L26.01 31.4773L26.0095 31.358L25.9901 31.2403L24.51 31.484ZM24.5218 34.1254L26.0071 34.3349L26.0222 34.2274L26.0217 34.1188L24.5218 34.1254ZM24.1492 36.7674L22.6639 36.5579L22.643 36.7061L22.6518 36.8555L24.1492 36.7674ZM24.3047 39.4083L25.8047 39.3993L25.8044 39.3597L25.8021 39.3202L24.3047 39.4083ZM24.3206 42.0475L25.8194 42.1084L25.8208 42.0735L25.8206 42.0385L24.3206 42.0475ZM24.2136 44.6795L25.557 45.347L25.6994 45.0603L25.7124 44.7404L24.2136 44.6795ZM23.0933 46.9345L23.3863 48.4056L24.1088 48.2617L24.4366 47.602L23.0933 46.9345ZM20.6535 47.4205L20.3604 45.9494L19.8612 46.0489L19.5256 46.4316L20.6535 47.4205ZM19.1685 49.1141L18.0407 48.1252L17.6982 48.5157L17.6706 49.0344L19.1685 49.1141ZM19.0283 51.7517L17.5304 51.6721L17.5124 52.0107L17.6418 52.3242L19.0283 51.7517ZM19.8768 53.8068L18.4903 54.3792L18.7638 55.0416L19.4509 55.2451L19.8768 53.8068ZM22.3702 54.5452L23.2175 53.3074L23.0226 53.174L22.7961 53.1069L22.3702 54.5452ZM24.123 55.745L25.5409 55.2556L25.3792 54.7872L24.9703 54.5073L24.123 55.745ZM24.9846 58.2416L23.5667 58.7309L23.5793 58.7677L23.5939 58.8037L24.9846 58.2416ZM25.9758 60.6936L27.4003 60.2236L27.3849 60.177L27.3665 60.1315L25.9758 60.6936ZM26.8027 63.1997L25.3782 63.6697L25.3787 63.6714L26.8027 63.1997ZM27.6331 65.7071L26.2092 66.1787L26.2116 66.1861L26.2141 66.1934L27.6331 65.7071ZM28.4892 68.2054L27.0702 68.6916L27.0818 68.7254L27.0949 68.7585L28.4892 68.2054ZM29.4633 70.6607L30.8584 70.1095L30.8576 70.1075L29.4633 70.6607ZM30.4341 73.1177L31.8497 72.6216L31.8399 72.5939L31.8291 72.5665L30.4341 73.1177ZM31.3071 75.6093L32.7286 75.1304L32.7257 75.1218L32.7227 75.1133L31.3071 75.6093ZM32.1504 78.1122L33.6116 77.773L33.5951 77.7022L33.5719 77.6333L32.1504 78.1122ZM32.7515 80.7016L31.2903 81.0408L31.3137 81.1416L31.3508 81.2382L32.7515 80.7016ZM33.6958 83.1665L32.2951 83.7031L32.3157 83.7569L32.3404 83.8089L33.6958 83.1665ZM34.8335 85.5666L36.227 85.0116L36.2094 84.9673L36.1889 84.9241L34.8335 85.5666ZM35.7978 87.9881L37.2092 87.4803L37.2007 87.4566L37.1913 87.4331L35.7978 87.9881ZM55.6284 32.6305L54.3122 31.9109L54.2643 31.9987L55.5804 32.7183L56.8965 33.4378L56.9445 33.3501L55.6284 32.6305ZM55.5804 32.7183L55.3907 31.2303L53.0059 31.5344L53.1956 33.0223L53.3853 34.5103L55.7701 34.2062L55.5804 32.7183ZM53.1956 33.0223L51.7284 32.7104L51.1932 35.2278L52.6604 35.5397L54.1276 35.8517L54.6628 33.3343L53.1956 33.0223ZM52.6604 35.5397L51.1657 35.4128L50.9422 38.0451L52.4368 38.172L53.9314 38.299L54.155 35.6667L52.6604 35.5397ZM52.4368 38.172L51.0256 37.6635L50.1218 40.1719L51.533 40.6804L52.9442 41.1889L53.848 38.6805L52.4368 38.172ZM51.533 40.6804L50.3644 39.7399L48.6949 41.8143L49.8635 42.7548L51.032 43.6953L52.7015 41.6208L51.533 40.6804ZM49.8635 42.7548L48.8361 41.6618L46.9183 43.4645L47.9456 44.5575L48.973 45.6505L50.8908 43.8478L49.8635 42.7548ZM47.9456 44.5575L47.0598 43.347L44.916 44.9157L45.8018 46.1262L46.6876 47.3368L48.8314 45.768L47.9456 44.5575ZM45.8018 46.1262L45.2816 44.7193L42.7858 45.6421L43.306 47.049L43.8262 48.4559L46.322 47.5331L45.8018 46.1262ZM43.306 47.049L43.1517 45.557L40.5193 45.8292L40.6736 47.3213L40.8279 48.8133L43.4603 48.5411L43.306 47.049ZM40.6736 47.3213L40.3216 45.8632L37.7228 46.4906L38.0748 47.9487L38.4269 49.4068L41.0256 48.7794L40.6736 47.3213ZM38.0748 47.9487L38.6941 46.5825L36.3865 45.5365L35.7672 46.9027L35.1479 48.2689L37.4556 49.3149L38.0748 47.9487ZM35.7672 46.9027L37.2621 46.7791L37.0429 44.1274L35.548 44.251L34.0531 44.3746L34.2723 47.0263L35.7672 46.9027ZM35.548 44.251L37.0369 44.4334L37.3603 41.7935L35.8714 41.6111L34.3826 41.4287L34.0591 44.0686L35.548 44.251ZM35.8714 41.6111L37.3706 41.5628L37.2854 38.9227L35.7862 38.9711L34.287 39.0195L34.3722 41.6595L35.8714 41.6111ZM35.7862 38.9711L37.2855 38.9234L37.2016 36.2834L35.7023 36.3311L34.2031 36.3787L34.287 39.0187L35.7862 38.9711ZM35.7023 36.3311L37.1995 36.2384L37.036 33.5984L35.5388 33.6911L34.0417 33.7838L34.2052 36.4238L35.7023 36.3311ZM35.5388 33.6911L37.016 33.952L37.4823 31.3119L36.0052 31.051L34.528 30.7901L34.0617 33.4302L35.5388 33.6911ZM36.0052 31.051L37.4824 30.7905L37.0169 28.1509L35.5397 28.4114L34.0624 28.6719L34.5279 31.3115L36.0052 31.051ZM35.5397 28.4114L37.0332 28.5499L37.2782 25.9097L35.7846 25.7711L34.291 25.6326L34.0461 28.2728L35.5397 28.4114ZM35.7846 25.7711L37.2822 25.6867L37.1333 23.0471L35.6357 23.1315L34.1381 23.216L34.287 25.8556L35.7846 25.7711ZM35.6357 23.1315L37.1095 23.411L37.5908 20.8723L36.1171 20.5929L34.6433 20.3134L34.162 22.8521L35.6357 23.1315ZM36.1171 20.5929L37.3116 21.5001L38.8902 19.4215L37.6956 18.5143L36.501 17.6071L34.9225 19.6857L36.1171 20.5929ZM37.6956 18.5143L38.452 19.8096L40.1784 18.8015L39.422 17.5062L38.6656 16.2109L36.9392 17.219L37.6956 18.5143ZM39.422 17.5062L40.9216 17.5384L40.9784 14.8984L39.4787 14.8662L37.9791 14.8339L37.9223 17.4739L39.422 17.5062ZM39.4787 14.8662L39.9195 13.4324L38.0302 12.8516L37.5894 14.2854L37.1487 15.7191L39.038 16.3L39.4787 14.8662ZM37.5894 14.2854L37.7792 12.7974L35.1393 12.4607L34.9495 13.9486L34.7597 15.4366L37.3996 15.7733L37.5894 14.2854ZM34.9495 13.9486L34.8131 12.4548L32.1729 12.6961L32.3094 14.1898L32.4459 15.6836L35.086 15.4424L34.9495 13.9486ZM32.3094 14.1898L32.2952 12.6899L29.655 12.715L29.6692 14.2149L29.6835 15.7148L32.3236 15.6898L32.3094 14.1898ZM29.6692 14.2149L29.8342 12.724L27.1932 12.4319L27.0283 13.9228L26.8634 15.4137L29.5043 15.7058L29.6692 14.2149ZM27.0283 13.9228L26.802 12.44L24.1628 12.8427L24.389 14.3255L24.6153 15.8084L27.2546 15.4056L27.0283 13.9228ZM24.389 14.3255L24.4615 12.8273L21.8208 12.6995L21.7483 14.1978L21.6759 15.696L24.3166 15.8238L24.389 14.3255ZM21.7483 14.1978L20.7278 13.0984L19.2866 14.4363L20.3071 15.5356L21.3276 16.635L22.7688 15.2971L21.7483 14.1978ZM20.3071 15.5356L18.8099 15.6274L18.9719 18.271L20.4691 18.1793L21.9663 18.0875L21.8043 15.4439L20.3071 15.5356ZM20.4691 18.1793L20.1053 19.6345L22.4659 20.2248L22.8298 18.7696L23.1937 17.3144L20.833 16.7241L20.4691 18.1793ZM22.8298 18.7696L21.4519 19.3624L22.385 21.5311L23.7628 20.9383L25.1407 20.3454L24.2077 18.1768L22.8298 18.7696ZM23.7628 20.9383L22.2972 21.2577L22.8685 23.8787L24.3341 23.5593L25.7997 23.2399L25.2284 20.6188L23.7628 20.9383ZM24.3341 23.5593L22.8486 23.3516L22.4779 26.0032L23.9634 26.2109L25.449 26.4186L25.8197 23.767L24.3341 23.5593ZM23.9634 26.2109L22.4648 26.2749L22.5773 28.912L24.076 28.8481L25.5746 28.7841L25.462 26.147L23.9634 26.2109ZM24.076 28.8481L22.5959 29.0918L23.0299 31.7277L24.51 31.484L25.9901 31.2403L25.556 28.6044L24.076 28.8481ZM24.51 31.484L23.01 31.4907L23.0218 34.1321L24.5218 34.1254L26.0217 34.1188L26.01 31.4773L24.51 31.484ZM24.5218 34.1254L23.0365 33.916L22.6639 36.5579L24.1492 36.7674L25.6345 36.9768L26.0071 34.3349L24.5218 34.1254ZM24.1492 36.7674L22.6518 36.8555L22.8073 39.4965L24.3047 39.4083L25.8021 39.3202L25.6466 36.6792L24.1492 36.7674ZM24.3047 39.4083L22.8047 39.4174L22.8206 42.0566L24.3206 42.0475L25.8206 42.0385L25.8047 39.3993L24.3047 39.4083ZM24.3206 42.0475L22.8218 41.9866L22.7149 44.6186L24.2136 44.6795L25.7124 44.7404L25.8194 42.1084L24.3206 42.0475ZM24.2136 44.6795L22.8703 44.0121L21.7499 46.2671L23.0933 46.9345L24.4366 47.602L25.557 45.347L24.2136 44.6795ZM23.0933 46.9345L22.8002 45.4634L20.3604 45.9494L20.6535 47.4205L20.9465 48.8916L23.3863 48.4056L23.0933 46.9345ZM20.6535 47.4205L19.5256 46.4316L18.0407 48.1252L19.1685 49.1141L20.2964 50.103L21.7813 48.4095L20.6535 47.4205ZM19.1685 49.1141L17.6706 49.0344L17.5304 51.6721L19.0283 51.7517L20.5261 51.8314L20.6664 49.1938L19.1685 49.1141ZM19.0283 51.7517L17.6418 52.3242L18.4903 54.3792L19.8768 53.8068L21.2632 53.2343L20.4147 51.1793L19.0283 51.7517ZM19.8768 53.8068L19.4509 55.2451L21.9443 55.9834L22.3702 54.5452L22.7961 53.1069L20.3027 52.3685L19.8768 53.8068ZM22.3702 54.5452L21.5229 55.7829L23.2756 56.9828L24.123 55.745L24.9703 54.5073L23.2175 53.3074L22.3702 54.5452ZM24.123 55.745L22.705 56.2344L23.5667 58.7309L24.9846 58.2416L26.4025 57.7522L25.5409 55.2556L24.123 55.745ZM24.9846 58.2416L23.5939 58.8037L24.5851 61.2558L25.9758 60.6936L27.3665 60.1315L26.3753 57.6794L24.9846 58.2416ZM25.9758 60.6936L24.5513 61.1636L25.3782 63.6697L26.8027 63.1997L28.2271 62.7298L27.4003 60.2236L25.9758 60.6936ZM26.8027 63.1997L25.3787 63.6714L26.2092 66.1787L27.6331 65.7071L29.0571 65.2355L28.2266 62.7281L26.8027 63.1997ZM27.6331 65.7071L26.2141 66.1934L27.0702 68.6916L28.4892 68.2054L29.9082 67.7191L29.0521 65.2209L27.6331 65.7071ZM28.4892 68.2054L27.0949 68.7585L28.069 71.2138L29.4633 70.6607L30.8576 70.1075L29.8835 67.6522L28.4892 68.2054ZM29.4633 70.6607L28.0683 71.2118L29.039 73.6688L30.4341 73.1177L31.8291 72.5665L30.8584 70.1095L29.4633 70.6607ZM30.4341 73.1177L29.0185 73.6137L29.8915 76.1053L31.3071 75.6093L32.7227 75.1133L31.8497 72.6216L30.4341 73.1177ZM31.3071 75.6093L29.8856 76.0883L30.7289 78.5911L32.1504 78.1122L33.5719 77.6333L32.7286 75.1304L31.3071 75.6093ZM32.1504 78.1122L30.6893 78.4514L31.2903 81.0408L32.7515 80.7016L34.2126 80.3624L33.6116 77.773L32.1504 78.1122ZM32.7515 80.7016L31.3508 81.2382L32.2951 83.7031L33.6958 83.1665L35.0965 82.6298L34.1522 80.165L32.7515 80.7016ZM33.6958 83.1665L32.3404 83.8089L33.478 86.2091L34.8335 85.5666L36.1889 84.9241L35.0513 82.524L33.6958 83.1665ZM34.8335 85.5666L33.4399 86.1215L34.4042 88.543L35.7978 87.9881L37.1913 87.4331L36.227 85.0116L34.8335 85.5666ZM35.7978 87.9881L34.3863 88.4959L34.7916 89.6223L36.203 89.1145L37.6145 88.6068L37.2092 87.4803L35.7978 87.9881Z" fill="black"/>
<path d="M58.5211 88.9488L59.7319 89.8342L60.2143 89.1744L59.9215 88.4114L58.5211 88.9488ZM57.6048 86.5612L56.443 85.6124L55.8926 86.2863L56.2044 87.0987L57.6048 86.5612ZM58.983 84.8736L58.8018 83.3846L58.2029 83.4575L57.8212 83.9248L58.983 84.8736ZM61.597 84.5555L61.7782 86.0445L62.2076 85.9923L62.5432 85.7194L61.597 84.5555ZM63.419 83.0744L64.3652 84.2383L64.8113 83.8756L64.9008 83.3076L63.419 83.0744ZM63.8216 80.5169L65.3034 80.7502L65.3213 80.6364L65.3216 80.5211L63.8216 80.5169ZM63.829 77.8774L65.329 77.8816L65.3292 77.8254L65.3251 77.7693L63.829 77.8774ZM63.6383 75.2375L62.1389 75.1956L62.1368 75.2707L62.1422 75.3456L63.6383 75.2375ZM63.7119 72.5974L62.2223 72.4214L62.2144 72.4883L62.2125 72.5556L63.7119 72.5974ZM64.0239 69.9576L65.5135 70.1336L65.5384 69.9232L65.504 69.7142L64.0239 69.9576ZM63.59 67.3178L62.0921 67.2384L62.0835 67.4007L62.1098 67.5611L63.59 67.3178ZM63.7298 64.6778L65.2277 64.7572L65.2324 64.6686L65.2266 64.58L63.7298 64.6778ZM63.5572 62.0376L62.0683 61.8558L62.0512 61.9952L62.0604 62.1354L63.5572 62.0376ZM63.8795 59.3982L65.3684 59.5799L65.3912 59.3932L65.3672 59.2067L63.8795 59.3982ZM63.5434 56.7872L65.0312 56.5957L64.946 55.9341L64.3977 55.5542L63.5434 56.7872ZM61.6011 55.4415L62.4554 54.2085L62.0295 53.9134L61.5122 53.9441L61.6011 55.4415ZM58.9618 55.5981L58.7036 57.0757L58.876 57.1059L59.0507 57.0955L58.9618 55.5981ZM56.3218 55.1369L56.58 53.6592L55.9666 53.5521L55.4577 53.9107L56.3218 55.1369ZM54.3368 56.5358L53.4727 55.3097L53.1365 55.5466L52.9682 55.9219L54.3368 56.5358ZM53.2713 58.9115L51.9026 58.2977L51.8574 58.3985L51.8275 58.5048L53.2713 58.9115ZM52.5541 61.4571L53.8865 62.1463L53.9566 62.0108L53.9979 61.8639L52.5541 61.4571ZM51.3282 63.8273L49.9959 63.1381L49.8844 63.3536L49.8465 63.5933L51.3282 63.8273ZM50.909 66.4813L52.2931 67.0596L52.3626 66.8933L52.3907 66.7153L50.909 66.4813ZM49.8889 68.9227L48.5049 68.3444L48.4969 68.3636L48.4894 68.383L49.8889 68.9227ZM48.9385 71.3871L47.539 70.8474L47.5294 70.8724L47.5206 70.8977L48.9385 71.3871ZM48.0766 73.8841L49.4108 74.5697L49.4596 74.4746L49.4945 74.3736L48.0766 73.8841ZM46.8599 76.2518L45.5258 75.5663L45.4525 75.7088L45.4111 75.8635L46.8599 76.2518ZM46.1733 78.8139L47.5839 79.324L47.6056 79.2639L47.6222 79.2022L46.1733 78.8139ZM45.2755 81.2968L46.6136 81.9747L46.655 81.893L46.6861 81.8069L45.2755 81.2968ZM44.075 83.6665L42.7369 82.9885L42.6481 83.1638L42.6074 83.3561L44.075 83.6665ZM43.523 86.2764L44.8998 86.8718L44.9595 86.7338L44.9906 86.5868L43.523 86.2764ZM42.4687 88.7144L41.0919 88.1191L41.089 88.1258L41.0862 88.1326L42.4687 88.7144ZM58.462 89.0295L59.6729 89.9149L59.7319 89.8342L58.5211 88.9488L57.3102 88.0635L57.2512 88.1442L58.462 89.0295ZM58.5211 88.9488L59.9215 88.4114L59.0052 86.0238L57.6048 86.5612L56.2044 87.0987L57.1207 89.4862L58.5211 88.9488ZM57.6048 86.5612L58.7666 87.51L60.1448 85.8224L58.983 84.8736L57.8212 83.9248L56.443 85.6124L57.6048 86.5612ZM58.983 84.8736L59.1642 86.3626L61.7782 86.0445L61.597 84.5555L61.4158 83.0665L58.8018 83.3846L58.983 84.8736ZM61.597 84.5555L62.5432 85.7194L64.3652 84.2383L63.419 83.0744L62.4728 81.9104L60.6508 83.3916L61.597 84.5555ZM63.419 83.0744L64.9008 83.3076L65.3034 80.7502L63.8216 80.5169L62.3399 80.2836L61.9373 82.8411L63.419 83.0744ZM63.8216 80.5169L65.3216 80.5211L65.329 77.8816L63.829 77.8774L62.3291 77.8732L62.3216 80.5127L63.8216 80.5169ZM63.829 77.8774L65.3251 77.7693L65.1344 75.1293L63.6383 75.2375L62.1422 75.3456L62.3329 77.9855L63.829 77.8774ZM63.6383 75.2375L65.1377 75.2793L65.2113 72.6393L63.7119 72.5974L62.2125 72.5556L62.1389 75.1956L63.6383 75.2375ZM63.7119 72.5974L65.2016 72.7735L65.5135 70.1336L64.0239 69.9576L62.5342 69.7815L62.2223 72.4214L63.7119 72.5974ZM64.0239 69.9576L65.504 69.7142L65.0701 67.0744L63.59 67.3178L62.1098 67.5611L62.5437 70.2009L64.0239 69.9576ZM63.59 67.3178L65.0879 67.3971L65.2277 64.7572L63.7298 64.6778L62.2319 64.5985L62.0921 67.2384L63.59 67.3178ZM63.7298 64.6778L65.2266 64.58L65.054 61.9398L63.5572 62.0376L62.0604 62.1354L62.233 64.7757L63.7298 64.6778ZM63.5572 62.0376L65.0462 62.2194L65.3684 59.5799L63.8795 59.3982L62.3905 59.2164L62.0683 61.8558L63.5572 62.0376ZM63.8795 59.3982L65.3672 59.2067L65.0312 56.5957L63.5434 56.7872L62.0557 56.9786L62.3917 59.5896L63.8795 59.3982ZM63.5434 56.7872L64.3977 55.5542L62.4554 54.2085L61.6011 55.4415L60.7469 56.6744L62.6892 58.0202L63.5434 56.7872ZM61.6011 55.4415L61.5122 53.9441L58.8729 54.1008L58.9618 55.5981L59.0507 57.0955L61.69 56.9388L61.6011 55.4415ZM58.9618 55.5981L59.22 54.1205L56.58 53.6592L56.3218 55.1369L56.0636 56.6145L58.7036 57.0757L58.9618 55.5981ZM56.3218 55.1369L55.4577 53.9107L53.4727 55.3097L54.3368 56.5358L55.2009 57.7619L57.1859 56.363L56.3218 55.1369ZM54.3368 56.5358L52.9682 55.9219L51.9026 58.2977L53.2713 58.9115L54.6399 59.5254L55.7055 57.1496L54.3368 56.5358ZM53.2713 58.9115L51.8275 58.5048L51.1103 61.0504L52.5541 61.4571L53.9979 61.8639L54.7151 59.3183L53.2713 58.9115ZM52.5541 61.4571L51.2218 60.768L49.9959 63.1381L51.3282 63.8273L52.6605 64.5164L53.8865 62.1463L52.5541 61.4571ZM51.3282 63.8273L49.8465 63.5933L49.4274 66.2473L50.909 66.4813L52.3907 66.7153L52.8098 64.0613L51.3282 63.8273ZM50.909 66.4813L49.525 65.903L48.5049 68.3444L49.8889 68.9227L51.2729 69.501L52.2931 67.0596L50.909 66.4813ZM49.8889 68.9227L48.4894 68.383L47.539 70.8474L48.9385 71.3871L50.3381 71.9268L51.2885 69.4624L49.8889 68.9227ZM48.9385 71.3871L47.5206 70.8977L46.6587 73.3947L48.0766 73.8841L49.4945 74.3736L50.3564 71.8766L48.9385 71.3871ZM48.0766 73.8841L46.7424 73.1986L45.5258 75.5663L46.8599 76.2518L48.1941 76.9374L49.4108 74.5697L48.0766 73.8841ZM46.8599 76.2518L45.4111 75.8635L44.7244 78.4256L46.1733 78.8139L47.6222 79.2022L48.3088 76.6401L46.8599 76.2518ZM46.1733 78.8139L44.7627 78.3038L43.8649 80.7867L45.2755 81.2968L46.6861 81.8069L47.5839 79.324L46.1733 78.8139ZM45.2755 81.2968L43.9374 80.6189L42.7369 82.9885L44.075 83.6665L45.413 84.3444L46.6136 81.9747L45.2755 81.2968ZM44.075 83.6665L42.6074 83.3561L42.0555 85.9661L43.523 86.2764L44.9906 86.5868L45.5425 83.9768L44.075 83.6665ZM43.523 86.2764L42.1462 85.6811L41.0919 88.1191L42.4687 88.7144L43.8455 89.3098L44.8998 86.8718L43.523 86.2764ZM42.4687 88.7144L41.0862 88.1326L40.9192 88.5293L42.3018 89.1112L43.6843 89.693L43.8513 89.2963L42.4687 88.7144Z" fill="black"/>
<path d="M84.8378 25.4995L83.4101 25.9595L83.6482 26.6985L84.389 26.9308L84.8378 25.4995ZM84.0632 23.0949L85.4909 22.635L85.4063 22.3724L85.2339 22.1571L84.0632 23.0949ZM82.4082 21.0291L83.5789 20.0912L83.1536 19.5604L82.4741 19.5305L82.4082 21.0291ZM79.7821 20.9136L79.8479 19.4151L79.474 19.3986L79.1362 19.5598L79.7821 20.9136ZM77.465 22.019L76.8191 20.6652L76.6626 20.7398L76.5273 20.8482L77.465 22.019ZM75.4219 23.6553L74.4842 22.4845L74.4169 22.5384L74.3562 22.5997L75.4219 23.6553ZM73.564 25.5311L72.4983 24.4755L72.4541 24.5201L72.4138 24.5683L73.564 25.5311ZM71.8652 27.5604L72.9174 28.6295L72.969 28.5787L73.0154 28.5232L71.8652 27.5604ZM69.9829 29.4127L70.9333 30.5733L70.9862 30.5299L71.035 30.4819L69.9829 29.4127ZM67.9264 31.0967L66.9761 29.9362L66.8161 30.0672L66.6975 30.2366L67.9264 31.0967ZM66.3921 33.2887L67.4062 34.3939L67.527 34.2831L67.621 34.1488L66.3921 33.2887ZM64.4472 35.0732L63.4331 33.968L63.2832 34.1055L63.1753 34.278L64.4472 35.0732ZM63.0691 37.2773L61.7973 36.4822L61.7442 36.567L61.703 36.6581L63.0691 37.2773ZM61.993 39.6514L60.6268 39.0321L60.4098 39.5109L60.5391 40.0205L61.993 39.6514ZM62.6392 42.197L61.1854 42.5661L61.286 42.9627L61.5742 43.2533L62.6392 42.197ZM64.4539 44.0267L63.3889 45.083L63.7259 45.4228L64.1975 45.5046L64.4539 44.0267ZM66.9124 44.4533L66.656 45.9312L66.8886 45.9716L67.1223 45.9385L66.9124 44.4533ZM69.5207 44.0847L69.7306 45.5699L70.2936 45.4903L70.6624 45.0576L69.5207 44.0847ZM71.2612 42.0422L70.3001 40.8905L70.2022 40.9722L70.1195 41.0693L71.2612 42.0422ZM73.2968 40.3432L74.2579 41.4949L74.3459 41.4214L74.4217 41.3355L73.2968 40.3432ZM75.0453 38.3609L74.1258 37.1758L74.014 37.2626L73.9204 37.3687L75.0453 38.3609ZM77.1527 36.7257L78.0722 37.9108L78.274 37.7542L78.4126 37.5397L77.1527 36.7257ZM78.6096 34.4708L77.5585 33.4006L77.4399 33.5171L77.3497 33.6567L78.6096 34.4708ZM80.4933 32.6206L81.5444 33.6908L81.57 33.6656L81.5944 33.6392L80.4933 32.6206ZM82.2846 30.684L83.3857 31.7026L83.438 31.6461L83.4841 31.5846L82.2846 30.684ZM83.8635 28.581L85.063 29.4816L85.1254 29.3984L85.1758 29.3075L83.8635 28.581ZM85.1544 26.2491L86.4667 26.9756L86.7915 26.389L86.571 25.7558L85.1544 26.2491ZM84.9332 25.5294L85.3821 24.0982L85.2867 24.0682L84.8378 25.4995L84.389 26.9308L84.4844 26.9607L84.9332 25.5294ZM84.8378 25.4995L86.2656 25.0396L85.4909 22.635L84.0632 23.0949L82.6355 23.5549L83.4101 25.9595L84.8378 25.4995ZM84.0632 23.0949L85.2339 22.1571L83.5789 20.0912L82.4082 21.0291L81.2375 21.9669L82.8925 24.0328L84.0632 23.0949ZM82.4082 21.0291L82.4741 19.5305L79.8479 19.4151L79.7821 20.9136L79.7162 22.4122L82.3423 22.5276L82.4082 21.0291ZM79.7821 20.9136L79.1362 19.5598L76.8191 20.6652L77.465 22.019L78.1108 23.3728L80.4279 22.2675L79.7821 20.9136ZM77.465 22.019L76.5273 20.8482L74.4842 22.4845L75.4219 23.6553L76.3596 24.8261L78.4027 23.1898L77.465 22.019ZM75.4219 23.6553L74.3562 22.5997L72.4983 24.4755L73.564 25.5311L74.6297 26.5867L76.4876 24.7109L75.4219 23.6553ZM73.564 25.5311L72.4138 24.5683L70.7151 26.5975L71.8652 27.5604L73.0154 28.5232L74.7142 26.494L73.564 25.5311ZM71.8652 27.5604L70.8131 26.4912L68.9308 28.3436L69.9829 29.4127L71.035 30.4819L72.9174 28.6295L71.8652 27.5604ZM69.9829 29.4127L69.0326 28.2522L66.9761 29.9362L67.9264 31.0967L68.8767 32.2573L70.9333 30.5733L69.9829 29.4127ZM67.9264 31.0967L66.6975 30.2366L65.1633 32.4285L66.3921 33.2887L67.621 34.1488L69.1553 31.9569L67.9264 31.0967ZM66.3921 33.2887L65.378 32.1834L63.4331 33.968L64.4472 35.0732L65.4613 36.1785L67.4062 34.3939L66.3921 33.2887ZM64.4472 35.0732L63.1753 34.278L61.7973 36.4822L63.0691 37.2773L64.341 38.0725L65.7191 35.8684L64.4472 35.0732ZM63.0691 37.2773L61.703 36.6581L60.6268 39.0321L61.993 39.6514L63.3592 40.2707L64.4353 37.8966L63.0691 37.2773ZM61.993 39.6514L60.5391 40.0205L61.1854 42.5661L62.6392 42.197L64.0931 41.8279L63.4469 39.2823L61.993 39.6514ZM62.6392 42.197L61.5742 43.2533L63.3889 45.083L64.4539 44.0267L65.5189 42.9704L63.7043 41.1407L62.6392 42.197ZM64.4539 44.0267L64.1975 45.5046L66.656 45.9312L66.9124 44.4533L67.1688 42.9754L64.7103 42.5488L64.4539 44.0267ZM66.9124 44.4533L67.1223 45.9385L69.7306 45.5699L69.5207 44.0847L69.3108 42.5994L66.7025 42.968L66.9124 44.4533ZM69.5207 44.0847L70.6624 45.0576L72.4029 43.0151L71.2612 42.0422L70.1195 41.0693L68.379 43.1118L69.5207 44.0847ZM71.2612 42.0422L72.2223 43.1938L74.2579 41.4949L73.2968 40.3432L72.3357 39.1916L70.3001 40.8905L71.2612 42.0422ZM73.2968 40.3432L74.4217 41.3355L76.1702 39.3531L75.0453 38.3609L73.9204 37.3687L72.1719 39.351L73.2968 40.3432ZM75.0453 38.3609L75.9649 39.546L78.0722 37.9108L77.1527 36.7257L76.2331 35.5406L74.1258 37.1758L75.0453 38.3609ZM77.1527 36.7257L78.4126 37.5397L79.8695 35.2848L78.6096 34.4708L77.3497 33.6567L75.8928 35.9117L77.1527 36.7257ZM78.6096 34.4708L79.6607 35.5409L81.5444 33.6908L80.4933 32.6206L79.4422 31.5505L77.5585 33.4006L78.6096 34.4708ZM80.4933 32.6206L81.5944 33.6392L83.3857 31.7026L82.2846 30.684L81.1834 29.6655L79.3921 31.6021L80.4933 32.6206ZM82.2846 30.684L83.4841 31.5846L85.063 29.4816L83.8635 28.581L82.6639 27.6804L81.085 29.7834L82.2846 30.684ZM83.8635 28.581L85.1758 29.3075L86.4667 26.9756L85.1544 26.2491L83.8421 25.5226L82.5511 27.8544L83.8635 28.581ZM85.1544 26.2491L86.571 25.7558L86.3482 25.1161L84.9316 25.6094L83.5151 26.1028L83.7379 26.7425L85.1544 26.2491Z" fill="black"/>
<path d="M42.4693 71.3062L41.1704 70.556L41.1128 70.6557L41.0711 70.7631L42.4693 71.3062ZM43.7092 69.1595L45.0081 69.9097L45.0479 69.8408L45.0802 69.7681L43.7092 69.1595ZM44.7846 66.7369L46.1556 67.3455L46.2131 67.216L46.2453 67.078L44.7846 66.7369ZM45.3879 64.1539L43.946 63.7403L43.9357 63.7763L43.9272 63.8127L45.3879 64.1539ZM46.116 61.6153L44.727 61.049L44.6964 61.1239L44.6741 61.2017L46.116 61.6153ZM47.1153 59.1642L48.5043 59.7305L48.5292 59.6694L48.5487 59.6062L47.1153 59.1642ZM47.8936 56.6403L49.327 57.0823L49.4961 56.5338L49.2559 56.0125L47.8936 56.6403ZM46.9488 54.59L48.3111 53.9622L47.9489 53.1762L47.087 53.0964L46.9488 54.59ZM44.3905 54.3532L42.8919 54.2888L42.8306 55.7152L44.2522 55.8468L44.3905 54.3532ZM44.5039 51.7141L46.0025 51.7785L46.073 50.1392L44.434 50.2157L44.5039 51.7141ZM41.7331 51.8433L41.6632 50.345L41.35 50.3596L41.0688 50.4984L41.7331 51.8433ZM40.1619 52.6193L39.4977 51.2744L39.0746 51.4834L38.8473 51.897L40.1619 52.6193ZM39.0981 54.5556L38.9869 56.0515L39.9484 56.1229L40.4127 55.2779L39.0981 54.5556ZM36.4458 54.3586L36.5569 52.8627L35.7748 52.8046L35.2808 53.4137L36.4458 54.3586ZM35.4351 55.6048L34.27 54.66L33.6673 55.4031L34.0872 56.263L35.4351 55.6048ZM36.5933 57.9769L35.2454 58.635L35.2624 58.6698L35.2811 58.7037L36.5933 57.9769ZM37.8752 60.2911L39.3256 59.9086L39.2779 59.7279L39.1873 59.5643L37.8752 60.2911ZM38.5588 62.8833L37.1084 63.2658L37.1622 63.4698L37.2702 63.6511L38.5588 62.8833ZM39.9301 65.1848L41.3936 64.8559L41.3411 64.6226L41.2187 64.4171L39.9301 65.1848ZM40.5117 67.7727L39.0482 68.1015L39.0782 68.2353L39.132 68.3614L40.5117 67.7727ZM41.5423 70.1876L42.9986 69.8284L42.9695 69.7105L42.9219 69.5988L41.5423 70.1876ZM42.1271 72.5592L43.5977 72.2634L43.5913 72.2316L43.5835 72.2L42.1271 72.5592ZM42.6554 75.1864L44.0855 75.6392L44.2023 75.2701L44.126 74.8907L42.6554 75.1864ZM42.4331 71.3995L43.8313 71.9426L43.8675 71.8494L42.4693 71.3062L41.0711 70.7631L41.0349 70.8563L42.4331 71.3995ZM42.4693 71.3062L43.7682 72.0565L45.0081 69.9097L43.7092 69.1595L42.4103 68.4093L41.1704 70.556L42.4693 71.3062ZM43.7092 69.1595L45.0802 69.7681L46.1556 67.3455L44.7846 66.7369L43.4137 66.1283L42.3382 68.5509L43.7092 69.1595ZM44.7846 66.7369L46.2453 67.078L46.8486 64.495L45.3879 64.1539L43.9272 63.8127L43.3239 66.3958L44.7846 66.7369ZM45.3879 64.1539L46.8297 64.5674L47.5578 62.0288L46.116 61.6153L44.6741 61.2017L43.946 63.7403L45.3879 64.1539ZM46.116 61.6153L47.505 62.1816L48.5043 59.7305L47.1153 59.1642L45.7263 58.5979L44.727 61.049L46.116 61.6153ZM47.1153 59.1642L48.5487 59.6062L49.327 57.0823L47.8936 56.6403L46.4602 56.1983L45.6819 58.7222L47.1153 59.1642ZM47.8936 56.6403L49.2559 56.0125L48.3111 53.9622L46.9488 54.59L45.5865 55.2178L46.5313 57.2681L47.8936 56.6403ZM46.9488 54.59L47.087 53.0964L44.5288 52.8596L44.3905 54.3532L44.2522 55.8468L46.8105 56.0836L46.9488 54.59ZM44.3905 54.3532L45.8891 54.4176L46.0025 51.7785L44.5039 51.7141L43.0053 51.6497L42.8919 54.2888L44.3905 54.3532ZM44.5039 51.7141L44.434 50.2157L41.6632 50.345L41.7331 51.8433L41.803 53.3417L44.5738 53.2124L44.5039 51.7141ZM41.7331 51.8433L41.0688 50.4984L39.4977 51.2744L40.1619 52.6193L40.8262 53.9642L42.3973 53.1882L41.7331 51.8433ZM40.1619 52.6193L38.8473 51.897L37.7834 53.8333L39.0981 54.5556L40.4127 55.2779L41.4766 53.3417L40.1619 52.6193ZM39.0981 54.5556L39.2092 53.0597L36.5569 52.8627L36.4458 54.3586L36.3347 55.8544L38.9869 56.0515L39.0981 54.5556ZM36.4458 54.3586L35.2808 53.4137L34.27 54.66L35.4351 55.6048L36.6001 56.5497L37.6108 55.3034L36.4458 54.3586ZM35.4351 55.6048L34.0872 56.263L35.2454 58.635L36.5933 57.9769L37.9412 57.3187L36.783 54.9467L35.4351 55.6048ZM36.5933 57.9769L35.2811 58.7037L36.5631 61.018L37.8752 60.2911L39.1873 59.5643L37.9054 57.25L36.5933 57.9769ZM37.8752 60.2911L36.4248 60.6736L37.1084 63.2658L38.5588 62.8833L40.0092 62.5008L39.3256 59.9086L37.8752 60.2911ZM38.5588 62.8833L37.2702 63.6511L38.6415 65.9526L39.9301 65.1848L41.2187 64.4171L39.8474 62.1155L38.5588 62.8833ZM39.9301 65.1848L38.4666 65.5137L39.0482 68.1015L40.5117 67.7727L41.9752 67.4438L41.3936 64.8559L39.9301 65.1848ZM40.5117 67.7727L39.132 68.3614L40.1626 70.7764L41.5423 70.1876L42.9219 69.5988L41.8913 67.1839L40.5117 67.7727ZM41.5423 70.1876L40.0859 70.5468L40.6708 72.9183L42.1271 72.5592L43.5835 72.2L42.9986 69.8284L41.5423 70.1876ZM42.1271 72.5592L40.6566 72.8549L41.1849 75.4821L42.6554 75.1864L44.126 74.8907L43.5977 72.2634L42.1271 72.5592ZM42.6554 75.1864L41.2254 74.7336L41.0031 75.4357L42.4331 75.8885L43.8631 76.3413L44.0855 75.6392L42.6554 75.1864Z" fill="black"/>
<path d="M20.2435 115.295L21.7136 115.593L21.72 115.561L21.725 115.53L20.2435 115.295ZM20.6413 112.784L19.2105 112.333L19.1771 112.439L19.1598 112.549L20.6413 112.784ZM21.4384 110.252L22.8692 110.702L22.9148 110.557L22.9304 110.406L21.4384 110.252ZM21.712 107.613L20.2311 107.375L20.2243 107.417L20.22 107.459L21.712 107.613ZM22.1325 105.005L20.69 104.594L20.6657 104.679L20.6516 104.766L22.1325 105.005ZM22.8584 102.458L24.301 102.87L24.3162 102.816L24.3275 102.762L22.8584 102.458ZM23.3922 99.873L24.8612 100.176L24.8726 100.121L24.8798 100.065L23.3922 99.873ZM23.7312 97.248L22.2701 96.9085L22.2532 96.9815L22.2436 97.0558L23.7312 97.248ZM24.3289 94.6754L22.9041 94.2066L22.8831 94.2705L22.8678 94.336L24.3289 94.6754ZM25.1599 92.1502L23.8533 91.4134L23.781 91.5416L23.735 91.6814L25.1599 92.1502ZM26.2409 90.2333L26.3045 88.7346L25.3859 88.6957L24.9343 89.4965L26.2409 90.2333ZM28.8808 90.3453L28.8172 91.844L28.903 91.8476L28.9886 91.8414L28.8808 90.3453ZM31.499 90.1567L31.6743 88.667L31.533 88.6504L31.3912 88.6606L31.499 90.1567ZM34.1472 90.4684L33.9719 91.9581L34.0857 91.9715L34.2002 91.9674L34.1472 90.4684ZM36.7967 90.3746L36.7458 88.8755L36.7437 88.8756L36.7967 90.3746ZM39.4419 90.2849L39.4927 91.784L39.5146 91.7833L39.5364 91.7819L39.4419 90.2849ZM42.0828 90.118L42.3433 88.6408L42.167 88.6097L41.9882 88.621L42.0828 90.118ZM44.722 90.5835L44.4615 92.0607L44.7215 92.1065L44.9816 92.0608L44.722 90.5835ZM47.3605 90.1197L47.5017 88.6264L47.3002 88.6073L47.1008 88.6424L47.3605 90.1197ZM50 90.3693L49.8588 91.8626L49.9692 91.873L50.08 91.8671L50 90.3693ZM52.6409 90.2281L52.8546 88.7434L52.7084 88.7224L52.5609 88.7303L52.6409 90.2281ZM55.2826 90.6083L55.0689 92.093L55.3125 92.128L55.5545 92.0834L55.2826 90.6083ZM57.9256 90.1212L58.0057 88.6233L57.8283 88.6138L57.6537 88.646L57.9256 90.1212ZM60.5675 90.2625L60.4874 91.7603L60.5102 91.7615L60.533 91.7621L60.5675 90.2625ZM63.2082 90.3231L63.1737 91.8227L63.2022 91.8234L63.2307 91.823L63.2082 90.3231ZM65.847 90.2836L66.0346 88.7954L65.93 88.7822L65.8245 88.7838L65.847 90.2836ZM68.4876 90.6165L68.3 92.1048L68.4602 92.125L68.621 92.1106L68.4876 90.6165ZM71.1314 90.3805L71.1231 88.8805L71.0604 88.8809L70.998 88.8864L71.1314 90.3805ZM73.7747 90.3659L73.9466 88.8758L73.8568 88.8655L73.7664 88.866L73.7747 90.3659ZM76.4166 90.6709L76.2446 92.161L76.4407 92.1836L76.6359 92.1547L76.4166 90.6709ZM79.0589 90.2803L79.1362 88.7823L78.9872 88.7746L78.8396 88.7965L79.0589 90.2803ZM81.6968 90.4164L81.7866 88.919L81.7741 88.9184L81.6968 90.4164ZM84.3256 90.574L84.2358 92.0713L84.3386 92.0775L84.4413 92.0695L84.3256 90.574ZM86.9895 90.368L86.9837 88.868L86.9287 88.8682L86.8738 88.8724L86.9895 90.368ZM89.6226 90.3578L89.829 88.872L89.7234 88.8573L89.6168 88.8578L89.6226 90.3578ZM92.257 90.7238L92.756 89.3092L92.6133 89.2589L92.4635 89.2381L92.257 90.7238ZM94.2718 91.4345L95.7699 91.3599L95.7199 90.3547L94.7708 90.0199L94.2718 91.4345ZM94.4052 94.1142L92.907 94.1888L92.914 94.3284L92.9466 94.4643L94.4052 94.1142ZM95.021 96.6797L93.5624 97.0298L93.5839 97.1195L93.6163 97.2059L95.021 96.6797ZM95.9589 99.1838L97.4288 98.8847L97.4052 98.7686L97.3636 98.6576L95.9589 99.1838ZM96.4853 101.771L97.9829 101.687L97.9769 101.578L97.9552 101.472L96.4853 101.771ZM96.6342 104.436L95.1365 104.52L95.1448 104.668L95.1818 104.811L96.6342 104.436ZM97.2956 106.998L98.7668 106.705L98.7586 106.664L98.7479 106.623L97.2956 106.998ZM97.8101 109.588L99.2921 109.356L99.2873 109.326L99.2813 109.296L97.8101 109.588ZM98.2178 112.195L99.7016 111.975L99.6998 111.963L98.2178 112.195ZM98.6057 114.809L97.1219 115.029L97.142 115.165L97.1863 115.294L98.6057 114.809ZM20.2236 115.393L21.6937 115.691L21.7136 115.593L20.2435 115.295L18.7734 114.997L18.7536 115.095L20.2236 115.393ZM20.2435 115.295L21.725 115.53L22.1228 113.018L20.6413 112.784L19.1598 112.549L18.762 115.06L20.2435 115.295ZM20.6413 112.784L22.072 113.234L22.8692 110.702L21.4384 110.252L20.0077 109.801L19.2105 112.333L20.6413 112.784ZM21.4384 110.252L22.9304 110.406L23.204 107.768L21.712 107.613L20.22 107.459L19.9464 110.097L21.4384 110.252ZM21.712 107.613L23.1928 107.852L23.6134 105.244L22.1325 105.005L20.6516 104.766L20.2311 107.375L21.712 107.613ZM22.1325 105.005L23.575 105.416L24.301 102.87L22.8584 102.458L21.4159 102.047L20.69 104.594L22.1325 105.005ZM22.8584 102.458L24.3275 102.762L24.8612 100.176L23.3922 99.873L21.9232 99.5697L21.3894 102.155L22.8584 102.458ZM23.3922 99.873L24.8798 100.065L25.2188 97.4401L23.7312 97.248L22.2436 97.0558L21.9045 99.6808L23.3922 99.873ZM23.7312 97.248L25.1923 97.5874L25.79 95.0149L24.3289 94.6754L22.8678 94.336L22.2701 96.9085L23.7312 97.248ZM24.3289 94.6754L25.7538 95.1443L26.5847 92.6191L25.1599 92.1502L23.735 91.6814L22.9041 94.2066L24.3289 94.6754ZM25.1599 92.1502L26.4664 92.887L27.5474 90.9701L26.2409 90.2333L24.9343 89.4965L23.8533 91.4134L25.1599 92.1502ZM26.2409 90.2333L26.1773 91.732L28.8172 91.844L28.8808 90.3453L28.9444 88.8467L26.3045 88.7346L26.2409 90.2333ZM28.8808 90.3453L28.9886 91.8414L31.6067 91.6528L31.499 90.1567L31.3912 88.6606L28.773 88.8492L28.8808 90.3453ZM31.499 90.1567L31.3237 91.6464L33.9719 91.9581L34.1472 90.4684L34.3225 88.9786L31.6743 88.667L31.499 90.1567ZM34.1472 90.4684L34.2002 91.9674L36.8497 91.8737L36.7967 90.3746L36.7437 88.8756L34.0942 88.9693L34.1472 90.4684ZM36.7967 90.3746L36.8476 91.8738L39.4927 91.784L39.4419 90.2849L39.391 88.7858L36.7458 88.8755L36.7967 90.3746ZM39.4419 90.2849L39.5364 91.7819L42.1774 91.6151L42.0828 90.118L41.9882 88.621L39.3473 88.7879L39.4419 90.2849ZM42.0828 90.118L41.8223 91.5953L44.4615 92.0607L44.722 90.5835L44.9825 89.1063L42.3433 88.6408L42.0828 90.118ZM44.722 90.5835L44.9816 92.0608L47.6202 91.5971L47.3605 90.1197L47.1008 88.6424L44.4623 89.1061L44.722 90.5835ZM47.3605 90.1197L47.2193 91.6131L49.8588 91.8626L50 90.3693L50.1412 88.8759L47.5017 88.6264L47.3605 90.1197ZM50 90.3693L50.08 91.8671L52.721 91.726L52.6409 90.2281L52.5609 88.7303L49.9199 88.8714L50 90.3693ZM52.6409 90.2281L52.4273 91.7128L55.0689 92.093L55.2826 90.6083L55.4962 89.1236L52.8546 88.7434L52.6409 90.2281ZM55.2826 90.6083L55.5545 92.0834L58.1974 91.5963L57.9256 90.1212L57.6537 88.646L55.0107 89.1331L55.2826 90.6083ZM57.9256 90.1212L57.8454 91.619L60.4874 91.7603L60.5675 90.2625L60.6476 88.7646L58.0057 88.6233L57.9256 90.1212ZM60.5675 90.2625L60.533 91.7621L63.1737 91.8227L63.2082 90.3231L63.2426 88.8235L60.602 88.7629L60.5675 90.2625ZM63.2082 90.3231L63.2307 91.823L65.8694 91.7835L65.847 90.2836L65.8245 88.7838L63.1857 88.8233L63.2082 90.3231ZM65.847 90.2836L65.6593 91.7718L68.3 92.1048L68.4876 90.6165L68.6753 89.1283L66.0346 88.7954L65.847 90.2836ZM68.4876 90.6165L68.621 92.1106L71.2648 91.8745L71.1314 90.3805L70.998 88.8864L68.3542 89.1225L68.4876 90.6165ZM71.1314 90.3805L71.1396 91.8805L73.7829 91.8659L73.7747 90.3659L73.7664 88.866L71.1231 88.8805L71.1314 90.3805ZM73.7747 90.3659L73.6027 91.856L76.2446 92.161L76.4166 90.6709L76.5886 89.1807L73.9466 88.8758L73.7747 90.3659ZM76.4166 90.6709L76.6359 92.1547L79.2782 91.7642L79.0589 90.2803L78.8396 88.7965L76.1973 89.187L76.4166 90.6709ZM79.0589 90.2803L78.9817 91.7783L81.6196 91.9144L81.6968 90.4164L81.7741 88.9184L79.1362 88.7823L79.0589 90.2803ZM81.6968 90.4164L81.607 91.9137L84.2358 92.0713L84.3256 90.574L84.4154 89.0767L81.7866 88.9191L81.6968 90.4164ZM84.3256 90.574L84.4413 92.0695L87.1051 91.8635L86.9895 90.368L86.8738 88.8724L84.21 89.0785L84.3256 90.574ZM86.9895 90.368L86.9953 91.868L89.6284 91.8577L89.6226 90.3578L89.6168 88.8578L86.9837 88.868L86.9895 90.368ZM89.6226 90.3578L89.4161 91.8435L92.0506 92.2095L92.257 90.7238L92.4635 89.2381L89.829 88.872L89.6226 90.3578ZM92.257 90.7238L91.758 92.1384L93.7728 92.8491L94.2718 91.4345L94.7708 90.0199L92.756 89.3092L92.257 90.7238ZM94.2718 91.4345L92.7736 91.5091L92.907 94.1888L94.4052 94.1142L95.9033 94.0397L95.7699 91.3599L94.2718 91.4345ZM94.4052 94.1142L92.9466 94.4643L93.5624 97.0298L95.021 96.6797L96.4795 96.3296L95.8637 93.7641L94.4052 94.1142ZM95.021 96.6797L93.6163 97.2059L94.5542 99.71L95.9589 99.1838L97.3636 98.6576L96.4256 96.1535L95.021 96.6797ZM95.9589 99.1838L94.489 99.4828L95.0154 102.07L96.4853 101.771L97.9552 101.472L97.4288 98.8847L95.9589 99.1838ZM96.4853 101.771L94.9876 101.854L95.1365 104.52L96.6342 104.436L98.1319 104.353L97.9829 101.687L96.4853 101.771ZM96.6342 104.436L95.1818 104.811L95.8432 107.373L97.2956 106.998L98.7479 106.623L98.0865 104.061L96.6342 104.436ZM97.2956 106.998L95.8243 107.29L96.3388 109.88L97.8101 109.588L99.2813 109.296L98.7668 106.705L97.2956 106.998ZM97.8101 109.588L96.3281 109.82L96.7358 112.427L98.2178 112.195L99.6998 111.963L99.2921 109.356L97.8101 109.588ZM98.2178 112.195L96.734 112.415L97.1219 115.029L98.6057 114.809L100.089 114.589L99.7015 111.975L98.2178 112.195ZM98.6057 114.809L97.1863 115.294L97.3852 115.876L98.8046 115.391L100.224 114.906L100.025 114.324L98.6057 114.809Z" fill="black"/>
<path d="M56.67 41.7615L55.6041 42.8169L55.6352 42.8483L55.6682 42.8779L56.67 41.7615ZM58.5375 43.4372L59.8116 42.6456L59.6986 42.4638L59.5392 42.3208L58.5375 43.4372ZM59.9382 45.692L58.6641 46.4835L58.8019 46.7054L59.0066 46.8676L59.9382 45.692ZM62.0197 47.3415L61.0881 48.5171L61.123 48.5447L61.1595 48.5703L62.0197 47.3415ZM64.1918 48.8622L65.4881 48.1074L65.3222 47.8225L65.0521 47.6334L64.1918 48.8622ZM65.0086 50.2651L63.7123 51.0199L64.3993 52.1998L65.6385 51.6265L65.0086 50.2651ZM56.5996 41.6904L55.5337 42.7458L55.6041 42.8169L56.67 41.7615L57.7359 40.7061L57.6655 40.635L56.5996 41.6904ZM56.67 41.7615L55.6682 42.8779L57.5357 44.5536L58.5375 43.4372L59.5392 42.3208L57.6717 40.6451L56.67 41.7615ZM58.5375 43.4372L57.2633 44.2287L58.6641 46.4835L59.9382 45.692L61.2124 44.9004L59.8116 42.6456L58.5375 43.4372ZM59.9382 45.692L59.0066 46.8676L61.0881 48.5171L62.0197 47.3415L62.9514 46.1659L60.8698 44.5163L59.9382 45.692ZM62.0197 47.3415L61.1595 48.5703L63.3315 50.0909L64.1918 48.8622L65.0521 47.6334L62.88 46.1127L62.0197 47.3415ZM64.1918 48.8622L62.8955 49.6169L63.7123 51.0199L65.0086 50.2651L66.3049 49.5104L65.4881 48.1074L64.1918 48.8622ZM65.0086 50.2651L65.6385 51.6265L65.6486 51.6218L65.0187 50.2605L64.3888 48.8992L64.3787 48.9038L65.0086 50.2651Z" fill="black"/>
</svg>
