<svg width="120" height="120" viewBox="0 0 120 120" fill="none" xmlns="http://www.w3.org/2000/svg">
<path d="M111.312 114.289L112.355 114.547L111.652 117.453L110.891 117.266L108.547 117.629L108.453 117.652H108.359L105.723 117.723H105.582L103.051 117.301L100.672 117.734L100.438 117.781L100.203 117.746L97.6367 117.406H95.2344L92.5977 117.629L92.4922 117.641L92.3984 117.629L89.75 117.477V117.465L87.2773 117.348L84.7812 117.734L84.582 117.77L84.3945 117.746L81.8516 117.453L79.2969 117.477L79.2852 117.465L76.7773 117.711L76.6133 117.723L76.4492 117.699L73.918 117.383L71.3867 117.43H71.3281L68.6914 117.371H68.6445L66.1719 117.23L63.7109 117.699L63.4766 117.746L63.2305 117.711L60.7227 117.348L58.2383 117.488H58.0156L55.5898 117.242L53.1406 117.676L52.8828 117.723L52.6133 117.676L50.1172 117.242L47.6914 117.395H47.668L47.6445 117.406L42.3711 117.57H42.2539L42.1367 117.559L39.5938 117.254L37.1328 117.418L37.0508 117.43L36.957 117.418L34.5078 117.277L32 117.699L31.7891 117.734L31.5781 117.711L29.0234 117.395L26.5391 117.324L23.9492 117.512L23.8906 117.523H23.832L21.1953 117.512H21.0781L18.5 117.301L16.0508 117.395L16.0625 117.406L13.4258 117.664L13.2734 117.676L13.1211 117.664L10.625 117.395L8.16406 117.5H8V114.5H8.03516L10.5781 114.395L10.6836 114.383L10.8008 114.395L13.2852 114.664L15.7695 114.418H15.8633L18.5 114.312L18.5938 114.301L18.6758 114.312L21.3125 114.512L21.3008 114.523H23.7383L26.375 114.336L26.4453 114.324L26.5273 114.336L29.1641 114.406H29.2344L29.293 114.418L31.7305 114.699L34.1562 114.301L34.3203 114.277L34.4844 114.289L37.0156 114.43L39.582 114.254L39.7227 114.242L39.8633 114.266L42.3711 114.57L44.9141 114.488L47.5039 114.418V114.406L50.1523 114.242L50.3281 114.23L50.5039 114.266L52.8828 114.688L55.2617 114.266L55.4609 114.23L55.6602 114.242L58.1328 114.488L60.7227 114.348L60.8633 114.336L61.0156 114.359L63.418 114.711L65.8086 114.266L65.9844 114.23L66.1602 114.242L68.7969 114.371L68.7852 114.383L71.3633 114.43L73.9766 114.383H74.082L74.1875 114.395L76.6836 114.711L79.1445 114.477H79.2734L81.9102 114.453H82.0039L82.0859 114.465L84.5469 114.746L86.9727 114.371L87.125 114.348L87.2773 114.359L89.9141 114.488H89.9258L92.4453 114.641L95 114.43L95.0586 114.418H95.1055L97.7539 114.406H97.8594L97.9648 114.418L100.367 114.746L102.77 114.312L103.027 114.266L103.285 114.301L105.816 114.723L108.137 114.664L110.738 114.266L111.031 114.219L111.312 114.289Z" fill="black"/>
<path d="M111.312 94.2891L112.355 94.5469L111.652 97.4531L110.891 97.2656L108.547 97.6289L108.453 97.6523H108.359L105.723 97.7227H105.582L103.051 97.3008L100.672 97.7344L100.438 97.7812L100.203 97.7461L97.6367 97.4062H95.2344L92.5977 97.6289L92.4922 97.6406L92.3984 97.6289L89.75 97.4766V97.4648L87.2773 97.3477L84.7812 97.7344L84.582 97.7695L84.3945 97.7461L81.8516 97.4531L79.2969 97.4766L79.2852 97.4648L76.7773 97.7109L76.6133 97.7227L76.4492 97.6992L73.918 97.3828L71.3867 97.4297H71.3281L68.6914 97.3711H68.6445L66.1719 97.2305L63.7109 97.6992L63.4766 97.7461L63.2305 97.7109L60.7227 97.3477L58.2383 97.4883H58.0156L55.5898 97.2422L53.1406 97.6758L52.8828 97.7227L52.6133 97.6758L50.1172 97.2422L47.6914 97.3945H47.668L47.6445 97.4062L42.3711 97.5703H42.2539L42.1367 97.5586L39.5938 97.2539L37.1328 97.418L37.0508 97.4297L36.957 97.418L34.5078 97.2773L32 97.6992L31.7891 97.7344L31.5781 97.7109L29.0234 97.3945L26.5391 97.3242L23.9492 97.5117L23.8906 97.5234H23.832L21.1953 97.5117H21.0781L18.5 97.3008L16.0508 97.3945L16.0625 97.4062L13.4258 97.6641L13.2734 97.6758L13.1211 97.6641L10.625 97.3945L8.16406 97.5H8V94.5H8.03516L10.5781 94.3945L10.6836 94.3828L10.8008 94.3945L13.2852 94.6641L15.7695 94.418H15.8633L18.5 94.3125L18.5938 94.3008L18.6758 94.3125L21.3125 94.5117L21.3008 94.5234H23.7383L26.375 94.3359L26.4453 94.3242L26.5273 94.3359L29.1641 94.4062H29.2344L29.293 94.418L31.7305 94.6992L34.1562 94.3008L34.3203 94.2773L34.4844 94.2891L37.0156 94.4297L39.582 94.2539L39.7227 94.2422L39.8633 94.2656L42.3711 94.5703L44.9141 94.4883L47.5039 94.418V94.4062L50.1523 94.2422L50.3281 94.2305L50.5039 94.2656L52.8828 94.6875L55.2617 94.2656L55.4609 94.2305L55.6602 94.2422L58.1328 94.4883L60.7227 94.3477L60.8633 94.3359L61.0156 94.3594L63.418 94.7109L65.8086 94.2656L65.9844 94.2305L66.1602 94.2422L68.7969 94.3711L68.7852 94.3828L71.3633 94.4297L73.9766 94.3828H74.082L74.1875 94.3945L76.6836 94.7109L79.1445 94.4766H79.2734L81.9102 94.4531H82.0039L82.0859 94.4648L84.5469 94.7461L86.9727 94.3711L87.125 94.3477L87.2773 94.3594L89.9141 94.4883H89.9258L92.4453 94.6406L95 94.4297L95.0586 94.418H95.1055L97.7539 94.4062H97.8594L97.9648 94.418L100.367 94.7461L102.77 94.3125L103.027 94.2656L103.285 94.3008L105.816 94.7227L108.137 94.6641L110.738 94.2656L111.031 94.2188L111.312 94.2891Z" fill="black"/>
<path d="M40 54L40.0703 54.082L41.3359 53.8594L41.8047 56.4844L41.8398 56.6367V56.7891L41.7812 59.3203L42.1562 61.6992L42.918 64.0898L42.9531 64.1953L42.9648 64.3008L43.3516 66.7617L44.2305 69.0469L45.2383 71.4023L46.293 73.5586L48.0156 75.3047L48.1328 75.4219L48.2266 75.5742L49.5039 77.6133L51.3555 79.1836L51.3672 79.1953L53.1602 80.7188L55.4102 81.3867L55.5273 81.4219L55.6445 81.4805L57.7656 82.5117L60.0391 82.582L62.3594 82.2656L64.7031 81.4805L66.9414 80.6602L68.8047 79.1367L70.6094 77.5781L71.8398 75.5039L71.9102 75.3867L71.9922 75.2812L73.6562 73.3477L74.8281 71.3203L75.707 68.9648L76.6094 66.4805L77.4883 64.1016L77.8867 61.7578L78.0273 59.1797V59.0625L78.0508 58.9688L78.5195 56.4844L78.4844 54.1289V54.0117L78.4961 53.8945L78.5195 53.8008L79.9961 54L80.6172 54.082L81.4844 54.0703L81.5312 56.625V56.7773L81.5078 56.9297L81.0156 59.3672L80.8867 61.9688V62.0625L80.8633 62.1562L80.418 64.7578L80.3945 64.8984L80.3477 65.0273L79.4219 67.5L78.5195 69.9844L77.6172 72.4805L77.5703 72.6094L77.5 72.7266L76.1641 75.0117L76.0938 75.1289L76 75.2344L74.3828 77.0859L73.0703 79.3359L72.9414 79.5469L72.7539 79.7109L70.7266 81.4336L70.7031 81.457L68.6523 83.1445L68.4531 83.3086L68.207 83.4023L65.6992 84.3164H65.6758L65.6641 84.3281L63.168 85.1719L63.0391 85.207L62.8867 85.2305L60.2617 85.582L60.1445 85.6055L60.0156 85.5938L57.3438 85.5117L57.0156 85.5L56.7227 85.3594L54.4375 84.2344L51.9883 83.5078L51.6836 83.4141L51.4375 83.2031L49.4219 81.4805L47.3945 79.7695L47.2188 79.6172L47.0898 79.418L45.7422 77.2734L43.9961 75.5156L43.8203 75.3398L43.7148 75.1172L42.543 72.7266L42.5195 72.6914L42.5078 72.6562L41.4648 70.2188V70.1953L41.4531 70.1719L40.5039 67.6992L40.4453 67.5469L40.4219 67.3945L40.0234 64.9102L39.2617 62.4609L39.2266 62.3555L39.2148 62.25L38.793 59.6484L38.7695 59.5078L38.7812 59.3672L38.8398 56.8711L38.3828 54.3984L38.2305 53.5781L38.8516 53.0156L38.9922 52.8867L40 54Z" fill="black"/>
<path d="M29.9961 54L30.6875 54.082L31.4844 54.0703L31.543 56.6133V56.7656L31.5195 56.918L31.0625 59.4023L30.9922 61.9453V62.0273L30.6055 64.7344L30.5938 64.8633L30.5469 64.9922L29.7383 67.5117L29.7266 67.5L28.9766 70.0195L28.9648 70.0078L28.2383 72.5391L28.2031 72.668L28.1562 72.7734L27.0078 75.1641L26.9492 75.2695L26.8789 75.375L25.4375 77.4258L24.4531 79.7344L24.3594 79.9453L24.207 80.1211L22.4844 82.1016L22.4961 82.1133L20.7969 84.1641L20.6445 84.3398L20.457 84.457L18.2305 85.8867L18.2422 85.8984L16.0625 87.3867L15.9688 87.4453L15.8633 87.4922L13.4727 88.6406L13.2852 88.7109L10.7305 89.5195L10.4258 89.6133L10.0977 89.5781L7.8125 89.2852L7.97656 87.9961H6.5V86.0977L8.1875 86.3086L10.1445 86.5547L12.2891 85.875L14.4805 84.8203L16.5547 83.4141H16.5664L16.5781 83.4023L18.6289 82.0664L20.1875 80.2031L20.1992 80.1914V80.1797L21.793 78.3164L22.7539 76.0898L22.8125 75.9492L22.9062 75.832L24.3594 73.7227L25.3789 71.6016L26.0938 69.1641L26.1055 69.1523V69.1406L26.8789 66.6211V66.5977L27.6523 64.1836L27.9922 61.7578L28.0742 59.2148V59.0977L28.0977 58.9922L28.5312 56.5195L28.4844 54.1289V54.0234L28.4961 53.9297L28.5078 53.8242L29.9961 54Z" fill="black"/>
<path d="M29.9961 54L30.6875 54.082L31.4844 54.0703L31.543 56.6133V56.7656L31.5195 56.918L31.0625 59.4023L30.9922 61.9453V62.0273L30.6055 64.7344L30.5938 64.8633L30.5469 64.9922L29.7383 67.5117L29.7266 67.5L28.9766 70.0195L28.9648 70.0078L28.2383 72.5391L28.2031 72.668L28.1562 72.7734L27.0078 75.1641L26.9492 75.2695L26.8789 75.375L25.4375 77.4258L24.4531 79.7344L24.3594 79.9453L24.207 80.1211L22.4844 82.1016L22.4961 82.1133L20.7969 84.1641L20.6445 84.3398L20.457 84.457L18.2305 85.8867L18.2422 85.8984L16.0625 87.3867L15.9688 87.4453L15.8633 87.4922L13.4727 88.6406L13.2852 88.7109L10.7305 89.5195L10.4258 89.6133L10.0977 89.5781L7.8125 89.2852L7.97656 87.9961H6.5V86.0977L8.1875 86.3086L10.1445 86.5547L12.2891 85.875L14.4805 84.8203L16.5547 83.4141H16.5664L16.5781 83.4023L18.6289 82.0664L20.1875 80.2031L20.1992 80.1914V80.1797L21.793 78.3164L22.7539 76.0898L22.8125 75.9492L22.9062 75.832L24.3594 73.7227L25.3789 71.6016L26.0938 69.1641L26.1055 69.1523V69.1406L26.8789 66.6211V66.5977L27.6523 64.1836L27.9922 61.7578L28.0742 59.2148V59.0977L28.0977 58.9922L28.5312 56.5195L28.4844 54.1289V54.0234L28.4961 53.9297L28.5078 53.8242L29.9961 54Z" fill="black"/>
<path d="M91.0039 54L90.3125 54.082L89.5156 54.0703L89.457 56.6133V56.7656L89.4805 56.918L89.9375 59.4023L90.0078 61.9453V62.0273L90.3945 64.7344L90.4062 64.8633L90.4531 64.9922L91.2617 67.5117L91.2734 67.5L92.0234 70.0195L92.0352 70.0078L92.7617 72.5391L92.7969 72.668L92.8438 72.7734L93.9922 75.1641L94.0508 75.2695L94.1211 75.375L95.5625 77.4258L96.5469 79.7344L96.6406 79.9453L96.793 80.1211L98.5156 82.1016L98.5039 82.1133L100.203 84.1641L100.355 84.3398L100.543 84.457L102.77 85.8867L102.758 85.8984L104.938 87.3867L105.031 87.4453L105.137 87.4922L107.527 88.6406L107.715 88.7109L110.27 89.5195L110.574 89.6133L110.902 89.5781L113.188 89.2852L113.023 87.9961H114.5V86.0977L112.812 86.3086L110.855 86.5547L108.711 85.875L106.52 84.8203L104.445 83.4141H104.434L104.422 83.4023L102.371 82.0664L100.812 80.2031L100.801 80.1914V80.1797L99.207 78.3164L98.2461 76.0898L98.1875 75.9492L98.0938 75.832L96.6406 73.7227L95.6211 71.6016L94.9062 69.1641L94.8945 69.1523V69.1406L94.1211 66.6211V66.5977L93.3477 64.1836L93.0078 61.7578L92.9258 59.2148V59.0977L92.9023 58.9922L92.4688 56.5195L92.5156 54.1289V54.0234L92.5039 53.9297L92.4922 53.8242L91.0039 54Z" fill="black"/>
<path d="M31.2578 110.16L31.1289 112.797L31.1172 112.785L31.0703 115.387L31.0703 115.457L31.0586 115.527L30.9883 116.16L28.0117 115.832L28.0703 115.293L28.1289 112.691L28.1289 112.645L28.2578 110.172L27.8008 107.711L27.7539 107.477L27.7891 107.23L28.1406 104.723L28.0117 102.238L28.0117 102.016L28.2461 99.5898L27.8242 97.1406L27.7773 96.8828L27.8242 96.6133L28.2461 94.1172L28.1055 91.6914L28.1055 91.668L28.0937 91.6445L27.9297 86.3711L27.9297 86.2539L27.9414 86.1367L28.2344 83.5938L28.082 81.1328L28.0703 81.0508L28.082 80.957L28.2109 78.5078L27.8008 76L27.7656 75.7891L27.7891 75.5781L28.0937 73.0234L28.1641 70.5391L27.9883 67.9492L27.9766 67.8906L27.9766 67.832L27.9883 65.1953L27.9883 65.0781L28.1875 62.5L28.0937 60.0508L28.0937 60.0625L27.8359 57.4258L27.8242 57.2734L27.8359 57.1211L28.0937 54.625L28 52.1641L28 52L31 52L31 52.0352L31.1055 54.5781L31.1172 54.6836L31.1055 54.8008L30.8359 57.2852L31.082 59.7695L31.082 59.8633L31.1875 62.5L31.1992 62.5938L31.1875 62.6758L30.9883 65.3125L30.9766 65.3008L30.9766 67.7383L31.1641 70.375L31.1758 70.4453L31.1641 70.5273L31.0937 73.1641L31.0937 73.2344L31.082 73.293L30.8008 75.7305L31.1992 78.1563L31.2227 78.3203L31.2109 78.4844L31.0703 81.0156L31.2461 83.582L31.2578 83.7227L31.2344 83.8633L30.9297 86.3711L31.0117 88.9141L31.082 91.5039L31.0937 91.5039L31.2578 94.1523L31.2695 94.3281L31.2344 94.5039L30.8125 96.8828L31.2344 99.2617L31.2695 99.4609L31.2578 99.6602L31.0117 102.133L31.1523 104.723L31.1641 104.863L31.1406 105.016L30.7891 107.418L31.2344 109.809L31.2695 109.984L31.2578 110.16Z" fill="black"/>
<path d="M82.2578 110.16L82.1289 112.797L82.1172 112.785L82.0703 115.387L82.0703 115.457L82.0586 115.527L81.9883 116.16L79.0117 115.832L79.0703 115.293L79.1289 112.691L79.1289 112.645L79.2578 110.172L78.8008 107.711L78.7539 107.477L78.7891 107.23L79.1406 104.723L79.0117 102.238L79.0117 102.016L79.2461 99.5898L78.8242 97.1406L78.7773 96.8828L78.8242 96.6133L79.2461 94.1172L79.1055 91.6914L79.1055 91.668L79.0937 91.6445L78.9297 86.3711L78.9297 86.2539L78.9414 86.1367L79.2344 83.5938L79.082 81.1328L79.0703 81.0508L79.082 80.957L79.2109 78.5078L78.8008 76L78.7656 75.7891L78.7891 75.5781L79.0937 73.0234L79.1641 70.5391L78.9883 67.9492L78.9766 67.8906L78.9766 67.832L78.9883 65.1953L78.9883 65.0781L79.1875 62.5L79.0937 60.0508L79.0937 60.0625L78.8359 57.4258L78.8242 57.2734L78.8359 57.1211L79.0937 54.625L79 52.1641L79 52L82 52L82 52.0352L82.1055 54.5781L82.1172 54.6836L82.1055 54.8008L81.8359 57.2852L82.082 59.7695L82.082 59.8633L82.1875 62.5L82.1992 62.5938L82.1875 62.6758L81.9883 65.3125L81.9766 65.3008L81.9766 67.7383L82.1641 70.375L82.1758 70.4453L82.1641 70.5273L82.0937 73.1641L82.0937 73.2344L82.082 73.293L81.8008 75.7305L82.1992 78.1563L82.2227 78.3203L82.2109 78.4844L82.0703 81.0156L82.2461 83.582L82.2578 83.7227L82.2344 83.8633L81.9297 86.3711L82.0117 88.9141L82.082 91.5039L82.0937 91.5039L82.2578 94.1523L82.2695 94.3281L82.2344 94.5039L81.8125 96.8828L82.2344 99.2617L82.2695 99.4609L82.2578 99.6602L82.0117 102.133L82.1523 104.723L82.1641 104.863L82.1406 105.016L81.7891 107.418L82.2344 109.809L82.2695 109.984L82.2578 110.16Z" fill="black"/>
<path d="M41.2578 110.16L41.1289 112.797L41.1172 112.785L41.0703 115.387L41.0703 115.457L41.0586 115.527L40.9883 116.16L38.0117 115.832L38.0703 115.293L38.1289 112.691L38.1289 112.645L38.2578 110.172L37.8008 107.711L37.7539 107.477L37.7891 107.23L38.1406 104.723L38.0117 102.238L38.0117 102.016L38.2461 99.5898L37.8242 97.1406L37.7773 96.8828L37.8242 96.6133L38.2461 94.1172L38.1055 91.6914L38.1055 91.668L38.0937 91.6445L37.9297 86.3711L37.9297 86.2539L37.9414 86.1367L38.2344 83.5938L38.082 81.1328L38.0703 81.0508L38.082 80.957L38.2109 78.5078L37.8008 76L37.7656 75.7891L37.7891 75.5781L38.0937 73.0234L38.1641 70.5391L37.9883 67.9492L37.9766 67.8906L37.9766 67.832L37.9883 65.1953L37.9883 65.0781L38.1875 62.5L38.0937 60.0508L38.0937 60.0625L37.8359 57.4258L37.8242 57.2734L37.8359 57.1211L38.0937 54.625L38 52.1641L38 52L41 52L41 52.0352L41.1055 54.5781L41.1172 54.6836L41.1055 54.8008L40.8359 57.2852L41.082 59.7695L41.082 59.8633L41.1875 62.5L41.1992 62.5938L41.1875 62.6758L40.9883 65.3125L40.9766 65.3008L40.9766 67.7383L41.1641 70.375L41.1758 70.4453L41.1641 70.5273L41.0937 73.1641L41.0937 73.2344L41.082 73.293L40.8008 75.7305L41.1992 78.1563L41.2227 78.3203L41.2109 78.4844L41.0703 81.0156L41.2461 83.582L41.2578 83.7227L41.2344 83.8633L40.9297 86.3711L41.0117 88.9141L41.082 91.5039L41.0937 91.5039L41.2578 94.1523L41.2695 94.3281L41.2344 94.5039L40.8125 96.8828L41.2344 99.2617L41.2695 99.4609L41.2578 99.6602L41.0117 102.133L41.1523 104.723L41.1641 104.863L41.1406 105.016L40.7891 107.418L41.2344 109.809L41.2695 109.984L41.2578 110.16Z" fill="black"/>
<path d="M92.2578 110.16L92.1289 112.797L92.1172 112.785L92.0703 115.387L92.0703 115.457L92.0586 115.527L91.9883 116.16L89.0117 115.832L89.0703 115.293L89.1289 112.691L89.1289 112.645L89.2578 110.172L88.8008 107.711L88.7539 107.477L88.7891 107.23L89.1406 104.723L89.0117 102.238L89.0117 102.016L89.2461 99.5898L88.8242 97.1406L88.7773 96.8828L88.8242 96.6133L89.2461 94.1172L89.1055 91.6914L89.1055 91.668L89.0937 91.6445L88.9297 86.3711L88.9297 86.2539L88.9414 86.1367L89.2344 83.5938L89.082 81.1328L89.0703 81.0508L89.082 80.957L89.2109 78.5078L88.8008 76L88.7656 75.7891L88.7891 75.5781L89.0937 73.0234L89.1641 70.5391L88.9883 67.9492L88.9766 67.8906L88.9766 67.832L88.9883 65.1953L88.9883 65.0781L89.1875 62.5L89.0937 60.0508L89.0937 60.0625L88.8359 57.4258L88.8242 57.2734L88.8359 57.1211L89.0937 54.625L89 52.1641L89 52L92 52L92 52.0352L92.1055 54.5781L92.1172 54.6836L92.1055 54.8008L91.8359 57.2852L92.082 59.7695L92.082 59.8633L92.1875 62.5L92.1992 62.5938L92.1875 62.6758L91.9883 65.3125L91.9766 65.3008L91.9766 67.7383L92.1641 70.375L92.1758 70.4453L92.1641 70.5273L92.0937 73.1641L92.0937 73.2344L92.082 73.293L91.8008 75.7305L92.1992 78.1563L92.2227 78.3203L92.2109 78.4844L92.0703 81.0156L92.2461 83.582L92.2578 83.7227L92.2344 83.8633L91.9297 86.3711L92.0117 88.9141L92.082 91.5039L92.0937 91.5039L92.2578 94.1523L92.2695 94.3281L92.2344 94.5039L91.8125 96.8828L92.2344 99.2617L92.2695 99.4609L92.2578 99.6602L92.0117 102.133L92.1523 104.723L92.1641 104.863L92.1406 105.016L91.7891 107.418L92.2344 109.809L92.2695 109.984L92.2578 110.16Z" fill="black"/>
<path d="M38.5026 103.788L40.0331 105.787L40.1756 105.942L39.1102 106.983L38.0361 108.031L37.8612 107.857L37.7345 107.719L36.212 105.729L34.3935 103.866L34.3943 103.85L32.5031 102.133L32.3916 102.029L32.2973 101.909L30.8107 99.8536L29.1032 98.1122L28.9923 97.9913L31.2196 95.9814L31.2434 96.0073L33.0222 97.8264L33.1021 97.8963L33.164 97.9985L34.6433 100.029L36.4862 101.709L36.5417 101.77L38.3838 103.658L38.4558 103.719L38.5026 103.788Z" fill="black"/>
<path d="M30.7093 103.788L29.1789 105.787L29.0363 105.942L30.1017 106.983L31.1758 108.031L31.3507 107.857L31.4774 107.719L33 105.729L34.8184 103.866L34.8176 103.85L36.7088 102.133L36.8203 102.029L36.9147 101.909L38.4012 99.8536L40.1087 98.1122L40.2196 97.9913L37.9923 95.9814L37.9686 96.0073L36.1897 97.8264L36.1098 97.8963L36.0479 97.9985L34.5686 100.029L32.7257 101.709L32.6703 101.77L30.8281 103.658L30.7561 103.719L30.7093 103.788Z" fill="black"/>
<path d="M89.487 103.788L91.0174 105.787L91.16 105.942L90.0946 106.983L89.0205 108.031L88.8456 107.857L88.7189 107.719L87.1963 105.729L85.3779 103.866L85.3786 103.85L83.4875 102.133L83.3759 102.029L83.2816 101.909L81.7951 99.8536L80.0875 98.1122L79.9767 97.9913L82.204 95.9814L82.2277 96.0073L84.0066 97.8264L84.0865 97.8963L84.1484 97.9985L85.6277 100.029L87.4706 101.709L87.526 101.77L89.3682 103.658L89.4402 103.719L89.487 103.788Z" fill="black"/>
<path d="M81.6937 103.788L80.1632 105.787L80.0207 105.942L81.0861 106.983L82.1602 108.031L82.3351 107.857L82.4618 107.719L83.9843 105.729L85.8027 103.866L85.802 103.85L87.6931 102.133L87.8047 102.029L87.899 101.909L89.3856 99.8536L91.0931 98.1122L91.204 97.9913L88.9767 95.9814L88.9529 96.0073L87.1741 97.8264L87.0942 97.8963L87.0323 97.9985L85.5529 100.029L83.7101 101.709L83.6546 101.77L81.8125 103.658L81.7405 103.719L81.6937 103.788Z" fill="black"/>
<path d="M40.4961 56.5H39.0078L39.0781 57.8008L37.0508 57.8945L37.0625 57.9062L34.4258 58.1641L34.2734 58.1758L34.1211 58.1641L31.625 57.8945L29.1641 58H29V55H29.0352L31.5781 54.8945L31.6836 54.8828L31.8008 54.8945L34.2852 55.1641L36.7695 54.918H36.8398L38.9258 54.8125L40.4961 54.7305V56.5Z" fill="black"/>
<path d="M40.4961 66H39.0078L39.0781 67.3008L37.0508 67.3945L37.0625 67.4062L34.4258 67.6641L34.2734 67.6758L34.1211 67.6641L31.625 67.3945L29.1641 67.5H29V64.5H29.0352L31.5781 64.3945L31.6836 64.3828L31.8008 64.3945L34.2852 64.6641L36.7695 64.418H36.8398L38.9258 64.3125L40.4961 64.2305V66Z" fill="black"/>
<path d="M40.4961 77H39.0078L39.0781 78.3008L37.0508 78.3945L37.0625 78.4062L34.4258 78.6641L34.2734 78.6758L34.1211 78.6641L31.625 78.3945L29.1641 78.5H29V75.5H29.0352L31.5781 75.3945L31.6836 75.3828L31.8008 75.3945L34.2852 75.6641L36.7695 75.418H36.8398L38.9258 75.3125L40.4961 75.2305V77Z" fill="black"/>
<path d="M91.4961 56.5H90.0078L90.0781 57.8008L88.0508 57.8945L88.0625 57.9062L85.4258 58.1641L85.2734 58.1758L85.1211 58.1641L82.625 57.8945L80.1641 58H80V55H80.0352L82.5781 54.8945L82.6836 54.8828L82.8008 54.8945L85.2852 55.1641L87.7695 54.918H87.8398L89.9258 54.8125L91.4961 54.7305V56.5Z" fill="black"/>
<path d="M91.4961 66H90.0078L90.0781 67.3008L88.0508 67.3945L88.0625 67.4062L85.4258 67.6641L85.2734 67.6758L85.1211 67.6641L82.625 67.3945L80.1641 67.5H80V64.5H80.0352L82.5781 64.3945L82.6836 64.3828L82.8008 64.3945L85.2852 64.6641L87.7695 64.418H87.8398L89.9258 64.3125L91.4961 64.2305V66Z" fill="black"/>
<path d="M91.4961 77H90.0078L90.0781 78.3008L88.0508 78.3945L88.0625 78.4062L85.4258 78.6641L85.2734 78.6758L85.1211 78.6641L82.625 78.3945L80.1641 78.5H80V75.5H80.0352L82.5781 75.3945L82.6836 75.3828L82.8008 75.3945L85.2852 75.6641L87.7695 75.418H87.8398L89.9258 75.3125L91.4961 75.2305V77Z" fill="black"/>
<path d="M15.6016 96.0234L15.5078 96.1055L14.5 95.0039L14.4297 94.9336L13.0937 95.0625L12.8359 92.4258L12.8242 92.2734L12.8359 92.1211L13.0937 89.625L13 87.1641L13 87L16 87L16 87.0352L16.1055 89.5781L16.1172 89.6836L16.1055 89.8008L15.8359 92.2852L16.082 94.7695L16.1523 95.5195L15.6016 96.0234Z" fill="black"/>
<path d="M58.0703 95.168L57.8711 95.6016L56.5 95.0039L55.5859 94.5937L55.1992 94.6172L55.1875 94.418L55.1289 94.3945L55.1758 94.2539L55.0938 92.0508L55.0938 92.0625L54.8359 89.4258L54.8242 89.2734L54.8359 89.1211L55.0938 86.625L55 84.1641L55 84L58 84L58 84.0352L58.1055 86.5781L58.1172 86.6836L58.1055 86.8008L57.8359 89.2852L58.082 91.7695L58.082 91.8633L58.1875 94.5L58.2109 94.8516L58.0703 95.168Z" fill="black"/>
<path d="M66.0703 95.168L65.8711 95.6016L64.5 95.0039L63.5859 94.5937L63.1992 94.6172L63.1875 94.418L63.1289 94.3945L63.1758 94.2539L63.0938 92.0508L63.0938 92.0625L62.8359 89.4258L62.8242 89.2734L62.8359 89.1211L63.0938 86.625L63 84.1641L63 84L66 84L66 84.0352L66.1055 86.5781L66.1172 86.6836L66.1055 86.8008L65.8359 89.2852L66.082 91.7695L66.082 91.8633L66.1875 94.5L66.2109 94.8516L66.0703 95.168Z" fill="black"/>
<path d="M108.105 88.8008L107.836 91.2852L108.082 93.7695L108.094 93.9102L108.082 94.0391L108 95.1172L105 94.8828L105.07 93.9336L104.836 91.4258L104.824 91.2734L104.836 91.1211L105.094 88.625L105 86.1641L105 86L108 86L108 86.0352L108.105 88.5781L108.117 88.6836L108.105 88.8008Z" fill="black"/>
<path d="M24.1875 89.6758L23.9883 92.3125L23.9766 92.3008L23.9766 94.7266L23.9883 94.8086L23.9766 94.8086L23.9766 94.8437L23.707 94.8437L22.5 94.9961L21.0117 95.1836L20.9883 95.0313L20.9766 94.9375L20.9766 94.832L20.9883 92.1953L20.9883 92.0781L21.1875 89.5L21.0938 87.0508L21.0938 87.0625L20.8359 84.4258L20.8242 84.2734L20.8359 84.1211L21.0938 81.625L21 79.1641L21 79L24 79L24 79.0352L24.1055 81.5781L24.1172 81.6836L24.1055 81.8008L23.8359 84.2852L24.082 86.7695L24.082 86.8633L24.1875 89.5L24.1992 89.5937L24.1875 89.6758Z" fill="black"/>
<path d="M49.1875 88.6758L48.9883 91.3125L48.9766 91.3008L48.9766 93.8086L49 94.9687L47.5 95.0039L46 95.0273L45.9766 93.8672L45.9766 93.832L45.9883 91.1953L45.9883 91.0781L46.1875 88.5L46.0938 86.0508L46.0938 86.0625L45.8359 83.4258L45.8242 83.2734L45.8359 83.1211L46.0938 80.625L46 78.1641L46 78L49 78L49 78.0352L49.1055 80.5781L49.1172 80.6836L49.1055 80.8008L48.8359 83.2852L49.082 85.7695L49.082 85.8633L49.1875 88.5L49.1992 88.5937L49.1875 88.6758Z" fill="black"/>
<path d="M99.1875 88.6758L98.9883 91.3125L98.9766 91.3008L98.9766 93.8086L99 94.9687L97.5 95.0039L96 95.0273L95.9766 93.8672L95.9766 93.832L95.9883 91.1953L95.9883 91.0781L96.1875 88.5L96.0938 86.0508L96.0938 86.0625L95.8359 83.4258L95.8242 83.2734L95.8359 83.1211L96.0938 80.625L96 78.1641L96 78L99 78L99 78.0352L99.1055 80.5781L99.1172 80.6836L99.1055 80.8008L98.8359 83.2852L99.082 85.7695L99.082 85.8633L99.1875 88.5L99.1992 88.5937L99.1875 88.6758Z" fill="black"/>
<path d="M75.1875 86.6758L74.9883 89.3125L74.9766 89.3008L74.9766 91.7383L75.1641 94.375L75.1875 94.668L75.0938 94.9492L74.9297 95.4648L73.5 94.9961L72.1992 94.5742L72.1758 94.5859L72.1641 94.5625L72.0703 94.5391L72.1523 94.2812L71.9883 91.9492L71.9766 91.8906L71.9766 91.832L71.9883 89.1953L71.9883 89.0781L72.1875 86.5L72.0938 84.0508L72.0938 84.0625L71.8359 81.4258L71.8242 81.2734L71.8359 81.1211L72.0938 78.625L72 76.1641L72 76L75 76L75 76.0352L75.1055 78.5781L75.1172 78.6836L75.1055 78.8008L74.8359 81.2852L75.082 83.7695L75.082 83.8633L75.1875 86.5L75.1992 86.5937L75.1875 86.6758Z" fill="black"/>
</svg>
