<svg width="120" height="120" viewBox="0 0 120 120" fill="none" xmlns="http://www.w3.org/2000/svg">
<path d="M8.1 116V117.5H8.13227L8.16451 117.499L8.1 116ZM10.64 115.891L10.797 114.399L10.6865 114.387L10.5755 114.392L10.64 115.891ZM13.28 116.169L13.123 117.66L13.2739 117.676L13.425 117.662L13.28 116.169ZM15.92 115.912L15.8596 114.413L15.8172 114.415L15.775 114.419L15.92 115.912ZM18.56 115.806L18.6763 114.31L18.588 114.303L18.4996 114.307L18.56 115.806ZM21.2 116.011L21.0837 117.507L21.1392 117.511L21.1948 117.511L21.2 116.011ZM23.84 116.02L23.8348 117.52L23.8912 117.52L23.9474 117.516L23.84 116.02ZM26.48 115.831L26.5223 114.331L26.4473 114.329L26.3726 114.334L26.48 115.831ZM29.12 115.905L29.2963 114.415L29.2295 114.408L29.1623 114.406L29.12 115.905ZM31.76 116.217L31.5837 117.707L31.7941 117.732L32.0032 117.698L31.76 116.217ZM34.4 115.784L34.4793 114.286L34.3171 114.277L34.1568 114.303L34.4 115.784ZM37.04 115.923L36.9607 117.421L37.0493 117.426L37.1379 117.42L37.04 115.923ZM39.68 115.751L39.8617 114.262L39.7223 114.245L39.5821 114.254L39.68 115.751ZM42.32 116.073L42.1383 117.562L42.2533 117.576L42.3692 117.572L42.32 116.073ZM44.96 115.986L44.9117 114.487L44.9108 114.487L44.96 115.986ZM47.6 115.901L47.6483 117.401L47.6707 117.4L47.693 117.398L47.6 115.901ZM50.24 115.737L50.5012 114.26L50.3253 114.229L50.147 114.24L50.24 115.737ZM52.88 116.204L52.6188 117.681L52.879 117.727L53.1393 117.682L52.88 116.204ZM55.52 115.741L55.6608 114.247L55.4596 114.228L55.2606 114.263L55.52 115.741ZM58.16 115.99L58.0192 117.483L58.1299 117.493L58.2409 117.487L58.16 115.99ZM60.8 115.847L61.0126 114.362L60.8665 114.341L60.7191 114.349L60.8 115.847ZM63.44 116.225L63.2274 117.71L63.4714 117.745L63.7137 117.7L63.44 116.225ZM66.08 115.735L66.1582 114.237L65.9809 114.228L65.8063 114.26L66.08 115.735ZM68.72 115.873L68.6418 117.371L68.6647 117.372L68.6878 117.373L68.72 115.873ZM71.36 115.93L71.3278 117.429L71.3564 117.43L71.3849 117.429L71.36 115.93ZM74 115.886L74.185 114.397L74.0804 114.384L73.975 114.386L74 115.886ZM76.64 116.214L76.455 117.702L76.6155 117.722L76.7765 117.708L76.64 116.214ZM79.28 115.973L79.2685 114.473L79.2059 114.473L79.1435 114.479L79.28 115.973ZM81.92 115.952L82.0888 114.462L81.9989 114.452L81.9085 114.452L81.92 115.952ZM84.56 116.251L84.3912 117.742L84.5876 117.764L84.783 117.735L84.56 116.251ZM87.2 115.854L87.2734 114.356L87.1245 114.349L86.977 114.371L87.2 115.854ZM89.84 115.984L89.9255 114.486L89.9134 114.486L89.84 115.984ZM92.48 116.135L92.3945 117.632L92.4978 117.638L92.6008 117.63L92.48 116.135ZM95.12 115.921L95.1099 114.421L95.0544 114.422L94.9992 114.426L95.12 115.921ZM97.76 115.903L97.9616 114.417L97.8562 114.403L97.7499 114.403L97.76 115.903ZM100.4 116.261L100.198 117.748L100.434 117.78L100.667 117.737L100.4 116.261ZM103.04 115.784L103.284 114.304L103.028 114.262L102.773 114.308L103.04 115.784ZM105.68 116.219L105.436 117.699L105.576 117.722L105.719 117.718L105.68 116.219ZM108.32 116.151L108.359 117.65L108.453 117.648L108.546 117.634L108.32 116.151ZM110.96 115.748L111.313 114.29L111.026 114.221L110.734 114.265L110.96 115.748ZM8 116V117.5H8.1V116V114.5H8V116ZM8.1 116L8.16451 117.499L10.7045 117.389L10.64 115.891L10.5755 114.392L8.03549 114.501L8.1 116ZM10.64 115.891L10.483 117.382L13.123 117.66L13.28 116.169L13.437 114.677L10.797 114.399L10.64 115.891ZM13.28 116.169L13.425 117.662L16.065 117.405L15.92 115.912L15.775 114.419L13.135 114.676L13.28 116.169ZM15.92 115.912L15.9804 117.411L18.6204 117.305L18.56 115.806L18.4996 114.307L15.8596 114.413L15.92 115.912ZM18.56 115.806L18.4437 117.301L21.0837 117.507L21.2 116.011L21.3163 114.516L18.6763 114.31L18.56 115.806ZM21.2 116.011L21.1948 117.511L23.8348 117.52L23.84 116.02L23.8452 114.52L21.2052 114.511L21.2 116.011ZM23.84 116.02L23.9474 117.516L26.5874 117.327L26.48 115.831L26.3726 114.334L23.7326 114.524L23.84 116.02ZM26.48 115.831L26.4377 117.33L29.0777 117.404L29.12 115.905L29.1623 114.406L26.5223 114.331L26.48 115.831ZM29.12 115.905L28.9437 117.395L31.5837 117.707L31.76 116.217L31.9363 114.728L29.2963 114.415L29.12 115.905ZM31.76 116.217L32.0032 117.698L34.6432 117.264L34.4 115.784L34.1568 114.303L31.5168 114.737L31.76 116.217ZM34.4 115.784L34.3207 117.282L36.9607 117.421L37.04 115.923L37.1193 114.426L34.4793 114.286L34.4 115.784ZM37.04 115.923L37.1379 117.42L39.7779 117.248L39.68 115.751L39.5821 114.254L36.9421 114.427L37.04 115.923ZM39.68 115.751L39.4983 117.24L42.1383 117.562L42.32 116.073L42.5017 114.584L39.8617 114.262L39.68 115.751ZM42.32 116.073L42.3692 117.572L45.0092 117.486L44.96 115.986L44.9108 114.487L42.2708 114.574L42.32 116.073ZM44.96 115.986L45.0083 117.486L47.6483 117.401L47.6 115.901L47.5517 114.402L44.9117 114.487L44.96 115.986ZM47.6 115.901L47.693 117.398L50.333 117.234L50.24 115.737L50.147 114.24L47.507 114.404L47.6 115.901ZM50.24 115.737L49.9788 117.214L52.6188 117.681L52.88 116.204L53.1412 114.727L50.5012 114.26L50.24 115.737ZM52.88 116.204L53.1393 117.682L55.7793 117.218L55.52 115.741L55.2606 114.263L52.6207 114.727L52.88 116.204ZM55.52 115.741L55.3792 117.234L58.0192 117.483L58.16 115.99L58.3008 114.496L55.6608 114.247L55.52 115.741ZM58.16 115.99L58.2409 117.487L60.8809 117.345L60.8 115.847L60.7191 114.349L58.0791 114.492L58.16 115.99ZM60.8 115.847L60.5874 117.332L63.2274 117.71L63.44 116.225L63.6526 114.74L61.0126 114.362L60.8 115.847ZM63.44 116.225L63.7137 117.7L66.3537 117.21L66.08 115.735L65.8063 114.26L63.1663 114.75L63.44 116.225ZM66.08 115.735L66.0018 117.233L68.6418 117.371L68.72 115.873L68.7982 114.375L66.1582 114.237L66.08 115.735ZM68.72 115.873L68.6878 117.373L71.3278 117.429L71.36 115.93L71.3922 114.43L68.7522 114.373L68.72 115.873ZM71.36 115.93L71.3849 117.429L74.0249 117.386L74 115.886L73.975 114.386L71.335 114.43L71.36 115.93ZM74 115.886L73.815 117.374L76.455 117.702L76.64 116.214L76.825 114.725L74.185 114.397L74 115.886ZM76.64 116.214L76.7765 117.708L79.4165 117.466L79.28 115.973L79.1435 114.479L76.5035 114.72L76.64 116.214ZM79.28 115.973L79.2915 117.473L81.9315 117.452L81.92 115.952L81.9085 114.452L79.2685 114.473L79.28 115.973ZM81.92 115.952L81.7512 117.443L84.3912 117.742L84.56 116.251L84.7288 114.761L82.0888 114.462L81.92 115.952ZM84.56 116.251L84.783 117.735L87.423 117.338L87.2 115.854L86.977 114.371L84.337 114.768L84.56 116.251ZM87.2 115.854L87.1266 117.353L89.7666 117.482L89.84 115.984L89.9134 114.486L87.2734 114.356L87.2 115.854ZM89.84 115.984L89.7545 117.481L92.3945 117.632L92.48 116.135L92.5655 114.637L89.9255 114.486L89.84 115.984ZM92.48 116.135L92.6008 117.63L95.2408 117.416L95.12 115.921L94.9992 114.426L92.3592 114.639L92.48 116.135ZM95.12 115.921L95.1301 117.421L97.7701 117.403L97.76 115.903L97.7499 114.403L95.1099 114.421L95.12 115.921ZM97.76 115.903L97.5584 117.39L100.198 117.748L100.4 116.261L100.602 114.775L97.9616 114.417L97.76 115.903ZM100.4 116.261L100.667 117.737L103.307 117.26L103.04 115.784L102.773 114.308L100.133 114.785L100.4 116.261ZM103.04 115.784L102.796 117.264L105.436 117.699L105.68 116.219L105.924 114.738L103.284 114.304L103.04 115.784ZM105.68 116.219L105.719 117.718L108.359 117.65L108.32 116.151L108.281 114.651L105.641 114.719L105.68 116.219ZM108.32 116.151L108.546 117.634L111.186 117.231L110.96 115.748L110.734 114.265L108.094 114.668L108.32 116.151ZM110.96 115.748L110.607 117.206L111.647 117.458L112 116L112.353 114.542L111.313 114.29L110.96 115.748Z" fill="black"/>
<path d="M60.4679 43.5717L58.9679 43.5716L58.9679 43.6039L58.9693 43.6362L60.4679 43.5717ZM60.5772 46.1117L62.069 46.2688L62.0806 46.1583L62.0758 46.0473L60.5772 46.1117ZM60.2992 48.7518L58.8075 48.5947L58.7916 48.7456L58.8063 48.8967L60.2992 48.7518ZM60.5555 51.3917L62.0543 51.3314L62.0526 51.289L62.0485 51.2468L60.5555 51.3917ZM60.6618 54.0317L62.1573 54.148L62.1642 54.0598L62.1606 53.9714L60.6618 54.0317ZM60.4565 56.6717L58.961 56.5554L58.9567 56.6109L58.9565 56.6665L60.4565 56.6717ZM60.4473 59.3117L58.9473 59.3065L58.9471 59.3629L58.9512 59.4192L60.4473 59.3117ZM60.6369 61.9517L62.1363 61.9939L62.1384 61.919L62.133 61.8442L60.6369 61.9517ZM60.5626 64.5917L62.0522 64.7678L62.0601 64.701L62.062 64.6339L60.5626 64.5917ZM60.2505 67.2317L58.7609 67.0556L58.736 67.266L58.7704 67.4751L60.2505 67.2317ZM60.6847 69.8716L62.1826 69.9506L62.1912 69.7884L62.1648 69.6282L60.6847 69.8716ZM60.5455 72.5116L59.0476 72.4327L59.0429 72.5213L59.0487 72.61L60.5455 72.5116ZM60.7189 75.1516L62.208 75.3327L62.2249 75.1933L62.2157 75.0532L60.7189 75.1516ZM60.3978 77.7917L58.9087 77.6106L58.8947 77.7257L58.8986 77.8416L60.3978 77.7917ZM60.4856 80.4316L61.9848 80.3825L61.9848 80.3817L60.4856 80.4316ZM60.5722 83.0715L59.073 83.1207L59.0737 83.1432L59.0751 83.1656L60.5722 83.0715ZM60.7379 85.7114L62.2152 85.9714L62.2462 85.7956L62.235 85.6174L60.7379 85.7114ZM60.2732 88.3518L58.7959 88.0918L58.7501 88.3522L58.796 88.6126L60.2732 88.3518ZM60.7391 90.9914L62.1919 91.3647L62.2727 91.0503L62.2163 90.7306L60.7391 90.9914ZM60.0739 93.5794L58.6211 93.2061L58.5334 93.5475L58.6069 93.8922L60.0739 93.5794ZM60.6264 96.1709L62.1101 96.3916L62.15 96.1234L62.0934 95.8581L60.6264 96.1709ZM60.234 98.809L58.7503 98.5883L58.7131 98.8385L58.7599 99.087L60.234 98.809ZM60.7315 101.448L62.2139 101.676L62.2532 101.422L62.2055 101.17L60.7315 101.448ZM60.3234 104.091L58.8409 103.862L58.8133 104.042L58.8291 104.222L60.3234 104.091ZM60.545 106.619L62.045 106.61L62.0446 106.549L62.0393 106.488L60.545 106.619ZM60.5613 109.26L62.0474 109.463L62.0619 109.357L62.0613 109.25L60.5613 109.26ZM60.2006 111.897L58.7145 111.693L58.6923 111.856L58.7057 112.019L60.2006 111.897ZM60.4172 114.54L61.9168 114.506L61.9158 114.462L61.9122 114.418L60.4172 114.54ZM60.4476 115.859L60.5496 117.355L61.9803 117.258L61.9472 115.824L60.4476 115.859ZM60.4679 43.4717L58.9679 43.4716L58.9679 43.5716L60.4679 43.5717L61.9679 43.5717L61.9679 43.4717L60.4679 43.4717ZM60.4679 43.5717L58.9693 43.6362L59.0786 46.1762L60.5772 46.1117L62.0758 46.0473L61.9665 43.5072L60.4679 43.5717ZM60.5772 46.1117L59.0855 45.9547L58.8075 48.5947L60.2992 48.7518L61.791 48.9088L62.069 46.2688L60.5772 46.1117ZM60.2992 48.7518L58.8063 48.8967L59.0625 51.5367L60.5555 51.3917L62.0485 51.2468L61.7922 48.6068L60.2992 48.7518ZM60.5555 51.3917L59.0567 51.4521L59.163 54.092L60.6618 54.0317L62.1606 53.9714L62.0543 51.3314L60.5555 51.3917ZM60.6618 54.0317L59.1663 53.9154L58.961 56.5554L60.4565 56.6717L61.9519 56.788L62.1573 54.148L60.6618 54.0317ZM60.4565 56.6717L58.9565 56.6665L58.9473 59.3065L60.4473 59.3117L61.9473 59.3169L61.9564 56.6769L60.4565 56.6717ZM60.4473 59.3117L58.9512 59.4192L59.1408 62.0591L60.6369 61.9517L62.133 61.8442L61.9434 59.2043L60.4473 59.3117ZM60.6369 61.9517L59.1375 61.9095L59.0632 64.5495L60.5626 64.5917L62.062 64.6339L62.1363 61.9939L60.6369 61.9517ZM60.5626 64.5917L59.073 64.4156L58.7609 67.0556L60.2505 67.2317L61.7401 67.4078L62.0522 64.7678L60.5626 64.5917ZM60.2505 67.2317L58.7704 67.4751L59.2046 70.1151L60.6847 69.8716L62.1648 69.6282L61.7306 66.9883L60.2505 67.2317ZM60.6847 69.8716L59.1868 69.7926L59.0476 72.4327L60.5455 72.5116L62.0434 72.5906L62.1826 69.9506L60.6847 69.8716ZM60.5455 72.5116L59.0487 72.61L59.2222 75.2499L60.7189 75.1516L62.2157 75.0532L62.0423 72.4133L60.5455 72.5116ZM60.7189 75.1516L59.2299 74.9704L58.9087 77.6106L60.3978 77.7917L61.8868 77.9729L62.208 75.3327L60.7189 75.1516ZM60.3978 77.7917L58.8986 77.8416L58.9864 80.4815L60.4856 80.4316L61.9848 80.3817L61.8969 77.7418L60.3978 77.7917ZM60.4856 80.4316L58.9864 80.4808L59.073 83.1207L60.5722 83.0715L62.0714 83.0224L61.9848 80.3825L60.4856 80.4316ZM60.5722 83.0715L59.0751 83.1656L59.2409 85.8054L60.7379 85.7114L62.235 85.6174L62.0692 82.9775L60.5722 83.0715ZM60.7379 85.7114L59.2607 85.4514L58.7959 88.0918L60.2732 88.3518L61.7505 88.6119L62.2152 85.9714L60.7379 85.7114ZM60.2732 88.3518L58.796 88.6126L59.2619 91.2521L60.7391 90.9914L62.2163 90.7306L61.7503 88.0911L60.2732 88.3518ZM60.7391 90.9914L59.2863 90.618L58.6211 93.2061L60.0739 93.5794L61.5267 93.9528L62.1919 91.3647L60.7391 90.9914ZM60.0739 93.5794L58.6069 93.8922L59.1594 96.4837L60.6264 96.1709L62.0934 95.8581L61.5409 93.2667L60.0739 93.5794ZM60.6264 96.1709L59.1427 95.9502L58.7503 98.5883L60.234 98.809L61.7176 99.0297L62.1101 96.3916L60.6264 96.1709ZM60.234 98.809L58.7599 99.087L59.2575 101.726L60.7315 101.448L62.2055 101.17L61.708 98.5311L60.234 98.809ZM60.7315 101.448L59.249 101.219L58.8409 103.862L60.3234 104.091L61.8058 104.32L62.2139 101.676L60.7315 101.448ZM60.3234 104.091L58.8291 104.222L59.0508 106.75L60.545 106.619L62.0393 106.488L61.8176 103.96L60.3234 104.091ZM60.545 106.619L59.0451 106.629L59.0613 109.269L60.5613 109.26L62.0613 109.25L62.045 106.61L60.545 106.619ZM60.5613 109.26L59.0751 109.056L58.7145 111.693L60.2006 111.897L61.6868 112.1L62.0474 109.463L60.5613 109.26ZM60.2006 111.897L58.7057 112.019L58.9222 114.663L60.4172 114.54L61.9122 114.418L61.6956 111.774L60.2006 111.897ZM60.4172 114.54L58.9176 114.575L58.948 115.893L60.4476 115.859L61.9472 115.824L61.9168 114.506L60.4172 114.54ZM60.4476 115.859L60.3456 114.362L60.2981 114.366L60.4001 115.862L60.5021 117.359L60.5496 117.355L60.4476 115.859Z" fill="black"/>
<path d="M53.0896 43.5016L54.5743 43.2874L54.5725 43.275L54.5705 43.2626L53.0896 43.5016ZM53.451 46.0074L54.9462 45.8872L54.9424 45.84L54.9357 45.7932L53.451 46.0074ZM53.6632 48.6478L52.168 48.768L52.1804 48.9216L52.2237 49.0695L53.6632 48.6478ZM54.4099 51.1968L55.8766 50.8826L55.865 50.8284L55.8494 50.7751L54.4099 51.1968ZM54.9636 53.7817L56.4606 53.6875L56.4536 53.5764L56.4303 53.4676L54.9636 53.7817ZM55.1301 56.4279L53.633 56.5222L53.635 56.5539L53.6384 56.5855L55.1301 56.4279ZM55.4073 59.0524L53.9156 59.21L53.919 59.2426L53.9239 59.2751L55.4073 59.0524ZM55.8005 61.6721L57.3002 61.6441L57.2984 61.5462L57.2839 61.4494L55.8005 61.6721ZM55.8498 64.3171L57.3422 64.4682L57.3512 64.3789L57.3495 64.2892L55.8498 64.3171ZM55.5822 66.9612L54.0898 66.8102L54.0707 66.9989L54.0992 67.1865L55.5822 66.9612ZM55.9838 69.6056L57.4773 69.7453L57.4945 69.5622L57.4668 69.3803L55.9838 69.6056ZM55.7372 72.2409L54.2437 72.1011L54.2391 72.1507L54.2377 72.2006L55.7372 72.2409ZM55.666 74.8927L57.1184 75.2677L57.1609 75.103L57.1654 74.933L55.666 74.8927ZM54.9993 77.4748L53.547 77.0998L53.5202 77.2035L53.5084 77.3099L54.9993 77.4748ZM54.709 80.0995L56.1987 80.2752L56.1999 80.2644L54.709 80.0995ZM54.3996 82.7238L52.9099 82.5482L52.9077 82.5666L52.906 82.5851L54.3996 82.7238ZM54.1548 85.359L55.5717 85.8512L55.6315 85.6791L55.6483 85.4978L54.1548 85.359ZM53.2747 87.8929L51.8577 87.4007L51.7724 87.6463L51.7747 87.9061L53.2747 87.8929ZM53.2983 90.5741L54.7447 90.9718L54.8001 90.7701L54.7983 90.5609L53.2983 90.5741ZM52.5933 93.1382L51.147 92.7405L51.1275 92.8113L51.1151 92.8837L52.5933 93.1382ZM52.1469 95.7305L53.5663 96.2156L53.6049 96.1027L53.6252 95.985L52.1469 95.7305ZM51.2841 98.255L49.8648 97.7699L49.7804 98.0168L49.7843 98.2777L51.2841 98.255ZM51.3248 100.94L52.7966 101.23L52.827 101.075L52.8246 100.918L51.3248 100.94ZM50.8196 103.509L52.2858 103.826L52.2887 103.812L52.2914 103.799L50.8196 103.509ZM50.2741 106.035L51.7397 106.354L51.7403 106.352L50.2741 106.035ZM49.7135 108.608L51.1468 109.05L51.1656 108.989L51.1792 108.927L49.7135 108.608ZM48.9283 111.152L47.4951 110.709L47.441 110.884L47.4307 111.067L48.9283 111.152ZM48.7795 113.802L50.2646 114.013L50.2736 113.95L50.2771 113.886L48.7795 113.802ZM53.0737 43.4028L51.5929 43.6418L51.6088 43.7405L53.0896 43.5016L54.5705 43.2626L54.5545 43.1639L53.0737 43.4028ZM53.0896 43.5016L51.605 43.7157L51.9664 46.2215L53.451 46.0074L54.9357 45.7932L54.5743 43.2874L53.0896 43.5016ZM53.451 46.0074L51.9559 46.1275L52.168 48.768L53.6632 48.6478L55.1584 48.5277L54.9462 45.8872L53.451 46.0074ZM53.6632 48.6478L52.2237 49.0695L52.9704 51.6185L54.4099 51.1968L55.8494 50.7751L55.1027 48.2261L53.6632 48.6478ZM54.4099 51.1968L52.9432 51.5109L53.4968 54.0959L54.9636 53.7817L56.4303 53.4676L55.8766 50.8826L54.4099 51.1968ZM54.9636 53.7817L53.4665 53.876L53.633 56.5222L55.1301 56.4279L56.6271 56.3337L56.4606 53.6875L54.9636 53.7817ZM55.1301 56.4279L53.6384 56.5855L53.9156 59.21L55.4073 59.0524L56.899 58.8949L56.6218 56.2704L55.1301 56.4279ZM55.4073 59.0524L53.9239 59.2751L54.3171 61.8948L55.8005 61.6721L57.2839 61.4494L56.8907 58.8298L55.4073 59.0524ZM55.8005 61.6721L54.3007 61.7001L54.3501 64.3451L55.8498 64.3171L57.3495 64.2892L57.3002 61.6441L55.8005 61.6721ZM55.8498 64.3171L54.3574 64.1661L54.0898 66.8102L55.5822 66.9612L57.0746 67.1123L57.3422 64.4682L55.8498 64.3171ZM55.5822 66.9612L54.0992 67.1865L54.5008 69.8308L55.9838 69.6056L57.4668 69.3803L57.0652 66.736L55.5822 66.9612ZM55.9838 69.6056L54.4904 69.4658L54.2437 72.1011L55.7372 72.2409L57.2307 72.3806L57.4773 69.7453L55.9838 69.6056ZM55.7372 72.2409L54.2377 72.2006L54.1665 74.8524L55.666 74.8927L57.1654 74.933L57.2367 72.2811L55.7372 72.2409ZM55.666 74.8927L54.2136 74.5177L53.547 77.0998L54.9993 77.4748L56.4517 77.8498L57.1184 75.2677L55.666 74.8927ZM54.9993 77.4748L53.5084 77.3099L53.2181 79.9346L54.709 80.0995L56.1999 80.2644L56.4902 77.6397L54.9993 77.4748ZM54.709 80.0995L53.2193 79.9238L52.9099 82.5482L54.3996 82.7238L55.8892 82.8995L56.1987 80.2752L54.709 80.0995ZM54.3996 82.7238L52.906 82.5851L52.6612 85.2203L54.1548 85.359L55.6483 85.4978L55.8931 82.8626L54.3996 82.7238ZM54.1548 85.359L52.7378 84.8669L51.8577 87.4007L53.2747 87.8929L54.6916 88.3851L55.5717 85.8512L54.1548 85.359ZM53.2747 87.8929L51.7747 87.9061L51.7984 90.5874L53.2983 90.5741L54.7983 90.5609L54.7746 87.8797L53.2747 87.8929ZM53.2983 90.5741L51.852 90.1764L51.147 92.7405L52.5933 93.1382L54.0396 93.5359L54.7447 90.9718L53.2983 90.5741ZM52.5933 93.1382L51.1151 92.8837L50.6687 95.476L52.1469 95.7305L53.6252 95.985L54.0715 93.3928L52.5933 93.1382ZM52.1469 95.7305L50.7275 95.2454L49.8648 97.7699L51.2841 98.255L52.7035 98.7401L53.5663 96.2156L52.1469 95.7305ZM51.2841 98.255L49.7843 98.2777L49.825 100.963L51.3248 100.94L52.8246 100.918L52.784 98.2323L51.2841 98.255ZM51.3248 100.94L49.853 100.651L49.3478 103.22L50.8196 103.509L52.2914 103.799L52.7966 101.23L51.3248 100.94ZM50.8196 103.509L49.3534 103.193L48.8079 105.718L50.2741 106.035L51.7403 106.352L52.2858 103.826L50.8196 103.509ZM50.2741 106.035L48.8085 105.716L48.2479 108.288L49.7135 108.608L51.1792 108.927L51.7397 106.354L50.2741 106.035ZM49.7135 108.608L48.2803 108.165L47.4951 110.709L48.9283 111.152L50.3616 111.594L51.1468 109.05L49.7135 108.608ZM48.9283 111.152L47.4307 111.067L47.2818 113.718L48.7795 113.802L50.2771 113.886L50.426 111.236L48.9283 111.152ZM48.7795 113.802L47.2943 113.592L47.1096 114.895L48.5947 115.105L50.0799 115.316L50.2646 114.013L48.7795 113.802Z" fill="black"/>
<path d="M67.8474 43.5016L66.3654 43.2697L66.3547 43.338L66.3504 43.4069L67.8474 43.5016ZM67.6866 46.0422L69.1339 46.4363L69.174 46.2891L69.1836 46.1369L67.6866 46.0422ZM66.9893 48.603L65.542 48.2088L65.5064 48.3393L65.4948 48.4741L66.9893 48.603ZM66.7614 51.2446L68.2481 51.4439L68.2528 51.4088L68.2559 51.3735L66.7614 51.2446ZM66.411 53.8596L67.8752 54.1851L67.8892 54.1224L67.8977 54.0588L66.411 53.8596ZM65.836 56.4457L64.3718 56.1202L64.3558 56.1918L64.347 56.2646L65.836 56.4457ZM65.5171 59.0666L64.0281 58.8854L64.0189 58.9612L64.0174 59.0375L65.5171 59.0666ZM65.4659 61.7093L66.9601 61.8414L66.9646 61.79L66.9656 61.7384L65.4659 61.7093ZM65.234 64.3332L66.7189 64.5452L66.7246 64.5054L66.7281 64.4653L65.234 64.3332ZM64.8577 66.9681L63.3728 66.7561L63.3387 66.9951L63.3813 67.2328L64.8577 66.9681ZM65.3295 69.6002L66.8295 69.5995L66.8295 69.4665L66.806 69.3355L65.3295 69.6002ZM65.3308 72.2376L63.8308 72.2383L63.8308 72.3545L63.8488 72.4694L65.3308 72.2376ZM65.7386 74.845L67.2386 74.8469L67.2388 74.7293L67.2206 74.6132L65.7386 74.845ZM65.7352 77.5019L64.2352 77.5L64.2351 77.6337L64.2585 77.7652L65.7352 77.5019ZM66.1987 80.1014L64.722 80.3647L64.7241 80.3762L64.7263 80.3876L66.1987 80.1014ZM66.703 82.6956L65.2305 82.9818L65.2362 83.011L65.2431 83.0401L66.703 82.6956ZM67.3094 85.2658L68.8094 85.2669L68.8096 85.0918L68.7693 84.9214L67.3094 85.2658ZM67.3075 87.9453L65.8075 87.9442L65.8073 88.2096L65.8981 88.4589L67.3075 87.9453ZM68.2253 90.4638L69.7198 90.3353L69.7027 90.1371L69.6346 89.9502L68.2253 90.4638ZM68.4526 93.1062L66.9581 93.2348L66.9679 93.3485L66.9948 93.4595L68.4526 93.1062ZM69.0757 95.6772L70.5742 95.611L70.5678 95.4655L70.5335 95.3238L69.0757 95.6772ZM69.1933 98.3426L67.6947 98.4087L67.7056 98.6559L67.7953 98.8865L69.1933 98.3426ZM70.1672 100.846L71.6533 100.643L71.6293 100.467L71.5651 100.302L70.1672 100.846ZM70.5253 103.465L69.0392 103.668L69.0423 103.691L69.046 103.713L70.5253 103.465ZM70.9628 106.071L69.4835 106.319L69.4881 106.346L69.4936 106.373L70.9628 106.071ZM71.4956 108.659L72.9929 108.57L72.9865 108.462L72.9647 108.356L71.4956 108.659ZM71.6527 111.312L70.1554 111.401L70.1645 111.554L70.2045 111.703L71.6527 111.312ZM72.3446 113.876L73.8361 113.716L73.8235 113.599L73.7928 113.485L72.3446 113.876ZM67.8628 43.4028L66.3809 43.1709L66.3654 43.2697L67.8474 43.5016L69.3293 43.7336L69.3448 43.6348L67.8628 43.4028ZM67.8474 43.5016L66.3504 43.4069L66.1896 45.9474L67.6866 46.0422L69.1836 46.1369L69.3444 43.5964L67.8474 43.5016ZM67.6866 46.0422L66.2393 45.648L65.542 48.2088L66.9893 48.603L68.4366 48.9971L69.1339 46.4363L67.6866 46.0422ZM66.9893 48.603L65.4948 48.4741L65.267 51.1158L66.7614 51.2446L68.2559 51.3735L68.4837 48.7318L66.9893 48.603ZM66.7614 51.2446L65.2747 51.0454L64.9243 53.6603L66.411 53.8596L67.8977 54.0588L68.2481 51.4439L66.7614 51.2446ZM66.411 53.8596L64.9468 53.534L64.3718 56.1202L65.836 56.4457L67.3002 56.7713L67.8752 54.1851L66.411 53.8596ZM65.836 56.4457L64.347 56.2646L64.0281 58.8854L65.5171 59.0666L67.0062 59.2477L67.325 56.6269L65.836 56.4457ZM65.5171 59.0666L64.0174 59.0375L63.9662 61.6802L65.4659 61.7093L66.9656 61.7384L67.0169 59.0957L65.5171 59.0666ZM65.4659 61.7093L63.9717 61.5773L63.7398 64.2011L65.234 64.3332L66.7281 64.4653L66.9601 61.8414L65.4659 61.7093ZM65.234 64.3332L63.749 64.1212L63.3728 66.7561L64.8577 66.9681L66.3427 67.1802L66.7189 64.5452L65.234 64.3332ZM64.8577 66.9681L63.3813 67.2328L63.8531 69.8648L65.3295 69.6002L66.806 69.3355L66.3342 66.7035L64.8577 66.9681ZM65.3295 69.6002L63.8295 69.6009L63.8308 72.2383L65.3308 72.2376L66.8308 72.2369L66.8295 69.5995L65.3295 69.6002ZM65.3308 72.2376L63.8488 72.4694L64.2566 75.0768L65.7386 74.845L67.2206 74.6132L66.8128 72.0058L65.3308 72.2376ZM65.7386 74.845L64.2386 74.8431L64.2352 77.5L65.7352 77.5019L67.2352 77.5039L67.2386 74.8469L65.7386 74.845ZM65.7352 77.5019L64.2585 77.7652L64.722 80.3647L66.1987 80.1014L67.6755 79.8381L67.2119 77.2386L65.7352 77.5019ZM66.1987 80.1014L64.7263 80.3876L65.2305 82.9818L66.703 82.6956L68.1754 82.4094L67.6712 79.8152L66.1987 80.1014ZM66.703 82.6956L65.2431 83.0401L65.8495 85.6103L67.3094 85.2658L68.7693 84.9214L68.1629 82.3511L66.703 82.6956ZM67.3094 85.2658L65.8094 85.2647L65.8075 87.9442L67.3075 87.9453L68.8075 87.9464L68.8094 85.2669L67.3094 85.2658ZM67.3075 87.9453L65.8981 88.4589L66.816 90.9774L68.2253 90.4638L69.6346 89.9502L68.7168 87.4317L67.3075 87.9453ZM68.2253 90.4638L66.7308 90.5924L66.9581 93.2348L68.4526 93.1062L69.9471 92.9777L69.7198 90.3353L68.2253 90.4638ZM68.4526 93.1062L66.9948 93.4595L67.6179 96.0305L69.0757 95.6772L70.5335 95.3238L69.9104 92.7529L68.4526 93.1062ZM69.0757 95.6772L67.5771 95.7433L67.6947 98.4087L69.1933 98.3426L70.6918 98.2765L70.5742 95.611L69.0757 95.6772ZM69.1933 98.3426L67.7953 98.8865L68.7692 101.39L70.1672 100.846L71.5651 100.302L70.5912 97.7988L69.1933 98.3426ZM70.1672 100.846L68.681 101.049L69.0392 103.668L70.5253 103.465L72.0115 103.262L71.6533 100.643L70.1672 100.846ZM70.5253 103.465L69.046 103.713L69.4835 106.319L70.9628 106.071L72.4421 105.822L72.0046 103.217L70.5253 103.465ZM70.9628 106.071L69.4936 106.373L70.0264 108.961L71.4956 108.659L72.9647 108.356L72.432 105.768L70.9628 106.071ZM71.4956 108.659L69.9982 108.747L70.1554 111.401L71.6527 111.312L73.1501 111.223L72.9929 108.57L71.4956 108.659ZM71.6527 111.312L70.2045 111.703L70.8964 114.267L72.3446 113.876L73.7928 113.485L73.1009 110.921L71.6527 111.312ZM72.3446 113.876L70.8532 114.036L70.9847 115.264L72.4761 115.104L73.9676 114.944L73.8361 113.716L72.3446 113.876Z" fill="black"/>
<path d="M42.422 35.6123L41.5549 34.3883L40.922 34.8367V35.6123H42.422ZM42.5036 35.5545L43.3707 36.7785L44.0705 36.2827L43.9983 35.4282L42.5036 35.5545ZM42.287 32.9914L41.7118 31.6061L40.7001 32.0261L40.7923 33.1177L42.287 32.9914ZM44.7131 31.9841L45.2883 33.3694L45.3241 33.3545L45.3591 33.3379L44.7131 31.9841ZM47.1071 30.8418L46.5429 29.4519L46.5015 29.4687L46.4611 29.488L47.1071 30.8418ZM49.5566 29.8474L49.1711 28.3977L49.0799 28.422L48.9924 28.4575L49.5566 29.8474ZM52.1187 29.1661L52.5041 30.6157L52.6275 30.5829L52.7436 30.5297L52.1187 29.1661ZM54.4863 28.0811L55.1112 29.4447L56.2035 28.9441L55.9534 27.7689L54.4863 28.0811ZM53.9563 25.5906L52.704 24.7649L52.3585 25.2889L52.4892 25.9028L53.9563 25.5906ZM55.2958 23.559L55.3973 22.0625L54.5249 22.0033L54.0435 22.7333L55.2958 23.559ZM57.9476 23.7388L57.8461 25.2354L58.0203 25.2472L58.1926 25.2187L57.9476 23.7388ZM60.5891 23.3015L60.6864 21.8046L60.5143 21.7935L60.3441 21.8216L60.5891 23.3015ZM63.2312 23.4732L63.134 24.97L63.1946 24.974L63.2553 24.973L63.2312 23.4732ZM65.8952 23.4305L67.2943 22.8896L66.9171 21.9139L65.8711 21.9307L65.8952 23.4305ZM66.7442 25.6268L68.2421 25.7074L68.2594 25.3861L68.1433 25.0859L66.7442 25.6268ZM66.6133 28.0594L65.1154 27.9788L65.0586 29.0347L66.034 29.443L66.6133 28.0594ZM69.0241 29.0688L68.4448 30.4524L68.5503 30.4965L68.6612 30.5242L69.0241 29.0688ZM71.595 29.7098L72.3273 28.4007L72.1524 28.3028L71.9579 28.2543L71.595 29.7098ZM73.9333 31.0177L73.201 32.3268L73.3932 32.4344L73.6083 32.4821L73.9333 31.0177ZM76.5514 31.5987L77.5012 30.4377L77.2249 30.2117L76.8764 30.1344L76.5514 31.5987ZM78.618 33.2893L80.1059 33.4794L80.2112 32.6547L79.5677 32.1283L78.618 33.2893ZM78.3017 35.7652L78.0891 37.2501L79.5966 37.4659L79.7896 35.9553L78.3017 35.7652ZM75.6617 35.3873L75.8743 33.9024L75.6303 33.8675L75.388 33.9125L75.6617 35.3873ZM73.0217 35.8772L72.9434 37.3752L73.1208 37.3845L73.2954 37.3521L73.0217 35.8772ZM70.3817 35.7393L70.4599 34.2414L70.4369 34.2402L70.4139 34.2397L70.3817 35.7393ZM67.7417 35.6826L67.7739 34.1829L67.7453 34.1823L67.7167 34.1828L67.7417 35.6826ZM65.1017 35.7265L64.9167 37.2151L65.0213 37.2281L65.1266 37.2263L65.1017 35.7265ZM62.4617 35.3984L62.6467 33.9099L62.4862 33.8899L62.3251 33.9047L62.4617 35.3984ZM59.8217 35.6397L59.8331 37.1397L59.8958 37.1392L59.9582 37.1335L59.8217 35.6397ZM57.1817 35.6599L57.0129 37.1504L57.1027 37.1606L57.1931 37.1599L57.1817 35.6599ZM54.5417 35.361L54.7105 33.8705L54.5141 33.8483L54.3187 33.8776L54.5417 35.361ZM51.9017 35.7578L51.8283 37.256L51.9772 37.2633L52.1246 37.2411L51.9017 35.7578ZM49.2617 35.6284L49.1762 37.126L49.1883 37.1266L49.2617 35.6284ZM46.6217 35.4777L46.7072 33.9802L46.6039 33.9743L46.5008 33.9826L46.6217 35.4777ZM43.9817 35.6911L43.9988 37.191L44.0508 37.1904L44.1025 37.1862L43.9817 35.6911ZM42.422 35.709H40.922V37.2262L42.4391 37.2089L42.422 35.709ZM42.422 35.6123L43.2891 36.8363L43.3707 36.7785L42.5036 35.5545L41.6365 34.3305L41.5549 34.3883L42.422 35.6123ZM42.5036 35.5545L43.9983 35.4282L43.7817 32.8651L42.287 32.9914L40.7923 33.1177L41.0089 35.6808L42.5036 35.5545ZM42.287 32.9914L42.8622 34.3767L45.2883 33.3694L44.7131 31.9841L44.1379 30.5987L41.7118 31.6061L42.287 32.9914ZM44.7131 31.9841L45.3591 33.3379L47.7531 32.1955L47.1071 30.8418L46.4611 29.488L44.0671 30.6303L44.7131 31.9841ZM47.1071 30.8418L47.6713 32.2316L50.1208 31.2372L49.5566 29.8474L48.9924 28.4575L46.5429 29.4519L47.1071 30.8418ZM49.5566 29.8474L49.942 31.297L52.5041 30.6157L52.1187 29.1661L51.7332 27.7165L49.1711 28.3977L49.5566 29.8474ZM52.1187 29.1661L52.7436 30.5297L55.1112 29.4447L54.4863 28.0811L53.8614 26.7175L51.4938 27.8025L52.1187 29.1661ZM54.4863 28.0811L55.9534 27.7689L55.4235 25.2784L53.9563 25.5906L52.4892 25.9028L53.0192 28.3933L54.4863 28.0811ZM53.9563 25.5906L55.2086 26.4163L56.5481 24.3847L55.2958 23.559L54.0435 22.7333L52.704 24.7649L53.9563 25.5906ZM55.2958 23.559L55.1943 25.0556L57.8461 25.2354L57.9476 23.7388L58.0491 22.2423L55.3973 22.0625L55.2958 23.559ZM57.9476 23.7388L58.1926 25.2187L60.8341 24.7813L60.5891 23.3015L60.3441 21.8216L57.7026 22.259L57.9476 23.7388ZM60.5891 23.3015L60.4918 24.7983L63.134 24.97L63.2312 23.4732L63.3285 21.9763L60.6864 21.8046L60.5891 23.3015ZM63.2312 23.4732L63.2553 24.973L65.9192 24.9303L65.8952 23.4305L65.8711 21.9307L63.2072 21.9734L63.2312 23.4732ZM65.8952 23.4305L64.4961 23.9714L65.3451 26.1677L66.7442 25.6268L68.1433 25.0859L67.2943 22.8896L65.8952 23.4305ZM66.7442 25.6268L65.2464 25.5462L65.1154 27.9788L66.6133 28.0594L68.1111 28.14L68.2421 25.7074L66.7442 25.6268ZM66.6133 28.0594L66.034 29.443L68.4448 30.4524L69.0241 29.0688L69.6034 27.6851L67.1926 26.6758L66.6133 28.0594ZM69.0241 29.0688L68.6612 30.5242L71.2321 31.1652L71.595 29.7098L71.9579 28.2543L69.387 27.6133L69.0241 29.0688ZM71.595 29.7098L70.8628 31.0189L73.201 32.3268L73.9333 31.0177L74.6656 29.7086L72.3273 28.4007L71.595 29.7098ZM73.9333 31.0177L73.6083 32.4821L76.2264 33.0631L76.5514 31.5987L76.8764 30.1344L74.2582 29.5534L73.9333 31.0177ZM76.5514 31.5987L75.6016 32.7597L77.6682 34.4503L78.618 33.2893L79.5677 32.1283L77.5012 30.4377L76.5514 31.5987ZM78.618 33.2893L77.1301 33.0992L76.8138 35.5751L78.3017 35.7652L79.7896 35.9553L80.1059 33.4794L78.618 33.2893ZM78.3017 35.7652L78.5143 34.2804L75.8743 33.9024L75.6617 35.3873L75.4491 36.8721L78.0891 37.2501L78.3017 35.7652ZM75.6617 35.3873L75.388 33.9125L72.748 34.4024L73.0217 35.8772L73.2954 37.3521L75.9354 36.8621L75.6617 35.3873ZM73.0217 35.8772L73.0999 34.3793L70.4599 34.2414L70.3817 35.7393L70.3034 37.2373L72.9434 37.3752L73.0217 35.8772ZM70.3817 35.7393L70.4139 34.2397L67.7739 34.1829L67.7417 35.6826L67.7094 37.1823L70.3494 37.239L70.3817 35.7393ZM67.7417 35.6826L67.7167 34.1828L65.0767 34.2267L65.1017 35.7265L65.1266 37.2263L67.7666 37.1824L67.7417 35.6826ZM65.1017 35.7265L65.2867 34.238L62.6467 33.9099L62.4617 35.3984L62.2767 36.887L64.9167 37.2151L65.1017 35.7265ZM62.4617 35.3984L62.3251 33.9047L59.6851 34.146L59.8217 35.6397L59.9582 37.1335L62.5982 36.8922L62.4617 35.3984ZM59.8217 35.6397L59.8102 34.1398L57.1702 34.16L57.1817 35.6599L57.1931 37.1599L59.8331 37.1397L59.8217 35.6397ZM57.1817 35.6599L57.3505 34.1694L54.7105 33.8705L54.5417 35.361L54.3729 36.8514L57.0129 37.1504L57.1817 35.6599ZM54.5417 35.361L54.3187 33.8776L51.6787 34.2745L51.9017 35.7578L52.1246 37.2411L54.7646 36.8443L54.5417 35.361ZM51.9017 35.7578L51.9751 34.2596L49.3351 34.1302L49.2617 35.6284L49.1883 37.1266L51.8283 37.256L51.9017 35.7578ZM49.2617 35.6284L49.3472 34.1309L46.7072 33.9802L46.6217 35.4777L46.5362 36.9753L49.1762 37.126L49.2617 35.6284ZM46.6217 35.4777L46.5008 33.9826L43.8608 34.196L43.9817 35.6911L44.1025 37.1862L46.7425 36.9729L46.6217 35.4777ZM43.9817 35.6911L43.9645 34.1912L42.4048 34.2091L42.422 35.709L42.4391 37.2089L43.9988 37.191L43.9817 35.6911ZM42.422 35.709H43.922V35.6123H42.422H40.922V35.709H42.422Z" fill="black"/>
<path d="M60.4678 9.23769L58.9678 9.23017L58.9677 9.2493L58.9681 9.26843L60.4678 9.23769ZM60.5199 11.7785L62.0105 11.9459L62.0216 11.8471L62.0196 11.7477L60.5199 11.7785ZM60.2236 14.4166L58.7329 14.2492L58.7153 14.4063L58.7308 14.5637L60.2236 14.4166ZM60.4836 17.0566L61.9822 16.9906L61.9804 16.95L61.9764 16.9096L60.4836 17.0566ZM60.5999 19.6964L62.0954 19.8125L62.1025 19.7215L62.0985 19.6304L60.5999 19.6964ZM60.3949 22.337L58.8994 22.2208L58.8945 22.2833L58.8949 22.346L60.3949 22.337ZM60.4683 9.1377L58.9683 9.13017L58.9678 9.23017L60.4678 9.23769L61.9678 9.24522L61.9683 9.14522L60.4683 9.1377ZM60.4678 9.23769L58.9681 9.26843L59.0202 11.8092L60.5199 11.7785L62.0196 11.7477L61.9675 9.20695L60.4678 9.23769ZM60.5199 11.7785L59.0293 11.611L58.7329 14.2492L60.2236 14.4166L61.7142 14.5841L62.0105 11.9459L60.5199 11.7785ZM60.2236 14.4166L58.7308 14.5637L58.9908 17.2037L60.4836 17.0566L61.9764 16.9096L61.7163 14.2696L60.2236 14.4166ZM60.4836 17.0566L58.9851 17.1227L59.1014 19.7624L60.5999 19.6964L62.0985 19.6304L61.9822 16.9906L60.4836 17.0566ZM60.5999 19.6964L59.1044 19.5803L58.8994 22.2208L60.3949 22.337L61.8904 22.4531L62.0954 19.8125L60.5999 19.6964ZM60.3949 22.337L58.8949 22.346L58.9005 23.2801L60.4005 23.2711L61.9005 23.2621L61.8948 22.328L60.3949 22.337Z" fill="black"/>
<path d="M76.2749 35.7538L75.1848 34.7234L74.6769 35.2608L74.7938 35.9909L76.2749 35.7538ZM76.6841 38.3104L78.0439 38.9436L78.2379 38.5271L78.1653 38.0733L76.6841 38.3104ZM75.593 40.6531L76.4758 41.8659L76.7892 41.6378L76.9528 41.2864L75.593 40.6531ZM73.5196 42.1624L73.9274 43.6059L74.1855 43.533L74.4024 43.3752L73.5196 42.1624ZM70.9594 42.8857L71.0571 44.3825L71.215 44.3722L71.3672 44.3292L70.9594 42.8857ZM68.3104 43.0586L68.2127 41.5618L68.1986 41.5627L68.1845 41.5639L68.3104 43.0586ZM65.6785 43.2802L65.5527 41.7855L65.5266 41.7877L65.5006 41.7908L65.6785 43.2802ZM63.0476 43.5945L63.0262 45.0943L63.1262 45.0958L63.2255 45.0839L63.0476 43.5945ZM60.4018 43.5567L60.1998 45.043L60.2897 45.0552L60.3804 45.0565L60.4018 43.5567ZM57.7695 43.1989L57.9716 41.7125L57.7859 41.6873L57.5998 41.7085L57.7695 43.1989ZM55.1097 43.5017L54.9011 44.9872L55.0899 45.0137L55.2794 44.9921L55.1097 43.5017ZM52.4842 43.1331L52.6927 41.6477L52.6433 41.6407L52.5934 41.6371L52.4842 43.1331ZM49.8369 42.9398L49.319 44.3475L49.5171 44.4204L49.7277 44.4358L49.8369 42.9398ZM47.3364 42.0198L46.6186 43.3369L46.7152 43.3896L46.8185 43.4276L47.3364 42.0198ZM45.0572 40.7777L43.6347 41.2537L43.8218 41.8127L44.3394 42.0947L45.0572 40.7777ZM44.2258 38.2933L42.7271 38.2302L42.7154 38.5068L42.8033 38.7694L44.2258 38.2933ZM44.3349 35.7025L44.6065 34.2273L42.9089 33.9148L42.8363 35.6394L44.3349 35.7025ZM76.3436 35.6812L75.2535 34.6507L75.1848 34.7234L76.2749 35.7538L77.3649 36.7843L77.4336 36.7116L76.3436 35.6812ZM76.2749 35.7538L74.7938 35.9909L75.203 38.5475L76.6841 38.3104L78.1653 38.0733L77.756 35.5167L76.2749 35.7538ZM76.6841 38.3104L75.3244 37.6771L74.2333 40.0199L75.593 40.6531L76.9528 41.2864L78.0439 38.9436L76.6841 38.3104ZM75.593 40.6531L74.7103 39.4404L72.6368 40.9497L73.5196 42.1624L74.4024 43.3752L76.4758 41.8659L75.593 40.6531ZM73.5196 42.1624L73.1118 40.7189L70.5516 41.4422L70.9594 42.8857L71.3672 44.3292L73.9274 43.6059L73.5196 42.1624ZM70.9594 42.8857L70.8617 41.3889L68.2127 41.5618L68.3104 43.0586L68.408 44.5554L71.0571 44.3825L70.9594 42.8857ZM68.3104 43.0586L68.1845 41.5639L65.5527 41.7855L65.6785 43.2802L65.8044 44.7749L68.4362 44.5533L68.3104 43.0586ZM65.6785 43.2802L65.5006 41.7908L62.8697 42.1051L63.0476 43.5945L63.2255 45.0839L65.8565 44.7696L65.6785 43.2802ZM63.0476 43.5945L63.069 42.0946L60.4232 42.0568L60.4018 43.5567L60.3804 45.0565L63.0262 45.0943L63.0476 43.5945ZM60.4018 43.5567L60.6038 42.0703L57.9716 41.7125L57.7695 43.1989L57.5675 44.6852L60.1998 45.043L60.4018 43.5567ZM57.7695 43.1989L57.5998 41.7085L54.94 42.0114L55.1097 43.5017L55.2794 44.9921L57.9392 44.6892L57.7695 43.1989ZM55.1097 43.5017L55.3183 42.0163L52.6927 41.6477L52.4842 43.1331L52.2756 44.6185L54.9011 44.9872L55.1097 43.5017ZM52.4842 43.1331L52.5934 41.6371L49.9462 41.4438L49.8369 42.9398L49.7277 44.4358L52.3749 44.6291L52.4842 43.1331ZM49.8369 42.9398L50.3549 41.532L47.8544 40.6121L47.3364 42.0198L46.8185 43.4276L49.319 44.3475L49.8369 42.9398ZM47.3364 42.0198L48.0543 40.7027L45.775 39.4606L45.0572 40.7777L44.3394 42.0947L46.6186 43.3369L47.3364 42.0198ZM45.0572 40.7777L46.4796 40.3016L45.6482 37.8173L44.2258 38.2933L42.8033 38.7694L43.6347 41.2537L45.0572 40.7777ZM44.2258 38.2933L45.7244 38.3565L45.8336 35.7657L44.3349 35.7025L42.8363 35.6394L42.7271 38.2302L44.2258 38.2933ZM44.3349 35.7025L44.0633 37.1777L44.3217 37.2253L44.5933 35.7501L44.8648 34.2749L44.6065 34.2273L44.3349 35.7025Z" fill="black"/>
<path d="M51.0023 104.557L51.0581 103.059L51.0474 103.058L51.0367 103.058L51.0023 104.557ZM53.5301 104.651L53.697 103.161L53.6416 103.155L53.5858 103.152L53.5301 104.651ZM56.1693 104.947L56.0023 106.438L56.1618 106.456L56.3215 106.439L56.1693 104.947ZM58.8094 104.678L58.9224 103.182L58.7896 103.172L58.6571 103.185L58.8094 104.678ZM50.9023 104.555L50.868 106.055L50.9679 106.057L51.0023 104.557L51.0367 103.058L50.9367 103.056L50.9023 104.555ZM51.0023 104.557L50.9466 106.056L53.4743 106.15L53.5301 104.651L53.5858 103.152L51.0581 103.059L51.0023 104.557ZM53.5301 104.651L53.3631 106.142L56.0023 106.438L56.1693 104.947L56.3362 103.456L53.697 103.161L53.5301 104.651ZM56.1693 104.947L56.3215 106.439L58.9616 106.17L58.8094 104.678L58.6571 103.185L56.017 103.455L56.1693 104.947ZM58.8094 104.678L58.6963 106.173L59.8124 106.258L59.9254 104.762L60.0385 103.266L58.9224 103.182L58.8094 104.678Z" fill="black"/>
<path d="M53.1732 93.1827L53.2264 91.6836L53.2185 91.6834L53.1732 93.1827ZM55.7027 93.2725L55.867 91.7815L55.8116 91.7754L55.7559 91.7735L55.7027 93.2725ZM58.3421 93.5635L58.1778 95.0544L58.3844 95.0772L58.5895 95.0429L58.3421 93.5635ZM59.9253 93.2987H61.4253V91.5271L59.678 91.8193L59.9253 93.2987ZM53.0732 93.1797L53.028 94.679L53.1279 94.682L53.1732 93.1827L53.2185 91.6834L53.1185 91.6804L53.0732 93.1797ZM53.1732 93.1827L53.12 94.6818L55.6494 94.7716L55.7027 93.2725L55.7559 91.7735L53.2264 91.6836L53.1732 93.1827ZM55.7027 93.2725L55.5383 94.7635L58.1778 95.0544L58.3421 93.5635L58.5065 92.0725L55.867 91.7815L55.7027 93.2725ZM58.3421 93.5635L58.5895 95.0429L60.1727 94.7782L59.9253 93.2987L59.678 91.8193L58.0947 92.084L58.3421 93.5635ZM59.9253 93.2987H58.4253V93.3865H59.9253H61.4253V93.2987H59.9253Z" fill="black"/>
</svg>
