<svg width="120" height="120" viewBox="0 0 120 120" fill="none" xmlns="http://www.w3.org/2000/svg">
<path d="M68.248 30.2979L70.1924 30.8301L71.4287 31.168L71.2881 32.4414L71.0117 34.9326L71.2266 37.4287L71.3242 38.5723L70.2451 38.9658L67.9014 39.8203L67.7959 39.8584L67.6855 39.8809L65.1406 40.3965L62.6172 41.0488L62.3379 41.1211L62.0527 41.085L61.623 41.0293V41.0518L61.6133 41.1377L61.3379 43.6289L61.5498 46.1016L61.9053 46.3359L64.1084 47.79L64.1377 47.8096L66.2988 49.3115L66.2998 49.3105L68.4775 50.8037L68.4766 50.8047L70.6582 52.2637L70.6924 52.2871L70.7256 52.3115L72.6875 53.7891L74.9932 54.7441L75.2041 54.832L75.3799 54.9775L77.3252 56.6006L79.499 57.8682L79.5713 57.9102L79.6387 57.96L81.6572 59.4619L83.9141 60.5967L84.0596 60.6699L84.1865 60.7734L86.2441 62.4502L88.8779 64.5967L87.6709 64.7754L87.6377 65.0127L87.2939 67.4072L87.7402 69.8066L87.8291 70.2881L87.6162 70.7305L86.6318 72.7773L86.2129 73.6475L85.248 73.627L82.6318 73.5703L82.499 73.5723L82.7031 75.7773L82.708 75.8232L82.709 75.8701L82.79 78.5088L82.793 78.5947L82.79 78.624L83.666 78.6914L86.208 78.5684V78.5693L88.8203 78.3936L88.8662 78.3906H88.9121L91.5527 78.377H91.6387L91.7246 78.3867L94.2158 78.6621L96.7119 78.4473L96.7676 78.4424H96.8232L99.4629 78.4121H99.4893L102.096 78.4287L104.69 78.3076L104.842 78.3008L104.992 78.3242L106.232 78.5176L105.768 81.4824L104.674 81.3105L102.189 81.4268L102.15 81.4287H102.11L99.4873 81.4121L96.9053 81.4414L94.3281 81.6631L94.1816 81.6758L94.0352 81.6592L91.4785 81.377L88.9795 81.3896L86.3799 81.5635L86.3662 81.5645L86.3516 81.5654L83.7119 81.6914L83.6191 81.6963L83.5264 81.6895L82.6221 81.6201L82.8525 83.668L82.8584 83.7236L82.8604 83.7793L82.958 86.418V86.4307L82.959 86.4443L83.0088 89.0479L83.1963 91.6406L83.2031 91.7266L83.1992 91.8125L83.0879 94.415L83.1309 97.0078V97.0547L83.0908 99.627L83.251 102.181L83.5479 104.773L83.5566 104.852L83.5576 104.93L83.582 107.555L83.6172 109.432L84.3008 109.496L84.5205 109.517L84.7246 109.601L86.7178 110.41L87.1182 110.572L88.666 110.691L91.208 110.568V110.569L93.8203 110.394L93.8662 110.391H93.9121L96.5527 110.377H96.6387L96.7246 110.387L99.2158 110.662L101.712 110.447L101.768 110.442H101.823L104.463 110.412H104.496L106.017 110.429L107.5 110.445V112H105.999L105.983 113.429L104.48 113.412L101.905 113.441L99.3281 113.663L99.1816 113.676L99.0352 113.659L96.4785 113.377L93.9795 113.39L91.3799 113.563L91.3662 113.564L91.3516 113.565L88.7119 113.691L88.6191 113.696L88.5264 113.689L87.4092 113.604L87.2939 114.411L89.834 114.401L89.9336 114.4L90.0322 114.414L92.4346 114.725L94.8379 114.264L95.0781 114.218L95.3203 114.251L97.8867 114.598L100.306 114.699L102.791 114.281L102.909 114.261L103.029 114.26L105.669 114.241L105.82 114.239L105.969 114.269L108.39 114.744L110.808 114.497L110.891 114.489L110.975 114.49L112.015 114.5L111.985 117.5L111.035 117.489L108.473 117.751L108.25 117.773L108.031 117.73L105.54 117.242L103.172 117.259L100.648 117.684L100.494 117.71L100.337 117.703L97.6973 117.593L97.6279 117.59L97.5596 117.58L95.1631 117.256L92.7617 117.716L92.5264 117.761L92.2871 117.73L89.748 117.401L87.2412 117.411L86.0225 117.445L85.8496 117.815L84.8418 117.763L82.2334 117.626L79.6318 117.57L79.2588 117.576L76.7393 117.744L76.5498 117.757L76.3623 117.722L74.1719 117.309L71.8564 117.521L71.7939 117.527H71.707L71.5332 117.548L71.4092 117.562L71.2832 117.557L70.8447 117.534L69.0918 117.548H69.001L68.9111 117.538L68.2002 117.457L66.1699 117.58L66.04 117.588L65.9111 117.573L65.0449 117.475L64.0234 117.629L63.876 117.651L63.7266 117.644L61.2451 117.521L60.957 117.553L60.9229 117.557L60.8887 117.559L58.249 117.715L58.1006 117.724L57.9531 117.703L56.6484 117.521L56.001 117.574L55.9453 117.578L55.8906 117.579L53.25 117.597L53.1436 117.598L53.0381 117.583L51.5107 117.375L50.207 117.347V117.346L50.1406 117.345L48.2266 117.692L47.9717 117.738L47.7158 117.696L45.2646 117.292L45.042 117.288L44.9893 117.289L42.4521 117.515L42.4141 117.518L42.376 117.52L41.4502 117.554L40.2666 117.735L40.1514 117.753L40.0352 117.752L37.3945 117.742H37.2881L37.1836 117.727L35.6104 117.496L34.3857 117.485H34.3418L34.2979 117.482L31.7363 117.308L29.1895 117.427L29.1504 117.429H29.1104L26.4873 117.412L23.9053 117.441L21.3281 117.663L21.1816 117.676L21.0352 117.659L18.4785 117.377L15.9795 117.39L13.3799 117.563L13.3662 117.564L13.3516 117.565L10.7119 117.691L10.6191 117.696L10.5264 117.689L8.03809 117.5H8V117.497L7.98633 117.496L8 117.315V114.5H8.15723L8.21387 114.504L10.666 114.691L13.208 114.568V114.569L15.8203 114.394L15.8662 114.391H15.9121L18.5527 114.377H18.6387L18.7246 114.387L21.2158 114.662L23.7119 114.447L23.7676 114.442H23.8232L26.4629 114.412H26.4893L29.0957 114.429L31.6904 114.308L31.7764 114.304L31.8623 114.31L32.4951 114.353L32.4941 114.128L32.4912 113.611L31.4736 113.689L31.3809 113.696L31.2881 113.691L28.6484 113.565L28.6338 113.564L28.6201 113.563L26.0205 113.39L23.5215 113.377L20.9648 113.659L20.8184 113.676L20.6719 113.663L18.0947 113.441L15.5195 113.412L14.0166 113.429L14.001 112H12.5V110.445L13.9834 110.429L15.5039 110.412H15.5371L18.1768 110.442H18.2324L18.2881 110.447L20.7842 110.662L23.2754 110.387L23.3613 110.377H23.4473L26.0879 110.391H26.1338L26.1797 110.394L28.792 110.569V110.568L31.334 110.691L32.5146 110.601L32.5605 109.5H34.0576L35.7314 109.428L35.6611 107.298L35.4531 104.688L35.4404 104.524L35.4629 104.362L35.8125 101.854L35.7246 99.3467L35.7217 99.2627L35.7275 99.1797L35.9209 96.6729L35.6924 94.1475L35.6719 93.9199L35.7197 93.6963L36.2451 91.2559L36.1445 88.8027L36.1436 88.7617V88.7197L36.1826 86.0801L36.1924 83.4648L36.1875 81.373L35.334 81.3086L32.792 81.4316V81.4307L30.1797 81.6064L30.1338 81.6094H30.0879L27.4473 81.623H27.3613L27.2754 81.6133L24.7842 81.3379L22.2881 81.5527L22.2324 81.5576H22.1768L19.5371 81.5879H19.5107L16.9043 81.5713L14.3096 81.6924L13.7402 81.7188L13.2969 81.3604L13.0566 81.166L14 80L14.2188 79.7305L14.1699 78.6963L16.8105 78.5732L16.8496 78.5713H16.8896L19.5127 78.5879L22.0947 78.5586L24.6719 78.3369L24.8184 78.3242L24.9648 78.3408L27.5215 78.623L30.0205 78.6104L32.6201 78.4365L32.6338 78.4355L32.6484 78.4346L35.2881 78.3086L35.3809 78.3037L35.4736 78.3105L36.2383 78.3682L36.2432 78.1494L36.2451 78.0488L36.2607 77.9502L36.6338 75.5576L36.2832 73.4414L35.2041 73.5029L34.4004 73.5488L33.918 72.9033L32.7783 71.3779L32.4668 70.96L32.4805 70.4395L32.5527 67.7988L32.6055 65.2471L32.5059 64.1338L32.3594 62.5H33.832L34.0283 62.4551L35.9141 61.1934L37.8662 59.5127L38.0186 59.3809L38.2002 59.2949L40.457 58.2217L42.4219 56.6943L42.5312 56.6104L42.6533 56.5469L44.8135 55.4287L46.5781 53.708L46.6865 53.6016L46.8135 53.5195L49.0342 52.0918L49.1348 52.0264L49.2441 51.9785L51.5537 50.9688L53.5166 49.5645L55.4805 47.8652L55.665 47.7051L55.8916 47.6123L58.3779 46.5908L58.5234 46.5303L58.5322 46.5283L58.5537 46.2588L58.3369 43.7412L58.3242 43.5947L58.3408 43.4482L58.623 40.8916L58.6211 40.6484L58.5957 40.6455L58.6084 39.3115L58.6123 38.8604L58.6104 38.3926L58.4365 35.793L58.4355 35.7793L58.4346 35.7646L58.3086 33.125L58.3037 33.0322L58.3105 32.9395L58.3555 32.3477L58.2676 31.9268L58.3867 31.9297L58.5 30.4512V30.4131H58.5029L58.5039 30.3994L58.6846 30.4131H61.5V30.5703L61.4961 30.627L61.4062 31.7949L62.4482 31.6494L64.9277 31.0059V31.0068L67.4482 30.2998L67.8477 30.1875L68.248 30.2979ZM73.6934 112.398L73.6484 112.4L71.0078 112.484L71.0088 112.485L68.3691 112.572L68.2529 112.576L68.1387 112.562L67.6562 112.502L67.46 112.589L67.1641 112.595L64.5244 112.649L63.8691 112.663L63.6035 112.389L63.1377 112.42L63.0498 112.426L62.9609 112.421L60.4834 112.289L58.0029 112.697L57.7939 112.731L57.584 112.707L55.0088 112.402L54.8936 112.398L54.7314 112.47L54.46 112.589L54.1641 112.595L51.5244 112.649L50.8691 112.663L50.6768 112.464L49.9473 112.517L49.8916 112.521H49.835L47.1943 112.511H47.1396L47.084 112.507L44.5283 112.308L42.0215 112.409L41.8271 112.428L41.7314 112.47L41.46 112.589L41.1641 112.595L39.8223 112.622L39.4248 112.661L39.2734 112.676L39.123 112.66L38.9395 112.641L38.5244 112.649L37.8691 112.663L37.7236 112.513L36.5928 112.394L35.4854 112.441L35.4922 113.799L35.7979 114.492L35.8467 114.499L37.0547 114.511L37.1016 114.513L39.6846 114.618L41.1621 114.562L42.4541 114.366L42.5469 114.353L42.6416 114.35L44.8145 114.294L44.8281 114.293L44.9062 114.286L44.9844 114.287L45.0479 114.288L45.2812 114.282L45.4238 114.278L45.5303 114.296L47.625 114.331L47.624 114.332L49.8789 114.344L50.333 114.263L50.5664 114.221L50.8018 114.252L51.7461 114.38L52.8809 114.405L55.4883 114.351L55.6084 114.348L55.7266 114.364L56.7334 114.504L58.3994 114.37L58.502 114.362L58.6055 114.368L61.1709 114.514L63.2832 114.292L63.4463 114.274L63.6084 114.293L64.9902 114.449L66.2168 114.266L66.4121 114.236L66.6084 114.258L68.2764 114.446L68.6299 114.426L68.7129 114.421L68.7969 114.426L70.8906 114.533L71.5352 114.527L73.8262 114.261L74.0527 114.234L74.2773 114.276L74.3154 114.283L74.3848 114.277L74.5449 114.298L77.0762 114.612L79.1533 114.577L79.1807 114.576L79.2227 114.573H79.2637L81.9033 114.544V114.545L84.0918 114.495L84.3213 114.007L84.501 112.747L83.8008 112.462L81.5771 112.253L80.9932 112.355L80.7314 112.47L80.46 112.589L80.1641 112.595L79.5625 112.606L79.1396 112.682L78.8789 112.728L78.6191 112.682L78.3408 112.632L77.5244 112.649L76.8691 112.663L76.5293 112.312L76.1523 112.245L73.6934 112.398ZM59.001 73.5742L58.9453 73.5781L58.8906 73.5791L56.501 73.5947L56.7031 75.7773L56.708 75.8232L56.709 75.8701L56.79 78.5088L56.793 78.5947L56.7852 78.6807L56.5732 81.1797L56.8525 83.668L56.8584 83.7236L56.8604 83.7793L56.958 86.418V86.4307L56.959 86.4443L57.0088 89.0479L57.1963 91.6406L57.2031 91.7266L57.1992 91.8125L57.0879 94.415L57.1309 97.0078V97.0547L57.0908 99.627L57.251 102.181L57.5479 104.773L57.5566 104.852L57.5576 104.93L57.582 107.555L57.623 109.69L57.7266 109.703L60.1572 109.304L60.3174 109.277L60.4795 109.286L61.7295 109.353L61.6611 107.298L61.4531 104.688L61.4404 104.524L61.4629 104.362L61.8125 101.854L61.7246 99.3467L61.7217 99.2627L61.7275 99.1797L61.9209 96.6729L61.6924 94.1475L61.6719 93.9199L61.7197 93.6963L62.2451 91.2559L62.1445 88.8027L62.1436 88.7617V88.7197L62.1826 86.0801L62.1924 83.4648L62.1865 80.8242V80.7881L62.2432 78.1494L62.2451 78.0488L62.2607 77.9502L62.6338 75.5576L62.2783 73.4102L61.5342 73.3682L59.001 73.5742ZM39.6318 75.3066L39.6709 75.5439L39.6338 75.7812L39.2393 78.3115L39.1865 80.8174L39.1924 83.458V83.4668L39.1826 86.1074V86.124L39.1445 88.7197L39.25 91.3252L39.2568 91.5146L39.2178 91.7012L38.7002 94.1035L38.9199 96.5234L38.9316 96.6484L38.9219 96.7734L38.7246 99.3223L38.8145 101.886L38.8184 102.016L38.8008 102.145L38.4561 104.613L38.6533 107.097L38.6562 107.131L38.6572 107.165L38.7266 109.231L39.1162 109.637L39.6523 109.625L41.0645 109.487L41.6133 109.249L41.582 107.613V107.598L41.5576 105.034L41.2666 102.48L41.2627 102.443L41.2598 102.405L41.0938 99.7686L41.0898 99.71L41.0908 99.6514L41.1309 97.0312L41.0889 94.416L41.0879 94.3721L41.0898 94.3291L41.1982 91.7754L41.0137 89.2207L41.0107 89.1816L41.0098 89.1416L40.959 86.502V86.501L40.8633 83.9385L40.5762 81.3682L40.5605 81.2217L40.5723 81.0752L40.7891 78.5078L40.7119 76.0195L40.5303 74.043L40.1348 73.7188L39.707 73.6562L39.3564 73.6426L39.6318 75.3066ZM78.6318 75.3066L78.6709 75.5439L78.6338 75.7812L78.2393 78.3115L78.1865 80.8174L78.1924 83.458V83.4668L78.1826 86.1074V86.124L78.1445 88.7197L78.25 91.3252L78.2568 91.5146L78.2178 91.7012L77.7002 94.1035L77.9199 96.5234L77.9316 96.6484L77.9219 96.7734L77.7246 99.3223L77.8145 101.886L77.8184 102.016L77.8008 102.145L77.4561 104.613L77.6533 107.097L77.6562 107.131L77.6572 107.165L77.7266 109.231L78.0107 109.527L78.5723 109.627L79.2725 109.612L80.1201 109.463L80.6133 109.249L80.582 107.613V107.598L80.5576 105.034L80.2666 102.48L80.2627 102.443L80.2598 102.405L80.0938 99.7686L80.0898 99.71L80.0908 99.6514L80.1309 97.0312L80.0889 94.416L80.0879 94.3721L80.0898 94.3291L80.1982 91.7754L80.0137 89.2207L80.0107 89.1816L80.0098 89.1416L79.959 86.502V86.501L79.8633 83.9385L79.5762 81.3682L79.5605 81.2217L79.5723 81.0752L79.7891 78.5078L79.7119 76.0195L79.5303 74.043L79.0771 73.6719L78.3564 73.6426L78.6318 75.3066ZM45.8125 73.3457L43.5107 73.6973L43.7031 75.7773L43.708 75.8232L43.709 75.8701L43.79 78.5088L43.793 78.5947L43.7852 78.6807L43.5732 81.1797L43.8525 83.668L43.8584 83.7236L43.8604 83.7793L43.958 86.418V86.4307L43.959 86.4443L44.0088 89.0479L44.1963 91.6406L44.2031 91.7266L44.1992 91.8125L44.0879 94.415L44.1309 97.0078V97.0547L44.0908 99.627L44.251 102.181L44.5479 104.773L44.5566 104.852L44.5576 104.93L44.582 107.555L44.6152 109.306L44.6768 109.311L47.2559 109.512L48.7344 109.517L48.6611 107.298L48.4531 104.688L48.4404 104.524L48.4629 104.362L48.8125 101.854L48.7246 99.3467L48.7217 99.2627L48.7275 99.1797L48.9209 96.6729L48.6924 94.1475L48.6719 93.9199L48.7197 93.6963L49.2451 91.2559L49.1445 88.8027L49.1436 88.7617V88.7197L49.1826 86.0801L49.1924 83.4648L49.1865 80.8242V80.7881L49.2432 78.1494L49.2451 78.0488L49.2607 77.9502L49.6338 75.5576L49.2861 73.46L48.2158 73.2842L45.8125 73.3457ZM69.7031 75.7773L69.708 75.8232L69.709 75.8701L69.79 78.5088L69.793 78.5947L69.7852 78.6807L69.5732 81.1797L69.8525 83.668L69.8584 83.7236L69.8604 83.7793L69.958 86.418V86.4307L69.959 86.4443L70.0088 89.0479L70.1963 91.6406L70.2031 91.7266L70.1992 91.8125L70.0879 94.415L70.1309 97.0078V97.0547L70.0908 99.627L70.251 102.181L70.5479 104.773L70.5566 104.852L70.5576 104.93L70.582 107.555L70.6191 109.496L70.9111 109.487H70.9121L73.5234 109.403L74.7285 109.328L74.6611 107.298L74.4531 104.688L74.4404 104.524L74.4629 104.362L74.8125 101.854L74.7246 99.3467L74.7217 99.2627L74.7275 99.1797L74.9209 96.6729L74.6924 94.1475L74.6719 93.9199L74.7197 93.6963L75.2451 91.2559L75.1445 88.8027L75.1436 88.7617V88.7197L75.1826 86.0801L75.1924 83.4648L75.1865 80.8242V80.7881L75.2432 78.1494L75.2451 78.0488L75.2607 77.9502L75.6338 75.5576L75.29 73.4814L74.8564 73.5215L74.7939 73.5273H74.7314L72.0918 73.5479H72.001L71.9111 73.5381L69.4707 73.2607L69.7031 75.7773ZM65.6318 75.3066L65.6709 75.5439L65.6338 75.7812L65.2393 78.3115L65.1865 80.8174L65.1924 83.458V83.4668L65.1826 86.1074V86.124L65.1445 88.7197L65.25 91.3252L65.2568 91.5146L65.2178 91.7012L64.7002 94.1035L64.9199 96.5234L64.9316 96.6484L64.9219 96.7734L64.7246 99.3223L64.8145 101.886L64.8184 102.016L64.8008 102.145L64.4561 104.613L64.6533 107.097L64.6562 107.131L64.6572 107.165L64.7266 109.231L64.7969 109.305L65.582 109.254L65.7227 109.245L65.8613 109.262L67.207 109.426L67.6133 109.249L67.582 107.613V107.598L67.5576 105.034L67.2666 102.48L67.2627 102.443L67.2598 102.405L67.0938 99.7686L67.0898 99.71L67.0908 99.6514L67.1309 97.0312L67.0889 94.416L67.0879 94.3721L67.0898 94.3291L67.1982 91.7754L67.0137 89.2207L67.0107 89.1816L67.0098 89.1416L66.959 86.502V86.501L66.8633 83.9385L66.5762 81.3682L66.5605 81.2217L66.5723 81.0752L66.7891 78.5078L66.7119 76.0195L66.5303 74.043L66.0771 73.6719L65.3564 73.6426L65.6318 75.3066ZM52.6318 75.3066L52.6709 75.5439L52.6338 75.7812L52.2393 78.3115L52.1865 80.8174L52.1924 83.458V83.4668L52.1826 86.1074V86.124L52.1445 88.7197L52.25 91.3252L52.2568 91.5146L52.2178 91.7012L51.7002 94.1035L51.9199 96.5234L51.9316 96.6484L51.9219 96.7734L51.7246 99.3223L51.8145 101.886L51.8184 102.016L51.8008 102.145L51.4561 104.613L51.6533 107.097L51.6562 107.131L51.6572 107.165L51.7266 109.231L51.8604 109.37L52.373 109.334L52.4473 109.329L52.5225 109.331L54.3096 109.381L54.6133 109.249L54.582 107.613V107.598L54.5576 105.034L54.2666 102.48L54.2627 102.443L54.2598 102.405L54.0938 99.7686L54.0898 99.71L54.0908 99.6514L54.1309 97.0312L54.0889 94.416L54.0879 94.3721L54.0898 94.3291L54.1982 91.7754L54.0137 89.2207L54.0107 89.1816L54.0098 89.1416L53.959 86.502V86.501L53.8633 83.9385L53.5762 81.3682L53.5605 81.2217L53.5723 81.0752L53.7891 78.5078L53.7119 76.0195L53.5303 74.043L53.0771 73.6719L52.3564 73.6426L52.6318 75.3066ZM16.7969 92.3984L19.4375 92.6768L20.2852 92.7656L20.6426 93.54L21.4502 95.292L21.5742 95.5625L21.5869 95.8594L21.6934 98.5L21.6963 98.5879L21.6895 98.6768L21.4883 101.256L21.4795 103.845V103.989L21.4512 104.131L20.9912 106.46L20.7461 107.704L19.4775 107.669L16.8379 107.595L16.7705 107.593L16.7041 107.585L14.0635 107.272L12.9922 107.146L12.7715 106.09L12.3154 103.907L12.2754 103.716L12.2861 103.521L12.4219 100.97L12.2539 98.418L12.2451 98.2773L12.2617 98.1387L12.5693 95.625L12.4883 94.0771L12.4072 92.5H14.6211L14.6475 92.5273L16.5352 92.3945L16.666 92.3848L16.7969 92.3984ZM28.7969 92.3984L31.4375 92.6768L32.2852 92.7656L32.6426 93.54L33.4502 95.292L33.5742 95.5625L33.5869 95.8594L33.6934 98.5L33.6963 98.5879L33.6895 98.6768L33.4883 101.256L33.4795 103.845V103.989L33.4512 104.131L32.9912 106.46L32.7461 107.704L31.4775 107.669L28.8379 107.595L28.7705 107.593L28.7041 107.585L26.0635 107.272L24.9922 107.146L24.7715 106.09L24.3154 103.907L24.2754 103.716L24.2861 103.521L24.4219 100.97L24.2539 98.418L24.2451 98.2773L24.2617 98.1387L24.5693 95.625L24.4883 94.0771L24.4072 92.5H26.6211L26.6475 92.5273L28.5352 92.3945L28.666 92.3848L28.7969 92.3984ZM89.7969 92.3984L92.4375 92.6768L93.2852 92.7656L93.6426 93.54L94.4502 95.292L94.5742 95.5625L94.5869 95.8594L94.6934 98.5L94.6963 98.5879L94.6895 98.6768L94.4883 101.256L94.4795 103.845V103.989L94.4512 104.131L93.9912 106.46L93.7461 107.704L92.4775 107.669L89.8379 107.595L89.7705 107.593L89.7041 107.585L87.0635 107.272L85.9922 107.146L85.7715 106.09L85.3154 103.907L85.2754 103.716L85.2861 103.521L85.4219 100.97L85.2539 98.418L85.2451 98.2773L85.2617 98.1387L85.5693 95.625L85.4883 94.0771L85.4072 92.5H87.6211L87.6475 92.5273L89.5352 92.3945L89.666 92.3848L89.7969 92.3984ZM101.797 92.3984L104.438 92.6768L105.285 92.7656L105.643 93.54L106.45 95.292L106.574 95.5625L106.587 95.8594L106.693 98.5L106.696 98.5879L106.689 98.6768L106.488 101.256L106.479 103.845V103.989L106.451 104.131L105.991 106.46L105.746 107.704L104.478 107.669L101.838 107.595L101.771 107.593L101.704 107.585L99.0635 107.272L97.9922 107.146L97.7715 106.09L97.3154 103.907L97.2754 103.716L97.2861 103.521L97.4219 100.97L97.2539 98.418L97.2451 98.2773L97.2617 98.1387L97.5693 95.625L97.4883 94.0771L97.4072 92.5H99.6211L99.6475 92.5273L101.535 92.3945L101.666 92.3848L101.797 92.3984ZM15.5635 95.4697L15.5713 95.6025L15.5771 95.7324L15.5615 95.8613L15.2559 98.3623L15.4199 100.862L15.4258 100.95L15.4209 101.039L15.291 103.482L15.4873 104.419L16.9902 104.597L18.2939 104.634L18.4795 103.69L18.4893 101.194V101.14L18.4932 101.084L18.6914 98.5283L18.6006 96.2773L18.2744 95.5703L16.6104 95.3955L15.5635 95.4697ZM27.5635 95.4697L27.5713 95.6025L27.5771 95.7324L27.5615 95.8613L27.2559 98.3623L27.4199 100.862L27.4258 100.95L27.4209 101.039L27.291 103.482L27.4873 104.419L28.9902 104.597L30.2939 104.634L30.4795 103.69L30.4893 101.194V101.14L30.4932 101.084L30.6914 98.5283L30.6006 96.2773L30.2744 95.5703L28.6104 95.3955L27.5635 95.4697ZM88.5635 95.4697L88.5713 95.6025L88.5771 95.7324L88.5615 95.8613L88.2559 98.3623L88.4199 100.862L88.4258 100.95L88.4209 101.039L88.291 103.482L88.4873 104.419L89.9902 104.597L91.2939 104.634L91.4795 103.69L91.4893 101.194V101.14L91.4932 101.084L91.6914 98.5283L91.6006 96.2773L91.2744 95.5703L89.6104 95.3955L88.5635 95.4697ZM100.563 95.4697L100.571 95.6025L100.577 95.7324L100.562 95.8613L100.256 98.3623L100.42 100.862L100.426 100.95L100.421 101.039L100.291 103.482L100.487 104.419L101.99 104.597L103.294 104.634L103.479 103.69L103.489 101.194V101.14L103.493 101.084L103.691 98.5283L103.601 96.2773L103.274 95.5703L101.61 95.3955L100.563 95.4697ZM15.7256 85H18V85.1963L17.9873 85.292L17.8135 86.6357L17.9199 87.9775L18.0742 88.6777L18.4756 90.5H16.5V89.0244L15.1445 89.3223L14.9688 88.5225L14.9463 88.4209L14.9375 88.3184L14.8115 86.7188L14.7988 86.5625L14.8193 86.4082L15.0127 84.9082L15.7256 85ZM27.7256 85H30V85.1963L29.9873 85.292L29.8135 86.6357L29.9199 87.9775L30.0742 88.6777L30.4756 90.5H28.5V89.0244L27.1445 89.3223L26.9688 88.5225L26.9463 88.4209L26.9375 88.3184L26.8115 86.7188L26.7988 86.5625L26.8193 86.4082L27.0127 84.9082L27.7256 85ZM88.7256 85H91V85.1963L90.9873 85.292L90.8135 86.6357L90.9199 87.9775L91.0742 88.6777L91.4756 90.5H89.5V89.0244L88.1445 89.3223L87.9688 88.5225L87.9463 88.4209L87.9375 88.3184L87.8115 86.7188L87.7988 86.5625L87.8193 86.4082L88.0127 84.9082L88.7256 85ZM100.726 85H103V85.1963L102.987 85.292L102.813 86.6357L102.92 87.9775L103.074 88.6777L103.476 90.5H101.5V89.0244L100.145 89.3223L99.9688 88.5225L99.9463 88.4209L99.9375 88.3184L99.8115 86.7188L99.7988 86.5625L99.8193 86.4082L100.013 84.9082L100.726 85ZM45.1836 81H48V81.1572L47.9961 81.2139L47.8086 83.666L47.9287 86.1631L48.1016 87.8477L48.2705 89.5H46.5V88.0107L45.1172 88.1523L44.9414 86.4326L44.9365 86.3926L44.9346 86.3516L44.8086 83.7119L44.8037 83.6191L44.8105 83.5264L45 81.0381V81H45.002L45.0039 80.9863L45.1836 81ZM61 81.0352L61.1055 83.5781L61.1172 83.6836L61.1055 83.8008L60.8359 86.2617L61.0703 87.7734L61.3281 89.4961H59.5V88.0078L58.1055 88.2188L57.8477 86.4961L57.8242 86.3086L57.8359 86.1211L58.0938 83.625L58 81.1641V81H61V81.0352ZM74 81.0352L74.1055 83.5781L74.1172 83.6836L74.1055 83.8008L73.8359 86.2617L74.0703 87.7734L74.3281 89.4961H72.5V88.0078L71.1055 88.2188L70.8477 86.4961L70.8242 86.3086L70.8359 86.1211L71.0938 83.625L71 81.1641V81H74V81.0352ZM63.1016 65.4873L63.0547 65.4893L60.4492 65.5137L58.1729 65.6689L58.0029 65.6973L57.7939 65.7314L57.584 65.707L57.3096 65.6738L55.0957 65.5713L52.4893 65.5879H52.4629L49.8232 65.5576H49.7676L49.7119 65.5527L49.3145 65.5186L47.1943 65.5107H47.1396L47.084 65.5068L46.2646 65.4424L44.7246 65.6133L44.6387 65.623H44.5527L41.9121 65.6094H41.8662L41.8203 65.6064L40.7383 65.5332L39.4248 65.6611L39.2734 65.6758L39.123 65.6602L36.5928 65.3936L35.6025 65.4365L35.5518 67.8711V67.8809L35.4932 69.999L35.8389 70.4619L36.9336 70.4004L37.6582 68.126L38.9102 70.5088L39.9785 70.665L40.7002 70.6943L41.2031 70.7148L41.2402 70.7451L42.9307 70.751L45.4541 70.3662L45.5469 70.3525L45.6416 70.3496L48.2812 70.2822L48.4238 70.2783L48.5635 70.3018L49.8955 70.5205L50.6582 68.126L51.915 70.5176L53.333 70.2627L53.5664 70.2207L53.8018 70.252L56.335 70.5957L58.8145 70.5791L61.3994 70.3701L61.502 70.3623L61.6055 70.3682L62.9209 70.4424L63.6582 68.126L64.9326 70.5518L66.7227 70.6396L69.2168 70.2656L69.4121 70.2363L69.6084 70.2578L72.1562 70.5469L74.6406 70.5273L75.9307 70.4092L76.6582 68.126L77.8174 70.3311L80.0762 70.6123L82.6152 70.5703H82.6719L84.3467 70.6055L84.7002 69.8711L84.2998 67.7139L84.2549 67.4717L84.29 67.2275L84.501 65.7471L83.8008 65.4619L83.3086 65.415L81.7266 65.6357L81.6084 65.6523L81.4883 65.6494L79.5527 65.6084L79.1396 65.6816L78.8789 65.7275L78.6191 65.6816L78.2109 65.6094L76.2734 65.6523L76.2607 65.6533H76.249L73.624 65.668L73.625 65.6689L70.9844 65.7129L70.9062 65.7139L70.8281 65.707L69.0537 65.5488L68.3691 65.5723L68.2529 65.5762L68.1387 65.5615L67.0986 65.4336L65.6846 65.3818L63.1016 65.4873ZM59.373 49.4248L57.2578 50.2939L55.4287 51.877L55.376 51.9219L55.3203 51.9629L53.1709 53.5L53.043 53.5908L52.8994 53.6543L50.5596 54.6777L48.5635 55.9619L46.7471 57.7334L46.5869 57.8896L44.1514 59.1494L42.1709 60.6885L42.043 60.7891L41.8955 60.8594L39.6719 61.917L39.085 62.4229L39.3516 62.4346L39.3662 62.4355L39.3799 62.4365L40.6924 62.5234L41.7754 62.4189L41.8174 62.415L41.8594 62.4131L44.5 62.3066L44.5879 62.3037L44.6768 62.3105L46.2188 62.4307L47.0352 62.3408L47.1816 62.3242L47.3281 62.3369L49.4482 62.5186L49.7891 62.5205L52.373 62.334L52.4473 62.3291L52.5225 62.3311L55.1621 62.4053L55.2295 62.4072L55.2959 62.415L57.5703 62.6846L57.7363 62.6924L57.8311 62.6855L60.1572 62.3037L60.3174 62.2773L60.4795 62.2861L63.0293 62.4219L65.582 62.2539L65.7227 62.2451L65.8613 62.2617L67.334 62.4414L68.376 62.4805L68.4141 62.4824L68.4521 62.4854L69.1338 62.5449L70.9111 62.4873H70.9121L73.5234 62.4033L76.1475 62.2402L76.3252 62.2295L76.501 62.2598L78.4443 62.6035L78.8467 62.5957L78.8789 62.5947L78.9111 62.5957L79.3203 62.6035L80.7354 62.3555L80.1914 62.082L80.0752 62.0234L79.9707 61.9453L77.9219 60.4229L75.7041 59.1279L75.5957 59.0645L75.5 58.9844L73.6318 57.4277L71.3633 56.4873L71.1875 56.4141L71.0352 56.2998L68.9453 54.7285L66.7949 53.2881L66.7812 53.2783L64.6035 51.7852L64.5957 51.7803L62.4561 50.2939L60.7549 49.1719L59.373 49.4248ZM65.709 33.9023L65.6953 33.9062L65.6816 33.9092L63.124 34.5742L63.041 34.5957L62.9551 34.6084L61.7129 34.7822L61.6328 36.7295L61.6211 38.0049L62.1455 38.0723L64.4248 37.4834L64.4629 37.4727L64.502 37.4648L66.9775 36.9629L68.1387 36.54L68.0107 35.0449L67.998 34.8984L68.0146 34.752L68.165 33.3848L67.8555 33.2998L65.709 33.9023Z" fill="black"/>
</svg>
