<svg width="120" height="120" viewBox="0 0 120 120" fill="none" xmlns="http://www.w3.org/2000/svg">
<path d="M39.875 20.127H42.7227V20.3379L42.5234 22.7988L42.6523 25.3066L42.8281 27.9434V28.0371L42.832 28.8154L43.625 28.8379L44.2695 28.8496L44.7031 29.3418L46.1094 30.9238L46.4492 31.2988L46.4844 31.8027L46.6953 34.4395V34.4629L46.708 34.6611L47.4727 34.6758H47.543L47.6133 34.6875L50.25 34.9922L50.5078 35.0273L50.7422 35.1445L53.1445 36.3398L53.918 36.7148L53.9766 37.5703L54.1641 40.0781L54.1875 40.4766L54.0234 40.8281L52.9219 43.1602L52.9102 43.1719V43.1836L51.832 45.3633L51.7734 45.4805L51.6914 45.5859L50.1211 47.7422L50.0508 47.8359L49.9805 47.9062L48.1992 49.7344L47.8008 50.1445L47.2266 50.1797L46.6514 50.2158L46.5234 51.7988L46.6523 54.2598L46.6855 54.5898L47.0156 54.6035L49.6055 54.5918H49.7227L49.8398 54.6152L52.3359 55.002L54.8086 54.8613L55.5469 54.8262L56.0273 55.3887L57.5039 57.1113L57.9258 57.6152L57.8555 58.2598L57.5625 60.7324L57.7148 63.2871L57.7266 63.3691V63.4512L57.5957 65.8027L59.9062 66.0137L62.3672 65.873V65.8613L64.6504 65.6465L64.6055 64.3652V64.248L64.7109 61.6113L64.7344 59.0215V58.9746L64.7461 58.9277L64.9219 56.3613L64.793 53.8184V53.7363L64.8164 51.123L64.7812 48.4863L64.793 48.4746L64.5586 45.9551L64.5 45.2285L65.0391 44.7363L66.6445 43.2363L67.0781 42.8379H67.6523L70.207 42.8262L72.8438 42.6387H72.8789L75.5156 42.5215L75.5859 42.5098L75.6562 42.5215L77.21 42.5957L77.0039 40.2285L76.9922 40.0762L77.0039 39.9355L77.2969 37.2988L77.2734 34.8262L77.2852 34.8145L77.0977 32.2832V32.2598L76.9688 29.6348L76.957 29.459L76.9922 29.2832L77.4258 26.9512L78.2812 27.127H78.9023L80.4023 27.1504L80.3965 27.1973L80.5 27.3418L82.4102 28.4785L84.8242 29.5918L84.8594 29.6152L84.8945 29.627L87.2383 30.8691L87.2852 30.8926L87.332 30.9277L89.5352 32.3105L91.8086 33.6582L91.8438 33.6816L91.8789 33.7168L93.9648 35.123L96.2617 36.3535L96.8477 36.6699L97.0117 37.3262L97.5859 39.7051L97.6328 39.8691V40.0449L97.6562 42.6816L97.8789 45.2129L97.8906 45.3535L97.8672 45.5059L97.5859 48.1426L97.5977 50.6152L97.7148 53.2051L97.7285 53.4922L99.0117 54.7129L101.145 55.8379L103.863 57.1973L104.086 57.5254L105.527 59.6699L105.832 60.1152L105.773 60.666L105.492 63.1855L105.703 65.6582L105.715 65.7168V65.7754L105.738 68.4121V68.4355L105.715 71.0723L105.832 73.6387L105.844 73.7207L105.832 73.8145L105.656 76.4512L105.633 79.0059V79.041L105.527 81.6895L105.621 84.127L105.855 86.7754L105.867 86.8457V86.9277L105.832 89.5645L105.82 92.1895V92.2129L105.773 94.8496L105.832 97.4277L105.844 97.5449L105.82 97.6621L105.48 100.158L105.633 102.584L105.914 105.221L105.938 105.385L105.914 105.549L105.621 108.092L105.785 110.576L105.797 110.658V110.74L105.656 113.189L105.839 114.245L105.969 114.266L108.406 114.746L110.809 114.5L110.891 114.488H110.973L112.016 114.5L112.004 116L111.98 117.5L110.984 117.488L108.477 117.746L108.254 117.77L108.031 117.734L105.57 117.242L103.145 117.254L100.648 117.688L100.496 117.711L100.332 117.699L97.6953 117.594H97.625L97.5547 117.582L95.1523 117.242L92.7617 117.711L92.5273 117.758L92.293 117.734L89.7383 117.406L87.207 117.418L87.1953 117.406L84.6055 117.488H84.5938L81.957 117.547H81.9336L79.3672 117.559L79.3789 117.57L76.7422 117.746L76.5547 117.758L73.9297 117.266L71.5391 117.547L71.4102 117.559H71.2812L68.7266 117.418L66.1719 117.582H66.043L65.9141 117.57L63.418 117.289L60.957 117.559H60.8867L58.25 117.711L58.0977 117.723L57.957 117.699L55.4141 117.348L52.9062 117.406H52.8477L50.2109 117.348V117.336H47.5742L44.9492 117.289L42.4531 117.512L42.418 117.523H42.3711L39.7344 117.617H39.6172L36.9805 117.512V117.5L34.3906 117.488H34.3438L34.2969 117.477L31.7188 117.301L29.1875 117.43H29.1055L26.4688 117.418V117.406L23.9609 117.43L21.3242 117.664L21.1836 117.676L21.0312 117.664L18.5 117.383L15.9219 117.395V117.383L13.3789 117.559H13.3672L13.3555 117.57L10.707 117.688L10.6133 117.699L10.5312 117.688L7.98828 117.5L8 117.277V114.5H8.21094L9.74023 114.623L9.76953 112.596L9.73438 110.041L9.54688 107.404L9.53516 107.205L9.58203 106.994L10.0859 104.568L9.98047 102.072L9.96875 101.838L10.0391 101.615L10.7539 99.0723L10.7773 98.9902L10.8125 98.8965L11.8203 96.4707L11.9258 96.2363L12.0898 96.0488L13.8477 94.0801L15.3711 92.0645L15.4531 91.9473L15.5586 91.8535L17.5273 90.0723L17.7148 89.8965L17.9492 89.8027L20.3867 88.748L22.7891 87.7168L22.9297 87.6582L23.0703 87.623L25.625 87.0605L25.8125 87.0371L28.4141 86.8027L28.543 86.791L28.6602 86.8027L31.2266 87.002L31.8691 86.9805L32.1445 85.3652L32.0156 82.8926L31.8281 80.2559V80.1621L31.8164 77.5254V77.4316L31.8281 77.3496L32.0977 74.8418L31.8867 72.3574L31.875 72.3105V72.252L31.8516 69.6035V69.5801L31.875 67.0254L31.7461 64.377V64.2949L31.7578 64.2129L31.9336 61.5645L31.957 59.0215V58.9043L31.9805 58.7871L32.3906 56.3379L32.5664 55.2598L33.6562 55.1074L36.1992 54.7441H36.2344L36.6768 54.6924L36.6641 54.5645V54.5176L36.6523 54.4824L36.5352 51.834L36.5234 51.7402L36.5352 51.6582L36.6494 50.1094H36.4102L36.1289 49.9922L33.9258 49.0547L33.4922 48.8672L33.2461 48.4688L31.8398 46.2305L31.7578 46.0898L31.6992 45.9375L31.1719 44.4609L31.043 44.2969L29.332 42.2461L29.1094 41.9766L29.0273 41.6367L28.4062 39.0117L28.1953 38.1211L28.8867 37.5234L30.9141 35.8008L31.207 35.543L31.582 35.4727L34.1484 34.9336L34.2539 34.9102L34.3711 34.8984L36.8984 34.7646L37.0039 33.4434H36.9922L37.0742 30.8887L37.1094 29.7754L38.1758 29.4824L39.833 29.0273L39.8281 28.0605L39.8398 28.0488L39.6641 25.5059V25.4941L39.6523 25.4824L39.5352 22.834L39.5234 22.7402L39.5352 22.6582L39.7227 20.1152L39.875 20.127ZM73.0312 45.627L73.043 45.6387L70.4062 45.8145H70.3242L68.25 45.8262L67.6172 46.4238L67.7812 48.3457V48.4512L67.8164 51.0996V51.123L67.793 53.7598L67.9102 56.3262L67.9219 56.4082L67.9102 56.4902L67.7344 59.1387L67.7109 61.6816V61.7285L67.6055 64.377L67.6504 65.5352L67.7344 65.5332L67.8281 65.5215L67.9336 65.5332L70.5703 65.8027L70.9336 65.8379L71.2383 66.0371L73.0195 67.1973L73.6992 67.6309V68.4395L73.7344 71.0527V71.0879L73.7227 73.7246L73.8398 76.291L73.8516 76.373L73.8398 76.4668L73.6641 79.1152L73.6406 81.6582V81.7051L73.5352 84.3535L73.6289 86.8027L73.8633 89.4395V89.6035L73.8164 92.2402L73.8047 94.8652V94.8887L73.7461 97.5254L73.8047 100.115V100.232L73.7812 100.35L73.4297 102.834L73.582 105.271L73.8633 107.896L73.875 108.061L73.8516 108.225L73.5586 110.779L73.7227 113.264L73.7344 113.369L73.7227 113.475L73.6533 114.285L73.8242 114.266L74.0586 114.23L74.2812 114.277L76.7305 114.734L77.2383 114.702L77.5078 113.705L77.0742 111.408L77.0273 111.162L77.0508 110.928L77.3906 108.373V105.889L77.3203 103.24L77.25 100.604V100.592L77.2031 97.9551L77.2148 97.9434L76.9922 95.4121L76.9805 95.2363L77.0039 95.0605L77.4023 92.6113L77.0391 90.2324L77.0156 90.0918L77.0273 89.9629L77.0977 87.3262L76.957 84.8184L76.9453 84.666L76.9688 84.5254L77.3086 82.041L77.1328 79.5566V79.5332L76.9688 76.9082V76.7676L76.9805 76.6387L77.2734 74.1074L77.1914 71.5879V71.459L77.3086 68.8926L77.3203 66.2441L77.332 63.7129L77.1562 61.0762V61.0293L77.0625 58.3809V58.2988L77.1211 55.7441L77.0391 53.1074V52.9551L77.2148 50.3184L77.1211 47.834V47.7871L77.1006 45.5811L75.5859 45.5098L73.0312 45.627ZM65.2617 68.5918L65.2734 68.6035L62.6484 68.8496H62.5898L59.9531 69.0137H59.8359L59.7305 69.002L57.8838 68.8398L57.8672 68.9238L57.4102 71.373L57.5742 73.834V73.916L57.5977 76.541L57.6562 79.166L57.7266 81.8145V81.8496L57.7383 84.4863V84.5801L57.7266 84.6855L57.4102 87.0762L57.8789 89.4902L57.9258 89.7246L57.8906 89.9707L57.5508 92.4785L57.4453 94.9629L57.8672 97.4473L57.8906 97.5645V97.6816L57.9141 100.318V100.471L57.8789 100.623L57.3984 103.025L57.6562 105.463L57.668 105.592L57.6562 105.721L57.4688 108.193L57.832 110.678L57.8672 110.877L57.8438 111.076L57.5156 113.619L57.5 114.618L58.2148 114.723L60.7109 114.559V114.57L63.2891 114.289L63.4414 114.277L63.6055 114.289L66.0898 114.582L68.6328 114.43L68.7148 114.418L68.7969 114.43L70.623 114.522L70.7227 113.311L70.5703 110.791L70.5586 110.662L70.582 110.533L70.8516 108.037L70.5938 105.576V105.518L70.4297 102.869V102.717L70.4414 102.576L70.793 100.033L70.7461 97.5254V97.4668L70.8047 94.8535L70.8164 92.2051V92.1934L70.8633 89.5449L70.6406 87.0605L70.6289 87.0254V86.9902L70.5352 84.3535V84.2363L70.6406 81.5879L70.6641 78.998V78.9043L70.8398 76.3262L70.7227 73.7949V73.7129L70.7344 71.0996L70.6992 69.2715L69.9023 68.7441L67.6641 68.5215L65.2617 68.5918ZM92.6523 56.3066L92.8281 58.9434V59.0371L92.8398 61.6738L92.8516 61.7676L92.8398 61.8496L92.5586 64.3574L92.7695 66.8418L92.7812 66.8887V66.9473L92.8047 69.5957V69.6191L92.793 72.2559L92.9102 74.8223L92.9219 74.9043L92.9102 74.9863L92.7344 77.6348L92.7109 80.1777V80.2246L92.6055 82.873L92.6992 85.3105L92.9336 87.959V88.1113L92.8867 90.748L92.875 93.373V93.3965L92.8164 96.0449L92.875 98.6113V98.7402L92.8633 98.8574L92.5 101.342L92.6641 103.838L92.9336 106.416L92.9453 106.568L92.9336 106.732L92.6406 109.217L92.793 111.76L92.8047 111.842L92.793 111.924L92.6641 114.432L92.6846 114.683L94.8359 114.266L95.082 114.219L95.3164 114.254L97.8945 114.605L100.273 114.711L102.793 114.277L102.805 114.275L102.68 113.553L102.656 113.4L102.668 113.236L102.797 110.67L102.633 108.115L102.621 107.986L102.645 107.857L102.914 105.373L102.645 102.9V102.842L102.48 100.193L102.469 100.053L102.492 99.9004L102.832 97.3691L102.773 94.8613V94.791L102.82 92.1777L102.832 89.541V89.5293L102.867 87.0449L102.633 84.3965V84.3262L102.527 81.6895V81.5605L102.633 78.9238L102.656 76.334V76.2402L102.832 73.6738L102.715 71.1309V71.0488L102.738 68.4355L102.715 65.916L102.492 63.2676L102.48 63.127L102.492 62.9863L102.715 60.8887L101.801 59.5176L99.7852 58.5098H99.7734L97.4414 57.2793L97.2539 57.1855L97.1016 57.0332L95.2617 55.2871L95.168 55.1934L95.3086 55.0508L94.4336 55.2793L93.8828 55.4199L93.3789 55.1504L92.5713 54.7383L92.6523 56.3066ZM12.9805 102.178L13.0859 104.604L13.0977 104.791L13.0508 104.967L12.5586 107.369L12.7344 109.83V109.924L12.7695 112.561V112.596L12.7412 114.602L13.1797 114.582V114.57L15.8164 114.395H15.9102L18.5469 114.383L18.6406 114.371L18.7227 114.383L21.2305 114.664L23.7148 114.453L23.7617 114.441H23.8203L26.4688 114.418H26.4922L29.0469 114.43L31.6953 114.312L31.7773 114.301L31.8594 114.312L34.5078 114.488L34.4961 114.5L37.0508 114.512H37.0977L39.6875 114.617L42.1836 114.535L44.832 114.289H44.9844L45.9248 114.306L45.9102 114.283L45.8867 113.873L45.7461 111.26L45.5469 108.623L45.5352 108.576V108.529L45.5 105.893V105.717L45.7461 103.361L45.4795 102.503L44.5469 102.428L42.0391 102.545L42.0508 102.557L39.4023 102.732H39.3203L36.6719 102.744L36.5898 102.756L36.4961 102.744L33.9766 102.463L31.5156 102.674L31.457 102.686H31.3984L28.7617 102.709H28.7266L26.1602 102.697L23.5234 102.814L23.4414 102.826L23.3594 102.814L20.7227 102.639V102.627L18.1562 102.615H18.1094L15.543 102.51L13.3047 102.627L13.2314 101.291L12.9805 102.178ZM80.0977 32.0723L80.2734 34.7207V34.8145L80.2969 37.4512V37.5332L80.2852 37.627L80.0039 40.1348L80.2148 42.6191L80.2266 42.7129L80.2148 42.8184L80.0977 45.209L80.1211 47.7285L80.2148 50.3652V50.4473L80.2031 50.5176L80.0391 53.1543L80.1211 55.6504V55.7207L80.0625 58.3691L80.1562 60.877L80.3203 63.5137L80.332 63.5723V63.6191L80.3203 66.2559L80.3086 68.9043V68.9629L80.1914 71.5996L80.2734 74.1191L80.2852 74.2246L80.2734 74.3418L79.9688 76.8262L80.1211 79.3457L80.3086 81.9941L80.3203 82.1465L80.2969 82.2988L79.9453 84.7832L80.0977 87.2793V87.4082L80.0156 89.8926L80.3906 92.4238L80.4258 92.6465L80.3906 92.8809L79.9922 95.3535L80.2031 97.8027V97.8965L80.25 100.521L80.3086 103.158L80.3906 105.807V108.584L80.3789 108.678L80.0508 111.068L80.5195 113.482L80.5781 113.822L80.4961 114.15L80.3848 114.564L81.8867 114.559V114.547L84.5234 114.488L87.1602 114.418H87.1953L89.6641 114.406L89.8047 111.842L89.6406 109.299V109.17L89.6523 109.041L89.9336 106.545L89.6641 104.084V104.014L89.5117 101.377L89.5 101.225L89.5234 101.084L89.875 98.541L89.8164 96.0332V95.9746L89.875 93.3613L89.8867 90.7129V90.7012L89.9336 88.0645L89.7109 85.5801L89.6992 85.5449V85.498L89.6055 82.8613V82.7441L89.7109 80.1074L89.7344 77.5176V77.4707L89.7461 77.4238L89.9219 74.8457L89.793 72.3145V72.2324L89.8047 69.5957H89.8164L89.7812 67.0996L89.5586 64.4512L89.5469 64.3105L89.5586 64.1582L89.8398 61.627L89.8281 59.0488L89.6641 56.5059V56.4941L89.6523 56.4824L89.5352 53.834L89.5234 53.7402L89.5352 53.6582L89.7227 51.1152L89.875 51.127H91.0176L91.3047 50.7324L92.0781 51.127H92.7227V51.3379L92.7129 51.4502L94.2227 52.2207L94.6562 52.1152L94.5977 50.6855V50.627L94.5859 47.9785V47.8965L94.5977 47.8145L94.8672 45.3066L94.6562 42.8223V42.7051L94.6328 40.2676L94.2461 38.6738L92.5234 37.7598L92.4531 37.7246L92.3945 37.6777L90.2734 36.2363L88 34.9004L87.9883 34.8887L87.9648 34.877L85.7266 33.459H85.7148L83.5703 32.3223L81.1562 31.209L81.0859 31.1738L81.0156 31.127L80.0156 30.5312L80.0977 32.0723ZM39.9922 57.623H38.2227V57.5264L36.6094 57.709L35.1562 57.9199L34.9453 59.1387L34.9336 61.6934V61.7285L34.9219 61.7754L34.7461 64.3418L34.8633 66.8848L34.875 66.9199V66.9668L34.8516 69.6035L34.875 72.0996L35.0977 74.748L35.1094 74.8887L35.0977 75.041L34.8164 77.5254L34.8281 80.0566L35.0039 82.6934V82.7168L35.1445 85.3535V85.5176L35.1211 85.6816L34.8643 87.2109L36.7812 87.9395L36.875 87.9746L36.957 88.0215L39.2891 89.2754L39.3711 89.3223L39.4414 89.3691L41.6094 90.8809L41.7266 90.9629L41.832 91.0801L43.6484 92.9902L43.6719 93.0137L45.4297 94.959L45.5352 95.0762L45.6172 95.2168L46.918 97.4902L46.9883 97.6074L47.0352 97.7363L47.9023 100.197L47.9141 100.221L47.9258 100.256L48.7109 102.775L48.793 103.08L48.7695 103.385L48.5 105.869L48.5352 108.389L48.7344 111.037V111.061L48.8633 113.299L49.4609 114.189L49.5605 114.348H50.2695L52.8711 114.406L54.5029 114.369L54.5156 113.514V113.432L54.5273 113.35L54.832 110.865L54.4805 108.463L54.457 108.299L54.4688 108.135L54.6562 105.615L54.3984 103.131L54.375 102.908L54.4219 102.686L54.9023 100.166L54.8906 97.7988L54.4688 95.3027L54.4336 95.1504L54.4453 94.9863L54.5508 92.3496V92.2793L54.5625 92.209L54.8906 89.8066L54.4336 87.416L54.3867 87.1816L54.4102 86.9355L54.7266 84.3926V81.8496L54.6562 79.248L54.5977 76.5996V76.5879L54.5742 74.0332L54.3984 71.3965L54.3867 71.1973L54.4219 71.0098L54.8672 68.6191L54.5977 66.1816L54.5859 66.0645V65.9355L54.7266 63.3691L54.5625 60.8262V60.6973L54.5742 60.5684L54.7852 58.5645L54.2227 57.8965L52.3242 58.002H52.1719L52.0195 57.9785L49.4531 57.5918L46.9902 57.6025L46.9922 57.623H45.2227V57.5312L44.2734 57.498V57.4863L41.6719 57.4629L39.9736 57.4395L39.9922 57.623ZM26.2109 90.002L23.832 90.5176L21.582 91.502H21.5703L19.3555 92.4512L17.6562 93.9863L16.168 95.9785L16.1328 96.0254L16.0859 96.0723L14.4922 97.8418L13.7637 99.5947L15.4609 99.5098H15.5898L18.2383 99.6152L18.2266 99.627L20.8398 99.6387H20.875L20.9219 99.6504L23.4883 99.8262L26.0312 99.6973H26.1133L28.75 99.709L28.7383 99.7207L31.2578 99.6973V99.6855L33.8945 99.4629L34.0469 99.4512L34.1875 99.4629L36.7188 99.7441L39.2969 99.7324V99.7441L41.8516 99.5684L41.875 99.5566L44.4531 99.4424L44.2578 98.8965L43.1094 96.8691L41.4453 95.0293V95.0176L39.7461 93.2363L37.8359 91.9004L35.6328 90.7168L33.5352 89.9082L31.2148 89.9902L31.1328 90.002L31.0508 89.9902L28.5664 89.791L26.2109 90.002ZM39.5234 51.7988L39.6523 54.2598L39.6699 54.4355L43.6543 54.4883L43.6523 54.4824L43.5352 51.834L43.5234 51.7402L43.5352 51.6582L43.6309 50.3555H41.8828L41.8008 50.3438L39.6572 50.1348L39.5234 51.7988ZM45.3984 44.2383L45.4102 44.25L42.7734 44.4258H42.6797L40.043 44.4375H39.9492L39.8672 44.4258L37.4062 44.1445L34.9102 44.3555L34.3594 44.4609L34.4766 44.7773L35.5312 46.4766L37.0078 47.0977L39.2812 47.0859H39.3516L39.4336 47.0977L41.9883 47.3555H44.4844L46.4531 47.2266L47.7188 45.9258L48.8086 44.4375L47.7891 44.1211L45.3984 44.2383ZM42.3281 37.6406L39.7969 37.9453L39.668 37.957L39.5273 37.9453L37.0664 37.7578L34.6055 37.8867L32.5781 38.3203L31.5352 39.2109L31.8633 40.5938L32.7773 41.707L34.4766 41.3906L34.5469 41.3789H34.6289L37.2656 41.1562L37.4062 41.1445L37.5586 41.1562L40.0781 41.4258H42.5742L45.2109 41.25H45.2344L47.8711 41.1211L48.1289 41.1094L48.3867 41.1797L50.2617 41.7305L51.1406 39.8906L51.0469 38.6367L49.6172 37.9336L47.3672 37.6641L44.8242 37.6289L42.3281 37.6406ZM40.0273 32.084L39.9922 33.5371V33.5957L39.8896 34.9102L42.1055 34.6641L42.1758 34.6523H42.2578L43.7031 34.6387L43.5312 32.5293L42.8867 31.8145L41.1758 31.7676L40.0273 32.084Z" fill="black"/>
</svg>
