<svg width="120" height="120" viewBox="0 0 120 120" fill="none" xmlns="http://www.w3.org/2000/svg">
<path d="M35.4951 13.0049L36.8779 12.9932L36.8896 15.9932V16.0049L36.8926 16.0615L37.1074 17L38.918 16.8945H38.9883L41.9883 16.8828L43.5 16.8711V18.5H42L42.0117 19.8828L39.0117 19.8945H39L37.7852 19.9619L37.8359 20.1836L38.5039 23.1133L38.5156 23.1367L38.5273 23.1719L39.0547 26.0078L40.1094 28.6562L40.1562 28.7617L40.1797 28.8672L40.8125 31.6562L41.7969 34.6094L41.8203 34.7148L42.3008 37.4805L43.5312 40.0586L43.6016 40.2109L43.6367 40.375L44.2812 43.3164L45.0664 46.1289H45.0781V46.1406L46.6016 51.9531L46.5898 51.9648L47.3516 54.625L46.9297 54.7451L47.5928 55.0811L47.5879 56.0088L47.5713 58.959L47.6934 61.9385L47.6963 62.0146L47.6914 62.0898L47.5146 65.0371L47.4893 68.0127L47.4883 68.0332V68.0537L47.3818 70.998L47.4766 73.9004L47.708 76.8838L47.7139 76.9531L47.7129 77.0215L47.6689 80.0215L47.6533 83.0078L47.6514 83.3896L47.5801 83.5166L49.8516 83.291L49.9941 83.2764L50.1377 83.29L53.1377 83.5674L53.1855 83.5713L53.207 83.5273L54.5078 80.8086L54.5898 80.6211L54.7188 80.4688L56.6055 78.2891L57.918 75.7812L57.9414 75.7578L57.9531 75.7227L59.4883 73.168L59.4766 73.1562L60.9766 70.5664L62.4766 67.9648V67.9414L62.4883 67.9297L64.0352 65.3633L64.082 65.2812L64.1289 65.2227L65.8516 63.0195L66.8945 60.3594L66.9766 60.1602L67.1055 59.9961L68.8984 57.7109L70.4688 55.3203L71.5938 52.6484L71.9453 51.8164L72.8477 51.7344L74.8281 51.582L75.9414 51.4883L76.3516 52.5312L77.3945 55.1797L79.0586 57.4414L79.1289 57.5469L79.1875 57.6523L80.5 60.2188L82.2695 62.4688L82.375 62.6094L82.4453 62.7617L83.6641 65.4219L85.1055 67.8594L86.957 70.0859L87.0273 70.168L87.0859 70.2617L88.668 72.8047L88.7266 72.8867L88.7617 72.9688L89.957 75.5703L91.6211 77.9375L91.668 78.0078L91.7148 78.0898L93.1094 80.6914L94.7031 83.1406L94.8789 83.3984L94.9258 83.6914L95.4414 86.5625L95.4648 86.75L95.6172 89.75V89.8555L95.6055 89.9492L95.3594 92.9492L95.2891 95.8203V98.7031L95.5234 101.703V101.738L95.6992 104.738L95.7109 104.82V104.902L95.5469 107.902L95.6289 110.785L95.6406 110.902L95.6172 111.02L95.2539 113.938L95.2959 114.48L97.9648 114.418H98L101 114.406H101.164L103.918 114.734L106.754 114.254L106.965 114.219L107.176 114.242L110.082 114.594L112.086 114.711L112.016 116H113.504V117.793L111.922 117.699L109.918 117.594H109.871L109.824 117.582L107.023 117.254L104.246 117.723L104.035 117.758L103.836 117.734L100.941 117.406L98 117.418V117.406L95.0352 117.488H95.0234L92.0234 117.547H92.0117L89.0703 117.559L89.082 117.57L86.3643 117.729L86.3555 117.758L86.1221 117.743L86.082 117.746L85.918 117.758L85.7539 117.723L85.7412 117.72L85.1953 117.688L83.8711 117.609L82.0117 117.617L81.9297 117.629L81.8594 117.617L80.6514 117.494L80.1523 117.547L80.0469 117.559H79.9297L77.5283 117.442L76.1172 117.559H76.0117L74.2549 117.572L74.082 117.582H73.9648L73.8955 117.574L73.0117 117.582H72.9883L70.416 117.571L70.3555 117.758L69.1953 117.688L68.3398 117.637L67.0586 117.688L66.9883 117.699L66.9062 117.688L66.2734 117.65L65.082 117.711L64.9531 117.723L64.8125 117.711L63.1055 117.496L60.9883 117.488H60.9414L58.2666 117.392L57.9141 117.385L55.0469 117.477L54.1797 117.512L54.1016 117.384L53.9404 117.734L52.9385 117.693L49.9678 117.571L47.0088 117.588H46.9854L45.4727 117.572L44.0469 117.617H43.9414L40.9414 117.512V117.5L39.3965 117.493L38.1445 117.616L38.0693 117.623H37.9932L34.9932 117.609H34.9531L34.9121 117.606L31.9121 117.431V117.43L31.9033 117.429L29 117.418L27.2783 117.425L26.2002 117.497L26.1504 117.5H25.209L23.1172 117.664L22.9883 117.676L22.8594 117.664L19.9766 117.383L17.0117 117.395L17 117.383L14.082 117.559L14.0703 117.57H14.0586L11.0586 117.688L10.9766 117.699L10.8945 117.688L8 117.5V114.5H8.19922L11.0352 114.699L13.918 114.582V114.57L16.918 114.395H16.9883L19.9883 114.383L20.0703 114.371L20.1406 114.383L23.0234 114.676L24.5234 114.553L24.748 112.06L24.2627 109.255L24.2402 109.124L24.2412 108.99L24.2598 105.99L24.2607 105.885L24.2764 105.78L24.7002 102.92L24.5977 100.112L24.248 97.1768L24.2227 96.9629L24.2578 96.751L24.7285 93.9619L24.4111 91.1699L24.4014 91.082V90.9941L24.4121 87.9941L24.4131 87.9756V87.9561L24.501 84.9424L24.5439 83.458L24.6191 83.459L24.5908 83.3965L24.5664 83.1533L24.2588 80.1533L24.2383 79.9531L24.2705 79.7549L24.7412 76.9189L24.5752 74.0869L24.5732 74.0508V74.0146L24.5439 71.0146L24.5449 71.0137L24.4863 68.0371L24.4131 65.0371L24.4121 65.0215V65.0059L24.4014 62.0059V61.918L24.4111 61.8301L24.7285 59.0381L24.2578 56.249L24.2041 55.9307L24.2861 55.6191L24.5488 54.6191L24.8428 53.5H24.9561L25.7188 50.7695L26.6445 47.9922L27.3008 45.0625V45.0273L27.3125 44.9922L28.1094 42.0977V42.1094L28.8242 39.2266L28.8359 39.168L28.8477 39.1211L29.7734 36.2617L29.7852 36.2383L29.7969 36.2031L30.8398 33.3789L31.5781 30.6133L31.5898 30.6016L32.3867 27.7422V27.7305L33.1602 24.8359V24.8125L33.1719 24.7773L34.0508 21.9062L34.0859 21.8008L34.1328 21.6953L34.1787 21.5996L34.1201 20.1455L33.0586 20.1875L32.9766 20.1992L32.8945 20.1875L30 20V17H30.1992L33.0352 17.1992L33.9521 17.1611L33.8896 16.0869V16.0166L33.8779 13.0166L33.8662 11.5049H35.4951V13.0049ZM64.2383 94.6367L63.3477 96.5938L63.4062 99.2539V99.3125L63.3477 102.312L63.3359 105.289V105.301L63.2891 108.301L63.5117 111.172L63.5234 111.195V111.23L63.5938 113.785L64.0742 114.488L66.3008 114.512H66.3711L67.5518 114.579L67.918 114.559V114.57L68.2354 114.539L68.5742 113.469L68.5859 110.727L68.5625 107.832L68.3398 104.832L68.3281 104.703L68.3398 104.574L68.6211 101.727L68.6094 98.8086L68.4336 96.1133L67.5078 94.3789L65.8203 93.6289L64.2383 94.6367ZM73.1758 56.6094L73.1289 56.7383L73.0469 56.8555L71.4062 59.3633L71.3711 59.4102L71.3242 59.457L69.6133 61.6719L68.5586 64.2969L68.4766 64.4961L68.3477 64.6602L66.5547 67.0039L65.0781 69.4531L63.5781 72.0664L62.0781 74.6562L62.0664 74.668L60.5312 77.2461L59.1602 79.8477L59.0898 79.9883L58.9727 80.1172L57.1328 82.2852L55.9961 84.6758L55.4336 87.1367L55.5322 88.9512L55.6387 89.8174L55.6514 89.9219L55.6494 90.0273L55.5957 93L55.6523 95.9707L55.6533 95.9814V95.9922L55.6631 97.9111L55.7148 98.9258L55.7266 99.0547L55.7031 99.1836L55.6748 99.4189L55.7129 101.979L55.7139 102.047L55.708 102.116L55.4766 105.1L55.3818 108.002L55.4883 110.946V110.967L55.4893 110.987L55.5137 113.935L55.7676 114.348H56.0234L57.8994 114.384L57.9531 114.383H58.0586L58.375 114.394L59 114.406L60.6182 114.374L60.6172 114.336L60.5234 111.395L60.2891 108.395V108.266L60.3359 105.266L60.3477 102.277V102.254L60.4062 99.3125L60.3477 96.3125V95.9727L60.4883 95.668L61.6953 93.0078L61.8711 92.5977L62.2461 92.3633L64.6367 90.8398L64.8828 90.6758L65.1758 90.6289L65.7383 90.5234L66.9219 90.3125L67.1914 90.9688L69.1953 91.8359L69.6758 92.0469L69.9219 92.5156L71.2461 95.0234L71.3984 95.3047L71.4219 95.6328L71.6094 98.6211V98.7148L71.6211 101.715V101.867L71.3398 104.703L71.5508 107.609L71.5625 107.656V107.703L71.5859 110.703V110.727L71.5742 113.727V113.949L71.5039 114.172L71.4561 114.32L73.9502 114.578L74.0713 114.577L76.6201 114.444L76.6172 114.336L76.5234 111.395L76.2891 108.395V108.266L76.3359 105.266L76.3477 102.277V102.254L76.4062 99.3125L76.3477 96.3125V95.9727L76.4883 95.668L77.6953 93.0078L77.8711 92.5977L78.2461 92.3633L80.6367 90.8398L80.8828 90.6758L81.1758 90.6289L81.7383 90.5234L82.9219 90.3125L83.1914 90.9688L85.1953 91.8359L85.6758 92.0469L85.9219 92.5156L87.2461 95.0234L87.3984 95.3047L87.4219 95.6328L87.6094 98.6211V98.7148L87.6211 101.715V101.867L87.3398 104.703L87.5508 107.609L87.5625 107.656V107.703L87.5859 110.703V110.727L87.5742 113.727V113.949L87.5039 114.172L87.4082 114.472L87.918 114.441L87.9297 114.43H87.9414L90.9414 114.312L91.0234 114.301L91.1055 114.312L92.2891 114.395L92.2422 113.785L92.2656 113.633L92.6406 110.762L92.5469 107.867V107.75L92.7109 104.844L92.5352 101.949L92.2891 98.9492V95.7852L92.3594 92.7852V92.7383L92.3711 92.7031L92.6172 89.7852L92.4766 86.9844L92.0312 84.5234L90.5547 82.2617L90.5195 82.2148L90.4961 82.1562L89.1133 79.5898L87.4375 77.1992L87.3555 77.0938L87.2969 76.9648L86.0664 74.2812L84.5664 71.8906L82.7148 69.6758L82.5742 69.4883L81.0508 66.8984L81.0039 66.8398L80.9688 66.7578L79.7969 64.1797L78.0391 61.9297L77.957 61.8242L77.8867 61.6953L76.5859 59.1406L74.8516 56.7969L74.7461 56.6328L74.6641 56.457L73.9844 54.7109L73.1758 56.6094ZM47.1484 86.5752L47.0352 86.5869L46.9209 86.5811L45.9229 86.5273L45.8955 86.5791L45.0273 86.5947L42.0273 86.6494L41.9219 86.6514L41.8174 86.6387L41.125 86.5537L41.0674 86.5566L40.957 86.5615L40.8467 86.5508L38.499 86.3096L37.4287 86.3652L35.2451 86.7275L35.0801 86.7549L34.9131 86.7451L33.5889 86.668L33.1377 86.71L32.9941 86.7236L32.8516 86.709L31.4385 86.5674L28.9854 86.5439H28.9707L27.9922 86.5254L27.4541 86.5537L27.4121 88.0439L27.4014 90.9189L27.7334 93.8301L27.7568 94.041L27.7217 94.249L27.252 97.0391L27.583 99.8232L27.5908 99.8838L27.5928 99.9443L27.7031 102.944L27.708 103.083L27.6885 103.22L27.2588 106.119L27.2412 108.88L27.7373 111.745L27.7705 111.938L27.7529 112.134L27.5488 114.4L28.9004 114.31L28.9814 114.305L29.0635 114.308L31.9443 114.429L34.9414 114.312L35.0117 114.301L35.0938 114.312L38.0938 114.488L38.082 114.5L39.1514 114.504L40.8555 114.339L40.9834 114.326L41.1133 114.336L44.0537 114.559L45.54 114.573L46.8828 114.535L49.8828 114.289H50.0234L52.2109 114.323L52.2881 114.156L52.293 113.973L52.3281 110.973L52.3516 107.996V107.973L52.4102 104.973L52.3516 102.031V101.926L52.3633 101.82L52.6738 99.3037L52.6699 99.0215L52.6689 99.0078L52.6631 98.0215L52.5625 96.1367L52.293 93.1367L52.2812 92.9961L52.293 92.8555L52.5742 89.9492L52.5293 89.1113L52.3174 87.3799L51.9512 86.4707L50.0049 86.291L47.1484 86.5752ZM80.2383 94.6367L79.3477 96.5938L79.4062 99.2539V99.3125L79.3477 102.312L79.3359 105.289V105.301L79.2891 108.301L79.5117 111.172L79.5234 111.195V111.23L79.5938 113.785L80.0283 114.422L80.6738 114.485L82.8477 114.254L83.0469 114.242L83.2461 114.266L84.2666 114.44L84.5742 113.469L84.5859 110.727L84.5625 107.832L84.3398 104.832L84.3281 104.703L84.3398 104.574L84.6211 101.727L84.6094 98.8086L84.4336 96.1133L83.5078 94.3789L81.8203 93.6289L80.2383 94.6367ZM41.4961 91.0977L43.1953 91.8359L43.6758 92.0469L43.9219 92.5156L45.2461 95.0234L45.3984 95.3047L45.4219 95.6328L45.6094 98.6211V98.7148L45.6211 101.715V101.867L45.3398 104.703L45.5508 107.609L45.6562 109.016L44.2617 109.203L41.4844 109.578L41.3789 109.59H41.2734L38.2734 109.566H38.0508L37.8281 109.496L35.3555 108.711L34.2422 108.359L34.3125 107.199L34.4883 104.199L34.5117 101.27V101.234L34.6172 98.3047L34.582 95.3047V94.9297L34.7578 94.5898L36.1523 91.9297L36.4336 91.3789L37.0312 91.1914L39.5508 90.3945L41.4961 89.7852V91.0977ZM38.5195 93.8633L37.582 95.6562L37.6172 98.2695V98.3398L37.5117 101.34L37.4883 104.293V104.375L37.3711 106.203L38.5195 106.566L41.168 106.578L42.457 106.414L42.3398 104.832L42.3281 104.703L42.3398 104.574L42.6211 101.727L42.6094 98.8086L42.4336 96.1133L41.5078 94.3789L39.5859 93.5234L38.5195 93.8633ZM72.6641 71.4648L73.5664 71.5L74.75 71.5469L74.8789 72.2383L76.543 73.457L77.082 73.8555L77.1406 74.5234L77.4219 77.4297L77.4336 77.4531V77.4883L77.6094 80.4883L77.6211 80.7227L77.5625 80.957L76.8711 83.5117L76.543 84.7422L75.2773 84.6133L72.2773 84.3203L71.7734 84.2734L71.3984 83.9219L69.9102 82.5156L69.4531 82.082L69.4414 81.4375L69.418 78.4375V78.4141L69.4297 75.4141V74.957L69.6875 74.582L71.3516 72.1211L71.8203 71.4297L72.6641 71.4648ZM36.9922 56.3945L35.376 56.3877L35.04 56.3896L32.2734 56.5527L31.1445 56.6641L31.0156 56.6758L30.8867 56.6641L30.4668 56.6328L29.0635 56.6924L28.9814 56.6953L28.9004 56.6904L27.3574 56.5869L27.7217 58.751L27.7568 58.959L27.7334 59.1699L27.4014 62.0811L27.4121 64.9629L27.4863 67.9629V67.9707L27.5439 70.9707V70.9854L27.5723 73.958L27.7451 76.9131L27.7549 77.0801L27.7275 77.2451L27.2627 80.0449L27.5254 82.6055L27.9414 83.5234H27.9492L29.9209 83.4189L30.0352 83.4131L30.1484 83.4248L31.5996 83.5684L32.0146 83.5732H32.0508L32.0869 83.5752L33.5342 83.6592L35.8623 83.4453L35.8916 83.4424L35.9219 83.4414L37.0957 83.3789L37.7549 83.2705L37.9531 83.2383L38.1533 83.2588L38.5762 83.3018L38.9219 83.2842L39.0527 83.2773L39.1826 83.2939L41.2441 83.5459L43.9326 83.4248L44.0059 83.4219L44.0791 83.4258L44.2012 83.4316L44.6553 82.6094L44.6689 79.9922L44.6699 79.9785L44.7119 77.041L44.4844 74.1162L44.4814 74.083L44.4805 74.0498L44.3818 71.0498L44.3799 70.998L44.3818 70.9463L44.4893 67.9629L44.5146 64.9873V64.9482L44.5166 64.9102L44.6924 61.9902L44.5723 59.0615L44.5713 59.0264V58.9912L44.582 56.918L44.001 56.624L43.0977 56.6875L43.0156 56.6992L42.9336 56.6875L41.5283 56.6318L41.1133 56.6641L40.9834 56.6738L40.8555 56.6611L39.6182 56.541L36.9922 56.3828V56.3945ZM72.418 75.8828V78.4375L72.4297 80.7695L73.0859 81.3906L74.293 81.4961L74.5859 80.4062L74.4336 77.6641V77.6523L74.2109 75.4727L73.2031 74.7227L72.418 75.8828ZM35.6641 61.4648L36.5664 61.5L37.75 61.5469L37.8789 62.2383L39.543 63.457L40.082 63.8555L40.1406 64.5234L40.4219 67.4297L40.4336 67.4531V67.4883L40.6094 70.4883L40.6211 70.7227L40.5625 70.957L39.8711 73.5117L39.543 74.7422L38.2773 74.6133L35.2773 74.3203L34.7734 74.2734L34.3984 73.9219L32.9102 72.5156L32.4531 72.082L32.4414 71.4375L32.418 68.4375V68.4141L32.4297 65.4141V64.957L32.6875 64.582L34.3516 62.1211L34.8203 61.4297L35.6641 61.4648ZM35.418 65.8828V68.4375L35.4297 70.7695L36.0859 71.3906L37.293 71.4961L37.5859 70.4062L37.4336 67.6641V67.6523L37.2109 65.4727L36.2031 64.7227L35.418 65.8828ZM35.293 28.5039L35.2812 28.5156V28.5273L34.4727 31.3984H34.4844L33.6992 34.293L33.6758 34.3633L33.6523 34.4219L32.6094 37.2461L31.7422 39.9414L31.0156 42.8594V42.8828L31.0039 42.8945L30.2305 45.7188L29.5742 48.6484L29.5625 48.7188L29.5391 48.7891L28.5898 51.6484L28.1211 53.3125L28.4141 53.4766L30.4111 53.6328L31.9121 53.5703V53.5693L32.1406 53.5557L33.8516 53.3828L33.9336 53.3711L34.0039 53.3828L35.459 53.3877L37.9932 53.377H38.0693L38.1445 53.3838L40.0068 53.5654L40.0859 53.5703L40.083 53.5723L40.2461 53.5889L41.3906 53.6348L43.8867 53.4463L43.9014 53.4443L43.707 52.7383L43.6953 52.7266V52.7031L42.9453 49.8086L42.1719 46.9141L41.3867 44.0312L41.3633 43.9609L40.7422 41.2188L39.5117 38.5938L39.4297 38.418L39.3945 38.2188L38.8906 35.418L37.9648 32.6172L37.9414 32.5469L37.9297 32.4766L37.2617 29.6289L36.207 26.957L36.1602 26.8281L36.125 26.6875L35.9727 25.9023L35.293 28.5039Z" fill="black"/>
</svg>
