<svg width="120" height="120" viewBox="0 0 120 120" fill="none" xmlns="http://www.w3.org/2000/svg">
<path d="M8.1 116V117.5H8.13227L8.16451 117.499L8.1 116ZM10.64 115.891L10.797 114.399L10.6865 114.387L10.5755 114.392L10.64 115.891ZM13.28 116.169L13.123 117.66L13.2739 117.676L13.425 117.662L13.28 116.169ZM15.92 115.912L15.8596 114.413L15.8172 114.415L15.775 114.419L15.92 115.912ZM18.56 115.806L18.6763 114.31L18.588 114.303L18.4996 114.307L18.56 115.806ZM21.2 116.011L21.0837 117.507L21.1392 117.511L21.1948 117.511L21.2 116.011ZM23.84 116.02L23.8348 117.52L23.8912 117.52L23.9474 117.516L23.84 116.02ZM26.48 115.831L26.5223 114.331L26.4473 114.329L26.3726 114.334L26.48 115.831ZM29.12 115.905L29.2963 114.415L29.2295 114.408L29.1623 114.406L29.12 115.905ZM31.76 116.217L31.5837 117.707L31.7941 117.732L32.0032 117.698L31.76 116.217ZM34.4 115.784L34.4793 114.286L34.3171 114.277L34.1568 114.303L34.4 115.784ZM37.04 115.923L36.9607 117.421L37.0493 117.426L37.1379 117.42L37.04 115.923ZM39.68 115.751L39.8617 114.262L39.7223 114.245L39.5821 114.254L39.68 115.751ZM42.32 116.073L42.1383 117.562L42.2533 117.576L42.3692 117.572L42.32 116.073ZM44.96 115.986L44.9117 114.487L44.9108 114.487L44.96 115.986ZM47.6 115.901L47.6483 117.401L47.6707 117.4L47.693 117.398L47.6 115.901ZM50.24 115.737L50.5012 114.26L50.3253 114.229L50.147 114.24L50.24 115.737ZM52.88 116.204L52.6188 117.681L52.879 117.727L53.1393 117.682L52.88 116.204ZM55.52 115.741L55.6608 114.247L55.4596 114.228L55.2606 114.263L55.52 115.741ZM58.16 115.99L58.0192 117.483L58.1299 117.493L58.2409 117.487L58.16 115.99ZM60.8 115.847L61.0126 114.362L60.8665 114.341L60.7191 114.349L60.8 115.847ZM63.44 116.225L63.2274 117.71L63.4714 117.745L63.7137 117.7L63.44 116.225ZM66.08 115.735L66.1582 114.237L65.9809 114.228L65.8063 114.26L66.08 115.735ZM68.72 115.873L68.6418 117.371L68.6647 117.372L68.6878 117.373L68.72 115.873ZM71.36 115.93L71.3278 117.429L71.3564 117.43L71.3849 117.429L71.36 115.93ZM74 115.886L74.185 114.397L74.0804 114.384L73.975 114.386L74 115.886ZM76.64 116.214L76.455 117.702L76.6155 117.722L76.7765 117.708L76.64 116.214ZM79.28 115.973L79.2685 114.473L79.2059 114.473L79.1435 114.479L79.28 115.973ZM81.92 115.952L82.0888 114.462L81.9989 114.452L81.9085 114.452L81.92 115.952ZM84.56 116.251L84.3912 117.742L84.5876 117.764L84.783 117.735L84.56 116.251ZM87.2 115.854L87.2734 114.356L87.1245 114.349L86.977 114.371L87.2 115.854ZM89.84 115.984L89.9255 114.486L89.9134 114.486L89.84 115.984ZM92.48 116.135L92.3945 117.632L92.4978 117.638L92.6008 117.63L92.48 116.135ZM95.12 115.921L95.1099 114.421L95.0544 114.422L94.9992 114.426L95.12 115.921ZM97.76 115.903L97.9616 114.417L97.8562 114.403L97.7499 114.403L97.76 115.903ZM100.4 116.261L100.198 117.748L100.434 117.78L100.667 117.737L100.4 116.261ZM103.04 115.784L103.284 114.304L103.028 114.262L102.773 114.308L103.04 115.784ZM105.68 116.219L105.436 117.699L105.576 117.722L105.719 117.718L105.68 116.219ZM108.32 116.151L108.359 117.65L108.453 117.648L108.546 117.634L108.32 116.151ZM110.96 115.748L111.313 114.29L111.026 114.221L110.734 114.265L110.96 115.748ZM8 116V117.5H8.1V116V114.5H8V116ZM8.1 116L8.16451 117.499L10.7045 117.389L10.64 115.891L10.5755 114.392L8.03549 114.501L8.1 116ZM10.64 115.891L10.483 117.382L13.123 117.66L13.28 116.169L13.437 114.677L10.797 114.399L10.64 115.891ZM13.28 116.169L13.425 117.662L16.065 117.405L15.92 115.912L15.775 114.419L13.135 114.676L13.28 116.169ZM15.92 115.912L15.9804 117.411L18.6204 117.305L18.56 115.806L18.4996 114.307L15.8596 114.413L15.92 115.912ZM18.56 115.806L18.4437 117.301L21.0837 117.507L21.2 116.011L21.3163 114.516L18.6763 114.31L18.56 115.806ZM21.2 116.011L21.1948 117.511L23.8348 117.52L23.84 116.02L23.8452 114.52L21.2052 114.511L21.2 116.011ZM23.84 116.02L23.9474 117.516L26.5874 117.327L26.48 115.831L26.3726 114.334L23.7326 114.524L23.84 116.02ZM26.48 115.831L26.4377 117.33L29.0777 117.404L29.12 115.905L29.1623 114.406L26.5223 114.331L26.48 115.831ZM29.12 115.905L28.9437 117.395L31.5837 117.707L31.76 116.217L31.9363 114.728L29.2963 114.415L29.12 115.905ZM31.76 116.217L32.0032 117.698L34.6432 117.264L34.4 115.784L34.1568 114.303L31.5168 114.737L31.76 116.217ZM34.4 115.784L34.3207 117.282L36.9607 117.421L37.04 115.923L37.1193 114.426L34.4793 114.286L34.4 115.784ZM37.04 115.923L37.1379 117.42L39.7779 117.248L39.68 115.751L39.5821 114.254L36.9421 114.427L37.04 115.923ZM39.68 115.751L39.4983 117.24L42.1383 117.562L42.32 116.073L42.5017 114.584L39.8617 114.262L39.68 115.751ZM42.32 116.073L42.3692 117.572L45.0092 117.486L44.96 115.986L44.9108 114.487L42.2708 114.574L42.32 116.073ZM44.96 115.986L45.0083 117.486L47.6483 117.401L47.6 115.901L47.5517 114.402L44.9117 114.487L44.96 115.986ZM47.6 115.901L47.693 117.398L50.333 117.234L50.24 115.737L50.147 114.24L47.507 114.404L47.6 115.901ZM50.24 115.737L49.9788 117.214L52.6188 117.681L52.88 116.204L53.1412 114.727L50.5012 114.26L50.24 115.737ZM52.88 116.204L53.1393 117.682L55.7793 117.218L55.52 115.741L55.2606 114.263L52.6207 114.727L52.88 116.204ZM55.52 115.741L55.3792 117.234L58.0192 117.483L58.16 115.99L58.3008 114.496L55.6608 114.247L55.52 115.741ZM58.16 115.99L58.2409 117.487L60.8809 117.345L60.8 115.847L60.7191 114.349L58.0791 114.492L58.16 115.99ZM60.8 115.847L60.5874 117.332L63.2274 117.71L63.44 116.225L63.6526 114.74L61.0126 114.362L60.8 115.847ZM63.44 116.225L63.7137 117.7L66.3537 117.21L66.08 115.735L65.8063 114.26L63.1663 114.75L63.44 116.225ZM66.08 115.735L66.0018 117.233L68.6418 117.371L68.72 115.873L68.7982 114.375L66.1582 114.237L66.08 115.735ZM68.72 115.873L68.6878 117.373L71.3278 117.429L71.36 115.93L71.3922 114.43L68.7522 114.373L68.72 115.873ZM71.36 115.93L71.3849 117.429L74.0249 117.386L74 115.886L73.975 114.386L71.335 114.43L71.36 115.93ZM74 115.886L73.815 117.374L76.455 117.702L76.64 116.214L76.825 114.725L74.185 114.397L74 115.886ZM76.64 116.214L76.7765 117.708L79.4165 117.466L79.28 115.973L79.1435 114.479L76.5035 114.72L76.64 116.214ZM79.28 115.973L79.2915 117.473L81.9315 117.452L81.92 115.952L81.9085 114.452L79.2685 114.473L79.28 115.973ZM81.92 115.952L81.7512 117.443L84.3912 117.742L84.56 116.251L84.7288 114.761L82.0888 114.462L81.92 115.952ZM84.56 116.251L84.783 117.735L87.423 117.338L87.2 115.854L86.977 114.371L84.337 114.768L84.56 116.251ZM87.2 115.854L87.1266 117.353L89.7666 117.482L89.84 115.984L89.9134 114.486L87.2734 114.356L87.2 115.854ZM89.84 115.984L89.7545 117.481L92.3945 117.632L92.48 116.135L92.5655 114.637L89.9255 114.486L89.84 115.984ZM92.48 116.135L92.6008 117.63L95.2408 117.416L95.12 115.921L94.9992 114.426L92.3592 114.639L92.48 116.135ZM95.12 115.921L95.1301 117.421L97.7701 117.403L97.76 115.903L97.7499 114.403L95.1099 114.421L95.12 115.921ZM97.76 115.903L97.5584 117.39L100.198 117.748L100.4 116.261L100.602 114.775L97.9616 114.417L97.76 115.903ZM100.4 116.261L100.667 117.737L103.307 117.26L103.04 115.784L102.773 114.308L100.133 114.785L100.4 116.261ZM103.04 115.784L102.796 117.264L105.436 117.699L105.68 116.219L105.924 114.738L103.284 114.304L103.04 115.784ZM105.68 116.219L105.719 117.718L108.359 117.65L108.32 116.151L108.281 114.651L105.641 114.719L105.68 116.219ZM108.32 116.151L108.546 117.634L111.186 117.231L110.96 115.748L110.734 114.265L108.094 114.668L108.32 116.151ZM110.96 115.748L110.607 117.206L111.647 117.458L112 116L112.353 114.542L111.313 114.29L110.96 115.748Z" fill="black"/>
<path d="M78.7094 115.914L77.6614 114.841L77.5182 114.981L77.4166 115.153L78.7094 115.914ZM80.4709 114.194L79.4781 113.069L79.4498 113.094L79.4229 113.12L80.4709 114.194ZM82.4623 112.435L83.455 113.56L83.6519 113.386L83.778 113.156L82.4623 112.435ZM83.7378 110.106L85.0535 110.826L85.0816 110.775L85.1056 110.721L83.7378 110.106ZM84.8145 107.714L86.1823 108.33L86.9051 106.724L85.205 106.266L84.8145 107.714ZM82.742 107.155L83.1325 105.707L82.9539 105.659L82.7691 105.655L82.742 107.155ZM80.1027 107.107L80.1298 105.608L79.9131 105.604L79.7041 105.661L80.1027 107.107ZM77.6104 107.794L77.2118 106.348L76.8283 106.454L76.5475 106.736L77.6104 107.794ZM75.8576 109.554L74.7947 108.496L74.6494 108.642L74.5487 108.822L75.8576 109.554ZM74.5942 111.811L73.2853 111.078L73.2654 111.114L73.2474 111.15L74.5942 111.811ZM73.4384 114.168L72.0916 113.507L72.0859 113.519L72.0804 113.531L73.4384 114.168ZM78.6587 116L79.9516 116.761L80.0023 116.674L78.7094 115.914L77.4166 115.153L77.3659 115.239L78.6587 116ZM78.7094 115.914L79.7575 116.987L81.5189 115.267L80.4709 114.194L79.4229 113.12L77.6614 114.841L78.7094 115.914ZM80.4709 114.194L81.4637 115.318L83.455 113.56L82.4623 112.435L81.4695 111.311L79.4781 113.069L80.4709 114.194ZM82.4623 112.435L83.778 113.156L85.0535 110.826L83.7378 110.106L82.4221 109.385L81.1466 111.715L82.4623 112.435ZM83.7378 110.106L85.1056 110.721L86.1823 108.33L84.8145 107.714L83.4467 107.098L82.37 109.49L83.7378 110.106ZM84.8145 107.714L85.205 106.266L83.1325 105.707L82.742 107.155L82.3515 108.603L84.424 109.162L84.8145 107.714ZM82.742 107.155L82.7691 105.655L80.1298 105.608L80.1027 107.107L80.0756 108.607L82.7149 108.655L82.742 107.155ZM80.1027 107.107L79.7041 105.661L77.2118 106.348L77.6104 107.794L78.009 109.24L80.5013 108.553L80.1027 107.107ZM77.6104 107.794L76.5475 106.736L74.7947 108.496L75.8576 109.554L76.9204 110.613L78.6732 108.853L77.6104 107.794ZM75.8576 109.554L74.5487 108.822L73.2853 111.078L74.5942 111.811L75.903 112.544L77.1664 110.287L75.8576 109.554ZM74.5942 111.811L73.2474 111.15L72.0916 113.507L73.4384 114.168L74.7851 114.828L75.9409 112.471L74.5942 111.811ZM73.4384 114.168L72.0804 113.531L71.642 114.465L73 115.102L74.358 115.739L74.7964 114.805L73.4384 114.168Z" fill="black"/>
<path d="M43.1109 115.48L44.1946 114.443L44.1905 114.439L43.1109 115.48ZM41.3479 113.653L39.9943 114.299L40.0992 114.519L40.2682 114.694L41.3479 113.653ZM40.2023 111.253L41.5559 110.607L41.4672 110.421L41.3319 110.266L40.2023 111.253ZM38.4585 109.257L39.5881 108.27L39.3825 108.035L39.1 107.901L38.4585 109.257ZM36.2629 108.218L35.4534 109.481L35.5344 109.533L35.6214 109.574L36.2629 108.218ZM43.18 115.553L44.2637 114.516L44.1946 114.443L43.1109 115.48L42.0271 116.518L42.0963 116.59L43.18 115.553ZM43.1109 115.48L44.1905 114.439L42.4276 112.611L41.3479 113.653L40.2682 114.694L42.0312 116.522L43.1109 115.48ZM41.3479 113.653L42.7015 113.006L41.5559 110.607L40.2023 111.253L38.8487 111.9L39.9943 114.299L41.3479 113.653ZM40.2023 111.253L41.3319 110.266L39.5881 108.27L38.4585 109.257L37.3288 110.244L39.0727 112.24L40.2023 111.253ZM38.4585 109.257L39.1 107.901L36.9045 106.862L36.2629 108.218L35.6214 109.574L37.8169 110.613L38.4585 109.257ZM36.2629 108.218L37.0724 106.956L36.8095 106.787L36 108.05L35.1905 109.313L35.4534 109.481L36.2629 108.218Z" fill="black"/>
<path d="M75.9006 108.075L74.6347 108.88L75.021 109.488L75.737 109.567L75.9006 108.075ZM74.5203 105.904L75.7863 105.099L75.7656 105.067L75.7433 105.035L74.5203 105.904ZM73.0744 103.868L74.2973 102.999L73.5657 101.969L72.4263 102.515L73.0744 103.868ZM70.6781 105.016L70.03 103.663L69.914 103.719L69.8092 103.793L70.6781 105.016ZM68.5291 106.543L69.3279 107.813L69.3636 107.79L69.398 107.766L68.5291 106.543ZM66.3325 107.925L65.5336 106.656L64.8013 107.117L64.8335 107.981L66.3325 107.925ZM66.4293 110.527L67.9243 110.65L67.9316 110.561L67.9283 110.471L66.4293 110.527ZM66.2121 113.17L67.6007 113.737L67.6881 113.523L67.707 113.293L66.2121 113.17ZM65.2135 115.616L66.5248 116.344L66.5683 116.266L66.6022 116.183L65.2135 115.616ZM76 108.086L76.1636 106.595L76.0642 106.584L75.9006 108.075L75.737 109.567L75.8364 109.577L76 108.086ZM75.9006 108.075L77.1665 107.271L75.7863 105.099L74.5203 105.904L73.2544 106.708L74.6347 108.88L75.9006 108.075ZM74.5203 105.904L75.7433 105.035L74.2973 102.999L73.0744 103.868L71.8515 104.737L73.2974 106.772L74.5203 105.904ZM73.0744 103.868L72.4263 102.515L70.03 103.663L70.6781 105.016L71.3262 106.369L73.7225 105.221L73.0744 103.868ZM70.6781 105.016L69.8092 103.793L67.6602 105.321L68.5291 106.543L69.398 107.766L71.547 106.239L70.6781 105.016ZM68.5291 106.543L67.7303 105.274L65.5336 106.656L66.3325 107.925L67.1313 109.195L69.3279 107.813L68.5291 106.543ZM66.3325 107.925L64.8335 107.981L64.9304 110.583L66.4293 110.527L67.9283 110.471L67.8314 107.87L66.3325 107.925ZM66.4293 110.527L64.9344 110.404L64.7171 113.047L66.2121 113.17L67.707 113.293L67.9243 110.65L66.4293 110.527ZM66.2121 113.17L64.8234 112.603L63.8249 115.049L65.2135 115.616L66.6022 116.183L67.6007 113.737L66.2121 113.17ZM65.2135 115.616L63.9023 114.887L63.6888 115.272L65 116L66.3112 116.728L66.5248 116.344L65.2135 115.616Z" fill="black"/>
<path d="M66.9011 107.289L65.9727 108.467L66.286 108.714L66.6806 108.772L66.9011 107.289ZM64.8976 105.71L63.8874 106.819L63.927 106.855L63.9692 106.888L64.8976 105.71ZM62.9351 103.922L63.9454 102.813L63.7112 102.6L63.4107 102.499L62.9351 103.922ZM60.5069 103.11L60.9824 101.688L60.0826 101.387L59.4253 102.071L60.5069 103.11ZM58.7623 104.926L57.6807 103.886L57.6601 103.908L57.6404 103.93L58.7623 104.926ZM57.0108 106.899L55.8888 105.904L55.7133 106.102L55.616 106.347L57.0108 106.899ZM56.0438 109.343L54.649 108.791L54.4988 109.17L54.5616 109.574L56.0438 109.343ZM56.442 111.899L54.9598 112.13L54.9778 112.245L55.0134 112.356L56.442 111.899ZM57.2495 114.422L58.7472 114.505L58.7626 114.228L58.6781 113.964L57.2495 114.422ZM67 107.303L67.2205 105.82L67.1215 105.805L66.9011 107.289L66.6806 108.772L66.7795 108.787L67 107.303ZM66.9011 107.289L67.8295 106.111L65.826 104.532L64.8976 105.71L63.9692 106.888L65.9727 108.467L66.9011 107.289ZM64.8976 105.71L65.9078 104.601L63.9454 102.813L62.9351 103.922L61.9249 105.031L63.8874 106.819L64.8976 105.71ZM62.9351 103.922L63.4107 102.499L60.9824 101.688L60.5069 103.11L60.0313 104.533L62.4596 105.345L62.9351 103.922ZM60.5069 103.11L59.4253 102.071L57.6807 103.886L58.7623 104.926L59.8439 105.965L61.5884 104.15L60.5069 103.11ZM58.7623 104.926L57.6404 103.93L55.8888 105.904L57.0108 106.899L58.1327 107.895L59.8842 105.921L58.7623 104.926ZM57.0108 106.899L55.616 106.347L54.649 108.791L56.0438 109.343L57.4385 109.895L58.4055 107.451L57.0108 106.899ZM56.0438 109.343L54.5616 109.574L54.9598 112.13L56.442 111.899L57.9241 111.668L57.5259 109.112L56.0438 109.343ZM56.442 111.899L55.0134 112.356L55.8209 114.879L57.2495 114.422L58.6781 113.964L57.8706 111.441L56.442 111.899ZM57.2495 114.422L55.7518 114.338L55.7195 114.916L57.2172 115L58.7149 115.084L58.7472 114.505L57.2495 114.422Z" fill="black"/>
<path d="M55.9001 107.428L55.1871 108.748L55.5554 108.947L55.9734 108.926L55.9001 107.428ZM53.6738 106.225L52.6373 107.31L52.7832 107.449L52.9608 107.545L53.6738 106.225ZM51.7498 104.386L52.7863 103.302L52.3298 102.865L51.6987 102.887L51.7498 104.386ZM49.3345 104.469L49.2833 102.969L48.4606 102.998L48.0424 103.707L49.3345 104.469ZM47.9938 106.742L46.7017 105.98L46.6546 106.06L46.6177 106.145L47.9938 106.742ZM46.9952 109.043L45.6192 108.446L45.4141 108.919L45.5428 109.418L46.9952 109.043ZM47.6532 111.594L46.2007 111.969L46.2345 112.1L46.2911 112.223L47.6532 111.594ZM48.7243 113.916L49.4709 115.217L50.6613 114.533L50.0863 113.287L48.7243 113.916ZM56 107.423L55.9267 105.925L55.8268 105.93L55.9001 107.428L55.9734 108.926L56.0733 108.921L56 107.423ZM55.9001 107.428L56.6131 106.108L54.3868 104.905L53.6738 106.225L52.9608 107.545L55.1871 108.748L55.9001 107.428ZM53.6738 106.225L54.7102 105.141L52.7863 103.302L51.7498 104.386L50.7134 105.47L52.6373 107.31L53.6738 106.225ZM51.7498 104.386L51.6987 102.887L49.2833 102.969L49.3345 104.469L49.3856 105.968L51.801 105.885L51.7498 104.386ZM49.3345 104.469L48.0424 103.707L46.7017 105.98L47.9938 106.742L49.2859 107.504L50.6265 105.231L49.3345 104.469ZM47.9938 106.742L46.6177 106.145L45.6192 108.446L46.9952 109.043L48.3713 109.64L49.3698 107.339L47.9938 106.742ZM46.9952 109.043L45.5428 109.418L46.2007 111.969L47.6532 111.594L49.1056 111.22L48.4477 108.669L46.9952 109.043ZM47.6532 111.594L46.2911 112.223L47.3622 114.544L48.7243 113.916L50.0863 113.287L49.0152 110.966L47.6532 111.594ZM48.7243 113.916L47.9776 112.615L47.8307 112.699L48.5773 114L49.324 115.301L49.4709 115.217L48.7243 113.916Z" fill="black"/>
<path d="M66.0814 29.0581L67.3326 28.2307L67.1791 27.9986L66.9526 27.837L66.0814 29.0581ZM67.4531 31.1325L66.2019 31.9599L66.4391 32.3185L66.8302 32.4971L67.4531 31.1325ZM69.8133 32.2099L69.1904 33.5744L69.3189 33.6331L69.456 33.6667L69.8133 32.2099ZM72.3625 32.8351L73.2421 31.6201L73.0046 31.4481L72.7197 31.3782L72.3625 32.8351ZM74.5273 34.4025L75.7894 33.5919L75.6364 33.3536L75.407 33.1875L74.5273 34.4025ZM75.9668 36.644L77.3065 35.9694L77.2713 35.8994L77.229 35.8335L75.9668 36.644ZM77.1526 38.9987L78.523 38.3888L78.5084 38.3561L78.4923 38.3241L77.1526 38.9987ZM78.2318 41.4235L79.692 41.0802L79.6597 40.9427L79.6022 40.8136L78.2318 41.4235ZM78.8387 44.0048L80.3345 43.8934L80.3258 43.776L80.2989 43.6615L78.8387 44.0048ZM79.0359 46.6533L77.5401 46.7647L77.5528 46.9362L77.6041 47.1003L79.0359 46.6533ZM79.8341 49.2096L81.3324 49.1379L81.3232 48.946L81.2659 48.7626L79.8341 49.2096ZM79.9609 51.8563L78.4626 51.928L78.4654 51.9866L78.4728 52.0448L79.9609 51.8563ZM80.2951 54.4946L81.7582 54.8255L81.8164 54.568L81.7832 54.3061L80.2951 54.4946ZM79.7057 57.101L78.2426 56.7701L78.2291 56.8298L78.2205 56.8905L79.7057 57.101ZM79.335 59.7159L80.814 59.9657L80.8173 59.9461L80.8201 59.9265L79.335 59.7159ZM78.895 62.3214L77.416 62.0716L77.4124 62.093L77.4094 62.1145L78.895 62.3214ZM78.5304 64.9398L79.9382 65.4574L79.9938 65.3062L80.016 65.1467L78.5304 64.9398ZM77.6051 67.4568L76.1972 66.9392L76.0886 67.2346L76.1079 67.5487L77.6051 67.4568ZM77.7689 70.1255L79.2577 70.3089L79.2746 70.1716L79.2661 70.0336L77.7689 70.1255ZM77.4459 72.7484L75.9571 72.565L75.9416 72.6909L75.9475 72.8177L77.4459 72.7484ZM77.5679 75.3873L79.0568 75.5694L79.0722 75.4441L79.0663 75.318L77.5679 75.3873ZM77.244 78.0358L75.7551 77.8537L75.7217 78.1269L75.7874 78.3941L77.244 78.0358ZM77.885 80.6418L79.383 80.5645L79.3756 80.4221L79.3416 80.2836L77.885 80.6418ZM78.0207 83.2718L76.5227 83.3491L76.526 83.4137L76.5349 83.4778L78.0207 83.2718ZM78.3825 85.8812L76.8967 86.0872L76.9073 86.1631L76.9255 86.2376L78.3825 85.8812ZM79.0082 88.4392L80.4863 88.1837L80.4775 88.1329L80.4652 88.0828L79.0082 88.4392ZM79.4619 91.064L77.9838 91.3195L78.0213 91.5363L78.1195 91.7333L79.4619 91.064ZM80.6475 93.4419L82.1472 93.4095L82.1399 93.0734L81.9899 92.7726L80.6475 93.4419ZM80.7026 95.9908L81.576 97.2103L82.2194 96.7495L82.2022 95.9584L80.7026 95.9908ZM78.5936 97.5012L79.4079 98.7609L79.438 98.7415L79.467 98.7207L78.5936 97.5012ZM76.3653 98.9416L76.4977 100.436L76.8677 100.403L77.1796 100.201L76.3653 98.9416ZM66 29L65.1288 30.2211L65.2102 30.2792L66.0814 29.0581L66.9526 27.837L66.8712 27.7789L66 29ZM66.0814 29.0581L64.8302 29.8854L66.2019 31.9599L67.4531 31.1325L68.7043 30.3051L67.3326 28.2307L66.0814 29.0581ZM67.4531 31.1325L66.8302 32.4971L69.1904 33.5744L69.8133 32.2099L70.4362 30.8453L68.076 29.768L67.4531 31.1325ZM69.8133 32.2099L69.456 33.6667L72.0052 34.2919L72.3625 32.8351L72.7197 31.3782L70.1706 30.7531L69.8133 32.2099ZM72.3625 32.8351L71.4828 34.05L73.6476 35.6174L74.5273 34.4025L75.407 33.1875L73.2421 31.6201L72.3625 32.8351ZM74.5273 34.4025L73.2651 35.213L74.7047 37.4546L75.9668 36.644L77.229 35.8335L75.7894 33.5919L74.5273 34.4025ZM75.9668 36.644L74.6271 37.3187L75.8129 39.6734L77.1526 38.9987L78.4923 38.3241L77.3065 35.9694L75.9668 36.644ZM77.1526 38.9987L75.7822 39.6086L76.8614 42.0334L78.2318 41.4235L79.6022 40.8136L78.523 38.3888L77.1526 38.9987ZM78.2318 41.4235L76.7716 41.7668L77.3785 44.3481L78.8387 44.0048L80.2989 43.6615L79.692 41.0802L78.2318 41.4235ZM78.8387 44.0048L77.3428 44.1162L77.5401 46.7647L79.0359 46.6533L80.5318 46.5419L80.3345 43.8934L78.8387 44.0048ZM79.0359 46.6533L77.6041 47.1003L78.4023 49.6567L79.8341 49.2096L81.2659 48.7626L80.4677 46.2062L79.0359 46.6533ZM79.8341 49.2096L78.3358 49.2814L78.4626 51.928L79.9609 51.8563L81.4592 51.7845L81.3324 49.1379L79.8341 49.2096ZM79.9609 51.8563L78.4728 52.0448L78.807 54.6831L80.2951 54.4946L81.7832 54.3061L81.449 51.6677L79.9609 51.8563ZM80.2951 54.4946L78.8321 54.1637L78.2426 56.7701L79.7057 57.101L81.1687 57.4319L81.7582 54.8255L80.2951 54.4946ZM79.7057 57.101L78.2205 56.8905L77.8498 59.5054L79.335 59.7159L80.8201 59.9265L81.1908 57.3115L79.7057 57.101ZM79.335 59.7159L77.8559 59.4662L77.416 62.0716L78.895 62.3214L80.3741 62.5711L80.814 59.9657L79.335 59.7159ZM78.895 62.3214L77.4094 62.1145L77.0447 64.7329L78.5304 64.9398L80.016 65.1467L80.3807 62.5283L78.895 62.3214ZM78.5304 64.9398L77.1225 64.4222L76.1972 66.9392L77.6051 67.4568L79.0129 67.9743L79.9382 65.4574L78.5304 64.9398ZM77.6051 67.4568L76.1079 67.5487L76.2717 70.2174L77.7689 70.1255L79.2661 70.0336L79.1022 67.3648L77.6051 67.4568ZM77.7689 70.1255L76.2802 69.9422L75.9571 72.565L77.4459 72.7484L78.9346 72.9317L79.2577 70.3089L77.7689 70.1255ZM77.4459 72.7484L75.9475 72.8177L76.0695 75.4566L77.5679 75.3873L79.0663 75.318L78.9443 72.6791L77.4459 72.7484ZM77.5679 75.3873L76.079 75.2052L75.7551 77.8537L77.244 78.0358L78.7329 78.2179L79.0568 75.5694L77.5679 75.3873ZM77.244 78.0358L75.7874 78.3941L76.4284 81.0001L77.885 80.6418L79.3416 80.2836L78.7006 77.6776L77.244 78.0358ZM77.885 80.6418L76.387 80.7192L76.5227 83.3491L78.0207 83.2718L79.5187 83.1945L79.383 80.5645L77.885 80.6418ZM78.0207 83.2718L76.5349 83.4778L76.8967 86.0872L78.3825 85.8812L79.8683 85.6752L79.5065 83.0658L78.0207 83.2718ZM78.3825 85.8812L76.9255 86.2376L77.5511 88.7956L79.0082 88.4392L80.4652 88.0828L79.8396 85.5248L78.3825 85.8812ZM79.0082 88.4392L77.5301 88.6947L77.9838 91.3195L79.4619 91.064L80.94 90.8085L80.4863 88.1837L79.0082 88.4392ZM79.4619 91.064L78.1195 91.7333L79.3051 94.1112L80.6475 93.4419L81.9899 92.7726L80.8043 90.3947L79.4619 91.064ZM80.6475 93.4419L79.1479 93.4743L79.203 96.0232L80.7026 95.9908L82.2022 95.9584L82.1472 93.4095L80.6475 93.4419ZM80.7026 95.9908L79.8292 94.7713L77.7203 96.2817L78.5936 97.5012L79.467 98.7207L81.576 97.2103L80.7026 95.9908ZM78.5936 97.5012L77.7793 96.2415L75.551 97.6819L76.3653 98.9416L77.1796 100.201L79.4079 98.7609L78.5936 97.5012ZM76.3653 98.9416L76.233 97.4474L75.5737 97.5059L75.7061 99L75.8385 100.494L76.4977 100.436L76.3653 98.9416Z" fill="black"/>
<path d="M53.3293 25.0914L51.9579 24.4839L51.5393 25.4288L52.2732 26.1566L53.3293 25.0914ZM55.1808 26.9273L56.6371 26.5675L56.536 26.1587L56.237 25.8622L55.1808 26.9273ZM55.7775 29.3422L57.0347 30.1604L57.3899 29.6146L57.2337 28.9825L55.7775 29.3422ZM54.3985 31.461L54.5871 32.9491L55.2766 32.8618L55.6558 32.2792L54.3985 31.461ZM51.764 31.7948L51.5755 30.3067L51.5262 30.313L51.4774 30.3225L51.764 31.7948ZM49.2297 32.2882L48.943 30.8159L48.5738 30.8878L48.2822 31.1254L49.2297 32.2882ZM47.1896 33.9504L46.2421 32.7875L46.0335 32.9575L45.897 33.1894L47.1896 33.9504ZM45.856 36.2155L44.5634 35.4544L44.538 35.4976L44.5155 35.5424L45.856 36.2155ZM44.6793 38.5593L43.3387 37.8862L43.3342 37.8953L43.3298 37.9043L44.6793 38.5593ZM43.5165 40.955L42.1671 40.3L42.0558 40.5293L42.0265 40.7825L43.5165 40.955ZM43.2084 43.6174L44.6367 44.0753L44.6815 43.9356L44.6984 43.7898L43.2084 43.6174ZM42.4029 46.1299L40.9745 45.6719L40.9374 45.7878L40.9194 45.9081L42.4029 46.1299ZM42.0131 48.7373L43.4526 49.159L43.4814 49.0605L43.4966 48.9591L42.0131 48.7373ZM41.2666 51.2856L39.8271 50.864L39.7819 51.0184L39.7704 51.1789L41.2666 51.2856ZM41.0787 53.9202L39.5825 53.8134L39.5788 53.8657L39.5787 53.9181L41.0787 53.9202ZM41.0751 56.5558L39.5751 56.5538L39.575 56.6391L39.5845 56.7238L41.0751 56.5558ZM41.3696 59.1693L42.8689 59.215L42.8722 59.1078L42.8602 59.0013L41.3696 59.1693ZM41.2881 61.8437L39.7888 61.798L39.7795 62.1025L39.8897 62.3865L41.2881 61.8437ZM42.2603 64.3482L43.759 64.2853L43.7486 64.037L43.6587 63.8054L42.2603 64.3482ZM42.3718 67.0053L40.8732 67.0682L40.8761 67.1372L40.8853 67.2055L42.3718 67.0053ZM42.7252 69.6295L44.2164 69.7913L44.2361 69.61L44.2118 69.4294L42.7252 69.6295ZM42.4377 72.2799L40.9465 72.1181L40.9232 72.333L40.9615 72.5457L42.4377 72.2799ZM42.9136 74.9227L44.4072 75.0617L44.4261 74.8581L44.3899 74.6568L42.9136 74.9227ZM42.6679 77.5618L44.161 77.7049L44.1614 77.7008L42.6679 77.5618ZM42.4156 80.1939L40.9224 80.0508L40.9217 80.059L42.4156 80.1939ZM42.1779 82.8268L43.6261 83.2176L43.6601 83.0916L43.6718 82.9616L42.1779 82.8268ZM41.4852 85.3935L40.037 85.0026L40.0019 85.1326L39.9905 85.2668L41.4852 85.3935ZM41.2615 88.032L42.7288 88.3439L42.7483 88.2521L42.7562 88.1587L41.2615 88.032ZM40.7121 90.6168L42.1164 91.1439L42.1559 91.0387L42.1793 90.9287L40.7121 90.6168ZM39.7564 93.163L38.352 92.6358L37.9353 93.7462L38.9195 94.4078L39.7564 93.163ZM41.9115 94.6118L41.0746 95.8566L41.3601 96.0485L41.7007 96.0969L41.9115 94.6118ZM44.4967 94.9787L44.2859 96.4638L44.3761 96.4766L44.4671 96.4784L44.4967 94.9787ZM45.8995 95.0063L45.8699 96.506L47.6665 96.5414L47.3803 94.7675L45.8995 95.0063ZM53.3698 25L51.9984 24.3924L51.9579 24.4839L53.3293 25.0914L54.7008 25.699L54.7413 25.6076L53.3698 25ZM53.3293 25.0914L52.2732 26.1566L54.1247 27.9924L55.1808 26.9273L56.237 25.8622L54.3855 24.0263L53.3293 25.0914ZM55.1808 26.9273L53.7246 27.2871L54.3212 29.702L55.7775 29.3422L57.2337 28.9825L56.6371 26.5675L55.1808 26.9273ZM55.7775 29.3422L54.5203 28.524L53.1413 30.6428L54.3985 31.461L55.6558 32.2792L57.0347 30.1604L55.7775 29.3422ZM54.3985 31.461L54.21 29.9729L51.5755 30.3067L51.764 31.7948L51.9526 33.2829L54.5871 32.9491L54.3985 31.461ZM51.764 31.7948L51.4774 30.3225L48.943 30.8159L49.2297 32.2882L49.5163 33.7606L52.0507 33.2672L51.764 31.7948ZM49.2297 32.2882L48.2822 31.1254L46.2421 32.7875L47.1896 33.9504L48.1371 35.1133L50.1771 33.4511L49.2297 32.2882ZM47.1896 33.9504L45.897 33.1894L44.5634 35.4544L45.856 36.2155L47.1486 36.9765L48.4822 34.7115L47.1896 33.9504ZM45.856 36.2155L44.5155 35.5424L43.3387 37.8862L44.6793 38.5593L46.0198 39.2323L47.1965 36.8885L45.856 36.2155ZM44.6793 38.5593L43.3298 37.9043L42.1671 40.3L43.5165 40.955L44.866 41.6099L46.0287 39.2142L44.6793 38.5593ZM43.5165 40.955L42.0265 40.7825L41.7183 43.4449L43.2084 43.6174L44.6984 43.7898L45.0066 41.1275L43.5165 40.955ZM43.2084 43.6174L41.78 43.1594L40.9745 45.6719L42.4029 46.1299L43.8313 46.5878L44.6367 44.0753L43.2084 43.6174ZM42.4029 46.1299L40.9194 45.9081L40.5295 48.5155L42.0131 48.7373L43.4966 48.9591L43.8864 46.3516L42.4029 46.1299ZM42.0131 48.7373L40.5735 48.3157L39.8271 50.864L41.2666 51.2856L42.7061 51.7073L43.4526 49.159L42.0131 48.7373ZM41.2666 51.2856L39.7704 51.1789L39.5825 53.8134L41.0787 53.9202L42.5749 54.0269L42.7628 51.3923L41.2666 51.2856ZM41.0787 53.9202L39.5787 53.9181L39.5751 56.5538L41.0751 56.5558L42.5751 56.5579L42.5787 53.9222L41.0787 53.9202ZM41.0751 56.5558L39.5845 56.7238L39.8791 59.3373L41.3696 59.1693L42.8602 59.0013L42.5657 56.3878L41.0751 56.5558ZM41.3696 59.1693L39.8703 59.1236L39.7888 61.798L41.2881 61.8437L42.7874 61.8894L42.8689 59.215L41.3696 59.1693ZM41.2881 61.8437L39.8897 62.3865L40.862 64.891L42.2603 64.3482L43.6587 63.8054L42.6864 61.3009L41.2881 61.8437ZM42.2603 64.3482L40.7617 64.4111L40.8732 67.0682L42.3718 67.0053L43.8705 66.9425L43.759 64.2853L42.2603 64.3482ZM42.3718 67.0053L40.8853 67.2055L41.2386 69.8297L42.7252 69.6295L44.2118 69.4294L43.8584 66.8052L42.3718 67.0053ZM42.7252 69.6295L41.2339 69.4678L40.9465 72.1181L42.4377 72.2799L43.929 72.4416L44.2164 69.7913L42.7252 69.6295ZM42.4377 72.2799L40.9615 72.5457L41.4374 75.1885L42.9136 74.9227L44.3899 74.6568L43.914 72.014L42.4377 72.2799ZM42.9136 74.9227L41.4201 74.7836L41.1743 77.4227L42.6679 77.5618L44.1614 77.7008L44.4072 75.0617L42.9136 74.9227ZM42.6679 77.5618L41.1747 77.4186L40.9224 80.0508L42.4156 80.1939L43.9087 80.337L44.161 77.7049L42.6679 77.5618ZM42.4156 80.1939L40.9217 80.059L40.684 82.6919L42.1779 82.8268L43.6718 82.9616L43.9095 80.3288L42.4156 80.1939ZM42.1779 82.8268L40.7297 82.4359L40.037 85.0026L41.4852 85.3935L42.9334 85.7843L43.6261 83.2176L42.1779 82.8268ZM41.4852 85.3935L39.9905 85.2668L39.7669 87.9053L41.2615 88.032L42.7562 88.1587L42.9798 85.5202L41.4852 85.3935ZM41.2615 88.032L39.7943 87.7201L39.2449 90.3049L40.7121 90.6168L42.1793 90.9287L42.7288 88.3439L41.2615 88.032ZM40.7121 90.6168L39.3078 90.0897L38.352 92.6358L39.7564 93.163L41.1607 93.6901L42.1164 91.1439L40.7121 90.6168ZM39.7564 93.163L38.9195 94.4078L41.0746 95.8566L41.9115 94.6118L42.7484 93.3669L40.5932 91.9181L39.7564 93.163ZM41.9115 94.6118L41.7007 96.0969L44.2859 96.4638L44.4967 94.9787L44.7074 93.4936L42.1223 93.1267L41.9115 94.6118ZM44.4967 94.9787L44.4671 96.4784L45.8699 96.506L45.8995 95.0063L45.929 93.5066L44.5262 93.479L44.4967 94.9787ZM45.8995 95.0063L47.3803 94.7675L47.3589 94.6346L45.8781 94.8735L44.3972 95.1124L44.4186 95.2452L45.8995 95.0063Z" fill="black"/>
<path d="M67.256 52.0995L68.7423 52.3023L68.7462 52.2735L68.749 52.2446L67.256 52.0995ZM66.9143 54.6051L68.3824 54.9126L68.3933 54.8605L68.4005 54.8079L66.9143 54.6051ZM66.3699 57.2047L64.9017 56.8972L64.8669 57.0635L64.8702 57.2334L66.3699 57.2047ZM66.4207 59.8588L67.9204 59.8885L67.921 59.8593L67.9204 59.8301L66.4207 59.8588ZM66.3683 62.4992L67.8574 62.6798L67.8665 62.6046L67.868 62.5289L66.3683 62.4992ZM66.0496 65.1268L64.5605 64.9462L64.5519 65.0172L64.5501 65.0887L66.0496 65.1268ZM65.9825 67.7668L64.4829 67.7286L64.4808 67.8111L64.4878 67.8932L65.9825 67.7668ZM66.2056 70.4044L67.7056 70.3961L67.7053 70.3369L67.7003 70.2779L66.2056 70.4044ZM66.2202 73.0423L67.7153 73.1636L67.7206 73.0989L67.7202 73.034L66.2202 73.0423ZM66.0054 75.6923L64.5103 75.571L64.4927 75.7881L64.5375 76.0011L66.0054 75.6923ZM66.5567 78.3127L68.0567 78.3022L68.0557 78.1514L68.0246 78.0038L66.5567 78.3127ZM66.5751 80.9546L65.0751 80.965L65.0759 81.0744L65.0925 81.1824L66.5751 80.9546ZM66.9757 83.5618L68.4755 83.543L68.4742 83.4379L68.4583 83.334L66.9757 83.5618ZM67.0089 86.2156L65.509 86.2344L65.5113 86.4131L65.5554 86.5863L67.0089 86.2156ZM67.6622 88.7772L66.2087 89.1479L66.2357 89.2538L66.2778 89.3546L67.6622 88.7772ZM68.6726 91.2001L67.2881 91.7774L67.3663 91.9649L67.4916 92.1249L68.6726 91.2001ZM70.2645 93.2332L69.0835 94.1579L69.1122 94.1946L69.143 94.2293L70.2645 93.2332ZM72.0299 95.2207L70.9084 96.2168L71.5253 96.9113L72.422 96.6685L72.0299 95.2207ZM74.2629 94.616L74.6549 96.0639L75.0022 95.9698L75.2691 95.7285L74.2629 94.616ZM76.2097 92.855L77.216 93.9675L77.2996 93.8918L77.3711 93.8044L76.2097 92.855ZM67.2657 52L65.7727 51.8549L65.7631 51.9544L67.256 52.0995L68.749 52.2446L68.7587 52.1451L67.2657 52ZM67.256 52.0995L65.7698 51.8968L65.428 54.4024L66.9143 54.6051L68.4005 54.8079L68.7423 52.3023L67.256 52.0995ZM66.9143 54.6051L65.4461 54.2977L64.9017 56.8972L66.3699 57.2047L67.838 57.5121L68.3824 54.9126L66.9143 54.6051ZM66.3699 57.2047L64.8702 57.2334L64.921 59.8875L66.4207 59.8588L67.9204 59.8301L67.8696 57.176L66.3699 57.2047ZM66.4207 59.8588L64.921 59.829L64.8686 62.4694L66.3683 62.4992L67.868 62.5289L67.9204 59.8885L66.4207 59.8588ZM66.3683 62.4992L64.8792 62.3186L64.5605 64.9462L66.0496 65.1268L67.5387 65.3074L67.8574 62.6798L66.3683 62.4992ZM66.0496 65.1268L64.5501 65.0887L64.4829 67.7286L65.9825 67.7668L67.482 67.8049L67.5491 65.1649L66.0496 65.1268ZM65.9825 67.7668L64.4878 67.8932L64.711 70.5309L66.2056 70.4044L67.7003 70.2779L67.4771 67.6403L65.9825 67.7668ZM66.2056 70.4044L64.7057 70.4127L64.7203 73.0506L66.2202 73.0423L67.7202 73.034L67.7056 70.3961L66.2056 70.4044ZM66.2202 73.0423L64.7251 72.9211L64.5103 75.571L66.0054 75.6923L67.5005 75.8135L67.7153 73.1636L66.2202 73.0423ZM66.0054 75.6923L64.5375 76.0011L65.0889 78.6215L66.5567 78.3127L68.0246 78.0038L67.4732 75.3834L66.0054 75.6923ZM66.5567 78.3127L65.0568 78.3231L65.0751 80.965L66.5751 80.9546L68.075 80.9442L68.0567 78.3022L66.5567 78.3127ZM66.5751 80.9546L65.0925 81.1824L65.493 83.7896L66.9757 83.5618L68.4583 83.334L68.0577 80.7268L66.5751 80.9546ZM66.9757 83.5618L65.4758 83.5806L65.509 86.2344L67.0089 86.2156L68.5088 86.1968L68.4755 83.543L66.9757 83.5618ZM67.0089 86.2156L65.5554 86.5863L66.2087 89.1479L67.6622 88.7772L69.1157 88.4066L68.4624 85.8449L67.0089 86.2156ZM67.6622 88.7772L66.2778 89.3546L67.2881 91.7774L68.6726 91.2001L70.057 90.6228L69.0467 88.1999L67.6622 88.7772ZM68.6726 91.2001L67.4916 92.1249L69.0835 94.1579L70.2645 93.2332L71.4455 92.3084L69.8536 90.2753L68.6726 91.2001ZM70.2645 93.2332L69.143 94.2293L70.9084 96.2168L72.0299 95.2207L73.1514 94.2245L71.386 92.237L70.2645 93.2332ZM72.0299 95.2207L72.422 96.6685L74.6549 96.0639L74.2629 94.616L73.8708 93.1682L71.6379 93.7728L72.0299 95.2207ZM74.2629 94.616L75.2691 95.7285L77.216 93.9675L76.2097 92.855L75.2035 91.7426L73.2566 93.5036L74.2629 94.616ZM76.2097 92.855L77.3711 93.8044L77.6613 93.4494L76.5 92.5L75.3387 91.5506L75.0484 91.9056L76.2097 92.855Z" fill="black"/>
<path d="M70.009 52.0996L68.515 52.2339L68.527 52.3681L68.5628 52.498L70.009 52.0996ZM70.684 54.5495L72.1837 54.5758L72.1875 54.3595L72.1301 54.151L70.684 54.5495ZM70.6374 57.2038L69.1376 57.1775L69.1354 57.302L69.1538 57.4252L70.6374 57.2038ZM71.0288 59.8272L72.5248 59.7175L72.5207 59.6614L72.5124 59.6059L71.0288 59.8272ZM71.2222 62.4641L72.7207 62.5308L72.7246 62.4425L72.7182 62.3544L71.2222 62.4641ZM71.1042 65.1169L69.6056 65.0503L69.6027 65.1173L69.6057 65.1844L71.1042 65.1169ZM71.2228 67.7509L69.7243 67.8184L69.7275 67.8892L69.7373 67.9594L71.2228 67.7509ZM71.5905 70.3705L73.0874 70.2749L73.0838 70.2182L73.0759 70.162L71.5905 70.3705ZM71.7587 73.004L73.2587 72.996L73.2584 72.9521L73.2556 72.9084L71.7587 73.004ZM71.7729 75.6613L70.273 75.6694L70.2743 75.9125L70.3523 76.1427L71.7729 75.6613ZM72.6315 78.1952L74.1116 77.9519L74.0917 77.8304L74.0522 77.7138L72.6315 78.1952ZM73.0585 80.793L71.5784 81.0363L71.5998 81.1664L71.6435 81.2908L73.0585 80.793ZM73.9332 83.279L75.4102 83.0173L75.3888 82.8967L75.3482 82.7812L73.9332 83.279ZM74.3969 85.8959L72.92 86.1576L72.9344 86.2389L72.9576 86.3181L74.3969 85.8959ZM75.0134 87.9972L75.3153 89.4666L76.9114 89.1386L76.4527 87.575L75.0134 87.9972ZM70 52L68.506 52.1343L68.515 52.2339L70.009 52.0996L71.5029 51.9653L71.494 51.8657L70 52ZM70.009 52.0996L68.5628 52.498L69.2378 54.9479L70.684 54.5495L72.1301 54.151L71.4551 51.7012L70.009 52.0996ZM70.684 54.5495L69.1842 54.5231L69.1376 57.1775L70.6374 57.2038L72.1372 57.2302L72.1837 54.5758L70.684 54.5495ZM70.6374 57.2038L69.1538 57.4252L69.5452 60.0485L71.0288 59.8272L72.5124 59.6059L72.121 56.9825L70.6374 57.2038ZM71.0288 59.8272L69.5328 59.9369L69.7262 62.5738L71.2222 62.4641L72.7182 62.3544L72.5248 59.7175L71.0288 59.8272ZM71.2222 62.4641L69.7237 62.3975L69.6056 65.0503L71.1042 65.1169L72.6027 65.1836L72.7207 62.5308L71.2222 62.4641ZM71.1042 65.1169L69.6057 65.1844L69.7243 67.8184L71.2228 67.7509L72.7212 67.6834L72.6026 65.0495L71.1042 65.1169ZM71.2228 67.7509L69.7373 67.9594L70.105 70.579L71.5905 70.3705L73.0759 70.162L72.7082 67.5424L71.2228 67.7509ZM71.5905 70.3705L70.0935 70.4661L70.2617 73.0996L71.7587 73.004L73.2556 72.9084L73.0874 70.2749L71.5905 70.3705ZM71.7587 73.004L70.2587 73.012L70.273 75.6694L71.7729 75.6613L73.2729 75.6533L73.2587 72.996L71.7587 73.004ZM71.7729 75.6613L70.3523 76.1427L71.2108 78.6766L72.6315 78.1952L74.0522 77.7138L73.1936 75.18L71.7729 75.6613ZM72.6315 78.1952L71.1514 78.4385L71.5784 81.0363L73.0585 80.793L74.5387 80.5497L74.1116 77.9519L72.6315 78.1952ZM73.0585 80.793L71.6435 81.2908L72.5182 83.7769L73.9332 83.279L75.3482 82.7812L74.4735 80.2952L73.0585 80.793ZM73.9332 83.279L72.4562 83.5408L72.92 86.1576L74.3969 85.8959L75.8739 85.6341L75.4102 83.0173L73.9332 83.279ZM74.3969 85.8959L72.9576 86.3181L73.574 88.4195L75.0134 87.9972L76.4527 87.575L75.8363 85.4737L74.3969 85.8959ZM75.0134 87.9972L74.7115 86.5279L74.6981 86.5307L75 88L75.3019 89.4693L75.3153 89.4666L75.0134 87.9972Z" fill="black"/>
<path d="M50.968 40.0947L52.1013 41.0773L52.2946 40.8544L52.389 40.575L50.968 40.0947ZM49.3565 41.9534L48.2232 40.9708L48.0944 41.1193L48.0083 41.2959L49.3565 41.9534ZM48.1935 44.3382L46.8453 43.6807L46.7336 43.9097L46.7038 44.1627L48.1935 44.3382ZM47.8823 46.9794L46.3926 46.8038L46.3911 46.8163L46.3898 46.8289L47.8823 46.9794ZM47.6179 49.6008L49.0963 49.8544L49.1051 49.8031L49.1103 49.7513L47.6179 49.6008ZM47.1707 52.2073L45.6923 51.9536L45.6781 52.0364L45.6732 52.1202L47.1707 52.2073ZM47.0172 54.8455L45.5198 54.7584L45.515 54.8401L45.5192 54.9219L47.0172 54.8455ZM47.1517 57.4832L48.6516 57.4958L48.652 57.4513L48.6497 57.4069L47.1517 57.4832ZM47.1296 60.122L48.6278 60.1956L48.6293 60.1651L48.6296 60.1345L47.1296 60.122ZM46.9999 62.7663L45.5017 62.6927L45.4918 62.8946L45.5357 63.0919L46.9999 62.7663ZM47.581 65.3794L49.0809 65.3989L49.0832 65.2242L49.0453 65.0538L47.581 65.3794ZM47.5467 68.0261L46.0469 68.0067L46.0459 68.0821L46.0525 68.1572L47.5467 68.0261ZM47.7782 70.6649L49.2676 70.8431L49.2861 70.6887L49.2725 70.5339L47.7782 70.6649ZM47.462 73.3078L45.9726 73.1296L45.961 73.2268L45.9621 73.3247L47.462 73.3078ZM47.4919 75.9495L48.9916 75.9777L48.992 75.9551L48.9918 75.9326L47.4919 75.9495ZM47.4423 78.5926L48.9418 78.6341L48.942 78.6207L47.4423 78.5926ZM47.3689 81.2434L48.7933 81.7137L48.8623 81.5048L48.8684 81.2849L47.3689 81.2434ZM46.5282 83.7898L45.1038 83.3196L45.042 83.5069L45.0307 83.7038L46.5282 83.7898ZM46.374 86.4741L47.6975 87.1799L47.8526 86.8891L47.8715 86.5601L46.374 86.4741ZM45.1159 88.8332L46.3478 89.6889L46.398 89.6166L46.4394 89.539L45.1159 88.8332ZM51 40L49.579 39.5198L49.5469 39.6145L50.968 40.0947L52.389 40.575L52.421 40.4802L51 40ZM50.968 40.0947L49.8346 39.1121L48.2232 40.9708L49.3565 41.9534L50.4899 42.936L52.1013 41.0773L50.968 40.0947ZM49.3565 41.9534L48.0083 41.2959L46.8453 43.6807L48.1935 44.3382L49.5417 44.9957L50.7048 42.6109L49.3565 41.9534ZM48.1935 44.3382L46.7038 44.1627L46.3926 46.8038L47.8823 46.9794L49.3719 47.1549L49.6832 44.5138L48.1935 44.3382ZM47.8823 46.9794L46.3898 46.8289L46.1254 49.4503L47.6179 49.6008L49.1103 49.7513L49.3747 47.1299L47.8823 46.9794ZM47.6179 49.6008L46.1395 49.3471L45.6923 51.9536L47.1707 52.2073L48.649 52.461L49.0963 49.8544L47.6179 49.6008ZM47.1707 52.2073L45.6732 52.1202L45.5198 54.7584L47.0172 54.8455L48.5147 54.9326L48.6681 52.2944L47.1707 52.2073ZM47.0172 54.8455L45.5192 54.9219L45.6536 57.5596L47.1517 57.4832L48.6497 57.4069L48.5153 54.7692L47.0172 54.8455ZM47.1517 57.4832L45.6517 57.4707L45.6297 60.1095L47.1296 60.122L48.6296 60.1345L48.6516 57.4958L47.1517 57.4832ZM47.1296 60.122L45.6315 60.0485L45.5017 62.6927L46.9999 62.7663L48.4981 62.8398L48.6278 60.1956L47.1296 60.122ZM46.9999 62.7663L45.5357 63.0919L46.1168 65.7051L47.581 65.3794L49.0453 65.0538L48.4641 62.4406L46.9999 62.7663ZM47.581 65.3794L46.0812 65.36L46.0469 68.0067L47.5467 68.0261L49.0466 68.0456L49.0809 65.3989L47.581 65.3794ZM47.5467 68.0261L46.0525 68.1572L46.284 70.796L47.7782 70.6649L49.2725 70.5339L49.041 67.8951L47.5467 68.0261ZM47.7782 70.6649L46.2888 70.4867L45.9726 73.1296L47.462 73.3078L48.9514 73.486L49.2676 70.8431L47.7782 70.6649ZM47.462 73.3078L45.9621 73.3247L45.992 75.9665L47.4919 75.9495L48.9918 75.9326L48.9619 73.2908L47.462 73.3078ZM47.4919 75.9495L45.9921 75.9214L45.9425 78.5644L47.4423 78.5926L48.942 78.6207L48.9916 75.9777L47.4919 75.9495ZM47.4423 78.5926L45.9429 78.5511L45.8695 81.2019L47.3689 81.2434L48.8684 81.2849L48.9417 78.6341L47.4423 78.5926ZM47.3689 81.2434L45.9446 80.7731L45.1038 83.3196L46.5282 83.7898L47.9526 84.2601L48.7933 81.7137L47.3689 81.2434ZM46.5282 83.7898L45.0307 83.7038L44.8765 86.388L46.374 86.4741L47.8715 86.5601L48.0257 83.8759L46.5282 83.7898ZM46.374 86.4741L45.0504 85.7682L43.7923 88.1273L45.1159 88.8332L46.4394 89.539L47.6975 87.1799L46.374 86.4741ZM45.1159 88.8332L43.8839 87.9774L43.768 88.1443L45 89L46.232 89.8557L46.3478 89.6889L45.1159 88.8332Z" fill="black"/>
<path d="M53.9951 46.0999L52.4969 46.0264L52.4939 46.0869L52.4959 46.1475L53.9951 46.0999ZM54.0758 48.6433L55.5609 48.8542L55.5792 48.7256L55.5751 48.5958L54.0758 48.6433ZM53.7026 51.2711L52.2175 51.0602L52.1983 51.1954L52.2039 51.3318L53.7026 51.2711ZM53.81 53.9199L55.3092 53.9684L55.311 53.9138L55.3087 53.8592L53.81 53.9199ZM53.7245 56.5624L55.2049 56.8041L55.2206 56.7081L55.2237 56.6109L53.7245 56.5624ZM53.2976 59.1767L51.8172 58.935L51.8091 58.9849L51.8043 59.0352L53.2976 59.1767ZM53.0486 61.8046L51.5553 61.6631L51.5501 61.7181L51.5489 61.7733L53.0486 61.8046ZM52.9934 64.4505L54.4831 64.6256L54.4915 64.554L54.493 64.4818L52.9934 64.4505ZM52.6852 67.0725L54.156 67.367L54.1679 67.3077L54.1749 67.2476L52.6852 67.0725ZM52.163 69.6803L50.6922 69.3858L50.6485 69.6038L50.67 69.8252L52.163 69.6803ZM52.4214 72.3423L53.9138 72.4934L53.9288 72.3454L53.9144 72.1973L52.4214 72.3423ZM52.1554 74.9694L50.663 74.8182L50.6524 74.9231L50.6565 75.0284L52.1554 74.9694ZM52.2593 77.6096L53.7481 77.793L53.7629 77.6722L53.7582 77.5506L52.2593 77.6096ZM51.9345 80.2466L50.4457 80.0632L50.4288 80.2006L50.4373 80.3388L51.9345 80.2466ZM52.097 82.8842L50.5999 82.9764L50.6058 83.0717L50.6236 83.1654L52.097 82.8842ZM52.5905 85.4696L51.1171 85.7509L51.1309 85.8228L51.1516 85.8931L52.5905 85.4696ZM53.3381 88.0098L51.8991 88.4333L51.9154 88.4885L51.9358 88.5423L53.3381 88.0098ZM54.1161 90.0587L52.8834 90.9134L55.5184 89.5263L54.1161 90.0587ZM54 46L52.5018 45.9266L52.4969 46.0264L53.9951 46.0999L55.4933 46.1733L55.4982 46.0734L54 46ZM53.9951 46.0999L52.4959 46.1475L52.5766 48.6909L54.0758 48.6433L55.5751 48.5958L55.4943 46.0523L53.9951 46.0999ZM54.0758 48.6433L52.5907 48.4324L52.2175 51.0602L53.7026 51.2711L55.1877 51.482L55.5609 48.8542L54.0758 48.6433ZM53.7026 51.2711L52.2039 51.3318L52.3112 53.9806L53.81 53.9199L55.3087 53.8592L55.2014 51.2103L53.7026 51.2711ZM53.81 53.9199L52.3108 53.8714L52.2253 56.5139L53.7245 56.5624L55.2237 56.6109L55.3092 53.9684L53.81 53.9199ZM53.7245 56.5624L52.2441 56.3207L51.8172 58.935L53.2976 59.1767L54.778 59.4184L55.2049 56.8041L53.7245 56.5624ZM53.2976 59.1767L51.8043 59.0352L51.5553 61.6631L53.0486 61.8046L54.5419 61.9462L54.791 59.3182L53.2976 59.1767ZM53.0486 61.8046L51.5489 61.7733L51.4937 64.4192L52.9934 64.4505L54.493 64.4818L54.5483 61.8359L53.0486 61.8046ZM52.9934 64.4505L51.5036 64.2754L51.1954 66.8974L52.6852 67.0725L54.1749 67.2476L54.4831 64.6256L52.9934 64.4505ZM52.6852 67.0725L51.2144 66.778L50.6922 69.3858L52.163 69.6803L53.6338 69.9748L54.156 67.367L52.6852 67.0725ZM52.163 69.6803L50.67 69.8252L50.9285 72.4872L52.4214 72.3423L53.9144 72.1973L53.656 69.5353L52.163 69.6803ZM52.4214 72.3423L50.9291 72.1911L50.663 74.8182L52.1554 74.9694L53.6477 75.1205L53.9138 72.4934L52.4214 72.3423ZM52.1554 74.9694L50.6565 75.0284L50.7605 77.6686L52.2593 77.6096L53.7582 77.5506L53.6542 74.9104L52.1554 74.9694ZM52.2593 77.6096L50.7706 77.4262L50.4457 80.0632L51.9345 80.2466L53.4232 80.4299L53.7481 77.793L52.2593 77.6096ZM51.9345 80.2466L50.4373 80.3388L50.5999 82.9764L52.097 82.8842L53.5942 82.7919L53.4316 80.1543L51.9345 80.2466ZM52.097 82.8842L50.6236 83.1654L51.1171 85.7509L52.5905 85.4696L54.0639 85.1884L53.5704 82.6029L52.097 82.8842ZM52.5905 85.4696L51.1516 85.8931L51.8991 88.4333L53.3381 88.0098L54.7771 87.5863L54.0295 85.0461L52.5905 85.4696ZM53.3381 88.0098L51.9358 88.5423L52.7137 90.5912L54.1161 90.0587L55.5184 89.5263L54.7404 87.4774L53.3381 88.0098ZM54.1161 90.0587L55.3487 89.204L55.2324 89.0362L53.9997 89.8909L52.767 90.7456L52.8834 90.9134L54.1161 90.0587Z" fill="black"/>
<path d="M66.2772 12.4105L64.8167 12.0686L64.6779 12.6612L64.9914 13.183L66.2772 12.4105ZM66.8579 9.93032L68.3184 10.2723L68.3636 10.0793L68.3571 9.88122L66.8579 9.93032ZM66.7713 7.28732L68.2705 7.23822L68.2519 6.67094L67.8625 6.25806L66.7713 7.28732ZM64.9521 5.35867L66.0432 4.32941L65.8321 4.10556L65.5499 3.98293L64.9521 5.35867ZM62.6112 4.34151L63.2089 2.96577L62.9955 2.87305L62.7641 2.84933L62.6112 4.34151ZM60.0266 4.07665L60.1796 2.58446L59.9189 2.55774L59.6645 2.621L60.0266 4.07665ZM57.4662 4.71355L57.1041 3.2579L56.7389 3.34874L56.4599 3.6012L57.4662 4.71355ZM55.5654 6.43319L54.559 5.32084L54.2642 5.58757L54.1402 5.96532L55.5654 6.43319ZM54.7748 8.84132L53.3496 8.37345L53.2964 8.53558L53.2809 8.70552L54.7748 8.84132ZM54.5346 11.4829L53.0408 11.3471L53.0406 11.3498L54.5346 11.4829ZM54.3027 14.086L55.6462 14.7532L55.7718 14.5003L55.7968 14.2192L54.3027 14.086ZM53.1691 16.369L51.8256 15.7018L51.6534 16.0486L51.6706 16.4353L53.1691 16.369ZM53.2849 18.9829L54.7761 19.1449L54.7885 19.031L54.7834 18.9165L53.2849 18.9829ZM52.9973 21.6299L51.5061 21.4679L51.4929 21.5889L51.4995 21.7106L52.9973 21.6299ZM53.1394 24.2685L54.5664 24.7307L54.6522 24.4658L54.6372 24.1879L53.1394 24.2685ZM52.3261 26.78L50.8991 26.3178L50.8784 26.3818L50.8635 26.4473L52.3261 26.78ZM51.7457 29.3322L53.0434 30.0846L53.1578 29.8872L53.2084 29.6648L51.7457 29.3322ZM50.7987 30.9656L49.501 30.2132L48.4184 32.0805L50.546 32.4442L50.7987 30.9656ZM66.3287 12.4962L67.6144 11.7237L67.5629 11.638L66.2772 12.4105L64.9914 13.183L65.0429 13.2687L66.3287 12.4962ZM66.2772 12.4105L67.7377 12.7525L68.3184 10.2723L66.8579 9.93032L65.3974 9.58835L64.8167 12.0686L66.2772 12.4105ZM66.8579 9.93032L68.3571 9.88122L68.2705 7.23822L66.7713 7.28732L65.2721 7.33642L65.3587 9.97941L66.8579 9.93032ZM66.7713 7.28732L67.8625 6.25806L66.0432 4.32941L64.9521 5.35867L63.8609 6.38793L65.6802 8.31658L66.7713 7.28732ZM64.9521 5.35867L65.5499 3.98293L63.2089 2.96577L62.6112 4.34151L62.0134 5.71726L64.3543 6.73441L64.9521 5.35867ZM62.6112 4.34151L62.7641 2.84933L60.1796 2.58446L60.0266 4.07665L59.8737 5.56883L62.4582 5.8337L62.6112 4.34151ZM60.0266 4.07665L59.6645 2.621L57.1041 3.2579L57.4662 4.71355L57.8283 6.16919L60.3887 5.53229L60.0266 4.07665ZM57.4662 4.71355L56.4599 3.6012L54.559 5.32084L55.5654 6.43319L56.5717 7.54554L58.4725 5.8259L57.4662 4.71355ZM55.5654 6.43319L54.1402 5.96532L53.3496 8.37345L54.7748 8.84132L56.2 9.30919L56.9905 6.90106L55.5654 6.43319ZM54.7748 8.84132L53.2809 8.70552L53.0408 11.3471L54.5346 11.4829L56.0285 11.6187L56.2686 8.97712L54.7748 8.84132ZM54.5346 11.4829L53.0406 11.3498L52.8086 13.9529L54.3027 14.086L55.7968 14.2192L56.0287 11.6161L54.5346 11.4829ZM54.3027 14.086L52.9592 13.4189L51.8256 15.7018L53.1691 16.369L54.5126 17.0361L55.6462 14.7532L54.3027 14.086ZM53.1691 16.369L51.6706 16.4353L51.7863 19.0492L53.2849 18.9829L54.7834 18.9165L54.6676 16.3026L53.1691 16.369ZM53.2849 18.9829L51.7937 18.8208L51.5061 21.4679L52.9973 21.6299L54.4885 21.7919L54.7761 19.1449L53.2849 18.9829ZM52.9973 21.6299L51.4995 21.7106L51.6416 24.3492L53.1394 24.2685L54.6372 24.1879L54.4951 21.5492L52.9973 21.6299ZM53.1394 24.2685L51.7123 23.8064L50.8991 26.3178L52.3261 26.78L53.7532 27.2421L54.5664 24.7307L53.1394 24.2685ZM52.3261 26.78L50.8635 26.4473L50.2831 28.9996L51.7457 29.3322L53.2084 29.6648L53.7888 27.1126L52.3261 26.78ZM51.7457 29.3322L50.4481 28.5798L49.501 30.2132L50.7987 30.9656L52.0964 31.718L53.0434 30.0846L51.7457 29.3322ZM50.7987 30.9656L50.546 32.4442L50.7473 32.4786L51 31L51.2527 29.5214L51.0514 29.487L50.7987 30.9656Z" fill="black"/>
<path d="M55.0862 31.0507L56.4964 30.5397L56.3125 30.0321L55.8472 29.7582L55.0862 31.0507ZM55.9567 33.4529L54.5465 33.964L54.569 34.0262L54.5969 34.0861L55.9567 33.4529ZM57.0794 35.8639L55.7196 36.4971L55.9634 37.0206L56.4953 37.2455L57.0794 35.8639ZM59.4899 36.8829L58.9059 38.2645L59.3358 38.4463L59.7929 38.352L59.4899 36.8829ZM61.9815 36.3691L62.2844 37.8382L62.4615 37.8017L62.6248 37.7241L61.9815 36.3691ZM64.3491 35.2451L64.9924 36.6001L65.2813 36.463L65.4892 36.2199L64.3491 35.2451ZM66.059 33.2454L67.199 34.2202L67.3866 34.0009L67.4794 33.7276L66.059 33.2454ZM66.8382 30.95L67.2807 29.5168L65.8867 29.0864L65.4178 30.4679L66.8382 30.95ZM55 31L54.2389 32.2926L54.3251 32.3433L55.0862 31.0507L55.8472 29.7582L55.7611 29.7074L55 31ZM55.0862 31.0507L53.6759 31.5618L54.5465 33.964L55.9567 33.4529L57.367 32.9419L56.4964 30.5397L55.0862 31.0507ZM55.9567 33.4529L54.5969 34.0861L55.7196 36.4971L57.0794 35.8639L58.4392 35.2307L57.3165 32.8197L55.9567 33.4529ZM57.0794 35.8639L56.4953 37.2455L58.9059 38.2645L59.4899 36.8829L60.074 35.5013L57.6634 34.4823L57.0794 35.8639ZM59.4899 36.8829L59.7929 38.352L62.2844 37.8382L61.9815 36.3691L61.6785 34.9L59.187 35.4138L59.4899 36.8829ZM61.9815 36.3691L62.6248 37.7241L64.9924 36.6001L64.3491 35.2451L63.7058 33.89L61.3382 35.014L61.9815 36.3691ZM64.3491 35.2451L65.4892 36.2199L67.199 34.2202L66.059 33.2454L64.919 32.2706L63.2091 34.2702L64.3491 35.2451ZM66.059 33.2454L67.4794 33.7276L68.2586 31.4322L66.8382 30.95L65.4178 30.4679L64.6386 32.7633L66.059 33.2454ZM66.8382 30.95L66.3957 32.3833L66.5575 32.4332L67 31L67.4425 29.5668L67.2807 29.5168L66.8382 30.95Z" fill="black"/>
<path d="M55.0999 12.8957L55.0458 14.3947L55.1994 14.4003L55.3509 14.3745L55.0999 12.8957ZM57.5578 12.4785L57.3795 10.9892L57.343 10.9935L57.3069 10.9997L57.5578 12.4785ZM60.1444 12.1688L60.1243 10.6689L60.0449 10.67L59.966 10.6794L60.1444 12.1688ZM62.7873 12.1333L63.0263 10.6525L62.8975 10.6317L62.7672 10.6335L62.7873 12.1333ZM65.4197 12.5582L66.2565 11.3133L65.9834 11.1298L65.6587 11.0773L65.4197 12.5582ZM67.6269 14.0419L68.9628 13.3595L68.7861 13.0136L68.4637 12.797L67.6269 14.0419ZM68.8052 16.3487L70.2952 16.176L70.2641 15.9072L70.1411 15.6663L68.8052 16.3487ZM69.1103 18.9807L70.6101 19.0047L70.6117 18.9061L70.6003 18.808L69.1103 18.9807ZM69.0683 21.6077L70.5319 21.936L70.5656 21.7857L70.5681 21.6317L69.0683 21.6077ZM68.4955 24.161L69.9086 24.6643L69.9392 24.5783L69.9592 24.4893L68.4955 24.161ZM67.6047 26.662L68.5316 27.8414L68.8723 27.5736L69.0177 27.1653L67.6047 26.662ZM65.4984 28.3174L66.2382 29.6223L66.3365 29.5666L66.4253 29.4968L65.4984 28.3174ZM63.1694 29.6379L63.33 31.1293L63.6389 31.096L63.9092 30.9428L63.1694 29.6379ZM60.5175 29.9235L60.2417 31.3979L60.4586 31.4385L60.6781 31.4149L60.5175 29.9235ZM57.9557 29.4444L57.4984 30.873L57.5877 30.9015L57.6799 30.9188L57.9557 29.4444ZM55.9665 28.8077H54.4665V29.9025L55.5092 30.2363L55.9665 28.8077ZM55 12.8921L54.9458 14.3911L55.0458 14.3947L55.0999 12.8957L55.1541 11.3967L55.0542 11.393L55 12.8921ZM55.0999 12.8957L55.3509 14.3745L57.8088 13.9574L57.5578 12.4785L57.3069 10.9997L54.8489 11.4168L55.0999 12.8957ZM57.5578 12.4785L57.7362 13.9679L60.3227 13.6581L60.1444 12.1688L59.966 10.6794L57.3795 10.9892L57.5578 12.4785ZM60.1444 12.1688L60.1645 13.6686L62.8074 13.6332L62.7873 12.1333L62.7672 10.6335L60.1243 10.6689L60.1444 12.1688ZM62.7873 12.1333L62.5483 13.6142L65.1807 14.039L65.4197 12.5582L65.6587 11.0773L63.0263 10.6525L62.7873 12.1333ZM65.4197 12.5582L64.5829 13.8031L66.7902 15.2868L67.6269 14.0419L68.4637 12.797L66.2565 11.3133L65.4197 12.5582ZM67.6269 14.0419L66.2911 14.7242L67.4694 17.031L68.8052 16.3487L70.1411 15.6663L68.9628 13.3595L67.6269 14.0419ZM68.8052 16.3487L67.3152 16.5214L67.6203 19.1534L69.1103 18.9807L70.6003 18.808L70.2952 16.176L68.8052 16.3487ZM69.1103 18.9807L67.6105 18.9567L67.5684 21.5837L69.0683 21.6077L70.5681 21.6317L70.6101 19.0047L69.1103 18.9807ZM69.0683 21.6077L67.6046 21.2794L67.0319 23.8327L68.4955 24.161L69.9592 24.4893L70.5319 21.936L69.0683 21.6077ZM68.4955 24.161L67.0825 23.6577L66.1917 26.1587L67.6047 26.662L69.0177 27.1653L69.9086 24.6643L68.4955 24.161ZM67.6047 26.662L66.6778 25.4827L64.5715 27.1381L65.4984 28.3174L66.4253 29.4968L68.5316 27.8414L67.6047 26.662ZM65.4984 28.3174L64.7586 27.0126L62.4295 28.3331L63.1694 29.6379L63.9092 30.9428L66.2382 29.6223L65.4984 28.3174ZM63.1694 29.6379L63.0088 28.1465L60.3569 28.4321L60.5175 29.9235L60.6781 31.4149L63.33 31.1293L63.1694 29.6379ZM60.5175 29.9235L60.7932 28.449L58.2315 27.9699L57.9557 29.4444L57.6799 30.9188L60.2417 31.3979L60.5175 29.9235ZM57.9557 29.4444L58.413 28.0158L56.4238 27.379L55.9665 28.8077L55.5092 30.2363L57.4984 30.873L57.9557 29.4444ZM55.9665 28.8077H57.4665V28.7089H55.9665H54.4665V28.8077H55.9665Z" fill="black"/>
<path d="M46.9859 90.099L48.452 90.4161L48.4632 90.364L48.4708 90.3111L46.9859 90.099ZM46.46 92.5298L44.994 92.2127L44.992 92.2219L44.9901 92.2311L46.46 92.5298ZM45.9316 95.1307L44.4616 94.832L44.4258 95.0081L44.4327 95.1877L45.9316 95.1307ZM46.0325 97.7827L47.5279 97.899L47.5347 97.8124L47.5314 97.7257L46.0325 97.7827ZM45.8266 100.431L47.24 100.934L47.3067 100.746L47.3221 100.548L45.8266 100.431ZM44.9354 102.938L46.3058 103.548L46.3294 103.495L46.3488 103.441L44.9354 102.938ZM43.8653 105.343L45.0949 106.202L45.1772 106.084L45.2356 105.953L43.8653 105.343ZM42.3677 107.486L43.5875 108.359L43.5925 108.352L43.5973 108.345L42.3677 107.486ZM47 90L45.5151 89.7879L45.5009 89.8869L46.9859 90.099L48.4708 90.3111L48.4849 90.2121L47 90ZM46.9859 90.099L45.5198 89.7819L44.994 92.2127L46.46 92.5298L47.9261 92.8469L48.452 90.4161L46.9859 90.099ZM46.46 92.5298L44.9901 92.2311L44.4616 94.832L45.9316 95.1307L47.4015 95.4294L47.93 92.8285L46.46 92.5298ZM45.9316 95.1307L44.4327 95.1877L44.5335 97.8398L46.0325 97.7827L47.5314 97.7257L47.4305 95.0737L45.9316 95.1307ZM46.0325 97.7827L44.537 97.6665L44.3311 100.315L45.8266 100.431L47.3221 100.548L47.5279 97.899L46.0325 97.7827ZM45.8266 100.431L44.4132 99.9291L43.5221 102.436L44.9354 102.938L46.3488 103.441L47.24 100.934L45.8266 100.431ZM44.9354 102.938L43.5651 102.328L42.4949 104.733L43.8653 105.343L45.2356 105.953L46.3058 103.548L44.9354 102.938ZM43.8653 105.343L42.6356 104.484L41.1381 106.627L42.3677 107.486L43.5973 108.345L45.0949 106.202L43.8653 105.343ZM42.3677 107.486L41.148 106.613L40.7802 107.127L42 108L43.2198 108.873L43.5875 108.359L42.3677 107.486Z" fill="black"/>
<path d="M74.9026 51.1512L75.2451 49.6908L75.0463 49.6442L74.8423 49.6524L74.9026 51.1512ZM72.3618 51.2534L72.3015 49.7547L72.2402 49.7571L72.1792 49.7646L72.3618 51.2534ZM69.7394 51.575L69.8641 53.0698L69.8931 53.0674L69.922 53.0638L69.7394 51.575ZM67.2538 51.7823L66.2943 52.9353L66.7664 53.3281L67.3784 53.2771L67.2538 51.7823ZM65.2034 50.0762L63.8545 50.7323L63.9958 51.0226L64.244 51.2292L65.2034 50.0762ZM64.0398 47.6838L65.3887 47.0277L65.3705 46.9903L65.3502 46.9539L64.0398 47.6838ZM62.7544 45.3761L64.0648 44.6462L63.9809 44.4956L63.865 44.368L62.7544 45.3761ZM61.0124 43.4571L62.1231 42.4489L61.5322 41.7979L60.6755 41.9954L61.0124 43.4571ZM58.9225 43.9388L58.5856 42.4771L57.9969 42.6128L57.6666 43.1185L58.9225 43.9388ZM57.7897 45.6732L56.5338 44.853L55.3951 46.5965L57.4095 47.1243L57.7897 45.6732ZM75 51.174L75.3425 49.7136L75.2451 49.6908L74.9026 51.1512L74.5601 52.6116L74.6575 52.6344L75 51.174ZM74.9026 51.1512L74.8423 49.6524L72.3015 49.7547L72.3618 51.2534L72.4221 52.7522L74.963 52.65L74.9026 51.1512ZM72.3618 51.2534L72.1792 49.7646L69.5569 50.0861L69.7394 51.575L69.922 53.0638L72.5443 52.7423L72.3618 51.2534ZM69.7394 51.575L69.6148 50.0802L67.1291 50.2875L67.2538 51.7823L67.3784 53.2771L69.8641 53.0698L69.7394 51.575ZM67.2538 51.7823L68.2132 50.6292L66.1629 48.9231L65.2034 50.0762L64.244 51.2292L66.2943 52.9353L67.2538 51.7823ZM65.2034 50.0762L66.5523 49.4201L65.3887 47.0277L64.0398 47.6838L62.6909 48.3399L63.8545 50.7323L65.2034 50.0762ZM64.0398 47.6838L65.3502 46.9539L64.0648 44.6462L62.7544 45.3761L61.4439 46.1061L62.7294 48.4138L64.0398 47.6838ZM62.7544 45.3761L63.865 44.368L62.1231 42.4489L61.0124 43.4571L59.9017 44.4652L61.6437 46.3843L62.7544 45.3761ZM61.0124 43.4571L60.6755 41.9954L58.5856 42.4771L58.9225 43.9388L59.2594 45.4004L61.3493 44.9187L61.0124 43.4571ZM58.9225 43.9388L57.6666 43.1185L56.5338 44.853L57.7897 45.6732L59.0456 46.4935L60.1784 44.759L58.9225 43.9388ZM57.7897 45.6732L57.4095 47.1243L57.6198 47.1794L58 45.7283L58.3802 44.2773L58.1699 44.2222L57.7897 45.6732Z" fill="black"/>
<path d="M51.0989 75.0148L51.7293 73.6537L51.5341 73.5633L51.3214 73.5314L51.0989 75.0148ZM53.3852 76.0737L52.7548 77.4348L52.8225 77.4661L52.8929 77.4906L53.3852 76.0737ZM55.8934 76.945L55.4011 78.362L55.6508 78.4487L55.9151 78.4449L55.8934 76.945ZM58.5497 76.9067L58.5713 78.4065L58.6154 78.4059L58.6594 78.4026L58.5497 76.9067ZM61.169 76.7146L61.0754 75.2175L61.0673 75.218L61.0593 75.2186L61.169 76.7146ZM63.8006 76.5501L63.8942 78.0472L64.1641 78.0303L64.4111 77.9203L63.8006 76.5501ZM65.9655 75.5856L66.5759 76.9557L67.0672 76.7369L67.3074 76.2558L65.9655 75.5856ZM51 75L50.7775 76.4834L50.8764 76.4982L51.0989 75.0148L51.3214 73.5314L51.2225 73.5166L51 75ZM51.0989 75.0148L50.4685 76.3759L52.7548 77.4348L53.3852 76.0737L54.0155 74.7126L51.7293 73.6537L51.0989 75.0148ZM53.3852 76.0737L52.8929 77.4906L55.4011 78.362L55.8934 76.945L56.3856 75.5281L53.8774 74.6568L53.3852 76.0737ZM55.8934 76.945L55.9151 78.4449L58.5713 78.4065L58.5497 76.9067L58.528 75.4068L55.8717 75.4452L55.8934 76.945ZM58.5497 76.9067L58.6594 78.4026L61.2786 78.2106L61.169 76.7146L61.0593 75.2186L58.44 75.4107L58.5497 76.9067ZM61.169 76.7146L61.2625 78.2117L63.8942 78.0472L63.8006 76.5501L63.7071 75.053L61.0754 75.2175L61.169 76.7146ZM63.8006 76.5501L64.4111 77.9203L66.5759 76.9557L65.9655 75.5856L65.355 74.2154L63.1902 75.1799L63.8006 76.5501ZM65.9655 75.5856L67.3074 76.2558L67.3351 76.2004L65.9931 75.5302L64.6512 74.86L64.6235 74.9154L65.9655 75.5856Z" fill="black"/>
<path d="M65.9004 64.0086L65.7719 62.5141L65.339 62.5513L64.993 62.8141L65.9004 64.0086ZM63.8971 65.5304L64.0308 67.0244L64.4607 66.986L64.8045 66.7248L63.8971 65.5304ZM61.2611 65.7662L61.1275 64.2721L61.1195 64.2729L61.1114 64.2737L61.2611 65.7662ZM58.632 66.0299L58.3861 67.5096L58.5831 67.5423L58.7817 67.5224L58.632 66.0299ZM56.004 65.5931L55.4589 66.9906L55.6042 67.0473L55.7581 67.0728L56.004 65.5931ZM53.5369 64.6307L54.0821 63.2333L53.9512 63.1822L53.8131 63.1563L53.5369 64.6307ZM52.0021 64.3432L52.2783 62.8688L50.6816 62.5698L50.5105 64.1852L52.0021 64.3432ZM66 64L65.8715 62.5055L65.7719 62.5141L65.9004 64.0086L66.0289 65.5031L66.1285 65.4945L66 64ZM65.9004 64.0086L64.993 62.8141L62.9897 64.336L63.8971 65.5304L64.8045 66.7248L66.8078 65.203L65.9004 64.0086ZM63.8971 65.5304L63.7635 64.0364L61.1275 64.2721L61.2611 65.7662L61.3948 67.2602L64.0308 67.0244L63.8971 65.5304ZM61.2611 65.7662L61.1114 64.2737L58.4823 64.5374L58.632 66.0299L58.7817 67.5224L61.4108 67.2587L61.2611 65.7662ZM58.632 66.0299L58.8779 64.5502L56.2499 64.1134L56.004 65.5931L55.7581 67.0728L58.3861 67.5096L58.632 66.0299ZM56.004 65.5931L56.5492 64.1957L54.0821 63.2333L53.5369 64.6307L52.9918 66.0281L55.4589 66.9906L56.004 65.5931ZM53.5369 64.6307L53.8131 63.1563L52.2783 62.8688L52.0021 64.3432L51.726 65.8175L53.2608 66.105L53.5369 64.6307ZM52.0021 64.3432L50.5105 64.1852L50.5083 64.2052L52 64.3633L53.4917 64.5213L53.4938 64.5012L52.0021 64.3432Z" fill="black"/>
<path d="M75.0525 95.0972L76.5498 95.008L76.5419 94.8745L76.5104 94.7445L75.0525 95.0972ZM75.203 97.6243L73.7056 97.7135L73.7062 97.7236L73.707 97.7336L75.203 97.6243ZM75.3965 100.273L73.9005 100.382L73.9175 100.614L74.0042 100.831L75.3965 100.273ZM76.3847 102.738L74.9924 103.296L74.9951 103.303L74.9978 103.309L76.3847 102.738ZM77.3842 105.164L78.8091 104.695L78.792 104.643L78.7711 104.592L77.3842 105.164ZM77.9896 107.004L76.5647 107.472L77.0423 108.924L78.4846 108.42L77.9896 107.004ZM75.029 95L73.571 95.3527L73.5945 95.4499L75.0525 95.0972L76.5104 94.7445L76.4869 94.6473L75.029 95ZM75.0525 95.0972L73.5551 95.1864L73.7056 97.7135L75.203 97.6243L76.7003 97.5352L76.5498 95.008L75.0525 95.0972ZM75.203 97.6243L73.707 97.7336L73.9005 100.382L75.3965 100.273L76.8925 100.163L76.699 97.515L75.203 97.6243ZM75.3965 100.273L74.0042 100.831L74.9924 103.296L76.3847 102.738L77.777 102.18L76.7888 99.7145L75.3965 100.273ZM76.3847 102.738L74.9978 103.309L75.9973 105.735L77.3842 105.164L78.7711 104.592L77.7716 102.167L76.3847 102.738ZM77.3842 105.164L75.9594 105.633L76.5647 107.472L77.9896 107.004L79.4144 106.535L78.8091 104.695L77.3842 105.164ZM77.9896 107.004L78.4846 108.42L78.495 108.416L78 107L77.505 105.584L77.4945 105.588L77.9896 107.004Z" fill="black"/>
<path d="M69.0275 25.0962L67.5852 25.5082L67.6382 25.6936L67.7363 25.8596L69.0275 25.0962ZM70.3264 27.2929L71.8125 27.089L71.7714 26.7896L71.6176 26.5294L70.3264 27.2929ZM70.6858 29.9125L69.1997 30.1164L69.2052 30.1565L69.2129 30.1962L70.6858 29.9125ZM71.0878 31.9992L71.102 33.4991L72.901 33.482L72.5607 31.7154L71.0878 31.9992ZM69 25L67.5577 25.4121L67.5852 25.5082L69.0275 25.0962L70.4698 24.6841L70.4423 24.5879L69 25ZM69.0275 25.0962L67.7363 25.8596L69.0352 28.0563L70.3264 27.2929L71.6176 26.5294L70.3186 24.3327L69.0275 25.0962ZM70.3264 27.2929L68.8403 27.4968L69.1997 30.1164L70.6858 29.9125L72.1719 29.7086L71.8125 27.089L70.3264 27.2929ZM70.6858 29.9125L69.2129 30.1962L69.6149 32.2829L71.0878 31.9992L72.5607 31.7154L72.1587 29.6287L70.6858 29.9125ZM71.0878 31.9992L71.0736 30.4992L70.9858 30.5001L71 32L71.0142 33.4999L71.102 33.4991L71.0878 31.9992Z" fill="black"/>
<path d="M65.9293 18.0707L66.1073 19.5601L66.6228 19.4985L66.9899 19.1314L65.9293 18.0707ZM63.3995 18.373L63.2216 16.8836L63.0267 16.9069L62.8444 16.9795L63.3995 18.373ZM60.9553 19.3467L60.4002 17.9532L59.3083 18.3881L59.4695 19.5524L60.9553 19.3467ZM61.322 21.9942L62.6251 22.737L62.8778 22.2938L62.8078 21.7884L61.322 21.9942ZM60.077 24.1783L58.6998 24.7728L59.8913 27.533L61.3801 24.9211L60.077 24.1783ZM66 18L64.9393 16.9393L64.8686 17.0101L65.9293 18.0707L66.9899 19.1314L67.0607 19.0607L66 18ZM65.9293 18.0707L65.7513 16.5813L63.2216 16.8836L63.3995 18.373L63.5775 19.8624L66.1073 19.5601L65.9293 18.0707ZM63.3995 18.373L62.8444 16.9795L60.4002 17.9532L60.9553 19.3467L61.5104 20.7402L63.9547 19.7665L63.3995 18.373ZM60.9553 19.3467L59.4695 19.5524L59.8362 22.2L61.322 21.9942L62.8078 21.7884L62.4411 19.1409L60.9553 19.3467ZM61.322 21.9942L60.0188 21.2514L58.7738 23.4355L60.077 24.1783L61.3801 24.9211L62.6251 22.737L61.322 21.9942ZM60.077 24.1783L61.4541 23.5838L61.3772 23.4055L60 24L58.6228 24.5945L58.6998 24.7728L60.077 24.1783Z" fill="black"/>
<path d="M67.9005 89.1363L67.746 87.6443L67.5005 87.6697L67.276 87.7725L67.9005 89.1363ZM65.5814 90.1983L65.7939 91.6832L66.0086 91.6525L66.2059 91.5621L65.5814 90.1983ZM62.9593 90.5736L62.7468 89.0887L62.7072 89.0944L62.6679 89.1021L62.9593 90.5736ZM60.3657 91.0871L60.2791 92.5846L60.4697 92.5956L60.6571 92.5585L60.3657 91.0871ZM57.7005 90.9329L57.0715 92.2946L57.3298 92.4139L57.6139 92.4304L57.7005 90.9329ZM55.2819 89.8156L54.3592 90.9982L54.4957 91.1047L54.6529 91.1773L55.2819 89.8156ZM53.2138 88.2021L52.1836 89.2923L52.2352 89.341L52.2911 89.3847L53.2138 88.2021ZM68 89.126L67.8455 87.634L67.746 87.6443L67.9005 89.1363L68.055 90.6283L68.1545 90.618L68 89.126ZM67.9005 89.1363L67.276 87.7725L64.9568 88.8345L65.5814 90.1983L66.2059 91.5621L68.5251 90.5001L67.9005 89.1363ZM65.5814 90.1983L65.3689 88.7135L62.7468 89.0887L62.9593 90.5736L63.1718 92.0584L65.7939 91.6832L65.5814 90.1983ZM62.9593 90.5736L62.6679 89.1021L60.0744 89.6156L60.3657 91.0871L60.6571 92.5585L63.2506 92.045L62.9593 90.5736ZM60.3657 91.0871L60.4524 89.5896L57.7872 89.4354L57.7005 90.9329L57.6139 92.4304L60.2791 92.5846L60.3657 91.0871ZM57.7005 90.9329L58.3296 89.5712L55.911 88.4538L55.2819 89.8156L54.6529 91.1773L57.0715 92.2946L57.7005 90.9329ZM55.2819 89.8156L56.2046 88.6329L54.1365 87.0194L53.2138 88.2021L52.2911 89.3847L54.3592 90.9982L55.2819 89.8156ZM53.2138 88.2021L54.2441 87.1118L54.0303 86.9098L53 88L51.9697 89.0902L52.1836 89.2923L53.2138 88.2021Z" fill="black"/>
<path d="M60.9072 19.9629L59.7587 20.9277L60.0007 21.2158L60.3501 21.3556L60.9072 19.9629ZM59.5731 18.3749L60.7216 17.4101L60.3922 17.018L59.8918 16.9092L59.5731 18.3749ZM57.2088 17.8609L57.5275 16.3952L57.2315 16.3308L56.9337 16.3864L57.2088 17.8609ZM55.994 18.0876L54.4975 17.9857L54.366 19.9172L56.2692 19.5622L55.994 18.0876ZM61 20L61.5571 18.6073L61.4642 18.5701L60.9072 19.9629L60.3501 21.3556L60.4429 21.3927L61 20ZM60.9072 19.9629L62.0557 18.998L60.7216 17.4101L59.5731 18.3749L58.4246 19.3398L59.7587 20.9277L60.9072 19.9629ZM59.5731 18.3749L59.8918 16.9092L57.5275 16.3952L57.2088 17.8609L56.8902 19.3267L59.2545 19.8407L59.5731 18.3749ZM57.2088 17.8609L56.9337 16.3864L55.7189 16.6131L55.994 18.0876L56.2692 19.5622L57.484 19.3355L57.2088 17.8609ZM55.994 18.0876L57.4906 18.1895L57.4965 18.1019L56 18L54.5035 17.8981L54.4975 17.9857L55.994 18.0876Z" fill="black"/>
<path d="M51.9064 90.9649L52.4331 89.5604L52.3566 89.5317L52.2775 89.5115L51.9064 90.9649ZM49.4416 90.3355L48.808 91.6951L48.9349 91.7542L49.0705 91.7889L49.4416 90.3355ZM47.0386 89.2156L47.6722 87.856L47.5933 87.8193L47.5108 87.7919L47.0386 89.2156ZM44.5256 88.3821L43.6437 89.5954L43.8322 89.7324L44.0534 89.8058L44.5256 88.3821ZM52 91L52.5267 89.5955L52.4331 89.5604L51.9064 90.9649L51.3797 92.3694L51.4733 92.4045L52 91ZM51.9064 90.9649L52.2775 89.5115L49.8127 88.8821L49.4416 90.3355L49.0705 91.7889L51.5352 92.4182L51.9064 90.9649ZM49.4416 90.3355L50.0752 88.9759L47.6722 87.856L47.0386 89.2156L46.4049 90.5752L48.808 91.6951L49.4416 90.3355ZM47.0386 89.2156L47.5108 87.7919L44.9979 86.9583L44.5256 88.3821L44.0534 89.8058L46.5663 90.6393L47.0386 89.2156ZM44.5256 88.3821L45.4076 87.1687L44.8819 86.7867L44 88L43.1181 89.2133L43.6437 89.5954L44.5256 88.3821Z" fill="black"/>
<path d="M45.9004 108.992L45.4312 110.416L45.5984 110.471L45.7738 110.486L45.9004 108.992ZM43.4741 108.193L42.7149 109.486L42.8529 109.567L43.0049 109.617L43.4741 108.193ZM41.1721 106.842L41.9313 105.548L41.0603 105.037L40.2591 105.652L41.1721 106.842ZM39.0829 108.445L38.4719 109.814L39.2874 110.178L39.9959 109.635L39.0829 108.445ZM46 109L46.1265 107.505L46.0269 107.497L45.9004 108.992L45.7738 110.486L45.8735 110.495L46 109ZM45.9004 108.992L46.3695 107.567L43.9433 106.768L43.4741 108.193L43.0049 109.617L45.4312 110.416L45.9004 108.992ZM43.4741 108.193L44.2332 106.899L41.9313 105.548L41.1721 106.842L40.413 108.136L42.7149 109.486L43.4741 108.193ZM41.1721 106.842L40.2591 105.652L38.1699 107.254L39.0829 108.445L39.9959 109.635L42.0851 108.032L41.1721 106.842ZM39.0829 108.445L39.6939 107.075L39.611 107.038L39 108.408L38.389 109.777L38.4719 109.814L39.0829 108.445Z" fill="black"/>
</svg>
