<svg width="120" height="120" viewBox="0 0 120 120" fill="none" xmlns="http://www.w3.org/2000/svg">
<path d="M94.3125 50.846L94.4648 53.3773L94.4766 53.5179L94.4531 53.6702L94.1016 56.2718L94.0898 56.3655L94.0664 56.4593L93.375 58.9788V58.9905L93.3633 59.0023L92.6367 61.5335L92.6016 61.6507L92.5547 61.7562L91.4414 64.1468L91.3828 64.2523L91.3242 64.346L89.8594 66.5491L89.8477 66.5726L89.8242 66.596L88.2773 68.7405L88.207 68.8343L88.125 68.9163L86.2734 70.7913L84.4219 72.6546L84.3281 72.7484L84.2227 72.8187L82.0664 74.3304L82.0312 74.3655L81.9844 74.389L79.7227 75.7484H79.7109L77.4258 77.096L77.25 77.2015L77.0625 77.2601L74.5781 77.9398L72.082 78.7718L72.0703 78.7601L69.5977 79.6273L69.5273 79.6507L66.6797 80.4944L66.3516 80.4476L63.832 80.0843L63.9961 78.8655L63.9492 78.6194L63.6328 77.1546L63.7266 77.1312L63.9961 77.0726L64.2656 77.1077L66.457 77.4241L68.6836 76.7796L71.1094 75.9241H71.1328L73.6641 75.0804L73.7109 75.0687L76.0664 74.4124L78.1758 73.1702L80.3672 71.8577L82.3711 70.4515L84.1523 68.6702L85.9336 66.8538L87.3984 64.8382L88.7461 62.7991L89.7773 60.596L90.4922 58.1702L91.125 55.8265L91.4648 53.4007L91.4062 52.6038L90.8555 52.6624L88.4414 53.3304L86.4492 53.9866L85.1016 55.7679L84.9375 55.9905L84.6914 56.1429L82.5938 57.4202L80.7773 59.2366L80.7305 59.2718L78.832 60.8773L77.332 62.8577L77.2031 63.0218L77.0508 63.139L74.9531 64.7562L74.8828 64.803L74.8242 64.8499L73.7578 65.5062L73.0078 64.2874L72.9727 64.2991L71.4727 64.3812V64.3109L71.4258 63.4202L72.1875 62.9515L73.1484 62.3421L75.0586 60.8773L76.5586 58.9319L76.6523 58.803L76.7812 58.7093L78.7852 56.9866L80.5781 55.2054L80.6953 55.0765L80.8477 54.9827L82.875 53.7288L84.3281 51.8187L84.6094 51.4437L85.0547 51.2913L87.4922 50.4827L87.5625 50.4593L90.1406 49.7562L90.2461 49.721L90.3633 49.7093L92.6484 49.4515L94.2188 49.2757L94.3125 50.846Z" fill="black"/>
<path d="M101.285 72.9374L101.73 74.9531L101.824 75.3632L101.684 75.7617L100.84 78.246L100.816 78.2929L100.805 78.3281L99.7969 80.789L99.7148 81.0117L99.5625 81.1874L97.8984 83.1562L96.4336 85.3007L96.3398 85.4179L96.2344 85.5234L94.4062 87.2578L92.6484 89.2617L92.4609 89.4726L92.2031 89.6015L89.9648 90.7382L87.9609 92.2851L87.9023 92.3437L87.832 92.3788L85.582 93.7617L85.5352 93.7851L83.25 95.0859L83.2031 95.1093L80.8711 96.3515L80.8359 96.3749L80.7891 96.3867L78.3867 97.4882L78.2578 97.5351L78.1406 97.5703L75.7852 98.1679L73.6289 99.4335L73.4062 99.5624L73.1602 99.6093L70.6641 100.09L70.6758 100.102L68.2617 100.793L66.0117 101.953L65.6836 102.117H65.3203L62.5664 102.094L62.1211 102.082L61.7461 101.836L60.4453 100.969L61.1133 99.9609L59.7656 99.9374L59.7773 99.6679L59.8594 96.9609L61.5352 98.0859L63.0117 96.457L64.3711 94.3242L64.3828 94.3124L65.8242 92.0976L65.8594 92.039L65.9062 91.9804L67.5469 89.9062L67.6055 89.8359L67.6758 89.7656L69.4922 87.996L70.9922 85.9804L71.0508 85.9101L71.1094 85.8515L72.9023 83.9062L72.9375 83.871L72.9727 83.8476L74.8945 82.0312V82.0195L76.8281 80.2031L76.9336 80.121L77.0391 80.0507L79.2656 78.5976L81.4805 77.1562L81.5391 77.121L81.6094 77.0859L83.9414 75.8788L86.2734 74.6484L86.2969 74.6367H86.3086L88.6992 73.4648L88.8281 73.4062L88.9688 73.371L91.5234 72.6679L91.6406 72.6445L94.2539 72.1523L94.3125 72.1406L94.3945 72.1288L97.0195 71.8828H97.1016L99.7617 71.7656L101.016 71.707L101.285 72.9374ZM97.2891 74.8593L97.3008 74.871L94.6875 75.1054L92.2969 75.5624L89.8477 76.2304L87.6328 77.332L87.6211 77.3203L85.3359 78.539H85.3242L82.9922 79.7578L82.9805 79.746L80.8945 81.1171L78.75 82.4999L76.9453 84.1992L75.0352 86.0273L73.3477 87.832L71.8359 89.8945L71.7656 89.9882L71.6719 90.082L69.7969 91.8867L68.2969 93.7851L66.9023 95.9531L66.8906 95.9413L65.4844 98.1679L65.4141 98.2734L65.332 98.3671L64.6523 99.1054H64.957L67.043 98.0507L67.1719 97.9921L67.3008 97.957L69.8438 97.2187L69.9023 97.1953L69.9727 97.1835L72.3047 96.7148L74.4258 95.4843L74.6133 95.3788L74.8125 95.3203L77.2383 94.6992L79.5469 93.6562L81.7969 92.4609L84.0117 91.1953L86.2148 89.8359L88.2188 88.3007L88.3242 88.2187L88.4531 88.1484L90.5977 87.0468L92.168 85.2773L92.2031 85.2304L92.25 85.1953L94.043 83.4492L95.4727 81.4218L95.5078 81.3632L95.5547 81.3046L97.1016 79.4296L97.9922 77.2734L98.707 75.1874L98.625 74.8124L97.2891 74.8593Z" fill="black"/>
<path d="M22.5547 73.4017L22.6836 73.6478L22.7188 73.9174L23.0117 76.1556L24.1602 78.1947L25.5664 80.2103H25.5781L27.125 82.3431L27.1367 82.3549L27.1484 82.3783L28.5312 84.3939L30.3945 85.9408L32.4453 87.6049L34.3789 89.0111L36.6641 90.3353L36.7109 90.3588L36.7461 90.3939L38.9141 91.847L41.1172 93.0189H41.1289L43.3789 94.2025L45.7695 95.1166L48.207 95.8431L48.2656 95.8549L48.3125 95.8783L50.7734 96.8158H50.7617L53.1875 97.6478L55.6016 98.4095L57.9102 98.7963L59.6211 98.7845L59.6328 100.027L60.8867 99.4174L62.0469 101.738L59.668 101.785L57.8398 101.808H57.6992L57.5586 101.785L54.9922 101.351L54.8867 101.339L54.793 101.304L52.2852 100.507H52.2617L52.25 100.495L49.7539 99.64L49.7305 99.6283H49.707L47.3516 98.7142L44.8203 97.976L44.7031 97.9291L42.2305 96.9799L42.1602 96.9447L42.0781 96.9095L39.7344 95.6791H39.7227L37.4023 94.4369L37.332 94.39L37.2734 94.3549L35.1641 92.9369L32.8789 91.6127L32.8086 91.5775L32.75 91.5306L30.6172 89.9838L30.5469 89.9369L28.5078 88.2728H28.4961V88.2611L26.4453 86.5736L26.293 86.4447L26.1641 86.2689L24.6641 84.0658V84.0541L23.1523 81.9799L23.1289 81.9564L21.6172 79.7885L21.582 79.7299L21.5469 79.6595L20.2461 77.351L20.1055 77.0931L20.0703 76.8119L19.7422 74.3041L20.9492 74.1517L21.1836 74.0228L22.5078 73.3197L22.5547 73.4017Z" fill="black"/>
<path d="M21.5371 72.0916L24.209 72.3025L24.1973 72.3142L26.8223 72.4783L26.8926 72.49L26.9746 72.5017L29.5645 72.947L29.6582 72.9705L32.2129 73.5916L32.2832 73.6033L32.3535 73.6267L34.791 74.4705H34.8027L37.3223 75.2908L37.416 75.3142L37.5098 75.3611L39.8887 76.5212L40.0059 76.5798L40.0996 76.6501L42.2559 78.1736L42.2793 78.197L42.3027 78.2087L44.4004 79.7908L44.4707 79.8494L44.5293 79.908L46.3809 81.6541L48.3965 83.3533L48.4668 83.4001L48.5137 83.4587L50.3535 85.3455L50.3652 85.3689L50.377 85.3806L52.0996 87.2791L53.9863 89.1306L54.1035 89.2478L54.1973 89.3884L55.6152 91.5798L57.1621 93.572H57.1738L58.8262 95.6462L58.8965 95.74L60.209 97.697L61.8145 98.7517L61.9902 98.8806L62.1309 99.0447L62.1895 99.115L61.0527 100.088L60.7715 100.31L60.1621 101.26L58.2988 100.029L58.0527 99.865L57.877 99.6189L56.4004 97.4158H56.3887L54.8301 95.447L54.8184 95.4353L53.2012 93.3494L53.166 93.3025L53.1309 93.2439L51.7598 91.158L49.9902 89.4119L49.9668 89.3884L49.9434 89.3533L48.1621 87.408V87.3962L46.3926 85.5798L44.459 83.9626L44.3887 83.8923L42.5957 82.1931L40.4863 80.5994V80.5876L38.4238 79.1462L36.2324 78.0798L33.877 77.3298L33.8652 77.3181H33.8535L31.3809 76.4626L29.0488 75.9119L26.5645 75.4666L23.9863 75.2908H23.9746L21.5137 75.1033L20.541 75.3259L19.8848 72.3962L21.1035 72.1267L21.3145 72.0798L21.5371 72.0916Z" fill="black"/>
<path d="M29.0527 50.8679L29.2402 50.8445L30.7168 50.5867L30.7402 50.6804L30.7988 51.032L30.6934 51.3718L30.084 53.4343L30.5996 55.6492L31.3613 57.9929H31.373L32.2402 60.4773V60.489L32.252 60.5125L32.9902 62.7859L34.373 64.7664L35.873 66.7703L37.5254 68.6101L39.5059 70.2039L39.541 70.239L41.4746 71.8796L43.5371 73.1804L45.7285 74.3875L48.0488 75.196L50.5332 75.7351L50.6035 75.7468L50.6621 75.7703L53.0645 76.5203L55.4785 77.0593L57.9395 77.1531L58.209 77.1648L58.4434 77.2585L60.916 78.2546L61.0449 78.3132L61.1738 78.3953L61.877 78.864L61.0449 80.1062L60.2246 81.3601L59.6504 80.9851L57.5527 80.1414L55.2324 80.0593H55.1035L54.9629 80.0242L52.4082 79.45L52.3496 79.4382L52.291 79.4148L49.8418 78.6531L47.3105 78.1023L47.2168 78.0906L47.1348 78.0554L44.6387 77.1882L44.5215 77.1414L44.4043 77.0828L42.084 75.8054L42.0137 75.7585L39.7754 74.3523L39.6816 74.2937L39.5996 74.2234L37.5957 72.5242V72.5125L35.5801 70.8953L35.4863 70.825L35.4043 70.7312L33.6465 68.7859L33.5996 68.7273L31.9824 66.571L31.959 66.5593L31.9473 66.5359L30.4238 64.3679L30.2949 64.1804L30.2246 63.9695L29.416 61.4734L28.5371 58.989V58.9773L28.5254 58.9656L27.7051 56.446L27.6816 56.3875L27.6699 56.3171L27.0723 53.7273L26.9902 53.3406L27.0957 52.9656L27.8223 50.5164L29.0527 50.8679Z" fill="black"/>
<path d="M37.7422 25.9103L37.9414 25.9572L39.4062 26.3087L39.3828 26.4025L39.3008 26.7423L39.0781 27.0118L37.7188 28.6525L37.25 30.7736L37.0391 33.3517L36.8516 35.9532V36.0353L36.5469 38.4845L36.8164 40.9572L36.8281 40.9806V41.0157L37.0156 43.5822L37.2969 46.172L37.8125 48.6564L37.8359 48.8439L38.0352 51.3751L38.5156 53.0978L40.2031 54.4572L42.2656 56.1095L44.3281 57.7736L44.3984 57.8322L44.457 57.8907L46.3086 59.7892L46.3438 59.8243L47.9609 61.6173L50.5859 63.2111L50.2695 64.3126L50.2344 64.4064L48.8047 63.9845L48.7695 63.9728L48.0547 65.1798L46.2266 64.0782L46.0391 63.9611L45.8984 63.797L44.1172 61.84V61.8282L42.3711 60.047L40.3789 58.4415L38.3281 56.8009L36.2656 55.1368L35.8906 54.8439L35.7617 54.3751L35.1055 51.9962L35.0586 51.8673L35.0469 51.715L34.8359 49.0782L34.3438 46.6642L34.332 46.6056L34.3203 46.5353L34.0273 43.922V43.8634L33.8281 41.2267L33.8398 41.215L33.5469 38.6486L33.5234 38.4728L33.5469 38.3087L33.8633 35.7423L34.0391 33.1173V33.1056L34.0508 33.0939L34.2734 30.4689V30.3634L34.2969 30.2697L34.8711 27.6681L34.9414 27.3048L35.1758 27.0236L36.7578 25.1017L37.7422 25.9103Z" fill="black"/>
<path d="M83.7598 25.2599L85.9277 26.0216L86.6895 26.2911L87.4863 29.6779L87.5098 29.7365V29.8068L87.9082 32.4083L87.9316 32.5958L87.9902 35.1857L88.1309 37.799L88.3301 40.4357L88.3418 40.5294V40.6232L88.2129 43.2716V43.3185L88.2012 43.3654L87.9082 46.0021V46.0607L87.8965 46.1193L87.3926 48.6857L86.9355 51.2872L86.7246 53.0333L85.4707 52.8693L85.998 54.1583L85.7871 54.2404L83.4434 55.1779L83.748 52.6583L83.9707 50.8419V50.8068L83.9824 50.7599L84.4512 48.17V48.1466L84.9434 45.545L85.2129 43.131L85.3301 40.588L85.1426 38.0216V37.9865L85.002 35.3497V35.3146L84.9316 32.8068L84.5684 30.3693L84.1348 28.5646L83.8418 28.4591L82.998 29.7013L82.9277 29.795L81.5098 31.5646L80.959 33.7794L80.877 34.0841L80.6895 34.3302L79.084 36.3927L77.5605 38.5138L76.0488 40.6818V40.6935L76.0371 40.7052L74.4902 42.838L74.373 43.0138L74.209 43.1427L72.252 44.6779L71.584 43.8458L71.2559 43.5763L70.0957 42.6271L70.1543 42.5568L70.2598 42.4279L70.3887 42.3224L72.1816 40.9044L73.5996 38.9474L75.1113 36.8029L75.123 36.7911L76.6582 34.6466L76.6934 34.6115L78.123 32.7365L78.6855 30.5216L78.7559 30.2052L78.9668 29.9474L80.584 27.92L82.0254 25.8224L82.6699 24.8732L83.7598 25.2599Z" fill="black"/>
<path d="M62.6621 29.1155L64.4434 31.0608L66.2949 32.9358L66.4121 33.0764L67.9707 35.1272L68.0059 35.1624L68.0293 35.1975L69.5176 37.3889L69.6348 37.5647L69.7051 37.7639L70.4551 40.0959L71.8613 42.0999L71.9902 42.2874L72.0605 42.4866L72.8574 44.9241L72.8691 44.9592L72.8809 45.0061L74.2402 50.1155L74.2754 50.2327L74.2871 50.3499L74.5449 52.9866L74.5566 53.1272L74.5449 53.2678L74.3223 55.7288L74.709 58.2131L74.7559 58.5413L74.6621 58.8694L73.9473 61.2483L73.877 63.7444V63.8499L73.6309 66.2639L73.5957 66.5569L73.4551 66.8147L72.2129 69.1467L72.1426 69.2756L72.0371 69.4045L70.4199 71.3147L69.3652 73.5295L69.2715 73.7053L69.1426 73.8577L67.4199 75.8499L66.002 77.842L65.9434 77.9241L65.873 78.0061L64.1152 79.8577L64.0215 79.9631L63.916 80.0334L62.4746 81.0999L62.7559 82.8928L62.7676 82.9983V83.1038L62.8145 85.7405V85.8459L62.8027 85.9631L62.4863 88.4006L62.6738 90.9319L62.6855 91.0374L62.6738 91.1311L62.5215 93.7795L62.6152 96.2756V96.3108L62.6387 98.9358L62.6621 99.9553L59.6621 100.002L59.6387 98.9827V98.9709L59.6152 96.3811L59.5215 93.7444V93.592L59.6738 91.0725L59.4746 88.5178L59.4629 88.3655L59.4863 88.2131L59.8027 85.6819L59.7676 83.1975L59.3809 80.678L59.2402 79.7756L59.9668 79.2366L62.041 77.678L63.5996 76.0256L65.0645 73.9866L65.1113 73.9397L65.1582 73.8811L66.7402 72.0413L67.8066 69.8381L67.8887 69.6741L68.0176 69.5217L69.6348 67.5881L70.666 65.6545L70.877 63.6506L70.959 60.9553L70.9707 60.7678L71.0293 60.5803L71.6855 58.342L71.334 56.01L71.2988 55.8342L71.3223 55.6467L71.5449 53.1272L71.3105 50.8069L70.666 48.3342L70.0098 45.8616L69.2832 43.6467L67.8887 41.6428L67.7598 41.467L67.6895 41.2561L66.9277 38.9241L65.5449 36.885V36.8733L64.1035 34.9866L62.2988 33.1584L62.2871 33.135L62.2637 33.1233L61.2207 31.9866L60.2949 32.4553L58.959 34.2952L58.8535 34.4358L58.7129 34.553L56.8613 36.0999L55.6543 38.1506L54.377 40.4592L54.3535 40.5061L53.0762 42.6155L52.0449 44.8186L51.5996 47.1624L51.5879 47.1741L51.0723 49.7522L51.0605 49.7639L50.5449 52.26L50.2871 54.8147L50.0879 57.2522L50.3809 59.7717L50.6855 62.3733V62.4202L50.6973 62.4788L50.791 64.5999L52.0332 66.4631L52.1035 66.5803L52.1621 66.7092L53.1465 69.0413L54.2949 71.2561L55.748 73.0959L57.5996 74.9709L57.7637 75.1467L57.8691 75.3577L59.0059 77.6545L58.4082 77.9358L57.7168 78.4045L56.4629 79.2249L56.4043 79.1311L56.3574 79.0608L56.3223 78.9788L55.291 76.9163L53.6152 75.2053L53.498 75.0881L51.8574 73.0022L51.7754 72.8967L51.7168 72.7678L50.4863 70.4358L50.4512 70.3772L50.4277 70.3186L49.4316 67.9866L48.0723 65.9006L47.8379 65.5608L47.8262 65.1506L47.6973 62.6194L47.4043 60.1233L47.0879 57.4866L47.0762 57.3342L47.0879 57.1936L47.2988 54.5452V54.5334L47.3105 54.51L47.5684 51.885L47.5801 51.8147L47.5918 51.7327L48.1309 49.1545L48.6582 46.5881H48.6465L49.1504 44.0569L49.1855 43.8694L49.2559 43.7053L50.3457 41.3499L50.3809 41.2795L50.4277 41.2092L51.7871 38.9592L53.041 36.6975L53.0527 36.6858V36.6741L54.4004 34.3772L54.5293 34.1545L54.7285 33.9788L56.6504 32.3499L58.1035 30.3928L58.3145 30.1116L58.6191 29.9592L60.8691 28.7991L61.8887 28.2717L62.6621 29.1155Z" fill="black"/>
<path d="M40.8066 27.3323L40.8418 27.3909L40.8887 27.4495L42.3184 29.6292L43.748 31.6799L43.8184 31.7854L43.877 31.9026L44.9668 34.2229L46.1738 36.344L47.791 38.2307L49.4902 40.2463L51.0957 41.9221L51.5293 42.2034L50.7324 43.469L49.9355 44.7463L49.3613 44.3831L49.1973 44.2893L49.0684 44.1487L47.252 42.2502L47.2285 42.2151L47.1934 42.1799L45.4941 40.1643L43.7832 38.1604L43.7012 38.0549L43.6309 37.926L42.3184 35.6174L42.2832 35.5706L42.2598 35.5237L41.1934 33.262L39.8574 31.3518L39.8457 31.3284L39.834 31.3167L38.3809 29.1018H38.3691L36.9395 27.2971L36.8809 27.2385L36.8457 27.1682L36.7871 27.0862L38.0527 26.2776L38.8496 25.7737L39.2832 25.4221L40.8066 27.3323Z" fill="black"/>
<path d="M62.5801 18.2617L64.4434 20.0781L64.5254 20.1602L64.5957 20.2539L66.1777 22.375L66.1895 22.3867L67.7012 24.4844L69.2832 26.5117L70.1973 27.4727L70.9121 28.2227L70.4668 29.1484V29.1602L69.1074 28.5156L69.0957 28.5039L68.0293 29.5352L67.0566 28.5156L66.998 28.457L66.9629 28.4102L65.334 26.3359L65.3105 26.2891L63.752 24.1562V24.1445L62.2637 22.1406L61.0918 21.0039L60.1191 21.2734L58.7363 22.8203L57.5059 24.9883L57.4707 25.0469L57.4355 25.0938L55.9355 27.2617L55.8184 27.4375L55.6543 27.5781L53.6738 29.1836L53.0996 28.4688L52.666 28.0938L51.541 27.1094L51.5996 27.0273L51.6816 26.9336L51.7871 26.8516L53.6035 25.3633L54.9629 23.3945L56.2168 21.1914L56.2988 21.0625L56.4043 20.9453L58.1738 18.9648L58.4551 18.6367L58.8887 18.5195L61.127 17.8867L61.959 17.6523L62.5801 18.2617Z" fill="black"/>
<path d="M75.3262 20.7729L77.0371 22.812L77.1074 22.894L77.166 22.9878L78.5488 25.2495L78.5723 25.2847L78.584 25.3198L79.8496 27.6519L79.9199 27.7925L80.7871 29.9136L80.8809 29.9956L80.834 30.0308L80.916 30.2065L80.5293 30.3589L79.8496 31.0854L78.8184 32.1753L78.502 31.8706L78.2676 31.6479L78.1387 31.355L77.1543 28.9761L75.9473 26.7495V26.7378L74.6816 24.6753L74.0605 23.937L73.5918 24.394L72.2441 26.3159L71.0254 28.437L70.3223 30.7808L70.3105 30.7925V30.8042L69.4902 33.3237L69.4082 33.5815L69.2324 33.7925L67.627 35.7847L66.8301 35.1284L66.4199 34.9292L65.084 34.2612L65.1191 34.1675L65.2012 34.0269L65.2949 33.8979L66.7246 32.1284L67.4629 29.8784L68.2129 27.394L68.2598 27.23L68.3418 27.0894L69.6309 24.8276L69.666 24.769L69.7129 24.7104L71.2363 22.5425L71.3184 22.4253L71.4121 22.3315L73.1348 20.6675L74.2949 19.5425L75.3262 20.7729Z" fill="black"/>
<path d="M48.5234 20.8545L50.4688 21.9912L50.8906 22.2373L51.0898 22.6826L52.0742 24.9326L53.5391 27.0068L53.6445 27.1592L53.7148 27.335L54.6172 29.7021L55.7305 32.0342L56.8438 34.1318L56.8555 34.1436V34.1553L56.9023 34.249L54.2305 35.6084L54.1953 35.5498L53.0469 33.3818L53.0352 33.3467L53.0117 33.3115L51.8867 30.9209L51.8633 30.874L51.8398 30.8154L50.9727 28.5771L49.5664 26.585L49.4727 26.4678L49.4141 26.3271L48.5352 24.335L48.1133 24.0889L47.3633 24.9912L46.1562 27.0303L45.125 29.4443L45.0664 29.5615L44.9961 29.667L43.5664 31.8818L43.4141 32.1162L43.1797 32.292L43.0039 32.4092L42.1367 31.1904L41.832 30.7451L41.0469 30.2529L42.4062 28.1318L43.3906 25.8467L43.4375 25.7529L43.4844 25.6709L44.8203 23.4092L44.8789 23.3037L44.9492 23.2217L46.6133 21.2061L47.4219 20.21L48.5234 20.8545Z" fill="black"/>
<path d="M29.8984 49.1295L29.9453 49.1412L29.9805 49.153L32.2422 50.0319L34.5859 50.8873L36.5312 51.1803L37.5273 51.3209L37.7617 52.3053L37.7852 52.4225L36.332 52.7623H36.2852L36.0859 54.1451L33.9531 53.8287L33.8008 53.8053L33.6602 53.7467L31.1992 52.8326H31.1875L28.9258 51.9537H28.8906L29.8047 49.0944L29.8984 49.1295Z" fill="black"/>
</svg>
