<svg width="120" height="120" viewBox="0 0 120 120" fill="none" xmlns="http://www.w3.org/2000/svg">
<path d="M61.5332 12.5684L63.2012 12.6963L63.1006 13.999L64.5859 13.9971V15.8105L64.4385 15.7988L64.3271 17.0381L64.4307 19.8965L64.4668 20.4199L64.9141 20.3945L66.4961 20.3008V22H65.0078L65.0898 23.3828L64.6543 23.4082L64.7354 25.9473L64.7373 26.0107L64.7334 26.0742L64.5791 28.9385L64.9668 31.7852L64.9717 31.8213L64.9746 31.8584L65.2334 34.8457H65.2324L65.4883 37.7754L65.8838 40.3857L66.9922 40.3828L68.5039 40.3711V42H67.0039V43.3828H66.1162L66.1426 43.7822L66.2236 44.3848L66.9922 44.3828L68.5039 44.3711V46H67.0039V47.3828H66.6221L66.9023 49.6309L67.502 52.4531L68.2959 55.3105L68.3115 55.3652L68.3223 55.4209L68.8975 58.3223L69.3877 60.498L69.8633 60.4531L71.5039 60.3008V62H70.0039L70.1328 63.4414L70.0596 63.4473L70.2139 64.1211L70.2969 64.4121L71.5039 64.3008V66H70.7549L71.0332 66.9668L71.0586 67.0557L71.0723 67.1475L71.5225 69.9912L72.4805 72.6357L73.6543 75.3701L73.7061 75.4902L73.7363 75.6182L74.3955 78.4268L75.2002 80.3232L75.5352 80.3125L75.8984 80.2891L76.2266 80.4531L76.6367 80.6406L76.0039 82L75.9004 82.2119L76.4678 83.9219L77.8154 86.4785L77.9023 86.6445L77.9463 86.8271L78.6143 89.6064L79.9102 92.1211L79.9316 92.1621L81.2051 94.834L82.5547 97.4756L83.9805 100.115L83.9824 100.119L85.4004 102.761L85.4355 102.826L85.4639 102.896L86.5342 105.475L88.332 107.646L88.4609 107.802L88.5439 107.985L88.707 108.347L89.4961 108.301V110H89.4541L89.7568 110.669L91.2227 113.205L91.2441 113.243L91.2637 113.281L91.9014 114.549L92.1523 114.559L95.6211 114.254L95.7852 114.242L95.9609 114.266L99.3242 114.746L102.699 114.57H102.758L106.25 114.559V114.547L109.742 114.5V114.488L111.945 114.418L113.504 114.359V116H112.004L112.051 117.406L109.836 117.488H109.812L106.309 117.547H106.297L102.828 117.559L102.84 117.57L99.3359 117.746L99.1953 117.758L99.0547 117.734L95.7148 117.254L93.3652 117.459L93.499 117.725L91.083 117.74L88.083 117.759L87.9492 117.76L87.8184 117.737L86.5674 117.521L85.2852 117.582H85.0977L83.2158 117.413L82.208 117.504L82.0869 117.516L81.9658 117.507L80.3418 117.39L78.3125 117.559H78.2656L74.7617 117.711L74.6445 117.723L74.5391 117.711L71.0469 117.348L67.6953 117.406H67.6484L64.1328 117.348V117.336H60.6289L57.2188 117.289L53.7266 117.512L53.7031 117.523H53.668L50.1641 117.617H50.0703L46.5664 117.512V117.5L43.0859 117.488H43.0273L41.5479 117.408L41.5381 117.409L38.5381 117.641L38.4277 117.649L38.3184 117.642L35.3887 117.438L32.4629 117.516L32.4062 117.518L32.3506 117.515L30.4932 117.425L29.1406 117.43L29.1523 117.441L25.6484 117.664L25.5312 117.676L25.4258 117.664L22.0508 117.383H18.5938L18.6055 117.395L15.0898 117.57H15.0781L11.5625 117.688L11.4922 117.699L11.4219 117.688L8.01172 117.5H8V114.5H8.1875L11.5391 114.699L14.9492 114.582V114.57L18.4531 114.395H18.5234L22.0391 114.383H22.168L25.5664 114.676L28.6396 114.463L30.0039 112.7L31.2246 110.122L31.2705 110.024L31.3301 109.936L32.9365 107.508L34.2393 104.906L34.2705 104.845L34.3066 104.786L35.8457 102.304L37.1279 99.6748L37.1826 99.5635L37.2549 99.4619L38.9053 97.1396L39.9268 94.5078L40.96 91.71L40.9932 91.6201L41.0381 91.5352L42.4287 88.8721L43.7441 86.3164L44 85.5137V84.5H44.1875L44.3203 84.5078L44.6211 83.5664L44.6309 83.5332L44.0117 83.5H44V80.5H44.1875L45.8809 80.6006L46.6357 77.9629L47.3994 75.0879L47.4209 75.0059L47.4512 74.9277L48.502 72.2275L49.1787 69.4053L49.1846 69.3799L49.1914 69.3545L49.9893 66.4668L50 66.4268V64.5H50.1875L50.7764 64.5342L51.1631 63.6025L51.1719 63.5635L50.0117 63.5H50V60.5H50.1875L51.8779 60.5996L52.3516 57.9688L52.8057 55.001L52.8154 54.9336L52.832 54.8682L53.5508 51.9531L53.5537 51.9395L53.5576 51.9268L54.2988 49.1357L54.4463 47.5781L53.0117 47.5H53V44.5H53.1875L54.7764 44.5938L54.8984 43.6035L53.0117 43.5H53V40.5H53.1875L55.3613 40.6289L55.4121 40.3164L55.4961 37.4121L55.5 37.2861L55.5244 37.1621L56.0986 34.2871L56.3555 31.4893L56.1318 28.6016L56.125 28.5127L56.1279 28.4229L56.2529 25.4277L56.2539 25.4092L56.2549 25.3916L56.375 23.5742L55.0117 23.5H55V20.5H55.1875L56.542 20.5801L56.5928 19.5508L56.2451 16.6797L56.207 16.3701L56.2969 16.0703L56.9805 13.7773L57.2852 12.7578L58.3467 12.707L61.3467 12.5654L61.4404 12.5605L61.5332 12.5684ZM57.5186 98.9893L54.7988 99.5146L52.3672 100.655L50.2168 102.275L48.5127 104.398L47.0713 106.844L45.7598 109.3L45.0469 112.019L45.0449 112.025L45.043 112.033L44.3672 114.504L46.625 114.512H46.6602L50.1172 114.617L53.5273 114.535L57.043 114.289H57.1602L60.6641 114.336L60.6523 114.348H64.1797L67.6602 114.406L71.1523 114.348H71.2461L71.3398 114.359L74.7734 114.723L75.3271 114.695V112.247L74.6777 109.726L73.207 107.38L71.5928 104.916L70.041 102.709L67.834 101.183L65.4893 99.7568L62.8945 99.0283L60.2334 98.6309L57.5186 98.9893ZM85.1133 111.559L85.0898 111.57H85.0781L81.5625 111.688L81.4922 111.699L81.4219 111.688L78.2363 111.512L78.2812 111.685L78.3281 111.869V112.06L78.3271 113.982L79.3594 114.312L80.3975 114.386L81.5938 114.289L81.7109 114.277L81.8398 114.289L83.1738 114.405L84.9395 114.247L85.1348 114.229L85.3291 114.263L86.7744 114.512L88.4707 114.438L87.1221 112.105L87.084 112.04L87.0537 111.973L86.8203 111.457L85.1133 111.559ZM33.8906 111.5L32.6445 114.135L32.5752 114.282L32.4746 114.411L32.4688 114.418H32.5742L36.0312 114.43L39.5352 114.312L39.6055 114.301L39.6641 114.312L40.8486 114.371L41.4561 113.774L42.0781 111.501L41.1133 111.559L41.0898 111.57H41.0781L37.5625 111.688L37.4922 111.699L37.4219 111.688L34.0117 111.5H34V111.335L33.8906 111.5ZM72.1367 87.4297H72.0781L68.5742 87.418L65.1406 87.4297L65.1523 87.4414L61.6484 87.6641L61.5312 87.6758L61.4258 87.6641L58.0508 87.3828H54.5938L54.6055 87.3945L51.0898 87.5703H51.0781L47.5625 87.6875L47.4922 87.6992L47.4219 87.6875L46.4395 87.6328L45.0918 90.2529L45.0879 90.2607L43.7402 92.8408L42.7324 95.5703L42.7285 95.582L42.7236 95.5928L41.6348 98.4014L41.5674 98.5762L41.458 98.7285L39.7695 101.102L38.5117 103.685L38.4775 103.753L38.4375 103.818L36.8896 106.312L35.748 108.593L37.5391 108.699L40.9258 108.582V108.57L42.8809 108.455L42.9033 108.37L42.9473 108.199L43.0303 108.045L44.4346 105.413L44.4492 105.386L44.4658 105.358L45.9805 102.787L46.0352 102.694L46.1025 102.61L47.9932 100.253L48.1104 100.106L48.2607 99.9941L50.6836 98.168L50.8076 98.0752L50.9482 98.0088L53.6904 96.7207L53.8594 96.6406L54.0439 96.6055L56.9971 96.0352L57.041 96.0264L57.0859 96.0205L60.0537 95.6299L60.2627 95.6016L60.4717 95.6328L63.4326 96.0762L63.5254 96.0898L63.6152 96.1152L66.4971 96.9238L66.6953 96.9795L66.8721 97.0859L69.4268 98.6406L69.4648 98.6631L69.501 98.6885L71.9678 100.395L72.1875 100.546L72.3408 100.765L74.0684 103.221L74.082 103.24L74.0957 103.262L75.7168 105.736L75.7246 105.749L75.7324 105.761L77.3428 108.328L77.4668 108.525L77.5244 108.751L78 110.594V108.5H78.1875L81.5391 108.699L84.9258 108.582V108.57L85.1885 108.555L84.0811 107.217L83.9375 107.043L83.8516 106.835L82.7227 104.117L81.3418 101.541L79.915 98.9023L79.8994 98.8711L78.5332 96.1992L78.5244 96.1816L78.5156 96.1631L77.2314 93.4697L75.8662 90.8223L75.7832 90.6611L75.7412 90.4854L75.0723 87.709L74.8711 87.3271L72.1367 87.4297ZM54.6055 83.3945L51.0898 83.5703H51.0781L47.835 83.6777L47.458 84.5439L47.4102 84.6914L47.5391 84.6992L50.9492 84.582V84.5703L54.4531 84.3945H54.5234L58.0391 84.3828H58.168L61.5664 84.6758L64.9648 84.4414H65.0469L68.5625 84.418H68.5742L72.0312 84.4297L73.46 84.3818L73.1318 83.3916L72.1367 83.4297H72.0781L68.5742 83.418L65.1406 83.4297L65.1523 83.4414L61.6484 83.6641L61.5312 83.6758L61.4258 83.6641L60.4199 83.5801L59.1992 83.5898H59.1758L56.1758 83.5547L55.1797 83.543L55.1152 83.3828H54.5938L54.6055 83.3945ZM60.6055 67.3945L57.0898 67.5703H57.0781L53.5625 67.6875L53.4922 67.6992L53.4219 67.6875L52.7734 67.6514L52.0889 70.1328L51.3975 73.0234L51.373 73.123L51.3359 73.2188L50.2783 75.9316L49.5273 78.7607L49.5244 78.7754L49.5195 78.7891L48.9863 80.6494L50.9492 80.582V80.5703L53.9414 80.4199L53.9609 80.1445L54.1719 77.1328V77.0625L54.1953 76.9922L54.6992 74.0273L54.7344 73.793L54.8516 73.5938L56 71.3672L56.4453 70.5234L57.3945 70.5703L60.3359 70.6992L62.7617 70.582L64.7188 69.1992L64.8359 71.9414L64.8711 72.7969L65.4453 75.5859V75.6328L65.9492 78.5156L66.3857 80.4316L68.5625 80.418H68.5742L71.9863 80.4287L71.585 79.4805L71.5352 79.3623L71.5059 79.2383L70.8447 76.4297L69.71 73.7852L69.6924 73.7461L69.6777 73.7051L68.6533 70.8789L68.6045 70.7441L68.582 70.6016L68.123 67.7061L68.0996 67.626L67.5547 67.6758L67.4258 67.6641L64.0508 67.3828H60.5938L60.6055 67.3945ZM57.6172 74.7539L57.1484 77.4961L56.9844 80.0039L57.1465 80.3857L58.0391 80.3828H58.168L60.3789 80.5732L62.1641 80.5664L63.3242 80.4492L63.0312 79.1836L63.0195 79.1484L63.0078 79.1016L62.4922 76.1484L62.5039 76.1367L61.9883 73.6172L60.4062 73.6875L60.3359 73.6992L60.2656 73.6875L58.2266 73.6055L57.6172 74.7539ZM60.6055 63.3945L57.0898 63.5703H57.0781L54.2354 63.665L54.0508 64.4258L54.0234 64.5381L53.9785 64.6445L53.9609 64.6846L56.9492 64.582V64.5703L60.4531 64.3945H60.5234L64.0391 64.3828H64.168L67.2588 64.6514L67.0244 63.6299L64.0508 63.3828H60.5938L60.6055 63.3945ZM60.0898 47.5703H60.0781L57.4531 47.6572L57.2744 49.542L57.2627 49.665L57.2314 49.7852L56.457 52.6973L55.7607 55.5195L55.3174 58.4229L55.3145 58.4424L55.3105 58.4619L54.917 60.6514L56.9492 60.582V60.5703L60.4531 60.3945H60.5234L64.0391 60.3828H64.168L66.3291 60.5703L65.9707 58.9824L65.9668 58.9639L65.9629 58.9443L65.3887 56.0547L64.6006 53.2168L64.5879 53.1719L64.5781 53.127L63.9541 50.1904L63.9404 50.127L63.9326 50.0635L63.6006 47.3945L60.0898 47.5703ZM63.5996 47.3887V47.3828H63.5938L63.5996 47.3887ZM60.0898 43.5703H60.0781L57.916 43.6416L57.791 44.6553L59.9492 44.582V44.5703L63.1992 44.4072L63.1621 44.127L63.1553 44.0762L63.1523 44.0254L63.1113 43.4189L60.0898 43.5703ZM59.376 23.6602L59.249 25.5898L59.1289 28.4639L59.3564 31.3887L59.3672 31.5156L59.3555 31.6416L59.0801 34.6338L59.0732 34.7129L59.0576 34.79L58.4912 37.625L58.4072 40.5068L58.4043 40.6045L58.3994 40.6348L59.9492 40.582V40.5703L62.8555 40.4238L62.5166 38.1875L62.5098 38.1406L62.5059 38.0938L62.2441 35.1064V35.1045L61.9873 32.1396L61.5889 29.207L61.5693 29.0664L61.5771 28.9248L61.7344 25.9834L61.6582 23.584L59.376 23.6602ZM59.5508 15.6533L59.2598 16.6279L59.5869 19.3145L59.6016 19.4404L59.5957 19.5684L59.541 20.6641L61.4707 20.5977L61.4375 20.1045L61.4355 20.0791L61.4346 20.0547L61.3262 17.0508L61.3232 16.9561L61.3311 16.8623L61.4473 15.5703L61.3896 15.5654L59.5508 15.6533Z" fill="black"/>
</svg>
