<svg width="120" height="120" viewBox="0 0 120 120" fill="none" xmlns="http://www.w3.org/2000/svg">
<path d="M54.8652 19.5732L57.4814 19.9873L59.9199 20.2725L62.4336 20.083H62.5654L62.6826 20.0938L65.2578 20.3447L65.2598 20.333L67.8916 20.4746L67.9258 20.4814L70.5586 20.6836L73.1924 20.874L73.2754 20.877L75.9023 21.3643L78.5146 21.7412L81.0664 21.9287L81.1143 21.9258L81.1602 21.9336L83.7725 22.3105L83.9219 22.3389L84.0557 22.3877L86.5625 23.2695L86.7842 23.3584L86.9834 23.502L89.0752 25.1416L89.1172 25.1729L89.1475 25.2021L91.1328 26.9648L91.2314 27.0781L93.0146 29.0303L93.0938 29.1162L93.1504 29.1982L94.5986 31.3496L96.2754 33.2344L96.3643 33.334L96.4375 33.4551L97.793 35.7207L97.8477 35.8135L97.8877 35.917L98.9268 38.3496L98.9502 38.4141L98.9648 38.4639L99.6494 40.5576L101.261 41.834L101.458 41.9893L101.595 42.2178L101.65 42.2998L100.372 43.0869L100.131 43.2334L100.034 43.3545L100.141 44.5801L100.044 44.5859L99.874 44.6025L99.7109 44.584L97.3271 44.2617L94.9131 44.5527L94.9043 44.5391L92.4287 45.0332L92.3779 45.0479L89.7754 45.46L89.6885 45.4795L89.6172 45.4775L87.0557 45.5986L84.6484 46.1777L84.5615 46.1973L84.4766 46.2051L81.8555 46.5176L81.7959 46.5186L81.7344 46.5312L79.083 46.624L78.9746 46.6279L78.8594 46.6064L76.2119 46.2939L76.0371 46.2734L75.8594 46.2051L73.375 45.2676L73.3408 45.2607L70.8994 44.2842L70.8115 44.2441L70.7354 44.2061L69.9873 43.7979L70.4883 44.457L72.0938 46.5547L72.1289 46.6133L72.1641 46.6602L73.5938 48.8867L73.6406 48.9688L73.6875 49.0625L74.7539 51.3477L76.1953 53.4219L76.2422 53.4805L76.2773 53.5508L77.543 55.8711L77.5898 55.9414L78.7266 58.3203L79.875 60.7109L79.9336 60.8281L79.9688 60.9688L80.6719 63.5234L80.6836 63.5586L80.6953 63.582L81.293 66.1484V66.1836L81.3047 66.2188L81.6152 67.8955L81.9775 67.7314L83.7119 66.0439L83.9814 65.7861L84.3447 65.6807L86.9463 64.9307L87.251 64.8486L87.5674 64.8955L90.2041 65.2705L90.1924 65.2822L92.7939 65.5283L93.0869 65.5518L93.3447 65.6924L95.7002 66.9463L95.7236 66.958L95.7354 66.9697L98.0674 68.2822L98.4072 68.4814L98.6182 68.833L99.9775 71.1416L99.9893 71.165L101.267 73.415L101.278 73.4385L102.544 75.7939L102.673 76.0283L102.708 76.2979L103.083 78.9346L103.095 79.0869L103.083 79.251L102.896 81.7588L103.212 84.2666L103.259 84.6064L103.142 84.9346L102.274 87.4658L101.396 89.9502L101.372 90.0205L101.325 90.1025L100.188 92.4697L100.095 92.6338L98.6533 94.8486L98.6064 94.9189L98.5479 94.9893L96.8486 97.0166L96.8369 97.04L96.8135 97.0635L95.0322 99.0439L94.8096 99.3018L94.4932 99.4307L92.0322 100.438L91.8799 100.497L91.7275 100.532L89.2197 100.978L88.9619 101.024L88.7041 100.978L86.4072 100.603L84.1924 101.2L81.8486 102.067L81.79 102.079L81.7432 102.103L79.2588 102.806L78.9189 102.899L78.5791 102.841L75.9541 102.36L75.6846 102.302L75.4619 102.173L73.2002 100.825L70.9033 99.5479L70.7979 99.4893L70.6924 99.4072L68.665 97.7432L68.5947 97.6963L68.5361 97.626L66.708 95.7627L66.6377 95.6924L66.5791 95.6104L65.0088 93.5127L64.9971 93.501L63.4385 91.3799L63.3682 91.2744L63.3096 91.1572L62.126 88.7783L62.0557 88.626L62.0205 88.4619L61.3877 85.8955L61.376 85.79L61.3643 85.6963L61.083 83.0713L61.0596 82.9072L61.083 82.7314L61.4111 80.1299V80.083L61.4229 80.0361L61.8916 77.4697L61.9268 77.2939L61.9854 77.1416L63.0283 74.7393L63.0752 74.6104L63.1455 74.5049L64.5986 72.3135L64.6572 72.2197L64.7275 72.1377L66.4971 70.1572L66.708 69.9111L67.0127 69.7822L69.4502 68.7158L69.5439 68.6807L69.6377 68.6572L72.1338 67.9307L72.2627 67.8955L72.3916 67.8838L75.0049 67.6025L75.1572 67.5791L75.2979 67.5908L77.9346 67.8252H77.9229L78.5557 67.8691L78.3633 66.8281L77.7656 64.2617V64.25L77.1094 61.8828L76.0195 59.6328V59.6211L74.918 57.3125L73.6641 55.0508L72.2227 52.9531L72.1406 52.8477L72.0938 52.7305L71.0156 50.4336L69.7031 48.3828L68.0977 46.2734L66.5039 44.1641L66.457 44.1055L66.4102 44.0352L65.1328 41.9141L65.0742 41.832L65.751 41.3818L63.8193 40.1113L63.6826 40.0137L63.5605 39.8965L61.7109 37.9805L61.6504 37.9209L61.6016 37.8643L59.9658 35.7617L59.9072 35.6914L59.8623 35.6113L58.5107 33.3223L58.4941 33.2842L58.4658 33.2432L57.2607 30.874L57.1826 30.7168L57.1455 30.5303L56.5537 28.002L56.3164 27.3994L56.375 27.7344L56.3867 27.8047V27.875L56.5977 30.5117V33.3945L56.5859 33.5117L56.1523 36.0781L56.1172 38.5625V38.6562L56.1055 38.75L55.7188 41.3633L55.707 41.4219L55.6953 41.4688L54.5469 46.6484L54.5117 46.7656L54.4648 46.8828L53.457 49.3438L52.4492 51.7812L52.4258 51.8398L52.3906 51.9102L51.1719 54.2422L50 56.5742V56.5859L48.793 58.9531L48.7344 59.0586L48.6641 59.1523L47.0938 61.2969L47.082 61.3203L47.0586 61.3438L45.3945 63.418L45.3711 63.4531L45.3359 63.4883L43.543 65.4336L43.5312 65.4453L41.7568 67.3457L44.4102 67.6885H44.3984L47.0117 67.9932L47.293 68.0283L47.5273 68.1572L52.2617 70.5947L52.543 70.7354L52.7422 70.9814L54.418 73.0439L54.4297 73.0674L54.4414 73.0791L56.0703 75.2002L56.3047 75.5049L56.3633 75.8916L56.7617 78.5518L57.1484 81.1064V81.1416L57.5 83.7783L57.5352 84.0596L57.4766 84.3174L56.8672 86.9072L56.832 87.0713L56.75 87.2236L55.6602 89.4502L55.0039 91.9346L54.9102 92.2744L54.6758 92.5322L52.918 94.5479H52.9062V94.5596L51.1602 96.5049L51.1016 96.5752L51.043 96.6221L49.0742 98.3799L49.0156 98.4502L48.9336 98.4971L46.7656 100.009L46.6953 100.056L46.625 100.091L44.293 101.356L44.2695 101.368L44.2344 101.38L41.8203 102.54L41.4805 102.704L41.1055 102.692L38.4453 102.563H38.3867L38.3281 102.552L35.75 102.247L35.375 102.2L35.0703 101.989L33.1484 100.63L30.9805 100.173L28.543 100.149L28.4844 100.138H28.4258L25.8359 99.8916L25.4961 99.8564L25.2031 99.6807L22.918 98.2861L22.6367 98.1104L22.4609 97.8525L21.0078 95.7197L19.4023 93.6455L19.332 93.5518L19.2734 93.4463L17.9961 91.1494L17.9258 91.0088L16.918 88.5947L16.8711 88.4893L16.8477 88.3955L16.1914 85.8643L16.1797 85.8408V85.8174L15.582 83.251L15.5586 83.1221L15.5469 82.9932L15.4062 80.3564L15.3945 80.2041L15.418 80.0518L15.8047 77.4268L15.8281 77.3447L15.8516 77.251L16.543 74.708L16.5898 74.5439L16.6719 74.3916L17.9141 72.083L17.9609 72.0127L19.3438 69.7861L19.4375 69.6338L21.4062 67.665L21.5117 67.5479L21.6406 67.4658L23.832 66.0361L23.9258 65.9775L24.0195 65.9307L26.4336 64.8057L26.7148 64.665H27.043L29.6914 64.6182L29.7852 64.6064L29.8789 64.6182L32.4688 64.8994L32.6094 64.9111L32.75 64.958L35.2695 65.7197L35.4453 65.7666L35.6094 65.8721L37.5381 67.0449L37.625 66.9688L39.5469 65.3047L41.3398 63.3945L43.1211 61.4609L44.7148 59.4688L46.1797 57.4766L47.3164 55.2383L48.5 52.8711L48.5117 52.8594V52.8477L49.6953 50.5977L50.6797 48.1953L51.6289 45.8867L52.1914 43.4023L52.7422 40.918L53.1172 38.375L53.1758 35.8555V35.75L53.1875 35.6445L53.5977 33.1602V30.7344L53.3984 28.0977H53.3867L52.9766 25.7891L52.1328 23.6562L52.0625 23.4688L52.0391 23.2812L52.0273 23.1758L53.5156 23L53.8672 22.9648L54.7754 22.6006L54.583 22.5723L52.1318 22.8096L51.9385 22.8213L51.752 22.7988L51.3838 22.7305L51.6221 21.249L51.8516 19.8848L51.8389 19.8232L51.8623 19.8271L51.8594 19.7793L52.0205 19.8086L54.4854 19.5625L54.6787 19.5508L54.8652 19.5732ZM85.5283 68.458L83.876 70.0869L83.6885 70.2744L83.4424 70.3799L81.4971 71.2588L80.2197 71.833L79.751 70.9541L77.7002 70.8135H77.6768L75.1924 70.5908L72.79 70.8604L70.5283 71.5166L68.501 72.3955L67.0127 74.083L65.7236 76.0283L64.8096 78.1729L64.376 80.5869L64.083 82.9189L64.3291 85.2744L64.8916 87.5947L65.9229 89.6689L67.4111 91.7197L68.9111 93.7236L70.6689 95.5166L72.5205 97.0166L74.665 98.2119H74.6768L74.7002 98.2236L76.751 99.4541L78.7666 99.8174L80.876 99.2197L83.29 98.3408L83.3604 98.3174L83.4189 98.2939L85.9619 97.626L86.2783 97.5322L86.5947 97.5908L88.9268 97.9775L91.0596 97.6025L93.0283 96.7822L94.5869 95.0596L96.1689 93.1377L97.54 91.04L98.6299 88.79L99.4385 86.4697L100.188 84.2783L99.9072 81.9697L99.8955 81.8174L99.9072 81.6768L100.083 79.1338L99.7783 76.9658L98.6533 74.8799V74.8916L97.3877 72.665L96.2275 70.6846L94.2939 69.583V69.5947L92.208 68.4814L89.8408 68.2588L89.8057 68.2471H89.7705L87.4385 67.8955L85.5283 68.458ZM27.4062 67.6533L25.3789 68.6025L23.4219 69.8799L21.8047 71.5088L20.5508 73.501L19.3906 75.6572L18.7578 77.9658L18.3945 80.3564L18.5352 82.7471L19.0859 85.1025L19.6953 87.4697L20.6445 89.7432L21.8516 91.9111L23.375 93.8799L23.4102 93.915L23.4336 93.9502L24.7461 95.8838L26.4688 96.9268L28.7188 97.1494H28.707L31.2266 97.1846L31.3672 97.1963L31.5078 97.2197L34.0625 97.7705L34.3672 97.8291L34.625 98.0049L36.4883 99.3057L38.5977 99.5635L40.8477 99.6689L42.875 98.708L45.1602 97.4658L47.1172 96.0947L48.9688 94.4424L50.668 92.5557L52.1797 90.833L52.8008 88.5713L52.8359 88.4307L52.8945 88.3018L53.9844 86.0283L54.4766 83.8955L54.1719 81.5283V81.5166L53.7969 78.9971L53.4453 76.7119L52.0859 74.9424L50.6094 73.1143L48.5234 72.0361L46.4141 70.9463L44.0352 70.6768V70.665H44.0234L42.0312 70.4072L40.1562 71.3682L39.9688 71.4619L39.7695 71.5088L39.0781 71.6377L38.832 70.4189L38.6914 70.5127L38.6328 70.6768L38.0234 72.0479L37.9297 72.001L37.543 71.8369L37.2969 71.4736L37.2061 71.3408L35.9727 71.0352L36.3223 70.0527L36.043 69.6455L34.1914 68.5205L31.9531 67.8525L29.6797 67.6182L27.4062 67.6533ZM80.4609 69.0547L80.4375 69.1367L80.3916 69.2422L80.4189 69.4775L80.4424 69.8057L80.7588 69.6533L80.7705 69.6416L80.5029 69.0459L80.4609 69.0547ZM58.3418 24.4004L58.4072 24.4951L58.4365 24.5967L59.3994 27.0518L59.4395 27.1543L59.4668 27.2666L60.0029 29.6426L61.0938 31.7988L61.1045 31.8008L62.3887 34.0059L63.9521 35.9883L65.6035 37.6885L67.6104 39.0137L69.8623 40.3018L72.0908 41.5254L74.4209 42.458L76.7383 43.3281L79.1162 43.6143L81.5039 43.5322L84.0527 43.2188L86.541 42.6553L86.6787 42.6211L86.8115 42.6094L89.3633 42.4746L91.8535 42.0908L94.4512 41.583L94.5127 41.5703L94.5723 41.5693L96.7402 41.3223L96.0977 39.3984L95.1777 37.2256L93.9258 35.1104L92.2715 33.2305L92.2021 33.1582L92.1455 33.0762L90.7139 30.9639L89.04 29.1279L87.2314 27.5049L85.3135 26.0176L83.2119 25.2695L80.7285 24.9053L78.1904 24.709L78.1426 24.7119L78.0967 24.7031L75.4824 24.3379L72.8672 23.8525L70.3389 23.6699L67.6924 23.4775L67.6807 23.4756L65.0977 23.3301L65.0635 23.3232L65.0381 23.3311L62.4951 23.0977L59.9941 23.2773L59.8496 23.2871L59.7119 23.2607L57.5479 23.0059L58.3418 24.4004ZM55.0146 22.7754L55.2891 22.6777L54.9561 22.6279L55.0146 22.7754Z" fill="black"/>
</svg>
