<svg width="32" height="32" viewBox="0 0 32 32" fill="none" xmlns="http://www.w3.org/2000/svg">
<path d="M17.9379 2.14866L17.935 2.19789L17.7487 4.9838L17.8684 7.84403L18.0432 10.8095L18.0461 10.85V10.8896L18.0528 12.4679L19.7615 10.7255L19.7779 10.7091L21.8582 8.65297L23.8488 6.49066L23.9299 6.40378L24.0235 6.33041L26.2351 4.59091L27.1754 5.5321L26.126 6.5814L27.0344 7.73592L25.9513 8.58636L24.0197 10.683L23.9965 10.7091L23.9714 10.7332L21.8737 12.8087L19.831 14.8928L19.5115 15.2635L21.0637 15.2567L23.982 15.0849H23.9946L24.0061 15.0839L26.9717 14.9584L27.0528 14.9555L27.1329 14.9604L29.9566 15.1486H30V18.114H29.8513L29.8021 18.1111L27.0161 17.9248L24.1558 18.0445L21.1902 18.2193L21.1497 18.2222H21.1101L18.8338 18.2318L19.8484 19.2377L22.033 21.1799L22.0416 21.1886L22.0503 21.1963L24.2359 23.2042L24.2957 23.2602L24.3488 23.32L26.212 25.4495L26.2429 25.4804L24.1461 27.5771L24.0409 27.4718L24.0081 27.4352L22.17 25.3337L20.0627 23.3953L18.0123 21.5737L18.0248 22.7437V22.7669L18.0084 25.6918L18.1339 28.747L18.1194 28.8648L17.7854 30L16.4552 29.8253V30H14.9965L15.1606 28.6331L15.0438 25.7845L15.0429 25.7497V25.715L15.0583 22.764L15.0293 19.8458L15.012 19.6248L13.4944 21.1567L11.5521 23.3422L11.5435 23.3509L11.5357 23.3596L9.52781 25.546L9.47278 25.6049L9.41196 25.658L7.2824 27.522L7.25151 27.552L5.15477 25.4553L5.25999 25.3501L5.29667 25.3172L7.39824 23.4793L9.33667 21.372L11.3098 19.1518L11.3369 19.1209L11.3649 19.0929L12.2781 18.17L12.2704 18.171H12.2211L9.25558 18.2009H9.23241L6.30739 18.1845L3.25206 18.31L3.13332 18.2955L2 17.9615L2.17473 16.6313H2V15.1727L3.36694 15.3368L6.21472 15.22L6.24947 15.2191H6.28423L9.2353 15.2345L11.7182 15.2094L11.6062 15.1129L11.5695 15.081L11.5348 15.0463L9.41679 12.9708L9.40038 12.9544L7.34322 10.8742L5.1818 8.88271L5.09395 8.80259L5.02155 8.70896L3.28199 6.49741L4.22224 5.5572L5.27254 6.6065L6.4271 5.69813L7.27757 6.78025L9.39941 8.73599L9.42355 8.76108L11.5 10.8587L13.5842 12.9013L15.0564 14.1669L15.0931 13.7914L15.0805 10.9359L14.9087 8.01779V8.00524L14.9077 7.99366L14.7822 5.0282L14.7793 4.94711L14.7841 4.86699L14.9724 2.04344V2H17.9379V2.14866Z" fill="black"/>
</svg>
